<?xml version="1.0" encoding="UTF-8" standalone="no"?><svg xmlns="http://www.w3.org/2000/svg" xmlns:xlink="http://www.w3.org/1999/xlink" contentScriptType="application/ecmascript" contentStyleType="text/css" height="482px" preserveAspectRatio="none" style="width:2476px;height:482px;" version="1.1" viewBox="0 0 2476 482" width="2476px" zoomAndPan="magnify"><defs><filter height="300%" id="f1p3vbz8v2581q" width="300%" x="-1" y="-1"><feGaussianBlur result="blurOut" stdDeviation="2.0"/><feColorMatrix in="blurOut" result="blurOut2" type="matrix" values="0 0 0 0 0 0 0 0 0 0 0 0 0 0 0 0 0 0 .4 0"/><feOffset dx="4.0" dy="4.0" in="blurOut2" result="blurOut3"/><feBlend in="SourceGraphic" in2="blurOut3" mode="normal"/></filter></defs><g><!--cluster ##14526--><!--cluster ##14559--><!--cluster ##14568--><!--class Role--><a target="_top" xlink:actuate="onRequest" xlink:href="../Role.html" xlink:show="new" xlink:title="Role of a party in an activity." xlink:type="simple"><rect fill="#FEFEEE" filter="url(#f1p3vbz8v2581q)" height="44.7734" id="Role" style="stroke: #A80036; stroke-width: 1.5;" width="175" x="1533.75" y="40.5"/><rect fill="#FEFEEE" height="23.9688" style="stroke: #A80036; stroke-width: 1.5;" width="175" x="1533.75" y="40.5"/><text fill="#000000" font-family="sans-serif" font-size="12" lengthAdjust="spacingAndGlyphs" textLength="27" x="1607.75" y="56.6387">Role</text><line style="stroke: #A80036; stroke-width: 1.5;" x1="1534.75" x2="1707.75" y1="64.4688" y2="64.4688"/><ellipse cx="1544.75" cy="76.3711" fill="#84BE84" rx="3" ry="3" style="stroke: #038048; stroke-width: 1.0;"/><text fill="#000000" font-family="sans-serif" font-size="11" lengthAdjust="spacingAndGlyphs" textLength="53" x="1553.75" y="78.6792">PartyRole</text><text fill="#000000" font-family="sans-serif" font-size="11" font-style="italic" lengthAdjust="spacingAndGlyphs" textLength="92" x="1610.75" y="78.6792">(PartyRoleCode)</text></a><!--class AccountPartyRole--><a target="_top" xlink:actuate="onRequest" xlink:href="../AccountPartyRole.html" xlink:show="new" xlink:title="Role played by a party in the context of account operations." xlink:type="simple"><rect fill="#FEFECE" filter="url(#f1p3vbz8v2581q)" height="23.9688" id="AccountPartyRole" style="stroke: #A80036; stroke-width: 1.5;" width="116" x="959.5" y="166"/><rect fill="#FEFECE" height="23.9688" style="stroke: #A80036; stroke-width: 1.5;" width="116" x="959.5" y="166"/><text fill="#000000" font-family="sans-serif" font-size="12" lengthAdjust="spacingAndGlyphs" textLength="110" x="962.5" y="182.1387">AccountPartyRole</text></a><!--class AccountOwnerRole--><a target="_top" xlink:actuate="onRequest" xlink:href="../AccountOwnerRole.html" xlink:show="new" xlink:title="Party that legally owns the account." xlink:type="simple"><rect fill="#FEFEEE" filter="url(#f1p3vbz8v2581q)" height="23.9688" id="AccountOwnerRole" style="stroke: #A80036; stroke-width: 1.5;" width="123" x="38.75" y="272"/><rect fill="#FEFEEE" height="23.9688" style="stroke: #A80036; stroke-width: 1.5;" width="123" x="38.75" y="272"/><text fill="#000000" font-family="sans-serif" font-size="12" lengthAdjust="spacingAndGlyphs" textLength="117" x="41.75" y="288.1387">AccountOwnerRole</text></a><!--class InvestmentAccountPartyRole--><a target="_top" xlink:actuate="onRequest" xlink:href="../InvestmentAccountPartyRole.html" xlink:show="new" xlink:title="Specifies roles played by a party that are related to an investment account." xlink:type="simple"><rect fill="#FEFEEE" filter="url(#f1p3vbz8v2581q)" height="23.9688" id="InvestmentAccountPartyRole" style="stroke: #A80036; stroke-width: 1.5;" width="185" x="196.75" y="272"/><rect fill="#FEFEEE" height="23.9688" style="stroke: #A80036; stroke-width: 1.5;" width="185" x="196.75" y="272"/><text fill="#000000" font-family="sans-serif" font-size="12" lengthAdjust="spacingAndGlyphs" textLength="179" x="199.75" y="288.1387">InvestmentAccountPartyRole</text></a><!--class IntermediaryRole--><a target="_top" xlink:actuate="onRequest" xlink:href="../IntermediaryRole.html" xlink:show="new" xlink:title="Party that provides services relating to financial products to investors, for example, advice on products and placement of orders." xlink:type="simple"><rect fill="#FEFEEE" filter="url(#f1p3vbz8v2581q)" height="23.9688" id="IntermediaryRole" style="stroke: #A80036; stroke-width: 1.5;" width="111" x="416.75" y="272"/><rect fill="#FEFEEE" height="23.9688" style="stroke: #A80036; stroke-width: 1.5;" width="111" x="416.75" y="272"/><text fill="#000000" font-family="sans-serif" font-size="12" lengthAdjust="spacingAndGlyphs" textLength="105" x="419.75" y="288.1387">IntermediaryRole</text></a><!--class AccountServicerRole--><a target="_top" xlink:actuate="onRequest" xlink:href="../AccountServicerRole.html" xlink:show="new" xlink:title="Party that manages the account on behalf of the account owner, that is manages the registration and booking of entries on the account, calculates balances on the account and provides information about the account." xlink:type="simple"><rect fill="#FEFEEE" filter="url(#f1p3vbz8v2581q)" height="23.9688" id="AccountServicerRole" style="stroke: #A80036; stroke-width: 1.5;" width="134" x="563" y="272"/><rect fill="#FEFEEE" height="23.9688" style="stroke: #A80036; stroke-width: 1.5;" width="134" x="563" y="272"/><text fill="#000000" font-family="sans-serif" font-size="12" lengthAdjust="spacingAndGlyphs" textLength="128" x="566" y="288.1387">AccountServicerRole</text></a><!--class AccountResponsiblePartyRole--><a target="_top" xlink:actuate="onRequest" xlink:href="../AccountResponsiblePartyRole.html" xlink:show="new" xlink:title="Party which is responsible for creating and managing an account owned by another party." xlink:type="simple"><rect fill="#FEFEEE" filter="url(#f1p3vbz8v2581q)" height="23.9688" id="AccountResponsiblePartyRole" style="stroke: #A80036; stroke-width: 1.5;" width="192" x="732" y="272"/><rect fill="#FEFEEE" height="23.9688" style="stroke: #A80036; stroke-width: 1.5;" width="192" x="732" y="272"/><text fill="#000000" font-family="sans-serif" font-size="12" lengthAdjust="spacingAndGlyphs" textLength="186" x="735" y="288.1387">AccountResponsiblePartyRole</text></a><!--class TreasuryManager--><a target="_top" xlink:actuate="onRequest" xlink:href="../TreasuryManager.html" xlink:show="new" xlink:title="Person responsible for the treasury department within an organisation." xlink:type="simple"><rect fill="#FEFEEE" filter="url(#f1p3vbz8v2581q)" height="23.9688" id="TreasuryManager" style="stroke: #A80036; stroke-width: 1.5;" width="115" x="959.75" y="272"/><rect fill="#FEFEEE" height="23.9688" style="stroke: #A80036; stroke-width: 1.5;" width="115" x="959.75" y="272"/><text fill="#000000" font-family="sans-serif" font-size="12" lengthAdjust="spacingAndGlyphs" textLength="109" x="962.75" y="288.1387">TreasuryManager</text></a><!--class AccountInformationRecipientRole--><a target="_top" xlink:actuate="onRequest" xlink:href="../AccountInformationRecipientRole.html" xlink:show="new" xlink:title="Party that is entitled by the account owner to receive information about movements in the account." xlink:type="simple"><rect fill="#FEFEEE" filter="url(#f1p3vbz8v2581q)" height="23.9688" id="AccountInformationRecipientRole" style="stroke: #A80036; stroke-width: 1.5;" width="213" x="1109.75" y="272"/><rect fill="#FEFEEE" height="23.9688" style="stroke: #A80036; stroke-width: 1.5;" width="213" x="1109.75" y="272"/><text fill="#000000" font-family="sans-serif" font-size="12" lengthAdjust="spacingAndGlyphs" textLength="207" x="1112.75" y="288.1387">AccountInformationRecipientRole</text></a><!--class AuthorisedAccountModifier--><a target="_top" xlink:actuate="onRequest" xlink:href="../AuthorisedAccountModifier.html" xlink:show="new" xlink:title="Authorised sender of a message related to the life cycle of an account." xlink:type="simple"><rect fill="#FEFEEE" filter="url(#f1p3vbz8v2581q)" height="23.9688" id="AuthorisedAccountModifier" style="stroke: #A80036; stroke-width: 1.5;" width="174" x="1358" y="272"/><rect fill="#FEFEEE" height="23.9688" style="stroke: #A80036; stroke-width: 1.5;" width="174" x="1358" y="272"/><text fill="#000000" font-family="sans-serif" font-size="12" lengthAdjust="spacingAndGlyphs" textLength="168" x="1361" y="288.1387">AuthorisedAccountModifier</text></a><!--class RepresentativeOfficer--><a target="_top" xlink:actuate="onRequest" xlink:href="../RepresentativeOfficer.html" xlink:show="new" xlink:title="Officer who has some rights to represent a given organisation. In account management, it is the person to be contacted by the account servicer." xlink:type="simple"><rect fill="#FEFEEE" filter="url(#f1p3vbz8v2581q)" height="23.9688" id="RepresentativeOfficer" style="stroke: #A80036; stroke-width: 1.5;" width="141" x="1567.75" y="272"/><rect fill="#FEFEEE" height="23.9688" style="stroke: #A80036; stroke-width: 1.5;" width="141" x="1567.75" y="272"/><text fill="#000000" font-family="sans-serif" font-size="12" lengthAdjust="spacingAndGlyphs" textLength="135" x="1570.75" y="288.1387">RepresentativeOfficer</text></a><!--class RolePlayer--><a target="_top" xlink:actuate="onRequest" xlink:href="../RolePlayer.html" xlink:show="new" xlink:title="Type of entity that plays a specific role in a specific context." xlink:type="simple"><rect fill="#EEEEEE" filter="url(#f1p3vbz8v2581q)" height="23.9688" id="RolePlayer" style="stroke: #A80036; stroke-width: 1.5;" width="71" x="2051.75" y="448"/><rect fill="#EEEEEE" height="23.9688" style="stroke: #A80036; stroke-width: 1.5;" width="71" x="2051.75" y="448"/><text fill="#000000" font-family="sans-serif" font-size="12" lengthAdjust="spacingAndGlyphs" textLength="65" x="2054.75" y="464.1387">RolePlayer</text></a><!--class ContactPersonRole--><a target="_top" xlink:actuate="onRequest" xlink:href="../ContactPersonRole.html" xlink:show="new" xlink:title="Person to be contacted in a given organisation. In the corporate action domain (including meeting notifications) , it is the contact person at the party organising the meeting, at the issuer or at an intermediary." xlink:type="simple"><rect fill="#EEEEEE" filter="url(#f1p3vbz8v2581q)" height="23.9688" id="ContactPersonRole" style="stroke: #A80036; stroke-width: 1.5;" width="126" x="2004" y="362"/><rect fill="#EEEEEE" height="23.9688" style="stroke: #A80036; stroke-width: 1.5;" width="126" x="2004" y="362"/><text fill="#000000" font-family="sans-serif" font-size="12" lengthAdjust="spacingAndGlyphs" textLength="120" x="2007" y="378.1387">ContactPersonRole</text></a><!--class CounterpartyRisk--><a target="_top" xlink:actuate="onRequest" xlink:href="../CounterpartyRisk.html" xlink:show="new" xlink:title="Calculation of the exposure amount that one party has vis-a-vis one counterparty or a central system, based on its credit risk." xlink:type="simple"><rect fill="#EEEEEE" filter="url(#f1p3vbz8v2581q)" height="23.9688" id="CounterpartyRisk" style="stroke: #A80036; stroke-width: 1.5;" width="113" x="2010.75" y="272"/><rect fill="#EEEEEE" height="23.9688" style="stroke: #A80036; stroke-width: 1.5;" width="113" x="2010.75" y="272"/><text fill="#000000" font-family="sans-serif" font-size="12" lengthAdjust="spacingAndGlyphs" textLength="107" x="2013.75" y="288.1387">CounterpartyRisk</text></a><!--class Entry--><a target="_top" xlink:actuate="onRequest" xlink:href="../Entry.html" xlink:show="new" xlink:title="Posting to an account that results in an increase or decrease to a balance." xlink:type="simple"><rect fill="#EEEEEE" filter="url(#f1p3vbz8v2581q)" height="23.9688" id="Entry" style="stroke: #A80036; stroke-width: 1.5;" width="38" x="2004" y="166"/><rect fill="#EEEEEE" height="23.9688" style="stroke: #A80036; stroke-width: 1.5;" width="38" x="2004" y="166"/><text fill="#000000" font-family="sans-serif" font-size="12" lengthAdjust="spacingAndGlyphs" textLength="32" x="2007" y="182.1387">Entry</text></a><!--class Account--><a target="_top" xlink:actuate="onRequest" xlink:href="../Account.html" xlink:show="new" xlink:title="Record of transactions in specific types of assets, maintained by a servicing party on behalf of one or more owning parties. Business relationship between an account servicer and one or more account owners." xlink:type="simple"><rect fill="#EEEEEE" filter="url(#f1p3vbz8v2581q)" height="23.9688" id="Account" style="stroke: #A80036; stroke-width: 1.5;" width="57" x="1765.75" y="272"/><rect fill="#EEEEEE" height="23.9688" style="stroke: #A80036; stroke-width: 1.5;" width="57" x="1765.75" y="272"/><text fill="#000000" font-family="sans-serif" font-size="12" lengthAdjust="spacingAndGlyphs" textLength="51" x="1768.75" y="288.1387">Account</text></a><!--link Role to AccountPartyRole--><path d="M1513.64,84.086 C1385.34,108.089 1175.39,147.367 1074.58,166.228 " fill="none" id="Role-AccountPartyRole" style="stroke: #A80036; stroke-width: 1.0;"/><polygon fill="none" points="1512.55,77.168,1533.5,80.371,1515.12,90.929,1512.55,77.168" style="stroke: #A80036; stroke-width: 1.0;"/><!--link AccountPartyRole to AccountOwnerRole--><path d="M939.207,181.489 C759.678,187.834 320.962,206.946 179,246 C157.388,251.945 134.361,263.383 118.778,271.975 " fill="none" id="AccountPartyRole-AccountOwnerRole" style="stroke: #A80036; stroke-width: 1.0;"/><polygon fill="none" points="939.048,174.49,959.278,180.795,939.532,188.482,939.048,174.49" style="stroke: #A80036; stroke-width: 1.0;"/><!--link AccountPartyRole to InvestmentAccountPartyRole--><path d="M939.028,181.097 C820.746,185.698 589.567,200.259 399,246 C370.787,252.772 339.509,263.632 317.541,271.839 " fill="none" id="AccountPartyRole-InvestmentAccountPartyRole" style="stroke: #A80036; stroke-width: 1.0;"/><polygon fill="none" points="938.839,174.1,959.079,180.372,939.345,188.091,938.839,174.1" style="stroke: #A80036; stroke-width: 1.0;"/><!--link AccountPartyRole to IntermediaryRole--><path d="M939.336,182.241 C844.362,187.961 679.635,203.605 545,246 C525.213,252.231 504.252,263.389 489.892,271.828 " fill="none" id="AccountPartyRole-IntermediaryRole" style="stroke: #A80036; stroke-width: 1.0;"/><polygon fill="none" points="939,175.249,959.36,181.121,939.782,189.227,939,175.249" style="stroke: #A80036; stroke-width: 1.0;"/><!--link AccountPartyRole to AccountServicerRole--><path d="M939.503,191.775 C877.605,203.016 789.099,221.424 714,246 C692.343,253.087 668.67,263.802 651.992,271.88 " fill="none" id="AccountPartyRole-AccountServicerRole" style="stroke: #A80036; stroke-width: 1.0;"/><polygon fill="none" points="938.501,184.844,959.417,188.24,940.949,198.628,938.501,184.844" style="stroke: #A80036; stroke-width: 1.0;"/><!--link AccountPartyRole to AccountResponsiblePartyRole--><path d="M979.025,199.896 C939.52,221.634 879.181,254.837 848.081,271.95 " fill="none" id="AccountPartyRole-AccountResponsiblePartyRole" style="stroke: #A80036; stroke-width: 1.0;"/><polygon fill="none" points="975.877,193.639,996.774,190.13,982.626,205.905,975.877,193.639" style="stroke: #A80036; stroke-width: 1.0;"/><!--link AccountPartyRole to TreasuryManager--><path d="M1017,210.217 C1017,231.114 1017,257.371 1017,271.95 " fill="none" id="AccountPartyRole-TreasuryManager" style="stroke: #A80036; stroke-width: 1.0;"/><polygon fill="none" points="1010,210.13,1017,190.13,1024,210.13,1010,210.13" style="stroke: #A80036; stroke-width: 1.0;"/><!--link AccountPartyRole to AccountInformationRecipientRole--><path d="M1056.13,199.452 C1097.71,221.18 1161.89,254.72 1194.86,271.95 " fill="none" id="AccountPartyRole-AccountInformationRecipientRole" style="stroke: #A80036; stroke-width: 1.0;"/><polygon fill="none" points="1052.78,205.597,1038.3,190.13,1059.26,193.189,1052.78,205.597" style="stroke: #A80036; stroke-width: 1.0;"/><!--link AccountPartyRole to AuthorisedAccountModifier--><path d="M1094.3,192.15 C1159.95,204.016 1256.4,223.097 1339,246 C1365.67,253.396 1395.37,263.971 1416.53,271.923 " fill="none" id="AccountPartyRole-AuthorisedAccountModifier" style="stroke: #A80036; stroke-width: 1.0;"/><polygon fill="none" points="1093,199.03,1074.54,188.629,1095.46,185.247,1093,199.03" style="stroke: #A80036; stroke-width: 1.0;"/><!--link AccountPartyRole to RepresentativeOfficer--><path d="M1094.72,182.257 C1199.46,188.116 1391.01,204.034 1549,246 C1572.61,252.272 1598.24,263.425 1615.9,271.851 " fill="none" id="AccountPartyRole-RepresentativeOfficer" style="stroke: #A80036; stroke-width: 1.0;"/><polygon fill="none" points="1094.26,189.242,1074.65,181.199,1094.99,175.262,1094.26,189.242" style="stroke: #A80036; stroke-width: 1.0;"/><!--link ContactPersonRole to RolePlayer--><!--link CounterpartyRisk to ContactPersonRole--><!--link Entry to CounterpartyRisk--><!--link Role to RolePlayer--><path d="M1708.46,67.271 C1916.58,76.218 2424,105.376 2424,177 C2424,177 2424,177 2424,375 C2424,435.4496 2217.27,452.737 2127.64,457.3913 " fill="none" id="Role-RolePlayer" style="stroke: #A80036; stroke-width: 1.0;"/><polygon fill="#A80036" points="2122.43,457.6547,2131.6238,461.1866,2127.4234,457.3976,2131.2124,453.1972,2122.43,457.6547" style="stroke: #A80036; stroke-width: 1.0;"/><text fill="#000000" font-family="sans-serif" font-size="13" lengthAdjust="spacingAndGlyphs" textLength="39" x="2425" y="288.0669">Player</text><text fill="#000000" font-family="sans-serif" font-size="13" lengthAdjust="spacingAndGlyphs" textLength="7" x="2130.8912" y="451.3671">*</text><!--link Role to ContactPersonRole--><path d="M1708.51,69.37 C1862.4,79.736 2168.2,104.809 2199,142 C2239.73,191.183 2175.31,279.28 2140,322 C2127.24,337.444 2108.69,350.321 2093.48,359.272 " fill="none" id="Role-ContactPersonRole" style="stroke: #A80036; stroke-width: 1.0;"/><polygon fill="#A80036" points="2088.88,361.923,2098.6745,360.8898,2093.2108,359.4242,2094.6764,353.9605,2088.88,361.923" style="stroke: #A80036; stroke-width: 1.0;"/><text fill="#000000" font-family="sans-serif" font-size="13" lengthAdjust="spacingAndGlyphs" textLength="121" x="2205" y="233.0669">ContactPersonRole</text><text fill="#000000" font-family="sans-serif" font-size="13" lengthAdjust="spacingAndGlyphs" textLength="8" x="2085.6825" y="350.9447">1</text><!--link Role to CounterpartyRisk--><path d="M1708.41,67.134 C1822.72,73.236 2013.8,90.981 2059,142 C2089.92,176.898 2079.32,237.753 2071.82,266.745 " fill="none" id="Role-CounterpartyRisk" style="stroke: #A80036; stroke-width: 1.0;"/><polygon fill="#A80036" points="2070.47,271.774,2076.6701,264.1216,2071.7685,266.9456,2068.9446,262.044,2070.47,271.774" style="stroke: #A80036; stroke-width: 1.0;"/><text fill="#000000" font-family="sans-serif" font-size="13" lengthAdjust="spacingAndGlyphs" textLength="109" x="2080" y="182.0669">CounterpartyRisk</text><text fill="#000000" font-family="sans-serif" font-size="13" lengthAdjust="spacingAndGlyphs" textLength="24" x="2042.2304" y="261.0026">0..1</text><!--link Role to Entry--><path d="M1697.56,85.52 C1789.99,111.503 1940.31,153.756 1998.72,170.174 " fill="none" id="Role-Entry" style="stroke: #A80036; stroke-width: 1.0;"/><polygon fill="#A80036" points="2003.75,171.588,1996.1734,165.2955,1998.9377,170.231,1994.0022,172.9953,2003.75,171.588" style="stroke: #A80036; stroke-width: 1.0;"/><text fill="#000000" font-family="sans-serif" font-size="13" lengthAdjust="spacingAndGlyphs" textLength="33" x="1871" y="129.0669">Entry</text><text fill="#000000" font-family="sans-serif" font-size="13" lengthAdjust="spacingAndGlyphs" textLength="8" x="1987.9297" y="163.484">1</text><!--link AccountPartyRole to Account--><path d="M1074.63,181.431 C1220.95,188.085 1603.77,208.635 1725,246 C1742.27,251.323 1760.22,261.099 1773.48,269.265 " fill="none" id="AccountPartyRole-Account" style="stroke: #A80036; stroke-width: 1.0;"/><polygon fill="#A80036" points="1777.78,271.964,1772.2804,263.7937,1773.544,269.3076,1768.0301,270.5712,1777.78,271.964" style="stroke: #A80036; stroke-width: 1.0;"/><text fill="#000000" font-family="sans-serif" font-size="13" lengthAdjust="spacingAndGlyphs" textLength="52" x="1695" y="233.0669">Account</text><text fill="#000000" font-family="sans-serif" font-size="13" lengthAdjust="spacingAndGlyphs" textLength="7" x="1762.5716" y="260.9998">*</text><!--link Entry to Account--><path d="M2003.87,187.688 C1963.75,205.907 1870.62,248.202 1823.07,269.798 " fill="none" id="Entry-Account" style="stroke: #A80036; stroke-width: 1.0;"/><polygon fill="#A80036" points="1818.34,271.948,1828.1885,271.8617,1822.8911,269.8774,1824.8755,264.58,1818.34,271.948" style="stroke: #A80036; stroke-width: 1.0;"/><text fill="#000000" font-family="sans-serif" font-size="13" lengthAdjust="spacingAndGlyphs" textLength="52" x="1931" y="233.0669">Account</text><text fill="#000000" font-family="sans-serif" font-size="13" lengthAdjust="spacingAndGlyphs" textLength="7" x="1817.0741" y="260.9783">*</text><!--link Account to Account--><path d="M1822.51,275.984 C1840.18,274.051 1857,276.723 1857,284 C1857,290.538 1843.42,293.359 1827.85,292.463 " fill="none" id="Account-Account" style="stroke: #A80036; stroke-width: 1.0;"/><polygon fill="#A80036" points="1822.51,292.016,1831.1341,296.7725,1827.4916,292.4445,1831.8197,288.8019,1822.51,292.016" style="stroke: #A80036; stroke-width: 1.0;"/><text fill="#000000" font-family="sans-serif" font-size="13" lengthAdjust="spacingAndGlyphs" textLength="94" x="1863" y="288.0669">ParentAccount</text><text fill="#000000" font-family="sans-serif" font-size="13" lengthAdjust="spacingAndGlyphs" textLength="8" x="1830.7766" y="287.9799">1</text></g></svg>