<?xml version="1.0" encoding="UTF-8" standalone="no"?><svg xmlns="http://www.w3.org/2000/svg" xmlns:xlink="http://www.w3.org/1999/xlink" contentScriptType="application/ecmascript" contentStyleType="text/css" height="870px" preserveAspectRatio="none" style="width:3389px;height:870px;" version="1.1" viewBox="0 0 3389 870" width="3389px" zoomAndPan="magnify"><defs><filter height="300%" id="fmdgien8lg2jv" width="300%" x="-1" y="-1"><feGaussianBlur result="blurOut" stdDeviation="2.0"/><feColorMatrix in="blurOut" result="blurOut2" type="matrix" values="0 0 0 0 0 0 0 0 0 0 0 0 0 0 0 0 0 0 .4 0"/><feOffset dx="4.0" dy="4.0" in="blurOut2" result="blurOut3"/><feBlend in="SourceGraphic" in2="blurOut3" mode="normal"/></filter></defs><g><!--cluster ##4685--><!--cluster ##4706--><!--cluster ##4733--><!--class Product--><a target="_top" xlink:actuate="onRequest" xlink:href="../Product.html" xlink:show="new" xlink:title="Item that is offered for sale. Products can be services or goods." xlink:type="simple"><rect fill="#FEFEEE" filter="url(#fmdgien8lg2jv)" height="70.3828" id="Product" style="stroke: #A80036; stroke-width: 1.5;" width="171" x="239.75" y="40"/><rect fill="#FEFEEE" height="23.9688" style="stroke: #A80036; stroke-width: 1.5;" width="171" x="239.75" y="40"/><text fill="#000000" font-family="sans-serif" font-size="12" lengthAdjust="spacingAndGlyphs" textLength="49" x="300.75" y="56.1387">Product</text><line style="stroke: #A80036; stroke-width: 1.5;" x1="240.75" x2="409.75" y1="63.9688" y2="63.9688"/><ellipse cx="250.75" cy="75.8711" fill="#84BE84" rx="3" ry="3" style="stroke: #038048; stroke-width: 1.0;"/><text fill="#000000" font-family="sans-serif" font-size="11" lengthAdjust="spacingAndGlyphs" textLength="33" x="259.75" y="78.1792">Name</text><text fill="#000000" font-family="sans-serif" font-size="11" font-style="italic" lengthAdjust="spacingAndGlyphs" textLength="70" x="296.75" y="78.1792">(Max35Text)</text><ellipse cx="250.75" cy="88.6758" fill="#84BE84" rx="3" ry="3" style="stroke: #038048; stroke-width: 1.0;"/><text fill="#000000" font-family="sans-serif" font-size="11" lengthAdjust="spacingAndGlyphs" textLength="64" x="259.75" y="90.9839">Description</text><text fill="#000000" font-family="sans-serif" font-size="11" font-style="italic" lengthAdjust="spacingAndGlyphs" textLength="77" x="327.75" y="90.9839">(Max140Text)</text><ellipse cx="250.75" cy="101.4805" fill="#84BE84" rx="3" ry="3" style="stroke: #038048; stroke-width: 1.0;"/><text fill="#000000" font-family="sans-serif" font-size="11" lengthAdjust="spacingAndGlyphs" textLength="39" x="259.75" y="103.7886">Quality</text><text fill="#000000" font-family="sans-serif" font-size="11" font-style="italic" lengthAdjust="spacingAndGlyphs" textLength="70" x="302.75" y="103.7886">(Max70Text)</text></a><!--class Service--><a target="_top" xlink:actuate="onRequest" xlink:href="../Service.html" xlink:show="new" xlink:title="Service is the intangible equivalent of a good." xlink:type="simple"><rect fill="#FEFEEE" filter="url(#fmdgien8lg2jv)" height="83.1875" id="Service" style="stroke: #A80036; stroke-width: 1.5;" width="283" x="127.75" y="188.5"/><rect fill="#FEFEEE" height="23.9688" style="stroke: #A80036; stroke-width: 1.5;" width="283" x="127.75" y="188.5"/><text fill="#000000" font-family="sans-serif" font-size="12" lengthAdjust="spacingAndGlyphs" textLength="45" x="246.75" y="204.6387">Service</text><line style="stroke: #A80036; stroke-width: 1.5;" x1="128.75" x2="409.75" y1="212.4688" y2="212.4688"/><ellipse cx="138.75" cy="224.3711" fill="#84BE84" rx="3" ry="3" style="stroke: #038048; stroke-width: 1.0;"/><text fill="#000000" font-family="sans-serif" font-size="11" lengthAdjust="spacingAndGlyphs" textLength="43" x="147.75" y="226.6792">Amount</text><text fill="#000000" font-family="sans-serif" font-size="11" font-style="italic" lengthAdjust="spacingAndGlyphs" textLength="126" x="194.75" y="226.6792">(CurrencyAndAmount)</text><ellipse cx="138.75" cy="237.1758" fill="#84BE84" rx="3" ry="3" style="stroke: #038048; stroke-width: 1.0;"/><text fill="#000000" font-family="sans-serif" font-size="11" lengthAdjust="spacingAndGlyphs" textLength="27" x="147.75" y="239.4839">Type</text><text fill="#000000" font-family="sans-serif" font-size="11" font-style="italic" lengthAdjust="spacingAndGlyphs" textLength="70" x="178.75" y="239.4839">(Max35Text)</text><ellipse cx="138.75" cy="249.9805" fill="#84BE84" rx="3" ry="3" style="stroke: #038048; stroke-width: 1.0;"/><text fill="#000000" font-family="sans-serif" font-size="11" lengthAdjust="spacingAndGlyphs" textLength="87" x="147.75" y="252.2886">TaxDesignation</text><text fill="#000000" font-family="sans-serif" font-size="11" font-style="italic" lengthAdjust="spacingAndGlyphs" textLength="166" x="238.75" y="252.2886">(ServiceTaxDesignationCode)</text><ellipse cx="138.75" cy="262.7852" fill="#84BE84" rx="3" ry="3" style="stroke: #038048; stroke-width: 1.0;"/><text fill="#000000" font-family="sans-serif" font-size="11" lengthAdjust="spacingAndGlyphs" textLength="25" x="147.75" y="265.0933">Rate</text><text fill="#000000" font-family="sans-serif" font-size="11" font-style="italic" lengthAdjust="spacingAndGlyphs" textLength="98" x="176.75" y="265.0933">(PercentageRate)</text></a><!--class FinancialService--><a target="_top" xlink:actuate="onRequest" xlink:href="../FinancialService.html" xlink:show="new" xlink:title="Services provided by a financial institution to its clients." xlink:type="simple"><rect fill="#FEFEEE" filter="url(#fmdgien8lg2jv)" height="23.9688" id="FinancialService" style="stroke: #A80036; stroke-width: 1.5;" width="106" x="229.5" y="350"/><rect fill="#FEFEEE" height="23.9688" style="stroke: #A80036; stroke-width: 1.5;" width="106" x="229.5" y="350"/><text fill="#000000" font-family="sans-serif" font-size="12" lengthAdjust="spacingAndGlyphs" textLength="100" x="232.5" y="366.1387">FinancialService</text></a><!--class AccountService--><a target="_top" xlink:actuate="onRequest" xlink:href="../AccountService.html" xlink:show="new" xlink:title="Services linked to an account which are available to the account owner or to the holder of a mandate." xlink:type="simple"><rect fill="#FEFECE" filter="url(#fmdgien8lg2jv)" height="23.9688" id="AccountService" style="stroke: #A80036; stroke-width: 1.5;" width="102" x="238.5" y="452"/><rect fill="#FEFECE" height="23.9688" style="stroke: #A80036; stroke-width: 1.5;" width="102" x="238.5" y="452"/><text fill="#000000" font-family="sans-serif" font-size="12" lengthAdjust="spacingAndGlyphs" textLength="96" x="241.5" y="468.1387">AccountService</text></a><!--class ReportingService--><a target="_top" xlink:actuate="onRequest" xlink:href="../ReportingService.html" xlink:show="new" xlink:title="Specifies the reporting parameters that are included in the account contract which specifies the services linked to the account.." xlink:type="simple"><rect fill="#FEFEEE" filter="url(#fmdgien8lg2jv)" height="23.9688" id="ReportingService" style="stroke: #A80036; stroke-width: 1.5;" width="112" x="93.5" y="556"/><rect fill="#FEFEEE" height="23.9688" style="stroke: #A80036; stroke-width: 1.5;" width="112" x="93.5" y="556"/><text fill="#000000" font-family="sans-serif" font-size="12" lengthAdjust="spacingAndGlyphs" textLength="106" x="96.5" y="572.1387">ReportingService</text></a><!--class CashAccountService--><a target="_top" xlink:actuate="onRequest" xlink:href="../CashAccountService.html" xlink:show="new" xlink:title="Services linked to an account which are available to the account owner or to the holder of a mandate. The exercise of these services may be submitted to a limit." xlink:type="simple"><rect fill="#FEFEEE" filter="url(#fmdgien8lg2jv)" height="23.9688" id="CashAccountService" style="stroke: #A80036; stroke-width: 1.5;" width="133" x="240.75" y="556"/><rect fill="#FEFEEE" height="23.9688" style="stroke: #A80036; stroke-width: 1.5;" width="133" x="240.75" y="556"/><text fill="#000000" font-family="sans-serif" font-size="12" lengthAdjust="spacingAndGlyphs" textLength="127" x="243.75" y="572.1387">CashAccountService</text></a><!--class InvestmentAccountService--><a target="_top" xlink:actuate="onRequest" xlink:href="../InvestmentAccountService.html" xlink:show="new" xlink:title="Services linked to an account which are available to the account owner or to the holder of a mandate. The exercise of these services may be submitted to a limit." xlink:type="simple"><rect fill="#FEFEEE" filter="url(#fmdgien8lg2jv)" height="23.9688" id="InvestmentAccountService" style="stroke: #A80036; stroke-width: 1.5;" width="171" x="166.75" y="660"/><rect fill="#FEFEEE" height="23.9688" style="stroke: #A80036; stroke-width: 1.5;" width="171" x="166.75" y="660"/><text fill="#000000" font-family="sans-serif" font-size="12" lengthAdjust="spacingAndGlyphs" textLength="165" x="169.75" y="676.1387">InvestmentAccountService</text></a><!--class CardPayment--><a target="_top" xlink:actuate="onRequest" xlink:href="../CardPayment.html" xlink:show="new" xlink:title="Payment through an electronic money product." xlink:type="simple"><rect fill="#EEEEEE" filter="url(#fmdgien8lg2jv)" height="23.9688" id="CardPayment" style="stroke: #A80036; stroke-width: 1.5;" width="89" x="2167.75" y="556"/><rect fill="#EEEEEE" height="23.9688" style="stroke: #A80036; stroke-width: 1.5;" width="89" x="2167.75" y="556"/><text fill="#000000" font-family="sans-serif" font-size="12" lengthAdjust="spacingAndGlyphs" textLength="83" x="2170.75" y="572.1387">CardPayment</text></a><!--class Price--><a target="_top" xlink:actuate="onRequest" xlink:href="../Price.html" xlink:show="new" xlink:title="Amount of money for which goods, services or assets are offered, sold, or bought." xlink:type="simple"><rect fill="#EEEEEE" filter="url(#fmdgien8lg2jv)" height="23.9688" id="Price" style="stroke: #A80036; stroke-width: 1.5;" width="37" x="2218.75" y="452"/><rect fill="#EEEEEE" height="23.9688" style="stroke: #A80036; stroke-width: 1.5;" width="37" x="2218.75" y="452"/><text fill="#000000" font-family="sans-serif" font-size="12" lengthAdjust="spacingAndGlyphs" textLength="31" x="2221.75" y="468.1387">Price</text></a><!--class ProductCategory--><a target="_top" xlink:actuate="onRequest" xlink:href="../ProductCategory.html" xlink:show="new" xlink:title="Specifies the category of the product." xlink:type="simple"><rect fill="#EEEEEE" filter="url(#fmdgien8lg2jv)" height="23.9688" id="ProductCategory" style="stroke: #A80036; stroke-width: 1.5;" width="111" x="2145.75" y="350"/><rect fill="#EEEEEE" height="23.9688" style="stroke: #A80036; stroke-width: 1.5;" width="111" x="2145.75" y="350"/><text fill="#000000" font-family="sans-serif" font-size="12" lengthAdjust="spacingAndGlyphs" textLength="105" x="2148.75" y="366.1387">ProductCategory</text></a><!--class LineItem--><a target="_top" xlink:actuate="onRequest" xlink:href="../LineItem.html" xlink:show="new" xlink:title="Unit of information  showing the related  provision of products and/or services and monetary summations reported as a discrete line item." xlink:type="simple"><rect fill="#EEEEEE" filter="url(#fmdgien8lg2jv)" height="23.9688" id="LineItem" style="stroke: #A80036; stroke-width: 1.5;" width="58" x="1270.5" y="218"/><rect fill="#EEEEEE" height="23.9688" style="stroke: #A80036; stroke-width: 1.5;" width="58" x="1270.5" y="218"/><text fill="#000000" font-family="sans-serif" font-size="12" lengthAdjust="spacingAndGlyphs" textLength="52" x="1273.5" y="234.1387">LineItem</text></a><!--class ProductIdentification--><a target="_top" xlink:actuate="onRequest" xlink:href="../ProductIdentification.html" xlink:show="new" xlink:title="Information used to identify a product." xlink:type="simple"><rect fill="#EEEEEE" filter="url(#fmdgien8lg2jv)" height="23.9688" id="ProductIdentification" style="stroke: #A80036; stroke-width: 1.5;" width="136" x="2031" y="660"/><rect fill="#EEEEEE" height="23.9688" style="stroke: #A80036; stroke-width: 1.5;" width="136" x="2031" y="660"/><text fill="#000000" font-family="sans-serif" font-size="12" lengthAdjust="spacingAndGlyphs" textLength="130" x="2034" y="676.1387">ProductIdentification</text></a><!--class Country--><a target="_top" xlink:actuate="onRequest" xlink:href="../Country.html" xlink:show="new" xlink:title="Nation with its own government." xlink:type="simple"><rect fill="#EEEEEE" filter="url(#fmdgien8lg2jv)" height="23.9688" id="Country" style="stroke: #A80036; stroke-width: 1.5;" width="54" x="2078" y="556"/><rect fill="#EEEEEE" height="23.9688" style="stroke: #A80036; stroke-width: 1.5;" width="54" x="2078" y="556"/><text fill="#000000" font-family="sans-serif" font-size="12" lengthAdjust="spacingAndGlyphs" textLength="48" x="2081" y="572.1387">Country</text></a><!--class ProductCharacteristics--><a target="_top" xlink:actuate="onRequest" xlink:href="../ProductCharacteristics.html" xlink:show="new" xlink:title="Identifies the characteristic of a product." xlink:type="simple"><rect fill="#EEEEEE" filter="url(#fmdgien8lg2jv)" height="23.9688" id="ProductCharacteristics" style="stroke: #A80036; stroke-width: 1.5;" width="149" x="2030.75" y="452"/><rect fill="#EEEEEE" height="23.9688" style="stroke: #A80036; stroke-width: 1.5;" width="149" x="2030.75" y="452"/><text fill="#000000" font-family="sans-serif" font-size="12" lengthAdjust="spacingAndGlyphs" textLength="143" x="2033.75" y="468.1387">ProductCharacteristics</text></a><!--class ProductQuantity--><a target="_top" xlink:actuate="onRequest" xlink:href="../ProductQuantity.html" xlink:show="new" xlink:title="Specifies the ordered quantity of a product." xlink:type="simple"><rect fill="#EEEEEE" filter="url(#fmdgien8lg2jv)" height="23.9688" id="ProductQuantity" style="stroke: #A80036; stroke-width: 1.5;" width="107" x="1701.75" y="350"/><rect fill="#EEEEEE" height="23.9688" style="stroke: #A80036; stroke-width: 1.5;" width="107" x="1701.75" y="350"/><text fill="#000000" font-family="sans-serif" font-size="12" lengthAdjust="spacingAndGlyphs" textLength="101" x="1704.75" y="366.1387">ProductQuantity</text></a><!--class ProductDelivery--><a target="_top" xlink:actuate="onRequest" xlink:href="../ProductDelivery.html" xlink:show="new" xlink:title="Arrangements for delivery of invoiced products and/or services." xlink:type="simple"><rect fill="#EEEEEE" filter="url(#fmdgien8lg2jv)" height="23.9688" id="ProductDelivery" style="stroke: #A80036; stroke-width: 1.5;" width="103" x="2152.75" y="836"/><rect fill="#EEEEEE" height="23.9688" style="stroke: #A80036; stroke-width: 1.5;" width="103" x="2152.75" y="836"/><text fill="#000000" font-family="sans-serif" font-size="12" lengthAdjust="spacingAndGlyphs" textLength="97" x="2155.75" y="852.1387">ProductDelivery</text></a><!--class PurchaseOrder--><a target="_top" xlink:actuate="onRequest" xlink:href="../PurchaseOrder.html" xlink:show="new" xlink:title="Document issued by a buyer and containing the details of a purchase, including description of goods, transport information, payment terms, etc." xlink:type="simple"><rect fill="#EEEEEE" filter="url(#fmdgien8lg2jv)" height="23.9688" id="PurchaseOrder" style="stroke: #A80036; stroke-width: 1.5;" width="100" x="2156" y="748"/><rect fill="#EEEEEE" height="23.9688" style="stroke: #A80036; stroke-width: 1.5;" width="100" x="2156" y="748"/><text fill="#000000" font-family="sans-serif" font-size="12" lengthAdjust="spacingAndGlyphs" textLength="94" x="2159" y="764.1387">PurchaseOrder</text></a><!--class Tax--><a target="_top" xlink:actuate="onRequest" xlink:href="../Tax.html" xlink:show="new" xlink:title="Amount of money due to the government or tax authority, according to various pre-defined parameters such as thresholds or income." xlink:type="simple"><rect fill="#EEEEEE" filter="url(#fmdgien8lg2jv)" height="23.9688" id="Tax" style="stroke: #A80036; stroke-width: 1.5;" width="27" x="2202.75" y="660"/><rect fill="#EEEEEE" height="23.9688" style="stroke: #A80036; stroke-width: 1.5;" width="27" x="2202.75" y="660"/><text fill="#000000" font-family="sans-serif" font-size="12" lengthAdjust="spacingAndGlyphs" textLength="21" x="2205.75" y="676.1387">Tax</text></a><!--entity ##4729--><!--entity ##4731--><!--class AccountContract--><a target="_top" xlink:actuate="onRequest" xlink:href="../AccountContract.html" xlink:show="new" xlink:title="Agreement between an account servicer and an account owner about the services linked to an account." xlink:type="simple"><rect fill="#EEEEEE" filter="url(#fmdgien8lg2jv)" height="23.9688" id="AccountContract" style="stroke: #A80036; stroke-width: 1.5;" width="111" x="571.75" y="556"/><rect fill="#EEEEEE" height="23.9688" style="stroke: #A80036; stroke-width: 1.5;" width="111" x="571.75" y="556"/><text fill="#000000" font-family="sans-serif" font-size="12" lengthAdjust="spacingAndGlyphs" textLength="105" x="574.75" y="572.1387">AccountContract</text></a><!--class Reservation--><a target="_top" xlink:actuate="onRequest" xlink:href="../Reservation.html" xlink:show="new" xlink:title="Liquidity set aside by the payer for specific purposes." xlink:type="simple"><rect fill="#EEEEEE" filter="url(#fmdgien8lg2jv)" height="23.9688" id="Reservation" style="stroke: #A80036; stroke-width: 1.5;" width="80" x="555" y="748"/><rect fill="#EEEEEE" height="23.9688" style="stroke: #A80036; stroke-width: 1.5;" width="80" x="555" y="748"/><text fill="#000000" font-family="sans-serif" font-size="12" lengthAdjust="spacingAndGlyphs" textLength="74" x="558" y="764.1387">Reservation</text></a><!--class Account--><a target="_top" xlink:actuate="onRequest" xlink:href="../Account.html" xlink:show="new" xlink:title="Record of transactions in specific types of assets, maintained by a servicing party on behalf of one or more owning parties. Business relationship between an account servicer and one or more account owners." xlink:type="simple"><rect fill="#EEEEEE" filter="url(#fmdgien8lg2jv)" height="23.9688" id="Account" style="stroke: #A80036; stroke-width: 1.5;" width="57" x="555.75" y="660"/><rect fill="#EEEEEE" height="23.9688" style="stroke: #A80036; stroke-width: 1.5;" width="57" x="555.75" y="660"/><text fill="#000000" font-family="sans-serif" font-size="12" lengthAdjust="spacingAndGlyphs" textLength="51" x="558.75" y="676.1387">Account</text></a><!--class Charges--><a target="_top" xlink:actuate="onRequest" xlink:href="../Charges.html" xlink:show="new" xlink:title="Amount of money associated with a service." xlink:type="simple"><rect fill="#EEEEEE" filter="url(#fmdgien8lg2jv)" height="23.9688" id="Charges" style="stroke: #A80036; stroke-width: 1.5;" width="58" x="717.5" y="556"/><rect fill="#EEEEEE" height="23.9688" style="stroke: #A80036; stroke-width: 1.5;" width="58" x="717.5" y="556"/><text fill="#000000" font-family="sans-serif" font-size="12" lengthAdjust="spacingAndGlyphs" textLength="52" x="720.5" y="572.1387">Charges</text></a><!--link Product to Service--><path d="M305.552,129.136 C298.456,148.523 290.549,170.125 283.91,188.264 " fill="none" id="Product-Service" style="stroke: #A80036; stroke-width: 1.0;"/><polygon fill="none" points="298.985,126.712,312.433,110.336,312.132,131.524,298.985,126.712" style="stroke: #A80036; stroke-width: 1.0;"/><!--link Service to FinancialService--><path d="M275.096,291.957 C277.299,313.988 279.564,336.64 280.874,349.738 " fill="none" id="Service-FinancialService" style="stroke: #A80036; stroke-width: 1.0;"/><polygon fill="none" points="268.103,292.373,273.078,271.776,282.033,290.98,268.103,292.373" style="stroke: #A80036; stroke-width: 1.0;"/><!--link FinancialService to AccountService--><path d="M284.182,394.175 C285.558,413.829 287.252,438.026 288.221,451.867 " fill="none" id="FinancialService-AccountService" style="stroke: #A80036; stroke-width: 1.0;"/><polygon fill="none" points="277.19,394.524,282.776,374.084,291.155,393.546,277.19,394.524" style="stroke: #A80036; stroke-width: 1.0;"/><!--link AccountService to ReportingService--><path d="M257.197,488.17 C228.137,509.343 186.416,539.74 164.23,555.904 " fill="none" id="AccountService-ReportingService" style="stroke: #A80036; stroke-width: 1.0;"/><polygon fill="none" points="253.464,482.229,273.751,476.11,261.708,493.545,253.464,482.229" style="stroke: #A80036; stroke-width: 1.0;"/><!--link AccountService to CashAccountService--><path d="M287.453,496.661 C287.579,505.573 288.251,515.226 290,524 C292.228,535.179 297.215,547.187 301.214,555.664 " fill="none" id="AccountService-CashAccountService" style="stroke: #A80036; stroke-width: 1.0;"/><polygon fill="none" points="280.462,496.245,287.993,476.439,294.457,496.619,280.462,496.245" style="stroke: #A80036; stroke-width: 1.0;"/><!--link AccountService to InvestmentAccountService--><path d="M285.99,496.612 C286.755,506.672 289.643,516.994 297,524 C312.022,538.304 374.589,518.116 390,532 C422.084,560.905 431.08,593.58 405,628 C394.377,642.02 356.384,652.741 320.919,659.971 " fill="none" id="AccountService-InvestmentAccountService" style="stroke: #A80036; stroke-width: 1.0;"/><polygon fill="none" points="279.005,496.105,286.793,476.399,292.994,496.661,279.005,496.105" style="stroke: #A80036; stroke-width: 1.0;"/><!--link Price to CardPayment--><!--link ProductCategory to Price--><!--link LineItem to ProductCategory--><!--link ProductIdentification to LineItem--><!--link Country to ProductIdentification--><!--link ProductCharacteristics to Country--><!--link ProductQuantity to ProductCharacteristics--><!--link ProductDelivery to ProductQuantity--><!--link PurchaseOrder to ProductDelivery--><!--link Tax to PurchaseOrder--><!--link Reservation to AccountContract--><!--link Account to Reservation--><!--link Charges to Account--><!--link Product to CardPayment--><path d="M410.482,77.159 C787.21,82.452 2289.83,105.557 2498,140 C2569.57,151.841 2600.03,139.534 2654,188 C2717.52,245.04 2744.75,300.099 2702,374 C2611.28,530.824 2367.42,560.506 2261.85,565.912 " fill="none" id="Product-CardPayment" style="stroke: #A80036; stroke-width: 1.0;"/><polygon fill="#A80036" points="2256.63,566.166,2265.8137,569.7242,2261.6241,565.9232,2265.4251,561.7336,2256.63,566.166" style="stroke: #A80036; stroke-width: 1.0;"/><text fill="#000000" font-family="sans-serif" font-size="13" lengthAdjust="spacingAndGlyphs" textLength="87" x="2714" y="366.0669">CardPayment</text><text fill="#000000" font-family="sans-serif" font-size="13" lengthAdjust="spacingAndGlyphs" textLength="8" x="2264.6429" y="560.5349">1</text><!--link Product to Price--><path d="M410.276,76.739 C725.082,79.814 1821.51,93.678 2168,140 C2260.32,152.342 2296.15,133.935 2372,188 C2426.42,226.79 2475.04,260.822 2444,320 C2404.45,395.386 2305.14,438.87 2259.99,455.333 " fill="none" id="Product-Price" style="stroke: #A80036; stroke-width: 1.0;"/><polygon fill="#A80036" points="2255.27,457.026,2265.0917,457.7574,2259.9773,455.3402,2262.3945,450.2258,2255.27,457.026" style="stroke: #A80036; stroke-width: 1.0;"/><text fill="#000000" font-family="sans-serif" font-size="13" lengthAdjust="spacingAndGlyphs" textLength="57" x="2451" y="315.0669">UnitPrice</text><text fill="#000000" font-family="sans-serif" font-size="13" lengthAdjust="spacingAndGlyphs" textLength="7" x="2263.7435" y="447.0323">*</text><!--link Product to Price--><path d="M410.466,76.067 C736.513,76.748 1902.18,83.192 2268,140 C2345.58,152.047 2373.97,142.572 2438,188 C2493.95,227.694 2549.61,259.117 2518,320 C2466.46,419.267 2318.18,451.172 2260.42,460.007 " fill="none" id="Product-Price" style="stroke: #A80036; stroke-width: 1.0;"/><polygon fill="#A80036" points="2255.44,460.745,2264.9342,463.3642,2260.3846,460.0025,2263.7462,455.4529,2255.44,460.745" style="stroke: #A80036; stroke-width: 1.0;"/><text fill="#000000" font-family="sans-serif" font-size="13" lengthAdjust="spacingAndGlyphs" textLength="54" x="2525" y="315.0669">NetPrice</text><text fill="#000000" font-family="sans-serif" font-size="13" lengthAdjust="spacingAndGlyphs" textLength="24" x="2263.9309" y="474.0289">0..1</text><!--link Product to Price--><path d="M410.37,75.692 C745.048,74.949 1967.96,76.719 2350,140 C2421.99,151.924 2447.7,145.487 2507,188 C2563.13,228.24 2620.87,258.727 2589,320 C2524.93,443.193 2328.2,460.476 2260.32,462.728 " fill="none" id="Product-Price" style="stroke: #A80036; stroke-width: 1.0;"/><polygon fill="#A80036" points="2255.28,462.875,2264.3906,466.6163,2260.278,462.7322,2264.1621,458.6195,2255.28,462.875" style="stroke: #A80036; stroke-width: 1.0;"/><text fill="#000000" font-family="sans-serif" font-size="13" lengthAdjust="spacingAndGlyphs" textLength="68" x="2596" y="315.0669">GrossPrice</text><text fill="#000000" font-family="sans-serif" font-size="13" lengthAdjust="spacingAndGlyphs" textLength="24" x="2263.7259" y="456.2579">0..1</text><!--link Product to ProductCategory--><path d="M410.274,78.063 C767.01,87.082 2124.24,125.412 2189,188 C2231.74,229.308 2215.69,309.801 2206.11,344.467 " fill="none" id="Product-ProductCategory" style="stroke: #A80036; stroke-width: 1.0;"/><polygon fill="#A80036" points="2204.64,349.624,2210.9547,342.066,2206.0112,344.8157,2203.2614,339.8721,2204.64,349.624" style="stroke: #A80036; stroke-width: 1.0;"/><text fill="#000000" font-family="sans-serif" font-size="13" lengthAdjust="spacingAndGlyphs" textLength="107" x="2218" y="234.0669">ProductCategory</text><text fill="#000000" font-family="sans-serif" font-size="13" lengthAdjust="spacingAndGlyphs" textLength="7" x="2196.2862" y="339.0628">*</text><!--link Product to LineItem--><path d="M410.582,89.444 C615.678,121.661 1128.36,202.196 1265.06,223.668 " fill="none" id="Product-LineItem" style="stroke: #A80036; stroke-width: 1.0;"/><polygon fill="#A80036" points="1270.14,224.467,1261.8803,219.1026,1265.2021,223.6814,1260.6233,227.0032,1270.14,224.467" style="stroke: #A80036; stroke-width: 1.0;"/><text fill="#000000" font-family="sans-serif" font-size="13" lengthAdjust="spacingAndGlyphs" textLength="55" x="843" y="153.0669">LineItem</text><text fill="#000000" font-family="sans-serif" font-size="13" lengthAdjust="spacingAndGlyphs" textLength="24" x="1238.3889" y="218.3105">0..1</text><!--link Product to ProductIdentification--><path d="M410.464,76.811 C795.953,80.685 2363.42,98.857 2579,140 C2640.32,151.702 2662.59,148.589 2711,188 C2783.79,247.255 2857.03,292.205 2811,374 C2741.38,497.717 2298.84,620.195 2148.73,658.652 " fill="none" id="Product-ProductIdentification" style="stroke: #A80036; stroke-width: 1.0;"/><polygon fill="#A80036" points="2143.51,659.985,2153.2217,661.6229,2148.3531,658.7424,2151.2336,653.8739,2143.51,659.985" style="stroke: #A80036; stroke-width: 1.0;"/><text fill="#000000" font-family="sans-serif" font-size="13" lengthAdjust="spacingAndGlyphs" textLength="130" x="2786" y="417.0669">ProductIdentification</text><text fill="#000000" font-family="sans-serif" font-size="13" lengthAdjust="spacingAndGlyphs" textLength="7" x="2149.2634" y="649.0281">*</text><!--link Product to Country--><path d="M410.47,77.194 C779.464,82.542 2226.34,105.54 2427,140 C2495.99,151.847 2518.75,149.188 2577,188 C2637.59,228.369 2709.28,256.313 2674,320 C2552.27,539.767 2373.02,416.344 2150,532 C2139.43,537.482 2128.86,545.542 2120.62,552.545 " fill="none" id="Product-Country" style="stroke: #A80036; stroke-width: 1.0;"/><polygon fill="#A80036" points="2116.77,555.883,2126.1913,553.0126,2120.5489,552.6088,2120.9526,546.9664,2116.77,555.883" style="stroke: #A80036; stroke-width: 1.0;"/><text fill="#000000" font-family="sans-serif" font-size="13" lengthAdjust="spacingAndGlyphs" textLength="37" x="2655" y="366.0669">Origin</text><text fill="#000000" font-family="sans-serif" font-size="13" lengthAdjust="spacingAndGlyphs" textLength="8" x="2110.0972" y="544.891">1</text><!--link Product to ProductCharacteristics--><path d="M410.543,77.393 C785.834,83.929 2270.81,114.383 2335,188 C2392.17,253.575 2337.16,314.174 2274,374 C2235.64,410.336 2179.56,435.919 2142.68,450.058 " fill="none" id="Product-ProductCharacteristics" style="stroke: #A80036; stroke-width: 1.0;"/><polygon fill="#A80036" points="2137.83,451.894,2147.6634,452.446,2142.5057,450.1226,2144.8291,444.9649,2137.83,451.894" style="stroke: #A80036; stroke-width: 1.0;"/><text fill="#000000" font-family="sans-serif" font-size="13" lengthAdjust="spacingAndGlyphs" textLength="95" x="2339" y="315.0669">Characteristics</text><text fill="#000000" font-family="sans-serif" font-size="13" lengthAdjust="spacingAndGlyphs" textLength="7" x="2139.4825" y="440.9058">*</text><!--link Product to ProductQuantity--><path d="M410.482,79.874 C758.327,96.504 2054.48,167.193 2172,302 C2219.98,357.041 1939.26,362.11 1813.54,361.679 " fill="none" id="Product-ProductQuantity" style="stroke: #A80036; stroke-width: 1.0;"/><polygon fill="#A80036" points="1808.4,361.658,1817.377,365.7094,1813.3999,361.6866,1817.4227,357.7095,1808.4,361.658" style="stroke: #A80036; stroke-width: 1.0;"/><text fill="#000000" font-family="sans-serif" font-size="13" lengthAdjust="spacingAndGlyphs" textLength="54" x="2125" y="234.0669">Quantity</text><text fill="#000000" font-family="sans-serif" font-size="13" lengthAdjust="spacingAndGlyphs" textLength="7" x="1816.7205" y="374.7883">*</text><!--link Product to ProductDelivery--><path d="M410.35,75.776 C899.48,75.038 3325,78.944 3325,229 C3325,229 3325,229 3325,761 C3325,814.9539 2488.56,839.8661 2260.72,845.6512 " fill="none" id="Product-ProductDelivery" style="stroke: #A80036; stroke-width: 1.0;"/><polygon fill="#A80036" points="2255.45,845.7843,2264.5499,849.5516,2260.4483,845.6557,2264.3442,841.5542,2255.45,845.7843" style="stroke: #A80036; stroke-width: 1.0;"/><text fill="#000000" font-family="sans-serif" font-size="13" lengthAdjust="spacingAndGlyphs" textLength="51" x="3326" y="519.0669">Delivery</text><text fill="#000000" font-family="sans-serif" font-size="13" lengthAdjust="spacingAndGlyphs" textLength="8" x="2263.9025" y="840.2229">1</text><!--link Product to PurchaseOrder--><path d="M410.265,76.011 C884.304,76.618 3174,86.902 3174,229 C3174,229 3174,229 3174,673 C3174,719.169 2466.12,749.265 2261.05,757.016 " fill="none" id="Product-PurchaseOrder" style="stroke: #A80036; stroke-width: 1.0;"/><polygon fill="#A80036" points="2256.01,757.205,2265.1523,760.868,2261.0066,757.0193,2264.8552,752.8735,2256.01,757.205" style="stroke: #A80036; stroke-width: 1.0;"/><text fill="#000000" font-family="sans-serif" font-size="13" lengthAdjust="spacingAndGlyphs" textLength="95" x="3175" y="468.0669">PurchaseOrder</text><text fill="#000000" font-family="sans-serif" font-size="13" lengthAdjust="spacingAndGlyphs" textLength="7" x="2263.8693" y="751.625">*</text><!--link Product to Tax--><path d="M410.356,76.793 C802.684,80.647 2423.26,98.942 2646,140 C2709.45,151.696 2732.09,148.366 2783,188 C2879.17,262.873 2995.09,321.593 2926,422 C2757.75,666.513 2328.82,673.138 2234.52,671.537 " fill="none" id="Product-Tax" style="stroke: #A80036; stroke-width: 1.0;"/><polygon fill="#A80036" points="2229.29,671.434,2238.2082,675.6132,2234.289,671.534,2238.3682,667.6148,2229.29,671.434" style="stroke: #A80036; stroke-width: 1.0;"/><text fill="#000000" font-family="sans-serif" font-size="13" lengthAdjust="spacingAndGlyphs" textLength="22" x="2937" y="417.0669">Tax</text><text fill="#000000" font-family="sans-serif" font-size="13" lengthAdjust="spacingAndGlyphs" textLength="7" x="2237.7668" y="662.8966">*</text><!--link AccountService to AccountContract--><path d="M299.979,476.195 C314.655,490.317 342.18,513.968 371,524 C407.347,536.651 506.464,523.502 544,532 C564.181,536.569 585.673,545.764 601.73,553.584 " fill="none" id="AccountService-AccountContract" style="stroke: #A80036; stroke-width: 1.0;"/><polygon fill="#A80036" points="606.531,555.959,600.2399,548.3812,602.05,553.7407,596.6906,555.5508,606.531,555.959" style="stroke: #A80036; stroke-width: 1.0;"/><text fill="#000000" font-family="sans-serif" font-size="13" lengthAdjust="spacingAndGlyphs" textLength="107" x="372" y="519.0669">AccountContract</text><text fill="#000000" font-family="sans-serif" font-size="13" lengthAdjust="spacingAndGlyphs" textLength="7" x="589.862" y="544.9931">*</text><!--link AccountService to Reservation--><path d="M238.266,464.937 C187.654,467.929 112.229,481.333 75,532 C49.6868,566.45 63.7862,588.869 81,628 C99.7901,670.714 107.828,686.035 149,708 C217.651,744.625 450.547,755.143 549.703,757.999 " fill="none" id="AccountService-Reservation" style="stroke: #A80036; stroke-width: 1.0;"/><polygon fill="#A80036" points="554.895,758.145,546.0118,753.892,549.897,758.0035,545.7854,761.8888,554.895,758.145" style="stroke: #A80036; stroke-width: 1.0;"/><text fill="#000000" font-family="sans-serif" font-size="13" lengthAdjust="spacingAndGlyphs" textLength="75" x="82" y="623.0669">Reservation</text><text fill="#000000" font-family="sans-serif" font-size="13" lengthAdjust="spacingAndGlyphs" textLength="8" x="538.9883" y="752.6388">1</text><!--link AccountService to Account--><path d="M294.843,476.398 C302.629,490.276 317.807,513.196 338,524 C367.947,540.024 382.653,518.926 414,532 C482.415,560.534 544.973,625.909 571.104,655.701 " fill="none" id="AccountService-Account" style="stroke: #A80036; stroke-width: 1.0;"/><polygon fill="#A80036" points="574.692,659.83,571.8076,650.413,571.4122,656.056,565.7692,655.6606,574.692,659.83" style="stroke: #A80036; stroke-width: 1.0;"/><text fill="#000000" font-family="sans-serif" font-size="13" lengthAdjust="spacingAndGlyphs" textLength="52" x="492" y="572.0669">Account</text><text fill="#000000" font-family="sans-serif" font-size="13" lengthAdjust="spacingAndGlyphs" textLength="8" x="560.6877" y="648.8198">1</text><!--link AccountService to Charges--><path d="M339.501,471.898 C379.665,478.252 436.9,489.259 485,506 C501.895,511.88 503.687,519.5 521,524 C559.322,533.96 661.704,518.702 699,532 C711.023,536.287 722.551,544.779 731.181,552.325 " fill="none" id="AccountService-Charges" style="stroke: #A80036; stroke-width: 1.0;"/><polygon fill="#A80036" points="735.174,555.93,731.1751,546.9295,731.4631,552.579,725.8136,552.867,735.174,555.93" style="stroke: #A80036; stroke-width: 1.0;"/><text fill="#000000" font-family="sans-serif" font-size="13" lengthAdjust="spacingAndGlyphs" textLength="191" x="522" y="519.0669">AccountAdministrationCharge</text><text fill="#000000" font-family="sans-serif" font-size="13" lengthAdjust="spacingAndGlyphs" textLength="24" x="701.8119" y="544.9542">0..1</text><!--link ReportingService to InvestmentAccountService--><path d="M152.511,580.135 C156.99,592.92 165.778,613.933 179,628 C190.675,640.422 206.742,650.409 220.83,657.621 " fill="none" id="ReportingService-InvestmentAccountService" style="stroke: #A80036; stroke-width: 1.0;"/><polygon fill="#A80036" points="225.522,659.96,219.2503,652.3662,221.0467,657.7302,215.6827,659.5266,225.522,659.96" style="stroke: #A80036; stroke-width: 1.0;"/><text fill="#000000" font-family="sans-serif" font-size="13" lengthAdjust="spacingAndGlyphs" textLength="219" x="180" y="623.0669">RelatedInvestmentAccountService</text><text fill="#000000" font-family="sans-serif" font-size="13" lengthAdjust="spacingAndGlyphs" textLength="8" x="205.6155" y="648.9945">1</text><!--link LineItem to Charges--><path d="M1270.45,230.921 C1173.74,231.25 860.579,237.376 789,302 C715.143,368.681 777.23,425.998 760,524 C758.379,533.221 755.23,543.182 752.329,551.192 " fill="none" id="LineItem-Charges" style="stroke: #A80036; stroke-width: 1.0;"/><polygon fill="#A80036" points="750.57,555.904,757.4649,548.8711,752.3186,551.2197,749.97,546.0734,750.57,555.904" style="stroke: #A80036; stroke-width: 1.0;"/><text fill="#000000" font-family="sans-serif" font-size="13" lengthAdjust="spacingAndGlyphs" textLength="101" x="758" y="417.0669">LogisticsCharge</text><text fill="#000000" font-family="sans-serif" font-size="13" lengthAdjust="spacingAndGlyphs" textLength="7" x="742.4222" y="544.9192">*</text><!--link LineItem to Charges--><path d="M1270.24,230.712 C1177.26,230.453 887.522,235.114 830,302 C793.434,344.518 887.467,369.049 869,422 C849.003,479.337 794.235,529.142 764.991,552.634 " fill="none" id="LineItem-Charges" style="stroke: #A80036; stroke-width: 1.0;"/><polygon fill="#A80036" points="760.869,555.907,770.4049,553.4439,764.785,552.7982,765.4308,547.1783,760.869,555.907" style="stroke: #A80036; stroke-width: 1.0;"/><text fill="#000000" font-family="sans-serif" font-size="13" lengthAdjust="spacingAndGlyphs" textLength="53" x="873" y="417.0669">Charges</text><text fill="#000000" font-family="sans-serif" font-size="13" lengthAdjust="spacingAndGlyphs" textLength="7" x="756.2615" y="544.9232">*</text><!--link LineItem to Charges--><path d="M1270.46,232.72 C1173.58,238.879 858.261,261.639 766,302 C700.936,330.463 673.2,339.723 643,404 C620.723,451.413 685.508,454.439 719,506 C728.245,520.233 735.753,538.16 740.484,550.888 " fill="none" id="LineItem-Charges" style="stroke: #A80036; stroke-width: 1.0;"/><polygon fill="#A80036" points="742.218,555.661,742.9041,545.8361,740.5105,550.9616,735.385,548.568,742.218,555.661" style="stroke: #A80036; stroke-width: 1.0;"/><text fill="#000000" font-family="sans-serif" font-size="13" lengthAdjust="spacingAndGlyphs" textLength="100" x="644" y="417.0669">NetPriceCharge</text><text fill="#000000" font-family="sans-serif" font-size="13" lengthAdjust="spacingAndGlyphs" textLength="8" x="730.1433" y="544.8521">1</text><!--link LineItem to ProductQuantity--><path d="M1327.81,232.603 C1434.79,238.846 1804.9,263.125 1839,302 C1856,321.377 1826.98,337.692 1798.51,348.219 " fill="none" id="LineItem-ProductQuantity" style="stroke: #A80036; stroke-width: 1.0;"/><polygon fill="#A80036" points="1793.58,349.988,1803.4017,350.7185,1798.2871,348.3018,1800.7038,343.1872,1793.58,349.988" style="stroke: #A80036; stroke-width: 1.0;"/><text fill="#000000" font-family="sans-serif" font-size="13" lengthAdjust="spacingAndGlyphs" textLength="66" x="1846" y="315.0669">NetWeight</text><text fill="#000000" font-family="sans-serif" font-size="13" lengthAdjust="spacingAndGlyphs" textLength="8" x="1796.0372" y="339.0321">1</text><!--link LineItem to ProductQuantity--><path d="M1327.71,232.07 C1444.78,236.725 1881.86,257.026 1922,302 C1956.25,340.38 1874.42,353.794 1813.59,358.482 " fill="none" id="LineItem-ProductQuantity" style="stroke: #A80036; stroke-width: 1.0;"/><polygon fill="#A80036" points="1808.52,358.857,1817.7922,362.1775,1813.5062,358.4856,1817.1981,354.1996,1808.52,358.857" style="stroke: #A80036; stroke-width: 1.0;"/><text fill="#000000" font-family="sans-serif" font-size="13" lengthAdjust="spacingAndGlyphs" textLength="88" x="1932" y="315.0669">BilledQuantity</text><text fill="#000000" font-family="sans-serif" font-size="13" lengthAdjust="spacingAndGlyphs" textLength="7" x="1816.8581" y="353.2259">*</text><!--link LineItem to ProductQuantity--><path d="M1327.73,231.563 C1457.16,234.389 1981.96,249.067 2030,302 C2035.38,307.924 2035.22,313.94 2030,320 C2002.65,351.733 1885.95,359.283 1813.65,360.855 " fill="none" id="LineItem-ProductQuantity" style="stroke: #A80036; stroke-width: 1.0;"/><polygon fill="#A80036" points="1808.52,360.958,1817.5982,364.7772,1813.519,360.858,1817.4382,356.7788,1808.52,360.958" style="stroke: #A80036; stroke-width: 1.0;"/><text fill="#000000" font-family="sans-serif" font-size="13" lengthAdjust="spacingAndGlyphs" textLength="128" x="2034" y="315.0669">ChargeFreeQuantity</text><text fill="#000000" font-family="sans-serif" font-size="13" lengthAdjust="spacingAndGlyphs" textLength="7" x="1816.6751" y="353.8913">*</text><!--link LineItem to ProductQuantity--><path d="M1270.39,232.301 C1165.71,237.555 812.614,259.894 870,320 C898.557,349.911 1503.89,358.503 1696.62,360.485 " fill="none" id="LineItem-ProductQuantity" style="stroke: #A80036; stroke-width: 1.0;"/><polygon fill="#A80036" points="1701.65,360.536,1692.6846,356.459,1696.6502,360.4931,1692.616,364.4587,1701.65,360.536" style="stroke: #A80036; stroke-width: 1.0;"/><text fill="#000000" font-family="sans-serif" font-size="13" lengthAdjust="spacingAndGlyphs" textLength="244" x="871" y="315.0669">MeasureQuantityStartRelatedLineItem</text><text fill="#000000" font-family="sans-serif" font-size="13" lengthAdjust="spacingAndGlyphs" textLength="8" x="1685.8744" y="355.4603">1</text><!--link LineItem to ProductQuantity--><path d="M1270.47,237.06 C1218.85,249.214 1118.68,278.958 1157,320 C1193.32,358.899 1553.47,361.81 1696.7,361.41 " fill="none" id="LineItem-ProductQuantity" style="stroke: #A80036; stroke-width: 1.0;"/><polygon fill="#A80036" points="1701.7,361.395,1692.6886,357.4207,1696.7,361.4093,1692.7115,365.4207,1701.7,361.395" style="stroke: #A80036; stroke-width: 1.0;"/><text fill="#000000" font-family="sans-serif" font-size="13" lengthAdjust="spacingAndGlyphs" textLength="236" x="1158" y="315.0669">MeasureQuantityEndRelatedLineItem</text><text fill="#000000" font-family="sans-serif" font-size="13" lengthAdjust="spacingAndGlyphs" textLength="8" x="1685.9302" y="374.2686">1</text><!--link LineItem to ProductQuantity--><path d="M1314.21,242.128 C1344.14,263.817 1410.04,310.466 1436,320 C1522.97,351.941 1631.21,359.701 1696.62,361.207 " fill="none" id="LineItem-ProductQuantity" style="stroke: #A80036; stroke-width: 1.0;"/><polygon fill="#A80036" points="1701.64,361.313,1692.7338,357.1083,1696.6413,361.1987,1692.5509,365.1062,1701.64,361.313" style="stroke: #A80036; stroke-width: 1.0;"/><text fill="#000000" font-family="sans-serif" font-size="13" lengthAdjust="spacingAndGlyphs" textLength="122" x="1437" y="315.0669">GrossPriceQuantity</text><text fill="#000000" font-family="sans-serif" font-size="13" lengthAdjust="spacingAndGlyphs" textLength="7" x="1686.9202" y="354.7053">*</text><!--link LineItem to ProductQuantity--><path d="M1327.55,236.627 C1376.9,246.792 1480.97,270.157 1565,302 C1581.73,308.339 1584.27,313.666 1601,320 C1632.43,331.9 1668.71,341.738 1698.15,348.792 " fill="none" id="LineItem-ProductQuantity" style="stroke: #A80036; stroke-width: 1.0;"/><polygon fill="#A80036" points="1703.19,349.988,1695.3596,344.0143,1698.3257,348.8312,1693.5087,351.7972,1703.19,349.988" style="stroke: #A80036; stroke-width: 1.0;"/><text fill="#000000" font-family="sans-serif" font-size="13" lengthAdjust="spacingAndGlyphs" textLength="108" x="1602" y="315.0669">NetPriceQuantity</text><text fill="#000000" font-family="sans-serif" font-size="13" lengthAdjust="spacingAndGlyphs" textLength="7" x="1686.4975" y="339.0321">*</text><!--link LineItem to ProductQuantity--><path d="M1327.7,232.931 C1411.04,238.992 1651.25,259.792 1716,302 C1731.76,312.271 1742.62,331.376 1748.81,345.065 " fill="none" id="LineItem-ProductQuantity" style="stroke: #A80036; stroke-width: 1.0;"/><polygon fill="#A80036" points="1750.87,349.837,1750.9592,339.9885,1748.8808,345.2497,1743.6196,343.1713,1750.87,349.837" style="stroke: #A80036; stroke-width: 1.0;"/><text fill="#000000" font-family="sans-serif" font-size="13" lengthAdjust="spacingAndGlyphs" textLength="80" x="1735" y="315.0669">GrossWeight</text><text fill="#000000" font-family="sans-serif" font-size="13" lengthAdjust="spacingAndGlyphs" textLength="7" x="1739.8175" y="338.8292">*</text><!--link Country to Tax--><path d="M2117.3,580.306 C2137.58,598.938 2177.99,636.069 2200.3,656.57 " fill="none" id="Country-Tax" style="stroke: #A80036; stroke-width: 1.0;"/><polygon fill="#A80036" points="2203.98,659.954,2200.0633,650.9175,2200.2997,656.5694,2194.6478,656.8059,2203.98,659.954" style="stroke: #A80036; stroke-width: 1.0;"/><text fill="#000000" font-family="sans-serif" font-size="13" lengthAdjust="spacingAndGlyphs" textLength="22" x="2168" y="623.0669">Tax</text><text fill="#000000" font-family="sans-serif" font-size="13" lengthAdjust="spacingAndGlyphs" textLength="8" x="2189.0434" y="648.9864">1</text><!--link AccountContract to Account--><path d="M622.234,580.306 C614.541,598.553 599.369,634.542 590.628,655.278 " fill="none" id="AccountContract-Account" style="stroke: #A80036; stroke-width: 1.0;"/><polygon fill="#A80036" points="588.657,659.954,595.8373,653.2128,590.5981,655.3462,588.4647,650.107,588.657,659.954" style="stroke: #A80036; stroke-width: 1.0;"/><text fill="#000000" font-family="sans-serif" font-size="13" lengthAdjust="spacingAndGlyphs" textLength="52" x="611" y="623.0669">Account</text><text fill="#000000" font-family="sans-serif" font-size="13" lengthAdjust="spacingAndGlyphs" textLength="7" x="580.625" y="648.9864">*</text><!--link Account to Account--><path d="M612.508,664.332 C630.181,662.483 647,665.039 647,672 C647,678.254 633.424,680.952 617.85,680.095 " fill="none" id="Account-Account" style="stroke: #A80036; stroke-width: 1.0;"/><polygon fill="#A80036" points="612.508,679.668,621.1605,684.3727,617.4921,680.0666,621.7982,676.3981,612.508,679.668" style="stroke: #A80036; stroke-width: 1.0;"/><text fill="#000000" font-family="sans-serif" font-size="13" lengthAdjust="spacingAndGlyphs" textLength="94" x="653" y="676.0669">ParentAccount</text><text fill="#000000" font-family="sans-serif" font-size="13" lengthAdjust="spacingAndGlyphs" textLength="8" x="620.7741" y="675.5427">1</text></g></svg>