<?xml version="1.0" encoding="UTF-8" standalone="no"?><svg xmlns="http://www.w3.org/2000/svg" xmlns:xlink="http://www.w3.org/1999/xlink" contentScriptType="application/ecmascript" contentStyleType="text/css" height="855px" preserveAspectRatio="none" style="width:1710px;height:855px;" version="1.1" viewBox="0 0 1710 855" width="1710px" zoomAndPan="magnify"><defs><filter height="300%" id="f10d6jz1muerrg" width="300%" x="-1" y="-1"><feGaussianBlur result="blurOut" stdDeviation="2.0"/><feColorMatrix in="blurOut" result="blurOut2" type="matrix" values="0 0 0 0 0 0 0 0 0 0 0 0 0 0 0 0 0 0 .4 0"/><feOffset dx="4.0" dy="4.0" in="blurOut2" result="blurOut3"/><feBlend in="SourceGraphic" in2="blurOut3" mode="normal"/></filter></defs><g><!--cluster ##25526--><!--cluster ##25544--><!--class Adjustment--><a target="_top" xlink:actuate="onRequest" xlink:href="../Adjustment.html" xlink:show="new" xlink:title="Modification on the value of goods and / or services. For example: rebate, discount." xlink:type="simple"><rect fill="#FEFECE" filter="url(#f10d6jz1muerrg)" height="134.4063" id="Adjustment" style="stroke: #A80036; stroke-width: 1.5;" width="268" x="615" y="40"/><rect fill="#FEFECE" height="23.9688" style="stroke: #A80036; stroke-width: 1.5;" width="268" x="615" y="40"/><text fill="#000000" font-family="sans-serif" font-size="12" lengthAdjust="spacingAndGlyphs" textLength="71" x="713.5" y="56.1387">Adjustment</text><line style="stroke: #A80036; stroke-width: 1.5;" x1="616" x2="882" y1="63.9688" y2="63.9688"/><ellipse cx="626" cy="75.8711" fill="#84BE84" rx="3" ry="3" style="stroke: #038048; stroke-width: 1.0;"/><text fill="#000000" font-family="sans-serif" font-size="11" lengthAdjust="spacingAndGlyphs" textLength="43" x="635" y="78.1792">Amount</text><text fill="#000000" font-family="sans-serif" font-size="11" font-style="italic" lengthAdjust="spacingAndGlyphs" textLength="126" x="682" y="78.1792">(CurrencyAndAmount)</text><ellipse cx="626" cy="88.6758" fill="#84BE84" rx="3" ry="3" style="stroke: #038048; stroke-width: 1.0;"/><text fill="#000000" font-family="sans-serif" font-size="11" lengthAdjust="spacingAndGlyphs" textLength="66" x="635" y="90.9839">ChargeRate</text><text fill="#000000" font-family="sans-serif" font-size="11" font-style="italic" lengthAdjust="spacingAndGlyphs" textLength="98" x="705" y="90.9839">(PercentageRate)</text><ellipse cx="626" cy="101.4805" fill="#84BE84" rx="3" ry="3" style="stroke: #038048; stroke-width: 1.0;"/><text fill="#000000" font-family="sans-serif" font-size="11" lengthAdjust="spacingAndGlyphs" textLength="103" x="635" y="103.7886">CalculationMethod</text><text fill="#000000" font-family="sans-serif" font-size="11" font-style="italic" lengthAdjust="spacingAndGlyphs" textLength="116" x="742" y="103.7886">(TaxationBasisCode)</text><ellipse cx="626" cy="114.2852" fill="#84BE84" rx="3" ry="3" style="stroke: #038048; stroke-width: 1.0;"/><text fill="#000000" font-family="sans-serif" font-size="11" lengthAdjust="spacingAndGlyphs" textLength="50" x="635" y="116.5933">Direction</text><text fill="#000000" font-family="sans-serif" font-size="11" font-style="italic" lengthAdjust="spacingAndGlyphs" textLength="151" x="689" y="116.5933">(AdjustmentDirectionCode)</text><ellipse cx="626" cy="127.0898" fill="#84BE84" rx="3" ry="3" style="stroke: #038048; stroke-width: 1.0;"/><text fill="#000000" font-family="sans-serif" font-size="11" lengthAdjust="spacingAndGlyphs" textLength="42" x="635" y="129.3979">Reason</text><text fill="#000000" font-family="sans-serif" font-size="11" font-style="italic" lengthAdjust="spacingAndGlyphs" textLength="142" x="681" y="129.3979">(Max4AlphaNumericText)</text><ellipse cx="626" cy="139.8945" fill="#84BE84" rx="3" ry="3" style="stroke: #038048; stroke-width: 1.0;"/><text fill="#000000" font-family="sans-serif" font-size="11" lengthAdjust="spacingAndGlyphs" textLength="146" x="635" y="142.2026">AllowanceChargeIndicator</text><text fill="#000000" font-family="sans-serif" font-size="11" font-style="italic" lengthAdjust="spacingAndGlyphs" textLength="92" x="785" y="142.2026">(YesNoIndicator)</text><ellipse cx="626" cy="152.6992" fill="#84BE84" rx="3" ry="3" style="stroke: #038048; stroke-width: 1.0;"/><text fill="#000000" font-family="sans-serif" font-size="11" lengthAdjust="spacingAndGlyphs" textLength="90" x="635" y="155.0073">ChargeIndicator</text><text fill="#000000" font-family="sans-serif" font-size="11" font-style="italic" lengthAdjust="spacingAndGlyphs" textLength="92" x="729" y="155.0073">(YesNoIndicator)</text><ellipse cx="626" cy="165.5039" fill="#84BE84" rx="3" ry="3" style="stroke: #038048; stroke-width: 1.0;"/><text fill="#000000" font-family="sans-serif" font-size="11" lengthAdjust="spacingAndGlyphs" textLength="27" x="635" y="167.812">Type</text><text fill="#000000" font-family="sans-serif" font-size="11" font-style="italic" lengthAdjust="spacingAndGlyphs" textLength="129" x="666" y="167.812">(AdjustmentTypeCode)</text></a><!--class Commission--><a target="_top" xlink:actuate="onRequest" xlink:href="../Commission.html" xlink:show="new" xlink:title="Amount of money due to a party as compensation for a service." xlink:type="simple"><rect fill="#FEFEEE" filter="url(#f10d6jz1muerrg)" height="23.9688" id="Commission" style="stroke: #A80036; stroke-width: 1.5;" width="80" x="710" y="252"/><rect fill="#FEFEEE" height="23.9688" style="stroke: #A80036; stroke-width: 1.5;" width="80" x="710" y="252"/><text fill="#000000" font-family="sans-serif" font-size="12" lengthAdjust="spacingAndGlyphs" textLength="74" x="713" y="268.1387">Commission</text></a><!--class Charges--><a target="_top" xlink:actuate="onRequest" xlink:href="../Charges.html" xlink:show="new" xlink:title="Amount of money associated with a service." xlink:type="simple"><rect fill="#FEFEEE" filter="url(#f10d6jz1muerrg)" height="23.9688" id="Charges" style="stroke: #A80036; stroke-width: 1.5;" width="58" x="825.5" y="252"/><rect fill="#FEFEEE" height="23.9688" style="stroke: #A80036; stroke-width: 1.5;" width="58" x="825.5" y="252"/><text fill="#000000" font-family="sans-serif" font-size="12" lengthAdjust="spacingAndGlyphs" textLength="52" x="828.5" y="268.1387">Charges</text></a><!--class Discount--><a target="_top" xlink:actuate="onRequest" xlink:href="../Discount.html" xlink:show="new" xlink:title="Decrease of the value of goods and / or services by applying a discount rate to the original amount." xlink:type="simple"><rect fill="#FEFEEE" filter="url(#f10d6jz1muerrg)" height="23.9688" id="Discount" style="stroke: #A80036; stroke-width: 1.5;" width="61" x="423.75" y="252"/><rect fill="#FEFEEE" height="23.9688" style="stroke: #A80036; stroke-width: 1.5;" width="61" x="423.75" y="252"/><text fill="#000000" font-family="sans-serif" font-size="12" lengthAdjust="spacingAndGlyphs" textLength="55" x="426.75" y="268.1387">Discount</text></a><!--class Allowance--><a target="_top" xlink:actuate="onRequest" xlink:href="../Allowance.html" xlink:show="new" xlink:title="Amount of money deducted from a price or an amount due." xlink:type="simple"><rect fill="#FEFEEE" filter="url(#f10d6jz1muerrg)" height="23.9688" id="Allowance" style="stroke: #A80036; stroke-width: 1.5;" width="68" x="520" y="252"/><rect fill="#FEFEEE" height="23.9688" style="stroke: #A80036; stroke-width: 1.5;" width="68" x="520" y="252"/><text fill="#000000" font-family="sans-serif" font-size="12" lengthAdjust="spacingAndGlyphs" textLength="62" x="523" y="268.1387">Allowance</text></a><!--class Penalty--><a target="_top" xlink:actuate="onRequest" xlink:href="../Penalty.html" xlink:show="new" xlink:title="Fee charged when the conditions of a contract are not met." xlink:type="simple"><rect fill="#FEFEEE" filter="url(#f10d6jz1muerrg)" height="23.9688" id="Penalty" style="stroke: #A80036; stroke-width: 1.5;" width="52" x="623" y="252"/><rect fill="#FEFEEE" height="23.9688" style="stroke: #A80036; stroke-width: 1.5;" width="52" x="623" y="252"/><text fill="#000000" font-family="sans-serif" font-size="12" lengthAdjust="spacingAndGlyphs" textLength="46" x="626" y="268.1387">Penalty</text></a><!--class Payment--><a target="_top" xlink:actuate="onRequest" xlink:href="../Payment.html" xlink:show="new" xlink:title="Payment information and processes required to transfer cash end to end from the debtor to the creditor." xlink:type="simple"><rect fill="#EEEEEE" filter="url(#f10d6jz1muerrg)" height="23.9688" id="Payment" style="stroke: #A80036; stroke-width: 1.5;" width="60" x="80.5" y="95"/><rect fill="#EEEEEE" height="23.9688" style="stroke: #A80036; stroke-width: 1.5;" width="60" x="80.5" y="95"/><text fill="#000000" font-family="sans-serif" font-size="12" lengthAdjust="spacingAndGlyphs" textLength="54" x="83.5" y="111.1387">Payment</text></a><!--class LineItem--><a target="_top" xlink:actuate="onRequest" xlink:href="../LineItem.html" xlink:show="new" xlink:title="Unit of information  showing the related  provision of products and/or services and monetary summations reported as a discrete line item." xlink:type="simple"><rect fill="#EEEEEE" filter="url(#f10d6jz1muerrg)" height="23.9688" id="LineItem" style="stroke: #A80036; stroke-width: 1.5;" width="58" x="309.5" y="818"/><rect fill="#EEEEEE" height="23.9688" style="stroke: #A80036; stroke-width: 1.5;" width="58" x="309.5" y="818"/><text fill="#000000" font-family="sans-serif" font-size="12" lengthAdjust="spacingAndGlyphs" textLength="52" x="312.5" y="834.1387">LineItem</text></a><!--class Price--><a target="_top" xlink:actuate="onRequest" xlink:href="../Price.html" xlink:show="new" xlink:title="Amount of money for which goods, services or assets are offered, sold, or bought." xlink:type="simple"><rect fill="#EEEEEE" filter="url(#f10d6jz1muerrg)" height="23.9688" id="Price" style="stroke: #A80036; stroke-width: 1.5;" width="37" x="319.75" y="732"/><rect fill="#EEEEEE" height="23.9688" style="stroke: #A80036; stroke-width: 1.5;" width="37" x="319.75" y="732"/><text fill="#000000" font-family="sans-serif" font-size="12" lengthAdjust="spacingAndGlyphs" textLength="31" x="322.75" y="748.1387">Price</text></a><!--class CollateralManagement--><a target="_top" xlink:actuate="onRequest" xlink:href="../CollateralManagement.html" xlink:show="new" xlink:title="Set of operations relative to the management of collateral, variation margins, default fund participation and independent amount." xlink:type="simple"><rect fill="#EEEEEE" filter="url(#f10d6jz1muerrg)" height="23.9688" id="CollateralManagement" style="stroke: #A80036; stroke-width: 1.5;" width="147" x="219.75" y="646"/><rect fill="#EEEEEE" height="23.9688" style="stroke: #A80036; stroke-width: 1.5;" width="147" x="219.75" y="646"/><text fill="#000000" font-family="sans-serif" font-size="12" lengthAdjust="spacingAndGlyphs" textLength="141" x="222.75" y="662.1387">CollateralManagement</text></a><!--class Balance--><a target="_top" xlink:actuate="onRequest" xlink:href="../Balance.html" xlink:show="new" xlink:title="Numerical representation of the net increases and decreases in an account at a specific point in time." xlink:type="simple"><rect fill="#EEEEEE" filter="url(#f10d6jz1muerrg)" height="23.9688" id="Balance" style="stroke: #A80036; stroke-width: 1.5;" width="56" x="284.5" y="560"/><rect fill="#EEEEEE" height="23.9688" style="stroke: #A80036; stroke-width: 1.5;" width="56" x="284.5" y="560"/><text fill="#000000" font-family="sans-serif" font-size="12" lengthAdjust="spacingAndGlyphs" textLength="50" x="287.5" y="576.1387">Balance</text></a><!--class ChargePartyRole--><a target="_top" xlink:actuate="onRequest" xlink:href="../ChargePartyRole.html" xlink:show="new" xlink:title="Role played by a party in the context of a paymentof charges." xlink:type="simple"><rect fill="#EEEEEE" filter="url(#f10d6jz1muerrg)" height="23.9688" id="ChargePartyRole" style="stroke: #A80036; stroke-width: 1.5;" width="110" x="257" y="458"/><rect fill="#EEEEEE" height="23.9688" style="stroke: #A80036; stroke-width: 1.5;" width="110" x="257" y="458"/><text fill="#000000" font-family="sans-serif" font-size="12" lengthAdjust="spacingAndGlyphs" textLength="104" x="260" y="474.1387">ChargePartyRole</text></a><!--class DateTimePeriod--><a target="_top" xlink:actuate="onRequest" xlink:href="../DateTimePeriod.html" xlink:show="new" xlink:title="Time span defined by a start date and time, and an end date and time." xlink:type="simple"><rect fill="#EEEEEE" filter="url(#f10d6jz1muerrg)" height="23.9688" id="DateTimePeriod" style="stroke: #A80036; stroke-width: 1.5;" width="105" x="259.75" y="356"/><rect fill="#EEEEEE" height="23.9688" style="stroke: #A80036; stroke-width: 1.5;" width="105" x="259.75" y="356"/><text fill="#000000" font-family="sans-serif" font-size="12" lengthAdjust="spacingAndGlyphs" textLength="99" x="262.75" y="372.1387">DateTimePeriod</text></a><!--class CurrencyExchange--><a target="_top" xlink:actuate="onRequest" xlink:href="../CurrencyExchange.html" xlink:show="new" xlink:title="Information needed to process a currency exchange or conversion." xlink:type="simple"><rect fill="#EEEEEE" filter="url(#f10d6jz1muerrg)" height="23.9688" id="CurrencyExchange" style="stroke: #A80036; stroke-width: 1.5;" width="122" x="245" y="252"/><rect fill="#EEEEEE" height="23.9688" style="stroke: #A80036; stroke-width: 1.5;" width="122" x="245" y="252"/><text fill="#000000" font-family="sans-serif" font-size="12" lengthAdjust="spacingAndGlyphs" textLength="116" x="248" y="268.1387">CurrencyExchange</text></a><!--class SecuritiesOrder--><a target="_top" xlink:actuate="onRequest" xlink:href="../SecuritiesOrder.html" xlink:show="new" xlink:title="Intention to transfer an ownership of a financial instrument." xlink:type="simple"><rect fill="#EEEEEE" filter="url(#f10d6jz1muerrg)" height="23.9688" id="SecuritiesOrder" style="stroke: #A80036; stroke-width: 1.5;" width="103" x="118.75" y="458"/><rect fill="#EEEEEE" height="23.9688" style="stroke: #A80036; stroke-width: 1.5;" width="103" x="118.75" y="458"/><text fill="#000000" font-family="sans-serif" font-size="12" lengthAdjust="spacingAndGlyphs" textLength="97" x="121.75" y="474.1387">SecuritiesOrder</text></a><!--class Tax--><a target="_top" xlink:actuate="onRequest" xlink:href="../Tax.html" xlink:show="new" xlink:title="Amount of money due to the government or tax authority, according to various pre-defined parameters such as thresholds or income." xlink:type="simple"><rect fill="#EEEEEE" filter="url(#f10d6jz1muerrg)" height="23.9688" id="Tax" style="stroke: #A80036; stroke-width: 1.5;" width="27" x="158.75" y="356"/><rect fill="#EEEEEE" height="23.9688" style="stroke: #A80036; stroke-width: 1.5;" width="27" x="158.75" y="356"/><text fill="#000000" font-family="sans-serif" font-size="12" lengthAdjust="spacingAndGlyphs" textLength="21" x="161.75" y="372.1387">Tax</text></a><!--link Adjustment to Commission--><path d="M749.558,194.457 C749.706,217.45 749.848,239.377 749.929,251.996 " fill="none" id="Adjustment-Commission" style="stroke: #A80036; stroke-width: 1.0;"/><polygon fill="none" points="742.556,194.228,749.427,174.184,756.556,194.138,742.556,194.228" style="stroke: #A80036; stroke-width: 1.0;"/><!--link Adjustment to Charges--><path d="M805.203,190.966 C821.627,215.212 837.566,238.74 846.546,251.996 " fill="none" id="Adjustment-Charges" style="stroke: #A80036; stroke-width: 1.0;"/><polygon fill="none" points="799.256,194.668,793.834,174.184,810.846,186.816,799.256,194.668" style="stroke: #A80036; stroke-width: 1.0;"/><!--link Adjustment to Discount--><path d="M605.096,183.61 C554.194,210.356 502.719,237.402 474.942,251.996 " fill="none" id="Adjustment-Discount" style="stroke: #A80036; stroke-width: 1.0;"/><polygon fill="none" points="602.077,177.289,623.038,174.184,608.589,189.683,602.077,177.289" style="stroke: #A80036; stroke-width: 1.0;"/><!--link Adjustment to Allowance--><path d="M649.909,186.764 C617.579,212.463 585.483,237.975 567.843,251.996 " fill="none" id="Adjustment-Allowance" style="stroke: #A80036; stroke-width: 1.0;"/><polygon fill="none" points="645.725,181.149,665.737,174.184,654.436,192.108,645.725,181.149" style="stroke: #A80036; stroke-width: 1.0;"/><!--link Adjustment to Penalty--><path d="M695.248,191.316 C679.685,215.438 664.61,238.804 656.099,251.996 " fill="none" id="Adjustment-Penalty" style="stroke: #A80036; stroke-width: 1.0;"/><polygon fill="none" points="689.576,187.195,706.301,174.184,701.34,194.784,689.576,187.195" style="stroke: #A80036; stroke-width: 1.0;"/><!--link LineItem to Payment--><!--link Price to LineItem--><!--link CollateralManagement to Price--><!--link Balance to CollateralManagement--><!--link ChargePartyRole to Balance--><!--link DateTimePeriod to ChargePartyRole--><!--link CurrencyExchange to DateTimePeriod--><!--link SecuritiesOrder to CurrencyExchange--><!--link Tax to SecuritiesOrder--><!--link Adjustment to Payment--><path d="M614.76,107 C464.874,107 231.879,107 144.581,107 " fill="none" id="Adjustment-Payment" style="stroke: #A80036; stroke-width: 1.0;"/><polygon fill="#A80036" points="139.539,107,148.539,111,144.539,107,148.539,103,139.539,107" style="stroke: #A80036; stroke-width: 1.0;"/><text fill="#000000" font-family="sans-serif" font-size="13" lengthAdjust="spacingAndGlyphs" textLength="57" x="348" y="99.0669">Payment</text><text fill="#000000" font-family="sans-serif" font-size="13" lengthAdjust="spacingAndGlyphs" textLength="7" x="148.6906" y="100.6993">*</text><!--link Adjustment to LineItem--><path d="M883.36,119.004 C1121.78,140.352 1594,191.642 1594,263 C1594,263 1594,263 1594,745 C1594,808.0911 571.758,825.7126 371.719,828.5569 " fill="none" id="Adjustment-LineItem" style="stroke: #A80036; stroke-width: 1.0;"/><polygon fill="#A80036" points="366.593,828.6291,375.6481,832.5027,371.5925,828.5591,375.5361,824.5035,366.593,828.6291" style="stroke: #A80036; stroke-width: 1.0;"/><text fill="#000000" font-family="sans-serif" font-size="13" lengthAdjust="spacingAndGlyphs" textLength="103" x="1595" y="525.0669">RelatedLineItem</text><text fill="#000000" font-family="sans-serif" font-size="13" lengthAdjust="spacingAndGlyphs" textLength="24" x="375.3633" y="822.5547">0..1</text><!--link Adjustment to Price--><path d="M883.145,119.959 C1040.4,135.465 1290.44,165.185 1376,204 C1477,249.823 1539.18,330.668 1486,428 C1424.47,540.626 1361.36,534.384 1243,584 C913.494,722.126 467.845,740.266 361.483,742.643 " fill="none" id="Adjustment-Price" style="stroke: #A80036; stroke-width: 1.0;"/><polygon fill="#A80036" points="356.389,742.75,365.4705,746.5614,361.3879,742.6457,365.3036,738.5631,356.389,742.75" style="stroke: #A80036; stroke-width: 1.0;"/><text fill="#000000" font-family="sans-serif" font-size="13" lengthAdjust="spacingAndGlyphs" textLength="31" x="1468" y="474.0669">Price</text><text fill="#000000" font-family="sans-serif" font-size="13" lengthAdjust="spacingAndGlyphs" textLength="24" x="364.8656" y="736.0978">0..1</text><!--link Adjustment to CollateralManagement--><path d="M883.157,115.976 C1034.26,127.318 1268.04,152.699 1339,204 C1406.58,252.854 1454.79,313.867 1404,380 C1370.66,423.408 572.209,597.184 349.95,644.852 " fill="none" id="Adjustment-CollateralManagement" style="stroke: #A80036; stroke-width: 1.0;"/><polygon fill="#A80036" points="344.808,645.955,354.4467,647.9785,349.6968,644.9064,352.7689,640.1564,344.808,645.955" style="stroke: #A80036; stroke-width: 1.0;"/><text fill="#000000" font-family="sans-serif" font-size="13" lengthAdjust="spacingAndGlyphs" textLength="145" x="1331" y="423.0669">CollateralManagement</text><text fill="#000000" font-family="sans-serif" font-size="13" lengthAdjust="spacingAndGlyphs" textLength="8" x="351.8123" y="634.9877">1</text><!--link Adjustment to Balance--><path d="M883.153,112.899 C1086.06,125.366 1435.56,169.538 1318,326 C1195.82,488.605 503.578,555.176 344.561,568.437 " fill="none" id="Adjustment-Balance" style="stroke: #A80036; stroke-width: 1.0;"/><polygon fill="#A80036" points="339.571,568.85,348.8696,572.0958,344.554,568.4386,348.2113,564.123,339.571,568.85" style="stroke: #A80036; stroke-width: 1.0;"/><text fill="#000000" font-family="sans-serif" font-size="13" lengthAdjust="spacingAndGlyphs" textLength="107" x="1287" y="372.0669">AdjustedBalance</text><text fill="#000000" font-family="sans-serif" font-size="13" lengthAdjust="spacingAndGlyphs" textLength="8" x="348.3097" y="561.6634">1</text><!--link Adjustment to ChargePartyRole--><path d="M883.077,116.554 C1008.13,127.66 1181.58,152.15 1224,204 C1251.02,237.023 1249.35,265.679 1224,300 C1216.82,309.725 1209.35,303.828 1198,308 C1182.16,313.823 935.402,424.041 919,428 C816.489,452.74 504.589,463.83 372.321,467.512 " fill="none" id="Adjustment-ChargePartyRole" style="stroke: #A80036; stroke-width: 1.0;"/><polygon fill="#A80036" points="367.308,467.651,376.4154,471.4001,372.3061,467.5124,376.1937,463.4031,367.308,467.651" style="stroke: #A80036; stroke-width: 1.0;"/><text fill="#000000" font-family="sans-serif" font-size="13" lengthAdjust="spacingAndGlyphs" textLength="113" x="1199" y="321.0669">ChargesPartyRole</text><text fill="#000000" font-family="sans-serif" font-size="13" lengthAdjust="spacingAndGlyphs" textLength="7" x="374.8428" y="462.3384">*</text><!--link Adjustment to DateTimePeriod--><path d="M883.285,137.825 C919.407,152.124 955.054,173.153 979,204 C1005.232,237.793 1015.3,268.828 986,300 C976.165,310.464 870.998,304.794 857,308 C836.405,312.717 833.548,321.081 813,326 C655.777,363.641 463.755,368.275 369.624,367.961 " fill="none" id="Adjustment-DateTimePeriod" style="stroke: #A80036; stroke-width: 1.0;"/><polygon fill="#A80036" points="364.391,367.938,373.3726,371.9791,369.3909,367.9609,373.4092,363.9792,364.391,367.938" style="stroke: #A80036; stroke-width: 1.0;"/><text fill="#000000" font-family="sans-serif" font-size="13" lengthAdjust="spacingAndGlyphs" textLength="94" x="1004" y="268.0669">EffectivePeriod</text><text fill="#000000" font-family="sans-serif" font-size="13" lengthAdjust="spacingAndGlyphs" textLength="8" x="372.6367" y="362.7594">1</text><!--link Adjustment to CurrencyExchange--><path d="M614.651,136.419 C549.611,152.415 471.237,175.044 404,204 C375.342,216.342 344.947,235.758 325.742,248.916 " fill="none" id="Adjustment-CurrencyExchange" style="stroke: #A80036; stroke-width: 1.0;"/><polygon fill="#A80036" points="321.582,251.789,331.2607,249.9659,325.6962,248.9476,326.7145,243.3832,321.582,251.789" style="stroke: #A80036; stroke-width: 1.0;"/><text fill="#000000" font-family="sans-serif" font-size="13" lengthAdjust="spacingAndGlyphs" textLength="119" x="405" y="217.0669">CurrencyExchange</text><text fill="#000000" font-family="sans-serif" font-size="13" lengthAdjust="spacingAndGlyphs" textLength="8" x="316.0873" y="241.0225">1</text><!--link Adjustment to SecuritiesOrder--><path d="M883.156,130.524 C1014.52,158.188 1184.59,212.521 1108,300 C1099.14,310.121 1061.29,305.897 1048,308 C736.685,357.267 365.851,429.873 226.568,457.636 " fill="none" id="Adjustment-SecuritiesOrder" style="stroke: #A80036; stroke-width: 1.0;"/><polygon fill="#A80036" points="221.311,458.685,230.9192,460.8487,226.2146,457.7077,229.3556,453.003,221.311,458.685" style="stroke: #A80036; stroke-width: 1.0;"/><text fill="#000000" font-family="sans-serif" font-size="13" lengthAdjust="spacingAndGlyphs" textLength="99" x="1049" y="321.0669">SecuritiesOrder</text><text fill="#000000" font-family="sans-serif" font-size="13" lengthAdjust="spacingAndGlyphs" textLength="8" x="229.7422" y="451.7303">1</text><!--link Adjustment to Tax--><path d="M852.039,174.017 C898.969,212.023 936.719,260.023 900,300 C898.449,301.689 244.276,355.725 242,356 C224.534,358.113 204.736,361.298 190.663,363.698 " fill="none" id="Adjustment-Tax" style="stroke: #A80036; stroke-width: 1.0;"/><polygon fill="#A80036" points="185.38,364.608,194.929,367.0198,190.3072,363.758,193.569,359.1362,185.38,364.608" style="stroke: #A80036; stroke-width: 1.0;"/><text fill="#000000" font-family="sans-serif" font-size="13" lengthAdjust="spacingAndGlyphs" textLength="22" x="915" y="268.0669">Tax</text><text fill="#000000" font-family="sans-serif" font-size="13" lengthAdjust="spacingAndGlyphs" textLength="24" x="193.7043" y="356.7628">0..1</text><!--link Charges to LineItem--><path d="M862.337,276.01 C869.274,284.237 879.937,294.904 892,300 C906.864,306.279 1025.19,297.006 1037,308 C1062.09,331.352 1076,579.725 1076,614 C1076,614 1076,614 1076,745 C1076,816.7739 517.823,827.24 372.336,828.7489 " fill="none" id="Charges-LineItem" style="stroke: #A80036; stroke-width: 1.0;"/><polygon fill="#A80036" points="366.93,828.8028,375.9695,832.7126,371.9298,828.7528,375.8896,824.713,366.93,828.8028" style="stroke: #A80036; stroke-width: 1.0;"/><text fill="#000000" font-family="sans-serif" font-size="13" lengthAdjust="spacingAndGlyphs" textLength="156" x="1075" y="576.0669">LogisticsChargeLineItem</text><text fill="#000000" font-family="sans-serif" font-size="13" lengthAdjust="spacingAndGlyphs" textLength="24" x="375.2687" y="842.1866">0..1</text><!--link Charges to LineItem--><path d="M862.324,276.042 C869.253,284.286 879.913,294.961 892,300 C927.932,314.981 1029.69,296.876 1067,308 C1167.44,337.948 1175.11,383.506 1270,428 C1305.89,444.83 1326,429.94 1354,458 C1374.65,478.696 1376,490.761 1376,520 C1376,520 1376,520 1376,745 C1376,796.6115 549.95,822.9877 371.658,828.0795 " fill="none" id="Charges-LineItem" style="stroke: #A80036; stroke-width: 1.0;"/><polygon fill="#A80036" points="366.573,828.224,375.6825,831.9678,371.571,828.0826,375.4563,823.971,366.573,828.224" style="stroke: #A80036; stroke-width: 1.0;"/><text fill="#000000" font-family="sans-serif" font-size="13" lengthAdjust="spacingAndGlyphs" textLength="55" x="1377" y="576.0669">LineItem</text><text fill="#000000" font-family="sans-serif" font-size="13" lengthAdjust="spacingAndGlyphs" textLength="8" x="375.743" y="816.2631">1</text><!--link Charges to LineItem--><path d="M862.656,276.276 C869.615,284.415 880.158,294.845 892,300 C913.253,309.251 980.251,290.993 996,308 C1098.65,418.845 848,462.928 848,614 C848,614 848,614 848,745 C848,793.4173 485.515,819.9004 371.74,827.0202 " fill="none" id="Charges-LineItem" style="stroke: #A80036; stroke-width: 1.0;"/><polygon fill="#A80036" points="366.513,827.3447,375.7427,830.7816,371.5035,827.0361,375.249,822.7969,366.513,827.3447" style="stroke: #A80036; stroke-width: 1.0;"/><text fill="#000000" font-family="sans-serif" font-size="13" lengthAdjust="spacingAndGlyphs" textLength="155" x="859" y="576.0669">NetPriceChargeLineItem</text><text fill="#000000" font-family="sans-serif" font-size="13" lengthAdjust="spacingAndGlyphs" textLength="24" x="375.2658" y="820.9893">0..1</text><!--link Payment to Tax--><path d="M109.092,119.232 C107.045,149.465 103.9075,234.693 127,300 C133.883,319.465 147.75,338.718 158.281,351.556 " fill="none" id="Payment-Tax" style="stroke: #A80036; stroke-width: 1.0;"/><polygon fill="#A80036" points="161.71,355.654,159.0018,346.1848,158.5012,351.8195,152.8666,351.3189,161.71,355.654" style="stroke: #A80036; stroke-width: 1.0;"/><text fill="#000000" font-family="sans-serif" font-size="13" lengthAdjust="spacingAndGlyphs" textLength="97" x="128" y="268.0669">TaxOnPayment</text><text fill="#000000" font-family="sans-serif" font-size="13" lengthAdjust="spacingAndGlyphs" textLength="7" x="148.728" y="344.8428">*</text><!--link Payment to CurrencyExchange--><path d="M118.016,119.063 C134.451,141.109 174.056,191.057 217,222 C233.023,233.545 252.815,243.05 269.663,249.992 " fill="none" id="Payment-CurrencyExchange" style="stroke: #A80036; stroke-width: 1.0;"/><polygon fill="#A80036" points="274.332,251.881,267.4902,244.7966,269.6972,250.0051,264.4887,252.2122,274.332,251.881" style="stroke: #A80036; stroke-width: 1.0;"/><text fill="#000000" font-family="sans-serif" font-size="13" lengthAdjust="spacingAndGlyphs" textLength="119" x="218" y="217.0669">CurrencyExchange</text><text fill="#000000" font-family="sans-serif" font-size="13" lengthAdjust="spacingAndGlyphs" textLength="7" x="253.8993" y="240.8883">*</text><!--link Payment to Payment--><path d="M123.828,94.889 C145.833,81.432 174,85.469 174,107 C174,127.101 149.45,131.955 128.283,121.561 " fill="none" id="Payment-Payment" style="stroke: #A80036; stroke-width: 1.0;"/><polygon fill="#A80036" points="123.828,119.111,129.786,126.9534,128.209,121.5208,133.6416,119.9438,123.828,119.111" style="stroke: #A80036; stroke-width: 1.0;"/><text fill="#000000" font-family="sans-serif" font-size="13" lengthAdjust="spacingAndGlyphs" textLength="105" x="180" y="111.0669">OriginalPayment</text><text fill="#000000" font-family="sans-serif" font-size="13" lengthAdjust="spacingAndGlyphs" textLength="8" x="118.1072" y="138.932">1</text><!--link CurrencyExchange to Tax--><path d="M280.495,276.07 C263.084,283.397 239.385,292.923 218,300 C204.899,304.335 197.778,298.263 188,308 C176.813,319.139 173.225,337.253 172.182,350.476 " fill="none" id="CurrencyExchange-Tax" style="stroke: #A80036; stroke-width: 1.0;"/><polygon fill="#A80036" points="171.875,355.809,176.3828,347.0523,172.1607,350.8172,168.3959,346.5951,171.875,355.809" style="stroke: #A80036; stroke-width: 1.0;"/><text fill="#000000" font-family="sans-serif" font-size="13" lengthAdjust="spacingAndGlyphs" textLength="22" x="189" y="321.0669">Tax</text><text fill="#000000" font-family="sans-serif" font-size="13" lengthAdjust="spacingAndGlyphs" textLength="8" x="161.0945" y="345.0492">1</text></g></svg>