<?xml version="1.0" encoding="UTF-8" standalone="no"?><svg xmlns="http://www.w3.org/2000/svg" xmlns:xlink="http://www.w3.org/1999/xlink" contentScriptType="application/ecmascript" contentStyleType="text/css" height="972px" preserveAspectRatio="none" style="width:1674px;height:972px;" version="1.1" viewBox="0 0 1674 972" width="1674px" zoomAndPan="magnify"><defs><filter height="300%" id="f10q74xalyqll6" width="300%" x="-1" y="-1"><feGaussianBlur result="blurOut" stdDeviation="2.0"/><feColorMatrix in="blurOut" result="blurOut2" type="matrix" values="0 0 0 0 0 0 0 0 0 0 0 0 0 0 0 0 0 0 .4 0"/><feOffset dx="4.0" dy="4.0" in="blurOut2" result="blurOut3"/><feBlend in="SourceGraphic" in2="blurOut3" mode="normal"/></filter></defs><g><!--cluster ##18392--><!--cluster ##18398--><!--class Adjustment--><a target="_top" xlink:actuate="onRequest" xlink:href="../Adjustment.html" xlink:show="new" xlink:title="Modification on the value of goods and / or services. For example: rebate, discount." xlink:type="simple"><rect fill="#FEFEEE" filter="url(#f10q74xalyqll6)" height="134.4063" id="Adjustment" style="stroke: #A80036; stroke-width: 1.5;" width="268" x="51" y="40"/><rect fill="#FEFEEE" height="23.9688" style="stroke: #A80036; stroke-width: 1.5;" width="268" x="51" y="40"/><text fill="#000000" font-family="sans-serif" font-size="12" lengthAdjust="spacingAndGlyphs" textLength="71" x="149.5" y="56.1387">Adjustment</text><line style="stroke: #A80036; stroke-width: 1.5;" x1="52" x2="318" y1="63.9688" y2="63.9688"/><ellipse cx="62" cy="75.8711" fill="#84BE84" rx="3" ry="3" style="stroke: #038048; stroke-width: 1.0;"/><text fill="#000000" font-family="sans-serif" font-size="11" lengthAdjust="spacingAndGlyphs" textLength="43" x="71" y="78.1792">Amount</text><text fill="#000000" font-family="sans-serif" font-size="11" font-style="italic" lengthAdjust="spacingAndGlyphs" textLength="126" x="118" y="78.1792">(CurrencyAndAmount)</text><ellipse cx="62" cy="88.6758" fill="#84BE84" rx="3" ry="3" style="stroke: #038048; stroke-width: 1.0;"/><text fill="#000000" font-family="sans-serif" font-size="11" lengthAdjust="spacingAndGlyphs" textLength="66" x="71" y="90.9839">ChargeRate</text><text fill="#000000" font-family="sans-serif" font-size="11" font-style="italic" lengthAdjust="spacingAndGlyphs" textLength="98" x="141" y="90.9839">(PercentageRate)</text><ellipse cx="62" cy="101.4805" fill="#84BE84" rx="3" ry="3" style="stroke: #038048; stroke-width: 1.0;"/><text fill="#000000" font-family="sans-serif" font-size="11" lengthAdjust="spacingAndGlyphs" textLength="103" x="71" y="103.7886">CalculationMethod</text><text fill="#000000" font-family="sans-serif" font-size="11" font-style="italic" lengthAdjust="spacingAndGlyphs" textLength="116" x="178" y="103.7886">(TaxationBasisCode)</text><ellipse cx="62" cy="114.2852" fill="#84BE84" rx="3" ry="3" style="stroke: #038048; stroke-width: 1.0;"/><text fill="#000000" font-family="sans-serif" font-size="11" lengthAdjust="spacingAndGlyphs" textLength="50" x="71" y="116.5933">Direction</text><text fill="#000000" font-family="sans-serif" font-size="11" font-style="italic" lengthAdjust="spacingAndGlyphs" textLength="151" x="125" y="116.5933">(AdjustmentDirectionCode)</text><ellipse cx="62" cy="127.0898" fill="#84BE84" rx="3" ry="3" style="stroke: #038048; stroke-width: 1.0;"/><text fill="#000000" font-family="sans-serif" font-size="11" lengthAdjust="spacingAndGlyphs" textLength="42" x="71" y="129.3979">Reason</text><text fill="#000000" font-family="sans-serif" font-size="11" font-style="italic" lengthAdjust="spacingAndGlyphs" textLength="142" x="117" y="129.3979">(Max4AlphaNumericText)</text><ellipse cx="62" cy="139.8945" fill="#84BE84" rx="3" ry="3" style="stroke: #038048; stroke-width: 1.0;"/><text fill="#000000" font-family="sans-serif" font-size="11" lengthAdjust="spacingAndGlyphs" textLength="146" x="71" y="142.2026">AllowanceChargeIndicator</text><text fill="#000000" font-family="sans-serif" font-size="11" font-style="italic" lengthAdjust="spacingAndGlyphs" textLength="92" x="221" y="142.2026">(YesNoIndicator)</text><ellipse cx="62" cy="152.6992" fill="#84BE84" rx="3" ry="3" style="stroke: #038048; stroke-width: 1.0;"/><text fill="#000000" font-family="sans-serif" font-size="11" lengthAdjust="spacingAndGlyphs" textLength="90" x="71" y="155.0073">ChargeIndicator</text><text fill="#000000" font-family="sans-serif" font-size="11" font-style="italic" lengthAdjust="spacingAndGlyphs" textLength="92" x="165" y="155.0073">(YesNoIndicator)</text><ellipse cx="62" cy="165.5039" fill="#84BE84" rx="3" ry="3" style="stroke: #038048; stroke-width: 1.0;"/><text fill="#000000" font-family="sans-serif" font-size="11" lengthAdjust="spacingAndGlyphs" textLength="27" x="71" y="167.812">Type</text><text fill="#000000" font-family="sans-serif" font-size="11" font-style="italic" lengthAdjust="spacingAndGlyphs" textLength="129" x="102" y="167.812">(AdjustmentTypeCode)</text></a><!--class Allowance--><a target="_top" xlink:actuate="onRequest" xlink:href="../Allowance.html" xlink:show="new" xlink:title="Amount of money deducted from a price or an amount due." xlink:type="simple"><rect fill="#FEFECE" filter="url(#f10q74xalyqll6)" height="57.5781" id="Allowance" style="stroke: #A80036; stroke-width: 1.5;" width="259" x="51.75" y="252"/><rect fill="#FEFECE" height="23.9688" style="stroke: #A80036; stroke-width: 1.5;" width="259" x="51.75" y="252"/><text fill="#000000" font-family="sans-serif" font-size="12" lengthAdjust="spacingAndGlyphs" textLength="62" x="150.25" y="268.1387">Allowance</text><line style="stroke: #A80036; stroke-width: 1.5;" x1="52.75" x2="309.75" y1="275.9688" y2="275.9688"/><ellipse cx="62.75" cy="287.8711" fill="#84BE84" rx="3" ry="3" style="stroke: #038048; stroke-width: 1.0;"/><text fill="#000000" font-family="sans-serif" font-size="11" lengthAdjust="spacingAndGlyphs" textLength="84" x="71.75" y="290.1792">TotalAllowance</text><text fill="#000000" font-family="sans-serif" font-size="11" font-style="italic" lengthAdjust="spacingAndGlyphs" textLength="126" x="159.75" y="290.1792">(CurrencyAndAmount)</text><ellipse cx="62.75" cy="300.6758" fill="#84BE84" rx="3" ry="3" style="stroke: #038048; stroke-width: 1.0;"/><text fill="#000000" font-family="sans-serif" font-size="11" lengthAdjust="spacingAndGlyphs" textLength="103" x="71.75" y="302.9839">NetPriceAllowance</text><text fill="#000000" font-family="sans-serif" font-size="11" font-style="italic" lengthAdjust="spacingAndGlyphs" textLength="126" x="178.75" y="302.9839">(CurrencyAndAmount)</text></a><!--class Payment--><a target="_top" xlink:actuate="onRequest" xlink:href="../Payment.html" xlink:show="new" xlink:title="Payment information and processes required to transfer cash end to end from the debtor to the creditor." xlink:type="simple"><rect fill="#EEEEEE" filter="url(#f10q74xalyqll6)" height="23.9688" id="Payment" style="stroke: #A80036; stroke-width: 1.5;" width="60" x="609.5" y="269"/><rect fill="#EEEEEE" height="23.9688" style="stroke: #A80036; stroke-width: 1.5;" width="60" x="609.5" y="269"/><text fill="#000000" font-family="sans-serif" font-size="12" lengthAdjust="spacingAndGlyphs" textLength="54" x="612.5" y="285.1387">Payment</text></a><!--class LineItem--><a target="_top" xlink:actuate="onRequest" xlink:href="../LineItem.html" xlink:show="new" xlink:title="Unit of information showing the related provision of products and/or services and monetary summations reported as a discrete line item." xlink:type="simple"><rect fill="#EEEEEE" filter="url(#f10q74xalyqll6)" height="23.9688" id="LineItem" style="stroke: #A80036; stroke-width: 1.5;" width="58" x="592.5" y="938"/><rect fill="#EEEEEE" height="23.9688" style="stroke: #A80036; stroke-width: 1.5;" width="58" x="592.5" y="938"/><text fill="#000000" font-family="sans-serif" font-size="12" lengthAdjust="spacingAndGlyphs" textLength="52" x="595.5" y="954.1387">LineItem</text></a><!--class Price--><a target="_top" xlink:actuate="onRequest" xlink:href="../Price.html" xlink:show="new" xlink:title="Amount of money for which goods, services or assets are offered, sold, or bought." xlink:type="simple"><rect fill="#EEEEEE" filter="url(#f10q74xalyqll6)" height="23.9688" id="Price" style="stroke: #A80036; stroke-width: 1.5;" width="37" x="712.75" y="852"/><rect fill="#EEEEEE" height="23.9688" style="stroke: #A80036; stroke-width: 1.5;" width="37" x="712.75" y="852"/><text fill="#000000" font-family="sans-serif" font-size="12" lengthAdjust="spacingAndGlyphs" textLength="31" x="715.75" y="868.1387">Price</text></a><!--class CollateralManagement--><a target="_top" xlink:actuate="onRequest" xlink:href="../CollateralManagement.html" xlink:show="new" xlink:title="Set of operations relative to the management of collateral, variation margins, default fund participation and independent amount." xlink:type="simple"><rect fill="#EEEEEE" filter="url(#f10q74xalyqll6)" height="23.9688" id="CollateralManagement" style="stroke: #A80036; stroke-width: 1.5;" width="147" x="657.75" y="766"/><rect fill="#EEEEEE" height="23.9688" style="stroke: #A80036; stroke-width: 1.5;" width="147" x="657.75" y="766"/><text fill="#000000" font-family="sans-serif" font-size="12" lengthAdjust="spacingAndGlyphs" textLength="141" x="660.75" y="782.1387">CollateralManagement</text></a><!--class Balance--><a target="_top" xlink:actuate="onRequest" xlink:href="../Balance.html" xlink:show="new" xlink:title="Numerical representation of the net increases and decreases in an account at a specific point in time." xlink:type="simple"><rect fill="#EEEEEE" filter="url(#f10q74xalyqll6)" height="23.9688" id="Balance" style="stroke: #A80036; stroke-width: 1.5;" width="56" x="722.5" y="680"/><rect fill="#EEEEEE" height="23.9688" style="stroke: #A80036; stroke-width: 1.5;" width="56" x="722.5" y="680"/><text fill="#000000" font-family="sans-serif" font-size="12" lengthAdjust="spacingAndGlyphs" textLength="50" x="725.5" y="696.1387">Balance</text></a><!--class ChargePartyRole--><a target="_top" xlink:actuate="onRequest" xlink:href="../ChargePartyRole.html" xlink:show="new" xlink:title="Role played by a party in the context of a paymentof charges." xlink:type="simple"><rect fill="#EEEEEE" filter="url(#f10q74xalyqll6)" height="23.9688" id="ChargePartyRole" style="stroke: #A80036; stroke-width: 1.5;" width="110" x="695" y="594"/><rect fill="#EEEEEE" height="23.9688" style="stroke: #A80036; stroke-width: 1.5;" width="110" x="695" y="594"/><text fill="#000000" font-family="sans-serif" font-size="12" lengthAdjust="spacingAndGlyphs" textLength="104" x="698" y="610.1387">ChargePartyRole</text></a><!--class DateTimePeriod--><a target="_top" xlink:actuate="onRequest" xlink:href="../DateTimePeriod.html" xlink:show="new" xlink:title="Time span defined by a start date and time, and an end date and time." xlink:type="simple"><rect fill="#EEEEEE" filter="url(#f10q74xalyqll6)" height="23.9688" id="DateTimePeriod" style="stroke: #A80036; stroke-width: 1.5;" width="105" x="697.75" y="492"/><rect fill="#EEEEEE" height="23.9688" style="stroke: #A80036; stroke-width: 1.5;" width="105" x="697.75" y="492"/><text fill="#000000" font-family="sans-serif" font-size="12" lengthAdjust="spacingAndGlyphs" textLength="99" x="700.75" y="508.1387">DateTimePeriod</text></a><!--class CurrencyExchange--><a target="_top" xlink:actuate="onRequest" xlink:href="../CurrencyExchange.html" xlink:show="new" xlink:title="Information needed to process a currency exchange or conversion." xlink:type="simple"><rect fill="#EEEEEE" filter="url(#f10q74xalyqll6)" height="23.9688" id="CurrencyExchange" style="stroke: #A80036; stroke-width: 1.5;" width="122" x="476" y="390"/><rect fill="#EEEEEE" height="23.9688" style="stroke: #A80036; stroke-width: 1.5;" width="122" x="476" y="390"/><text fill="#000000" font-family="sans-serif" font-size="12" lengthAdjust="spacingAndGlyphs" textLength="116" x="479" y="406.1387">CurrencyExchange</text></a><!--class SecuritiesOrder--><a target="_top" xlink:actuate="onRequest" xlink:href="../SecuritiesOrder.html" xlink:show="new" xlink:title="Intention to transfer an ownership of a financial instrument." xlink:type="simple"><rect fill="#EEEEEE" filter="url(#f10q74xalyqll6)" height="23.9688" id="SecuritiesOrder" style="stroke: #A80036; stroke-width: 1.5;" width="103" x="519.75" y="594"/><rect fill="#EEEEEE" height="23.9688" style="stroke: #A80036; stroke-width: 1.5;" width="103" x="519.75" y="594"/><text fill="#000000" font-family="sans-serif" font-size="12" lengthAdjust="spacingAndGlyphs" textLength="97" x="522.75" y="610.1387">SecuritiesOrder</text></a><!--class Tax--><a target="_top" xlink:actuate="onRequest" xlink:href="../Tax.html" xlink:show="new" xlink:title="Amount of money due to the government or tax authority, according to various pre-defined parameters such as thresholds or income." xlink:type="simple"><rect fill="#EEEEEE" filter="url(#f10q74xalyqll6)" height="23.9688" id="Tax" style="stroke: #A80036; stroke-width: 1.5;" width="27" x="590.75" y="492"/><rect fill="#EEEEEE" height="23.9688" style="stroke: #A80036; stroke-width: 1.5;" width="27" x="590.75" y="492"/><text fill="#000000" font-family="sans-serif" font-size="12" lengthAdjust="spacingAndGlyphs" textLength="21" x="593.75" y="508.1387">Tax</text></a><!--entity ##18419--><!--link Adjustment to Allowance--><path d="M182.995,194.204 C182.512,214.996 182.029,235.771 181.659,251.67 " fill="none" id="Adjustment-Allowance" style="stroke: #A80036; stroke-width: 1.0;"/><polygon fill="none" points="176.002,193.84,183.465,174.008,189.998,194.165,176.002,193.84" style="stroke: #A80036; stroke-width: 1.0;"/><!--link LineItem to Payment--><!--link Price to LineItem--><!--link CollateralManagement to Price--><!--link Balance to CollateralManagement--><!--link ChargePartyRole to Balance--><!--link DateTimePeriod to ChargePartyRole--><!--link CurrencyExchange to DateTimePeriod--><!--link SecuritiesOrder to CurrencyExchange--><!--link Tax to SecuritiesOrder--><!--link Adjustment to Payment--><path d="M319.269,143.476 C398.004,166.749 498.155,200.698 582,243 C595.018,249.568 608.752,258.418 619.477,265.816 " fill="none" id="Adjustment-Payment" style="stroke: #A80036; stroke-width: 1.0;"/><polygon fill="#A80036" points="623.579,268.677,618.4846,260.2481,619.4777,265.8171,613.9087,266.8102,623.579,268.677" style="stroke: #A80036; stroke-width: 1.0;"/><text fill="#000000" font-family="sans-serif" font-size="13" lengthAdjust="spacingAndGlyphs" textLength="57" x="532" y="217.0669">Payment</text><text fill="#000000" font-family="sans-serif" font-size="13" lengthAdjust="spacingAndGlyphs" textLength="7" x="608.8145" y="257.8734">*</text><!--link Adjustment to LineItem--><path d="M303.898,174.17 C336.959,201.586 364,237.118 364,280 C364,280 364,280 364,865 C364,911.3209 516.744,936.1455 586.722,945.088 " fill="none" id="Adjustment-LineItem" style="stroke: #A80036; stroke-width: 1.0;"/><polygon fill="#A80036" points="592.018,945.7546,583.5879,940.6622,587.0571,945.1303,582.589,948.5996,592.018,945.7546" style="stroke: #A80036; stroke-width: 1.0;"/><text fill="#000000" font-family="sans-serif" font-size="13" lengthAdjust="spacingAndGlyphs" textLength="103" x="365" y="610.0669">RelatedLineItem</text><text fill="#000000" font-family="sans-serif" font-size="13" lengthAdjust="spacingAndGlyphs" textLength="24" x="560.5129" y="939.8824">0..1</text><!--link Adjustment to Price--><path d="M319.321,110.037 C677.793,117.245 1630,148.746 1630,280 C1630,280 1630,280 1630,779 C1630,869.635 896.261,865.065 754.536,863.337 " fill="none" id="Adjustment-Price" style="stroke: #A80036; stroke-width: 1.0;"/><polygon fill="#A80036" points="749.365,863.272,758.314,867.3848,754.3646,863.3349,758.4146,859.3854,749.365,863.272" style="stroke: #A80036; stroke-width: 1.0;"/><text fill="#000000" font-family="sans-serif" font-size="13" lengthAdjust="spacingAndGlyphs" textLength="31" x="1631" y="559.0669">Price</text><text fill="#000000" font-family="sans-serif" font-size="13" lengthAdjust="spacingAndGlyphs" textLength="24" x="757.8348" y="856.7666">0..1</text><!--link Adjustment to CollateralManagement--><path d="M319.016,112.679 C640.499,125.685 1429,168.909 1429,280 C1429,280 1429,280 1429,693 C1429,754.822 991.814,771.403 809.435,775.63 " fill="none" id="Adjustment-CollateralManagement" style="stroke: #A80036; stroke-width: 1.0;"/><polygon fill="#A80036" points="804.379,775.745,813.4681,779.5382,809.3777,775.6307,813.2852,771.5403,804.379,775.745" style="stroke: #A80036; stroke-width: 1.0;"/><text fill="#000000" font-family="sans-serif" font-size="13" lengthAdjust="spacingAndGlyphs" textLength="145" x="1430" y="508.0669">CollateralManagement</text><text fill="#000000" font-family="sans-serif" font-size="13" lengthAdjust="spacingAndGlyphs" textLength="8" x="812.815" y="770.6445">1</text><!--link Adjustment to Balance--><path d="M319.078,112.534 C496.987,120.748 819.956,143.317 1089,204 C1215.23,232.472 1271.35,267.483 1313,390 C1316.43,400.099 1316.98,404.105 1313,414 C1304.23,435.792 1184.31,552.198 1164,564 C1034.34,639.339 855.4,674.376 782.686,686.177 " fill="none" id="Adjustment-Balance" style="stroke: #A80036; stroke-width: 1.0;"/><polygon fill="#A80036" points="777.637,686.987,787.1567,689.5121,782.574,686.1956,785.8904,681.6129,777.637,686.987" style="stroke: #A80036; stroke-width: 1.0;"/><text fill="#000000" font-family="sans-serif" font-size="13" lengthAdjust="spacingAndGlyphs" textLength="107" x="1290" y="457.0669">AdjustedBalance</text><text fill="#000000" font-family="sans-serif" font-size="13" lengthAdjust="spacingAndGlyphs" textLength="8" x="786.3943" y="679.2764">1</text><!--link Adjustment to ChargePartyRole--><path d="M319.102,117.22 C592.565,137.825 1189,192.766 1189,280 C1189,280 1189,280 1189,505 C1189,581.734 930.796,599.587 810.431,603.741 " fill="none" id="Adjustment-ChargePartyRole" style="stroke: #A80036; stroke-width: 1.0;"/><polygon fill="#A80036" points="805.155,603.917,814.2837,607.6139,810.1522,603.7499,814.0163,599.6184,805.155,603.917" style="stroke: #A80036; stroke-width: 1.0;"/><text fill="#000000" font-family="sans-serif" font-size="13" lengthAdjust="spacingAndGlyphs" textLength="113" x="1190" y="406.0669">ChargesPartyRole</text><text fill="#000000" font-family="sans-serif" font-size="13" lengthAdjust="spacingAndGlyphs" textLength="7" x="813.0368" y="598.5728">*</text><!--link Adjustment to DateTimePeriod--><path d="M319.295,120.312 C475.982,136.121 724.509,166.092 810,204 C835.128,215.142 846.187,218.181 858,243 C880.349,289.954 874.362,310.982 857,360 C837.936,413.822 790.933,464.206 766.05,488.248 " fill="none" id="Adjustment-DateTimePeriod" style="stroke: #A80036; stroke-width: 1.0;"/><polygon fill="#A80036" points="762.254,491.877,771.5234,488.5485,765.8679,488.4216,765.9948,482.7662,762.254,491.877" style="stroke: #A80036; stroke-width: 1.0;"/><text fill="#000000" font-family="sans-serif" font-size="13" lengthAdjust="spacingAndGlyphs" textLength="94" x="865" y="355.0669">EffectivePeriod</text><text fill="#000000" font-family="sans-serif" font-size="13" lengthAdjust="spacingAndGlyphs" textLength="8" x="755.6616" y="480.8829">1</text><!--link Adjustment to CurrencyExchange--><path d="M319.173,156.884 C344.393,169.792 369.306,185.43 390,204 C440.32,249.155 427.046,280.982 469,334 C484.605,353.72 505.6,373.601 520.114,386.524 " fill="none" id="Adjustment-CurrencyExchange" style="stroke: #A80036; stroke-width: 1.0;"/><polygon fill="#A80036" points="524.026,389.979,519.9289,381.0228,520.2786,386.6688,514.6326,387.0185,524.026,389.979" style="stroke: #A80036; stroke-width: 1.0;"/><text fill="#000000" font-family="sans-serif" font-size="13" lengthAdjust="spacingAndGlyphs" textLength="119" x="470" y="285.0669">CurrencyExchange</text><text fill="#000000" font-family="sans-serif" font-size="13" lengthAdjust="spacingAndGlyphs" textLength="8" x="508.8474" y="379.02">1</text><!--link Adjustment to SecuritiesOrder--><path d="M319.008,117.224 C486.403,130.463 761.913,158.409 853,204 C890.572,222.806 964.278,328.237 969,342 C1022.75,498.658 749.659,571.052 627.56,595.235 " fill="none" id="Adjustment-SecuritiesOrder" style="stroke: #A80036; stroke-width: 1.0;"/><polygon fill="#A80036" points="622.571,596.212,632.1722,598.4069,627.4777,595.2507,630.634,590.5562,622.571,596.212" style="stroke: #A80036; stroke-width: 1.0;"/><text fill="#000000" font-family="sans-serif" font-size="13" lengthAdjust="spacingAndGlyphs" textLength="99" x="976" y="406.0669">SecuritiesOrder</text><text fill="#000000" font-family="sans-serif" font-size="13" lengthAdjust="spacingAndGlyphs" textLength="8" x="630.6963" y="589.6049">1</text><!--link Adjustment to Tax--><path d="M319.058,117.066 C486.883,131.53 759.95,166.421 822,243 C854.833,283.521 839.819,315.27 813,360 C767.487,435.91 664.308,480.863 622.305,496.604 " fill="none" id="Adjustment-Tax" style="stroke: #A80036; stroke-width: 1.0;"/><polygon fill="#A80036" points="617.494,498.379,627.3221,499.0181,622.1852,496.6491,624.5542,491.5122,617.494,498.379" style="stroke: #A80036; stroke-width: 1.0;"/><text fill="#000000" font-family="sans-serif" font-size="13" lengthAdjust="spacingAndGlyphs" textLength="22" x="825" y="355.0669">Tax</text><text fill="#000000" font-family="sans-serif" font-size="13" lengthAdjust="spacingAndGlyphs" textLength="24" x="625.8561" y="489.7955">0..1</text><!--link Payment to Tax--><path d="M646.135,293.18 C654.835,308.16 667.82,335.679 663,360 C653.317,408.857 626.699,461.974 612.765,487.539 " fill="none" id="Payment-Tax" style="stroke: #A80036; stroke-width: 1.0;"/><polygon fill="#A80036" points="610.318,491.984,618.1627,486.0291,612.7295,487.6039,611.1546,482.1707,610.318,491.984" style="stroke: #A80036; stroke-width: 1.0;"/><text fill="#000000" font-family="sans-serif" font-size="13" lengthAdjust="spacingAndGlyphs" textLength="97" x="656" y="406.0669">TaxOnPayment</text><text fill="#000000" font-family="sans-serif" font-size="13" lengthAdjust="spacingAndGlyphs" textLength="7" x="602.857" y="481.0267">*</text><!--link Payment to CurrencyExchange--><path d="M630.215,293.118 C619.992,305.226 601.947,324.173 582,334 C563.778,342.977 550.046,326.43 537,342 C527.243,353.644 528.791,371.599 531.821,384.645 " fill="none" id="Payment-CurrencyExchange" style="stroke: #A80036; stroke-width: 1.0;"/><polygon fill="#A80036" points="533.082,389.554,534.7165,379.8417,531.8378,384.7113,526.9682,381.8325,533.082,389.554" style="stroke: #A80036; stroke-width: 1.0;"/><text fill="#000000" font-family="sans-serif" font-size="13" lengthAdjust="spacingAndGlyphs" textLength="119" x="538" y="355.0669">CurrencyExchange</text><text fill="#000000" font-family="sans-serif" font-size="13" lengthAdjust="spacingAndGlyphs" textLength="7" x="522.3988" y="378.9705">*</text><!--link Payment to Payment--><path d="M668.625,269.047 C686.333,266.391 703,270.375 703,281 C703,290.546 689.547,294.732 673.972,293.557 " fill="none" id="Payment-Payment" style="stroke: #A80036; stroke-width: 1.0;"/><polygon fill="#A80036" points="668.625,292.953,677.119,297.9382,673.5934,293.5144,678.0172,289.9888,668.625,292.953" style="stroke: #A80036; stroke-width: 1.0;"/><text fill="#000000" font-family="sans-serif" font-size="13" lengthAdjust="spacingAndGlyphs" textLength="105" x="709" y="285.0669">OriginalPayment</text><text fill="#000000" font-family="sans-serif" font-size="13" lengthAdjust="spacingAndGlyphs" textLength="8" x="669.5766" y="313.0781">1</text><!--link CurrencyExchange to Tax--><path d="M544.426,414.084 C556.399,431.954 580.002,467.182 593.629,487.521 " fill="none" id="CurrencyExchange-Tax" style="stroke: #A80036; stroke-width: 1.0;"/><polygon fill="#A80036" points="596.541,491.867,594.8538,482.1637,593.7576,487.7134,588.208,486.6171,596.541,491.867" style="stroke: #A80036; stroke-width: 1.0;"/><text fill="#000000" font-family="sans-serif" font-size="13" lengthAdjust="spacingAndGlyphs" textLength="22" x="578" y="457.0669">Tax</text><text fill="#000000" font-family="sans-serif" font-size="13" lengthAdjust="spacingAndGlyphs" textLength="8" x="583.1723" y="480.8695">1</text></g></svg>