<?xml version="1.0" encoding="UTF-8" standalone="no"?><svg xmlns="http://www.w3.org/2000/svg" xmlns:xlink="http://www.w3.org/1999/xlink" contentScriptType="application/ecmascript" contentStyleType="text/css" height="478px" preserveAspectRatio="none" style="width:1232px;height:478px;" version="1.1" viewBox="0 0 1232 478" width="1232px" zoomAndPan="magnify"><defs><filter height="300%" id="f1l6qc6vj0fafu" width="300%" x="-1" y="-1"><feGaussianBlur result="blurOut" stdDeviation="2.0"/><feColorMatrix in="blurOut" result="blurOut2" type="matrix" values="0 0 0 0 0 0 0 0 0 0 0 0 0 0 0 0 0 0 .4 0"/><feOffset dx="4.0" dy="4.0" in="blurOut2" result="blurOut3"/><feBlend in="SourceGraphic" in2="blurOut3" mode="normal"/></filter></defs><g><!--cluster ##7546--><!--cluster ##7567--><!--cluster ##7576--><!--class Role--><a target="_top" xlink:actuate="onRequest" xlink:href="../Role.html" xlink:show="new" xlink:title="Role of a party in an activity." xlink:type="simple"><rect fill="#FEFEEE" filter="url(#f1l6qc6vj0fafu)" height="44.7734" id="Role" style="stroke: #A80036; stroke-width: 1.5;" width="175" x="554.75" y="40.5"/><rect fill="#FEFEEE" height="23.9688" style="stroke: #A80036; stroke-width: 1.5;" width="175" x="554.75" y="40.5"/><text fill="#000000" font-family="sans-serif" font-size="12" lengthAdjust="spacingAndGlyphs" textLength="27" x="628.75" y="56.6387">Role</text><line style="stroke: #A80036; stroke-width: 1.5;" x1="555.75" x2="728.75" y1="64.4688" y2="64.4688"/><ellipse cx="565.75" cy="76.3711" fill="#84BE84" rx="3" ry="3" style="stroke: #038048; stroke-width: 1.0;"/><text fill="#000000" font-family="sans-serif" font-size="11" lengthAdjust="spacingAndGlyphs" textLength="53" x="574.75" y="78.6792">PartyRole</text><text fill="#000000" font-family="sans-serif" font-size="11" font-style="italic" lengthAdjust="spacingAndGlyphs" textLength="92" x="631.75" y="78.6792">(PartyRoleCode)</text></a><!--class AssetPartyRole--><a target="_top" xlink:actuate="onRequest" xlink:href="../AssetPartyRole.html" xlink:show="new" xlink:title="Specifies roles played by a party that are linked to the handling of assets but not related to a specific process." xlink:type="simple"><rect fill="#FEFECE" filter="url(#f1l6qc6vj0fafu)" height="23.9688" id="AssetPartyRole" style="stroke: #A80036; stroke-width: 1.5;" width="100" x="455" y="166"/><rect fill="#FEFECE" height="23.9688" style="stroke: #A80036; stroke-width: 1.5;" width="100" x="455" y="166"/><text fill="#000000" font-family="sans-serif" font-size="12" lengthAdjust="spacingAndGlyphs" textLength="94" x="458" y="182.1387">AssetPartyRole</text></a><!--class SecuritiesPartyRole--><a target="_top" xlink:actuate="onRequest" xlink:href="../SecuritiesPartyRole.html" xlink:show="new" xlink:title="Specifies roles played by a party that are linked to the handling of securities but not related to a specific process." xlink:type="simple"><rect fill="#FEFEEE" filter="url(#f1l6qc6vj0fafu)" height="23.9688" id="SecuritiesPartyRole" style="stroke: #A80036; stroke-width: 1.5;" width="127" x="38.75" y="270"/><rect fill="#FEFEEE" height="23.9688" style="stroke: #A80036; stroke-width: 1.5;" width="127" x="38.75" y="270"/><text fill="#000000" font-family="sans-serif" font-size="12" lengthAdjust="spacingAndGlyphs" textLength="121" x="41.75" y="286.1387">SecuritiesPartyRole</text></a><!--class IssuerRole--><a target="_top" xlink:actuate="onRequest" xlink:href="../IssuerRole.html" xlink:show="new" xlink:title="Legal entity that has the right to issue securities." xlink:type="simple"><rect fill="#FEFEEE" filter="url(#f1l6qc6vj0fafu)" height="23.9688" id="IssuerRole" style="stroke: #A80036; stroke-width: 1.5;" width="71" x="200.75" y="270"/><rect fill="#FEFEEE" height="23.9688" style="stroke: #A80036; stroke-width: 1.5;" width="71" x="200.75" y="270"/><text fill="#000000" font-family="sans-serif" font-size="12" lengthAdjust="spacingAndGlyphs" textLength="65" x="203.75" y="286.1387">IssuerRole</text></a><!--class WarrantAgent--><a target="_top" xlink:actuate="onRequest" xlink:href="../WarrantAgent.html" xlink:show="new" xlink:title="Entity appointed by the issuer to process the exercising of warrants, sometimes responsible for the issuance of the warrants into the market." xlink:type="simple"><rect fill="#FEFEEE" filter="url(#f1l6qc6vj0fafu)" height="23.9688" id="WarrantAgent" style="stroke: #A80036; stroke-width: 1.5;" width="93" x="306.75" y="270"/><rect fill="#FEFEEE" height="23.9688" style="stroke: #A80036; stroke-width: 1.5;" width="93" x="306.75" y="270"/><text fill="#000000" font-family="sans-serif" font-size="12" lengthAdjust="spacingAndGlyphs" textLength="87" x="309.75" y="286.1387">WarrantAgent</text></a><!--class PortfolioManagerRole--><a target="_top" xlink:actuate="onRequest" xlink:href="../PortfolioManagerRole.html" xlink:show="new" xlink:title="Party responsible for investing another party's assets and for managing the day-to-day operations." xlink:type="simple"><rect fill="#FEFEEE" filter="url(#f1l6qc6vj0fafu)" height="23.9688" id="PortfolioManagerRole" style="stroke: #A80036; stroke-width: 1.5;" width="140" x="435" y="270"/><rect fill="#FEFEEE" height="23.9688" style="stroke: #A80036; stroke-width: 1.5;" width="140" x="435" y="270"/><text fill="#000000" font-family="sans-serif" font-size="12" lengthAdjust="spacingAndGlyphs" textLength="134" x="438" y="286.1387">PortfolioManagerRole</text></a><!--class InvestmentAdvisor--><a target="_top" xlink:actuate="onRequest" xlink:href="../InvestmentAdvisor.html" xlink:show="new" xlink:title="The party that provides investment guidance at a fee." xlink:type="simple"><rect fill="#FEFEEE" filter="url(#f1l6qc6vj0fafu)" height="23.9688" id="InvestmentAdvisor" style="stroke: #A80036; stroke-width: 1.5;" width="120" x="610.5" y="270"/><rect fill="#FEFEEE" height="23.9688" style="stroke: #A80036; stroke-width: 1.5;" width="120" x="610.5" y="270"/><text fill="#000000" font-family="sans-serif" font-size="12" lengthAdjust="spacingAndGlyphs" textLength="114" x="613.5" y="286.1387">InvestmentAdvisor</text></a><!--class RolePlayer--><a target="_top" xlink:actuate="onRequest" xlink:href="../RolePlayer.html" xlink:show="new" xlink:title="Type of entity that plays a specific role in a specific context." xlink:type="simple"><rect fill="#EEEEEE" filter="url(#f1l6qc6vj0fafu)" height="23.9688" id="RolePlayer" style="stroke: #A80036; stroke-width: 1.5;" width="71" x="1041.75" y="444"/><rect fill="#EEEEEE" height="23.9688" style="stroke: #A80036; stroke-width: 1.5;" width="71" x="1041.75" y="444"/><text fill="#000000" font-family="sans-serif" font-size="12" lengthAdjust="spacingAndGlyphs" textLength="65" x="1044.75" y="460.1387">RolePlayer</text></a><!--class ContactPersonRole--><a target="_top" xlink:actuate="onRequest" xlink:href="../ContactPersonRole.html" xlink:show="new" xlink:title="Person to be contacted in a given organisation. In the corporate action domain (including meeting notifications) , it is the contact person at the party organising the meeting, at the issuer or at an intermediary." xlink:type="simple"><rect fill="#EEEEEE" filter="url(#f1l6qc6vj0fafu)" height="23.9688" id="ContactPersonRole" style="stroke: #A80036; stroke-width: 1.5;" width="126" x="1034" y="358"/><rect fill="#EEEEEE" height="23.9688" style="stroke: #A80036; stroke-width: 1.5;" width="126" x="1034" y="358"/><text fill="#000000" font-family="sans-serif" font-size="12" lengthAdjust="spacingAndGlyphs" textLength="120" x="1037" y="374.1387">ContactPersonRole</text></a><!--class CounterpartyRisk--><a target="_top" xlink:actuate="onRequest" xlink:href="../CounterpartyRisk.html" xlink:show="new" xlink:title="Calculation of the exposure amount that one party has vis-a-vis one counterparty or a central system, based on its credit risk." xlink:type="simple"><rect fill="#EEEEEE" filter="url(#f1l6qc6vj0fafu)" height="23.9688" id="CounterpartyRisk" style="stroke: #A80036; stroke-width: 1.5;" width="113" x="1046.75" y="270"/><rect fill="#EEEEEE" height="23.9688" style="stroke: #A80036; stroke-width: 1.5;" width="113" x="1046.75" y="270"/><text fill="#000000" font-family="sans-serif" font-size="12" lengthAdjust="spacingAndGlyphs" textLength="107" x="1049.75" y="286.1387">CounterpartyRisk</text></a><!--class Entry--><a target="_top" xlink:actuate="onRequest" xlink:href="../Entry.html" xlink:show="new" xlink:title="Posting to an account that results in an increase or decrease to a balance." xlink:type="simple"><rect fill="#EEEEEE" filter="url(#f1l6qc6vj0fafu)" height="23.9688" id="Entry" style="stroke: #A80036; stroke-width: 1.5;" width="38" x="1034" y="166"/><rect fill="#EEEEEE" height="23.9688" style="stroke: #A80036; stroke-width: 1.5;" width="38" x="1034" y="166"/><text fill="#000000" font-family="sans-serif" font-size="12" lengthAdjust="spacingAndGlyphs" textLength="32" x="1037" y="182.1387">Entry</text></a><!--class Asset--><a target="_top" xlink:actuate="onRequest" xlink:href="../Asset.html" xlink:show="new" xlink:title="Tangible items of value to a business." xlink:type="simple"><rect fill="#EEEEEE" filter="url(#f1l6qc6vj0fafu)" height="23.9688" id="Asset" style="stroke: #A80036; stroke-width: 1.5;" width="41" x="786.75" y="270"/><rect fill="#EEEEEE" height="23.9688" style="stroke: #A80036; stroke-width: 1.5;" width="41" x="786.75" y="270"/><text fill="#000000" font-family="sans-serif" font-size="12" lengthAdjust="spacingAndGlyphs" textLength="35" x="789.75" y="286.1387">Asset</text></a><!--link Role to AssetPartyRole--><path d="M600.441,98.279 C572.472,121.348 537.373,150.298 518.5,165.865 " fill="none" id="Role-AssetPartyRole" style="stroke: #A80036; stroke-width: 1.0;"/><polygon fill="none" points="596.026,92.846,615.909,85.52,604.934,103.647,596.026,92.846" style="stroke: #A80036; stroke-width: 1.0;"/><!--link AssetPartyRole to SecuritiesPartyRole--><path d="M434.668,189.278 C368.694,199.936 267.771,218.868 183,246 C162.574,252.538 140.264,262.392 124.24,269.981 " fill="none" id="AssetPartyRole-SecuritiesPartyRole" style="stroke: #A80036; stroke-width: 1.0;"/><polygon fill="none" points="433.95,182.305,454.796,186.108,436.128,196.134,433.95,182.305" style="stroke: #A80036; stroke-width: 1.0;"/><!--link AssetPartyRole to IssuerRole--><path d="M436.379,194.965 C392.974,206.345 336.33,223.59 289,246 C275.247,252.512 260.92,262.174 250.635,269.697 " fill="none" id="AssetPartyRole-IssuerRole" style="stroke: #A80036; stroke-width: 1.0;"/><polygon fill="none" points="434.808,188.142,455.916,190.003,438.255,201.711,434.808,188.142" style="stroke: #A80036; stroke-width: 1.0;"/><!--link AssetPartyRole to WarrantAgent--><path d="M471.809,201.273 C440.212,222.476 393.965,253.51 369.536,269.904 " fill="none" id="AssetPartyRole-WarrantAgent" style="stroke: #A80036; stroke-width: 1.0;"/><polygon fill="none" points="467.936,195.442,488.444,190.11,475.737,207.067,467.936,195.442" style="stroke: #A80036; stroke-width: 1.0;"/><!--link AssetPartyRole to PortfolioManagerRole--><path d="M505,210.595 C505,230.825 505,255.843 505,269.954 " fill="none" id="AssetPartyRole-PortfolioManagerRole" style="stroke: #A80036; stroke-width: 1.0;"/><polygon fill="none" points="498,210.306,505,190.306,512,210.305,498,210.306" style="stroke: #A80036; stroke-width: 1.0;"/><!--link AssetPartyRole to InvestmentAdvisor--><path d="M540.072,200.681 C574.389,221.895 625.284,253.357 652.05,269.904 " fill="none" id="AssetPartyRole-InvestmentAdvisor" style="stroke: #A80036; stroke-width: 1.0;"/><polygon fill="none" points="536.303,206.581,522.972,190.11,543.665,194.672,536.303,206.581" style="stroke: #A80036; stroke-width: 1.0;"/><!--link ContactPersonRole to RolePlayer--><!--link CounterpartyRisk to ContactPersonRole--><!--link Entry to CounterpartyRisk--><!--link Role to RolePlayer--><path d="M729.385,67.644 C803.546,75.993 898,101.456 898,177 C898,177 898,177 898,371 C898,431.8572 983.842,448.7099 1036.63,453.3199 " fill="none" id="Role-RolePlayer" style="stroke: #A80036; stroke-width: 1.0;"/><polygon fill="#A80036" points="1041.64,453.7288,1032.9889,449.0215,1036.656,453.3288,1032.3488,456.9959,1041.64,453.7288" style="stroke: #A80036; stroke-width: 1.0;"/><text fill="#000000" font-family="sans-serif" font-size="13" lengthAdjust="spacingAndGlyphs" textLength="39" x="899" y="286.0669">Player</text><text fill="#000000" font-family="sans-serif" font-size="13" lengthAdjust="spacingAndGlyphs" textLength="7" x="1026.7461" y="447.9585">*</text><!--link Role to ContactPersonRole--><path d="M729.267,70.963 C800.721,78.288 894.63,92.148 924,116 C969.488,152.942 946.131,186.452 974,238 C994.52,275.956 999.125,286.868 1029,318 C1042.7,332.281 1060.71,345.597 1074.76,355.039 " fill="none" id="Role-ContactPersonRole" style="stroke: #A80036; stroke-width: 1.0;"/><polygon fill="#A80036" points="1078.98,357.842,1073.7024,349.5265,1074.8171,355.0725,1069.2712,356.1871,1078.98,357.842" style="stroke: #A80036; stroke-width: 1.0;"/><text fill="#000000" font-family="sans-serif" font-size="13" lengthAdjust="spacingAndGlyphs" textLength="121" x="975" y="233.0669">ContactPersonRole</text><text fill="#000000" font-family="sans-serif" font-size="13" lengthAdjust="spacingAndGlyphs" textLength="8" x="1062.0669" y="346.8359">1</text><!--link Role to CounterpartyRisk--><path d="M729.451,66.467 C837.76,70.903 1014.85,83.089 1071,116 C1102.07,134.211 1116.9,219.427 1117,220 C1119.59,235.376 1114.87,252.681 1110.23,264.921 " fill="none" id="Role-CounterpartyRisk" style="stroke: #A80036; stroke-width: 1.0;"/><polygon fill="#A80036" points="1108.27,269.837,1115.3228,262.9625,1110.1245,265.1936,1107.8934,259.9953,1108.27,269.837" style="stroke: #A80036; stroke-width: 1.0;"/><text fill="#000000" font-family="sans-serif" font-size="13" lengthAdjust="spacingAndGlyphs" textLength="109" x="1111" y="182.0669">CounterpartyRisk</text><text fill="#000000" font-family="sans-serif" font-size="13" lengthAdjust="spacingAndGlyphs" textLength="24" x="1080.5269" y="258.8292">0..1</text><!--link Role to Entry--><path d="M729.492,68.809 C822.199,75.235 961.383,89.082 1007,116 C1024.86,126.538 1038.06,146.953 1045.63,161.252 " fill="none" id="Role-Entry" style="stroke: #A80036; stroke-width: 1.0;"/><polygon fill="#A80036" points="1047.98,165.844,1047.4321,156.0104,1045.6983,161.395,1040.3137,159.6612,1047.98,165.844" style="stroke: #A80036; stroke-width: 1.0;"/><text fill="#000000" font-family="sans-serif" font-size="13" lengthAdjust="spacingAndGlyphs" textLength="33" x="1028" y="129.0669">Entry</text><text fill="#000000" font-family="sans-serif" font-size="13" lengthAdjust="spacingAndGlyphs" textLength="8" x="1035.5356" y="154.8386">1</text><!--link AssetPartyRole to Asset--><path d="M555.142,189.095 C604.756,199.969 682.296,219.363 746,246 C759.823,251.78 774.41,260.06 785.852,267.116 " fill="none" id="AssetPartyRole-Asset" style="stroke: #A80036; stroke-width: 1.0;"/><polygon fill="#A80036" points="790.234,269.853,784.72,261.6924,785.9934,267.204,780.4817,268.4774,790.234,269.853" style="stroke: #A80036; stroke-width: 1.0;"/><text fill="#000000" font-family="sans-serif" font-size="13" lengthAdjust="spacingAndGlyphs" textLength="36" x="722" y="233.0669">Asset</text><text fill="#000000" font-family="sans-serif" font-size="13" lengthAdjust="spacingAndGlyphs" textLength="7" x="774.8379" y="258.8507">*</text></g></svg>