<?xml version="1.0" encoding="UTF-8" standalone="no"?><svg xmlns="http://www.w3.org/2000/svg" xmlns:xlink="http://www.w3.org/1999/xlink" contentScriptType="application/ecmascript" contentStyleType="text/css" height="498px" preserveAspectRatio="none" style="width:865px;height:498px;" version="1.1" viewBox="0 0 865 498" width="865px" zoomAndPan="magnify"><defs><filter height="300%" id="f1lrkffx9c3une" width="300%" x="-1" y="-1"><feGaussianBlur result="blurOut" stdDeviation="2.0"/><feColorMatrix in="blurOut" result="blurOut2" type="matrix" values="0 0 0 0 0 0 0 0 0 0 0 0 0 0 0 0 0 0 .4 0"/><feOffset dx="4.0" dy="4.0" in="blurOut2" result="blurOut3"/><feBlend in="SourceGraphic" in2="blurOut3" mode="normal"/></filter></defs><g><!--cluster ##18759--><!--cluster ##18768--><!--cluster ##18777--><!--class Role--><a target="_top" xlink:actuate="onRequest" xlink:href="../Role.html" xlink:show="new" xlink:title="Role of a party in an activity." xlink:type="simple"><rect fill="#FEFEEE" filter="url(#f1lrkffx9c3une)" height="44.7734" id="Role" style="stroke: #A80036; stroke-width: 1.5;" width="175" x="88.75" y="40.5"/><rect fill="#FEFEEE" height="23.9688" style="stroke: #A80036; stroke-width: 1.5;" width="175" x="88.75" y="40.5"/><text fill="#000000" font-family="sans-serif" font-size="12" lengthAdjust="spacingAndGlyphs" textLength="27" x="162.75" y="56.6387">Role</text><line style="stroke: #A80036; stroke-width: 1.5;" x1="89.75" x2="262.75" y1="64.4688" y2="64.4688"/><ellipse cx="99.75" cy="76.3711" fill="#84BE84" rx="3" ry="3" style="stroke: #038048; stroke-width: 1.0;"/><text fill="#000000" font-family="sans-serif" font-size="11" lengthAdjust="spacingAndGlyphs" textLength="53" x="108.75" y="78.6792">PartyRole</text><text fill="#000000" font-family="sans-serif" font-size="11" font-style="italic" lengthAdjust="spacingAndGlyphs" textLength="92" x="165.75" y="78.6792">(PartyRoleCode)</text></a><!--class InsurancePartyRole--><a target="_top" xlink:actuate="onRequest" xlink:href="../InsurancePartyRole.html" xlink:show="new" xlink:title="Role played by a party in the context of insurance." xlink:type="simple"><rect fill="#FEFEEE" filter="url(#f1lrkffx9c3une)" height="23.9688" id="InsurancePartyRole" style="stroke: #A80036; stroke-width: 1.5;" width="127" x="112.75" y="166"/><rect fill="#FEFEEE" height="23.9688" style="stroke: #A80036; stroke-width: 1.5;" width="127" x="112.75" y="166"/><text fill="#000000" font-family="sans-serif" font-size="12" lengthAdjust="spacingAndGlyphs" textLength="121" x="115.75" y="182.1387">InsurancePartyRole</text></a><!--class Assured--><a target="_top" xlink:actuate="onRequest" xlink:href="../Assured.html" xlink:show="new" xlink:title="Party that is covered under the assurance policy." xlink:type="simple"><rect fill="#FEFECE" filter="url(#f1lrkffx9c3une)" height="44.7734" id="Assured" style="stroke: #A80036; stroke-width: 1.5;" width="215" x="48.75" y="268.5"/><rect fill="#FEFECE" height="23.9688" style="stroke: #A80036; stroke-width: 1.5;" width="215" x="48.75" y="268.5"/><text fill="#000000" font-family="sans-serif" font-size="12" lengthAdjust="spacingAndGlyphs" textLength="51" x="130.75" y="284.6387">Assured</text><line style="stroke: #A80036; stroke-width: 1.5;" x1="49.75" x2="262.75" y1="292.4688" y2="292.4688"/><ellipse cx="59.75" cy="304.3711" fill="#84BE84" rx="3" ry="3" style="stroke: #038048; stroke-width: 1.0;"/><text fill="#000000" font-family="sans-serif" font-size="11" lengthAdjust="spacingAndGlyphs" textLength="74" x="68.75" y="306.6792">AssuredType</text><text fill="#000000" font-family="sans-serif" font-size="11" font-style="italic" lengthAdjust="spacingAndGlyphs" textLength="111" x="146.75" y="306.6792">(AssuredTypeCode)</text></a><!--class RolePlayer--><a target="_top" xlink:actuate="onRequest" xlink:href="../RolePlayer.html" xlink:show="new" xlink:title="Type of entity that plays a specific role in a specific context." xlink:type="simple"><rect fill="#EEEEEE" filter="url(#f1lrkffx9c3une)" height="23.9688" id="RolePlayer" style="stroke: #A80036; stroke-width: 1.5;" width="71" x="665.75" y="464"/><rect fill="#EEEEEE" height="23.9688" style="stroke: #A80036; stroke-width: 1.5;" width="71" x="665.75" y="464"/><text fill="#000000" font-family="sans-serif" font-size="12" lengthAdjust="spacingAndGlyphs" textLength="65" x="668.75" y="480.1387">RolePlayer</text></a><!--class ContactPersonRole--><a target="_top" xlink:actuate="onRequest" xlink:href="../ContactPersonRole.html" xlink:show="new" xlink:title="Person to be contacted in a given organisation. In the corporate action domain (including meeting notifications), it is the contact person at the party organising the meeting, at the issuer or at an intermediary." xlink:type="simple"><rect fill="#EEEEEE" filter="url(#f1lrkffx9c3une)" height="23.9688" id="ContactPersonRole" style="stroke: #A80036; stroke-width: 1.5;" width="126" x="658" y="378"/><rect fill="#EEEEEE" height="23.9688" style="stroke: #A80036; stroke-width: 1.5;" width="126" x="658" y="378"/><text fill="#000000" font-family="sans-serif" font-size="12" lengthAdjust="spacingAndGlyphs" textLength="120" x="661" y="394.1387">ContactPersonRole</text></a><!--class CounterpartyRisk--><a target="_top" xlink:actuate="onRequest" xlink:href="../CounterpartyRisk.html" xlink:show="new" xlink:title="Calculation of the exposure amount that one party has vis-a-vis one counterparty or a central system, based on its credit risk." xlink:type="simple"><rect fill="#EEEEEE" filter="url(#f1lrkffx9c3une)" height="23.9688" id="CounterpartyRisk" style="stroke: #A80036; stroke-width: 1.5;" width="113" x="670.75" y="279"/><rect fill="#EEEEEE" height="23.9688" style="stroke: #A80036; stroke-width: 1.5;" width="113" x="670.75" y="279"/><text fill="#000000" font-family="sans-serif" font-size="12" lengthAdjust="spacingAndGlyphs" textLength="107" x="673.75" y="295.1387">CounterpartyRisk</text></a><!--class Entry--><a target="_top" xlink:actuate="onRequest" xlink:href="../Entry.html" xlink:show="new" xlink:title="Posting to an account that results in an increase or decrease to a balance." xlink:type="simple"><rect fill="#EEEEEE" filter="url(#f1lrkffx9c3une)" height="23.9688" id="Entry" style="stroke: #A80036; stroke-width: 1.5;" width="38" x="658" y="166"/><rect fill="#EEEEEE" height="23.9688" style="stroke: #A80036; stroke-width: 1.5;" width="38" x="658" y="166"/><text fill="#000000" font-family="sans-serif" font-size="12" lengthAdjust="spacingAndGlyphs" textLength="32" x="661" y="182.1387">Entry</text></a><!--class InsuranceCertificate--><a target="_top" xlink:actuate="onRequest" xlink:href="../InsuranceCertificate.html" xlink:show="new" xlink:title="Formal document used to record a fact and used as proof of the fact that goods have been insured under an insurance policy." xlink:type="simple"><rect fill="#EEEEEE" filter="url(#f1lrkffx9c3une)" height="23.9688" id="InsuranceCertificate" style="stroke: #A80036; stroke-width: 1.5;" width="132" x="320" y="279"/><rect fill="#EEEEEE" height="23.9688" style="stroke: #A80036; stroke-width: 1.5;" width="132" x="320" y="279"/><text fill="#000000" font-family="sans-serif" font-size="12" lengthAdjust="spacingAndGlyphs" textLength="126" x="323" y="295.1387">InsuranceCertificate</text></a><!--entity ##18780--><!--link Role to InsurancePartyRole--><path d="M176,105.559 C176,127.159 176,151.898 176,165.865 " fill="none" id="Role-InsurancePartyRole" style="stroke: #A80036; stroke-width: 1.0;"/><polygon fill="none" points="169,105.52,176,85.52,183,105.52,169,105.52" style="stroke: #A80036; stroke-width: 1.0;"/><!--link InsurancePartyRole to Assured--><path d="M170.415,209.999 C167.066,228.586 162.89,251.761 159.896,268.376 " fill="none" id="InsurancePartyRole-Assured" style="stroke: #A80036; stroke-width: 1.0;"/><polygon fill="none" points="163.574,208.491,174.009,190.049,177.352,210.973,163.574,208.491" style="stroke: #A80036; stroke-width: 1.0;"/><!--link ContactPersonRole to RolePlayer--><!--link CounterpartyRisk to ContactPersonRole--><!--link Entry to CounterpartyRisk--><!--link Role to RolePlayer--><path d="M263.31,74.961 C365.81,90.326 522,122.655 522,177 C522,177 522,177 522,391 C522,451.8572 607.842,468.7099 660.634,473.3199 " fill="none" id="Role-RolePlayer" style="stroke: #A80036; stroke-width: 1.0;"/><polygon fill="#A80036" points="665.635,473.7288,656.9919,469.0068,660.6517,473.3202,656.3382,476.98,665.635,473.7288" style="stroke: #A80036; stroke-width: 1.0;"/><text fill="#000000" font-family="sans-serif" font-size="13" lengthAdjust="spacingAndGlyphs" textLength="39" x="523" y="295.0669">Player</text><text fill="#000000" font-family="sans-serif" font-size="13" lengthAdjust="spacingAndGlyphs" textLength="7" x="650.7402" y="467.9585">*</text><!--link Role to ContactPersonRole--><path d="M263.6,66.355 C359.358,70.612 504.932,82.549 548,116 C594.28,151.945 572.728,185.13 598,238 C619.875,283.764 619.742,299.702 653,338 C665.802,352.743 683.536,365.869 697.683,375.113 " fill="none" id="Role-ContactPersonRole" style="stroke: #A80036; stroke-width: 1.0;"/><polygon fill="#A80036" points="701.949,377.854,696.5403,369.6232,697.7427,375.1508,692.2152,376.3532,701.949,377.854" style="stroke: #A80036; stroke-width: 1.0;"/><text fill="#000000" font-family="sans-serif" font-size="13" lengthAdjust="spacingAndGlyphs" textLength="121" x="599" y="233.0669">ContactPersonRole</text><text fill="#000000" font-family="sans-serif" font-size="13" lengthAdjust="spacingAndGlyphs" textLength="8" x="684.6815" y="366.852">1</text><!--link Role to CounterpartyRisk--><path d="M263.363,64.267 C391.651,66.067 623.528,75.098 695,116 C745.295,144.783 748.598,180.552 741,238 C739.392,250.155 735.758,263.502 732.595,273.631 " fill="none" id="Role-CounterpartyRisk" style="stroke: #A80036; stroke-width: 1.0;"/><polygon fill="#A80036" points="730.997,278.611,737.5552,271.2632,732.5245,273.85,729.9376,268.8193,730.997,278.611" style="stroke: #A80036; stroke-width: 1.0;"/><text fill="#000000" font-family="sans-serif" font-size="13" lengthAdjust="spacingAndGlyphs" textLength="109" x="744" y="182.0669">CounterpartyRisk</text><text fill="#000000" font-family="sans-serif" font-size="13" lengthAdjust="spacingAndGlyphs" textLength="24" x="703.0476" y="268.0457">0..1</text><!--link Role to Entry--><path d="M263.733,65.889 C377.976,69.723 570.255,81.282 631,116 C649.002,126.289 662.172,146.759 669.697,161.139 " fill="none" id="Role-Entry" style="stroke: #A80036; stroke-width: 1.0;"/><polygon fill="#A80036" points="672.032,165.759,671.5446,155.9222,669.7777,161.296,664.4038,159.5291,672.032,165.759" style="stroke: #A80036; stroke-width: 1.0;"/><text fill="#000000" font-family="sans-serif" font-size="13" lengthAdjust="spacingAndGlyphs" textLength="33" x="652" y="129.0669">Entry</text><text fill="#000000" font-family="sans-serif" font-size="13" lengthAdjust="spacingAndGlyphs" textLength="8" x="659.7301" y="154.9826">1</text><!--link InsurancePartyRole to InsuranceCertificate--><path d="M196.903,190.049 C235.662,210.536 318.541,254.343 360.515,276.53 " fill="none" id="InsurancePartyRole-InsuranceCertificate" style="stroke: #A80036; stroke-width: 1.0;"/><polygon fill="#A80036" points="365.181,278.996,359.0945,271.2529,360.7609,276.6588,355.355,278.3251,365.181,278.996" style="stroke: #A80036; stroke-width: 1.0;"/><text fill="#000000" font-family="sans-serif" font-size="13" lengthAdjust="spacingAndGlyphs" textLength="127" x="289" y="233.0669">InsuranceCertificate</text><text fill="#000000" font-family="sans-serif" font-size="13" lengthAdjust="spacingAndGlyphs" textLength="7" x="348.4776" y="268.0428">*</text></g></svg>