<?xml version="1.0" encoding="UTF-8" standalone="no"?><svg xmlns="http://www.w3.org/2000/svg" xmlns:xlink="http://www.w3.org/1999/xlink" contentScriptType="application/ecmascript" contentStyleType="text/css" height="482px" preserveAspectRatio="none" style="width:994px;height:482px;" version="1.1" viewBox="0 0 994 482" width="994px" zoomAndPan="magnify"><defs><filter height="300%" id="f1mw1vc88p04nl" width="300%" x="-1" y="-1"><feGaussianBlur result="blurOut" stdDeviation="2.0"/><feColorMatrix in="blurOut" result="blurOut2" type="matrix" values="0 0 0 0 0 0 0 0 0 0 0 0 0 0 0 0 0 0 .4 0"/><feOffset dx="4.0" dy="4.0" in="blurOut2" result="blurOut3"/><feBlend in="SourceGraphic" in2="blurOut3" mode="normal"/></filter></defs><g><!--cluster ##23899--><!--cluster ##23908--><!--cluster ##23917--><!--class Role--><a target="_top" xlink:actuate="onRequest" xlink:href="../Role.html" xlink:show="new" xlink:title="Role of a party in an activity." xlink:type="simple"><rect fill="#FEFEEE" filter="url(#f1mw1vc88p04nl)" height="44.7734" id="Role" style="stroke: #A80036; stroke-width: 1.5;" width="175" x="51.75" y="40.5"/><rect fill="#FEFEEE" height="23.9688" style="stroke: #A80036; stroke-width: 1.5;" width="175" x="51.75" y="40.5"/><text fill="#000000" font-family="sans-serif" font-size="12" lengthAdjust="spacingAndGlyphs" textLength="27" x="125.75" y="56.6387">Role</text><line style="stroke: #A80036; stroke-width: 1.5;" x1="52.75" x2="225.75" y1="64.4688" y2="64.4688"/><ellipse cx="62.75" cy="76.3711" fill="#84BE84" rx="3" ry="3" style="stroke: #038048; stroke-width: 1.0;"/><text fill="#000000" font-family="sans-serif" font-size="11" lengthAdjust="spacingAndGlyphs" textLength="53" x="71.75" y="78.6792">PartyRole</text><text fill="#000000" font-family="sans-serif" font-size="11" font-style="italic" lengthAdjust="spacingAndGlyphs" textLength="92" x="128.75" y="78.6792">(PartyRoleCode)</text></a><!--class AccountPartyRole--><a target="_top" xlink:actuate="onRequest" xlink:href="../AccountPartyRole.html" xlink:show="new" xlink:title="Role played by a party in the context of account operations." xlink:type="simple"><rect fill="#FEFEEE" filter="url(#f1mw1vc88p04nl)" height="23.9688" id="AccountPartyRole" style="stroke: #A80036; stroke-width: 1.5;" width="116" x="81.5" y="166"/><rect fill="#FEFEEE" height="23.9688" style="stroke: #A80036; stroke-width: 1.5;" width="116" x="81.5" y="166"/><text fill="#000000" font-family="sans-serif" font-size="12" lengthAdjust="spacingAndGlyphs" textLength="110" x="84.5" y="182.1387">AccountPartyRole</text></a><!--class AuthorisedAccountModifier--><a target="_top" xlink:actuate="onRequest" xlink:href="../AuthorisedAccountModifier.html" xlink:show="new" xlink:title="Authorised sender of a message related to the life cycle of an account." xlink:type="simple"><rect fill="#FEFECE" filter="url(#f1mw1vc88p04nl)" height="23.9688" id="AuthorisedAccountModifier" style="stroke: #A80036; stroke-width: 1.5;" width="174" x="52" y="272"/><rect fill="#FEFECE" height="23.9688" style="stroke: #A80036; stroke-width: 1.5;" width="174" x="52" y="272"/><text fill="#000000" font-family="sans-serif" font-size="12" lengthAdjust="spacingAndGlyphs" textLength="168" x="55" y="288.1387">AuthorisedAccountModifier</text></a><!--class RolePlayer--><a target="_top" xlink:actuate="onRequest" xlink:href="../RolePlayer.html" xlink:show="new" xlink:title="Type of entity that plays a specific role in a specific context." xlink:type="simple"><rect fill="#EEEEEE" filter="url(#f1mw1vc88p04nl)" height="23.9688" id="RolePlayer" style="stroke: #A80036; stroke-width: 1.5;" width="71" x="569.75" y="448"/><rect fill="#EEEEEE" height="23.9688" style="stroke: #A80036; stroke-width: 1.5;" width="71" x="569.75" y="448"/><text fill="#000000" font-family="sans-serif" font-size="12" lengthAdjust="spacingAndGlyphs" textLength="65" x="572.75" y="464.1387">RolePlayer</text></a><!--class ContactPersonRole--><a target="_top" xlink:actuate="onRequest" xlink:href="../ContactPersonRole.html" xlink:show="new" xlink:title="Person to be contacted in a given organisation. In the corporate action domain (including meeting notifications) , it is the contact person at the party organising the meeting, at the issuer or at an intermediary." xlink:type="simple"><rect fill="#EEEEEE" filter="url(#f1mw1vc88p04nl)" height="23.9688" id="ContactPersonRole" style="stroke: #A80036; stroke-width: 1.5;" width="126" x="522" y="362"/><rect fill="#EEEEEE" height="23.9688" style="stroke: #A80036; stroke-width: 1.5;" width="126" x="522" y="362"/><text fill="#000000" font-family="sans-serif" font-size="12" lengthAdjust="spacingAndGlyphs" textLength="120" x="525" y="378.1387">ContactPersonRole</text></a><!--class CounterpartyRisk--><a target="_top" xlink:actuate="onRequest" xlink:href="../CounterpartyRisk.html" xlink:show="new" xlink:title="Calculation of the exposure amount that one party has vis-a-vis one counterparty or a central system, based on its credit risk." xlink:type="simple"><rect fill="#EEEEEE" filter="url(#f1mw1vc88p04nl)" height="23.9688" id="CounterpartyRisk" style="stroke: #A80036; stroke-width: 1.5;" width="113" x="528.75" y="272"/><rect fill="#EEEEEE" height="23.9688" style="stroke: #A80036; stroke-width: 1.5;" width="113" x="528.75" y="272"/><text fill="#000000" font-family="sans-serif" font-size="12" lengthAdjust="spacingAndGlyphs" textLength="107" x="531.75" y="288.1387">CounterpartyRisk</text></a><!--class Entry--><a target="_top" xlink:actuate="onRequest" xlink:href="../Entry.html" xlink:show="new" xlink:title="Posting to an account that results in an increase or decrease to a balance." xlink:type="simple"><rect fill="#EEEEEE" filter="url(#f1mw1vc88p04nl)" height="23.9688" id="Entry" style="stroke: #A80036; stroke-width: 1.5;" width="38" x="522" y="166"/><rect fill="#EEEEEE" height="23.9688" style="stroke: #A80036; stroke-width: 1.5;" width="38" x="522" y="166"/><text fill="#000000" font-family="sans-serif" font-size="12" lengthAdjust="spacingAndGlyphs" textLength="32" x="525" y="182.1387">Entry</text></a><!--class Account--><a target="_top" xlink:actuate="onRequest" xlink:href="../Account.html" xlink:show="new" xlink:title="Record of transactions in specific types of assets, maintained by a servicing party on behalf of one or more owning parties. Business relationship between an account servicer and one or more account owners." xlink:type="simple"><rect fill="#EEEEEE" filter="url(#f1mw1vc88p04nl)" height="23.9688" id="Account" style="stroke: #A80036; stroke-width: 1.5;" width="57" x="283.75" y="272"/><rect fill="#EEEEEE" height="23.9688" style="stroke: #A80036; stroke-width: 1.5;" width="57" x="283.75" y="272"/><text fill="#000000" font-family="sans-serif" font-size="12" lengthAdjust="spacingAndGlyphs" textLength="51" x="286.75" y="288.1387">Account</text></a><!--entity ##23920--><!--link Role to AccountPartyRole--><path d="M139,105.559 C139,127.159 139,151.898 139,165.865 " fill="none" id="Role-AccountPartyRole" style="stroke: #A80036; stroke-width: 1.0;"/><polygon fill="none" points="132,105.52,139,85.52,146,105.52,132,105.52" style="stroke: #A80036; stroke-width: 1.0;"/><!--link AccountPartyRole to AuthorisedAccountModifier--><path d="M139,210.217 C139,231.114 139,257.371 139,271.95 " fill="none" id="AccountPartyRole-AuthorisedAccountModifier" style="stroke: #A80036; stroke-width: 1.0;"/><polygon fill="none" points="132,210.13,139,190.13,146,210.13,132,210.13" style="stroke: #A80036; stroke-width: 1.0;"/><!--link ContactPersonRole to RolePlayer--><!--link CounterpartyRisk to ContactPersonRole--><!--link Entry to CounterpartyRisk--><!--link Role to RolePlayer--><path d="M226.464,67.271 C434.584,76.218 942,105.376 942,177 C942,177 942,177 942,375 C942,435.4496 735.27,452.737 645.642,457.3913 " fill="none" id="Role-RolePlayer" style="stroke: #A80036; stroke-width: 1.0;"/><polygon fill="#A80036" points="640.428,457.6547,649.6188,461.1944,645.4216,457.4018,649.2142,453.2047,640.428,457.6547" style="stroke: #A80036; stroke-width: 1.0;"/><text fill="#000000" font-family="sans-serif" font-size="13" lengthAdjust="spacingAndGlyphs" textLength="39" x="943" y="288.0669">Player</text><text fill="#000000" font-family="sans-serif" font-size="13" lengthAdjust="spacingAndGlyphs" textLength="7" x="648.8888" y="451.3671">*</text><!--link Role to ContactPersonRole--><path d="M226.506,69.37 C380.395,79.736 686.203,104.809 717,142 C757.727,191.183 693.306,279.28 658,322 C645.237,337.444 626.688,350.321 611.483,359.272 " fill="none" id="Role-ContactPersonRole" style="stroke: #A80036; stroke-width: 1.0;"/><polygon fill="#A80036" points="606.881,361.923,616.6763,360.897,611.2137,359.4274,612.6833,353.9648,606.881,361.923" style="stroke: #A80036; stroke-width: 1.0;"/><text fill="#000000" font-family="sans-serif" font-size="13" lengthAdjust="spacingAndGlyphs" textLength="121" x="723" y="233.0669">ContactPersonRole</text><text fill="#000000" font-family="sans-serif" font-size="13" lengthAdjust="spacingAndGlyphs" textLength="8" x="603.6838" y="350.9447">1</text><!--link Role to CounterpartyRisk--><path d="M226.408,67.134 C340.724,73.236 531.798,90.981 577,142 C607.92,176.898 597.318,237.753 589.82,266.745 " fill="none" id="Role-CounterpartyRisk" style="stroke: #A80036; stroke-width: 1.0;"/><polygon fill="#A80036" points="588.466,271.774,594.6661,264.1216,589.7645,266.9456,586.9406,262.044,588.466,271.774" style="stroke: #A80036; stroke-width: 1.0;"/><text fill="#000000" font-family="sans-serif" font-size="13" lengthAdjust="spacingAndGlyphs" textLength="109" x="598" y="182.0669">CounterpartyRisk</text><text fill="#000000" font-family="sans-serif" font-size="13" lengthAdjust="spacingAndGlyphs" textLength="24" x="560.2251" y="261.0026">0..1</text><!--link Role to Entry--><path d="M215.559,85.52 C307.992,111.503 458.31,153.756 516.715,170.174 " fill="none" id="Role-Entry" style="stroke: #A80036; stroke-width: 1.0;"/><polygon fill="#A80036" points="521.748,171.588,514.1662,165.3018,516.9345,170.235,512.0014,173.0033,521.748,171.588" style="stroke: #A80036; stroke-width: 1.0;"/><text fill="#000000" font-family="sans-serif" font-size="13" lengthAdjust="spacingAndGlyphs" textLength="33" x="389" y="129.0669">Entry</text><text fill="#000000" font-family="sans-serif" font-size="13" lengthAdjust="spacingAndGlyphs" textLength="8" x="505.9271" y="163.484">1</text><!--link AccountPartyRole to Account--><path d="M157.514,190.13 C189.381,209.287 254.504,248.436 289.143,269.26 " fill="none" id="AccountPartyRole-Account" style="stroke: #A80036; stroke-width: 1.0;"/><polygon fill="#A80036" points="293.619,271.95,287.9655,263.8854,289.3334,269.3744,283.8445,270.7423,293.619,271.95" style="stroke: #A80036; stroke-width: 1.0;"/><text fill="#000000" font-family="sans-serif" font-size="13" lengthAdjust="spacingAndGlyphs" textLength="52" x="237" y="233.0669">Account</text><text fill="#000000" font-family="sans-serif" font-size="13" lengthAdjust="spacingAndGlyphs" textLength="7" x="277.6677" y="260.981">*</text><!--link Entry to Account--><path d="M521.869,187.688 C481.754,205.907 388.622,248.202 341.07,269.798 " fill="none" id="Entry-Account" style="stroke: #A80036; stroke-width: 1.0;"/><polygon fill="#A80036" points="336.336,271.948,346.1845,271.8694,340.8887,269.8809,342.8772,264.5851,336.336,271.948" style="stroke: #A80036; stroke-width: 1.0;"/><text fill="#000000" font-family="sans-serif" font-size="13" lengthAdjust="spacingAndGlyphs" textLength="52" x="449" y="233.0669">Account</text><text fill="#000000" font-family="sans-serif" font-size="13" lengthAdjust="spacingAndGlyphs" textLength="7" x="335.0687" y="260.9783">*</text><!--link Account to Account--><path d="M340.508,275.984 C358.181,274.051 375,276.723 375,284 C375,290.538 361.424,293.359 345.85,292.463 " fill="none" id="Account-Account" style="stroke: #A80036; stroke-width: 1.0;"/><polygon fill="#A80036" points="340.508,292.016,349.1443,296.7504,345.4907,292.4317,349.8094,288.7781,340.508,292.016" style="stroke: #A80036; stroke-width: 1.0;"/><text fill="#000000" font-family="sans-serif" font-size="13" lengthAdjust="spacingAndGlyphs" textLength="94" x="381" y="288.0669">ParentAccount</text><text fill="#000000" font-family="sans-serif" font-size="13" lengthAdjust="spacingAndGlyphs" textLength="8" x="348.7741" y="287.9799">1</text></g></svg>