<?xml version="1.0" encoding="UTF-8" standalone="no"?><svg xmlns="http://www.w3.org/2000/svg" xmlns:xlink="http://www.w3.org/1999/xlink" contentScriptType="application/ecmascript" contentStyleType="text/css" height="530px" preserveAspectRatio="none" style="width:1341px;height:530px;" version="1.1" viewBox="0 0 1341 530" width="1341px" zoomAndPan="magnify"><defs><filter height="300%" id="f1l5mslrmzkqnc" width="300%" x="-1" y="-1"><feGaussianBlur result="blurOut" stdDeviation="2.0"/><feColorMatrix in="blurOut" result="blurOut2" type="matrix" values="0 0 0 0 0 0 0 0 0 0 0 0 0 0 0 0 0 0 .4 0"/><feOffset dx="4.0" dy="4.0" in="blurOut2" result="blurOut3"/><feBlend in="SourceGraphic" in2="blurOut3" mode="normal"/></filter></defs><g><!--cluster ##23930--><!--cluster ##23942--><!--cluster ##23951--><!--cluster ##23956--><!--class Role--><a target="_top" xlink:actuate="onRequest" xlink:href="../Role.html" xlink:show="new" xlink:title="Role of a party in an activity." xlink:type="simple"><rect fill="#FEFEEE" filter="url(#f1l5mslrmzkqnc)" height="44.7734" id="Role" style="stroke: #A80036; stroke-width: 1.5;" width="175" x="152.75" y="40.5"/><rect fill="#FEFEEE" height="23.9688" style="stroke: #A80036; stroke-width: 1.5;" width="175" x="152.75" y="40.5"/><text fill="#000000" font-family="sans-serif" font-size="12" lengthAdjust="spacingAndGlyphs" textLength="27" x="226.75" y="56.6387">Role</text><line style="stroke: #A80036; stroke-width: 1.5;" x1="153.75" x2="326.75" y1="64.4688" y2="64.4688"/><ellipse cx="163.75" cy="76.3711" fill="#84BE84" rx="3" ry="3" style="stroke: #038048; stroke-width: 1.0;"/><text fill="#000000" font-family="sans-serif" font-size="11" lengthAdjust="spacingAndGlyphs" textLength="53" x="172.75" y="78.6792">PartyRole</text><text fill="#000000" font-family="sans-serif" font-size="11" font-style="italic" lengthAdjust="spacingAndGlyphs" textLength="92" x="229.75" y="78.6792">(PartyRoleCode)</text></a><!--class TradePartyRole--><a target="_top" xlink:actuate="onRequest" xlink:href="../TradePartyRole.html" xlink:show="new" xlink:title="Trading party in a commercial, securities, treasury trade. This role may also represent parties which play different intermediary roles in a trade." xlink:type="simple"><rect fill="#FEFEEE" filter="url(#f1l5mslrmzkqnc)" height="57.5781" id="TradePartyRole" style="stroke: #A80036; stroke-width: 1.5;" width="279" x="48.75" y="164"/><rect fill="#FEFEEE" height="23.9688" style="stroke: #A80036; stroke-width: 1.5;" width="279" x="48.75" y="164"/><text fill="#000000" font-family="sans-serif" font-size="12" lengthAdjust="spacingAndGlyphs" textLength="95" x="140.75" y="180.1387">TradePartyRole</text><line style="stroke: #A80036; stroke-width: 1.5;" x1="49.75" x2="326.75" y1="187.9688" y2="187.9688"/><ellipse cx="59.75" cy="199.8711" fill="#84BE84" rx="3" ry="3" style="stroke: #038048; stroke-width: 1.0;"/><text fill="#000000" font-family="sans-serif" font-size="11" lengthAdjust="spacingAndGlyphs" textLength="120" x="68.75" y="202.1792">TradingPartyCapacity</text><text fill="#000000" font-family="sans-serif" font-size="11" font-style="italic" lengthAdjust="spacingAndGlyphs" textLength="129" x="192.75" y="202.1792">(TradingCapacityCode)</text><ellipse cx="59.75" cy="212.6758" fill="#84BE84" rx="3" ry="3" style="stroke: #038048; stroke-width: 1.0;"/><text fill="#000000" font-family="sans-serif" font-size="11" lengthAdjust="spacingAndGlyphs" textLength="80" x="68.75" y="214.9839">BuyerOrSeller</text><text fill="#000000" font-family="sans-serif" font-size="11" font-style="italic" lengthAdjust="spacingAndGlyphs" textLength="104" x="152.75" y="214.9839">(OptionPartyCode)</text></a><!--class CommercialTradePartyRole--><a target="_top" xlink:actuate="onRequest" xlink:href="../CommercialTradePartyRole.html" xlink:show="new" xlink:title="Role played by a party in the context of a trade." xlink:type="simple"><rect fill="#FEFEEE" filter="url(#f1l5mslrmzkqnc)" height="23.9688" id="CommercialTradePartyRole" style="stroke: #A80036; stroke-width: 1.5;" width="173" x="140.75" y="302"/><rect fill="#FEFEEE" height="23.9688" style="stroke: #A80036; stroke-width: 1.5;" width="173" x="140.75" y="302"/><text fill="#000000" font-family="sans-serif" font-size="12" lengthAdjust="spacingAndGlyphs" textLength="167" x="143.75" y="318.1387">CommercialTradePartyRole</text></a><!--class BillTo--><a target="_top" xlink:actuate="onRequest" xlink:href="../BillTo.html" xlink:show="new" xlink:title="Party to be invoiced for the purchase." xlink:type="simple"><rect fill="#FEFECE" filter="url(#f1l5mslrmzkqnc)" height="23.9688" id="BillTo" style="stroke: #A80036; stroke-width: 1.5;" width="38" x="208" y="406"/><rect fill="#FEFECE" height="23.9688" style="stroke: #A80036; stroke-width: 1.5;" width="38" x="208" y="406"/><text fill="#000000" font-family="sans-serif" font-size="12" lengthAdjust="spacingAndGlyphs" textLength="32" x="211" y="422.1387">BillTo</text></a><!--class RolePlayer--><a target="_top" xlink:actuate="onRequest" xlink:href="../RolePlayer.html" xlink:show="new" xlink:title="Type of entity that plays a specific role in a specific context." xlink:type="simple"><rect fill="#EEEEEE" filter="url(#f1l5mslrmzkqnc)" height="23.9688" id="RolePlayer" style="stroke: #A80036; stroke-width: 1.5;" width="71" x="916.75" y="496"/><rect fill="#EEEEEE" height="23.9688" style="stroke: #A80036; stroke-width: 1.5;" width="71" x="916.75" y="496"/><text fill="#000000" font-family="sans-serif" font-size="12" lengthAdjust="spacingAndGlyphs" textLength="65" x="919.75" y="512.1387">RolePlayer</text></a><!--class ContactPersonRole--><a target="_top" xlink:actuate="onRequest" xlink:href="../ContactPersonRole.html" xlink:show="new" xlink:title="Person to be contacted in a given organisation. In the corporate action domain (including meeting notifications) , it is the contact person at the party organising the meeting, at the issuer or at an intermediary." xlink:type="simple"><rect fill="#EEEEEE" filter="url(#f1l5mslrmzkqnc)" height="23.9688" id="ContactPersonRole" style="stroke: #A80036; stroke-width: 1.5;" width="126" x="869" y="406"/><rect fill="#EEEEEE" height="23.9688" style="stroke: #A80036; stroke-width: 1.5;" width="126" x="869" y="406"/><text fill="#000000" font-family="sans-serif" font-size="12" lengthAdjust="spacingAndGlyphs" textLength="120" x="872" y="422.1387">ContactPersonRole</text></a><!--class CounterpartyRisk--><a target="_top" xlink:actuate="onRequest" xlink:href="../CounterpartyRisk.html" xlink:show="new" xlink:title="Calculation of the exposure amount that one party has vis-a-vis one counterparty or a central system, based on its credit risk." xlink:type="simple"><rect fill="#EEEEEE" filter="url(#f1l5mslrmzkqnc)" height="23.9688" id="CounterpartyRisk" style="stroke: #A80036; stroke-width: 1.5;" width="113" x="881.75" y="302"/><rect fill="#EEEEEE" height="23.9688" style="stroke: #A80036; stroke-width: 1.5;" width="113" x="881.75" y="302"/><text fill="#000000" font-family="sans-serif" font-size="12" lengthAdjust="spacingAndGlyphs" textLength="107" x="884.75" y="318.1387">CounterpartyRisk</text></a><!--class Entry--><a target="_top" xlink:actuate="onRequest" xlink:href="../Entry.html" xlink:show="new" xlink:title="Posting to an account that results in an increase or decrease to a balance." xlink:type="simple"><rect fill="#EEEEEE" filter="url(#f1l5mslrmzkqnc)" height="23.9688" id="Entry" style="stroke: #A80036; stroke-width: 1.5;" width="38" x="869" y="181"/><rect fill="#EEEEEE" height="23.9688" style="stroke: #A80036; stroke-width: 1.5;" width="38" x="869" y="181"/><text fill="#000000" font-family="sans-serif" font-size="12" lengthAdjust="spacingAndGlyphs" textLength="32" x="872" y="197.1387">Entry</text></a><!--class Account--><a target="_top" xlink:actuate="onRequest" xlink:href="../Account.html" xlink:show="new" xlink:title="Record of transactions in specific types of assets, maintained by a servicing party on behalf of one or more owning parties. Business relationship between an account servicer and one or more account owners." xlink:type="simple"><rect fill="#EEEEEE" filter="url(#f1l5mslrmzkqnc)" height="23.9688" id="Account" style="stroke: #A80036; stroke-width: 1.5;" width="57" x="554.75" y="406"/><rect fill="#EEEEEE" height="23.9688" style="stroke: #A80036; stroke-width: 1.5;" width="57" x="554.75" y="406"/><text fill="#000000" font-family="sans-serif" font-size="12" lengthAdjust="spacingAndGlyphs" textLength="51" x="557.75" y="422.1387">Account</text></a><!--class Trade--><a target="_top" xlink:actuate="onRequest" xlink:href="../Trade.html" xlink:show="new" xlink:title="Result of an order between at least two parties. A trade relates to the delivery of goods and services, cash or securities." xlink:type="simple"><rect fill="#EEEEEE" filter="url(#f1l5mslrmzkqnc)" height="23.9688" id="Trade" style="stroke: #A80036; stroke-width: 1.5;" width="42" x="554.5" y="302"/><rect fill="#EEEEEE" height="23.9688" style="stroke: #A80036; stroke-width: 1.5;" width="42" x="554.5" y="302"/><text fill="#000000" font-family="sans-serif" font-size="12" lengthAdjust="spacingAndGlyphs" textLength="36" x="557.5" y="318.1387">Trade</text></a><!--class CommercialTrade--><a target="_top" xlink:actuate="onRequest" xlink:href="../CommercialTrade.html" xlink:show="new" xlink:title="Commercial details of a trade transaction between a buyer and a seller." xlink:type="simple"><rect fill="#EEEEEE" filter="url(#f1l5mslrmzkqnc)" height="23.9688" id="CommercialTrade" style="stroke: #A80036; stroke-width: 1.5;" width="114" x="384" y="406"/><rect fill="#EEEEEE" height="23.9688" style="stroke: #A80036; stroke-width: 1.5;" width="114" x="384" y="406"/><text fill="#000000" font-family="sans-serif" font-size="12" lengthAdjust="spacingAndGlyphs" textLength="108" x="387" y="422.1387">CommercialTrade</text></a><!--entity ##23959--><!--link Role to TradePartyRole--><path d="M223.621,104.318 C215.751,123.689 206.513,146.43 199.417,163.897 " fill="none" id="Role-TradePartyRole" style="stroke: #A80036; stroke-width: 1.0;"/><polygon fill="none" points="217.166,101.608,231.179,85.713,230.137,106.877,217.166,101.608" style="stroke: #A80036; stroke-width: 1.0;"/><!--link TradePartyRole to CommercialTradePartyRole--><path d="M203.557,241.47 C210.797,263.56 218.793,287.959 223.326,301.79 " fill="none" id="TradePartyRole-CommercialTradePartyRole" style="stroke: #A80036; stroke-width: 1.0;"/><polygon fill="none" points="196.819,243.387,197.242,222.201,210.123,239.027,196.819,243.387" style="stroke: #A80036; stroke-width: 1.0;"/><!--link CommercialTradePartyRole to BillTo--><path d="M227,346.595 C227,366.825 227,391.843 227,405.954 " fill="none" id="CommercialTradePartyRole-BillTo" style="stroke: #A80036; stroke-width: 1.0;"/><polygon fill="none" points="220,346.306,227,326.306,234,346.305,220,346.306" style="stroke: #A80036; stroke-width: 1.0;"/><!--link ContactPersonRole to RolePlayer--><!--link CounterpartyRisk to ContactPersonRole--><!--link Entry to CounterpartyRisk--><!--link Trade to Account--><!--link Role to RolePlayer--><path d="M327.633,65.543 C579.749,71.136 1289,95.45 1289,192 C1289,192 1289,192 1289,419 C1289,479.6217 1082.27,499.2654 992.642,504.9332 " fill="none" id="Role-RolePlayer" style="stroke: #A80036; stroke-width: 1.0;"/><polygon fill="#A80036" points="987.428,505.2555,996.6577,508.6924,992.4185,504.9469,996.164,500.7077,987.428,505.2555" style="stroke: #A80036; stroke-width: 1.0;"/><text fill="#000000" font-family="sans-serif" font-size="13" lengthAdjust="spacingAndGlyphs" textLength="39" x="1290" y="318.0669">Player</text><text fill="#000000" font-family="sans-serif" font-size="13" lengthAdjust="spacingAndGlyphs" textLength="7" x="995.8888" y="498.8806">*</text><!--link Role to ContactPersonRole--><path d="M327.343,67.101 C530.697,75.247 1022.12,100.626 1069,157 C1137.38,239.23 1001.938,361.107 950.604,402.58 " fill="none" id="Role-ContactPersonRole" style="stroke: #A80036; stroke-width: 1.0;"/><polygon fill="#A80036" points="946.48,405.885,956.0053,403.3811,950.3827,402.7594,951.0044,397.1368,946.48,405.885" style="stroke: #A80036; stroke-width: 1.0;"/><text fill="#000000" font-family="sans-serif" font-size="13" lengthAdjust="spacingAndGlyphs" textLength="121" x="1079" y="265.0669">ContactPersonRole</text><text fill="#000000" font-family="sans-serif" font-size="13" lengthAdjust="spacingAndGlyphs" textLength="8" x="940.7388" y="394.8937">1</text><!--link Role to CounterpartyRisk--><path d="M327.425,69.853 C502.609,82.436 883.41,114.408 924,157 C960.354,195.147 949.691,264.933 942.362,296.598 " fill="none" id="Role-CounterpartyRisk" style="stroke: #A80036; stroke-width: 1.0;"/><polygon fill="#A80036" points="941.133,301.698,947.13,293.8855,942.3043,296.8371,939.3526,292.0114,941.133,301.698" style="stroke: #A80036; stroke-width: 1.0;"/><text fill="#000000" font-family="sans-serif" font-size="13" lengthAdjust="spacingAndGlyphs" textLength="109" x="950" y="197.0669">CounterpartyRisk</text><text fill="#000000" font-family="sans-serif" font-size="13" lengthAdjust="spacingAndGlyphs" textLength="24" x="912.7817" y="290.9014">0..1</text><!--link Role to Entry--><path d="M327.392,81.263 C477.612,110.936 777.036,170.081 863.875,187.235 " fill="none" id="Role-Entry" style="stroke: #A80036; stroke-width: 1.0;"/><polygon fill="#A80036" points="868.808,188.209,860.7532,182.5415,863.9027,187.2405,859.2037,190.39,868.808,188.209" style="stroke: #A80036; stroke-width: 1.0;"/><text fill="#000000" font-family="sans-serif" font-size="13" lengthAdjust="spacingAndGlyphs" textLength="33" x="585" y="129.0669">Entry</text><text fill="#000000" font-family="sans-serif" font-size="13" lengthAdjust="spacingAndGlyphs" textLength="8" x="853.004" y="180.5609">1</text><!--link TradePartyRole to Account--><path d="M327.509,202.909 C436.85,213.144 576.279,234.508 612,278 C641.729,314.196 611.351,373.235 593.714,401.268 " fill="none" id="TradePartyRole-Account" style="stroke: #A80036; stroke-width: 1.0;"/><polygon fill="#A80036" points="590.795,405.811,599.0245,400.4003,593.4972,401.6041,592.2934,396.0768,590.795,405.811" style="stroke: #A80036; stroke-width: 1.0;"/><text fill="#000000" font-family="sans-serif" font-size="13" lengthAdjust="spacingAndGlyphs" textLength="52" x="626" y="318.0669">Account</text><text fill="#000000" font-family="sans-serif" font-size="13" lengthAdjust="spacingAndGlyphs" textLength="7" x="583.8037" y="395.0518">*</text><!--link TradePartyRole to Trade--><path d="M279.224,222.051 C367.332,249.143 495.142,288.444 549.256,305.084 " fill="none" id="TradePartyRole-Trade" style="stroke: #A80036; stroke-width: 1.0;"/><polygon fill="#A80036" points="554.259,306.622,546.8329,300.1526,549.48,305.1519,544.4807,307.799,554.259,306.622" style="stroke: #A80036; stroke-width: 1.0;"/><text fill="#000000" font-family="sans-serif" font-size="13" lengthAdjust="spacingAndGlyphs" textLength="36" x="429" y="265.0669">Trade</text><text fill="#000000" font-family="sans-serif" font-size="13" lengthAdjust="spacingAndGlyphs" textLength="7" x="539.3411" y="298.4437">*</text><!--link CommercialTradePartyRole to CommercialTrade--><path d="M250.309,326.11 C289.946,345.002 370.32,383.311 412.962,403.636 " fill="none" id="CommercialTradePartyRole-CommercialTrade" style="stroke: #A80036; stroke-width: 1.0;"/><polygon fill="#A80036" points="417.72,405.904,411.3173,398.4203,413.2066,403.7523,407.8746,405.6417,417.72,405.904" style="stroke: #A80036; stroke-width: 1.0;"/><text fill="#000000" font-family="sans-serif" font-size="13" lengthAdjust="spacingAndGlyphs" textLength="113" x="348" y="369.0669">CommercialTrade</text><text fill="#000000" font-family="sans-serif" font-size="13" lengthAdjust="spacingAndGlyphs" textLength="7" x="400.1706" y="394.9192">*</text><!--link Entry to Account--><path d="M876.798,205.32 C841.697,240.62 733.706,347.893 692,374 C668.435,388.752 638.966,400.008 616.613,407.296 " fill="none" id="Entry-Account" style="stroke: #A80036; stroke-width: 1.0;"/><polygon fill="#A80036" points="611.669,408.882,621.4603,409.9449,616.4305,407.3563,619.0191,402.3264,611.669,408.882" style="stroke: #A80036; stroke-width: 1.0;"/><text fill="#000000" font-family="sans-serif" font-size="13" lengthAdjust="spacingAndGlyphs" textLength="52" x="802" y="318.0669">Account</text><text fill="#000000" font-family="sans-serif" font-size="13" lengthAdjust="spacingAndGlyphs" textLength="7" x="619.8482" y="400.4553">*</text><!--link Account to Account--><path d="M611.508,409.984 C629.181,408.051 646,410.723 646,418 C646,424.538 632.424,427.359 616.85,426.463 " fill="none" id="Account-Account" style="stroke: #A80036; stroke-width: 1.0;"/><polygon fill="#A80036" points="611.508,426.016,620.1443,430.7504,616.4907,426.4317,620.8094,422.7781,611.508,426.016" style="stroke: #A80036; stroke-width: 1.0;"/><text fill="#000000" font-family="sans-serif" font-size="13" lengthAdjust="spacingAndGlyphs" textLength="94" x="652" y="422.0669">ParentAccount</text><text fill="#000000" font-family="sans-serif" font-size="13" lengthAdjust="spacingAndGlyphs" textLength="8" x="619.7741" y="421.9799">1</text></g></svg>