<?xml version="1.0" encoding="UTF-8" standalone="no"?><svg xmlns="http://www.w3.org/2000/svg" xmlns:xlink="http://www.w3.org/1999/xlink" contentScriptType="application/ecmascript" contentStyleType="text/css" height="550px" preserveAspectRatio="none" style="width:1655px;height:550px;" version="1.1" viewBox="0 0 1655 550" width="1655px" zoomAndPan="magnify"><defs><filter height="300%" id="f1wssgoda0ac3p" width="300%" x="-1" y="-1"><feGaussianBlur result="blurOut" stdDeviation="2.0"/><feColorMatrix in="blurOut" result="blurOut2" type="matrix" values="0 0 0 0 0 0 0 0 0 0 0 0 0 0 0 0 0 0 .4 0"/><feOffset dx="4.0" dy="4.0" in="blurOut2" result="blurOut3"/><feBlend in="SourceGraphic" in2="blurOut3" mode="normal"/></filter></defs><g><!--cluster ##11768--><!--cluster ##11792--><!--cluster ##11801--><!--cluster ##11806--><!--class Role--><a target="_top" xlink:actuate="onRequest" xlink:href="../Role.html" xlink:show="new" xlink:title="Role of a party in an activity." xlink:type="simple"><rect fill="#FEFEEE" filter="url(#f1wssgoda0ac3p)" height="44.7734" id="Role" style="stroke: #A80036; stroke-width: 1.5;" width="175" x="500.75" y="40.5"/><rect fill="#FEFEEE" height="23.9688" style="stroke: #A80036; stroke-width: 1.5;" width="175" x="500.75" y="40.5"/><text fill="#000000" font-family="sans-serif" font-size="12" lengthAdjust="spacingAndGlyphs" textLength="27" x="574.75" y="56.6387">Role</text><line style="stroke: #A80036; stroke-width: 1.5;" x1="501.75" x2="674.75" y1="64.4688" y2="64.4688"/><ellipse cx="511.75" cy="76.3711" fill="#84BE84" rx="3" ry="3" style="stroke: #038048; stroke-width: 1.0;"/><text fill="#000000" font-family="sans-serif" font-size="11" lengthAdjust="spacingAndGlyphs" textLength="53" x="520.75" y="78.6792">PartyRole</text><text fill="#000000" font-family="sans-serif" font-size="11" font-style="italic" lengthAdjust="spacingAndGlyphs" textLength="92" x="577.75" y="78.6792">(PartyRoleCode)</text></a><!--class TradePartyRole--><a target="_top" xlink:actuate="onRequest" xlink:href="../TradePartyRole.html" xlink:show="new" xlink:title="Trading party in a commercial, securities, treasury trade. This role may also represent parties which play different intermediary roles in a trade." xlink:type="simple"><rect fill="#FEFEEE" filter="url(#f1wssgoda0ac3p)" height="57.5781" id="TradePartyRole" style="stroke: #A80036; stroke-width: 1.5;" width="279" x="396.75" y="164"/><rect fill="#FEFEEE" height="23.9688" style="stroke: #A80036; stroke-width: 1.5;" width="279" x="396.75" y="164"/><text fill="#000000" font-family="sans-serif" font-size="12" lengthAdjust="spacingAndGlyphs" textLength="95" x="488.75" y="180.1387">TradePartyRole</text><line style="stroke: #A80036; stroke-width: 1.5;" x1="397.75" x2="674.75" y1="187.9688" y2="187.9688"/><ellipse cx="407.75" cy="199.8711" fill="#84BE84" rx="3" ry="3" style="stroke: #038048; stroke-width: 1.0;"/><text fill="#000000" font-family="sans-serif" font-size="11" lengthAdjust="spacingAndGlyphs" textLength="120" x="416.75" y="202.1792">TradingPartyCapacity</text><text fill="#000000" font-family="sans-serif" font-size="11" font-style="italic" lengthAdjust="spacingAndGlyphs" textLength="129" x="540.75" y="202.1792">(TradingCapacityCode)</text><ellipse cx="407.75" cy="212.6758" fill="#84BE84" rx="3" ry="3" style="stroke: #038048; stroke-width: 1.0;"/><text fill="#000000" font-family="sans-serif" font-size="11" lengthAdjust="spacingAndGlyphs" textLength="80" x="416.75" y="214.9839">BuyerOrSeller</text><text fill="#000000" font-family="sans-serif" font-size="11" font-style="italic" lengthAdjust="spacingAndGlyphs" textLength="104" x="500.75" y="214.9839">(OptionPartyCode)</text></a><!--class Broker--><a target="_top" xlink:actuate="onRequest" xlink:href="../Broker.html" xlink:show="new" xlink:title="Party that identifies a broker when required (for example, authorised broker, prime broker, etc)." xlink:type="simple"><rect fill="#FEFECE" filter="url(#f1wssgoda0ac3p)" height="44.7734" id="Broker" style="stroke: #A80036; stroke-width: 1.5;" width="313" x="338.75" y="300.5"/><rect fill="#FEFECE" height="23.9688" style="stroke: #A80036; stroke-width: 1.5;" width="313" x="338.75" y="300.5"/><text fill="#000000" font-family="sans-serif" font-size="12" lengthAdjust="spacingAndGlyphs" textLength="41" x="474.75" y="316.6387">Broker</text><line style="stroke: #A80036; stroke-width: 1.5;" x1="339.75" x2="650.75" y1="324.4688" y2="324.4688"/><ellipse cx="349.75" cy="336.3711" fill="#84BE84" rx="3" ry="3" style="stroke: #038048; stroke-width: 1.0;"/><text fill="#000000" font-family="sans-serif" font-size="11" lengthAdjust="spacingAndGlyphs" textLength="122" x="358.75" y="338.6792">RemunerationAmount</text><text fill="#000000" font-family="sans-serif" font-size="11" font-style="italic" lengthAdjust="spacingAndGlyphs" textLength="161" x="484.75" y="338.6792">(ActiveCurrencyAndAmount)</text></a><!--class StepInBroker--><a target="_top" xlink:actuate="onRequest" xlink:href="../StepInBroker.html" xlink:show="new" xlink:title="Broker to which the investment manager directs the execution of a portion of the trade." xlink:type="simple"><rect fill="#FEFEEE" filter="url(#f1wssgoda0ac3p)" height="23.9688" id="StepInBroker" style="stroke: #A80036; stroke-width: 1.5;" width="87" x="38.75" y="426"/><rect fill="#FEFEEE" height="23.9688" style="stroke: #A80036; stroke-width: 1.5;" width="87" x="38.75" y="426"/><text fill="#000000" font-family="sans-serif" font-size="12" lengthAdjust="spacingAndGlyphs" textLength="81" x="41.75" y="442.1387">StepInBroker</text></a><!--class StepOutBroker--><a target="_top" xlink:actuate="onRequest" xlink:href="../StepOutBroker.html" xlink:show="new" xlink:title="Brokerage firm that executes an order, but gives other firms credit and some of the commission for the trade." xlink:type="simple"><rect fill="#FEFEEE" filter="url(#f1wssgoda0ac3p)" height="23.9688" id="StepOutBroker" style="stroke: #A80036; stroke-width: 1.5;" width="98" x="161.5" y="426"/><rect fill="#FEFEEE" height="23.9688" style="stroke: #A80036; stroke-width: 1.5;" width="98" x="161.5" y="426"/><text fill="#000000" font-family="sans-serif" font-size="12" lengthAdjust="spacingAndGlyphs" textLength="92" x="164.5" y="442.1387">StepOutBroker</text></a><!--class ClearingBroker--><a target="_top" xlink:actuate="onRequest" xlink:href="../ClearingBroker.html" xlink:show="new" xlink:title="Party which acts as a liaison between an investor and a clearing corporation." xlink:type="simple"><rect fill="#FEFEEE" filter="url(#f1wssgoda0ac3p)" height="23.9688" id="ClearingBroker" style="stroke: #A80036; stroke-width: 1.5;" width="98" x="294.5" y="426"/><rect fill="#FEFEEE" height="23.9688" style="stroke: #A80036; stroke-width: 1.5;" width="98" x="294.5" y="426"/><text fill="#000000" font-family="sans-serif" font-size="12" lengthAdjust="spacingAndGlyphs" textLength="92" x="297.5" y="442.1387">ClearingBroker</text></a><!--class ExecutingBrokerRole--><a target="_top" xlink:actuate="onRequest" xlink:href="../ExecutingBrokerRole.html" xlink:show="new" xlink:title="Party responsible for executing an order (e.g. an executing or give-up broker)." xlink:type="simple"><rect fill="#FEFEEE" filter="url(#f1wssgoda0ac3p)" height="23.9688" id="ExecutingBrokerRole" style="stroke: #A80036; stroke-width: 1.5;" width="135" x="427.75" y="426"/><rect fill="#FEFEEE" height="23.9688" style="stroke: #A80036; stroke-width: 1.5;" width="135" x="427.75" y="426"/><text fill="#000000" font-family="sans-serif" font-size="12" lengthAdjust="spacingAndGlyphs" textLength="129" x="430.75" y="442.1387">ExecutingBrokerRole</text></a><!--class LocalBroker--><a target="_top" xlink:actuate="onRequest" xlink:href="../LocalBroker.html" xlink:show="new" xlink:title="Party paid a commission following the execution of a trade, as directed by the investment manager." xlink:type="simple"><rect fill="#FEFEEE" filter="url(#f1wssgoda0ac3p)" height="23.9688" id="LocalBroker" style="stroke: #A80036; stroke-width: 1.5;" width="79" x="597.75" y="426"/><rect fill="#FEFEEE" height="23.9688" style="stroke: #A80036; stroke-width: 1.5;" width="79" x="597.75" y="426"/><text fill="#000000" font-family="sans-serif" font-size="12" lengthAdjust="spacingAndGlyphs" textLength="73" x="600.75" y="442.1387">LocalBroker</text></a><!--class RolePlayer--><a target="_top" xlink:actuate="onRequest" xlink:href="../RolePlayer.html" xlink:show="new" xlink:title="Type of entity that plays a specific role in a specific context." xlink:type="simple"><rect fill="#EEEEEE" filter="url(#f1wssgoda0ac3p)" height="23.9688" id="RolePlayer" style="stroke: #A80036; stroke-width: 1.5;" width="71" x="1230.75" y="516"/><rect fill="#EEEEEE" height="23.9688" style="stroke: #A80036; stroke-width: 1.5;" width="71" x="1230.75" y="516"/><text fill="#000000" font-family="sans-serif" font-size="12" lengthAdjust="spacingAndGlyphs" textLength="65" x="1233.75" y="532.1387">RolePlayer</text></a><!--class ContactPersonRole--><a target="_top" xlink:actuate="onRequest" xlink:href="../ContactPersonRole.html" xlink:show="new" xlink:title="Person to be contacted in a given organisation. In the corporate action domain (including meeting notifications), it is the contact person at the party organising the meeting, at the issuer or at an intermediary." xlink:type="simple"><rect fill="#EEEEEE" filter="url(#f1wssgoda0ac3p)" height="23.9688" id="ContactPersonRole" style="stroke: #A80036; stroke-width: 1.5;" width="126" x="1183" y="426"/><rect fill="#EEEEEE" height="23.9688" style="stroke: #A80036; stroke-width: 1.5;" width="126" x="1183" y="426"/><text fill="#000000" font-family="sans-serif" font-size="12" lengthAdjust="spacingAndGlyphs" textLength="120" x="1186" y="442.1387">ContactPersonRole</text></a><!--class CounterpartyRisk--><a target="_top" xlink:actuate="onRequest" xlink:href="../CounterpartyRisk.html" xlink:show="new" xlink:title="Calculation of the exposure amount that one party has vis-a-vis one counterparty or a central system, based on its credit risk." xlink:type="simple"><rect fill="#EEEEEE" filter="url(#f1wssgoda0ac3p)" height="23.9688" id="CounterpartyRisk" style="stroke: #A80036; stroke-width: 1.5;" width="113" x="1195.75" y="311"/><rect fill="#EEEEEE" height="23.9688" style="stroke: #A80036; stroke-width: 1.5;" width="113" x="1195.75" y="311"/><text fill="#000000" font-family="sans-serif" font-size="12" lengthAdjust="spacingAndGlyphs" textLength="107" x="1198.75" y="327.1387">CounterpartyRisk</text></a><!--class Entry--><a target="_top" xlink:actuate="onRequest" xlink:href="../Entry.html" xlink:show="new" xlink:title="Posting to an account that results in an increase or decrease to a balance." xlink:type="simple"><rect fill="#EEEEEE" filter="url(#f1wssgoda0ac3p)" height="23.9688" id="Entry" style="stroke: #A80036; stroke-width: 1.5;" width="38" x="1183" y="181"/><rect fill="#EEEEEE" height="23.9688" style="stroke: #A80036; stroke-width: 1.5;" width="38" x="1183" y="181"/><text fill="#000000" font-family="sans-serif" font-size="12" lengthAdjust="spacingAndGlyphs" textLength="32" x="1186" y="197.1387">Entry</text></a><!--class Account--><a target="_top" xlink:actuate="onRequest" xlink:href="../Account.html" xlink:show="new" xlink:title="Record of transactions in specific types of assets, maintained by a servicing party on behalf of one or more owning parties. Business relationship between an account servicer and one or more account owners." xlink:type="simple"><rect fill="#EEEEEE" filter="url(#f1wssgoda0ac3p)" height="23.9688" id="Account" style="stroke: #A80036; stroke-width: 1.5;" width="57" x="868.75" y="426"/><rect fill="#EEEEEE" height="23.9688" style="stroke: #A80036; stroke-width: 1.5;" width="57" x="868.75" y="426"/><text fill="#000000" font-family="sans-serif" font-size="12" lengthAdjust="spacingAndGlyphs" textLength="51" x="871.75" y="442.1387">Account</text></a><!--class Trade--><a target="_top" xlink:actuate="onRequest" xlink:href="../Trade.html" xlink:show="new" xlink:title="Result of an order between at least two parties. A trade relates to the delivery of goods and services, cash or securities." xlink:type="simple"><rect fill="#EEEEEE" filter="url(#f1wssgoda0ac3p)" height="23.9688" id="Trade" style="stroke: #A80036; stroke-width: 1.5;" width="42" x="868.5" y="311"/><rect fill="#EEEEEE" height="23.9688" style="stroke: #A80036; stroke-width: 1.5;" width="42" x="868.5" y="311"/><text fill="#000000" font-family="sans-serif" font-size="12" lengthAdjust="spacingAndGlyphs" textLength="36" x="871.5" y="327.1387">Trade</text></a><!--class Commission--><a target="_top" xlink:actuate="onRequest" xlink:href="../Commission.html" xlink:show="new" xlink:title="Amount of money due to a party as compensation for a service." xlink:type="simple"><rect fill="#EEEEEE" filter="url(#f1wssgoda0ac3p)" height="23.9688" id="Commission" style="stroke: #A80036; stroke-width: 1.5;" width="80" x="732" y="426"/><rect fill="#EEEEEE" height="23.9688" style="stroke: #A80036; stroke-width: 1.5;" width="80" x="732" y="426"/><text fill="#000000" font-family="sans-serif" font-size="12" lengthAdjust="spacingAndGlyphs" textLength="74" x="735" y="442.1387">Commission</text></a><!--link Role to TradePartyRole--><path d="M571.621,104.318 C563.751,123.689 554.513,146.43 547.417,163.897 " fill="none" id="Role-TradePartyRole" style="stroke: #A80036; stroke-width: 1.0;"/><polygon fill="none" points="565.166,101.608,579.179,85.713,578.137,106.877,565.166,101.608" style="stroke: #A80036; stroke-width: 1.0;"/><!--link TradePartyRole to Broker--><path d="M520.875,241.219 C514.384,261.485 507.119,284.165 501.943,300.323 " fill="none" id="TradePartyRole-Broker" style="stroke: #A80036; stroke-width: 1.0;"/><polygon fill="none" points="514.235,239.002,527.002,222.09,527.568,243.272,514.235,239.002" style="stroke: #A80036; stroke-width: 1.0;"/><!--link Broker to StepInBroker--><path d="M332.286,349.377 C271.67,361.586 203.044,378.746 143,402 C126.946,408.217 110.072,418.203 98.1506,425.921 " fill="none" id="Broker-StepInBroker" style="stroke: #A80036; stroke-width: 1.0;"/><polygon fill="none" points="331.116,342.474,352.087,345.505,333.802,356.213,331.116,342.474" style="stroke: #A80036; stroke-width: 1.0;"/><!--link Broker to StepOutBroker--><path d="M407.244,351.993 C366.754,365.735 318.376,383.336 276,402 C259.739,409.162 241.98,418.682 228.984,425.985 " fill="none" id="Broker-StepOutBroker" style="stroke: #A80036; stroke-width: 1.0;"/><polygon fill="none" points="405.238,345.282,426.426,345.569,409.684,358.558,405.238,345.282" style="stroke: #A80036; stroke-width: 1.0;"/><!--link Broker to ClearingBroker--><path d="M449.759,357.633 C418.588,380.806 379.114,410.152 357.978,425.865 " fill="none" id="Broker-ClearingBroker" style="stroke: #A80036; stroke-width: 1.0;"/><polygon fill="none" points="445.825,351.835,466.052,345.52,454.178,363.07,445.825,351.835" style="stroke: #A80036; stroke-width: 1.0;"/><!--link Broker to ExecutingBrokerRole--><path d="M495,365.559 C495,387.159 495,411.898 495,425.865 " fill="none" id="Broker-ExecutingBrokerRole" style="stroke: #A80036; stroke-width: 1.0;"/><polygon fill="none" points="488,365.52,495,345.52,502,365.52,488,365.52" style="stroke: #A80036; stroke-width: 1.0;"/><!--link Broker to LocalBroker--><path d="M536.534,358.799 C550.27,370.148 565.698,382.725 580,394 C594.018,405.051 610.301,417.275 621.865,425.856 " fill="none" id="Broker-LocalBroker" style="stroke: #A80036; stroke-width: 1.0;"/><polygon fill="none" points="531.719,363.899,520.808,345.735,540.665,353.13,531.719,363.899" style="stroke: #A80036; stroke-width: 1.0;"/><!--link ContactPersonRole to RolePlayer--><!--link CounterpartyRisk to ContactPersonRole--><!--link Entry to CounterpartyRisk--><!--link Trade to Account--><!--link Role to RolePlayer--><path d="M675.417,65.904 C921.619,72.42 1603,98.865 1603,192 C1603,192 1603,192 1603,439 C1603,499.6217 1396.27,519.2654 1306.64,524.9332 " fill="none" id="Role-RolePlayer" style="stroke: #A80036; stroke-width: 1.0;"/><polygon fill="#A80036" points="1301.43,525.2555,1310.6636,528.6819,1306.4201,524.9412,1310.1608,520.6977,1301.43,525.2555" style="stroke: #A80036; stroke-width: 1.0;"/><text fill="#000000" font-family="sans-serif" font-size="13" lengthAdjust="spacingAndGlyphs" textLength="39" x="1604" y="327.0669">Player</text><text fill="#000000" font-family="sans-serif" font-size="13" lengthAdjust="spacingAndGlyphs" textLength="7" x="1309.8913" y="518.8806">*</text><!--link Role to ContactPersonRole--><path d="M675.331,67.387 C872.932,75.994 1340.59,102.027 1384,157 C1454.89,246.772 1315.08,378.848 1263.81,422.447 " fill="none" id="Role-ContactPersonRole" style="stroke: #A80036; stroke-width: 1.0;"/><polygon fill="#A80036" points="1259.71,425.911,1269.1668,423.1599,1263.53,422.6849,1264.005,417.048,1259.71,425.911" style="stroke: #A80036; stroke-width: 1.0;"/><text fill="#000000" font-family="sans-serif" font-size="13" lengthAdjust="spacingAndGlyphs" textLength="121" x="1397" y="265.0669">ContactPersonRole</text><text fill="#000000" font-family="sans-serif" font-size="13" lengthAdjust="spacingAndGlyphs" textLength="8" x="1253.7041" y="414.9286">1</text><!--link Role to CounterpartyRisk--><path d="M675.5,63.588 C834.876,64.839 1163,77.302 1238,157 C1276.71,198.138 1264.25,273.329 1256.36,306.065 " fill="none" id="Role-CounterpartyRisk" style="stroke: #A80036; stroke-width: 1.0;"/><polygon fill="#A80036" points="1255.14,310.942,1261.1991,303.1775,1256.35,306.0906,1253.4369,301.2415,1255.14,310.942" style="stroke: #A80036; stroke-width: 1.0;"/><text fill="#000000" font-family="sans-serif" font-size="13" lengthAdjust="spacingAndGlyphs" textLength="109" x="1265" y="197.0669">CounterpartyRisk</text><text fill="#000000" font-family="sans-serif" font-size="13" lengthAdjust="spacingAndGlyphs" textLength="24" x="1226.6647" y="299.9703">0..1</text><!--link Role to Entry--><path d="M675.319,82.203 C818.19,111.987 1094.36,169.56 1177.64,186.923 " fill="none" id="Role-Entry" style="stroke: #A80036; stroke-width: 1.0;"/><polygon fill="#A80036" points="1182.85,188.007,1174.849,182.2639,1177.954,186.9924,1173.2255,190.0974,1182.85,188.007" style="stroke: #A80036; stroke-width: 1.0;"/><text fill="#000000" font-family="sans-serif" font-size="13" lengthAdjust="spacingAndGlyphs" textLength="33" x="915" y="129.0669">Entry</text><text fill="#000000" font-family="sans-serif" font-size="13" lengthAdjust="spacingAndGlyphs" textLength="8" x="1167.0578" y="180.3021">1</text><!--link TradePartyRole to Account--><path d="M675.496,208.836 C774.548,222.614 895.206,247.13 926,287 C957.241,327.449 925.022,391.99 907.175,421.438 " fill="none" id="TradePartyRole-Account" style="stroke: #A80036; stroke-width: 1.0;"/><polygon fill="#A80036" points="904.446,425.854,912.5795,420.3001,907.0741,421.6004,905.7738,416.0951,904.446,425.854" style="stroke: #A80036; stroke-width: 1.0;"/><text fill="#000000" font-family="sans-serif" font-size="13" lengthAdjust="spacingAndGlyphs" textLength="52" x="941" y="327.0669">Account</text><text fill="#000000" font-family="sans-serif" font-size="13" lengthAdjust="spacingAndGlyphs" textLength="7" x="897.3728" y="414.852">*</text><!--link TradePartyRole to Trade--><path d="M613.467,222.09 C692.898,250.892 811.892,294.04 863.552,312.772 " fill="none" id="TradePartyRole-Trade" style="stroke: #A80036; stroke-width: 1.0;"/><polygon fill="#A80036" points="868.338,314.508,861.2425,307.6776,863.6379,312.8023,858.5133,315.1977,868.338,314.508" style="stroke: #A80036; stroke-width: 1.0;"/><text fill="#000000" font-family="sans-serif" font-size="13" lengthAdjust="spacingAndGlyphs" textLength="36" x="746" y="265.0669">Trade</text><text fill="#000000" font-family="sans-serif" font-size="13" lengthAdjust="spacingAndGlyphs" textLength="7" x="853.4413" y="306.0303">*</text><!--link Broker to Commission--><path d="M549.58,345.555 C605.425,367.619 685.007,399.087 692,402 C708.722,408.966 727.263,417.054 742.282,423.7 " fill="none" id="Broker-Commission" style="stroke: #A80036; stroke-width: 1.0;"/><polygon fill="#A80036" points="747.233,425.894,740.6271,418.5891,742.6622,423.8672,737.3841,425.9023,747.233,425.894" style="stroke: #A80036; stroke-width: 1.0;"/><text fill="#000000" font-family="sans-serif" font-size="13" lengthAdjust="spacingAndGlyphs" textLength="79" x="673" y="389.0669">Commission</text><text fill="#000000" font-family="sans-serif" font-size="13" lengthAdjust="spacingAndGlyphs" textLength="7" x="729.1725" y="414.9058">*</text><!--link Entry to Account--><path d="M1192.11,205.259 C1158.7,243.114 1049.65,365.046 1006,394 C982.674,409.471 952.934,420.733 930.414,427.842 " fill="none" id="Entry-Account" style="stroke: #A80036; stroke-width: 1.0;"/><polygon fill="#A80036" points="925.434,429.383,935.2144,430.5423,930.2103,427.9042,932.8484,422.9002,925.434,429.383" style="stroke: #A80036; stroke-width: 1.0;"/><text fill="#000000" font-family="sans-serif" font-size="13" lengthAdjust="spacingAndGlyphs" textLength="52" x="1119" y="327.0669">Account</text><text fill="#000000" font-family="sans-serif" font-size="13" lengthAdjust="spacingAndGlyphs" textLength="7" x="933.553" y="421.0847">*</text><!--link Account to Account--><path d="M925.508,429.984 C943.181,428.051 960,430.723 960,438 C960,444.538 946.424,447.359 930.85,446.463 " fill="none" id="Account-Account" style="stroke: #A80036; stroke-width: 1.0;"/><polygon fill="#A80036" points="925.508,446.016,934.1443,450.7504,930.4907,446.4317,934.8094,442.7781,925.508,446.016" style="stroke: #A80036; stroke-width: 1.0;"/><text fill="#000000" font-family="sans-serif" font-size="13" lengthAdjust="spacingAndGlyphs" textLength="94" x="966" y="442.0669">ParentAccount</text><text fill="#000000" font-family="sans-serif" font-size="13" lengthAdjust="spacingAndGlyphs" textLength="8" x="933.7741" y="441.9799">1</text><!--link Trade to Commission--><path d="M868.217,326.018 C839.751,330.024 789.595,341.808 767,376 C758.312,389.148 761.369,407.536 765.478,420.679 " fill="none" id="Trade-Commission" style="stroke: #A80036; stroke-width: 1.0;"/><polygon fill="#A80036" points="767.145,425.611,768.0521,415.804,765.5437,420.8743,760.4734,418.366,767.145,425.611" style="stroke: #A80036; stroke-width: 1.0;"/><text fill="#000000" font-family="sans-serif" font-size="13" lengthAdjust="spacingAndGlyphs" textLength="115" x="768" y="389.0669">TradeCommission</text><text fill="#000000" font-family="sans-serif" font-size="13" lengthAdjust="spacingAndGlyphs" textLength="7" x="756.1631" y="415.0457">*</text></g></svg>