<?xml version="1.0" encoding="UTF-8" standalone="no"?><svg xmlns="http://www.w3.org/2000/svg" xmlns:xlink="http://www.w3.org/1999/xlink" contentScriptType="application/ecmascript" contentStyleType="text/css" height="498px" preserveAspectRatio="none" style="width:1702px;height:498px;" version="1.1" viewBox="0 0 1702 498" width="1702px" zoomAndPan="magnify"><defs><filter height="300%" id="f10zcl0vn8tquc" width="300%" x="-1" y="-1"><feGaussianBlur result="blurOut" stdDeviation="2.0"/><feColorMatrix in="blurOut" result="blurOut2" type="matrix" values="0 0 0 0 0 0 0 0 0 0 0 0 0 0 0 0 0 0 .4 0"/><feOffset dx="4.0" dy="4.0" in="blurOut2" result="blurOut3"/><feBlend in="SourceGraphic" in2="blurOut3" mode="normal"/></filter></defs><g><!--cluster ##10441--><!--cluster ##10474--><!--cluster ##10483--><!--class Role--><a target="_top" xlink:actuate="onRequest" xlink:href="../Role.html" xlink:show="new" xlink:title="Role of a party in an activity." xlink:type="simple"><rect fill="#FEFEEE" filter="url(#f10zcl0vn8tquc)" height="44.7734" id="Role" style="stroke: #A80036; stroke-width: 1.5;" width="175" x="977.75" y="40.5"/><rect fill="#FEFEEE" height="23.9688" style="stroke: #A80036; stroke-width: 1.5;" width="175" x="977.75" y="40.5"/><text fill="#000000" font-family="sans-serif" font-size="12" lengthAdjust="spacingAndGlyphs" textLength="27" x="1051.75" y="56.6387">Role</text><line style="stroke: #A80036; stroke-width: 1.5;" x1="978.75" x2="1151.75" y1="64.4688" y2="64.4688"/><ellipse cx="988.75" cy="76.3711" fill="#84BE84" rx="3" ry="3" style="stroke: #038048; stroke-width: 1.0;"/><text fill="#000000" font-family="sans-serif" font-size="11" lengthAdjust="spacingAndGlyphs" textLength="53" x="997.75" y="78.6792">PartyRole</text><text fill="#000000" font-family="sans-serif" font-size="11" font-style="italic" lengthAdjust="spacingAndGlyphs" textLength="92" x="1054.75" y="78.6792">(PartyRoleCode)</text></a><!--class CardPaymentPartyRole--><a target="_top" xlink:actuate="onRequest" xlink:href="../CardPaymentPartyRole.html" xlink:show="new" xlink:title="Role played by a party in the context of a payment by card." xlink:type="simple"><rect fill="#FEFECE" filter="url(#f10zcl0vn8tquc)" height="44.7734" id="CardPaymentPartyRole" style="stroke: #A80036; stroke-width: 1.5;" width="181" x="616.75" y="164.5"/><rect fill="#FEFECE" height="23.9688" style="stroke: #A80036; stroke-width: 1.5;" width="181" x="616.75" y="164.5"/><text fill="#000000" font-family="sans-serif" font-size="12" lengthAdjust="spacingAndGlyphs" textLength="142" x="636.25" y="180.6387">CardPaymentPartyRole</text><line style="stroke: #A80036; stroke-width: 1.5;" x1="617.75" x2="796.75" y1="188.4688" y2="188.4688"/><ellipse cx="627.75" cy="200.3711" fill="#84BE84" rx="3" ry="3" style="stroke: #038048; stroke-width: 1.0;"/><text fill="#000000" font-family="sans-serif" font-size="11" lengthAdjust="spacingAndGlyphs" textLength="56" x="636.75" y="202.6792">PartyType</text><text fill="#000000" font-family="sans-serif" font-size="11" font-style="italic" lengthAdjust="spacingAndGlyphs" textLength="95" x="696.75" y="202.6792">(PartyTypeCode)</text></a><!--class CardholderRole--><a target="_top" xlink:actuate="onRequest" xlink:href="../CardholderRole.html" xlink:show="new" xlink:title="Party entitled by a card issuer to use a card." xlink:type="simple"><rect fill="#FEFEEE" filter="url(#f10zcl0vn8tquc)" height="23.9688" id="CardholderRole" style="stroke: #A80036; stroke-width: 1.5;" width="102" x="38.5" y="290"/><rect fill="#FEFEEE" height="23.9688" style="stroke: #A80036; stroke-width: 1.5;" width="102" x="38.5" y="290"/><text fill="#000000" font-family="sans-serif" font-size="12" lengthAdjust="spacingAndGlyphs" textLength="96" x="41.5" y="306.1387">CardholderRole</text></a><!--class MerchantRole--><a target="_top" xlink:actuate="onRequest" xlink:href="../MerchantRole.html" xlink:show="new" xlink:title="Party performing the card payment transaction." xlink:type="simple"><rect fill="#FEFEEE" filter="url(#f10zcl0vn8tquc)" height="23.9688" id="MerchantRole" style="stroke: #A80036; stroke-width: 1.5;" width="92" x="175" y="290"/><rect fill="#FEFEEE" height="23.9688" style="stroke: #A80036; stroke-width: 1.5;" width="92" x="175" y="290"/><text fill="#000000" font-family="sans-serif" font-size="12" lengthAdjust="spacingAndGlyphs" textLength="86" x="178" y="306.1387">MerchantRole</text></a><!--class AcquirerRole--><a target="_top" xlink:actuate="onRequest" xlink:href="../AcquirerRole.html" xlink:show="new" xlink:title="Entity acquiring card payment transactions." xlink:type="simple"><rect fill="#FEFEEE" filter="url(#f10zcl0vn8tquc)" height="23.9688" id="AcquirerRole" style="stroke: #A80036; stroke-width: 1.5;" width="85" x="302.75" y="290"/><rect fill="#FEFEEE" height="23.9688" style="stroke: #A80036; stroke-width: 1.5;" width="85" x="302.75" y="290"/><text fill="#000000" font-family="sans-serif" font-size="12" lengthAdjust="spacingAndGlyphs" textLength="79" x="305.75" y="306.1387">AcquirerRole</text></a><!--class AuthorisationEntity--><a target="_top" xlink:actuate="onRequest" xlink:href="../AuthorisationEntity.html" xlink:show="new" xlink:title="Party which has delivered or declined the authorisation." xlink:type="simple"><rect fill="#FEFEEE" filter="url(#f10zcl0vn8tquc)" height="23.9688" id="AuthorisationEntity" style="stroke: #A80036; stroke-width: 1.5;" width="125" x="422.75" y="290"/><rect fill="#FEFEEE" height="23.9688" style="stroke: #A80036; stroke-width: 1.5;" width="125" x="422.75" y="290"/><text fill="#000000" font-family="sans-serif" font-size="12" lengthAdjust="spacingAndGlyphs" textLength="119" x="425.75" y="306.1387">AuthorisationEntity</text></a><!--class Cashier--><a target="_top" xlink:actuate="onRequest" xlink:href="../Cashier.html" xlink:show="new" xlink:title="Cashier who carried out the payment card transaction." xlink:type="simple"><rect fill="#FEFEEE" filter="url(#f10zcl0vn8tquc)" height="23.9688" id="Cashier" style="stroke: #A80036; stroke-width: 1.5;" width="53" x="582.75" y="290"/><rect fill="#FEFEEE" height="23.9688" style="stroke: #A80036; stroke-width: 1.5;" width="53" x="582.75" y="290"/><text fill="#000000" font-family="sans-serif" font-size="12" lengthAdjust="spacingAndGlyphs" textLength="47" x="585.75" y="306.1387">Cashier</text></a><!--class CardIssuer--><a target="_top" xlink:actuate="onRequest" xlink:href="../CardIssuer.html" xlink:show="new" xlink:title="Party that issues a payment card, as expressed by a numeric identification of the card issuer according to ISO/IEC 7812-1." xlink:type="simple"><rect fill="#FEFEEE" filter="url(#f10zcl0vn8tquc)" height="23.9688" id="CardIssuer" style="stroke: #A80036; stroke-width: 1.5;" width="73" x="670.75" y="290"/><rect fill="#FEFEEE" height="23.9688" style="stroke: #A80036; stroke-width: 1.5;" width="73" x="670.75" y="290"/><text fill="#000000" font-family="sans-serif" font-size="12" lengthAdjust="spacingAndGlyphs" textLength="67" x="673.75" y="306.1387">CardIssuer</text></a><!--class DataSetInitiator--><a target="_top" xlink:actuate="onRequest" xlink:href="../DataSetInitiator.html" xlink:show="new" xlink:title="Initiator of a data set." xlink:type="simple"><rect fill="#FEFEEE" filter="url(#f10zcl0vn8tquc)" height="23.9688" id="DataSetInitiator" style="stroke: #A80036; stroke-width: 1.5;" width="105" x="778.75" y="290"/><rect fill="#FEFEEE" height="23.9688" style="stroke: #A80036; stroke-width: 1.5;" width="105" x="778.75" y="290"/><text fill="#000000" font-family="sans-serif" font-size="12" lengthAdjust="spacingAndGlyphs" textLength="99" x="781.75" y="306.1387">DataSetInitiator</text></a><!--class POIManufacturer--><a target="_top" xlink:actuate="onRequest" xlink:href="../POIManufacturer.html" xlink:show="new" xlink:title="Manufacturer or the software, hardware or system of the POI component." xlink:type="simple"><rect fill="#FEFEEE" filter="url(#f10zcl0vn8tquc)" height="23.9688" id="POIManufacturer" style="stroke: #A80036; stroke-width: 1.5;" width="110" x="919" y="290"/><rect fill="#FEFEEE" height="23.9688" style="stroke: #A80036; stroke-width: 1.5;" width="110" x="919" y="290"/><text fill="#000000" font-family="sans-serif" font-size="12" lengthAdjust="spacingAndGlyphs" textLength="104" x="922" y="306.1387">POIManufacturer</text></a><!--class AcceptorRole--><a target="_top" xlink:actuate="onRequest" xlink:href="../AcceptorRole.html" xlink:show="new" xlink:title="Entity accepting payment related cards." xlink:type="simple"><rect fill="#FEFEEE" filter="url(#f10zcl0vn8tquc)" height="23.9688" id="AcceptorRole" style="stroke: #A80036; stroke-width: 1.5;" width="89" x="1064.75" y="290"/><rect fill="#FEFEEE" height="23.9688" style="stroke: #A80036; stroke-width: 1.5;" width="89" x="1064.75" y="290"/><text fill="#000000" font-family="sans-serif" font-size="12" lengthAdjust="spacingAndGlyphs" textLength="83" x="1067.75" y="306.1387">AcceptorRole</text></a><!--class RolePlayer--><a target="_top" xlink:actuate="onRequest" xlink:href="../RolePlayer.html" xlink:show="new" xlink:title="Type of entity that plays a specific role in a specific context." xlink:type="simple"><rect fill="#EEEEEE" filter="url(#f10zcl0vn8tquc)" height="23.9688" id="RolePlayer" style="stroke: #A80036; stroke-width: 1.5;" width="71" x="1511.75" y="464"/><rect fill="#EEEEEE" height="23.9688" style="stroke: #A80036; stroke-width: 1.5;" width="71" x="1511.75" y="464"/><text fill="#000000" font-family="sans-serif" font-size="12" lengthAdjust="spacingAndGlyphs" textLength="65" x="1514.75" y="480.1387">RolePlayer</text></a><!--class ContactPersonRole--><a target="_top" xlink:actuate="onRequest" xlink:href="../ContactPersonRole.html" xlink:show="new" xlink:title="Person to be contacted in a given organisation. In the corporate action domain (including meeting notifications) , it is the contact person at the party organising the meeting, at the issuer or at an intermediary." xlink:type="simple"><rect fill="#EEEEEE" filter="url(#f10zcl0vn8tquc)" height="23.9688" id="ContactPersonRole" style="stroke: #A80036; stroke-width: 1.5;" width="126" x="1504" y="378"/><rect fill="#EEEEEE" height="23.9688" style="stroke: #A80036; stroke-width: 1.5;" width="126" x="1504" y="378"/><text fill="#000000" font-family="sans-serif" font-size="12" lengthAdjust="spacingAndGlyphs" textLength="120" x="1507" y="394.1387">ContactPersonRole</text></a><!--class CounterpartyRisk--><a target="_top" xlink:actuate="onRequest" xlink:href="../CounterpartyRisk.html" xlink:show="new" xlink:title="Calculation of the exposure amount that one party has vis-a-vis one counterparty or a central system, based on its credit risk." xlink:type="simple"><rect fill="#EEEEEE" filter="url(#f10zcl0vn8tquc)" height="23.9688" id="CounterpartyRisk" style="stroke: #A80036; stroke-width: 1.5;" width="113" x="1516.75" y="290"/><rect fill="#EEEEEE" height="23.9688" style="stroke: #A80036; stroke-width: 1.5;" width="113" x="1516.75" y="290"/><text fill="#000000" font-family="sans-serif" font-size="12" lengthAdjust="spacingAndGlyphs" textLength="107" x="1519.75" y="306.1387">CounterpartyRisk</text></a><!--class Entry--><a target="_top" xlink:actuate="onRequest" xlink:href="../Entry.html" xlink:show="new" xlink:title="Posting to an account that results in an increase or decrease to a balance." xlink:type="simple"><rect fill="#EEEEEE" filter="url(#f10zcl0vn8tquc)" height="23.9688" id="Entry" style="stroke: #A80036; stroke-width: 1.5;" width="38" x="1504" y="175"/><rect fill="#EEEEEE" height="23.9688" style="stroke: #A80036; stroke-width: 1.5;" width="38" x="1504" y="175"/><text fill="#000000" font-family="sans-serif" font-size="12" lengthAdjust="spacingAndGlyphs" textLength="32" x="1507" y="191.1387">Entry</text></a><!--class CardPayment--><a target="_top" xlink:actuate="onRequest" xlink:href="../CardPayment.html" xlink:show="new" xlink:title="Payment through an electronic money product." xlink:type="simple"><rect fill="#EEEEEE" filter="url(#f10zcl0vn8tquc)" height="23.9688" id="CardPayment" style="stroke: #A80036; stroke-width: 1.5;" width="89" x="1208.75" y="290"/><rect fill="#EEEEEE" height="23.9688" style="stroke: #A80036; stroke-width: 1.5;" width="89" x="1208.75" y="290"/><text fill="#000000" font-family="sans-serif" font-size="12" lengthAdjust="spacingAndGlyphs" textLength="83" x="1211.75" y="306.1387">CardPayment</text></a><!--link Role to CardPaymentPartyRole--><path d="M982.584,92.086 C917.923,114.121 829.26,144.336 770.149,164.48 " fill="none" id="Role-CardPaymentPartyRole" style="stroke: #A80036; stroke-width: 1.0;"/><polygon fill="none" points="980.632,85.356,1001.821,85.53,985.148,98.608,980.632,85.356" style="stroke: #A80036; stroke-width: 1.0;"/><!--link CardPaymentPartyRole to CardholderRole--><path d="M596.308,191.994 C483.293,198.756 304.066,216.964 157,266 C139.114,271.964 120.148,282.08 106.804,289.908 " fill="none" id="CardPaymentPartyRole-CardholderRole" style="stroke: #A80036; stroke-width: 1.0;"/><polygon fill="none" points="596.258,184.986,616.617,190.86,597.039,198.964,596.258,184.986" style="stroke: #A80036; stroke-width: 1.0;"/><!--link CardPaymentPartyRole to MerchantRole--><path d="M596.584,198.511 C509.922,209.097 387.247,229.294 285,266 C268.075,272.076 250.234,282.18 237.702,289.974 " fill="none" id="CardPaymentPartyRole-MerchantRole" style="stroke: #A80036; stroke-width: 1.0;"/><polygon fill="none" points="596.023,191.529,616.704,196.147,597.657,205.433,596.023,191.529" style="stroke: #A80036; stroke-width: 1.0;"/><!--link CardPaymentPartyRole to AcquirerRole--><path d="M597.092,208.745 C538.766,221.642 466.615,240.643 405,266 C389.387,272.425 372.907,282.29 361.177,289.911 " fill="none" id="CardPaymentPartyRole-AcquirerRole" style="stroke: #A80036; stroke-width: 1.0;"/><polygon fill="none" points="595.68,201.889,616.706,204.521,598.628,215.575,595.68,201.889" style="stroke: #A80036; stroke-width: 1.0;"/><!--link CardPaymentPartyRole to AuthorisationEntity--><path d="M646.857,218.613 C600.522,242.198 539.103,273.461 506.876,289.865 " fill="none" id="CardPaymentPartyRole-AuthorisationEntity" style="stroke: #A80036; stroke-width: 1.0;"/><polygon fill="none" points="643.722,212.355,664.721,209.52,650.072,224.831,643.722,212.355" style="stroke: #A80036; stroke-width: 1.0;"/><!--link CardPaymentPartyRole to Cashier--><path d="M675.007,224.889 C655.403,247.494 631.653,274.88 618.657,289.865 " fill="none" id="CardPaymentPartyRole-Cashier" style="stroke: #A80036; stroke-width: 1.0;"/><polygon fill="none" points="669.944,220.044,688.336,209.52,680.521,229.216,669.944,220.044" style="stroke: #A80036; stroke-width: 1.0;"/><!--link CardPaymentPartyRole to CardIssuer--><path d="M707,229.559 C707,251.159 707,275.898 707,289.865 " fill="none" id="CardPaymentPartyRole-CardIssuer" style="stroke: #A80036; stroke-width: 1.0;"/><polygon fill="none" points="700,229.52,707,209.52,714,229.52,700,229.52" style="stroke: #A80036; stroke-width: 1.0;"/><!--link CardPaymentPartyRole to DataSetInitiator--><path d="M745.684,223.252 C770.819,246.157 801.938,274.516 818.781,289.865 " fill="none" id="CardPaymentPartyRole-DataSetInitiator" style="stroke: #A80036; stroke-width: 1.0;"/><polygon fill="none" points="740.683,228.166,730.615,209.52,750.113,217.818,740.683,228.166" style="stroke: #A80036; stroke-width: 1.0;"/><!--link CardPaymentPartyRole to POIManufacturer--><path d="M781.286,216.861 C817.33,231.159 861.138,248.974 900,266 C917.443,273.642 936.9,282.874 951.484,289.936 " fill="none" id="CardPaymentPartyRole-POIManufacturer" style="stroke: #A80036; stroke-width: 1.0;"/><polygon fill="none" points="778.711,223.371,762.678,209.517,783.851,210.348,778.711,223.371" style="stroke: #A80036; stroke-width: 1.0;"/><!--link CardPaymentPartyRole to AcceptorRole--><path d="M817.353,205.277 C884.793,217.809 972.012,237.589 1046,266 C1062.47,272.324 1079.91,282.299 1092.25,289.985 " fill="none" id="CardPaymentPartyRole-AcceptorRole" style="stroke: #A80036; stroke-width: 1.0;"/><polygon fill="none" points="815.981,212.143,797.544,201.698,818.47,198.366,815.981,212.143" style="stroke: #A80036; stroke-width: 1.0;"/><!--link ContactPersonRole to RolePlayer--><!--link CounterpartyRisk to ContactPersonRole--><!--link Entry to CounterpartyRisk--><!--link Role to RolePlayer--><path d="M1152.64,81.553 C1242.13,102.058 1368,139.216 1368,186 C1368,186 1368,186 1368,391 C1368,451.8572 1453.84,468.7099 1506.63,473.3199 " fill="none" id="Role-RolePlayer" style="stroke: #A80036; stroke-width: 1.0;"/><polygon fill="#A80036" points="1511.64,473.7288,1502.9889,469.0215,1506.656,473.3288,1502.3488,476.9959,1511.64,473.7288" style="stroke: #A80036; stroke-width: 1.0;"/><text fill="#000000" font-family="sans-serif" font-size="13" lengthAdjust="spacingAndGlyphs" textLength="39" x="1369" y="306.0669">Player</text><text fill="#000000" font-family="sans-serif" font-size="13" lengthAdjust="spacingAndGlyphs" textLength="7" x="1496.7461" y="467.9585">*</text><!--link Role to ContactPersonRole--><path d="M1152.52,67.86 C1237.33,73.321 1358.23,86.207 1394,116 C1445.41,158.822 1413.67,198.359 1444,258 C1463.56,296.461 1469.13,306.868 1499,338 C1512.7,352.281 1530.71,365.597 1544.76,375.039 " fill="none" id="Role-ContactPersonRole" style="stroke: #A80036; stroke-width: 1.0;"/><polygon fill="#A80036" points="1548.98,377.842,1543.7024,369.5265,1544.8171,375.0725,1539.2712,376.1871,1548.98,377.842" style="stroke: #A80036; stroke-width: 1.0;"/><text fill="#000000" font-family="sans-serif" font-size="13" lengthAdjust="spacingAndGlyphs" textLength="121" x="1445" y="253.0669">ContactPersonRole</text><text fill="#000000" font-family="sans-serif" font-size="13" lengthAdjust="spacingAndGlyphs" textLength="8" x="1532.0669" y="366.8359">1</text><!--link Role to CounterpartyRisk--><path d="M1152.42,64.461 C1271.46,66.611 1476.88,76.196 1539,116 C1570.42,136.131 1585.36,235.531 1586,240 C1588.2,255.382 1583.85,272.686 1579.6,284.924 " fill="none" id="Role-CounterpartyRisk" style="stroke: #A80036; stroke-width: 1.0;"/><polygon fill="#A80036" points="1577.8,289.839,1584.6506,282.7631,1579.5192,285.1438,1577.1384,280.0124,1577.8,289.839" style="stroke: #A80036; stroke-width: 1.0;"/><text fill="#000000" font-family="sans-serif" font-size="13" lengthAdjust="spacingAndGlyphs" textLength="109" x="1581" y="191.0669">CounterpartyRisk</text><text fill="#000000" font-family="sans-serif" font-size="13" lengthAdjust="spacingAndGlyphs" textLength="24" x="1549.8953" y="278.8319">0..1</text><!--link Role to Entry--><path d="M1152.43,66.546 C1256.98,71.035 1424.46,83.245 1477,116 C1497.13,128.55 1510.28,153.528 1517.18,170.001 " fill="none" id="Role-Entry" style="stroke: #A80036; stroke-width: 1.0;"/><polygon fill="#A80036" points="1519.12,174.816,1519.4626,164.9731,1517.2495,170.1791,1512.0435,167.9659,1519.12,174.816" style="stroke: #A80036; stroke-width: 1.0;"/><text fill="#000000" font-family="sans-serif" font-size="13" lengthAdjust="spacingAndGlyphs" textLength="33" x="1496" y="129.0669">Entry</text><text fill="#000000" font-family="sans-serif" font-size="13" lengthAdjust="spacingAndGlyphs" textLength="8" x="1507.1785" y="164.0585">1</text><!--link CardPaymentPartyRole to CardPayment--><path d="M797.352,197.094 C891.481,207.992 1042.59,229.51 1169,266 C1188.4,271.599 1209.36,280.328 1225.49,287.669 " fill="none" id="CardPaymentPartyRole-CardPayment" style="stroke: #A80036; stroke-width: 1.0;"/><polygon fill="#A80036" points="1230.33,289.897,1223.8207,282.5058,1225.7863,287.8102,1220.4819,289.7758,1230.33,289.897" style="stroke: #A80036; stroke-width: 1.0;"/><text fill="#000000" font-family="sans-serif" font-size="13" lengthAdjust="spacingAndGlyphs" textLength="87" x="1134" y="253.0669">CardPayment</text><text fill="#000000" font-family="sans-serif" font-size="13" lengthAdjust="spacingAndGlyphs" textLength="7" x="1212.9044" y="278.9098">*</text></g></svg>