<?xml version="1.0" encoding="UTF-8" standalone="no"?><svg xmlns="http://www.w3.org/2000/svg" xmlns:xlink="http://www.w3.org/1999/xlink" contentScriptType="application/ecmascript" contentStyleType="text/css" height="518px" preserveAspectRatio="none" style="width:820px;height:518px;" version="1.1" viewBox="0 0 820 518" width="820px" zoomAndPan="magnify"><defs><filter height="300%" id="f10yoybhhit2yf" width="300%" x="-1" y="-1"><feGaussianBlur result="blurOut" stdDeviation="2.0"/><feColorMatrix in="blurOut" result="blurOut2" type="matrix" values="0 0 0 0 0 0 0 0 0 0 0 0 0 0 0 0 0 0 .4 0"/><feOffset dx="4.0" dy="4.0" in="blurOut2" result="blurOut3"/><feBlend in="SourceGraphic" in2="blurOut3" mode="normal"/></filter></defs><g><!--cluster ##24902--><!--cluster ##24911--><!--cluster ##24920--><!--class Role--><a target="_top" xlink:actuate="onRequest" xlink:href="../Role.html" xlink:show="new" xlink:title="Role of a party in an activity." xlink:type="simple"><rect fill="#FEFEEE" filter="url(#f10yoybhhit2yf)" height="44.7734" id="Role" style="stroke: #A80036; stroke-width: 1.5;" width="175" x="84.75" y="40.5"/><rect fill="#FEFEEE" height="23.9688" style="stroke: #A80036; stroke-width: 1.5;" width="175" x="84.75" y="40.5"/><text fill="#000000" font-family="sans-serif" font-size="12" lengthAdjust="spacingAndGlyphs" textLength="27" x="158.75" y="56.6387">Role</text><line style="stroke: #A80036; stroke-width: 1.5;" x1="85.75" x2="258.75" y1="64.4688" y2="64.4688"/><ellipse cx="95.75" cy="76.3711" fill="#84BE84" rx="3" ry="3" style="stroke: #038048; stroke-width: 1.0;"/><text fill="#000000" font-family="sans-serif" font-size="11" lengthAdjust="spacingAndGlyphs" textLength="53" x="104.75" y="78.6792">PartyRole</text><text fill="#000000" font-family="sans-serif" font-size="11" font-style="italic" lengthAdjust="spacingAndGlyphs" textLength="92" x="161.75" y="78.6792">(PartyRoleCode)</text></a><!--class CardPaymentPartyRole--><a target="_top" xlink:actuate="onRequest" xlink:href="../CardPaymentPartyRole.html" xlink:show="new" xlink:title="Role played by a party in the context of a payment by card." xlink:type="simple"><rect fill="#FEFEEE" filter="url(#f10yoybhhit2yf)" height="44.7734" id="CardPaymentPartyRole" style="stroke: #A80036; stroke-width: 1.5;" width="181" x="78.75" y="164.5"/><rect fill="#FEFEEE" height="23.9688" style="stroke: #A80036; stroke-width: 1.5;" width="181" x="78.75" y="164.5"/><text fill="#000000" font-family="sans-serif" font-size="12" lengthAdjust="spacingAndGlyphs" textLength="142" x="98.25" y="180.6387">CardPaymentPartyRole</text><line style="stroke: #A80036; stroke-width: 1.5;" x1="79.75" x2="258.75" y1="188.4688" y2="188.4688"/><ellipse cx="89.75" cy="200.3711" fill="#84BE84" rx="3" ry="3" style="stroke: #038048; stroke-width: 1.0;"/><text fill="#000000" font-family="sans-serif" font-size="11" lengthAdjust="spacingAndGlyphs" textLength="56" x="98.75" y="202.6792">PartyType</text><text fill="#000000" font-family="sans-serif" font-size="11" font-style="italic" lengthAdjust="spacingAndGlyphs" textLength="95" x="158.75" y="202.6792">(PartyTypeCode)</text></a><!--class Cashier--><a target="_top" xlink:actuate="onRequest" xlink:href="../Cashier.html" xlink:show="new" xlink:title="Cashier who carried out the payment card transaction." xlink:type="simple"><rect fill="#FEFECE" filter="url(#f10yoybhhit2yf)" height="44.7734" id="Cashier" style="stroke: #A80036; stroke-width: 1.5;" width="211" x="48.75" y="288.5"/><rect fill="#FEFECE" height="23.9688" style="stroke: #A80036; stroke-width: 1.5;" width="211" x="48.75" y="288.5"/><text fill="#000000" font-family="sans-serif" font-size="12" lengthAdjust="spacingAndGlyphs" textLength="47" x="130.75" y="304.6387">Cashier</text><line style="stroke: #A80036; stroke-width: 1.5;" x1="49.75" x2="258.75" y1="312.4688" y2="312.4688"/><ellipse cx="59.75" cy="324.3711" fill="#84BE84" rx="3" ry="3" style="stroke: #038048; stroke-width: 1.0;"/><text fill="#000000" font-family="sans-serif" font-size="11" lengthAdjust="spacingAndGlyphs" textLength="71" x="68.75" y="326.6792">ShiftNumber</text><text fill="#000000" font-family="sans-serif" font-size="11" font-style="italic" lengthAdjust="spacingAndGlyphs" textLength="110" x="143.75" y="326.6792">(Max2NumericText)</text></a><!--class RolePlayer--><a target="_top" xlink:actuate="onRequest" xlink:href="../RolePlayer.html" xlink:show="new" xlink:title="Type of entity that plays a specific role in a specific context." xlink:type="simple"><rect fill="#EEEEEE" filter="url(#f10yoybhhit2yf)" height="23.9688" id="RolePlayer" style="stroke: #A80036; stroke-width: 1.5;" width="71" x="618.75" y="484"/><rect fill="#EEEEEE" height="23.9688" style="stroke: #A80036; stroke-width: 1.5;" width="71" x="618.75" y="484"/><text fill="#000000" font-family="sans-serif" font-size="12" lengthAdjust="spacingAndGlyphs" textLength="65" x="621.75" y="500.1387">RolePlayer</text></a><!--class ContactPersonRole--><a target="_top" xlink:actuate="onRequest" xlink:href="../ContactPersonRole.html" xlink:show="new" xlink:title="Person to be contacted in a given organisation. In the corporate action domain (including meeting notifications) , it is the contact person at the party organising the meeting, at the issuer or at an intermediary." xlink:type="simple"><rect fill="#EEEEEE" filter="url(#f10yoybhhit2yf)" height="23.9688" id="ContactPersonRole" style="stroke: #A80036; stroke-width: 1.5;" width="126" x="611" y="398"/><rect fill="#EEEEEE" height="23.9688" style="stroke: #A80036; stroke-width: 1.5;" width="126" x="611" y="398"/><text fill="#000000" font-family="sans-serif" font-size="12" lengthAdjust="spacingAndGlyphs" textLength="120" x="614" y="414.1387">ContactPersonRole</text></a><!--class CounterpartyRisk--><a target="_top" xlink:actuate="onRequest" xlink:href="../CounterpartyRisk.html" xlink:show="new" xlink:title="Calculation of the exposure amount that one party has vis-a-vis one counterparty or a central system, based on its credit risk." xlink:type="simple"><rect fill="#EEEEEE" filter="url(#f10yoybhhit2yf)" height="23.9688" id="CounterpartyRisk" style="stroke: #A80036; stroke-width: 1.5;" width="113" x="623.75" y="299"/><rect fill="#EEEEEE" height="23.9688" style="stroke: #A80036; stroke-width: 1.5;" width="113" x="623.75" y="299"/><text fill="#000000" font-family="sans-serif" font-size="12" lengthAdjust="spacingAndGlyphs" textLength="107" x="626.75" y="315.1387">CounterpartyRisk</text></a><!--class Entry--><a target="_top" xlink:actuate="onRequest" xlink:href="../Entry.html" xlink:show="new" xlink:title="Posting to an account that results in an increase or decrease to a balance." xlink:type="simple"><rect fill="#EEEEEE" filter="url(#f10yoybhhit2yf)" height="23.9688" id="Entry" style="stroke: #A80036; stroke-width: 1.5;" width="38" x="611" y="175"/><rect fill="#EEEEEE" height="23.9688" style="stroke: #A80036; stroke-width: 1.5;" width="38" x="611" y="175"/><text fill="#000000" font-family="sans-serif" font-size="12" lengthAdjust="spacingAndGlyphs" textLength="32" x="614" y="191.1387">Entry</text></a><!--class CardPayment--><a target="_top" xlink:actuate="onRequest" xlink:href="../CardPayment.html" xlink:show="new" xlink:title="Payment through an electronic money product." xlink:type="simple"><rect fill="#EEEEEE" filter="url(#f10yoybhhit2yf)" height="23.9688" id="CardPayment" style="stroke: #A80036; stroke-width: 1.5;" width="89" x="315.75" y="299"/><rect fill="#EEEEEE" height="23.9688" style="stroke: #A80036; stroke-width: 1.5;" width="89" x="315.75" y="299"/><text fill="#000000" font-family="sans-serif" font-size="12" lengthAdjust="spacingAndGlyphs" textLength="83" x="318.75" y="315.1387">CardPayment</text></a><!--entity ##24923--><!--link Role to CardPaymentPartyRole--><path d="M170.976,105.631 C170.492,125.329 169.934,148.033 169.534,164.275 " fill="none" id="Role-CardPaymentPartyRole" style="stroke: #A80036; stroke-width: 1.0;"/><polygon fill="none" points="163.981,105.352,171.471,85.53,177.977,105.696,163.981,105.352" style="stroke: #A80036; stroke-width: 1.0;"/><!--link CardPaymentPartyRole to Cashier--><path d="M163.881,229.631 C161.46,249.329 158.668,272.033 156.671,288.275 " fill="none" id="CardPaymentPartyRole-Cashier" style="stroke: #A80036; stroke-width: 1.0;"/><polygon fill="none" points="156.964,228.527,166.353,209.53,170.86,230.235,156.964,228.527" style="stroke: #A80036; stroke-width: 1.0;"/><!--link ContactPersonRole to RolePlayer--><!--link CounterpartyRisk to ContactPersonRole--><!--link Entry to CounterpartyRisk--><!--link Role to RolePlayer--><path d="M259.64,81.553 C349.128,102.058 475,139.216 475,186 C475,186 475,186 475,411 C475,471.8572 560.842,488.7099 613.634,493.3199 " fill="none" id="Role-RolePlayer" style="stroke: #A80036; stroke-width: 1.0;"/><polygon fill="#A80036" points="618.635,493.7288,609.9919,489.0068,613.6517,493.3202,609.3382,496.98,618.635,493.7288" style="stroke: #A80036; stroke-width: 1.0;"/><text fill="#000000" font-family="sans-serif" font-size="13" lengthAdjust="spacingAndGlyphs" textLength="39" x="476" y="315.0669">Player</text><text fill="#000000" font-family="sans-serif" font-size="13" lengthAdjust="spacingAndGlyphs" textLength="7" x="603.7402" y="487.9585">*</text><!--link Role to ContactPersonRole--><path d="M259.517,67.86 C344.326,73.321 465.232,86.207 501,116 C552.411,158.822 523.674,196.925 551,258 C571.715,304.3 572.742,319.702 606,358 C618.802,372.743 636.536,385.869 650.683,395.113 " fill="none" id="Role-ContactPersonRole" style="stroke: #A80036; stroke-width: 1.0;"/><polygon fill="#A80036" points="654.949,397.854,649.5403,389.6232,650.7427,395.1508,645.2152,396.3532,654.949,397.854" style="stroke: #A80036; stroke-width: 1.0;"/><text fill="#000000" font-family="sans-serif" font-size="13" lengthAdjust="spacingAndGlyphs" textLength="121" x="552" y="253.0669">ContactPersonRole</text><text fill="#000000" font-family="sans-serif" font-size="13" lengthAdjust="spacingAndGlyphs" textLength="8" x="637.6815" y="386.852">1</text><!--link Role to CounterpartyRisk--><path d="M259.417,64.461 C378.46,66.611 583.875,76.196 646,116 C702.093,151.94 702.735,191.956 694,258 C692.392,270.155 688.758,283.502 685.595,293.631 " fill="none" id="Role-CounterpartyRisk" style="stroke: #A80036; stroke-width: 1.0;"/><polygon fill="#A80036" points="683.997,298.611,690.5552,291.2632,685.5245,293.85,682.9376,288.8193,683.997,298.611" style="stroke: #A80036; stroke-width: 1.0;"/><text fill="#000000" font-family="sans-serif" font-size="13" lengthAdjust="spacingAndGlyphs" textLength="109" x="699" y="191.0669">CounterpartyRisk</text><text fill="#000000" font-family="sans-serif" font-size="13" lengthAdjust="spacingAndGlyphs" textLength="24" x="656.0476" y="288.0457">0..1</text><!--link Role to Entry--><path d="M259.427,66.546 C363.976,71.035 531.462,83.245 584,116 C604.13,128.55 617.283,153.528 624.178,170.001 " fill="none" id="Role-Entry" style="stroke: #A80036; stroke-width: 1.0;"/><polygon fill="#A80036" points="626.118,174.816,626.468,164.9734,624.251,170.1777,619.0466,167.9606,626.118,174.816" style="stroke: #A80036; stroke-width: 1.0;"/><text fill="#000000" font-family="sans-serif" font-size="13" lengthAdjust="spacingAndGlyphs" textLength="33" x="603" y="129.0669">Entry</text><text fill="#000000" font-family="sans-serif" font-size="13" lengthAdjust="spacingAndGlyphs" textLength="8" x="614.1758" y="164.0585">1</text><!--link CardPaymentPartyRole to CardPayment--><path d="M202.707,209.53 C241.859,234.539 305.295,275.057 338.373,296.186 " fill="none" id="CardPaymentPartyRole-CardPayment" style="stroke: #A80036; stroke-width: 1.0;"/><polygon fill="#A80036" points="342.64,298.912,337.2079,290.6967,338.4261,296.2208,332.9019,297.439,342.64,298.912" style="stroke: #A80036; stroke-width: 1.0;"/><text fill="#000000" font-family="sans-serif" font-size="13" lengthAdjust="spacingAndGlyphs" textLength="87" x="277" y="253.0669">CardPayment</text><text fill="#000000" font-family="sans-serif" font-size="13" lengthAdjust="spacingAndGlyphs" textLength="7" x="327.0397" y="287.93">*</text></g></svg>