<?xml version="1.0" encoding="UTF-8" standalone="no"?><svg xmlns="http://www.w3.org/2000/svg" xmlns:xlink="http://www.w3.org/1999/xlink" contentScriptType="application/ecmascript" contentStyleType="text/css" height="478px" preserveAspectRatio="none" style="width:1111px;height:478px;" version="1.1" viewBox="0 0 1111 478" width="1111px" zoomAndPan="magnify"><defs><filter height="300%" id="f19xm80guxjq3v" width="300%" x="-1" y="-1"><feGaussianBlur result="blurOut" stdDeviation="2.0"/><feColorMatrix in="blurOut" result="blurOut2" type="matrix" values="0 0 0 0 0 0 0 0 0 0 0 0 0 0 0 0 0 0 .4 0"/><feOffset dx="4.0" dy="4.0" in="blurOut2" result="blurOut3"/><feBlend in="SourceGraphic" in2="blurOut3" mode="normal"/></filter></defs><g><!--cluster ##8581--><!--cluster ##8599--><!--cluster ##8608--><!--class Role--><a target="_top" xlink:actuate="onRequest" xlink:href="../Role.html" xlink:show="new" xlink:title="Role of a party in an activity." xlink:type="simple"><rect fill="#FEFEEE" filter="url(#f19xm80guxjq3v)" height="44.7734" id="Role" style="stroke: #A80036; stroke-width: 1.5;" width="175" x="397.75" y="40.5"/><rect fill="#FEFEEE" height="23.9688" style="stroke: #A80036; stroke-width: 1.5;" width="175" x="397.75" y="40.5"/><text fill="#000000" font-family="sans-serif" font-size="12" lengthAdjust="spacingAndGlyphs" textLength="27" x="471.75" y="56.6387">Role</text><line style="stroke: #A80036; stroke-width: 1.5;" x1="398.75" x2="571.75" y1="64.4688" y2="64.4688"/><ellipse cx="408.75" cy="76.3711" fill="#84BE84" rx="3" ry="3" style="stroke: #038048; stroke-width: 1.0;"/><text fill="#000000" font-family="sans-serif" font-size="11" lengthAdjust="spacingAndGlyphs" textLength="53" x="417.75" y="78.6792">PartyRole</text><text fill="#000000" font-family="sans-serif" font-size="11" font-style="italic" lengthAdjust="spacingAndGlyphs" textLength="92" x="474.75" y="78.6792">(PartyRoleCode)</text></a><!--class ChargePartyRole--><a target="_top" xlink:actuate="onRequest" xlink:href="../ChargePartyRole.html" xlink:show="new" xlink:title="Role played by a party in the context of a paymentof charges." xlink:type="simple"><rect fill="#FEFECE" filter="url(#f19xm80guxjq3v)" height="23.9688" id="ChargePartyRole" style="stroke: #A80036; stroke-width: 1.5;" width="110" x="358" y="166"/><rect fill="#FEFECE" height="23.9688" style="stroke: #A80036; stroke-width: 1.5;" width="110" x="358" y="166"/><text fill="#000000" font-family="sans-serif" font-size="12" lengthAdjust="spacingAndGlyphs" textLength="104" x="361" y="182.1387">ChargePartyRole</text></a><!--class ChargeAccountAgent--><a target="_top" xlink:actuate="onRequest" xlink:href="../ChargeAccountAgent.html" xlink:show="new" xlink:title="Agent that services a charge account." xlink:type="simple"><rect fill="#FEFEEE" filter="url(#f19xm80guxjq3v)" height="23.9688" id="ChargeAccountAgent" style="stroke: #A80036; stroke-width: 1.5;" width="139" x="38.75" y="270"/><rect fill="#FEFEEE" height="23.9688" style="stroke: #A80036; stroke-width: 1.5;" width="139" x="38.75" y="270"/><text fill="#000000" font-family="sans-serif" font-size="12" lengthAdjust="spacingAndGlyphs" textLength="133" x="41.75" y="286.1387">ChargeAccountAgent</text></a><!--class ChargeAgent--><a target="_top" xlink:actuate="onRequest" xlink:href="../ChargeAgent.html" xlink:show="new" xlink:title="Party that takes the transaction charges or to which the transaction charges are due." xlink:type="simple"><rect fill="#FEFEEE" filter="url(#f19xm80guxjq3v)" height="23.9688" id="ChargeAgent" style="stroke: #A80036; stroke-width: 1.5;" width="88" x="213.5" y="270"/><rect fill="#FEFEEE" height="23.9688" style="stroke: #A80036; stroke-width: 1.5;" width="88" x="213.5" y="270"/><text fill="#000000" font-family="sans-serif" font-size="12" lengthAdjust="spacingAndGlyphs" textLength="82" x="216.5" y="286.1387">ChargeAgent</text></a><!--class ChargeBearer--><a target="_top" xlink:actuate="onRequest" xlink:href="../ChargeBearer.html" xlink:show="new" xlink:title="Party(ies) liable for a charge associated with the transfer of cash." xlink:type="simple"><rect fill="#FEFEEE" filter="url(#f19xm80guxjq3v)" height="23.9688" id="ChargeBearer" style="stroke: #A80036; stroke-width: 1.5;" width="93" x="335.75" y="270"/><rect fill="#FEFEEE" height="23.9688" style="stroke: #A80036; stroke-width: 1.5;" width="93" x="335.75" y="270"/><text fill="#000000" font-family="sans-serif" font-size="12" lengthAdjust="spacingAndGlyphs" textLength="87" x="338.75" y="286.1387">ChargeBearer</text></a><!--class ChargeRecipient--><a target="_top" xlink:actuate="onRequest" xlink:href="../ChargeRecipient.html" xlink:show="new" xlink:title="Party entitled to the amount of money resulting from a charge." xlink:type="simple"><rect fill="#FEFEEE" filter="url(#f19xm80guxjq3v)" height="23.9688" id="ChargeRecipient" style="stroke: #A80036; stroke-width: 1.5;" width="109" x="463.75" y="270"/><rect fill="#FEFEEE" height="23.9688" style="stroke: #A80036; stroke-width: 1.5;" width="109" x="463.75" y="270"/><text fill="#000000" font-family="sans-serif" font-size="12" lengthAdjust="spacingAndGlyphs" textLength="103" x="466.75" y="286.1387">ChargeRecipient</text></a><!--class RolePlayer--><a target="_top" xlink:actuate="onRequest" xlink:href="../RolePlayer.html" xlink:show="new" xlink:title="Type of entity that plays a specific role in a specific context." xlink:type="simple"><rect fill="#EEEEEE" filter="url(#f19xm80guxjq3v)" height="23.9688" id="RolePlayer" style="stroke: #A80036; stroke-width: 1.5;" width="71" x="920.75" y="444"/><rect fill="#EEEEEE" height="23.9688" style="stroke: #A80036; stroke-width: 1.5;" width="71" x="920.75" y="444"/><text fill="#000000" font-family="sans-serif" font-size="12" lengthAdjust="spacingAndGlyphs" textLength="65" x="923.75" y="460.1387">RolePlayer</text></a><!--class ContactPersonRole--><a target="_top" xlink:actuate="onRequest" xlink:href="../ContactPersonRole.html" xlink:show="new" xlink:title="Person to be contacted in a given organisation. In the corporate action domain (including meeting notifications) , it is the contact person at the party organising the meeting, at the issuer or at an intermediary." xlink:type="simple"><rect fill="#EEEEEE" filter="url(#f19xm80guxjq3v)" height="23.9688" id="ContactPersonRole" style="stroke: #A80036; stroke-width: 1.5;" width="126" x="913" y="358"/><rect fill="#EEEEEE" height="23.9688" style="stroke: #A80036; stroke-width: 1.5;" width="126" x="913" y="358"/><text fill="#000000" font-family="sans-serif" font-size="12" lengthAdjust="spacingAndGlyphs" textLength="120" x="916" y="374.1387">ContactPersonRole</text></a><!--class CounterpartyRisk--><a target="_top" xlink:actuate="onRequest" xlink:href="../CounterpartyRisk.html" xlink:show="new" xlink:title="Calculation of the exposure amount that one party has vis-a-vis one counterparty or a central system, based on its credit risk." xlink:type="simple"><rect fill="#EEEEEE" filter="url(#f19xm80guxjq3v)" height="23.9688" id="CounterpartyRisk" style="stroke: #A80036; stroke-width: 1.5;" width="113" x="925.75" y="270"/><rect fill="#EEEEEE" height="23.9688" style="stroke: #A80036; stroke-width: 1.5;" width="113" x="925.75" y="270"/><text fill="#000000" font-family="sans-serif" font-size="12" lengthAdjust="spacingAndGlyphs" textLength="107" x="928.75" y="286.1387">CounterpartyRisk</text></a><!--class Entry--><a target="_top" xlink:actuate="onRequest" xlink:href="../Entry.html" xlink:show="new" xlink:title="Posting to an account that results in an increase or decrease to a balance." xlink:type="simple"><rect fill="#EEEEEE" filter="url(#f19xm80guxjq3v)" height="23.9688" id="Entry" style="stroke: #A80036; stroke-width: 1.5;" width="38" x="913" y="166"/><rect fill="#EEEEEE" height="23.9688" style="stroke: #A80036; stroke-width: 1.5;" width="38" x="913" y="166"/><text fill="#000000" font-family="sans-serif" font-size="12" lengthAdjust="spacingAndGlyphs" textLength="32" x="916" y="182.1387">Entry</text></a><!--class Adjustment--><a target="_top" xlink:actuate="onRequest" xlink:href="../Adjustment.html" xlink:show="new" xlink:title="Modification on the value of goods and / or services. For example: rebate, discount." xlink:type="simple"><rect fill="#EEEEEE" filter="url(#f19xm80guxjq3v)" height="23.9688" id="Adjustment" style="stroke: #A80036; stroke-width: 1.5;" width="77" x="629.75" y="270"/><rect fill="#EEEEEE" height="23.9688" style="stroke: #A80036; stroke-width: 1.5;" width="77" x="629.75" y="270"/><text fill="#000000" font-family="sans-serif" font-size="12" lengthAdjust="spacingAndGlyphs" textLength="71" x="632.75" y="286.1387">Adjustment</text></a><!--link Role to ChargePartyRole--><path d="M460.441,102.544 C446.25,124.816 429.411,151.243 420.095,165.865 " fill="none" id="Role-ChargePartyRole" style="stroke: #A80036; stroke-width: 1.0;"/><polygon fill="none" points="454.637,98.626,471.288,85.52,466.444,106.149,454.637,98.626" style="stroke: #A80036; stroke-width: 1.0;"/><!--link ChargePartyRole to ChargeAccountAgent--><path d="M354.051,195.655 C309.936,208.471 248.284,227.132 195,246 C174.282,253.337 151.221,262.669 134.05,269.851 " fill="none" id="ChargePartyRole-ChargeAccountAgent" style="stroke: #A80036; stroke-width: 1.0;"/><polygon fill="none" points="352.134,188.922,373.29,190.113,356.009,202.375,352.134,188.922" style="stroke: #A80036; stroke-width: 1.0;"/><!--link ChargePartyRole to ChargeAgent--><path d="M378.935,201.273 C346.507,222.476 299.043,253.51 273.971,269.904 " fill="none" id="ChargePartyRole-ChargeAgent" style="stroke: #A80036; stroke-width: 1.0;"/><polygon fill="none" points="375.438,195.196,396.008,190.11,383.1,206.914,375.438,195.196" style="stroke: #A80036; stroke-width: 1.0;"/><!--link ChargePartyRole to ChargeBearer--><path d="M403.696,209.615 C397.497,230.011 389.715,255.614 385.357,269.954 " fill="none" id="ChargePartyRole-ChargeBearer" style="stroke: #A80036; stroke-width: 1.0;"/><polygon fill="none" points="397.051,207.406,409.564,190.306,410.446,211.477,397.051,207.406" style="stroke: #A80036; stroke-width: 1.0;"/><!--link ChargePartyRole to ChargeRecipient--><path d="M439.281,204.53 C460.941,225.571 490.611,254.393 506.629,269.954 " fill="none" id="ChargePartyRole-ChargeRecipient" style="stroke: #A80036; stroke-width: 1.0;"/><polygon fill="none" points="434.106,209.262,424.638,190.306,443.861,199.22,434.106,209.262" style="stroke: #A80036; stroke-width: 1.0;"/><!--link ContactPersonRole to RolePlayer--><!--link CounterpartyRisk to ContactPersonRole--><!--link Entry to CounterpartyRisk--><!--link Role to RolePlayer--><path d="M572.61,80.364 C658.62,99.001 777,132.698 777,177 C777,177 777,177 777,371 C777,431.8572 862.842,448.7099 915.634,453.3199 " fill="none" id="Role-RolePlayer" style="stroke: #A80036; stroke-width: 1.0;"/><polygon fill="#A80036" points="920.635,453.7288,911.9919,449.0068,915.6517,453.3202,911.3382,456.98,920.635,453.7288" style="stroke: #A80036; stroke-width: 1.0;"/><text fill="#000000" font-family="sans-serif" font-size="13" lengthAdjust="spacingAndGlyphs" textLength="39" x="778" y="286.0669">Player</text><text fill="#000000" font-family="sans-serif" font-size="13" lengthAdjust="spacingAndGlyphs" textLength="7" x="905.7402" y="447.9585">*</text><!--link Role to ContactPersonRole--><path d="M572.377,68.815 C653.953,74.96 768.195,88.314 803,116 C848.86,152.479 825.131,186.452 853,238 C873.52,275.956 878.125,286.868 908,318 C921.704,332.281 939.714,345.597 953.757,355.039 " fill="none" id="Role-ContactPersonRole" style="stroke: #A80036; stroke-width: 1.0;"/><polygon fill="#A80036" points="957.978,357.842,952.6906,349.5328,953.8118,355.0774,948.2672,356.1987,957.978,357.842" style="stroke: #A80036; stroke-width: 1.0;"/><text fill="#000000" font-family="sans-serif" font-size="13" lengthAdjust="spacingAndGlyphs" textLength="121" x="854" y="233.0669">ContactPersonRole</text><text fill="#000000" font-family="sans-serif" font-size="13" lengthAdjust="spacingAndGlyphs" textLength="8" x="941.0642" y="346.8359">1</text><!--link Role to CounterpartyRisk--><path d="M572.255,65.482 C688.767,68.851 887.723,79.883 950,116 C981.033,133.997 995.812,218.879 996,220 C998.586,235.376 993.874,252.681 989.233,264.921 " fill="none" id="Role-CounterpartyRisk" style="stroke: #A80036; stroke-width: 1.0;"/><polygon fill="#A80036" points="987.27,269.837,994.322,262.9618,989.124,265.1934,986.8923,259.9954,987.27,269.837" style="stroke: #A80036; stroke-width: 1.0;"/><text fill="#000000" font-family="sans-serif" font-size="13" lengthAdjust="spacingAndGlyphs" textLength="109" x="990" y="182.0669">CounterpartyRisk</text><text fill="#000000" font-family="sans-serif" font-size="13" lengthAdjust="spacingAndGlyphs" textLength="24" x="959.5269" y="258.8292">0..1</text><!--link Role to Entry--><path d="M572.447,67.481 C674.041,72.873 834.344,85.954 886,116 C903.924,126.425 917.111,146.865 924.662,161.201 " fill="none" id="Role-Entry" style="stroke: #A80036; stroke-width: 1.0;"/><polygon fill="#A80036" points="927.005,165.805,926.4861,155.9698,924.7364,161.3493,919.357,159.5995,927.005,165.805" style="stroke: #A80036; stroke-width: 1.0;"/><text fill="#000000" font-family="sans-serif" font-size="13" lengthAdjust="spacingAndGlyphs" textLength="33" x="907" y="129.0669">Entry</text><text fill="#000000" font-family="sans-serif" font-size="13" lengthAdjust="spacingAndGlyphs" textLength="8" x="914.6942" y="155.0438">1</text><!--link ChargePartyRole to Adjustment--><path d="M443.401,190.013 C478.639,202.908 538.357,225.159 589,246 C605.701,252.873 624.165,261.022 639.041,267.727 " fill="none" id="ChargePartyRole-Adjustment" style="stroke: #A80036; stroke-width: 1.0;"/><polygon fill="#A80036" points="643.941,269.942,637.3857,262.5916,639.3843,267.8836,634.0923,269.8823,643.941,269.942" style="stroke: #A80036; stroke-width: 1.0;"/><text fill="#000000" font-family="sans-serif" font-size="13" lengthAdjust="spacingAndGlyphs" textLength="74" x="567" y="233.0669">Adjustment</text><text fill="#000000" font-family="sans-serif" font-size="13" lengthAdjust="spacingAndGlyphs" textLength="7" x="626.0379" y="258.9703">*</text></g></svg>