<?xml version="1.0" encoding="UTF-8" standalone="no"?><svg xmlns="http://www.w3.org/2000/svg" xmlns:xlink="http://www.w3.org/1999/xlink" contentScriptType="application/ecmascript" contentStyleType="text/css" height="478px" preserveAspectRatio="none" style="width:770px;height:478px;" version="1.1" viewBox="0 0 770 478" width="770px" zoomAndPan="magnify"><defs><filter height="300%" id="fvwqerbfy2mqd" width="300%" x="-1" y="-1"><feGaussianBlur result="blurOut" stdDeviation="2.0"/><feColorMatrix in="blurOut" result="blurOut2" type="matrix" values="0 0 0 0 0 0 0 0 0 0 0 0 0 0 0 0 0 0 .4 0"/><feOffset dx="4.0" dy="4.0" in="blurOut2" result="blurOut3"/><feBlend in="SourceGraphic" in2="blurOut3" mode="normal"/></filter></defs><g><!--cluster ##19885--><!--cluster ##19900--><!--cluster ##19909--><!--class Role--><a target="_top" xlink:actuate="onRequest" xlink:href="../Role.html" xlink:show="new" xlink:title="Role of a party in an activity." xlink:type="simple"><rect fill="#FEFEEE" filter="url(#fvwqerbfy2mqd)" height="44.7734" id="Role" style="stroke: #A80036; stroke-width: 1.5;" width="175" x="80.75" y="40.5"/><rect fill="#FEFEEE" height="23.9688" style="stroke: #A80036; stroke-width: 1.5;" width="175" x="80.75" y="40.5"/><text fill="#000000" font-family="sans-serif" font-size="12" lengthAdjust="spacingAndGlyphs" textLength="27" x="154.75" y="56.6387">Role</text><line style="stroke: #A80036; stroke-width: 1.5;" x1="81.75" x2="254.75" y1="64.4688" y2="64.4688"/><ellipse cx="91.75" cy="76.3711" fill="#84BE84" rx="3" ry="3" style="stroke: #038048; stroke-width: 1.0;"/><text fill="#000000" font-family="sans-serif" font-size="11" lengthAdjust="spacingAndGlyphs" textLength="53" x="100.75" y="78.6792">PartyRole</text><text fill="#000000" font-family="sans-serif" font-size="11" font-style="italic" lengthAdjust="spacingAndGlyphs" textLength="92" x="157.75" y="78.6792">(PartyRoleCode)</text></a><!--class ChequePartyRole--><a target="_top" xlink:actuate="onRequest" xlink:href="../ChequePartyRole.html" xlink:show="new" xlink:title="Role played by a party in the context of a payment by cheque." xlink:type="simple"><rect fill="#FEFECE" filter="url(#fvwqerbfy2mqd)" height="23.9688" id="ChequePartyRole" style="stroke: #A80036; stroke-width: 1.5;" width="113" x="111.75" y="166"/><rect fill="#FEFECE" height="23.9688" style="stroke: #A80036; stroke-width: 1.5;" width="113" x="111.75" y="166"/><text fill="#000000" font-family="sans-serif" font-size="12" lengthAdjust="spacingAndGlyphs" textLength="107" x="114.75" y="182.1387">ChequePartyRole</text></a><!--class Payee--><a target="_top" xlink:actuate="onRequest" xlink:href="../Payee.html" xlink:show="new" xlink:title="Party to which a cheque is made payable." xlink:type="simple"><rect fill="#FEFEEE" filter="url(#fvwqerbfy2mqd)" height="23.9688" id="Payee" style="stroke: #A80036; stroke-width: 1.5;" width="44" x="38.5" y="270"/><rect fill="#FEFEEE" height="23.9688" style="stroke: #A80036; stroke-width: 1.5;" width="44" x="38.5" y="270"/><text fill="#000000" font-family="sans-serif" font-size="12" lengthAdjust="spacingAndGlyphs" textLength="38" x="41.5" y="286.1387">Payee</text></a><!--class Drawee--><a target="_top" xlink:actuate="onRequest" xlink:href="../Drawee.html" xlink:show="new" xlink:title="Financial institution on which a cheque is drawn, ie, the financial institution that services the account of the entity that issued the cheque." xlink:type="simple"><rect fill="#FEFEEE" filter="url(#fvwqerbfy2mqd)" height="23.9688" id="Drawee" style="stroke: #A80036; stroke-width: 1.5;" width="53" x="117.75" y="270"/><rect fill="#FEFEEE" height="23.9688" style="stroke: #A80036; stroke-width: 1.5;" width="53" x="117.75" y="270"/><text fill="#000000" font-family="sans-serif" font-size="12" lengthAdjust="spacingAndGlyphs" textLength="47" x="120.75" y="286.1387">Drawee</text></a><!--class Drawer--><a target="_top" xlink:actuate="onRequest" xlink:href="../Drawer.html" xlink:show="new" xlink:title="Account owner that issues a cheque ordering the drawee bank to pay a specific amount, upon demand, to the payee." xlink:type="simple"><rect fill="#FEFEEE" filter="url(#fvwqerbfy2mqd)" height="23.9688" id="Drawer" style="stroke: #A80036; stroke-width: 1.5;" width="50" x="206" y="270"/><rect fill="#FEFEEE" height="23.9688" style="stroke: #A80036; stroke-width: 1.5;" width="50" x="206" y="270"/><text fill="#000000" font-family="sans-serif" font-size="12" lengthAdjust="spacingAndGlyphs" textLength="44" x="209" y="286.1387">Drawer</text></a><!--class RolePlayer--><a target="_top" xlink:actuate="onRequest" xlink:href="../RolePlayer.html" xlink:show="new" xlink:title="Type of entity that plays a specific role in a specific context." xlink:type="simple"><rect fill="#EEEEEE" filter="url(#fvwqerbfy2mqd)" height="23.9688" id="RolePlayer" style="stroke: #A80036; stroke-width: 1.5;" width="71" x="579.75" y="444"/><rect fill="#EEEEEE" height="23.9688" style="stroke: #A80036; stroke-width: 1.5;" width="71" x="579.75" y="444"/><text fill="#000000" font-family="sans-serif" font-size="12" lengthAdjust="spacingAndGlyphs" textLength="65" x="582.75" y="460.1387">RolePlayer</text></a><!--class ContactPersonRole--><a target="_top" xlink:actuate="onRequest" xlink:href="../ContactPersonRole.html" xlink:show="new" xlink:title="Person to be contacted in a given organisation. In the corporate action domain (including meeting notifications) , it is the contact person at the party organising the meeting, at the issuer or at an intermediary." xlink:type="simple"><rect fill="#EEEEEE" filter="url(#fvwqerbfy2mqd)" height="23.9688" id="ContactPersonRole" style="stroke: #A80036; stroke-width: 1.5;" width="126" x="572" y="358"/><rect fill="#EEEEEE" height="23.9688" style="stroke: #A80036; stroke-width: 1.5;" width="126" x="572" y="358"/><text fill="#000000" font-family="sans-serif" font-size="12" lengthAdjust="spacingAndGlyphs" textLength="120" x="575" y="374.1387">ContactPersonRole</text></a><!--class CounterpartyRisk--><a target="_top" xlink:actuate="onRequest" xlink:href="../CounterpartyRisk.html" xlink:show="new" xlink:title="Calculation of the exposure amount that one party has vis-a-vis one counterparty or a central system, based on its credit risk." xlink:type="simple"><rect fill="#EEEEEE" filter="url(#fvwqerbfy2mqd)" height="23.9688" id="CounterpartyRisk" style="stroke: #A80036; stroke-width: 1.5;" width="113" x="584.75" y="270"/><rect fill="#EEEEEE" height="23.9688" style="stroke: #A80036; stroke-width: 1.5;" width="113" x="584.75" y="270"/><text fill="#000000" font-family="sans-serif" font-size="12" lengthAdjust="spacingAndGlyphs" textLength="107" x="587.75" y="286.1387">CounterpartyRisk</text></a><!--class Entry--><a target="_top" xlink:actuate="onRequest" xlink:href="../Entry.html" xlink:show="new" xlink:title="Posting to an account that results in an increase or decrease to a balance." xlink:type="simple"><rect fill="#EEEEEE" filter="url(#fvwqerbfy2mqd)" height="23.9688" id="Entry" style="stroke: #A80036; stroke-width: 1.5;" width="38" x="572" y="166"/><rect fill="#EEEEEE" height="23.9688" style="stroke: #A80036; stroke-width: 1.5;" width="38" x="572" y="166"/><text fill="#000000" font-family="sans-serif" font-size="12" lengthAdjust="spacingAndGlyphs" textLength="32" x="575" y="182.1387">Entry</text></a><!--class Cheque--><a target="_top" xlink:actuate="onRequest" xlink:href="../Cheque.html" xlink:show="new" xlink:title="Negotiable instrument instructing a financial institution to pay a specific amount of a specific currency from the account of the drawer with that institution." xlink:type="simple"><rect fill="#EEEEEE" filter="url(#fvwqerbfy2mqd)" height="23.9688" id="Cheque" style="stroke: #A80036; stroke-width: 1.5;" width="54" x="312" y="270"/><rect fill="#EEEEEE" height="23.9688" style="stroke: #A80036; stroke-width: 1.5;" width="54" x="312" y="270"/><text fill="#000000" font-family="sans-serif" font-size="12" lengthAdjust="spacingAndGlyphs" textLength="48" x="315" y="286.1387">Cheque</text></a><!--link Role to ChequePartyRole--><path d="M168,105.559 C168,127.159 168,151.898 168,165.865 " fill="none" id="Role-ChequePartyRole" style="stroke: #A80036; stroke-width: 1.0;"/><polygon fill="none" points="161,105.52,168,85.52,175,105.52,161,105.52" style="stroke: #A80036; stroke-width: 1.0;"/><!--link ChequePartyRole to Payee--><path d="M141.295,204.221 C118.989,225.288 88.2525,254.317 71.6959,269.954 " fill="none" id="ChequePartyRole-Payee" style="stroke: #A80036; stroke-width: 1.0;"/><polygon fill="none" points="136.683,198.949,156.029,190.306,146.296,209.127,136.683,198.949" style="stroke: #A80036; stroke-width: 1.0;"/><!--link ChequePartyRole to Drawee--><path d="M160.72,209.94 C155.933,230.283 149.955,255.69 146.599,269.954 " fill="none" id="ChequePartyRole-Drawee" style="stroke: #A80036; stroke-width: 1.0;"/><polygon fill="none" points="153.945,208.171,165.34,190.306,167.573,211.377,153.945,208.171" style="stroke: #A80036; stroke-width: 1.0;"/><!--link ChequePartyRole to Drawer--><path d="M185.516,207.359 C198.319,228.088 214.991,255.08 224.177,269.954 " fill="none" id="ChequePartyRole-Drawer" style="stroke: #A80036; stroke-width: 1.0;"/><polygon fill="none" points="179.537,211,174.983,190.306,191.448,203.643,179.537,211" style="stroke: #A80036; stroke-width: 1.0;"/><!--link ContactPersonRole to RolePlayer--><!--link CounterpartyRisk to ContactPersonRole--><!--link Entry to CounterpartyRisk--><!--link Role to RolePlayer--><path d="M255.382,65.893 C333.59,72.796 436,97.092 436,177 C436,177 436,177 436,371 C436,431.8572 521.842,448.7099 574.634,453.3199 " fill="none" id="Role-RolePlayer" style="stroke: #A80036; stroke-width: 1.0;"/><polygon fill="#A80036" points="579.635,453.7288,570.9919,449.0068,574.6517,453.3202,570.3382,456.98,579.635,453.7288" style="stroke: #A80036; stroke-width: 1.0;"/><text fill="#000000" font-family="sans-serif" font-size="13" lengthAdjust="spacingAndGlyphs" textLength="39" x="437" y="286.0669">Player</text><text fill="#000000" font-family="sans-serif" font-size="13" lengthAdjust="spacingAndGlyphs" textLength="7" x="564.7402" y="447.9585">*</text><!--link Role to ContactPersonRole--><path d="M255.3,70.19 C330.196,77.133 430.826,90.87 462,116 C507.622,152.776 484.131,186.452 512,238 C532.52,275.956 537.125,286.868 567,318 C580.704,332.281 598.714,345.597 612.757,355.039 " fill="none" id="Role-ContactPersonRole" style="stroke: #A80036; stroke-width: 1.0;"/><polygon fill="#A80036" points="616.978,357.842,611.6906,349.5328,612.8118,355.0774,607.2672,356.1987,616.978,357.842" style="stroke: #A80036; stroke-width: 1.0;"/><text fill="#000000" font-family="sans-serif" font-size="13" lengthAdjust="spacingAndGlyphs" textLength="121" x="513" y="233.0669">ContactPersonRole</text><text fill="#000000" font-family="sans-serif" font-size="13" lengthAdjust="spacingAndGlyphs" textLength="8" x="600.0642" y="346.8359">1</text><!--link Role to CounterpartyRisk--><path d="M255.492,66.124 C366.586,70.208 550.832,82.032 609,116 C640.056,134.136 654.871,219.234 655,220 C657.586,235.376 652.874,252.681 648.233,264.921 " fill="none" id="Role-CounterpartyRisk" style="stroke: #A80036; stroke-width: 1.0;"/><polygon fill="#A80036" points="646.27,269.837,653.322,262.9618,648.124,265.1934,645.8923,259.9954,646.27,269.837" style="stroke: #A80036; stroke-width: 1.0;"/><text fill="#000000" font-family="sans-serif" font-size="13" lengthAdjust="spacingAndGlyphs" textLength="109" x="649" y="182.0669">CounterpartyRisk</text><text fill="#000000" font-family="sans-serif" font-size="13" lengthAdjust="spacingAndGlyphs" textLength="24" x="618.5269" y="258.8292">0..1</text><!--link Role to Entry--><path d="M255.335,68.33 C351.049,74.409 497.353,88.027 545,116 C562.881,126.498 576.077,146.922 583.642,161.234 " fill="none" id="Role-Entry" style="stroke: #A80036; stroke-width: 1.0;"/><polygon fill="#A80036" points="585.991,165.83,585.4571,155.9956,583.7156,161.3777,578.3335,159.6363,585.991,165.83" style="stroke: #A80036; stroke-width: 1.0;"/><text fill="#000000" font-family="sans-serif" font-size="13" lengthAdjust="spacingAndGlyphs" textLength="33" x="566" y="129.0669">Entry</text><text fill="#000000" font-family="sans-serif" font-size="13" lengthAdjust="spacingAndGlyphs" textLength="8" x="573.5504" y="154.8198">1</text><!--link ChequePartyRole to Cheque--><path d="M186.626,190.11 C218.105,208.887 281.741,246.846 315.97,267.263 " fill="none" id="ChequePartyRole-Cheque" style="stroke: #A80036; stroke-width: 1.0;"/><polygon fill="#A80036" points="320.397,269.904,314.7166,261.8583,316.1029,267.3427,310.6185,268.7289,320.397,269.904" style="stroke: #A80036; stroke-width: 1.0;"/><text fill="#000000" font-family="sans-serif" font-size="13" lengthAdjust="spacingAndGlyphs" textLength="49" x="265" y="233.0669">Cheque</text><text fill="#000000" font-family="sans-serif" font-size="13" lengthAdjust="spacingAndGlyphs" textLength="7" x="304.4553" y="258.9192">*</text></g></svg>