<?xml version="1.0" encoding="UTF-8" standalone="no"?><svg xmlns="http://www.w3.org/2000/svg" xmlns:xlink="http://www.w3.org/1999/xlink" contentScriptType="application/ecmascript" contentStyleType="text/css" height="1374px" preserveAspectRatio="none" style="width:1927px;height:1374px;" version="1.1" viewBox="0 0 1927 1374" width="1927px" zoomAndPan="magnify"><defs><filter height="300%" id="fw3atzt4jo6tp" width="300%" x="-1" y="-1"><feGaussianBlur result="blurOut" stdDeviation="2.0"/><feColorMatrix in="blurOut" result="blurOut2" type="matrix" values="0 0 0 0 0 0 0 0 0 0 0 0 0 0 0 0 0 0 .4 0"/><feOffset dx="4.0" dy="4.0" in="blurOut2" result="blurOut3"/><feBlend in="SourceGraphic" in2="blurOut3" mode="normal"/></filter></defs><g><!--cluster ##6125--><!--cluster ##6134--><!--cluster ##6165--><!--class Document--><a target="_top" xlink:actuate="onRequest" xlink:href="../Document.html" xlink:show="new" xlink:title="General information that unambiguously identifies a document, such as identification number and issue date time." xlink:type="simple"><rect fill="#FEFEEE" filter="url(#fw3atzt4jo6tp)" height="172.8203" id="Document" style="stroke: #A80036; stroke-width: 1.5;" width="249" x="285.75" y="40.5"/><rect fill="#FEFEEE" height="23.9688" style="stroke: #A80036; stroke-width: 1.5;" width="249" x="285.75" y="40.5"/><text fill="#000000" font-family="sans-serif" font-size="12" lengthAdjust="spacingAndGlyphs" textLength="64" x="378.25" y="56.6387">Document</text><line style="stroke: #A80036; stroke-width: 1.5;" x1="286.75" x2="533.75" y1="64.4688" y2="64.4688"/><ellipse cx="296.75" cy="76.3711" fill="#84BE84" rx="3" ry="3" style="stroke: #038048; stroke-width: 1.0;"/><text fill="#000000" font-family="sans-serif" font-size="11" lengthAdjust="spacingAndGlyphs" textLength="57" x="305.75" y="78.6792">IssueDate</text><text fill="#000000" font-family="sans-serif" font-size="11" font-style="italic" lengthAdjust="spacingAndGlyphs" textLength="81" x="366.75" y="78.6792">(ISODateTime)</text><ellipse cx="296.75" cy="89.1758" fill="#84BE84" rx="3" ry="3" style="stroke: #038048; stroke-width: 1.0;"/><text fill="#000000" font-family="sans-serif" font-size="11" lengthAdjust="spacingAndGlyphs" textLength="80" x="305.75" y="91.4839">CopyDuplicate</text><text fill="#000000" font-family="sans-serif" font-size="11" font-style="italic" lengthAdjust="spacingAndGlyphs" textLength="118" x="389.75" y="91.4839">(CopyDuplicateCode)</text><ellipse cx="296.75" cy="101.9805" fill="#84BE84" rx="3" ry="3" style="stroke: #038048; stroke-width: 1.0;"/><text fill="#000000" font-family="sans-serif" font-size="11" lengthAdjust="spacingAndGlyphs" textLength="27" x="305.75" y="104.2886">Type</text><text fill="#000000" font-family="sans-serif" font-size="11" font-style="italic" lengthAdjust="spacingAndGlyphs" textLength="122" x="336.75" y="104.2886">(DocumentTypeCode)</text><ellipse cx="296.75" cy="114.7852" fill="#84BE84" rx="3" ry="3" style="stroke: #038048; stroke-width: 1.0;"/><text fill="#000000" font-family="sans-serif" font-size="11" lengthAdjust="spacingAndGlyphs" textLength="43" x="305.75" y="117.0933">Amount</text><text fill="#000000" font-family="sans-serif" font-size="11" font-style="italic" lengthAdjust="spacingAndGlyphs" textLength="161" x="352.75" y="117.0933">(ActiveCurrencyAndAmount)</text><ellipse cx="296.75" cy="127.5898" fill="#84BE84" rx="3" ry="3" style="stroke: #038048; stroke-width: 1.0;"/><text fill="#000000" font-family="sans-serif" font-size="11" lengthAdjust="spacingAndGlyphs" textLength="100" x="305.75" y="129.8979">DocumentVersion</text><text fill="#000000" font-family="sans-serif" font-size="11" font-style="italic" lengthAdjust="spacingAndGlyphs" textLength="53" x="409.75" y="129.8979">(Number)</text><ellipse cx="296.75" cy="140.3945" fill="#84BE84" rx="3" ry="3" style="stroke: #038048; stroke-width: 1.0;"/><text fill="#000000" font-family="sans-serif" font-size="11" lengthAdjust="spacingAndGlyphs" textLength="37" x="305.75" y="142.7026">Status</text><text fill="#000000" font-family="sans-serif" font-size="11" font-style="italic" lengthAdjust="spacingAndGlyphs" textLength="77" x="346.75" y="142.7026">(Max140Text)</text><ellipse cx="296.75" cy="153.1992" fill="#84BE84" rx="3" ry="3" style="stroke: #038048; stroke-width: 1.0;"/><text fill="#000000" font-family="sans-serif" font-size="11" lengthAdjust="spacingAndGlyphs" textLength="72" x="305.75" y="155.5073">DataSetType</text><text fill="#000000" font-family="sans-serif" font-size="11" font-style="italic" lengthAdjust="spacingAndGlyphs" textLength="109" x="381.75" y="155.5073">(DataSetTypeCode)</text><ellipse cx="296.75" cy="166.0039" fill="#84BE84" rx="3" ry="3" style="stroke: #038048; stroke-width: 1.0;"/><text fill="#000000" font-family="sans-serif" font-size="11" lengthAdjust="spacingAndGlyphs" textLength="88" x="305.75" y="168.312">SignedIndicator</text><text fill="#000000" font-family="sans-serif" font-size="11" font-style="italic" lengthAdjust="spacingAndGlyphs" textLength="92" x="397.75" y="168.312">(YesNoIndicator)</text><ellipse cx="296.75" cy="178.8086" fill="#84BE84" rx="3" ry="3" style="stroke: #038048; stroke-width: 1.0;"/><text fill="#000000" font-family="sans-serif" font-size="11" lengthAdjust="spacingAndGlyphs" textLength="93" x="305.75" y="181.1167">RemittedAmount</text><text fill="#000000" font-family="sans-serif" font-size="11" font-style="italic" lengthAdjust="spacingAndGlyphs" textLength="126" x="402.75" y="181.1167">(CurrencyAndAmount)</text><ellipse cx="296.75" cy="191.6133" fill="#84BE84" rx="3" ry="3" style="stroke: #038048; stroke-width: 1.0;"/><text fill="#000000" font-family="sans-serif" font-size="11" lengthAdjust="spacingAndGlyphs" textLength="55" x="305.75" y="193.9214">Language</text><text fill="#000000" font-family="sans-serif" font-size="11" font-style="italic" lengthAdjust="spacingAndGlyphs" textLength="92" x="364.75" y="193.9214">(LanguageCode)</text><ellipse cx="296.75" cy="204.418" fill="#84BE84" rx="3" ry="3" style="stroke: #038048; stroke-width: 1.0;"/><text fill="#000000" font-family="sans-serif" font-size="11" lengthAdjust="spacingAndGlyphs" textLength="47" x="305.75" y="206.7261">Purpose</text><text fill="#000000" font-family="sans-serif" font-size="11" font-style="italic" lengthAdjust="spacingAndGlyphs" textLength="70" x="356.75" y="206.7261">(Max35Text)</text></a><!--class FinancialDocument--><a target="_top" xlink:actuate="onRequest" xlink:href="../FinancialDocument.html" xlink:show="new" xlink:title="Type of document used in relation with financial transactions." xlink:type="simple"><rect fill="#FEFEEE" filter="url(#fw3atzt4jo6tp)" height="23.9688" id="FinancialDocument" style="stroke: #A80036; stroke-width: 1.5;" width="125" x="339.75" y="292"/><rect fill="#FEFEEE" height="23.9688" style="stroke: #A80036; stroke-width: 1.5;" width="125" x="339.75" y="292"/><text fill="#000000" font-family="sans-serif" font-size="12" lengthAdjust="spacingAndGlyphs" textLength="119" x="342.75" y="308.1387">FinancialDocument</text></a><!--class Cheque--><a target="_top" xlink:actuate="onRequest" xlink:href="../Cheque.html" xlink:show="new" xlink:title="Negotiable instrument instructing a financial institution to pay a specific amount of a specific currency from the account of the drawer with that institution." xlink:type="simple"><rect fill="#FEFECE" filter="url(#fw3atzt4jo6tp)" height="108.7969" id="Cheque" style="stroke: #A80036; stroke-width: 1.5;" width="225" x="285.75" y="394.5"/><rect fill="#FEFECE" height="23.9688" style="stroke: #A80036; stroke-width: 1.5;" width="225" x="285.75" y="394.5"/><text fill="#000000" font-family="sans-serif" font-size="12" lengthAdjust="spacingAndGlyphs" textLength="48" x="374.25" y="410.6387">Cheque</text><line style="stroke: #A80036; stroke-width: 1.5;" x1="286.75" x2="509.75" y1="418.4688" y2="418.4688"/><ellipse cx="296.75" cy="430.3711" fill="#84BE84" rx="3" ry="3" style="stroke: #038048; stroke-width: 1.0;"/><text fill="#000000" font-family="sans-serif" font-size="11" lengthAdjust="spacingAndGlyphs" textLength="45" x="305.75" y="432.6792">Number</text><text fill="#000000" font-family="sans-serif" font-size="11" font-style="italic" lengthAdjust="spacingAndGlyphs" textLength="70" x="354.75" y="432.6792">(Max35Text)</text><ellipse cx="296.75" cy="443.1758" fill="#84BE84" rx="3" ry="3" style="stroke: #038048; stroke-width: 1.0;"/><text fill="#000000" font-family="sans-serif" font-size="11" lengthAdjust="spacingAndGlyphs" textLength="70" x="305.75" y="445.4839">ChequeType</text><text fill="#000000" font-family="sans-serif" font-size="11" font-style="italic" lengthAdjust="spacingAndGlyphs" textLength="108" x="379.75" y="445.4839">(ChequeTypeCode)</text><ellipse cx="296.75" cy="455.9805" fill="#84BE84" rx="3" ry="3" style="stroke: #038048; stroke-width: 1.0;"/><text fill="#000000" font-family="sans-serif" font-size="11" lengthAdjust="spacingAndGlyphs" textLength="71" x="305.75" y="458.2886">MaturityDate</text><text fill="#000000" font-family="sans-serif" font-size="11" font-style="italic" lengthAdjust="spacingAndGlyphs" textLength="53" x="380.75" y="458.2886">(ISODate)</text><ellipse cx="296.75" cy="468.7852" fill="#84BE84" rx="3" ry="3" style="stroke: #038048; stroke-width: 1.0;"/><text fill="#000000" font-family="sans-serif" font-size="11" lengthAdjust="spacingAndGlyphs" textLength="65" x="305.75" y="471.0933">FormsCode</text><text fill="#000000" font-family="sans-serif" font-size="11" font-style="italic" lengthAdjust="spacingAndGlyphs" textLength="70" x="374.75" y="471.0933">(Max35Text)</text><ellipse cx="296.75" cy="481.5898" fill="#84BE84" rx="3" ry="3" style="stroke: #038048; stroke-width: 1.0;"/><text fill="#000000" font-family="sans-serif" font-size="11" lengthAdjust="spacingAndGlyphs" textLength="60" x="305.75" y="483.8979">MemoField</text><text fill="#000000" font-family="sans-serif" font-size="11" font-style="italic" lengthAdjust="spacingAndGlyphs" textLength="70" x="369.75" y="483.8979">(Max35Text)</text><ellipse cx="296.75" cy="494.3945" fill="#84BE84" rx="3" ry="3" style="stroke: #038048; stroke-width: 1.0;"/><text fill="#000000" font-family="sans-serif" font-size="11" lengthAdjust="spacingAndGlyphs" textLength="125" x="305.75" y="496.7026">RegionalClearingZone</text><text fill="#000000" font-family="sans-serif" font-size="11" font-style="italic" lengthAdjust="spacingAndGlyphs" textLength="70" x="434.75" y="496.7026">(Max35Text)</text></a><!--class ContactPoint--><a target="_top" xlink:actuate="onRequest" xlink:href="../ContactPoint.html" xlink:show="new" xlink:title="Number, physical or virtual address, used for communication." xlink:type="simple"><rect fill="#EEEEEE" filter="url(#fw3atzt4jo6tp)" height="23.9688" id="ContactPoint" style="stroke: #A80036; stroke-width: 1.5;" width="87" x="1410.75" y="115"/><rect fill="#EEEEEE" height="23.9688" style="stroke: #A80036; stroke-width: 1.5;" width="87" x="1410.75" y="115"/><text fill="#000000" font-family="sans-serif" font-size="12" lengthAdjust="spacingAndGlyphs" textLength="81" x="1413.75" y="131.1387">ContactPoint</text></a><!--class PaymentObligation--><a target="_top" xlink:actuate="onRequest" xlink:href="../PaymentObligation.html" xlink:show="new" xlink:title="Obligation for the debtor to pay the creditor an amount of cash." xlink:type="simple"><rect fill="#EEEEEE" filter="url(#fw3atzt4jo6tp)" height="23.9688" id="PaymentObligation" style="stroke: #A80036; stroke-width: 1.5;" width="123" x="1392.75" y="292"/><rect fill="#EEEEEE" height="23.9688" style="stroke: #A80036; stroke-width: 1.5;" width="123" x="1392.75" y="292"/><text fill="#000000" font-family="sans-serif" font-size="12" lengthAdjust="spacingAndGlyphs" textLength="117" x="1395.75" y="308.1387">PaymentObligation</text></a><!--class Agreement--><a target="_top" xlink:actuate="onRequest" xlink:href="../Agreement.html" xlink:show="new" xlink:title="Contractual details related to an agreement between parties." xlink:type="simple"><rect fill="#EEEEEE" filter="url(#fw3atzt4jo6tp)" height="23.9688" id="Agreement" style="stroke: #A80036; stroke-width: 1.5;" width="75" x="1600.75" y="1340"/><rect fill="#EEEEEE" height="23.9688" style="stroke: #A80036; stroke-width: 1.5;" width="75" x="1600.75" y="1340"/><text fill="#000000" font-family="sans-serif" font-size="12" lengthAdjust="spacingAndGlyphs" textLength="69" x="1603.75" y="1356.1387">Agreement</text></a><!--class Location--><a target="_top" xlink:actuate="onRequest" xlink:href="../Location.html" xlink:show="new" xlink:title="Specifies a place." xlink:type="simple"><rect fill="#EEEEEE" filter="url(#fw3atzt4jo6tp)" height="23.9688" id="Location" style="stroke: #A80036; stroke-width: 1.5;" width="59" x="1194.75" y="1254"/><rect fill="#EEEEEE" height="23.9688" style="stroke: #A80036; stroke-width: 1.5;" width="59" x="1194.75" y="1254"/><text fill="#000000" font-family="sans-serif" font-size="12" lengthAdjust="spacingAndGlyphs" textLength="53" x="1197.75" y="1270.1387">Location</text></a><!--class Reconciliation--><a target="_top" xlink:actuate="onRequest" xlink:href="../Reconciliation.html" xlink:show="new" xlink:title="Process of matching different documents submitted by parties to a trade." xlink:type="simple"><rect fill="#EEEEEE" filter="url(#fw3atzt4jo6tp)" height="23.9688" id="Reconciliation" style="stroke: #A80036; stroke-width: 1.5;" width="93" x="1508.75" y="1168"/><rect fill="#EEEEEE" height="23.9688" style="stroke: #A80036; stroke-width: 1.5;" width="93" x="1508.75" y="1168"/><text fill="#000000" font-family="sans-serif" font-size="12" lengthAdjust="spacingAndGlyphs" textLength="87" x="1511.75" y="1184.1387">Reconciliation</text></a><!--class LetterOfCredit--><a target="_top" xlink:actuate="onRequest" xlink:href="../LetterOfCredit.html" xlink:show="new" xlink:title="Instrument issued by a bank substituting its name and credit standing for that of its customer. A letter of credit is a written undertaking of the bank, issued for the account of a customer (the applicant), to honour a demand for payment, upon the beneficiary's compliance with the terms and conditions set forth in the undertaking." xlink:type="simple"><rect fill="#EEEEEE" filter="url(#fw3atzt4jo6tp)" height="23.9688" id="LetterOfCredit" style="stroke: #A80036; stroke-width: 1.5;" width="93" x="1508.75" y="1082"/><rect fill="#EEEEEE" height="23.9688" style="stroke: #A80036; stroke-width: 1.5;" width="93" x="1508.75" y="1082"/><text fill="#000000" font-family="sans-serif" font-size="12" lengthAdjust="spacingAndGlyphs" textLength="87" x="1511.75" y="1098.1387">LetterOfCredit</text></a><!--class DocumentPartyRole--><a target="_top" xlink:actuate="onRequest" xlink:href="../DocumentPartyRole.html" xlink:show="new" xlink:title="Role played by a party in the context of a document." xlink:type="simple"><rect fill="#EEEEEE" filter="url(#fw3atzt4jo6tp)" height="23.9688" id="DocumentPartyRole" style="stroke: #A80036; stroke-width: 1.5;" width="129" x="1472.75" y="996"/><rect fill="#EEEEEE" height="23.9688" style="stroke: #A80036; stroke-width: 1.5;" width="129" x="1472.75" y="996"/><text fill="#000000" font-family="sans-serif" font-size="12" lengthAdjust="spacingAndGlyphs" textLength="123" x="1475.75" y="1012.1387">DocumentPartyRole</text></a><!--class Transport--><a target="_top" xlink:actuate="onRequest" xlink:href="../Transport.html" xlink:show="new" xlink:title="Moving of goods or people from one place to another by vehicle." xlink:type="simple"><rect fill="#EEEEEE" filter="url(#fw3atzt4jo6tp)" height="23.9688" id="Transport" style="stroke: #A80036; stroke-width: 1.5;" width="67" x="938.75" y="892"/><rect fill="#EEEEEE" height="23.9688" style="stroke: #A80036; stroke-width: 1.5;" width="67" x="938.75" y="892"/><text fill="#000000" font-family="sans-serif" font-size="12" lengthAdjust="spacingAndGlyphs" textLength="61" x="941.75" y="908.1387">Transport</text></a><!--class Guarantee--><a target="_top" xlink:actuate="onRequest" xlink:href="../Guarantee.html" xlink:show="new" xlink:title="Partial or full coverage of amounts by a party other than the debtor." xlink:type="simple"><rect fill="#EEEEEE" filter="url(#fw3atzt4jo6tp)" height="23.9688" id="Guarantee" style="stroke: #A80036; stroke-width: 1.5;" width="73" x="957.75" y="790"/><rect fill="#EEEEEE" height="23.9688" style="stroke: #A80036; stroke-width: 1.5;" width="73" x="957.75" y="790"/><text fill="#000000" font-family="sans-serif" font-size="12" lengthAdjust="spacingAndGlyphs" textLength="67" x="960.75" y="806.1387">Guarantee</text></a><!--class GenericIdentification--><a target="_top" xlink:actuate="onRequest" xlink:href="../GenericIdentification.html" xlink:show="new" xlink:title="Information related to a non-standardised identification, such as a proprietary party identification or account identification." xlink:type="simple"><rect fill="#EEEEEE" filter="url(#fw3atzt4jo6tp)" height="23.9688" id="GenericIdentification" style="stroke: #A80036; stroke-width: 1.5;" width="135" x="1212.75" y="688"/><rect fill="#EEEEEE" height="23.9688" style="stroke: #A80036; stroke-width: 1.5;" width="135" x="1212.75" y="688"/><text fill="#000000" font-family="sans-serif" font-size="12" lengthAdjust="spacingAndGlyphs" textLength="129" x="1215.75" y="704.1387">GenericIdentification</text></a><!--class Evidence--><a target="_top" xlink:actuate="onRequest" xlink:href="../Evidence.html" xlink:show="new" xlink:title="Element such as signature that can be used to prove a fact." xlink:type="simple"><rect fill="#EEEEEE" filter="url(#fw3atzt4jo6tp)" height="23.9688" id="Evidence" style="stroke: #A80036; stroke-width: 1.5;" width="62" x="1262.5" y="586"/><rect fill="#EEEEEE" height="23.9688" style="stroke: #A80036; stroke-width: 1.5;" width="62" x="1262.5" y="586"/><text fill="#000000" font-family="sans-serif" font-size="12" lengthAdjust="spacingAndGlyphs" textLength="56" x="1265.5" y="602.1387">Evidence</text></a><!--class CommercialTrade--><a target="_top" xlink:actuate="onRequest" xlink:href="../CommercialTrade.html" xlink:show="new" xlink:title="Commercial details of a trade transaction between a buyer and a seller." xlink:type="simple"><rect fill="#EEEEEE" filter="url(#fw3atzt4jo6tp)" height="23.9688" id="CommercialTrade" style="stroke: #A80036; stroke-width: 1.5;" width="114" x="1008" y="437"/><rect fill="#EEEEEE" height="23.9688" style="stroke: #A80036; stroke-width: 1.5;" width="114" x="1008" y="437"/><text fill="#000000" font-family="sans-serif" font-size="12" lengthAdjust="spacingAndGlyphs" textLength="108" x="1011" y="453.1387">CommercialTrade</text></a><!--class Presentation--><a target="_top" xlink:actuate="onRequest" xlink:href="../Presentation.html" xlink:show="new" xlink:title="Presentation of documents." xlink:type="simple"><rect fill="#EEEEEE" filter="url(#fw3atzt4jo6tp)" height="23.9688" id="Presentation" style="stroke: #A80036; stroke-width: 1.5;" width="87" x="1109.75" y="892"/><rect fill="#EEEEEE" height="23.9688" style="stroke: #A80036; stroke-width: 1.5;" width="87" x="1109.75" y="892"/><text fill="#000000" font-family="sans-serif" font-size="12" lengthAdjust="spacingAndGlyphs" textLength="81" x="1112.75" y="908.1387">Presentation</text></a><!--class RegisteredContract--><a target="_top" xlink:actuate="onRequest" xlink:href="../RegisteredContract.html" xlink:show="new" xlink:title="Contract registered for regulatory purpose by a registration agent for the journaling of payments made against the contract." xlink:type="simple"><rect fill="#EEEEEE" filter="url(#fw3atzt4jo6tp)" height="23.9688" id="RegisteredContract" style="stroke: #A80036; stroke-width: 1.5;" width="128" x="1189" y="790"/><rect fill="#EEEEEE" height="23.9688" style="stroke: #A80036; stroke-width: 1.5;" width="128" x="1189" y="790"/><text fill="#000000" font-family="sans-serif" font-size="12" lengthAdjust="spacingAndGlyphs" textLength="122" x="1192" y="806.1387">RegisteredContract</text></a><!--entity ##6163--><!--class ChequeIssue--><a target="_top" xlink:actuate="onRequest" xlink:href="../ChequeIssue.html" xlink:show="new" xlink:title="Action to issue a cheque in order to settle an amount due to a creditor." xlink:type="simple"><rect fill="#EEEEEE" filter="url(#fw3atzt4jo6tp)" height="23.9688" id="ChequeIssue" style="stroke: #A80036; stroke-width: 1.5;" width="87" x="373.75" y="892"/><rect fill="#EEEEEE" height="23.9688" style="stroke: #A80036; stroke-width: 1.5;" width="87" x="373.75" y="892"/><text fill="#000000" font-family="sans-serif" font-size="12" lengthAdjust="spacingAndGlyphs" textLength="81" x="376.75" y="908.1387">ChequeIssue</text></a><!--class ChequePayment--><a target="_top" xlink:actuate="onRequest" xlink:href="../ChequePayment.html" xlink:show="new" xlink:title="Payment made by drawing a cheque in order to settle a debt." xlink:type="simple"><rect fill="#EEEEEE" filter="url(#fw3atzt4jo6tp)" height="23.9688" id="ChequePayment" style="stroke: #A80036; stroke-width: 1.5;" width="108" x="371" y="790"/><rect fill="#EEEEEE" height="23.9688" style="stroke: #A80036; stroke-width: 1.5;" width="108" x="371" y="790"/><text fill="#000000" font-family="sans-serif" font-size="12" lengthAdjust="spacingAndGlyphs" textLength="102" x="374" y="806.1387">ChequePayment</text></a><!--class ChequePartyRole--><a target="_top" xlink:actuate="onRequest" xlink:href="../ChequePartyRole.html" xlink:show="new" xlink:title="Role played by a party in the context of a payment by cheque." xlink:type="simple"><rect fill="#EEEEEE" filter="url(#fw3atzt4jo6tp)" height="23.9688" id="ChequePartyRole" style="stroke: #A80036; stroke-width: 1.5;" width="113" x="371.75" y="688"/><rect fill="#EEEEEE" height="23.9688" style="stroke: #A80036; stroke-width: 1.5;" width="113" x="371.75" y="688"/><text fill="#000000" font-family="sans-serif" font-size="12" lengthAdjust="spacingAndGlyphs" textLength="107" x="374.75" y="704.1387">ChequePartyRole</text></a><!--class CashAccount--><a target="_top" xlink:actuate="onRequest" xlink:href="../CashAccount.html" xlink:show="new" xlink:title="Account to or from which a cash entry is made." xlink:type="simple"><rect fill="#EEEEEE" filter="url(#fw3atzt4jo6tp)" height="23.9688" id="CashAccount" style="stroke: #A80036; stroke-width: 1.5;" width="88" x="397.5" y="586"/><rect fill="#EEEEEE" height="23.9688" style="stroke: #A80036; stroke-width: 1.5;" width="88" x="397.5" y="586"/><text fill="#000000" font-family="sans-serif" font-size="12" lengthAdjust="spacingAndGlyphs" textLength="82" x="400.5" y="602.1387">CashAccount</text></a><!--link Document to FinancialDocument--><path d="M405.163,233.82 C404.083,257.44 403.089,279.19 402.513,291.77 " fill="none" id="Document-FinancialDocument" style="stroke: #A80036; stroke-width: 1.0;"/><polygon fill="none" points="398.176,233.37,406.082,213.71,412.161,234,398.176,233.37" style="stroke: #A80036; stroke-width: 1.0;"/><!--link FinancialDocument to Cheque--><path d="M401.124,336.32 C400.648,353.33 400.047,374.83 399.499,394.42 " fill="none" id="FinancialDocument-Cheque" style="stroke: #A80036; stroke-width: 1.0;"/><polygon fill="none" points="394.13,336.02,401.686,316.22,408.124,336.41,394.13,336.02" style="stroke: #A80036; stroke-width: 1.0;"/><!--link PaymentObligation to ContactPoint--><!--link ContactPoint to PaymentObligation--><path d="M1454.46,139.12 C1455.35,162.08 1457.11,216.41 1456,262 C1455.8,270.06 1455.39,279.01 1454.99,286.48 " fill="none" id="ContactPoint-PaymentObligation" style="stroke: #A80036; stroke-width: 1.0;"/><polygon fill="#A80036" points="1454.69,291.87,1459.1733,283.1008,1454.9618,286.8774,1451.1852,282.6659,1454.69,291.87" style="stroke: #A80036; stroke-width: 1.0;"/><text fill="#000000" font-family="sans-serif" font-size="13" lengthAdjust="spacingAndGlyphs" textLength="178" x="1457" y="257.0669">RemittanceRelatedPayment</text><text fill="#000000" font-family="sans-serif" font-size="13" lengthAdjust="spacingAndGlyphs" textLength="24" x="1425.3725" y="280.8735">0..1</text><!--link Agreement to PaymentObligation--><!--link Location to Agreement--><!--link Reconciliation to Location--><!--link LetterOfCredit to Reconciliation--><!--link DocumentPartyRole to LetterOfCredit--><!--link Transport to DocumentPartyRole--><!--link Guarantee to Transport--><!--link GenericIdentification to Guarantee--><!--link Evidence to GenericIdentification--><!--link CommercialTrade to Evidence--><!--link Presentation to CommercialTrade--><!--link RegisteredContract to Presentation--><!--link ChequePayment to ChequeIssue--><!--link ChequePartyRole to ChequePayment--><!--link CashAccount to ChequePartyRole--><!--link Document to ContactPoint--><path d="M534.377,127 C765.08,127 1249.95,127 1405.13,127 " fill="none" id="Document-ContactPoint" style="stroke: #A80036; stroke-width: 1.0;"/><polygon fill="#A80036" points="1410.51,127,1401.51,123,1405.51,127,1401.51,131,1410.51,127" style="stroke: #A80036; stroke-width: 1.0;"/><text fill="#000000" font-family="sans-serif" font-size="13" lengthAdjust="spacingAndGlyphs" textLength="99" x="922.25" y="119.0669">PlaceOfStorage</text><text fill="#000000" font-family="sans-serif" font-size="13" lengthAdjust="spacingAndGlyphs" textLength="7" x="1395.7263" y="121.8831">*</text><!--link Document to PaymentObligation--><path d="M534.549,168.93 C589.85,185.53 656.083,203.27 717,214 C891.267,244.68 943.441,196.88 1114,244 C1131.24,248.76 1132.9,256.73 1150,262 C1229.33,286.44 1324.75,296.32 1387.27,300.31 " fill="none" id="Document-PaymentObligation" style="stroke: #A80036; stroke-width: 1.0;"/><polygon fill="#A80036" points="1392.46,300.63,1383.7287,296.0733,1387.4698,300.3163,1383.2268,304.0575,1392.46,300.63" style="stroke: #A80036; stroke-width: 1.0;"/><text fill="#000000" font-family="sans-serif" font-size="13" lengthAdjust="spacingAndGlyphs" textLength="121" x="1151" y="257.0669">PaymentObligation</text><text fill="#000000" font-family="sans-serif" font-size="13" lengthAdjust="spacingAndGlyphs" textLength="24" x="1360.799" y="295.647">0..1</text><!--link Document to Agreement--><path d="M534.395,169.85 C589.667,186.61 655.921,204.24 717,214 C1017.48,262.02 1103.07,182.12 1401,244 C1422.9,248.55 1426.38,256.27 1448,262 C1532.76,284.47 1565.94,250.15 1643,292 C1856.45,407.916 1842,558.103 1842,801 C1842,801 1842,801 1842,1267 C1842,1336.1539 1740.53,1349.5454 1680.71,1351.4322 " fill="none" id="Document-Agreement" style="stroke: #A80036; stroke-width: 1.0;"/><polygon fill="#A80036" points="1675.42,1351.5728,1684.5199,1355.34,1680.4183,1351.4442,1684.3142,1347.3427,1675.42,1351.5728" style="stroke: #A80036; stroke-width: 1.0;"/><text fill="#000000" font-family="sans-serif" font-size="13" lengthAdjust="spacingAndGlyphs" textLength="72" x="1843" y="857.0669">Agreement</text><text fill="#000000" font-family="sans-serif" font-size="13" lengthAdjust="spacingAndGlyphs" textLength="7" x="1683.8082" y="1345.8154">*</text><!--link Document to Location--><path d="M456.733,213.68 C482.145,264.55 511.479,331.19 527,394 C565.048,547.981 552,591.388 552,750 C552,750 552,750 552,1181 C552,1245.933 1052.4,1261.351 1189.58,1264.358 " fill="none" id="Document-Location" style="stroke: #A80036; stroke-width: 1.0;"/><polygon fill="#A80036" points="1194.69,1264.468,1185.7718,1260.2888,1189.691,1264.368,1185.6118,1268.2872,1194.69,1264.468" style="stroke: #A80036; stroke-width: 1.0;"/><text fill="#000000" font-family="sans-serif" font-size="13" lengthAdjust="spacingAndGlyphs" textLength="81" x="553" y="806.0669">PlaceOfIssue</text><text fill="#000000" font-family="sans-serif" font-size="13" lengthAdjust="spacingAndGlyphs" textLength="24" x="1162.641" y="1258.8869">0..1</text><!--link Document to Reconciliation--><path d="M534.408,169.77 C589.683,186.52 655.935,204.15 717,214 C999.44,259.54 1080.65,182.27 1360,244 C1380.63,248.56 1383.63,256.39 1404,262 C1490.66,285.85 1528.44,243.32 1604,292 C1664.24,330.81 1729,447.685 1729,544 C1729,544 1729,544 1729,1095 C1729,1149.808 1658.12,1168.872 1606.84,1175.492 " fill="none" id="Document-Reconciliation" style="stroke: #A80036; stroke-width: 1.0;"/><polygon fill="#A80036" points="1601.63,1176.131,1611.045,1179.0219,1606.5939,1175.5309,1610.0848,1171.0797,1601.63,1176.131" style="stroke: #A80036; stroke-width: 1.0;"/><text fill="#000000" font-family="sans-serif" font-size="13" lengthAdjust="spacingAndGlyphs" textLength="87" x="1730" y="755.0669">Reconciliation</text><text fill="#000000" font-family="sans-serif" font-size="13" lengthAdjust="spacingAndGlyphs" textLength="7" x="1609.8914" y="1170.1629">*</text><!--link Document to LetterOfCredit--><path d="M534.346,174.12 C586.382,202.16 635,244.11 635,303 C635,303 635,303 635,546 C635,620.747 648.921,638.406 662,712 C673.088,774.391 689,788.631 689,852 C689,852 689,852 689,1009 C689,1093.28 1360.12,1073.789 1444,1082 C1463.38,1083.897 1484.66,1086.001 1503.36,1087.856 " fill="none" id="Document-LetterOfCredit" style="stroke: #A80036; stroke-width: 1.0;"/><polygon fill="#A80036" points="1508.56,1088.373,1499.9912,1083.5175,1503.5837,1087.8872,1499.214,1091.4797,1508.56,1088.373" style="stroke: #A80036; stroke-width: 1.0;"/><text fill="#000000" font-family="sans-serif" font-size="13" lengthAdjust="spacingAndGlyphs" textLength="90" x="663" y="704.0669">LetterOfCredit</text><text fill="#000000" font-family="sans-serif" font-size="13" lengthAdjust="spacingAndGlyphs" textLength="8" x="1492.6142" y="1082.5526">1</text><!--link Document to DocumentPartyRole--><path d="M534.423,169.67 C589.7,186.41 655.95,204.06 717,214 C981.403,257.07 1057.51,185.79 1319,244 C1339.62,248.59 1342.63,256.39 1363,262 C1449.23,285.77 1482.94,250.16 1562,292 C1590.91,307.3 1598.74,316.1 1612,346 C1613.99,350.5 1643,694.078 1643,699 C1643,699 1643,699 1643,905 C1643,947.355 1598.51,977.64 1567.18,993.718 " fill="none" id="Document-DocumentPartyRole" style="stroke: #A80036; stroke-width: 1.0;"/><polygon fill="#A80036" points="1562.66,995.987,1572.498,995.5247,1567.1287,993.7441,1568.9093,988.3748,1562.66,995.987" style="stroke: #A80036; stroke-width: 1.0;"/><text fill="#000000" font-family="sans-serif" font-size="13" lengthAdjust="spacingAndGlyphs" textLength="60" x="1640" y="653.0669">PartyRole</text><text fill="#000000" font-family="sans-serif" font-size="13" lengthAdjust="spacingAndGlyphs" textLength="7" x="1561.8478" y="985.0307">*</text><!--link Document to Transport--><path d="M534.573,160.45 C580.321,178.18 628.756,204.79 661,244 C751.468,354.01 728.882,762.705 831,862 C858.299,888.544 901.739,898.071 933.194,901.402 " fill="none" id="Document-Transport" style="stroke: #A80036; stroke-width: 1.0;"/><polygon fill="#A80036" points="938.527,901.92,929.9568,897.067,933.5505,901.4356,929.1818,905.0293,938.527,901.92" style="stroke: #A80036; stroke-width: 1.0;"/><text fill="#000000" font-family="sans-serif" font-size="13" lengthAdjust="spacingAndGlyphs" textLength="61" x="751" y="602.0669">Transport</text><text fill="#000000" font-family="sans-serif" font-size="13" lengthAdjust="spacingAndGlyphs" textLength="8" x="922.6295" y="896.1169">1</text><!--link Document to Guarantee--><path d="M534.324,162.9 C647.783,195.03 798.54,238.51 803,244 C846.572,297.65 778.778,505.484 828,554 C847.192,572.917 928.836,544.123 949,562 C1014.44,620.021 1003.442,740.624 996.86,784.546 " fill="none" id="Document-Guarantee" style="stroke: #A80036; stroke-width: 1.0;"/><polygon fill="#A80036" points="996.046,789.75,1001.389,781.4764,996.8188,784.8101,993.4852,780.2399,996.046,789.75" style="stroke: #A80036; stroke-width: 1.0;"/><text fill="#000000" font-family="sans-serif" font-size="13" lengthAdjust="spacingAndGlyphs" textLength="68" x="829" y="549.0669">Guarantee</text><text fill="#000000" font-family="sans-serif" font-size="13" lengthAdjust="spacingAndGlyphs" textLength="7" x="987.1503" y="778.9706">*</text><!--link Document to GenericIdentification--><path d="M534.376,167.75 C589.788,184.18 656.155,202.13 717,214 C833.769,236.79 866.643,219.19 983,244 C1051.87,258.68 1074.94,253.65 1134,292 C1169.91,315.32 1161.54,341.55 1198,364 C1242.25,391.24 1264.52,370.77 1311,394 C1397.05,437.013 1396.95,481.19 1481,528 C1490.09,533.062 1497.03,527.478 1503,536 C1554.89,610.083 1409.27,663.481 1329.01,686.462 " fill="none" id="Document-GenericIdentification" style="stroke: #A80036; stroke-width: 1.0;"/><polygon fill="#A80036" points="1323.82,687.931,1333.568,689.3368,1328.6321,686.5733,1331.3956,681.6374,1323.82,687.931" style="stroke: #A80036; stroke-width: 1.0;"/><text fill="#000000" font-family="sans-serif" font-size="13" lengthAdjust="spacingAndGlyphs" textLength="148" x="1482" y="453.0669">DocumentIdentification</text><text fill="#000000" font-family="sans-serif" font-size="13" lengthAdjust="spacingAndGlyphs" textLength="8" x="1328.0784" y="676.9555">1</text><!--link Document to Evidence--><path d="M534.44,169.57 C589.721,186.28 655.969,203.95 717,214 C963.369,254.59 1034.38,189.3 1278,244 C1298.62,248.63 1301.61,256.47 1322,262 C1367.71,274.39 1500.41,257.63 1533,292 C1552.7,312.78 1545.23,523.757 1542,528 C1516.18,561.947 1391.34,583.533 1328.82,592.391 " fill="none" id="Document-Evidence" style="stroke: #A80036; stroke-width: 1.0;"/><polygon fill="#A80036" points="1323.7,593.108,1333.1636,595.8356,1328.6527,592.4221,1332.0662,587.9112,1323.7,593.108" style="stroke: #A80036; stroke-width: 1.0;"/><text fill="#000000" font-family="sans-serif" font-size="13" lengthAdjust="spacingAndGlyphs" textLength="57" x="1545" y="359.0669">Evidence</text><text fill="#000000" font-family="sans-serif" font-size="13" lengthAdjust="spacingAndGlyphs" textLength="7" x="1332.3356" y="585.7642">*</text><!--link Document to CommercialTrade--><path d="M534.483,167.22 C589.915,183.55 656.268,201.56 717,214 C817.129,234.5 859.786,187.57 945,244 C1014.83,290.25 1049.54,392.19 1060.78,431.809 " fill="none" id="Document-CommercialTrade" style="stroke: #A80036; stroke-width: 1.0;"/><polygon fill="#A80036" points="1062.16,436.757,1063.613,427.0159,1060.8256,431.9383,1055.9032,429.1509,1062.16,436.757" style="stroke: #A80036; stroke-width: 1.0;"/><text fill="#000000" font-family="sans-serif" font-size="13" lengthAdjust="spacingAndGlyphs" textLength="113" x="1011" y="308.0669">CommercialTrade</text><text fill="#000000" font-family="sans-serif" font-size="13" lengthAdjust="spacingAndGlyphs" textLength="7" x="1051.7286" y="425.9799">*</text><!--link Document to Presentation--><path d="M534.5,157.96 C588.441,175.86 649.327,203.28 694,244 C802.6,343 727.545,431.689 809,554 C811.966,558.454 814.826,557.691 818,562 C842.893,595.789 857,606.031 857,648 C857,648 857,648 857,803 C857,854.602 1020.51,884.739 1104.47,896.813 " fill="none" id="Document-Presentation" style="stroke: #A80036; stroke-width: 1.0;"/><polygon fill="#A80036" points="1109.64,897.548,1101.2887,892.3272,1104.6893,896.8479,1100.1686,900.2484,1109.64,897.548" style="stroke: #A80036; stroke-width: 1.0;"/><text fill="#000000" font-family="sans-serif" font-size="13" lengthAdjust="spacingAndGlyphs" textLength="81" x="852" y="602.0669">Presentation</text><text fill="#000000" font-family="sans-serif" font-size="13" lengthAdjust="spacingAndGlyphs" textLength="24" x="1077.7407" y="891.8026">0..1</text><!--link Document to RegisteredContract--><path d="M534.552,163.57 C590.286,179.31 656.857,197.87 717,214 C768.849,227.91 791.583,211.1 834,244 C947.79,332.27 870.363,447.836 990,528 C1016.38,545.677 1033.7,519.787 1061,536 C1165.53,598.071 1143.56,663.881 1218,760 C1224.77,768.741 1232.74,778.144 1239.37,785.738 " fill="none" id="Document-RegisteredContract" style="stroke: #A80036; stroke-width: 1.0;"/><polygon fill="#A80036" points="1242.9,789.755,1239.9681,780.3527,1239.6012,785.9976,1233.9563,785.6307,1242.9,789.755" style="stroke: #A80036; stroke-width: 1.0;"/><text fill="#000000" font-family="sans-serif" font-size="13" lengthAdjust="spacingAndGlyphs" textLength="103" x="1089" y="549.0669">RelatedContract</text><text fill="#000000" font-family="sans-serif" font-size="13" lengthAdjust="spacingAndGlyphs" textLength="8" x="1228.8981" y="778.9773">1</text><!--link Cheque to ChequeIssue--><path d="M285.669,469.575 C169.833,493.038 6,536.855 6,597 C6,597 6,597 6,803 C6,876.825 259.517,896.371 368.334,901.36 " fill="none" id="Cheque-ChequeIssue" style="stroke: #A80036; stroke-width: 1.0;"/><polygon fill="#A80036" points="373.405,901.587,364.5922,897.1899,368.41,901.3642,364.2357,905.1819,373.405,901.587" style="stroke: #A80036; stroke-width: 1.0;"/><text fill="#000000" font-family="sans-serif" font-size="13" lengthAdjust="spacingAndGlyphs" textLength="100" x="7" y="704.0669">ChequeDelivery</text><text fill="#000000" font-family="sans-serif" font-size="13" lengthAdjust="spacingAndGlyphs" textLength="8" x="357.8415" y="896.1985">1</text><!--link Cheque to ChequePayment--><path d="M285.679,497.542 C213.758,535.412 140.391,592.769 178,658 C220.368,731.485 316.522,770.635 375.583,788.51 " fill="none" id="Cheque-ChequePayment" style="stroke: #A80036; stroke-width: 1.0;"/><polygon fill="#A80036" points="380.474,789.967,372.9916,783.5629,375.6823,788.5388,370.7064,791.2295,380.474,789.967" style="stroke: #A80036; stroke-width: 1.0;"/><text fill="#000000" font-family="sans-serif" font-size="13" lengthAdjust="spacingAndGlyphs" textLength="105" x="179" y="653.0669">RelatedPayment</text><text fill="#000000" font-family="sans-serif" font-size="13" lengthAdjust="spacingAndGlyphs" textLength="7" x="356.2341" y="779.2595">*</text><!--link Cheque to ChequePartyRole--><path d="M310.945,503.526 C274.171,533.231 244.475,571.811 267,610 C290.836,650.412 340.333,673.751 378.19,686.304 " fill="none" id="Cheque-ChequePartyRole" style="stroke: #A80036; stroke-width: 1.0;"/><polygon fill="#A80036" points="383.216,687.93,375.8836,681.3545,378.4586,686.3914,373.4218,688.9663,383.216,687.93" style="stroke: #A80036; stroke-width: 1.0;"/><text fill="#000000" font-family="sans-serif" font-size="13" lengthAdjust="spacingAndGlyphs" textLength="109" x="268" y="602.0669">ChequePartyRole</text><text fill="#000000" font-family="sans-serif" font-size="13" lengthAdjust="spacingAndGlyphs" textLength="7" x="358.1887" y="676.9542">*</text><!--link Cheque to CashAccount--><path d="M413.767,503.903 C421.786,531.316 430.953,562.652 436.343,581.081 " fill="none" id="Cheque-CashAccount" style="stroke: #A80036; stroke-width: 1.0;"/><polygon fill="#A80036" points="437.76,585.923,439.0746,576.1623,436.3574,581.1238,431.3959,578.4065,437.76,585.923" style="stroke: #A80036; stroke-width: 1.0;"/><text fill="#000000" font-family="sans-serif" font-size="13" lengthAdjust="spacingAndGlyphs" textLength="84" x="430" y="549.0669">CashAccount</text><text fill="#000000" font-family="sans-serif" font-size="13" lengthAdjust="spacingAndGlyphs" textLength="8" x="425.7556" y="574.9447">1</text><!--link ContactPoint to GenericIdentification--><path d="M1447.93,139.31 C1433.96,165.61 1398.88,233.13 1375,292 C1368.66,307.63 1363.5,352.67 1351,364 C1306.42,404.401 1256.53,346.98 1219,394 C1181.85,440.545 1210.22,469.095 1219,528 C1224.62,565.684 1231.29,574.082 1244,610 C1253.2,635.996 1265.54,665.563 1273.13,683.228 " fill="none" id="ContactPoint-GenericIdentification" style="stroke: #A80036; stroke-width: 1.0;"/><polygon fill="#A80036" points="1275.13,687.882,1275.2373,678.0337,1273.1492,683.2911,1267.8918,681.203,1275.13,687.882" style="stroke: #A80036; stroke-width: 1.0;"/><text fill="#000000" font-family="sans-serif" font-size="13" lengthAdjust="spacingAndGlyphs" textLength="81" x="1220" y="453.0669">Identification</text><text fill="#000000" font-family="sans-serif" font-size="13" lengthAdjust="spacingAndGlyphs" textLength="8" x="1262.6513" y="676.8897">1</text><!--link ContactPoint to ContactPoint--><path d="M1467.42,114.8 C1494.64,96.23 1532,100.3 1532,127 C1532,152.24 1498.61,157.26 1471.97,142.05 " fill="none" id="ContactPoint-ContactPoint" style="stroke: #A80036; stroke-width: 1.0;"/><polygon fill="#A80036" points="1467.42,139.2,1472.9443,147.3536,1471.664,141.8436,1477.1741,140.5632,1467.42,139.2" style="stroke: #A80036; stroke-width: 1.0;"/><text fill="#000000" font-family="sans-serif" font-size="13" lengthAdjust="spacingAndGlyphs" textLength="80" x="1538" y="131.0669">MainContact</text><text fill="#000000" font-family="sans-serif" font-size="13" lengthAdjust="spacingAndGlyphs" textLength="8" x="1461.6369" y="159.0561">1</text><!--link PaymentObligation to CommercialTrade--><path d="M1392.63,311.55 C1348.67,317.46 1288.54,328.06 1238,346 C1195.65,361.03 1187.71,371.17 1149,394 C1127.16,406.883 1102.86,422.67 1086.04,433.839 " fill="none" id="PaymentObligation-CommercialTrade" style="stroke: #A80036; stroke-width: 1.0;"/><polygon fill="#A80036" points="1081.5,436.86,1091.2083,435.2021,1085.662,434.0891,1086.7749,428.5428,1081.5,436.86" style="stroke: #A80036; stroke-width: 1.0;"/><text fill="#000000" font-family="sans-serif" font-size="13" lengthAdjust="spacingAndGlyphs" textLength="113" x="1239" y="359.0669">CommercialTrade</text><text fill="#000000" font-family="sans-serif" font-size="13" lengthAdjust="spacingAndGlyphs" textLength="8" x="1076.4531" y="425.8601">1</text><!--link Agreement to CommercialTrade--><path d="M1638,1339.8581 C1638,1323.7715 1638,1293.104 1638,1267 C1638,1050 1638,1050 1638,1050 C1638,1024.558 1635.76,1015.138 1619,996 C1599.62,973.871 1581.07,986.526 1560,966 C1413.69,823.495 1502.12,687.517 1341,562 C1304.09,533.249 1284.75,545.793 1239,536 C1218.71,531.656 1212.42,535.305 1193,528 C1150.81,512.132 1107.11,482.026 1083.26,464.216 " fill="none" id="Agreement-CommercialTrade" style="stroke: #A80036; stroke-width: 1.0;"/><polygon fill="#A80036" points="1079.04,461.039,1083.8341,469.6423,1083.0379,464.0417,1088.6385,463.2456,1079.04,461.039" style="stroke: #A80036; stroke-width: 1.0;"/><text fill="#000000" font-family="sans-serif" font-size="13" lengthAdjust="spacingAndGlyphs" textLength="36" x="1561" y="961.0669">Trade</text><text fill="#000000" font-family="sans-serif" font-size="13" lengthAdjust="spacingAndGlyphs" textLength="8" x="1073.769" y="481.1996">1</text><!--link Location to Transport--><path d="M1194.68,1262.292 C1123.99,1254.958 950,1231.75 950,1181 C950,1007 950,1007 950,1007 C950,976.069 959.786,941.024 966.305,921.112 " fill="none" id="Location-Transport" style="stroke: #A80036; stroke-width: 1.0;"/><polygon fill="#A80036" points="967.965,916.15,961.317,923.4166,966.3791,920.8918,968.9039,925.954,967.965,916.15" style="stroke: #A80036; stroke-width: 1.0;"/><text fill="#000000" font-family="sans-serif" font-size="13" lengthAdjust="spacingAndGlyphs" textLength="201" x="951" y="1098.0669">DepartureTransportParameters</text><text fill="#000000" font-family="sans-serif" font-size="13" lengthAdjust="spacingAndGlyphs" textLength="24" x="936.159" y="935.9864">0..1</text><!--link Location to Transport--><path d="M1224,1253.858 C1224,1237.771 1224,1207.104 1224,1181 C1224,1007 1224,1007 1224,1007 C1224,984.242 1080.96,937.879 1010.41,916.397 " fill="none" id="Location-Transport" style="stroke: #A80036; stroke-width: 1.0;"/><polygon fill="#A80036" points="1005.464,914.894,1012.9081,921.3427,1010.2471,916.3508,1015.239,913.6897,1005.464,914.894" style="stroke: #A80036; stroke-width: 1.0;"/><text fill="#000000" font-family="sans-serif" font-size="13" lengthAdjust="spacingAndGlyphs" textLength="209" x="1225" y="1098.0669">DestinationTransportParameters</text><text fill="#000000" font-family="sans-serif" font-size="13" lengthAdjust="spacingAndGlyphs" textLength="24" x="1013.8003" y="911.4174">0..1</text><!--link Location to Transport--><path d="M1194.43,1262.701 C1093.38,1254.454 768,1224.52 768,1181 C768,1007 768,1007 768,1007 C768,933.97 873.884,913.226 933.085,907.335 " fill="none" id="Location-Transport" style="stroke: #A80036; stroke-width: 1.0;"/><polygon fill="#A80036" points="938.314,906.841,928.9779,903.7046,933.3361,907.3109,929.7298,911.6692,938.314,906.841" style="stroke: #A80036; stroke-width: 1.0;"/><text fill="#000000" font-family="sans-serif" font-size="13" lengthAdjust="spacingAndGlyphs" textLength="109" x="769" y="1098.0669">RelatedTransport</text><text fill="#000000" font-family="sans-serif" font-size="13" lengthAdjust="spacingAndGlyphs" textLength="8" x="922.8652" y="920.6342">1</text><!--link Location to GenericIdentification--><path d="M1253.39,1254.164 C1303.4,1233.919 1403.57,1185.099 1444,1106 C1466.82,1061.357 1398.25,1062.084 1371,1020 C1355.4,995.915 1353,986.693 1353,958 C1353,801 1353,801 1353,801 C1353,774.684 1361.9,764.347 1348,742 C1340.41,729.802 1327.74,720.741 1315.37,714.284 " fill="none" id="Location-GenericIdentification" style="stroke: #A80036; stroke-width: 1.0;"/><polygon fill="#A80036" points="1310.84,712.022,1317.1117,719.6158,1315.3153,714.2518,1320.6793,712.4554,1310.84,712.022" style="stroke: #A80036; stroke-width: 1.0;"/><text fill="#000000" font-family="sans-serif" font-size="13" lengthAdjust="spacingAndGlyphs" textLength="81" x="1372" y="1012.0669">Identification</text><text fill="#000000" font-family="sans-serif" font-size="13" lengthAdjust="spacingAndGlyphs" textLength="7" x="1313.6021" y="732.1756">*</text><!--link GenericIdentification to RegisteredContract--><path d="M1258.01,712.063 C1246.82,718.992 1234.27,729.07 1228,742 C1220.91,756.62 1230.05,773.764 1239.21,785.792 " fill="none" id="GenericIdentification-RegisteredContract" style="stroke: #A80036; stroke-width: 1.0;"/><polygon fill="#A80036" points="1242.55,789.977,1240.0661,780.4465,1239.4326,786.0678,1233.8113,785.4343,1242.55,789.977" style="stroke: #A80036; stroke-width: 1.0;"/><text fill="#000000" font-family="sans-serif" font-size="13" lengthAdjust="spacingAndGlyphs" textLength="113" x="1229" y="755.0669">RelatedCertificate</text><text fill="#000000" font-family="sans-serif" font-size="13" lengthAdjust="spacingAndGlyphs" textLength="8" x="1240.3328" y="779.0173">1</text><!--link CommercialTrade to CashAccount--><path d="M1050.12,461.32 C1017.12,486.159 938.287,544.023 907,554 C882.955,561.667 705.135,559.724 680,562 C613.914,567.985 538.214,579.943 490.032,588.204 " fill="none" id="CommercialTrade-CashAccount" style="stroke: #A80036; stroke-width: 1.0;"/><polygon fill="#A80036" points="484.877,589.092,494.4252,591.5069,489.8045,588.2436,493.0678,583.6229,484.877,589.092" style="stroke: #A80036; stroke-width: 1.0;"/><text fill="#000000" font-family="sans-serif" font-size="13" lengthAdjust="spacingAndGlyphs" textLength="111" x="940" y="549.0669">PurchaseAccount</text><text fill="#000000" font-family="sans-serif" font-size="13" lengthAdjust="spacingAndGlyphs" textLength="7" x="493.5199" y="581.9644">*</text></g></svg>