<?xml version="1.0" encoding="UTF-8" standalone="no"?><svg xmlns="http://www.w3.org/2000/svg" xmlns:xlink="http://www.w3.org/1999/xlink" contentScriptType="application/ecmascript" contentStyleType="text/css" height="478px" preserveAspectRatio="none" style="width:1013px;height:478px;" version="1.1" viewBox="0 0 1013 478" width="1013px" zoomAndPan="magnify"><defs><filter height="300%" id="f1wo00wyrc9wo7" width="300%" x="-1" y="-1"><feGaussianBlur result="blurOut" stdDeviation="2.0"/><feColorMatrix in="blurOut" result="blurOut2" type="matrix" values="0 0 0 0 0 0 0 0 0 0 0 0 0 0 0 0 0 0 .4 0"/><feOffset dx="4.0" dy="4.0" in="blurOut2" result="blurOut3"/><feBlend in="SourceGraphic" in2="blurOut3" mode="normal"/></filter></defs><g><!--cluster ##18809--><!--cluster ##18827--><!--cluster ##18836--><!--class Role--><a target="_top" xlink:actuate="onRequest" xlink:href="../Role.html" xlink:show="new" xlink:title="Role of a party in an activity." xlink:type="simple"><rect fill="#FEFEEE" filter="url(#f1wo00wyrc9wo7)" height="44.7734" id="Role" style="stroke: #A80036; stroke-width: 1.5;" width="175" x="311.75" y="40.5"/><rect fill="#FEFEEE" height="23.9688" style="stroke: #A80036; stroke-width: 1.5;" width="175" x="311.75" y="40.5"/><text fill="#000000" font-family="sans-serif" font-size="12" lengthAdjust="spacingAndGlyphs" textLength="27" x="385.75" y="56.6387">Role</text><line style="stroke: #A80036; stroke-width: 1.5;" x1="312.75" x2="485.75" y1="64.4688" y2="64.4688"/><ellipse cx="322.75" cy="76.3711" fill="#84BE84" rx="3" ry="3" style="stroke: #038048; stroke-width: 1.0;"/><text fill="#000000" font-family="sans-serif" font-size="11" lengthAdjust="spacingAndGlyphs" textLength="53" x="331.75" y="78.6792">PartyRole</text><text fill="#000000" font-family="sans-serif" font-size="11" font-style="italic" lengthAdjust="spacingAndGlyphs" textLength="92" x="388.75" y="78.6792">(PartyRoleCode)</text></a><!--class CollateralPartyRole--><a target="_top" xlink:actuate="onRequest" xlink:href="../CollateralPartyRole.html" xlink:show="new" xlink:title="Role played by a party in the context of collateral." xlink:type="simple"><rect fill="#FEFECE" filter="url(#f1wo00wyrc9wo7)" height="23.9688" id="CollateralPartyRole" style="stroke: #A80036; stroke-width: 1.5;" width="124" x="289.5" y="166"/><rect fill="#FEFECE" height="23.9688" style="stroke: #A80036; stroke-width: 1.5;" width="124" x="289.5" y="166"/><text fill="#000000" font-family="sans-serif" font-size="12" lengthAdjust="spacingAndGlyphs" textLength="118" x="292.5" y="182.1387">CollateralPartyRole</text></a><!--class ServicingPartyRole--><a target="_top" xlink:actuate="onRequest" xlink:href="../ServicingPartyRole.html" xlink:show="new" xlink:title="Party that is acting on behalf of another party and that offers collateral management services." xlink:type="simple"><rect fill="#FEFEEE" filter="url(#f1wo00wyrc9wo7)" height="23.9688" id="ServicingPartyRole" style="stroke: #A80036; stroke-width: 1.5;" width="121" x="38.75" y="270"/><rect fill="#FEFEEE" height="23.9688" style="stroke: #A80036; stroke-width: 1.5;" width="121" x="38.75" y="270"/><text fill="#000000" font-family="sans-serif" font-size="12" lengthAdjust="spacingAndGlyphs" textLength="115" x="41.75" y="286.1387">ServicingPartyRole</text></a><!--class GiverRole--><a target="_top" xlink:actuate="onRequest" xlink:href="../GiverRole.html" xlink:show="new" xlink:title="Party which provides the collateral. A party can be both a taker and a giver in a collateral relationship." xlink:type="simple"><rect fill="#FEFEEE" filter="url(#f1wo00wyrc9wo7)" height="23.9688" id="GiverRole" style="stroke: #A80036; stroke-width: 1.5;" width="64" x="195" y="270"/><rect fill="#FEFEEE" height="23.9688" style="stroke: #A80036; stroke-width: 1.5;" width="64" x="195" y="270"/><text fill="#000000" font-family="sans-serif" font-size="12" lengthAdjust="spacingAndGlyphs" textLength="58" x="198" y="286.1387">GiverRole</text></a><!--class TakerRole--><a target="_top" xlink:actuate="onRequest" xlink:href="../TakerRole.html" xlink:show="new" xlink:title="Party which receives the collateral. A party can be both a taker and a giver in a collateral relationship." xlink:type="simple"><rect fill="#FEFEEE" filter="url(#f1wo00wyrc9wo7)" height="23.9688" id="TakerRole" style="stroke: #A80036; stroke-width: 1.5;" width="68" x="294" y="270"/><rect fill="#FEFEEE" height="23.9688" style="stroke: #A80036; stroke-width: 1.5;" width="68" x="294" y="270"/><text fill="#000000" font-family="sans-serif" font-size="12" lengthAdjust="spacingAndGlyphs" textLength="62" x="297" y="286.1387">TakerRole</text></a><!--class TripartyAgent--><a target="_top" xlink:actuate="onRequest" xlink:href="../TripartyAgent.html" xlink:show="new" xlink:title="Agent which acts as an intermediary between two parties for the administration of tri-party collateral transactions." xlink:type="simple"><rect fill="#FEFEEE" filter="url(#f1wo00wyrc9wo7)" height="23.9688" id="TripartyAgent" style="stroke: #A80036; stroke-width: 1.5;" width="90" x="397" y="270"/><rect fill="#FEFEEE" height="23.9688" style="stroke: #A80036; stroke-width: 1.5;" width="90" x="397" y="270"/><text fill="#000000" font-family="sans-serif" font-size="12" lengthAdjust="spacingAndGlyphs" textLength="84" x="400" y="286.1387">TripartyAgent</text></a><!--class RolePlayer--><a target="_top" xlink:actuate="onRequest" xlink:href="../RolePlayer.html" xlink:show="new" xlink:title="Type of entity that plays a specific role in a specific context." xlink:type="simple"><rect fill="#EEEEEE" filter="url(#f1wo00wyrc9wo7)" height="23.9688" id="RolePlayer" style="stroke: #A80036; stroke-width: 1.5;" width="71" x="822.75" y="444"/><rect fill="#EEEEEE" height="23.9688" style="stroke: #A80036; stroke-width: 1.5;" width="71" x="822.75" y="444"/><text fill="#000000" font-family="sans-serif" font-size="12" lengthAdjust="spacingAndGlyphs" textLength="65" x="825.75" y="460.1387">RolePlayer</text></a><!--class ContactPersonRole--><a target="_top" xlink:actuate="onRequest" xlink:href="../ContactPersonRole.html" xlink:show="new" xlink:title="Person to be contacted in a given organisation. In the corporate action domain (including meeting notifications) , it is the contact person at the party organising the meeting, at the issuer or at an intermediary." xlink:type="simple"><rect fill="#EEEEEE" filter="url(#f1wo00wyrc9wo7)" height="23.9688" id="ContactPersonRole" style="stroke: #A80036; stroke-width: 1.5;" width="126" x="815" y="358"/><rect fill="#EEEEEE" height="23.9688" style="stroke: #A80036; stroke-width: 1.5;" width="126" x="815" y="358"/><text fill="#000000" font-family="sans-serif" font-size="12" lengthAdjust="spacingAndGlyphs" textLength="120" x="818" y="374.1387">ContactPersonRole</text></a><!--class CounterpartyRisk--><a target="_top" xlink:actuate="onRequest" xlink:href="../CounterpartyRisk.html" xlink:show="new" xlink:title="Calculation of the exposure amount that one party has vis-a-vis one counterparty or a central system, based on its credit risk." xlink:type="simple"><rect fill="#EEEEEE" filter="url(#f1wo00wyrc9wo7)" height="23.9688" id="CounterpartyRisk" style="stroke: #A80036; stroke-width: 1.5;" width="113" x="827.75" y="270"/><rect fill="#EEEEEE" height="23.9688" style="stroke: #A80036; stroke-width: 1.5;" width="113" x="827.75" y="270"/><text fill="#000000" font-family="sans-serif" font-size="12" lengthAdjust="spacingAndGlyphs" textLength="107" x="830.75" y="286.1387">CounterpartyRisk</text></a><!--class Entry--><a target="_top" xlink:actuate="onRequest" xlink:href="../Entry.html" xlink:show="new" xlink:title="Posting to an account that results in an increase or decrease to a balance." xlink:type="simple"><rect fill="#EEEEEE" filter="url(#f1wo00wyrc9wo7)" height="23.9688" id="Entry" style="stroke: #A80036; stroke-width: 1.5;" width="38" x="815" y="166"/><rect fill="#EEEEEE" height="23.9688" style="stroke: #A80036; stroke-width: 1.5;" width="38" x="815" y="166"/><text fill="#000000" font-family="sans-serif" font-size="12" lengthAdjust="spacingAndGlyphs" textLength="32" x="818" y="182.1387">Entry</text></a><!--class Collateral--><a target="_top" xlink:actuate="onRequest" xlink:href="../Collateral.html" xlink:show="new" xlink:title="Assets pledged by a debtor to secure a loan or an exposure and subject to seizure in the event of default." xlink:type="simple"><rect fill="#EEEEEE" filter="url(#f1wo00wyrc9wo7)" height="23.9688" id="Collateral" style="stroke: #A80036; stroke-width: 1.5;" width="65" x="543.75" y="270"/><rect fill="#EEEEEE" height="23.9688" style="stroke: #A80036; stroke-width: 1.5;" width="65" x="543.75" y="270"/><text fill="#000000" font-family="sans-serif" font-size="12" lengthAdjust="spacingAndGlyphs" textLength="59" x="546.75" y="286.1387">Collateral</text></a><!--link Role to CollateralPartyRole--><path d="M381.918,104.213 C372.611,126.124 361.786,151.607 355.73,165.865 " fill="none" id="Role-CollateralPartyRole" style="stroke: #A80036; stroke-width: 1.0;"/><polygon fill="none" points="375.596,101.192,389.859,85.52,388.482,106.665,375.596,101.192" style="stroke: #A80036; stroke-width: 1.0;"/><!--link CollateralPartyRole to ServicingPartyRole--><path d="M301.982,197.064 C266.965,210.165 218.84,228.572 177,246 C158.64,253.647 138.13,262.878 122.751,269.94 " fill="none" id="CollateralPartyRole-ServicingPartyRole" style="stroke: #A80036; stroke-width: 1.0;"/><polygon fill="none" points="299.753,190.425,320.938,190.011,304.635,203.546,299.753,190.425" style="stroke: #A80036; stroke-width: 1.0;"/><!--link CollateralPartyRole to GiverRole--><path d="M321.457,203.302 C295.764,224.436 259.716,254.088 240.429,269.954 " fill="none" id="CollateralPartyRole-GiverRole" style="stroke: #A80036; stroke-width: 1.0;"/><polygon fill="none" points="317.363,197.605,337.256,190.306,326.257,208.417,317.363,197.605" style="stroke: #A80036; stroke-width: 1.0;"/><!--link CollateralPartyRole to TakerRole--><path d="M344.023,209.94 C339.436,230.283 333.707,255.69 330.491,269.954 " fill="none" id="CollateralPartyRole-TakerRole" style="stroke: #A80036; stroke-width: 1.0;"/><polygon fill="none" points="337.223,208.276,348.451,190.306,350.88,211.355,337.223,208.276" style="stroke: #A80036; stroke-width: 1.0;"/><!--link CollateralPartyRole to TripartyAgent--><path d="M374.61,205.464 C393.302,226.416 418.467,254.622 432.145,269.954 " fill="none" id="CollateralPartyRole-TripartyAgent" style="stroke: #A80036; stroke-width: 1.0;"/><polygon fill="none" points="369.177,209.89,361.086,190.306,379.624,200.569,369.177,209.89" style="stroke: #A80036; stroke-width: 1.0;"/><!--link ContactPersonRole to RolePlayer--><!--link CounterpartyRisk to ContactPersonRole--><!--link Entry to CounterpartyRisk--><!--link Role to RolePlayer--><path d="M486.442,81.791 C568.597,101.092 679,134.867 679,177 C679,177 679,177 679,371 C679,431.8572 764.842,448.7099 817.634,453.3199 " fill="none" id="Role-RolePlayer" style="stroke: #A80036; stroke-width: 1.0;"/><polygon fill="#A80036" points="822.635,453.7288,813.9919,449.0068,817.6517,453.3202,813.3382,456.98,822.635,453.7288" style="stroke: #A80036; stroke-width: 1.0;"/><text fill="#000000" font-family="sans-serif" font-size="13" lengthAdjust="spacingAndGlyphs" textLength="39" x="680" y="286.0669">Player</text><text fill="#000000" font-family="sans-serif" font-size="13" lengthAdjust="spacingAndGlyphs" textLength="7" x="807.7402" y="447.9585">*</text><!--link Role to ContactPersonRole--><path d="M486.452,69.486 C564.711,76.038 672.03,89.606 705,116 C750.746,152.622 727.131,186.452 755,238 C775.52,275.956 780.125,286.868 810,318 C823.704,332.281 841.714,345.597 855.757,355.039 " fill="none" id="Role-ContactPersonRole" style="stroke: #A80036; stroke-width: 1.0;"/><polygon fill="#A80036" points="859.978,357.842,854.6906,349.5328,855.8118,355.0774,850.2672,356.1987,859.978,357.842" style="stroke: #A80036; stroke-width: 1.0;"/><text fill="#000000" font-family="sans-serif" font-size="13" lengthAdjust="spacingAndGlyphs" textLength="121" x="756" y="233.0669">ContactPersonRole</text><text fill="#000000" font-family="sans-serif" font-size="13" lengthAdjust="spacingAndGlyphs" textLength="8" x="843.0642" y="346.8359">1</text><!--link Role to CounterpartyRisk--><path d="M486.426,65.796 C600.255,69.524 791.789,80.963 852,116 C883.044,134.065 897.841,219.052 898,220 C900.586,235.376 895.874,252.681 891.233,264.921 " fill="none" id="Role-CounterpartyRisk" style="stroke: #A80036; stroke-width: 1.0;"/><polygon fill="#A80036" points="889.27,269.837,896.322,262.9618,891.124,265.1934,888.8923,259.9954,889.27,269.837" style="stroke: #A80036; stroke-width: 1.0;"/><text fill="#000000" font-family="sans-serif" font-size="13" lengthAdjust="spacingAndGlyphs" textLength="109" x="892" y="182.0669">CounterpartyRisk</text><text fill="#000000" font-family="sans-serif" font-size="13" lengthAdjust="spacingAndGlyphs" textLength="24" x="861.5269" y="258.8292">0..1</text><!--link Role to Entry--><path d="M486.459,67.897 C585.138,73.636 738.363,86.998 788,116 C805.903,126.461 819.095,146.893 826.652,161.217 " fill="none" id="Role-Entry" style="stroke: #A80036; stroke-width: 1.0;"/><polygon fill="#A80036" points="828.998,165.817,828.4729,155.9822,826.7266,161.3627,821.346,159.6164,828.998,165.817" style="stroke: #A80036; stroke-width: 1.0;"/><text fill="#000000" font-family="sans-serif" font-size="13" lengthAdjust="spacingAndGlyphs" textLength="33" x="809" y="129.0669">Entry</text><text fill="#000000" font-family="sans-serif" font-size="13" lengthAdjust="spacingAndGlyphs" textLength="8" x="816.6848" y="155.0598">1</text><!--link CollateralPartyRole to Collateral--><path d="M376.661,190.014 C406.97,203.092 458.853,225.693 503,246 C518.258,253.018 535.177,261.11 548.881,267.745 " fill="none" id="CollateralPartyRole-Collateral" style="stroke: #A80036; stroke-width: 1.0;"/><polygon fill="#A80036" points="553.399,269.935,547.0462,262.4089,548.9,267.7534,543.5556,269.6073,553.399,269.935" style="stroke: #A80036; stroke-width: 1.0;"/><text fill="#000000" font-family="sans-serif" font-size="13" lengthAdjust="spacingAndGlyphs" textLength="60" x="484" y="233.0669">Collateral</text><text fill="#000000" font-family="sans-serif" font-size="13" lengthAdjust="spacingAndGlyphs" textLength="7" x="535.9971" y="258.9609">*</text></g></svg>