<?xml version="1.0" encoding="UTF-8" standalone="no"?><svg xmlns="http://www.w3.org/2000/svg" xmlns:xlink="http://www.w3.org/1999/xlink" contentScriptType="application/ecmascript" contentStyleType="text/css" height="530px" preserveAspectRatio="none" style="width:1518px;height:530px;" version="1.1" viewBox="0 0 1518 530" width="1518px" zoomAndPan="magnify"><defs><filter height="300%" id="f1ncgw4q7c7caw" width="300%" x="-1" y="-1"><feGaussianBlur result="blurOut" stdDeviation="2.0"/><feColorMatrix in="blurOut" result="blurOut2" type="matrix" values="0 0 0 0 0 0 0 0 0 0 0 0 0 0 0 0 0 0 .4 0"/><feOffset dx="4.0" dy="4.0" in="blurOut2" result="blurOut3"/><feBlend in="SourceGraphic" in2="blurOut3" mode="normal"/></filter></defs><g><!--cluster ##18077--><!--cluster ##18101--><!--cluster ##18110--><!--cluster ##18115--><!--class Role--><a target="_top" xlink:actuate="onRequest" xlink:href="../Role.html" xlink:show="new" xlink:title="Role of a party in an activity." xlink:type="simple"><rect fill="#FEFEEE" filter="url(#f1ncgw4q7c7caw)" height="44.7734" id="Role" style="stroke: #A80036; stroke-width: 1.5;" width="175" x="329.75" y="40.5"/><rect fill="#FEFEEE" height="23.9688" style="stroke: #A80036; stroke-width: 1.5;" width="175" x="329.75" y="40.5"/><text fill="#000000" font-family="sans-serif" font-size="12" lengthAdjust="spacingAndGlyphs" textLength="27" x="403.75" y="56.6387">Role</text><line style="stroke: #A80036; stroke-width: 1.5;" x1="330.75" x2="503.75" y1="64.4688" y2="64.4688"/><ellipse cx="340.75" cy="76.3711" fill="#84BE84" rx="3" ry="3" style="stroke: #038048; stroke-width: 1.0;"/><text fill="#000000" font-family="sans-serif" font-size="11" lengthAdjust="spacingAndGlyphs" textLength="53" x="349.75" y="78.6792">PartyRole</text><text fill="#000000" font-family="sans-serif" font-size="11" font-style="italic" lengthAdjust="spacingAndGlyphs" textLength="92" x="406.75" y="78.6792">(PartyRoleCode)</text></a><!--class TradePartyRole--><a target="_top" xlink:actuate="onRequest" xlink:href="../TradePartyRole.html" xlink:show="new" xlink:title="Trading party in a commercial, securities, treasury trade. This role may also represent parties which play different intermediary roles in a trade." xlink:type="simple"><rect fill="#FEFEEE" filter="url(#f1ncgw4q7c7caw)" height="57.5781" id="TradePartyRole" style="stroke: #A80036; stroke-width: 1.5;" width="279" x="225.75" y="164"/><rect fill="#FEFEEE" height="23.9688" style="stroke: #A80036; stroke-width: 1.5;" width="279" x="225.75" y="164"/><text fill="#000000" font-family="sans-serif" font-size="12" lengthAdjust="spacingAndGlyphs" textLength="95" x="317.75" y="180.1387">TradePartyRole</text><line style="stroke: #A80036; stroke-width: 1.5;" x1="226.75" x2="503.75" y1="187.9688" y2="187.9688"/><ellipse cx="236.75" cy="199.8711" fill="#84BE84" rx="3" ry="3" style="stroke: #038048; stroke-width: 1.0;"/><text fill="#000000" font-family="sans-serif" font-size="11" lengthAdjust="spacingAndGlyphs" textLength="120" x="245.75" y="202.1792">TradingPartyCapacity</text><text fill="#000000" font-family="sans-serif" font-size="11" font-style="italic" lengthAdjust="spacingAndGlyphs" textLength="129" x="369.75" y="202.1792">(TradingCapacityCode)</text><ellipse cx="236.75" cy="212.6758" fill="#84BE84" rx="3" ry="3" style="stroke: #038048; stroke-width: 1.0;"/><text fill="#000000" font-family="sans-serif" font-size="11" lengthAdjust="spacingAndGlyphs" textLength="80" x="245.75" y="214.9839">BuyerOrSeller</text><text fill="#000000" font-family="sans-serif" font-size="11" font-style="italic" lengthAdjust="spacingAndGlyphs" textLength="104" x="329.75" y="214.9839">(OptionPartyCode)</text></a><!--class CommercialTradePartyRole--><a target="_top" xlink:actuate="onRequest" xlink:href="../CommercialTradePartyRole.html" xlink:show="new" xlink:title="Role played by a party in the context of a trade." xlink:type="simple"><rect fill="#FEFECE" filter="url(#f1ncgw4q7c7caw)" height="23.9688" id="CommercialTradePartyRole" style="stroke: #A80036; stroke-width: 1.5;" width="173" x="278.75" y="302"/><rect fill="#FEFECE" height="23.9688" style="stroke: #A80036; stroke-width: 1.5;" width="173" x="278.75" y="302"/><text fill="#000000" font-family="sans-serif" font-size="12" lengthAdjust="spacingAndGlyphs" textLength="167" x="281.75" y="318.1387">CommercialTradePartyRole</text></a><!--class ShipFrom--><a target="_top" xlink:actuate="onRequest" xlink:href="../ShipFrom.html" xlink:show="new" xlink:title="Party from whom the goods are dispatched." xlink:type="simple"><rect fill="#FEFEEE" filter="url(#f1ncgw4q7c7caw)" height="23.9688" id="ShipFrom" style="stroke: #A80036; stroke-width: 1.5;" width="64" x="38" y="406"/><rect fill="#FEFEEE" height="23.9688" style="stroke: #A80036; stroke-width: 1.5;" width="64" x="38" y="406"/><text fill="#000000" font-family="sans-serif" font-size="12" lengthAdjust="spacingAndGlyphs" textLength="58" x="41" y="422.1387">ShipFrom</text></a><!--class ShipTo--><a target="_top" xlink:actuate="onRequest" xlink:href="../ShipTo.html" xlink:show="new" xlink:title="Party to whom the goods must be delivered." xlink:type="simple"><rect fill="#FEFEEE" filter="url(#f1ncgw4q7c7caw)" height="23.9688" id="ShipTo" style="stroke: #A80036; stroke-width: 1.5;" width="48" x="137" y="406"/><rect fill="#FEFEEE" height="23.9688" style="stroke: #A80036; stroke-width: 1.5;" width="48" x="137" y="406"/><text fill="#000000" font-family="sans-serif" font-size="12" lengthAdjust="spacingAndGlyphs" textLength="42" x="140" y="422.1387">ShipTo</text></a><!--class ObligorBank--><a target="_top" xlink:actuate="onRequest" xlink:href="../ObligorBank.html" xlink:show="new" xlink:title="Bank that has to pay under a payment obligation contracted between two financial institutions related to the financing of a commercial transaction." xlink:type="simple"><rect fill="#FEFEEE" filter="url(#f1ncgw4q7c7caw)" height="23.9688" id="ObligorBank" style="stroke: #A80036; stroke-width: 1.5;" width="81" x="220.75" y="406"/><rect fill="#FEFEEE" height="23.9688" style="stroke: #A80036; stroke-width: 1.5;" width="81" x="220.75" y="406"/><text fill="#000000" font-family="sans-serif" font-size="12" lengthAdjust="spacingAndGlyphs" textLength="75" x="223.75" y="422.1387">ObligorBank</text></a><!--class RecipientBank--><a target="_top" xlink:actuate="onRequest" xlink:href="../RecipientBank.html" xlink:show="new" xlink:title="Bank that will be paid under a payment obligation contracted between two financial institutions related to the financing of a commercial transaction." xlink:type="simple"><rect fill="#FEFEEE" filter="url(#f1ncgw4q7c7caw)" height="23.9688" id="RecipientBank" style="stroke: #A80036; stroke-width: 1.5;" width="95" x="336.75" y="406"/><rect fill="#FEFEEE" height="23.9688" style="stroke: #A80036; stroke-width: 1.5;" width="95" x="336.75" y="406"/><text fill="#000000" font-family="sans-serif" font-size="12" lengthAdjust="spacingAndGlyphs" textLength="89" x="339.75" y="422.1387">RecipientBank</text></a><!--class BillTo--><a target="_top" xlink:actuate="onRequest" xlink:href="../BillTo.html" xlink:show="new" xlink:title="Party to be invoiced for the purchase." xlink:type="simple"><rect fill="#FEFEEE" filter="url(#f1ncgw4q7c7caw)" height="23.9688" id="BillTo" style="stroke: #A80036; stroke-width: 1.5;" width="38" x="467" y="406"/><rect fill="#FEFEEE" height="23.9688" style="stroke: #A80036; stroke-width: 1.5;" width="38" x="467" y="406"/><text fill="#000000" font-family="sans-serif" font-size="12" lengthAdjust="spacingAndGlyphs" textLength="32" x="470" y="422.1387">BillTo</text></a><!--class RolePlayer--><a target="_top" xlink:actuate="onRequest" xlink:href="../RolePlayer.html" xlink:show="new" xlink:title="Type of entity that plays a specific role in a specific context." xlink:type="simple"><rect fill="#EEEEEE" filter="url(#f1ncgw4q7c7caw)" height="23.9688" id="RolePlayer" style="stroke: #A80036; stroke-width: 1.5;" width="71" x="1093.75" y="496"/><rect fill="#EEEEEE" height="23.9688" style="stroke: #A80036; stroke-width: 1.5;" width="71" x="1093.75" y="496"/><text fill="#000000" font-family="sans-serif" font-size="12" lengthAdjust="spacingAndGlyphs" textLength="65" x="1096.75" y="512.1387">RolePlayer</text></a><!--class ContactPersonRole--><a target="_top" xlink:actuate="onRequest" xlink:href="../ContactPersonRole.html" xlink:show="new" xlink:title="Person to be contacted in a given organisation. In the corporate action domain (including meeting notifications) , it is the contact person at the party organising the meeting, at the issuer or at an intermediary." xlink:type="simple"><rect fill="#EEEEEE" filter="url(#f1ncgw4q7c7caw)" height="23.9688" id="ContactPersonRole" style="stroke: #A80036; stroke-width: 1.5;" width="126" x="1046" y="406"/><rect fill="#EEEEEE" height="23.9688" style="stroke: #A80036; stroke-width: 1.5;" width="126" x="1046" y="406"/><text fill="#000000" font-family="sans-serif" font-size="12" lengthAdjust="spacingAndGlyphs" textLength="120" x="1049" y="422.1387">ContactPersonRole</text></a><!--class CounterpartyRisk--><a target="_top" xlink:actuate="onRequest" xlink:href="../CounterpartyRisk.html" xlink:show="new" xlink:title="Calculation of the exposure amount that one party has vis-a-vis one counterparty or a central system, based on its credit risk." xlink:type="simple"><rect fill="#EEEEEE" filter="url(#f1ncgw4q7c7caw)" height="23.9688" id="CounterpartyRisk" style="stroke: #A80036; stroke-width: 1.5;" width="113" x="1058.75" y="302"/><rect fill="#EEEEEE" height="23.9688" style="stroke: #A80036; stroke-width: 1.5;" width="113" x="1058.75" y="302"/><text fill="#000000" font-family="sans-serif" font-size="12" lengthAdjust="spacingAndGlyphs" textLength="107" x="1061.75" y="318.1387">CounterpartyRisk</text></a><!--class Entry--><a target="_top" xlink:actuate="onRequest" xlink:href="../Entry.html" xlink:show="new" xlink:title="Posting to an account that results in an increase or decrease to a balance." xlink:type="simple"><rect fill="#EEEEEE" filter="url(#f1ncgw4q7c7caw)" height="23.9688" id="Entry" style="stroke: #A80036; stroke-width: 1.5;" width="38" x="1046" y="181"/><rect fill="#EEEEEE" height="23.9688" style="stroke: #A80036; stroke-width: 1.5;" width="38" x="1046" y="181"/><text fill="#000000" font-family="sans-serif" font-size="12" lengthAdjust="spacingAndGlyphs" textLength="32" x="1049" y="197.1387">Entry</text></a><!--class Account--><a target="_top" xlink:actuate="onRequest" xlink:href="../Account.html" xlink:show="new" xlink:title="Record of transactions in specific types of assets, maintained by a servicing party on behalf of one or more owning parties. Business relationship between an account servicer and one or more account owners." xlink:type="simple"><rect fill="#EEEEEE" filter="url(#f1ncgw4q7c7caw)" height="23.9688" id="Account" style="stroke: #A80036; stroke-width: 1.5;" width="57" x="731.75" y="406"/><rect fill="#EEEEEE" height="23.9688" style="stroke: #A80036; stroke-width: 1.5;" width="57" x="731.75" y="406"/><text fill="#000000" font-family="sans-serif" font-size="12" lengthAdjust="spacingAndGlyphs" textLength="51" x="734.75" y="422.1387">Account</text></a><!--class Trade--><a target="_top" xlink:actuate="onRequest" xlink:href="../Trade.html" xlink:show="new" xlink:title="Result of an order between at least two parties. A trade relates to the delivery of goods and services, cash or securities." xlink:type="simple"><rect fill="#EEEEEE" filter="url(#f1ncgw4q7c7caw)" height="23.9688" id="Trade" style="stroke: #A80036; stroke-width: 1.5;" width="42" x="731.5" y="302"/><rect fill="#EEEEEE" height="23.9688" style="stroke: #A80036; stroke-width: 1.5;" width="42" x="731.5" y="302"/><text fill="#000000" font-family="sans-serif" font-size="12" lengthAdjust="spacingAndGlyphs" textLength="36" x="734.5" y="318.1387">Trade</text></a><!--class CommercialTrade--><a target="_top" xlink:actuate="onRequest" xlink:href="../CommercialTrade.html" xlink:show="new" xlink:title="Commercial details of a trade transaction between a buyer and a seller." xlink:type="simple"><rect fill="#EEEEEE" filter="url(#f1ncgw4q7c7caw)" height="23.9688" id="CommercialTrade" style="stroke: #A80036; stroke-width: 1.5;" width="114" x="561" y="406"/><rect fill="#EEEEEE" height="23.9688" style="stroke: #A80036; stroke-width: 1.5;" width="114" x="561" y="406"/><text fill="#000000" font-family="sans-serif" font-size="12" lengthAdjust="spacingAndGlyphs" textLength="108" x="564" y="422.1387">CommercialTrade</text></a><!--link Role to TradePartyRole--><path d="M400.621,104.318 C392.751,123.689 383.513,146.43 376.417,163.897 " fill="none" id="Role-TradePartyRole" style="stroke: #A80036; stroke-width: 1.0;"/><polygon fill="none" points="394.166,101.608,408.179,85.713,407.137,106.877,394.166,101.608" style="stroke: #A80036; stroke-width: 1.0;"/><!--link TradePartyRole to CommercialTradePartyRole--><path d="M365,242.486 C365,264.304 365,288.171 365,301.79 " fill="none" id="TradePartyRole-CommercialTradePartyRole" style="stroke: #A80036; stroke-width: 1.0;"/><polygon fill="none" points="358,242.201,365,222.201,372,242.201,358,242.201" style="stroke: #A80036; stroke-width: 1.0;"/><!--link CommercialTradePartyRole to ShipFrom--><path d="M280.369,330.145 C231.639,340.779 170.119,357.531 119,382 C105.7985,388.319 92.3816,398.194 82.9331,405.846 " fill="none" id="CommercialTradePartyRole-ShipFrom" style="stroke: #A80036; stroke-width: 1.0;"/><polygon fill="none" points="279.052,323.269,300.062,326.025,281.919,336.972,279.052,323.269" style="stroke: #A80036; stroke-width: 1.0;"/><!--link CommercialTradePartyRole to ShipTo--><path d="M311.14,332.618 C278.648,344.363 237.086,361.408 203,382 C191.789,388.773 180.46,398.415 172.398,405.864 " fill="none" id="CommercialTradePartyRole-ShipTo" style="stroke: #A80036; stroke-width: 1.0;"/><polygon fill="none" points="308.861,326,330.051,326.006,313.482,339.215,308.861,326" style="stroke: #A80036; stroke-width: 1.0;"/><!--link CommercialTradePartyRole to ObligorBank--><path d="M338.969,340.53 C317.516,361.571 288.128,390.393 272.263,405.954 " fill="none" id="CommercialTradePartyRole-ObligorBank" style="stroke: #A80036; stroke-width: 1.0;"/><polygon fill="none" points="334.293,335.312,353.473,326.306,344.095,345.307,334.293,335.312" style="stroke: #A80036; stroke-width: 1.0;"/><!--link CommercialTradePartyRole to RecipientBank--><path d="M370.824,346.267 C374.603,366.554 379.3,391.766 381.942,405.954 " fill="none" id="CommercialTradePartyRole-RecipientBank" style="stroke: #A80036; stroke-width: 1.0;"/><polygon fill="none" points="363.887,347.249,367.106,326.306,377.65,344.685,363.887,347.249" style="stroke: #A80036; stroke-width: 1.0;"/><!--link CommercialTradePartyRole to BillTo--><path d="M395.073,338.502 C411.008,351.148 430.791,367.157 448,382 C456.965,389.733 466.788,398.797 474.2,405.763 " fill="none" id="CommercialTradePartyRole-BillTo" style="stroke: #A80036; stroke-width: 1.0;"/><polygon fill="none" points="390.712,343.977,379.329,326.105,399.373,332.978,390.712,343.977" style="stroke: #A80036; stroke-width: 1.0;"/><!--link ContactPersonRole to RolePlayer--><!--link CounterpartyRisk to ContactPersonRole--><!--link Entry to CounterpartyRisk--><!--link Trade to Account--><!--link Role to RolePlayer--><path d="M504.633,65.543 C756.749,71.136 1466,95.45 1466,192 C1466,192 1466,192 1466,419 C1466,479.6217 1259.27,499.2654 1169.64,504.9332 " fill="none" id="Role-RolePlayer" style="stroke: #A80036; stroke-width: 1.0;"/><polygon fill="#A80036" points="1164.43,505.2555,1173.6636,508.6819,1169.4201,504.9412,1173.1608,500.6977,1164.43,505.2555" style="stroke: #A80036; stroke-width: 1.0;"/><text fill="#000000" font-family="sans-serif" font-size="13" lengthAdjust="spacingAndGlyphs" textLength="39" x="1467" y="318.0669">Player</text><text fill="#000000" font-family="sans-serif" font-size="13" lengthAdjust="spacingAndGlyphs" textLength="7" x="1172.8913" y="498.8806">*</text><!--link Role to ContactPersonRole--><path d="M504.343,67.101 C707.697,75.247 1199.12,100.626 1246,157 C1314.38,239.23 1178.94,361.107 1127.6,402.58 " fill="none" id="Role-ContactPersonRole" style="stroke: #A80036; stroke-width: 1.0;"/><polygon fill="#A80036" points="1123.48,405.885,1133.0041,403.3769,1127.3813,402.7577,1128.0005,397.1348,1123.48,405.885" style="stroke: #A80036; stroke-width: 1.0;"/><text fill="#000000" font-family="sans-serif" font-size="13" lengthAdjust="spacingAndGlyphs" textLength="121" x="1256" y="265.0669">ContactPersonRole</text><text fill="#000000" font-family="sans-serif" font-size="13" lengthAdjust="spacingAndGlyphs" textLength="8" x="1117.7388" y="394.8937">1</text><!--link Role to CounterpartyRisk--><path d="M504.425,69.853 C679.609,82.436 1060.41,114.408 1101,157 C1137.35,195.147 1126.69,264.933 1119.36,296.598 " fill="none" id="Role-CounterpartyRisk" style="stroke: #A80036; stroke-width: 1.0;"/><polygon fill="#A80036" points="1118.13,301.698,1124.1234,293.8827,1119.299,296.8366,1116.3451,292.0122,1118.13,301.698" style="stroke: #A80036; stroke-width: 1.0;"/><text fill="#000000" font-family="sans-serif" font-size="13" lengthAdjust="spacingAndGlyphs" textLength="109" x="1127" y="197.0669">CounterpartyRisk</text><text fill="#000000" font-family="sans-serif" font-size="13" lengthAdjust="spacingAndGlyphs" textLength="24" x="1089.7778" y="290.9014">0..1</text><!--link Role to Entry--><path d="M504.392,81.263 C654.612,110.936 954.036,170.081 1040.87,187.235 " fill="none" id="Role-Entry" style="stroke: #A80036; stroke-width: 1.0;"/><polygon fill="#A80036" points="1045.81,188.209,1037.7584,182.537,1040.9052,187.2378,1036.2044,190.3846,1045.81,188.209" style="stroke: #A80036; stroke-width: 1.0;"/><text fill="#000000" font-family="sans-serif" font-size="13" lengthAdjust="spacingAndGlyphs" textLength="33" x="762" y="129.0669">Entry</text><text fill="#000000" font-family="sans-serif" font-size="13" lengthAdjust="spacingAndGlyphs" textLength="8" x="1030.0066" y="180.5609">1</text><!--link TradePartyRole to Account--><path d="M504.509,202.909 C613.85,213.144 753.279,234.508 789,278 C818.729,314.196 788.351,373.235 770.714,401.268 " fill="none" id="TradePartyRole-Account" style="stroke: #A80036; stroke-width: 1.0;"/><polygon fill="#A80036" points="767.795,405.811,776.0245,400.4003,770.4972,401.6041,769.2934,396.0768,767.795,405.811" style="stroke: #A80036; stroke-width: 1.0;"/><text fill="#000000" font-family="sans-serif" font-size="13" lengthAdjust="spacingAndGlyphs" textLength="52" x="803" y="318.0669">Account</text><text fill="#000000" font-family="sans-serif" font-size="13" lengthAdjust="spacingAndGlyphs" textLength="7" x="760.8037" y="395.0518">*</text><!--link TradePartyRole to Trade--><path d="M456.224,222.051 C544.332,249.143 672.142,288.444 726.256,305.084 " fill="none" id="TradePartyRole-Trade" style="stroke: #A80036; stroke-width: 1.0;"/><polygon fill="#A80036" points="731.259,306.622,723.8329,300.1526,726.48,305.1519,721.4807,307.799,731.259,306.622" style="stroke: #A80036; stroke-width: 1.0;"/><text fill="#000000" font-family="sans-serif" font-size="13" lengthAdjust="spacingAndGlyphs" textLength="36" x="606" y="265.0669">Trade</text><text fill="#000000" font-family="sans-serif" font-size="13" lengthAdjust="spacingAndGlyphs" textLength="7" x="716.3411" y="298.4437">*</text><!--link CommercialTradePartyRole to CommercialTrade--><path d="M392.557,326.11 C439.703,345.117 535.597,383.778 585.768,404.005 " fill="none" id="CommercialTradePartyRole-CommercialTrade" style="stroke: #A80036; stroke-width: 1.0;"/><polygon fill="#A80036" points="590.477,405.904,583.6261,398.8283,585.8399,404.034,580.6341,406.2477,590.477,405.904" style="stroke: #A80036; stroke-width: 1.0;"/><text fill="#000000" font-family="sans-serif" font-size="13" lengthAdjust="spacingAndGlyphs" textLength="113" x="508" y="369.0669">CommercialTrade</text><text fill="#000000" font-family="sans-serif" font-size="13" lengthAdjust="spacingAndGlyphs" textLength="7" x="571.4691" y="394.9192">*</text><!--link Entry to Account--><path d="M1053.8,205.32 C1018.7,240.62 910.706,347.893 869,374 C845.435,388.752 815.966,400.008 793.613,407.296 " fill="none" id="Entry-Account" style="stroke: #A80036; stroke-width: 1.0;"/><polygon fill="#A80036" points="788.669,408.882,798.4603,409.9449,793.4305,407.3563,796.0191,402.3264,788.669,408.882" style="stroke: #A80036; stroke-width: 1.0;"/><text fill="#000000" font-family="sans-serif" font-size="13" lengthAdjust="spacingAndGlyphs" textLength="52" x="979" y="318.0669">Account</text><text fill="#000000" font-family="sans-serif" font-size="13" lengthAdjust="spacingAndGlyphs" textLength="7" x="796.8482" y="400.4553">*</text><!--link Account to Account--><path d="M788.508,409.984 C806.181,408.051 823,410.723 823,418 C823,424.538 809.424,427.359 793.85,426.463 " fill="none" id="Account-Account" style="stroke: #A80036; stroke-width: 1.0;"/><polygon fill="#A80036" points="788.508,426.016,797.1443,430.7504,793.4907,426.4317,797.8094,422.7781,788.508,426.016" style="stroke: #A80036; stroke-width: 1.0;"/><text fill="#000000" font-family="sans-serif" font-size="13" lengthAdjust="spacingAndGlyphs" textLength="94" x="829" y="422.0669">ParentAccount</text><text fill="#000000" font-family="sans-serif" font-size="13" lengthAdjust="spacingAndGlyphs" textLength="8" x="796.7741" y="421.9799">1</text></g></svg>