<?xml version="1.0" encoding="UTF-8" standalone="no"?><svg xmlns="http://www.w3.org/2000/svg" xmlns:xlink="http://www.w3.org/1999/xlink" contentScriptType="application/ecmascript" contentStyleType="text/css" height="478px" preserveAspectRatio="none" style="width:767px;height:478px;" version="1.1" viewBox="0 0 767 478" width="767px" zoomAndPan="magnify"><defs><filter height="300%" id="fyfs3o29eg7q4" width="300%" x="-1" y="-1"><feGaussianBlur result="blurOut" stdDeviation="2.0"/><feColorMatrix in="blurOut" result="blurOut2" type="matrix" values="0 0 0 0 0 0 0 0 0 0 0 0 0 0 0 0 0 0 .4 0"/><feOffset dx="4.0" dy="4.0" in="blurOut2" result="blurOut3"/><feBlend in="SourceGraphic" in2="blurOut3" mode="normal"/></filter></defs><g><!--cluster ##20975--><!--cluster ##20984--><!--cluster ##20993--><!--class Role--><a target="_top" xlink:actuate="onRequest" xlink:href="../Role.html" xlink:show="new" xlink:title="Role of a party in an activity." xlink:type="simple"><rect fill="#FEFEEE" filter="url(#fyfs3o29eg7q4)" height="44.7734" id="Role" style="stroke: #A80036; stroke-width: 1.5;" width="175" x="51.75" y="40.5"/><rect fill="#FEFEEE" height="23.9688" style="stroke: #A80036; stroke-width: 1.5;" width="175" x="51.75" y="40.5"/><text fill="#000000" font-family="sans-serif" font-size="12" lengthAdjust="spacingAndGlyphs" textLength="27" x="125.75" y="56.6387">Role</text><line style="stroke: #A80036; stroke-width: 1.5;" x1="52.75" x2="225.75" y1="64.4688" y2="64.4688"/><ellipse cx="62.75" cy="76.3711" fill="#84BE84" rx="3" ry="3" style="stroke: #038048; stroke-width: 1.0;"/><text fill="#000000" font-family="sans-serif" font-size="11" lengthAdjust="spacingAndGlyphs" textLength="53" x="71.75" y="78.6792">PartyRole</text><text fill="#000000" font-family="sans-serif" font-size="11" font-style="italic" lengthAdjust="spacingAndGlyphs" textLength="92" x="128.75" y="78.6792">(PartyRoleCode)</text></a><!--class CommissionPartyRole--><a target="_top" xlink:actuate="onRequest" xlink:href="../CommissionPartyRole.html" xlink:show="new" xlink:title="Role played by a party in the context of a payment of commission." xlink:type="simple"><rect fill="#FEFEEE" filter="url(#fyfs3o29eg7q4)" height="23.9688" id="CommissionPartyRole" style="stroke: #A80036; stroke-width: 1.5;" width="139" x="83.75" y="166"/><rect fill="#FEFEEE" height="23.9688" style="stroke: #A80036; stroke-width: 1.5;" width="139" x="83.75" y="166"/><text fill="#000000" font-family="sans-serif" font-size="12" lengthAdjust="spacingAndGlyphs" textLength="133" x="86.75" y="182.1387">CommissionPartyRole</text></a><!--class CommissionRecipient--><a target="_top" xlink:actuate="onRequest" xlink:href="../CommissionRecipient.html" xlink:show="new" xlink:title="Party entitled to the amount of money resulting from a commission." xlink:type="simple"><rect fill="#FEFECE" filter="url(#fyfs3o29eg7q4)" height="23.9688" id="CommissionRecipient" style="stroke: #A80036; stroke-width: 1.5;" width="138" x="84" y="270"/><rect fill="#FEFECE" height="23.9688" style="stroke: #A80036; stroke-width: 1.5;" width="138" x="84" y="270"/><text fill="#000000" font-family="sans-serif" font-size="12" lengthAdjust="spacingAndGlyphs" textLength="132" x="87" y="286.1387">CommissionRecipient</text></a><!--class RolePlayer--><a target="_top" xlink:actuate="onRequest" xlink:href="../RolePlayer.html" xlink:show="new" xlink:title="Type of entity that plays a specific role in a specific context." xlink:type="simple"><rect fill="#EEEEEE" filter="url(#fyfs3o29eg7q4)" height="23.9688" id="RolePlayer" style="stroke: #A80036; stroke-width: 1.5;" width="71" x="576.75" y="444"/><rect fill="#EEEEEE" height="23.9688" style="stroke: #A80036; stroke-width: 1.5;" width="71" x="576.75" y="444"/><text fill="#000000" font-family="sans-serif" font-size="12" lengthAdjust="spacingAndGlyphs" textLength="65" x="579.75" y="460.1387">RolePlayer</text></a><!--class ContactPersonRole--><a target="_top" xlink:actuate="onRequest" xlink:href="../ContactPersonRole.html" xlink:show="new" xlink:title="Person to be contacted in a given organisation. In the corporate action domain (including meeting notifications), it is the contact person at the party organising the meeting, at the issuer or at an intermediary." xlink:type="simple"><rect fill="#EEEEEE" filter="url(#fyfs3o29eg7q4)" height="23.9688" id="ContactPersonRole" style="stroke: #A80036; stroke-width: 1.5;" width="126" x="569" y="358"/><rect fill="#EEEEEE" height="23.9688" style="stroke: #A80036; stroke-width: 1.5;" width="126" x="569" y="358"/><text fill="#000000" font-family="sans-serif" font-size="12" lengthAdjust="spacingAndGlyphs" textLength="120" x="572" y="374.1387">ContactPersonRole</text></a><!--class CounterpartyRisk--><a target="_top" xlink:actuate="onRequest" xlink:href="../CounterpartyRisk.html" xlink:show="new" xlink:title="Calculation of the exposure amount that one party has vis-a-vis one counterparty or a central system, based on its credit risk." xlink:type="simple"><rect fill="#EEEEEE" filter="url(#fyfs3o29eg7q4)" height="23.9688" id="CounterpartyRisk" style="stroke: #A80036; stroke-width: 1.5;" width="113" x="581.75" y="270"/><rect fill="#EEEEEE" height="23.9688" style="stroke: #A80036; stroke-width: 1.5;" width="113" x="581.75" y="270"/><text fill="#000000" font-family="sans-serif" font-size="12" lengthAdjust="spacingAndGlyphs" textLength="107" x="584.75" y="286.1387">CounterpartyRisk</text></a><!--class Entry--><a target="_top" xlink:actuate="onRequest" xlink:href="../Entry.html" xlink:show="new" xlink:title="Posting to an account that results in an increase or decrease to a balance." xlink:type="simple"><rect fill="#EEEEEE" filter="url(#fyfs3o29eg7q4)" height="23.9688" id="Entry" style="stroke: #A80036; stroke-width: 1.5;" width="38" x="569" y="166"/><rect fill="#EEEEEE" height="23.9688" style="stroke: #A80036; stroke-width: 1.5;" width="38" x="569" y="166"/><text fill="#000000" font-family="sans-serif" font-size="12" lengthAdjust="spacingAndGlyphs" textLength="32" x="572" y="182.1387">Entry</text></a><!--class Commission--><a target="_top" xlink:actuate="onRequest" xlink:href="../Commission.html" xlink:show="new" xlink:title="Amount of money due to a party as compensation for a service." xlink:type="simple"><rect fill="#EEEEEE" filter="url(#fyfs3o29eg7q4)" height="23.9688" id="Commission" style="stroke: #A80036; stroke-width: 1.5;" width="80" x="283" y="270"/><rect fill="#EEEEEE" height="23.9688" style="stroke: #A80036; stroke-width: 1.5;" width="80" x="283" y="270"/><text fill="#000000" font-family="sans-serif" font-size="12" lengthAdjust="spacingAndGlyphs" textLength="74" x="286" y="286.1387">Commission</text></a><!--entity ##20996--><!--link Role to CommissionPartyRole--><path d="M144.149,105.559 C146.825,127.159 149.89,151.898 151.62,165.865 " fill="none" id="Role-CommissionPartyRole" style="stroke: #A80036; stroke-width: 1.0;"/><polygon fill="none" points="137.179,106.229,141.666,85.52,151.072,104.508,137.179,106.229" style="stroke: #A80036; stroke-width: 1.0;"/><!--link CommissionPartyRole to CommissionRecipient--><path d="M153,210.595 C153,230.825 153,255.843 153,269.954 " fill="none" id="CommissionPartyRole-CommissionRecipient" style="stroke: #A80036; stroke-width: 1.0;"/><polygon fill="none" points="146,210.306,153,190.306,160,210.305,146,210.306" style="stroke: #A80036; stroke-width: 1.0;"/><!--link ContactPersonRole to RolePlayer--><!--link CounterpartyRisk to ContactPersonRole--><!--link Entry to CounterpartyRisk--><!--link Role to RolePlayer--><path d="M226.414,80.089 C313.077,98.603 433,132.297 433,177 C433,177 433,177 433,371 C433,431.8572 518.842,448.7099 571.634,453.3199 " fill="none" id="Role-RolePlayer" style="stroke: #A80036; stroke-width: 1.0;"/><polygon fill="#A80036" points="576.635,453.7288,567.9919,449.0068,571.6517,453.3202,567.3382,456.98,576.635,453.7288" style="stroke: #A80036; stroke-width: 1.0;"/><text fill="#000000" font-family="sans-serif" font-size="13" lengthAdjust="spacingAndGlyphs" textLength="39" x="434" y="286.0669">Player</text><text fill="#000000" font-family="sans-serif" font-size="13" lengthAdjust="spacingAndGlyphs" textLength="7" x="561.7402" y="447.9585">*</text><!--link Role to ContactPersonRole--><path d="M226.536,68.721 C308.648,74.803 423.913,88.118 459,116 C504.878,152.457 481.131,186.452 509,238 C529.52,275.956 534.125,286.868 564,318 C577.704,332.281 595.714,345.597 609.757,355.039 " fill="none" id="Role-ContactPersonRole" style="stroke: #A80036; stroke-width: 1.0;"/><polygon fill="#A80036" points="613.978,357.842,608.6906,349.5328,609.8118,355.0774,604.2672,356.1987,613.978,357.842" style="stroke: #A80036; stroke-width: 1.0;"/><text fill="#000000" font-family="sans-serif" font-size="13" lengthAdjust="spacingAndGlyphs" textLength="121" x="510" y="233.0669">ContactPersonRole</text><text fill="#000000" font-family="sans-serif" font-size="13" lengthAdjust="spacingAndGlyphs" textLength="8" x="597.0642" y="346.8359">1</text><!--link Role to CounterpartyRisk--><path d="M226.629,65.442 C343.64,68.766 543.45,79.744 606,116 C637.031,133.986 651.807,218.851 652,220 C654.586,235.376 649.874,252.681 645.233,264.921 " fill="none" id="Role-CounterpartyRisk" style="stroke: #A80036; stroke-width: 1.0;"/><polygon fill="#A80036" points="643.27,269.837,650.322,262.9618,645.124,265.1934,642.8923,259.9954,643.27,269.837" style="stroke: #A80036; stroke-width: 1.0;"/><text fill="#000000" font-family="sans-serif" font-size="13" lengthAdjust="spacingAndGlyphs" textLength="109" x="646" y="182.0669">CounterpartyRisk</text><text fill="#000000" font-family="sans-serif" font-size="13" lengthAdjust="spacingAndGlyphs" textLength="24" x="615.5269" y="258.8292">0..1</text><!--link Role to Entry--><path d="M226.432,67.414 C328.507,72.747 490.005,85.779 542,116 C559.927,126.42 573.113,146.861 580.663,161.198 " fill="none" id="Role-Entry" style="stroke: #A80036; stroke-width: 1.0;"/><polygon fill="#A80036" points="583.006,165.803,582.4884,155.9678,580.738,161.347,575.3588,159.5966,583.006,165.803" style="stroke: #A80036; stroke-width: 1.0;"/><text fill="#000000" font-family="sans-serif" font-size="13" lengthAdjust="spacingAndGlyphs" textLength="33" x="563" y="129.0669">Entry</text><text fill="#000000" font-family="sans-serif" font-size="13" lengthAdjust="spacingAndGlyphs" textLength="8" x="570.6955" y="155.0412">1</text><!--link CommissionPartyRole to Commission--><path d="M171.517,190.11 C202.812,208.887 266.076,246.846 300.105,267.263 " fill="none" id="CommissionPartyRole-Commission" style="stroke: #A80036; stroke-width: 1.0;"/><polygon fill="#A80036" points="304.506,269.904,298.8473,261.843,300.2188,267.3311,294.7307,268.7026,304.506,269.904" style="stroke: #A80036; stroke-width: 1.0;"/><text fill="#000000" font-family="sans-serif" font-size="13" lengthAdjust="spacingAndGlyphs" textLength="79" x="250" y="233.0669">Commission</text><text fill="#000000" font-family="sans-serif" font-size="13" lengthAdjust="spacingAndGlyphs" textLength="7" x="288.6018" y="258.9192">*</text></g></svg>