<?xml version="1.0" encoding="UTF-8" standalone="no"?><svg xmlns="http://www.w3.org/2000/svg" xmlns:xlink="http://www.w3.org/1999/xlink" contentScriptType="application/ecmascript" contentStyleType="text/css" height="482px" preserveAspectRatio="none" style="width:1100px;height:482px;" version="1.1" viewBox="0 0 1100 482" width="1100px" zoomAndPan="magnify"><defs><filter height="300%" id="f1jkgrkm2p9ub0" width="300%" x="-1" y="-1"><feGaussianBlur result="blurOut" stdDeviation="2.0"/><feColorMatrix in="blurOut" result="blurOut2" type="matrix" values="0 0 0 0 0 0 0 0 0 0 0 0 0 0 0 0 0 0 .4 0"/><feOffset dx="4.0" dy="4.0" in="blurOut2" result="blurOut3"/><feBlend in="SourceGraphic" in2="blurOut3" mode="normal"/></filter></defs><g><!--cluster ##20529--><!--cluster ##20538--><!--cluster ##20547--><!--class Role--><a target="_top" xlink:actuate="onRequest" xlink:href="../Role.html" xlink:show="new" xlink:title="Role of a party in an activity." xlink:type="simple"><rect fill="#FEFEEE" filter="url(#f1jkgrkm2p9ub0)" height="44.7734" id="Role" style="stroke: #A80036; stroke-width: 1.5;" width="175" x="158.474" y="40.5"/><rect fill="#FEFEEE" height="23.9688" style="stroke: #A80036; stroke-width: 1.5;" width="175" x="158.474" y="40.5"/><text fill="#000000" font-family="sans-serif" font-size="12" lengthAdjust="spacingAndGlyphs" textLength="27" x="232.474" y="56.6387">Role</text><line style="stroke: #A80036; stroke-width: 1.5;" x1="159.474" x2="332.474" y1="64.4688" y2="64.4688"/><ellipse cx="169.474" cy="76.3711" fill="#84BE84" rx="3" ry="3" style="stroke: #038048; stroke-width: 1.0;"/><text fill="#000000" font-family="sans-serif" font-size="11" lengthAdjust="spacingAndGlyphs" textLength="53" x="178.474" y="78.6792">PartyRole</text><text fill="#000000" font-family="sans-serif" font-size="11" font-style="italic" lengthAdjust="spacingAndGlyphs" textLength="92" x="235.474" y="78.6792">(PartyRoleCode)</text></a><!--class CorporateActionPartyRole--><a target="_top" xlink:actuate="onRequest" xlink:href="../CorporateActionPartyRole.html" xlink:show="new" xlink:title="Role played by a party in the context of a corporate action." xlink:type="simple"><rect fill="#FEFEEE" filter="url(#f1jkgrkm2p9ub0)" height="23.9688" id="CorporateActionPartyRole" style="stroke: #A80036; stroke-width: 1.5;" width="167" x="165.474" y="166"/><rect fill="#FEFEEE" height="23.9688" style="stroke: #A80036; stroke-width: 1.5;" width="167" x="165.474" y="166"/><text fill="#000000" font-family="sans-serif" font-size="12" lengthAdjust="spacingAndGlyphs" textLength="161" x="168.474" y="182.1387">CorporateActionPartyRole</text></a><!--class CorporateActionOfferor--><a target="_top" xlink:actuate="onRequest" xlink:href="../CorporateActionOfferor.html" xlink:show="new" xlink:title="Provides the entity making the offer and that is different from the issuing company." xlink:type="simple"><rect fill="#FEFECE" filter="url(#f1jkgrkm2p9ub0)" height="23.9688" id="CorporateActionOfferor" style="stroke: #A80036; stroke-width: 1.5;" width="151" x="182.474" y="272"/><rect fill="#FEFECE" height="23.9688" style="stroke: #A80036; stroke-width: 1.5;" width="151" x="182.474" y="272"/><text fill="#000000" font-family="sans-serif" font-size="12" lengthAdjust="spacingAndGlyphs" textLength="145" x="185.474" y="288.1387">CorporateActionOfferor</text></a><!--class RolePlayer--><a target="_top" xlink:actuate="onRequest" xlink:href="../RolePlayer.html" xlink:show="new" xlink:title="Type of entity that plays a specific role in a specific context." xlink:type="simple"><rect fill="#EEEEEE" filter="url(#f1jkgrkm2p9ub0)" height="23.9688" id="RolePlayer" style="stroke: #A80036; stroke-width: 1.5;" width="71" x="676.474" y="448"/><rect fill="#EEEEEE" height="23.9688" style="stroke: #A80036; stroke-width: 1.5;" width="71" x="676.474" y="448"/><text fill="#000000" font-family="sans-serif" font-size="12" lengthAdjust="spacingAndGlyphs" textLength="65" x="679.474" y="464.1387">RolePlayer</text></a><!--class ContactPersonRole--><a target="_top" xlink:actuate="onRequest" xlink:href="../ContactPersonRole.html" xlink:show="new" xlink:title="Person to be contacted in a given organisation. In the corporate action domain (including meeting notifications), it is the contact person at the party organising the meeting, at the issuer or at an intermediary." xlink:type="simple"><rect fill="#EEEEEE" filter="url(#f1jkgrkm2p9ub0)" height="23.9688" id="ContactPersonRole" style="stroke: #A80036; stroke-width: 1.5;" width="126" x="628.724" y="360"/><rect fill="#EEEEEE" height="23.9688" style="stroke: #A80036; stroke-width: 1.5;" width="126" x="628.724" y="360"/><text fill="#000000" font-family="sans-serif" font-size="12" lengthAdjust="spacingAndGlyphs" textLength="120" x="631.724" y="376.1387">ContactPersonRole</text></a><!--class CounterpartyRisk--><a target="_top" xlink:actuate="onRequest" xlink:href="../CounterpartyRisk.html" xlink:show="new" xlink:title="Calculation of the exposure amount that one party has vis-a-vis one counterparty or a central system, based on its credit risk." xlink:type="simple"><rect fill="#EEEEEE" filter="url(#f1jkgrkm2p9ub0)" height="23.9688" id="CounterpartyRisk" style="stroke: #A80036; stroke-width: 1.5;" width="113" x="635.474" y="272"/><rect fill="#EEEEEE" height="23.9688" style="stroke: #A80036; stroke-width: 1.5;" width="113" x="635.474" y="272"/><text fill="#000000" font-family="sans-serif" font-size="12" lengthAdjust="spacingAndGlyphs" textLength="107" x="638.474" y="288.1387">CounterpartyRisk</text></a><!--class Entry--><a target="_top" xlink:actuate="onRequest" xlink:href="../Entry.html" xlink:show="new" xlink:title="Posting to an account that results in an increase or decrease to a balance." xlink:type="simple"><rect fill="#EEEEEE" filter="url(#f1jkgrkm2p9ub0)" height="23.9688" id="Entry" style="stroke: #A80036; stroke-width: 1.5;" width="38" x="628.724" y="166"/><rect fill="#EEEEEE" height="23.9688" style="stroke: #A80036; stroke-width: 1.5;" width="38" x="628.724" y="166"/><text fill="#000000" font-family="sans-serif" font-size="12" lengthAdjust="spacingAndGlyphs" textLength="32" x="631.724" y="182.1387">Entry</text></a><!--class CorporateActionEvent--><a target="_top" xlink:actuate="onRequest" xlink:href="../CorporateActionEvent.html" xlink:show="new" xlink:title="An event determined by a corporation's board of directors, that changes the existing corporate capital structure or financial condition." xlink:type="simple"><rect fill="#EEEEEE" filter="url(#f1jkgrkm2p9ub0)" height="23.9688" id="CorporateActionEvent" style="stroke: #A80036; stroke-width: 1.5;" width="143" x="390.474" y="360"/><rect fill="#EEEEEE" height="23.9688" style="stroke: #A80036; stroke-width: 1.5;" width="143" x="390.474" y="360"/><text fill="#000000" font-family="sans-serif" font-size="12" lengthAdjust="spacingAndGlyphs" textLength="137" x="393.474" y="376.1387">CorporateActionEvent</text></a><!--class Account--><a target="_top" xlink:actuate="onRequest" xlink:href="../Account.html" xlink:show="new" xlink:title="Record of transactions in specific types of assets, maintained by a servicing party on behalf of one or more owning parties. Business relationship between an account servicer and one or more account owners." xlink:type="simple"><rect fill="#EEEEEE" filter="url(#f1jkgrkm2p9ub0)" height="23.9688" id="Account" style="stroke: #A80036; stroke-width: 1.5;" width="57" x="390.474" y="272"/><rect fill="#EEEEEE" height="23.9688" style="stroke: #A80036; stroke-width: 1.5;" width="57" x="390.474" y="272"/><text fill="#000000" font-family="sans-serif" font-size="12" lengthAdjust="spacingAndGlyphs" textLength="51" x="393.474" y="288.1387">Account</text></a><!--entity ##20552--><!--link Role to CorporateActionPartyRole--><path d="M246.828,105.559 C247.401,127.159 248.058,151.898 248.429,165.865 " fill="none" id="Role-CorporateActionPartyRole" style="stroke: #A80036; stroke-width: 1.0;"/><polygon fill="none" points="239.829,105.699,246.296,85.52,253.824,105.328,239.829,105.699" style="stroke: #A80036; stroke-width: 1.0;"/><!--link CorporateActionPartyRole to CorporateActionOfferor--><path d="M251.426,210.217 C253.234,231.114 255.506,257.371 256.768,271.95 " fill="none" id="CorporateActionPartyRole-CorporateActionOfferor" style="stroke: #A80036; stroke-width: 1.0;"/><polygon fill="none" points="244.438,210.659,249.687,190.13,258.386,209.452,244.438,210.659" style="stroke: #A80036; stroke-width: 1.0;"/><!--link ContactPersonRole to RolePlayer--><!--link CounterpartyRisk to ContactPersonRole--><!--link Entry to CounterpartyRisk--><!--link Account to CorporateActionEvent--><!--link Role to RolePlayer--><path d="M333.188,67.271 C541.308,76.218 1048.72,105.376 1048.72,177 C1048.72,177 1048.72,177 1048.72,373 C1048.72,433.5347 841.994,452.0008 752.367,457.1621 " fill="none" id="Role-RolePlayer" style="stroke: #A80036; stroke-width: 1.0;"/><polygon fill="#A80036" points="747.152,457.455,756.3629,460.9421,752.1441,457.1736,755.9126,452.9548,747.152,457.455" style="stroke: #A80036; stroke-width: 1.0;"/><text fill="#000000" font-family="sans-serif" font-size="13" lengthAdjust="spacingAndGlyphs" textLength="39" x="1049.72" y="288.0669">Player</text><text fill="#000000" font-family="sans-serif" font-size="13" lengthAdjust="spacingAndGlyphs" textLength="7" x="755.6128" y="451.1237">*</text><!--link Role to ContactPersonRole--><path d="M333.23,69.37 C487.12,79.736 792.928,104.809 823.724,142 C864.388,191.106 798.183,279.75 764.724,320 C751.917,335.407 733.369,348.285 718.175,357.246 " fill="none" id="Role-ContactPersonRole" style="stroke: #A80036; stroke-width: 1.0;"/><polygon fill="#A80036" points="713.577,359.899,723.3716,358.8668,717.9081,357.4006,719.3742,351.9371,713.577,359.899" style="stroke: #A80036; stroke-width: 1.0;"/><text fill="#000000" font-family="sans-serif" font-size="13" lengthAdjust="spacingAndGlyphs" textLength="121" x="829.724" y="233.0669">ContactPersonRole</text><text fill="#000000" font-family="sans-serif" font-size="13" lengthAdjust="spacingAndGlyphs" textLength="8" x="710.3702" y="348.9125">1</text><!--link Role to CounterpartyRisk--><path d="M333.133,67.134 C447.448,73.236 638.522,90.981 683.724,142 C714.644,176.898 704.042,237.753 696.544,266.745 " fill="none" id="Role-CounterpartyRisk" style="stroke: #A80036; stroke-width: 1.0;"/><polygon fill="#A80036" points="695.191,271.774,701.3911,264.1216,696.4895,266.9456,693.6656,262.044,695.191,271.774" style="stroke: #A80036; stroke-width: 1.0;"/><text fill="#000000" font-family="sans-serif" font-size="13" lengthAdjust="spacingAndGlyphs" textLength="109" x="704.724" y="182.0669">CounterpartyRisk</text><text fill="#000000" font-family="sans-serif" font-size="13" lengthAdjust="spacingAndGlyphs" textLength="24" x="666.9504" y="261.0026">0..1</text><!--link Role to Entry--><path d="M322.284,85.52 C414.717,111.503 565.034,153.756 623.44,170.174 " fill="none" id="Role-Entry" style="stroke: #A80036; stroke-width: 1.0;"/><polygon fill="#A80036" points="628.473,171.588,620.8912,165.3018,623.6595,170.235,618.7264,173.0033,628.473,171.588" style="stroke: #A80036; stroke-width: 1.0;"/><text fill="#000000" font-family="sans-serif" font-size="13" lengthAdjust="spacingAndGlyphs" textLength="33" x="495.724" y="129.0669">Entry</text><text fill="#000000" font-family="sans-serif" font-size="13" lengthAdjust="spacingAndGlyphs" textLength="8" x="612.6524" y="163.484">1</text><!--link CorporateActionPartyRole to CorporateActionEvent--><path d="M180.082,190.039 C120.497,201.188 40.8519,220.411 21.7243,246 C2.0332,272.343 -0.1519,295.442 21.7243,320 C45.4129,346.593 265.212,361.404 384.9,367.56 " fill="none" id="CorporateActionPartyRole-CorporateActionEvent" style="stroke: #A80036; stroke-width: 1.0;"/><polygon fill="#A80036" points="390.171,367.829,381.3874,363.3739,385.1775,367.5733,380.9782,371.3634,390.171,367.829" style="stroke: #A80036; stroke-width: 1.0;"/><text fill="#000000" font-family="sans-serif" font-size="13" lengthAdjust="spacingAndGlyphs" textLength="140" x="22.7243" y="288.0669">CorporateActionEvent</text><text fill="#000000" font-family="sans-serif" font-size="13" lengthAdjust="spacingAndGlyphs" textLength="7" x="375.3753" y="362.7747">*</text><!--link CorporateActionPartyRole to Account--><path d="M266.917,190.13 C298.232,209.287 362.225,248.436 396.264,269.26 " fill="none" id="CorporateActionPartyRole-Account" style="stroke: #A80036; stroke-width: 1.0;"/><polygon fill="#A80036" points="400.662,271.95,395.0707,263.8422,396.3964,269.3415,390.897,270.6672,400.662,271.95" style="stroke: #A80036; stroke-width: 1.0;"/><text fill="#000000" font-family="sans-serif" font-size="13" lengthAdjust="spacingAndGlyphs" textLength="52" x="345.724" y="233.0669">Account</text><text fill="#000000" font-family="sans-serif" font-size="13" lengthAdjust="spacingAndGlyphs" textLength="7" x="384.8204" y="260.981">*</text><!--link Entry to Account--><path d="M628.594,187.688 C588.478,205.907 495.346,248.202 447.794,269.798 " fill="none" id="Entry-Account" style="stroke: #A80036; stroke-width: 1.0;"/><polygon fill="#A80036" points="443.06,271.948,452.9085,271.8694,447.6127,269.8809,449.6012,264.5851,443.06,271.948" style="stroke: #A80036; stroke-width: 1.0;"/><text fill="#000000" font-family="sans-serif" font-size="13" lengthAdjust="spacingAndGlyphs" textLength="52" x="555.724" y="233.0669">Account</text><text fill="#000000" font-family="sans-serif" font-size="13" lengthAdjust="spacingAndGlyphs" textLength="7" x="441.7927" y="260.9783">*</text><!--link Account to Account--><path d="M447.232,276.332 C464.905,274.483 481.724,277.039 481.724,284 C481.724,290.254 468.148,292.952 452.574,292.095 " fill="none" id="Account-Account" style="stroke: #A80036; stroke-width: 1.0;"/><polygon fill="#A80036" points="447.232,291.668,455.8845,296.3727,452.2161,292.0666,456.5222,288.3981,447.232,291.668" style="stroke: #A80036; stroke-width: 1.0;"/><text fill="#000000" font-family="sans-serif" font-size="13" lengthAdjust="spacingAndGlyphs" textLength="94" x="487.724" y="288.0669">ParentAccount</text><text fill="#000000" font-family="sans-serif" font-size="13" lengthAdjust="spacingAndGlyphs" textLength="8" x="455.4981" y="287.5427">1</text></g></svg>