<?xml version="1.0" encoding="UTF-8" standalone="no"?><svg xmlns="http://www.w3.org/2000/svg" xmlns:xlink="http://www.w3.org/1999/xlink" contentScriptType="application/ecmascript" contentStyleType="text/css" height="482px" preserveAspectRatio="none" style="width:1631px;height:482px;" version="1.1" viewBox="0 0 1631 482" width="1631px" zoomAndPan="magnify"><defs><filter height="300%" id="fcr6jq2aitqt1" width="300%" x="-1" y="-1"><feGaussianBlur result="blurOut" stdDeviation="2.0"/><feColorMatrix in="blurOut" result="blurOut2" type="matrix" values="0 0 0 0 0 0 0 0 0 0 0 0 0 0 0 0 0 0 .4 0"/><feOffset dx="4.0" dy="4.0" in="blurOut2" result="blurOut3"/><feBlend in="SourceGraphic" in2="blurOut3" mode="normal"/></filter></defs><g><!--cluster ##16697--><!--cluster ##16715--><!--cluster ##16724--><!--class Role--><a target="_top" xlink:actuate="onRequest" xlink:href="../Role.html" xlink:show="new" xlink:title="Role of a party in an activity." xlink:type="simple"><rect fill="#FEFEEE" filter="url(#fcr6jq2aitqt1)" height="44.7734" id="Role" style="stroke: #A80036; stroke-width: 1.5;" width="175" x="689.486" y="40.5"/><rect fill="#FEFEEE" height="23.9688" style="stroke: #A80036; stroke-width: 1.5;" width="175" x="689.486" y="40.5"/><text fill="#000000" font-family="sans-serif" font-size="12" lengthAdjust="spacingAndGlyphs" textLength="27" x="763.486" y="56.6387">Role</text><line style="stroke: #A80036; stroke-width: 1.5;" x1="690.486" x2="863.486" y1="64.4688" y2="64.4688"/><ellipse cx="700.486" cy="76.3711" fill="#84BE84" rx="3" ry="3" style="stroke: #038048; stroke-width: 1.0;"/><text fill="#000000" font-family="sans-serif" font-size="11" lengthAdjust="spacingAndGlyphs" textLength="53" x="709.486" y="78.6792">PartyRole</text><text fill="#000000" font-family="sans-serif" font-size="11" font-style="italic" lengthAdjust="spacingAndGlyphs" textLength="92" x="766.486" y="78.6792">(PartyRoleCode)</text></a><!--class CorporateActionPartyRole--><a target="_top" xlink:actuate="onRequest" xlink:href="../CorporateActionPartyRole.html" xlink:show="new" xlink:title="Role played by a party in the context of a corporate action." xlink:type="simple"><rect fill="#FEFECE" filter="url(#fcr6jq2aitqt1)" height="23.9688" id="CorporateActionPartyRole" style="stroke: #A80036; stroke-width: 1.5;" width="167" x="512.486" y="166"/><rect fill="#FEFECE" height="23.9688" style="stroke: #A80036; stroke-width: 1.5;" width="167" x="512.486" y="166"/><text fill="#000000" font-family="sans-serif" font-size="12" lengthAdjust="spacingAndGlyphs" textLength="161" x="515.486" y="182.1387">CorporateActionPartyRole</text></a><!--class MeetingPartyRole--><a target="_top" xlink:actuate="onRequest" xlink:href="../MeetingPartyRole.html" xlink:show="new" xlink:title="Role played by a party in the context of a meeting." xlink:type="simple"><rect fill="#FEFEEE" filter="url(#fcr6jq2aitqt1)" height="23.9688" id="MeetingPartyRole" style="stroke: #A80036; stroke-width: 1.5;" width="115" x="183.486" y="272"/><rect fill="#FEFEEE" height="23.9688" style="stroke: #A80036; stroke-width: 1.5;" width="115" x="183.486" y="272"/><text fill="#000000" font-family="sans-serif" font-size="12" lengthAdjust="spacingAndGlyphs" textLength="109" x="186.486" y="288.1387">MeetingPartyRole</text></a><!--class CorporateActionAgent--><a target="_top" xlink:actuate="onRequest" xlink:href="../CorporateActionAgent.html" xlink:show="new" xlink:title="A firm authorised to act as an intermediary between issuer and shareholders. It takes care of the needs of the shareholders such as reporting, inquiries and regulatory compliance." xlink:type="simple"><rect fill="#FEFEEE" filter="url(#fcr6jq2aitqt1)" height="23.9688" id="CorporateActionAgent" style="stroke: #A80036; stroke-width: 1.5;" width="145" x="333.486" y="272"/><rect fill="#FEFEEE" height="23.9688" style="stroke: #A80036; stroke-width: 1.5;" width="145" x="333.486" y="272"/><text fill="#000000" font-family="sans-serif" font-size="12" lengthAdjust="spacingAndGlyphs" textLength="139" x="336.486" y="288.1387">CorporateActionAgent</text></a><!--class MarketClaimCounterparty--><a target="_top" xlink:actuate="onRequest" xlink:href="../MarketClaimCounterparty.html" xlink:show="new" xlink:title="Party that has reimbursed the account owner with funds to which they were legally entitled." xlink:type="simple"><rect fill="#FEFEEE" filter="url(#fcr6jq2aitqt1)" height="23.9688" id="MarketClaimCounterparty" style="stroke: #A80036; stroke-width: 1.5;" width="164" x="513.736" y="272"/><rect fill="#FEFEEE" height="23.9688" style="stroke: #A80036; stroke-width: 1.5;" width="164" x="513.736" y="272"/><text fill="#000000" font-family="sans-serif" font-size="12" lengthAdjust="spacingAndGlyphs" textLength="158" x="516.736" y="288.1387">MarketClaimCounterparty</text></a><!--class CorporateActionOfferor--><a target="_top" xlink:actuate="onRequest" xlink:href="../CorporateActionOfferor.html" xlink:show="new" xlink:title="Provides the entity making the offer and that is different from the issuing company." xlink:type="simple"><rect fill="#FEFEEE" filter="url(#fcr6jq2aitqt1)" height="23.9688" id="CorporateActionOfferor" style="stroke: #A80036; stroke-width: 1.5;" width="151" x="713.486" y="272"/><rect fill="#FEFEEE" height="23.9688" style="stroke: #A80036; stroke-width: 1.5;" width="151" x="713.486" y="272"/><text fill="#000000" font-family="sans-serif" font-size="12" lengthAdjust="spacingAndGlyphs" textLength="145" x="716.486" y="288.1387">CorporateActionOfferor</text></a><!--class RolePlayer--><a target="_top" xlink:actuate="onRequest" xlink:href="../RolePlayer.html" xlink:show="new" xlink:title="Type of entity that plays a specific role in a specific context." xlink:type="simple"><rect fill="#EEEEEE" filter="url(#fcr6jq2aitqt1)" height="23.9688" id="RolePlayer" style="stroke: #A80036; stroke-width: 1.5;" width="71" x="1207.49" y="448"/><rect fill="#EEEEEE" height="23.9688" style="stroke: #A80036; stroke-width: 1.5;" width="71" x="1207.49" y="448"/><text fill="#000000" font-family="sans-serif" font-size="12" lengthAdjust="spacingAndGlyphs" textLength="65" x="1210.49" y="464.1387">RolePlayer</text></a><!--class ContactPersonRole--><a target="_top" xlink:actuate="onRequest" xlink:href="../ContactPersonRole.html" xlink:show="new" xlink:title="Person to be contacted in a given organisation. In the corporate action domain (including meeting notifications) , it is the contact person at the party organising the meeting, at the issuer or at an intermediary." xlink:type="simple"><rect fill="#EEEEEE" filter="url(#fcr6jq2aitqt1)" height="23.9688" id="ContactPersonRole" style="stroke: #A80036; stroke-width: 1.5;" width="126" x="1159.74" y="360"/><rect fill="#EEEEEE" height="23.9688" style="stroke: #A80036; stroke-width: 1.5;" width="126" x="1159.74" y="360"/><text fill="#000000" font-family="sans-serif" font-size="12" lengthAdjust="spacingAndGlyphs" textLength="120" x="1162.74" y="376.1387">ContactPersonRole</text></a><!--class CounterpartyRisk--><a target="_top" xlink:actuate="onRequest" xlink:href="../CounterpartyRisk.html" xlink:show="new" xlink:title="Calculation of the exposure amount that one party has vis-a-vis one counterparty or a central system, based on its credit risk." xlink:type="simple"><rect fill="#EEEEEE" filter="url(#fcr6jq2aitqt1)" height="23.9688" id="CounterpartyRisk" style="stroke: #A80036; stroke-width: 1.5;" width="113" x="1166.49" y="272"/><rect fill="#EEEEEE" height="23.9688" style="stroke: #A80036; stroke-width: 1.5;" width="113" x="1166.49" y="272"/><text fill="#000000" font-family="sans-serif" font-size="12" lengthAdjust="spacingAndGlyphs" textLength="107" x="1169.49" y="288.1387">CounterpartyRisk</text></a><!--class Entry--><a target="_top" xlink:actuate="onRequest" xlink:href="../Entry.html" xlink:show="new" xlink:title="Posting to an account that results in an increase or decrease to a balance." xlink:type="simple"><rect fill="#EEEEEE" filter="url(#fcr6jq2aitqt1)" height="23.9688" id="Entry" style="stroke: #A80036; stroke-width: 1.5;" width="38" x="1159.74" y="166"/><rect fill="#EEEEEE" height="23.9688" style="stroke: #A80036; stroke-width: 1.5;" width="38" x="1159.74" y="166"/><text fill="#000000" font-family="sans-serif" font-size="12" lengthAdjust="spacingAndGlyphs" textLength="32" x="1162.74" y="182.1387">Entry</text></a><!--class CorporateActionEvent--><a target="_top" xlink:actuate="onRequest" xlink:href="../CorporateActionEvent.html" xlink:show="new" xlink:title="An event determined by a corporation's board of directors, that changes the existing corporate capital structure or financial condition." xlink:type="simple"><rect fill="#EEEEEE" filter="url(#fcr6jq2aitqt1)" height="23.9688" id="CorporateActionEvent" style="stroke: #A80036; stroke-width: 1.5;" width="143" x="921.486" y="360"/><rect fill="#EEEEEE" height="23.9688" style="stroke: #A80036; stroke-width: 1.5;" width="143" x="921.486" y="360"/><text fill="#000000" font-family="sans-serif" font-size="12" lengthAdjust="spacingAndGlyphs" textLength="137" x="924.486" y="376.1387">CorporateActionEvent</text></a><!--class Account--><a target="_top" xlink:actuate="onRequest" xlink:href="../Account.html" xlink:show="new" xlink:title="Record of transactions in specific types of assets, maintained by a servicing party on behalf of one or more owning parties. Business relationship between an account servicer and one or more account owners." xlink:type="simple"><rect fill="#EEEEEE" filter="url(#fcr6jq2aitqt1)" height="23.9688" id="Account" style="stroke: #A80036; stroke-width: 1.5;" width="57" x="921.486" y="272"/><rect fill="#EEEEEE" height="23.9688" style="stroke: #A80036; stroke-width: 1.5;" width="57" x="921.486" y="272"/><text fill="#000000" font-family="sans-serif" font-size="12" lengthAdjust="spacingAndGlyphs" textLength="51" x="924.486" y="288.1387">Account</text></a><!--link Role to CorporateActionPartyRole--><path d="M725.17,96.193 C687.714,119.577 639.264,149.825 613.572,165.865 " fill="none" id="Role-CorporateActionPartyRole" style="stroke: #A80036; stroke-width: 1.0;"/><polygon fill="none" points="721.593,90.174,742.265,85.52,729.007,102.05,721.593,90.174" style="stroke: #A80036; stroke-width: 1.0;"/><!--link CorporateActionPartyRole to MeetingPartyRole--><path d="M512.146,193.91 C455.73,205.203 380.111,222.75 315.736,246 C296.208,253.053 275.095,263.771 260.26,271.86 " fill="none" id="CorporateActionPartyRole-MeetingPartyRole" style="stroke: #A80036; stroke-width: 1.0;"/><polygon fill="none" points="511.035,186.995,532.005,190.034,513.717,200.736,511.035,186.995" style="stroke: #A80036; stroke-width: 1.0;"/><!--link CorporateActionPartyRole to CorporateActionAgent--><path d="M557.831,199.748 C518.123,221.483 457.259,254.798 425.923,271.95 " fill="none" id="CorporateActionPartyRole-CorporateActionAgent" style="stroke: #A80036; stroke-width: 1.0;"/><polygon fill="none" points="554.498,193.592,575.403,190.13,561.22,205.873,554.498,193.592" style="stroke: #A80036; stroke-width: 1.0;"/><!--link CorporateActionPartyRole to MarketClaimCounterparty--><path d="M595.736,210.217 C595.736,231.114 595.736,257.371 595.736,271.95 " fill="none" id="CorporateActionPartyRole-MarketClaimCounterparty" style="stroke: #A80036; stroke-width: 1.0;"/><polygon fill="none" points="588.736,210.13,595.736,190.13,602.736,210.13,588.736,210.13" style="stroke: #A80036; stroke-width: 1.0;"/><!--link CorporateActionPartyRole to CorporateActionOfferor--><path d="M634.24,199.748 C674.575,221.483 736.4,254.798 768.23,271.95 " fill="none" id="CorporateActionPartyRole-CorporateActionOfferor" style="stroke: #A80036; stroke-width: 1.0;"/><polygon fill="none" points="630.676,205.78,616.391,190.13,637.318,193.455,630.676,205.78" style="stroke: #A80036; stroke-width: 1.0;"/><!--link ContactPersonRole to RolePlayer--><!--link CounterpartyRisk to ContactPersonRole--><!--link Entry to CounterpartyRisk--><!--link Account to CorporateActionEvent--><!--link Role to RolePlayer--><path d="M864.2,67.271 C1072.32,76.218 1579.74,105.376 1579.74,177 C1579.74,177 1579.74,177 1579.74,373 C1579.74,433.5347 1373.01,452.0008 1283.38,457.1621 " fill="none" id="Role-RolePlayer" style="stroke: #A80036; stroke-width: 1.0;"/><polygon fill="#A80036" points="1278.16,457.455,1287.3639,460.9605,1283.1526,457.1835,1286.9296,452.9723,1278.16,457.455" style="stroke: #A80036; stroke-width: 1.0;"/><text fill="#000000" font-family="sans-serif" font-size="13" lengthAdjust="spacingAndGlyphs" textLength="39" x="1580.74" y="288.0669">Player</text><text fill="#000000" font-family="sans-serif" font-size="13" lengthAdjust="spacingAndGlyphs" textLength="7" x="1286.6191" y="451.1237">*</text><!--link Role to ContactPersonRole--><path d="M864.242,69.37 C1018.13,79.736 1323.94,104.809 1354.74,142 C1395.4,191.106 1329.19,279.75 1295.74,320 C1282.93,335.407 1264.38,348.285 1249.19,357.246 " fill="none" id="Role-ContactPersonRole" style="stroke: #A80036; stroke-width: 1.0;"/><polygon fill="#A80036" points="1244.59,359.899,1254.3844,358.8644,1248.9205,357.3996,1250.3853,351.9357,1244.59,359.899" style="stroke: #A80036; stroke-width: 1.0;"/><text fill="#000000" font-family="sans-serif" font-size="13" lengthAdjust="spacingAndGlyphs" textLength="121" x="1360.74" y="233.0669">ContactPersonRole</text><text fill="#000000" font-family="sans-serif" font-size="13" lengthAdjust="spacingAndGlyphs" textLength="8" x="1241.3822" y="348.9125">1</text><!--link Role to CounterpartyRisk--><path d="M864.144,67.134 C978.46,73.236 1169.53,90.981 1214.74,142 C1245.66,176.898 1235.05,237.753 1227.56,266.745 " fill="none" id="Role-CounterpartyRisk" style="stroke: #A80036; stroke-width: 1.0;"/><polygon fill="#A80036" points="1226.2,271.774,1232.4001,264.1216,1227.4985,266.9456,1224.6746,262.044,1226.2,271.774" style="stroke: #A80036; stroke-width: 1.0;"/><text fill="#000000" font-family="sans-serif" font-size="13" lengthAdjust="spacingAndGlyphs" textLength="109" x="1235.74" y="182.0669">CounterpartyRisk</text><text fill="#000000" font-family="sans-serif" font-size="13" lengthAdjust="spacingAndGlyphs" textLength="24" x="1197.9571" y="261.0026">0..1</text><!--link Role to Entry--><path d="M853.296,85.52 C945.729,111.503 1096.05,153.756 1154.45,170.174 " fill="none" id="Role-Entry" style="stroke: #A80036; stroke-width: 1.0;"/><polygon fill="#A80036" points="1159.48,171.588,1151.8861,165.3164,1154.6639,170.2443,1149.7361,173.0221,1159.48,171.588" style="stroke: #A80036; stroke-width: 1.0;"/><text fill="#000000" font-family="sans-serif" font-size="13" lengthAdjust="spacingAndGlyphs" textLength="33" x="1026.74" y="129.0669">Entry</text><text fill="#000000" font-family="sans-serif" font-size="13" lengthAdjust="spacingAndGlyphs" textLength="8" x="1143.6569" y="163.484">1</text><!--link CorporateActionPartyRole to CorporateActionEvent--><path d="M512.197,182.735 C361.028,190.355 54.6957,210.086 22.7362,246 C0.8724,270.569 0.099,296.141 22.7362,320 C53.3446,352.26 692.236,365.985 916.08,369.815 " fill="none" id="CorporateActionPartyRole-CorporateActionEvent" style="stroke: #A80036; stroke-width: 1.0;"/><polygon fill="#A80036" points="921.29,369.904,912.3587,365.7529,916.2907,369.8197,912.2239,373.7517,921.29,369.904" style="stroke: #A80036; stroke-width: 1.0;"/><text fill="#000000" font-family="sans-serif" font-size="13" lengthAdjust="spacingAndGlyphs" textLength="140" x="23.7362" y="288.0669">CorporateActionEvent</text><text fill="#000000" font-family="sans-serif" font-size="13" lengthAdjust="spacingAndGlyphs" textLength="7" x="906.5038" y="365.0345">*</text><!--link CorporateActionPartyRole to Account--><path d="M664.887,190.024 C723.548,200.603 809.304,218.986 880.736,246 C897.185,252.221 914.631,261.603 927.865,269.364 " fill="none" id="CorporateActionPartyRole-Account" style="stroke: #A80036; stroke-width: 1.0;"/><polygon fill="#A80036" points="932.184,271.926,926.4851,263.8934,927.884,269.3746,922.4028,270.7734,932.184,271.926" style="stroke: #A80036; stroke-width: 1.0;"/><text fill="#000000" font-family="sans-serif" font-size="13" lengthAdjust="spacingAndGlyphs" textLength="52" x="859.736" y="233.0669">Account</text><text fill="#000000" font-family="sans-serif" font-size="13" lengthAdjust="spacingAndGlyphs" textLength="7" x="916.5177" y="260.9488">*</text><!--link Entry to Account--><path d="M1159.61,187.688 C1119.49,205.907 1026.36,248.202 978.806,269.798 " fill="none" id="Entry-Account" style="stroke: #A80036; stroke-width: 1.0;"/><polygon fill="#A80036" points="974.072,271.948,983.9205,271.8694,978.6247,269.8809,980.6132,264.5851,974.072,271.948" style="stroke: #A80036; stroke-width: 1.0;"/><text fill="#000000" font-family="sans-serif" font-size="13" lengthAdjust="spacingAndGlyphs" textLength="52" x="1086.74" y="233.0669">Account</text><text fill="#000000" font-family="sans-serif" font-size="13" lengthAdjust="spacingAndGlyphs" textLength="7" x="972.8047" y="260.9783">*</text><!--link Account to Account--><path d="M978.244,276.332 C995.917,274.483 1012.74,277.039 1012.74,284 C1012.74,290.254 999.16,292.952 983.586,292.095 " fill="none" id="Account-Account" style="stroke: #A80036; stroke-width: 1.0;"/><polygon fill="#A80036" points="978.244,291.668,986.8965,296.3727,983.2281,292.0666,987.5342,288.3981,978.244,291.668" style="stroke: #A80036; stroke-width: 1.0;"/><text fill="#000000" font-family="sans-serif" font-size="13" lengthAdjust="spacingAndGlyphs" textLength="94" x="1018.74" y="288.0669">ParentAccount</text><text fill="#000000" font-family="sans-serif" font-size="13" lengthAdjust="spacingAndGlyphs" textLength="8" x="986.5101" y="287.5427">1</text></g></svg>