<?xml version="1.0" encoding="UTF-8" standalone="no"?><svg xmlns="http://www.w3.org/2000/svg" xmlns:xlink="http://www.w3.org/1999/xlink" contentScriptType="application/ecmascript" contentStyleType="text/css" height="1158px" preserveAspectRatio="none" style="width:2789px;height:1158px;" version="1.1" viewBox="0 0 2789 1158" width="2789px" zoomAndPan="magnify"><defs><filter height="300%" id="f7alnj135bml2" width="300%" x="-1" y="-1"><feGaussianBlur result="blurOut" stdDeviation="2.0"/><feColorMatrix in="blurOut" result="blurOut2" type="matrix" values="0 0 0 0 0 0 0 0 0 0 0 0 0 0 0 0 0 0 .4 0"/><feOffset dx="4.0" dy="4.0" in="blurOut2" result="blurOut3"/><feBlend in="SourceGraphic" in2="blurOut3" mode="normal"/></filter></defs><g><!--cluster ##10543--><!--cluster ##10558--><!--cluster ##10585--><!--class Product--><a target="_top" xlink:actuate="onRequest" xlink:href="../Product.html" xlink:show="new" xlink:title="Item that is offered for sale. Products can be services or goods." xlink:type="simple"><rect fill="#FEFEEE" filter="url(#f7alnj135bml2)" height="70.3828" id="Product" style="stroke: #A80036; stroke-width: 1.5;" width="171" x="565.75" y="40"/><rect fill="#FEFEEE" height="23.9688" style="stroke: #A80036; stroke-width: 1.5;" width="171" x="565.75" y="40"/><text fill="#000000" font-family="sans-serif" font-size="12" lengthAdjust="spacingAndGlyphs" textLength="49" x="626.75" y="56.1387">Product</text><line style="stroke: #A80036; stroke-width: 1.5;" x1="566.75" x2="735.75" y1="63.9688" y2="63.9688"/><ellipse cx="576.75" cy="75.8711" fill="#84BE84" rx="3" ry="3" style="stroke: #038048; stroke-width: 1.0;"/><text fill="#000000" font-family="sans-serif" font-size="11" lengthAdjust="spacingAndGlyphs" textLength="33" x="585.75" y="78.1792">Name</text><text fill="#000000" font-family="sans-serif" font-size="11" font-style="italic" lengthAdjust="spacingAndGlyphs" textLength="70" x="622.75" y="78.1792">(Max35Text)</text><ellipse cx="576.75" cy="88.6758" fill="#84BE84" rx="3" ry="3" style="stroke: #038048; stroke-width: 1.0;"/><text fill="#000000" font-family="sans-serif" font-size="11" lengthAdjust="spacingAndGlyphs" textLength="64" x="585.75" y="90.9839">Description</text><text fill="#000000" font-family="sans-serif" font-size="11" font-style="italic" lengthAdjust="spacingAndGlyphs" textLength="77" x="653.75" y="90.9839">(Max140Text)</text><ellipse cx="576.75" cy="101.4805" fill="#84BE84" rx="3" ry="3" style="stroke: #038048; stroke-width: 1.0;"/><text fill="#000000" font-family="sans-serif" font-size="11" lengthAdjust="spacingAndGlyphs" textLength="39" x="585.75" y="103.7886">Quality</text><text fill="#000000" font-family="sans-serif" font-size="11" font-style="italic" lengthAdjust="spacingAndGlyphs" textLength="70" x="628.75" y="103.7886">(Max70Text)</text></a><!--class Service--><a target="_top" xlink:actuate="onRequest" xlink:href="../Service.html" xlink:show="new" xlink:title="Service is the intangible equivalent of a good." xlink:type="simple"><rect fill="#FEFEEE" filter="url(#f7alnj135bml2)" height="83.1875" id="Service" style="stroke: #A80036; stroke-width: 1.5;" width="283" x="453.75" y="188.5"/><rect fill="#FEFEEE" height="23.9688" style="stroke: #A80036; stroke-width: 1.5;" width="283" x="453.75" y="188.5"/><text fill="#000000" font-family="sans-serif" font-size="12" lengthAdjust="spacingAndGlyphs" textLength="45" x="572.75" y="204.6387">Service</text><line style="stroke: #A80036; stroke-width: 1.5;" x1="454.75" x2="735.75" y1="212.4688" y2="212.4688"/><ellipse cx="464.75" cy="224.3711" fill="#84BE84" rx="3" ry="3" style="stroke: #038048; stroke-width: 1.0;"/><text fill="#000000" font-family="sans-serif" font-size="11" lengthAdjust="spacingAndGlyphs" textLength="43" x="473.75" y="226.6792">Amount</text><text fill="#000000" font-family="sans-serif" font-size="11" font-style="italic" lengthAdjust="spacingAndGlyphs" textLength="126" x="520.75" y="226.6792">(CurrencyAndAmount)</text><ellipse cx="464.75" cy="237.1758" fill="#84BE84" rx="3" ry="3" style="stroke: #038048; stroke-width: 1.0;"/><text fill="#000000" font-family="sans-serif" font-size="11" lengthAdjust="spacingAndGlyphs" textLength="27" x="473.75" y="239.4839">Type</text><text fill="#000000" font-family="sans-serif" font-size="11" font-style="italic" lengthAdjust="spacingAndGlyphs" textLength="70" x="504.75" y="239.4839">(Max35Text)</text><ellipse cx="464.75" cy="249.9805" fill="#84BE84" rx="3" ry="3" style="stroke: #038048; stroke-width: 1.0;"/><text fill="#000000" font-family="sans-serif" font-size="11" lengthAdjust="spacingAndGlyphs" textLength="87" x="473.75" y="252.2886">TaxDesignation</text><text fill="#000000" font-family="sans-serif" font-size="11" font-style="italic" lengthAdjust="spacingAndGlyphs" textLength="166" x="564.75" y="252.2886">(ServiceTaxDesignationCode)</text><ellipse cx="464.75" cy="262.7852" fill="#84BE84" rx="3" ry="3" style="stroke: #038048; stroke-width: 1.0;"/><text fill="#000000" font-family="sans-serif" font-size="11" lengthAdjust="spacingAndGlyphs" textLength="25" x="473.75" y="265.0933">Rate</text><text fill="#000000" font-family="sans-serif" font-size="11" font-style="italic" lengthAdjust="spacingAndGlyphs" textLength="98" x="502.75" y="265.0933">(PercentageRate)</text></a><!--class FinancialService--><a target="_top" xlink:actuate="onRequest" xlink:href="../FinancialService.html" xlink:show="new" xlink:title="Services provided by a financial institution to its clients." xlink:type="simple"><rect fill="#FEFEEE" filter="url(#f7alnj135bml2)" height="23.9688" id="FinancialService" style="stroke: #A80036; stroke-width: 1.5;" width="106" x="542.5" y="350"/><rect fill="#FEFEEE" height="23.9688" style="stroke: #A80036; stroke-width: 1.5;" width="106" x="542.5" y="350"/><text fill="#000000" font-family="sans-serif" font-size="12" lengthAdjust="spacingAndGlyphs" textLength="100" x="545.5" y="366.1387">FinancialService</text></a><!--class CorporateActionServicing--><a target="_top" xlink:actuate="onRequest" xlink:href="../CorporateActionServicing.html" xlink:show="new" xlink:title="Services which consists in notifying the investor or its agent of a corporate event and calculating its proceeds based on its holdings." xlink:type="simple"><rect fill="#FEFECE" filter="url(#f7alnj135bml2)" height="23.9688" id="CorporateActionServicing" style="stroke: #A80036; stroke-width: 1.5;" width="164" x="513" y="452"/><rect fill="#FEFECE" height="23.9688" style="stroke: #A80036; stroke-width: 1.5;" width="164" x="513" y="452"/><text fill="#000000" font-family="sans-serif" font-size="12" lengthAdjust="spacingAndGlyphs" textLength="158" x="516" y="468.1387">CorporateActionServicing</text></a><!--class MeetingServicing--><a target="_top" xlink:actuate="onRequest" xlink:href="../MeetingServicing.html" xlink:show="new" xlink:title="Services which consists in notifying the investor or its agent of a meeting, in validating and relaying its instructions and in calculating its entitlement based on its holdings." xlink:type="simple"><rect fill="#FEFEEE" filter="url(#f7alnj135bml2)" height="23.9688" id="MeetingServicing" style="stroke: #A80036; stroke-width: 1.5;" width="112" x="625.5" y="556"/><rect fill="#FEFEEE" height="23.9688" style="stroke: #A80036; stroke-width: 1.5;" width="112" x="625.5" y="556"/><text fill="#000000" font-family="sans-serif" font-size="12" lengthAdjust="spacingAndGlyphs" textLength="106" x="628.5" y="572.1387">MeetingServicing</text></a><!--class CardPayment--><a target="_top" xlink:actuate="onRequest" xlink:href="../CardPayment.html" xlink:show="new" xlink:title="Payment through an electronic money product." xlink:type="simple"><rect fill="#EEEEEE" filter="url(#f7alnj135bml2)" height="23.9688" id="CardPayment" style="stroke: #A80036; stroke-width: 1.5;" width="89" x="1807.75" y="452"/><rect fill="#EEEEEE" height="23.9688" style="stroke: #A80036; stroke-width: 1.5;" width="89" x="1807.75" y="452"/><text fill="#000000" font-family="sans-serif" font-size="12" lengthAdjust="spacingAndGlyphs" textLength="83" x="1810.75" y="468.1387">CardPayment</text></a><!--class Price--><a target="_top" xlink:actuate="onRequest" xlink:href="../Price.html" xlink:show="new" xlink:title="Amount of money for which goods, services or assets are offered, sold, or bought." xlink:type="simple"><rect fill="#EEEEEE" filter="url(#f7alnj135bml2)" height="23.9688" id="Price" style="stroke: #A80036; stroke-width: 1.5;" width="37" x="1642.75" y="350"/><rect fill="#EEEEEE" height="23.9688" style="stroke: #A80036; stroke-width: 1.5;" width="37" x="1642.75" y="350"/><text fill="#000000" font-family="sans-serif" font-size="12" lengthAdjust="spacingAndGlyphs" textLength="31" x="1645.75" y="366.1387">Price</text></a><!--class ProductCategory--><a target="_top" xlink:actuate="onRequest" xlink:href="../ProductCategory.html" xlink:show="new" xlink:title="Specifies the category of the product." xlink:type="simple"><rect fill="#EEEEEE" filter="url(#f7alnj135bml2)" height="23.9688" id="ProductCategory" style="stroke: #A80036; stroke-width: 1.5;" width="111" x="1458.75" y="218"/><rect fill="#EEEEEE" height="23.9688" style="stroke: #A80036; stroke-width: 1.5;" width="111" x="1458.75" y="218"/><text fill="#000000" font-family="sans-serif" font-size="12" lengthAdjust="spacingAndGlyphs" textLength="105" x="1461.75" y="234.1387">ProductCategory</text></a><!--class LineItem--><a target="_top" xlink:actuate="onRequest" xlink:href="../LineItem.html" xlink:show="new" xlink:title="Unit of information showing the related provision of products and/or services and monetary summations reported as a discrete line item." xlink:type="simple"><rect fill="#EEEEEE" filter="url(#f7alnj135bml2)" height="23.9688" id="LineItem" style="stroke: #A80036; stroke-width: 1.5;" width="58" x="1920.5" y="63"/><rect fill="#EEEEEE" height="23.9688" style="stroke: #A80036; stroke-width: 1.5;" width="58" x="1920.5" y="63"/><text fill="#000000" font-family="sans-serif" font-size="12" lengthAdjust="spacingAndGlyphs" textLength="52" x="1923.5" y="79.1387">LineItem</text></a><!--class ProductIdentification--><a target="_top" xlink:actuate="onRequest" xlink:href="../ProductIdentification.html" xlink:show="new" xlink:title="Information used to identify a product." xlink:type="simple"><rect fill="#EEEEEE" filter="url(#f7alnj135bml2)" height="23.9688" id="ProductIdentification" style="stroke: #A80036; stroke-width: 1.5;" width="136" x="1522" y="556"/><rect fill="#EEEEEE" height="23.9688" style="stroke: #A80036; stroke-width: 1.5;" width="136" x="1522" y="556"/><text fill="#000000" font-family="sans-serif" font-size="12" lengthAdjust="spacingAndGlyphs" textLength="130" x="1525" y="572.1387">ProductIdentification</text></a><!--class Country--><a target="_top" xlink:actuate="onRequest" xlink:href="../Country.html" xlink:show="new" xlink:title="Nation with its own government." xlink:type="simple"><rect fill="#EEEEEE" filter="url(#f7alnj135bml2)" height="23.9688" id="Country" style="stroke: #A80036; stroke-width: 1.5;" width="54" x="1482" y="452"/><rect fill="#EEEEEE" height="23.9688" style="stroke: #A80036; stroke-width: 1.5;" width="54" x="1482" y="452"/><text fill="#000000" font-family="sans-serif" font-size="12" lengthAdjust="spacingAndGlyphs" textLength="48" x="1485" y="468.1387">Country</text></a><!--class ProductCharacteristics--><a target="_top" xlink:actuate="onRequest" xlink:href="../ProductCharacteristics.html" xlink:show="new" xlink:title="Identifies the characteristic of a product." xlink:type="simple"><rect fill="#EEEEEE" filter="url(#f7alnj135bml2)" height="23.9688" id="ProductCharacteristics" style="stroke: #A80036; stroke-width: 1.5;" width="149" x="1458.75" y="350"/><rect fill="#EEEEEE" height="23.9688" style="stroke: #A80036; stroke-width: 1.5;" width="149" x="1458.75" y="350"/><text fill="#000000" font-family="sans-serif" font-size="12" lengthAdjust="spacingAndGlyphs" textLength="143" x="1461.75" y="366.1387">ProductCharacteristics</text></a><!--class ProductQuantity--><a target="_top" xlink:actuate="onRequest" xlink:href="../ProductQuantity.html" xlink:show="new" xlink:title="Specifies the ordered quantity of a product." xlink:type="simple"><rect fill="#EEEEEE" filter="url(#f7alnj135bml2)" height="23.9688" id="ProductQuantity" style="stroke: #A80036; stroke-width: 1.5;" width="107" x="1604.75" y="218"/><rect fill="#EEEEEE" height="23.9688" style="stroke: #A80036; stroke-width: 1.5;" width="107" x="1604.75" y="218"/><text fill="#000000" font-family="sans-serif" font-size="12" lengthAdjust="spacingAndGlyphs" textLength="101" x="1607.75" y="234.1387">ProductQuantity</text></a><!--class ProductDelivery--><a target="_top" xlink:actuate="onRequest" xlink:href="../ProductDelivery.html" xlink:show="new" xlink:title="Arrangements for delivery of invoiced products and/or services." xlink:type="simple"><rect fill="#EEEEEE" filter="url(#f7alnj135bml2)" height="23.9688" id="ProductDelivery" style="stroke: #A80036; stroke-width: 1.5;" width="103" x="1908.75" y="762"/><rect fill="#EEEEEE" height="23.9688" style="stroke: #A80036; stroke-width: 1.5;" width="103" x="1908.75" y="762"/><text fill="#000000" font-family="sans-serif" font-size="12" lengthAdjust="spacingAndGlyphs" textLength="97" x="1911.75" y="778.1387">ProductDelivery</text></a><!--class PurchaseOrder--><a target="_top" xlink:actuate="onRequest" xlink:href="../PurchaseOrder.html" xlink:show="new" xlink:title="Document issued by a buyer and containing the details of a purchase, including description of goods, transport information, payment terms, etc." xlink:type="simple"><rect fill="#EEEEEE" filter="url(#f7alnj135bml2)" height="23.9688" id="PurchaseOrder" style="stroke: #A80036; stroke-width: 1.5;" width="100" x="1996" y="660"/><rect fill="#EEEEEE" height="23.9688" style="stroke: #A80036; stroke-width: 1.5;" width="100" x="1996" y="660"/><text fill="#000000" font-family="sans-serif" font-size="12" lengthAdjust="spacingAndGlyphs" textLength="94" x="1999" y="676.1387">PurchaseOrder</text></a><!--class Tax--><a target="_top" xlink:actuate="onRequest" xlink:href="../Tax.html" xlink:show="new" xlink:title="Amount of money due to the government or tax authority, according to various pre-defined parameters such as thresholds or income." xlink:type="simple"><rect fill="#EEEEEE" filter="url(#f7alnj135bml2)" height="23.9688" id="Tax" style="stroke: #A80036; stroke-width: 1.5;" width="27" x="1459.75" y="556"/><rect fill="#EEEEEE" height="23.9688" style="stroke: #A80036; stroke-width: 1.5;" width="27" x="1459.75" y="556"/><text fill="#000000" font-family="sans-serif" font-size="12" lengthAdjust="spacingAndGlyphs" textLength="21" x="1462.75" y="572.1387">Tax</text></a><!--entity ##10581--><!--entity ##10583--><!--class SecuritiesAccount--><a target="_top" xlink:actuate="onRequest" xlink:href="../SecuritiesAccount.html" xlink:show="new" xlink:title="Account to or from which a securities entry is made." xlink:type="simple"><rect fill="#EEEEEE" filter="url(#f7alnj135bml2)" height="23.9688" id="SecuritiesAccount" style="stroke: #A80036; stroke-width: 1.5;" width="119" x="868.75" y="1124"/><rect fill="#EEEEEE" height="23.9688" style="stroke: #A80036; stroke-width: 1.5;" width="119" x="868.75" y="1124"/><text fill="#000000" font-family="sans-serif" font-size="12" lengthAdjust="spacingAndGlyphs" textLength="113" x="871.75" y="1140.1387">SecuritiesAccount</text></a><!--class CorporateActionNotification--><a target="_top" xlink:actuate="onRequest" xlink:href="../CorporateActionNotification.html" xlink:show="new" xlink:title="The process of notifying of an upcoming corporate action. It provides corporate action details including the different options." xlink:type="simple"><rect fill="#EEEEEE" filter="url(#f7alnj135bml2)" height="23.9688" id="CorporateActionNotification" style="stroke: #A80036; stroke-width: 1.5;" width="179" x="811.75" y="1038"/><rect fill="#EEEEEE" height="23.9688" style="stroke: #A80036; stroke-width: 1.5;" width="179" x="811.75" y="1038"/><text fill="#000000" font-family="sans-serif" font-size="12" lengthAdjust="spacingAndGlyphs" textLength="173" x="814.75" y="1054.1387">CorporateActionNotification</text></a><!--class CorporateActionDistribution--><a target="_top" xlink:actuate="onRequest" xlink:href="../CorporateActionDistribution.html" xlink:show="new" xlink:title="Distribution of the proceeds of a CA event." xlink:type="simple"><rect fill="#EEEEEE" filter="url(#f7alnj135bml2)" height="23.9688" id="CorporateActionDistribution" style="stroke: #A80036; stroke-width: 1.5;" width="180" x="811" y="952"/><rect fill="#EEEEEE" height="23.9688" style="stroke: #A80036; stroke-width: 1.5;" width="180" x="811" y="952"/><text fill="#000000" font-family="sans-serif" font-size="12" lengthAdjust="spacingAndGlyphs" textLength="174" x="814" y="968.1387">CorporateActionDistribution</text></a><!--class CorporateActionOptionServicing--><a target="_top" xlink:actuate="onRequest" xlink:href="../CorporateActionOptionServicing.html" xlink:show="new" xlink:title="Option servicing process which calculates the entitlement based on a corporate action option." xlink:type="simple"><rect fill="#EEEEEE" filter="url(#f7alnj135bml2)" height="23.9688" id="CorporateActionOptionServicing" style="stroke: #A80036; stroke-width: 1.5;" width="205" x="792.75" y="866"/><rect fill="#EEEEEE" height="23.9688" style="stroke: #A80036; stroke-width: 1.5;" width="205" x="792.75" y="866"/><text fill="#000000" font-family="sans-serif" font-size="12" lengthAdjust="spacingAndGlyphs" textLength="199" x="795.75" y="882.1387">CorporateActionOptionServicing</text></a><!--class CorporateActionEvent--><a target="_top" xlink:actuate="onRequest" xlink:href="../CorporateActionEvent.html" xlink:show="new" xlink:title="An event determined by a corporation's board of directors, that changes the existing corporate capital structure or financial condition." xlink:type="simple"><rect fill="#EEEEEE" filter="url(#f7alnj135bml2)" height="23.9688" id="CorporateActionEvent" style="stroke: #A80036; stroke-width: 1.5;" width="143" x="819.75" y="762"/><rect fill="#EEEEEE" height="23.9688" style="stroke: #A80036; stroke-width: 1.5;" width="143" x="819.75" y="762"/><text fill="#000000" font-family="sans-serif" font-size="12" lengthAdjust="spacingAndGlyphs" textLength="137" x="822.75" y="778.1387">CorporateActionEvent</text></a><!--class CorporateActionElection--><a target="_top" xlink:actuate="onRequest" xlink:href="../CorporateActionElection.html" xlink:show="new" xlink:title="Decision taken by the account holder regarding the corporate action event." xlink:type="simple"><rect fill="#EEEEEE" filter="url(#f7alnj135bml2)" height="23.9688" id="CorporateActionElection" style="stroke: #A80036; stroke-width: 1.5;" width="158" x="804.5" y="660"/><rect fill="#EEEEEE" height="23.9688" style="stroke: #A80036; stroke-width: 1.5;" width="158" x="804.5" y="660"/><text fill="#000000" font-family="sans-serif" font-size="12" lengthAdjust="spacingAndGlyphs" textLength="152" x="807.5" y="676.1387">CorporateActionElection</text></a><!--class CorporateActionEntitlement--><a target="_top" xlink:actuate="onRequest" xlink:href="../CorporateActionEntitlement.html" xlink:show="new" xlink:title="Rights entitled to the account owner based on the terms of the corporate action event and the balance of underlying securities." xlink:type="simple"><rect fill="#EEEEEE" filter="url(#f7alnj135bml2)" height="23.9688" id="CorporateActionEntitlement" style="stroke: #A80036; stroke-width: 1.5;" width="180" x="793" y="556"/><rect fill="#EEEEEE" height="23.9688" style="stroke: #A80036; stroke-width: 1.5;" width="180" x="793" y="556"/><text fill="#000000" font-family="sans-serif" font-size="12" lengthAdjust="spacingAndGlyphs" textLength="174" x="796" y="572.1387">CorporateActionEntitlement</text></a><!--link Product to Service--><path d="M631.552,129.14 C624.456,148.52 616.549,170.12 609.91,188.264 " fill="none" id="Product-Service" style="stroke: #A80036; stroke-width: 1.0;"/><polygon fill="none" points="624.985,126.71,638.433,110.34,638.132,131.52,624.985,126.71" style="stroke: #A80036; stroke-width: 1.0;"/><!--link Service to FinancialService--><path d="M595,291.957 C595,313.988 595,336.64 595,349.738 " fill="none" id="Service-FinancialService" style="stroke: #A80036; stroke-width: 1.0;"/><polygon fill="none" points="588,291.776,595,271.776,602,291.776,588,291.776" style="stroke: #A80036; stroke-width: 1.0;"/><!--link FinancialService to CorporateActionServicing--><path d="M595,394.175 C595,413.829 595,438.026 595,451.867 " fill="none" id="FinancialService-CorporateActionServicing" style="stroke: #A80036; stroke-width: 1.0;"/><polygon fill="none" points="588,394.084,595,374.084,602,394.084,588,394.084" style="stroke: #A80036; stroke-width: 1.0;"/><!--link CorporateActionServicing to MeetingServicing--><path d="M617.576,491.777 C635.215,512.696 658.824,540.698 671.687,555.954 " fill="none" id="CorporateActionServicing-MeetingServicing" style="stroke: #A80036; stroke-width: 1.0;"/><polygon fill="none" points="612.072,496.108,604.532,476.306,622.776,487.084,612.072,496.108" style="stroke: #A80036; stroke-width: 1.0;"/><!--link Price to CardPayment--><!--link ProductCategory to Price--><!--link LineItem to ProductCategory--><!--link ProductIdentification to LineItem--><!--link Country to ProductIdentification--><!--link ProductCharacteristics to Country--><!--link ProductQuantity to ProductCharacteristics--><!--link ProductDelivery to ProductQuantity--><!--link PurchaseOrder to ProductDelivery--><!--link Tax to PurchaseOrder--><!--link CorporateActionNotification to SecuritiesAccount--><!--link CorporateActionDistribution to CorporateActionNotification--><!--link CorporateActionOptionServicing to CorporateActionDistribution--><!--link CorporateActionEvent to CorporateActionOptionServicing--><!--link CorporateActionElection to CorporateActionEvent--><!--link CorporateActionEntitlement to CorporateActionElection--><!--link Product to CardPayment--><path d="M736.469,76.02 C866.816,77.84 1122.27,88.45 1332,140 C1352.52,145.04 1355.42,153.21 1376,158 C1423.19,168.98 1775.41,155.12 1811,188 C1885.77,257.073 1865.18,398.945 1855.6,446.816 " fill="none" id="Product-CardPayment" style="stroke: #A80036; stroke-width: 1.0;"/><polygon fill="#A80036" points="1854.54,451.922,1860.2745,443.9148,1855.5494,447.0249,1852.4393,442.2998,1854.54,451.922" style="stroke: #A80036; stroke-width: 1.0;"/><text fill="#000000" font-family="sans-serif" font-size="13" lengthAdjust="spacingAndGlyphs" textLength="87" x="1866" y="315.0669">CardPayment</text><text fill="#000000" font-family="sans-serif" font-size="13" lengthAdjust="spacingAndGlyphs" textLength="8" x="1844.6084" y="440.9434">1</text><!--link Product to Price--><path d="M736.449,76.76 C860.433,79.61 1096.63,91.61 1291,140 C1311.5,145.1 1314.44,153.14 1335,158 C1377.62,168.08 1698.24,155.88 1728,188 C1771.54,234.995 1706.97,313.406 1676,346.04 " fill="none" id="Product-Price" style="stroke: #A80036; stroke-width: 1.0;"/><polygon fill="#A80036" points="1672.4,349.787,1681.5228,346.0756,1675.867,346.1842,1675.7583,340.5284,1672.4,349.787" style="stroke: #A80036; stroke-width: 1.0;"/><text fill="#000000" font-family="sans-serif" font-size="13" lengthAdjust="spacingAndGlyphs" textLength="57" x="1744" y="234.0669">UnitPrice</text><text fill="#000000" font-family="sans-serif" font-size="13" lengthAdjust="spacingAndGlyphs" textLength="7" x="1666.6028" y="339.0199">*</text><!--link Product to Price--><path d="M736.432,86.45 C808.438,96.46 913.714,113.93 1003,140 C1023.28,145.92 1026.59,152.53 1047,158 C1142.32,183.553 1175.32,151.48 1267,188 C1326.47,211.691 1326.83,243.193 1384,272 C1407.42,283.801 1575.11,335.02 1637.61,353.941 " fill="none" id="Product-Price" style="stroke: #A80036; stroke-width: 1.0;"/><polygon fill="#A80036" points="1642.62,355.459,1635.1577,349.0313,1637.8328,354.0157,1632.8485,356.6908,1642.62,355.459" style="stroke: #A80036; stroke-width: 1.0;"/><text fill="#000000" font-family="sans-serif" font-size="13" lengthAdjust="spacingAndGlyphs" textLength="54" x="1385" y="234.0669">NetPrice</text><text fill="#000000" font-family="sans-serif" font-size="13" lengthAdjust="spacingAndGlyphs" textLength="24" x="1615.8723" y="347.1996">0..1</text><!--link Product to Price--><path d="M736.55,89.71 C799.12,100.71 885.686,117.94 960,140 C981.046,146.25 984.962,151.72 1006,158 C1068.23,176.56 1098.16,147.6 1149,188 C1181.23,213.607 1155.4,246.875 1188,272 C1343.93,392.162 1432.47,304.547 1624,350 C1628.5,351.068 1633.27,352.36 1637.82,353.677 " fill="none" id="Product-Price" style="stroke: #A80036; stroke-width: 1.0;"/><polygon fill="#A80036" points="1642.67,355.108,1635.1865,348.7051,1637.8781,353.6806,1632.9026,356.3721,1642.67,355.108" style="stroke: #A80036; stroke-width: 1.0;"/><text fill="#000000" font-family="sans-serif" font-size="13" lengthAdjust="spacingAndGlyphs" textLength="68" x="1189" y="234.0669">GrossPrice</text><text fill="#000000" font-family="sans-serif" font-size="13" lengthAdjust="spacingAndGlyphs" textLength="24" x="1615.6571" y="367.3718">0..1</text><!--link Product to ProductCategory--><path d="M736.302,82.41 C817.104,90.22 941.056,106.74 1044,140 C1061.02,145.5 1062.81,153.07 1080,158 C1214.75,196.668 1256.95,158.47 1394,188 C1424.74,194.624 1458.54,206.621 1482.41,215.932 " fill="none" id="Product-ProductCategory" style="stroke: #A80036; stroke-width: 1.0;"/><polygon fill="#A80036" points="1487.35,217.875,1480.4367,210.8603,1482.6965,216.0462,1477.5106,218.3059,1487.35,217.875" style="stroke: #A80036; stroke-width: 1.0;"/><text fill="#000000" font-family="sans-serif" font-size="13" lengthAdjust="spacingAndGlyphs" textLength="107" x="1081" y="153.0669">ProductCategory</text><text fill="#000000" font-family="sans-serif" font-size="13" lengthAdjust="spacingAndGlyphs" textLength="7" x="1468.5562" y="206.8802">*</text><!--link Product to LineItem--><path d="M736.416,75 C992.346,75 1745.67,75 1914.96,75 " fill="none" id="Product-LineItem" style="stroke: #A80036; stroke-width: 1.0;"/><polygon fill="#A80036" points="1920.27,75,1911.27,71,1915.27,75,1911.27,79,1920.27,75" style="stroke: #A80036; stroke-width: 1.0;"/><text fill="#000000" font-family="sans-serif" font-size="13" lengthAdjust="spacingAndGlyphs" textLength="55" x="1300" y="67.0669">LineItem</text><text fill="#000000" font-family="sans-serif" font-size="13" lengthAdjust="spacingAndGlyphs" textLength="24" x="1888.5396" y="69.7253">0..1</text><!--link Product to ProductIdentification--><path d="M710.346,110.07 C724.23,119.09 738.58,129.31 751,140 C852.115,227.024 828.089,299.864 939,374 C1155.42,518.662 1256.55,448.185 1503,532 C1522.14,538.508 1543.18,546.936 1559.77,553.891 " fill="none" id="Product-ProductIdentification" style="stroke: #A80036; stroke-width: 1.0;"/><polygon fill="#A80036" points="1564.77,555.998,1558.0307,548.816,1560.1627,554.0557,1554.923,556.1877,1564.77,555.998" style="stroke: #A80036; stroke-width: 1.0;"/><text fill="#000000" font-family="sans-serif" font-size="13" lengthAdjust="spacingAndGlyphs" textLength="130" x="940" y="366.0669">ProductIdentification</text><text fill="#000000" font-family="sans-serif" font-size="13" lengthAdjust="spacingAndGlyphs" textLength="7" x="1546.5503" y="545.0455">*</text><!--link Product to Country--><path d="M736.439,85.27 C782.435,93.66 838.151,109.64 880,140 C937.07,181.406 916.334,224.02 968,272 C1120.76,413.859 1385.34,451.427 1476.8,460.413 " fill="none" id="Product-Country" style="stroke: #A80036; stroke-width: 1.0;"/><polygon fill="#A80036" points="1481.8,460.892,1473.2173,456.0612,1476.8223,460.4205,1472.4629,464.0255,1481.8,460.892" style="stroke: #A80036; stroke-width: 1.0;"/><text fill="#000000" font-family="sans-serif" font-size="13" lengthAdjust="spacingAndGlyphs" textLength="37" x="1030" y="315.0669">Origin</text><text fill="#000000" font-family="sans-serif" font-size="13" lengthAdjust="spacingAndGlyphs" textLength="8" x="1466.1588" y="454.5817">1</text><!--link Product to ProductCharacteristics--><path d="M736.511,83.61 C792.051,91.5 864.375,107.53 921,140 C991.355,180.348 980.155,226.07 1047,272 C1092.65,303.365 1108.37,306.151 1162,320 C1260.34,345.398 1377.34,355.065 1453.28,358.743 " fill="none" id="Product-ProductCharacteristics" style="stroke: #A80036; stroke-width: 1.0;"/><polygon fill="#A80036" points="1458.67,358.998,1449.8623,354.5907,1453.6752,358.7694,1449.4965,362.5823,1458.67,358.998" style="stroke: #A80036; stroke-width: 1.0;"/><text fill="#000000" font-family="sans-serif" font-size="13" lengthAdjust="spacingAndGlyphs" textLength="95" x="1048" y="234.0669">Characteristics</text><text fill="#000000" font-family="sans-serif" font-size="13" lengthAdjust="spacingAndGlyphs" textLength="7" x="1443.6269" y="354.0478">*</text><!--link Product to ProductQuantity--><path d="M736.55,77.02 C845.112,80.35 1037.12,93.1 1194,140 C1211.14,145.12 1212.78,153.16 1230,158 C1382.87,200.943 1434.35,140.95 1586,188 C1605.3,193.988 1625.1,205.749 1639.03,215.145 " fill="none" id="Product-ProductQuantity" style="stroke: #A80036; stroke-width: 1.0;"/><polygon fill="#A80036" points="1643.17,217.975,1638.0102,209.5859,1639.0466,215.147,1633.4855,216.1834,1643.17,217.975" style="stroke: #A80036; stroke-width: 1.0;"/><text fill="#000000" font-family="sans-serif" font-size="13" lengthAdjust="spacingAndGlyphs" textLength="54" x="1231" y="153.0669">Quantity</text><text fill="#000000" font-family="sans-serif" font-size="13" lengthAdjust="spacingAndGlyphs" textLength="7" x="1639.1894" y="207.0146">*</text><!--link Product to ProductDelivery--><path d="M736.26,75.36 C872.707,76.16 1147.7,85.26 1373,140 C1393.53,144.99 1396.42,153.22 1417,158 C1513.12,180.299 1771.23,144.92 1860,188 C1921.43,217.814 1938.47,238.272 1963,302 C1995.85,387.349 1969.01,683.112 1961.7,756.448 " fill="none" id="Product-ProductDelivery" style="stroke: #A80036; stroke-width: 1.0;"/><polygon fill="#A80036" points="1961.17,761.719,1966.0506,753.1645,1961.6703,756.7441,1958.0907,752.3639,1961.17,761.719" style="stroke: #A80036; stroke-width: 1.0;"/><text fill="#000000" font-family="sans-serif" font-size="13" lengthAdjust="spacingAndGlyphs" textLength="51" x="1979" y="468.0669">Delivery</text><text fill="#000000" font-family="sans-serif" font-size="13" lengthAdjust="spacingAndGlyphs" textLength="8" x="1950.8185" y="750.9294">1</text><!--link Product to PurchaseOrder--><path d="M736.505,78.77 C878.181,84.33 1170.18,99.97 1414,140 C1446.97,145.41 1453.95,153.06 1487,158 C1546.65,166.93 1980.49,152.16 2029,188 C2075.48,222.345 2074,252.207 2074,310 C2074,310 2074,310 2074,569 C2074,600.488 2061.44,635.555 2053.14,655.28 " fill="none" id="Product-PurchaseOrder" style="stroke: #A80036; stroke-width: 1.0;"/><polygon fill="#A80036" points="2051.14,659.953,2058.3636,653.2583,2053.1108,655.3578,2051.0113,650.105,2051.14,659.953" style="stroke: #A80036; stroke-width: 1.0;"/><text fill="#000000" font-family="sans-serif" font-size="13" lengthAdjust="spacingAndGlyphs" textLength="95" x="2075" y="417.0669">PurchaseOrder</text><text fill="#000000" font-family="sans-serif" font-size="13" lengthAdjust="spacingAndGlyphs" textLength="7" x="2043.36" y="648.9851">*</text><!--link Product to Tax--><path d="M689.127,110.28 C710.335,131.04 735.835,159.04 753,188 C797.576,263.205 760.74,307.085 817,374 C839.211,400.417 1056.11,513.546 1089,524 C1106.68,529.618 1380.48,557.629 1454.61,565.143 " fill="none" id="Product-Tax" style="stroke: #A80036; stroke-width: 1.0;"/><polygon fill="#A80036" points="1459.6,565.648,1451.0452,560.7679,1454.6251,565.1479,1450.2451,568.7278,1459.6,565.648" style="stroke: #A80036; stroke-width: 1.0;"/><text fill="#000000" font-family="sans-serif" font-size="13" lengthAdjust="spacingAndGlyphs" textLength="22" x="818" y="366.0669">Tax</text><text fill="#000000" font-family="sans-serif" font-size="13" lengthAdjust="spacingAndGlyphs" textLength="7" x="1444.6803" y="557.6088">*</text><!--link CorporateActionServicing to SecuritiesAccount--><path d="M677.373,467.261 C778.04,471.08 941.796,481.015 997,506 C1140.22,570.82 1229,615.794 1229,773 C1229,773 1229,773 1229,1051 C1229,1099.6725 1081.14,1121.3815 992.682,1130.0137 " fill="none" id="CorporateActionServicing-SecuritiesAccount" style="stroke: #A80036; stroke-width: 1.0;"/><polygon fill="#A80036" points="987.468,1130.5141,996.8086,1133.637,992.4452,1130.037,996.0452,1125.6735,987.468,1130.5141" style="stroke: #A80036; stroke-width: 1.0;"/><text fill="#000000" font-family="sans-serif" font-size="13" lengthAdjust="spacingAndGlyphs" textLength="115" x="1230" y="831.0669">SecuritiesAccount</text><text fill="#000000" font-family="sans-serif" font-size="13" lengthAdjust="spacingAndGlyphs" textLength="7" x="995.8957" y="1124.7127">*</text><!--link CorporateActionServicing to CorporateActionNotification--><path d="M512.792,470.827 C350.821,483.415 6,516.181 6,567 C6,567 6,567 6,965 C6,1044.736 576.381,1050.697 806.463,1049.858 " fill="none" id="CorporateActionServicing-CorporateActionNotification" style="stroke: #A80036; stroke-width: 1.0;"/><polygon fill="#A80036" points="811.499,1049.838,802.4842,1045.8715,806.499,1049.8566,802.5139,1053.8714,811.499,1049.838" style="stroke: #A80036; stroke-width: 1.0;"/><text fill="#000000" font-family="sans-serif" font-size="13" lengthAdjust="spacingAndGlyphs" textLength="212" x="7" y="778.0669">CorporateActionEventNotification</text><text fill="#000000" font-family="sans-serif" font-size="13" lengthAdjust="spacingAndGlyphs" textLength="7" x="796.872" y="1045.3016">*</text><!--link CorporateActionServicing to CorporateActionDistribution--><path d="M677.173,465.293 C783.161,467.807 957.777,479.959 990,532 C1010.99,565.895 1033.06,854.987 1014,890 C998.071,919.255 964.817,938.571 938.487,949.942 " fill="none" id="CorporateActionServicing-CorporateActionDistribution" style="stroke: #A80036; stroke-width: 1.0;"/><polygon fill="#A80036" points="933.657,951.973,943.5039,952.1704,938.2658,950.0343,940.402,944.7963,933.657,951.973" style="stroke: #A80036; stroke-width: 1.0;"/><text fill="#000000" font-family="sans-serif" font-size="13" lengthAdjust="spacingAndGlyphs" textLength="177" x="1020" y="727.0669">CorporateActionDistribution</text><text fill="#000000" font-family="sans-serif" font-size="13" lengthAdjust="spacingAndGlyphs" textLength="7" x="935.336" y="941.0119">*</text><!--link CorporateActionServicing to CorporateActionOptionServicing--><path d="M512.751,474.673 C417.644,488.205 274,516.931 274,567 C274,567 274,567 274,775 C274,826.39 609.425,857.337 787.24,870.132 " fill="none" id="CorporateActionServicing-CorporateActionOptionServicing" style="stroke: #A80036; stroke-width: 1.0;"/><polygon fill="#A80036" points="792.454,870.505,783.7627,865.8723,787.4668,870.1479,783.1913,873.8519,792.454,870.505" style="stroke: #A80036; stroke-width: 1.0;"/><text fill="#000000" font-family="sans-serif" font-size="13" lengthAdjust="spacingAndGlyphs" textLength="204" x="275" y="676.0669">CorporateActionOptionServicing</text><text fill="#000000" font-family="sans-serif" font-size="13" lengthAdjust="spacingAndGlyphs" textLength="7" x="777.9156" y="865.6022">*</text><!--link CorporateActionServicing to CorporateActionEvent--><path d="M522.548,476.075 C497.801,482.185 470.875,491.588 449,506 C401.181,537.506 379.813,584.06 414,630 C427.255,647.811 726.443,729.133 844.092,760.556 " fill="none" id="CorporateActionServicing-CorporateActionEvent" style="stroke: #A80036; stroke-width: 1.0;"/><polygon fill="#A80036" points="849.217,761.924,841.5535,755.7377,844.3862,760.6342,839.4898,763.4669,849.217,761.924" style="stroke: #A80036; stroke-width: 1.0;"/><text fill="#000000" font-family="sans-serif" font-size="13" lengthAdjust="spacingAndGlyphs" textLength="36" x="415" y="625.0669">Event</text><text fill="#000000" font-family="sans-serif" font-size="13" lengthAdjust="spacingAndGlyphs" textLength="7" x="825.2213" y="750.9461">*</text><!--link CorporateActionServicing to CorporateActionElection--><path d="M536.843,476.072 C505.374,485.346 469.124,502.096 450,532 C432.759,558.959 429.174,579.704 450,604 C494.041,655.38 686.027,667.704 799.033,670.443 " fill="none" id="CorporateActionServicing-CorporateActionElection" style="stroke: #A80036; stroke-width: 1.0;"/><polygon fill="#A80036" points="804.353,670.566,795.448,666.3588,799.3543,670.4503,795.2629,674.3567,804.353,670.566" style="stroke: #A80036; stroke-width: 1.0;"/><text fill="#000000" font-family="sans-serif" font-size="13" lengthAdjust="spacingAndGlyphs" textLength="154" x="451" y="572.0669">CorporateActionElection</text><text fill="#000000" font-family="sans-serif" font-size="13" lengthAdjust="spacingAndGlyphs" textLength="7" x="789.426" y="665.817">*</text><!--link CorporateActionServicing to CorporateActionEntitlement--><path d="M626.095,476.013 C679.746,495.014 789.436,533.863 846.572,554.098 " fill="none" id="CorporateActionServicing-CorporateActionEntitlement" style="stroke: #A80036; stroke-width: 1.0;"/><polygon fill="#A80036" points="851.598,555.879,844.4508,549.1027,846.8851,554.209,841.7788,556.6433,851.598,555.879" style="stroke: #A80036; stroke-width: 1.0;"/><text fill="#000000" font-family="sans-serif" font-size="13" lengthAdjust="spacingAndGlyphs" textLength="178" x="758" y="519.0669">CorporateActionEntitlement</text><text fill="#000000" font-family="sans-serif" font-size="13" lengthAdjust="spacingAndGlyphs" textLength="7" x="831.2567" y="544.8856">*</text><!--link LineItem to ProductQuantity--><path d="M1920.22,83.37 C1884.18,93.27 1821.19,112.81 1772,140 C1733.52,161.27 1694.35,195.08 1673.43,214.326 " fill="none" id="LineItem-ProductQuantity" style="stroke: #A80036; stroke-width: 1.0;"/><polygon fill="#A80036" points="1669.74,217.743,1679.06,214.559,1673.4072,214.3443,1673.622,208.6915,1669.74,217.743" style="stroke: #A80036; stroke-width: 1.0;"/><text fill="#000000" font-family="sans-serif" font-size="13" lengthAdjust="spacingAndGlyphs" textLength="66" x="1773" y="153.0669">NetWeight</text><text fill="#000000" font-family="sans-serif" font-size="13" lengthAdjust="spacingAndGlyphs" textLength="8" x="1662.8898" y="206.9613">1</text><!--link LineItem to ProductQuantity--><path d="M1937.89,87.25 C1919.92,104.82 1882.69,138.77 1845,158 C1801.39,180.25 1784.61,170.19 1739,188 C1719.17,195.74 1697.73,206.721 1681.89,215.372 " fill="none" id="LineItem-ProductQuantity" style="stroke: #A80036; stroke-width: 1.0;"/><polygon fill="#A80036" points="1677.16,217.976,1686.9728,217.1345,1681.5388,215.5624,1683.111,210.1284,1677.16,217.976" style="stroke: #A80036; stroke-width: 1.0;"/><text fill="#000000" font-family="sans-serif" font-size="13" lengthAdjust="spacingAndGlyphs" textLength="88" x="1874" y="153.0669">BilledQuantity</text><text fill="#000000" font-family="sans-serif" font-size="13" lengthAdjust="spacingAndGlyphs" textLength="7" x="1684.8634" y="207.016">*</text><!--link LineItem to ProductQuantity--><path d="M1957.9,87.24 C1970.44,104.51 1989.87,137.68 1972,158 C1937.52,197.201 1788.9,172.66 1739,188 C1718.11,194.423 1696.09,205.916 1680.29,215.103 " fill="none" id="LineItem-ProductQuantity" style="stroke: #A80036; stroke-width: 1.0;"/><polygon fill="#A80036" points="1675.59,217.871,1685.3737,216.74,1679.8956,215.329,1681.3066,209.851,1675.59,217.871" style="stroke: #A80036; stroke-width: 1.0;"/><text fill="#000000" font-family="sans-serif" font-size="13" lengthAdjust="spacingAndGlyphs" textLength="128" x="1980" y="153.0669">ChargeFreeQuantity</text><text fill="#000000" font-family="sans-serif" font-size="13" lengthAdjust="spacingAndGlyphs" textLength="7" x="1672.0037" y="206.8749">*</text><!--link LineItem to ProductQuantity--><path d="M1977.84,79.42 C2036.76,87.46 2161.82,110.57 2118,158 C2089.33,189.026 1779.67,176.58 1739,188 C1717.5,194.038 1694.99,205.95 1679.17,215.386 " fill="none" id="LineItem-ProductQuantity" style="stroke: #A80036; stroke-width: 1.0;"/><polygon fill="#A80036" points="1674.89,217.975,1684.6583,216.7181,1679.1625,215.3778,1680.5028,209.882,1674.89,217.975" style="stroke: #A80036; stroke-width: 1.0;"/><text fill="#000000" font-family="sans-serif" font-size="13" lengthAdjust="spacingAndGlyphs" textLength="244" x="2128" y="153.0669">MeasureQuantityStartRelatedLineItem</text><text fill="#000000" font-family="sans-serif" font-size="13" lengthAdjust="spacingAndGlyphs" textLength="8" x="1681.985" y="207.0146">1</text><!--link LineItem to ProductQuantity--><path d="M1977.51,76.86 C2082.66,80.51 2439.78,97.46 2382,158 C2332.62,209.739 1808.16,169.78 1739,188 C1717.27,193.726 1694.61,205.793 1678.81,215.362 " fill="none" id="LineItem-ProductQuantity" style="stroke: #A80036; stroke-width: 1.0;"/><polygon fill="#A80036" points="1674.54,217.987,1684.3029,216.6888,1678.8015,215.3718,1680.1186,209.8704,1674.54,217.987" style="stroke: #A80036; stroke-width: 1.0;"/><text fill="#000000" font-family="sans-serif" font-size="13" lengthAdjust="spacingAndGlyphs" textLength="236" x="2389" y="153.0669">MeasureQuantityEndRelatedLineItem</text><text fill="#000000" font-family="sans-serif" font-size="13" lengthAdjust="spacingAndGlyphs" textLength="8" x="1720.861" y="208.3421">1</text><!--link LineItem to ProductQuantity--><path d="M1977.6,76.45 C2101.79,78.7 2590.04,90.65 2635,140 C2640.39,145.91 2640.56,152.25 2635,158 C2600.38,193.802 1787.24,175.63 1739,188 C1717.23,193.583 1694.58,205.667 1678.79,215.277 " fill="none" id="LineItem-ProductQuantity" style="stroke: #A80036; stroke-width: 1.0;"/><polygon fill="#A80036" points="1674.52,217.915,1684.2787,216.5858,1678.7732,215.2862,1680.0727,209.7807,1674.52,217.915" style="stroke: #A80036; stroke-width: 1.0;"/><text fill="#000000" font-family="sans-serif" font-size="13" lengthAdjust="spacingAndGlyphs" textLength="122" x="2640" y="153.0669">GrossPriceQuantity</text><text fill="#000000" font-family="sans-serif" font-size="13" lengthAdjust="spacingAndGlyphs" textLength="7" x="1719.0025" y="219.8502">*</text><!--link LineItem to ProductQuantity--><path d="M1920.41,75.43 C1830.06,74.32 1553.34,76.25 1498,140 C1492.76,146.04 1493.34,151.49 1498,158 C1522.05,191.604 1548.32,171.03 1586,188 C1603.44,195.853 1622.19,206.61 1636.18,215.135 " fill="none" id="LineItem-ProductQuantity" style="stroke: #A80036; stroke-width: 1.0;"/><polygon fill="#A80036" points="1640.73,217.933,1635.1514,209.8164,1636.4685,215.3178,1630.9671,216.6348,1640.73,217.933" style="stroke: #A80036; stroke-width: 1.0;"/><text fill="#000000" font-family="sans-serif" font-size="13" lengthAdjust="spacingAndGlyphs" textLength="108" x="1499" y="153.0669">NetPriceQuantity</text><text fill="#000000" font-family="sans-serif" font-size="13" lengthAdjust="spacingAndGlyphs" textLength="7" x="1625.1606" y="206.9582">*</text><!--link LineItem to ProductQuantity--><path d="M1920.19,77.82 C1852.83,82.74 1688.18,98.82 1655,140 C1638.42,160.58 1645.32,193.354 1651.73,212.865 " fill="none" id="LineItem-ProductQuantity" style="stroke: #A80036; stroke-width: 1.0;"/><polygon fill="#A80036" points="1653.51,217.995,1654.348,208.1819,1651.8754,213.2697,1646.7876,210.7972,1653.51,217.995" style="stroke: #A80036; stroke-width: 1.0;"/><text fill="#000000" font-family="sans-serif" font-size="13" lengthAdjust="spacingAndGlyphs" textLength="80" x="1656" y="153.0669">GrossWeight</text><text fill="#000000" font-family="sans-serif" font-size="13" lengthAdjust="spacingAndGlyphs" textLength="7" x="1653.0838" y="207.0415">*</text><!--link Country to Tax--><path d="M1505.01,476.306 C1498.6,494.476 1485.97,530.239 1478.64,551.015 " fill="none" id="Country-Tax" style="stroke: #A80036; stroke-width: 1.0;"/><polygon fill="#A80036" points="1476.9,555.954,1483.6679,548.7989,1478.5645,551.2392,1476.1242,546.1357,1476.9,555.954" style="stroke: #A80036; stroke-width: 1.0;"/><text fill="#000000" font-family="sans-serif" font-size="13" lengthAdjust="spacingAndGlyphs" textLength="22" x="1496" y="519.0669">Tax</text><text fill="#000000" font-family="sans-serif" font-size="13" lengthAdjust="spacingAndGlyphs" textLength="8" x="1467.4359" y="544.9864">1</text><!--link Tax to CorporateActionEvent--><path d="M1460.07,580.112 C1423.99,610.419 1318.03,694.732 1214,732 C1133.09,760.983 1034.36,770.002 967.511,772.547 " fill="none" id="Tax-CorporateActionEvent" style="stroke: #A80036; stroke-width: 1.0;"/><polygon fill="#A80036" points="962.352,772.733,971.4912,776.4038,967.3487,772.5516,971.2009,768.4091,962.352,772.733" style="stroke: #A80036; stroke-width: 1.0;"/><text fill="#000000" font-family="sans-serif" font-size="13" lengthAdjust="spacingAndGlyphs" textLength="140" x="1351" y="676.0669">CorporateActionEvent</text><text fill="#000000" font-family="sans-serif" font-size="13" lengthAdjust="spacingAndGlyphs" textLength="8" x="970.5663" y="767.7406">1</text></g></svg>