<?xml version="1.0" encoding="UTF-8" standalone="no"?><svg xmlns="http://www.w3.org/2000/svg" xmlns:xlink="http://www.w3.org/1999/xlink" contentScriptType="application/ecmascript" contentStyleType="text/css" height="1284px" preserveAspectRatio="none" style="width:1548px;height:1284px;" version="1.1" viewBox="0 0 1548 1284" width="1548px" zoomAndPan="magnify"><defs><filter height="300%" id="f1nswezgu8q6m6" width="300%" x="-1" y="-1"><feGaussianBlur result="blurOut" stdDeviation="2.0"/><feColorMatrix in="blurOut" result="blurOut2" type="matrix" values="0 0 0 0 0 0 0 0 0 0 0 0 0 0 0 0 0 0 .4 0"/><feOffset dx="4.0" dy="4.0" in="blurOut2" result="blurOut3"/><feBlend in="SourceGraphic" in2="blurOut3" mode="normal"/></filter></defs><g><!--cluster ##25250--><!--cluster ##25259--><!--class Document--><a target="_top" xlink:actuate="onRequest" xlink:href="../Document.html" xlink:show="new" xlink:title="General information that unambiguously identifies a document, such as identification number and issue date time." xlink:type="simple"><rect fill="#FEFEEE" filter="url(#f1nswezgu8q6m6)" height="172.8203" id="Document" style="stroke: #A80036; stroke-width: 1.5;" width="249" x="1160.75" y="40.5"/><rect fill="#FEFEEE" height="23.9688" style="stroke: #A80036; stroke-width: 1.5;" width="249" x="1160.75" y="40.5"/><text fill="#000000" font-family="sans-serif" font-size="12" lengthAdjust="spacingAndGlyphs" textLength="64" x="1253.25" y="56.6387">Document</text><line style="stroke: #A80036; stroke-width: 1.5;" x1="1161.75" x2="1408.75" y1="64.4688" y2="64.4688"/><ellipse cx="1171.75" cy="76.3711" fill="#84BE84" rx="3" ry="3" style="stroke: #038048; stroke-width: 1.0;"/><text fill="#000000" font-family="sans-serif" font-size="11" lengthAdjust="spacingAndGlyphs" textLength="57" x="1180.75" y="78.6792">IssueDate</text><text fill="#000000" font-family="sans-serif" font-size="11" font-style="italic" lengthAdjust="spacingAndGlyphs" textLength="81" x="1241.75" y="78.6792">(ISODateTime)</text><ellipse cx="1171.75" cy="89.1758" fill="#84BE84" rx="3" ry="3" style="stroke: #038048; stroke-width: 1.0;"/><text fill="#000000" font-family="sans-serif" font-size="11" lengthAdjust="spacingAndGlyphs" textLength="80" x="1180.75" y="91.4839">CopyDuplicate</text><text fill="#000000" font-family="sans-serif" font-size="11" font-style="italic" lengthAdjust="spacingAndGlyphs" textLength="118" x="1264.75" y="91.4839">(CopyDuplicateCode)</text><ellipse cx="1171.75" cy="101.9805" fill="#84BE84" rx="3" ry="3" style="stroke: #038048; stroke-width: 1.0;"/><text fill="#000000" font-family="sans-serif" font-size="11" lengthAdjust="spacingAndGlyphs" textLength="27" x="1180.75" y="104.2886">Type</text><text fill="#000000" font-family="sans-serif" font-size="11" font-style="italic" lengthAdjust="spacingAndGlyphs" textLength="122" x="1211.75" y="104.2886">(DocumentTypeCode)</text><ellipse cx="1171.75" cy="114.7852" fill="#84BE84" rx="3" ry="3" style="stroke: #038048; stroke-width: 1.0;"/><text fill="#000000" font-family="sans-serif" font-size="11" lengthAdjust="spacingAndGlyphs" textLength="43" x="1180.75" y="117.0933">Amount</text><text fill="#000000" font-family="sans-serif" font-size="11" font-style="italic" lengthAdjust="spacingAndGlyphs" textLength="161" x="1227.75" y="117.0933">(ActiveCurrencyAndAmount)</text><ellipse cx="1171.75" cy="127.5898" fill="#84BE84" rx="3" ry="3" style="stroke: #038048; stroke-width: 1.0;"/><text fill="#000000" font-family="sans-serif" font-size="11" lengthAdjust="spacingAndGlyphs" textLength="100" x="1180.75" y="129.8979">DocumentVersion</text><text fill="#000000" font-family="sans-serif" font-size="11" font-style="italic" lengthAdjust="spacingAndGlyphs" textLength="53" x="1284.75" y="129.8979">(Number)</text><ellipse cx="1171.75" cy="140.3945" fill="#84BE84" rx="3" ry="3" style="stroke: #038048; stroke-width: 1.0;"/><text fill="#000000" font-family="sans-serif" font-size="11" lengthAdjust="spacingAndGlyphs" textLength="37" x="1180.75" y="142.7026">Status</text><text fill="#000000" font-family="sans-serif" font-size="11" font-style="italic" lengthAdjust="spacingAndGlyphs" textLength="77" x="1221.75" y="142.7026">(Max140Text)</text><ellipse cx="1171.75" cy="153.1992" fill="#84BE84" rx="3" ry="3" style="stroke: #038048; stroke-width: 1.0;"/><text fill="#000000" font-family="sans-serif" font-size="11" lengthAdjust="spacingAndGlyphs" textLength="72" x="1180.75" y="155.5073">DataSetType</text><text fill="#000000" font-family="sans-serif" font-size="11" font-style="italic" lengthAdjust="spacingAndGlyphs" textLength="109" x="1256.75" y="155.5073">(DataSetTypeCode)</text><ellipse cx="1171.75" cy="166.0039" fill="#84BE84" rx="3" ry="3" style="stroke: #038048; stroke-width: 1.0;"/><text fill="#000000" font-family="sans-serif" font-size="11" lengthAdjust="spacingAndGlyphs" textLength="88" x="1180.75" y="168.312">SignedIndicator</text><text fill="#000000" font-family="sans-serif" font-size="11" font-style="italic" lengthAdjust="spacingAndGlyphs" textLength="92" x="1272.75" y="168.312">(YesNoIndicator)</text><ellipse cx="1171.75" cy="178.8086" fill="#84BE84" rx="3" ry="3" style="stroke: #038048; stroke-width: 1.0;"/><text fill="#000000" font-family="sans-serif" font-size="11" lengthAdjust="spacingAndGlyphs" textLength="93" x="1180.75" y="181.1167">RemittedAmount</text><text fill="#000000" font-family="sans-serif" font-size="11" font-style="italic" lengthAdjust="spacingAndGlyphs" textLength="126" x="1277.75" y="181.1167">(CurrencyAndAmount)</text><ellipse cx="1171.75" cy="191.6133" fill="#84BE84" rx="3" ry="3" style="stroke: #038048; stroke-width: 1.0;"/><text fill="#000000" font-family="sans-serif" font-size="11" lengthAdjust="spacingAndGlyphs" textLength="55" x="1180.75" y="193.9214">Language</text><text fill="#000000" font-family="sans-serif" font-size="11" font-style="italic" lengthAdjust="spacingAndGlyphs" textLength="92" x="1239.75" y="193.9214">(LanguageCode)</text><ellipse cx="1171.75" cy="204.418" fill="#84BE84" rx="3" ry="3" style="stroke: #038048; stroke-width: 1.0;"/><text fill="#000000" font-family="sans-serif" font-size="11" lengthAdjust="spacingAndGlyphs" textLength="47" x="1180.75" y="206.7261">Purpose</text><text fill="#000000" font-family="sans-serif" font-size="11" font-style="italic" lengthAdjust="spacingAndGlyphs" textLength="70" x="1231.75" y="206.7261">(Max35Text)</text></a><!--class FinancialDocument--><a target="_top" xlink:actuate="onRequest" xlink:href="../FinancialDocument.html" xlink:show="new" xlink:title="Type of document used in relation with financial transactions." xlink:type="simple"><rect fill="#FEFEEE" filter="url(#f1nswezgu8q6m6)" height="23.9688" id="FinancialDocument" style="stroke: #A80036; stroke-width: 1.5;" width="125" x="1284.75" y="292"/><rect fill="#FEFEEE" height="23.9688" style="stroke: #A80036; stroke-width: 1.5;" width="125" x="1284.75" y="292"/><text fill="#000000" font-family="sans-serif" font-size="12" lengthAdjust="spacingAndGlyphs" textLength="119" x="1287.75" y="308.1387">FinancialDocument</text></a><!--class CreditNote--><a target="_top" xlink:actuate="onRequest" xlink:href="../CreditNote.html" xlink:show="new" xlink:title="Monetary instrument issued by a seller that allows a buyer to purchase an item or service from that seller on a future date." xlink:type="simple"><rect fill="#FEFECE" filter="url(#f1nswezgu8q6m6)" height="23.9688" id="CreditNote" style="stroke: #A80036; stroke-width: 1.5;" width="73" x="1310.75" y="394"/><rect fill="#FEFECE" height="23.9688" style="stroke: #A80036; stroke-width: 1.5;" width="73" x="1310.75" y="394"/><text fill="#000000" font-family="sans-serif" font-size="12" lengthAdjust="spacingAndGlyphs" textLength="67" x="1313.75" y="410.1387">CreditNote</text></a><!--class ContactPoint--><a target="_top" xlink:actuate="onRequest" xlink:href="../ContactPoint.html" xlink:show="new" xlink:title="Number, physical or virtual address, used for communication." xlink:type="simple"><rect fill="#EEEEEE" filter="url(#f1nswezgu8q6m6)" height="23.9688" id="ContactPoint" style="stroke: #A80036; stroke-width: 1.5;" width="87" x="96.75" y="115"/><rect fill="#EEEEEE" height="23.9688" style="stroke: #A80036; stroke-width: 1.5;" width="87" x="96.75" y="115"/><text fill="#000000" font-family="sans-serif" font-size="12" lengthAdjust="spacingAndGlyphs" textLength="81" x="99.75" y="131.1387">ContactPoint</text></a><!--class PaymentObligation--><a target="_top" xlink:actuate="onRequest" xlink:href="../PaymentObligation.html" xlink:show="new" xlink:title="Obligation for the debtor to pay the creditor an amount of cash." xlink:type="simple"><rect fill="#EEEEEE" filter="url(#f1nswezgu8q6m6)" height="23.9688" id="PaymentObligation" style="stroke: #A80036; stroke-width: 1.5;" width="123" x="208.75" y="292"/><rect fill="#EEEEEE" height="23.9688" style="stroke: #A80036; stroke-width: 1.5;" width="123" x="208.75" y="292"/><text fill="#000000" font-family="sans-serif" font-size="12" lengthAdjust="spacingAndGlyphs" textLength="117" x="211.75" y="308.1387">PaymentObligation</text></a><!--class Agreement--><a target="_top" xlink:actuate="onRequest" xlink:href="../Agreement.html" xlink:show="new" xlink:title="Contractual details related to an agreement between parties." xlink:type="simple"><rect fill="#EEEEEE" filter="url(#f1nswezgu8q6m6)" height="23.9688" id="Agreement" style="stroke: #A80036; stroke-width: 1.5;" width="75" x="809.75" y="1250"/><rect fill="#EEEEEE" height="23.9688" style="stroke: #A80036; stroke-width: 1.5;" width="75" x="809.75" y="1250"/><text fill="#000000" font-family="sans-serif" font-size="12" lengthAdjust="spacingAndGlyphs" textLength="69" x="812.75" y="1266.1387">Agreement</text></a><!--class Location--><a target="_top" xlink:actuate="onRequest" xlink:href="../Location.html" xlink:show="new" xlink:title="Specifies a place." xlink:type="simple"><rect fill="#EEEEEE" filter="url(#f1nswezgu8q6m6)" height="23.9688" id="Location" style="stroke: #A80036; stroke-width: 1.5;" width="59" x="631.75" y="1164"/><rect fill="#EEEEEE" height="23.9688" style="stroke: #A80036; stroke-width: 1.5;" width="59" x="631.75" y="1164"/><text fill="#000000" font-family="sans-serif" font-size="12" lengthAdjust="spacingAndGlyphs" textLength="53" x="634.75" y="1180.1387">Location</text></a><!--class Reconciliation--><a target="_top" xlink:actuate="onRequest" xlink:href="../Reconciliation.html" xlink:show="new" xlink:title="Process of matching different documents submitted by parties to a trade." xlink:type="simple"><rect fill="#EEEEEE" filter="url(#f1nswezgu8q6m6)" height="23.9688" id="Reconciliation" style="stroke: #A80036; stroke-width: 1.5;" width="93" x="945.75" y="1078"/><rect fill="#EEEEEE" height="23.9688" style="stroke: #A80036; stroke-width: 1.5;" width="93" x="945.75" y="1078"/><text fill="#000000" font-family="sans-serif" font-size="12" lengthAdjust="spacingAndGlyphs" textLength="87" x="948.75" y="1094.1387">Reconciliation</text></a><!--class LetterOfCredit--><a target="_top" xlink:actuate="onRequest" xlink:href="../LetterOfCredit.html" xlink:show="new" xlink:title="Instrument issued by a bank substituting its name and credit standing for that of its customer. A letter of credit is a written undertaking of the bank, issued for the account of a customer (the applicant), to honour a demand for payment, upon the beneficiary's compliance with the terms and conditions set forth in the undertaking." xlink:type="simple"><rect fill="#EEEEEE" filter="url(#f1nswezgu8q6m6)" height="23.9688" id="LetterOfCredit" style="stroke: #A80036; stroke-width: 1.5;" width="93" x="945.75" y="992"/><rect fill="#EEEEEE" height="23.9688" style="stroke: #A80036; stroke-width: 1.5;" width="93" x="945.75" y="992"/><text fill="#000000" font-family="sans-serif" font-size="12" lengthAdjust="spacingAndGlyphs" textLength="87" x="948.75" y="1008.1387">LetterOfCredit</text></a><!--class DocumentPartyRole--><a target="_top" xlink:actuate="onRequest" xlink:href="../DocumentPartyRole.html" xlink:show="new" xlink:title="Role played by a party in the context of a document." xlink:type="simple"><rect fill="#EEEEEE" filter="url(#f1nswezgu8q6m6)" height="23.9688" id="DocumentPartyRole" style="stroke: #A80036; stroke-width: 1.5;" width="129" x="854.75" y="906"/><rect fill="#EEEEEE" height="23.9688" style="stroke: #A80036; stroke-width: 1.5;" width="129" x="854.75" y="906"/><text fill="#000000" font-family="sans-serif" font-size="12" lengthAdjust="spacingAndGlyphs" textLength="123" x="857.75" y="922.1387">DocumentPartyRole</text></a><!--class Transport--><a target="_top" xlink:actuate="onRequest" xlink:href="../Transport.html" xlink:show="new" xlink:title="Moving of goods or people from one place to another by vehicle." xlink:type="simple"><rect fill="#EEEEEE" filter="url(#f1nswezgu8q6m6)" height="23.9688" id="Transport" style="stroke: #A80036; stroke-width: 1.5;" width="67" x="421.75" y="804"/><rect fill="#EEEEEE" height="23.9688" style="stroke: #A80036; stroke-width: 1.5;" width="67" x="421.75" y="804"/><text fill="#000000" font-family="sans-serif" font-size="12" lengthAdjust="spacingAndGlyphs" textLength="61" x="424.75" y="820.1387">Transport</text></a><!--class Guarantee--><a target="_top" xlink:actuate="onRequest" xlink:href="../Guarantee.html" xlink:show="new" xlink:title="Partial or full coverage of amounts by a party other than the debtor." xlink:type="simple"><rect fill="#EEEEEE" filter="url(#f1nswezgu8q6m6)" height="23.9688" id="Guarantee" style="stroke: #A80036; stroke-width: 1.5;" width="73" x="133.75" y="702"/><rect fill="#EEEEEE" height="23.9688" style="stroke: #A80036; stroke-width: 1.5;" width="73" x="133.75" y="702"/><text fill="#000000" font-family="sans-serif" font-size="12" lengthAdjust="spacingAndGlyphs" textLength="67" x="136.75" y="718.1387">Guarantee</text></a><!--class GenericIdentification--><a target="_top" xlink:actuate="onRequest" xlink:href="../GenericIdentification.html" xlink:show="new" xlink:title="Information related to a non-standardised identification, such as a proprietary party identification or account identification." xlink:type="simple"><rect fill="#EEEEEE" filter="url(#f1nswezgu8q6m6)" height="23.9688" id="GenericIdentification" style="stroke: #A80036; stroke-width: 1.5;" width="135" x="248.75" y="600"/><rect fill="#EEEEEE" height="23.9688" style="stroke: #A80036; stroke-width: 1.5;" width="135" x="248.75" y="600"/><text fill="#000000" font-family="sans-serif" font-size="12" lengthAdjust="spacingAndGlyphs" textLength="129" x="251.75" y="616.1387">GenericIdentification</text></a><!--class Evidence--><a target="_top" xlink:actuate="onRequest" xlink:href="../Evidence.html" xlink:show="new" xlink:title="Element such as signature that can be used to prove a fact." xlink:type="simple"><rect fill="#EEEEEE" filter="url(#f1nswezgu8q6m6)" height="23.9688" id="Evidence" style="stroke: #A80036; stroke-width: 1.5;" width="62" x="578.5" y="498"/><rect fill="#EEEEEE" height="23.9688" style="stroke: #A80036; stroke-width: 1.5;" width="62" x="578.5" y="498"/><text fill="#000000" font-family="sans-serif" font-size="12" lengthAdjust="spacingAndGlyphs" textLength="56" x="581.5" y="514.1387">Evidence</text></a><!--class CommercialTrade--><a target="_top" xlink:actuate="onRequest" xlink:href="../CommercialTrade.html" xlink:show="new" xlink:title="Commercial details of a trade transaction between a buyer and a seller." xlink:type="simple"><rect fill="#EEEEEE" filter="url(#f1nswezgu8q6m6)" height="23.9688" id="CommercialTrade" style="stroke: #A80036; stroke-width: 1.5;" width="114" x="579" y="394"/><rect fill="#EEEEEE" height="23.9688" style="stroke: #A80036; stroke-width: 1.5;" width="114" x="579" y="394"/><text fill="#000000" font-family="sans-serif" font-size="12" lengthAdjust="spacingAndGlyphs" textLength="108" x="582" y="410.1387">CommercialTrade</text></a><!--class Presentation--><a target="_top" xlink:actuate="onRequest" xlink:href="../Presentation.html" xlink:show="new" xlink:title="Presentation of documents." xlink:type="simple"><rect fill="#EEEEEE" filter="url(#f1nswezgu8q6m6)" height="23.9688" id="Presentation" style="stroke: #A80036; stroke-width: 1.5;" width="87" x="632.75" y="804"/><rect fill="#EEEEEE" height="23.9688" style="stroke: #A80036; stroke-width: 1.5;" width="87" x="632.75" y="804"/><text fill="#000000" font-family="sans-serif" font-size="12" lengthAdjust="spacingAndGlyphs" textLength="81" x="635.75" y="820.1387">Presentation</text></a><!--class RegisteredContract--><a target="_top" xlink:actuate="onRequest" xlink:href="../RegisteredContract.html" xlink:show="new" xlink:title="Contract registered for regulatory purpose by a registration agent for the journaling of payments made against the contract." xlink:type="simple"><rect fill="#EEEEEE" filter="url(#f1nswezgu8q6m6)" height="23.9688" id="RegisteredContract" style="stroke: #A80036; stroke-width: 1.5;" width="128" x="279" y="702"/><rect fill="#EEEEEE" height="23.9688" style="stroke: #A80036; stroke-width: 1.5;" width="128" x="279" y="702"/><text fill="#000000" font-family="sans-serif" font-size="12" lengthAdjust="spacingAndGlyphs" textLength="122" x="282" y="718.1387">RegisteredContract</text></a><!--entity ##25288--><!--entity ##25290--><!--link Document to FinancialDocument--><path d="M1322.11,232.76 C1330.63,256.78 1338.5,279 1343.02,291.77 " fill="none" id="Document-FinancialDocument" style="stroke: #A80036; stroke-width: 1.0;"/><polygon fill="none" points="1315.45,234.9,1315.36,213.71,1328.64,230.22,1315.45,234.9" style="stroke: #A80036; stroke-width: 1.0;"/><!--link FinancialDocument to CreditNote--><path d="M1347,336.175 C1347,355.829 1347,380.026 1347,393.867 " fill="none" id="FinancialDocument-CreditNote" style="stroke: #A80036; stroke-width: 1.0;"/><polygon fill="none" points="1340,336.084,1347,316.084,1354,336.084,1340,336.084" style="stroke: #A80036; stroke-width: 1.0;"/><!--link PaymentObligation to ContactPoint--><!--link ContactPoint to PaymentObligation--><path d="M135.406,139.06 C125.92,163.85 107.27,224.6 135,262 C150.933,283.49 177.843,294.11 203.464,299.22 " fill="none" id="ContactPoint-PaymentObligation" style="stroke: #A80036; stroke-width: 1.0;"/><polygon fill="#A80036" points="208.567,300.17,200.4505,294.5913,203.6513,299.2555,198.9872,302.4563,208.567,300.17" style="stroke: #A80036; stroke-width: 1.0;"/><text fill="#000000" font-family="sans-serif" font-size="13" lengthAdjust="spacingAndGlyphs" textLength="178" x="136" y="257.0669">RemittanceRelatedPayment</text><text fill="#000000" font-family="sans-serif" font-size="13" lengthAdjust="spacingAndGlyphs" textLength="24" x="176.6822" y="295.1078">0..1</text><!--link Agreement to PaymentObligation--><!--link Location to Agreement--><!--link Reconciliation to Location--><!--link LetterOfCredit to Reconciliation--><!--link DocumentPartyRole to LetterOfCredit--><!--link Transport to DocumentPartyRole--><!--link Guarantee to Transport--><!--link GenericIdentification to Guarantee--><!--link Evidence to GenericIdentification--><!--link CommercialTrade to Evidence--><!--link Presentation to CommercialTrade--><!--link RegisteredContract to Presentation--><!--link Document to ContactPoint--><path d="M1160.65,127 C910.53,127 356.201,127 188.803,127 " fill="none" id="Document-ContactPoint" style="stroke: #A80036; stroke-width: 1.0;"/><polygon fill="#A80036" points="183.487,127,192.487,131,188.487,127,192.487,123,183.487,127" style="stroke: #A80036; stroke-width: 1.0;"/><text fill="#000000" font-family="sans-serif" font-size="13" lengthAdjust="spacingAndGlyphs" textLength="99" x="621.75" y="119.0669">PlaceOfStorage</text><text fill="#000000" font-family="sans-serif" font-size="13" lengthAdjust="spacingAndGlyphs" textLength="7" x="191.812" y="121.5674">*</text><!--link Document to PaymentObligation--><path d="M1160.58,182.27 C1126.62,194.87 1089.42,206.72 1054,214 C788.559,268.58 707.133,175.27 445,244 C427.696,248.54 425.644,255.44 409,262 C380.021,273.42 346.564,283.38 319.738,290.62 " fill="none" id="Document-PaymentObligation" style="stroke: #A80036; stroke-width: 1.0;"/><polygon fill="#A80036" points="314.808,291.94,324.5367,293.4734,319.6375,290.6455,322.4655,285.7462,314.808,291.94" style="stroke: #A80036; stroke-width: 1.0;"/><text fill="#000000" font-family="sans-serif" font-size="13" lengthAdjust="spacingAndGlyphs" textLength="121" x="446" y="257.0669">PaymentObligation</text><text fill="#000000" font-family="sans-serif" font-size="13" lengthAdjust="spacingAndGlyphs" textLength="24" x="300.6561" y="280.9676">0..1</text><!--link Document to Agreement--><path d="M1409.59,201.48 C1439.51,228.58 1463,262.7 1463,303 C1463,303 1463,303 1463,1177 C1463,1234.9441 1029.57,1254.7829 889.849,1259.6728 " fill="none" id="Document-Agreement" style="stroke: #A80036; stroke-width: 1.0;"/><polygon fill="#A80036" points="884.606,1259.8541,893.7389,1263.5406,889.603,1259.6812,893.4623,1255.5453,884.606,1259.8541" style="stroke: #A80036; stroke-width: 1.0;"/><text fill="#000000" font-family="sans-serif" font-size="13" lengthAdjust="spacingAndGlyphs" textLength="72" x="1464" y="769.0669">Agreement</text><text fill="#000000" font-family="sans-serif" font-size="13" lengthAdjust="spacingAndGlyphs" textLength="7" x="892.6495" y="1253.8412">*</text><!--link Document to Location--><path d="M1274.58,213.87 C1271.8,239.02 1269.01,266.59 1267,292 C1257.6,410.88 1254,440.749 1254,560 C1254,560 1254,560 1254,1091 C1254,1147.791 822.118,1168.828 695.495,1173.775 " fill="none" id="Document-Location" style="stroke: #A80036; stroke-width: 1.0;"/><polygon fill="#A80036" points="690.407,1173.972,699.5546,1177.6218,695.4033,1173.7791,699.246,1169.6278,690.407,1173.972" style="stroke: #A80036; stroke-width: 1.0;"/><text fill="#000000" font-family="sans-serif" font-size="13" lengthAdjust="spacingAndGlyphs" textLength="81" x="1255" y="718.0669">PlaceOfIssue</text><text fill="#000000" font-family="sans-serif" font-size="13" lengthAdjust="spacingAndGlyphs" textLength="24" x="698.8956" y="1167.8844">0..1</text><!--link Document to Reconciliation--><path d="M1219.79,213.64 C1214.14,223.54 1209.05,233.76 1205,244 C1142.24,402.828 1187.82,457.928 1148,624 C1144.72,637.667 1140.25,640.127 1138,654 C1135.99,666.368 1141,707.351 1141,713 C1141,713 1141,713 1141,1005 C1141,1051.036 1086.36,1072.12 1043.26,1081.59 " fill="none" id="Document-Reconciliation" style="stroke: #A80036; stroke-width: 1.0;"/><polygon fill="#A80036" points="1038.33,1082.634,1047.9605,1084.6964,1043.223,1081.6051,1046.3143,1076.8676,1038.33,1082.634" style="stroke: #A80036; stroke-width: 1.0;"/><text fill="#000000" font-family="sans-serif" font-size="13" lengthAdjust="spacingAndGlyphs" textLength="87" x="1139" y="667.0669">Reconciliation</text><text fill="#000000" font-family="sans-serif" font-size="13" lengthAdjust="spacingAndGlyphs" textLength="7" x="1046.8516" y="1075.988">*</text><!--link Document to LetterOfCredit--><path d="M1160.59,189.04 C1121.82,217.24 1089,255.22 1089,303 C1089,303 1089,303 1089,460 C1089,552.705 1037,569.295 1037,662 C1037,662 1037,662 1037,919 C1037,945.69 1019.13,972.1 1005.911,987.984 " fill="none" id="Document-LetterOfCredit" style="stroke: #A80036; stroke-width: 1.0;"/><polygon fill="#A80036" points="1002.664,991.789,1011.5492,987.5401,1005.9099,987.9859,1005.4642,982.3466,1002.664,991.789" style="stroke: #A80036; stroke-width: 1.0;"/><text fill="#000000" font-family="sans-serif" font-size="13" lengthAdjust="spacingAndGlyphs" textLength="90" x="1048" y="616.0669">LetterOfCredit</text><text fill="#000000" font-family="sans-serif" font-size="13" lengthAdjust="spacingAndGlyphs" textLength="8" x="995.4574" y="981.0225">1</text><!--link Document to DocumentPartyRole--><path d="M1160.49,158.89 C1090.88,184.43 1018,228.87 1018,303 C1018,303 1018,303 1018,460 C1018,505.715 987.025,508.824 972,552 C955.585,599.172 949,612.054 949,662 C949,662 949,662 949,817 C949,847.913 935.685,882.019 926.797,901.345 " fill="none" id="Document-DocumentPartyRole" style="stroke: #A80036; stroke-width: 1.0;"/><polygon fill="#A80036" points="924.643,905.929,932.0897,899.4834,926.7687,901.4034,924.8487,896.0823,924.643,905.929" style="stroke: #A80036; stroke-width: 1.0;"/><text fill="#000000" font-family="sans-serif" font-size="13" lengthAdjust="spacingAndGlyphs" textLength="60" x="973" y="565.0669">PartyRole</text><text fill="#000000" font-family="sans-serif" font-size="13" lengthAdjust="spacingAndGlyphs" textLength="7" x="916.95" y="894.9528">*</text><!--link Document to Transport--><path d="M1160.73,174.61 C1126.21,187.47 1088.68,201.35 1054,214 C1016.76,227.58 1001.568,220.02 970,244 C901.56,295.99 747,474.053 747,560 C747,560 747,560 747,715 C747,767.958 572.923,798.753 493.582,810.038 " fill="none" id="Document-Transport" style="stroke: #A80036; stroke-width: 1.0;"/><polygon fill="#A80036" points="488.496,810.753,497.965,813.4618,493.4474,810.0573,496.8519,805.5396,488.496,810.753" style="stroke: #A80036; stroke-width: 1.0;"/><text fill="#000000" font-family="sans-serif" font-size="13" lengthAdjust="spacingAndGlyphs" textLength="61" x="765" y="514.0669">Transport</text><text fill="#000000" font-family="sans-serif" font-size="13" lengthAdjust="spacingAndGlyphs" textLength="8" x="496.6436" y="803.8307">1</text><!--link Document to Guarantee--><path d="M1160.6,182.4 C1126.65,195 1089.44,206.81 1054,214 C756.217,274.41 668.497,182.2 371,244 C349.099,248.55 345.551,256.01 324,262 C250.925,282.32 220.782,252.55 156,292 C74.9245,341.371 19.525,374.345 35,468 C46.9375,540.246 50.6038,561.044 88,624 C105.6562,653.724 134.495,682.009 152.845,698.423 " fill="none" id="Document-Guarantee" style="stroke: #A80036; stroke-width: 1.0;"/><polygon fill="#A80036" points="156.819,701.939,152.7291,692.9795,153.0743,698.6258,147.428,698.971,156.819,701.939" style="stroke: #A80036; stroke-width: 1.0;"/><text fill="#000000" font-family="sans-serif" font-size="13" lengthAdjust="spacingAndGlyphs" textLength="68" x="36" y="463.0669">Guarantee</text><text fill="#000000" font-family="sans-serif" font-size="13" lengthAdjust="spacingAndGlyphs" textLength="7" x="142.6552" y="690.9662">*</text><!--link Document to GenericIdentification--><path d="M1160.71,181.39 C1126.68,194.04 1089.4,206.13 1054,214 C893.817,249.63 839.438,185.82 686,244 C602.885,275.51 608.75,331.54 526,364 C466.303,387.417 281.922,346.358 239,394 C210.925,425.163 280.62,551.053 306.659,595.427 " fill="none" id="Document-GenericIdentification" style="stroke: #A80036; stroke-width: 1.0;"/><polygon fill="#A80036" points="309.325,599.944,308.195,590.1602,306.7835,595.6381,301.3055,594.2266,309.325,599.944" style="stroke: #A80036; stroke-width: 1.0;"/><text fill="#000000" font-family="sans-serif" font-size="13" lengthAdjust="spacingAndGlyphs" textLength="148" x="240" y="410.0669">DocumentIdentification</text><text fill="#000000" font-family="sans-serif" font-size="13" lengthAdjust="spacingAndGlyphs" textLength="8" x="296.2258" y="588.973">1</text><!--link Document to Evidence--><path d="M1160.65,179.75 C1126.54,192.44 1089.23,204.96 1054,214 C965.234,236.78 928.094,196.05 850,244 C758.157,300.4 787.334,366.933 710,442 C687.306,464.029 656.442,483.287 634.827,495.434 " fill="none" id="Document-Evidence" style="stroke: #A80036; stroke-width: 1.0;"/><polygon fill="#A80036" points="630.361,497.916,640.1709,497.0405,634.7314,495.4872,636.2848,490.0478,630.361,497.916" style="stroke: #A80036; stroke-width: 1.0;"/><text fill="#000000" font-family="sans-serif" font-size="13" lengthAdjust="spacingAndGlyphs" textLength="57" x="772" y="359.0669">Evidence</text><text fill="#000000" font-family="sans-serif" font-size="13" lengthAdjust="spacingAndGlyphs" textLength="7" x="627.9851" y="486.9353">*</text><!--link Document to CommercialTrade--><path d="M1160.57,180.75 C1126.53,193.39 1089.29,205.64 1054,214 C881.567,254.83 778.035,157.21 663,292 C639.262,319.814 635.604,364.903 635.491,388.851 " fill="none" id="Document-CommercialTrade" style="stroke: #A80036; stroke-width: 1.0;"/><polygon fill="#A80036" points="635.519,393.906,639.4675,384.8833,635.4904,388.9061,631.4676,384.929,635.519,393.906" style="stroke: #A80036; stroke-width: 1.0;"/><text fill="#000000" font-family="sans-serif" font-size="13" lengthAdjust="spacingAndGlyphs" textLength="113" x="664" y="308.0669">CommercialTrade</text><text fill="#000000" font-family="sans-serif" font-size="13" lengthAdjust="spacingAndGlyphs" textLength="7" x="625.8068" y="382.9219">*</text><!--link Document to Presentation--><path d="M1160.33,174.84 C1083.65,204.07 998.735,237.36 992,244 C901.221,333.439 862.747,683.526 773,774 C759.701,787.407 741.343,796.67 724.173,802.95 " fill="none" id="Document-Presentation" style="stroke: #A80036; stroke-width: 1.0;"/><polygon fill="#A80036" points="719.367,804.643,729.1848,805.425,724.0829,802.9815,726.5264,797.8796,719.367,804.643" style="stroke: #A80036; stroke-width: 1.0;"/><text fill="#000000" font-family="sans-serif" font-size="13" lengthAdjust="spacingAndGlyphs" textLength="81" x="887" y="514.0669">Presentation</text><text fill="#000000" font-family="sans-serif" font-size="13" lengthAdjust="spacingAndGlyphs" textLength="24" x="727.8068" y="797.6819">0..1</text><!--link Document to RegisteredContract--><path d="M1160.59,182.33 C1126.64,194.93 1089.43,206.76 1054,214 C774.137,271.18 690.914,182.36 412,244 C391.369,248.56 388.317,256.2 368,262 C291.277,283.9 254.413,243.57 191,292 C126.364,341.36 114,376.672 114,458 C114,458 114,458 114,613 C114,650.947 220.941,683.73 288.663,700.685 " fill="none" id="Document-RegisteredContract" style="stroke: #A80036; stroke-width: 1.0;"/><polygon fill="#A80036" points="293.874,701.978,286.1024,695.9281,289.0212,700.7737,284.1755,703.6926,293.874,701.978" style="stroke: #A80036; stroke-width: 1.0;"/><text fill="#000000" font-family="sans-serif" font-size="13" lengthAdjust="spacingAndGlyphs" textLength="103" x="116" y="463.0669">RelatedContract</text><text fill="#000000" font-family="sans-serif" font-size="13" lengthAdjust="spacingAndGlyphs" textLength="8" x="266.2682" y="691.0187">1</text><!--link ContactPoint to GenericIdentification--><path d="M164.395,139.07 C201.591,156.89 273.101,194.97 320,244 C343.537,268.61 395.333,382.5 398,394 C416.186,472.416 355.988,560.664 328.718,595.59 " fill="none" id="ContactPoint-GenericIdentification" style="stroke: #A80036; stroke-width: 1.0;"/><polygon fill="#A80036" points="325.563,599.581,334.2825,595.0017,328.664,595.6587,328.0069,590.0402,325.563,599.581" style="stroke: #A80036; stroke-width: 1.0;"/><text fill="#000000" font-family="sans-serif" font-size="13" lengthAdjust="spacingAndGlyphs" textLength="81" x="403" y="410.0669">Identification</text><text fill="#000000" font-family="sans-serif" font-size="13" lengthAdjust="spacingAndGlyphs" textLength="8" x="317.9378" y="589.0061">1</text><!--link ContactPoint to ContactPoint--><path d="M153.417,114.8 C180.637,96.23 218,100.3 218,127 C218,152.24 184.612,157.26 157.966,142.05 " fill="none" id="ContactPoint-ContactPoint" style="stroke: #A80036; stroke-width: 1.0;"/><polygon fill="#A80036" points="153.417,139.2,158.9315,147.3603,157.6578,141.8487,163.1694,140.575,153.417,139.2" style="stroke: #A80036; stroke-width: 1.0;"/><text fill="#000000" font-family="sans-serif" font-size="13" lengthAdjust="spacingAndGlyphs" textLength="80" x="224" y="131.0669">MainContact</text><text fill="#000000" font-family="sans-serif" font-size="13" lengthAdjust="spacingAndGlyphs" textLength="8" x="147.6328" y="159.0561">1</text><!--link PaymentObligation to CommercialTrade--><path d="M310.567,316.084 C379.362,334.88 518.437,372.879 590.463,392.558 " fill="none" id="PaymentObligation-CommercialTrade" style="stroke: #A80036; stroke-width: 1.0;"/><polygon fill="#A80036" points="595.531,393.943,587.9045,387.7111,590.708,392.6244,585.7947,395.4279,595.531,393.943" style="stroke: #A80036; stroke-width: 1.0;"/><text fill="#000000" font-family="sans-serif" font-size="13" lengthAdjust="spacingAndGlyphs" textLength="113" x="487" y="359.0669">CommercialTrade</text><text fill="#000000" font-family="sans-serif" font-size="13" lengthAdjust="spacingAndGlyphs" textLength="8" x="570.901" y="382.9716">1</text><!--link Agreement to CommercialTrade--><path d="M862.645,1249.873 C881.012,1235.3781 909,1208.1759 909,1177 C909,1046 909,1046 909,1046 C909,1018.965 899.395,1011.812 881,992 C857.375,966.555 634.55,856.695 615,828 C241.37,279.6 525.351,593.54 560,498 C571.483,466.338 599.335,437.974 617.94,421.627 " fill="none" id="Agreement-CommercialTrade" style="stroke: #A80036; stroke-width: 1.0;"/><polygon fill="#A80036" points="621.992,418.128,612.5656,420.9817,618.2073,421.3955,617.7936,427.0372,621.992,418.128" style="stroke: #A80036; stroke-width: 1.0;"/><text fill="#000000" font-family="sans-serif" font-size="13" lengthAdjust="spacingAndGlyphs" textLength="36" x="685" y="871.0669">Trade</text><text fill="#000000" font-family="sans-serif" font-size="13" lengthAdjust="spacingAndGlyphs" textLength="8" x="605.5076" y="437.9557">1</text><!--link Location to Transport--><path d="M631.677,1172.292 C560.993,1164.958 387,1141.75 387,1091 C387,917 387,917 387,917 C387,881.571 416.547,849.399 436.688,831.584 " fill="none" id="Location-Transport" style="stroke: #A80036; stroke-width: 1.0;"/><polygon fill="#A80036" points="440.579,828.215,431.1567,831.0821,436.799,831.4879,436.3933,837.1301,440.579,828.215" style="stroke: #A80036; stroke-width: 1.0;"/><text fill="#000000" font-family="sans-serif" font-size="13" lengthAdjust="spacingAndGlyphs" textLength="201" x="388" y="1008.0669">DepartureTransportParameters</text><text fill="#000000" font-family="sans-serif" font-size="13" lengthAdjust="spacingAndGlyphs" textLength="24" x="404.6835" y="848.077">0..1</text><!--link Location to Transport--><path d="M661,1163.858 C661,1147.771 661,1117.104 661,1091 C661,917 661,917 661,917 C661,843.485 553.514,823.998 493.825,818.844 " fill="none" id="Location-Transport" style="stroke: #A80036; stroke-width: 1.0;"/><polygon fill="#A80036" points="488.556,818.416,497.203,823.1307,493.5396,818.8203,497.85,815.1569,488.556,818.416" style="stroke: #A80036; stroke-width: 1.0;"/><text fill="#000000" font-family="sans-serif" font-size="13" lengthAdjust="spacingAndGlyphs" textLength="209" x="662" y="1008.0669">DestinationTransportParameters</text><text fill="#000000" font-family="sans-serif" font-size="13" lengthAdjust="spacingAndGlyphs" textLength="24" x="496.6261" y="832.2638">0..1</text><!--link Location to Transport--><path d="M631.735,1175.535 C548.872,1175.213 313.384,1161.147 232,1016 C205.669,969.038 368.562,867.448 431.203,830.655 " fill="none" id="Location-Transport" style="stroke: #A80036; stroke-width: 1.0;"/><polygon fill="#A80036" points="435.536,828.119,425.748,829.2126,431.2207,830.6445,429.7888,836.1171,435.536,828.119" style="stroke: #A80036; stroke-width: 1.0;"/><text fill="#000000" font-family="sans-serif" font-size="13" lengthAdjust="spacingAndGlyphs" textLength="109" x="233" y="1008.0669">RelatedTransport</text><text fill="#000000" font-family="sans-serif" font-size="13" lengthAdjust="spacingAndGlyphs" textLength="8" x="429.3486" y="847.9432">1</text><!--link Location to GenericIdentification--><path d="M631.708,1172.879 C551.853,1166.572 332.605,1145.599 277,1102 C241.296,1074.005 241.402,1057.013 222,1016 C200.427,970.397 186.029,955.814 194,906 C209.078,811.767 220.747,788.526 261,702 C273.713,674.672 293.054,645.378 305.088,628.149 " fill="none" id="Location-GenericIdentification" style="stroke: #A80036; stroke-width: 1.0;"/><polygon fill="#A80036" points="307.982,624.037,299.531,629.0947,305.1042,628.1258,306.0731,633.6991,307.982,624.037" style="stroke: #A80036; stroke-width: 1.0;"/><text fill="#000000" font-family="sans-serif" font-size="13" lengthAdjust="spacingAndGlyphs" textLength="81" x="195" y="922.0669">Identification</text><text fill="#000000" font-family="sans-serif" font-size="13" lengthAdjust="spacingAndGlyphs" textLength="7" x="294.7152" y="644.1967">*</text><!--link GenericIdentification to RegisteredContract--><path d="M318.993,624.084 C323.777,641.804 333.17,676.591 338.681,697.005 " fill="none" id="GenericIdentification-RegisteredContract" style="stroke: #A80036; stroke-width: 1.0;"/><polygon fill="#A80036" points="339.994,701.867,341.5079,692.1352,338.6898,697.0401,333.7849,694.2219,339.994,701.867" style="stroke: #A80036; stroke-width: 1.0;"/><text fill="#000000" font-family="sans-serif" font-size="13" lengthAdjust="spacingAndGlyphs" textLength="113" x="333" y="667.0669">RelatedCertificate</text><text fill="#000000" font-family="sans-serif" font-size="13" lengthAdjust="spacingAndGlyphs" textLength="8" x="328.2419" y="690.8695">1</text></g></svg>