<?xml version="1.0" encoding="UTF-8" standalone="no"?><svg xmlns="http://www.w3.org/2000/svg" xmlns:xlink="http://www.w3.org/1999/xlink" contentScriptType="application/ecmascript" contentStyleType="text/css" height="762px" preserveAspectRatio="none" style="width:2780px;height:762px;" version="1.1" viewBox="0 0 2780 762" width="2780px" zoomAndPan="magnify"><defs><filter height="300%" id="f1ko8sr17ttexi" width="300%" x="-1" y="-1"><feGaussianBlur result="blurOut" stdDeviation="2.0"/><feColorMatrix in="blurOut" result="blurOut2" type="matrix" values="0 0 0 0 0 0 0 0 0 0 0 0 0 0 0 0 0 0 .4 0"/><feOffset dx="4.0" dy="4.0" in="blurOut2" result="blurOut3"/><feBlend in="SourceGraphic" in2="blurOut3" mode="normal"/></filter></defs><g><!--cluster ##26599--><!--cluster ##26611--><!--class Product--><a target="_top" xlink:actuate="onRequest" xlink:href="../Product.html" xlink:show="new" xlink:title="Item that is offered for sale. Products can be services or goods." xlink:type="simple"><rect fill="#FEFEEE" filter="url(#f1ko8sr17ttexi)" height="70.3828" id="Product" style="stroke: #A80036; stroke-width: 1.5;" width="171" x="2357.75" y="40"/><rect fill="#FEFEEE" height="23.9688" style="stroke: #A80036; stroke-width: 1.5;" width="171" x="2357.75" y="40"/><text fill="#000000" font-family="sans-serif" font-size="12" lengthAdjust="spacingAndGlyphs" textLength="49" x="2418.75" y="56.1387">Product</text><line style="stroke: #A80036; stroke-width: 1.5;" x1="2358.75" x2="2527.75" y1="63.9688" y2="63.9688"/><ellipse cx="2368.75" cy="75.8711" fill="#84BE84" rx="3" ry="3" style="stroke: #038048; stroke-width: 1.0;"/><text fill="#000000" font-family="sans-serif" font-size="11" lengthAdjust="spacingAndGlyphs" textLength="33" x="2377.75" y="78.1792">Name</text><text fill="#000000" font-family="sans-serif" font-size="11" font-style="italic" lengthAdjust="spacingAndGlyphs" textLength="70" x="2414.75" y="78.1792">(Max35Text)</text><ellipse cx="2368.75" cy="88.6758" fill="#84BE84" rx="3" ry="3" style="stroke: #038048; stroke-width: 1.0;"/><text fill="#000000" font-family="sans-serif" font-size="11" lengthAdjust="spacingAndGlyphs" textLength="64" x="2377.75" y="90.9839">Description</text><text fill="#000000" font-family="sans-serif" font-size="11" font-style="italic" lengthAdjust="spacingAndGlyphs" textLength="77" x="2445.75" y="90.9839">(Max140Text)</text><ellipse cx="2368.75" cy="101.4805" fill="#84BE84" rx="3" ry="3" style="stroke: #038048; stroke-width: 1.0;"/><text fill="#000000" font-family="sans-serif" font-size="11" lengthAdjust="spacingAndGlyphs" textLength="39" x="2377.75" y="103.7886">Quality</text><text fill="#000000" font-family="sans-serif" font-size="11" font-style="italic" lengthAdjust="spacingAndGlyphs" textLength="70" x="2420.75" y="103.7886">(Max70Text)</text></a><!--class Service--><a target="_top" xlink:actuate="onRequest" xlink:href="../Service.html" xlink:show="new" xlink:title="Service is the intangible equivalent of a good." xlink:type="simple"><rect fill="#FEFEEE" filter="url(#f1ko8sr17ttexi)" height="83.1875" id="Service" style="stroke: #A80036; stroke-width: 1.5;" width="283" x="2357.75" y="188.5"/><rect fill="#FEFEEE" height="23.9688" style="stroke: #A80036; stroke-width: 1.5;" width="283" x="2357.75" y="188.5"/><text fill="#000000" font-family="sans-serif" font-size="12" lengthAdjust="spacingAndGlyphs" textLength="45" x="2476.75" y="204.6387">Service</text><line style="stroke: #A80036; stroke-width: 1.5;" x1="2358.75" x2="2639.75" y1="212.4688" y2="212.4688"/><ellipse cx="2368.75" cy="224.3711" fill="#84BE84" rx="3" ry="3" style="stroke: #038048; stroke-width: 1.0;"/><text fill="#000000" font-family="sans-serif" font-size="11" lengthAdjust="spacingAndGlyphs" textLength="43" x="2377.75" y="226.6792">Amount</text><text fill="#000000" font-family="sans-serif" font-size="11" font-style="italic" lengthAdjust="spacingAndGlyphs" textLength="126" x="2424.75" y="226.6792">(CurrencyAndAmount)</text><ellipse cx="2368.75" cy="237.1758" fill="#84BE84" rx="3" ry="3" style="stroke: #038048; stroke-width: 1.0;"/><text fill="#000000" font-family="sans-serif" font-size="11" lengthAdjust="spacingAndGlyphs" textLength="27" x="2377.75" y="239.4839">Type</text><text fill="#000000" font-family="sans-serif" font-size="11" font-style="italic" lengthAdjust="spacingAndGlyphs" textLength="70" x="2408.75" y="239.4839">(Max35Text)</text><ellipse cx="2368.75" cy="249.9805" fill="#84BE84" rx="3" ry="3" style="stroke: #038048; stroke-width: 1.0;"/><text fill="#000000" font-family="sans-serif" font-size="11" lengthAdjust="spacingAndGlyphs" textLength="87" x="2377.75" y="252.2886">TaxDesignation</text><text fill="#000000" font-family="sans-serif" font-size="11" font-style="italic" lengthAdjust="spacingAndGlyphs" textLength="166" x="2468.75" y="252.2886">(ServiceTaxDesignationCode)</text><ellipse cx="2368.75" cy="262.7852" fill="#84BE84" rx="3" ry="3" style="stroke: #038048; stroke-width: 1.0;"/><text fill="#000000" font-family="sans-serif" font-size="11" lengthAdjust="spacingAndGlyphs" textLength="25" x="2377.75" y="265.0933">Rate</text><text fill="#000000" font-family="sans-serif" font-size="11" font-style="italic" lengthAdjust="spacingAndGlyphs" textLength="98" x="2406.75" y="265.0933">(PercentageRate)</text></a><!--class FinancialService--><a target="_top" xlink:actuate="onRequest" xlink:href="../FinancialService.html" xlink:show="new" xlink:title="Services provided by a financial institution to its clients." xlink:type="simple"><rect fill="#FEFEEE" filter="url(#f1ko8sr17ttexi)" height="23.9688" id="FinancialService" style="stroke: #A80036; stroke-width: 1.5;" width="106" x="2501.5" y="350"/><rect fill="#FEFEEE" height="23.9688" style="stroke: #A80036; stroke-width: 1.5;" width="106" x="2501.5" y="350"/><text fill="#000000" font-family="sans-serif" font-size="12" lengthAdjust="spacingAndGlyphs" textLength="100" x="2504.5" y="366.1387">FinancialService</text></a><!--class CustodyService--><a target="_top" xlink:actuate="onRequest" xlink:href="../CustodyService.html" xlink:show="new" xlink:title="A service in which a  financial institution holds securities on behalf of the client. Custody provides an investor a place to store assets. Assets in custody are not fungible for the brokerage because they remain on the client's name." xlink:type="simple"><rect fill="#FEFECE" filter="url(#f1ko8sr17ttexi)" height="23.9688" id="CustodyService" style="stroke: #A80036; stroke-width: 1.5;" width="101" x="2508.75" y="452"/><rect fill="#FEFECE" height="23.9688" style="stroke: #A80036; stroke-width: 1.5;" width="101" x="2508.75" y="452"/><text fill="#000000" font-family="sans-serif" font-size="12" lengthAdjust="spacingAndGlyphs" textLength="95" x="2511.75" y="468.1387">CustodyService</text></a><!--class CardPayment--><a target="_top" xlink:actuate="onRequest" xlink:href="../CardPayment.html" xlink:show="new" xlink:title="Payment through an electronic money product." xlink:type="simple"><rect fill="#EEEEEE" filter="url(#f1ko8sr17ttexi)" height="23.9688" id="CardPayment" style="stroke: #A80036; stroke-width: 1.5;" width="89" x="1143.75" y="452"/><rect fill="#EEEEEE" height="23.9688" style="stroke: #A80036; stroke-width: 1.5;" width="89" x="1143.75" y="452"/><text fill="#000000" font-family="sans-serif" font-size="12" lengthAdjust="spacingAndGlyphs" textLength="83" x="1146.75" y="468.1387">CardPayment</text></a><!--class Price--><a target="_top" xlink:actuate="onRequest" xlink:href="../Price.html" xlink:show="new" xlink:title="Amount of money for which goods, services or assets are offered, sold, or bought." xlink:type="simple"><rect fill="#EEEEEE" filter="url(#f1ko8sr17ttexi)" height="23.9688" id="Price" style="stroke: #A80036; stroke-width: 1.5;" width="37" x="1525.75" y="350"/><rect fill="#EEEEEE" height="23.9688" style="stroke: #A80036; stroke-width: 1.5;" width="37" x="1525.75" y="350"/><text fill="#000000" font-family="sans-serif" font-size="12" lengthAdjust="spacingAndGlyphs" textLength="31" x="1528.75" y="366.1387">Price</text></a><!--class ProductCategory--><a target="_top" xlink:actuate="onRequest" xlink:href="../ProductCategory.html" xlink:show="new" xlink:title="Specifies the category of the product." xlink:type="simple"><rect fill="#EEEEEE" filter="url(#f1ko8sr17ttexi)" height="23.9688" id="ProductCategory" style="stroke: #A80036; stroke-width: 1.5;" width="111" x="1431.75" y="218"/><rect fill="#EEEEEE" height="23.9688" style="stroke: #A80036; stroke-width: 1.5;" width="111" x="1431.75" y="218"/><text fill="#000000" font-family="sans-serif" font-size="12" lengthAdjust="spacingAndGlyphs" textLength="105" x="1434.75" y="234.1387">ProductCategory</text></a><!--class LineItem--><a target="_top" xlink:actuate="onRequest" xlink:href="../LineItem.html" xlink:show="new" xlink:title="Unit of information  showing the related  provision of products and/or services and monetary summations reported as a discrete line item." xlink:type="simple"><rect fill="#EEEEEE" filter="url(#f1ko8sr17ttexi)" height="23.9688" id="LineItem" style="stroke: #A80036; stroke-width: 1.5;" width="58" x="1094.5" y="63"/><rect fill="#EEEEEE" height="23.9688" style="stroke: #A80036; stroke-width: 1.5;" width="58" x="1094.5" y="63"/><text fill="#000000" font-family="sans-serif" font-size="12" lengthAdjust="spacingAndGlyphs" textLength="52" x="1097.5" y="79.1387">LineItem</text></a><!--class ProductIdentification--><a target="_top" xlink:actuate="onRequest" xlink:href="../ProductIdentification.html" xlink:show="new" xlink:title="Information used to identify a product." xlink:type="simple"><rect fill="#EEEEEE" filter="url(#f1ko8sr17ttexi)" height="23.9688" id="ProductIdentification" style="stroke: #A80036; stroke-width: 1.5;" width="136" x="1422" y="556"/><rect fill="#EEEEEE" height="23.9688" style="stroke: #A80036; stroke-width: 1.5;" width="136" x="1422" y="556"/><text fill="#000000" font-family="sans-serif" font-size="12" lengthAdjust="spacingAndGlyphs" textLength="130" x="1425" y="572.1387">ProductIdentification</text></a><!--class Country--><a target="_top" xlink:actuate="onRequest" xlink:href="../Country.html" xlink:show="new" xlink:title="Nation with its own government." xlink:type="simple"><rect fill="#EEEEEE" filter="url(#f1ko8sr17ttexi)" height="23.9688" id="Country" style="stroke: #A80036; stroke-width: 1.5;" width="54" x="1433" y="452"/><rect fill="#EEEEEE" height="23.9688" style="stroke: #A80036; stroke-width: 1.5;" width="54" x="1433" y="452"/><text fill="#000000" font-family="sans-serif" font-size="12" lengthAdjust="spacingAndGlyphs" textLength="48" x="1436" y="468.1387">Country</text></a><!--class ProductCharacteristics--><a target="_top" xlink:actuate="onRequest" xlink:href="../ProductCharacteristics.html" xlink:show="new" xlink:title="Identifies the characteristic of a product." xlink:type="simple"><rect fill="#EEEEEE" filter="url(#f1ko8sr17ttexi)" height="23.9688" id="ProductCharacteristics" style="stroke: #A80036; stroke-width: 1.5;" width="149" x="1341.75" y="350"/><rect fill="#EEEEEE" height="23.9688" style="stroke: #A80036; stroke-width: 1.5;" width="149" x="1341.75" y="350"/><text fill="#000000" font-family="sans-serif" font-size="12" lengthAdjust="spacingAndGlyphs" textLength="143" x="1344.75" y="366.1387">ProductCharacteristics</text></a><!--class ProductQuantity--><a target="_top" xlink:actuate="onRequest" xlink:href="../ProductQuantity.html" xlink:show="new" xlink:title="Specifies the ordered quantity of a product." xlink:type="simple"><rect fill="#EEEEEE" filter="url(#f1ko8sr17ttexi)" height="23.9688" id="ProductQuantity" style="stroke: #A80036; stroke-width: 1.5;" width="107" x="1226.75" y="218"/><rect fill="#EEEEEE" height="23.9688" style="stroke: #A80036; stroke-width: 1.5;" width="107" x="1226.75" y="218"/><text fill="#000000" font-family="sans-serif" font-size="12" lengthAdjust="spacingAndGlyphs" textLength="101" x="1229.75" y="234.1387">ProductQuantity</text></a><!--class ProductDelivery--><a target="_top" xlink:actuate="onRequest" xlink:href="../ProductDelivery.html" xlink:show="new" xlink:title="Arrangements for delivery of invoiced products and/or services." xlink:type="simple"><rect fill="#EEEEEE" filter="url(#f1ko8sr17ttexi)" height="23.9688" id="ProductDelivery" style="stroke: #A80036; stroke-width: 1.5;" width="103" x="1393.75" y="728"/><rect fill="#EEEEEE" height="23.9688" style="stroke: #A80036; stroke-width: 1.5;" width="103" x="1393.75" y="728"/><text fill="#000000" font-family="sans-serif" font-size="12" lengthAdjust="spacingAndGlyphs" textLength="97" x="1396.75" y="744.1387">ProductDelivery</text></a><!--class PurchaseOrder--><a target="_top" xlink:actuate="onRequest" xlink:href="../PurchaseOrder.html" xlink:show="new" xlink:title="Document issued by a buyer and containing the details of a purchase, including description of goods, transport information, payment terms, etc." xlink:type="simple"><rect fill="#EEEEEE" filter="url(#f1ko8sr17ttexi)" height="23.9688" id="PurchaseOrder" style="stroke: #A80036; stroke-width: 1.5;" width="100" x="1395" y="642"/><rect fill="#EEEEEE" height="23.9688" style="stroke: #A80036; stroke-width: 1.5;" width="100" x="1395" y="642"/><text fill="#000000" font-family="sans-serif" font-size="12" lengthAdjust="spacingAndGlyphs" textLength="94" x="1398" y="658.1387">PurchaseOrder</text></a><!--class Tax--><a target="_top" xlink:actuate="onRequest" xlink:href="../Tax.html" xlink:show="new" xlink:title="Amount of money due to the government or tax authority, according to various pre-defined parameters such as thresholds or income." xlink:type="simple"><rect fill="#EEEEEE" filter="url(#f1ko8sr17ttexi)" height="23.9688" id="Tax" style="stroke: #A80036; stroke-width: 1.5;" width="27" x="1359.75" y="556"/><rect fill="#EEEEEE" height="23.9688" style="stroke: #A80036; stroke-width: 1.5;" width="27" x="1359.75" y="556"/><text fill="#000000" font-family="sans-serif" font-size="12" lengthAdjust="spacingAndGlyphs" textLength="21" x="1362.75" y="572.1387">Tax</text></a><!--entity ##26634--><!--entity ##26636--><!--entity ##26638--><!--link Product to Service--><path d="M2462.45,129.136 C2469.54,148.523 2477.45,170.125 2484.09,188.264 " fill="none" id="Product-Service" style="stroke: #A80036; stroke-width: 1.0;"/><polygon fill="none" points="2455.87,131.524,2455.57,110.336,2469.02,126.712,2455.87,131.524" style="stroke: #A80036; stroke-width: 1.0;"/><!--link Service to FinancialService--><path d="M2524.07,290.264 C2533.62,312.82 2543.55,336.304 2549.24,349.738 " fill="none" id="Service-FinancialService" style="stroke: #A80036; stroke-width: 1.0;"/><polygon fill="none" points="2517.6,292.923,2516.25,271.776,2530.49,287.468,2517.6,292.923" style="stroke: #A80036; stroke-width: 1.0;"/><!--link FinancialService to CustodyService--><path d="M2555.56,394.175 C2556.54,413.829 2557.75,438.026 2558.44,451.867 " fill="none" id="FinancialService-CustodyService" style="stroke: #A80036; stroke-width: 1.0;"/><polygon fill="none" points="2548.56,394.408,2554.55,374.084,2562.54,393.709,2548.56,394.408" style="stroke: #A80036; stroke-width: 1.0;"/><!--link Price to CardPayment--><!--link ProductCategory to Price--><!--link LineItem to ProductCategory--><!--link ProductIdentification to LineItem--><!--link Country to ProductIdentification--><!--link ProductCharacteristics to Country--><!--link ProductQuantity to ProductCharacteristics--><!--link ProductDelivery to ProductQuantity--><!--link PurchaseOrder to ProductDelivery--><!--link Tax to PurchaseOrder--><!--link Product to CardPayment--><path d="M2357.7,79.56 C2181.27,87.466 1781.66,108.325 1649,140 C1628.45,144.907 1625.56,153.143 1605,158 C1519.11,178.288 1278.81,134.003 1209,188 C1128.79,250.045 1166.92,397.64 1182.48,446.775 " fill="none" id="Product-CardPayment" style="stroke: #A80036; stroke-width: 1.0;"/><polygon fill="#A80036" points="1184.09,451.745,1185.1317,441.9514,1182.5539,446.9868,1177.5185,444.4091,1184.09,451.745" style="stroke: #A80036; stroke-width: 1.0;"/><text fill="#000000" font-family="sans-serif" font-size="13" lengthAdjust="spacingAndGlyphs" textLength="87" x="1161" y="315.0669">CardPayment</text><text fill="#000000" font-family="sans-serif" font-size="13" lengthAdjust="spacingAndGlyphs" textLength="8" x="1172.0558" y="440.964">1</text><!--link Product to Price--><path d="M2357.42,79.072 C2271.31,84.461 2135.89,99.281 2026,140 C1907.86,183.777 1920.71,265.733 1807,320 C1725.48,358.906 1615.12,362.302 1567.49,361.733 " fill="none" id="Product-Price" style="stroke: #A80036; stroke-width: 1.0;"/><polygon fill="#A80036" points="1562.26,361.651,1571.2019,365.7792,1567.2595,361.7224,1571.3162,357.78,1562.26,361.651" style="stroke: #A80036; stroke-width: 1.0;"/><text fill="#000000" font-family="sans-serif" font-size="13" lengthAdjust="spacingAndGlyphs" textLength="57" x="1948" y="234.0669">UnitPrice</text><text fill="#000000" font-family="sans-serif" font-size="13" lengthAdjust="spacingAndGlyphs" textLength="7" x="1570.7296" y="376.5659">*</text><!--link Product to Price--><path d="M2357.62,82.456 C2293.91,89.911 2206.14,105.886 2136,140 C2106.22,154.486 2102.02,164.187 2079,188 C2046,222.137 2052.33,245.397 2013,272 C1950.1,314.555 1923.29,304.229 1849,320 C1745.17,342.042 1618.8,354.566 1567.41,359.069 " fill="none" id="Product-Price" style="stroke: #A80036; stroke-width: 1.0;"/><polygon fill="#A80036" points="1562.39,359.505,1571.6997,362.7188,1567.3716,359.0764,1571.014,354.7483,1562.39,359.505" style="stroke: #A80036; stroke-width: 1.0;"/><text fill="#000000" font-family="sans-serif" font-size="13" lengthAdjust="spacingAndGlyphs" textLength="54" x="2080" y="234.0669">NetPrice</text><text fill="#000000" font-family="sans-serif" font-size="13" lengthAdjust="spacingAndGlyphs" textLength="24" x="1570.8669" y="352.5026">0..1</text><!--link Product to Price--><path d="M2357.57,81.969 C2263.98,89.86 2110.01,106.826 1981,140 C1959.34,145.571 1955.43,151.59 1934,158 C1874.28,175.863 1851.12,157.083 1797,188 C1752.76,213.27 1758.57,239.909 1719,272 C1686.8,298.118 1675.89,301.076 1639,320 C1615.13,332.244 1586.78,344.155 1567.3,351.956 " fill="none" id="Product-Price" style="stroke: #A80036; stroke-width: 1.0;"/><polygon fill="#A80036" points="1562.55,353.848,1572.3918,354.2204,1567.1926,351.9915,1569.4215,346.7923,1562.55,353.848" style="stroke: #A80036; stroke-width: 1.0;"/><text fill="#000000" font-family="sans-serif" font-size="13" lengthAdjust="spacingAndGlyphs" textLength="68" x="1798" y="234.0669">GrossPrice</text><text fill="#000000" font-family="sans-serif" font-size="13" lengthAdjust="spacingAndGlyphs" textLength="24" x="1541.0613" y="338.9373">0..1</text><!--link Product to ProductCategory--><path d="M2357.48,80.341 C2203.43,88.806 1885.44,109.409 1779,140 C1761.81,144.941 1759.99,152.412 1743,158 C1668.87,182.375 1644.19,163.804 1570,188 C1548.77,194.924 1526.14,206.409 1509.88,215.464 " fill="none" id="Product-ProductCategory" style="stroke: #A80036; stroke-width: 1.0;"/><polygon fill="#A80036" points="1505.47,217.948,1515.2742,217.0113,1509.8252,215.4919,1511.3445,210.0429,1505.47,217.948" style="stroke: #A80036; stroke-width: 1.0;"/><text fill="#000000" font-family="sans-serif" font-size="13" lengthAdjust="spacingAndGlyphs" textLength="107" x="1780" y="153.0669">ProductCategory</text><text fill="#000000" font-family="sans-serif" font-size="13" lengthAdjust="spacingAndGlyphs" textLength="7" x="1502.1863" y="206.9783">*</text><!--link Product to LineItem--><path d="M2357.71,75 C2098.61,75 1328.05,75 1156.92,75 " fill="none" id="Product-LineItem" style="stroke: #A80036; stroke-width: 1.0;"/><polygon fill="#A80036" points="1151.8,75,1160.8,79,1156.8,75,1160.8,71,1151.8,75" style="stroke: #A80036; stroke-width: 1.0;"/><text fill="#000000" font-family="sans-serif" font-size="13" lengthAdjust="spacingAndGlyphs" textLength="55" x="1726.25" y="67.0669">LineItem</text><text fill="#000000" font-family="sans-serif" font-size="13" lengthAdjust="spacingAndGlyphs" textLength="24" x="1160.6156" y="69.2255">0..1</text><!--link Product to ProductIdentification--><path d="M2357.52,95.935 C2329.72,105.66 2300.31,119.778 2278,140 C2245.16,169.767 2233,184.676 2233,229 C2233,229 2233,229 2233,465 C2233,532.118 1750.98,557.288 1563.43,564.541 " fill="none" id="Product-ProductIdentification" style="stroke: #A80036; stroke-width: 1.0;"/><polygon fill="#A80036" points="1558.24,564.74,1567.3824,568.4029,1563.2365,564.5543,1567.0852,560.4084,1558.24,564.74" style="stroke: #A80036; stroke-width: 1.0;"/><text fill="#000000" font-family="sans-serif" font-size="13" lengthAdjust="spacingAndGlyphs" textLength="130" x="2234" y="366.0669">ProductIdentification</text><text fill="#000000" font-family="sans-serif" font-size="13" lengthAdjust="spacingAndGlyphs" textLength="7" x="1566.0866" y="559.5296">*</text><!--link Product to Country--><path d="M2357.75,82.108 C2309.07,89.458 2249.48,105.439 2207,140 C2155.97,181.52 2190.85,230.25 2140,272 C1937.06,438.629 1597.85,460.137 1492.33,462.715 " fill="none" id="Product-Country" style="stroke: #A80036; stroke-width: 1.0;"/><polygon fill="#A80036" points="1487.18,462.83,1496.2691,466.6232,1492.1787,462.7157,1496.0862,458.6253,1487.18,462.83" style="stroke: #A80036; stroke-width: 1.0;"/><text fill="#000000" font-family="sans-serif" font-size="13" lengthAdjust="spacingAndGlyphs" textLength="37" x="2101" y="315.0669">Origin</text><text fill="#000000" font-family="sans-serif" font-size="13" lengthAdjust="spacingAndGlyphs" textLength="8" x="1495.1699" y="456.44">1</text><!--link Product to ProductCharacteristics--><path d="M2357.55,79.968 C2255.89,86.249 2081.73,101.954 1937,140 C1916.57,145.372 1913.48,152.823 1893,158 C1832.33,173.332 1666.25,155.126 1613,188 C1575.24,211.315 1590.61,240.847 1559,272 C1525,305.511 1476.2,332.478 1445.31,347.617 " fill="none" id="Product-ProductCharacteristics" style="stroke: #A80036; stroke-width: 1.0;"/><polygon fill="#A80036" points="1440.51,349.945,1450.3531,349.6097,1445.0073,347.7599,1446.857,342.414,1440.51,349.945" style="stroke: #A80036; stroke-width: 1.0;"/><text fill="#000000" font-family="sans-serif" font-size="13" lengthAdjust="spacingAndGlyphs" textLength="95" x="1614" y="234.0669">Characteristics</text><text fill="#000000" font-family="sans-serif" font-size="13" lengthAdjust="spacingAndGlyphs" textLength="7" x="1439.3025" y="338.9743">*</text><!--link Product to ProductQuantity--><path d="M2357.54,78.569 C2185.44,84.491 1802.94,101.636 1678,140 C1662.4,144.79 1661.49,152.859 1646,158 C1547.32,190.754 1515.63,166.046 1414,188 C1380.08,195.327 1342.37,207.216 1315.61,216.309 " fill="none" id="Product-ProductQuantity" style="stroke: #A80036; stroke-width: 1.0;"/><polygon fill="#A80036" points="1310.75,217.973,1320.5595,218.8526,1315.4822,216.3585,1317.9763,211.2811,1310.75,217.973" style="stroke: #A80036; stroke-width: 1.0;"/><text fill="#000000" font-family="sans-serif" font-size="13" lengthAdjust="spacingAndGlyphs" textLength="54" x="1679" y="153.0669">Quantity</text><text fill="#000000" font-family="sans-serif" font-size="13" lengthAdjust="spacingAndGlyphs" textLength="7" x="1322.4375" y="207.0119">*</text><!--link Product to ProductDelivery--><path d="M2398.85,110.041 C2376.64,130.03 2351.95,157.358 2340,188 C2326.44,222.783 2330.52,235.892 2340,272 C2358.15,341.101 2419,340.555 2419,412 C2419,412 2419,412 2419,655 C2419,701.3658 1709.15,729.7859 1501.45,737.1094 " fill="none" id="Product-ProductDelivery" style="stroke: #A80036; stroke-width: 1.0;"/><polygon fill="#A80036" points="1496.34,737.2889,1505.4719,740.978,1501.3371,737.1175,1505.1976,732.9827,1496.34,737.2889" style="stroke: #A80036; stroke-width: 1.0;"/><text fill="#000000" font-family="sans-serif" font-size="13" lengthAdjust="spacingAndGlyphs" textLength="51" x="2420" y="468.0669">Delivery</text><text fill="#000000" font-family="sans-serif" font-size="13" lengthAdjust="spacingAndGlyphs" textLength="8" x="1504.7757" y="731.6517">1</text><!--link Product to PurchaseOrder--><path d="M2528.45,97.071 C2575.47,113.504 2629.84,141.581 2658,188 C2698.35,254.511 2691.16,436.253 2627,500 C2545.85,580.628 1722.94,636.125 1500.29,649.746 " fill="none" id="Product-PurchaseOrder" style="stroke: #A80036; stroke-width: 1.0;"/><polygon fill="#A80036" points="1495.14,650.06,1504.3638,653.5128,1500.131,649.76,1503.8838,645.5273,1495.14,650.06" style="stroke: #A80036; stroke-width: 1.0;"/><text fill="#000000" font-family="sans-serif" font-size="13" lengthAdjust="spacingAndGlyphs" textLength="95" x="2673" y="417.0669">PurchaseOrder</text><text fill="#000000" font-family="sans-serif" font-size="13" lengthAdjust="spacingAndGlyphs" textLength="7" x="1503.0184" y="644.3118">*</text><!--link Product to Tax--><path d="M2357.56,78.887 C2205.95,84.823 1880.23,101.246 1608,140 C1569.34,145.504 1560.65,152.394 1522,158 C1481.62,163.858 1186.03,160.375 1156,188 C1053.48,282.314 1041.37,389.35 1126,500 C1154.32,537.02 1302.11,558.36 1354.53,564.858 " fill="none" id="Product-Tax" style="stroke: #A80036; stroke-width: 1.0;"/><polygon fill="#A80036" points="1359.59,565.475,1351.1495,560.3997,1354.6279,564.8608,1350.1668,568.3392,1359.59,565.475" style="stroke: #A80036; stroke-width: 1.0;"/><text fill="#000000" font-family="sans-serif" font-size="13" lengthAdjust="spacingAndGlyphs" textLength="22" x="1072" y="366.0669">Tax</text><text fill="#000000" font-family="sans-serif" font-size="13" lengthAdjust="spacingAndGlyphs" textLength="7" x="1344.6665" y="557.3699">*</text><!--link LineItem to ProductQuantity--><path d="M1151.74,77.305 C1222.96,81.2 1404.48,95.393 1441,140 C1446.07,146.19 1445.37,151.298 1441,158 C1440.52,158.74 1356.52,195.545 1310.06,215.863 " fill="none" id="LineItem-ProductQuantity" style="stroke: #A80036; stroke-width: 1.0;"/><polygon fill="#A80036" points="1305.42,217.896,1315.2686,217.9612,1310.0024,215.8956,1312.068,210.6293,1305.42,217.896" style="stroke: #A80036; stroke-width: 1.0;"/><text fill="#000000" font-family="sans-serif" font-size="13" lengthAdjust="spacingAndGlyphs" textLength="66" x="1446" y="153.0669">NetWeight</text><text fill="#000000" font-family="sans-serif" font-size="13" lengthAdjust="spacingAndGlyphs" textLength="8" x="1303.3534" y="206.9085">1</text><!--link LineItem to ProductQuantity--><path d="M1094.11,75.657 C941.602,74.139 234.628,70.886 170,140 C164.536,145.843 164.527,152.165 170,158 C206.273,196.667 997.426,221.249 1221.4,227.451 " fill="none" id="LineItem-ProductQuantity" style="stroke: #A80036; stroke-width: 1.0;"/><polygon fill="#A80036" points="1226.58,227.594,1217.6858,223.3639,1221.5817,227.4654,1217.4801,231.3613,1226.58,227.594" style="stroke: #A80036; stroke-width: 1.0;"/><text fill="#000000" font-family="sans-serif" font-size="13" lengthAdjust="spacingAndGlyphs" textLength="88" x="171" y="153.0669">BilledQuantity</text><text fill="#000000" font-family="sans-serif" font-size="13" lengthAdjust="spacingAndGlyphs" textLength="7" x="1211.8541" y="222.4094">*</text><!--link LineItem to ProductQuantity--><path d="M1094.04,75.985 C954.505,76.207 355.922,80.635 301,140 C295.567,145.872 295.552,152.142 301,158 C363.768,225.485 1019.56,229.616 1221.29,229.275 " fill="none" id="LineItem-ProductQuantity" style="stroke: #A80036; stroke-width: 1.0;"/><polygon fill="#A80036" points="1226.55,229.265,1217.5386,225.2907,1221.55,229.2793,1217.5615,233.2907,1226.55,229.265" style="stroke: #A80036; stroke-width: 1.0;"/><text fill="#000000" font-family="sans-serif" font-size="13" lengthAdjust="spacingAndGlyphs" textLength="128" x="302" y="153.0669">ChargeFreeQuantity</text><text fill="#000000" font-family="sans-serif" font-size="13" lengthAdjust="spacingAndGlyphs" textLength="7" x="1211.8206" y="242.1236">*</text><!--link LineItem to ProductQuantity--><path d="M1094.25,76.606 C973.839,79.436 514.38,93.25 472,140 C466.627,145.927 466.596,152.101 472,158 C522.449,213.076 1044.22,225.628 1221.46,228.312 " fill="none" id="LineItem-ProductQuantity" style="stroke: #A80036; stroke-width: 1.0;"/><polygon fill="#A80036" points="1226.6,228.389,1217.6581,224.2608,1221.6005,228.3176,1217.5438,232.26,1226.6,228.389" style="stroke: #A80036; stroke-width: 1.0;"/><text fill="#000000" font-family="sans-serif" font-size="13" lengthAdjust="spacingAndGlyphs" textLength="244" x="473" y="153.0669">MeasureQuantityStartRelatedLineItem</text><text fill="#000000" font-family="sans-serif" font-size="13" lengthAdjust="spacingAndGlyphs" textLength="8" x="1210.7741" y="221.2592">1</text><!--link LineItem to ProductQuantity--><path d="M1094.46,77.599 C1001.074,83.359 713.205,105.54 759,158 C789.088,192.466 1091.55,216.491 1221.34,225.292 " fill="none" id="LineItem-ProductQuantity" style="stroke: #A80036; stroke-width: 1.0;"/><polygon fill="#A80036" points="1226.64,225.65,1217.9354,221.0423,1221.6518,225.3072,1217.3869,229.0235,1226.64,225.65" style="stroke: #A80036; stroke-width: 1.0;"/><text fill="#000000" font-family="sans-serif" font-size="13" lengthAdjust="spacingAndGlyphs" textLength="236" x="760" y="153.0669">MeasureQuantityEndRelatedLineItem</text><text fill="#000000" font-family="sans-serif" font-size="13" lengthAdjust="spacingAndGlyphs" textLength="8" x="1210.8632" y="220.2406">1</text><!--link LineItem to ProductQuantity--><path d="M1095.84,87.059 C1063.57,101.822 1016.62,129.441 1038,158 C1060.03,187.419 1157.23,208.786 1221.55,220.011 " fill="none" id="LineItem-ProductQuantity" style="stroke: #A80036; stroke-width: 1.0;"/><polygon fill="#A80036" points="1226.5,220.867,1218.3033,215.4067,1221.5716,220.0239,1216.9544,223.2922,1226.5,220.867" style="stroke: #A80036; stroke-width: 1.0;"/><text fill="#000000" font-family="sans-serif" font-size="13" lengthAdjust="spacingAndGlyphs" textLength="122" x="1039" y="153.0669">GrossPriceQuantity</text><text fill="#000000" font-family="sans-serif" font-size="13" lengthAdjust="spacingAndGlyphs" textLength="7" x="1211.7391" y="211.7783">*</text><!--link LineItem to ProductQuantity--><path d="M1133.43,87.057 C1148.53,102.981 1177.47,133.183 1203,158 C1223.55,177.982 1247.99,200.277 1263.74,214.46 " fill="none" id="LineItem-ProductQuantity" style="stroke: #A80036; stroke-width: 1.0;"/><polygon fill="#A80036" points="1267.54,217.884,1263.5228,208.8917,1263.8223,214.5406,1258.1733,214.8401,1267.54,217.884" style="stroke: #A80036; stroke-width: 1.0;"/><text fill="#000000" font-family="sans-serif" font-size="13" lengthAdjust="spacingAndGlyphs" textLength="108" x="1204" y="153.0669">NetPriceQuantity</text><text fill="#000000" font-family="sans-serif" font-size="13" lengthAdjust="spacingAndGlyphs" textLength="7" x="1253.6241" y="206.8923">*</text><!--link LineItem to ProductQuantity--><path d="M1151.83,75.751 C1196.09,77.124 1279.65,87.047 1318,140 C1334.86,163.276 1312.22,195.185 1295.34,213.796 " fill="none" id="LineItem-ProductQuantity" style="stroke: #A80036; stroke-width: 1.0;"/><polygon fill="#A80036" points="1291.63,217.781,1300.6924,213.9245,1295.039,214.1233,1294.8402,208.47,1291.63,217.781" style="stroke: #A80036; stroke-width: 1.0;"/><text fill="#000000" font-family="sans-serif" font-size="13" lengthAdjust="spacingAndGlyphs" textLength="80" x="1325" y="153.0669">GrossWeight</text><text fill="#000000" font-family="sans-serif" font-size="13" lengthAdjust="spacingAndGlyphs" textLength="7" x="1285.909" y="207.0119">*</text><!--link Country to Tax--><path d="M1450.36,476.306 C1434.6,494.784 1403.32,531.456 1385.74,552.058 " fill="none" id="Country-Tax" style="stroke: #A80036; stroke-width: 1.0;"/><polygon fill="#A80036" points="1382.42,555.954,1391.298,551.69,1385.6595,552.1454,1385.2042,546.5069,1382.42,555.954" style="stroke: #A80036; stroke-width: 1.0;"/><text fill="#000000" font-family="sans-serif" font-size="13" lengthAdjust="spacingAndGlyphs" textLength="22" x="1423" y="521.0669">Tax</text><text fill="#000000" font-family="sans-serif" font-size="13" lengthAdjust="spacingAndGlyphs" textLength="8" x="1374.8534" y="544.9864">1</text></g></svg>