<?xml version="1.0" encoding="UTF-8" standalone="no"?><svg xmlns="http://www.w3.org/2000/svg" xmlns:xlink="http://www.w3.org/1999/xlink" contentScriptType="application/ecmascript" contentStyleType="text/css" height="530px" preserveAspectRatio="none" style="width:1833px;height:530px;" version="1.1" viewBox="0 0 1833 530" width="1833px" zoomAndPan="magnify"><defs><filter height="300%" id="fqavo1uyg58bz" width="300%" x="-1" y="-1"><feGaussianBlur result="blurOut" stdDeviation="2.0"/><feColorMatrix in="blurOut" result="blurOut2" type="matrix" values="0 0 0 0 0 0 0 0 0 0 0 0 0 0 0 0 0 0 .4 0"/><feOffset dx="4.0" dy="4.0" in="blurOut2" result="blurOut3"/><feBlend in="SourceGraphic" in2="blurOut3" mode="normal"/></filter></defs><g><!--cluster ##10390--><!--cluster ##10405--><!--cluster ##10414--><!--cluster ##10419--><!--class Role--><a target="_top" xlink:actuate="onRequest" xlink:href="../Role.html" xlink:show="new" xlink:title="Role of a party in an activity." xlink:type="simple"><rect fill="#FEFEEE" filter="url(#fqavo1uyg58bz)" height="44.7734" id="Role" style="stroke: #A80036; stroke-width: 1.5;" width="175" x="284.75" y="40.5"/><rect fill="#FEFEEE" height="23.9688" style="stroke: #A80036; stroke-width: 1.5;" width="175" x="284.75" y="40.5"/><text fill="#000000" font-family="sans-serif" font-size="12" lengthAdjust="spacingAndGlyphs" textLength="27" x="358.75" y="56.6387">Role</text><line style="stroke: #A80036; stroke-width: 1.5;" x1="285.75" x2="458.75" y1="64.4688" y2="64.4688"/><ellipse cx="295.75" cy="76.3711" fill="#84BE84" rx="3" ry="3" style="stroke: #038048; stroke-width: 1.0;"/><text fill="#000000" font-family="sans-serif" font-size="11" lengthAdjust="spacingAndGlyphs" textLength="53" x="304.75" y="78.6792">PartyRole</text><text fill="#000000" font-family="sans-serif" font-size="11" font-style="italic" lengthAdjust="spacingAndGlyphs" textLength="92" x="361.75" y="78.6792">(PartyRoleCode)</text></a><!--class SettlementPartyRole--><a target="_top" xlink:actuate="onRequest" xlink:href="../SettlementPartyRole.html" xlink:show="new" xlink:title="Role played by a party in a settlement process." xlink:type="simple"><rect fill="#FEFEEE" filter="url(#fqavo1uyg58bz)" height="23.9688" id="SettlementPartyRole" style="stroke: #A80036; stroke-width: 1.5;" width="134" x="318" y="166"/><rect fill="#FEFEEE" height="23.9688" style="stroke: #A80036; stroke-width: 1.5;" width="134" x="318" y="166"/><text fill="#000000" font-family="sans-serif" font-size="12" lengthAdjust="spacingAndGlyphs" textLength="128" x="321" y="182.1387">SettlementPartyRole</text></a><!--class SecuritiesSettlementPartyRole--><a target="_top" xlink:actuate="onRequest" xlink:href="../SecuritiesSettlementPartyRole.html" xlink:show="new" xlink:title="Role played by a party in the context of the settlement of securities." xlink:type="simple"><rect fill="#FEFEEE" filter="url(#fqavo1uyg58bz)" height="57.5781" id="SecuritiesSettlementPartyRole" style="stroke: #A80036; stroke-width: 1.5;" width="249" x="210.75" y="268"/><rect fill="#FEFEEE" height="23.9688" style="stroke: #A80036; stroke-width: 1.5;" width="249" x="210.75" y="268"/><text fill="#000000" font-family="sans-serif" font-size="12" lengthAdjust="spacingAndGlyphs" textLength="190" x="240.25" y="284.1387">SecuritiesSettlementPartyRole</text><line style="stroke: #A80036; stroke-width: 1.5;" x1="211.75" x2="458.75" y1="291.9688" y2="291.9688"/><ellipse cx="221.75" cy="303.8711" fill="#84BE84" rx="3" ry="3" style="stroke: #038048; stroke-width: 1.0;"/><text fill="#000000" font-family="sans-serif" font-size="11" lengthAdjust="spacingAndGlyphs" textLength="91" x="230.75" y="306.1792">SettlingCapacity</text><text fill="#000000" font-family="sans-serif" font-size="11" font-style="italic" lengthAdjust="spacingAndGlyphs" textLength="128" x="325.75" y="306.1792">(SettlingCapacityCode)</text><ellipse cx="221.75" cy="316.6758" fill="#84BE84" rx="3" ry="3" style="stroke: #038048; stroke-width: 1.0;"/><text fill="#000000" font-family="sans-serif" font-size="11" lengthAdjust="spacingAndGlyphs" textLength="68" x="230.75" y="318.9839">TaxCapacity</text><text fill="#000000" font-family="sans-serif" font-size="11" font-style="italic" lengthAdjust="spacingAndGlyphs" textLength="101" x="302.75" y="318.9839">(TaxLiabilityCode)</text></a><!--class DeliveringSettlementParty--><a target="_top" xlink:actuate="onRequest" xlink:href="../DeliveringSettlementParty.html" xlink:show="new" xlink:title="Party that is responsible for delivering securities as part of a chain of settlement parties or as party that sells them." xlink:type="simple"><rect fill="#FEFEEE" filter="url(#fqavo1uyg58bz)" height="23.9688" id="DeliveringSettlementParty" style="stroke: #A80036; stroke-width: 1.5;" width="168" x="93.5" y="406"/><rect fill="#FEFEEE" height="23.9688" style="stroke: #A80036; stroke-width: 1.5;" width="168" x="93.5" y="406"/><text fill="#000000" font-family="sans-serif" font-size="12" lengthAdjust="spacingAndGlyphs" textLength="162" x="96.5" y="422.1387">DeliveringSettlementParty</text></a><!--class DeliveringDepositoryRole--><a target="_top" xlink:actuate="onRequest" xlink:href="../DeliveringDepositoryRole.html" xlink:show="new" xlink:title="Organisation holding securities to enable book entry transfer of securities. Such an organisation may also carry out centralised comparison and transaction processing such as clearing and settlement of securities. The physical securities may be immobilised by the depository, or securities may be dematerialised (so that they exist only as electronic records). It is also responsible for compliance of the portfolio with legal ratios etc. The depository may delegate custody to another entity (custodian)." xlink:type="simple"><rect fill="#FEFECE" filter="url(#fqavo1uyg58bz)" height="23.9688" id="DeliveringDepositoryRole" style="stroke: #A80036; stroke-width: 1.5;" width="161" x="96.75" y="496"/><rect fill="#FEFECE" height="23.9688" style="stroke: #A80036; stroke-width: 1.5;" width="161" x="96.75" y="496"/><text fill="#000000" font-family="sans-serif" font-size="12" lengthAdjust="spacingAndGlyphs" textLength="155" x="99.75" y="512.1387">DeliveringDepositoryRole</text></a><!--class RolePlayer--><a target="_top" xlink:actuate="onRequest" xlink:href="../RolePlayer.html" xlink:show="new" xlink:title="Type of entity that plays a specific role in a specific context." xlink:type="simple"><rect fill="#EEEEEE" filter="url(#fqavo1uyg58bz)" height="23.9688" id="RolePlayer" style="stroke: #A80036; stroke-width: 1.5;" width="71" x="1408.75" y="496"/><rect fill="#EEEEEE" height="23.9688" style="stroke: #A80036; stroke-width: 1.5;" width="71" x="1408.75" y="496"/><text fill="#000000" font-family="sans-serif" font-size="12" lengthAdjust="spacingAndGlyphs" textLength="65" x="1411.75" y="512.1387">RolePlayer</text></a><!--class ContactPersonRole--><a target="_top" xlink:actuate="onRequest" xlink:href="../ContactPersonRole.html" xlink:show="new" xlink:title="Person to be contacted in a given organisation. In the corporate action domain (including meeting notifications) , it is the contact person at the party organising the meeting, at the issuer or at an intermediary." xlink:type="simple"><rect fill="#EEEEEE" filter="url(#fqavo1uyg58bz)" height="23.9688" id="ContactPersonRole" style="stroke: #A80036; stroke-width: 1.5;" width="126" x="1361" y="406"/><rect fill="#EEEEEE" height="23.9688" style="stroke: #A80036; stroke-width: 1.5;" width="126" x="1361" y="406"/><text fill="#000000" font-family="sans-serif" font-size="12" lengthAdjust="spacingAndGlyphs" textLength="120" x="1364" y="422.1387">ContactPersonRole</text></a><!--class CounterpartyRisk--><a target="_top" xlink:actuate="onRequest" xlink:href="../CounterpartyRisk.html" xlink:show="new" xlink:title="Calculation of the exposure amount that one party has vis-a-vis one counterparty or a central system, based on its credit risk." xlink:type="simple"><rect fill="#EEEEEE" filter="url(#fqavo1uyg58bz)" height="23.9688" id="CounterpartyRisk" style="stroke: #A80036; stroke-width: 1.5;" width="113" x="1373.75" y="285"/><rect fill="#EEEEEE" height="23.9688" style="stroke: #A80036; stroke-width: 1.5;" width="113" x="1373.75" y="285"/><text fill="#000000" font-family="sans-serif" font-size="12" lengthAdjust="spacingAndGlyphs" textLength="107" x="1376.75" y="301.1387">CounterpartyRisk</text></a><!--class Entry--><a target="_top" xlink:actuate="onRequest" xlink:href="../Entry.html" xlink:show="new" xlink:title="Posting to an account that results in an increase or decrease to a balance." xlink:type="simple"><rect fill="#EEEEEE" filter="url(#fqavo1uyg58bz)" height="23.9688" id="Entry" style="stroke: #A80036; stroke-width: 1.5;" width="38" x="1361" y="166"/><rect fill="#EEEEEE" height="23.9688" style="stroke: #A80036; stroke-width: 1.5;" width="38" x="1361" y="166"/><text fill="#000000" font-family="sans-serif" font-size="12" lengthAdjust="spacingAndGlyphs" textLength="32" x="1364" y="182.1387">Entry</text></a><!--class Account--><a target="_top" xlink:actuate="onRequest" xlink:href="../Account.html" xlink:show="new" xlink:title="Record of transactions in specific types of assets, maintained by a servicing party on behalf of one or more owning parties. Business relationship between an account servicer and one or more account owners." xlink:type="simple"><rect fill="#EEEEEE" filter="url(#fqavo1uyg58bz)" height="23.9688" id="Account" style="stroke: #A80036; stroke-width: 1.5;" width="57" x="941.75" y="406"/><rect fill="#EEEEEE" height="23.9688" style="stroke: #A80036; stroke-width: 1.5;" width="57" x="941.75" y="406"/><text fill="#000000" font-family="sans-serif" font-size="12" lengthAdjust="spacingAndGlyphs" textLength="51" x="944.75" y="422.1387">Account</text></a><!--class Settlement--><a target="_top" xlink:actuate="onRequest" xlink:href="../Settlement.html" xlink:show="new" xlink:title="Process which consists in transferring the proceeds related to a trade from one party to the next one." xlink:type="simple"><rect fill="#EEEEEE" filter="url(#fqavo1uyg58bz)" height="23.9688" id="Settlement" style="stroke: #A80036; stroke-width: 1.5;" width="75" x="940.75" y="285"/><rect fill="#EEEEEE" height="23.9688" style="stroke: #A80036; stroke-width: 1.5;" width="75" x="940.75" y="285"/><text fill="#000000" font-family="sans-serif" font-size="12" lengthAdjust="spacingAndGlyphs" textLength="69" x="943.75" y="301.1387">Settlement</text></a><!--class SecuritiesSettlement--><a target="_top" xlink:actuate="onRequest" xlink:href="../SecuritiesSettlement.html" xlink:show="new" xlink:title="Settlement of the securities in a securities transaction, that is, the instruction to deliver or receive securities, involving the payment of an amount of money or not." xlink:type="simple"><rect fill="#EEEEEE" filter="url(#fqavo1uyg58bz)" height="23.9688" id="SecuritiesSettlement" style="stroke: #A80036; stroke-width: 1.5;" width="137" x="554.75" y="496"/><rect fill="#EEEEEE" height="23.9688" style="stroke: #A80036; stroke-width: 1.5;" width="137" x="554.75" y="496"/><text fill="#000000" font-family="sans-serif" font-size="12" lengthAdjust="spacingAndGlyphs" textLength="131" x="557.75" y="512.1387">SecuritiesSettlement</text></a><!--class SecuritiesSettlementSystem--><a target="_top" xlink:actuate="onRequest" xlink:href="../SecuritiesSettlementSystem.html" xlink:show="new" xlink:title="Specifies the system used in a settlement process." xlink:type="simple"><rect fill="#EEEEEE" filter="url(#fqavo1uyg58bz)" height="23.9688" id="SecuritiesSettlementSystem" style="stroke: #A80036; stroke-width: 1.5;" width="182" x="516" y="406"/><rect fill="#EEEEEE" height="23.9688" style="stroke: #A80036; stroke-width: 1.5;" width="182" x="516" y="406"/><text fill="#000000" font-family="sans-serif" font-size="12" lengthAdjust="spacingAndGlyphs" textLength="176" x="519" y="422.1387">SecuritiesSettlementSystem</text></a><!--entity ##10424--><!--entity ##10426--><!--link Role to SettlementPartyRole--><path d="M376.781,105.559 C379.266,127.159 382.112,151.898 383.719,165.865 " fill="none" id="Role-SettlementPartyRole" style="stroke: #A80036; stroke-width: 1.0;"/><polygon fill="none" points="369.808,106.189,374.476,85.52,383.716,104.589,369.808,106.189" style="stroke: #A80036; stroke-width: 1.0;"/><!--link SettlementPartyRole to SecuritiesSettlementPartyRole--><path d="M372.318,208.675 C364.549,226.855 354.663,249.987 347.019,267.876 " fill="none" id="SettlementPartyRole-SecuritiesSettlementPartyRole" style="stroke: #A80036; stroke-width: 1.0;"/><polygon fill="none" points="365.909,205.859,380.206,190.218,378.783,211.36,365.909,205.859" style="stroke: #A80036; stroke-width: 1.0;"/><!--link SecuritiesSettlementPartyRole to DeliveringSettlementParty--><path d="M281.274,338.465 C249.746,362.21 212.215,390.477 191.884,405.79 " fill="none" id="SecuritiesSettlementPartyRole-DeliveringSettlementParty" style="stroke: #A80036; stroke-width: 1.0;"/><polygon fill="none" points="277.369,332.642,297.556,326.201,285.792,343.825,277.369,332.642" style="stroke: #A80036; stroke-width: 1.0;"/><!--link DeliveringSettlementParty to DeliveringDepositoryRole--><path d="M177,450.334 C177,466.2321 177,484.5426 177,495.9452 " fill="none" id="DeliveringSettlementParty-DeliveringDepositoryRole" style="stroke: #A80036; stroke-width: 1.0;"/><polygon fill="none" points="170,450.145,177,430.145,184,450.145,170,450.145" style="stroke: #A80036; stroke-width: 1.0;"/><!--link ContactPersonRole to RolePlayer--><!--link CounterpartyRisk to ContactPersonRole--><!--link Entry to CounterpartyRisk--><!--link Settlement to Account--><!--link SecuritiesSettlementSystem to SecuritiesSettlement--><!--link Role to RolePlayer--><path d="M459.546,65.956 C690.163,71.434 1310.58,88.358 1514,116 C1634.62,132.39 1781,55.276 1781,177 C1781,177 1781,177 1781,419 C1781,479.6217 1574.27,499.2654 1484.64,504.9332 " fill="none" id="Role-RolePlayer" style="stroke: #A80036; stroke-width: 1.0;"/><polygon fill="#A80036" points="1479.43,505.2555,1488.6636,508.6819,1484.4201,504.9412,1488.1608,500.6977,1479.43,505.2555" style="stroke: #A80036; stroke-width: 1.0;"/><text fill="#000000" font-family="sans-serif" font-size="13" lengthAdjust="spacingAndGlyphs" textLength="39" x="1782" y="301.0669">Player</text><text fill="#000000" font-family="sans-serif" font-size="13" lengthAdjust="spacingAndGlyphs" textLength="7" x="1487.8913" y="498.8806">*</text><!--link Role to ContactPersonRole--><path d="M459.703,66.346 C728.452,73.976 1524.54,100.046 1560,142 C1632.57,227.854 1493.03,359.074 1441.81,402.493 " fill="none" id="Role-ContactPersonRole" style="stroke: #A80036; stroke-width: 1.0;"/><polygon fill="#A80036" points="1437.7,405.943,1447.1584,403.1972,1441.5217,402.719,1441.9999,397.0824,1437.7,405.943" style="stroke: #A80036; stroke-width: 1.0;"/><text fill="#000000" font-family="sans-serif" font-size="13" lengthAdjust="spacingAndGlyphs" textLength="121" x="1578" y="233.0669">ContactPersonRole</text><text fill="#000000" font-family="sans-serif" font-size="13" lengthAdjust="spacingAndGlyphs" textLength="8" x="1431.6906" y="394.9716">1</text><!--link Role to CounterpartyRisk--><path d="M459.515,64.196 C698.42,65.601 1348.47,75.55 1416,142 C1453.08,178.49 1442.05,247.982 1434.49,279.602 " fill="none" id="Role-CounterpartyRisk" style="stroke: #A80036; stroke-width: 1.0;"/><polygon fill="#A80036" points="1433.23,284.695,1439.2805,276.9238,1434.4346,279.8423,1431.5161,274.9964,1433.23,284.695" style="stroke: #A80036; stroke-width: 1.0;"/><text fill="#000000" font-family="sans-serif" font-size="13" lengthAdjust="spacingAndGlyphs" textLength="109" x="1441" y="182.0669">CounterpartyRisk</text><text fill="#000000" font-family="sans-serif" font-size="13" lengthAdjust="spacingAndGlyphs" textLength="24" x="1404.9109" y="273.8974">0..1</text><!--link Role to Entry--><path d="M459.252,73.781 C676.503,98.136 1233.01,160.522 1355.79,174.286 " fill="none" id="Role-Entry" style="stroke: #A80036; stroke-width: 1.0;"/><polygon fill="#A80036" points="1360.98,174.867,1352.4818,169.889,1356.0111,174.3098,1351.5903,177.8392,1360.98,174.867" style="stroke: #A80036; stroke-width: 1.0;"/><text fill="#000000" font-family="sans-serif" font-size="13" lengthAdjust="spacingAndGlyphs" textLength="33" x="997" y="129.0669">Entry</text><text fill="#000000" font-family="sans-serif" font-size="13" lengthAdjust="spacingAndGlyphs" textLength="8" x="1344.9241" y="167.5408">1</text><!--link SettlementPartyRole to Account--><path d="M452.192,182.498 C610.146,191.415 994.602,217.421 1032,261 C1069.05,304.179 1013.53,372.23 985.085,402.103 " fill="none" id="SettlementPartyRole-Account" style="stroke: #A80036; stroke-width: 1.0;"/><polygon fill="#A80036" points="981.428,405.89,990.5576,402.1953,984.9016,402.2936,984.8033,396.6376,981.428,405.89" style="stroke: #A80036; stroke-width: 1.0;"/><text fill="#000000" font-family="sans-serif" font-size="13" lengthAdjust="spacingAndGlyphs" textLength="124" x="1046" y="301.0669">SettlementAccount</text><text fill="#000000" font-family="sans-serif" font-size="13" lengthAdjust="spacingAndGlyphs" textLength="8" x="974.5517" y="394.9004">1</text><!--link SettlementPartyRole to Settlement--><path d="M440.788,190.007 C558.596,213.251 830.513,266.9 935.535,287.622 " fill="none" id="SettlementPartyRole-Settlement" style="stroke: #A80036; stroke-width: 1.0;"/><polygon fill="#A80036" points="940.71,288.643,932.6556,282.975,935.8047,287.6742,931.1055,290.8234,940.71,288.643" style="stroke: #A80036; stroke-width: 1.0;"/><text fill="#000000" font-family="sans-serif" font-size="13" lengthAdjust="spacingAndGlyphs" textLength="72" x="683" y="233.0669">Settlement</text><text fill="#000000" font-family="sans-serif" font-size="13" lengthAdjust="spacingAndGlyphs" textLength="8" x="924.6643" y="281.9315">1</text><!--link SecuritiesSettlementPartyRole to SecuritiesSettlement--><path d="M459.655,306.773 C549.145,315.109 660.479,330.288 699,356 C736.436,380.988 737.844,417.218 715,456 C704.405,473.9875 684.928,486.08 666.614,493.9555 " fill="none" id="SecuritiesSettlementPartyRole-SecuritiesSettlement" style="stroke: #A80036; stroke-width: 1.0;"/><polygon fill="#A80036" points="661.989,495.8679,671.8345,496.1265,666.6098,493.9579,668.7784,488.7332,661.989,495.8679" style="stroke: #A80036; stroke-width: 1.0;"/><text fill="#000000" font-family="sans-serif" font-size="13" lengthAdjust="spacingAndGlyphs" textLength="135" x="732" y="422.0669">SecuritiesSettlement</text><text fill="#000000" font-family="sans-serif" font-size="13" lengthAdjust="spacingAndGlyphs" textLength="7" x="665.7587" y="484.8707">*</text><!--link SecuritiesSettlementPartyRole to SecuritiesSettlementSystem--><path d="M399.116,326.051 C455.223,350.598 534.237,385.166 576.879,403.822 " fill="none" id="SecuritiesSettlementPartyRole-SecuritiesSettlementSystem" style="stroke: #A80036; stroke-width: 1.0;"/><polygon fill="#A80036" points="581.643,405.906,575.0007,398.6341,577.0622,403.902,571.7943,405.9634,581.643,405.906" style="stroke: #A80036; stroke-width: 1.0;"/><text fill="#000000" font-family="sans-serif" font-size="13" lengthAdjust="spacingAndGlyphs" textLength="184" x="505" y="369.0669">SecuritiesSettlementSystem</text><text fill="#000000" font-family="sans-serif" font-size="13" lengthAdjust="spacingAndGlyphs" textLength="7" x="563.3797" y="394.9219">*</text><!--link DeliveringSettlementParty to DeliveringSettlementParty--><path d="M260.52,409.536 C280.343,410.215 295,413.036 295,418 C295,422.499 282.963,425.237 265.951,426.216 " fill="none" id="DeliveringSettlementParty-DeliveringSettlementParty" style="stroke: #A80036; stroke-width: 1.0;"/><polygon fill="#A80036" points="260.52,426.464,269.6924,430.051,265.5148,426.2368,269.329,422.0592,260.52,426.464" style="stroke: #A80036; stroke-width: 1.0;"/><text fill="#000000" font-family="sans-serif" font-size="13" lengthAdjust="spacingAndGlyphs" textLength="168" x="301" y="422.0669">DeliveringSettlementParty</text><text fill="#000000" font-family="sans-serif" font-size="13" lengthAdjust="spacingAndGlyphs" textLength="8" x="269.4939" y="422.5356">1</text><!--link Entry to Account--><path d="M1368.77,190.304 C1338.22,220.916 1253.69,304.557 1221,326 C1176.74,355.031 1161.64,355.629 1112,374 C1075.35,387.563 1032.26,400.153 1003.244,408.16 " fill="none" id="Entry-Account" style="stroke: #A80036; stroke-width: 1.0;"/><polygon fill="#A80036" points="998.353,409.503,1008.091,410.9764,1003.1744,408.1787,1005.9722,403.2621,998.353,409.503" style="stroke: #A80036; stroke-width: 1.0;"/><text fill="#000000" font-family="sans-serif" font-size="13" lengthAdjust="spacingAndGlyphs" textLength="52" x="1296" y="301.0669">Account</text><text fill="#000000" font-family="sans-serif" font-size="13" lengthAdjust="spacingAndGlyphs" textLength="7" x="1006.8463" y="401.024">*</text><!--link Account to Account--><path d="M998.508,409.984 C1016.18,408.051 1033,410.723 1033,418 C1033,424.538 1019.42,427.359 1003.85,426.463 " fill="none" id="Account-Account" style="stroke: #A80036; stroke-width: 1.0;"/><polygon fill="#A80036" points="998.508,426.016,1007.1443,430.7504,1003.4907,426.4317,1007.8094,422.7781,998.508,426.016" style="stroke: #A80036; stroke-width: 1.0;"/><text fill="#000000" font-family="sans-serif" font-size="13" lengthAdjust="spacingAndGlyphs" textLength="94" x="1039" y="422.0669">ParentAccount</text><text fill="#000000" font-family="sans-serif" font-size="13" lengthAdjust="spacingAndGlyphs" textLength="8" x="1006.7741" y="421.9799">1</text></g></svg>