<?xml version="1.0" encoding="UTF-8" standalone="no"?><svg xmlns="http://www.w3.org/2000/svg" xmlns:xlink="http://www.w3.org/1999/xlink" contentScriptType="application/ecmascript" contentStyleType="text/css" height="530px" preserveAspectRatio="none" style="width:1788px;height:530px;" version="1.1" viewBox="0 0 1788 530" width="1788px" zoomAndPan="magnify"><defs><filter height="300%" id="f139wgrreicrkv" width="300%" x="-1" y="-1"><feGaussianBlur result="blurOut" stdDeviation="2.0"/><feColorMatrix in="blurOut" result="blurOut2" type="matrix" values="0 0 0 0 0 0 0 0 0 0 0 0 0 0 0 0 0 0 .4 0"/><feOffset dx="4.0" dy="4.0" in="blurOut2" result="blurOut3"/><feBlend in="SourceGraphic" in2="blurOut3" mode="normal"/></filter></defs><g><!--cluster ##8833--><!--cluster ##8848--><!--cluster ##8857--><!--cluster ##8862--><!--class Role--><a target="_top" xlink:actuate="onRequest" xlink:href="../Role.html" xlink:show="new" xlink:title="Role of a party in an activity." xlink:type="simple"><rect fill="#FEFEEE" filter="url(#f139wgrreicrkv)" height="44.7734" id="Role" style="stroke: #A80036; stroke-width: 1.5;" width="175" x="239.75" y="40.5"/><rect fill="#FEFEEE" height="23.9688" style="stroke: #A80036; stroke-width: 1.5;" width="175" x="239.75" y="40.5"/><text fill="#000000" font-family="sans-serif" font-size="12" lengthAdjust="spacingAndGlyphs" textLength="27" x="313.75" y="56.6387">Role</text><line style="stroke: #A80036; stroke-width: 1.5;" x1="240.75" x2="413.75" y1="64.4688" y2="64.4688"/><ellipse cx="250.75" cy="76.3711" fill="#84BE84" rx="3" ry="3" style="stroke: #038048; stroke-width: 1.0;"/><text fill="#000000" font-family="sans-serif" font-size="11" lengthAdjust="spacingAndGlyphs" textLength="53" x="259.75" y="78.6792">PartyRole</text><text fill="#000000" font-family="sans-serif" font-size="11" font-style="italic" lengthAdjust="spacingAndGlyphs" textLength="92" x="316.75" y="78.6792">(PartyRoleCode)</text></a><!--class SettlementPartyRole--><a target="_top" xlink:actuate="onRequest" xlink:href="../SettlementPartyRole.html" xlink:show="new" xlink:title="Role played by a party in a settlement process." xlink:type="simple"><rect fill="#FEFEEE" filter="url(#f139wgrreicrkv)" height="23.9688" id="SettlementPartyRole" style="stroke: #A80036; stroke-width: 1.5;" width="134" x="273" y="166"/><rect fill="#FEFEEE" height="23.9688" style="stroke: #A80036; stroke-width: 1.5;" width="134" x="273" y="166"/><text fill="#000000" font-family="sans-serif" font-size="12" lengthAdjust="spacingAndGlyphs" textLength="128" x="276" y="182.1387">SettlementPartyRole</text></a><!--class SecuritiesSettlementPartyRole--><a target="_top" xlink:actuate="onRequest" xlink:href="../SecuritiesSettlementPartyRole.html" xlink:show="new" xlink:title="Role played by a party in the context of the settlement of securities." xlink:type="simple"><rect fill="#FEFEEE" filter="url(#f139wgrreicrkv)" height="57.5781" id="SecuritiesSettlementPartyRole" style="stroke: #A80036; stroke-width: 1.5;" width="249" x="165.75" y="268"/><rect fill="#FEFEEE" height="23.9688" style="stroke: #A80036; stroke-width: 1.5;" width="249" x="165.75" y="268"/><text fill="#000000" font-family="sans-serif" font-size="12" lengthAdjust="spacingAndGlyphs" textLength="190" x="195.25" y="284.1387">SecuritiesSettlementPartyRole</text><line style="stroke: #A80036; stroke-width: 1.5;" x1="166.75" x2="413.75" y1="291.9688" y2="291.9688"/><ellipse cx="176.75" cy="303.8711" fill="#84BE84" rx="3" ry="3" style="stroke: #038048; stroke-width: 1.0;"/><text fill="#000000" font-family="sans-serif" font-size="11" lengthAdjust="spacingAndGlyphs" textLength="91" x="185.75" y="306.1792">SettlingCapacity</text><text fill="#000000" font-family="sans-serif" font-size="11" font-style="italic" lengthAdjust="spacingAndGlyphs" textLength="128" x="280.75" y="306.1792">(SettlingCapacityCode)</text><ellipse cx="176.75" cy="316.6758" fill="#84BE84" rx="3" ry="3" style="stroke: #038048; stroke-width: 1.0;"/><text fill="#000000" font-family="sans-serif" font-size="11" lengthAdjust="spacingAndGlyphs" textLength="68" x="185.75" y="318.9839">TaxCapacity</text><text fill="#000000" font-family="sans-serif" font-size="11" font-style="italic" lengthAdjust="spacingAndGlyphs" textLength="101" x="257.75" y="318.9839">(TaxLiabilityCode)</text></a><!--class DeliveringSettlementParty--><a target="_top" xlink:actuate="onRequest" xlink:href="../DeliveringSettlementParty.html" xlink:show="new" xlink:title="Party that is responsible for delivering securities as part of a chain of settlement parties or as party that sells them." xlink:type="simple"><rect fill="#FEFECE" filter="url(#f139wgrreicrkv)" height="23.9688" id="DeliveringSettlementParty" style="stroke: #A80036; stroke-width: 1.5;" width="168" x="48.5" y="406"/><rect fill="#FEFECE" height="23.9688" style="stroke: #A80036; stroke-width: 1.5;" width="168" x="48.5" y="406"/><text fill="#000000" font-family="sans-serif" font-size="12" lengthAdjust="spacingAndGlyphs" textLength="162" x="51.5" y="422.1387">DeliveringSettlementParty</text></a><!--class DeliveringDepositoryRole--><a target="_top" xlink:actuate="onRequest" xlink:href="../DeliveringDepositoryRole.html" xlink:show="new" xlink:title="Organisation holding securities to enable book entry transfer of securities. Such an organisation may also carry out centralised comparison and transaction processing such as clearing and settlement of securities. The physical securities may be immobilised by the depository, or securities may be dematerialised (so that they exist only as electronic records). It is also responsible for compliance of the portfolio with legal ratios etc. The depository may delegate custody to another entity (custodian)." xlink:type="simple"><rect fill="#FEFEEE" filter="url(#f139wgrreicrkv)" height="23.9688" id="DeliveringDepositoryRole" style="stroke: #A80036; stroke-width: 1.5;" width="161" x="51.75" y="496"/><rect fill="#FEFEEE" height="23.9688" style="stroke: #A80036; stroke-width: 1.5;" width="161" x="51.75" y="496"/><text fill="#000000" font-family="sans-serif" font-size="12" lengthAdjust="spacingAndGlyphs" textLength="155" x="54.75" y="512.1387">DeliveringDepositoryRole</text></a><!--class RolePlayer--><a target="_top" xlink:actuate="onRequest" xlink:href="../RolePlayer.html" xlink:show="new" xlink:title="Type of entity that plays a specific role in a specific context." xlink:type="simple"><rect fill="#EEEEEE" filter="url(#f139wgrreicrkv)" height="23.9688" id="RolePlayer" style="stroke: #A80036; stroke-width: 1.5;" width="71" x="1363.75" y="496"/><rect fill="#EEEEEE" height="23.9688" style="stroke: #A80036; stroke-width: 1.5;" width="71" x="1363.75" y="496"/><text fill="#000000" font-family="sans-serif" font-size="12" lengthAdjust="spacingAndGlyphs" textLength="65" x="1366.75" y="512.1387">RolePlayer</text></a><!--class ContactPersonRole--><a target="_top" xlink:actuate="onRequest" xlink:href="../ContactPersonRole.html" xlink:show="new" xlink:title="Person to be contacted in a given organisation. In the corporate action domain (including meeting notifications) , it is the contact person at the party organising the meeting, at the issuer or at an intermediary." xlink:type="simple"><rect fill="#EEEEEE" filter="url(#f139wgrreicrkv)" height="23.9688" id="ContactPersonRole" style="stroke: #A80036; stroke-width: 1.5;" width="126" x="1316" y="406"/><rect fill="#EEEEEE" height="23.9688" style="stroke: #A80036; stroke-width: 1.5;" width="126" x="1316" y="406"/><text fill="#000000" font-family="sans-serif" font-size="12" lengthAdjust="spacingAndGlyphs" textLength="120" x="1319" y="422.1387">ContactPersonRole</text></a><!--class CounterpartyRisk--><a target="_top" xlink:actuate="onRequest" xlink:href="../CounterpartyRisk.html" xlink:show="new" xlink:title="Calculation of the exposure amount that one party has vis-a-vis one counterparty or a central system, based on its credit risk." xlink:type="simple"><rect fill="#EEEEEE" filter="url(#f139wgrreicrkv)" height="23.9688" id="CounterpartyRisk" style="stroke: #A80036; stroke-width: 1.5;" width="113" x="1328.75" y="285"/><rect fill="#EEEEEE" height="23.9688" style="stroke: #A80036; stroke-width: 1.5;" width="113" x="1328.75" y="285"/><text fill="#000000" font-family="sans-serif" font-size="12" lengthAdjust="spacingAndGlyphs" textLength="107" x="1331.75" y="301.1387">CounterpartyRisk</text></a><!--class Entry--><a target="_top" xlink:actuate="onRequest" xlink:href="../Entry.html" xlink:show="new" xlink:title="Posting to an account that results in an increase or decrease to a balance." xlink:type="simple"><rect fill="#EEEEEE" filter="url(#f139wgrreicrkv)" height="23.9688" id="Entry" style="stroke: #A80036; stroke-width: 1.5;" width="38" x="1316" y="166"/><rect fill="#EEEEEE" height="23.9688" style="stroke: #A80036; stroke-width: 1.5;" width="38" x="1316" y="166"/><text fill="#000000" font-family="sans-serif" font-size="12" lengthAdjust="spacingAndGlyphs" textLength="32" x="1319" y="182.1387">Entry</text></a><!--class Account--><a target="_top" xlink:actuate="onRequest" xlink:href="../Account.html" xlink:show="new" xlink:title="Record of transactions in specific types of assets, maintained by a servicing party on behalf of one or more owning parties. Business relationship between an account servicer and one or more account owners." xlink:type="simple"><rect fill="#EEEEEE" filter="url(#f139wgrreicrkv)" height="23.9688" id="Account" style="stroke: #A80036; stroke-width: 1.5;" width="57" x="896.75" y="406"/><rect fill="#EEEEEE" height="23.9688" style="stroke: #A80036; stroke-width: 1.5;" width="57" x="896.75" y="406"/><text fill="#000000" font-family="sans-serif" font-size="12" lengthAdjust="spacingAndGlyphs" textLength="51" x="899.75" y="422.1387">Account</text></a><!--class Settlement--><a target="_top" xlink:actuate="onRequest" xlink:href="../Settlement.html" xlink:show="new" xlink:title="Process which consists in transferring the proceeds related to a trade from one party to the next one." xlink:type="simple"><rect fill="#EEEEEE" filter="url(#f139wgrreicrkv)" height="23.9688" id="Settlement" style="stroke: #A80036; stroke-width: 1.5;" width="75" x="895.75" y="285"/><rect fill="#EEEEEE" height="23.9688" style="stroke: #A80036; stroke-width: 1.5;" width="75" x="895.75" y="285"/><text fill="#000000" font-family="sans-serif" font-size="12" lengthAdjust="spacingAndGlyphs" textLength="69" x="898.75" y="301.1387">Settlement</text></a><!--class SecuritiesSettlement--><a target="_top" xlink:actuate="onRequest" xlink:href="../SecuritiesSettlement.html" xlink:show="new" xlink:title="Settlement of the securities in a securities transaction, that is, the instruction to deliver or receive securities, involving the payment of an amount of money or not." xlink:type="simple"><rect fill="#EEEEEE" filter="url(#f139wgrreicrkv)" height="23.9688" id="SecuritiesSettlement" style="stroke: #A80036; stroke-width: 1.5;" width="137" x="509.75" y="496"/><rect fill="#EEEEEE" height="23.9688" style="stroke: #A80036; stroke-width: 1.5;" width="137" x="509.75" y="496"/><text fill="#000000" font-family="sans-serif" font-size="12" lengthAdjust="spacingAndGlyphs" textLength="131" x="512.75" y="512.1387">SecuritiesSettlement</text></a><!--class SecuritiesSettlementSystem--><a target="_top" xlink:actuate="onRequest" xlink:href="../SecuritiesSettlementSystem.html" xlink:show="new" xlink:title="Specifies the system used in a settlement process." xlink:type="simple"><rect fill="#EEEEEE" filter="url(#f139wgrreicrkv)" height="23.9688" id="SecuritiesSettlementSystem" style="stroke: #A80036; stroke-width: 1.5;" width="182" x="471" y="406"/><rect fill="#EEEEEE" height="23.9688" style="stroke: #A80036; stroke-width: 1.5;" width="182" x="471" y="406"/><text fill="#000000" font-family="sans-serif" font-size="12" lengthAdjust="spacingAndGlyphs" textLength="176" x="474" y="422.1387">SecuritiesSettlementSystem</text></a><!--entity ##8867--><!--link Role to SettlementPartyRole--><path d="M331.781,105.559 C334.266,127.159 337.112,151.898 338.719,165.865 " fill="none" id="Role-SettlementPartyRole" style="stroke: #A80036; stroke-width: 1.0;"/><polygon fill="none" points="324.808,106.189,329.476,85.52,338.716,104.589,324.808,106.189" style="stroke: #A80036; stroke-width: 1.0;"/><!--link SettlementPartyRole to SecuritiesSettlementPartyRole--><path d="M327.318,208.675 C319.549,226.855 309.663,249.987 302.019,267.876 " fill="none" id="SettlementPartyRole-SecuritiesSettlementPartyRole" style="stroke: #A80036; stroke-width: 1.0;"/><polygon fill="none" points="320.909,205.859,335.206,190.218,333.783,211.36,320.909,205.859" style="stroke: #A80036; stroke-width: 1.0;"/><!--link SecuritiesSettlementPartyRole to DeliveringSettlementParty--><path d="M236.274,338.465 C204.746,362.21 167.215,390.477 146.884,405.79 " fill="none" id="SecuritiesSettlementPartyRole-DeliveringSettlementParty" style="stroke: #A80036; stroke-width: 1.0;"/><polygon fill="none" points="232.369,332.642,252.556,326.201,240.792,343.825,232.369,332.642" style="stroke: #A80036; stroke-width: 1.0;"/><!--link DeliveringSettlementParty to DeliveringDepositoryRole--><path d="M132,450.334 C132,466.2321 132,484.5426 132,495.9452 " fill="none" id="DeliveringSettlementParty-DeliveringDepositoryRole" style="stroke: #A80036; stroke-width: 1.0;"/><polygon fill="none" points="125,450.145,132,430.145,139,450.145,125,450.145" style="stroke: #A80036; stroke-width: 1.0;"/><!--link ContactPersonRole to RolePlayer--><!--link CounterpartyRisk to ContactPersonRole--><!--link Entry to CounterpartyRisk--><!--link Settlement to Account--><!--link SecuritiesSettlementSystem to SecuritiesSettlement--><!--link Role to RolePlayer--><path d="M414.546,65.956 C645.163,71.434 1265.58,88.358 1469,116 C1589.62,132.39 1736,55.276 1736,177 C1736,177 1736,177 1736,419 C1736,479.6217 1529.27,499.2654 1439.64,504.9332 " fill="none" id="Role-RolePlayer" style="stroke: #A80036; stroke-width: 1.0;"/><polygon fill="#A80036" points="1434.43,505.2555,1443.6636,508.6819,1439.4201,504.9412,1443.1608,500.6977,1434.43,505.2555" style="stroke: #A80036; stroke-width: 1.0;"/><text fill="#000000" font-family="sans-serif" font-size="13" lengthAdjust="spacingAndGlyphs" textLength="39" x="1737" y="301.0669">Player</text><text fill="#000000" font-family="sans-serif" font-size="13" lengthAdjust="spacingAndGlyphs" textLength="7" x="1442.8913" y="498.8806">*</text><!--link Role to ContactPersonRole--><path d="M414.703,66.346 C683.452,73.976 1479.54,100.046 1515,142 C1587.57,227.854 1448.03,359.074 1396.81,402.493 " fill="none" id="Role-ContactPersonRole" style="stroke: #A80036; stroke-width: 1.0;"/><polygon fill="#A80036" points="1392.7,405.943,1402.1584,403.1972,1396.5217,402.719,1396.9999,397.0824,1392.7,405.943" style="stroke: #A80036; stroke-width: 1.0;"/><text fill="#000000" font-family="sans-serif" font-size="13" lengthAdjust="spacingAndGlyphs" textLength="121" x="1533" y="233.0669">ContactPersonRole</text><text fill="#000000" font-family="sans-serif" font-size="13" lengthAdjust="spacingAndGlyphs" textLength="8" x="1386.6906" y="394.9716">1</text><!--link Role to CounterpartyRisk--><path d="M414.515,64.196 C653.42,65.601 1303.47,75.55 1371,142 C1408.08,178.49 1397.05,247.982 1389.49,279.602 " fill="none" id="Role-CounterpartyRisk" style="stroke: #A80036; stroke-width: 1.0;"/><polygon fill="#A80036" points="1388.23,284.695,1394.2805,276.9238,1389.4346,279.8423,1386.5161,274.9964,1388.23,284.695" style="stroke: #A80036; stroke-width: 1.0;"/><text fill="#000000" font-family="sans-serif" font-size="13" lengthAdjust="spacingAndGlyphs" textLength="109" x="1396" y="182.0669">CounterpartyRisk</text><text fill="#000000" font-family="sans-serif" font-size="13" lengthAdjust="spacingAndGlyphs" textLength="24" x="1359.9109" y="273.8974">0..1</text><!--link Role to Entry--><path d="M414.252,73.781 C631.503,98.136 1188.01,160.522 1310.79,174.286 " fill="none" id="Role-Entry" style="stroke: #A80036; stroke-width: 1.0;"/><polygon fill="#A80036" points="1315.98,174.867,1307.4818,169.889,1311.0111,174.3098,1306.5903,177.8392,1315.98,174.867" style="stroke: #A80036; stroke-width: 1.0;"/><text fill="#000000" font-family="sans-serif" font-size="13" lengthAdjust="spacingAndGlyphs" textLength="33" x="952" y="129.0669">Entry</text><text fill="#000000" font-family="sans-serif" font-size="13" lengthAdjust="spacingAndGlyphs" textLength="8" x="1299.9241" y="167.5408">1</text><!--link SettlementPartyRole to Account--><path d="M407.192,182.498 C565.146,191.415 949.602,217.421 987,261 C1024.05,304.179 968.531,372.23 940.085,402.103 " fill="none" id="SettlementPartyRole-Account" style="stroke: #A80036; stroke-width: 1.0;"/><polygon fill="#A80036" points="936.428,405.89,945.5576,402.1953,939.9016,402.2936,939.8033,396.6376,936.428,405.89" style="stroke: #A80036; stroke-width: 1.0;"/><text fill="#000000" font-family="sans-serif" font-size="13" lengthAdjust="spacingAndGlyphs" textLength="124" x="1001" y="301.0669">SettlementAccount</text><text fill="#000000" font-family="sans-serif" font-size="13" lengthAdjust="spacingAndGlyphs" textLength="8" x="929.5517" y="394.9004">1</text><!--link SettlementPartyRole to Settlement--><path d="M395.788,190.007 C513.596,213.251 785.513,266.9 890.535,287.622 " fill="none" id="SettlementPartyRole-Settlement" style="stroke: #A80036; stroke-width: 1.0;"/><polygon fill="#A80036" points="895.71,288.643,887.6556,282.975,890.8047,287.6742,886.1055,290.8234,895.71,288.643" style="stroke: #A80036; stroke-width: 1.0;"/><text fill="#000000" font-family="sans-serif" font-size="13" lengthAdjust="spacingAndGlyphs" textLength="72" x="638" y="233.0669">Settlement</text><text fill="#000000" font-family="sans-serif" font-size="13" lengthAdjust="spacingAndGlyphs" textLength="8" x="879.6643" y="281.9315">1</text><!--link SecuritiesSettlementPartyRole to SecuritiesSettlement--><path d="M414.655,306.773 C504.145,315.109 615.479,330.288 654,356 C691.436,380.988 692.844,417.218 670,456 C659.405,473.9875 639.928,486.08 621.614,493.9555 " fill="none" id="SecuritiesSettlementPartyRole-SecuritiesSettlement" style="stroke: #A80036; stroke-width: 1.0;"/><polygon fill="#A80036" points="616.989,495.8679,626.8345,496.1265,621.6098,493.9579,623.7784,488.7332,616.989,495.8679" style="stroke: #A80036; stroke-width: 1.0;"/><text fill="#000000" font-family="sans-serif" font-size="13" lengthAdjust="spacingAndGlyphs" textLength="135" x="687" y="422.0669">SecuritiesSettlement</text><text fill="#000000" font-family="sans-serif" font-size="13" lengthAdjust="spacingAndGlyphs" textLength="7" x="620.7587" y="484.8707">*</text><!--link SecuritiesSettlementPartyRole to SecuritiesSettlementSystem--><path d="M354.116,326.051 C410.223,350.598 489.237,385.166 531.879,403.822 " fill="none" id="SecuritiesSettlementPartyRole-SecuritiesSettlementSystem" style="stroke: #A80036; stroke-width: 1.0;"/><polygon fill="#A80036" points="536.643,405.906,530.0007,398.6341,532.0622,403.902,526.7943,405.9634,536.643,405.906" style="stroke: #A80036; stroke-width: 1.0;"/><text fill="#000000" font-family="sans-serif" font-size="13" lengthAdjust="spacingAndGlyphs" textLength="184" x="460" y="369.0669">SecuritiesSettlementSystem</text><text fill="#000000" font-family="sans-serif" font-size="13" lengthAdjust="spacingAndGlyphs" textLength="7" x="518.3797" y="394.9219">*</text><!--link DeliveringSettlementParty to DeliveringSettlementParty--><path d="M215.52,409.536 C235.343,410.215 250,413.036 250,418 C250,422.499 237.963,425.237 220.951,426.216 " fill="none" id="DeliveringSettlementParty-DeliveringSettlementParty" style="stroke: #A80036; stroke-width: 1.0;"/><polygon fill="#A80036" points="215.52,426.464,224.6924,430.051,220.5148,426.2368,224.329,422.0592,215.52,426.464" style="stroke: #A80036; stroke-width: 1.0;"/><text fill="#000000" font-family="sans-serif" font-size="13" lengthAdjust="spacingAndGlyphs" textLength="168" x="256" y="422.0669">DeliveringSettlementParty</text><text fill="#000000" font-family="sans-serif" font-size="13" lengthAdjust="spacingAndGlyphs" textLength="8" x="224.4939" y="422.5356">1</text><!--link Entry to Account--><path d="M1323.77,190.304 C1293.22,220.916 1208.69,304.557 1176,326 C1131.74,355.031 1116.64,355.629 1067,374 C1030.35,387.563 987.263,400.153 958.244,408.16 " fill="none" id="Entry-Account" style="stroke: #A80036; stroke-width: 1.0;"/><polygon fill="#A80036" points="953.353,409.503,963.091,410.9764,958.1744,408.1787,960.9722,403.2621,953.353,409.503" style="stroke: #A80036; stroke-width: 1.0;"/><text fill="#000000" font-family="sans-serif" font-size="13" lengthAdjust="spacingAndGlyphs" textLength="52" x="1251" y="301.0669">Account</text><text fill="#000000" font-family="sans-serif" font-size="13" lengthAdjust="spacingAndGlyphs" textLength="7" x="961.8463" y="401.024">*</text><!--link Account to Account--><path d="M953.508,409.984 C971.181,408.051 988,410.723 988,418 C988,424.538 974.424,427.359 958.85,426.463 " fill="none" id="Account-Account" style="stroke: #A80036; stroke-width: 1.0;"/><polygon fill="#A80036" points="953.508,426.016,962.1443,430.7504,958.4907,426.4317,962.8094,422.7781,953.508,426.016" style="stroke: #A80036; stroke-width: 1.0;"/><text fill="#000000" font-family="sans-serif" font-size="13" lengthAdjust="spacingAndGlyphs" textLength="94" x="994" y="422.0669">ParentAccount</text><text fill="#000000" font-family="sans-serif" font-size="13" lengthAdjust="spacingAndGlyphs" textLength="8" x="961.7741" y="421.9799">1</text></g></svg>