<?xml version="1.0" encoding="UTF-8" standalone="no"?><svg xmlns="http://www.w3.org/2000/svg" xmlns:xlink="http://www.w3.org/1999/xlink" contentScriptType="application/ecmascript" contentStyleType="text/css" height="708px" preserveAspectRatio="none" style="width:1162px;height:708px;" version="1.1" viewBox="0 0 1162 708" width="1162px" zoomAndPan="magnify"><defs><filter height="300%" id="fkbwpbw7cfcdi" width="300%" x="-1" y="-1"><feGaussianBlur result="blurOut" stdDeviation="2.0"/><feColorMatrix in="blurOut" result="blurOut2" type="matrix" values="0 0 0 0 0 0 0 0 0 0 0 0 0 0 0 0 0 0 .4 0"/><feOffset dx="4.0" dy="4.0" in="blurOut2" result="blurOut3"/><feBlend in="SourceGraphic" in2="blurOut3" mode="normal"/></filter></defs><g><!--cluster ##21412--><!--cluster ##21424--><!--cluster ##21433--><!--cluster ##21436--><!--class Role--><a target="_top" xlink:actuate="onRequest" xlink:href="../Role.html" xlink:show="new" xlink:title="Role of a party in an activity." xlink:type="simple"><rect fill="#FEFEEE" filter="url(#fkbwpbw7cfcdi)" height="44.7734" id="Role" style="stroke: #A80036; stroke-width: 1.5;" width="175" x="146.664" y="40.5"/><rect fill="#FEFEEE" height="23.9688" style="stroke: #A80036; stroke-width: 1.5;" width="175" x="146.664" y="40.5"/><text fill="#000000" font-family="sans-serif" font-size="12" lengthAdjust="spacingAndGlyphs" textLength="27" x="220.664" y="56.6387">Role</text><line style="stroke: #A80036; stroke-width: 1.5;" x1="147.664" x2="320.664" y1="64.4688" y2="64.4688"/><ellipse cx="157.664" cy="76.3711" fill="#84BE84" rx="3" ry="3" style="stroke: #038048; stroke-width: 1.0;"/><text fill="#000000" font-family="sans-serif" font-size="11" lengthAdjust="spacingAndGlyphs" textLength="53" x="166.664" y="78.6792">PartyRole</text><text fill="#000000" font-family="sans-serif" font-size="11" font-style="italic" lengthAdjust="spacingAndGlyphs" textLength="92" x="223.664" y="78.6792">(PartyRoleCode)</text></a><!--class SystemPartyRole--><a target="_top" xlink:actuate="onRequest" xlink:href="../SystemPartyRole.html" xlink:show="new" xlink:title="Role played by a party in a system." xlink:type="simple"><rect fill="#FEFEEE" filter="url(#fkbwpbw7cfcdi)" height="23.9688" id="SystemPartyRole" style="stroke: #A80036; stroke-width: 1.5;" width="110" x="178.914" y="166"/><rect fill="#FEFEEE" height="23.9688" style="stroke: #A80036; stroke-width: 1.5;" width="110" x="178.914" y="166"/><text fill="#000000" font-family="sans-serif" font-size="12" lengthAdjust="spacingAndGlyphs" textLength="104" x="181.914" y="182.1387">SystemPartyRole</text></a><!--class SystemMemberRole--><a target="_top" xlink:actuate="onRequest" xlink:href="../SystemMemberRole.html" xlink:show="new" xlink:title="Information about the members of a system." xlink:type="simple"><rect fill="#FEFEEE" filter="url(#fkbwpbw7cfcdi)" height="44.7734" id="SystemMemberRole" style="stroke: #A80036; stroke-width: 1.5;" width="168" x="147.414" y="268.5"/><rect fill="#FEFEEE" height="23.9688" style="stroke: #A80036; stroke-width: 1.5;" width="168" x="147.414" y="268.5"/><text fill="#000000" font-family="sans-serif" font-size="12" lengthAdjust="spacingAndGlyphs" textLength="122" x="170.414" y="284.6387">SystemMemberRole</text><line style="stroke: #A80036; stroke-width: 1.5;" x1="148.414" x2="314.414" y1="292.4688" y2="292.4688"/><ellipse cx="158.414" cy="304.3711" fill="#84BE84" rx="3" ry="3" style="stroke: #038048; stroke-width: 1.0;"/><text fill="#000000" font-family="sans-serif" font-size="11" lengthAdjust="spacingAndGlyphs" textLength="27" x="167.414" y="306.6792">Type</text><text fill="#000000" font-family="sans-serif" font-size="11" font-style="italic" lengthAdjust="spacingAndGlyphs" textLength="111" x="198.414" y="306.6792">(MemberTypeCode)</text></a><!--class DirectMember--><a target="_top" xlink:actuate="onRequest" xlink:href="../DirectMember.html" xlink:show="new" xlink:title="Financial institution or member of a system having full rights to the system specifications." xlink:type="simple"><rect fill="#FEFECE" filter="url(#fkbwpbw7cfcdi)" height="23.9688" id="DirectMember" style="stroke: #A80036; stroke-width: 1.5;" width="93" x="151.664" y="396"/><rect fill="#FEFECE" height="23.9688" style="stroke: #A80036; stroke-width: 1.5;" width="93" x="151.664" y="396"/><text fill="#000000" font-family="sans-serif" font-size="12" lengthAdjust="spacingAndGlyphs" textLength="87" x="154.664" y="412.1387">DirectMember</text></a><!--class RolePlayer--><a target="_top" xlink:actuate="onRequest" xlink:href="../RolePlayer.html" xlink:show="new" xlink:title="Type of entity that plays a specific role in a specific context." xlink:type="simple"><rect fill="#EEEEEE" filter="url(#fkbwpbw7cfcdi)" height="23.9688" id="RolePlayer" style="stroke: #A80036; stroke-width: 1.5;" width="71" x="738.664" y="500"/><rect fill="#EEEEEE" height="23.9688" style="stroke: #A80036; stroke-width: 1.5;" width="71" x="738.664" y="500"/><text fill="#000000" font-family="sans-serif" font-size="12" lengthAdjust="spacingAndGlyphs" textLength="65" x="741.664" y="516.1387">RolePlayer</text></a><!--class ContactPersonRole--><a target="_top" xlink:actuate="onRequest" xlink:href="../ContactPersonRole.html" xlink:show="new" xlink:title="Person to be contacted in a given organisation. In the corporate action domain (including meeting notifications) , it is the contact person at the party organising the meeting, at the issuer or at an intermediary." xlink:type="simple"><rect fill="#EEEEEE" filter="url(#fkbwpbw7cfcdi)" height="23.9688" id="ContactPersonRole" style="stroke: #A80036; stroke-width: 1.5;" width="126" x="690.914" y="396"/><rect fill="#EEEEEE" height="23.9688" style="stroke: #A80036; stroke-width: 1.5;" width="126" x="690.914" y="396"/><text fill="#000000" font-family="sans-serif" font-size="12" lengthAdjust="spacingAndGlyphs" textLength="120" x="693.914" y="412.1387">ContactPersonRole</text></a><!--class CounterpartyRisk--><a target="_top" xlink:actuate="onRequest" xlink:href="../CounterpartyRisk.html" xlink:show="new" xlink:title="Calculation of the exposure amount that one party has vis-a-vis one counterparty or a central system, based on its credit risk." xlink:type="simple"><rect fill="#EEEEEE" filter="url(#fkbwpbw7cfcdi)" height="23.9688" id="CounterpartyRisk" style="stroke: #A80036; stroke-width: 1.5;" width="113" x="703.664" y="279"/><rect fill="#EEEEEE" height="23.9688" style="stroke: #A80036; stroke-width: 1.5;" width="113" x="703.664" y="279"/><text fill="#000000" font-family="sans-serif" font-size="12" lengthAdjust="spacingAndGlyphs" textLength="107" x="706.664" y="295.1387">CounterpartyRisk</text></a><!--class Entry--><a target="_top" xlink:actuate="onRequest" xlink:href="../Entry.html" xlink:show="new" xlink:title="Posting to an account that results in an increase or decrease to a balance." xlink:type="simple"><rect fill="#EEEEEE" filter="url(#fkbwpbw7cfcdi)" height="23.9688" id="Entry" style="stroke: #A80036; stroke-width: 1.5;" width="38" x="690.914" y="166"/><rect fill="#EEEEEE" height="23.9688" style="stroke: #A80036; stroke-width: 1.5;" width="38" x="690.914" y="166"/><text fill="#000000" font-family="sans-serif" font-size="12" lengthAdjust="spacingAndGlyphs" textLength="32" x="693.914" y="182.1387">Entry</text></a><!--class System--><a target="_top" xlink:actuate="onRequest" xlink:href="../System.html" xlink:show="new" xlink:title="Set of integrated applications that provides centralised services such as clearing, netting, reconciliation, trading and/or settlement." xlink:type="simple"><rect fill="#EEEEEE" filter="url(#fkbwpbw7cfcdi)" height="23.9688" id="System" style="stroke: #A80036; stroke-width: 1.5;" width="51" x="425.664" y="279"/><rect fill="#EEEEEE" height="23.9688" style="stroke: #A80036; stroke-width: 1.5;" width="51" x="425.664" y="279"/><text fill="#000000" font-family="sans-serif" font-size="12" lengthAdjust="spacingAndGlyphs" textLength="45" x="428.664" y="295.1387">System</text></a><!--class CashBalance--><a target="_top" xlink:actuate="onRequest" xlink:href="../CashBalance.html" xlink:show="new" xlink:title="Numerical representation of the net increases and decreases in an account at a specific point in time. A cash balance is calculated from a sum of cash credits minus a sum of cash debits." xlink:type="simple"><rect fill="#EEEEEE" filter="url(#fkbwpbw7cfcdi)" height="23.9688" id="CashBalance" style="stroke: #A80036; stroke-width: 1.5;" width="87" x="382.664" y="674"/><rect fill="#EEEEEE" height="23.9688" style="stroke: #A80036; stroke-width: 1.5;" width="87" x="382.664" y="674"/><text fill="#000000" font-family="sans-serif" font-size="12" lengthAdjust="spacingAndGlyphs" textLength="81" x="385.664" y="690.1387">CashBalance</text></a><!--class SystemStatus--><a target="_top" xlink:actuate="onRequest" xlink:href="../SystemStatus.html" xlink:show="new" xlink:title="Status of a system and the period of time during which the status is valid." xlink:type="simple"><rect fill="#EEEEEE" filter="url(#fkbwpbw7cfcdi)" height="23.9688" id="SystemStatus" style="stroke: #A80036; stroke-width: 1.5;" width="92" x="393.914" y="588"/><rect fill="#EEEEEE" height="23.9688" style="stroke: #A80036; stroke-width: 1.5;" width="92" x="393.914" y="588"/><text fill="#000000" font-family="sans-serif" font-size="12" lengthAdjust="spacingAndGlyphs" textLength="86" x="396.914" y="604.1387">SystemStatus</text></a><!--class RiskManagementLimit--><a target="_top" xlink:actuate="onRequest" xlink:href="../RiskManagementLimit.html" xlink:show="new" xlink:title="Cash management feature limiting the maximum risk that a party accepts to take with respect to a counterparty or a set of counterparties. A risk management limit is either bilateral, for a counterparty, or multilateral, for a set of counterparties or all other members in a system.The limit may also apply to sponsored or indirect members. In principle, a risk management limit is calculated on the net position between two members and is expressed as a credit or debit limit, from the point of view of the party setting the limit." xlink:type="simple"><rect fill="#EEEEEE" filter="url(#fkbwpbw7cfcdi)" height="23.9688" id="RiskManagementLimit" style="stroke: #A80036; stroke-width: 1.5;" width="141" x="419.664" y="500"/><rect fill="#EEEEEE" height="23.9688" style="stroke: #A80036; stroke-width: 1.5;" width="141" x="419.664" y="500"/><text fill="#000000" font-family="sans-serif" font-size="12" lengthAdjust="spacingAndGlyphs" textLength="135" x="422.664" y="516.1387">RiskManagementLimit</text></a><!--class Account--><a target="_top" xlink:actuate="onRequest" xlink:href="../Account.html" xlink:show="new" xlink:title="Record of transactions in specific types of assets, maintained by a servicing party on behalf of one or more owning parties. Business relationship between an account servicer and one or more account owners." xlink:type="simple"><rect fill="#EEEEEE" filter="url(#fkbwpbw7cfcdi)" height="23.9688" id="Account" style="stroke: #A80036; stroke-width: 1.5;" width="57" x="378.664" y="396"/><rect fill="#EEEEEE" height="23.9688" style="stroke: #A80036; stroke-width: 1.5;" width="57" x="378.664" y="396"/><text fill="#000000" font-family="sans-serif" font-size="12" lengthAdjust="spacingAndGlyphs" textLength="51" x="381.664" y="412.1387">Account</text></a><!--entity ##21445--><!--link Role to SystemPartyRole--><path d="M233.914,105.559 C233.914,127.159 233.914,151.898 233.914,165.865 " fill="none" id="Role-SystemPartyRole" style="stroke: #A80036; stroke-width: 1.0;"/><polygon fill="none" points="226.914,105.52,233.914,85.52,240.914,105.52,226.914,105.52" style="stroke: #A80036; stroke-width: 1.0;"/><!--link SystemPartyRole to SystemMemberRole--><path d="M233.067,210.307 C232.566,228.842 231.945,251.853 231.498,268.376 " fill="none" id="SystemPartyRole-SystemMemberRole" style="stroke: #A80036; stroke-width: 1.0;"/><polygon fill="none" points="226.077,209.852,233.615,190.049,240.072,210.231,226.077,209.852" style="stroke: #A80036; stroke-width: 1.0;"/><!--link SystemMemberRole to DirectMember--><path d="M219.117,333.11 C212.694,355.494 205.233,381.493 201.095,395.915 " fill="none" id="SystemMemberRole-DirectMember" style="stroke: #A80036; stroke-width: 1.0;"/><polygon fill="none" points="212.461,330.924,224.706,313.631,225.918,334.786,212.461,330.924" style="stroke: #A80036; stroke-width: 1.0;"/><!--link ContactPersonRole to RolePlayer--><!--link CounterpartyRisk to ContactPersonRole--><!--link Entry to CounterpartyRisk--><!--link SystemStatus to CashBalance--><!--link RiskManagementLimit to SystemStatus--><!--link Account to RiskManagementLimit--><!--link Role to RolePlayer--><path d="M321.21,66.2 C543.037,72.947 1110.91,97.939 1110.91,177 C1110.91,177 1110.91,177 1110.91,409 C1110.91,470.283 904.183,498.14 814.556,507.338 " fill="none" id="Role-RolePlayer" style="stroke: #A80036; stroke-width: 1.0;"/><polygon fill="#A80036" points="809.341,507.866,818.6977,510.9405,814.3156,507.3631,817.893,502.9811,809.341,507.866" style="stroke: #A80036; stroke-width: 1.0;"/><text fill="#000000" font-family="sans-serif" font-size="13" lengthAdjust="spacingAndGlyphs" textLength="39" x="1111.91" y="295.0669">Player</text><text fill="#000000" font-family="sans-serif" font-size="13" lengthAdjust="spacingAndGlyphs" textLength="7" x="817.8016" y="501.1872">*</text><!--link Role to ContactPersonRole--><path d="M321.224,67.854 C491.02,76.275 852.281,99.085 887.914,142 C957.104,225.332 822.477,350.368 771.97,392.531 " fill="none" id="Role-ContactPersonRole" style="stroke: #A80036; stroke-width: 1.0;"/><polygon fill="#A80036" points="767.916,395.888,777.3993,393.2297,771.7674,392.6995,772.2977,387.0675,767.916,395.888" style="stroke: #A80036; stroke-width: 1.0;"/><text fill="#000000" font-family="sans-serif" font-size="13" lengthAdjust="spacingAndGlyphs" textLength="121" x="904.914" y="233.0669">ContactPersonRole</text><text fill="#000000" font-family="sans-serif" font-size="13" lengthAdjust="spacingAndGlyphs" textLength="8" x="762.0104" y="384.8977">1</text><!--link Role to CounterpartyRisk--><path d="M321.286,64.821 C452.059,68.034 689.416,82.195 745.914,142 C780.092,178.18 770.722,243.835 764.018,274.027 " fill="none" id="Role-CounterpartyRisk" style="stroke: #A80036; stroke-width: 1.0;"/><polygon fill="#A80036" points="762.891,278.899,768.8168,271.0323,764.0181,274.0277,761.0228,269.229,762.891,278.899" style="stroke: #A80036; stroke-width: 1.0;"/><text fill="#000000" font-family="sans-serif" font-size="13" lengthAdjust="spacingAndGlyphs" textLength="109" x="768.914" y="182.0669">CounterpartyRisk</text><text fill="#000000" font-family="sans-serif" font-size="13" lengthAdjust="spacingAndGlyphs" textLength="24" x="734.3597" y="267.9125">0..1</text><!--link Role to Entry--><path d="M321.219,84.726 C432.913,111.242 619.83,155.615 685.894,171.298 " fill="none" id="Role-Entry" style="stroke: #A80036; stroke-width: 1.0;"/><polygon fill="#A80036" points="690.808,172.464,682.9747,166.4941,685.9431,171.3096,681.1276,174.2779,690.808,172.464" style="stroke: #A80036; stroke-width: 1.0;"/><text fill="#000000" font-family="sans-serif" font-size="13" lengthAdjust="spacingAndGlyphs" textLength="33" x="529.914" y="129.0669">Entry</text><text fill="#000000" font-family="sans-serif" font-size="13" lengthAdjust="spacingAndGlyphs" textLength="8" x="675.0282" y="164.6063">1</text><!--link SystemPartyRole to System--><path d="M255.514,190.049 C295.646,210.577 381.554,254.521 424.843,276.664 " fill="none" id="SystemPartyRole-System" style="stroke: #A80036; stroke-width: 1.0;"/><polygon fill="#A80036" points="429.401,278.996,423.2102,271.3361,424.9496,276.7189,419.5668,278.4583,429.401,278.996" style="stroke: #A80036; stroke-width: 1.0;"/><text fill="#000000" font-family="sans-serif" font-size="13" lengthAdjust="spacingAndGlyphs" textLength="97" x="350.914" y="233.0669">RelatedSystem</text><text fill="#000000" font-family="sans-serif" font-size="13" lengthAdjust="spacingAndGlyphs" textLength="23" x="394.4797" y="268.5534">1..*</text><!--link SystemMemberRole to CashBalance--><path d="M252.852,313.605 C272.392,335.242 297.914,370.492 297.914,407 C297.914,407 297.914,407 297.914,601 C297.914,640.6832 341.448,662.65 377.739,674.0678 " fill="none" id="SystemMemberRole-CashBalance" style="stroke: #A80036; stroke-width: 1.0;"/><polygon fill="#A80036" points="382.579,675.5426,375.1354,669.0933,377.796,674.0854,372.8039,676.7461,382.579,675.5426" style="stroke: #A80036; stroke-width: 1.0;"/><text fill="#000000" font-family="sans-serif" font-size="13" lengthAdjust="spacingAndGlyphs" textLength="83" x="298.914" y="516.0669">CashBalance</text><text fill="#000000" font-family="sans-serif" font-size="13" lengthAdjust="spacingAndGlyphs" textLength="7" x="367.5165" y="668.8372">*</text><!--link SystemMemberRole to SystemStatus--><path d="M165.926,313.536 C86.4977,343.419 -31.5989,401.58 17.9135,470 C61.9705,530.881 286.344,574.211 388.784,591.135 " fill="none" id="SystemMemberRole-SystemStatus" style="stroke: #A80036; stroke-width: 1.0;"/><polygon fill="#A80036" points="393.867,591.97,385.6356,586.5622,388.9333,591.1584,384.3371,594.4561,393.867,591.97" style="stroke: #A80036; stroke-width: 1.0;"/><text fill="#000000" font-family="sans-serif" font-size="13" lengthAdjust="spacingAndGlyphs" textLength="95" x="18.9135" y="465.0669">MemberStatus</text><text fill="#000000" font-family="sans-serif" font-size="13" lengthAdjust="spacingAndGlyphs" textLength="7" x="378.7588" y="585.7239">*</text><!--link SystemMemberRole to RiskManagementLimit--><path d="M167.445,313.646 C141.709,325.914 114.629,344.112 99.9135,370 C83.6609,398.593 78.7176,418.852 99.9135,444 C110.006,455.974 303.609,484.886 414.164,500.529 " fill="none" id="SystemMemberRole-RiskManagementLimit" style="stroke: #A80036; stroke-width: 1.0;"/><polygon fill="#A80036" points="419.364,501.264,411.0111,496.0459,414.413,500.5655,409.8935,503.9675,419.364,501.264" style="stroke: #A80036; stroke-width: 1.0;"/><text fill="#000000" font-family="sans-serif" font-size="13" lengthAdjust="spacingAndGlyphs" textLength="31" x="100.9135" y="412.0669">Limit</text><text fill="#000000" font-family="sans-serif" font-size="13" lengthAdjust="spacingAndGlyphs" textLength="8" x="403.6131" y="495.625">1</text><!--link SystemMemberRole to Account--><path d="M268.077,313.733 C283.35,322.855 301.124,333.716 316.914,344 C341.666,360.121 369.409,379.794 387.465,392.821 " fill="none" id="SystemMemberRole-Account" style="stroke: #A80036; stroke-width: 1.0;"/><polygon fill="#A80036" points="391.839,395.984,386.8903,387.4687,387.7875,393.0539,382.2022,393.9511,391.839,395.984" style="stroke: #A80036; stroke-width: 1.0;"/><text fill="#000000" font-family="sans-serif" font-size="13" lengthAdjust="spacingAndGlyphs" textLength="52" x="343.914" y="357.0669">Account</text><text fill="#000000" font-family="sans-serif" font-size="13" lengthAdjust="spacingAndGlyphs" textLength="8" x="375.8523" y="385.0267">1</text><!--link Entry to Account--><path d="M698.493,190.325 C667.5,220.678 578.446,305.387 493.914,362 C475.704,374.196 453.778,385.517 436.494,393.754 " fill="none" id="Entry-Account" style="stroke: #A80036; stroke-width: 1.0;"/><polygon fill="#A80036" points="431.749,395.993,441.5953,395.7696,436.2708,393.8592,438.1812,388.5347,431.749,395.993" style="stroke: #A80036; stroke-width: 1.0;"/><text fill="#000000" font-family="sans-serif" font-size="13" lengthAdjust="spacingAndGlyphs" textLength="52" x="628.914" y="295.0669">Account</text><text fill="#000000" font-family="sans-serif" font-size="13" lengthAdjust="spacingAndGlyphs" textLength="7" x="430.6532" y="385.0388">*</text><!--link System to SystemStatus--><path d="M476.281,299.376 C506.477,309.676 555.504,331.567 576.914,370 C615.413,439.111 622.053,483.031 576.914,548 C557.68,575.682 521.528,588.368 491.189,594.167 " fill="none" id="System-SystemStatus" style="stroke: #A80036; stroke-width: 1.0;"/><polygon fill="#A80036" points="485.987,595.106,495.5546,597.4428,490.9074,594.2174,494.1328,589.5701,485.987,595.106" style="stroke: #A80036; stroke-width: 1.0;"/><text fill="#000000" font-family="sans-serif" font-size="13" lengthAdjust="spacingAndGlyphs" textLength="42" x="609.914" y="465.0669">Status</text><text fill="#000000" font-family="sans-serif" font-size="13" lengthAdjust="spacingAndGlyphs" textLength="8" x="493.9674" y="589.0513">1</text><!--link System to Account--><path d="M446.695,303.027 C438.863,323.496 422.052,367.433 412.994,391.109 " fill="none" id="System-Account" style="stroke: #A80036; stroke-width: 1.0;"/><polygon fill="#A80036" points="411.184,395.838,418.1365,388.8621,412.971,391.1683,410.6649,386.0028,411.184,395.838" style="stroke: #A80036; stroke-width: 1.0;"/><text fill="#000000" font-family="sans-serif" font-size="13" lengthAdjust="spacingAndGlyphs" textLength="52" x="431.914" y="357.0669">Account</text><text fill="#000000" font-family="sans-serif" font-size="13" lengthAdjust="spacingAndGlyphs" textLength="8" x="401.8471" y="384.8305">1</text><!--link Account to Account--><path d="M435.421,398.938 C453.095,396.753 469.914,399.773 469.914,408 C469.914,415.391 456.337,418.58 440.763,417.567 " fill="none" id="Account-Account" style="stroke: #A80036; stroke-width: 1.0;"/><polygon fill="#A80036" points="435.421,417.062,444.0052,421.8902,440.3989,417.5319,444.7571,413.9256,435.421,417.062" style="stroke: #A80036; stroke-width: 1.0;"/><text fill="#000000" font-family="sans-serif" font-size="13" lengthAdjust="spacingAndGlyphs" textLength="94" x="475.914" y="412.0669">ParentAccount</text><text fill="#000000" font-family="sans-serif" font-size="13" lengthAdjust="spacingAndGlyphs" textLength="8" x="443.6869" y="413.2939">1</text></g></svg>