<?xml version="1.0" encoding="UTF-8" standalone="no"?><svg xmlns="http://www.w3.org/2000/svg" xmlns:xlink="http://www.w3.org/1999/xlink" contentScriptType="application/ecmascript" contentStyleType="text/css" height="478px" preserveAspectRatio="none" style="width:1630px;height:478px;" version="1.1" viewBox="0 0 1630 478" width="1630px" zoomAndPan="magnify"><defs><filter height="300%" id="f1ic8jye9vssiu" width="300%" x="-1" y="-1"><feGaussianBlur result="blurOut" stdDeviation="2.0"/><feColorMatrix in="blurOut" result="blurOut2" type="matrix" values="0 0 0 0 0 0 0 0 0 0 0 0 0 0 0 0 0 0 .4 0"/><feOffset dx="4.0" dy="4.0" in="blurOut2" result="blurOut3"/><feBlend in="SourceGraphic" in2="blurOut3" mode="normal"/></filter></defs><g><!--cluster ##3413--><!--cluster ##3440--><!--cluster ##3449--><!--class Role--><a target="_top" xlink:actuate="onRequest" xlink:href="../Role.html" xlink:show="new" xlink:title="Role of a party in an activity." xlink:type="simple"><rect fill="#FEFEEE" filter="url(#f1ic8jye9vssiu)" height="44.7734" id="Role" style="stroke: #A80036; stroke-width: 1.5;" width="175" x="924.75" y="40.5"/><rect fill="#FEFEEE" height="23.9688" style="stroke: #A80036; stroke-width: 1.5;" width="175" x="924.75" y="40.5"/><text fill="#000000" font-family="sans-serif" font-size="12" lengthAdjust="spacingAndGlyphs" textLength="27" x="998.75" y="56.6387">Role</text><line style="stroke: #A80036; stroke-width: 1.5;" x1="925.75" x2="1098.75" y1="64.4688" y2="64.4688"/><ellipse cx="935.75" cy="76.3711" fill="#84BE84" rx="3" ry="3" style="stroke: #038048; stroke-width: 1.0;"/><text fill="#000000" font-family="sans-serif" font-size="11" lengthAdjust="spacingAndGlyphs" textLength="53" x="944.75" y="78.6792">PartyRole</text><text fill="#000000" font-family="sans-serif" font-size="11" font-style="italic" lengthAdjust="spacingAndGlyphs" textLength="92" x="1001.75" y="78.6792">(PartyRoleCode)</text></a><!--class DocumentPartyRole--><a target="_top" xlink:actuate="onRequest" xlink:href="../DocumentPartyRole.html" xlink:show="new" xlink:title="Role played by a party in the context of a document." xlink:type="simple"><rect fill="#FEFECE" filter="url(#f1ic8jye9vssiu)" height="23.9688" id="DocumentPartyRole" style="stroke: #A80036; stroke-width: 1.5;" width="129" x="678.75" y="166"/><rect fill="#FEFECE" height="23.9688" style="stroke: #A80036; stroke-width: 1.5;" width="129" x="678.75" y="166"/><text fill="#000000" font-family="sans-serif" font-size="12" lengthAdjust="spacingAndGlyphs" textLength="123" x="681.75" y="182.1387">DocumentPartyRole</text></a><!--class ValidatingPartyRole--><a target="_top" xlink:actuate="onRequest" xlink:href="../ValidatingPartyRole.html" xlink:show="new" xlink:title="Identification of the person who validated the signature." xlink:type="simple"><rect fill="#FEFEEE" filter="url(#f1ic8jye9vssiu)" height="23.9688" id="ValidatingPartyRole" style="stroke: #A80036; stroke-width: 1.5;" width="127" x="38.75" y="270"/><rect fill="#FEFEEE" height="23.9688" style="stroke: #A80036; stroke-width: 1.5;" width="127" x="38.75" y="270"/><text fill="#000000" font-family="sans-serif" font-size="12" lengthAdjust="spacingAndGlyphs" textLength="121" x="41.75" y="286.1387">ValidatingPartyRole</text></a><!--class CheckingPartyRole--><a target="_top" xlink:actuate="onRequest" xlink:href="../CheckingPartyRole.html" xlink:show="new" xlink:title="Identification of the person who checked the document and/or the signature." xlink:type="simple"><rect fill="#FEFEEE" filter="url(#f1ic8jye9vssiu)" height="23.9688" id="CheckingPartyRole" style="stroke: #A80036; stroke-width: 1.5;" width="122" x="201" y="270"/><rect fill="#FEFEEE" height="23.9688" style="stroke: #A80036; stroke-width: 1.5;" width="122" x="201" y="270"/><text fill="#000000" font-family="sans-serif" font-size="12" lengthAdjust="spacingAndGlyphs" textLength="116" x="204" y="286.1387">CheckingPartyRole</text></a><!--class ResponsiblePartyRole--><a target="_top" xlink:actuate="onRequest" xlink:href="../ResponsiblePartyRole.html" xlink:show="new" xlink:title="Identification of the party who is responsible for the certificate." xlink:type="simple"><rect fill="#FEFEEE" filter="url(#f1ic8jye9vssiu)" height="23.9688" id="ResponsiblePartyRole" style="stroke: #A80036; stroke-width: 1.5;" width="141" x="358.75" y="270"/><rect fill="#FEFEEE" height="23.9688" style="stroke: #A80036; stroke-width: 1.5;" width="141" x="358.75" y="270"/><text fill="#000000" font-family="sans-serif" font-size="12" lengthAdjust="spacingAndGlyphs" textLength="135" x="361.75" y="286.1387">ResponsiblePartyRole</text></a><!--class DocumentIssuer--><a target="_top" xlink:actuate="onRequest" xlink:href="../DocumentIssuer.html" xlink:show="new" xlink:title="Party that issues a document such as a bank guarantee or letter of / documentary credit. For instance the inspection company for a trade certificate or the insurance company or its agent for an insurance certificate." xlink:type="simple"><rect fill="#FEFEEE" filter="url(#f1ic8jye9vssiu)" height="23.9688" id="DocumentIssuer" style="stroke: #A80036; stroke-width: 1.5;" width="108" x="535" y="270"/><rect fill="#FEFEEE" height="23.9688" style="stroke: #A80036; stroke-width: 1.5;" width="108" x="535" y="270"/><text fill="#000000" font-family="sans-serif" font-size="12" lengthAdjust="spacingAndGlyphs" textLength="102" x="538" y="286.1387">DocumentIssuer</text></a><!--class DocumentSignatory--><a target="_top" xlink:actuate="onRequest" xlink:href="../DocumentSignatory.html" xlink:show="new" xlink:title="Person who binds himself or herself, or the entity he or she is authorized to represent, by his or her signature on the document." xlink:type="simple"><rect fill="#FEFEEE" filter="url(#f1ic8jye9vssiu)" height="23.9688" id="DocumentSignatory" style="stroke: #A80036; stroke-width: 1.5;" width="129" x="678.75" y="270"/><rect fill="#FEFEEE" height="23.9688" style="stroke: #A80036; stroke-width: 1.5;" width="129" x="678.75" y="270"/><text fill="#000000" font-family="sans-serif" font-size="12" lengthAdjust="spacingAndGlyphs" textLength="123" x="681.75" y="286.1387">DocumentSignatory</text></a><!--class NotificationReceiver--><a target="_top" xlink:actuate="onRequest" xlink:href="../NotificationReceiver.html" xlink:show="new" xlink:title="Identifies the party (to be) notified of the content of a document." xlink:type="simple"><rect fill="#FEFEEE" filter="url(#f1ic8jye9vssiu)" height="23.9688" id="NotificationReceiver" style="stroke: #A80036; stroke-width: 1.5;" width="130" x="843" y="270"/><rect fill="#FEFEEE" height="23.9688" style="stroke: #A80036; stroke-width: 1.5;" width="130" x="843" y="270"/><text fill="#000000" font-family="sans-serif" font-size="12" lengthAdjust="spacingAndGlyphs" textLength="124" x="846" y="286.1387">NotificationReceiver</text></a><!--class NotifyingParty--><a target="_top" xlink:actuate="onRequest" xlink:href="../NotifyingParty.html" xlink:show="new" xlink:title="Identifies the party that notifies the content of a document to a third party." xlink:type="simple"><rect fill="#FEFEEE" filter="url(#f1ic8jye9vssiu)" height="23.9688" id="NotifyingParty" style="stroke: #A80036; stroke-width: 1.5;" width="92" x="1008" y="270"/><rect fill="#FEFEEE" height="23.9688" style="stroke: #A80036; stroke-width: 1.5;" width="92" x="1008" y="270"/><text fill="#000000" font-family="sans-serif" font-size="12" lengthAdjust="spacingAndGlyphs" textLength="86" x="1011" y="286.1387">NotifyingParty</text></a><!--class RolePlayer--><a target="_top" xlink:actuate="onRequest" xlink:href="../RolePlayer.html" xlink:show="new" xlink:title="Type of entity that plays a specific role in a specific context." xlink:type="simple"><rect fill="#EEEEEE" filter="url(#f1ic8jye9vssiu)" height="23.9688" id="RolePlayer" style="stroke: #A80036; stroke-width: 1.5;" width="71" x="1439.75" y="444"/><rect fill="#EEEEEE" height="23.9688" style="stroke: #A80036; stroke-width: 1.5;" width="71" x="1439.75" y="444"/><text fill="#000000" font-family="sans-serif" font-size="12" lengthAdjust="spacingAndGlyphs" textLength="65" x="1442.75" y="460.1387">RolePlayer</text></a><!--class ContactPersonRole--><a target="_top" xlink:actuate="onRequest" xlink:href="../ContactPersonRole.html" xlink:show="new" xlink:title="Person to be contacted in a given organisation. In the corporate action domain (including meeting notifications) , it is the contact person at the party organising the meeting, at the issuer or at an intermediary." xlink:type="simple"><rect fill="#EEEEEE" filter="url(#f1ic8jye9vssiu)" height="23.9688" id="ContactPersonRole" style="stroke: #A80036; stroke-width: 1.5;" width="126" x="1432" y="358"/><rect fill="#EEEEEE" height="23.9688" style="stroke: #A80036; stroke-width: 1.5;" width="126" x="1432" y="358"/><text fill="#000000" font-family="sans-serif" font-size="12" lengthAdjust="spacingAndGlyphs" textLength="120" x="1435" y="374.1387">ContactPersonRole</text></a><!--class CounterpartyRisk--><a target="_top" xlink:actuate="onRequest" xlink:href="../CounterpartyRisk.html" xlink:show="new" xlink:title="Calculation of the exposure amount that one party has vis-a-vis one counterparty or a central system, based on its credit risk." xlink:type="simple"><rect fill="#EEEEEE" filter="url(#f1ic8jye9vssiu)" height="23.9688" id="CounterpartyRisk" style="stroke: #A80036; stroke-width: 1.5;" width="113" x="1444.75" y="270"/><rect fill="#EEEEEE" height="23.9688" style="stroke: #A80036; stroke-width: 1.5;" width="113" x="1444.75" y="270"/><text fill="#000000" font-family="sans-serif" font-size="12" lengthAdjust="spacingAndGlyphs" textLength="107" x="1447.75" y="286.1387">CounterpartyRisk</text></a><!--class Entry--><a target="_top" xlink:actuate="onRequest" xlink:href="../Entry.html" xlink:show="new" xlink:title="Posting to an account that results in an increase or decrease to a balance." xlink:type="simple"><rect fill="#EEEEEE" filter="url(#f1ic8jye9vssiu)" height="23.9688" id="Entry" style="stroke: #A80036; stroke-width: 1.5;" width="38" x="1432" y="166"/><rect fill="#EEEEEE" height="23.9688" style="stroke: #A80036; stroke-width: 1.5;" width="38" x="1432" y="166"/><text fill="#000000" font-family="sans-serif" font-size="12" lengthAdjust="spacingAndGlyphs" textLength="32" x="1435" y="182.1387">Entry</text></a><!--class Document--><a target="_top" xlink:actuate="onRequest" xlink:href="../Document.html" xlink:show="new" xlink:title="General information that unambiguously identifies a document, such as identification number and issue date time." xlink:type="simple"><rect fill="#EEEEEE" filter="url(#f1ic8jye9vssiu)" height="23.9688" id="Document" style="stroke: #A80036; stroke-width: 1.5;" width="70" x="1156" y="270"/><rect fill="#EEEEEE" height="23.9688" style="stroke: #A80036; stroke-width: 1.5;" width="70" x="1156" y="270"/><text fill="#000000" font-family="sans-serif" font-size="12" lengthAdjust="spacingAndGlyphs" textLength="64" x="1159" y="286.1387">Document</text></a><!--link Role to DocumentPartyRole--><path d="M942.094,93.366 C885.631,117.084 809.25,149.17 769.508,165.865 " fill="none" id="Role-DocumentPartyRole" style="stroke: #A80036; stroke-width: 1.0;"/><polygon fill="none" points="939.62,86.813,960.77,85.52,945.042,99.72,939.62,86.813" style="stroke: #A80036; stroke-width: 1.0;"/><!--link DocumentPartyRole to ValidatingPartyRole--><path d="M658.323,180.968 C547.247,185.387 347.179,199.698 183,246 C162.063,251.905 139.431,262.027 123.427,269.872 " fill="none" id="DocumentPartyRole-ValidatingPartyRole" style="stroke: #A80036; stroke-width: 1.0;"/><polygon fill="none" points="658.087,173.972,678.328,180.242,658.595,187.963,658.087,173.972" style="stroke: #A80036; stroke-width: 1.0;"/><!--link DocumentPartyRole to CheckingPartyRole--><path d="M658.609,186.815 C576.284,195.89 448.158,213.895 341,246 C320.595,252.114 298.52,262.214 282.906,269.997 " fill="none" id="DocumentPartyRole-CheckingPartyRole" style="stroke: #A80036; stroke-width: 1.0;"/><polygon fill="none" points="657.883,179.853,678.511,184.697,659.365,193.774,657.883,179.853" style="stroke: #A80036; stroke-width: 1.0;"/><!--link DocumentPartyRole to ResponsiblePartyRole--><path d="M682.487,195.336 C636.703,208.082 572.457,226.795 517,246 C495.87,253.317 472.355,262.738 454.952,269.962 " fill="none" id="DocumentPartyRole-ResponsiblePartyRole" style="stroke: #A80036; stroke-width: 1.0;"/><polygon fill="none" points="680.678,188.573,701.819,190.003,684.401,202.069,680.678,188.573" style="stroke: #A80036; stroke-width: 1.0;"/><!--link DocumentPartyRole to DocumentIssuer--><path d="M709.372,201.273 C677.36,222.476 630.504,253.51 605.753,269.904 " fill="none" id="DocumentPartyRole-DocumentIssuer" style="stroke: #A80036; stroke-width: 1.0;"/><polygon fill="none" points="705.686,195.318,726.226,190.11,713.417,206.99,705.686,195.318" style="stroke: #A80036; stroke-width: 1.0;"/><!--link DocumentPartyRole to DocumentSignatory--><path d="M743,210.595 C743,230.825 743,255.843 743,269.954 " fill="none" id="DocumentPartyRole-DocumentSignatory" style="stroke: #A80036; stroke-width: 1.0;"/><polygon fill="none" points="736,210.306,743,190.306,750,210.305,736,210.306" style="stroke: #A80036; stroke-width: 1.0;"/><!--link DocumentPartyRole to NotificationReceiver--><path d="M778.072,200.681 C812.389,221.895 863.284,253.357 890.05,269.904 " fill="none" id="DocumentPartyRole-NotificationReceiver" style="stroke: #A80036; stroke-width: 1.0;"/><polygon fill="none" points="774.303,206.581,760.972,190.11,781.665,194.672,774.303,206.581" style="stroke: #A80036; stroke-width: 1.0;"/><!--link DocumentPartyRole to NotifyingParty--><path d="M798.825,195.869 C840.766,208.272 899.735,225.137 952,238 C968.759,242.125 973.811,240.018 990,246 C1006.75,252.189 1024.46,262.178 1037,269.904 " fill="none" id="DocumentPartyRole-NotifyingParty" style="stroke: #A80036; stroke-width: 1.0;"/><polygon fill="none" points="796.593,202.508,779.423,190.091,800.589,189.091,796.593,202.508" style="stroke: #A80036; stroke-width: 1.0;"/><!--link ContactPersonRole to RolePlayer--><!--link CounterpartyRisk to ContactPersonRole--><!--link Entry to CounterpartyRisk--><!--link Role to RolePlayer--><path d="M1099.53,81.309 C1182.97,100.392 1296,134.15 1296,177 C1296,177 1296,177 1296,371 C1296,431.8572 1381.84,448.7099 1434.63,453.3199 " fill="none" id="Role-RolePlayer" style="stroke: #A80036; stroke-width: 1.0;"/><polygon fill="#A80036" points="1439.64,453.7288,1430.9889,449.0215,1434.656,453.3288,1430.3488,456.9959,1439.64,453.7288" style="stroke: #A80036; stroke-width: 1.0;"/><text fill="#000000" font-family="sans-serif" font-size="13" lengthAdjust="spacingAndGlyphs" textLength="39" x="1297" y="286.0669">Player</text><text fill="#000000" font-family="sans-serif" font-size="13" lengthAdjust="spacingAndGlyphs" textLength="7" x="1424.7461" y="447.9585">*</text><!--link Role to ContactPersonRole--><path d="M1099.45,69.258 C1178.82,75.677 1288.42,89.178 1322,116 C1367.78,152.574 1344.13,186.452 1372,238 C1392.52,275.956 1397.13,286.868 1427,318 C1440.7,332.281 1458.71,345.597 1472.76,355.039 " fill="none" id="Role-ContactPersonRole" style="stroke: #A80036; stroke-width: 1.0;"/><polygon fill="#A80036" points="1476.98,357.842,1471.7024,349.5265,1472.8171,355.0725,1467.2712,356.1871,1476.98,357.842" style="stroke: #A80036; stroke-width: 1.0;"/><text fill="#000000" font-family="sans-serif" font-size="13" lengthAdjust="spacingAndGlyphs" textLength="121" x="1373" y="233.0669">ContactPersonRole</text><text fill="#000000" font-family="sans-serif" font-size="13" lengthAdjust="spacingAndGlyphs" textLength="8" x="1460.0669" y="346.8359">1</text><!--link Role to CounterpartyRisk--><path d="M1099.71,65.7 C1214.48,69.32 1408.16,80.638 1469,116 C1500.04,134.042 1514.83,218.993 1515,220 C1517.59,235.376 1512.87,252.681 1508.23,264.921 " fill="none" id="Role-CounterpartyRisk" style="stroke: #A80036; stroke-width: 1.0;"/><polygon fill="#A80036" points="1506.27,269.837,1513.3228,262.9625,1508.1245,265.1936,1505.8934,259.9953,1506.27,269.837" style="stroke: #A80036; stroke-width: 1.0;"/><text fill="#000000" font-family="sans-serif" font-size="13" lengthAdjust="spacingAndGlyphs" textLength="109" x="1509" y="182.0669">CounterpartyRisk</text><text fill="#000000" font-family="sans-serif" font-size="13" lengthAdjust="spacingAndGlyphs" textLength="24" x="1478.5269" y="258.8292">0..1</text><!--link Role to Entry--><path d="M1099.47,67.756 C1199.13,73.38 1354.69,86.651 1405,116 C1422.91,126.449 1436.1,146.883 1443.66,161.211 " fill="none" id="Role-Entry" style="stroke: #A80036; stroke-width: 1.0;"/><polygon fill="#A80036" points="1446,165.813,1445.4799,155.9779,1443.7309,161.3576,1438.3512,159.6085,1446,165.813" style="stroke: #A80036; stroke-width: 1.0;"/><text fill="#000000" font-family="sans-serif" font-size="13" lengthAdjust="spacingAndGlyphs" textLength="33" x="1426" y="129.0669">Entry</text><text fill="#000000" font-family="sans-serif" font-size="13" lengthAdjust="spacingAndGlyphs" textLength="8" x="1433.6875" y="155.0545">1</text><!--link DocumentPartyRole to Document--><path d="M807.575,185.46 C882.928,194.168 1010.64,212.578 1116,246 C1133.35,251.504 1151.89,260.131 1166.2,267.443 " fill="none" id="DocumentPartyRole-Document" style="stroke: #A80036; stroke-width: 1.0;"/><polygon fill="#A80036" points="1170.88,269.866,1164.7274,262.1754,1166.44,267.5667,1161.0486,269.2793,1170.88,269.866" style="stroke: #A80036; stroke-width: 1.0;"/><text fill="#000000" font-family="sans-serif" font-size="13" lengthAdjust="spacingAndGlyphs" textLength="67" x="1088" y="233.0669">Document</text><text fill="#000000" font-family="sans-serif" font-size="13" lengthAdjust="spacingAndGlyphs" textLength="7" x="1154.4169" y="258.8682">*</text></g></svg>