<?xml version="1.0" encoding="UTF-8" standalone="no"?><svg xmlns="http://www.w3.org/2000/svg" xmlns:xlink="http://www.w3.org/1999/xlink" contentScriptType="application/ecmascript" contentStyleType="text/css" height="1284px" preserveAspectRatio="none" style="width:3254px;height:1284px;" version="1.1" viewBox="0 0 3254 1284" width="3254px" zoomAndPan="magnify"><defs><filter height="300%" id="f2maiv48ymxq2" width="300%" x="-1" y="-1"><feGaussianBlur result="blurOut" stdDeviation="2.0"/><feColorMatrix in="blurOut" result="blurOut2" type="matrix" values="0 0 0 0 0 0 0 0 0 0 0 0 0 0 0 0 0 0 .4 0"/><feOffset dx="4.0" dy="4.0" in="blurOut2" result="blurOut3"/><feBlend in="SourceGraphic" in2="blurOut3" mode="normal"/></filter></defs><g><!--cluster ##7192--><!--cluster ##7216--><!--class Document--><a target="_top" xlink:actuate="onRequest" xlink:href="../Document.html" xlink:show="new" xlink:title="General information that unambiguously identifies a document, such as identification number and issue date time." xlink:type="simple"><rect fill="#FEFECE" filter="url(#f2maiv48ymxq2)" height="172.8203" id="Document" style="stroke: #A80036; stroke-width: 1.5;" width="249" x="1759.75" y="40.5"/><rect fill="#FEFECE" height="23.9688" style="stroke: #A80036; stroke-width: 1.5;" width="249" x="1759.75" y="40.5"/><text fill="#000000" font-family="sans-serif" font-size="12" lengthAdjust="spacingAndGlyphs" textLength="64" x="1852.25" y="56.6387">Document</text><line style="stroke: #A80036; stroke-width: 1.5;" x1="1760.75" x2="2007.75" y1="64.4688" y2="64.4688"/><ellipse cx="1770.75" cy="76.3711" fill="#84BE84" rx="3" ry="3" style="stroke: #038048; stroke-width: 1.0;"/><text fill="#000000" font-family="sans-serif" font-size="11" lengthAdjust="spacingAndGlyphs" textLength="57" x="1779.75" y="78.6792">IssueDate</text><text fill="#000000" font-family="sans-serif" font-size="11" font-style="italic" lengthAdjust="spacingAndGlyphs" textLength="81" x="1840.75" y="78.6792">(ISODateTime)</text><ellipse cx="1770.75" cy="89.1758" fill="#84BE84" rx="3" ry="3" style="stroke: #038048; stroke-width: 1.0;"/><text fill="#000000" font-family="sans-serif" font-size="11" lengthAdjust="spacingAndGlyphs" textLength="80" x="1779.75" y="91.4839">CopyDuplicate</text><text fill="#000000" font-family="sans-serif" font-size="11" font-style="italic" lengthAdjust="spacingAndGlyphs" textLength="118" x="1863.75" y="91.4839">(CopyDuplicateCode)</text><ellipse cx="1770.75" cy="101.9805" fill="#84BE84" rx="3" ry="3" style="stroke: #038048; stroke-width: 1.0;"/><text fill="#000000" font-family="sans-serif" font-size="11" lengthAdjust="spacingAndGlyphs" textLength="27" x="1779.75" y="104.2886">Type</text><text fill="#000000" font-family="sans-serif" font-size="11" font-style="italic" lengthAdjust="spacingAndGlyphs" textLength="122" x="1810.75" y="104.2886">(DocumentTypeCode)</text><ellipse cx="1770.75" cy="114.7852" fill="#84BE84" rx="3" ry="3" style="stroke: #038048; stroke-width: 1.0;"/><text fill="#000000" font-family="sans-serif" font-size="11" lengthAdjust="spacingAndGlyphs" textLength="43" x="1779.75" y="117.0933">Amount</text><text fill="#000000" font-family="sans-serif" font-size="11" font-style="italic" lengthAdjust="spacingAndGlyphs" textLength="161" x="1826.75" y="117.0933">(ActiveCurrencyAndAmount)</text><ellipse cx="1770.75" cy="127.5898" fill="#84BE84" rx="3" ry="3" style="stroke: #038048; stroke-width: 1.0;"/><text fill="#000000" font-family="sans-serif" font-size="11" lengthAdjust="spacingAndGlyphs" textLength="100" x="1779.75" y="129.8979">DocumentVersion</text><text fill="#000000" font-family="sans-serif" font-size="11" font-style="italic" lengthAdjust="spacingAndGlyphs" textLength="53" x="1883.75" y="129.8979">(Number)</text><ellipse cx="1770.75" cy="140.3945" fill="#84BE84" rx="3" ry="3" style="stroke: #038048; stroke-width: 1.0;"/><text fill="#000000" font-family="sans-serif" font-size="11" lengthAdjust="spacingAndGlyphs" textLength="37" x="1779.75" y="142.7026">Status</text><text fill="#000000" font-family="sans-serif" font-size="11" font-style="italic" lengthAdjust="spacingAndGlyphs" textLength="77" x="1820.75" y="142.7026">(Max140Text)</text><ellipse cx="1770.75" cy="153.1992" fill="#84BE84" rx="3" ry="3" style="stroke: #038048; stroke-width: 1.0;"/><text fill="#000000" font-family="sans-serif" font-size="11" lengthAdjust="spacingAndGlyphs" textLength="72" x="1779.75" y="155.5073">DataSetType</text><text fill="#000000" font-family="sans-serif" font-size="11" font-style="italic" lengthAdjust="spacingAndGlyphs" textLength="109" x="1855.75" y="155.5073">(DataSetTypeCode)</text><ellipse cx="1770.75" cy="166.0039" fill="#84BE84" rx="3" ry="3" style="stroke: #038048; stroke-width: 1.0;"/><text fill="#000000" font-family="sans-serif" font-size="11" lengthAdjust="spacingAndGlyphs" textLength="88" x="1779.75" y="168.312">SignedIndicator</text><text fill="#000000" font-family="sans-serif" font-size="11" font-style="italic" lengthAdjust="spacingAndGlyphs" textLength="92" x="1871.75" y="168.312">(YesNoIndicator)</text><ellipse cx="1770.75" cy="178.8086" fill="#84BE84" rx="3" ry="3" style="stroke: #038048; stroke-width: 1.0;"/><text fill="#000000" font-family="sans-serif" font-size="11" lengthAdjust="spacingAndGlyphs" textLength="93" x="1779.75" y="181.1167">RemittedAmount</text><text fill="#000000" font-family="sans-serif" font-size="11" font-style="italic" lengthAdjust="spacingAndGlyphs" textLength="126" x="1876.75" y="181.1167">(CurrencyAndAmount)</text><ellipse cx="1770.75" cy="191.6133" fill="#84BE84" rx="3" ry="3" style="stroke: #038048; stroke-width: 1.0;"/><text fill="#000000" font-family="sans-serif" font-size="11" lengthAdjust="spacingAndGlyphs" textLength="55" x="1779.75" y="193.9214">Language</text><text fill="#000000" font-family="sans-serif" font-size="11" font-style="italic" lengthAdjust="spacingAndGlyphs" textLength="92" x="1838.75" y="193.9214">(LanguageCode)</text><ellipse cx="1770.75" cy="204.418" fill="#84BE84" rx="3" ry="3" style="stroke: #038048; stroke-width: 1.0;"/><text fill="#000000" font-family="sans-serif" font-size="11" lengthAdjust="spacingAndGlyphs" textLength="47" x="1779.75" y="206.7261">Purpose</text><text fill="#000000" font-family="sans-serif" font-size="11" font-style="italic" lengthAdjust="spacingAndGlyphs" textLength="70" x="1830.75" y="206.7261">(Max35Text)</text></a><!--class PrivateCertificate--><a target="_top" xlink:actuate="onRequest" xlink:href="../PrivateCertificate.html" xlink:show="new" xlink:title="Specifies the parameters associated with the production of a certificate to identify the profile of a customer." xlink:type="simple"><rect fill="#FEFEEE" filter="url(#f2maiv48ymxq2)" height="23.9688" id="PrivateCertificate" style="stroke: #A80036; stroke-width: 1.5;" width="113" x="1728.75" y="292"/><rect fill="#FEFEEE" height="23.9688" style="stroke: #A80036; stroke-width: 1.5;" width="113" x="1728.75" y="292"/><text fill="#000000" font-family="sans-serif" font-size="12" lengthAdjust="spacingAndGlyphs" textLength="107" x="1731.75" y="308.1387">PrivateCertificate</text></a><!--class InsuranceCertificate--><a target="_top" xlink:actuate="onRequest" xlink:href="../InsuranceCertificate.html" xlink:show="new" xlink:title="Formal document used to record a fact and used as proof of the fact that goods have been insured under an insurance policy." xlink:type="simple"><rect fill="#FEFEEE" filter="url(#f2maiv48ymxq2)" height="23.9688" id="InsuranceCertificate" style="stroke: #A80036; stroke-width: 1.5;" width="132" x="1877" y="292"/><rect fill="#FEFEEE" height="23.9688" style="stroke: #A80036; stroke-width: 1.5;" width="132" x="1877" y="292"/><text fill="#000000" font-family="sans-serif" font-size="12" lengthAdjust="spacingAndGlyphs" textLength="126" x="1880" y="308.1387">InsuranceCertificate</text></a><!--class SecurityCertificate--><a target="_top" xlink:actuate="onRequest" xlink:href="../SecurityCertificate.html" xlink:show="new" xlink:title="Certificate linked to a digital signature." xlink:type="simple"><rect fill="#FEFEEE" filter="url(#f2maiv48ymxq2)" height="23.9688" id="SecurityCertificate" style="stroke: #A80036; stroke-width: 1.5;" width="120" x="1036.5" y="292"/><rect fill="#FEFEEE" height="23.9688" style="stroke: #A80036; stroke-width: 1.5;" width="120" x="1036.5" y="292"/><text fill="#000000" font-family="sans-serif" font-size="12" lengthAdjust="spacingAndGlyphs" textLength="114" x="1039.5" y="308.1387">SecurityCertificate</text></a><!--class TradeCertificate--><a target="_top" xlink:actuate="onRequest" xlink:href="../TradeCertificate.html" xlink:show="new" xlink:title="Formal document used to record a fact and used as proof of the fact, in the context of a commercial trade transaction." xlink:type="simple"><rect fill="#FEFEEE" filter="url(#f2maiv48ymxq2)" height="23.9688" id="TradeCertificate" style="stroke: #A80036; stroke-width: 1.5;" width="106" x="1191.5" y="292"/><rect fill="#FEFEEE" height="23.9688" style="stroke: #A80036; stroke-width: 1.5;" width="106" x="1191.5" y="292"/><text fill="#000000" font-family="sans-serif" font-size="12" lengthAdjust="spacingAndGlyphs" textLength="100" x="1194.5" y="308.1387">TradeCertificate</text></a><!--class Assessment--><a target="_top" xlink:actuate="onRequest" xlink:href="../Assessment.html" xlink:show="new" xlink:title="Assessment for the components of a system." xlink:type="simple"><rect fill="#FEFEEE" filter="url(#f2maiv48ymxq2)" height="23.9688" id="Assessment" style="stroke: #A80036; stroke-width: 1.5;" width="82" x="1332" y="292"/><rect fill="#FEFEEE" height="23.9688" style="stroke: #A80036; stroke-width: 1.5;" width="82" x="1332" y="292"/><text fill="#000000" font-family="sans-serif" font-size="12" lengthAdjust="spacingAndGlyphs" textLength="76" x="1335" y="308.1387">Assessment</text></a><!--class DeliveryNote--><a target="_top" xlink:actuate="onRequest" xlink:href="../DeliveryNote.html" xlink:show="new" xlink:title="Document which is a proof of delivery of the product." xlink:type="simple"><rect fill="#FEFEEE" filter="url(#f2maiv48ymxq2)" height="23.9688" id="DeliveryNote" style="stroke: #A80036; stroke-width: 1.5;" width="84" x="1449.5" y="292"/><rect fill="#FEFEEE" height="23.9688" style="stroke: #A80036; stroke-width: 1.5;" width="84" x="1449.5" y="292"/><text fill="#000000" font-family="sans-serif" font-size="12" lengthAdjust="spacingAndGlyphs" textLength="78" x="1452.5" y="308.1387">DeliveryNote</text></a><!--class FinancialDocument--><a target="_top" xlink:actuate="onRequest" xlink:href="../FinancialDocument.html" xlink:show="new" xlink:title="Type of document used in relation with financial transactions." xlink:type="simple"><rect fill="#FEFEEE" filter="url(#f2maiv48ymxq2)" height="23.9688" id="FinancialDocument" style="stroke: #A80036; stroke-width: 1.5;" width="125" x="1568.75" y="292"/><rect fill="#FEFEEE" height="23.9688" style="stroke: #A80036; stroke-width: 1.5;" width="125" x="1568.75" y="292"/><text fill="#000000" font-family="sans-serif" font-size="12" lengthAdjust="spacingAndGlyphs" textLength="119" x="1571.75" y="308.1387">FinancialDocument</text></a><!--class ContactPoint--><a target="_top" xlink:actuate="onRequest" xlink:href="../ContactPoint.html" xlink:show="new" xlink:title="Number, physical or virtual address, used for communication." xlink:type="simple"><rect fill="#EEEEEE" filter="url(#f2maiv48ymxq2)" height="23.9688" id="ContactPoint" style="stroke: #A80036; stroke-width: 1.5;" width="87" x="634.75" y="115"/><rect fill="#EEEEEE" height="23.9688" style="stroke: #A80036; stroke-width: 1.5;" width="87" x="634.75" y="115"/><text fill="#000000" font-family="sans-serif" font-size="12" lengthAdjust="spacingAndGlyphs" textLength="81" x="637.75" y="131.1387">ContactPoint</text></a><!--class PaymentObligation--><a target="_top" xlink:actuate="onRequest" xlink:href="../PaymentObligation.html" xlink:show="new" xlink:title="Obligation for the debtor to pay the creditor an amount of cash." xlink:type="simple"><rect fill="#EEEEEE" filter="url(#f2maiv48ymxq2)" height="23.9688" id="PaymentObligation" style="stroke: #A80036; stroke-width: 1.5;" width="123" x="596.75" y="292"/><rect fill="#EEEEEE" height="23.9688" style="stroke: #A80036; stroke-width: 1.5;" width="123" x="596.75" y="292"/><text fill="#000000" font-family="sans-serif" font-size="12" lengthAdjust="spacingAndGlyphs" textLength="117" x="599.75" y="308.1387">PaymentObligation</text></a><!--class Agreement--><a target="_top" xlink:actuate="onRequest" xlink:href="../Agreement.html" xlink:show="new" xlink:title="Contractual details related to an agreement between parties." xlink:type="simple"><rect fill="#EEEEEE" filter="url(#f2maiv48ymxq2)" height="23.9688" id="Agreement" style="stroke: #A80036; stroke-width: 1.5;" width="75" x="146.75" y="1250"/><rect fill="#EEEEEE" height="23.9688" style="stroke: #A80036; stroke-width: 1.5;" width="75" x="146.75" y="1250"/><text fill="#000000" font-family="sans-serif" font-size="12" lengthAdjust="spacingAndGlyphs" textLength="69" x="149.75" y="1266.1387">Agreement</text></a><!--class Location--><a target="_top" xlink:actuate="onRequest" xlink:href="../Location.html" xlink:show="new" xlink:title="Specifies a place." xlink:type="simple"><rect fill="#EEEEEE" filter="url(#f2maiv48ymxq2)" height="23.9688" id="Location" style="stroke: #A80036; stroke-width: 1.5;" width="59" x="473.75" y="1164"/><rect fill="#EEEEEE" height="23.9688" style="stroke: #A80036; stroke-width: 1.5;" width="59" x="473.75" y="1164"/><text fill="#000000" font-family="sans-serif" font-size="12" lengthAdjust="spacingAndGlyphs" textLength="53" x="476.75" y="1180.1387">Location</text></a><!--class Reconciliation--><a target="_top" xlink:actuate="onRequest" xlink:href="../Reconciliation.html" xlink:show="new" xlink:title="Process of matching different documents submitted by parties to a trade." xlink:type="simple"><rect fill="#EEEEEE" filter="url(#f2maiv48ymxq2)" height="23.9688" id="Reconciliation" style="stroke: #A80036; stroke-width: 1.5;" width="93" x="887.75" y="1078"/><rect fill="#EEEEEE" height="23.9688" style="stroke: #A80036; stroke-width: 1.5;" width="93" x="887.75" y="1078"/><text fill="#000000" font-family="sans-serif" font-size="12" lengthAdjust="spacingAndGlyphs" textLength="87" x="890.75" y="1094.1387">Reconciliation</text></a><!--class LetterOfCredit--><a target="_top" xlink:actuate="onRequest" xlink:href="../LetterOfCredit.html" xlink:show="new" xlink:title="Instrument issued by a bank substituting its name and credit standing for that of its customer. A letter of credit is a written undertaking of the bank, issued for the account of a customer (the applicant), to honour a demand for payment, upon the beneficiary's compliance with the terms and conditions set forth in the undertaking." xlink:type="simple"><rect fill="#EEEEEE" filter="url(#f2maiv48ymxq2)" height="23.9688" id="LetterOfCredit" style="stroke: #A80036; stroke-width: 1.5;" width="93" x="887.75" y="992"/><rect fill="#EEEEEE" height="23.9688" style="stroke: #A80036; stroke-width: 1.5;" width="93" x="887.75" y="992"/><text fill="#000000" font-family="sans-serif" font-size="12" lengthAdjust="spacingAndGlyphs" textLength="87" x="890.75" y="1008.1387">LetterOfCredit</text></a><!--class DocumentPartyRole--><a target="_top" xlink:actuate="onRequest" xlink:href="../DocumentPartyRole.html" xlink:show="new" xlink:title="Role played by a party in the context of a document." xlink:type="simple"><rect fill="#EEEEEE" filter="url(#f2maiv48ymxq2)" height="23.9688" id="DocumentPartyRole" style="stroke: #A80036; stroke-width: 1.5;" width="129" x="850.75" y="906"/><rect fill="#EEEEEE" height="23.9688" style="stroke: #A80036; stroke-width: 1.5;" width="129" x="850.75" y="906"/><text fill="#000000" font-family="sans-serif" font-size="12" lengthAdjust="spacingAndGlyphs" textLength="123" x="853.75" y="922.1387">DocumentPartyRole</text></a><!--class Transport--><a target="_top" xlink:actuate="onRequest" xlink:href="../Transport.html" xlink:show="new" xlink:title="Moving of goods or people from one place to another by vehicle." xlink:type="simple"><rect fill="#EEEEEE" filter="url(#f2maiv48ymxq2)" height="23.9688" id="Transport" style="stroke: #A80036; stroke-width: 1.5;" width="67" x="881.75" y="804"/><rect fill="#EEEEEE" height="23.9688" style="stroke: #A80036; stroke-width: 1.5;" width="67" x="881.75" y="804"/><text fill="#000000" font-family="sans-serif" font-size="12" lengthAdjust="spacingAndGlyphs" textLength="61" x="884.75" y="820.1387">Transport</text></a><!--class Guarantee--><a target="_top" xlink:actuate="onRequest" xlink:href="../Guarantee.html" xlink:show="new" xlink:title="Partial or full coverage of amounts by a party other than the debtor." xlink:type="simple"><rect fill="#EEEEEE" filter="url(#f2maiv48ymxq2)" height="23.9688" id="Guarantee" style="stroke: #A80036; stroke-width: 1.5;" width="73" x="905.75" y="702"/><rect fill="#EEEEEE" height="23.9688" style="stroke: #A80036; stroke-width: 1.5;" width="73" x="905.75" y="702"/><text fill="#000000" font-family="sans-serif" font-size="12" lengthAdjust="spacingAndGlyphs" textLength="67" x="908.75" y="718.1387">Guarantee</text></a><!--class GenericIdentification--><a target="_top" xlink:actuate="onRequest" xlink:href="../GenericIdentification.html" xlink:show="new" xlink:title="Information related to a non-standardised identification, such as a proprietary party identification or account identification." xlink:type="simple"><rect fill="#EEEEEE" filter="url(#f2maiv48ymxq2)" height="23.9688" id="GenericIdentification" style="stroke: #A80036; stroke-width: 1.5;" width="135" x="829.75" y="600"/><rect fill="#EEEEEE" height="23.9688" style="stroke: #A80036; stroke-width: 1.5;" width="135" x="829.75" y="600"/><text fill="#000000" font-family="sans-serif" font-size="12" lengthAdjust="spacingAndGlyphs" textLength="129" x="832.75" y="616.1387">GenericIdentification</text></a><!--class Evidence--><a target="_top" xlink:actuate="onRequest" xlink:href="../Evidence.html" xlink:show="new" xlink:title="Element such as signature that can be used to prove a fact." xlink:type="simple"><rect fill="#EEEEEE" filter="url(#f2maiv48ymxq2)" height="23.9688" id="Evidence" style="stroke: #A80036; stroke-width: 1.5;" width="62" x="901.5" y="498"/><rect fill="#EEEEEE" height="23.9688" style="stroke: #A80036; stroke-width: 1.5;" width="62" x="901.5" y="498"/><text fill="#000000" font-family="sans-serif" font-size="12" lengthAdjust="spacingAndGlyphs" textLength="56" x="904.5" y="514.1387">Evidence</text></a><!--class CommercialTrade--><a target="_top" xlink:actuate="onRequest" xlink:href="../CommercialTrade.html" xlink:show="new" xlink:title="Commercial details of a trade transaction between a buyer and a seller." xlink:type="simple"><rect fill="#EEEEEE" filter="url(#f2maiv48ymxq2)" height="23.9688" id="CommercialTrade" style="stroke: #A80036; stroke-width: 1.5;" width="114" x="601" y="396"/><rect fill="#EEEEEE" height="23.9688" style="stroke: #A80036; stroke-width: 1.5;" width="114" x="601" y="396"/><text fill="#000000" font-family="sans-serif" font-size="12" lengthAdjust="spacingAndGlyphs" textLength="108" x="604" y="412.1387">CommercialTrade</text></a><!--class Presentation--><a target="_top" xlink:actuate="onRequest" xlink:href="../Presentation.html" xlink:show="new" xlink:title="Presentation of documents." xlink:type="simple"><rect fill="#EEEEEE" filter="url(#f2maiv48ymxq2)" height="23.9688" id="Presentation" style="stroke: #A80036; stroke-width: 1.5;" width="87" x="759.75" y="804"/><rect fill="#EEEEEE" height="23.9688" style="stroke: #A80036; stroke-width: 1.5;" width="87" x="759.75" y="804"/><text fill="#000000" font-family="sans-serif" font-size="12" lengthAdjust="spacingAndGlyphs" textLength="81" x="762.75" y="820.1387">Presentation</text></a><!--class RegisteredContract--><a target="_top" xlink:actuate="onRequest" xlink:href="../RegisteredContract.html" xlink:show="new" xlink:title="Contract registered for regulatory purpose by a registration agent for the journaling of payments made against the contract." xlink:type="simple"><rect fill="#EEEEEE" filter="url(#f2maiv48ymxq2)" height="23.9688" id="RegisteredContract" style="stroke: #A80036; stroke-width: 1.5;" width="128" x="742" y="702"/><rect fill="#EEEEEE" height="23.9688" style="stroke: #A80036; stroke-width: 1.5;" width="128" x="742" y="702"/><text fill="#000000" font-family="sans-serif" font-size="12" lengthAdjust="spacingAndGlyphs" textLength="122" x="745" y="718.1387">RegisteredContract</text></a><!--link Document to PrivateCertificate--><path d="M1825.54,231.33 C1811.64,255.9 1798.72,278.75 1791.35,291.77 " fill="none" id="Document-PrivateCertificate" style="stroke: #A80036; stroke-width: 1.0;"/><polygon fill="none" points="1819.57,227.67,1835.52,213.71,1831.76,234.56,1819.57,227.67" style="stroke: #A80036; stroke-width: 1.0;"/><!--link Document to InsuranceCertificate--><path d="M1919.32,232.76 C1927.42,256.78 1934.91,279 1939.21,291.77 " fill="none" id="Document-InsuranceCertificate" style="stroke: #A80036; stroke-width: 1.0;"/><polygon fill="none" points="1912.65,234.89,1912.9,213.71,1925.92,230.42,1912.65,234.89" style="stroke: #A80036; stroke-width: 1.0;"/><!--link Document to SecurityCertificate--><path d="M1739.89,160 C1560.28,199.89 1262.7,265.98 1145.56,291.99 " fill="none" id="Document-SecurityCertificate" style="stroke: #A80036; stroke-width: 1.0;"/><polygon fill="none" points="1738.53,153.14,1759.57,155.63,1741.57,166.8,1738.53,153.14" style="stroke: #A80036; stroke-width: 1.0;"/><!--link Document to TradeCertificate--><path d="M1740.12,167.34 C1593.18,207.52 1374.27,267.38 1284.56,291.91 " fill="none" id="Document-TradeCertificate" style="stroke: #A80036; stroke-width: 1.0;"/><polygon fill="none" points="1738.32,160.58,1759.46,162.05,1742.02,174.08,1738.32,160.58" style="stroke: #A80036; stroke-width: 1.0;"/><!--link Document to Assessment--><path d="M1740.72,177.07 C1625.11,216.66 1471.25,269.35 1405.27,291.95 " fill="none" id="Document-Assessment" style="stroke: #A80036; stroke-width: 1.0;"/><polygon fill="none" points="1738.46,170.44,1759.65,170.59,1743,183.69,1738.46,170.44" style="stroke: #A80036; stroke-width: 1.0;"/><!--link Document to DeliveryNote--><path d="M1741.31,191.54 C1658.08,228.6 1560.89,271.88 1516.03,291.85 " fill="none" id="Document-DeliveryNote" style="stroke: #A80036; stroke-width: 1.0;"/><polygon fill="none" points="1738.53,185.11,1759.65,183.37,1744.23,197.9,1738.53,185.11" style="stroke: #A80036; stroke-width: 1.0;"/><!--link Document to FinancialDocument--><path d="M1743.4,225.25 C1704.61,252.08 1667.61,277.68 1647.24,291.77 " fill="none" id="Document-FinancialDocument" style="stroke: #A80036; stroke-width: 1.0;"/><polygon fill="none" points="1739.66,219.33,1760.09,213.71,1747.63,230.84,1739.66,219.33" style="stroke: #A80036; stroke-width: 1.0;"/><!--link PaymentObligation to ContactPoint--><!--link ContactPoint to PaymentObligation--><path d="M676.718,139.21 C673.298,169.15 663.937,251.05 659.898,286.4 " fill="none" id="ContactPoint-PaymentObligation" style="stroke: #A80036; stroke-width: 1.0;"/><polygon fill="#A80036" points="659.297,291.65,664.2753,283.152,659.8543,286.6812,656.3251,282.2602,659.297,291.65" style="stroke: #A80036; stroke-width: 1.0;"/><text fill="#000000" font-family="sans-serif" font-size="13" lengthAdjust="spacingAndGlyphs" textLength="178" x="666" y="257.0669">RemittanceRelatedPayment</text><text fill="#000000" font-family="sans-serif" font-size="13" lengthAdjust="spacingAndGlyphs" textLength="24" x="630.3376" y="280.8375">0..1</text><!--link Agreement to PaymentObligation--><!--link Location to Agreement--><!--link Reconciliation to Location--><!--link LetterOfCredit to Reconciliation--><!--link DocumentPartyRole to LetterOfCredit--><!--link Transport to DocumentPartyRole--><!--link Guarantee to Transport--><!--link GenericIdentification to Guarantee--><!--link Evidence to GenericIdentification--><!--link CommercialTrade to Evidence--><!--link Presentation to CommercialTrade--><!--link RegisteredContract to Presentation--><!--link Document to ContactPoint--><path d="M1759.67,127 C1497.99,127 900.217,127 726.299,127 " fill="none" id="Document-ContactPoint" style="stroke: #A80036; stroke-width: 1.0;"/><polygon fill="#A80036" points="721.278,127,730.278,131,726.278,127,730.278,123,721.278,127" style="stroke: #A80036; stroke-width: 1.0;"/><text fill="#000000" font-family="sans-serif" font-size="13" lengthAdjust="spacingAndGlyphs" textLength="99" x="1190.25" y="119.0669">PlaceOfStorage</text><text fill="#000000" font-family="sans-serif" font-size="13" lengthAdjust="spacingAndGlyphs" textLength="7" x="729.8566" y="121.5148">*</text><!--link Document to PaymentObligation--><path d="M1759.7,145.74 C1502.95,182.39 921.62,265.37 724.678,293.48 " fill="none" id="Document-PaymentObligation" style="stroke: #A80036; stroke-width: 1.0;"/><polygon fill="#A80036" points="719.531,294.22,729.0068,296.9051,724.4806,293.5119,727.8738,288.9857,719.531,294.22" style="stroke: #A80036; stroke-width: 1.0;"/><text fill="#000000" font-family="sans-serif" font-size="13" lengthAdjust="spacingAndGlyphs" textLength="121" x="1056" y="257.0669">PaymentObligation</text><text fill="#000000" font-family="sans-serif" font-size="13" lengthAdjust="spacingAndGlyphs" textLength="24" x="727.5461" y="288.2965">0..1</text><!--link Document to Agreement--><path d="M2008.39,135 C2295.5,152.83 2980,205.54 2980,303 C2980,303 2980,303 2980,715 C2980,841.023 3220,739.977 3220,866 C3220,866 3220,866 3220,1177 C3220,1255.4606 594.124,1260.6361 226.538,1260.9762 " fill="none" id="Document-Agreement" style="stroke: #A80036; stroke-width: 1.0;"/><polygon fill="#A80036" points="221.291,1260.9809,230.2956,1264.9706,226.291,1260.9752,230.2864,1256.9706,221.291,1260.9809" style="stroke: #A80036; stroke-width: 1.0;"/><text fill="#000000" font-family="sans-serif" font-size="13" lengthAdjust="spacingAndGlyphs" textLength="72" x="3016" y="769.0669">Agreement</text><text fill="#000000" font-family="sans-serif" font-size="13" lengthAdjust="spacingAndGlyphs" textLength="7" x="229.6526" y="1255.1014">*</text><!--link Document to Location--><path d="M2008.48,132.09 C2330.13,144.3 3164,187.14 3164,303 C3164,303 3164,303 3164,613 C3164,725.642 3149,753.358 3149,866 C3149,866 3149,866 3149,1091 C3149,1159.573 848.192,1173.3 537.548,1174.841 " fill="none" id="Document-Location" style="stroke: #A80036; stroke-width: 1.0;"/><polygon fill="#A80036" points="532.263,1174.867,541.2823,1178.8232,537.2629,1174.8427,541.2435,1170.8233,532.263,1174.867" style="stroke: #A80036; stroke-width: 1.0;"/><text fill="#000000" font-family="sans-serif" font-size="13" lengthAdjust="spacingAndGlyphs" textLength="81" x="3161" y="718.0669">PlaceOfIssue</text><text fill="#000000" font-family="sans-serif" font-size="13" lengthAdjust="spacingAndGlyphs" textLength="24" x="540.7219" y="1188.264">0..1</text><!--link Document to Reconciliation--><path d="M2008.51,128.61 C2264.03,131.82 2837.76,149.65 3006,244 C3034.76,260.13 3051,270.02 3051,303 C3051,303 3051,303 3051,613 C3051,639.256 3045.29,645.884 3048,672 C3054.7,736.592 3078,750.061 3078,815 C3078,815 3078,815 3078,1005 C3078,1059.1 1311.53,1084.196 985.429,1088.368 " fill="none" id="Document-Reconciliation" style="stroke: #A80036; stroke-width: 1.0;"/><polygon fill="#A80036" points="980.272,1088.434,989.3227,1092.318,985.2716,1088.3697,989.2198,1084.3186,980.272,1088.434" style="stroke: #A80036; stroke-width: 1.0;"/><text fill="#000000" font-family="sans-serif" font-size="13" lengthAdjust="spacingAndGlyphs" textLength="87" x="3049" y="667.0669">Reconciliation</text><text fill="#000000" font-family="sans-serif" font-size="13" lengthAdjust="spacingAndGlyphs" textLength="7" x="988.7836" y="1082.7849">*</text><!--link Document to LetterOfCredit--><path d="M2008.49,137.43 C2272.17,159.08 2863,217.16 2863,303 C2863,303 2863,303 2863,460 C2863,544.241 2831.63,768.5 2772,828 C2641.93,957.776 1270.44,995.467 985.62,1001.92 " fill="none" id="Document-LetterOfCredit" style="stroke: #A80036; stroke-width: 1.0;"/><polygon fill="#A80036" points="980.295,1002.04,989.383,1005.8358,985.2937,1001.9271,989.2024,997.8379,980.295,1002.04" style="stroke: #A80036; stroke-width: 1.0;"/><text fill="#000000" font-family="sans-serif" font-size="13" lengthAdjust="spacingAndGlyphs" textLength="90" x="2850" y="616.0669">LetterOfCredit</text><text fill="#000000" font-family="sans-serif" font-size="13" lengthAdjust="spacingAndGlyphs" textLength="8" x="988.8965" y="996.3232">1</text><!--link Document to DocumentPartyRole--><path d="M2008.35,139.19 C2257.03,163.23 2792,224.13 2792,303 C2792,303 2792,303 2792,460 C2792,502.49 2775.59,510.606 2766,552 C2754.79,600.408 2746,612.31 2746,662 C2746,662 2746,662 2746,817 C2746,906.922 1319.41,916.012 984.687,916.907 " fill="none" id="Document-DocumentPartyRole" style="stroke: #A80036; stroke-width: 1.0;"/><polygon fill="#A80036" points="979.36,916.921,988.3703,920.8978,984.36,916.9081,988.3497,912.8979,979.36,916.921" style="stroke: #A80036; stroke-width: 1.0;"/><text fill="#000000" font-family="sans-serif" font-size="13" lengthAdjust="spacingAndGlyphs" textLength="60" x="2767" y="565.0669">PartyRole</text><text fill="#000000" font-family="sans-serif" font-size="13" lengthAdjust="spacingAndGlyphs" textLength="7" x="987.6" y="911.8305">*</text><!--link Document to Transport--><path d="M2008.46,130.05 C2231.22,137.13 2675,168.15 2675,303 C2675,303 2675,303 2675,664 C2675,713.018 2717.26,738.94 2683,774 C2651.72,806.017 1209.47,813.728 953.601,814.845 " fill="none" id="Document-Transport" style="stroke: #A80036; stroke-width: 1.0;"/><polygon fill="#A80036" points="948.487,814.867,957.5052,818.8258,953.4869,814.8441,957.4686,810.8259,948.487,814.867" style="stroke: #A80036; stroke-width: 1.0;"/><text fill="#000000" font-family="sans-serif" font-size="13" lengthAdjust="spacingAndGlyphs" textLength="61" x="2676" y="514.0669">Transport</text><text fill="#000000" font-family="sans-serif" font-size="13" lengthAdjust="spacingAndGlyphs" textLength="8" x="956.6326" y="808.8446">1</text><!--link Document to Guarantee--><path d="M2008.27,137.44 C2149.14,151.03 2365.78,181.65 2416,244 C2465.07,304.92 2429.25,342.908 2416,420 C2402.58,498.067 2380.02,628.027 2317,672 C2261.01,711.067 1207.69,713.054 983.667,713.033 " fill="none" id="Document-Guarantee" style="stroke: #A80036; stroke-width: 1.0;"/><polygon fill="#A80036" points="978.531,713.033,987.531,717.033,983.531,713.033,987.531,709.033,978.531,713.033" style="stroke: #A80036; stroke-width: 1.0;"/><text fill="#000000" font-family="sans-serif" font-size="13" lengthAdjust="spacingAndGlyphs" textLength="68" x="2411" y="463.0669">Guarantee</text><text fill="#000000" font-family="sans-serif" font-size="13" lengthAdjust="spacingAndGlyphs" textLength="7" x="986.7358" y="707.1642">*</text><!--link Document to GenericIdentification--><path d="M2008.37,161.26 C2133.53,200.81 2298.06,273.3 2223,366 C2063.33,563.181 1223.41,602.097 969.665,609.394 " fill="none" id="Document-GenericIdentification" style="stroke: #A80036; stroke-width: 1.0;"/><polygon fill="#A80036" points="964.509,609.54,973.6185,613.2839,969.507,609.3986,973.3923,605.2871,964.509,609.54" style="stroke: #A80036; stroke-width: 1.0;"/><text fill="#000000" font-family="sans-serif" font-size="13" lengthAdjust="spacingAndGlyphs" textLength="148" x="2191" y="412.0669">DocumentIdentification</text><text fill="#000000" font-family="sans-serif" font-size="13" lengthAdjust="spacingAndGlyphs" textLength="8" x="972.7483" y="604.3491">1</text><!--link Document to Evidence--><path d="M2008.63,166.74 C2111.1,204.9 2229.96,267.84 2167,340 C2085.56,433.344 1161.83,494.907 967.674,506.867 " fill="none" id="Document-Evidence" style="stroke: #A80036; stroke-width: 1.0;"/><polygon fill="#A80036" points="962.683,507.174,971.9108,510.6162,967.6736,506.8682,971.4216,502.6311,962.683,507.174" style="stroke: #A80036; stroke-width: 1.0;"/><text fill="#000000" font-family="sans-serif" font-size="13" lengthAdjust="spacingAndGlyphs" textLength="57" x="2156" y="361.0669">Evidence</text><text fill="#000000" font-family="sans-serif" font-size="13" lengthAdjust="spacingAndGlyphs" textLength="7" x="971.3143" y="500.3596">*</text><!--link Document to CommercialTrade--><path d="M1995.65,213.62 C2035.73,254.31 2063.1,302.19 2027,340 C1980.73,388.475 888.909,392.202 822,396 C788.469,397.903 751.107,400.382 720.523,402.504 " fill="none" id="Document-CommercialTrade" style="stroke: #A80036; stroke-width: 1.0;"/><polygon fill="#A80036" points="715.285,402.868,724.541,406.2336,720.2729,402.5209,723.9856,398.2529,715.285,402.868" style="stroke: #A80036; stroke-width: 1.0;"/><text fill="#000000" font-family="sans-serif" font-size="13" lengthAdjust="spacingAndGlyphs" textLength="113" x="2044" y="308.0669">CommercialTrade</text><text fill="#000000" font-family="sans-serif" font-size="13" lengthAdjust="spacingAndGlyphs" textLength="7" x="723.0731" y="397.1988">*</text><!--link Document to Presentation--><path d="M2008.42,139.14 C2154.24,154.61 2384.13,187.3 2448,244 C2523.69,311.187 2509.15,368.818 2489,468 C2484.58,489.761 2450,537.794 2450,560 C2450,560 2450,560 2450,715 C2450,803.25 951.644,793.678 864,804 C859.929,804.479 855.719,805.06 851.501,805.7 " fill="none" id="Document-Presentation" style="stroke: #A80036; stroke-width: 1.0;"/><polygon fill="#A80036" points="846.554,806.478,856.0657,809.033,851.4934,805.7021,854.8243,801.1299,846.554,806.478" style="stroke: #A80036; stroke-width: 1.0;"/><text fill="#000000" font-family="sans-serif" font-size="13" lengthAdjust="spacingAndGlyphs" textLength="81" x="2476" y="514.0669">Presentation</text><text fill="#000000" font-family="sans-serif" font-size="13" lengthAdjust="spacingAndGlyphs" textLength="24" x="854.6768" y="799.91">0..1</text><!--link Document to RegisteredContract--><path d="M2008.54,153.76 C2179.84,194.84 2455.57,284.61 2349,420 C2302.06,479.642 1169.23,657.229 875.198,702.437 " fill="none" id="Document-RegisteredContract" style="stroke: #A80036; stroke-width: 1.0;"/><polygon fill="#A80036" points="870.087,703.222,879.5905,705.8074,875.0289,702.4619,878.3743,697.9004,870.087,703.222" style="stroke: #A80036; stroke-width: 1.0;"/><text fill="#000000" font-family="sans-serif" font-size="13" lengthAdjust="spacingAndGlyphs" textLength="103" x="2274" y="463.0669">RelatedContract</text><text fill="#000000" font-family="sans-serif" font-size="13" lengthAdjust="spacingAndGlyphs" textLength="8" x="877.9596" y="697.0694">1</text><!--link InsuranceCertificate to Location--><path d="M1961.61,316.093 C1976.56,324.365 1998.38,335.054 2019,340 C2107.23,361.161 2133.85,331.122 2223,348 C2358.48,373.648 2398.81,377.336 2516,450 C2613.75,510.613 2577.63,581.8 2649,672 C2691.44,725.645 2888,797.594 2888,866 C2888,866 2888,866 2888,1091 C2888,1152.56 831.251,1172.225 537.704,1174.718 " fill="none" id="InsuranceCertificate-Location" style="stroke: #A80036; stroke-width: 1.0;"/><polygon fill="#A80036" points="532.295,1174.764,541.3278,1178.6893,537.2948,1174.7226,541.2615,1170.6896,532.295,1174.764" style="stroke: #A80036; stroke-width: 1.0;"/><text fill="#000000" font-family="sans-serif" font-size="13" lengthAdjust="spacingAndGlyphs" textLength="107" x="2802" y="769.0669">ClaimsPayableAt</text><text fill="#000000" font-family="sans-serif" font-size="13" lengthAdjust="spacingAndGlyphs" textLength="8" x="540.7628" y="1168.3571">1</text><!--link ContactPoint to GenericIdentification--><path d="M708.04,139.05 C748.147,155.44 818.269,190.19 854,244 C868.756,266.22 865,276.33 865,303 C865,303 865,303 865,511 C865,542.088 879.202,576.136 888.684,595.403 " fill="none" id="ContactPoint-GenericIdentification" style="stroke: #A80036; stroke-width: 1.0;"/><polygon fill="#A80036" points="890.981,599.973,890.5124,590.1353,888.7352,595.5057,883.3648,593.7285,890.981,599.973" style="stroke: #A80036; stroke-width: 1.0;"/><text fill="#000000" font-family="sans-serif" font-size="13" lengthAdjust="spacingAndGlyphs" textLength="81" x="866" y="412.0669">Identification</text><text fill="#000000" font-family="sans-serif" font-size="13" lengthAdjust="spacingAndGlyphs" textLength="8" x="878.1073" y="589.0119">1</text><!--link ContactPoint to ContactPoint--><path d="M691.417,114.8 C718.637,96.23 756,100.3 756,127 C756,152.24 722.612,157.26 695.966,142.05 " fill="none" id="ContactPoint-ContactPoint" style="stroke: #A80036; stroke-width: 1.0;"/><polygon fill="#A80036" points="691.417,139.2,696.9315,147.3603,695.6578,141.8487,701.1694,140.575,691.417,139.2" style="stroke: #A80036; stroke-width: 1.0;"/><text fill="#000000" font-family="sans-serif" font-size="13" lengthAdjust="spacingAndGlyphs" textLength="80" x="762" y="131.0669">MainContact</text><text fill="#000000" font-family="sans-serif" font-size="13" lengthAdjust="spacingAndGlyphs" textLength="8" x="685.6328" y="159.0561">1</text><!--link PaymentObligation to CommercialTrade--><path d="M658,316.306 C658,334.399 658,369.936 658,390.75 " fill="none" id="PaymentObligation-CommercialTrade" style="stroke: #A80036; stroke-width: 1.0;"/><polygon fill="#A80036" points="658,395.954,662,386.954,658,390.954,654,386.954,658,395.954" style="stroke: #A80036; stroke-width: 1.0;"/><text fill="#000000" font-family="sans-serif" font-size="13" lengthAdjust="spacingAndGlyphs" textLength="113" x="659" y="361.0669">CommercialTrade</text><text fill="#000000" font-family="sans-serif" font-size="13" lengthAdjust="spacingAndGlyphs" textLength="8" x="647.2813" y="384.9864">1</text><!--link Agreement to CommercialTrade--><path d="M148.637,1249.9951 C117.139,1237.7318 76,1214.5308 76,1177 C76,960 76,960 76,960 C76,896.42 80,880.58 80,817 C80,509 80,509 80,509 C80,449.569 142.772,466.031 200,450 C272.739,429.624 488.222,416.968 595.654,411.753 " fill="none" id="Agreement-CommercialTrade" style="stroke: #A80036; stroke-width: 1.0;"/><polygon fill="#A80036" points="600.687,411.51,591.5054,407.9466,595.6928,411.75,591.8894,415.9374,600.687,411.51" style="stroke: #A80036; stroke-width: 1.0;"/><text fill="#000000" font-family="sans-serif" font-size="13" lengthAdjust="spacingAndGlyphs" textLength="36" x="81" y="871.0669">Trade</text><text fill="#000000" font-family="sans-serif" font-size="13" lengthAdjust="spacingAndGlyphs" textLength="8" x="584.8715" y="407.0401">1</text><!--link Location to Transport--><path d="M473.61,1170.396 C433.355,1162.228 366,1141.08 366,1091 C366,917 366,917 366,917 C366,804.799 752.388,846.82 863,828 C867.409,827.25 872.013,826.389 876.579,825.487 " fill="none" id="Location-Transport" style="stroke: #A80036; stroke-width: 1.0;"/><polygon fill="#A80036" points="881.508,824.495,871.8954,822.3506,876.6064,825.4822,873.4749,830.1932,881.508,824.495" style="stroke: #A80036; stroke-width: 1.0;"/><text fill="#000000" font-family="sans-serif" font-size="13" lengthAdjust="spacingAndGlyphs" textLength="201" x="367" y="1008.0669">DepartureTransportParameters</text><text fill="#000000" font-family="sans-serif" font-size="13" lengthAdjust="spacingAndGlyphs" textLength="24" x="854.6609" y="820.5808">0..1</text><!--link Location to Transport--><path d="M532.39,1170.396 C572.645,1162.228 640,1141.08 640,1091 C640,917 640,917 640,917 C640,892.114 801.114,846.738 876.702,826.818 " fill="none" id="Location-Transport" style="stroke: #A80036; stroke-width: 1.0;"/><polygon fill="#A80036" points="881.555,825.544,871.8343,823.9606,876.7189,826.8137,873.8658,831.6984,881.555,825.544" style="stroke: #A80036; stroke-width: 1.0;"/><text fill="#000000" font-family="sans-serif" font-size="13" lengthAdjust="spacingAndGlyphs" textLength="209" x="641" y="1008.0669">DestinationTransportParameters</text><text fill="#000000" font-family="sans-serif" font-size="13" lengthAdjust="spacingAndGlyphs" textLength="24" x="854.7194" y="841.8142">0..1</text><!--link Location to Transport--><path d="M473.638,1170.473 C389.217,1156.018 155.333,1105.132 211,992 C254.094,904.42 293.631,892.336 385,858 C484.629,820.56 757.545,842.385 863,828 C867.431,827.396 872.049,826.626 876.623,825.775 " fill="none" id="Location-Transport" style="stroke: #A80036; stroke-width: 1.0;"/><polygon fill="#A80036" points="881.559,824.823,871.9649,822.5974,876.6492,825.7687,873.478,830.453,881.559,824.823" style="stroke: #A80036; stroke-width: 1.0;"/><text fill="#000000" font-family="sans-serif" font-size="13" lengthAdjust="spacingAndGlyphs" textLength="109" x="212" y="1008.0669">RelatedTransport</text><text fill="#000000" font-family="sans-serif" font-size="13" lengthAdjust="spacingAndGlyphs" textLength="8" x="865.6001" y="845.7076">1</text><!--link Location to GenericIdentification--><path d="M473.727,1171.004 C409.289,1161.658 257.959,1136.52 221,1102 C154.326,1039.727 108.791,981.505 160,906 C313.05,680.338 670.316,628.473 824.278,616.554 " fill="none" id="Location-GenericIdentification" style="stroke: #A80036; stroke-width: 1.0;"/><polygon fill="#A80036" points="829.668,616.147,820.3919,612.8373,824.6822,616.5241,820.9954,620.8145,829.668,616.147" style="stroke: #A80036; stroke-width: 1.0;"/><text fill="#000000" font-family="sans-serif" font-size="13" lengthAdjust="spacingAndGlyphs" textLength="81" x="161" y="922.0669">Identification</text><text fill="#000000" font-family="sans-serif" font-size="13" lengthAdjust="spacingAndGlyphs" textLength="7" x="814.7977" y="611.8068">*</text><!--link GenericIdentification to RegisteredContract--><path d="M846.808,624.091 C831.03,630.196 815.311,639.592 806,654 C797.925,666.496 799.013,683.805 801.466,696.443 " fill="none" id="GenericIdentification-RegisteredContract" style="stroke: #A80036; stroke-width: 1.0;"/><polygon fill="#A80036" points="802.578,701.546,804.5707,691.9008,801.5138,696.6606,796.7541,693.6036,802.578,701.546" style="stroke: #A80036; stroke-width: 1.0;"/><text fill="#000000" font-family="sans-serif" font-size="13" lengthAdjust="spacingAndGlyphs" textLength="113" x="807" y="667.0669">RelatedCertificate</text><text fill="#000000" font-family="sans-serif" font-size="13" lengthAdjust="spacingAndGlyphs" textLength="8" x="790.8935" y="690.96">1</text></g></svg>