<?xml version="1.0" encoding="UTF-8" standalone="no"?><svg xmlns="http://www.w3.org/2000/svg" xmlns:xlink="http://www.w3.org/1999/xlink" contentScriptType="application/ecmascript" contentStyleType="text/css" height="478px" preserveAspectRatio="none" style="width:741px;height:478px;" version="1.1" viewBox="0 0 741 478" width="741px" zoomAndPan="magnify"><defs><filter height="300%" id="f113e0voml4ogn" width="300%" x="-1" y="-1"><feGaussianBlur result="blurOut" stdDeviation="2.0"/><feColorMatrix in="blurOut" result="blurOut2" type="matrix" values="0 0 0 0 0 0 0 0 0 0 0 0 0 0 0 0 0 0 .4 0"/><feOffset dx="4.0" dy="4.0" in="blurOut2" result="blurOut3"/><feBlend in="SourceGraphic" in2="blurOut3" mode="normal"/></filter></defs><g><!--cluster ##21519--><!--cluster ##21528--><!--cluster ##21537--><!--class Role--><a target="_top" xlink:actuate="onRequest" xlink:href="../Role.html" xlink:show="new" xlink:title="Role of a party in an activity." xlink:type="simple"><rect fill="#FEFEEE" filter="url(#f113e0voml4ogn)" height="44.7734" id="Role" style="stroke: #A80036; stroke-width: 1.5;" width="175" x="51.75" y="40.5"/><rect fill="#FEFEEE" height="23.9688" style="stroke: #A80036; stroke-width: 1.5;" width="175" x="51.75" y="40.5"/><text fill="#000000" font-family="sans-serif" font-size="12" lengthAdjust="spacingAndGlyphs" textLength="27" x="125.75" y="56.6387">Role</text><line style="stroke: #A80036; stroke-width: 1.5;" x1="52.75" x2="225.75" y1="64.4688" y2="64.4688"/><ellipse cx="62.75" cy="76.3711" fill="#84BE84" rx="3" ry="3" style="stroke: #038048; stroke-width: 1.0;"/><text fill="#000000" font-family="sans-serif" font-size="11" lengthAdjust="spacingAndGlyphs" textLength="53" x="71.75" y="78.6792">PartyRole</text><text fill="#000000" font-family="sans-serif" font-size="11" font-style="italic" lengthAdjust="spacingAndGlyphs" textLength="92" x="128.75" y="78.6792">(PartyRoleCode)</text></a><!--class ChequePartyRole--><a target="_top" xlink:actuate="onRequest" xlink:href="../ChequePartyRole.html" xlink:show="new" xlink:title="Role played by a party in the context of a payment by cheque." xlink:type="simple"><rect fill="#FEFEEE" filter="url(#f113e0voml4ogn)" height="23.9688" id="ChequePartyRole" style="stroke: #A80036; stroke-width: 1.5;" width="113" x="98.75" y="166"/><rect fill="#FEFEEE" height="23.9688" style="stroke: #A80036; stroke-width: 1.5;" width="113" x="98.75" y="166"/><text fill="#000000" font-family="sans-serif" font-size="12" lengthAdjust="spacingAndGlyphs" textLength="107" x="101.75" y="182.1387">ChequePartyRole</text></a><!--class Drawer--><a target="_top" xlink:actuate="onRequest" xlink:href="../Drawer.html" xlink:show="new" xlink:title="Account owner that issues a cheque ordering the drawee bank to pay a specific amount, upon demand, to the payee." xlink:type="simple"><rect fill="#FEFECE" filter="url(#f113e0voml4ogn)" height="23.9688" id="Drawer" style="stroke: #A80036; stroke-width: 1.5;" width="50" x="130" y="270"/><rect fill="#FEFECE" height="23.9688" style="stroke: #A80036; stroke-width: 1.5;" width="50" x="130" y="270"/><text fill="#000000" font-family="sans-serif" font-size="12" lengthAdjust="spacingAndGlyphs" textLength="44" x="133" y="286.1387">Drawer</text></a><!--class RolePlayer--><a target="_top" xlink:actuate="onRequest" xlink:href="../RolePlayer.html" xlink:show="new" xlink:title="Type of entity that plays a specific role in a specific context." xlink:type="simple"><rect fill="#EEEEEE" filter="url(#f113e0voml4ogn)" height="23.9688" id="RolePlayer" style="stroke: #A80036; stroke-width: 1.5;" width="71" x="550.75" y="444"/><rect fill="#EEEEEE" height="23.9688" style="stroke: #A80036; stroke-width: 1.5;" width="71" x="550.75" y="444"/><text fill="#000000" font-family="sans-serif" font-size="12" lengthAdjust="spacingAndGlyphs" textLength="65" x="553.75" y="460.1387">RolePlayer</text></a><!--class ContactPersonRole--><a target="_top" xlink:actuate="onRequest" xlink:href="../ContactPersonRole.html" xlink:show="new" xlink:title="Person to be contacted in a given organisation. In the corporate action domain (including meeting notifications), it is the contact person at the party organising the meeting, at the issuer or at an intermediary." xlink:type="simple"><rect fill="#EEEEEE" filter="url(#f113e0voml4ogn)" height="23.9688" id="ContactPersonRole" style="stroke: #A80036; stroke-width: 1.5;" width="126" x="543" y="358"/><rect fill="#EEEEEE" height="23.9688" style="stroke: #A80036; stroke-width: 1.5;" width="126" x="543" y="358"/><text fill="#000000" font-family="sans-serif" font-size="12" lengthAdjust="spacingAndGlyphs" textLength="120" x="546" y="374.1387">ContactPersonRole</text></a><!--class CounterpartyRisk--><a target="_top" xlink:actuate="onRequest" xlink:href="../CounterpartyRisk.html" xlink:show="new" xlink:title="Calculation of the exposure amount that one party has vis-a-vis one counterparty or a central system, based on its credit risk." xlink:type="simple"><rect fill="#EEEEEE" filter="url(#f113e0voml4ogn)" height="23.9688" id="CounterpartyRisk" style="stroke: #A80036; stroke-width: 1.5;" width="113" x="555.75" y="270"/><rect fill="#EEEEEE" height="23.9688" style="stroke: #A80036; stroke-width: 1.5;" width="113" x="555.75" y="270"/><text fill="#000000" font-family="sans-serif" font-size="12" lengthAdjust="spacingAndGlyphs" textLength="107" x="558.75" y="286.1387">CounterpartyRisk</text></a><!--class Entry--><a target="_top" xlink:actuate="onRequest" xlink:href="../Entry.html" xlink:show="new" xlink:title="Posting to an account that results in an increase or decrease to a balance." xlink:type="simple"><rect fill="#EEEEEE" filter="url(#f113e0voml4ogn)" height="23.9688" id="Entry" style="stroke: #A80036; stroke-width: 1.5;" width="38" x="543" y="166"/><rect fill="#EEEEEE" height="23.9688" style="stroke: #A80036; stroke-width: 1.5;" width="38" x="543" y="166"/><text fill="#000000" font-family="sans-serif" font-size="12" lengthAdjust="spacingAndGlyphs" textLength="32" x="546" y="182.1387">Entry</text></a><!--class Cheque--><a target="_top" xlink:actuate="onRequest" xlink:href="../Cheque.html" xlink:show="new" xlink:title="Negotiable instrument instructing a financial institution to pay a specific amount of a specific currency from the account of the drawer with that institution." xlink:type="simple"><rect fill="#EEEEEE" filter="url(#f113e0voml4ogn)" height="23.9688" id="Cheque" style="stroke: #A80036; stroke-width: 1.5;" width="54" x="283" y="270"/><rect fill="#EEEEEE" height="23.9688" style="stroke: #A80036; stroke-width: 1.5;" width="54" x="283" y="270"/><text fill="#000000" font-family="sans-serif" font-size="12" lengthAdjust="spacingAndGlyphs" textLength="48" x="286" y="286.1387">Cheque</text></a><!--entity ##21540--><!--link Role to ChequePartyRole--><path d="M144.884,105.559 C147.943,127.159 151.446,151.898 153.423,165.865 " fill="none" id="Role-ChequePartyRole" style="stroke: #A80036; stroke-width: 1.0;"/><polygon fill="none" points="137.92,106.304,142.047,85.52,151.782,104.342,137.92,106.304" style="stroke: #A80036; stroke-width: 1.0;"/><!--link ChequePartyRole to Drawer--><path d="M155,210.595 C155,230.825 155,255.843 155,269.954 " fill="none" id="ChequePartyRole-Drawer" style="stroke: #A80036; stroke-width: 1.0;"/><polygon fill="none" points="148,210.306,155,190.306,162,210.305,148,210.306" style="stroke: #A80036; stroke-width: 1.0;"/><!--link ContactPersonRole to RolePlayer--><!--link CounterpartyRisk to ContactPersonRole--><!--link Entry to CounterpartyRisk--><!--link Role to RolePlayer--><path d="M226.382,65.893 C304.59,72.796 407,97.092 407,177 C407,177 407,177 407,371 C407,431.8572 492.842,448.7099 545.634,453.3199 " fill="none" id="Role-RolePlayer" style="stroke: #A80036; stroke-width: 1.0;"/><polygon fill="#A80036" points="550.635,453.7288,541.9919,449.0068,545.6517,453.3202,541.3382,456.98,550.635,453.7288" style="stroke: #A80036; stroke-width: 1.0;"/><text fill="#000000" font-family="sans-serif" font-size="13" lengthAdjust="spacingAndGlyphs" textLength="39" x="408" y="286.0669">Player</text><text fill="#000000" font-family="sans-serif" font-size="13" lengthAdjust="spacingAndGlyphs" textLength="7" x="535.7402" y="447.9585">*</text><!--link Role to ContactPersonRole--><path d="M226.3,70.19 C301.196,77.133 401.826,90.87 433,116 C478.622,152.776 455.131,186.452 483,238 C503.52,275.956 508.125,286.868 538,318 C551.704,332.281 569.714,345.597 583.757,355.039 " fill="none" id="Role-ContactPersonRole" style="stroke: #A80036; stroke-width: 1.0;"/><polygon fill="#A80036" points="587.978,357.842,582.6906,349.5328,583.8118,355.0774,578.2672,356.1987,587.978,357.842" style="stroke: #A80036; stroke-width: 1.0;"/><text fill="#000000" font-family="sans-serif" font-size="13" lengthAdjust="spacingAndGlyphs" textLength="121" x="484" y="233.0669">ContactPersonRole</text><text fill="#000000" font-family="sans-serif" font-size="13" lengthAdjust="spacingAndGlyphs" textLength="8" x="571.0642" y="346.8359">1</text><!--link Role to CounterpartyRisk--><path d="M226.492,66.124 C337.586,70.208 521.832,82.032 580,116 C611.056,134.136 625.871,219.234 626,220 C628.586,235.376 623.874,252.681 619.233,264.921 " fill="none" id="Role-CounterpartyRisk" style="stroke: #A80036; stroke-width: 1.0;"/><polygon fill="#A80036" points="617.27,269.837,624.322,262.9618,619.124,265.1934,616.8923,259.9954,617.27,269.837" style="stroke: #A80036; stroke-width: 1.0;"/><text fill="#000000" font-family="sans-serif" font-size="13" lengthAdjust="spacingAndGlyphs" textLength="109" x="620" y="182.0669">CounterpartyRisk</text><text fill="#000000" font-family="sans-serif" font-size="13" lengthAdjust="spacingAndGlyphs" textLength="24" x="589.5269" y="258.8292">0..1</text><!--link Role to Entry--><path d="M226.335,68.33 C322.049,74.409 468.353,88.027 516,116 C533.881,126.498 547.077,146.922 554.642,161.234 " fill="none" id="Role-Entry" style="stroke: #A80036; stroke-width: 1.0;"/><polygon fill="#A80036" points="556.991,165.83,556.4571,155.9956,554.7156,161.3777,549.3335,159.6363,556.991,165.83" style="stroke: #A80036; stroke-width: 1.0;"/><text fill="#000000" font-family="sans-serif" font-size="13" lengthAdjust="spacingAndGlyphs" textLength="33" x="537" y="129.0669">Entry</text><text fill="#000000" font-family="sans-serif" font-size="13" lengthAdjust="spacingAndGlyphs" textLength="8" x="544.5504" y="154.8198">1</text><!--link ChequePartyRole to Cheque--><path d="M171.883,190.11 C200.301,208.811 257.629,246.536 288.744,267.012 " fill="none" id="ChequePartyRole-Cheque" style="stroke: #A80036; stroke-width: 1.0;"/><polygon fill="#A80036" points="293.138,269.904,287.8183,261.6154,288.9611,267.1556,283.4209,268.2984,293.138,269.904" style="stroke: #A80036; stroke-width: 1.0;"/><text fill="#000000" font-family="sans-serif" font-size="13" lengthAdjust="spacingAndGlyphs" textLength="49" x="243" y="233.0669">Cheque</text><text fill="#000000" font-family="sans-serif" font-size="13" lengthAdjust="spacingAndGlyphs" textLength="7" x="277.7948" y="258.9192">*</text></g></svg>