<?xml version="1.0" encoding="UTF-8" standalone="no"?><svg xmlns="http://www.w3.org/2000/svg" xmlns:xlink="http://www.w3.org/1999/xlink" contentScriptType="application/ecmascript" contentStyleType="text/css" height="478px" preserveAspectRatio="none" style="width:791px;height:478px;" version="1.1" viewBox="0 0 791 478" width="791px" zoomAndPan="magnify"><defs><filter height="300%" id="fsveqpe2d936y" width="300%" x="-1" y="-1"><feGaussianBlur result="blurOut" stdDeviation="2.0"/><feColorMatrix in="blurOut" result="blurOut2" type="matrix" values="0 0 0 0 0 0 0 0 0 0 0 0 0 0 0 0 0 0 .4 0"/><feOffset dx="4.0" dy="4.0" in="blurOut2" result="blurOut3"/><feBlend in="SourceGraphic" in2="blurOut3" mode="normal"/></filter></defs><g><!--cluster ##21531--><!--cluster ##21540--><!--cluster ##21549--><!--class Role--><a target="_top" xlink:actuate="onRequest" xlink:href="../Role.html" xlink:show="new" xlink:title="Role of a party in an activity." xlink:type="simple"><rect fill="#FEFEEE" filter="url(#fsveqpe2d936y)" height="44.7734" id="Role" style="stroke: #A80036; stroke-width: 1.5;" width="175" x="51.75" y="40.5"/><rect fill="#FEFEEE" height="23.9688" style="stroke: #A80036; stroke-width: 1.5;" width="175" x="51.75" y="40.5"/><text fill="#000000" font-family="sans-serif" font-size="12" lengthAdjust="spacingAndGlyphs" textLength="27" x="125.75" y="56.6387">Role</text><line style="stroke: #A80036; stroke-width: 1.5;" x1="52.75" x2="225.75" y1="64.4688" y2="64.4688"/><ellipse cx="62.75" cy="76.3711" fill="#84BE84" rx="3" ry="3" style="stroke: #038048; stroke-width: 1.0;"/><text fill="#000000" font-family="sans-serif" font-size="11" lengthAdjust="spacingAndGlyphs" textLength="53" x="71.75" y="78.6792">PartyRole</text><text fill="#000000" font-family="sans-serif" font-size="11" font-style="italic" lengthAdjust="spacingAndGlyphs" textLength="92" x="128.75" y="78.6792">(PartyRoleCode)</text></a><!--class SecuritiesOrderPartyRole--><a target="_top" xlink:actuate="onRequest" xlink:href="../SecuritiesOrderPartyRole.html" xlink:show="new" xlink:title="Role played by a party associated with an order to buy or sell securities." xlink:type="simple"><rect fill="#FEFEEE" filter="url(#fsveqpe2d936y)" height="23.9688" id="SecuritiesOrderPartyRole" style="stroke: #A80036; stroke-width: 1.5;" width="162" x="62" y="166"/><rect fill="#FEFEEE" height="23.9688" style="stroke: #A80036; stroke-width: 1.5;" width="162" x="62" y="166"/><text fill="#000000" font-family="sans-serif" font-size="12" lengthAdjust="spacingAndGlyphs" textLength="156" x="65" y="182.1387">SecuritiesOrderPartyRole</text></a><!--class EnteringFirm--><a target="_top" xlink:actuate="onRequest" xlink:href="../EnteringFirm.html" xlink:show="new" xlink:title="Broker that has recorded or reported an execution of a trade. When an entering firm that is not a party to a trade enters the trade into a trade recording system, any inquiries can be directed to the appropriate source." xlink:type="simple"><rect fill="#FEFECE" filter="url(#fsveqpe2d936y)" height="23.9688" id="EnteringFirm" style="stroke: #A80036; stroke-width: 1.5;" width="85" x="100.75" y="270"/><rect fill="#FEFECE" height="23.9688" style="stroke: #A80036; stroke-width: 1.5;" width="85" x="100.75" y="270"/><text fill="#000000" font-family="sans-serif" font-size="12" lengthAdjust="spacingAndGlyphs" textLength="79" x="103.75" y="286.1387">EnteringFirm</text></a><!--class RolePlayer--><a target="_top" xlink:actuate="onRequest" xlink:href="../RolePlayer.html" xlink:show="new" xlink:title="Type of entity that plays a specific role in a specific context." xlink:type="simple"><rect fill="#EEEEEE" filter="url(#fsveqpe2d936y)" height="23.9688" id="RolePlayer" style="stroke: #A80036; stroke-width: 1.5;" width="71" x="600.75" y="444"/><rect fill="#EEEEEE" height="23.9688" style="stroke: #A80036; stroke-width: 1.5;" width="71" x="600.75" y="444"/><text fill="#000000" font-family="sans-serif" font-size="12" lengthAdjust="spacingAndGlyphs" textLength="65" x="603.75" y="460.1387">RolePlayer</text></a><!--class ContactPersonRole--><a target="_top" xlink:actuate="onRequest" xlink:href="../ContactPersonRole.html" xlink:show="new" xlink:title="Person to be contacted in a given organisation. In the corporate action domain (including meeting notifications) , it is the contact person at the party organising the meeting, at the issuer or at an intermediary." xlink:type="simple"><rect fill="#EEEEEE" filter="url(#fsveqpe2d936y)" height="23.9688" id="ContactPersonRole" style="stroke: #A80036; stroke-width: 1.5;" width="126" x="593" y="358"/><rect fill="#EEEEEE" height="23.9688" style="stroke: #A80036; stroke-width: 1.5;" width="126" x="593" y="358"/><text fill="#000000" font-family="sans-serif" font-size="12" lengthAdjust="spacingAndGlyphs" textLength="120" x="596" y="374.1387">ContactPersonRole</text></a><!--class CounterpartyRisk--><a target="_top" xlink:actuate="onRequest" xlink:href="../CounterpartyRisk.html" xlink:show="new" xlink:title="Calculation of the exposure amount that one party has vis-a-vis one counterparty or a central system, based on its credit risk." xlink:type="simple"><rect fill="#EEEEEE" filter="url(#fsveqpe2d936y)" height="23.9688" id="CounterpartyRisk" style="stroke: #A80036; stroke-width: 1.5;" width="113" x="605.75" y="270"/><rect fill="#EEEEEE" height="23.9688" style="stroke: #A80036; stroke-width: 1.5;" width="113" x="605.75" y="270"/><text fill="#000000" font-family="sans-serif" font-size="12" lengthAdjust="spacingAndGlyphs" textLength="107" x="608.75" y="286.1387">CounterpartyRisk</text></a><!--class Entry--><a target="_top" xlink:actuate="onRequest" xlink:href="../Entry.html" xlink:show="new" xlink:title="Posting to an account that results in an increase or decrease to a balance." xlink:type="simple"><rect fill="#EEEEEE" filter="url(#fsveqpe2d936y)" height="23.9688" id="Entry" style="stroke: #A80036; stroke-width: 1.5;" width="38" x="593" y="166"/><rect fill="#EEEEEE" height="23.9688" style="stroke: #A80036; stroke-width: 1.5;" width="38" x="593" y="166"/><text fill="#000000" font-family="sans-serif" font-size="12" lengthAdjust="spacingAndGlyphs" textLength="32" x="596" y="182.1387">Entry</text></a><!--class SecuritiesOrder--><a target="_top" xlink:actuate="onRequest" xlink:href="../SecuritiesOrder.html" xlink:show="new" xlink:title="Intention to transfer an ownership of a financial instrument." xlink:type="simple"><rect fill="#EEEEEE" filter="url(#fsveqpe2d936y)" height="23.9688" id="SecuritiesOrder" style="stroke: #A80036; stroke-width: 1.5;" width="103" x="283.75" y="270"/><rect fill="#EEEEEE" height="23.9688" style="stroke: #A80036; stroke-width: 1.5;" width="103" x="283.75" y="270"/><text fill="#000000" font-family="sans-serif" font-size="12" lengthAdjust="spacingAndGlyphs" textLength="97" x="286.75" y="286.1387">SecuritiesOrder</text></a><!--entity ##21552--><!--link Role to SecuritiesOrderPartyRole--><path d="M140.471,105.559 C141.236,127.159 142.111,151.898 142.606,165.865 " fill="none" id="Role-SecuritiesOrderPartyRole" style="stroke: #A80036; stroke-width: 1.0;"/><polygon fill="none" points="133.474,105.756,139.762,85.52,147.465,105.26,133.474,105.756" style="stroke: #A80036; stroke-width: 1.0;"/><!--link SecuritiesOrderPartyRole to EnteringFirm--><path d="M143,210.595 C143,230.825 143,255.843 143,269.954 " fill="none" id="SecuritiesOrderPartyRole-EnteringFirm" style="stroke: #A80036; stroke-width: 1.0;"/><polygon fill="none" points="136,210.306,143,190.306,150,210.305,136,210.306" style="stroke: #A80036; stroke-width: 1.0;"/><!--link ContactPersonRole to RolePlayer--><!--link CounterpartyRisk to ContactPersonRole--><!--link Entry to CounterpartyRisk--><!--link Role to RolePlayer--><path d="M226.316,77.507 C320.456,94.598 457,127.857 457,177 C457,177 457,177 457,371 C457,431.8572 542.842,448.7099 595.634,453.3199 " fill="none" id="Role-RolePlayer" style="stroke: #A80036; stroke-width: 1.0;"/><polygon fill="#A80036" points="600.635,453.7288,591.9919,449.0068,595.6517,453.3202,591.3382,456.98,600.635,453.7288" style="stroke: #A80036; stroke-width: 1.0;"/><text fill="#000000" font-family="sans-serif" font-size="13" lengthAdjust="spacingAndGlyphs" textLength="39" x="458" y="286.0669">Player</text><text fill="#000000" font-family="sans-serif" font-size="13" lengthAdjust="spacingAndGlyphs" textLength="7" x="585.7402" y="447.9585">*</text><!--link Role to ContactPersonRole--><path d="M226.479,67.537 C315.019,72.783 444.232,85.542 483,116 C529.079,152.202 505.131,186.452 533,238 C553.52,275.956 558.125,286.868 588,318 C601.704,332.281 619.714,345.597 633.757,355.039 " fill="none" id="Role-ContactPersonRole" style="stroke: #A80036; stroke-width: 1.0;"/><polygon fill="#A80036" points="637.978,357.842,632.6906,349.5328,633.8118,355.0774,628.2672,356.1987,637.978,357.842" style="stroke: #A80036; stroke-width: 1.0;"/><text fill="#000000" font-family="sans-serif" font-size="13" lengthAdjust="spacingAndGlyphs" textLength="121" x="534" y="233.0669">ContactPersonRole</text><text fill="#000000" font-family="sans-serif" font-size="13" lengthAdjust="spacingAndGlyphs" textLength="8" x="621.0642" y="346.8359">1</text><!--link Role to CounterpartyRisk--><path d="M226.473,64.868 C348.762,67.484 563.336,77.599 630,116 C661.01,133.863 675.754,218.535 676,220 C678.586,235.376 673.874,252.681 669.233,264.921 " fill="none" id="Role-CounterpartyRisk" style="stroke: #A80036; stroke-width: 1.0;"/><polygon fill="#A80036" points="667.27,269.837,674.322,262.9618,669.124,265.1934,666.8923,259.9954,667.27,269.837" style="stroke: #A80036; stroke-width: 1.0;"/><text fill="#000000" font-family="sans-serif" font-size="13" lengthAdjust="spacingAndGlyphs" textLength="109" x="670" y="182.0669">CounterpartyRisk</text><text fill="#000000" font-family="sans-serif" font-size="13" lengthAdjust="spacingAndGlyphs" textLength="24" x="639.5269" y="258.8292">0..1</text><!--link Role to Entry--><path d="M226.435,66.66 C334.201,71.297 509.954,83.692 566,116 C583.964,126.356 597.142,146.811 604.68,161.169 " fill="none" id="Role-Entry" style="stroke: #A80036; stroke-width: 1.0;"/><polygon fill="#A80036" points="607.019,165.781,606.5127,155.9452,604.7561,161.3224,599.3789,159.5658,607.019,165.781" style="stroke: #A80036; stroke-width: 1.0;"/><text fill="#000000" font-family="sans-serif" font-size="13" lengthAdjust="spacingAndGlyphs" textLength="33" x="587" y="129.0669">Entry</text><text fill="#000000" font-family="sans-serif" font-size="13" lengthAdjust="spacingAndGlyphs" textLength="8" x="594.7128" y="155.0119">1</text><!--link SecuritiesOrderPartyRole to SecuritiesOrder--><path d="M163.913,190.11 C199.403,208.964 271.294,247.156 309.611,267.512 " fill="none" id="SecuritiesOrderPartyRole-SecuritiesOrder" style="stroke: #A80036; stroke-width: 1.0;"/><polygon fill="#A80036" points="314.113,269.904,308.0414,262.1493,309.6974,267.5583,304.2883,269.2143,314.113,269.904" style="stroke: #A80036; stroke-width: 1.0;"/><text fill="#000000" font-family="sans-serif" font-size="13" lengthAdjust="spacingAndGlyphs" textLength="99" x="252" y="233.0669">SecuritiesOrder</text><text fill="#000000" font-family="sans-serif" font-size="13" lengthAdjust="spacingAndGlyphs" textLength="7" x="297.3003" y="258.9192">*</text></g></svg>