<?xml version="1.0" encoding="UTF-8" standalone="no"?><svg xmlns="http://www.w3.org/2000/svg" xmlns:xlink="http://www.w3.org/1999/xlink" contentScriptType="application/ecmascript" contentStyleType="text/css" height="568px" preserveAspectRatio="none" style="width:1331px;height:568px;" version="1.1" viewBox="0 0 1331 568" width="1331px" zoomAndPan="magnify"><defs><filter height="300%" id="fc9676ksivzr" width="300%" x="-1" y="-1"><feGaussianBlur result="blurOut" stdDeviation="2.0"/><feColorMatrix in="blurOut" result="blurOut2" type="matrix" values="0 0 0 0 0 0 0 0 0 0 0 0 0 0 0 0 0 0 .4 0"/><feOffset dx="4.0" dy="4.0" in="blurOut2" result="blurOut3"/><feBlend in="SourceGraphic" in2="blurOut3" mode="normal"/></filter></defs><g><!--cluster ##12012--><!--cluster ##12024--><!--cluster ##12033--><!--cluster ##12038--><!--cluster ##12041--><!--class Role--><a target="_top" xlink:actuate="onRequest" xlink:href="../Role.html" xlink:show="new" xlink:title="Role of a party in an activity." xlink:type="simple"><rect fill="#FEFEEE" filter="url(#fc9676ksivzr)" height="44.7734" id="Role" style="stroke: #A80036; stroke-width: 1.5;" width="175" x="176.75" y="40.5"/><rect fill="#FEFEEE" height="23.9688" style="stroke: #A80036; stroke-width: 1.5;" width="175" x="176.75" y="40.5"/><text fill="#000000" font-family="sans-serif" font-size="12" lengthAdjust="spacingAndGlyphs" textLength="27" x="250.75" y="56.6387">Role</text><line style="stroke: #A80036; stroke-width: 1.5;" x1="177.75" x2="350.75" y1="64.4688" y2="64.4688"/><ellipse cx="187.75" cy="76.3711" fill="#84BE84" rx="3" ry="3" style="stroke: #038048; stroke-width: 1.0;"/><text fill="#000000" font-family="sans-serif" font-size="11" lengthAdjust="spacingAndGlyphs" textLength="53" x="196.75" y="78.6792">PartyRole</text><text fill="#000000" font-family="sans-serif" font-size="11" font-style="italic" lengthAdjust="spacingAndGlyphs" textLength="92" x="253.75" y="78.6792">(PartyRoleCode)</text></a><!--class TradePartyRole--><a target="_top" xlink:actuate="onRequest" xlink:href="../TradePartyRole.html" xlink:show="new" xlink:title="Trading party in a commercial, securities, treasury trade. This role may also represent parties which play different intermediary roles in a trade." xlink:type="simple"><rect fill="#FEFEEE" filter="url(#fc9676ksivzr)" height="57.5781" id="TradePartyRole" style="stroke: #A80036; stroke-width: 1.5;" width="279" x="72.75" y="164"/><rect fill="#FEFEEE" height="23.9688" style="stroke: #A80036; stroke-width: 1.5;" width="279" x="72.75" y="164"/><text fill="#000000" font-family="sans-serif" font-size="12" lengthAdjust="spacingAndGlyphs" textLength="95" x="164.75" y="180.1387">TradePartyRole</text><line style="stroke: #A80036; stroke-width: 1.5;" x1="73.75" x2="350.75" y1="187.9688" y2="187.9688"/><ellipse cx="83.75" cy="199.8711" fill="#84BE84" rx="3" ry="3" style="stroke: #038048; stroke-width: 1.0;"/><text fill="#000000" font-family="sans-serif" font-size="11" lengthAdjust="spacingAndGlyphs" textLength="120" x="92.75" y="202.1792">TradingPartyCapacity</text><text fill="#000000" font-family="sans-serif" font-size="11" font-style="italic" lengthAdjust="spacingAndGlyphs" textLength="129" x="216.75" y="202.1792">(TradingCapacityCode)</text><ellipse cx="83.75" cy="212.6758" fill="#84BE84" rx="3" ry="3" style="stroke: #038048; stroke-width: 1.0;"/><text fill="#000000" font-family="sans-serif" font-size="11" lengthAdjust="spacingAndGlyphs" textLength="80" x="92.75" y="214.9839">BuyerOrSeller</text><text fill="#000000" font-family="sans-serif" font-size="11" font-style="italic" lengthAdjust="spacingAndGlyphs" textLength="104" x="176.75" y="214.9839">(OptionPartyCode)</text></a><!--class Broker--><a target="_top" xlink:actuate="onRequest" xlink:href="../Broker.html" xlink:show="new" xlink:title="Party that identifies a broker when required (for example, authorised broker, prime broker, etc)." xlink:type="simple"><rect fill="#FEFEEE" filter="url(#fc9676ksivzr)" height="44.7734" id="Broker" style="stroke: #A80036; stroke-width: 1.5;" width="313" x="38.75" y="300.5"/><rect fill="#FEFEEE" height="23.9688" style="stroke: #A80036; stroke-width: 1.5;" width="313" x="38.75" y="300.5"/><text fill="#000000" font-family="sans-serif" font-size="12" lengthAdjust="spacingAndGlyphs" textLength="41" x="174.75" y="316.6387">Broker</text><line style="stroke: #A80036; stroke-width: 1.5;" x1="39.75" x2="350.75" y1="324.4688" y2="324.4688"/><ellipse cx="49.75" cy="336.3711" fill="#84BE84" rx="3" ry="3" style="stroke: #038048; stroke-width: 1.0;"/><text fill="#000000" font-family="sans-serif" font-size="11" lengthAdjust="spacingAndGlyphs" textLength="122" x="58.75" y="338.6792">RemunerationAmount</text><text fill="#000000" font-family="sans-serif" font-size="11" font-style="italic" lengthAdjust="spacingAndGlyphs" textLength="161" x="184.75" y="338.6792">(ActiveCurrencyAndAmount)</text></a><!--class ExecutingBrokerRole--><a target="_top" xlink:actuate="onRequest" xlink:href="../ExecutingBrokerRole.html" xlink:show="new" xlink:title="Party responsible for executing an order (e.g. an executing or give-up broker)." xlink:type="simple"><rect fill="#FEFECE" filter="url(#fc9676ksivzr)" height="23.9688" id="ExecutingBrokerRole" style="stroke: #A80036; stroke-width: 1.5;" width="135" x="127.75" y="426"/><rect fill="#FEFECE" height="23.9688" style="stroke: #A80036; stroke-width: 1.5;" width="135" x="127.75" y="426"/><text fill="#000000" font-family="sans-serif" font-size="12" lengthAdjust="spacingAndGlyphs" textLength="129" x="130.75" y="442.1387">ExecutingBrokerRole</text></a><!--class RolePlayer--><a target="_top" xlink:actuate="onRequest" xlink:href="../RolePlayer.html" xlink:show="new" xlink:title="Type of entity that plays a specific role in a specific context." xlink:type="simple"><rect fill="#EEEEEE" filter="url(#fc9676ksivzr)" height="23.9688" id="RolePlayer" style="stroke: #A80036; stroke-width: 1.5;" width="71" x="906.75" y="534"/><rect fill="#EEEEEE" height="23.9688" style="stroke: #A80036; stroke-width: 1.5;" width="71" x="906.75" y="534"/><text fill="#000000" font-family="sans-serif" font-size="12" lengthAdjust="spacingAndGlyphs" textLength="65" x="909.75" y="550.1387">RolePlayer</text></a><!--class ContactPersonRole--><a target="_top" xlink:actuate="onRequest" xlink:href="../ContactPersonRole.html" xlink:show="new" xlink:title="Person to be contacted in a given organisation. In the corporate action domain (including meeting notifications) , it is the contact person at the party organising the meeting, at the issuer or at an intermediary." xlink:type="simple"><rect fill="#EEEEEE" filter="url(#fc9676ksivzr)" height="23.9688" id="ContactPersonRole" style="stroke: #A80036; stroke-width: 1.5;" width="126" x="859" y="426"/><rect fill="#EEEEEE" height="23.9688" style="stroke: #A80036; stroke-width: 1.5;" width="126" x="859" y="426"/><text fill="#000000" font-family="sans-serif" font-size="12" lengthAdjust="spacingAndGlyphs" textLength="120" x="862" y="442.1387">ContactPersonRole</text></a><!--class CounterpartyRisk--><a target="_top" xlink:actuate="onRequest" xlink:href="../CounterpartyRisk.html" xlink:show="new" xlink:title="Calculation of the exposure amount that one party has vis-a-vis one counterparty or a central system, based on its credit risk." xlink:type="simple"><rect fill="#EEEEEE" filter="url(#fc9676ksivzr)" height="23.9688" id="CounterpartyRisk" style="stroke: #A80036; stroke-width: 1.5;" width="113" x="871.75" y="311"/><rect fill="#EEEEEE" height="23.9688" style="stroke: #A80036; stroke-width: 1.5;" width="113" x="871.75" y="311"/><text fill="#000000" font-family="sans-serif" font-size="12" lengthAdjust="spacingAndGlyphs" textLength="107" x="874.75" y="327.1387">CounterpartyRisk</text></a><!--class Entry--><a target="_top" xlink:actuate="onRequest" xlink:href="../Entry.html" xlink:show="new" xlink:title="Posting to an account that results in an increase or decrease to a balance." xlink:type="simple"><rect fill="#EEEEEE" filter="url(#fc9676ksivzr)" height="23.9688" id="Entry" style="stroke: #A80036; stroke-width: 1.5;" width="38" x="859" y="181"/><rect fill="#EEEEEE" height="23.9688" style="stroke: #A80036; stroke-width: 1.5;" width="38" x="859" y="181"/><text fill="#000000" font-family="sans-serif" font-size="12" lengthAdjust="spacingAndGlyphs" textLength="32" x="862" y="197.1387">Entry</text></a><!--class Account--><a target="_top" xlink:actuate="onRequest" xlink:href="../Account.html" xlink:show="new" xlink:title="Record of transactions in specific types of assets, maintained by a servicing party on behalf of one or more owning parties. Business relationship between an account servicer and one or more account owners." xlink:type="simple"><rect fill="#EEEEEE" filter="url(#fc9676ksivzr)" height="23.9688" id="Account" style="stroke: #A80036; stroke-width: 1.5;" width="57" x="544.75" y="426"/><rect fill="#EEEEEE" height="23.9688" style="stroke: #A80036; stroke-width: 1.5;" width="57" x="544.75" y="426"/><text fill="#000000" font-family="sans-serif" font-size="12" lengthAdjust="spacingAndGlyphs" textLength="51" x="547.75" y="442.1387">Account</text></a><!--class Trade--><a target="_top" xlink:actuate="onRequest" xlink:href="../Trade.html" xlink:show="new" xlink:title="Result of an order between at least two parties. A trade relates to the delivery of goods and services, cash or securities." xlink:type="simple"><rect fill="#EEEEEE" filter="url(#fc9676ksivzr)" height="23.9688" id="Trade" style="stroke: #A80036; stroke-width: 1.5;" width="42" x="544.5" y="311"/><rect fill="#EEEEEE" height="23.9688" style="stroke: #A80036; stroke-width: 1.5;" width="42" x="544.5" y="311"/><text fill="#000000" font-family="sans-serif" font-size="12" lengthAdjust="spacingAndGlyphs" textLength="36" x="547.5" y="327.1387">Trade</text></a><!--class Commission--><a target="_top" xlink:actuate="onRequest" xlink:href="../Commission.html" xlink:show="new" xlink:title="Amount of money due to a party as compensation for a service." xlink:type="simple"><rect fill="#EEEEEE" filter="url(#fc9676ksivzr)" height="23.9688" id="Commission" style="stroke: #A80036; stroke-width: 1.5;" width="80" x="408" y="426"/><rect fill="#EEEEEE" height="23.9688" style="stroke: #A80036; stroke-width: 1.5;" width="80" x="408" y="426"/><text fill="#000000" font-family="sans-serif" font-size="12" lengthAdjust="spacingAndGlyphs" textLength="74" x="411" y="442.1387">Commission</text></a><!--class ExecutingTrader--><a target="_top" xlink:actuate="onRequest" xlink:href="../ExecutingTrader.html" xlink:show="new" xlink:title="Trader that executes a trade for an organisation." xlink:type="simple"><rect fill="#EEEEEE" filter="url(#fc9676ksivzr)" height="23.9688" id="ExecutingTrader" style="stroke: #A80036; stroke-width: 1.5;" width="108" x="141" y="534"/><rect fill="#EEEEEE" height="23.9688" style="stroke: #A80036; stroke-width: 1.5;" width="108" x="141" y="534"/><text fill="#000000" font-family="sans-serif" font-size="12" lengthAdjust="spacingAndGlyphs" textLength="102" x="144" y="550.1387">ExecutingTrader</text></a><!--link Role to TradePartyRole--><path d="M247.621,104.318 C239.751,123.689 230.513,146.43 223.417,163.897 " fill="none" id="Role-TradePartyRole" style="stroke: #A80036; stroke-width: 1.0;"/><polygon fill="none" points="241.166,101.608,255.179,85.713,254.137,106.877,241.166,101.608" style="stroke: #A80036; stroke-width: 1.0;"/><!--link TradePartyRole to Broker--><path d="M205.602,242.171 C202.943,262.192 199.991,284.418 197.879,300.323 " fill="none" id="TradePartyRole-Broker" style="stroke: #A80036; stroke-width: 1.0;"/><polygon fill="none" points="198.697,240.994,208.269,222.09,212.575,242.838,198.697,240.994" style="stroke: #A80036; stroke-width: 1.0;"/><!--link Broker to ExecutingBrokerRole--><path d="M195,365.559 C195,387.159 195,411.898 195,425.865 " fill="none" id="Broker-ExecutingBrokerRole" style="stroke: #A80036; stroke-width: 1.0;"/><polygon fill="none" points="188,365.52,195,345.52,202,365.52,188,365.52" style="stroke: #A80036; stroke-width: 1.0;"/><!--link ContactPersonRole to RolePlayer--><!--link CounterpartyRisk to ContactPersonRole--><!--link Entry to CounterpartyRisk--><!--link Trade to Account--><!--link Role to RolePlayer--><path d="M351.417,65.904 C597.619,72.42 1279,98.865 1279,192 C1279,192 1279,192 1279,439 C1279,500.488 1072.27,530.683 982.642,540.8845 " fill="none" id="Role-RolePlayer" style="stroke: #A80036; stroke-width: 1.0;"/><polygon fill="#A80036" points="977.428,541.4705,986.8185,544.44,982.3967,540.9119,985.9248,536.4901,977.428,541.4705" style="stroke: #A80036; stroke-width: 1.0;"/><text fill="#000000" font-family="sans-serif" font-size="13" lengthAdjust="spacingAndGlyphs" textLength="39" x="1280" y="327.0669">Player</text><text fill="#000000" font-family="sans-serif" font-size="13" lengthAdjust="spacingAndGlyphs" textLength="7" x="985.8888" y="534.7051">*</text><!--link Role to ContactPersonRole--><path d="M351.331,67.387 C548.932,75.994 1016.59,102.027 1060,157 C1130.89,246.772 991.077,378.848 939.814,422.447 " fill="none" id="Role-ContactPersonRole" style="stroke: #A80036; stroke-width: 1.0;"/><polygon fill="#A80036" points="935.707,425.911,945.1656,423.1661,939.5291,422.6874,940.0078,417.0508,935.707,425.911" style="stroke: #A80036; stroke-width: 1.0;"/><text fill="#000000" font-family="sans-serif" font-size="13" lengthAdjust="spacingAndGlyphs" textLength="121" x="1073" y="265.0669">ContactPersonRole</text><text fill="#000000" font-family="sans-serif" font-size="13" lengthAdjust="spacingAndGlyphs" textLength="8" x="929.7" y="414.9286">1</text><!--link Role to CounterpartyRisk--><path d="M351.5,63.588 C510.876,64.839 839.002,77.302 914,157 C952.712,198.138 940.246,273.329 932.358,306.065 " fill="none" id="Role-CounterpartyRisk" style="stroke: #A80036; stroke-width: 1.0;"/><polygon fill="#A80036" points="931.14,310.942,937.2018,303.1796,932.3517,306.091,929.4402,301.2409,931.14,310.942" style="stroke: #A80036; stroke-width: 1.0;"/><text fill="#000000" font-family="sans-serif" font-size="13" lengthAdjust="spacingAndGlyphs" textLength="109" x="941" y="197.0669">CounterpartyRisk</text><text fill="#000000" font-family="sans-serif" font-size="13" lengthAdjust="spacingAndGlyphs" textLength="24" x="902.6647" y="299.9703">0..1</text><!--link Role to Entry--><path d="M351.319,82.203 C494.19,111.987 770.359,169.56 853.645,186.923 " fill="none" id="Role-Entry" style="stroke: #A80036; stroke-width: 1.0;"/><polygon fill="#A80036" points="858.848,188.007,850.8534,182.2549,853.9532,186.9869,849.2212,190.0867,858.848,188.007" style="stroke: #A80036; stroke-width: 1.0;"/><text fill="#000000" font-family="sans-serif" font-size="13" lengthAdjust="spacingAndGlyphs" textLength="33" x="591" y="129.0669">Entry</text><text fill="#000000" font-family="sans-serif" font-size="13" lengthAdjust="spacingAndGlyphs" textLength="8" x="843.0552" y="180.3021">1</text><!--link TradePartyRole to Account--><path d="M351.496,208.836 C450.548,222.614 571.206,247.13 602,287 C633.241,327.449 601.022,391.99 583.175,421.438 " fill="none" id="TradePartyRole-Account" style="stroke: #A80036; stroke-width: 1.0;"/><polygon fill="#A80036" points="580.446,425.854,588.5795,420.3001,583.0741,421.6004,581.7738,416.0951,580.446,425.854" style="stroke: #A80036; stroke-width: 1.0;"/><text fill="#000000" font-family="sans-serif" font-size="13" lengthAdjust="spacingAndGlyphs" textLength="52" x="617" y="327.0669">Account</text><text fill="#000000" font-family="sans-serif" font-size="13" lengthAdjust="spacingAndGlyphs" textLength="7" x="573.3728" y="414.852">*</text><!--link TradePartyRole to Trade--><path d="M289.467,222.09 C368.898,250.892 487.892,294.04 539.552,312.772 " fill="none" id="TradePartyRole-Trade" style="stroke: #A80036; stroke-width: 1.0;"/><polygon fill="#A80036" points="544.338,314.508,537.2425,307.6776,539.6379,312.8023,534.5133,315.1977,544.338,314.508" style="stroke: #A80036; stroke-width: 1.0;"/><text fill="#000000" font-family="sans-serif" font-size="13" lengthAdjust="spacingAndGlyphs" textLength="36" x="422" y="265.0669">Trade</text><text fill="#000000" font-family="sans-serif" font-size="13" lengthAdjust="spacingAndGlyphs" textLength="7" x="529.4413" y="306.0303">*</text><!--link Broker to Commission--><path d="M240.602,345.566 C270.886,359.715 311.618,378.412 348,394 C356.8,397.77 359.169,398.303 368,402 C384.71,408.995 403.25,417.086 418.272,423.725 " fill="none" id="Broker-Commission" style="stroke: #A80036; stroke-width: 1.0;"/><polygon fill="#A80036" points="423.223,425.917,416.6133,418.6155,418.6512,423.8925,413.3742,425.9304,423.223,425.917" style="stroke: #A80036; stroke-width: 1.0;"/><text fill="#000000" font-family="sans-serif" font-size="13" lengthAdjust="spacingAndGlyphs" textLength="79" x="349" y="389.0669">Commission</text><text fill="#000000" font-family="sans-serif" font-size="13" lengthAdjust="spacingAndGlyphs" textLength="7" x="405.159" y="414.9367">*</text><!--link ExecutingBrokerRole to ExecutingTrader--><path d="M195,450.344 C195,469.152 195,506.867 195,528.5827 " fill="none" id="ExecutingBrokerRole-ExecutingTrader" style="stroke: #A80036; stroke-width: 1.0;"/><polygon fill="#A80036" points="195,533.7377,199,524.7377,195,528.7377,191,524.7377,195,533.7377" style="stroke: #A80036; stroke-width: 1.0;"/><text fill="#000000" font-family="sans-serif" font-size="13" lengthAdjust="spacingAndGlyphs" textLength="103" x="196" y="497.0669">ExecutingTrader</text><text fill="#000000" font-family="sans-serif" font-size="13" lengthAdjust="spacingAndGlyphs" textLength="8" x="184.3438" y="522.9543">1</text><!--link Entry to Account--><path d="M868.113,205.259 C834.703,243.114 725.655,365.046 682,394 C658.674,409.471 628.934,420.733 606.414,427.842 " fill="none" id="Entry-Account" style="stroke: #A80036; stroke-width: 1.0;"/><polygon fill="#A80036" points="601.434,429.383,611.2144,430.5423,606.2103,427.9042,608.8484,422.9002,601.434,429.383" style="stroke: #A80036; stroke-width: 1.0;"/><text fill="#000000" font-family="sans-serif" font-size="13" lengthAdjust="spacingAndGlyphs" textLength="52" x="795" y="327.0669">Account</text><text fill="#000000" font-family="sans-serif" font-size="13" lengthAdjust="spacingAndGlyphs" textLength="7" x="609.553" y="421.0847">*</text><!--link Account to Account--><path d="M601.508,428.938 C619.181,426.753 636,429.773 636,438 C636,445.391 622.424,448.58 606.85,447.567 " fill="none" id="Account-Account" style="stroke: #A80036; stroke-width: 1.0;"/><polygon fill="#A80036" points="601.508,447.062,610.0922,451.8902,606.4859,447.5319,610.8441,443.9256,601.508,447.062" style="stroke: #A80036; stroke-width: 1.0;"/><text fill="#000000" font-family="sans-serif" font-size="13" lengthAdjust="spacingAndGlyphs" textLength="94" x="642" y="442.0669">ParentAccount</text><text fill="#000000" font-family="sans-serif" font-size="13" lengthAdjust="spacingAndGlyphs" textLength="8" x="609.7741" y="443.2939">1</text><!--link Trade to Commission--><path d="M544.217,326.018 C515.751,330.024 465.595,341.808 443,376 C434.312,389.148 437.369,407.536 441.478,420.679 " fill="none" id="Trade-Commission" style="stroke: #A80036; stroke-width: 1.0;"/><polygon fill="#A80036" points="443.145,425.611,444.0521,415.804,441.5437,420.8743,436.4734,418.366,443.145,425.611" style="stroke: #A80036; stroke-width: 1.0;"/><text fill="#000000" font-family="sans-serif" font-size="13" lengthAdjust="spacingAndGlyphs" textLength="115" x="444" y="389.0669">TradeCommission</text><text fill="#000000" font-family="sans-serif" font-size="13" lengthAdjust="spacingAndGlyphs" textLength="7" x="432.1631" y="415.0457">*</text></g></svg>