<?xml version="1.0" encoding="UTF-8" standalone="no"?><svg xmlns="http://www.w3.org/2000/svg" xmlns:xlink="http://www.w3.org/1999/xlink" contentScriptType="application/ecmascript" contentStyleType="text/css" height="548px" preserveAspectRatio="none" style="width:1321px;height:548px;" version="1.1" viewBox="0 0 1321 548" width="1321px" zoomAndPan="magnify"><defs><filter height="300%" id="f9a1vuvy1j7x9" width="300%" x="-1" y="-1"><feGaussianBlur result="blurOut" stdDeviation="2.0"/><feColorMatrix in="blurOut" result="blurOut2" type="matrix" values="0 0 0 0 0 0 0 0 0 0 0 0 0 0 0 0 0 0 .4 0"/><feOffset dx="4.0" dy="4.0" in="blurOut2" result="blurOut3"/><feBlend in="SourceGraphic" in2="blurOut3" mode="normal"/></filter></defs><g><!--cluster ##21618--><!--cluster ##21630--><!--cluster ##21639--><!--cluster ##21644--><!--cluster ##21647--><!--class Role--><a target="_top" xlink:actuate="onRequest" xlink:href="../Role.html" xlink:show="new" xlink:title="Role of a party in an activity." xlink:type="simple"><rect fill="#FEFEEE" filter="url(#f9a1vuvy1j7x9)" height="44.7734" id="Role" style="stroke: #A80036; stroke-width: 1.5;" width="175" x="142.75" y="40.5"/><rect fill="#FEFEEE" height="23.9688" style="stroke: #A80036; stroke-width: 1.5;" width="175" x="142.75" y="40.5"/><text fill="#000000" font-family="sans-serif" font-size="12" lengthAdjust="spacingAndGlyphs" textLength="27" x="216.75" y="56.6387">Role</text><line style="stroke: #A80036; stroke-width: 1.5;" x1="143.75" x2="316.75" y1="64.4688" y2="64.4688"/><ellipse cx="153.75" cy="76.3711" fill="#84BE84" rx="3" ry="3" style="stroke: #038048; stroke-width: 1.0;"/><text fill="#000000" font-family="sans-serif" font-size="11" lengthAdjust="spacingAndGlyphs" textLength="53" x="162.75" y="78.6792">PartyRole</text><text fill="#000000" font-family="sans-serif" font-size="11" font-style="italic" lengthAdjust="spacingAndGlyphs" textLength="92" x="219.75" y="78.6792">(PartyRoleCode)</text></a><!--class TradePartyRole--><a target="_top" xlink:actuate="onRequest" xlink:href="../TradePartyRole.html" xlink:show="new" xlink:title="Trading party in a commercial, securities, treasury trade. This role may also represent parties which play different intermediary roles in a trade." xlink:type="simple"><rect fill="#FEFEEE" filter="url(#f9a1vuvy1j7x9)" height="57.5781" id="TradePartyRole" style="stroke: #A80036; stroke-width: 1.5;" width="279" x="38.75" y="164"/><rect fill="#FEFEEE" height="23.9688" style="stroke: #A80036; stroke-width: 1.5;" width="279" x="38.75" y="164"/><text fill="#000000" font-family="sans-serif" font-size="12" lengthAdjust="spacingAndGlyphs" textLength="95" x="130.75" y="180.1387">TradePartyRole</text><line style="stroke: #A80036; stroke-width: 1.5;" x1="39.75" x2="316.75" y1="187.9688" y2="187.9688"/><ellipse cx="49.75" cy="199.8711" fill="#84BE84" rx="3" ry="3" style="stroke: #038048; stroke-width: 1.0;"/><text fill="#000000" font-family="sans-serif" font-size="11" lengthAdjust="spacingAndGlyphs" textLength="120" x="58.75" y="202.1792">TradingPartyCapacity</text><text fill="#000000" font-family="sans-serif" font-size="11" font-style="italic" lengthAdjust="spacingAndGlyphs" textLength="129" x="182.75" y="202.1792">(TradingCapacityCode)</text><ellipse cx="49.75" cy="212.6758" fill="#84BE84" rx="3" ry="3" style="stroke: #038048; stroke-width: 1.0;"/><text fill="#000000" font-family="sans-serif" font-size="11" lengthAdjust="spacingAndGlyphs" textLength="80" x="58.75" y="214.9839">BuyerOrSeller</text><text fill="#000000" font-family="sans-serif" font-size="11" font-style="italic" lengthAdjust="spacingAndGlyphs" textLength="104" x="142.75" y="214.9839">(OptionPartyCode)</text></a><!--class SecuritiesTradePartyRole--><a target="_top" xlink:actuate="onRequest" xlink:href="../SecuritiesTradePartyRole.html" xlink:show="new" xlink:title="Role played by a party in the context of a securities trade." xlink:type="simple"><rect fill="#FEFEEE" filter="url(#f9a1vuvy1j7x9)" height="23.9688" id="SecuritiesTradePartyRole" style="stroke: #A80036; stroke-width: 1.5;" width="163" x="139.75" y="302"/><rect fill="#FEFEEE" height="23.9688" style="stroke: #A80036; stroke-width: 1.5;" width="163" x="139.75" y="302"/><text fill="#000000" font-family="sans-serif" font-size="12" lengthAdjust="spacingAndGlyphs" textLength="157" x="142.75" y="318.1387">SecuritiesTradePartyRole</text></a><!--class ExecutingTrader--><a target="_top" xlink:actuate="onRequest" xlink:href="../ExecutingTrader.html" xlink:show="new" xlink:title="Trader that executes a trade for an organisation." xlink:type="simple"><rect fill="#FEFECE" filter="url(#f9a1vuvy1j7x9)" height="23.9688" id="ExecutingTrader" style="stroke: #A80036; stroke-width: 1.5;" width="108" x="167" y="406"/><rect fill="#FEFECE" height="23.9688" style="stroke: #A80036; stroke-width: 1.5;" width="108" x="167" y="406"/><text fill="#000000" font-family="sans-serif" font-size="12" lengthAdjust="spacingAndGlyphs" textLength="102" x="170" y="422.1387">ExecutingTrader</text></a><!--class RolePlayer--><a target="_top" xlink:actuate="onRequest" xlink:href="../RolePlayer.html" xlink:show="new" xlink:title="Type of entity that plays a specific role in a specific context." xlink:type="simple"><rect fill="#EEEEEE" filter="url(#f9a1vuvy1j7x9)" height="23.9688" id="RolePlayer" style="stroke: #A80036; stroke-width: 1.5;" width="71" x="896.75" y="514"/><rect fill="#EEEEEE" height="23.9688" style="stroke: #A80036; stroke-width: 1.5;" width="71" x="896.75" y="514"/><text fill="#000000" font-family="sans-serif" font-size="12" lengthAdjust="spacingAndGlyphs" textLength="65" x="899.75" y="530.1387">RolePlayer</text></a><!--class ContactPersonRole--><a target="_top" xlink:actuate="onRequest" xlink:href="../ContactPersonRole.html" xlink:show="new" xlink:title="Person to be contacted in a given organisation. In the corporate action domain (including meeting notifications) , it is the contact person at the party organising the meeting, at the issuer or at an intermediary." xlink:type="simple"><rect fill="#EEEEEE" filter="url(#f9a1vuvy1j7x9)" height="23.9688" id="ContactPersonRole" style="stroke: #A80036; stroke-width: 1.5;" width="126" x="849" y="406"/><rect fill="#EEEEEE" height="23.9688" style="stroke: #A80036; stroke-width: 1.5;" width="126" x="849" y="406"/><text fill="#000000" font-family="sans-serif" font-size="12" lengthAdjust="spacingAndGlyphs" textLength="120" x="852" y="422.1387">ContactPersonRole</text></a><!--class CounterpartyRisk--><a target="_top" xlink:actuate="onRequest" xlink:href="../CounterpartyRisk.html" xlink:show="new" xlink:title="Calculation of the exposure amount that one party has vis-a-vis one counterparty or a central system, based on its credit risk." xlink:type="simple"><rect fill="#EEEEEE" filter="url(#f9a1vuvy1j7x9)" height="23.9688" id="CounterpartyRisk" style="stroke: #A80036; stroke-width: 1.5;" width="113" x="861.75" y="302"/><rect fill="#EEEEEE" height="23.9688" style="stroke: #A80036; stroke-width: 1.5;" width="113" x="861.75" y="302"/><text fill="#000000" font-family="sans-serif" font-size="12" lengthAdjust="spacingAndGlyphs" textLength="107" x="864.75" y="318.1387">CounterpartyRisk</text></a><!--class Entry--><a target="_top" xlink:actuate="onRequest" xlink:href="../Entry.html" xlink:show="new" xlink:title="Posting to an account that results in an increase or decrease to a balance." xlink:type="simple"><rect fill="#EEEEEE" filter="url(#f9a1vuvy1j7x9)" height="23.9688" id="Entry" style="stroke: #A80036; stroke-width: 1.5;" width="38" x="849" y="181"/><rect fill="#EEEEEE" height="23.9688" style="stroke: #A80036; stroke-width: 1.5;" width="38" x="849" y="181"/><text fill="#000000" font-family="sans-serif" font-size="12" lengthAdjust="spacingAndGlyphs" textLength="32" x="852" y="197.1387">Entry</text></a><!--class Account--><a target="_top" xlink:actuate="onRequest" xlink:href="../Account.html" xlink:show="new" xlink:title="Record of transactions in specific types of assets, maintained by a servicing party on behalf of one or more owning parties. Business relationship between an account servicer and one or more account owners." xlink:type="simple"><rect fill="#EEEEEE" filter="url(#f9a1vuvy1j7x9)" height="23.9688" id="Account" style="stroke: #A80036; stroke-width: 1.5;" width="57" x="534.75" y="406"/><rect fill="#EEEEEE" height="23.9688" style="stroke: #A80036; stroke-width: 1.5;" width="57" x="534.75" y="406"/><text fill="#000000" font-family="sans-serif" font-size="12" lengthAdjust="spacingAndGlyphs" textLength="51" x="537.75" y="422.1387">Account</text></a><!--class Trade--><a target="_top" xlink:actuate="onRequest" xlink:href="../Trade.html" xlink:show="new" xlink:title="Result of an order between at least two parties. A trade relates to the delivery of goods and services, cash or securities." xlink:type="simple"><rect fill="#EEEEEE" filter="url(#f9a1vuvy1j7x9)" height="23.9688" id="Trade" style="stroke: #A80036; stroke-width: 1.5;" width="42" x="534.5" y="302"/><rect fill="#EEEEEE" height="23.9688" style="stroke: #A80036; stroke-width: 1.5;" width="42" x="534.5" y="302"/><text fill="#000000" font-family="sans-serif" font-size="12" lengthAdjust="spacingAndGlyphs" textLength="36" x="537.5" y="318.1387">Trade</text></a><!--class SecuritiesTrade--><a target="_top" xlink:actuate="onRequest" xlink:href="../SecuritiesTrade.html" xlink:show="new" xlink:title="Specifies trades linked to securities operations such as the exchange of securities, the lending of securities and the transactions related to investment funds." xlink:type="simple"><rect fill="#EEEEEE" filter="url(#f9a1vuvy1j7x9)" height="23.9688" id="SecuritiesTrade" style="stroke: #A80036; stroke-width: 1.5;" width="104" x="374" y="406"/><rect fill="#EEEEEE" height="23.9688" style="stroke: #A80036; stroke-width: 1.5;" width="104" x="374" y="406"/><text fill="#000000" font-family="sans-serif" font-size="12" lengthAdjust="spacingAndGlyphs" textLength="98" x="377" y="422.1387">SecuritiesTrade</text></a><!--class ExecutingBrokerRole--><a target="_top" xlink:actuate="onRequest" xlink:href="../ExecutingBrokerRole.html" xlink:show="new" xlink:title="Party responsible for executing an order (e.g. an executing or give-up broker)." xlink:type="simple"><rect fill="#EEEEEE" filter="url(#f9a1vuvy1j7x9)" height="23.9688" id="ExecutingBrokerRole" style="stroke: #A80036; stroke-width: 1.5;" width="135" x="153.75" y="514"/><rect fill="#EEEEEE" height="23.9688" style="stroke: #A80036; stroke-width: 1.5;" width="135" x="153.75" y="514"/><text fill="#000000" font-family="sans-serif" font-size="12" lengthAdjust="spacingAndGlyphs" textLength="129" x="156.75" y="530.1387">ExecutingBrokerRole</text></a><!--link Role to TradePartyRole--><path d="M213.621,104.318 C205.751,123.689 196.513,146.43 189.417,163.897 " fill="none" id="Role-TradePartyRole" style="stroke: #A80036; stroke-width: 1.0;"/><polygon fill="none" points="207.166,101.608,221.179,85.713,220.137,106.877,207.166,101.608" style="stroke: #A80036; stroke-width: 1.0;"/><!--link TradePartyRole to SecuritiesTradePartyRole--><path d="M195.031,241.132 C203.045,263.311 211.926,287.888 216.949,301.79 " fill="none" id="TradePartyRole-SecuritiesTradePartyRole" style="stroke: #A80036; stroke-width: 1.0;"/><polygon fill="none" points="188.404,243.39,188.19,222.201,201.571,238.632,188.404,243.39" style="stroke: #A80036; stroke-width: 1.0;"/><!--link SecuritiesTradePartyRole to ExecutingTrader--><path d="M221,346.595 C221,366.825 221,391.843 221,405.954 " fill="none" id="SecuritiesTradePartyRole-ExecutingTrader" style="stroke: #A80036; stroke-width: 1.0;"/><polygon fill="none" points="214,346.306,221,326.306,228,346.305,214,346.306" style="stroke: #A80036; stroke-width: 1.0;"/><!--link ContactPersonRole to RolePlayer--><!--link CounterpartyRisk to ContactPersonRole--><!--link Entry to CounterpartyRisk--><!--link Trade to Account--><!--link Role to RolePlayer--><path d="M317.689,65.65 C568.178,71.517 1269,96.47 1269,192 C1269,192 1269,192 1269,419 C1269,480.488 1062.27,510.683 972.642,520.8845 " fill="none" id="Role-RolePlayer" style="stroke: #A80036; stroke-width: 1.0;"/><polygon fill="#A80036" points="967.428,521.4705,976.8185,524.44,972.3967,520.9119,975.9248,516.4901,967.428,521.4705" style="stroke: #A80036; stroke-width: 1.0;"/><text fill="#000000" font-family="sans-serif" font-size="13" lengthAdjust="spacingAndGlyphs" textLength="39" x="1270" y="318.0669">Player</text><text fill="#000000" font-family="sans-serif" font-size="13" lengthAdjust="spacingAndGlyphs" textLength="7" x="975.8888" y="514.7051">*</text><!--link Role to ContactPersonRole--><path d="M317.607,67.075 C519.613,75.113 1004.262,100.19 1049,157 C1115.01,240.826 981.757,361.196 930.74,402.47 " fill="none" id="Role-ContactPersonRole" style="stroke: #A80036; stroke-width: 1.0;"/><polygon fill="#A80036" points="926.639,405.761,936.1622,403.2495,930.5392,402.6323,931.1563,397.0092,926.639,405.761" style="stroke: #A80036; stroke-width: 1.0;"/><text fill="#000000" font-family="sans-serif" font-size="13" lengthAdjust="spacingAndGlyphs" textLength="121" x="1058" y="265.0669">ContactPersonRole</text><text fill="#000000" font-family="sans-serif" font-size="13" lengthAdjust="spacingAndGlyphs" textLength="8" x="920.8319" y="394.9853">1</text><!--link Role to CounterpartyRisk--><path d="M317.459,63.114 C481.368,63.453 825.356,74.283 904,157 C940.309,195.19 929.67,264.954 922.354,296.606 " fill="none" id="Role-CounterpartyRisk" style="stroke: #A80036; stroke-width: 1.0;"/><polygon fill="#A80036" points="921.128,301.703,927.1229,293.8888,922.2979,296.8418,919.3449,292.0169,921.128,301.703" style="stroke: #A80036; stroke-width: 1.0;"/><text fill="#000000" font-family="sans-serif" font-size="13" lengthAdjust="spacingAndGlyphs" textLength="109" x="930" y="197.0669">CounterpartyRisk</text><text fill="#000000" font-family="sans-serif" font-size="13" lengthAdjust="spacingAndGlyphs" textLength="24" x="892.7751" y="290.9081">0..1</text><!--link Role to Entry--><path d="M317.373,81.529 C465.457,111.239 758.024,169.936 843.818,187.148 " fill="none" id="Role-Entry" style="stroke: #A80036; stroke-width: 1.0;"/><polygon fill="#A80036" points="848.932,188.174,840.8954,182.4808,844.0298,187.1898,839.3207,190.3243,848.932,188.174" style="stroke: #A80036; stroke-width: 1.0;"/><text fill="#000000" font-family="sans-serif" font-size="13" lengthAdjust="spacingAndGlyphs" textLength="33" x="570" y="129.0669">Entry</text><text fill="#000000" font-family="sans-serif" font-size="13" lengthAdjust="spacingAndGlyphs" textLength="8" x="832.862" y="180.3505">1</text><!--link TradePartyRole to Account--><path d="M317.465,203.694 C423.748,214.327 557.535,235.84 592,278 C621.645,314.265 591.308,373.27 573.698,401.281 " fill="none" id="TradePartyRole-Account" style="stroke: #A80036; stroke-width: 1.0;"/><polygon fill="#A80036" points="570.783,405.821,579.0117,400.409,573.4845,401.6137,572.2799,396.0866,570.783,405.821" style="stroke: #A80036; stroke-width: 1.0;"/><text fill="#000000" font-family="sans-serif" font-size="13" lengthAdjust="spacingAndGlyphs" textLength="52" x="606" y="318.0669">Account</text><text fill="#000000" font-family="sans-serif" font-size="13" lengthAdjust="spacingAndGlyphs" textLength="7" x="563.8256" y="394.8077">*</text><!--link TradePartyRole to Trade--><path d="M266.866,222.051 C352.487,249.077 476.594,288.251 529.531,304.961 " fill="none" id="TradePartyRole-Trade" style="stroke: #A80036; stroke-width: 1.0;"/><polygon fill="#A80036" points="534.428,306.507,527.0489,299.9841,529.6598,305.0024,524.6415,307.6133,534.428,306.507" style="stroke: #A80036; stroke-width: 1.0;"/><text fill="#000000" font-family="sans-serif" font-size="13" lengthAdjust="spacingAndGlyphs" textLength="36" x="413" y="265.0669">Trade</text><text fill="#000000" font-family="sans-serif" font-size="13" lengthAdjust="spacingAndGlyphs" textLength="7" x="519.5555" y="298.2978">*</text><!--link SecuritiesTradePartyRole to SecuritiesTrade--><path d="M243.329,326.11 C281.222,344.964 357.98,383.156 398.892,403.512 " fill="none" id="SecuritiesTradePartyRole-SecuritiesTrade" style="stroke: #A80036; stroke-width: 1.0;"/><polygon fill="#A80036" points="403.699,405.904,397.4234,398.3134,399.2226,403.6765,393.8595,405.4756,403.699,405.904" style="stroke: #A80036; stroke-width: 1.0;"/><text fill="#000000" font-family="sans-serif" font-size="13" lengthAdjust="spacingAndGlyphs" textLength="99" x="337" y="369.0669">SecuritiesTrade</text><text fill="#000000" font-family="sans-serif" font-size="13" lengthAdjust="spacingAndGlyphs" textLength="7" x="386.4862" y="394.9192">*</text><!--link ExecutingTrader to ExecutingBrokerRole--><path d="M221,430.344 C221,449.152 221,486.867 221,508.5827 " fill="none" id="ExecutingTrader-ExecutingBrokerRole" style="stroke: #A80036; stroke-width: 1.0;"/><polygon fill="#A80036" points="221,513.7377,225,504.7377,221,508.7377,217,504.7377,221,513.7377" style="stroke: #A80036; stroke-width: 1.0;"/><text fill="#000000" font-family="sans-serif" font-size="13" lengthAdjust="spacingAndGlyphs" textLength="104" x="222" y="477.0669">ExecutingBroker</text><text fill="#000000" font-family="sans-serif" font-size="13" lengthAdjust="spacingAndGlyphs" textLength="7" x="211.4266" y="502.9543">*</text><!--link Entry to Account--><path d="M856.798,205.32 C821.697,240.62 713.706,347.893 672,374 C648.435,388.752 618.966,400.008 596.613,407.296 " fill="none" id="Entry-Account" style="stroke: #A80036; stroke-width: 1.0;"/><polygon fill="#A80036" points="591.669,408.882,601.4603,409.9449,596.4305,407.3563,599.0191,402.3264,591.669,408.882" style="stroke: #A80036; stroke-width: 1.0;"/><text fill="#000000" font-family="sans-serif" font-size="13" lengthAdjust="spacingAndGlyphs" textLength="52" x="782" y="318.0669">Account</text><text fill="#000000" font-family="sans-serif" font-size="13" lengthAdjust="spacingAndGlyphs" textLength="7" x="599.8482" y="400.4553">*</text><!--link Account to Account--><path d="M591.508,408.938 C609.181,406.753 626,409.773 626,418 C626,425.391 612.424,428.58 596.85,427.567 " fill="none" id="Account-Account" style="stroke: #A80036; stroke-width: 1.0;"/><polygon fill="#A80036" points="591.508,427.062,600.0922,431.8902,596.4859,427.5319,600.8441,423.9256,591.508,427.062" style="stroke: #A80036; stroke-width: 1.0;"/><text fill="#000000" font-family="sans-serif" font-size="13" lengthAdjust="spacingAndGlyphs" textLength="94" x="632" y="422.0669">ParentAccount</text><text fill="#000000" font-family="sans-serif" font-size="13" lengthAdjust="spacingAndGlyphs" textLength="8" x="599.7741" y="423.2939">1</text></g></svg>