<?xml version="1.0" encoding="UTF-8" standalone="no"?><svg xmlns="http://www.w3.org/2000/svg" xmlns:xlink="http://www.w3.org/1999/xlink" contentScriptType="application/ecmascript" contentStyleType="text/css" height="702px" preserveAspectRatio="none" style="width:2606px;height:702px;" version="1.1" viewBox="0 0 2606 702" width="2606px" zoomAndPan="magnify"><defs><filter height="300%" id="fu6jisbfycn59" width="300%" x="-1" y="-1"><feGaussianBlur result="blurOut" stdDeviation="2.0"/><feColorMatrix in="blurOut" result="blurOut2" type="matrix" values="0 0 0 0 0 0 0 0 0 0 0 0 0 0 0 0 0 0 .4 0"/><feOffset dx="4.0" dy="4.0" in="blurOut2" result="blurOut3"/><feBlend in="SourceGraphic" in2="blurOut3" mode="normal"/></filter></defs><g><!--cluster ##22826--><!--cluster ##22838--><!--class Product--><a target="_top" xlink:actuate="onRequest" xlink:href="../Product.html" xlink:show="new" xlink:title="Item that is offered for sale. Products can be services or goods." xlink:type="simple"><rect fill="#FEFEEE" filter="url(#fu6jisbfycn59)" height="70.3828" id="Product" style="stroke: #A80036; stroke-width: 1.5;" width="171" x="1780.75" y="40"/><rect fill="#FEFEEE" height="23.9688" style="stroke: #A80036; stroke-width: 1.5;" width="171" x="1780.75" y="40"/><text fill="#000000" font-family="sans-serif" font-size="12" lengthAdjust="spacingAndGlyphs" textLength="49" x="1841.75" y="56.1387">Product</text><line style="stroke: #A80036; stroke-width: 1.5;" x1="1781.75" x2="1950.75" y1="63.9688" y2="63.9688"/><ellipse cx="1791.75" cy="75.8711" fill="#84BE84" rx="3" ry="3" style="stroke: #038048; stroke-width: 1.0;"/><text fill="#000000" font-family="sans-serif" font-size="11" lengthAdjust="spacingAndGlyphs" textLength="33" x="1800.75" y="78.1792">Name</text><text fill="#000000" font-family="sans-serif" font-size="11" font-style="italic" lengthAdjust="spacingAndGlyphs" textLength="70" x="1837.75" y="78.1792">(Max35Text)</text><ellipse cx="1791.75" cy="88.6758" fill="#84BE84" rx="3" ry="3" style="stroke: #038048; stroke-width: 1.0;"/><text fill="#000000" font-family="sans-serif" font-size="11" lengthAdjust="spacingAndGlyphs" textLength="64" x="1800.75" y="90.9839">Description</text><text fill="#000000" font-family="sans-serif" font-size="11" font-style="italic" lengthAdjust="spacingAndGlyphs" textLength="77" x="1868.75" y="90.9839">(Max140Text)</text><ellipse cx="1791.75" cy="101.4805" fill="#84BE84" rx="3" ry="3" style="stroke: #038048; stroke-width: 1.0;"/><text fill="#000000" font-family="sans-serif" font-size="11" lengthAdjust="spacingAndGlyphs" textLength="39" x="1800.75" y="103.7886">Quality</text><text fill="#000000" font-family="sans-serif" font-size="11" font-style="italic" lengthAdjust="spacingAndGlyphs" textLength="70" x="1843.75" y="103.7886">(Max70Text)</text></a><!--class FinancialProduct--><a target="_top" xlink:actuate="onRequest" xlink:href="../FinancialProduct.html" xlink:show="new" xlink:title="Product offered by a financial institution to its customers." xlink:type="simple"><rect fill="#FEFECE" filter="url(#fu6jisbfycn59)" height="23.9688" id="FinancialProduct" style="stroke: #A80036; stroke-width: 1.5;" width="110" x="1960" y="188"/><rect fill="#FEFECE" height="23.9688" style="stroke: #A80036; stroke-width: 1.5;" width="110" x="1960" y="188"/><text fill="#000000" font-family="sans-serif" font-size="12" lengthAdjust="spacingAndGlyphs" textLength="104" x="1963" y="204.1387">FinancialProduct</text></a><!--class InvestmentFund--><a target="_top" xlink:actuate="onRequest" xlink:href="../InvestmentFund.html" xlink:show="new" xlink:title="Distinct pool of financial instruments managed by a single investment policy. May or not be part of an umbrella fund. The pool is issued in at least one investment fund class." xlink:type="simple"><rect fill="#FEFEEE" filter="url(#fu6jisbfycn59)" height="23.9688" id="InvestmentFund" style="stroke: #A80036; stroke-width: 1.5;" width="106" x="1765.5" y="290"/><rect fill="#FEFEEE" height="23.9688" style="stroke: #A80036; stroke-width: 1.5;" width="106" x="1765.5" y="290"/><text fill="#000000" font-family="sans-serif" font-size="12" lengthAdjust="spacingAndGlyphs" textLength="100" x="1768.5" y="306.1387">InvestmentFund</text></a><!--class ManagedAccountProduct--><a target="_top" xlink:actuate="onRequest" xlink:href="../ManagedAccountProduct.html" xlink:show="new" xlink:title="Product which provides guidance to investors to manage their portfolios." xlink:type="simple"><rect fill="#FEFEEE" filter="url(#fu6jisbfycn59)" height="23.9688" id="ManagedAccountProduct" style="stroke: #A80036; stroke-width: 1.5;" width="164" x="1906" y="290"/><rect fill="#FEFEEE" height="23.9688" style="stroke: #A80036; stroke-width: 1.5;" width="164" x="1906" y="290"/><text fill="#000000" font-family="sans-serif" font-size="12" lengthAdjust="spacingAndGlyphs" textLength="158" x="1909" y="306.1387">ManagedAccountProduct</text></a><!--class CardPayment--><a target="_top" xlink:actuate="onRequest" xlink:href="../CardPayment.html" xlink:show="new" xlink:title="Payment through an electronic money product." xlink:type="simple"><rect fill="#EEEEEE" filter="url(#fu6jisbfycn59)" height="23.9688" id="CardPayment" style="stroke: #A80036; stroke-width: 1.5;" width="89" x="1294.75" y="394"/><rect fill="#EEEEEE" height="23.9688" style="stroke: #A80036; stroke-width: 1.5;" width="89" x="1294.75" y="394"/><text fill="#000000" font-family="sans-serif" font-size="12" lengthAdjust="spacingAndGlyphs" textLength="83" x="1297.75" y="410.1387">CardPayment</text></a><!--class Price--><a target="_top" xlink:actuate="onRequest" xlink:href="../Price.html" xlink:show="new" xlink:title="Amount of money for which goods, services or assets are offered, sold, or bought." xlink:type="simple"><rect fill="#EEEEEE" filter="url(#fu6jisbfycn59)" height="23.9688" id="Price" style="stroke: #A80036; stroke-width: 1.5;" width="37" x="1399.75" y="290"/><rect fill="#EEEEEE" height="23.9688" style="stroke: #A80036; stroke-width: 1.5;" width="37" x="1399.75" y="290"/><text fill="#000000" font-family="sans-serif" font-size="12" lengthAdjust="spacingAndGlyphs" textLength="31" x="1402.75" y="306.1387">Price</text></a><!--class ProductCategory--><a target="_top" xlink:actuate="onRequest" xlink:href="../ProductCategory.html" xlink:show="new" xlink:title="Specifies the category of the product." xlink:type="simple"><rect fill="#EEEEEE" filter="url(#fu6jisbfycn59)" height="23.9688" id="ProductCategory" style="stroke: #A80036; stroke-width: 1.5;" width="111" x="1362.75" y="188"/><rect fill="#EEEEEE" height="23.9688" style="stroke: #A80036; stroke-width: 1.5;" width="111" x="1362.75" y="188"/><text fill="#000000" font-family="sans-serif" font-size="12" lengthAdjust="spacingAndGlyphs" textLength="105" x="1365.75" y="204.1387">ProductCategory</text></a><!--class LineItem--><a target="_top" xlink:actuate="onRequest" xlink:href="../LineItem.html" xlink:show="new" xlink:title="Unit of information  showing the related  provision of products and/or services and monetary summations reported as a discrete line item." xlink:type="simple"><rect fill="#EEEEEE" filter="url(#fu6jisbfycn59)" height="23.9688" id="LineItem" style="stroke: #A80036; stroke-width: 1.5;" width="58" x="509.5" y="63"/><rect fill="#EEEEEE" height="23.9688" style="stroke: #A80036; stroke-width: 1.5;" width="58" x="509.5" y="63"/><text fill="#000000" font-family="sans-serif" font-size="12" lengthAdjust="spacingAndGlyphs" textLength="52" x="512.5" y="79.1387">LineItem</text></a><!--class ProductIdentification--><a target="_top" xlink:actuate="onRequest" xlink:href="../ProductIdentification.html" xlink:show="new" xlink:title="Information used to identify a product." xlink:type="simple"><rect fill="#EEEEEE" filter="url(#fu6jisbfycn59)" height="23.9688" id="ProductIdentification" style="stroke: #A80036; stroke-width: 1.5;" width="136" x="1268" y="496"/><rect fill="#EEEEEE" height="23.9688" style="stroke: #A80036; stroke-width: 1.5;" width="136" x="1268" y="496"/><text fill="#000000" font-family="sans-serif" font-size="12" lengthAdjust="spacingAndGlyphs" textLength="130" x="1271" y="512.1387">ProductIdentification</text></a><!--class Country--><a target="_top" xlink:actuate="onRequest" xlink:href="../Country.html" xlink:show="new" xlink:title="Nation with its own government." xlink:type="simple"><rect fill="#EEEEEE" filter="url(#fu6jisbfycn59)" height="23.9688" id="Country" style="stroke: #A80036; stroke-width: 1.5;" width="54" x="1419" y="394"/><rect fill="#EEEEEE" height="23.9688" style="stroke: #A80036; stroke-width: 1.5;" width="54" x="1419" y="394"/><text fill="#000000" font-family="sans-serif" font-size="12" lengthAdjust="spacingAndGlyphs" textLength="48" x="1422" y="410.1387">Country</text></a><!--class ProductCharacteristics--><a target="_top" xlink:actuate="onRequest" xlink:href="../ProductCharacteristics.html" xlink:show="new" xlink:title="Identifies the characteristic of a product." xlink:type="simple"><rect fill="#EEEEEE" filter="url(#fu6jisbfycn59)" height="23.9688" id="ProductCharacteristics" style="stroke: #A80036; stroke-width: 1.5;" width="149" x="864.75" y="290"/><rect fill="#EEEEEE" height="23.9688" style="stroke: #A80036; stroke-width: 1.5;" width="149" x="864.75" y="290"/><text fill="#000000" font-family="sans-serif" font-size="12" lengthAdjust="spacingAndGlyphs" textLength="143" x="867.75" y="306.1387">ProductCharacteristics</text></a><!--class ProductQuantity--><a target="_top" xlink:actuate="onRequest" xlink:href="../ProductQuantity.html" xlink:show="new" xlink:title="Specifies the ordered quantity of a product." xlink:type="simple"><rect fill="#EEEEEE" filter="url(#fu6jisbfycn59)" height="23.9688" id="ProductQuantity" style="stroke: #A80036; stroke-width: 1.5;" width="107" x="865.75" y="188"/><rect fill="#EEEEEE" height="23.9688" style="stroke: #A80036; stroke-width: 1.5;" width="107" x="865.75" y="188"/><text fill="#000000" font-family="sans-serif" font-size="12" lengthAdjust="spacingAndGlyphs" textLength="101" x="868.75" y="204.1387">ProductQuantity</text></a><!--class ProductDelivery--><a target="_top" xlink:actuate="onRequest" xlink:href="../ProductDelivery.html" xlink:show="new" xlink:title="Arrangements for delivery of invoiced products and/or services." xlink:type="simple"><rect fill="#EEEEEE" filter="url(#fu6jisbfycn59)" height="23.9688" id="ProductDelivery" style="stroke: #A80036; stroke-width: 1.5;" width="103" x="1369.75" y="668"/><rect fill="#EEEEEE" height="23.9688" style="stroke: #A80036; stroke-width: 1.5;" width="103" x="1369.75" y="668"/><text fill="#000000" font-family="sans-serif" font-size="12" lengthAdjust="spacingAndGlyphs" textLength="97" x="1372.75" y="684.1387">ProductDelivery</text></a><!--class PurchaseOrder--><a target="_top" xlink:actuate="onRequest" xlink:href="../PurchaseOrder.html" xlink:show="new" xlink:title="Document issued by a buyer and containing the details of a purchase, including description of goods, transport information, payment terms, etc." xlink:type="simple"><rect fill="#EEEEEE" filter="url(#fu6jisbfycn59)" height="23.9688" id="PurchaseOrder" style="stroke: #A80036; stroke-width: 1.5;" width="100" x="1373" y="582"/><rect fill="#EEEEEE" height="23.9688" style="stroke: #A80036; stroke-width: 1.5;" width="100" x="1373" y="582"/><text fill="#000000" font-family="sans-serif" font-size="12" lengthAdjust="spacingAndGlyphs" textLength="94" x="1376" y="598.1387">PurchaseOrder</text></a><!--class Tax--><a target="_top" xlink:actuate="onRequest" xlink:href="../Tax.html" xlink:show="new" xlink:title="Amount of money due to the government or tax authority, according to various pre-defined parameters such as thresholds or income." xlink:type="simple"><rect fill="#EEEEEE" filter="url(#fu6jisbfycn59)" height="23.9688" id="Tax" style="stroke: #A80036; stroke-width: 1.5;" width="27" x="1439.75" y="496"/><rect fill="#EEEEEE" height="23.9688" style="stroke: #A80036; stroke-width: 1.5;" width="27" x="1439.75" y="496"/><text fill="#000000" font-family="sans-serif" font-size="12" lengthAdjust="spacingAndGlyphs" textLength="21" x="1442.75" y="512.1387">Tax</text></a><!--entity ##22861--><!--link Product to FinancialProduct--><path d="M1923.28,123.287 C1951.76,146.792 1983.78,173.227 2001.45,187.815 " fill="none" id="Product-FinancialProduct" style="stroke: #A80036; stroke-width: 1.0;"/><polygon fill="none" points="1918.47,128.393,1907.5,110.262,1927.38,117.596,1918.47,128.393" style="stroke: #A80036; stroke-width: 1.0;"/><!--link FinancialProduct to InvestmentFund--><path d="M1993.39,227.432 C1982.85,238.849 1969.36,251.509 1955,260 C1929.14,275.287 1897.12,285.283 1870.54,291.574 " fill="none" id="FinancialProduct-InvestmentFund" style="stroke: #A80036; stroke-width: 1.0;"/><polygon fill="none" points="1988.12,222.821,2006.47,212.223,1998.74,231.95,1988.12,222.821" style="stroke: #A80036; stroke-width: 1.0;"/><!--link FinancialProduct to ManagedAccountProduct--><path d="M2006.76,231.536 C2001.42,251.301 1994.78,275.875 1991.01,289.867 " fill="none" id="FinancialProduct-ManagedAccountProduct" style="stroke: #A80036; stroke-width: 1.0;"/><polygon fill="none" points="2000.04,229.568,2012.01,212.084,2013.55,233.217,2000.04,229.568" style="stroke: #A80036; stroke-width: 1.0;"/><!--link Price to CardPayment--><!--link ProductCategory to Price--><!--link LineItem to ProductCategory--><!--link ProductIdentification to LineItem--><!--link Country to ProductIdentification--><!--link ProductCharacteristics to Country--><!--link ProductQuantity to ProductCharacteristics--><!--link ProductDelivery to ProductQuantity--><!--link PurchaseOrder to ProductDelivery--><!--link Tax to PurchaseOrder--><!--link Product to CardPayment--><path d="M1861.35,110.178 C1855.44,140.809 1842.36,184.963 1814,212 C1780.03,244.386 1479.65,354.401 1374.87,392.157 " fill="none" id="Product-CardPayment" style="stroke: #A80036; stroke-width: 1.0;"/><polygon fill="#A80036" points="1370.03,393.9,1379.8518,394.6296,1374.7369,392.2133,1377.1531,387.0985,1370.03,393.9" style="stroke: #A80036; stroke-width: 1.0;"/><text fill="#000000" font-family="sans-serif" font-size="13" lengthAdjust="spacingAndGlyphs" textLength="87" x="1761" y="255.0669">CardPayment</text><text fill="#000000" font-family="sans-serif" font-size="13" lengthAdjust="spacingAndGlyphs" textLength="8" x="1369.8919" y="382.9138">1</text><!--link Product to Price--><path d="M1831.21,110.057 C1812.19,126.866 1787.38,146.049 1762,158 C1704.82,184.926 1682.19,165.844 1623,188 C1551.61,214.723 1474.78,262.953 1438.8,286.825 " fill="none" id="Product-Price" style="stroke: #A80036; stroke-width: 1.0;"/><polygon fill="#A80036" points="1434.21,289.889,1443.9178,288.228,1438.3711,287.1168,1439.4823,281.5702,1434.21,289.889" style="stroke: #A80036; stroke-width: 1.0;"/><text fill="#000000" font-family="sans-serif" font-size="13" lengthAdjust="spacingAndGlyphs" textLength="57" x="1624" y="204.0669">UnitPrice</text><text fill="#000000" font-family="sans-serif" font-size="13" lengthAdjust="spacingAndGlyphs" textLength="7" x="1430.1494" y="278.8991">*</text><!--link Product to Price--><path d="M1845.23,110.245 C1834.21,126.294 1819.53,144.751 1803,158 C1743.64,205.578 1515.76,273.19 1441.53,294.385 " fill="none" id="Product-Price" style="stroke: #A80036; stroke-width: 1.0;"/><polygon fill="#A80036" points="1436.45,295.83,1446.202,297.2082,1441.2583,294.4587,1444.0078,289.515,1436.45,295.83" style="stroke: #A80036; stroke-width: 1.0;"/><text fill="#000000" font-family="sans-serif" font-size="13" lengthAdjust="spacingAndGlyphs" textLength="54" x="1751" y="204.0669">NetPrice</text><text fill="#000000" font-family="sans-serif" font-size="13" lengthAdjust="spacingAndGlyphs" textLength="24" x="1444.5663" y="287.9764">0..1</text><!--link Product to Price--><path d="M1780.61,91.793 C1654.7,115.034 1432.1,155.941 1414,158 C1378.8,162.004 801.455,162.366 777,188 C687.94,281.353 1267.8,298.075 1394.07,300.597 " fill="none" id="Product-Price" style="stroke: #A80036; stroke-width: 1.0;"/><polygon fill="#A80036" points="1399.4,300.701,1390.4818,296.5218,1394.401,300.601,1390.3218,304.5202,1399.4,300.701" style="stroke: #A80036; stroke-width: 1.0;"/><text fill="#000000" font-family="sans-serif" font-size="13" lengthAdjust="spacingAndGlyphs" textLength="68" x="778" y="204.0669">GrossPrice</text><text fill="#000000" font-family="sans-serif" font-size="13" lengthAdjust="spacingAndGlyphs" textLength="24" x="1367.8309" y="294.7638">0..1</text><!--link Product to ProductCategory--><path d="M1780.71,97.251 C1739.97,108.358 1690.86,123.15 1648,140 C1631.35,146.545 1628.89,152.103 1612,158 C1568.46,173.206 1517.35,183.726 1478.53,190.3 " fill="none" id="Product-ProductCategory" style="stroke: #A80036; stroke-width: 1.0;"/><polygon fill="#A80036" points="1473.37,191.161,1482.9013,193.6418,1478.3032,190.3467,1481.5983,185.7486,1473.37,191.161" style="stroke: #A80036; stroke-width: 1.0;"/><text fill="#000000" font-family="sans-serif" font-size="13" lengthAdjust="spacingAndGlyphs" textLength="107" x="1649" y="153.0669">ProductCategory</text><text fill="#000000" font-family="sans-serif" font-size="13" lengthAdjust="spacingAndGlyphs" textLength="7" x="1481.6134" y="184.8011">*</text><!--link Product to LineItem--><path d="M1780.57,75 C1520.11,75 743.388,75 571.798,75 " fill="none" id="Product-LineItem" style="stroke: #A80036; stroke-width: 1.0;"/><polygon fill="#A80036" points="566.661,75,575.661,79,571.661,75,575.661,71,566.661,75" style="stroke: #A80036; stroke-width: 1.0;"/><text fill="#000000" font-family="sans-serif" font-size="13" lengthAdjust="spacingAndGlyphs" textLength="55" x="1145.25" y="67.0669">LineItem</text><text fill="#000000" font-family="sans-serif" font-size="13" lengthAdjust="spacingAndGlyphs" textLength="24" x="575.4462" y="69.2255">0..1</text><!--link Product to ProductIdentification--><path d="M1951.57,79.601 C2031.96,88.128 2140,115.181 2140,199 C2140,199 2140,199 2140,407 C2140,487.388 1501.76,485.956 1422,496 C1417.81,496.527 1413.51,497.071 1409.17,497.621 " fill="none" id="Product-ProductIdentification" style="stroke: #A80036; stroke-width: 1.0;"/><polygon fill="#A80036" points="1404.07,498.269,1413.5015,501.1058,1409.0303,497.6404,1412.4957,493.1692,1404.07,498.269" style="stroke: #A80036; stroke-width: 1.0;"/><text fill="#000000" font-family="sans-serif" font-size="13" lengthAdjust="spacingAndGlyphs" textLength="130" x="2141" y="306.0669">ProductIdentification</text><text fill="#000000" font-family="sans-serif" font-size="13" lengthAdjust="spacingAndGlyphs" textLength="7" x="1411.898" y="492.3509">*</text><!--link Product to Country--><path d="M1878.78,110.121 C1891.74,151.272 1905.09,219.897 1868,260 C1830.38,300.674 1795.76,263.693 1747,290 C1704.37,312.997 1710.29,342.283 1667,364 C1605.16,395.021 1522.98,402.739 1478.29,404.553 " fill="none" id="Product-Country" style="stroke: #A80036; stroke-width: 1.0;"/><polygon fill="#A80036" points="1473.03,404.746,1482.1723,408.409,1478.0266,404.5603,1481.8752,400.4145,1473.03,404.746" style="stroke: #A80036; stroke-width: 1.0;"/><text fill="#000000" font-family="sans-serif" font-size="13" lengthAdjust="spacingAndGlyphs" textLength="37" x="1881" y="255.0669">Origin</text><text fill="#000000" font-family="sans-serif" font-size="13" lengthAdjust="spacingAndGlyphs" textLength="8" x="1480.9814" y="398.3345">1</text><!--link Product to ProductCharacteristics--><path d="M1780.4,85.41 C1704.07,93.398 1589.23,104.425 1489,110 C1449.72,112.185 100.5229,111.888 73,140 C-40.1675,255.591 625.168,290.087 859.553,298.58 " fill="none" id="Product-ProductCharacteristics" style="stroke: #A80036; stroke-width: 1.0;"/><polygon fill="#A80036" points="864.67,298.763,855.8186,294.4441,859.6732,298.5844,855.5329,302.439,864.67,298.763" style="stroke: #A80036; stroke-width: 1.0;"/><text fill="#000000" font-family="sans-serif" font-size="13" lengthAdjust="spacingAndGlyphs" textLength="95" x="112" y="204.0669">Characteristics</text><text fill="#000000" font-family="sans-serif" font-size="13" lengthAdjust="spacingAndGlyphs" textLength="7" x="849.6269" y="293.7919">*</text><!--link Product to ProductQuantity--><path d="M1780.72,85.692 C1715.3,94.883 1623.53,111.614 1547,140 C1531.7,145.675 1530.63,153.325 1515,158 C1415.64,187.708 1107.82,196.021 977.859,198.237 " fill="none" id="Product-ProductQuantity" style="stroke: #A80036; stroke-width: 1.0;"/><polygon fill="#A80036" points="972.558,198.326,981.6241,202.1737,977.5573,198.2417,981.4893,194.1749,972.558,198.326" style="stroke: #A80036; stroke-width: 1.0;"/><text fill="#000000" font-family="sans-serif" font-size="13" lengthAdjust="spacingAndGlyphs" textLength="54" x="1548" y="153.0669">Quantity</text><text fill="#000000" font-family="sans-serif" font-size="13" lengthAdjust="spacingAndGlyphs" textLength="7" x="980.9017" y="192.9106">*</text><!--link Product to ProductDelivery--><path d="M1951.51,78.285 C2059.59,82.939 2250.54,97.074 2408,140 C2470.78,157.115 2542,133.927 2542,199 C2542,199 2542,199 2542,595 C2542,648.9466 1705.56,672.3718 1477.72,677.752 " fill="none" id="Product-ProductDelivery" style="stroke: #A80036; stroke-width: 1.0;"/><polygon fill="#A80036" points="1472.45,677.8758,1481.5391,681.669,1477.4487,677.7615,1481.3562,673.6711,1472.45,677.8758" style="stroke: #A80036; stroke-width: 1.0;"/><text fill="#000000" font-family="sans-serif" font-size="13" lengthAdjust="spacingAndGlyphs" textLength="51" x="2543" y="410.0669">Delivery</text><text fill="#000000" font-family="sans-serif" font-size="13" lengthAdjust="spacingAndGlyphs" textLength="8" x="1480.9025" y="672.3284">1</text><!--link Product to PurchaseOrder--><path d="M1951.5,77.416 C2107.18,82.327 2421,104.009 2421,199 C2421,199 2421,199 2421,509 C2421,556.689 1687.88,584.337 1478.33,591.265 " fill="none" id="Product-PurchaseOrder" style="stroke: #A80036; stroke-width: 1.0;"/><polygon fill="#A80036" points="1473.17,591.435,1482.3018,595.1241,1478.1671,591.2636,1482.0276,587.1288,1473.17,591.435" style="stroke: #A80036; stroke-width: 1.0;"/><text fill="#000000" font-family="sans-serif" font-size="13" lengthAdjust="spacingAndGlyphs" textLength="95" x="2422" y="359.0669">PurchaseOrder</text><text fill="#000000" font-family="sans-serif" font-size="13" lengthAdjust="spacingAndGlyphs" textLength="7" x="1481.0528" y="585.8888">*</text><!--link Product to Tax--><path d="M1951.28,80.563 C2088.48,90.264 2343,119.037 2343,199 C2343,199 2343,199 2343,407 C2343,497.968 1599.26,506.186 1471.55,506.927 " fill="none" id="Product-Tax" style="stroke: #A80036; stroke-width: 1.0;"/><polygon fill="#A80036" points="1466.27,506.955,1475.2927,510.9035,1471.2699,506.9264,1475.247,502.9036,1466.27,506.955" style="stroke: #A80036; stroke-width: 1.0;"/><text fill="#000000" font-family="sans-serif" font-size="13" lengthAdjust="spacingAndGlyphs" textLength="22" x="2344" y="306.0669">Tax</text><text fill="#000000" font-family="sans-serif" font-size="13" lengthAdjust="spacingAndGlyphs" textLength="7" x="1474.7365" y="498.1721">*</text><!--link InvestmentFund to Country--><path d="M1807.27,314.163 C1792.92,328.319 1766.04,352.292 1738,364 C1649.45,400.969 1534.01,405.781 1478.55,405.707 " fill="none" id="InvestmentFund-Country" style="stroke: #A80036; stroke-width: 1.0;"/><polygon fill="#A80036" points="1473.37,405.686,1482.347,409.7374,1478.3699,405.7146,1482.3927,401.7375,1473.37,405.686" style="stroke: #A80036; stroke-width: 1.0;"/><text fill="#000000" font-family="sans-serif" font-size="13" lengthAdjust="spacingAndGlyphs" textLength="105" x="1771" y="359.0669">DomicileCountry</text><text fill="#000000" font-family="sans-serif" font-size="13" lengthAdjust="spacingAndGlyphs" textLength="8" x="1481.0164" y="419.5245">1</text><!--link LineItem to ProductQuantity--><path d="M509.182,79.022 C448.077,86.461 314.749,108.749 361,158 C397.353,196.711 785.155,182.757 838,188 C845.229,188.717 852.805,189.587 860.301,190.521 " fill="none" id="LineItem-ProductQuantity" style="stroke: #A80036; stroke-width: 1.0;"/><polygon fill="#A80036" points="865.473,191.176,857.0471,186.0765,860.5127,190.5476,856.0416,194.0131,865.473,191.176" style="stroke: #A80036; stroke-width: 1.0;"/><text fill="#000000" font-family="sans-serif" font-size="13" lengthAdjust="spacingAndGlyphs" textLength="66" x="362" y="153.0669">NetWeight</text><text fill="#000000" font-family="sans-serif" font-size="13" lengthAdjust="spacingAndGlyphs" textLength="8" x="849.6769" y="185.2493">1</text><!--link LineItem to ProductQuantity--><path d="M517.155,87.186 C489.748,103.267 447.563,133.659 470,158 C497.805,188.164 797.215,183.571 838,188 C845.222,188.784 852.794,189.695 860.288,190.649 " fill="none" id="LineItem-ProductQuantity" style="stroke: #A80036; stroke-width: 1.0;"/><polygon fill="#A80036" points="865.458,191.316,857.0441,186.1968,860.4991,190.676,856.02,194.131,865.458,191.316" style="stroke: #A80036; stroke-width: 1.0;"/><text fill="#000000" font-family="sans-serif" font-size="13" lengthAdjust="spacingAndGlyphs" textLength="88" x="471" y="153.0669">BilledQuantity</text><text fill="#000000" font-family="sans-serif" font-size="13" lengthAdjust="spacingAndGlyphs" textLength="7" x="850.718" y="203.2555">*</text><!--link LineItem to ProductQuantity--><path d="M542.917,87.019 C551.686,105.241 571.88,141.296 601,158 C693.097,210.83 732.728,174.189 838,188 C845.203,188.945 852.763,189.952 860.251,190.958 " fill="none" id="LineItem-ProductQuantity" style="stroke: #A80036; stroke-width: 1.0;"/><polygon fill="#A80036" points="865.418,191.654,857.0321,186.489,860.4627,190.9869,855.9648,194.4175,865.418,191.654" style="stroke: #A80036; stroke-width: 1.0;"/><text fill="#000000" font-family="sans-serif" font-size="13" lengthAdjust="spacingAndGlyphs" textLength="128" x="602" y="153.0669">ChargeFreeQuantity</text><text fill="#000000" font-family="sans-serif" font-size="13" lengthAdjust="spacingAndGlyphs" textLength="7" x="850.633" y="182.7965">*</text><!--link LineItem to ProductQuantity--><path d="M566.681,83.794 C605.631,94.71 677.148,115.936 736,140 C752.558,146.77 755.308,151.568 772,158 C802.256,169.66 837.179,179.541 865.392,186.68 " fill="none" id="LineItem-ProductQuantity" style="stroke: #A80036; stroke-width: 1.0;"/><polygon fill="#A80036" points="870.58,187.981,862.8247,181.9101,865.7305,186.7636,860.8769,189.6693,870.58,187.981" style="stroke: #A80036; stroke-width: 1.0;"/><text fill="#000000" font-family="sans-serif" font-size="13" lengthAdjust="spacingAndGlyphs" textLength="244" x="773" y="153.0669">MeasureQuantityStartRelatedLineItem</text><text fill="#000000" font-family="sans-serif" font-size="13" lengthAdjust="spacingAndGlyphs" textLength="8" x="855.2247" y="177.0227">1</text><!--link LineItem to ProductQuantity--><path d="M566.567,77.612 C666.016,83.509 992.661,105.394 1023,140 C1041.85,161.498 1010.31,176.941 977.153,186.622 " fill="none" id="LineItem-ProductQuantity" style="stroke: #A80036; stroke-width: 1.0;"/><polygon fill="#A80036" points="972.255,188.009,982.0041,189.4075,977.0661,186.6477,979.8259,181.7097,972.255,188.009" style="stroke: #A80036; stroke-width: 1.0;"/><text fill="#000000" font-family="sans-serif" font-size="13" lengthAdjust="spacingAndGlyphs" textLength="236" x="1030" y="153.0669">MeasureQuantityEndRelatedLineItem</text><text fill="#000000" font-family="sans-serif" font-size="13" lengthAdjust="spacingAndGlyphs" textLength="8" x="979.7567" y="177.0603">1</text><!--link LineItem to ProductQuantity--><path d="M566.555,76.252 C696.438,77.689 1227.22,86.802 1276,140 C1317.32,185.063 1089.39,195.709 977.784,198.223 " fill="none" id="LineItem-ProductQuantity" style="stroke: #A80036; stroke-width: 1.0;"/><polygon fill="#A80036" points="972.559,198.337,981.6437,202.1406,977.5578,198.2284,981.47,194.1425,972.559,198.337" style="stroke: #A80036; stroke-width: 1.0;"/><text fill="#000000" font-family="sans-serif" font-size="13" lengthAdjust="spacingAndGlyphs" textLength="122" x="1282" y="153.0669">GrossPriceQuantity</text><text fill="#000000" font-family="sans-serif" font-size="13" lengthAdjust="spacingAndGlyphs" textLength="7" x="980.9028" y="211.2733">*</text><!--link LineItem to ProductQuantity--><path d="M509.419,76.685 C401.307,79.757 26.4853,95.02 87,158 C115.93,188.109 796.404,184.353 838,188 C845.237,188.634 852.818,189.455 860.316,190.362 " fill="none" id="LineItem-ProductQuantity" style="stroke: #A80036; stroke-width: 1.0;"/><polygon fill="#A80036" points="865.489,191.002,857.0485,185.9267,860.5269,190.3878,856.0658,193.8662,865.489,191.002" style="stroke: #A80036; stroke-width: 1.0;"/><text fill="#000000" font-family="sans-serif" font-size="13" lengthAdjust="spacingAndGlyphs" textLength="108" x="88" y="153.0669">NetPriceQuantity</text><text fill="#000000" font-family="sans-serif" font-size="13" lengthAdjust="spacingAndGlyphs" textLength="7" x="850.7526" y="185.0552">*</text><!--link LineItem to ProductQuantity--><path d="M509.479,75.599 C425.239,75.272 187.881,80.981 261,158 C283.1,181.279 806.041,185.004 838,188 C845.233,188.678 852.811,189.525 860.309,190.445 " fill="none" id="LineItem-ProductQuantity" style="stroke: #A80036; stroke-width: 1.0;"/><polygon fill="#A80036" points="865.481,191.093,857.0479,186.0055,860.5198,190.4716,856.0537,193.9435,865.481,191.093" style="stroke: #A80036; stroke-width: 1.0;"/><text fill="#000000" font-family="sans-serif" font-size="13" lengthAdjust="spacingAndGlyphs" textLength="80" x="262" y="153.0669">GrossWeight</text><text fill="#000000" font-family="sans-serif" font-size="13" lengthAdjust="spacingAndGlyphs" textLength="7" x="850.7436" y="203.0067">*</text><!--link Country to Tax--><path d="M1446.78,418.084 C1448.01,435.729 1450.43,470.297 1451.86,490.745 " fill="none" id="Country-Tax" style="stroke: #A80036; stroke-width: 1.0;"/><polygon fill="#A80036" points="1452.22,495.867,1455.5799,486.609,1451.8699,490.8793,1447.5996,487.1692,1452.22,495.867" style="stroke: #A80036; stroke-width: 1.0;"/><text fill="#000000" font-family="sans-serif" font-size="13" lengthAdjust="spacingAndGlyphs" textLength="22" x="1452" y="461.0669">Tax</text><text fill="#000000" font-family="sans-serif" font-size="13" lengthAdjust="spacingAndGlyphs" textLength="8" x="1441.1472" y="484.8695">1</text></g></svg>