<?xml version="1.0" encoding="UTF-8" standalone="no"?><svg xmlns="http://www.w3.org/2000/svg" xmlns:xlink="http://www.w3.org/1999/xlink" contentScriptType="application/ecmascript" contentStyleType="text/css" height="1288px" preserveAspectRatio="none" style="width:1947px;height:1288px;" version="1.1" viewBox="0 0 1947 1288" width="1947px" zoomAndPan="magnify"><defs><filter height="300%" id="f3vgoncgcdz88" width="300%" x="-1" y="-1"><feGaussianBlur result="blurOut" stdDeviation="2.0"/><feColorMatrix in="blurOut" result="blurOut2" type="matrix" values="0 0 0 0 0 0 0 0 0 0 0 0 0 0 0 0 0 0 .4 0"/><feOffset dx="4.0" dy="4.0" in="blurOut2" result="blurOut3"/><feBlend in="SourceGraphic" in2="blurOut3" mode="normal"/></filter></defs><g><!--cluster ##25819--><!--cluster ##25837--><!--class Document--><a target="_top" xlink:actuate="onRequest" xlink:href="../Document.html" xlink:show="new" xlink:title="General information that unambiguously identifies a document, such as identification number and issue date time." xlink:type="simple"><rect fill="#FEFEEE" filter="url(#f3vgoncgcdz88)" height="172.8203" id="Document" style="stroke: #A80036; stroke-width: 1.5;" width="249" x="1258.58" y="40.5"/><rect fill="#FEFEEE" height="23.9688" style="stroke: #A80036; stroke-width: 1.5;" width="249" x="1258.58" y="40.5"/><text fill="#000000" font-family="sans-serif" font-size="12" lengthAdjust="spacingAndGlyphs" textLength="64" x="1351.08" y="56.6387">Document</text><line style="stroke: #A80036; stroke-width: 1.5;" x1="1259.58" x2="1506.58" y1="64.4688" y2="64.4688"/><ellipse cx="1269.58" cy="76.3711" fill="#84BE84" rx="3" ry="3" style="stroke: #038048; stroke-width: 1.0;"/><text fill="#000000" font-family="sans-serif" font-size="11" lengthAdjust="spacingAndGlyphs" textLength="57" x="1278.58" y="78.6792">IssueDate</text><text fill="#000000" font-family="sans-serif" font-size="11" font-style="italic" lengthAdjust="spacingAndGlyphs" textLength="81" x="1339.58" y="78.6792">(ISODateTime)</text><ellipse cx="1269.58" cy="89.1758" fill="#84BE84" rx="3" ry="3" style="stroke: #038048; stroke-width: 1.0;"/><text fill="#000000" font-family="sans-serif" font-size="11" lengthAdjust="spacingAndGlyphs" textLength="80" x="1278.58" y="91.4839">CopyDuplicate</text><text fill="#000000" font-family="sans-serif" font-size="11" font-style="italic" lengthAdjust="spacingAndGlyphs" textLength="118" x="1362.58" y="91.4839">(CopyDuplicateCode)</text><ellipse cx="1269.58" cy="101.9805" fill="#84BE84" rx="3" ry="3" style="stroke: #038048; stroke-width: 1.0;"/><text fill="#000000" font-family="sans-serif" font-size="11" lengthAdjust="spacingAndGlyphs" textLength="27" x="1278.58" y="104.2886">Type</text><text fill="#000000" font-family="sans-serif" font-size="11" font-style="italic" lengthAdjust="spacingAndGlyphs" textLength="122" x="1309.58" y="104.2886">(DocumentTypeCode)</text><ellipse cx="1269.58" cy="114.7852" fill="#84BE84" rx="3" ry="3" style="stroke: #038048; stroke-width: 1.0;"/><text fill="#000000" font-family="sans-serif" font-size="11" lengthAdjust="spacingAndGlyphs" textLength="43" x="1278.58" y="117.0933">Amount</text><text fill="#000000" font-family="sans-serif" font-size="11" font-style="italic" lengthAdjust="spacingAndGlyphs" textLength="161" x="1325.58" y="117.0933">(ActiveCurrencyAndAmount)</text><ellipse cx="1269.58" cy="127.5898" fill="#84BE84" rx="3" ry="3" style="stroke: #038048; stroke-width: 1.0;"/><text fill="#000000" font-family="sans-serif" font-size="11" lengthAdjust="spacingAndGlyphs" textLength="100" x="1278.58" y="129.8979">DocumentVersion</text><text fill="#000000" font-family="sans-serif" font-size="11" font-style="italic" lengthAdjust="spacingAndGlyphs" textLength="53" x="1382.58" y="129.8979">(Number)</text><ellipse cx="1269.58" cy="140.3945" fill="#84BE84" rx="3" ry="3" style="stroke: #038048; stroke-width: 1.0;"/><text fill="#000000" font-family="sans-serif" font-size="11" lengthAdjust="spacingAndGlyphs" textLength="37" x="1278.58" y="142.7026">Status</text><text fill="#000000" font-family="sans-serif" font-size="11" font-style="italic" lengthAdjust="spacingAndGlyphs" textLength="77" x="1319.58" y="142.7026">(Max140Text)</text><ellipse cx="1269.58" cy="153.1992" fill="#84BE84" rx="3" ry="3" style="stroke: #038048; stroke-width: 1.0;"/><text fill="#000000" font-family="sans-serif" font-size="11" lengthAdjust="spacingAndGlyphs" textLength="72" x="1278.58" y="155.5073">DataSetType</text><text fill="#000000" font-family="sans-serif" font-size="11" font-style="italic" lengthAdjust="spacingAndGlyphs" textLength="109" x="1354.58" y="155.5073">(DataSetTypeCode)</text><ellipse cx="1269.58" cy="166.0039" fill="#84BE84" rx="3" ry="3" style="stroke: #038048; stroke-width: 1.0;"/><text fill="#000000" font-family="sans-serif" font-size="11" lengthAdjust="spacingAndGlyphs" textLength="88" x="1278.58" y="168.312">SignedIndicator</text><text fill="#000000" font-family="sans-serif" font-size="11" font-style="italic" lengthAdjust="spacingAndGlyphs" textLength="92" x="1370.58" y="168.312">(YesNoIndicator)</text><ellipse cx="1269.58" cy="178.8086" fill="#84BE84" rx="3" ry="3" style="stroke: #038048; stroke-width: 1.0;"/><text fill="#000000" font-family="sans-serif" font-size="11" lengthAdjust="spacingAndGlyphs" textLength="93" x="1278.58" y="181.1167">RemittedAmount</text><text fill="#000000" font-family="sans-serif" font-size="11" font-style="italic" lengthAdjust="spacingAndGlyphs" textLength="126" x="1375.58" y="181.1167">(CurrencyAndAmount)</text><ellipse cx="1269.58" cy="191.6133" fill="#84BE84" rx="3" ry="3" style="stroke: #038048; stroke-width: 1.0;"/><text fill="#000000" font-family="sans-serif" font-size="11" lengthAdjust="spacingAndGlyphs" textLength="55" x="1278.58" y="193.9214">Language</text><text fill="#000000" font-family="sans-serif" font-size="11" font-style="italic" lengthAdjust="spacingAndGlyphs" textLength="92" x="1337.58" y="193.9214">(LanguageCode)</text><ellipse cx="1269.58" cy="204.418" fill="#84BE84" rx="3" ry="3" style="stroke: #038048; stroke-width: 1.0;"/><text fill="#000000" font-family="sans-serif" font-size="11" lengthAdjust="spacingAndGlyphs" textLength="47" x="1278.58" y="206.7261">Purpose</text><text fill="#000000" font-family="sans-serif" font-size="11" font-style="italic" lengthAdjust="spacingAndGlyphs" textLength="70" x="1329.58" y="206.7261">(Max35Text)</text></a><!--class FinancialDocument--><a target="_top" xlink:actuate="onRequest" xlink:href="../FinancialDocument.html" xlink:show="new" xlink:title="Type of document used in relation with financial transactions." xlink:type="simple"><rect fill="#FEFECE" filter="url(#f3vgoncgcdz88)" height="23.9688" id="FinancialDocument" style="stroke: #A80036; stroke-width: 1.5;" width="125" x="1320.58" y="292"/><rect fill="#FEFECE" height="23.9688" style="stroke: #A80036; stroke-width: 1.5;" width="125" x="1320.58" y="292"/><text fill="#000000" font-family="sans-serif" font-size="12" lengthAdjust="spacingAndGlyphs" textLength="119" x="1323.58" y="308.1387">FinancialDocument</text></a><!--class Cheque--><a target="_top" xlink:actuate="onRequest" xlink:href="../Cheque.html" xlink:show="new" xlink:title="Negotiable instrument instructing a financial institution to pay a specific amount of a specific currency from the account of the drawer with that institution." xlink:type="simple"><rect fill="#FEFEEE" filter="url(#f3vgoncgcdz88)" height="23.9688" id="Cheque" style="stroke: #A80036; stroke-width: 1.5;" width="54" x="1257.83" y="396"/><rect fill="#FEFEEE" height="23.9688" style="stroke: #A80036; stroke-width: 1.5;" width="54" x="1257.83" y="396"/><text fill="#000000" font-family="sans-serif" font-size="12" lengthAdjust="spacingAndGlyphs" textLength="48" x="1260.83" y="412.1387">Cheque</text></a><!--class Invoice--><a target="_top" xlink:actuate="onRequest" xlink:href="../Invoice.html" xlink:show="new" xlink:title="General information about an invoice, such as number, issue date date and monetary amounts." xlink:type="simple"><rect fill="#FEFEEE" filter="url(#f3vgoncgcdz88)" height="23.9688" id="Invoice" style="stroke: #A80036; stroke-width: 1.5;" width="49" x="1347.58" y="396"/><rect fill="#FEFEEE" height="23.9688" style="stroke: #A80036; stroke-width: 1.5;" width="49" x="1347.58" y="396"/><text fill="#000000" font-family="sans-serif" font-size="12" lengthAdjust="spacingAndGlyphs" textLength="43" x="1350.58" y="412.1387">Invoice</text></a><!--class UndertakingDocument--><a target="_top" xlink:actuate="onRequest" xlink:href="../UndertakingDocument.html" xlink:show="new" xlink:title="Document presented." xlink:type="simple"><rect fill="#FEFEEE" filter="url(#f3vgoncgcdz88)" height="23.9688" id="UndertakingDocument" style="stroke: #A80036; stroke-width: 1.5;" width="147" x="1554.58" y="396"/><rect fill="#FEFEEE" height="23.9688" style="stroke: #A80036; stroke-width: 1.5;" width="147" x="1554.58" y="396"/><text fill="#000000" font-family="sans-serif" font-size="12" lengthAdjust="spacingAndGlyphs" textLength="141" x="1557.58" y="412.1387">UndertakingDocument</text></a><!--class CreditNote--><a target="_top" xlink:actuate="onRequest" xlink:href="../CreditNote.html" xlink:show="new" xlink:title="Monetary instrument issued by a seller that allows a buyer to purchase an item or service from that seller on a future date." xlink:type="simple"><rect fill="#FEFEEE" filter="url(#f3vgoncgcdz88)" height="23.9688" id="CreditNote" style="stroke: #A80036; stroke-width: 1.5;" width="73" x="1736.58" y="396"/><rect fill="#FEFEEE" height="23.9688" style="stroke: #A80036; stroke-width: 1.5;" width="73" x="1736.58" y="396"/><text fill="#000000" font-family="sans-serif" font-size="12" lengthAdjust="spacingAndGlyphs" textLength="67" x="1739.58" y="412.1387">CreditNote</text></a><!--class ContactPoint--><a target="_top" xlink:actuate="onRequest" xlink:href="../ContactPoint.html" xlink:show="new" xlink:title="Number, physical or virtual address, used for communication." xlink:type="simple"><rect fill="#EEEEEE" filter="url(#f3vgoncgcdz88)" height="23.9688" id="ContactPoint" style="stroke: #A80036; stroke-width: 1.5;" width="87" x="70.581" y="115"/><rect fill="#EEEEEE" height="23.9688" style="stroke: #A80036; stroke-width: 1.5;" width="87" x="70.581" y="115"/><text fill="#000000" font-family="sans-serif" font-size="12" lengthAdjust="spacingAndGlyphs" textLength="81" x="73.581" y="131.1387">ContactPoint</text></a><!--class PaymentObligation--><a target="_top" xlink:actuate="onRequest" xlink:href="../PaymentObligation.html" xlink:show="new" xlink:title="Obligation for the debtor to pay the creditor an amount of cash." xlink:type="simple"><rect fill="#EEEEEE" filter="url(#f3vgoncgcdz88)" height="23.9688" id="PaymentObligation" style="stroke: #A80036; stroke-width: 1.5;" width="123" x="182.581" y="292"/><rect fill="#EEEEEE" height="23.9688" style="stroke: #A80036; stroke-width: 1.5;" width="123" x="182.581" y="292"/><text fill="#000000" font-family="sans-serif" font-size="12" lengthAdjust="spacingAndGlyphs" textLength="117" x="185.581" y="308.1387">PaymentObligation</text></a><!--class Agreement--><a target="_top" xlink:actuate="onRequest" xlink:href="../Agreement.html" xlink:show="new" xlink:title="Contractual details related to an agreement between parties." xlink:type="simple"><rect fill="#EEEEEE" filter="url(#f3vgoncgcdz88)" height="23.9688" id="Agreement" style="stroke: #A80036; stroke-width: 1.5;" width="75" x="783.581" y="1254"/><rect fill="#EEEEEE" height="23.9688" style="stroke: #A80036; stroke-width: 1.5;" width="75" x="783.581" y="1254"/><text fill="#000000" font-family="sans-serif" font-size="12" lengthAdjust="spacingAndGlyphs" textLength="69" x="786.581" y="1270.1387">Agreement</text></a><!--class Location--><a target="_top" xlink:actuate="onRequest" xlink:href="../Location.html" xlink:show="new" xlink:title="Specifies a place." xlink:type="simple"><rect fill="#EEEEEE" filter="url(#f3vgoncgcdz88)" height="23.9688" id="Location" style="stroke: #A80036; stroke-width: 1.5;" width="59" x="605.581" y="1168"/><rect fill="#EEEEEE" height="23.9688" style="stroke: #A80036; stroke-width: 1.5;" width="59" x="605.581" y="1168"/><text fill="#000000" font-family="sans-serif" font-size="12" lengthAdjust="spacingAndGlyphs" textLength="53" x="608.581" y="1184.1387">Location</text></a><!--class Reconciliation--><a target="_top" xlink:actuate="onRequest" xlink:href="../Reconciliation.html" xlink:show="new" xlink:title="Process of matching different documents submitted by parties to a trade." xlink:type="simple"><rect fill="#EEEEEE" filter="url(#f3vgoncgcdz88)" height="23.9688" id="Reconciliation" style="stroke: #A80036; stroke-width: 1.5;" width="93" x="919.581" y="1082"/><rect fill="#EEEEEE" height="23.9688" style="stroke: #A80036; stroke-width: 1.5;" width="93" x="919.581" y="1082"/><text fill="#000000" font-family="sans-serif" font-size="12" lengthAdjust="spacingAndGlyphs" textLength="87" x="922.581" y="1098.1387">Reconciliation</text></a><!--class LetterOfCredit--><a target="_top" xlink:actuate="onRequest" xlink:href="../LetterOfCredit.html" xlink:show="new" xlink:title="Instrument issued by a bank substituting its name and credit standing for that of its customer. A letter of credit is a written undertaking of the bank, issued for the account of a customer (the applicant), to honour a demand for payment, upon the beneficiary's compliance with the terms and conditions set forth in the undertaking." xlink:type="simple"><rect fill="#EEEEEE" filter="url(#f3vgoncgcdz88)" height="23.9688" id="LetterOfCredit" style="stroke: #A80036; stroke-width: 1.5;" width="93" x="919.581" y="996"/><rect fill="#EEEEEE" height="23.9688" style="stroke: #A80036; stroke-width: 1.5;" width="93" x="919.581" y="996"/><text fill="#000000" font-family="sans-serif" font-size="12" lengthAdjust="spacingAndGlyphs" textLength="87" x="922.581" y="1012.1387">LetterOfCredit</text></a><!--class DocumentPartyRole--><a target="_top" xlink:actuate="onRequest" xlink:href="../DocumentPartyRole.html" xlink:show="new" xlink:title="Role played by a party in the context of a document." xlink:type="simple"><rect fill="#EEEEEE" filter="url(#f3vgoncgcdz88)" height="23.9688" id="DocumentPartyRole" style="stroke: #A80036; stroke-width: 1.5;" width="129" x="830.581" y="910"/><rect fill="#EEEEEE" height="23.9688" style="stroke: #A80036; stroke-width: 1.5;" width="129" x="830.581" y="910"/><text fill="#000000" font-family="sans-serif" font-size="12" lengthAdjust="spacingAndGlyphs" textLength="123" x="833.581" y="926.1387">DocumentPartyRole</text></a><!--class Transport--><a target="_top" xlink:actuate="onRequest" xlink:href="../Transport.html" xlink:show="new" xlink:title="Moving of goods or people from one place to another by vehicle." xlink:type="simple"><rect fill="#EEEEEE" filter="url(#f3vgoncgcdz88)" height="23.9688" id="Transport" style="stroke: #A80036; stroke-width: 1.5;" width="67" x="396.581" y="808"/><rect fill="#EEEEEE" height="23.9688" style="stroke: #A80036; stroke-width: 1.5;" width="67" x="396.581" y="808"/><text fill="#000000" font-family="sans-serif" font-size="12" lengthAdjust="spacingAndGlyphs" textLength="61" x="399.581" y="824.1387">Transport</text></a><!--class Guarantee--><a target="_top" xlink:actuate="onRequest" xlink:href="../Guarantee.html" xlink:show="new" xlink:title="Partial or full coverage of amounts by a party other than the debtor." xlink:type="simple"><rect fill="#EEEEEE" filter="url(#f3vgoncgcdz88)" height="23.9688" id="Guarantee" style="stroke: #A80036; stroke-width: 1.5;" width="73" x="107.581" y="706"/><rect fill="#EEEEEE" height="23.9688" style="stroke: #A80036; stroke-width: 1.5;" width="73" x="107.581" y="706"/><text fill="#000000" font-family="sans-serif" font-size="12" lengthAdjust="spacingAndGlyphs" textLength="67" x="110.581" y="722.1387">Guarantee</text></a><!--class GenericIdentification--><a target="_top" xlink:actuate="onRequest" xlink:href="../GenericIdentification.html" xlink:show="new" xlink:title="Information related to a non-standardised identification, such as a proprietary party identification or account identification." xlink:type="simple"><rect fill="#EEEEEE" filter="url(#f3vgoncgcdz88)" height="23.9688" id="GenericIdentification" style="stroke: #A80036; stroke-width: 1.5;" width="135" x="208.581" y="604"/><rect fill="#EEEEEE" height="23.9688" style="stroke: #A80036; stroke-width: 1.5;" width="135" x="208.581" y="604"/><text fill="#000000" font-family="sans-serif" font-size="12" lengthAdjust="spacingAndGlyphs" textLength="129" x="211.581" y="620.1387">GenericIdentification</text></a><!--class Evidence--><a target="_top" xlink:actuate="onRequest" xlink:href="../Evidence.html" xlink:show="new" xlink:title="Element such as signature that can be used to prove a fact." xlink:type="simple"><rect fill="#EEEEEE" filter="url(#f3vgoncgcdz88)" height="23.9688" id="Evidence" style="stroke: #A80036; stroke-width: 1.5;" width="62" x="552.331" y="502"/><rect fill="#EEEEEE" height="23.9688" style="stroke: #A80036; stroke-width: 1.5;" width="62" x="552.331" y="502"/><text fill="#000000" font-family="sans-serif" font-size="12" lengthAdjust="spacingAndGlyphs" textLength="56" x="555.331" y="518.1387">Evidence</text></a><!--class CommercialTrade--><a target="_top" xlink:actuate="onRequest" xlink:href="../CommercialTrade.html" xlink:show="new" xlink:title="Commercial details of a trade transaction between a buyer and a seller." xlink:type="simple"><rect fill="#EEEEEE" filter="url(#f3vgoncgcdz88)" height="23.9688" id="CommercialTrade" style="stroke: #A80036; stroke-width: 1.5;" width="114" x="552.831" y="396"/><rect fill="#EEEEEE" height="23.9688" style="stroke: #A80036; stroke-width: 1.5;" width="114" x="552.831" y="396"/><text fill="#000000" font-family="sans-serif" font-size="12" lengthAdjust="spacingAndGlyphs" textLength="108" x="555.831" y="412.1387">CommercialTrade</text></a><!--class Presentation--><a target="_top" xlink:actuate="onRequest" xlink:href="../Presentation.html" xlink:show="new" xlink:title="Presentation of documents." xlink:type="simple"><rect fill="#EEEEEE" filter="url(#f3vgoncgcdz88)" height="23.9688" id="Presentation" style="stroke: #A80036; stroke-width: 1.5;" width="87" x="606.581" y="808"/><rect fill="#EEEEEE" height="23.9688" style="stroke: #A80036; stroke-width: 1.5;" width="87" x="606.581" y="808"/><text fill="#000000" font-family="sans-serif" font-size="12" lengthAdjust="spacingAndGlyphs" textLength="81" x="609.581" y="824.1387">Presentation</text></a><!--class RegisteredContract--><a target="_top" xlink:actuate="onRequest" xlink:href="../RegisteredContract.html" xlink:show="new" xlink:title="Contract registered for regulatory purpose by a registration agent for the journaling of payments made against the contract." xlink:type="simple"><rect fill="#EEEEEE" filter="url(#f3vgoncgcdz88)" height="23.9688" id="RegisteredContract" style="stroke: #A80036; stroke-width: 1.5;" width="128" x="252.831" y="706"/><rect fill="#EEEEEE" height="23.9688" style="stroke: #A80036; stroke-width: 1.5;" width="128" x="252.831" y="706"/><text fill="#000000" font-family="sans-serif" font-size="12" lengthAdjust="spacingAndGlyphs" textLength="122" x="255.831" y="722.1387">RegisteredContract</text></a><!--entity ##25866--><!--link Document to FinancialDocument--><path d="M1382.83,233.82 C1382.83,257.44 1382.83,279.19 1382.83,291.77 " fill="none" id="Document-FinancialDocument" style="stroke: #A80036; stroke-width: 1.0;"/><polygon fill="none" points="1375.83,233.71,1382.83,213.71,1389.83,233.71,1375.83,233.71" style="stroke: #A80036; stroke-width: 1.0;"/><!--link FinancialDocument to Cheque--><path d="M1358,330.84 C1337.82,351.853 1310.32,380.47 1295.44,395.954 " fill="none" id="FinancialDocument-Cheque" style="stroke: #A80036; stroke-width: 1.0;"/><polygon fill="none" points="1353.06,325.878,1371.97,316.306,1363.16,335.577,1353.06,325.878" style="stroke: #A80036; stroke-width: 1.0;"/><!--link FinancialDocument to Invoice--><path d="M1379.46,336.267 C1377.27,356.554 1374.55,381.766 1373.02,395.954 " fill="none" id="FinancialDocument-Invoice" style="stroke: #A80036; stroke-width: 1.0;"/><polygon fill="none" points="1372.51,335.44,1381.61,316.306,1386.43,336.941,1372.51,335.44" style="stroke: #A80036; stroke-width: 1.0;"/><!--link FinancialDocument to UndertakingDocument--><path d="M1428,323.803 C1478.79,344.95 1559.59,378.591 1601.18,395.904 " fill="none" id="FinancialDocument-UndertakingDocument" style="stroke: #A80036; stroke-width: 1.0;"/><polygon fill="none" points="1425.29,330.259,1409.52,316.11,1430.67,317.335,1425.29,330.259" style="stroke: #A80036; stroke-width: 1.0;"/><!--link FinancialDocument to CreditNote--><path d="M1444.44,321.113 C1526.61,342.605 1669.48,379.97 1736.35,397.459 " fill="none" id="FinancialDocument-CreditNote" style="stroke: #A80036; stroke-width: 1.0;"/><polygon fill="none" points="1442.52,327.846,1424.94,316.013,1446.06,314.301,1442.52,327.846" style="stroke: #A80036; stroke-width: 1.0;"/><!--link PaymentObligation to ContactPoint--><!--link ContactPoint to PaymentObligation--><path d="M109.237,139.06 C99.751,163.85 81.1013,224.6 108.831,262 C124.764,283.49 151.674,294.11 177.295,299.22 " fill="none" id="ContactPoint-PaymentObligation" style="stroke: #A80036; stroke-width: 1.0;"/><polygon fill="#A80036" points="182.398,300.17,174.2815,294.5913,177.4823,299.2555,172.8182,302.4563,182.398,300.17" style="stroke: #A80036; stroke-width: 1.0;"/><text fill="#000000" font-family="sans-serif" font-size="13" lengthAdjust="spacingAndGlyphs" textLength="178" x="109.831" y="257.0669">RemittanceRelatedPayment</text><text fill="#000000" font-family="sans-serif" font-size="13" lengthAdjust="spacingAndGlyphs" textLength="24" x="150.5132" y="295.1078">0..1</text><!--link Agreement to PaymentObligation--><!--link Location to Agreement--><!--link Reconciliation to Location--><!--link LetterOfCredit to Reconciliation--><!--link DocumentPartyRole to LetterOfCredit--><!--link Transport to DocumentPartyRole--><!--link Guarantee to Transport--><!--link GenericIdentification to Guarantee--><!--link Evidence to GenericIdentification--><!--link CommercialTrade to Evidence--><!--link Presentation to CommercialTrade--><!--link RegisteredContract to Presentation--><!--link Document to ContactPoint--><path d="M1258.52,127 C985.581,127 343.812,127 162.379,127 " fill="none" id="Document-ContactPoint" style="stroke: #A80036; stroke-width: 1.0;"/><polygon fill="#A80036" points="157.146,127,166.146,131,162.146,127,166.146,123,157.146,127" style="stroke: #A80036; stroke-width: 1.0;"/><text fill="#000000" font-family="sans-serif" font-size="13" lengthAdjust="spacingAndGlyphs" textLength="99" x="657.581" y="119.0669">PlaceOfStorage</text><text fill="#000000" font-family="sans-serif" font-size="13" lengthAdjust="spacingAndGlyphs" textLength="7" x="165.4404" y="121.5674">*</text><!--link Document to PaymentObligation--><path d="M1258.27,164.27 C1190.69,182.4 1105.34,202.8 1027.83,214 C759.62,252.74 680.964,175.27 418.831,244 C401.527,248.54 399.475,255.44 382.831,262 C353.852,273.42 320.395,283.38 293.569,290.62 " fill="none" id="Document-PaymentObligation" style="stroke: #A80036; stroke-width: 1.0;"/><polygon fill="#A80036" points="288.639,291.94,298.3677,293.4734,293.4685,290.6455,296.2965,285.7462,288.639,291.94" style="stroke: #A80036; stroke-width: 1.0;"/><text fill="#000000" font-family="sans-serif" font-size="13" lengthAdjust="spacingAndGlyphs" textLength="121" x="419.831" y="257.0669">PaymentObligation</text><text fill="#000000" font-family="sans-serif" font-size="13" lengthAdjust="spacingAndGlyphs" textLength="24" x="274.4871" y="280.9676">0..1</text><!--link Document to Agreement--><path d="M1507.38,148.16 C1649.6,174.79 1862.83,227.33 1862.83,303 C1862.83,303 1862.83,303 1862.83,1181 C1862.83,1232.017 1058.76,1258.2225 863.279,1263.8396 " fill="none" id="Document-Agreement" style="stroke: #A80036; stroke-width: 1.0;"/><polygon fill="#A80036" points="858.224,1263.9842,867.3357,1267.7228,863.2219,1263.8399,867.1048,1259.7262,858.224,1263.9842" style="stroke: #A80036; stroke-width: 1.0;"/><text fill="#000000" font-family="sans-serif" font-size="13" lengthAdjust="spacingAndGlyphs" textLength="72" x="1863.83" y="773.0669">Agreement</text><text fill="#000000" font-family="sans-serif" font-size="13" lengthAdjust="spacingAndGlyphs" textLength="7" x="866.6066" y="1257.8991">*</text><!--link Document to Location--><path d="M1324.28,213.69 C1293.35,263.88 1258.27,329.844 1240.83,394 C1209.1,510.752 1229.83,545.012 1229.83,666 C1229.83,666 1229.83,666 1229.83,1095 C1229.83,1151.979 796.492,1172.883 669.442,1177.787 " fill="none" id="Document-Location" style="stroke: #A80036; stroke-width: 1.0;"/><polygon fill="#A80036" points="664.337,1177.982,673.4825,1181.6371,669.3334,1177.792,673.1785,1173.6428,664.337,1177.982" style="stroke: #A80036; stroke-width: 1.0;"/><text fill="#000000" font-family="sans-serif" font-size="13" lengthAdjust="spacingAndGlyphs" textLength="81" x="1230.83" y="722.0669">PlaceOfIssue</text><text fill="#000000" font-family="sans-serif" font-size="13" lengthAdjust="spacingAndGlyphs" textLength="24" x="672.4593" y="1171.9943">0..1</text><!--link Document to Reconciliation--><path d="M1258.58,175.25 C1228.1,192.48 1198.59,215.07 1178.83,244 C1081.55,386.416 1160.16,459.615 1122.83,628 C1119.82,641.591 1115.85,644.227 1113.83,658 C1111.82,671.675 1116.83,714.336 1116.83,717 C1116.83,717 1116.83,717 1116.83,1009 C1116.83,1055.65 1061.11,1076.62 1017.37,1085.896 " fill="none" id="Document-Reconciliation" style="stroke: #A80036; stroke-width: 1.0;"/><polygon fill="#A80036" points="1012.37,1086.917,1021.9882,1089.036,1017.269,1085.9169,1020.3881,1081.1977,1012.37,1086.917" style="stroke: #A80036; stroke-width: 1.0;"/><text fill="#000000" font-family="sans-serif" font-size="13" lengthAdjust="spacingAndGlyphs" textLength="87" x="1114.83" y="671.0669">Reconciliation</text><text fill="#000000" font-family="sans-serif" font-size="13" lengthAdjust="spacingAndGlyphs" textLength="7" x="1020.6163" y="1080.4165">*</text><!--link Document to LetterOfCredit--><path d="M1258.19,145.54 C1168.34,166.03 1062.83,209.92 1062.83,303 C1062.83,303 1062.83,303 1062.83,464 C1062.83,556.487 1012.83,573.513 1012.83,666 C1012.83,666 1012.83,666 1012.83,923 C1012.83,949.959 994.166,976.299 980.36,992.094 " fill="none" id="Document-LetterOfCredit" style="stroke: #A80036; stroke-width: 1.0;"/><polygon fill="#A80036" points="976.969,995.876,985.9548,991.8443,980.3064,992.1529,979.9978,986.5044,976.969,995.876" style="stroke: #A80036; stroke-width: 1.0;"/><text fill="#000000" font-family="sans-serif" font-size="13" lengthAdjust="spacingAndGlyphs" textLength="90" x="1022.83" y="620.0669">LetterOfCredit</text><text fill="#000000" font-family="sans-serif" font-size="13" lengthAdjust="spacingAndGlyphs" textLength="8" x="969.993" y="984.8816">1</text><!--link Document to DocumentPartyRole--><path d="M1258.58,133.23 C1144.09,145.52 991.831,184.19 991.831,303 C991.831,303 991.831,303 991.831,464 C991.831,507.148 974.43,515.051 960.831,556 C944.618,604.819 924.831,614.56 924.831,666 C924.831,666 924.831,666 924.831,821 C924.831,851.913 911.516,886.019 902.628,905.345 " fill="none" id="Document-DocumentPartyRole" style="stroke: #A80036; stroke-width: 1.0;"/><polygon fill="#A80036" points="900.474,909.929,907.9207,903.4834,902.5997,905.4034,900.6797,900.0823,900.474,909.929" style="stroke: #A80036; stroke-width: 1.0;"/><text fill="#000000" font-family="sans-serif" font-size="13" lengthAdjust="spacingAndGlyphs" textLength="60" x="961.831" y="569.0669">PartyRole</text><text fill="#000000" font-family="sans-serif" font-size="13" lengthAdjust="spacingAndGlyphs" textLength="7" x="892.781" y="898.9528">*</text><!--link Document to Transport--><path d="M1258.34,158.58 C1132.94,189.72 956.096,234.71 942.831,244 C871.943,293.65 720.831,477.452 720.831,564 C720.831,564 720.831,564 720.831,719 C720.831,771.796 547.35,802.679 468.281,814.013 " fill="none" id="Document-Transport" style="stroke: #A80036; stroke-width: 1.0;"/><polygon fill="#A80036" points="463.212,814.731,472.6849,817.426,468.1623,814.0281,471.5603,809.5055,463.212,814.731" style="stroke: #A80036; stroke-width: 1.0;"/><text fill="#000000" font-family="sans-serif" font-size="13" lengthAdjust="spacingAndGlyphs" textLength="61" x="738.831" y="518.0669">Transport</text><text fill="#000000" font-family="sans-serif" font-size="13" lengthAdjust="spacingAndGlyphs" textLength="8" x="471.7985" y="807.6328">1</text><!--link Document to Guarantee--><path d="M1258.29,164.43 C1190.72,182.61 1105.37,203.01 1027.83,214 C726.989,256.64 642.328,182.2 344.831,244 C322.93,248.55 319.385,256.02 297.831,262 C224.324,282.4 193.687,251.84 128.831,292 C47.0877,342.621 -6.8434,377.138 8.831,472 C20.7685,544.246 24.4349,565.044 61.831,628 C79.4872,657.724 108.326,686.009 126.676,702.423 " fill="none" id="Document-Guarantee" style="stroke: #A80036; stroke-width: 1.0;"/><polygon fill="#A80036" points="130.65,705.939,126.5601,696.9795,126.9053,702.6258,121.259,702.971,130.65,705.939" style="stroke: #A80036; stroke-width: 1.0;"/><text fill="#000000" font-family="sans-serif" font-size="13" lengthAdjust="spacingAndGlyphs" textLength="68" x="9.831" y="467.0669">Guarantee</text><text fill="#000000" font-family="sans-serif" font-size="13" lengthAdjust="spacingAndGlyphs" textLength="7" x="116.4862" y="694.9662">*</text><!--link Document to GenericIdentification--><path d="M1258.52,163.11 C1190.83,180.95 1105.3,201.47 1027.83,214 C869.338,239.64 818.558,188.69 667.831,244 C581.689,275.61 585.636,331.487 499.831,364 C439.866,386.722 255.753,346.358 212.831,394 C184.746,425.173 245.341,554.311 267.852,599.389 " fill="none" id="Document-GenericIdentification" style="stroke: #A80036; stroke-width: 1.0;"/><polygon fill="#A80036" points="270.155,603.973,269.6877,594.1352,267.9098,599.5054,262.5396,597.7276,270.155,603.973" style="stroke: #A80036; stroke-width: 1.0;"/><text fill="#000000" font-family="sans-serif" font-size="13" lengthAdjust="spacingAndGlyphs" textLength="148" x="213.831" y="412.0669">DocumentIdentification</text><text fill="#000000" font-family="sans-serif" font-size="13" lengthAdjust="spacingAndGlyphs" textLength="8" x="257.3992" y="593.0119">1</text><!--link Document to Evidence--><path d="M1258.17,161.16 C1190.38,178.44 1104.87,199.04 1027.83,214 C937.87,231.47 901.699,195.68 823.831,244 C731.016,301.59 761.851,369.551 683.831,446 C661.24,468.136 630.359,487.375 608.711,499.488 " fill="none" id="Document-Evidence" style="stroke: #A80036; stroke-width: 1.0;"/><polygon fill="#A80036" points="604.238,501.964,614.0494,501.1062,608.6128,499.5431,610.1759,494.1065,604.238,501.964" style="stroke: #A80036; stroke-width: 1.0;"/><text fill="#000000" font-family="sans-serif" font-size="13" lengthAdjust="spacingAndGlyphs" textLength="57" x="745.831" y="359.0669">Evidence</text><text fill="#000000" font-family="sans-serif" font-size="13" lengthAdjust="spacingAndGlyphs" textLength="7" x="601.8779" y="490.9998">*</text><!--link Document to CommercialTrade--><path d="M1258.38,162.31 C1190.65,179.93 1105.13,200.48 1027.83,214 C906.722,235.18 871.941,213.52 752.831,244 C698.777,257.83 672.968,249.49 636.831,292 C612.751,320.327 609.236,366.206 609.235,390.571 " fill="none" id="Document-CommercialTrade" style="stroke: #A80036; stroke-width: 1.0;"/><polygon fill="#A80036" points="609.288,395.713,613.1952,386.6723,609.2366,390.7133,605.1956,386.7546,609.288,395.713" style="stroke: #A80036; stroke-width: 1.0;"/><text fill="#000000" font-family="sans-serif" font-size="13" lengthAdjust="spacingAndGlyphs" textLength="113" x="637.831" y="308.0669">CommercialTrade</text><text fill="#000000" font-family="sans-serif" font-size="13" lengthAdjust="spacingAndGlyphs" textLength="7" x="599.6175" y="384.9214">*</text><!--link Document to Presentation--><path d="M1258.48,156.73 C1143.86,184.15 988.177,224.14 965.831,244 C869.954,329.193 837.036,686.823 746.831,778 C733.55,791.424 715.195,800.69 698.023,806.968 " fill="none" id="Document-Presentation" style="stroke: #A80036; stroke-width: 1.0;"/><polygon fill="#A80036" points="693.216,808.661,703.0336,809.4457,697.9323,807.0008,700.3772,801.8996,693.216,808.661" style="stroke: #A80036; stroke-width: 1.0;"/><text fill="#000000" font-family="sans-serif" font-size="13" lengthAdjust="spacingAndGlyphs" textLength="81" x="856.831" y="518.0669">Presentation</text><text fill="#000000" font-family="sans-serif" font-size="13" lengthAdjust="spacingAndGlyphs" textLength="24" x="701.6585" y="801.7026">0..1</text><!--link Document to RegisteredContract--><path d="M1258.28,164.35 C1190.7,182.5 1105.36,202.9 1027.83,214 C745.069,254.48 664.745,182.36 385.831,244 C365.2,248.56 362.148,256.2 341.831,262 C265.108,283.9 228.025,243.29 164.831,292 C99.1379,342.638 87.831,379.055 87.831,462 C87.831,462 87.831,462 87.831,617 C87.831,654.947 194.772,687.73 262.494,704.685 " fill="none" id="Document-RegisteredContract" style="stroke: #A80036; stroke-width: 1.0;"/><polygon fill="#A80036" points="267.705,705.978,259.9334,699.9281,262.8522,704.7737,258.0065,707.6926,267.705,705.978" style="stroke: #A80036; stroke-width: 1.0;"/><text fill="#000000" font-family="sans-serif" font-size="13" lengthAdjust="spacingAndGlyphs" textLength="103" x="89.831" y="467.0669">RelatedContract</text><text fill="#000000" font-family="sans-serif" font-size="13" lengthAdjust="spacingAndGlyphs" textLength="8" x="240.0992" y="695.0187">1</text><!--link Invoice to Invoice--><path d="M1396.38,399.25 C1413.69,396.501 1430.83,399.418 1430.83,408 C1430.83,415.71 1416.99,418.848 1401.63,417.412 " fill="none" id="Invoice-Invoice" style="stroke: #A80036; stroke-width: 1.0;"/><polygon fill="#A80036" points="1396.38,416.75,1404.8059,421.8495,1401.3403,417.3784,1405.8114,413.9129,1396.38,416.75" style="stroke: #A80036; stroke-width: 1.0;"/><text fill="#000000" font-family="sans-serif" font-size="13" lengthAdjust="spacingAndGlyphs" textLength="92" x="1436.83" y="412.0669">OriginalInvoice</text><text fill="#000000" font-family="sans-serif" font-size="13" lengthAdjust="spacingAndGlyphs" textLength="8" x="1404.6931" y="412.9144">1</text><!--link ContactPoint to GenericIdentification--><path d="M138.226,139.07 C175.422,156.89 246.932,194.97 293.831,244 C317.368,268.61 369.164,382.5 371.831,394 C390.811,475.841 320.926,565.289 289.927,600.038 " fill="none" id="ContactPoint-GenericIdentification" style="stroke: #A80036; stroke-width: 1.0;"/><polygon fill="#A80036" points="286.348,604,295.3493,600.0028,289.6997,600.2897,289.4128,594.6401,286.348,604" style="stroke: #A80036; stroke-width: 1.0;"/><text fill="#000000" font-family="sans-serif" font-size="13" lengthAdjust="spacingAndGlyphs" textLength="81" x="376.831" y="412.0669">Identification</text><text fill="#000000" font-family="sans-serif" font-size="13" lengthAdjust="spacingAndGlyphs" textLength="8" x="279.1585" y="593.0482">1</text><!--link ContactPoint to ContactPoint--><path d="M127.248,114.8 C154.468,96.23 191.831,100.3 191.831,127 C191.831,152.24 158.443,157.26 131.797,142.05 " fill="none" id="ContactPoint-ContactPoint" style="stroke: #A80036; stroke-width: 1.0;"/><polygon fill="#A80036" points="127.248,139.2,132.7625,147.3603,131.4888,141.8487,137.0004,140.575,127.248,139.2" style="stroke: #A80036; stroke-width: 1.0;"/><text fill="#000000" font-family="sans-serif" font-size="13" lengthAdjust="spacingAndGlyphs" textLength="80" x="197.831" y="131.0669">MainContact</text><text fill="#000000" font-family="sans-serif" font-size="13" lengthAdjust="spacingAndGlyphs" textLength="8" x="121.4638" y="159.0561">1</text><!--link PaymentObligation to CommercialTrade--><path d="M283.347,316.013 C352.031,335.154 492.983,374.436 565.129,394.542 " fill="none" id="PaymentObligation-CommercialTrade" style="stroke: #A80036; stroke-width: 1.0;"/><polygon fill="#A80036" points="570.203,395.956,562.6064,389.6877,565.3864,394.6143,560.4597,397.3943,570.203,395.956" style="stroke: #A80036; stroke-width: 1.0;"/><text fill="#000000" font-family="sans-serif" font-size="13" lengthAdjust="spacingAndGlyphs" textLength="113" x="449.831" y="359.0669">CommercialTrade</text><text fill="#000000" font-family="sans-serif" font-size="13" lengthAdjust="spacingAndGlyphs" textLength="8" x="545.8621" y="384.9891">1</text><!--link Agreement to CommercialTrade--><path d="M836.476,1253.873 C854.843,1239.3781 882.831,1212.1759 882.831,1181 C882.831,1050 882.831,1050 882.831,1050 C882.831,1022.965 873.226,1015.812 854.831,996 C831.206,970.555 608.381,860.695 588.831,832 C220.098,290.79 499.56,598.095 533.831,502 C545.357,469.682 573.467,440.485 592.079,423.751 " fill="none" id="Agreement-CommercialTrade" style="stroke: #A80036; stroke-width: 1.0;"/><polygon fill="#A80036" points="596.127,420.172,586.7342,423.1345,592.3804,423.483,592.0318,429.1291,596.127,420.172" style="stroke: #A80036; stroke-width: 1.0;"/><text fill="#000000" font-family="sans-serif" font-size="13" lengthAdjust="spacingAndGlyphs" textLength="36" x="658.831" y="875.0669">Trade</text><text fill="#000000" font-family="sans-serif" font-size="13" lengthAdjust="spacingAndGlyphs" textLength="8" x="579.7623" y="440.017">1</text><!--link Location to Transport--><path d="M605.508,1176.292 C534.824,1168.958 360.831,1145.75 360.831,1095 C360.831,921 360.831,921 360.831,921 C360.831,885.406 390.813,853.286 411.25,835.526 " fill="none" id="Location-Transport" style="stroke: #A80036; stroke-width: 1.0;"/><polygon fill="#A80036" points="415.198,832.169,405.75,834.9502,411.3883,835.4073,410.9312,841.0456,415.198,832.169" style="stroke: #A80036; stroke-width: 1.0;"/><text fill="#000000" font-family="sans-serif" font-size="13" lengthAdjust="spacingAndGlyphs" textLength="201" x="361.831" y="1012.0669">DepartureTransportParameters</text><text fill="#000000" font-family="sans-serif" font-size="13" lengthAdjust="spacingAndGlyphs" textLength="24" x="379.2191" y="852.0129">0..1</text><!--link Location to Transport--><path d="M634.831,1167.858 C634.831,1151.771 634.831,1121.104 634.831,1095 C634.831,921 634.831,921 634.831,921 C634.831,847.774 527.867,828.159 468.468,822.911 " fill="none" id="Location-Transport" style="stroke: #A80036; stroke-width: 1.0;"/><polygon fill="#A80036" points="463.224,822.474,471.8602,827.2086,468.2067,822.8898,472.5255,819.2363,463.224,822.474" style="stroke: #A80036; stroke-width: 1.0;"/><text fill="#000000" font-family="sans-serif" font-size="13" lengthAdjust="spacingAndGlyphs" textLength="209" x="635.831" y="1012.0669">DestinationTransportParameters</text><text fill="#000000" font-family="sans-serif" font-size="13" lengthAdjust="spacingAndGlyphs" textLength="24" x="471.5472" y="836.395">0..1</text><!--link Location to Transport--><path d="M605.566,1179.535 C522.703,1179.213 287.215,1165.147 205.831,1020 C179.434,972.921 343.026,871.404 405.933,834.642 " fill="none" id="Location-Transport" style="stroke: #A80036; stroke-width: 1.0;"/><polygon fill="#A80036" points="410.285,832.109,400.4946,833.1801,405.9639,834.6245,404.5194,840.0939,410.285,832.109" style="stroke: #A80036; stroke-width: 1.0;"/><text fill="#000000" font-family="sans-serif" font-size="13" lengthAdjust="spacingAndGlyphs" textLength="109" x="206.831" y="1012.0669">RelatedTransport</text><text fill="#000000" font-family="sans-serif" font-size="13" lengthAdjust="spacingAndGlyphs" textLength="8" x="404.0653" y="851.9292">1</text><!--link Location to GenericIdentification--><path d="M605.539,1176.879 C525.684,1170.572 306.436,1149.599 250.831,1106 C176.523,1047.735 154.118,1003.274 168.831,910 C186.34,799.002 245.764,675.442 267.651,632.611 " fill="none" id="Location-GenericIdentification" style="stroke: #A80036; stroke-width: 1.0;"/><polygon fill="#A80036" points="270.01,628.024,262.3359,634.1971,267.7226,632.4701,269.4497,637.8569,270.01,628.024" style="stroke: #A80036; stroke-width: 1.0;"/><text fill="#000000" font-family="sans-serif" font-size="13" lengthAdjust="spacingAndGlyphs" textLength="81" x="169.831" y="926.0669">Identification</text><text fill="#000000" font-family="sans-serif" font-size="13" lengthAdjust="spacingAndGlyphs" textLength="7" x="257.6495" y="648.1784">*</text><!--link GenericIdentification to RegisteredContract--><path d="M280.375,628.084 C287.641,645.804 301.903,680.591 310.273,701.005 " fill="none" id="GenericIdentification-RegisteredContract" style="stroke: #A80036; stroke-width: 1.0;"/><polygon fill="#A80036" points="312.266,705.867,312.5528,696.0223,310.3692,701.2407,305.1508,699.0572,312.266,705.867" style="stroke: #A80036; stroke-width: 1.0;"/><text fill="#000000" font-family="sans-serif" font-size="13" lengthAdjust="spacingAndGlyphs" textLength="113" x="301.831" y="671.0669">RelatedCertificate</text><text fill="#000000" font-family="sans-serif" font-size="13" lengthAdjust="spacingAndGlyphs" textLength="8" x="299.978" y="694.8695">1</text></g></svg>