<?xml version="1.0" encoding="UTF-8" standalone="no"?><svg xmlns="http://www.w3.org/2000/svg" xmlns:xlink="http://www.w3.org/1999/xlink" contentScriptType="application/ecmascript" contentStyleType="text/css" height="502px" preserveAspectRatio="none" style="width:915px;height:502px;" version="1.1" viewBox="0 0 915 502" width="915px" zoomAndPan="magnify"><defs><filter height="300%" id="frmlv794aczp1" width="300%" x="-1" y="-1"><feGaussianBlur result="blurOut" stdDeviation="2.0"/><feColorMatrix in="blurOut" result="blurOut2" type="matrix" values="0 0 0 0 0 0 0 0 0 0 0 0 0 0 0 0 0 0 .4 0"/><feOffset dx="4.0" dy="4.0" in="blurOut2" result="blurOut3"/><feBlend in="SourceGraphic" in2="blurOut3" mode="normal"/></filter></defs><g><!--cluster ##17732--><!--cluster ##17744--><!--cluster ##17753--><!--cluster ##17756--><!--class Role--><a target="_top" xlink:actuate="onRequest" xlink:href="../Role.html" xlink:show="new" xlink:title="Role of a party in an activity." xlink:type="simple"><rect fill="#FEFEEE" filter="url(#frmlv794aczp1)" height="44.7734" id="Role" style="stroke: #A80036; stroke-width: 1.5;" width="175" x="108.509" y="40.5"/><rect fill="#FEFEEE" height="23.9688" style="stroke: #A80036; stroke-width: 1.5;" width="175" x="108.509" y="40.5"/><text fill="#000000" font-family="sans-serif" font-size="12" lengthAdjust="spacingAndGlyphs" textLength="27" x="182.509" y="56.6387">Role</text><line style="stroke: #A80036; stroke-width: 1.5;" x1="109.509" x2="282.509" y1="64.4688" y2="64.4688"/><ellipse cx="119.509" cy="76.3711" fill="#84BE84" rx="3" ry="3" style="stroke: #038048; stroke-width: 1.0;"/><text fill="#000000" font-family="sans-serif" font-size="11" lengthAdjust="spacingAndGlyphs" textLength="53" x="128.509" y="78.6792">PartyRole</text><text fill="#000000" font-family="sans-serif" font-size="11" font-style="italic" lengthAdjust="spacingAndGlyphs" textLength="92" x="185.509" y="78.6792">(PartyRoleCode)</text></a><!--class InvoicePartyRole--><a target="_top" xlink:actuate="onRequest" xlink:href="../InvoicePartyRole.html" xlink:show="new" xlink:title="Role played by a party in the context of an invoice." xlink:type="simple"><rect fill="#FEFEEE" filter="url(#frmlv794aczp1)" height="23.9688" id="InvoicePartyRole" style="stroke: #A80036; stroke-width: 1.5;" width="108" x="141.759" y="166"/><rect fill="#FEFEEE" height="23.9688" style="stroke: #A80036; stroke-width: 1.5;" width="108" x="141.759" y="166"/><text fill="#000000" font-family="sans-serif" font-size="12" lengthAdjust="spacingAndGlyphs" textLength="102" x="144.759" y="182.1387">InvoicePartyRole</text></a><!--class InvoiceFinancingPartyRole--><a target="_top" xlink:actuate="onRequest" xlink:href="../InvoiceFinancingPartyRole.html" xlink:show="new" xlink:title="Role played by a party in the context of financing an invoice." xlink:type="simple"><rect fill="#FEFEEE" filter="url(#frmlv794aczp1)" height="23.9688" id="InvoiceFinancingPartyRole" style="stroke: #A80036; stroke-width: 1.5;" width="168" x="108.259" y="272"/><rect fill="#FEFEEE" height="23.9688" style="stroke: #A80036; stroke-width: 1.5;" width="168" x="108.259" y="272"/><text fill="#000000" font-family="sans-serif" font-size="12" lengthAdjust="spacingAndGlyphs" textLength="162" x="111.259" y="288.1387">InvoiceFinancingPartyRole</text></a><!--class FinancingRequestorRole--><a target="_top" xlink:actuate="onRequest" xlink:href="../FinancingRequestorRole.html" xlink:show="new" xlink:title="Credit party that requests the invoice financing, on behalf of creditor." xlink:type="simple"><rect fill="#FEFECE" filter="url(#frmlv794aczp1)" height="23.9688" id="FinancingRequestorRole" style="stroke: #A80036; stroke-width: 1.5;" width="158" x="126.259" y="380"/><rect fill="#FEFECE" height="23.9688" style="stroke: #A80036; stroke-width: 1.5;" width="158" x="126.259" y="380"/><text fill="#000000" font-family="sans-serif" font-size="12" lengthAdjust="spacingAndGlyphs" textLength="152" x="129.259" y="396.1387">FinancingRequestorRole</text></a><!--class RolePlayer--><a target="_top" xlink:actuate="onRequest" xlink:href="../RolePlayer.html" xlink:show="new" xlink:title="Type of entity that plays a specific role in a specific context." xlink:type="simple"><rect fill="#EEEEEE" filter="url(#frmlv794aczp1)" height="23.9688" id="RolePlayer" style="stroke: #A80036; stroke-width: 1.5;" width="71" x="726.509" y="468"/><rect fill="#EEEEEE" height="23.9688" style="stroke: #A80036; stroke-width: 1.5;" width="71" x="726.509" y="468"/><text fill="#000000" font-family="sans-serif" font-size="12" lengthAdjust="spacingAndGlyphs" textLength="65" x="729.509" y="484.1387">RolePlayer</text></a><!--class ContactPersonRole--><a target="_top" xlink:actuate="onRequest" xlink:href="../ContactPersonRole.html" xlink:show="new" xlink:title="Person to be contacted in a given organisation. In the corporate action domain (including meeting notifications) , it is the contact person at the party organising the meeting, at the issuer or at an intermediary." xlink:type="simple"><rect fill="#EEEEEE" filter="url(#frmlv794aczp1)" height="23.9688" id="ContactPersonRole" style="stroke: #A80036; stroke-width: 1.5;" width="126" x="718.759" y="380"/><rect fill="#EEEEEE" height="23.9688" style="stroke: #A80036; stroke-width: 1.5;" width="126" x="718.759" y="380"/><text fill="#000000" font-family="sans-serif" font-size="12" lengthAdjust="spacingAndGlyphs" textLength="120" x="721.759" y="396.1387">ContactPersonRole</text></a><!--class CounterpartyRisk--><a target="_top" xlink:actuate="onRequest" xlink:href="../CounterpartyRisk.html" xlink:show="new" xlink:title="Calculation of the exposure amount that one party has vis-a-vis one counterparty or a central system, based on its credit risk." xlink:type="simple"><rect fill="#EEEEEE" filter="url(#frmlv794aczp1)" height="23.9688" id="CounterpartyRisk" style="stroke: #A80036; stroke-width: 1.5;" width="113" x="731.509" y="272"/><rect fill="#EEEEEE" height="23.9688" style="stroke: #A80036; stroke-width: 1.5;" width="113" x="731.509" y="272"/><text fill="#000000" font-family="sans-serif" font-size="12" lengthAdjust="spacingAndGlyphs" textLength="107" x="734.509" y="288.1387">CounterpartyRisk</text></a><!--class Entry--><a target="_top" xlink:actuate="onRequest" xlink:href="../Entry.html" xlink:show="new" xlink:title="Posting to an account that results in an increase or decrease to a balance." xlink:type="simple"><rect fill="#EEEEEE" filter="url(#frmlv794aczp1)" height="23.9688" id="Entry" style="stroke: #A80036; stroke-width: 1.5;" width="38" x="718.759" y="166"/><rect fill="#EEEEEE" height="23.9688" style="stroke: #A80036; stroke-width: 1.5;" width="38" x="718.759" y="166"/><text fill="#000000" font-family="sans-serif" font-size="12" lengthAdjust="spacingAndGlyphs" textLength="32" x="721.759" y="182.1387">Entry</text></a><!--class Invoice--><a target="_top" xlink:actuate="onRequest" xlink:href="../Invoice.html" xlink:show="new" xlink:title="General information about an invoice, such as number, issue date date and monetary amounts." xlink:type="simple"><rect fill="#EEEEEE" filter="url(#frmlv794aczp1)" height="23.9688" id="Invoice" style="stroke: #A80036; stroke-width: 1.5;" width="49" x="340.509" y="272"/><rect fill="#EEEEEE" height="23.9688" style="stroke: #A80036; stroke-width: 1.5;" width="49" x="340.509" y="272"/><text fill="#000000" font-family="sans-serif" font-size="12" lengthAdjust="spacingAndGlyphs" textLength="43" x="343.509" y="288.1387">Invoice</text></a><!--class CashAccount--><a target="_top" xlink:actuate="onRequest" xlink:href="../CashAccount.html" xlink:show="new" xlink:title="Account to or from which a cash entry is made." xlink:type="simple"><rect fill="#EEEEEE" filter="url(#frmlv794aczp1)" height="23.9688" id="CashAccount" style="stroke: #A80036; stroke-width: 1.5;" width="88" x="351.259" y="468"/><rect fill="#EEEEEE" height="23.9688" style="stroke: #A80036; stroke-width: 1.5;" width="88" x="351.259" y="468"/><text fill="#000000" font-family="sans-serif" font-size="12" lengthAdjust="spacingAndGlyphs" textLength="82" x="354.259" y="484.1387">CashAccount</text></a><!--class InvoiceFinancingAgreement--><a target="_top" xlink:actuate="onRequest" xlink:href="../InvoiceFinancingAgreement.html" xlink:show="new" xlink:title="Set of characteristics that unambiguously identify an invoice financing agreement. An invoice financing agreement between a factor and its client allows to transfer a payment obligation that exists between the client and a third party from the client to the factor." xlink:type="simple"><rect fill="#EEEEEE" filter="url(#frmlv794aczp1)" height="23.9688" id="InvoiceFinancingAgreement" style="stroke: #A80036; stroke-width: 1.5;" width="178" x="340.259" y="380"/><rect fill="#EEEEEE" height="23.9688" style="stroke: #A80036; stroke-width: 1.5;" width="178" x="340.259" y="380"/><text fill="#000000" font-family="sans-serif" font-size="12" lengthAdjust="spacingAndGlyphs" textLength="172" x="343.259" y="396.1387">InvoiceFinancingAgreement</text></a><!--entity ##17761--><!--link Role to InvoicePartyRole--><path d="M195.759,105.559 C195.759,127.159 195.759,151.898 195.759,165.865 " fill="none" id="Role-InvoicePartyRole" style="stroke: #A80036; stroke-width: 1.0;"/><polygon fill="none" points="188.759,105.52,195.759,85.52,202.759,105.52,188.759,105.52" style="stroke: #A80036; stroke-width: 1.0;"/><!--link InvoicePartyRole to InvoiceFinancingPartyRole--><path d="M194.558,210.217 C193.754,231.114 192.744,257.371 192.184,271.95 " fill="none" id="InvoicePartyRole-InvoiceFinancingPartyRole" style="stroke: #A80036; stroke-width: 1.0;"/><polygon fill="none" points="187.567,209.846,195.331,190.13,201.557,210.384,187.567,209.846" style="stroke: #A80036; stroke-width: 1.0;"/><!--link InvoiceFinancingPartyRole to FinancingRequestorRole--><path d="M164.155,311.118 C155.77,322.237 150.099,335.503 155.759,348 C161.876,361.506 174.563,372.449 185.495,379.916 " fill="none" id="InvoiceFinancingPartyRole-FinancingRequestorRole" style="stroke: #A80036; stroke-width: 1.0;"/><polygon fill="none" points="159.145,306.226,177.85,296.27,169.436,315.717,159.145,306.226" style="stroke: #A80036; stroke-width: 1.0;"/><!--link ContactPersonRole to RolePlayer--><!--link CounterpartyRisk to ContactPersonRole--><!--link Entry to CounterpartyRisk--><!--link InvoiceFinancingAgreement to CashAccount--><!--link Role to RolePlayer--><path d="M246.061,85.505 C313.911,115.803 436.833,175.322 528.759,246 C617.232,314.024 620.683,351.308 701.759,428 C715.322,440.8298 731.488,454.4844 743.621,464.4329 " fill="none" id="Role-RolePlayer" style="stroke: #A80036; stroke-width: 1.0;"/><polygon fill="#A80036" points="747.572,467.6582,743.1291,458.8684,743.6985,464.4965,738.0704,465.0659,747.572,467.6582" style="stroke: #A80036; stroke-width: 1.0;"/><text fill="#000000" font-family="sans-serif" font-size="13" lengthAdjust="spacingAndGlyphs" textLength="39" x="609.759" y="288.0669">Player</text><text fill="#000000" font-family="sans-serif" font-size="13" lengthAdjust="spacingAndGlyphs" textLength="7" x="733.2991" y="456.8484">*</text><!--link Role to ContactPersonRole--><path d="M283.116,64.892 C388.956,67.668 559.272,78.103 608.759,116 C655.283,151.629 631.474,186.141 658.759,238 C679.537,277.492 685.737,287.271 713.759,322 C729.977,342.1 751.206,362.914 765.599,376.353 " fill="none" id="Role-ContactPersonRole" style="stroke: #A80036; stroke-width: 1.0;"/><polygon fill="#A80036" points="769.467,379.941,765.5868,370.8887,765.8004,376.5415,760.1476,376.7552,769.467,379.941" style="stroke: #A80036; stroke-width: 1.0;"/><text fill="#000000" font-family="sans-serif" font-size="13" lengthAdjust="spacingAndGlyphs" textLength="121" x="659.759" y="233.0669">ContactPersonRole</text><text fill="#000000" font-family="sans-serif" font-size="13" lengthAdjust="spacingAndGlyphs" textLength="8" x="754.5229" y="368.9689">1</text><!--link Role to CounterpartyRisk--><path d="M283.241,63.496 C420.085,64.129 677.261,71.455 755.759,116 C786.72,133.569 801.386,217.782 801.759,220 C804.482,236.192 799.5,254.491 794.741,267.178 " fill="none" id="Role-CounterpartyRisk" style="stroke: #A80036; stroke-width: 1.0;"/><polygon fill="#A80036" points="792.877,271.916,799.8936,265.0046,794.7071,267.263,792.4487,262.0765,792.877,271.916" style="stroke: #A80036; stroke-width: 1.0;"/><text fill="#000000" font-family="sans-serif" font-size="13" lengthAdjust="spacingAndGlyphs" textLength="109" x="794.759" y="182.0669">CounterpartyRisk</text><text fill="#000000" font-family="sans-serif" font-size="13" lengthAdjust="spacingAndGlyphs" textLength="24" x="765.0816" y="260.9353">0..1</text><!--link Role to Entry--><path d="M283.012,64.888 C406.267,67.521 623.925,77.649 691.759,116 C709.809,126.205 722.968,146.694 730.478,161.101 " fill="none" id="Role-Entry" style="stroke: #A80036; stroke-width: 1.0;"/><polygon fill="#A80036" points="732.807,165.73,732.3359,155.8924,730.5601,161.2633,725.1892,159.4875,732.807,165.73" style="stroke: #A80036; stroke-width: 1.0;"/><text fill="#000000" font-family="sans-serif" font-size="13" lengthAdjust="spacingAndGlyphs" textLength="33" x="712.759" y="129.0669">Entry</text><text fill="#000000" font-family="sans-serif" font-size="13" lengthAdjust="spacingAndGlyphs" textLength="8" x="720.5104" y="154.944">1</text><!--link InvoicePartyRole to Invoice--><path d="M213.845,190.13 C244.975,209.287 308.592,248.436 342.431,269.26 " fill="none" id="InvoicePartyRole-Invoice" style="stroke: #A80036; stroke-width: 1.0;"/><polygon fill="#A80036" points="346.803,271.95,341.2355,263.8258,342.5451,269.329,337.0419,270.6385,346.803,271.95" style="stroke: #A80036; stroke-width: 1.0;"/><text fill="#000000" font-family="sans-serif" font-size="13" lengthAdjust="spacingAndGlyphs" textLength="44" x="291.759" y="233.0669">Invoice</text><text fill="#000000" font-family="sans-serif" font-size="13" lengthAdjust="spacingAndGlyphs" textLength="7" x="330.9978" y="260.981">*</text><!--link InvoiceFinancingPartyRole to CashAccount--><path d="M118.588,296.068 C82.7162,305.585 42.6217,323.25 20.7586,356 C2.9917,382.615 -0.2847,403.892 20.7586,428 C62.4184,475.7262 254.483,480.4525 346.002,479.9071 " fill="none" id="InvoiceFinancingPartyRole-CashAccount" style="stroke: #A80036; stroke-width: 1.0;"/><polygon fill="#A80036" points="351.083,479.8707,342.0547,475.9351,346.0831,479.9064,342.1118,483.9349,351.083,479.8707" style="stroke: #A80036; stroke-width: 1.0;"/><text fill="#000000" font-family="sans-serif" font-size="13" lengthAdjust="spacingAndGlyphs" textLength="84" x="21.7586" y="396.0669">CashAccount</text><text fill="#000000" font-family="sans-serif" font-size="13" lengthAdjust="spacingAndGlyphs" textLength="7" x="336.2379" y="474.7356">*</text><!--link InvoiceFinancingPartyRole to InvoiceFinancingAgreement--><path d="M190.431,296.281 C189.441,310.634 190.222,335.104 204.759,348 C220.607,362.06 278.894,352.322 299.759,356 C330.396,361.4 364.322,370.743 389.691,378.418 " fill="none" id="InvoiceFinancingPartyRole-InvoiceFinancingAgreement" style="stroke: #A80036; stroke-width: 1.0;"/><polygon fill="#A80036" points="394.647,379.929,387.2052,373.4777,389.8644,378.4705,384.8716,381.1298,394.647,379.929" style="stroke: #A80036; stroke-width: 1.0;"/><text fill="#000000" font-family="sans-serif" font-size="13" lengthAdjust="spacingAndGlyphs" textLength="178" x="205.759" y="343.0669">InvoiceFinancingTransaction</text><text fill="#000000" font-family="sans-serif" font-size="13" lengthAdjust="spacingAndGlyphs" textLength="7" x="373.2023" y="368.9528">*</text><!--link Invoice to Invoice--><path d="M389.308,274.914 C406.617,272.059 423.759,275.088 423.759,284 C423.759,292.007 409.922,295.265 394.559,293.774 " fill="none" id="Invoice-Invoice" style="stroke: #A80036; stroke-width: 1.0;"/><polygon fill="#A80036" points="389.308,293.086,397.7118,298.2218,394.2656,293.7359,398.7516,290.2897,389.308,293.086" style="stroke: #A80036; stroke-width: 1.0;"/><text fill="#000000" font-family="sans-serif" font-size="13" lengthAdjust="spacingAndGlyphs" textLength="92" x="429.759" y="288.0669">OriginalInvoice</text><text fill="#000000" font-family="sans-serif" font-size="13" lengthAdjust="spacingAndGlyphs" textLength="8" x="397.6208" y="289.3491">1</text><!--link Invoice to InvoiceFinancingAgreement--><path d="M371.608,296.344 C383.108,315.391 406.316,353.829 419.342,375.403 " fill="none" id="Invoice-InvoiceFinancingAgreement" style="stroke: #A80036; stroke-width: 1.0;"/><polygon fill="#A80036" points="421.959,379.738,420.7312,369.966,419.3746,375.4577,413.8828,374.1011,421.959,379.738" style="stroke: #A80036; stroke-width: 1.0;"/><text fill="#000000" font-family="sans-serif" font-size="13" lengthAdjust="spacingAndGlyphs" textLength="178" x="403.759" y="343.0669">InvoiceFinancingTransaction</text><text fill="#000000" font-family="sans-serif" font-size="13" lengthAdjust="spacingAndGlyphs" textLength="8" x="408.8846" y="368.9547">1</text></g></svg>