<?xml version="1.0" encoding="UTF-8" standalone="no"?><svg xmlns="http://www.w3.org/2000/svg" xmlns:xlink="http://www.w3.org/1999/xlink" contentScriptType="application/ecmascript" contentStyleType="text/css" height="762px" preserveAspectRatio="none" style="width:2757px;height:762px;" version="1.1" viewBox="0 0 2757 762" width="2757px" zoomAndPan="magnify"><defs><filter height="300%" id="f1h2aqeawgqvds" width="300%" x="-1" y="-1"><feGaussianBlur result="blurOut" stdDeviation="2.0"/><feColorMatrix in="blurOut" result="blurOut2" type="matrix" values="0 0 0 0 0 0 0 0 0 0 0 0 0 0 0 0 0 0 .4 0"/><feOffset dx="4.0" dy="4.0" in="blurOut2" result="blurOut3"/><feBlend in="SourceGraphic" in2="blurOut3" mode="normal"/></filter></defs><g><!--cluster ##26483--><!--cluster ##26501--><!--class Product--><a target="_top" xlink:actuate="onRequest" xlink:href="../Product.html" xlink:show="new" xlink:title="Item that is offered for sale. Products can be services or goods." xlink:type="simple"><rect fill="#FEFEEE" filter="url(#f1h2aqeawgqvds)" height="70.3828" id="Product" style="stroke: #A80036; stroke-width: 1.5;" width="171" x="2158.75" y="40"/><rect fill="#FEFEEE" height="23.9688" style="stroke: #A80036; stroke-width: 1.5;" width="171" x="2158.75" y="40"/><text fill="#000000" font-family="sans-serif" font-size="12" lengthAdjust="spacingAndGlyphs" textLength="49" x="2219.75" y="56.1387">Product</text><line style="stroke: #A80036; stroke-width: 1.5;" x1="2159.75" x2="2328.75" y1="63.9688" y2="63.9688"/><ellipse cx="2169.75" cy="75.8711" fill="#84BE84" rx="3" ry="3" style="stroke: #038048; stroke-width: 1.0;"/><text fill="#000000" font-family="sans-serif" font-size="11" lengthAdjust="spacingAndGlyphs" textLength="33" x="2178.75" y="78.1792">Name</text><text fill="#000000" font-family="sans-serif" font-size="11" font-style="italic" lengthAdjust="spacingAndGlyphs" textLength="70" x="2215.75" y="78.1792">(Max35Text)</text><ellipse cx="2169.75" cy="88.6758" fill="#84BE84" rx="3" ry="3" style="stroke: #038048; stroke-width: 1.0;"/><text fill="#000000" font-family="sans-serif" font-size="11" lengthAdjust="spacingAndGlyphs" textLength="64" x="2178.75" y="90.9839">Description</text><text fill="#000000" font-family="sans-serif" font-size="11" font-style="italic" lengthAdjust="spacingAndGlyphs" textLength="77" x="2246.75" y="90.9839">(Max140Text)</text><ellipse cx="2169.75" cy="101.4805" fill="#84BE84" rx="3" ry="3" style="stroke: #038048; stroke-width: 1.0;"/><text fill="#000000" font-family="sans-serif" font-size="11" lengthAdjust="spacingAndGlyphs" textLength="39" x="2178.75" y="103.7886">Quality</text><text fill="#000000" font-family="sans-serif" font-size="11" font-style="italic" lengthAdjust="spacingAndGlyphs" textLength="70" x="2221.75" y="103.7886">(Max70Text)</text></a><!--class Service--><a target="_top" xlink:actuate="onRequest" xlink:href="../Service.html" xlink:show="new" xlink:title="Service is the intangible equivalent of a good." xlink:type="simple"><rect fill="#FEFEEE" filter="url(#f1h2aqeawgqvds)" height="83.1875" id="Service" style="stroke: #A80036; stroke-width: 1.5;" width="283" x="2312.75" y="188.5"/><rect fill="#FEFEEE" height="23.9688" style="stroke: #A80036; stroke-width: 1.5;" width="283" x="2312.75" y="188.5"/><text fill="#000000" font-family="sans-serif" font-size="12" lengthAdjust="spacingAndGlyphs" textLength="45" x="2431.75" y="204.6387">Service</text><line style="stroke: #A80036; stroke-width: 1.5;" x1="2313.75" x2="2594.75" y1="212.4688" y2="212.4688"/><ellipse cx="2323.75" cy="224.3711" fill="#84BE84" rx="3" ry="3" style="stroke: #038048; stroke-width: 1.0;"/><text fill="#000000" font-family="sans-serif" font-size="11" lengthAdjust="spacingAndGlyphs" textLength="43" x="2332.75" y="226.6792">Amount</text><text fill="#000000" font-family="sans-serif" font-size="11" font-style="italic" lengthAdjust="spacingAndGlyphs" textLength="126" x="2379.75" y="226.6792">(CurrencyAndAmount)</text><ellipse cx="2323.75" cy="237.1758" fill="#84BE84" rx="3" ry="3" style="stroke: #038048; stroke-width: 1.0;"/><text fill="#000000" font-family="sans-serif" font-size="11" lengthAdjust="spacingAndGlyphs" textLength="27" x="2332.75" y="239.4839">Type</text><text fill="#000000" font-family="sans-serif" font-size="11" font-style="italic" lengthAdjust="spacingAndGlyphs" textLength="70" x="2363.75" y="239.4839">(Max35Text)</text><ellipse cx="2323.75" cy="249.9805" fill="#84BE84" rx="3" ry="3" style="stroke: #038048; stroke-width: 1.0;"/><text fill="#000000" font-family="sans-serif" font-size="11" lengthAdjust="spacingAndGlyphs" textLength="87" x="2332.75" y="252.2886">TaxDesignation</text><text fill="#000000" font-family="sans-serif" font-size="11" font-style="italic" lengthAdjust="spacingAndGlyphs" textLength="166" x="2423.75" y="252.2886">(ServiceTaxDesignationCode)</text><ellipse cx="2323.75" cy="262.7852" fill="#84BE84" rx="3" ry="3" style="stroke: #038048; stroke-width: 1.0;"/><text fill="#000000" font-family="sans-serif" font-size="11" lengthAdjust="spacingAndGlyphs" textLength="25" x="2332.75" y="265.0933">Rate</text><text fill="#000000" font-family="sans-serif" font-size="11" font-style="italic" lengthAdjust="spacingAndGlyphs" textLength="98" x="2361.75" y="265.0933">(PercentageRate)</text></a><!--class FinancialService--><a target="_top" xlink:actuate="onRequest" xlink:href="../FinancialService.html" xlink:show="new" xlink:title="Services provided by a financial institution to its clients." xlink:type="simple"><rect fill="#FEFECE" filter="url(#f1h2aqeawgqvds)" height="23.9688" id="FinancialService" style="stroke: #A80036; stroke-width: 1.5;" width="106" x="2353.5" y="350"/><rect fill="#FEFECE" height="23.9688" style="stroke: #A80036; stroke-width: 1.5;" width="106" x="2353.5" y="350"/><text fill="#000000" font-family="sans-serif" font-size="12" lengthAdjust="spacingAndGlyphs" textLength="100" x="2356.5" y="366.1387">FinancialService</text></a><!--class AccountService--><a target="_top" xlink:actuate="onRequest" xlink:href="../AccountService.html" xlink:show="new" xlink:title="Services linked to an account which are available to the account owner or to the holder of a mandate." xlink:type="simple"><rect fill="#FEFEEE" filter="url(#f1h2aqeawgqvds)" height="23.9688" id="AccountService" style="stroke: #A80036; stroke-width: 1.5;" width="102" x="2158.5" y="452"/><rect fill="#FEFEEE" height="23.9688" style="stroke: #A80036; stroke-width: 1.5;" width="102" x="2158.5" y="452"/><text fill="#000000" font-family="sans-serif" font-size="12" lengthAdjust="spacingAndGlyphs" textLength="96" x="2161.5" y="468.1387">AccountService</text></a><!--class CorporateActionServicing--><a target="_top" xlink:actuate="onRequest" xlink:href="../CorporateActionServicing.html" xlink:show="new" xlink:title="Services which consists in notifying the investor or its agent of a corporate event and calculating its proceeds based on its holdings." xlink:type="simple"><rect fill="#FEFEEE" filter="url(#f1h2aqeawgqvds)" height="23.9688" id="CorporateActionServicing" style="stroke: #A80036; stroke-width: 1.5;" width="164" x="2295" y="452"/><rect fill="#FEFEEE" height="23.9688" style="stroke: #A80036; stroke-width: 1.5;" width="164" x="2295" y="452"/><text fill="#000000" font-family="sans-serif" font-size="12" lengthAdjust="spacingAndGlyphs" textLength="158" x="2298" y="468.1387">CorporateActionServicing</text></a><!--class CustodyService--><a target="_top" xlink:actuate="onRequest" xlink:href="../CustodyService.html" xlink:show="new" xlink:title="A service in which a financial institution holds securities on behalf of the client. Custody provides an investor a place to store assets. Assets in custody are not fungible for the brokerage because they remain on the client's name." xlink:type="simple"><rect fill="#FEFEEE" filter="url(#f1h2aqeawgqvds)" height="23.9688" id="CustodyService" style="stroke: #A80036; stroke-width: 1.5;" width="101" x="2494.75" y="452"/><rect fill="#FEFEEE" height="23.9688" style="stroke: #A80036; stroke-width: 1.5;" width="101" x="2494.75" y="452"/><text fill="#000000" font-family="sans-serif" font-size="12" lengthAdjust="spacingAndGlyphs" textLength="95" x="2497.75" y="468.1387">CustodyService</text></a><!--class CardPayment--><a target="_top" xlink:actuate="onRequest" xlink:href="../CardPayment.html" xlink:show="new" xlink:title="Payment through an electronic money product." xlink:type="simple"><rect fill="#EEEEEE" filter="url(#f1h2aqeawgqvds)" height="23.9688" id="CardPayment" style="stroke: #A80036; stroke-width: 1.5;" width="89" x="1098.75" y="452"/><rect fill="#EEEEEE" height="23.9688" style="stroke: #A80036; stroke-width: 1.5;" width="89" x="1098.75" y="452"/><text fill="#000000" font-family="sans-serif" font-size="12" lengthAdjust="spacingAndGlyphs" textLength="83" x="1101.75" y="468.1387">CardPayment</text></a><!--class Price--><a target="_top" xlink:actuate="onRequest" xlink:href="../Price.html" xlink:show="new" xlink:title="Amount of money for which goods, services or assets are offered, sold, or bought." xlink:type="simple"><rect fill="#EEEEEE" filter="url(#f1h2aqeawgqvds)" height="23.9688" id="Price" style="stroke: #A80036; stroke-width: 1.5;" width="37" x="1480.75" y="350"/><rect fill="#EEEEEE" height="23.9688" style="stroke: #A80036; stroke-width: 1.5;" width="37" x="1480.75" y="350"/><text fill="#000000" font-family="sans-serif" font-size="12" lengthAdjust="spacingAndGlyphs" textLength="31" x="1483.75" y="366.1387">Price</text></a><!--class ProductCategory--><a target="_top" xlink:actuate="onRequest" xlink:href="../ProductCategory.html" xlink:show="new" xlink:title="Specifies the category of the product." xlink:type="simple"><rect fill="#EEEEEE" filter="url(#f1h2aqeawgqvds)" height="23.9688" id="ProductCategory" style="stroke: #A80036; stroke-width: 1.5;" width="111" x="1386.75" y="218"/><rect fill="#EEEEEE" height="23.9688" style="stroke: #A80036; stroke-width: 1.5;" width="111" x="1386.75" y="218"/><text fill="#000000" font-family="sans-serif" font-size="12" lengthAdjust="spacingAndGlyphs" textLength="105" x="1389.75" y="234.1387">ProductCategory</text></a><!--class LineItem--><a target="_top" xlink:actuate="onRequest" xlink:href="../LineItem.html" xlink:show="new" xlink:title="Unit of information showing the related provision of products and/or services and monetary summations reported as a discrete line item." xlink:type="simple"><rect fill="#EEEEEE" filter="url(#f1h2aqeawgqvds)" height="23.9688" id="LineItem" style="stroke: #A80036; stroke-width: 1.5;" width="58" x="1049.5" y="63"/><rect fill="#EEEEEE" height="23.9688" style="stroke: #A80036; stroke-width: 1.5;" width="58" x="1049.5" y="63"/><text fill="#000000" font-family="sans-serif" font-size="12" lengthAdjust="spacingAndGlyphs" textLength="52" x="1052.5" y="79.1387">LineItem</text></a><!--class ProductIdentification--><a target="_top" xlink:actuate="onRequest" xlink:href="../ProductIdentification.html" xlink:show="new" xlink:title="Information used to identify a product." xlink:type="simple"><rect fill="#EEEEEE" filter="url(#f1h2aqeawgqvds)" height="23.9688" id="ProductIdentification" style="stroke: #A80036; stroke-width: 1.5;" width="136" x="1377" y="556"/><rect fill="#EEEEEE" height="23.9688" style="stroke: #A80036; stroke-width: 1.5;" width="136" x="1377" y="556"/><text fill="#000000" font-family="sans-serif" font-size="12" lengthAdjust="spacingAndGlyphs" textLength="130" x="1380" y="572.1387">ProductIdentification</text></a><!--class Country--><a target="_top" xlink:actuate="onRequest" xlink:href="../Country.html" xlink:show="new" xlink:title="Nation with its own government." xlink:type="simple"><rect fill="#EEEEEE" filter="url(#f1h2aqeawgqvds)" height="23.9688" id="Country" style="stroke: #A80036; stroke-width: 1.5;" width="54" x="1388" y="452"/><rect fill="#EEEEEE" height="23.9688" style="stroke: #A80036; stroke-width: 1.5;" width="54" x="1388" y="452"/><text fill="#000000" font-family="sans-serif" font-size="12" lengthAdjust="spacingAndGlyphs" textLength="48" x="1391" y="468.1387">Country</text></a><!--class ProductCharacteristics--><a target="_top" xlink:actuate="onRequest" xlink:href="../ProductCharacteristics.html" xlink:show="new" xlink:title="Identifies the characteristic of a product." xlink:type="simple"><rect fill="#EEEEEE" filter="url(#f1h2aqeawgqvds)" height="23.9688" id="ProductCharacteristics" style="stroke: #A80036; stroke-width: 1.5;" width="149" x="1296.75" y="350"/><rect fill="#EEEEEE" height="23.9688" style="stroke: #A80036; stroke-width: 1.5;" width="149" x="1296.75" y="350"/><text fill="#000000" font-family="sans-serif" font-size="12" lengthAdjust="spacingAndGlyphs" textLength="143" x="1299.75" y="366.1387">ProductCharacteristics</text></a><!--class ProductQuantity--><a target="_top" xlink:actuate="onRequest" xlink:href="../ProductQuantity.html" xlink:show="new" xlink:title="Specifies the ordered quantity of a product." xlink:type="simple"><rect fill="#EEEEEE" filter="url(#f1h2aqeawgqvds)" height="23.9688" id="ProductQuantity" style="stroke: #A80036; stroke-width: 1.5;" width="107" x="1181.75" y="218"/><rect fill="#EEEEEE" height="23.9688" style="stroke: #A80036; stroke-width: 1.5;" width="107" x="1181.75" y="218"/><text fill="#000000" font-family="sans-serif" font-size="12" lengthAdjust="spacingAndGlyphs" textLength="101" x="1184.75" y="234.1387">ProductQuantity</text></a><!--class ProductDelivery--><a target="_top" xlink:actuate="onRequest" xlink:href="../ProductDelivery.html" xlink:show="new" xlink:title="Arrangements for delivery of invoiced products and/or services." xlink:type="simple"><rect fill="#EEEEEE" filter="url(#f1h2aqeawgqvds)" height="23.9688" id="ProductDelivery" style="stroke: #A80036; stroke-width: 1.5;" width="103" x="1380.75" y="728"/><rect fill="#EEEEEE" height="23.9688" style="stroke: #A80036; stroke-width: 1.5;" width="103" x="1380.75" y="728"/><text fill="#000000" font-family="sans-serif" font-size="12" lengthAdjust="spacingAndGlyphs" textLength="97" x="1383.75" y="744.1387">ProductDelivery</text></a><!--class PurchaseOrder--><a target="_top" xlink:actuate="onRequest" xlink:href="../PurchaseOrder.html" xlink:show="new" xlink:title="Document issued by a buyer and containing the details of a purchase, including description of goods, transport information, payment terms, etc." xlink:type="simple"><rect fill="#EEEEEE" filter="url(#f1h2aqeawgqvds)" height="23.9688" id="PurchaseOrder" style="stroke: #A80036; stroke-width: 1.5;" width="100" x="1382" y="642"/><rect fill="#EEEEEE" height="23.9688" style="stroke: #A80036; stroke-width: 1.5;" width="100" x="1382" y="642"/><text fill="#000000" font-family="sans-serif" font-size="12" lengthAdjust="spacingAndGlyphs" textLength="94" x="1385" y="658.1387">PurchaseOrder</text></a><!--class Tax--><a target="_top" xlink:actuate="onRequest" xlink:href="../Tax.html" xlink:show="new" xlink:title="Amount of money due to the government or tax authority, according to various pre-defined parameters such as thresholds or income." xlink:type="simple"><rect fill="#EEEEEE" filter="url(#f1h2aqeawgqvds)" height="23.9688" id="Tax" style="stroke: #A80036; stroke-width: 1.5;" width="27" x="1314.75" y="556"/><rect fill="#EEEEEE" height="23.9688" style="stroke: #A80036; stroke-width: 1.5;" width="27" x="1314.75" y="556"/><text fill="#000000" font-family="sans-serif" font-size="12" lengthAdjust="spacingAndGlyphs" textLength="21" x="1317.75" y="572.1387">Tax</text></a><!--entity ##26524--><!--entity ##26526--><!--link Product to Service--><path d="M2307.27,122.096 C2336.26,143.221 2370.33,168.04 2398.34,188.445 " fill="none" id="Product-Service" style="stroke: #A80036; stroke-width: 1.0;"/><polygon fill="none" points="2302.91,127.581,2290.87,110.146,2311.15,116.265,2302.91,127.581" style="stroke: #A80036; stroke-width: 1.0;"/><!--link Service to FinancialService--><path d="M2431.99,290.602 C2423.7,313.054 2415.09,336.371 2410.16,349.738 " fill="none" id="Service-FinancialService" style="stroke: #A80036; stroke-width: 1.0;"/><polygon fill="none" points="2425.45,288.113,2438.94,271.776,2438.58,292.963,2425.45,288.113" style="stroke: #A80036; stroke-width: 1.0;"/><!--link FinancialService to AccountService--><path d="M2366.06,383.273 C2325.3,403.964 2263.53,435.318 2230.93,451.867 " fill="none" id="FinancialService-AccountService" style="stroke: #A80036; stroke-width: 1.0;"/><polygon fill="none" points="2363.16,376.895,2384.16,374.084,2369.5,389.378,2363.16,376.895" style="stroke: #A80036; stroke-width: 1.0;"/><!--link FinancialService to CorporateActionServicing--><path d="M2397.14,393.536 C2391.41,413.301 2384.29,437.875 2380.23,451.867 " fill="none" id="FinancialService-CorporateActionServicing" style="stroke: #A80036; stroke-width: 1.0;"/><polygon fill="none" points="2390.49,391.343,2402.79,374.084,2403.94,395.242,2390.49,391.343" style="stroke: #A80036; stroke-width: 1.0;"/><!--link FinancialService to CustodyService--><path d="M2437.78,385.864 C2466.47,406.504 2507.46,435.995 2529.52,451.867 " fill="none" id="FinancialService-CustodyService" style="stroke: #A80036; stroke-width: 1.0;"/><polygon fill="none" points="2433.55,391.446,2421.41,374.084,2441.73,380.082,2433.55,391.446" style="stroke: #A80036; stroke-width: 1.0;"/><!--link Price to CardPayment--><!--link ProductCategory to Price--><!--link LineItem to ProductCategory--><!--link ProductIdentification to LineItem--><!--link Country to ProductIdentification--><!--link ProductCharacteristics to Country--><!--link ProductQuantity to ProductCharacteristics--><!--link ProductDelivery to ProductQuantity--><!--link PurchaseOrder to ProductDelivery--><!--link Tax to PurchaseOrder--><!--link Product to CardPayment--><path d="M2158.55,76.764 C2034.57,79.612 1798.37,91.612 1604,140 C1583.5,145.104 1580.56,153.143 1560,158 C1474.11,178.288 1233.81,134.003 1164,188 C1083.79,250.045 1121.92,397.64 1137.48,446.775 " fill="none" id="Product-CardPayment" style="stroke: #A80036; stroke-width: 1.0;"/><polygon fill="#A80036" points="1139.09,451.745,1140.1317,441.9514,1137.5539,446.9868,1132.5185,444.4091,1139.09,451.745" style="stroke: #A80036; stroke-width: 1.0;"/><text fill="#000000" font-family="sans-serif" font-size="13" lengthAdjust="spacingAndGlyphs" textLength="87" x="1116" y="315.0669">CardPayment</text><text fill="#000000" font-family="sans-serif" font-size="13" lengthAdjust="spacingAndGlyphs" textLength="8" x="1127.0558" y="440.964">1</text><!--link Product to Price--><path d="M2158.61,89.634 C2106.06,99.752 2038.07,116 1981,140 C1894.11,176.539 1884.21,208.01 1815,272 C1791.67,293.574 1790.68,306.312 1762,320 C1680.48,358.906 1570.12,362.302 1522.49,361.733 " fill="none" id="Product-Price" style="stroke: #A80036; stroke-width: 1.0;"/><polygon fill="#A80036" points="1517.26,361.651,1526.2019,365.7792,1522.2595,361.7224,1526.3162,357.78,1517.26,361.651" style="stroke: #A80036; stroke-width: 1.0;"/><text fill="#000000" font-family="sans-serif" font-size="13" lengthAdjust="spacingAndGlyphs" textLength="57" x="1900" y="234.0669">UnitPrice</text><text fill="#000000" font-family="sans-serif" font-size="13" lengthAdjust="spacingAndGlyphs" textLength="7" x="1525.7296" y="376.5659">*</text><!--link Product to Price--><path d="M2158.36,106.45 C2135.77,115.91 2111.89,127.249 2091,140 C2062.73,157.256 2057.11,164.272 2034,188 C2000.68,222.214 2006.69,245.451 1967,272 C1892.17,322.047 1606.19,351.335 1522.28,358.98 " fill="none" id="Product-Price" style="stroke: #A80036; stroke-width: 1.0;"/><polygon fill="#A80036" points="1517.27,359.431,1526.589,362.6178,1522.2503,358.988,1525.8802,354.6493,1517.27,359.431" style="stroke: #A80036; stroke-width: 1.0;"/><text fill="#000000" font-family="sans-serif" font-size="13" lengthAdjust="spacingAndGlyphs" textLength="54" x="2035" y="234.0669">NetPrice</text><text fill="#000000" font-family="sans-serif" font-size="13" lengthAdjust="spacingAndGlyphs" textLength="24" x="1525.7131" y="352.4078">0..1</text><!--link Product to Price--><path d="M2158.44,90.438 C2096.62,101.704 2011.44,118.954 1938,140 C1915.7,146.392 1911.34,151.748 1889,158 C1822.27,176.672 1794.55,150.94 1736,188 C1696.79,212.816 1708.34,240.791 1674,272 C1643.32,299.888 1630.89,301.076 1594,320 C1570.13,332.244 1541.78,344.155 1522.3,351.956 " fill="none" id="Product-Price" style="stroke: #A80036; stroke-width: 1.0;"/><polygon fill="#A80036" points="1517.55,353.848,1527.3918,354.2204,1522.1926,351.9915,1524.4215,346.7923,1517.55,353.848" style="stroke: #A80036; stroke-width: 1.0;"/><text fill="#000000" font-family="sans-serif" font-size="13" lengthAdjust="spacingAndGlyphs" textLength="68" x="1737" y="234.0669">GrossPrice</text><text fill="#000000" font-family="sans-serif" font-size="13" lengthAdjust="spacingAndGlyphs" textLength="24" x="1496.0613" y="338.9373">0..1</text><!--link Product to ProductCategory--><path d="M2158.7,77.939 C2055.92,82.258 1878.97,96.069 1734,140 C1716.88,145.188 1714.99,152.412 1698,158 C1623.87,182.375 1599.19,163.804 1525,188 C1503.77,194.924 1481.14,206.409 1464.88,215.464 " fill="none" id="Product-ProductCategory" style="stroke: #A80036; stroke-width: 1.0;"/><polygon fill="#A80036" points="1460.47,217.948,1470.2742,217.0113,1464.8252,215.4919,1466.3445,210.0429,1460.47,217.948" style="stroke: #A80036; stroke-width: 1.0;"/><text fill="#000000" font-family="sans-serif" font-size="13" lengthAdjust="spacingAndGlyphs" textLength="107" x="1735" y="153.0669">ProductCategory</text><text fill="#000000" font-family="sans-serif" font-size="13" lengthAdjust="spacingAndGlyphs" textLength="7" x="1457.1863" y="206.9783">*</text><!--link Product to LineItem--><path d="M2158.68,75 C1922.67,75 1268.27,75 1111.88,75 " fill="none" id="Product-LineItem" style="stroke: #A80036; stroke-width: 1.0;"/><polygon fill="#A80036" points="1106.53,75,1115.53,79,1111.53,75,1115.53,71,1106.53,75" style="stroke: #A80036; stroke-width: 1.0;"/><text fill="#000000" font-family="sans-serif" font-size="13" lengthAdjust="spacingAndGlyphs" textLength="55" x="1604.25" y="67.0669">LineItem</text><text fill="#000000" font-family="sans-serif" font-size="13" lengthAdjust="spacingAndGlyphs" textLength="24" x="1115.2866" y="69.2255">0..1</text><!--link Product to ProductIdentification--><path d="M2234.05,110.422 C2216.69,164.027 2175.62,266.805 2103,320 C1912.7,459.389 1634.58,529.112 1509.8,554.898 " fill="none" id="Product-ProductIdentification" style="stroke: #A80036; stroke-width: 1.0;"/><polygon fill="#A80036" points="1504.7,555.945,1514.3242,558.0365,1509.5961,554.9309,1512.7017,550.2028,1504.7,555.945" style="stroke: #A80036; stroke-width: 1.0;"/><text fill="#000000" font-family="sans-serif" font-size="13" lengthAdjust="spacingAndGlyphs" textLength="130" x="2059" y="366.0669">ProductIdentification</text><text fill="#000000" font-family="sans-serif" font-size="13" lengthAdjust="spacingAndGlyphs" textLength="7" x="1515.675" y="544.9743">*</text><!--link Product to Country--><path d="M2193.19,110.025 C2182.06,118.937 2170.95,129.126 2162,140 C2120.18,190.788 2145.85,230.25 2095,272 C1892.06,438.629 1552.85,460.137 1447.33,462.715 " fill="none" id="Product-Country" style="stroke: #A80036; stroke-width: 1.0;"/><polygon fill="#A80036" points="1442.18,462.83,1451.2691,466.6232,1447.1787,462.7157,1451.0862,458.6253,1442.18,462.83" style="stroke: #A80036; stroke-width: 1.0;"/><text fill="#000000" font-family="sans-serif" font-size="13" lengthAdjust="spacingAndGlyphs" textLength="37" x="2056" y="315.0669">Origin</text><text fill="#000000" font-family="sans-serif" font-size="13" lengthAdjust="spacingAndGlyphs" textLength="8" x="1450.1699" y="456.44">1</text><!--link Product to ProductCharacteristics--><path d="M2158.57,86.45 C2086.56,96.46 1981.29,113.93 1892,140 C1871.72,145.922 1868.48,152.823 1848,158 C1787.33,173.332 1621.25,155.126 1568,188 C1530.24,211.315 1545.61,240.847 1514,272 C1480,305.511 1431.2,332.478 1400.31,347.617 " fill="none" id="Product-ProductCharacteristics" style="stroke: #A80036; stroke-width: 1.0;"/><polygon fill="#A80036" points="1395.51,349.945,1405.3531,349.6097,1400.0073,347.7599,1401.857,342.414,1395.51,349.945" style="stroke: #A80036; stroke-width: 1.0;"/><text fill="#000000" font-family="sans-serif" font-size="13" lengthAdjust="spacingAndGlyphs" textLength="95" x="1569" y="234.0669">Characteristics</text><text fill="#000000" font-family="sans-serif" font-size="13" lengthAdjust="spacingAndGlyphs" textLength="7" x="1394.3025" y="338.9743">*</text><!--link Product to ProductQuantity--><path d="M2158.66,80.656 C2014.4,89.238 1728.72,109.51 1633,140 C1617.45,144.953 1616.49,152.859 1601,158 C1502.32,190.754 1470.63,166.046 1369,188 C1335.08,195.327 1297.37,207.216 1270.61,216.309 " fill="none" id="Product-ProductQuantity" style="stroke: #A80036; stroke-width: 1.0;"/><polygon fill="#A80036" points="1265.75,217.973,1275.5595,218.8526,1270.4822,216.3585,1272.9763,211.2811,1265.75,217.973" style="stroke: #A80036; stroke-width: 1.0;"/><text fill="#000000" font-family="sans-serif" font-size="13" lengthAdjust="spacingAndGlyphs" textLength="54" x="1634" y="153.0669">Quantity</text><text fill="#000000" font-family="sans-serif" font-size="13" lengthAdjust="spacingAndGlyphs" textLength="7" x="1277.4375" y="207.0119">*</text><!--link Product to ProductDelivery--><path d="M2247.4,110.383 C2251.49,169.302 2252.11,291.206 2199,374 C2166.05,425.364 2121.12,402.091 2086,452 C2069.06,476.07 2069,486.569 2069,516 C2069,516 2069,516 2069,655 C2069,713.2552 1644.84,732.37 1488.76,737.4318 " fill="none" id="Product-ProductDelivery" style="stroke: #A80036; stroke-width: 1.0;"/><polygon fill="#A80036" points="1483.32,737.606,1492.4413,741.3212,1488.3175,737.4489,1492.1898,733.3251,1483.32,737.606" style="stroke: #A80036; stroke-width: 1.0;"/><text fill="#000000" font-family="sans-serif" font-size="13" lengthAdjust="spacingAndGlyphs" textLength="51" x="2087" y="468.0669">Delivery</text><text fill="#000000" font-family="sans-serif" font-size="13" lengthAdjust="spacingAndGlyphs" textLength="8" x="1491.7526" y="732.0173">1</text><!--link Product to PurchaseOrder--><path d="M2329.4,90.467 C2448.22,113.06 2649,161.26 2649,229 C2649,229 2649,229 2649,414 C2649,455.436 2645.95,474.871 2613,500 C2432.86,637.399 1695.57,651.678 1487.13,652.943 " fill="none" id="Product-PurchaseOrder" style="stroke: #A80036; stroke-width: 1.0;"/><polygon fill="#A80036" points="1482,652.972,1491.0227,656.9205,1486.9999,652.9434,1490.977,648.9206,1482,652.972" style="stroke: #A80036; stroke-width: 1.0;"/><text fill="#000000" font-family="sans-serif" font-size="13" lengthAdjust="spacingAndGlyphs" textLength="95" x="2650" y="417.0669">PurchaseOrder</text><text fill="#000000" font-family="sans-serif" font-size="13" lengthAdjust="spacingAndGlyphs" textLength="7" x="1489.8578" y="647.6515">*</text><!--link Product to Tax--><path d="M2158.69,80.922 C2029.35,89.082 1776.11,107.788 1563,140 C1524.39,145.836 1515.65,152.394 1477,158 C1436.62,163.858 1141.03,160.375 1111,188 C1008.48,282.314 996.366,389.35 1081,500 C1109.32,537.02 1257.11,558.36 1309.53,564.858 " fill="none" id="Product-Tax" style="stroke: #A80036; stroke-width: 1.0;"/><polygon fill="#A80036" points="1314.59,565.475,1306.1495,560.3997,1309.6279,564.8608,1305.1668,568.3392,1314.59,565.475" style="stroke: #A80036; stroke-width: 1.0;"/><text fill="#000000" font-family="sans-serif" font-size="13" lengthAdjust="spacingAndGlyphs" textLength="22" x="1027" y="366.0669">Tax</text><text fill="#000000" font-family="sans-serif" font-size="13" lengthAdjust="spacingAndGlyphs" textLength="7" x="1299.6665" y="557.3699">*</text><!--link LineItem to ProductQuantity--><path d="M1106.74,77.305 C1177.96,81.2 1359.48,95.393 1396,140 C1401.07,146.19 1400.37,151.298 1396,158 C1395.52,158.74 1311.52,195.545 1265.06,215.863 " fill="none" id="LineItem-ProductQuantity" style="stroke: #A80036; stroke-width: 1.0;"/><polygon fill="#A80036" points="1260.42,217.896,1270.2686,217.9612,1265.0024,215.8956,1267.068,210.6293,1260.42,217.896" style="stroke: #A80036; stroke-width: 1.0;"/><text fill="#000000" font-family="sans-serif" font-size="13" lengthAdjust="spacingAndGlyphs" textLength="66" x="1401" y="153.0669">NetWeight</text><text fill="#000000" font-family="sans-serif" font-size="13" lengthAdjust="spacingAndGlyphs" textLength="8" x="1258.3534" y="206.9085">1</text><!--link LineItem to ProductQuantity--><path d="M1049.11,75.657 C896.602,74.139 189.628,70.886 125,140 C119.536,145.843 119.527,152.165 125,158 C161.273,196.667 952.426,221.249 1176.4,227.451 " fill="none" id="LineItem-ProductQuantity" style="stroke: #A80036; stroke-width: 1.0;"/><polygon fill="#A80036" points="1181.58,227.594,1172.6858,223.3639,1176.5817,227.4654,1172.4801,231.3613,1181.58,227.594" style="stroke: #A80036; stroke-width: 1.0;"/><text fill="#000000" font-family="sans-serif" font-size="13" lengthAdjust="spacingAndGlyphs" textLength="88" x="126" y="153.0669">BilledQuantity</text><text fill="#000000" font-family="sans-serif" font-size="13" lengthAdjust="spacingAndGlyphs" textLength="7" x="1166.8541" y="222.4094">*</text><!--link LineItem to ProductQuantity--><path d="M1049.04,75.985 C909.505,76.207 310.922,80.635 256,140 C250.567,145.872 250.552,152.142 256,158 C318.768,225.485 974.559,229.616 1176.29,229.275 " fill="none" id="LineItem-ProductQuantity" style="stroke: #A80036; stroke-width: 1.0;"/><polygon fill="#A80036" points="1181.55,229.265,1172.5386,225.2907,1176.55,229.2793,1172.5615,233.2907,1181.55,229.265" style="stroke: #A80036; stroke-width: 1.0;"/><text fill="#000000" font-family="sans-serif" font-size="13" lengthAdjust="spacingAndGlyphs" textLength="128" x="257" y="153.0669">ChargeFreeQuantity</text><text fill="#000000" font-family="sans-serif" font-size="13" lengthAdjust="spacingAndGlyphs" textLength="7" x="1166.8206" y="242.1236">*</text><!--link LineItem to ProductQuantity--><path d="M1049.25,76.606 C928.839,79.436 469.38,93.25 427,140 C421.627,145.927 421.596,152.101 427,158 C477.449,213.076 999.224,225.628 1176.46,228.312 " fill="none" id="LineItem-ProductQuantity" style="stroke: #A80036; stroke-width: 1.0;"/><polygon fill="#A80036" points="1181.6,228.389,1172.6581,224.2608,1176.6005,228.3176,1172.5438,232.26,1181.6,228.389" style="stroke: #A80036; stroke-width: 1.0;"/><text fill="#000000" font-family="sans-serif" font-size="13" lengthAdjust="spacingAndGlyphs" textLength="244" x="428" y="153.0669">MeasureQuantityStartRelatedLineItem</text><text fill="#000000" font-family="sans-serif" font-size="13" lengthAdjust="spacingAndGlyphs" textLength="8" x="1165.7741" y="221.2592">1</text><!--link LineItem to ProductQuantity--><path d="M1049.46,77.599 C956.074,83.359 668.205,105.54 714,158 C744.088,192.466 1046.55,216.491 1176.34,225.292 " fill="none" id="LineItem-ProductQuantity" style="stroke: #A80036; stroke-width: 1.0;"/><polygon fill="#A80036" points="1181.64,225.65,1172.9354,221.0423,1176.6518,225.3072,1172.3869,229.0235,1181.64,225.65" style="stroke: #A80036; stroke-width: 1.0;"/><text fill="#000000" font-family="sans-serif" font-size="13" lengthAdjust="spacingAndGlyphs" textLength="236" x="715" y="153.0669">MeasureQuantityEndRelatedLineItem</text><text fill="#000000" font-family="sans-serif" font-size="13" lengthAdjust="spacingAndGlyphs" textLength="8" x="1165.8632" y="220.2406">1</text><!--link LineItem to ProductQuantity--><path d="M1050.84,87.059 C1018.57,101.822 971.616,129.441 993,158 C1015.03,187.419 1112.23,208.786 1176.55,220.011 " fill="none" id="LineItem-ProductQuantity" style="stroke: #A80036; stroke-width: 1.0;"/><polygon fill="#A80036" points="1181.5,220.867,1173.3033,215.4067,1176.5716,220.0239,1171.9544,223.2922,1181.5,220.867" style="stroke: #A80036; stroke-width: 1.0;"/><text fill="#000000" font-family="sans-serif" font-size="13" lengthAdjust="spacingAndGlyphs" textLength="122" x="994" y="153.0669">GrossPriceQuantity</text><text fill="#000000" font-family="sans-serif" font-size="13" lengthAdjust="spacingAndGlyphs" textLength="7" x="1166.7391" y="211.7783">*</text><!--link LineItem to ProductQuantity--><path d="M1088.43,87.057 C1103.53,102.981 1132.47,133.183 1158,158 C1178.55,177.982 1202.99,200.277 1218.74,214.46 " fill="none" id="LineItem-ProductQuantity" style="stroke: #A80036; stroke-width: 1.0;"/><polygon fill="#A80036" points="1222.54,217.884,1218.5228,208.8917,1218.8223,214.5406,1213.1733,214.8401,1222.54,217.884" style="stroke: #A80036; stroke-width: 1.0;"/><text fill="#000000" font-family="sans-serif" font-size="13" lengthAdjust="spacingAndGlyphs" textLength="108" x="1159" y="153.0669">NetPriceQuantity</text><text fill="#000000" font-family="sans-serif" font-size="13" lengthAdjust="spacingAndGlyphs" textLength="7" x="1208.6241" y="206.8923">*</text><!--link LineItem to ProductQuantity--><path d="M1106.83,75.751 C1151.09,77.124 1234.65,87.047 1273,140 C1289.86,163.276 1267.22,195.185 1250.34,213.796 " fill="none" id="LineItem-ProductQuantity" style="stroke: #A80036; stroke-width: 1.0;"/><polygon fill="#A80036" points="1246.63,217.781,1255.6924,213.9245,1250.039,214.1233,1249.8402,208.47,1246.63,217.781" style="stroke: #A80036; stroke-width: 1.0;"/><text fill="#000000" font-family="sans-serif" font-size="13" lengthAdjust="spacingAndGlyphs" textLength="80" x="1280" y="153.0669">GrossWeight</text><text fill="#000000" font-family="sans-serif" font-size="13" lengthAdjust="spacingAndGlyphs" textLength="7" x="1240.909" y="207.0119">*</text><!--link Country to Tax--><path d="M1405.36,476.306 C1389.6,494.784 1358.32,531.456 1340.74,552.058 " fill="none" id="Country-Tax" style="stroke: #A80036; stroke-width: 1.0;"/><polygon fill="#A80036" points="1337.42,555.954,1346.298,551.69,1340.6595,552.1454,1340.2042,546.5069,1337.42,555.954" style="stroke: #A80036; stroke-width: 1.0;"/><text fill="#000000" font-family="sans-serif" font-size="13" lengthAdjust="spacingAndGlyphs" textLength="22" x="1378" y="521.0669">Tax</text><text fill="#000000" font-family="sans-serif" font-size="13" lengthAdjust="spacingAndGlyphs" textLength="8" x="1329.8534" y="544.9864">1</text></g></svg>