<?xml version="1.0" encoding="UTF-8" standalone="no"?><svg xmlns="http://www.w3.org/2000/svg" xmlns:xlink="http://www.w3.org/1999/xlink" contentScriptType="application/ecmascript" contentStyleType="text/css" height="482px" preserveAspectRatio="none" style="width:1179px;height:482px;" version="1.1" viewBox="0 0 1179 482" width="1179px" zoomAndPan="magnify"><defs><filter height="300%" id="f5s4ibhxdifr9" width="300%" x="-1" y="-1"><feGaussianBlur result="blurOut" stdDeviation="2.0"/><feColorMatrix in="blurOut" result="blurOut2" type="matrix" values="0 0 0 0 0 0 0 0 0 0 0 0 0 0 0 0 0 0 .4 0"/><feOffset dx="4.0" dy="4.0" in="blurOut2" result="blurOut3"/><feBlend in="SourceGraphic" in2="blurOut3" mode="normal"/></filter></defs><g><!--cluster ##20178--><!--cluster ##20190--><!--cluster ##20199--><!--class Role--><a target="_top" xlink:actuate="onRequest" xlink:href="../Role.html" xlink:show="new" xlink:title="Role of a party in an activity." xlink:type="simple"><rect fill="#FEFEEE" filter="url(#f5s4ibhxdifr9)" height="44.7734" id="Role" style="stroke: #A80036; stroke-width: 1.5;" width="175" x="96.75" y="40.5"/><rect fill="#FEFEEE" height="23.9688" style="stroke: #A80036; stroke-width: 1.5;" width="175" x="96.75" y="40.5"/><text fill="#000000" font-family="sans-serif" font-size="12" lengthAdjust="spacingAndGlyphs" textLength="27" x="170.75" y="56.6387">Role</text><line style="stroke: #A80036; stroke-width: 1.5;" x1="97.75" x2="270.75" y1="64.4688" y2="64.4688"/><ellipse cx="107.75" cy="76.3711" fill="#84BE84" rx="3" ry="3" style="stroke: #038048; stroke-width: 1.0;"/><text fill="#000000" font-family="sans-serif" font-size="11" lengthAdjust="spacingAndGlyphs" textLength="53" x="116.75" y="78.6792">PartyRole</text><text fill="#000000" font-family="sans-serif" font-size="11" font-style="italic" lengthAdjust="spacingAndGlyphs" textLength="92" x="173.75" y="78.6792">(PartyRoleCode)</text></a><!--class InvestmentFundPartyRole--><a target="_top" xlink:actuate="onRequest" xlink:href="../InvestmentFundPartyRole.html" xlink:show="new" xlink:title="Specifies roles played by a party that are linked to the handling of investment funds but not related to a specific process." xlink:type="simple"><rect fill="#FEFEEE" filter="url(#f5s4ibhxdifr9)" height="23.9688" id="InvestmentFundPartyRole" style="stroke: #A80036; stroke-width: 1.5;" width="165" x="106.75" y="166"/><rect fill="#FEFEEE" height="23.9688" style="stroke: #A80036; stroke-width: 1.5;" width="165" x="106.75" y="166"/><text fill="#000000" font-family="sans-serif" font-size="12" lengthAdjust="spacingAndGlyphs" textLength="159" x="109.75" y="182.1387">InvestmentFundPartyRole</text></a><!--class FundManagerRole--><a target="_top" xlink:actuate="onRequest" xlink:href="../FundManagerRole.html" xlink:show="new" xlink:title="Legal entity that sets up a fund, appoints agents, decides and implements an investment strategy. That is, selects portfolio investments in accordance with the objectives and strategy in the fund's prospectus, and places orders to effect or liquidate selected investments in accordance with net flow of capital into or out of the fund. Also called fund promoter or fund sponsor." xlink:type="simple"><rect fill="#FEFEEE" filter="url(#f5s4ibhxdifr9)" height="23.9688" id="FundManagerRole" style="stroke: #A80036; stroke-width: 1.5;" width="119" x="129.75" y="270"/><rect fill="#FEFEEE" height="23.9688" style="stroke: #A80036; stroke-width: 1.5;" width="119" x="129.75" y="270"/><text fill="#000000" font-family="sans-serif" font-size="12" lengthAdjust="spacingAndGlyphs" textLength="113" x="132.75" y="286.1387">FundManagerRole</text></a><!--class FundPromoter--><a target="_top" xlink:actuate="onRequest" xlink:href="../FundPromoter.html" xlink:show="new" xlink:title="Fund Promoter" xlink:type="simple"><rect fill="#FEFECE" filter="url(#f5s4ibhxdifr9)" height="23.9688" id="FundPromoter" style="stroke: #A80036; stroke-width: 1.5;" width="95" x="141.75" y="358"/><rect fill="#FEFECE" height="23.9688" style="stroke: #A80036; stroke-width: 1.5;" width="95" x="141.75" y="358"/><text fill="#000000" font-family="sans-serif" font-size="12" lengthAdjust="spacingAndGlyphs" textLength="89" x="144.75" y="374.1387">FundPromoter</text></a><!--class RolePlayer--><a target="_top" xlink:actuate="onRequest" xlink:href="../RolePlayer.html" xlink:show="new" xlink:title="Type of entity that plays a specific role in a specific context." xlink:type="simple"><rect fill="#EEEEEE" filter="url(#f5s4ibhxdifr9)" height="23.9688" id="RolePlayer" style="stroke: #A80036; stroke-width: 1.5;" width="71" x="754.75" y="448"/><rect fill="#EEEEEE" height="23.9688" style="stroke: #A80036; stroke-width: 1.5;" width="71" x="754.75" y="448"/><text fill="#000000" font-family="sans-serif" font-size="12" lengthAdjust="spacingAndGlyphs" textLength="65" x="757.75" y="464.1387">RolePlayer</text></a><!--class ContactPersonRole--><a target="_top" xlink:actuate="onRequest" xlink:href="../ContactPersonRole.html" xlink:show="new" xlink:title="Person to be contacted in a given organisation. In the corporate action domain (including meeting notifications) , it is the contact person at the party organising the meeting, at the issuer or at an intermediary." xlink:type="simple"><rect fill="#EEEEEE" filter="url(#f5s4ibhxdifr9)" height="23.9688" id="ContactPersonRole" style="stroke: #A80036; stroke-width: 1.5;" width="126" x="707" y="358"/><rect fill="#EEEEEE" height="23.9688" style="stroke: #A80036; stroke-width: 1.5;" width="126" x="707" y="358"/><text fill="#000000" font-family="sans-serif" font-size="12" lengthAdjust="spacingAndGlyphs" textLength="120" x="710" y="374.1387">ContactPersonRole</text></a><!--class CounterpartyRisk--><a target="_top" xlink:actuate="onRequest" xlink:href="../CounterpartyRisk.html" xlink:show="new" xlink:title="Calculation of the exposure amount that one party has vis-a-vis one counterparty or a central system, based on its credit risk." xlink:type="simple"><rect fill="#EEEEEE" filter="url(#f5s4ibhxdifr9)" height="23.9688" id="CounterpartyRisk" style="stroke: #A80036; stroke-width: 1.5;" width="113" x="719.75" y="270"/><rect fill="#EEEEEE" height="23.9688" style="stroke: #A80036; stroke-width: 1.5;" width="113" x="719.75" y="270"/><text fill="#000000" font-family="sans-serif" font-size="12" lengthAdjust="spacingAndGlyphs" textLength="107" x="722.75" y="286.1387">CounterpartyRisk</text></a><!--class Entry--><a target="_top" xlink:actuate="onRequest" xlink:href="../Entry.html" xlink:show="new" xlink:title="Posting to an account that results in an increase or decrease to a balance." xlink:type="simple"><rect fill="#EEEEEE" filter="url(#f5s4ibhxdifr9)" height="23.9688" id="Entry" style="stroke: #A80036; stroke-width: 1.5;" width="38" x="707" y="166"/><rect fill="#EEEEEE" height="23.9688" style="stroke: #A80036; stroke-width: 1.5;" width="38" x="707" y="166"/><text fill="#000000" font-family="sans-serif" font-size="12" lengthAdjust="spacingAndGlyphs" textLength="32" x="710" y="182.1387">Entry</text></a><!--class Account--><a target="_top" xlink:actuate="onRequest" xlink:href="../Account.html" xlink:show="new" xlink:title="Record of transactions in specific types of assets, maintained by a servicing party on behalf of one or more owning parties. Business relationship between an account servicer and one or more account owners." xlink:type="simple"><rect fill="#EEEEEE" filter="url(#f5s4ibhxdifr9)" height="23.9688" id="Account" style="stroke: #A80036; stroke-width: 1.5;" width="57" x="328.75" y="358"/><rect fill="#EEEEEE" height="23.9688" style="stroke: #A80036; stroke-width: 1.5;" width="57" x="328.75" y="358"/><text fill="#000000" font-family="sans-serif" font-size="12" lengthAdjust="spacingAndGlyphs" textLength="51" x="331.75" y="374.1387">Account</text></a><!--class InvestmentFund--><a target="_top" xlink:actuate="onRequest" xlink:href="../InvestmentFund.html" xlink:show="new" xlink:title="Distinct pool of financial instruments managed by a single investment policy. May or not be part of an umbrella fund. The pool is issued in at least one investment fund class." xlink:type="simple"><rect fill="#EEEEEE" filter="url(#f5s4ibhxdifr9)" height="23.9688" id="InvestmentFund" style="stroke: #A80036; stroke-width: 1.5;" width="106" x="328.5" y="270"/><rect fill="#EEEEEE" height="23.9688" style="stroke: #A80036; stroke-width: 1.5;" width="106" x="328.5" y="270"/><text fill="#000000" font-family="sans-serif" font-size="12" lengthAdjust="spacingAndGlyphs" textLength="100" x="331.5" y="286.1387">InvestmentFund</text></a><!--entity ##20204--><!--entity ##20206--><!--link Role to InvestmentFundPartyRole--><path d="M185.839,105.559 C186.795,127.159 187.889,151.898 188.507,165.865 " fill="none" id="Role-InvestmentFundPartyRole" style="stroke: #A80036; stroke-width: 1.0;"/><polygon fill="none" points="178.843,105.81,184.952,85.52,192.83,105.191,178.843,105.81" style="stroke: #A80036; stroke-width: 1.0;"/><!--link InvestmentFundPartyRole to FundManagerRole--><path d="M189,210.595 C189,230.825 189,255.843 189,269.954 " fill="none" id="InvestmentFundPartyRole-FundManagerRole" style="stroke: #A80036; stroke-width: 1.0;"/><polygon fill="none" points="182,210.306,189,190.306,196,210.305,182,210.306" style="stroke: #A80036; stroke-width: 1.0;"/><!--link FundManagerRole to FundPromoter--><path d="M189,314.282 C189,329.459 189,346.744 189,357.754 " fill="none" id="FundManagerRole-FundPromoter" style="stroke: #A80036; stroke-width: 1.0;"/><polygon fill="none" points="182,314.243,189,294.243,196,314.243,182,314.243" style="stroke: #A80036; stroke-width: 1.0;"/><!--link ContactPersonRole to RolePlayer--><!--link CounterpartyRisk to ContactPersonRole--><!--link Entry to CounterpartyRisk--><!--link InvestmentFund to Account--><!--link Role to RolePlayer--><path d="M271.446,65.394 C505.221,70.275 1127,91.311 1127,177 C1127,177 1127,177 1127,371 C1127,431.6217 920.27,451.2654 830.642,456.9332 " fill="none" id="Role-RolePlayer" style="stroke: #A80036; stroke-width: 1.0;"/><polygon fill="#A80036" points="825.428,457.2555,834.6577,460.6924,830.4185,456.9469,834.164,452.7077,825.428,457.2555" style="stroke: #A80036; stroke-width: 1.0;"/><text fill="#000000" font-family="sans-serif" font-size="13" lengthAdjust="spacingAndGlyphs" textLength="39" x="1128" y="286.0669">Player</text><text fill="#000000" font-family="sans-serif" font-size="13" lengthAdjust="spacingAndGlyphs" textLength="7" x="833.8888" y="450.8806">*</text><!--link Role to ContactPersonRole--><path d="M271.307,66.802 C454.23,73.603 864.162,94.082 904,142 C964.329,214.564 840.531,317.508 790.086,354.811 " fill="none" id="Role-ContactPersonRole" style="stroke: #A80036; stroke-width: 1.0;"/><polygon fill="#A80036" points="786.012,357.799,795.6357,355.705,790.0448,354.8433,790.9066,349.2525,786.012,357.799" style="stroke: #A80036; stroke-width: 1.0;"/><text fill="#000000" font-family="sans-serif" font-size="13" lengthAdjust="spacingAndGlyphs" textLength="121" x="913" y="233.0669">ContactPersonRole</text><text fill="#000000" font-family="sans-serif" font-size="13" lengthAdjust="spacingAndGlyphs" textLength="8" x="780.6597" y="347.0359">1</text><!--link Role to CounterpartyRisk--><path d="M271.253,63.104 C415.881,63.607 695.93,73.661 762,142 C794.058,175.159 786.214,235.755 780.059,264.728 " fill="none" id="Role-CounterpartyRisk" style="stroke: #A80036; stroke-width: 1.0;"/><polygon fill="#A80036" points="778.94,269.757,784.8008,261.8418,780.0269,264.8766,776.9921,260.1027,778.94,269.757" style="stroke: #A80036; stroke-width: 1.0;"/><text fill="#000000" font-family="sans-serif" font-size="13" lengthAdjust="spacingAndGlyphs" textLength="109" x="785" y="182.0669">CounterpartyRisk</text><text fill="#000000" font-family="sans-serif" font-size="13" lengthAdjust="spacingAndGlyphs" textLength="24" x="750.5248" y="258.9799">0..1</text><!--link Role to Entry--><path d="M271.383,82.218 C398.287,108.676 626.611,156.279 701.487,171.889 " fill="none" id="Role-Entry" style="stroke: #A80036; stroke-width: 1.0;"/><polygon fill="#A80036" points="706.61,172.957,698.6154,167.2049,701.7152,171.9369,696.9832,175.0367,706.61,172.957" style="stroke: #A80036; stroke-width: 1.0;"/><text fill="#000000" font-family="sans-serif" font-size="13" lengthAdjust="spacingAndGlyphs" textLength="33" x="521" y="129.0669">Entry</text><text fill="#000000" font-family="sans-serif" font-size="13" lengthAdjust="spacingAndGlyphs" textLength="8" x="691.0552" y="165.4063">1</text><!--link InvestmentFundPartyRole to Account--><path d="M271.511,187.219 C341.414,196.33 432.948,214.137 450,246 C460.066,264.809 459.204,274.754 450,294 C436.633,321.952 407.202,342.819 385.004,355.353 " fill="none" id="InvestmentFundPartyRole-Account" style="stroke: #A80036; stroke-width: 1.0;"/><polygon fill="#A80036" points="380.386,357.9,390.1985,357.0547,384.7639,355.4847,386.334,350.05,380.386,357.9" style="stroke: #A80036; stroke-width: 1.0;"/><text fill="#000000" font-family="sans-serif" font-size="13" lengthAdjust="spacingAndGlyphs" textLength="52" x="459" y="286.0669">Account</text><text fill="#000000" font-family="sans-serif" font-size="13" lengthAdjust="spacingAndGlyphs" textLength="7" x="378.7921" y="346.9138">*</text><!--link InvestmentFundPartyRole to InvestmentFund--><path d="M209.913,190.11 C245.403,208.964 317.294,247.156 355.611,267.512 " fill="none" id="InvestmentFundPartyRole-InvestmentFund" style="stroke: #A80036; stroke-width: 1.0;"/><polygon fill="#A80036" points="360.113,269.904,354.0414,262.1493,355.6974,267.5583,350.2883,269.2143,360.113,269.904" style="stroke: #A80036; stroke-width: 1.0;"/><text fill="#000000" font-family="sans-serif" font-size="13" lengthAdjust="spacingAndGlyphs" textLength="103" x="298" y="233.0669">InvestmentFund</text><text fill="#000000" font-family="sans-serif" font-size="13" lengthAdjust="spacingAndGlyphs" textLength="7" x="343.2143" y="258.9192">*</text><!--link Entry to Account--><path d="M707.29,190.042 C671.509,211.034 590.736,257.836 521,294 C491.705,309.192 483.976,312.201 454,326 C431.787,336.226 406.528,347.409 387.355,355.807 " fill="none" id="Entry-Account" style="stroke: #A80036; stroke-width: 1.0;"/><polygon fill="#A80036" points="382.618,357.88,392.4667,357.9374,387.1988,355.876,389.2603,350.6081,382.618,357.88" style="stroke: #A80036; stroke-width: 1.0;"/><text fill="#000000" font-family="sans-serif" font-size="13" lengthAdjust="spacingAndGlyphs" textLength="52" x="611" y="286.0669">Account</text><text fill="#000000" font-family="sans-serif" font-size="13" lengthAdjust="spacingAndGlyphs" textLength="7" x="392.5414" y="346.887">*</text><!--link Account to Account--><path d="M385.508,362.332 C403.181,360.483 420,363.039 420,370 C420,376.254 406.424,378.952 390.85,378.095 " fill="none" id="Account-Account" style="stroke: #A80036; stroke-width: 1.0;"/><polygon fill="#A80036" points="385.508,377.668,394.1605,382.3727,390.4921,378.0666,394.7982,374.3981,385.508,377.668" style="stroke: #A80036; stroke-width: 1.0;"/><text fill="#000000" font-family="sans-serif" font-size="13" lengthAdjust="spacingAndGlyphs" textLength="94" x="426" y="374.0669">ParentAccount</text><text fill="#000000" font-family="sans-serif" font-size="13" lengthAdjust="spacingAndGlyphs" textLength="8" x="393.7741" y="373.5427">1</text></g></svg>