<?xml version="1.0" encoding="UTF-8" standalone="no"?><svg xmlns="http://www.w3.org/2000/svg" xmlns:xlink="http://www.w3.org/1999/xlink" contentScriptType="application/ecmascript" contentStyleType="text/css" height="482px" preserveAspectRatio="none" style="width:1134px;height:482px;" version="1.1" viewBox="0 0 1134 482" width="1134px" zoomAndPan="magnify"><defs><filter height="300%" id="f1vqmmxhzcykuh" width="300%" x="-1" y="-1"><feGaussianBlur result="blurOut" stdDeviation="2.0"/><feColorMatrix in="blurOut" result="blurOut2" type="matrix" values="0 0 0 0 0 0 0 0 0 0 0 0 0 0 0 0 0 0 .4 0"/><feOffset dx="4.0" dy="4.0" in="blurOut2" result="blurOut3"/><feBlend in="SourceGraphic" in2="blurOut3" mode="normal"/></filter></defs><g><!--cluster ##8118--><!--cluster ##8130--><!--cluster ##8139--><!--class Role--><a target="_top" xlink:actuate="onRequest" xlink:href="../Role.html" xlink:show="new" xlink:title="Role of a party in an activity." xlink:type="simple"><rect fill="#FEFEEE" filter="url(#f1vqmmxhzcykuh)" height="44.7734" id="Role" style="stroke: #A80036; stroke-width: 1.5;" width="175" x="51.75" y="40.5"/><rect fill="#FEFEEE" height="23.9688" style="stroke: #A80036; stroke-width: 1.5;" width="175" x="51.75" y="40.5"/><text fill="#000000" font-family="sans-serif" font-size="12" lengthAdjust="spacingAndGlyphs" textLength="27" x="125.75" y="56.6387">Role</text><line style="stroke: #A80036; stroke-width: 1.5;" x1="52.75" x2="225.75" y1="64.4688" y2="64.4688"/><ellipse cx="62.75" cy="76.3711" fill="#84BE84" rx="3" ry="3" style="stroke: #038048; stroke-width: 1.0;"/><text fill="#000000" font-family="sans-serif" font-size="11" lengthAdjust="spacingAndGlyphs" textLength="53" x="71.75" y="78.6792">PartyRole</text><text fill="#000000" font-family="sans-serif" font-size="11" font-style="italic" lengthAdjust="spacingAndGlyphs" textLength="92" x="128.75" y="78.6792">(PartyRoleCode)</text></a><!--class InvestmentFundPartyRole--><a target="_top" xlink:actuate="onRequest" xlink:href="../InvestmentFundPartyRole.html" xlink:show="new" xlink:title="Specifies roles played by a party that are linked to the handling of investment funds but not related to a specific process." xlink:type="simple"><rect fill="#FEFEEE" filter="url(#f1vqmmxhzcykuh)" height="23.9688" id="InvestmentFundPartyRole" style="stroke: #A80036; stroke-width: 1.5;" width="165" x="61.75" y="166"/><rect fill="#FEFEEE" height="23.9688" style="stroke: #A80036; stroke-width: 1.5;" width="165" x="61.75" y="166"/><text fill="#000000" font-family="sans-serif" font-size="12" lengthAdjust="spacingAndGlyphs" textLength="159" x="64.75" y="182.1387">InvestmentFundPartyRole</text></a><!--class FundManagerRole--><a target="_top" xlink:actuate="onRequest" xlink:href="../FundManagerRole.html" xlink:show="new" xlink:title="Legal entity that sets up a fund, appoints agents, decides and implements an investment strategy. That is, selects portfolio investments in accordance with the objectives and strategy in the fund's prospectus, and places orders to effect or liquidate selected investments in accordance with net flow of capital into or out of the fund. Also called fund promoter or fund sponsor." xlink:type="simple"><rect fill="#FEFECE" filter="url(#f1vqmmxhzcykuh)" height="23.9688" id="FundManagerRole" style="stroke: #A80036; stroke-width: 1.5;" width="119" x="84.75" y="270"/><rect fill="#FEFECE" height="23.9688" style="stroke: #A80036; stroke-width: 1.5;" width="119" x="84.75" y="270"/><text fill="#000000" font-family="sans-serif" font-size="12" lengthAdjust="spacingAndGlyphs" textLength="113" x="87.75" y="286.1387">FundManagerRole</text></a><!--class FundPromoter--><a target="_top" xlink:actuate="onRequest" xlink:href="../FundPromoter.html" xlink:show="new" xlink:title="Fund Promoter" xlink:type="simple"><rect fill="#FEFEEE" filter="url(#f1vqmmxhzcykuh)" height="23.9688" id="FundPromoter" style="stroke: #A80036; stroke-width: 1.5;" width="95" x="96.75" y="358"/><rect fill="#FEFEEE" height="23.9688" style="stroke: #A80036; stroke-width: 1.5;" width="95" x="96.75" y="358"/><text fill="#000000" font-family="sans-serif" font-size="12" lengthAdjust="spacingAndGlyphs" textLength="89" x="99.75" y="374.1387">FundPromoter</text></a><!--class RolePlayer--><a target="_top" xlink:actuate="onRequest" xlink:href="../RolePlayer.html" xlink:show="new" xlink:title="Type of entity that plays a specific role in a specific context." xlink:type="simple"><rect fill="#EEEEEE" filter="url(#f1vqmmxhzcykuh)" height="23.9688" id="RolePlayer" style="stroke: #A80036; stroke-width: 1.5;" width="71" x="709.75" y="448"/><rect fill="#EEEEEE" height="23.9688" style="stroke: #A80036; stroke-width: 1.5;" width="71" x="709.75" y="448"/><text fill="#000000" font-family="sans-serif" font-size="12" lengthAdjust="spacingAndGlyphs" textLength="65" x="712.75" y="464.1387">RolePlayer</text></a><!--class ContactPersonRole--><a target="_top" xlink:actuate="onRequest" xlink:href="../ContactPersonRole.html" xlink:show="new" xlink:title="Person to be contacted in a given organisation. In the corporate action domain (including meeting notifications) , it is the contact person at the party organising the meeting, at the issuer or at an intermediary." xlink:type="simple"><rect fill="#EEEEEE" filter="url(#f1vqmmxhzcykuh)" height="23.9688" id="ContactPersonRole" style="stroke: #A80036; stroke-width: 1.5;" width="126" x="662" y="358"/><rect fill="#EEEEEE" height="23.9688" style="stroke: #A80036; stroke-width: 1.5;" width="126" x="662" y="358"/><text fill="#000000" font-family="sans-serif" font-size="12" lengthAdjust="spacingAndGlyphs" textLength="120" x="665" y="374.1387">ContactPersonRole</text></a><!--class CounterpartyRisk--><a target="_top" xlink:actuate="onRequest" xlink:href="../CounterpartyRisk.html" xlink:show="new" xlink:title="Calculation of the exposure amount that one party has vis-a-vis one counterparty or a central system, based on its credit risk." xlink:type="simple"><rect fill="#EEEEEE" filter="url(#f1vqmmxhzcykuh)" height="23.9688" id="CounterpartyRisk" style="stroke: #A80036; stroke-width: 1.5;" width="113" x="674.75" y="270"/><rect fill="#EEEEEE" height="23.9688" style="stroke: #A80036; stroke-width: 1.5;" width="113" x="674.75" y="270"/><text fill="#000000" font-family="sans-serif" font-size="12" lengthAdjust="spacingAndGlyphs" textLength="107" x="677.75" y="286.1387">CounterpartyRisk</text></a><!--class Entry--><a target="_top" xlink:actuate="onRequest" xlink:href="../Entry.html" xlink:show="new" xlink:title="Posting to an account that results in an increase or decrease to a balance." xlink:type="simple"><rect fill="#EEEEEE" filter="url(#f1vqmmxhzcykuh)" height="23.9688" id="Entry" style="stroke: #A80036; stroke-width: 1.5;" width="38" x="662" y="166"/><rect fill="#EEEEEE" height="23.9688" style="stroke: #A80036; stroke-width: 1.5;" width="38" x="662" y="166"/><text fill="#000000" font-family="sans-serif" font-size="12" lengthAdjust="spacingAndGlyphs" textLength="32" x="665" y="182.1387">Entry</text></a><!--class Account--><a target="_top" xlink:actuate="onRequest" xlink:href="../Account.html" xlink:show="new" xlink:title="Record of transactions in specific types of assets, maintained by a servicing party on behalf of one or more owning parties. Business relationship between an account servicer and one or more account owners." xlink:type="simple"><rect fill="#EEEEEE" filter="url(#f1vqmmxhzcykuh)" height="23.9688" id="Account" style="stroke: #A80036; stroke-width: 1.5;" width="57" x="283.75" y="358"/><rect fill="#EEEEEE" height="23.9688" style="stroke: #A80036; stroke-width: 1.5;" width="57" x="283.75" y="358"/><text fill="#000000" font-family="sans-serif" font-size="12" lengthAdjust="spacingAndGlyphs" textLength="51" x="286.75" y="374.1387">Account</text></a><!--class InvestmentFund--><a target="_top" xlink:actuate="onRequest" xlink:href="../InvestmentFund.html" xlink:show="new" xlink:title="Distinct pool of financial instruments managed by a single investment policy. May or not be part of an umbrella fund. The pool is issued in at least one investment fund class." xlink:type="simple"><rect fill="#EEEEEE" filter="url(#f1vqmmxhzcykuh)" height="23.9688" id="InvestmentFund" style="stroke: #A80036; stroke-width: 1.5;" width="106" x="283.5" y="270"/><rect fill="#EEEEEE" height="23.9688" style="stroke: #A80036; stroke-width: 1.5;" width="106" x="283.5" y="270"/><text fill="#000000" font-family="sans-serif" font-size="12" lengthAdjust="spacingAndGlyphs" textLength="100" x="286.5" y="286.1387">InvestmentFund</text></a><!--entity ##8144--><!--link Role to InvestmentFundPartyRole--><path d="M140.839,105.559 C141.795,127.159 142.889,151.898 143.507,165.865 " fill="none" id="Role-InvestmentFundPartyRole" style="stroke: #A80036; stroke-width: 1.0;"/><polygon fill="none" points="133.843,105.81,139.952,85.52,147.83,105.191,133.843,105.81" style="stroke: #A80036; stroke-width: 1.0;"/><!--link InvestmentFundPartyRole to FundManagerRole--><path d="M144,210.595 C144,230.825 144,255.843 144,269.954 " fill="none" id="InvestmentFundPartyRole-FundManagerRole" style="stroke: #A80036; stroke-width: 1.0;"/><polygon fill="none" points="137,210.306,144,190.306,151,210.305,137,210.306" style="stroke: #A80036; stroke-width: 1.0;"/><!--link FundManagerRole to FundPromoter--><path d="M144,314.282 C144,329.459 144,346.744 144,357.754 " fill="none" id="FundManagerRole-FundPromoter" style="stroke: #A80036; stroke-width: 1.0;"/><polygon fill="none" points="137,314.243,144,294.243,151,314.243,137,314.243" style="stroke: #A80036; stroke-width: 1.0;"/><!--link ContactPersonRole to RolePlayer--><!--link CounterpartyRisk to ContactPersonRole--><!--link Entry to CounterpartyRisk--><!--link InvestmentFund to Account--><!--link Role to RolePlayer--><path d="M226.446,65.394 C460.221,70.275 1082,91.311 1082,177 C1082,177 1082,177 1082,371 C1082,431.6217 875.27,451.2654 785.642,456.9332 " fill="none" id="Role-RolePlayer" style="stroke: #A80036; stroke-width: 1.0;"/><polygon fill="#A80036" points="780.428,457.2555,789.6577,460.6924,785.4185,456.9469,789.164,452.7077,780.428,457.2555" style="stroke: #A80036; stroke-width: 1.0;"/><text fill="#000000" font-family="sans-serif" font-size="13" lengthAdjust="spacingAndGlyphs" textLength="39" x="1083" y="286.0669">Player</text><text fill="#000000" font-family="sans-serif" font-size="13" lengthAdjust="spacingAndGlyphs" textLength="7" x="788.8888" y="450.8806">*</text><!--link Role to ContactPersonRole--><path d="M226.307,66.802 C409.23,73.603 819.162,94.082 859,142 C919.329,214.564 795.531,317.508 745.086,354.811 " fill="none" id="Role-ContactPersonRole" style="stroke: #A80036; stroke-width: 1.0;"/><polygon fill="#A80036" points="741.012,357.799,750.6357,355.705,745.0448,354.8433,745.9066,349.2525,741.012,357.799" style="stroke: #A80036; stroke-width: 1.0;"/><text fill="#000000" font-family="sans-serif" font-size="13" lengthAdjust="spacingAndGlyphs" textLength="121" x="868" y="233.0669">ContactPersonRole</text><text fill="#000000" font-family="sans-serif" font-size="13" lengthAdjust="spacingAndGlyphs" textLength="8" x="735.6597" y="347.0359">1</text><!--link Role to CounterpartyRisk--><path d="M226.253,63.104 C370.881,63.607 650.93,73.661 717,142 C749.058,175.159 741.214,235.755 735.059,264.728 " fill="none" id="Role-CounterpartyRisk" style="stroke: #A80036; stroke-width: 1.0;"/><polygon fill="#A80036" points="733.94,269.757,739.8008,261.8418,735.0269,264.8766,731.9921,260.1027,733.94,269.757" style="stroke: #A80036; stroke-width: 1.0;"/><text fill="#000000" font-family="sans-serif" font-size="13" lengthAdjust="spacingAndGlyphs" textLength="109" x="740" y="182.0669">CounterpartyRisk</text><text fill="#000000" font-family="sans-serif" font-size="13" lengthAdjust="spacingAndGlyphs" textLength="24" x="705.5248" y="258.9799">0..1</text><!--link Role to Entry--><path d="M226.383,82.218 C353.287,108.676 581.611,156.279 656.487,171.889 " fill="none" id="Role-Entry" style="stroke: #A80036; stroke-width: 1.0;"/><polygon fill="#A80036" points="661.61,172.957,653.6154,167.2049,656.7152,171.9369,651.9832,175.0367,661.61,172.957" style="stroke: #A80036; stroke-width: 1.0;"/><text fill="#000000" font-family="sans-serif" font-size="13" lengthAdjust="spacingAndGlyphs" textLength="33" x="476" y="129.0669">Entry</text><text fill="#000000" font-family="sans-serif" font-size="13" lengthAdjust="spacingAndGlyphs" textLength="8" x="646.0552" y="165.4063">1</text><!--link InvestmentFundPartyRole to Account--><path d="M226.511,187.219 C296.414,196.33 387.948,214.137 405,246 C415.066,264.809 414.204,274.754 405,294 C391.633,321.952 362.202,342.819 340.004,355.353 " fill="none" id="InvestmentFundPartyRole-Account" style="stroke: #A80036; stroke-width: 1.0;"/><polygon fill="#A80036" points="335.386,357.9,345.1985,357.0547,339.7639,355.4847,341.334,350.05,335.386,357.9" style="stroke: #A80036; stroke-width: 1.0;"/><text fill="#000000" font-family="sans-serif" font-size="13" lengthAdjust="spacingAndGlyphs" textLength="52" x="414" y="286.0669">Account</text><text fill="#000000" font-family="sans-serif" font-size="13" lengthAdjust="spacingAndGlyphs" textLength="7" x="333.7921" y="346.9138">*</text><!--link InvestmentFundPartyRole to InvestmentFund--><path d="M164.913,190.11 C200.403,208.964 272.294,247.156 310.611,267.512 " fill="none" id="InvestmentFundPartyRole-InvestmentFund" style="stroke: #A80036; stroke-width: 1.0;"/><polygon fill="#A80036" points="315.113,269.904,309.0414,262.1493,310.6974,267.5583,305.2883,269.2143,315.113,269.904" style="stroke: #A80036; stroke-width: 1.0;"/><text fill="#000000" font-family="sans-serif" font-size="13" lengthAdjust="spacingAndGlyphs" textLength="103" x="253" y="233.0669">InvestmentFund</text><text fill="#000000" font-family="sans-serif" font-size="13" lengthAdjust="spacingAndGlyphs" textLength="7" x="298.2143" y="258.9192">*</text><!--link Entry to Account--><path d="M662.29,190.042 C626.509,211.034 545.736,257.836 476,294 C446.705,309.192 438.976,312.201 409,326 C386.787,336.226 361.528,347.409 342.355,355.807 " fill="none" id="Entry-Account" style="stroke: #A80036; stroke-width: 1.0;"/><polygon fill="#A80036" points="337.618,357.88,347.4667,357.9374,342.1988,355.876,344.2603,350.6081,337.618,357.88" style="stroke: #A80036; stroke-width: 1.0;"/><text fill="#000000" font-family="sans-serif" font-size="13" lengthAdjust="spacingAndGlyphs" textLength="52" x="566" y="286.0669">Account</text><text fill="#000000" font-family="sans-serif" font-size="13" lengthAdjust="spacingAndGlyphs" textLength="7" x="347.5414" y="346.887">*</text><!--link Account to Account--><path d="M340.508,362.332 C358.181,360.483 375,363.039 375,370 C375,376.254 361.424,378.952 345.85,378.095 " fill="none" id="Account-Account" style="stroke: #A80036; stroke-width: 1.0;"/><polygon fill="#A80036" points="340.508,377.668,349.1605,382.3727,345.4921,378.0666,349.7982,374.3981,340.508,377.668" style="stroke: #A80036; stroke-width: 1.0;"/><text fill="#000000" font-family="sans-serif" font-size="13" lengthAdjust="spacingAndGlyphs" textLength="94" x="381" y="374.0669">ParentAccount</text><text fill="#000000" font-family="sans-serif" font-size="13" lengthAdjust="spacingAndGlyphs" textLength="8" x="348.7741" y="373.5427">1</text></g></svg>