<?xml version="1.0" encoding="UTF-8" standalone="no"?><svg xmlns="http://www.w3.org/2000/svg" xmlns:xlink="http://www.w3.org/1999/xlink" contentScriptType="application/ecmascript" contentStyleType="text/css" height="478px" preserveAspectRatio="none" style="width:845px;height:478px;" version="1.1" viewBox="0 0 845 478" width="845px" zoomAndPan="magnify"><defs><filter height="300%" id="fedlze3sfsxao" width="300%" x="-1" y="-1"><feGaussianBlur result="blurOut" stdDeviation="2.0"/><feColorMatrix in="blurOut" result="blurOut2" type="matrix" values="0 0 0 0 0 0 0 0 0 0 0 0 0 0 0 0 0 0 .4 0"/><feOffset dx="4.0" dy="4.0" in="blurOut2" result="blurOut3"/><feBlend in="SourceGraphic" in2="blurOut3" mode="normal"/></filter></defs><g><!--cluster ##13444--><!--cluster ##13456--><!--cluster ##13465--><!--class Role--><a target="_top" xlink:actuate="onRequest" xlink:href="../Role.html" xlink:show="new" xlink:title="Role of a party in an activity." xlink:type="simple"><rect fill="#FEFEEE" filter="url(#fedlze3sfsxao)" height="44.7734" id="Role" style="stroke: #A80036; stroke-width: 1.5;" width="175" x="135.75" y="40.5"/><rect fill="#FEFEEE" height="23.9688" style="stroke: #A80036; stroke-width: 1.5;" width="175" x="135.75" y="40.5"/><text fill="#000000" font-family="sans-serif" font-size="12" lengthAdjust="spacingAndGlyphs" textLength="27" x="209.75" y="56.6387">Role</text><line style="stroke: #A80036; stroke-width: 1.5;" x1="136.75" x2="309.75" y1="64.4688" y2="64.4688"/><ellipse cx="146.75" cy="76.3711" fill="#84BE84" rx="3" ry="3" style="stroke: #038048; stroke-width: 1.0;"/><text fill="#000000" font-family="sans-serif" font-size="11" lengthAdjust="spacingAndGlyphs" textLength="53" x="155.75" y="78.6792">PartyRole</text><text fill="#000000" font-family="sans-serif" font-size="11" font-style="italic" lengthAdjust="spacingAndGlyphs" textLength="92" x="212.75" y="78.6792">(PartyRoleCode)</text></a><!--class GuaranteePartyRole--><a target="_top" xlink:actuate="onRequest" xlink:href="../GuaranteePartyRole.html" xlink:show="new" xlink:title="Role played by a party in the context of guarantees." xlink:type="simple"><rect fill="#FEFECE" filter="url(#fedlze3sfsxao)" height="23.9688" id="GuaranteePartyRole" style="stroke: #A80036; stroke-width: 1.5;" width="132" x="164" y="166"/><rect fill="#FEFECE" height="23.9688" style="stroke: #A80036; stroke-width: 1.5;" width="132" x="164" y="166"/><text fill="#000000" font-family="sans-serif" font-size="12" lengthAdjust="spacingAndGlyphs" textLength="126" x="167" y="182.1387">GuaranteePartyRole</text></a><!--class GuarantorRole--><a target="_top" xlink:actuate="onRequest" xlink:href="../GuarantorRole.html" xlink:show="new" xlink:title="Legal entity, other than the issuer, who gives a guarantee. The guarantor becomes liable in case of default." xlink:type="simple"><rect fill="#FEFEEE" filter="url(#fedlze3sfsxao)" height="23.9688" id="GuarantorRole" style="stroke: #A80036; stroke-width: 1.5;" width="97" x="37.75" y="270"/><rect fill="#FEFEEE" height="23.9688" style="stroke: #A80036; stroke-width: 1.5;" width="97" x="37.75" y="270"/><text fill="#000000" font-family="sans-serif" font-size="12" lengthAdjust="spacingAndGlyphs" textLength="91" x="40.75" y="286.1387">GuarantorRole</text></a><!--class GuaranteeBeneficiary--><a target="_top" xlink:actuate="onRequest" xlink:href="../GuaranteeBeneficiary.html" xlink:show="new" xlink:title="Party that is the beneficiary of the guarantee." xlink:type="simple"><rect fill="#FEFEEE" filter="url(#fedlze3sfsxao)" height="23.9688" id="GuaranteeBeneficiary" style="stroke: #A80036; stroke-width: 1.5;" width="141" x="169.75" y="270"/><rect fill="#FEFEEE" height="23.9688" style="stroke: #A80036; stroke-width: 1.5;" width="141" x="169.75" y="270"/><text fill="#000000" font-family="sans-serif" font-size="12" lengthAdjust="spacingAndGlyphs" textLength="135" x="172.75" y="286.1387">GuaranteeBeneficiary</text></a><!--class RolePlayer--><a target="_top" xlink:actuate="onRequest" xlink:href="../RolePlayer.html" xlink:show="new" xlink:title="Type of entity that plays a specific role in a specific context." xlink:type="simple"><rect fill="#EEEEEE" filter="url(#fedlze3sfsxao)" height="23.9688" id="RolePlayer" style="stroke: #A80036; stroke-width: 1.5;" width="71" x="654.75" y="444"/><rect fill="#EEEEEE" height="23.9688" style="stroke: #A80036; stroke-width: 1.5;" width="71" x="654.75" y="444"/><text fill="#000000" font-family="sans-serif" font-size="12" lengthAdjust="spacingAndGlyphs" textLength="65" x="657.75" y="460.1387">RolePlayer</text></a><!--class ContactPersonRole--><a target="_top" xlink:actuate="onRequest" xlink:href="../ContactPersonRole.html" xlink:show="new" xlink:title="Person to be contacted in a given organisation. In the corporate action domain (including meeting notifications) , it is the contact person at the party organising the meeting, at the issuer or at an intermediary." xlink:type="simple"><rect fill="#EEEEEE" filter="url(#fedlze3sfsxao)" height="23.9688" id="ContactPersonRole" style="stroke: #A80036; stroke-width: 1.5;" width="126" x="647" y="358"/><rect fill="#EEEEEE" height="23.9688" style="stroke: #A80036; stroke-width: 1.5;" width="126" x="647" y="358"/><text fill="#000000" font-family="sans-serif" font-size="12" lengthAdjust="spacingAndGlyphs" textLength="120" x="650" y="374.1387">ContactPersonRole</text></a><!--class CounterpartyRisk--><a target="_top" xlink:actuate="onRequest" xlink:href="../CounterpartyRisk.html" xlink:show="new" xlink:title="Calculation of the exposure amount that one party has vis-a-vis one counterparty or a central system, based on its credit risk." xlink:type="simple"><rect fill="#EEEEEE" filter="url(#fedlze3sfsxao)" height="23.9688" id="CounterpartyRisk" style="stroke: #A80036; stroke-width: 1.5;" width="113" x="659.75" y="270"/><rect fill="#EEEEEE" height="23.9688" style="stroke: #A80036; stroke-width: 1.5;" width="113" x="659.75" y="270"/><text fill="#000000" font-family="sans-serif" font-size="12" lengthAdjust="spacingAndGlyphs" textLength="107" x="662.75" y="286.1387">CounterpartyRisk</text></a><!--class Entry--><a target="_top" xlink:actuate="onRequest" xlink:href="../Entry.html" xlink:show="new" xlink:title="Posting to an account that results in an increase or decrease to a balance." xlink:type="simple"><rect fill="#EEEEEE" filter="url(#fedlze3sfsxao)" height="23.9688" id="Entry" style="stroke: #A80036; stroke-width: 1.5;" width="38" x="647" y="166"/><rect fill="#EEEEEE" height="23.9688" style="stroke: #A80036; stroke-width: 1.5;" width="38" x="647" y="166"/><text fill="#000000" font-family="sans-serif" font-size="12" lengthAdjust="spacingAndGlyphs" textLength="32" x="650" y="182.1387">Entry</text></a><!--class Guarantee--><a target="_top" xlink:actuate="onRequest" xlink:href="../Guarantee.html" xlink:show="new" xlink:title="Partial or full coverage of amounts by a party other than the debtor." xlink:type="simple"><rect fill="#EEEEEE" filter="url(#fedlze3sfsxao)" height="23.9688" id="Guarantee" style="stroke: #A80036; stroke-width: 1.5;" width="73" x="367.75" y="270"/><rect fill="#EEEEEE" height="23.9688" style="stroke: #A80036; stroke-width: 1.5;" width="73" x="367.75" y="270"/><text fill="#000000" font-family="sans-serif" font-size="12" lengthAdjust="spacingAndGlyphs" textLength="67" x="370.75" y="286.1387">Guarantee</text></a><!--link Role to GuaranteePartyRole--><path d="M225.574,105.559 C226.913,127.159 228.445,151.898 229.31,165.865 " fill="none" id="Role-GuaranteePartyRole" style="stroke: #A80036; stroke-width: 1.0;"/><polygon fill="none" points="218.583,105.915,224.333,85.52,232.556,105.049,218.583,105.915" style="stroke: #A80036; stroke-width: 1.0;"/><!--link GuaranteePartyRole to GuarantorRole--><path d="M197.713,201.87 C167.805,223.055 124.593,253.664 101.6653,269.904 " fill="none" id="GuaranteePartyRole-GuarantorRole" style="stroke: #A80036; stroke-width: 1.0;"/><polygon fill="none" points="193.949,195.958,214.315,190.11,202.041,207.383,193.949,195.958" style="stroke: #A80036; stroke-width: 1.0;"/><!--link GuaranteePartyRole to GuaranteeBeneficiary--><path d="M233.065,210.267 C235.054,230.554 237.526,255.766 238.917,269.954 " fill="none" id="GuaranteePartyRole-GuaranteeBeneficiary" style="stroke: #A80036; stroke-width: 1.0;"/><polygon fill="none" points="226.093,210.893,231.108,190.306,240.027,209.527,226.093,210.893" style="stroke: #A80036; stroke-width: 1.0;"/><!--link ContactPersonRole to RolePlayer--><!--link CounterpartyRisk to ContactPersonRole--><!--link Entry to CounterpartyRisk--><!--link Role to RolePlayer--><path d="M310.583,80.833 C395.314,99.695 511,133.427 511,177 C511,177 511,177 511,371 C511,431.8572 596.842,448.7099 649.634,453.3199 " fill="none" id="Role-RolePlayer" style="stroke: #A80036; stroke-width: 1.0;"/><polygon fill="#A80036" points="654.635,453.7288,645.9919,449.0068,649.6517,453.3202,645.3382,456.98,654.635,453.7288" style="stroke: #A80036; stroke-width: 1.0;"/><text fill="#000000" font-family="sans-serif" font-size="13" lengthAdjust="spacingAndGlyphs" textLength="39" x="512" y="286.0669">Player</text><text fill="#000000" font-family="sans-serif" font-size="13" lengthAdjust="spacingAndGlyphs" textLength="7" x="639.7402" y="447.9585">*</text><!--link Role to ContactPersonRole--><path d="M310.427,69.035 C390.903,75.318 502.811,88.748 537,116 C582.823,152.526 559.131,186.452 587,238 C607.52,275.956 612.125,286.868 642,318 C655.704,332.281 673.714,345.597 687.757,355.039 " fill="none" id="Role-ContactPersonRole" style="stroke: #A80036; stroke-width: 1.0;"/><polygon fill="#A80036" points="691.978,357.842,686.6906,349.5328,687.8118,355.0774,682.2672,356.1987,691.978,357.842" style="stroke: #A80036; stroke-width: 1.0;"/><text fill="#000000" font-family="sans-serif" font-size="13" lengthAdjust="spacingAndGlyphs" textLength="121" x="588" y="233.0669">ContactPersonRole</text><text fill="#000000" font-family="sans-serif" font-size="13" lengthAdjust="spacingAndGlyphs" textLength="8" x="675.0642" y="346.8359">1</text><!--link Role to CounterpartyRisk--><path d="M310.487,65.59 C426.132,69.085 622.443,80.261 684,116 C715.037,134.019 729.821,218.936 730,220 C732.586,235.376 727.874,252.681 723.233,264.921 " fill="none" id="Role-CounterpartyRisk" style="stroke: #A80036; stroke-width: 1.0;"/><polygon fill="#A80036" points="721.27,269.837,728.322,262.9618,723.124,265.1934,720.8923,259.9954,721.27,269.837" style="stroke: #A80036; stroke-width: 1.0;"/><text fill="#000000" font-family="sans-serif" font-size="13" lengthAdjust="spacingAndGlyphs" textLength="109" x="724" y="182.0669">CounterpartyRisk</text><text fill="#000000" font-family="sans-serif" font-size="13" lengthAdjust="spacingAndGlyphs" textLength="24" x="693.5269" y="258.8292">0..1</text><!--link Role to Entry--><path d="M310.466,67.618 C411.094,73.126 569.02,86.304 620,116 C637.917,126.437 651.105,146.874 658.659,161.206 " fill="none" id="Role-Entry" style="stroke: #A80036; stroke-width: 1.0;"/><polygon fill="#A80036" points="661.003,165.809,660.4841,155.9738,658.7344,161.3533,653.355,159.6035,661.003,165.809" style="stroke: #A80036; stroke-width: 1.0;"/><text fill="#000000" font-family="sans-serif" font-size="13" lengthAdjust="spacingAndGlyphs" textLength="33" x="641" y="129.0669">Entry</text><text fill="#000000" font-family="sans-serif" font-size="13" lengthAdjust="spacingAndGlyphs" textLength="8" x="648.6915" y="155.0492">1</text><!--link GuaranteePartyRole to Guarantee--><path d="M248.952,190.11 C280.985,208.887 345.737,246.846 380.566,267.263 " fill="none" id="GuaranteePartyRole-Guarantee" style="stroke: #A80036; stroke-width: 1.0;"/><polygon fill="#A80036" points="385.071,269.904,379.3289,261.9022,380.7573,267.3758,375.2837,268.8041,385.071,269.904" style="stroke: #A80036; stroke-width: 1.0;"/><text fill="#000000" font-family="sans-serif" font-size="13" lengthAdjust="spacingAndGlyphs" textLength="68" x="329" y="233.0669">Guarantee</text><text fill="#000000" font-family="sans-serif" font-size="13" lengthAdjust="spacingAndGlyphs" textLength="8" x="367.7595" y="258.9192">1</text></g></svg>