<?xml version="1.0" encoding="UTF-8" standalone="no"?><svg xmlns="http://www.w3.org/2000/svg" xmlns:xlink="http://www.w3.org/1999/xlink" contentScriptType="application/ecmascript" contentStyleType="text/css" height="478px" preserveAspectRatio="none" style="width:761px;height:478px;" version="1.1" viewBox="0 0 761 478" width="761px" zoomAndPan="magnify"><defs><filter height="300%" id="f19xhyhw6fj2m4" width="300%" x="-1" y="-1"><feGaussianBlur result="blurOut" stdDeviation="2.0"/><feColorMatrix in="blurOut" result="blurOut2" type="matrix" values="0 0 0 0 0 0 0 0 0 0 0 0 0 0 0 0 0 0 .4 0"/><feOffset dx="4.0" dy="4.0" in="blurOut2" result="blurOut3"/><feBlend in="SourceGraphic" in2="blurOut3" mode="normal"/></filter></defs><g><!--cluster ##21997--><!--cluster ##22006--><!--cluster ##22015--><!--class Role--><a target="_top" xlink:actuate="onRequest" xlink:href="../Role.html" xlink:show="new" xlink:title="Role of a party in an activity." xlink:type="simple"><rect fill="#FEFEEE" filter="url(#f19xhyhw6fj2m4)" height="44.7734" id="Role" style="stroke: #A80036; stroke-width: 1.5;" width="175" x="51.75" y="40.5"/><rect fill="#FEFEEE" height="23.9688" style="stroke: #A80036; stroke-width: 1.5;" width="175" x="51.75" y="40.5"/><text fill="#000000" font-family="sans-serif" font-size="12" lengthAdjust="spacingAndGlyphs" textLength="27" x="125.75" y="56.6387">Role</text><line style="stroke: #A80036; stroke-width: 1.5;" x1="52.75" x2="225.75" y1="64.4688" y2="64.4688"/><ellipse cx="62.75" cy="76.3711" fill="#84BE84" rx="3" ry="3" style="stroke: #038048; stroke-width: 1.0;"/><text fill="#000000" font-family="sans-serif" font-size="11" lengthAdjust="spacingAndGlyphs" textLength="53" x="71.75" y="78.6792">PartyRole</text><text fill="#000000" font-family="sans-serif" font-size="11" font-style="italic" lengthAdjust="spacingAndGlyphs" textLength="92" x="128.75" y="78.6792">(PartyRoleCode)</text></a><!--class GuaranteePartyRole--><a target="_top" xlink:actuate="onRequest" xlink:href="../GuaranteePartyRole.html" xlink:show="new" xlink:title="Role played by a party in the context of guarantees." xlink:type="simple"><rect fill="#FEFEEE" filter="url(#f19xhyhw6fj2m4)" height="23.9688" id="GuaranteePartyRole" style="stroke: #A80036; stroke-width: 1.5;" width="132" x="82" y="166"/><rect fill="#FEFEEE" height="23.9688" style="stroke: #A80036; stroke-width: 1.5;" width="132" x="82" y="166"/><text fill="#000000" font-family="sans-serif" font-size="12" lengthAdjust="spacingAndGlyphs" textLength="126" x="85" y="182.1387">GuaranteePartyRole</text></a><!--class GuaranteeBeneficiary--><a target="_top" xlink:actuate="onRequest" xlink:href="../GuaranteeBeneficiary.html" xlink:show="new" xlink:title="Party that is the beneficiary of the guarantee." xlink:type="simple"><rect fill="#FEFECE" filter="url(#f19xhyhw6fj2m4)" height="23.9688" id="GuaranteeBeneficiary" style="stroke: #A80036; stroke-width: 1.5;" width="141" x="77.75" y="270"/><rect fill="#FEFECE" height="23.9688" style="stroke: #A80036; stroke-width: 1.5;" width="141" x="77.75" y="270"/><text fill="#000000" font-family="sans-serif" font-size="12" lengthAdjust="spacingAndGlyphs" textLength="135" x="80.75" y="286.1387">GuaranteeBeneficiary</text></a><!--class RolePlayer--><a target="_top" xlink:actuate="onRequest" xlink:href="../RolePlayer.html" xlink:show="new" xlink:title="Type of entity that plays a specific role in a specific context." xlink:type="simple"><rect fill="#EEEEEE" filter="url(#f19xhyhw6fj2m4)" height="23.9688" id="RolePlayer" style="stroke: #A80036; stroke-width: 1.5;" width="71" x="570.75" y="444"/><rect fill="#EEEEEE" height="23.9688" style="stroke: #A80036; stroke-width: 1.5;" width="71" x="570.75" y="444"/><text fill="#000000" font-family="sans-serif" font-size="12" lengthAdjust="spacingAndGlyphs" textLength="65" x="573.75" y="460.1387">RolePlayer</text></a><!--class ContactPersonRole--><a target="_top" xlink:actuate="onRequest" xlink:href="../ContactPersonRole.html" xlink:show="new" xlink:title="Person to be contacted in a given organisation. In the corporate action domain (including meeting notifications) , it is the contact person at the party organising the meeting, at the issuer or at an intermediary." xlink:type="simple"><rect fill="#EEEEEE" filter="url(#f19xhyhw6fj2m4)" height="23.9688" id="ContactPersonRole" style="stroke: #A80036; stroke-width: 1.5;" width="126" x="563" y="358"/><rect fill="#EEEEEE" height="23.9688" style="stroke: #A80036; stroke-width: 1.5;" width="126" x="563" y="358"/><text fill="#000000" font-family="sans-serif" font-size="12" lengthAdjust="spacingAndGlyphs" textLength="120" x="566" y="374.1387">ContactPersonRole</text></a><!--class CounterpartyRisk--><a target="_top" xlink:actuate="onRequest" xlink:href="../CounterpartyRisk.html" xlink:show="new" xlink:title="Calculation of the exposure amount that one party has vis-a-vis one counterparty or a central system, based on its credit risk." xlink:type="simple"><rect fill="#EEEEEE" filter="url(#f19xhyhw6fj2m4)" height="23.9688" id="CounterpartyRisk" style="stroke: #A80036; stroke-width: 1.5;" width="113" x="575.75" y="270"/><rect fill="#EEEEEE" height="23.9688" style="stroke: #A80036; stroke-width: 1.5;" width="113" x="575.75" y="270"/><text fill="#000000" font-family="sans-serif" font-size="12" lengthAdjust="spacingAndGlyphs" textLength="107" x="578.75" y="286.1387">CounterpartyRisk</text></a><!--class Entry--><a target="_top" xlink:actuate="onRequest" xlink:href="../Entry.html" xlink:show="new" xlink:title="Posting to an account that results in an increase or decrease to a balance." xlink:type="simple"><rect fill="#EEEEEE" filter="url(#f19xhyhw6fj2m4)" height="23.9688" id="Entry" style="stroke: #A80036; stroke-width: 1.5;" width="38" x="563" y="166"/><rect fill="#EEEEEE" height="23.9688" style="stroke: #A80036; stroke-width: 1.5;" width="38" x="563" y="166"/><text fill="#000000" font-family="sans-serif" font-size="12" lengthAdjust="spacingAndGlyphs" textLength="32" x="566" y="182.1387">Entry</text></a><!--class Guarantee--><a target="_top" xlink:actuate="onRequest" xlink:href="../Guarantee.html" xlink:show="new" xlink:title="Partial or full coverage of amounts by a party other than the debtor." xlink:type="simple"><rect fill="#EEEEEE" filter="url(#f19xhyhw6fj2m4)" height="23.9688" id="Guarantee" style="stroke: #A80036; stroke-width: 1.5;" width="73" x="283.75" y="270"/><rect fill="#EEEEEE" height="23.9688" style="stroke: #A80036; stroke-width: 1.5;" width="73" x="283.75" y="270"/><text fill="#000000" font-family="sans-serif" font-size="12" lengthAdjust="spacingAndGlyphs" textLength="67" x="286.75" y="286.1387">Guarantee</text></a><!--entity ##22018--><!--link Role to GuaranteePartyRole--><path d="M142.31,105.559 C144.03,127.159 146.001,151.898 147.113,165.865 " fill="none" id="Role-GuaranteePartyRole" style="stroke: #A80036; stroke-width: 1.0;"/><polygon fill="none" points="135.324,106.013,140.714,85.52,149.28,104.901,135.324,106.013" style="stroke: #A80036; stroke-width: 1.0;"/><!--link GuaranteePartyRole to GuaranteeBeneficiary--><path d="M148,210.595 C148,230.825 148,255.843 148,269.954 " fill="none" id="GuaranteePartyRole-GuaranteeBeneficiary" style="stroke: #A80036; stroke-width: 1.0;"/><polygon fill="none" points="141,210.306,148,190.306,155,210.305,141,210.306" style="stroke: #A80036; stroke-width: 1.0;"/><!--link ContactPersonRole to RolePlayer--><!--link CounterpartyRisk to ContactPersonRole--><!--link Entry to CounterpartyRisk--><!--link Role to RolePlayer--><path d="M226.583,80.833 C311.314,99.695 427,133.427 427,177 C427,177 427,177 427,371 C427,431.8572 512.842,448.7099 565.634,453.3199 " fill="none" id="Role-RolePlayer" style="stroke: #A80036; stroke-width: 1.0;"/><polygon fill="#A80036" points="570.635,453.7288,561.9919,449.0068,565.6517,453.3202,561.3382,456.98,570.635,453.7288" style="stroke: #A80036; stroke-width: 1.0;"/><text fill="#000000" font-family="sans-serif" font-size="13" lengthAdjust="spacingAndGlyphs" textLength="39" x="428" y="286.0669">Player</text><text fill="#000000" font-family="sans-serif" font-size="13" lengthAdjust="spacingAndGlyphs" textLength="7" x="555.7402" y="447.9585">*</text><!--link Role to ContactPersonRole--><path d="M226.427,69.035 C306.903,75.318 418.811,88.748 453,116 C498.823,152.526 475.131,186.452 503,238 C523.52,275.956 528.125,286.868 558,318 C571.704,332.281 589.714,345.597 603.757,355.039 " fill="none" id="Role-ContactPersonRole" style="stroke: #A80036; stroke-width: 1.0;"/><polygon fill="#A80036" points="607.978,357.842,602.6906,349.5328,603.8118,355.0774,598.2672,356.1987,607.978,357.842" style="stroke: #A80036; stroke-width: 1.0;"/><text fill="#000000" font-family="sans-serif" font-size="13" lengthAdjust="spacingAndGlyphs" textLength="121" x="504" y="233.0669">ContactPersonRole</text><text fill="#000000" font-family="sans-serif" font-size="13" lengthAdjust="spacingAndGlyphs" textLength="8" x="591.0642" y="346.8359">1</text><!--link Role to CounterpartyRisk--><path d="M226.487,65.59 C342.132,69.085 538.443,80.261 600,116 C631.037,134.019 645.821,218.936 646,220 C648.586,235.376 643.874,252.681 639.233,264.921 " fill="none" id="Role-CounterpartyRisk" style="stroke: #A80036; stroke-width: 1.0;"/><polygon fill="#A80036" points="637.27,269.837,644.322,262.9618,639.124,265.1934,636.8923,259.9954,637.27,269.837" style="stroke: #A80036; stroke-width: 1.0;"/><text fill="#000000" font-family="sans-serif" font-size="13" lengthAdjust="spacingAndGlyphs" textLength="109" x="640" y="182.0669">CounterpartyRisk</text><text fill="#000000" font-family="sans-serif" font-size="13" lengthAdjust="spacingAndGlyphs" textLength="24" x="609.5269" y="258.8292">0..1</text><!--link Role to Entry--><path d="M226.466,67.618 C327.094,73.126 485.02,86.304 536,116 C553.917,126.437 567.105,146.874 574.659,161.206 " fill="none" id="Role-Entry" style="stroke: #A80036; stroke-width: 1.0;"/><polygon fill="#A80036" points="577.003,165.809,576.4841,155.9738,574.7344,161.3533,569.355,159.6035,577.003,165.809" style="stroke: #A80036; stroke-width: 1.0;"/><text fill="#000000" font-family="sans-serif" font-size="13" lengthAdjust="spacingAndGlyphs" textLength="33" x="557" y="129.0669">Entry</text><text fill="#000000" font-family="sans-serif" font-size="13" lengthAdjust="spacingAndGlyphs" textLength="8" x="564.6915" y="155.0492">1</text><!--link GuaranteePartyRole to Guarantee--><path d="M166.734,190.11 C198.398,208.887 262.407,246.846 296.836,267.263 " fill="none" id="GuaranteePartyRole-Guarantee" style="stroke: #A80036; stroke-width: 1.0;"/><polygon fill="#A80036" points="301.289,269.904,295.5889,261.8722,296.9886,267.3532,291.5076,268.7528,301.289,269.904" style="stroke: #A80036; stroke-width: 1.0;"/><text fill="#000000" font-family="sans-serif" font-size="13" lengthAdjust="spacingAndGlyphs" textLength="68" x="246" y="233.0669">Guarantee</text><text fill="#000000" font-family="sans-serif" font-size="13" lengthAdjust="spacingAndGlyphs" textLength="8" x="284.0524" y="258.9192">1</text></g></svg>