<?xml version="1.0" encoding="UTF-8" standalone="no"?><svg xmlns="http://www.w3.org/2000/svg" xmlns:xlink="http://www.w3.org/1999/xlink" contentScriptType="application/ecmascript" contentStyleType="text/css" height="498px" preserveAspectRatio="none" style="width:770px;height:498px;" version="1.1" viewBox="0 0 770 498" width="770px" zoomAndPan="magnify"><defs><filter height="300%" id="f64l534juij2p" width="300%" x="-1" y="-1"><feGaussianBlur result="blurOut" stdDeviation="2.0"/><feColorMatrix in="blurOut" result="blurOut2" type="matrix" values="0 0 0 0 0 0 0 0 0 0 0 0 0 0 0 0 0 0 .4 0"/><feOffset dx="4.0" dy="4.0" in="blurOut2" result="blurOut3"/><feBlend in="SourceGraphic" in2="blurOut3" mode="normal"/></filter></defs><g><!--cluster ##21951--><!--cluster ##21960--><!--cluster ##21969--><!--class Role--><a target="_top" xlink:actuate="onRequest" xlink:href="../Role.html" xlink:show="new" xlink:title="Role of a party in an activity." xlink:type="simple"><rect fill="#FEFEEE" filter="url(#f64l534juij2p)" height="44.7734" id="Role" style="stroke: #A80036; stroke-width: 1.5;" width="175" x="51.75" y="40.5"/><rect fill="#FEFEEE" height="23.9688" style="stroke: #A80036; stroke-width: 1.5;" width="175" x="51.75" y="40.5"/><text fill="#000000" font-family="sans-serif" font-size="12" lengthAdjust="spacingAndGlyphs" textLength="27" x="125.75" y="56.6387">Role</text><line style="stroke: #A80036; stroke-width: 1.5;" x1="52.75" x2="225.75" y1="64.4688" y2="64.4688"/><ellipse cx="62.75" cy="76.3711" fill="#84BE84" rx="3" ry="3" style="stroke: #038048; stroke-width: 1.0;"/><text fill="#000000" font-family="sans-serif" font-size="11" lengthAdjust="spacingAndGlyphs" textLength="53" x="71.75" y="78.6792">PartyRole</text><text fill="#000000" font-family="sans-serif" font-size="11" font-style="italic" lengthAdjust="spacingAndGlyphs" textLength="92" x="128.75" y="78.6792">(PartyRoleCode)</text></a><!--class GuaranteePartyRole--><a target="_top" xlink:actuate="onRequest" xlink:href="../GuaranteePartyRole.html" xlink:show="new" xlink:title="Role played by a party in the context of guarantees." xlink:type="simple"><rect fill="#FEFEEE" filter="url(#f64l534juij2p)" height="23.9688" id="GuaranteePartyRole" style="stroke: #A80036; stroke-width: 1.5;" width="132" x="77" y="166"/><rect fill="#FEFEEE" height="23.9688" style="stroke: #A80036; stroke-width: 1.5;" width="132" x="77" y="166"/><text fill="#000000" font-family="sans-serif" font-size="12" lengthAdjust="spacingAndGlyphs" textLength="126" x="80" y="182.1387">GuaranteePartyRole</text></a><!--class GuarantorRole--><a target="_top" xlink:actuate="onRequest" xlink:href="../GuarantorRole.html" xlink:show="new" xlink:title="Legal entity, other than the issuer, who gives a guarantee. The guarantor becomes liable in case of default." xlink:type="simple"><rect fill="#FEFECE" filter="url(#f64l534juij2p)" height="44.7734" id="GuarantorRole" style="stroke: #A80036; stroke-width: 1.5;" width="167" x="59.75" y="268.5"/><rect fill="#FEFECE" height="23.9688" style="stroke: #A80036; stroke-width: 1.5;" width="167" x="59.75" y="268.5"/><text fill="#000000" font-family="sans-serif" font-size="12" lengthAdjust="spacingAndGlyphs" textLength="91" x="97.75" y="284.6387">GuarantorRole</text><line style="stroke: #A80036; stroke-width: 1.5;" x1="60.75" x2="225.75" y1="292.4688" y2="292.4688"/><ellipse cx="70.75" cy="304.3711" fill="#84BE84" rx="3" ry="3" style="stroke: #038048; stroke-width: 1.0;"/><text fill="#000000" font-family="sans-serif" font-size="11" lengthAdjust="spacingAndGlyphs" textLength="45" x="79.75" y="306.6792">Position</text><text fill="#000000" font-family="sans-serif" font-size="11" font-style="italic" lengthAdjust="spacingAndGlyphs" textLength="92" x="128.75" y="306.6792">(positiveInteger)</text></a><!--class RolePlayer--><a target="_top" xlink:actuate="onRequest" xlink:href="../RolePlayer.html" xlink:show="new" xlink:title="Type of entity that plays a specific role in a specific context." xlink:type="simple"><rect fill="#EEEEEE" filter="url(#f64l534juij2p)" height="23.9688" id="RolePlayer" style="stroke: #A80036; stroke-width: 1.5;" width="71" x="570.75" y="464"/><rect fill="#EEEEEE" height="23.9688" style="stroke: #A80036; stroke-width: 1.5;" width="71" x="570.75" y="464"/><text fill="#000000" font-family="sans-serif" font-size="12" lengthAdjust="spacingAndGlyphs" textLength="65" x="573.75" y="480.1387">RolePlayer</text></a><!--class ContactPersonRole--><a target="_top" xlink:actuate="onRequest" xlink:href="../ContactPersonRole.html" xlink:show="new" xlink:title="Person to be contacted in a given organisation. In the corporate action domain (including meeting notifications) , it is the contact person at the party organising the meeting, at the issuer or at an intermediary." xlink:type="simple"><rect fill="#EEEEEE" filter="url(#f64l534juij2p)" height="23.9688" id="ContactPersonRole" style="stroke: #A80036; stroke-width: 1.5;" width="126" x="563" y="378"/><rect fill="#EEEEEE" height="23.9688" style="stroke: #A80036; stroke-width: 1.5;" width="126" x="563" y="378"/><text fill="#000000" font-family="sans-serif" font-size="12" lengthAdjust="spacingAndGlyphs" textLength="120" x="566" y="394.1387">ContactPersonRole</text></a><!--class CounterpartyRisk--><a target="_top" xlink:actuate="onRequest" xlink:href="../CounterpartyRisk.html" xlink:show="new" xlink:title="Calculation of the exposure amount that one party has vis-a-vis one counterparty or a central system, based on its credit risk." xlink:type="simple"><rect fill="#EEEEEE" filter="url(#f64l534juij2p)" height="23.9688" id="CounterpartyRisk" style="stroke: #A80036; stroke-width: 1.5;" width="113" x="575.75" y="279"/><rect fill="#EEEEEE" height="23.9688" style="stroke: #A80036; stroke-width: 1.5;" width="113" x="575.75" y="279"/><text fill="#000000" font-family="sans-serif" font-size="12" lengthAdjust="spacingAndGlyphs" textLength="107" x="578.75" y="295.1387">CounterpartyRisk</text></a><!--class Entry--><a target="_top" xlink:actuate="onRequest" xlink:href="../Entry.html" xlink:show="new" xlink:title="Posting to an account that results in an increase or decrease to a balance." xlink:type="simple"><rect fill="#EEEEEE" filter="url(#f64l534juij2p)" height="23.9688" id="Entry" style="stroke: #A80036; stroke-width: 1.5;" width="38" x="563" y="166"/><rect fill="#EEEEEE" height="23.9688" style="stroke: #A80036; stroke-width: 1.5;" width="38" x="563" y="166"/><text fill="#000000" font-family="sans-serif" font-size="12" lengthAdjust="spacingAndGlyphs" textLength="32" x="566" y="182.1387">Entry</text></a><!--class Guarantee--><a target="_top" xlink:actuate="onRequest" xlink:href="../Guarantee.html" xlink:show="new" xlink:title="Partial or full coverage of amounts by a party other than the debtor." xlink:type="simple"><rect fill="#EEEEEE" filter="url(#f64l534juij2p)" height="23.9688" id="Guarantee" style="stroke: #A80036; stroke-width: 1.5;" width="73" x="283.75" y="279"/><rect fill="#EEEEEE" height="23.9688" style="stroke: #A80036; stroke-width: 1.5;" width="73" x="283.75" y="279"/><text fill="#000000" font-family="sans-serif" font-size="12" lengthAdjust="spacingAndGlyphs" textLength="67" x="286.75" y="295.1387">Guarantee</text></a><!--entity ##21972--><!--link Role to GuaranteePartyRole--><path d="M140.471,105.559 C141.236,127.159 142.111,151.898 142.606,165.865 " fill="none" id="Role-GuaranteePartyRole" style="stroke: #A80036; stroke-width: 1.0;"/><polygon fill="none" points="133.474,105.756,139.762,85.52,147.465,105.26,133.474,105.756" style="stroke: #A80036; stroke-width: 1.0;"/><!--link GuaranteePartyRole to GuarantorRole--><path d="M143,210.307 C143,228.842 143,251.853 143,268.376 " fill="none" id="GuaranteePartyRole-GuarantorRole" style="stroke: #A80036; stroke-width: 1.0;"/><polygon fill="none" points="136,210.049,143,190.049,150,210.049,136,210.049" style="stroke: #A80036; stroke-width: 1.0;"/><!--link ContactPersonRole to RolePlayer--><!--link CounterpartyRisk to ContactPersonRole--><!--link Entry to CounterpartyRisk--><!--link Role to RolePlayer--><path d="M226.583,80.833 C311.314,99.695 427,133.427 427,177 C427,177 427,177 427,391 C427,451.8572 512.842,468.7099 565.634,473.3199 " fill="none" id="Role-RolePlayer" style="stroke: #A80036; stroke-width: 1.0;"/><polygon fill="#A80036" points="570.635,473.7288,561.9919,469.0068,565.6517,473.3202,561.3382,476.98,570.635,473.7288" style="stroke: #A80036; stroke-width: 1.0;"/><text fill="#000000" font-family="sans-serif" font-size="13" lengthAdjust="spacingAndGlyphs" textLength="39" x="428" y="295.0669">Player</text><text fill="#000000" font-family="sans-serif" font-size="13" lengthAdjust="spacingAndGlyphs" textLength="7" x="555.7402" y="467.9585">*</text><!--link Role to ContactPersonRole--><path d="M226.427,69.035 C306.903,75.318 418.811,88.748 453,116 C498.823,152.526 477.728,185.13 503,238 C524.875,283.764 524.742,299.702 558,338 C570.802,352.743 588.536,365.869 602.683,375.113 " fill="none" id="Role-ContactPersonRole" style="stroke: #A80036; stroke-width: 1.0;"/><polygon fill="#A80036" points="606.949,377.854,601.5403,369.6232,602.7427,375.1508,597.2152,376.3532,606.949,377.854" style="stroke: #A80036; stroke-width: 1.0;"/><text fill="#000000" font-family="sans-serif" font-size="13" lengthAdjust="spacingAndGlyphs" textLength="121" x="504" y="233.0669">ContactPersonRole</text><text fill="#000000" font-family="sans-serif" font-size="13" lengthAdjust="spacingAndGlyphs" textLength="8" x="589.6815" y="366.852">1</text><!--link Role to CounterpartyRisk--><path d="M226.487,65.59 C342.132,69.085 538.443,80.261 600,116 C650.115,145.096 653.598,180.552 646,238 C644.392,250.155 640.758,263.502 637.595,273.631 " fill="none" id="Role-CounterpartyRisk" style="stroke: #A80036; stroke-width: 1.0;"/><polygon fill="#A80036" points="635.997,278.611,642.5552,271.2632,637.5245,273.85,634.9376,268.8193,635.997,278.611" style="stroke: #A80036; stroke-width: 1.0;"/><text fill="#000000" font-family="sans-serif" font-size="13" lengthAdjust="spacingAndGlyphs" textLength="109" x="649" y="182.0669">CounterpartyRisk</text><text fill="#000000" font-family="sans-serif" font-size="13" lengthAdjust="spacingAndGlyphs" textLength="24" x="608.0476" y="268.0457">0..1</text><!--link Role to Entry--><path d="M226.466,67.618 C327.094,73.126 485.02,86.304 536,116 C553.917,126.437 567.105,146.874 574.659,161.206 " fill="none" id="Role-Entry" style="stroke: #A80036; stroke-width: 1.0;"/><polygon fill="#A80036" points="577.003,165.809,576.4841,155.9738,574.7344,161.3533,569.355,159.6035,577.003,165.809" style="stroke: #A80036; stroke-width: 1.0;"/><text fill="#000000" font-family="sans-serif" font-size="13" lengthAdjust="spacingAndGlyphs" textLength="33" x="557" y="129.0669">Entry</text><text fill="#000000" font-family="sans-serif" font-size="13" lengthAdjust="spacingAndGlyphs" textLength="8" x="564.6915" y="155.0492">1</text><!--link GuaranteePartyRole to Guarantee--><path d="M160.619,190.049 C193.088,210.411 262.293,253.811 297.87,276.122 " fill="none" id="GuaranteePartyRole-Guarantee" style="stroke: #A80036; stroke-width: 1.0;"/><polygon fill="#A80036" points="302.453,278.996,296.9546,270.8248,298.2174,276.3389,292.7033,277.6018,302.453,278.996" style="stroke: #A80036; stroke-width: 1.0;"/><text fill="#000000" font-family="sans-serif" font-size="13" lengthAdjust="spacingAndGlyphs" textLength="68" x="238" y="233.0669">Guarantee</text><text fill="#000000" font-family="sans-serif" font-size="13" lengthAdjust="spacingAndGlyphs" textLength="8" x="285.6165" y="268.0428">1</text></g></svg>