<?xml version="1.0" encoding="UTF-8" standalone="no"?><svg xmlns="http://www.w3.org/2000/svg" xmlns:xlink="http://www.w3.org/1999/xlink" contentScriptType="application/ecmascript" contentStyleType="text/css" height="480px" preserveAspectRatio="none" style="width:812px;height:480px;" version="1.1" viewBox="0 0 812 480" width="812px" zoomAndPan="magnify"><defs><filter height="300%" id="f1uzqnywafo7w1" width="300%" x="-1" y="-1"><feGaussianBlur result="blurOut" stdDeviation="2.0"/><feColorMatrix in="blurOut" result="blurOut2" type="matrix" values="0 0 0 0 0 0 0 0 0 0 0 0 0 0 0 0 0 0 .4 0"/><feOffset dx="4.0" dy="4.0" in="blurOut2" result="blurOut3"/><feBlend in="SourceGraphic" in2="blurOut3" mode="normal"/></filter></defs><g><!--cluster ##22026--><!--cluster ##22038--><!--cluster ##22047--><!--class Role--><a target="_top" xlink:actuate="onRequest" xlink:href="../Role.html" xlink:show="new" xlink:title="Role of a party in an activity." xlink:type="simple"><rect fill="#FEFEEE" filter="url(#f1uzqnywafo7w1)" height="44.7734" id="Role" style="stroke: #A80036; stroke-width: 1.5;" width="175" x="96.75" y="40.5"/><rect fill="#FEFEEE" height="23.9688" style="stroke: #A80036; stroke-width: 1.5;" width="175" x="96.75" y="40.5"/><text fill="#000000" font-family="sans-serif" font-size="12" lengthAdjust="spacingAndGlyphs" textLength="27" x="170.75" y="56.6387">Role</text><line style="stroke: #A80036; stroke-width: 1.5;" x1="97.75" x2="270.75" y1="64.4688" y2="64.4688"/><ellipse cx="107.75" cy="76.3711" fill="#84BE84" rx="3" ry="3" style="stroke: #038048; stroke-width: 1.0;"/><text fill="#000000" font-family="sans-serif" font-size="11" lengthAdjust="spacingAndGlyphs" textLength="53" x="116.75" y="78.6792">PartyRole</text><text fill="#000000" font-family="sans-serif" font-size="11" font-style="italic" lengthAdjust="spacingAndGlyphs" textLength="92" x="173.75" y="78.6792">(PartyRoleCode)</text></a><!--class SystemPartyRole--><a target="_top" xlink:actuate="onRequest" xlink:href="../SystemPartyRole.html" xlink:show="new" xlink:title="Role played by a party in a system." xlink:type="simple"><rect fill="#FEFEEE" filter="url(#f1uzqnywafo7w1)" height="23.9688" id="SystemPartyRole" style="stroke: #A80036; stroke-width: 1.5;" width="110" x="154" y="166"/><rect fill="#FEFEEE" height="23.9688" style="stroke: #A80036; stroke-width: 1.5;" width="110" x="154" y="166"/><text fill="#000000" font-family="sans-serif" font-size="12" lengthAdjust="spacingAndGlyphs" textLength="104" x="157" y="182.1387">SystemPartyRole</text></a><!--class ThirdPartyRole--><a target="_top" xlink:actuate="onRequest" xlink:href="../ThirdPartyRole.html" xlink:show="new" xlink:title="Party that can use the facilities of a system through one of its members." xlink:type="simple"><rect fill="#FEFEEE" filter="url(#f1uzqnywafo7w1)" height="23.9688" id="ThirdPartyRole" style="stroke: #A80036; stroke-width: 1.5;" width="96" x="161" y="270"/><rect fill="#FEFEEE" height="23.9688" style="stroke: #A80036; stroke-width: 1.5;" width="96" x="161" y="270"/><text fill="#000000" font-family="sans-serif" font-size="12" lengthAdjust="spacingAndGlyphs" textLength="90" x="164" y="286.1387">ThirdPartyRole</text></a><!--class IndirectMember--><a target="_top" xlink:actuate="onRequest" xlink:href="../IndirectMember.html" xlink:show="new" xlink:title="Financial institution or member of a system having limited rights to the system specifications." xlink:type="simple"><rect fill="#FEFECE" filter="url(#f1uzqnywafo7w1)" height="23.9688" id="IndirectMember" style="stroke: #A80036; stroke-width: 1.5;" width="103" x="157.75" y="358"/><rect fill="#FEFECE" height="23.9688" style="stroke: #A80036; stroke-width: 1.5;" width="103" x="157.75" y="358"/><text fill="#000000" font-family="sans-serif" font-size="12" lengthAdjust="spacingAndGlyphs" textLength="97" x="160.75" y="374.1387">IndirectMember</text></a><!--class RolePlayer--><a target="_top" xlink:actuate="onRequest" xlink:href="../RolePlayer.html" xlink:show="new" xlink:title="Type of entity that plays a specific role in a specific context." xlink:type="simple"><rect fill="#EEEEEE" filter="url(#f1uzqnywafo7w1)" height="23.9688" id="RolePlayer" style="stroke: #A80036; stroke-width: 1.5;" width="71" x="528.75" y="446"/><rect fill="#EEEEEE" height="23.9688" style="stroke: #A80036; stroke-width: 1.5;" width="71" x="528.75" y="446"/><text fill="#000000" font-family="sans-serif" font-size="12" lengthAdjust="spacingAndGlyphs" textLength="65" x="531.75" y="462.1387">RolePlayer</text></a><!--class ContactPersonRole--><a target="_top" xlink:actuate="onRequest" xlink:href="../ContactPersonRole.html" xlink:show="new" xlink:title="Person to be contacted in a given organisation. In the corporate action domain (including meeting notifications) , it is the contact person at the party organising the meeting, at the issuer or at an intermediary." xlink:type="simple"><rect fill="#EEEEEE" filter="url(#f1uzqnywafo7w1)" height="23.9688" id="ContactPersonRole" style="stroke: #A80036; stroke-width: 1.5;" width="126" x="521" y="358"/><rect fill="#EEEEEE" height="23.9688" style="stroke: #A80036; stroke-width: 1.5;" width="126" x="521" y="358"/><text fill="#000000" font-family="sans-serif" font-size="12" lengthAdjust="spacingAndGlyphs" textLength="120" x="524" y="374.1387">ContactPersonRole</text></a><!--class CounterpartyRisk--><a target="_top" xlink:actuate="onRequest" xlink:href="../CounterpartyRisk.html" xlink:show="new" xlink:title="Calculation of the exposure amount that one party has vis-a-vis one counterparty or a central system, based on its credit risk." xlink:type="simple"><rect fill="#EEEEEE" filter="url(#f1uzqnywafo7w1)" height="23.9688" id="CounterpartyRisk" style="stroke: #A80036; stroke-width: 1.5;" width="113" x="527.75" y="270"/><rect fill="#EEEEEE" height="23.9688" style="stroke: #A80036; stroke-width: 1.5;" width="113" x="527.75" y="270"/><text fill="#000000" font-family="sans-serif" font-size="12" lengthAdjust="spacingAndGlyphs" textLength="107" x="530.75" y="286.1387">CounterpartyRisk</text></a><!--class Entry--><a target="_top" xlink:actuate="onRequest" xlink:href="../Entry.html" xlink:show="new" xlink:title="Posting to an account that results in an increase or decrease to a balance." xlink:type="simple"><rect fill="#EEEEEE" filter="url(#f1uzqnywafo7w1)" height="23.9688" id="Entry" style="stroke: #A80036; stroke-width: 1.5;" width="38" x="603" y="166"/><rect fill="#EEEEEE" height="23.9688" style="stroke: #A80036; stroke-width: 1.5;" width="38" x="603" y="166"/><text fill="#000000" font-family="sans-serif" font-size="12" lengthAdjust="spacingAndGlyphs" textLength="32" x="606" y="182.1387">Entry</text></a><!--class System--><a target="_top" xlink:actuate="onRequest" xlink:href="../System.html" xlink:show="new" xlink:title="Set of integrated applications that provides centralised services such as clearing, netting, reconciliation, trading and/or settlement." xlink:type="simple"><rect fill="#EEEEEE" filter="url(#f1uzqnywafo7w1)" height="23.9688" id="System" style="stroke: #A80036; stroke-width: 1.5;" width="51" x="328.75" y="270"/><rect fill="#EEEEEE" height="23.9688" style="stroke: #A80036; stroke-width: 1.5;" width="51" x="328.75" y="270"/><text fill="#000000" font-family="sans-serif" font-size="12" lengthAdjust="spacingAndGlyphs" textLength="45" x="331.75" y="286.1387">System</text></a><!--entity ##22050--><!--entity ##22052--><!--link Role to SystemPartyRole--><path d="M193.12,105.222 C197.916,126.901 203.43,151.825 206.536,165.865 " fill="none" id="Role-SystemPartyRole" style="stroke: #A80036; stroke-width: 1.0;"/><polygon fill="none" points="186.247,106.56,188.761,85.52,199.916,103.536,186.247,106.56" style="stroke: #A80036; stroke-width: 1.0;"/><!--link SystemPartyRole to ThirdPartyRole--><path d="M209,210.595 C209,230.825 209,255.843 209,269.954 " fill="none" id="SystemPartyRole-ThirdPartyRole" style="stroke: #A80036; stroke-width: 1.0;"/><polygon fill="none" points="202,210.306,209,190.306,216,210.305,202,210.306" style="stroke: #A80036; stroke-width: 1.0;"/><!--link ThirdPartyRole to IndirectMember--><path d="M209,314.282 C209,329.459 209,346.744 209,357.754 " fill="none" id="ThirdPartyRole-IndirectMember" style="stroke: #A80036; stroke-width: 1.0;"/><polygon fill="none" points="202,314.243,209,294.243,216,314.243,202,314.243" style="stroke: #A80036; stroke-width: 1.0;"/><!--link ContactPersonRole to RolePlayer--><!--link CounterpartyRisk to ContactPersonRole--><!--link Entry to CounterpartyRisk--><!--link Role to RolePlayer--><path d="M218.918,85.725 C261.496,113.353 334.069,164.218 385,220 C451.171,292.473 439.457,332.073 504,406 C516.117,419.8789 532.104,433.2788 544.529,442.8578 " fill="none" id="Role-RolePlayer" style="stroke: #A80036; stroke-width: 1.0;"/><polygon fill="#A80036" points="548.595,445.955,543.8596,437.3193,544.6176,442.9251,539.0117,443.6831,548.595,445.955" style="stroke: #A80036; stroke-width: 1.0;"/><text fill="#000000" font-family="sans-serif" font-size="13" lengthAdjust="spacingAndGlyphs" textLength="39" x="449" y="286.0669">Player</text><text fill="#000000" font-family="sans-serif" font-size="13" lengthAdjust="spacingAndGlyphs" textLength="7" x="533.6667" y="434.9877">*</text><!--link Role to ContactPersonRole--><path d="M271.263,63.841 C396.735,65.854 617.631,78.562 659,142 C673.61,164.404 695.46,247.359 658,318 C649.123,334.74 632.016,347.074 616.485,355.416 " fill="none" id="Role-ContactPersonRole" style="stroke: #A80036; stroke-width: 1.0;"/><polygon fill="#A80036" points="611.727,357.877,621.5587,357.2953,616.1681,355.58,617.8835,350.1895,611.727,357.877" style="stroke: #A80036; stroke-width: 1.0;"/><text fill="#000000" font-family="sans-serif" font-size="13" lengthAdjust="spacingAndGlyphs" textLength="121" x="679" y="233.0669">ContactPersonRole</text><text fill="#000000" font-family="sans-serif" font-size="13" lengthAdjust="spacingAndGlyphs" textLength="8" x="610.5394" y="346.8829">1</text><!--link Role to CounterpartyRisk--><path d="M271.372,75.488 C310.548,83.141 356.314,95.675 394,116 C436.63,138.991 437.549,158.107 474,190 C505.784,217.809 543.99,248.914 565.988,266.607 " fill="none" id="Role-CounterpartyRisk" style="stroke: #A80036; stroke-width: 1.0;"/><polygon fill="#A80036" points="569.901,269.751,565.3891,260.9964,566.0028,266.6199,560.3793,267.2335,569.901,269.751" style="stroke: #A80036; stroke-width: 1.0;"/><text fill="#000000" font-family="sans-serif" font-size="13" lengthAdjust="spacingAndGlyphs" textLength="109" x="475" y="182.0669">CounterpartyRisk</text><text fill="#000000" font-family="sans-serif" font-size="13" lengthAdjust="spacingAndGlyphs" textLength="24" x="535.8416" y="258.972">0..1</text><!--link Role to Entry--><path d="M271.525,68.335 C353.865,75.363 478.7,93.776 576,142 C586.818,147.361 597.627,155.414 606.047,162.444 " fill="none" id="Role-Entry" style="stroke: #A80036; stroke-width: 1.0;"/><polygon fill="#A80036" points="609.979,165.797,605.7265,156.9135,606.1746,162.5526,600.5355,163.0006,609.979,165.797" style="stroke: #A80036; stroke-width: 1.0;"/><text fill="#000000" font-family="sans-serif" font-size="13" lengthAdjust="spacingAndGlyphs" textLength="33" x="557" y="129.0669">Entry</text><text fill="#000000" font-family="sans-serif" font-size="13" lengthAdjust="spacingAndGlyphs" textLength="8" x="595.3408" y="155.0332">1</text><!--link SystemPartyRole to System--><path d="M221.283,190.056 C235.259,202.396 259.002,222.645 281,238 C296.279,248.665 314.312,259.305 328.632,267.332 " fill="none" id="SystemPartyRole-System" style="stroke: #A80036; stroke-width: 1.0;"/><polygon fill="#A80036" points="333.337,269.951,327.4183,262.079,328.9681,267.5194,323.5277,269.0692,333.337,269.951" style="stroke: #A80036; stroke-width: 1.0;"/><text fill="#000000" font-family="sans-serif" font-size="13" lengthAdjust="spacingAndGlyphs" textLength="97" x="282" y="233.0669">RelatedSystem</text><text fill="#000000" font-family="sans-serif" font-size="13" lengthAdjust="spacingAndGlyphs" textLength="23" x="297.8513" y="258.9824">1..*</text></g></svg>