<?xml version="1.0" encoding="UTF-8" standalone="no"?><svg xmlns="http://www.w3.org/2000/svg" xmlns:xlink="http://www.w3.org/1999/xlink" contentScriptType="application/ecmascript" contentStyleType="text/css" height="621px" preserveAspectRatio="none" style="width:2543px;height:621px;" version="1.1" viewBox="0 0 2543 621" width="2543px" zoomAndPan="magnify"><defs><filter height="300%" id="f5foe5e1bo7p6" width="300%" x="-1" y="-1"><feGaussianBlur result="blurOut" stdDeviation="2.0"/><feColorMatrix in="blurOut" result="blurOut2" type="matrix" values="0 0 0 0 0 0 0 0 0 0 0 0 0 0 0 0 0 0 .4 0"/><feOffset dx="4.0" dy="4.0" in="blurOut2" result="blurOut3"/><feBlend in="SourceGraphic" in2="blurOut3" mode="normal"/></filter></defs><g><!--cluster ##249--><!--cluster ##273--><!--cluster ##282--><!--class Role--><a target="_top" xlink:actuate="onRequest" xlink:href="../Role.html" xlink:show="new" xlink:title="Role of a party in an activity." xlink:type="simple"><rect fill="#FEFEEE" filter="url(#f5foe5e1bo7p6)" height="44.7734" id="Role" style="stroke: #A80036; stroke-width: 1.5;" width="175" x="955.75" y="40.5"/><rect fill="#FEFEEE" height="23.9688" style="stroke: #A80036; stroke-width: 1.5;" width="175" x="955.75" y="40.5"/><text fill="#000000" font-family="sans-serif" font-size="12" lengthAdjust="spacingAndGlyphs" textLength="27" x="1029.75" y="56.6387">Role</text><line style="stroke: #A80036; stroke-width: 1.5;" x1="956.75" x2="1129.75" y1="64.4688" y2="64.4688"/><ellipse cx="966.75" cy="76.3711" fill="#84BE84" rx="3" ry="3" style="stroke: #038048; stroke-width: 1.0;"/><text fill="#000000" font-family="sans-serif" font-size="11" lengthAdjust="spacingAndGlyphs" textLength="53" x="975.75" y="78.6792">PartyRole</text><text fill="#000000" font-family="sans-serif" font-size="11" font-style="italic" lengthAdjust="spacingAndGlyphs" textLength="92" x="1032.75" y="78.6792">(PartyRoleCode)</text></a><!--class InformationPartyRole--><a target="_top" xlink:actuate="onRequest" xlink:href="../InformationPartyRole.html" xlink:show="new" xlink:title="Role played by a party as source of information." xlink:type="simple"><rect fill="#FEFECE" filter="url(#f5foe5e1bo7p6)" height="23.9688" id="InformationPartyRole" style="stroke: #A80036; stroke-width: 1.5;" width="136" x="688" y="166"/><rect fill="#FEFECE" height="23.9688" style="stroke: #A80036; stroke-width: 1.5;" width="136" x="688" y="166"/><text fill="#000000" font-family="sans-serif" font-size="12" lengthAdjust="spacingAndGlyphs" textLength="130" x="691" y="182.1387">InformationPartyRole</text></a><!--class IdentificationIssuerRole--><a target="_top" xlink:actuate="onRequest" xlink:href="../IdentificationIssuerRole.html" xlink:show="new" xlink:title="Entity that assigns the identification." xlink:type="simple"><rect fill="#FEFEEE" filter="url(#f5foe5e1bo7p6)" height="23.9688" id="IdentificationIssuerRole" style="stroke: #A80036; stroke-width: 1.5;" width="152" x="850" y="270"/><rect fill="#FEFEEE" height="23.9688" style="stroke: #A80036; stroke-width: 1.5;" width="152" x="850" y="270"/><text fill="#000000" font-family="sans-serif" font-size="12" lengthAdjust="spacingAndGlyphs" textLength="146" x="853" y="286.1387">IdentificationIssuerRole</text></a><!--class SourceOfPrice--><a target="_top" xlink:actuate="onRequest" xlink:href="../SourceOfPrice.html" xlink:show="new" xlink:title="Place from which the price was obtained." xlink:type="simple"><rect fill="#FEFEEE" filter="url(#f5foe5e1bo7p6)" height="23.9688" id="SourceOfPrice" style="stroke: #A80036; stroke-width: 1.5;" width="94" x="1037" y="270"/><rect fill="#FEFEEE" height="23.9688" style="stroke: #A80036; stroke-width: 1.5;" width="94" x="1037" y="270"/><text fill="#000000" font-family="sans-serif" font-size="12" lengthAdjust="spacingAndGlyphs" textLength="88" x="1040" y="286.1387">SourceOfPrice</text></a><!--class SchemeOwner--><a target="_top" xlink:actuate="onRequest" xlink:href="../SchemeOwner.html" xlink:show="new" xlink:title="Description of the owner of a code scheme, for example, International Standards Organization." xlink:type="simple"><rect fill="#FEFEEE" filter="url(#f5foe5e1bo7p6)" height="23.9688" id="SchemeOwner" style="stroke: #A80036; stroke-width: 1.5;" width="95" x="280.75" y="270"/><rect fill="#FEFEEE" height="23.9688" style="stroke: #A80036; stroke-width: 1.5;" width="95" x="280.75" y="270"/><text fill="#000000" font-family="sans-serif" font-size="12" lengthAdjust="spacingAndGlyphs" textLength="89" x="283.75" y="286.1387">SchemeOwner</text></a><!--class QuoteOriginator--><a target="_top" xlink:actuate="onRequest" xlink:href="../QuoteOriginator.html" xlink:show="new" xlink:title="Originator of the quote." xlink:type="simple"><rect fill="#FEFEEE" filter="url(#f5foe5e1bo7p6)" height="23.9688" id="QuoteOriginator" style="stroke: #A80036; stroke-width: 1.5;" width="106" x="411.5" y="270"/><rect fill="#FEFEEE" height="23.9688" style="stroke: #A80036; stroke-width: 1.5;" width="106" x="411.5" y="270"/><text fill="#000000" font-family="sans-serif" font-size="12" lengthAdjust="spacingAndGlyphs" textLength="100" x="414.5" y="286.1387">QuoteOriginator</text></a><!--class QuoteRequestor--><a target="_top" xlink:actuate="onRequest" xlink:href="../QuoteRequestor.html" xlink:show="new" xlink:title="Requestor of the quote" xlink:type="simple"><rect fill="#FEFEEE" filter="url(#f5foe5e1bo7p6)" height="23.9688" id="QuoteRequestor" style="stroke: #A80036; stroke-width: 1.5;" width="109" x="552.75" y="270"/><rect fill="#FEFEEE" height="23.9688" style="stroke: #A80036; stroke-width: 1.5;" width="109" x="552.75" y="270"/><text fill="#000000" font-family="sans-serif" font-size="12" lengthAdjust="spacingAndGlyphs" textLength="103" x="555.75" y="286.1387">QuoteRequestor</text></a><!--class QuotingInstitution--><a target="_top" xlink:actuate="onRequest" xlink:href="../QuotingInstitution.html" xlink:show="new" xlink:title="Source of the quote, party that proposes a rate." xlink:type="simple"><rect fill="#FEFEEE" filter="url(#f5foe5e1bo7p6)" height="23.9688" id="QuotingInstitution" style="stroke: #A80036; stroke-width: 1.5;" width="118" x="697" y="270"/><rect fill="#FEFEEE" height="23.9688" style="stroke: #A80036; stroke-width: 1.5;" width="118" x="697" y="270"/><text fill="#000000" font-family="sans-serif" font-size="12" lengthAdjust="spacingAndGlyphs" textLength="112" x="700" y="286.1387">QuotingInstitution</text></a><!--class RolePlayer--><a target="_top" xlink:actuate="onRequest" xlink:href="../RolePlayer.html" xlink:show="new" xlink:title="Type of entity that plays a specific role in a specific context." xlink:type="simple"><rect fill="#EEEEEE" filter="url(#f5foe5e1bo7p6)" height="23.9688" id="RolePlayer" style="stroke: #A80036; stroke-width: 1.5;" width="71" x="2224.75" y="460"/><rect fill="#EEEEEE" height="23.9688" style="stroke: #A80036; stroke-width: 1.5;" width="71" x="2224.75" y="460"/><text fill="#000000" font-family="sans-serif" font-size="12" lengthAdjust="spacingAndGlyphs" textLength="65" x="2227.75" y="476.1387">RolePlayer</text></a><!--class ContactPersonRole--><a target="_top" xlink:actuate="onRequest" xlink:href="../ContactPersonRole.html" xlink:show="new" xlink:title="Person to be contacted in a given organisation. In the corporate action domain (including meeting notifications) , it is the contact person at the party organising the meeting, at the issuer or at an intermediary." xlink:type="simple"><rect fill="#EEEEEE" filter="url(#f5foe5e1bo7p6)" height="23.9688" id="ContactPersonRole" style="stroke: #A80036; stroke-width: 1.5;" width="126" x="2177" y="374"/><rect fill="#EEEEEE" height="23.9688" style="stroke: #A80036; stroke-width: 1.5;" width="126" x="2177" y="374"/><text fill="#000000" font-family="sans-serif" font-size="12" lengthAdjust="spacingAndGlyphs" textLength="120" x="2180" y="390.1387">ContactPersonRole</text></a><!--class CounterpartyRisk--><a target="_top" xlink:actuate="onRequest" xlink:href="../CounterpartyRisk.html" xlink:show="new" xlink:title="Calculation of the exposure amount that one party has vis-a-vis one counterparty or a central system, based on its credit risk." xlink:type="simple"><rect fill="#EEEEEE" filter="url(#f5foe5e1bo7p6)" height="23.9688" id="CounterpartyRisk" style="stroke: #A80036; stroke-width: 1.5;" width="113" x="2177.75" y="270"/><rect fill="#EEEEEE" height="23.9688" style="stroke: #A80036; stroke-width: 1.5;" width="113" x="2177.75" y="270"/><text fill="#000000" font-family="sans-serif" font-size="12" lengthAdjust="spacingAndGlyphs" textLength="107" x="2180.75" y="286.1387">CounterpartyRisk</text></a><!--class Entry--><a target="_top" xlink:actuate="onRequest" xlink:href="../Entry.html" xlink:show="new" xlink:title="Posting to an account that results in an increase or decrease to a balance." xlink:type="simple"><rect fill="#EEEEEE" filter="url(#f5foe5e1bo7p6)" height="23.9688" id="Entry" style="stroke: #A80036; stroke-width: 1.5;" width="38" x="2221" y="166"/><rect fill="#EEEEEE" height="23.9688" style="stroke: #A80036; stroke-width: 1.5;" width="38" x="2221" y="166"/><text fill="#000000" font-family="sans-serif" font-size="12" lengthAdjust="spacingAndGlyphs" textLength="32" x="2224" y="182.1387">Entry</text></a><!--class GenericIdentification--><a target="_top" xlink:actuate="onRequest" xlink:href="../GenericIdentification.html" xlink:show="new" xlink:title="Information related to a non-standardised identification, such as a proprietary party identification or account identification." xlink:type="simple"><rect fill="#EEEEEE" filter="url(#f5foe5e1bo7p6)" height="23.9688" id="GenericIdentification" style="stroke: #A80036; stroke-width: 1.5;" width="135" x="1251.75" y="270"/><rect fill="#EEEEEE" height="23.9688" style="stroke: #A80036; stroke-width: 1.5;" width="135" x="1251.75" y="270"/><text fill="#000000" font-family="sans-serif" font-size="12" lengthAdjust="spacingAndGlyphs" textLength="129" x="1254.75" y="286.1387">GenericIdentification</text></a><!--class HaircutValuation--><a target="_top" xlink:actuate="onRequest" xlink:href="../HaircutValuation.html" xlink:show="new" xlink:title="Basic valuation details of an asset's market value." xlink:type="simple"><rect fill="#EEEEEE" filter="url(#f5foe5e1bo7p6)" height="23.9688" id="HaircutValuation" style="stroke: #A80036; stroke-width: 1.5;" width="110" x="1956" y="564"/><rect fill="#EEEEEE" height="23.9688" style="stroke: #A80036; stroke-width: 1.5;" width="110" x="1956" y="564"/><text fill="#000000" font-family="sans-serif" font-size="12" lengthAdjust="spacingAndGlyphs" textLength="104" x="1959" y="580.1387">HaircutValuation</text></a><!--class SecuritiesPricing--><a target="_top" xlink:actuate="onRequest" xlink:href="../SecuritiesPricing.html" xlink:show="new" xlink:title="Characteristics related to the price of the security." xlink:type="simple"><rect fill="#EEEEEE" filter="url(#f5foe5e1bo7p6)" height="23.9688" id="SecuritiesPricing" style="stroke: #A80036; stroke-width: 1.5;" width="110" x="1671" y="460"/><rect fill="#EEEEEE" height="23.9688" style="stroke: #A80036; stroke-width: 1.5;" width="110" x="1671" y="460"/><text fill="#000000" font-family="sans-serif" font-size="12" lengthAdjust="spacingAndGlyphs" textLength="104" x="1674" y="476.1387">SecuritiesPricing</text></a><!--class Scheme--><a target="_top" xlink:actuate="onRequest" xlink:href="../Scheme.html" xlink:show="new" xlink:title="Information regarding an enumerated code list and its owner." xlink:type="simple"><rect fill="#EEEEEE" filter="url(#f5foe5e1bo7p6)" height="23.9688" id="Scheme" style="stroke: #A80036; stroke-width: 1.5;" width="56" x="1291.5" y="374"/><rect fill="#EEEEEE" height="23.9688" style="stroke: #A80036; stroke-width: 1.5;" width="56" x="1291.5" y="374"/><text fill="#000000" font-family="sans-serif" font-size="12" lengthAdjust="spacingAndGlyphs" textLength="50" x="1294.5" y="390.1387">Scheme</text></a><!--class Quote--><a target="_top" xlink:actuate="onRequest" xlink:href="../Quote.html" xlink:show="new" xlink:title="Indicates whether the quote details are indicated as an offer, a bid or a mid of a security, commodity, currency (the latter being an average of the offer and the bid)." xlink:type="simple"><rect fill="#EEEEEE" filter="url(#f5foe5e1bo7p6)" height="23.9688" id="Quote" style="stroke: #A80036; stroke-width: 1.5;" width="44" x="1214.5" y="564"/><rect fill="#EEEEEE" height="23.9688" style="stroke: #A80036; stroke-width: 1.5;" width="44" x="1214.5" y="564"/><text fill="#000000" font-family="sans-serif" font-size="12" lengthAdjust="spacingAndGlyphs" textLength="38" x="1217.5" y="580.1387">Quote</text></a><!--class TreasuryTrade--><a target="_top" xlink:actuate="onRequest" xlink:href="../TreasuryTrade.html" xlink:show="new" xlink:title="Specifies trades linked to treasury operations such as the exchange of currencies, the lending of cash amounts and the related derivatives trades (options and non deliverable trades)." xlink:type="simple"><rect fill="#EEEEEE" filter="url(#f5foe5e1bo7p6)" height="23.9688" id="TreasuryTrade" style="stroke: #A80036; stroke-width: 1.5;" width="96" x="1187" y="460"/><rect fill="#EEEEEE" height="23.9688" style="stroke: #A80036; stroke-width: 1.5;" width="96" x="1187" y="460"/><text fill="#000000" font-family="sans-serif" font-size="12" lengthAdjust="spacingAndGlyphs" textLength="90" x="1190" y="476.1387">TreasuryTrade</text></a><!--link Role to InformationPartyRole--><path d="M969.595,92.902 C909.242,116.664 826.96,149.061 784.281,165.865 " fill="none" id="Role-InformationPartyRole" style="stroke: #A80036; stroke-width: 1.0;"/><polygon fill="none" points="967.168,86.334,988.342,85.52,972.297,99.361,967.168,86.334" style="stroke: #A80036; stroke-width: 1.0;"/><!--link InformationPartyRole to IdentificationIssuerRole--><path d="M792.135,200.681 C827.491,221.895 879.928,253.357 907.506,269.904 " fill="none" id="InformationPartyRole-IdentificationIssuerRole" style="stroke: #A80036; stroke-width: 1.0;"/><polygon fill="none" points="788.065,206.402,774.517,190.11,795.268,194.397,788.065,206.402" style="stroke: #A80036; stroke-width: 1.0;"/><!--link InformationPartyRole to SourceOfPrice--><path d="M836.311,194.124 C889.226,205.377 959.475,222.796 1019,246 C1035.72,252.517 1053.59,262.373 1066.35,269.968 " fill="none" id="InformationPartyRole-SourceOfPrice" style="stroke: #A80036; stroke-width: 1.0;"/><polygon fill="none" points="834.747,200.948,816.58,190.041,837.583,187.239,834.747,200.948" style="stroke: #A80036; stroke-width: 1.0;"/><!--link InformationPartyRole to SchemeOwner--><path d="M667.675,187.518 C592.918,196.551 483.763,214.074 393,246 C375.831,252.039 357.71,262.147 344.975,269.952 " fill="none" id="InformationPartyRole-SchemeOwner" style="stroke: #A80036; stroke-width: 1.0;"/><polygon fill="none" points="667.133,180.534,687.804,185.19,668.741,194.441,667.133,180.534" style="stroke: #A80036; stroke-width: 1.0;"/><!--link InformationPartyRole to QuoteOriginator--><path d="M692.48,195.284 C647.796,207.455 586.945,225.482 535,246 C517.361,252.967 498.107,262.593 484.105,269.987 " fill="none" id="InformationPartyRole-QuoteOriginator" style="stroke: #A80036; stroke-width: 1.0;"/><polygon fill="none" points="690.958,188.445,712.088,190.035,694.578,201.969,690.958,188.445" style="stroke: #A80036; stroke-width: 1.0;"/><!--link InformationPartyRole to QuoteRequestor--><path d="M723.029,201.571 C692.068,222.766 647.045,253.587 623.209,269.904 " fill="none" id="InformationPartyRole-QuoteRequestor" style="stroke: #A80036; stroke-width: 1.0;"/><polygon fill="none" points="719.313,195.631,739.771,190.11,727.221,207.184,719.313,195.631" style="stroke: #A80036; stroke-width: 1.0;"/><!--link InformationPartyRole to QuotingInstitution--><path d="M756,210.595 C756,230.825 756,255.843 756,269.954 " fill="none" id="InformationPartyRole-QuotingInstitution" style="stroke: #A80036; stroke-width: 1.0;"/><polygon fill="none" points="749,210.306,756,190.306,763,210.305,749,210.306" style="stroke: #A80036; stroke-width: 1.0;"/><!--link ContactPersonRole to RolePlayer--><!--link CounterpartyRisk to ContactPersonRole--><!--link Entry to CounterpartyRisk--><!--link HaircutValuation to GenericIdentification--><!--link SecuritiesPricing to HaircutValuation--><!--link Scheme to SecuritiesPricing--><!--link Quote to Scheme--><!--link TreasuryTrade to Quote--><!--link Role to RolePlayer--><path d="M1130.57,65.115 C1373.26,68.618 2051,81.308 2271,116 C2371.23,131.805 2491,75.533 2491,177 C2491,177 2491,177 2491,387 C2491,427.082 2366.61,453.571 2300.39,464.833 " fill="none" id="Role-RolePlayer" style="stroke: #A80036; stroke-width: 1.0;"/><polygon fill="#A80036" points="2295.34,465.682,2304.8784,468.1354,2300.2709,464.8535,2303.5528,460.246,2295.34,465.682" style="stroke: #A80036; stroke-width: 1.0;"/><text fill="#000000" font-family="sans-serif" font-size="13" lengthAdjust="spacingAndGlyphs" textLength="39" x="2492" y="286.0669">Player</text><text fill="#000000" font-family="sans-serif" font-size="13" lengthAdjust="spacingAndGlyphs" textLength="7" x="2303.7816" y="458.5254">*</text><!--link Role to ContactPersonRole--><path d="M1130.68,63.476 C1367.06,62.763 2013.59,65.618 2220,116 C2246.66,122.507 2258.05,121.242 2276,142 C2327.95,202.083 2337.4,244.62 2307,318 C2297.85,340.088 2277.5,358.691 2261.61,370.647 " fill="none" id="Role-ContactPersonRole" style="stroke: #A80036; stroke-width: 1.0;"/><polygon fill="#A80036" points="2257.26,373.84,2266.8828,371.7422,2261.2917,370.8827,2262.1511,365.2915,2257.26,373.84" style="stroke: #A80036; stroke-width: 1.0;"/><text fill="#000000" font-family="sans-serif" font-size="13" lengthAdjust="spacingAndGlyphs" textLength="121" x="2325" y="233.0669">ContactPersonRole</text><text fill="#000000" font-family="sans-serif" font-size="13" lengthAdjust="spacingAndGlyphs" textLength="8" x="2252.4744" y="362.8332">1</text><!--link Role to CounterpartyRisk--><path d="M1130.35,72.448 C1306.5,90.588 1716.13,138.377 2052,220 C2105.3,232.954 2165.31,254.47 2201.36,268.181 " fill="none" id="Role-CounterpartyRisk" style="stroke: #A80036; stroke-width: 1.0;"/><polygon fill="#A80036" points="2206.06,269.979,2199.0815,263.0291,2201.3896,268.1937,2196.225,270.5017,2206.06,269.979" style="stroke: #A80036; stroke-width: 1.0;"/><text fill="#000000" font-family="sans-serif" font-size="13" lengthAdjust="spacingAndGlyphs" textLength="109" x="1918" y="182.0669">CounterpartyRisk</text><text fill="#000000" font-family="sans-serif" font-size="13" lengthAdjust="spacingAndGlyphs" textLength="24" x="2166.9009" y="259.02">0..1</text><!--link Role to Entry--><path d="M1130.4,65.817 C1348.81,70.756 1914.18,86.108 2100,116 C2142.8,122.885 2155.16,122.751 2194,142 C2204.82,147.361 2215.63,155.414 2224.05,162.444 " fill="none" id="Role-Entry" style="stroke: #A80036; stroke-width: 1.0;"/><polygon fill="#A80036" points="2227.98,165.797,2223.7256,156.9144,2224.1749,162.5534,2218.5359,163.0027,2227.98,165.797" style="stroke: #A80036; stroke-width: 1.0;"/><text fill="#000000" font-family="sans-serif" font-size="13" lengthAdjust="spacingAndGlyphs" textLength="33" x="2177" y="129.0669">Entry</text><text fill="#000000" font-family="sans-serif" font-size="13" lengthAdjust="spacingAndGlyphs" textLength="8" x="2213.3421" y="155.0332">1</text><!--link InformationPartyRole to GenericIdentification--><path d="M824.276,190.04 C902.401,202.826 1034.12,224.849 1147,246 C1185.24,253.165 1228.12,261.889 1261.5,268.834 " fill="none" id="InformationPartyRole-GenericIdentification" style="stroke: #A80036; stroke-width: 1.0;"/><polygon fill="#A80036" points="1266.77,269.933,1258.769,264.1899,1261.874,268.9184,1257.1455,272.0234,1266.77,269.933" style="stroke: #A80036; stroke-width: 1.0;"/><text fill="#000000" font-family="sans-serif" font-size="13" lengthAdjust="spacingAndGlyphs" textLength="130" x="1095" y="233.0669">GenericIdentification</text><text fill="#000000" font-family="sans-serif" font-size="13" lengthAdjust="spacingAndGlyphs" textLength="7" x="1239.1831" y="258.9582">*</text><!--link InformationPartyRole to HaircutValuation--><path d="M824.098,180.78 C936.676,184.353 1168.49,194.38 1363,220 C1660.89,259.236 1736.18,307.401 1995,460 C2029.92,480.589 2049.19,479.583 2067,516 C2075.87,534.1276 2057.39,550.4002 2039.33,561.241 " fill="none" id="InformationPartyRole-HaircutValuation" style="stroke: #A80036; stroke-width: 1.0;"/><polygon fill="#A80036" points="2034.76,563.8779,2044.5542,562.8416,2039.09,561.3777,2040.5539,555.9136,2034.76,563.8779" style="stroke: #A80036; stroke-width: 1.0;"/><text fill="#000000" font-family="sans-serif" font-size="13" lengthAdjust="spacingAndGlyphs" textLength="106" x="1889" y="390.0669">HaircutValuation</text><text fill="#000000" font-family="sans-serif" font-size="13" lengthAdjust="spacingAndGlyphs" textLength="7" x="2033.3806" y="552.8841">*</text><!--link InformationPartyRole to SecuritiesPricing--><path d="M824.057,181.336 C968.101,187.04 1299.09,204.377 1403,246 C1535.71,299.158 1667.21,415.676 1710.86,456.513 " fill="none" id="InformationPartyRole-SecuritiesPricing" style="stroke: #A80036; stroke-width: 1.0;"/><polygon fill="#A80036" points="1714.57,460,1710.7559,450.9197,1710.9283,456.5739,1705.2741,456.7463,1714.57,460" style="stroke: #A80036; stroke-width: 1.0;"/><text fill="#000000" font-family="sans-serif" font-size="13" lengthAdjust="spacingAndGlyphs" textLength="31" x="1572" y="339.0669">Price</text><text fill="#000000" font-family="sans-serif" font-size="13" lengthAdjust="spacingAndGlyphs" textLength="7" x="1701.0941" y="449.0482">*</text><!--link InformationPartyRole to Scheme--><path d="M687.745,182.342 C547.701,189.9 238.345,210.471 207,246 C185.829,269.996 185.064,294.702 207,318 C244.991,358.349 1106.61,380.16 1286.33,384.279 " fill="none" id="InformationPartyRole-Scheme" style="stroke: #A80036; stroke-width: 1.0;"/><polygon fill="#A80036" points="1291.45,384.396,1282.5438,380.1914,1286.4513,384.2817,1282.3609,388.1893,1291.45,384.396" style="stroke: #A80036; stroke-width: 1.0;"/><text fill="#000000" font-family="sans-serif" font-size="13" lengthAdjust="spacingAndGlyphs" textLength="53" x="208" y="286.0669">Scheme</text><text fill="#000000" font-family="sans-serif" font-size="13" lengthAdjust="spacingAndGlyphs" textLength="24" x="1259.3945" y="378.7404">0..1</text><!--link InformationPartyRole to Quote--><path d="M687.966,181.291 C555.23,186.167 266.209,198.882 169,220 C93.4118,236.421 6,203.649 6,281 C6,281 6,281 6,473 C6,535.5606 1029.92,568.8723 1209.33,574.229 " fill="none" id="InformationPartyRole-Quote" style="stroke: #A80036; stroke-width: 1.0;"/><polygon fill="#A80036" points="1214.39,574.3793,1205.508,570.1238,1209.392,574.2364,1205.2794,578.1205,1214.39,574.3793" style="stroke: #A80036; stroke-width: 1.0;"/><text fill="#000000" font-family="sans-serif" font-size="13" lengthAdjust="spacingAndGlyphs" textLength="39" x="7" y="390.0669">Quote</text><text fill="#000000" font-family="sans-serif" font-size="13" lengthAdjust="spacingAndGlyphs" textLength="24" x="1182.4777" y="568.4698">0..1</text><!--link InformationPartyRole to TreasuryTrade--><path d="M687.536,178.997 C561.511,179.839 298.011,185.79 214,220 C151.649,245.39 82.188,293.758 127,344 C198.094,423.709 969.784,460.362 1181.53,468.964 " fill="none" id="InformationPartyRole-TreasuryTrade" style="stroke: #A80036; stroke-width: 1.0;"/><polygon fill="#A80036" points="1186.73,469.174,1177.8972,464.8173,1181.734,468.974,1177.5772,472.8109,1186.73,469.174" style="stroke: #A80036; stroke-width: 1.0;"/><text fill="#000000" font-family="sans-serif" font-size="13" lengthAdjust="spacingAndGlyphs" textLength="91" x="128" y="339.0669">TreasuryTrade</text><text fill="#000000" font-family="sans-serif" font-size="13" lengthAdjust="spacingAndGlyphs" textLength="7" x="1171.9688" y="463.8003">*</text><!--link GenericIdentification to Scheme--><path d="M1319,294.306 C1319,312.399 1319,347.936 1319,368.75 " fill="none" id="GenericIdentification-Scheme" style="stroke: #A80036; stroke-width: 1.0;"/><polygon fill="#A80036" points="1319,373.954,1323,364.954,1319,368.954,1315,364.954,1319,373.954" style="stroke: #A80036; stroke-width: 1.0;"/><text fill="#000000" font-family="sans-serif" font-size="13" lengthAdjust="spacingAndGlyphs" textLength="53" x="1320" y="339.0669">Scheme</text><text fill="#000000" font-family="sans-serif" font-size="13" lengthAdjust="spacingAndGlyphs" textLength="8" x="1308.1094" y="362.9864">1</text><!--link SecuritiesPricing to Quote--><path d="M1670.96,477.905 C1594.16,484.734 1450.49,497.456 1328,508 C1317.45,508.908 1240.17,508.202 1233,516 C1222.58,527.3316 1225.41,545.6542 1229.53,558.8765 " fill="none" id="SecuritiesPricing-Quote" style="stroke: #A80036; stroke-width: 1.0;"/><polygon fill="#A80036" points="1231.22,563.8441,1232.1256,554.037,1229.618,559.1077,1224.5473,556.6001,1231.22,563.8441" style="stroke: #A80036; stroke-width: 1.0;"/><text fill="#000000" font-family="sans-serif" font-size="13" lengthAdjust="spacingAndGlyphs" textLength="218" x="1234" y="529.0669">PreviousClosingPriceRelatedQuote</text><text fill="#000000" font-family="sans-serif" font-size="13" lengthAdjust="spacingAndGlyphs" textLength="24" x="1233.53" y="552.8387">0..1</text><!--link SecuritiesPricing to Quote--><path d="M1670.53,478.845 C1622.83,484.912 1552.65,496.34 1494,516 C1477.04,521.6858 1474.96,528.3196 1458,534 C1389.75,556.8558 1305.18,568.0188 1262.82,572.5032 " fill="none" id="SecuritiesPricing-Quote" style="stroke: #A80036; stroke-width: 1.0;"/><polygon fill="#A80036" points="1257.62,573.0423,1266.9837,576.0954,1262.5935,572.528,1266.1608,568.1378,1257.62,573.0423" style="stroke: #A80036; stroke-width: 1.0;"/><text fill="#000000" font-family="sans-serif" font-size="13" lengthAdjust="spacingAndGlyphs" textLength="186" x="1495" y="529.0669">RequestedPriceRelatedQuote</text><text fill="#000000" font-family="sans-serif" font-size="13" lengthAdjust="spacingAndGlyphs" textLength="24" x="1266.521" y="566.052">0..1</text><!--link SecuritiesPricing to Quote--><path d="M1722.31,484.269 C1716.99,498.54 1705.69,522.6371 1687,534 C1650.73,556.0518 1354.73,570.0746 1263,573.9226 " fill="none" id="SecuritiesPricing-Quote" style="stroke: #A80036; stroke-width: 1.0;"/><polygon fill="#A80036" points="1257.77,574.1405,1266.9228,577.7773,1262.766,573.9405,1266.6028,569.7837,1257.77,574.1405" style="stroke: #A80036; stroke-width: 1.0;"/><text fill="#000000" font-family="sans-serif" font-size="13" lengthAdjust="spacingAndGlyphs" textLength="118" x="1707" y="529.0669">PriceRelatedQuote</text><text fill="#000000" font-family="sans-serif" font-size="13" lengthAdjust="spacingAndGlyphs" textLength="24" x="1266.2954" y="587.6738">0..1</text><!--link SecuritiesPricing to Quote--><path d="M1780.29,484.088 C1817.59,494.047 1856.76,510.702 1835,534 C1795.52,576.2762 1374.14,576.0634 1262.84,575.2601 " fill="none" id="SecuritiesPricing-Quote" style="stroke: #A80036; stroke-width: 1.0;"/><polygon fill="#A80036" points="1257.77,575.2216,1266.7354,579.2986,1262.7698,575.2645,1266.804,571.2989,1257.77,575.2216" style="stroke: #A80036; stroke-width: 1.0;"/><text fill="#000000" font-family="sans-serif" font-size="13" lengthAdjust="spacingAndGlyphs" textLength="162" x="1843" y="529.0669">MarketPriceRelatedQuote</text><text fill="#000000" font-family="sans-serif" font-size="13" lengthAdjust="spacingAndGlyphs" textLength="24" x="1257.9935" y="608.0396">0..1</text></g></svg>