<?xml version="1.0" encoding="UTF-8" standalone="no"?><svg xmlns="http://www.w3.org/2000/svg" xmlns:xlink="http://www.w3.org/1999/xlink" contentScriptType="application/ecmascript" contentStyleType="text/css" height="478px" preserveAspectRatio="none" style="width:819px;height:478px;" version="1.1" viewBox="0 0 819 478" width="819px" zoomAndPan="magnify"><defs><filter height="300%" id="f1p3ywwrh441t2" width="300%" x="-1" y="-1"><feGaussianBlur result="blurOut" stdDeviation="2.0"/><feColorMatrix in="blurOut" result="blurOut2" type="matrix" values="0 0 0 0 0 0 0 0 0 0 0 0 0 0 0 0 0 0 .4 0"/><feOffset dx="4.0" dy="4.0" in="blurOut2" result="blurOut3"/><feBlend in="SourceGraphic" in2="blurOut3" mode="normal"/></filter></defs><g><!--cluster ##22109--><!--cluster ##22118--><!--cluster ##22127--><!--class Role--><a target="_top" xlink:actuate="onRequest" xlink:href="../Role.html" xlink:show="new" xlink:title="Role of a party in an activity." xlink:type="simple"><rect fill="#FEFEEE" filter="url(#f1p3ywwrh441t2)" height="44.7734" id="Role" style="stroke: #A80036; stroke-width: 1.5;" width="175" x="51.75" y="40.5"/><rect fill="#FEFEEE" height="23.9688" style="stroke: #A80036; stroke-width: 1.5;" width="175" x="51.75" y="40.5"/><text fill="#000000" font-family="sans-serif" font-size="12" lengthAdjust="spacingAndGlyphs" textLength="27" x="125.75" y="56.6387">Role</text><line style="stroke: #A80036; stroke-width: 1.5;" x1="52.75" x2="225.75" y1="64.4688" y2="64.4688"/><ellipse cx="62.75" cy="76.3711" fill="#84BE84" rx="3" ry="3" style="stroke: #038048; stroke-width: 1.0;"/><text fill="#000000" font-family="sans-serif" font-size="11" lengthAdjust="spacingAndGlyphs" textLength="53" x="71.75" y="78.6792">PartyRole</text><text fill="#000000" font-family="sans-serif" font-size="11" font-style="italic" lengthAdjust="spacingAndGlyphs" textLength="92" x="128.75" y="78.6792">(PartyRoleCode)</text></a><!--class InsurancePartyRole--><a target="_top" xlink:actuate="onRequest" xlink:href="../InsurancePartyRole.html" xlink:show="new" xlink:title="Role played by a party in the context of insurance." xlink:type="simple"><rect fill="#FEFEEE" filter="url(#f1p3ywwrh441t2)" height="23.9688" id="InsurancePartyRole" style="stroke: #A80036; stroke-width: 1.5;" width="127" x="87.75" y="166"/><rect fill="#FEFEEE" height="23.9688" style="stroke: #A80036; stroke-width: 1.5;" width="127" x="87.75" y="166"/><text fill="#000000" font-family="sans-serif" font-size="12" lengthAdjust="spacingAndGlyphs" textLength="121" x="90.75" y="182.1387">InsurancePartyRole</text></a><!--class Insurer--><a target="_top" xlink:actuate="onRequest" xlink:href="../Insurer.html" xlink:show="new" xlink:title="Insurance company that issues a particular insurance policy to an assured party." xlink:type="simple"><rect fill="#FEFECE" filter="url(#f1p3ywwrh441t2)" height="23.9688" id="Insurer" style="stroke: #A80036; stroke-width: 1.5;" width="50" x="126" y="270"/><rect fill="#FEFECE" height="23.9688" style="stroke: #A80036; stroke-width: 1.5;" width="50" x="126" y="270"/><text fill="#000000" font-family="sans-serif" font-size="12" lengthAdjust="spacingAndGlyphs" textLength="44" x="129" y="286.1387">Insurer</text></a><!--class RolePlayer--><a target="_top" xlink:actuate="onRequest" xlink:href="../RolePlayer.html" xlink:show="new" xlink:title="Type of entity that plays a specific role in a specific context." xlink:type="simple"><rect fill="#EEEEEE" filter="url(#f1p3ywwrh441t2)" height="23.9688" id="RolePlayer" style="stroke: #A80036; stroke-width: 1.5;" width="71" x="628.75" y="444"/><rect fill="#EEEEEE" height="23.9688" style="stroke: #A80036; stroke-width: 1.5;" width="71" x="628.75" y="444"/><text fill="#000000" font-family="sans-serif" font-size="12" lengthAdjust="spacingAndGlyphs" textLength="65" x="631.75" y="460.1387">RolePlayer</text></a><!--class ContactPersonRole--><a target="_top" xlink:actuate="onRequest" xlink:href="../ContactPersonRole.html" xlink:show="new" xlink:title="Person to be contacted in a given organisation. In the corporate action domain (including meeting notifications), it is the contact person at the party organising the meeting, at the issuer or at an intermediary." xlink:type="simple"><rect fill="#EEEEEE" filter="url(#f1p3ywwrh441t2)" height="23.9688" id="ContactPersonRole" style="stroke: #A80036; stroke-width: 1.5;" width="126" x="621" y="358"/><rect fill="#EEEEEE" height="23.9688" style="stroke: #A80036; stroke-width: 1.5;" width="126" x="621" y="358"/><text fill="#000000" font-family="sans-serif" font-size="12" lengthAdjust="spacingAndGlyphs" textLength="120" x="624" y="374.1387">ContactPersonRole</text></a><!--class CounterpartyRisk--><a target="_top" xlink:actuate="onRequest" xlink:href="../CounterpartyRisk.html" xlink:show="new" xlink:title="Calculation of the exposure amount that one party has vis-a-vis one counterparty or a central system, based on its credit risk." xlink:type="simple"><rect fill="#EEEEEE" filter="url(#f1p3ywwrh441t2)" height="23.9688" id="CounterpartyRisk" style="stroke: #A80036; stroke-width: 1.5;" width="113" x="633.75" y="270"/><rect fill="#EEEEEE" height="23.9688" style="stroke: #A80036; stroke-width: 1.5;" width="113" x="633.75" y="270"/><text fill="#000000" font-family="sans-serif" font-size="12" lengthAdjust="spacingAndGlyphs" textLength="107" x="636.75" y="286.1387">CounterpartyRisk</text></a><!--class Entry--><a target="_top" xlink:actuate="onRequest" xlink:href="../Entry.html" xlink:show="new" xlink:title="Posting to an account that results in an increase or decrease to a balance." xlink:type="simple"><rect fill="#EEEEEE" filter="url(#f1p3ywwrh441t2)" height="23.9688" id="Entry" style="stroke: #A80036; stroke-width: 1.5;" width="38" x="621" y="166"/><rect fill="#EEEEEE" height="23.9688" style="stroke: #A80036; stroke-width: 1.5;" width="38" x="621" y="166"/><text fill="#000000" font-family="sans-serif" font-size="12" lengthAdjust="spacingAndGlyphs" textLength="32" x="624" y="182.1387">Entry</text></a><!--class InsuranceCertificate--><a target="_top" xlink:actuate="onRequest" xlink:href="../InsuranceCertificate.html" xlink:show="new" xlink:title="Formal document used to record a fact and used as proof of the fact that goods have been insured under an insurance policy." xlink:type="simple"><rect fill="#EEEEEE" filter="url(#f1p3ywwrh441t2)" height="23.9688" id="InsuranceCertificate" style="stroke: #A80036; stroke-width: 1.5;" width="132" x="283" y="270"/><rect fill="#EEEEEE" height="23.9688" style="stroke: #A80036; stroke-width: 1.5;" width="132" x="283" y="270"/><text fill="#000000" font-family="sans-serif" font-size="12" lengthAdjust="spacingAndGlyphs" textLength="126" x="286" y="286.1387">InsuranceCertificate</text></a><!--entity ##22130--><!--link Role to InsurancePartyRole--><path d="M143.413,105.559 C145.707,127.159 148.334,151.898 149.817,165.865 " fill="none" id="Role-InsurancePartyRole" style="stroke: #A80036; stroke-width: 1.0;"/><polygon fill="none" points="136.437,106.148,141.285,85.52,150.358,104.669,136.437,106.148" style="stroke: #A80036; stroke-width: 1.0;"/><!--link InsurancePartyRole to Insurer--><path d="M151,210.595 C151,230.825 151,255.843 151,269.954 " fill="none" id="InsurancePartyRole-Insurer" style="stroke: #A80036; stroke-width: 1.0;"/><polygon fill="none" points="144,210.306,151,190.306,158,210.305,144,210.306" style="stroke: #A80036; stroke-width: 1.0;"/><!--link ContactPersonRole to RolePlayer--><!--link CounterpartyRisk to ContactPersonRole--><!--link Entry to CounterpartyRisk--><!--link Role to RolePlayer--><path d="M226.31,74.961 C328.81,90.326 485,122.655 485,177 C485,177 485,177 485,371 C485,431.8572 570.842,448.7099 623.634,453.3199 " fill="none" id="Role-RolePlayer" style="stroke: #A80036; stroke-width: 1.0;"/><polygon fill="#A80036" points="628.635,453.7288,619.9919,449.0068,623.6517,453.3202,619.3382,456.98,628.635,453.7288" style="stroke: #A80036; stroke-width: 1.0;"/><text fill="#000000" font-family="sans-serif" font-size="13" lengthAdjust="spacingAndGlyphs" textLength="39" x="486" y="286.0669">Player</text><text fill="#000000" font-family="sans-serif" font-size="13" lengthAdjust="spacingAndGlyphs" textLength="7" x="613.7402" y="447.9585">*</text><!--link Role to ContactPersonRole--><path d="M226.6,66.355 C322.358,70.612 467.932,82.549 511,116 C557.28,151.945 533.131,186.452 561,238 C581.52,275.956 586.125,286.868 616,318 C629.704,332.281 647.714,345.597 661.757,355.039 " fill="none" id="Role-ContactPersonRole" style="stroke: #A80036; stroke-width: 1.0;"/><polygon fill="#A80036" points="665.978,357.842,660.6906,349.5328,661.8118,355.0774,656.2672,356.1987,665.978,357.842" style="stroke: #A80036; stroke-width: 1.0;"/><text fill="#000000" font-family="sans-serif" font-size="13" lengthAdjust="spacingAndGlyphs" textLength="121" x="562" y="233.0669">ContactPersonRole</text><text fill="#000000" font-family="sans-serif" font-size="13" lengthAdjust="spacingAndGlyphs" textLength="8" x="649.0642" y="346.8359">1</text><!--link Role to CounterpartyRisk--><path d="M226.363,64.267 C354.651,66.067 586.528,75.098 658,116 C688.989,133.734 703.698,218.205 704,220 C706.586,235.376 701.874,252.681 697.233,264.921 " fill="none" id="Role-CounterpartyRisk" style="stroke: #A80036; stroke-width: 1.0;"/><polygon fill="#A80036" points="695.27,269.837,702.322,262.9618,697.124,265.1934,694.8923,259.9954,695.27,269.837" style="stroke: #A80036; stroke-width: 1.0;"/><text fill="#000000" font-family="sans-serif" font-size="13" lengthAdjust="spacingAndGlyphs" textLength="109" x="698" y="182.0669">CounterpartyRisk</text><text fill="#000000" font-family="sans-serif" font-size="13" lengthAdjust="spacingAndGlyphs" textLength="24" x="667.5269" y="258.8292">0..1</text><!--link Role to Entry--><path d="M226.733,65.889 C340.976,69.723 533.255,81.282 594,116 C612.002,126.289 625.172,146.759 632.697,161.139 " fill="none" id="Role-Entry" style="stroke: #A80036; stroke-width: 1.0;"/><polygon fill="#A80036" points="635.032,165.759,634.5446,155.9222,632.7777,161.296,627.4038,159.5291,635.032,165.759" style="stroke: #A80036; stroke-width: 1.0;"/><text fill="#000000" font-family="sans-serif" font-size="13" lengthAdjust="spacingAndGlyphs" textLength="33" x="615" y="129.0669">Entry</text><text fill="#000000" font-family="sans-serif" font-size="13" lengthAdjust="spacingAndGlyphs" textLength="8" x="622.7301" y="154.9826">1</text><!--link InsurancePartyRole to InsuranceCertificate--><path d="M172.566,190.11 C209.166,208.964 283.303,247.156 322.818,267.512 " fill="none" id="InsurancePartyRole-InsuranceCertificate" style="stroke: #A80036; stroke-width: 1.0;"/><polygon fill="#A80036" points="327.46,269.904,321.2908,262.2267,323.015,267.6144,317.6274,269.3387,327.46,269.904" style="stroke: #A80036; stroke-width: 1.0;"/><text fill="#000000" font-family="sans-serif" font-size="13" lengthAdjust="spacingAndGlyphs" textLength="127" x="263" y="233.0669">InsuranceCertificate</text><text fill="#000000" font-family="sans-serif" font-size="13" lengthAdjust="spacingAndGlyphs" textLength="7" x="310.5087" y="258.9192">*</text></g></svg>