<?xml version="1.0" encoding="UTF-8" standalone="no"?><svg xmlns="http://www.w3.org/2000/svg" xmlns:xlink="http://www.w3.org/1999/xlink" contentScriptType="application/ecmascript" contentStyleType="text/css" height="478px" preserveAspectRatio="none" style="width:891px;height:478px;" version="1.1" viewBox="0 0 891 478" width="891px" zoomAndPan="magnify"><defs><filter height="300%" id="fq8e8x19nvs7g" width="300%" x="-1" y="-1"><feGaussianBlur result="blurOut" stdDeviation="2.0"/><feColorMatrix in="blurOut" result="blurOut2" type="matrix" values="0 0 0 0 0 0 0 0 0 0 0 0 0 0 0 0 0 0 .4 0"/><feOffset dx="4.0" dy="4.0" in="blurOut2" result="blurOut3"/><feBlend in="SourceGraphic" in2="blurOut3" mode="normal"/></filter></defs><g><!--cluster ##23610--><!--cluster ##23625--><!--cluster ##23634--><!--class Role--><a target="_top" xlink:actuate="onRequest" xlink:href="../Role.html" xlink:show="new" xlink:title="Role of a party in an activity." xlink:type="simple"><rect fill="#FEFEEE" filter="url(#fq8e8x19nvs7g)" height="44.7734" id="Role" style="stroke: #A80036; stroke-width: 1.5;" width="175" x="123.75" y="40.5"/><rect fill="#FEFEEE" height="23.9688" style="stroke: #A80036; stroke-width: 1.5;" width="175" x="123.75" y="40.5"/><text fill="#000000" font-family="sans-serif" font-size="12" lengthAdjust="spacingAndGlyphs" textLength="27" x="197.75" y="56.6387">Role</text><line style="stroke: #A80036; stroke-width: 1.5;" x1="124.75" x2="297.75" y1="64.4688" y2="64.4688"/><ellipse cx="134.75" cy="76.3711" fill="#84BE84" rx="3" ry="3" style="stroke: #038048; stroke-width: 1.0;"/><text fill="#000000" font-family="sans-serif" font-size="11" lengthAdjust="spacingAndGlyphs" textLength="53" x="143.75" y="78.6792">PartyRole</text><text fill="#000000" font-family="sans-serif" font-size="11" font-style="italic" lengthAdjust="spacingAndGlyphs" textLength="92" x="200.75" y="78.6792">(PartyRoleCode)</text></a><!--class InsurancePartyRole--><a target="_top" xlink:actuate="onRequest" xlink:href="../InsurancePartyRole.html" xlink:show="new" xlink:title="Role played by a party in the context of insurance." xlink:type="simple"><rect fill="#FEFECE" filter="url(#fq8e8x19nvs7g)" height="23.9688" id="InsurancePartyRole" style="stroke: #A80036; stroke-width: 1.5;" width="127" x="147.75" y="166"/><rect fill="#FEFECE" height="23.9688" style="stroke: #A80036; stroke-width: 1.5;" width="127" x="147.75" y="166"/><text fill="#000000" font-family="sans-serif" font-size="12" lengthAdjust="spacingAndGlyphs" textLength="121" x="150.75" y="182.1387">InsurancePartyRole</text></a><!--class Assured--><a target="_top" xlink:actuate="onRequest" xlink:href="../Assured.html" xlink:show="new" xlink:title="Party that is covered under the assurance policy." xlink:type="simple"><rect fill="#FEFEEE" filter="url(#fq8e8x19nvs7g)" height="23.9688" id="Assured" style="stroke: #A80036; stroke-width: 1.5;" width="57" x="38.75" y="270"/><rect fill="#FEFEEE" height="23.9688" style="stroke: #A80036; stroke-width: 1.5;" width="57" x="38.75" y="270"/><text fill="#000000" font-family="sans-serif" font-size="12" lengthAdjust="spacingAndGlyphs" textLength="51" x="41.75" y="286.1387">Assured</text></a><!--class ClaimsAgent--><a target="_top" xlink:actuate="onRequest" xlink:href="../ClaimsAgent.html" xlink:show="new" xlink:title="Party where claims under the insurance policy have to be addressed." xlink:type="simple"><rect fill="#FEFEEE" filter="url(#fq8e8x19nvs7g)" height="23.9688" id="ClaimsAgent" style="stroke: #A80036; stroke-width: 1.5;" width="83" x="130.75" y="270"/><rect fill="#FEFEEE" height="23.9688" style="stroke: #A80036; stroke-width: 1.5;" width="83" x="130.75" y="270"/><text fill="#000000" font-family="sans-serif" font-size="12" lengthAdjust="spacingAndGlyphs" textLength="77" x="133.75" y="286.1387">ClaimsAgent</text></a><!--class Insurer--><a target="_top" xlink:actuate="onRequest" xlink:href="../Insurer.html" xlink:show="new" xlink:title="Insurance company that issues a particular insurance policy to an assured party." xlink:type="simple"><rect fill="#FEFEEE" filter="url(#fq8e8x19nvs7g)" height="23.9688" id="Insurer" style="stroke: #A80036; stroke-width: 1.5;" width="50" x="249" y="270"/><rect fill="#FEFEEE" height="23.9688" style="stroke: #A80036; stroke-width: 1.5;" width="50" x="249" y="270"/><text fill="#000000" font-family="sans-serif" font-size="12" lengthAdjust="spacingAndGlyphs" textLength="44" x="252" y="286.1387">Insurer</text></a><!--class RolePlayer--><a target="_top" xlink:actuate="onRequest" xlink:href="../RolePlayer.html" xlink:show="new" xlink:title="Type of entity that plays a specific role in a specific context." xlink:type="simple"><rect fill="#EEEEEE" filter="url(#fq8e8x19nvs7g)" height="23.9688" id="RolePlayer" style="stroke: #A80036; stroke-width: 1.5;" width="71" x="700.75" y="444"/><rect fill="#EEEEEE" height="23.9688" style="stroke: #A80036; stroke-width: 1.5;" width="71" x="700.75" y="444"/><text fill="#000000" font-family="sans-serif" font-size="12" lengthAdjust="spacingAndGlyphs" textLength="65" x="703.75" y="460.1387">RolePlayer</text></a><!--class ContactPersonRole--><a target="_top" xlink:actuate="onRequest" xlink:href="../ContactPersonRole.html" xlink:show="new" xlink:title="Person to be contacted in a given organisation. In the corporate action domain (including meeting notifications) , it is the contact person at the party organising the meeting, at the issuer or at an intermediary." xlink:type="simple"><rect fill="#EEEEEE" filter="url(#fq8e8x19nvs7g)" height="23.9688" id="ContactPersonRole" style="stroke: #A80036; stroke-width: 1.5;" width="126" x="693" y="358"/><rect fill="#EEEEEE" height="23.9688" style="stroke: #A80036; stroke-width: 1.5;" width="126" x="693" y="358"/><text fill="#000000" font-family="sans-serif" font-size="12" lengthAdjust="spacingAndGlyphs" textLength="120" x="696" y="374.1387">ContactPersonRole</text></a><!--class CounterpartyRisk--><a target="_top" xlink:actuate="onRequest" xlink:href="../CounterpartyRisk.html" xlink:show="new" xlink:title="Calculation of the exposure amount that one party has vis-a-vis one counterparty or a central system, based on its credit risk." xlink:type="simple"><rect fill="#EEEEEE" filter="url(#fq8e8x19nvs7g)" height="23.9688" id="CounterpartyRisk" style="stroke: #A80036; stroke-width: 1.5;" width="113" x="705.75" y="270"/><rect fill="#EEEEEE" height="23.9688" style="stroke: #A80036; stroke-width: 1.5;" width="113" x="705.75" y="270"/><text fill="#000000" font-family="sans-serif" font-size="12" lengthAdjust="spacingAndGlyphs" textLength="107" x="708.75" y="286.1387">CounterpartyRisk</text></a><!--class Entry--><a target="_top" xlink:actuate="onRequest" xlink:href="../Entry.html" xlink:show="new" xlink:title="Posting to an account that results in an increase or decrease to a balance." xlink:type="simple"><rect fill="#EEEEEE" filter="url(#fq8e8x19nvs7g)" height="23.9688" id="Entry" style="stroke: #A80036; stroke-width: 1.5;" width="38" x="693" y="166"/><rect fill="#EEEEEE" height="23.9688" style="stroke: #A80036; stroke-width: 1.5;" width="38" x="693" y="166"/><text fill="#000000" font-family="sans-serif" font-size="12" lengthAdjust="spacingAndGlyphs" textLength="32" x="696" y="182.1387">Entry</text></a><!--class InsuranceCertificate--><a target="_top" xlink:actuate="onRequest" xlink:href="../InsuranceCertificate.html" xlink:show="new" xlink:title="Formal document used to record a fact and used as proof of the fact that goods have been insured under an insurance policy." xlink:type="simple"><rect fill="#EEEEEE" filter="url(#fq8e8x19nvs7g)" height="23.9688" id="InsuranceCertificate" style="stroke: #A80036; stroke-width: 1.5;" width="132" x="355" y="270"/><rect fill="#EEEEEE" height="23.9688" style="stroke: #A80036; stroke-width: 1.5;" width="132" x="355" y="270"/><text fill="#000000" font-family="sans-serif" font-size="12" lengthAdjust="spacingAndGlyphs" textLength="126" x="358" y="286.1387">InsuranceCertificate</text></a><!--link Role to InsurancePartyRole--><path d="M211,105.559 C211,127.159 211,151.898 211,165.865 " fill="none" id="Role-InsurancePartyRole" style="stroke: #A80036; stroke-width: 1.0;"/><polygon fill="none" points="204,105.52,211,85.52,218,105.52,204,105.52" style="stroke: #A80036; stroke-width: 1.0;"/><!--link InsurancePartyRole to Assured--><path d="M177.44,201.33 C158.379,214.165 134.169,230.726 113,246 C102.2583,253.751 90.364,262.814 81.3616,269.776 " fill="none" id="InsurancePartyRole-Assured" style="stroke: #A80036; stroke-width: 1.0;"/><polygon fill="none" points="173.661,195.436,194.175,190.126,181.45,207.069,173.661,195.436" style="stroke: #A80036; stroke-width: 1.0;"/><!--link InsurancePartyRole to ClaimsAgent--><path d="M199.419,209.289 C191.6,229.738 181.736,255.538 176.224,269.954 " fill="none" id="InsurancePartyRole-ClaimsAgent" style="stroke: #A80036; stroke-width: 1.0;"/><polygon fill="none" points="192.996,206.487,206.677,190.306,206.073,211.487,192.996,206.487" style="stroke: #A80036; stroke-width: 1.0;"/><!--link InsurancePartyRole to Insurer--><path d="M228.516,207.359 C241.319,228.088 257.991,255.08 267.177,269.954 " fill="none" id="InsurancePartyRole-Insurer" style="stroke: #A80036; stroke-width: 1.0;"/><polygon fill="none" points="222.537,211,217.983,190.306,234.448,203.643,222.537,211" style="stroke: #A80036; stroke-width: 1.0;"/><!--link ContactPersonRole to RolePlayer--><!--link CounterpartyRisk to ContactPersonRole--><!--link Entry to CounterpartyRisk--><!--link Role to RolePlayer--><path d="M298.31,74.961 C400.81,90.326 557,122.655 557,177 C557,177 557,177 557,371 C557,431.8572 642.842,448.7099 695.634,453.3199 " fill="none" id="Role-RolePlayer" style="stroke: #A80036; stroke-width: 1.0;"/><polygon fill="#A80036" points="700.635,453.7288,691.9919,449.0068,695.6517,453.3202,691.3382,456.98,700.635,453.7288" style="stroke: #A80036; stroke-width: 1.0;"/><text fill="#000000" font-family="sans-serif" font-size="13" lengthAdjust="spacingAndGlyphs" textLength="39" x="558" y="286.0669">Player</text><text fill="#000000" font-family="sans-serif" font-size="13" lengthAdjust="spacingAndGlyphs" textLength="7" x="685.7402" y="447.9585">*</text><!--link Role to ContactPersonRole--><path d="M298.6,66.355 C394.358,70.612 539.932,82.549 583,116 C629.28,151.945 605.131,186.452 633,238 C653.52,275.956 658.125,286.868 688,318 C701.704,332.281 719.714,345.597 733.757,355.039 " fill="none" id="Role-ContactPersonRole" style="stroke: #A80036; stroke-width: 1.0;"/><polygon fill="#A80036" points="737.978,357.842,732.6906,349.5328,733.8118,355.0774,728.2672,356.1987,737.978,357.842" style="stroke: #A80036; stroke-width: 1.0;"/><text fill="#000000" font-family="sans-serif" font-size="13" lengthAdjust="spacingAndGlyphs" textLength="121" x="634" y="233.0669">ContactPersonRole</text><text fill="#000000" font-family="sans-serif" font-size="13" lengthAdjust="spacingAndGlyphs" textLength="8" x="721.0642" y="346.8359">1</text><!--link Role to CounterpartyRisk--><path d="M298.363,64.267 C426.651,66.067 658.528,75.098 730,116 C760.989,133.734 775.698,218.205 776,220 C778.586,235.376 773.874,252.681 769.233,264.921 " fill="none" id="Role-CounterpartyRisk" style="stroke: #A80036; stroke-width: 1.0;"/><polygon fill="#A80036" points="767.27,269.837,774.322,262.9618,769.124,265.1934,766.8923,259.9954,767.27,269.837" style="stroke: #A80036; stroke-width: 1.0;"/><text fill="#000000" font-family="sans-serif" font-size="13" lengthAdjust="spacingAndGlyphs" textLength="109" x="770" y="182.0669">CounterpartyRisk</text><text fill="#000000" font-family="sans-serif" font-size="13" lengthAdjust="spacingAndGlyphs" textLength="24" x="739.5269" y="258.8292">0..1</text><!--link Role to Entry--><path d="M298.733,65.889 C412.976,69.723 605.255,81.282 666,116 C684.002,126.289 697.172,146.759 704.697,161.139 " fill="none" id="Role-Entry" style="stroke: #A80036; stroke-width: 1.0;"/><polygon fill="#A80036" points="707.032,165.759,706.5446,155.9222,704.7777,161.296,699.4038,159.5291,707.032,165.759" style="stroke: #A80036; stroke-width: 1.0;"/><text fill="#000000" font-family="sans-serif" font-size="13" lengthAdjust="spacingAndGlyphs" textLength="33" x="687" y="129.0669">Entry</text><text fill="#000000" font-family="sans-serif" font-size="13" lengthAdjust="spacingAndGlyphs" textLength="8" x="694.7301" y="154.9826">1</text><!--link InsurancePartyRole to InsuranceCertificate--><path d="M233.873,190.11 C272.77,209.002 351.641,247.311 393.486,267.636 " fill="none" id="InsurancePartyRole-InsuranceCertificate" style="stroke: #A80036; stroke-width: 1.0;"/><polygon fill="#A80036" points="398.155,269.904,391.807,262.3739,393.6574,267.7195,388.3118,269.57,398.155,269.904" style="stroke: #A80036; stroke-width: 1.0;"/><text fill="#000000" font-family="sans-serif" font-size="13" lengthAdjust="spacingAndGlyphs" textLength="127" x="330" y="233.0669">InsuranceCertificate</text><text fill="#000000" font-family="sans-serif" font-size="13" lengthAdjust="spacingAndGlyphs" textLength="7" x="380.7552" y="258.9192">*</text></g></svg>