<?xml version="1.0" encoding="UTF-8" standalone="no"?><svg xmlns="http://www.w3.org/2000/svg" xmlns:xlink="http://www.w3.org/1999/xlink" contentScriptType="application/ecmascript" contentStyleType="text/css" height="632px" preserveAspectRatio="none" style="width:2508px;height:632px;" version="1.1" viewBox="0 0 2508 632" width="2508px" zoomAndPan="magnify"><defs><filter height="300%" id="fyzv3de668w6o" width="300%" x="-1" y="-1"><feGaussianBlur result="blurOut" stdDeviation="2.0"/><feColorMatrix in="blurOut" result="blurOut2" type="matrix" values="0 0 0 0 0 0 0 0 0 0 0 0 0 0 0 0 0 0 .4 0"/><feOffset dx="4.0" dy="4.0" in="blurOut2" result="blurOut3"/><feBlend in="SourceGraphic" in2="blurOut3" mode="normal"/></filter></defs><g><!--cluster ##3037--><!--cluster ##3082--><!--cluster ##3091--><!--cluster ##3094--><!--class Role--><a target="_top" xlink:actuate="onRequest" xlink:href="../Role.html" xlink:show="new" xlink:title="Role of a party in an activity." xlink:type="simple"><rect fill="#FEFEEE" filter="url(#fyzv3de668w6o)" height="44.7734" id="Role" style="stroke: #A80036; stroke-width: 1.5;" width="175" x="1445.75" y="40.5"/><rect fill="#FEFEEE" height="23.9688" style="stroke: #A80036; stroke-width: 1.5;" width="175" x="1445.75" y="40.5"/><text fill="#000000" font-family="sans-serif" font-size="12" lengthAdjust="spacingAndGlyphs" textLength="27" x="1519.75" y="56.6387">Role</text><line style="stroke: #A80036; stroke-width: 1.5;" x1="1446.75" x2="1619.75" y1="64.4688" y2="64.4688"/><ellipse cx="1456.75" cy="76.3711" fill="#84BE84" rx="3" ry="3" style="stroke: #038048; stroke-width: 1.0;"/><text fill="#000000" font-family="sans-serif" font-size="11" lengthAdjust="spacingAndGlyphs" textLength="53" x="1465.75" y="78.6792">PartyRole</text><text fill="#000000" font-family="sans-serif" font-size="11" font-style="italic" lengthAdjust="spacingAndGlyphs" textLength="92" x="1522.75" y="78.6792">(PartyRoleCode)</text></a><!--class AccountPartyRole--><a target="_top" xlink:actuate="onRequest" xlink:href="../AccountPartyRole.html" xlink:show="new" xlink:title="Role played by a party in the context of account operations." xlink:type="simple"><rect fill="#FEFEEE" filter="url(#fyzv3de668w6o)" height="23.9688" id="AccountPartyRole" style="stroke: #A80036; stroke-width: 1.5;" width="116" x="1475.5" y="166"/><rect fill="#FEFEEE" height="23.9688" style="stroke: #A80036; stroke-width: 1.5;" width="116" x="1475.5" y="166"/><text fill="#000000" font-family="sans-serif" font-size="12" lengthAdjust="spacingAndGlyphs" textLength="110" x="1478.5" y="182.1387">AccountPartyRole</text></a><!--class InvestmentAccountPartyRole--><a target="_top" xlink:actuate="onRequest" xlink:href="../InvestmentAccountPartyRole.html" xlink:show="new" xlink:title="Specifies roles played by a party that are related to an investment account." xlink:type="simple"><rect fill="#FEFECE" filter="url(#fyzv3de668w6o)" height="57.5781" id="InvestmentAccountPartyRole" style="stroke: #A80036; stroke-width: 1.5;" width="277" x="932.75" y="268"/><rect fill="#FEFECE" height="23.9688" style="stroke: #A80036; stroke-width: 1.5;" width="277" x="932.75" y="268"/><text fill="#000000" font-family="sans-serif" font-size="12" lengthAdjust="spacingAndGlyphs" textLength="179" x="981.75" y="284.1387">InvestmentAccountPartyRole</text><line style="stroke: #A80036; stroke-width: 1.5;" x1="933.75" x2="1208.75" y1="291.9688" y2="291.9688"/><ellipse cx="943.75" cy="303.8711" fill="#84BE84" rx="3" ry="3" style="stroke: #038048; stroke-width: 1.0;"/><text fill="#000000" font-family="sans-serif" font-size="11" lengthAdjust="spacingAndGlyphs" textLength="149" x="952.75" y="306.1792">OwnershipBeneficiaryRate</text><text fill="#000000" font-family="sans-serif" font-size="11" font-style="italic" lengthAdjust="spacingAndGlyphs" textLength="98" x="1105.75" y="306.1792">(PercentageRate)</text><ellipse cx="943.75" cy="316.6758" fill="#84BE84" rx="3" ry="3" style="stroke: #038048; stroke-width: 1.0;"/><text fill="#000000" font-family="sans-serif" font-size="11" lengthAdjust="spacingAndGlyphs" textLength="91" x="952.75" y="318.9839">FATCAFormType</text><text fill="#000000" font-family="sans-serif" font-size="11" font-style="italic" lengthAdjust="spacingAndGlyphs" textLength="131" x="1047.75" y="318.9839">(FATCAFormTypeCode)</text></a><!--class PrimaryOwner--><a target="_top" xlink:actuate="onRequest" xlink:href="../PrimaryOwner.html" xlink:show="new" xlink:title="Single owner of the investment account or, when the ownership is split among several owners, the primary owner is the one giving its address and account details for the registration." xlink:type="simple"><rect fill="#FEFEEE" filter="url(#fyzv3de668w6o)" height="23.9688" id="PrimaryOwner" style="stroke: #A80036; stroke-width: 1.5;" width="91" x="38.75" y="406"/><rect fill="#FEFEEE" height="23.9688" style="stroke: #A80036; stroke-width: 1.5;" width="91" x="38.75" y="406"/><text fill="#000000" font-family="sans-serif" font-size="12" lengthAdjust="spacingAndGlyphs" textLength="85" x="41.75" y="422.1387">PrimaryOwner</text></a><!--class TrusteeRole--><a target="_top" xlink:actuate="onRequest" xlink:href="../TrusteeRole.html" xlink:show="new" xlink:title="Legal owner of the property. However, the beneficiary has the equitable or beneficial ownership. The trustee must ensure all terms and conditions of the security are adhered to." xlink:type="simple"><rect fill="#FEFEEE" filter="url(#fyzv3de668w6o)" height="23.9688" id="TrusteeRole" style="stroke: #A80036; stroke-width: 1.5;" width="81" x="164.75" y="406"/><rect fill="#FEFEEE" height="23.9688" style="stroke: #A80036; stroke-width: 1.5;" width="81" x="164.75" y="406"/><text fill="#000000" font-family="sans-serif" font-size="12" lengthAdjust="spacingAndGlyphs" textLength="75" x="167.75" y="422.1387">TrusteeRole</text></a><!--class CustodianForMinor--><a target="_top" xlink:actuate="onRequest" xlink:href="../CustodianForMinor.html" xlink:show="new" xlink:title="Entity that holds shares/units on behalf of a legal minor. Although the account is registered under the name of the minor, the custodian retains control of the account." xlink:type="simple"><rect fill="#FEFEEE" filter="url(#fyzv3de668w6o)" height="23.9688" id="CustodianForMinor" style="stroke: #A80036; stroke-width: 1.5;" width="123" x="280.75" y="406"/><rect fill="#FEFEEE" height="23.9688" style="stroke: #A80036; stroke-width: 1.5;" width="123" x="280.75" y="406"/><text fill="#000000" font-family="sans-serif" font-size="12" lengthAdjust="spacingAndGlyphs" textLength="117" x="283.75" y="422.1387">CustodianForMinor</text></a><!--class Nominee--><a target="_top" xlink:actuate="onRequest" xlink:href="../Nominee.html" xlink:show="new" xlink:title="Entity (the registered owner) named by the beneficial owner to act on its behalf, often to facilitate dealing, or to conceal the identity of the beneficiary. Securities and other assets are recorded in the nominee's name." xlink:type="simple"><rect fill="#FEFEEE" filter="url(#fyzv3de668w6o)" height="23.9688" id="Nominee" style="stroke: #A80036; stroke-width: 1.5;" width="61" x="438.75" y="406"/><rect fill="#FEFEEE" height="23.9688" style="stroke: #A80036; stroke-width: 1.5;" width="61" x="438.75" y="406"/><text fill="#000000" font-family="sans-serif" font-size="12" lengthAdjust="spacingAndGlyphs" textLength="55" x="441.75" y="422.1387">Nominee</text></a><!--class JointOwner--><a target="_top" xlink:actuate="onRequest" xlink:href="../JointOwner.html" xlink:show="new" xlink:title="Co-owner of an investment account when the ownership is assigned to more than one party." xlink:type="simple"><rect fill="#FEFEEE" filter="url(#fyzv3de668w6o)" height="23.9688" id="JointOwner" style="stroke: #A80036; stroke-width: 1.5;" width="72" x="535" y="406"/><rect fill="#FEFEEE" height="23.9688" style="stroke: #A80036; stroke-width: 1.5;" width="72" x="535" y="406"/><text fill="#000000" font-family="sans-serif" font-size="12" lengthAdjust="spacingAndGlyphs" textLength="66" x="538" y="422.1387">JointOwner</text></a><!--class SecondaryOwner--><a target="_top" xlink:actuate="onRequest" xlink:href="../SecondaryOwner.html" xlink:show="new" xlink:title="Entity that is not the primary owner when the ownership of the investment account is split among several owners." xlink:type="simple"><rect fill="#FEFEEE" filter="url(#fyzv3de668w6o)" height="23.9688" id="SecondaryOwner" style="stroke: #A80036; stroke-width: 1.5;" width="111" x="642.75" y="406"/><rect fill="#FEFEEE" height="23.9688" style="stroke: #A80036; stroke-width: 1.5;" width="111" x="642.75" y="406"/><text fill="#000000" font-family="sans-serif" font-size="12" lengthAdjust="spacingAndGlyphs" textLength="105" x="645.75" y="422.1387">SecondaryOwner</text></a><!--class LegalGuardianRole--><a target="_top" xlink:actuate="onRequest" xlink:href="../LegalGuardianRole.html" xlink:show="new" xlink:title="Entity that has been appointed by a legal authority to act on behalf of a person judged to be incapacitated." xlink:type="simple"><rect fill="#FEFEEE" filter="url(#fyzv3de668w6o)" height="23.9688" id="LegalGuardianRole" style="stroke: #A80036; stroke-width: 1.5;" width="123" x="788.75" y="406"/><rect fill="#FEFEEE" height="23.9688" style="stroke: #A80036; stroke-width: 1.5;" width="123" x="788.75" y="406"/><text fill="#000000" font-family="sans-serif" font-size="12" lengthAdjust="spacingAndGlyphs" textLength="117" x="791.75" y="422.1387">LegalGuardianRole</text></a><!--class SuccessorOnDeath--><a target="_top" xlink:actuate="onRequest" xlink:href="../SuccessorOnDeath.html" xlink:show="new" xlink:title="Deceased's estate, or successor, to whom the respective percentage of ownership will be transferred upon the death of one of the owners." xlink:type="simple"><rect fill="#FEFEEE" filter="url(#fyzv3de668w6o)" height="23.9688" id="SuccessorOnDeath" style="stroke: #A80036; stroke-width: 1.5;" width="126" x="947" y="406"/><rect fill="#FEFEEE" height="23.9688" style="stroke: #A80036; stroke-width: 1.5;" width="126" x="947" y="406"/><text fill="#000000" font-family="sans-serif" font-size="12" lengthAdjust="spacingAndGlyphs" textLength="120" x="950" y="422.1387">SuccessorOnDeath</text></a><!--class AdministratorRole--><a target="_top" xlink:actuate="onRequest" xlink:href="../AdministratorRole.html" xlink:show="new" xlink:title="Entity that has been appointed by a legal authority to act on behalf of a person or organisation that has gone bankrupt." xlink:type="simple"><rect fill="#FEFEEE" filter="url(#fyzv3de668w6o)" height="23.9688" id="AdministratorRole" style="stroke: #A80036; stroke-width: 1.5;" width="117" x="1108.75" y="406"/><rect fill="#FEFEEE" height="23.9688" style="stroke: #A80036; stroke-width: 1.5;" width="117" x="1108.75" y="406"/><text fill="#000000" font-family="sans-serif" font-size="12" lengthAdjust="spacingAndGlyphs" textLength="111" x="1111.75" y="422.1387">AdministratorRole</text></a><!--class IndividualInvestor--><a target="_top" xlink:actuate="onRequest" xlink:href="../IndividualInvestor.html" xlink:show="new" xlink:title="Individual person which makes investment decisions in relation with its investment account." xlink:type="simple"><rect fill="#FEFEEE" filter="url(#fyzv3de668w6o)" height="23.9688" id="IndividualInvestor" style="stroke: #A80036; stroke-width: 1.5;" width="114" x="1261" y="406"/><rect fill="#FEFEEE" height="23.9688" style="stroke: #A80036; stroke-width: 1.5;" width="114" x="1261" y="406"/><text fill="#000000" font-family="sans-serif" font-size="12" lengthAdjust="spacingAndGlyphs" textLength="108" x="1264" y="422.1387">IndividualInvestor</text></a><!--class CorporateInvestor--><a target="_top" xlink:actuate="onRequest" xlink:href="../CorporateInvestor.html" xlink:show="new" xlink:title="Corporate that makes investment decisions in relation with its investment account. " xlink:type="simple"><rect fill="#FEFEEE" filter="url(#fyzv3de668w6o)" height="23.9688" id="CorporateInvestor" style="stroke: #A80036; stroke-width: 1.5;" width="119" x="1410.75" y="406"/><rect fill="#FEFEEE" height="23.9688" style="stroke: #A80036; stroke-width: 1.5;" width="119" x="1410.75" y="406"/><text fill="#000000" font-family="sans-serif" font-size="12" lengthAdjust="spacingAndGlyphs" textLength="113" x="1413.75" y="422.1387">CorporateInvestor</text></a><!--class Investor--><a target="_top" xlink:actuate="onRequest" xlink:href="../Investor.html" xlink:show="new" xlink:title="Party which makes investment decisions in relation with its investment account." xlink:type="simple"><rect fill="#FEFEEE" filter="url(#fyzv3de668w6o)" height="23.9688" id="Investor" style="stroke: #A80036; stroke-width: 1.5;" width="56" x="1565.5" y="406"/><rect fill="#FEFEEE" height="23.9688" style="stroke: #A80036; stroke-width: 1.5;" width="56" x="1565.5" y="406"/><text fill="#000000" font-family="sans-serif" font-size="12" lengthAdjust="spacingAndGlyphs" textLength="50" x="1568.5" y="422.1387">Investor</text></a><!--class RolePlayer--><a target="_top" xlink:actuate="onRequest" xlink:href="../RolePlayer.html" xlink:show="new" xlink:title="Type of entity that plays a specific role in a specific context." xlink:type="simple"><rect fill="#EEEEEE" filter="url(#fyzv3de668w6o)" height="23.9688" id="RolePlayer" style="stroke: #A80036; stroke-width: 1.5;" width="71" x="2083.75" y="510"/><rect fill="#EEEEEE" height="23.9688" style="stroke: #A80036; stroke-width: 1.5;" width="71" x="2083.75" y="510"/><text fill="#000000" font-family="sans-serif" font-size="12" lengthAdjust="spacingAndGlyphs" textLength="65" x="2086.75" y="526.1387">RolePlayer</text></a><!--class ContactPersonRole--><a target="_top" xlink:actuate="onRequest" xlink:href="../ContactPersonRole.html" xlink:show="new" xlink:title="Person to be contacted in a given organisation. In the corporate action domain (including meeting notifications) , it is the contact person at the party organising the meeting, at the issuer or at an intermediary." xlink:type="simple"><rect fill="#EEEEEE" filter="url(#fyzv3de668w6o)" height="23.9688" id="ContactPersonRole" style="stroke: #A80036; stroke-width: 1.5;" width="126" x="2036" y="406"/><rect fill="#EEEEEE" height="23.9688" style="stroke: #A80036; stroke-width: 1.5;" width="126" x="2036" y="406"/><text fill="#000000" font-family="sans-serif" font-size="12" lengthAdjust="spacingAndGlyphs" textLength="120" x="2039" y="422.1387">ContactPersonRole</text></a><!--class CounterpartyRisk--><a target="_top" xlink:actuate="onRequest" xlink:href="../CounterpartyRisk.html" xlink:show="new" xlink:title="Calculation of the exposure amount that one party has vis-a-vis one counterparty or a central system, based on its credit risk." xlink:type="simple"><rect fill="#EEEEEE" filter="url(#fyzv3de668w6o)" height="23.9688" id="CounterpartyRisk" style="stroke: #A80036; stroke-width: 1.5;" width="113" x="2042.75" y="285"/><rect fill="#EEEEEE" height="23.9688" style="stroke: #A80036; stroke-width: 1.5;" width="113" x="2042.75" y="285"/><text fill="#000000" font-family="sans-serif" font-size="12" lengthAdjust="spacingAndGlyphs" textLength="107" x="2045.75" y="301.1387">CounterpartyRisk</text></a><!--class Entry--><a target="_top" xlink:actuate="onRequest" xlink:href="../Entry.html" xlink:show="new" xlink:title="Posting to an account that results in an increase or decrease to a balance." xlink:type="simple"><rect fill="#EEEEEE" filter="url(#fyzv3de668w6o)" height="23.9688" id="Entry" style="stroke: #A80036; stroke-width: 1.5;" width="38" x="2036" y="166"/><rect fill="#EEEEEE" height="23.9688" style="stroke: #A80036; stroke-width: 1.5;" width="38" x="2036" y="166"/><text fill="#000000" font-family="sans-serif" font-size="12" lengthAdjust="spacingAndGlyphs" textLength="32" x="2039" y="182.1387">Entry</text></a><!--class Account--><a target="_top" xlink:actuate="onRequest" xlink:href="../Account.html" xlink:show="new" xlink:title="Record of transactions in specific types of assets, maintained by a servicing party on behalf of one or more owning parties. Business relationship between an account servicer and one or more account owners." xlink:type="simple"><rect fill="#EEEEEE" filter="url(#fyzv3de668w6o)" height="23.9688" id="Account" style="stroke: #A80036; stroke-width: 1.5;" width="57" x="1737.75" y="285"/><rect fill="#EEEEEE" height="23.9688" style="stroke: #A80036; stroke-width: 1.5;" width="57" x="1737.75" y="285"/><text fill="#000000" font-family="sans-serif" font-size="12" lengthAdjust="spacingAndGlyphs" textLength="51" x="1740.75" y="301.1387">Account</text></a><!--class InvestmentAccount--><a target="_top" xlink:actuate="onRequest" xlink:href="../InvestmentAccount.html" xlink:show="new" xlink:title="Account between an investor(s) and a fund manager or a fund. The account can contain holdings in any investment fund or investment fund class managed (or distributed) by the fund manager, within the same fund family." xlink:type="simple"><rect fill="#EEEEEE" filter="url(#fyzv3de668w6o)" height="23.9688" id="InvestmentAccount" style="stroke: #A80036; stroke-width: 1.5;" width="126" x="1677" y="598"/><rect fill="#EEEEEE" height="23.9688" style="stroke: #A80036; stroke-width: 1.5;" width="126" x="1677" y="598"/><text fill="#000000" font-family="sans-serif" font-size="12" lengthAdjust="spacingAndGlyphs" textLength="120" x="1680" y="614.1387">InvestmentAccount</text></a><!--class FATCAStatus--><a target="_top" xlink:actuate="onRequest" xlink:href="../FATCAStatus.html" xlink:show="new" xlink:title="Foreign Account Tax Compliance Act (FATCA) status and the status source of the investor." xlink:type="simple"><rect fill="#EEEEEE" filter="url(#fyzv3de668w6o)" height="23.9688" id="FATCAStatus" style="stroke: #A80036; stroke-width: 1.5;" width="85" x="1697.75" y="510"/><rect fill="#EEEEEE" height="23.9688" style="stroke: #A80036; stroke-width: 1.5;" width="85" x="1697.75" y="510"/><text fill="#000000" font-family="sans-serif" font-size="12" lengthAdjust="spacingAndGlyphs" textLength="79" x="1700.75" y="526.1387">FATCAStatus</text></a><!--class CRSStatus--><a target="_top" xlink:actuate="onRequest" xlink:href="../CRSStatus.html" xlink:show="new" xlink:title="Common Reporting Standard (CRS) status and the status source of the investor." xlink:type="simple"><rect fill="#EEEEEE" filter="url(#fyzv3de668w6o)" height="23.9688" id="CRSStatus" style="stroke: #A80036; stroke-width: 1.5;" width="71" x="1677.75" y="406"/><rect fill="#EEEEEE" height="23.9688" style="stroke: #A80036; stroke-width: 1.5;" width="71" x="1677.75" y="406"/><text fill="#000000" font-family="sans-serif" font-size="12" lengthAdjust="spacingAndGlyphs" textLength="65" x="1680.75" y="422.1387">CRSStatus</text></a><!--link Role to AccountPartyRole--><path d="M1533,105.559 C1533,127.159 1533,151.898 1533,165.865 " fill="none" id="Role-AccountPartyRole" style="stroke: #A80036; stroke-width: 1.0;"/><polygon fill="none" points="1526,105.52,1533,85.52,1540,105.52,1526,105.52" style="stroke: #A80036; stroke-width: 1.0;"/><!--link AccountPartyRole to InvestmentAccountPartyRole--><path d="M1470.05,194.941 C1396.02,213.691 1271.78,245.153 1181.57,267.999 " fill="none" id="AccountPartyRole-InvestmentAccountPartyRole" style="stroke: #A80036; stroke-width: 1.0;"/><polygon fill="none" points="1468.43,188.131,1489.54,190.007,1471.87,201.703,1468.43,188.131" style="stroke: #A80036; stroke-width: 1.0;"/><!--link InvestmentAccountPartyRole to PrimaryOwner--><path d="M912.576,304.027 C752.472,311.429 498.241,326.774 280,356 C220.303,363.994 203.577,361.343 147,382 C130.311,388.094 112.752,398.196 100.4239,405.985 " fill="none" id="InvestmentAccountPartyRole-PrimaryOwner" style="stroke: #A80036; stroke-width: 1.0;"/><polygon fill="none" points="912.296,297.033,932.592,303.121,912.93,311.019,912.296,297.033" style="stroke: #A80036; stroke-width: 1.0;"/><!--link InvestmentAccountPartyRole to TrusteeRole--><path d="M912.645,310.097 C784.661,320.46 599.963,336.74 439,356 C360.489,365.394 337.417,355.273 263,382 C247.283,387.645 231.156,397.796 219.911,405.718 " fill="none" id="InvestmentAccountPartyRole-TrusteeRole" style="stroke: #A80036; stroke-width: 1.0;"/><polygon fill="none" points="912.19,303.111,932.687,308.485,913.312,317.066,912.19,303.111" style="stroke: #A80036; stroke-width: 1.0;"/><!--link InvestmentAccountPartyRole to CustodianForMinor--><path d="M912.712,309.88 C804.932,319.229 659.282,334.329 532,356 C482.05,364.504 469.039,365.89 421,382 C401.231,388.63 379.639,398.379 364.033,405.905 " fill="none" id="InvestmentAccountPartyRole-CustodianForMinor" style="stroke: #A80036; stroke-width: 1.0;"/><polygon fill="none" points="912.2,302.898,932.723,308.172,913.391,316.847,912.2,302.898" style="stroke: #A80036; stroke-width: 1.0;"/><!--link InvestmentAccountPartyRole to Nominee--><path d="M912.26,316.49 C830.669,326.72 729.772,340.494 640,356 C584.941,365.51 568.037,359.259 517,382 C503.623,387.961 490.317,398.077 481.12,405.906 " fill="none" id="InvestmentAccountPartyRole-Nominee" style="stroke: #A80036; stroke-width: 1.0;"/><polygon fill="none" points="911.59,309.519,932.3,313.999,913.316,323.412,911.59,309.519" style="stroke: #A80036; stroke-width: 1.0;"/><!--link InvestmentAccountPartyRole to JointOwner--><path d="M912.505,312.665 C825.343,324.446 716.62,345.34 625,382 C610.271,387.893 595.267,398.018 584.826,405.866 " fill="none" id="InvestmentAccountPartyRole-JointOwner" style="stroke: #A80036; stroke-width: 1.0;"/><polygon fill="none" points="911.728,305.707,932.463,310.074,913.53,319.59,911.728,305.707" style="stroke: #A80036; stroke-width: 1.0;"/><!--link InvestmentAccountPartyRole to SecondaryOwner--><path d="M933.271,331.173 C881.724,344.989 823.066,362.4 771,382 C752.848,388.833 733.053,398.47 718.661,405.902 " fill="none" id="InvestmentAccountPartyRole-SecondaryOwner" style="stroke: #A80036; stroke-width: 1.0;"/><polygon fill="none" points="931.526,324.394,952.65,326.057,935.1,337.93,931.526,324.394" style="stroke: #A80036; stroke-width: 1.0;"/><!--link InvestmentAccountPartyRole to LegalGuardianRole--><path d="M1001.221,335.574 C955.978,359.935 900.148,389.997 870.602,405.906 " fill="none" id="InvestmentAccountPartyRole-LegalGuardianRole" style="stroke: #A80036; stroke-width: 1.0;"/><polygon fill="none" points="997.978,329.369,1018.91,326.051,1004.615,341.696,997.978,329.369" style="stroke: #A80036; stroke-width: 1.0;"/><!--link InvestmentAccountPartyRole to SuccessorOnDeath--><path d="M1047.36,344.12 C1035.86,366.56 1022.98,391.677 1015.75,405.79 " fill="none" id="InvestmentAccountPartyRole-SuccessorOnDeath" style="stroke: #A80036; stroke-width: 1.0;"/><polygon fill="none" points="1041.19,340.806,1056.54,326.201,1053.65,347.192,1041.19,340.806" style="stroke: #A80036; stroke-width: 1.0;"/><!--link InvestmentAccountPartyRole to AdministratorRole--><path d="M1106.31,341.775 C1124.88,364.788 1146.17,391.183 1157.96,405.79 " fill="none" id="InvestmentAccountPartyRole-AdministratorRole" style="stroke: #A80036; stroke-width: 1.0;"/><polygon fill="none" points="1100.86,346.163,1093.75,326.201,1111.76,337.372,1100.86,346.163" style="stroke: #A80036; stroke-width: 1.0;"/><!--link InvestmentAccountPartyRole to IndividualInvestor--><path d="M1147.31,334.765 C1198.17,359.266 1261.59,389.821 1294.97,405.906 " fill="none" id="InvestmentAccountPartyRole-IndividualInvestor" style="stroke: #A80036; stroke-width: 1.0;"/><polygon fill="none" points="1144.2,341.038,1129.22,326.051,1150.28,328.425,1144.2,341.038" style="stroke: #A80036; stroke-width: 1.0;"/><!--link InvestmentAccountPartyRole to CorporateInvestor--><path d="M1217.45,330.886 C1272.76,344.719 1335.87,362.216 1392,382 C1411.32,388.809 1432.47,398.447 1447.87,405.886 " fill="none" id="InvestmentAccountPartyRole-CorporateInvestor" style="stroke: #A80036; stroke-width: 1.0;"/><polygon fill="none" points="1215.59,337.636,1197.85,326.053,1218.94,324.043,1215.59,337.636" style="stroke: #A80036; stroke-width: 1.0;"/><!--link InvestmentAccountPartyRole to Investor--><path d="M1229.57,307.577 C1324.5,317.753 1445.79,338.737 1546,382 C1559.26,387.726 1572.27,397.869 1581.23,405.766 " fill="none" id="InvestmentAccountPartyRole-Investor" style="stroke: #A80036; stroke-width: 1.0;"/><polygon fill="none" points="1228.61,314.516,1209.42,305.536,1230.02,300.587,1228.61,314.516" style="stroke: #A80036; stroke-width: 1.0;"/><!--link ContactPersonRole to RolePlayer--><!--link CounterpartyRisk to ContactPersonRole--><!--link Entry to CounterpartyRisk--><!--link FATCAStatus to InvestmentAccount--><!--link CRSStatus to FATCAStatus--><!--link Role to RolePlayer--><path d="M1620.67,65.633 C1851.06,71.082 2456,93.354 2456,177 C2456,177 2456,177 2456,419 C2456,480.283 2249.27,508.14 2159.64,517.338 " fill="none" id="Role-RolePlayer" style="stroke: #A80036; stroke-width: 1.0;"/><polygon fill="#A80036" points="2154.43,517.866,2163.7849,520.9458,2159.4049,517.3659,2162.9848,512.9859,2154.43,517.866" style="stroke: #A80036; stroke-width: 1.0;"/><text fill="#000000" font-family="sans-serif" font-size="13" lengthAdjust="spacingAndGlyphs" textLength="39" x="2457" y="301.0669">Player</text><text fill="#000000" font-family="sans-serif" font-size="13" lengthAdjust="spacingAndGlyphs" textLength="7" x="2162.8912" y="511.1872">*</text><!--link Role to ContactPersonRole--><path d="M1620.48,67.111 C1799.39,74.406 2193.6,95.622 2232,142 C2303.39,228.214 2166.65,359.2 2116.45,402.526 " fill="none" id="Role-ContactPersonRole" style="stroke: #A80036; stroke-width: 1.0;"/><polygon fill="#A80036" points="2112.43,405.969,2121.866,403.1472,2116.2257,402.7143,2116.6585,397.0741,2112.43,405.969" style="stroke: #A80036; stroke-width: 1.0;"/><text fill="#000000" font-family="sans-serif" font-size="13" lengthAdjust="spacingAndGlyphs" textLength="121" x="2251" y="233.0669">ContactPersonRole</text><text fill="#000000" font-family="sans-serif" font-size="13" lengthAdjust="spacingAndGlyphs" textLength="8" x="2106.3278" y="395.0066">1</text><!--link Role to CounterpartyRisk--><path d="M1620.42,63.257 C1761.39,64.093 2029.37,74.759 2091,142 C2126.06,180.246 2112.62,248.835 2104.02,279.913 " fill="none" id="Role-CounterpartyRisk" style="stroke: #A80036; stroke-width: 1.0;"/><polygon fill="#A80036" points="2102.59,284.917,2108.911,277.3642,2103.9651,280.1098,2101.2195,275.164,2102.59,284.917" style="stroke: #A80036; stroke-width: 1.0;"/><text fill="#000000" font-family="sans-serif" font-size="13" lengthAdjust="spacingAndGlyphs" textLength="109" x="2113" y="182.0669">CounterpartyRisk</text><text fill="#000000" font-family="sans-serif" font-size="13" lengthAdjust="spacingAndGlyphs" textLength="24" x="2074.2694" y="273.9367">0..1</text><!--link Role to Entry--><path d="M1620.37,82.914 C1742.81,109.42 1958.56,156.124 2030.72,171.744 " fill="none" id="Role-Entry" style="stroke: #A80036; stroke-width: 1.0;"/><polygon fill="#A80036" points="2035.67,172.815,2027.7191,167.0026,2030.783,171.7579,2026.0278,174.8218,2035.67,172.815" style="stroke: #A80036; stroke-width: 1.0;"/><text fill="#000000" font-family="sans-serif" font-size="13" lengthAdjust="spacingAndGlyphs" textLength="33" x="1858" y="129.0669">Entry</text><text fill="#000000" font-family="sans-serif" font-size="13" lengthAdjust="spacingAndGlyphs" textLength="8" x="2020.1313" y="165.2261">1</text><!--link AccountPartyRole to Account--><path d="M1554.92,190.007 C1597.85,211.566 1692.88,259.283 1739.36,282.621 " fill="none" id="AccountPartyRole-Account" style="stroke: #A80036; stroke-width: 1.0;"/><polygon fill="#A80036" points="1743.97,284.937,1737.7401,277.3089,1739.507,282.6827,1734.1332,284.4496,1743.97,284.937" style="stroke: #A80036; stroke-width: 1.0;"/><text fill="#000000" font-family="sans-serif" font-size="13" lengthAdjust="spacingAndGlyphs" textLength="52" x="1651" y="233.0669">Account</text><text fill="#000000" font-family="sans-serif" font-size="13" lengthAdjust="spacingAndGlyphs" textLength="7" x="1726.7644" y="273.9636">*</text><!--link InvestmentAccountPartyRole to InvestmentAccount--><path d="M1209.56,302.025 C1427.71,309.886 1830.71,331.183 1871,382 C1929.17,455.374 1809.17,557.4692 1759.86,594.6958 " fill="none" id="InvestmentAccountPartyRole-InvestmentAccount" style="stroke: #A80036; stroke-width: 1.0;"/><polygon fill="#A80036" points="1755.59,597.8866,1765.1959,595.7127,1759.5981,594.8975,1760.4134,589.2997,1755.59,597.8866" style="stroke: #A80036; stroke-width: 1.0;"/><text fill="#000000" font-family="sans-serif" font-size="13" lengthAdjust="spacingAndGlyphs" textLength="124" x="1879" y="475.0669">InvestmentAccount</text><text fill="#000000" font-family="sans-serif" font-size="13" lengthAdjust="spacingAndGlyphs" textLength="7" x="1751.4022" y="586.8958">*</text><!--link InvestmentAccountPartyRole to FATCAStatus--><path d="M1209.33,304.079 C1402.48,314.133 1733.04,337.664 1765,382 C1792.11,419.606 1765.54,477.48 1749.79,505.173 " fill="none" id="InvestmentAccountPartyRole-FATCAStatus" style="stroke: #A80036; stroke-width: 1.0;"/><polygon fill="#A80036" points="1747.18,509.667,1755.1579,503.8917,1749.6903,505.3428,1748.2392,499.8753,1747.18,509.667" style="stroke: #A80036; stroke-width: 1.0;"/><text fill="#000000" font-family="sans-serif" font-size="13" lengthAdjust="spacingAndGlyphs" textLength="83" x="1778" y="422.0669">FATCAStatus</text><text fill="#000000" font-family="sans-serif" font-size="13" lengthAdjust="spacingAndGlyphs" textLength="7" x="1739.9849" y="498.8601">*</text><!--link InvestmentAccountPartyRole to CRSStatus--><path d="M1209.28,305.256 C1325.79,314.48 1495.63,335.289 1637,382 C1654.35,387.732 1673,396.281 1687.48,403.495 " fill="none" id="InvestmentAccountPartyRole-CRSStatus" style="stroke: #A80036; stroke-width: 1.0;"/><polygon fill="#A80036" points="1692.22,405.884,1685.9726,398.2702,1687.7519,403.6399,1682.3821,405.4192,1692.22,405.884" style="stroke: #A80036; stroke-width: 1.0;"/><text fill="#000000" font-family="sans-serif" font-size="13" lengthAdjust="spacingAndGlyphs" textLength="68" x="1609" y="369.0669">CRSStatus</text><text fill="#000000" font-family="sans-serif" font-size="13" lengthAdjust="spacingAndGlyphs" textLength="8" x="1674.2722" y="394.8923">1</text><!--link Entry to Account--><path d="M2035.59,186.858 C1986.84,206.593 1858.87,258.403 1798.46,282.86 " fill="none" id="Entry-Account" style="stroke: #A80036; stroke-width: 1.0;"/><polygon fill="#A80036" points="1793.53,284.856,1803.3739,285.1689,1798.1613,282.9715,1800.3587,277.7589,1793.53,284.856" style="stroke: #A80036; stroke-width: 1.0;"/><text fill="#000000" font-family="sans-serif" font-size="13" lengthAdjust="spacingAndGlyphs" textLength="52" x="1955" y="233.0669">Account</text><text fill="#000000" font-family="sans-serif" font-size="13" lengthAdjust="spacingAndGlyphs" textLength="7" x="1793.3606" y="273.8547">*</text><!--link Account to Account--><path d="M1794.51,285.15 C1812.18,282.292 1829,286.242 1829,297 C1829,306.665 1815.42,310.835 1799.85,309.51 " fill="none" id="Account-Account" style="stroke: #A80036; stroke-width: 1.0;"/><polygon fill="#A80036" points="1794.51,308.85,1802.9647,313.9016,1799.4738,309.4503,1803.9251,305.9595,1794.51,308.85" style="stroke: #A80036; stroke-width: 1.0;"/><text fill="#000000" font-family="sans-serif" font-size="13" lengthAdjust="spacingAndGlyphs" textLength="94" x="1835" y="301.0669">ParentAccount</text><text fill="#000000" font-family="sans-serif" font-size="13" lengthAdjust="spacingAndGlyphs" textLength="8" x="1795.1048" y="328.9326">1</text></g></svg>