<?xml version="1.0" encoding="UTF-8" standalone="no"?><svg xmlns="http://www.w3.org/2000/svg" xmlns:xlink="http://www.w3.org/1999/xlink" contentScriptType="application/ecmascript" contentStyleType="text/css" height="484px" preserveAspectRatio="none" style="width:2117px;height:484px;" version="1.1" viewBox="0 0 2117 484" width="2117px" zoomAndPan="magnify"><defs><filter height="300%" id="fqe04gm40cfe7" width="300%" x="-1" y="-1"><feGaussianBlur result="blurOut" stdDeviation="2.0"/><feColorMatrix in="blurOut" result="blurOut2" type="matrix" values="0 0 0 0 0 0 0 0 0 0 0 0 0 0 0 0 0 0 .4 0"/><feOffset dx="4.0" dy="4.0" in="blurOut2" result="blurOut3"/><feBlend in="SourceGraphic" in2="blurOut3" mode="normal"/></filter></defs><g><!--cluster ##5397--><!--cluster ##5430--><!--cluster ##5439--><!--class Role--><a target="_top" xlink:actuate="onRequest" xlink:href="../Role.html" xlink:show="new" xlink:title="Role of a party in an activity." xlink:type="simple"><rect fill="#FEFEEE" filter="url(#fqe04gm40cfe7)" height="44.7734" id="Role" style="stroke: #A80036; stroke-width: 1.5;" width="175" x="1034.75" y="40.5"/><rect fill="#FEFEEE" height="23.9688" style="stroke: #A80036; stroke-width: 1.5;" width="175" x="1034.75" y="40.5"/><text fill="#000000" font-family="sans-serif" font-size="12" lengthAdjust="spacingAndGlyphs" textLength="27" x="1108.75" y="56.6387">Role</text><line style="stroke: #A80036; stroke-width: 1.5;" x1="1035.75" x2="1208.75" y1="64.4688" y2="64.4688"/><ellipse cx="1045.75" cy="76.3711" fill="#84BE84" rx="3" ry="3" style="stroke: #038048; stroke-width: 1.0;"/><text fill="#000000" font-family="sans-serif" font-size="11" lengthAdjust="spacingAndGlyphs" textLength="53" x="1054.75" y="78.6792">PartyRole</text><text fill="#000000" font-family="sans-serif" font-size="11" font-style="italic" lengthAdjust="spacingAndGlyphs" textLength="92" x="1111.75" y="78.6792">(PartyRoleCode)</text></a><!--class InvestmentFundPartyRole--><a target="_top" xlink:actuate="onRequest" xlink:href="../InvestmentFundPartyRole.html" xlink:show="new" xlink:title="Specifies roles played by a party that are linked to the handling of investment funds but not related to a specific process." xlink:type="simple"><rect fill="#FEFECE" filter="url(#fqe04gm40cfe7)" height="23.9688" id="InvestmentFundPartyRole" style="stroke: #A80036; stroke-width: 1.5;" width="165" x="655.75" y="166"/><rect fill="#FEFECE" height="23.9688" style="stroke: #A80036; stroke-width: 1.5;" width="165" x="655.75" y="166"/><text fill="#000000" font-family="sans-serif" font-size="12" lengthAdjust="spacingAndGlyphs" textLength="159" x="658.75" y="182.1387">InvestmentFundPartyRole</text></a><!--class Grantor--><a target="_top" xlink:actuate="onRequest" xlink:href="../Grantor.html" xlink:show="new" xlink:title="Grantor role in the hedge funds industry." xlink:type="simple"><rect fill="#FEFEEE" filter="url(#fqe04gm40cfe7)" height="23.9688" id="Grantor" style="stroke: #A80036; stroke-width: 1.5;" width="54" x="38" y="270"/><rect fill="#FEFEEE" height="23.9688" style="stroke: #A80036; stroke-width: 1.5;" width="54" x="38" y="270"/><text fill="#000000" font-family="sans-serif" font-size="12" lengthAdjust="spacingAndGlyphs" textLength="48" x="41" y="286.1387">Grantor</text></a><!--class Settlor--><a target="_top" xlink:actuate="onRequest" xlink:href="../Settlor.html" xlink:show="new" xlink:title="Entity that creates a trust or contributes assets to the trust." xlink:type="simple"><rect fill="#FEFEEE" filter="url(#fqe04gm40cfe7)" height="23.9688" id="Settlor" style="stroke: #A80036; stroke-width: 1.5;" width="48" x="127" y="270"/><rect fill="#FEFEEE" height="23.9688" style="stroke: #A80036; stroke-width: 1.5;" width="48" x="127" y="270"/><text fill="#000000" font-family="sans-serif" font-size="12" lengthAdjust="spacingAndGlyphs" textLength="42" x="130" y="286.1387">Settlor</text></a><!--class FundManagerRole--><a target="_top" xlink:actuate="onRequest" xlink:href="../FundManagerRole.html" xlink:show="new" xlink:title="Legal entity that sets up a fund, appoints agents, decides and implements an investment strategy. That is, selects portfolio investments in accordance with the objectives and strategy in the fund's prospectus, and places orders to effect or liquidate selected investments in accordance with net flow of capital into or out of the fund. Also called fund promoter or fund sponsor." xlink:type="simple"><rect fill="#FEFEEE" filter="url(#fqe04gm40cfe7)" height="23.9688" id="FundManagerRole" style="stroke: #A80036; stroke-width: 1.5;" width="119" x="210.75" y="270"/><rect fill="#FEFEEE" height="23.9688" style="stroke: #A80036; stroke-width: 1.5;" width="119" x="210.75" y="270"/><text fill="#000000" font-family="sans-serif" font-size="12" lengthAdjust="spacingAndGlyphs" textLength="113" x="213.75" y="286.1387">FundManagerRole</text></a><!--class Auditor--><a target="_top" xlink:actuate="onRequest" xlink:href="../Auditor.html" xlink:show="new" xlink:title="Party in charge of examining and verifying a fund's financial and accounting records as well as supporting documents." xlink:type="simple"><rect fill="#FEFEEE" filter="url(#fqe04gm40cfe7)" height="23.9688" id="Auditor" style="stroke: #A80036; stroke-width: 1.5;" width="51" x="364.75" y="270"/><rect fill="#FEFEEE" height="23.9688" style="stroke: #A80036; stroke-width: 1.5;" width="51" x="364.75" y="270"/><text fill="#000000" font-family="sans-serif" font-size="12" lengthAdjust="spacingAndGlyphs" textLength="45" x="367.75" y="286.1387">Auditor</text></a><!--class FundAccountantRole--><a target="_top" xlink:actuate="onRequest" xlink:href="../FundAccountantRole.html" xlink:show="new" xlink:title="Party that keeps accounting records of available assets and liabilities of a fund. It calculates dealing prices, the net asset value (NAV) of the fund, and may provide fund performance and tax data. Can be sub-contracted by the fund administrator." xlink:type="simple"><rect fill="#FEFEEE" filter="url(#fqe04gm40cfe7)" height="23.9688" id="FundAccountantRole" style="stroke: #A80036; stroke-width: 1.5;" width="136" x="451" y="270"/><rect fill="#FEFEEE" height="23.9688" style="stroke: #A80036; stroke-width: 1.5;" width="136" x="451" y="270"/><text fill="#000000" font-family="sans-serif" font-size="12" lengthAdjust="spacingAndGlyphs" textLength="130" x="454" y="286.1387">FundAccountantRole</text></a><!--class FundAdministratorRole--><a target="_top" xlink:actuate="onRequest" xlink:href="../FundAdministratorRole.html" xlink:show="new" xlink:title="Party in charge of financial accounting, net asset value (NAV) calculation, management and performance fee calculation. Can also be in charge of orders centralisation and registration." xlink:type="simple"><rect fill="#FEFEEE" filter="url(#fqe04gm40cfe7)" height="23.9688" id="FundAdministratorRole" style="stroke: #A80036; stroke-width: 1.5;" width="148" x="622" y="270"/><rect fill="#FEFEEE" height="23.9688" style="stroke: #A80036; stroke-width: 1.5;" width="148" x="622" y="270"/><text fill="#000000" font-family="sans-serif" font-size="12" lengthAdjust="spacingAndGlyphs" textLength="142" x="625" y="286.1387">FundAdministratorRole</text></a><!--class FundOrderDesk--><a target="_top" xlink:actuate="onRequest" xlink:href="../FundOrderDesk.html" xlink:show="new" xlink:title="Principal entity appointed by the fund to which orders should be submitted." xlink:type="simple"><rect fill="#FEFEEE" filter="url(#fqe04gm40cfe7)" height="23.9688" id="FundOrderDesk" style="stroke: #A80036; stroke-width: 1.5;" width="103" x="805.75" y="270"/><rect fill="#FEFEEE" height="23.9688" style="stroke: #A80036; stroke-width: 1.5;" width="103" x="805.75" y="270"/><text fill="#000000" font-family="sans-serif" font-size="12" lengthAdjust="spacingAndGlyphs" textLength="97" x="808.75" y="286.1387">FundOrderDesk</text></a><!--class PlacementAgent--><a target="_top" xlink:actuate="onRequest" xlink:href="../PlacementAgent.html" xlink:show="new" xlink:title="Party that helps hedge funds to refine their strategy. May also introduce partners such as fund of funds, pension funds, insurance companies and family offices." xlink:type="simple"><rect fill="#FEFEEE" filter="url(#fqe04gm40cfe7)" height="23.9688" id="PlacementAgent" style="stroke: #A80036; stroke-width: 1.5;" width="109" x="943.75" y="270"/><rect fill="#FEFEEE" height="23.9688" style="stroke: #A80036; stroke-width: 1.5;" width="109" x="943.75" y="270"/><text fill="#000000" font-family="sans-serif" font-size="12" lengthAdjust="spacingAndGlyphs" textLength="103" x="946.75" y="286.1387">PlacementAgent</text></a><!--class TransferAgentRole--><a target="_top" xlink:actuate="onRequest" xlink:href="../TransferAgentRole.html" xlink:show="new" xlink:title="Party appointed by a fund management company. It updates records of investor accounts to reflect the daily investor purchases, redemptions, switches, transfers, and re-registrations. It ensures the timely settlement of transactions, and may provide tax information to the investor and/or to its intermediaries. It may calculate, collect, and rebate commissions. It prepares and distributes confirmations reflecting transactions, resulting in unit or cash account movements to the investor or the investor's intermediary. It responds to inquiries concerning account status, and processes the income distribution." xlink:type="simple"><rect fill="#FEFEEE" filter="url(#fqe04gm40cfe7)" height="23.9688" id="TransferAgentRole" style="stroke: #A80036; stroke-width: 1.5;" width="122" x="1088" y="270"/><rect fill="#FEFEEE" height="23.9688" style="stroke: #A80036; stroke-width: 1.5;" width="122" x="1088" y="270"/><text fill="#000000" font-family="sans-serif" font-size="12" lengthAdjust="spacingAndGlyphs" textLength="116" x="1091" y="286.1387">TransferAgentRole</text></a><!--class RolePlayer--><a target="_top" xlink:actuate="onRequest" xlink:href="../RolePlayer.html" xlink:show="new" xlink:title="Type of entity that plays a specific role in a specific context." xlink:type="simple"><rect fill="#EEEEEE" filter="url(#fqe04gm40cfe7)" height="23.9688" id="RolePlayer" style="stroke: #A80036; stroke-width: 1.5;" width="71" x="1692.75" y="450"/><rect fill="#EEEEEE" height="23.9688" style="stroke: #A80036; stroke-width: 1.5;" width="71" x="1692.75" y="450"/><text fill="#000000" font-family="sans-serif" font-size="12" lengthAdjust="spacingAndGlyphs" textLength="65" x="1695.75" y="466.1387">RolePlayer</text></a><!--class ContactPersonRole--><a target="_top" xlink:actuate="onRequest" xlink:href="../ContactPersonRole.html" xlink:show="new" xlink:title="Person to be contacted in a given organisation. In the corporate action domain (including meeting notifications) , it is the contact person at the party organising the meeting, at the issuer or at an intermediary." xlink:type="simple"><rect fill="#EEEEEE" filter="url(#fqe04gm40cfe7)" height="23.9688" id="ContactPersonRole" style="stroke: #A80036; stroke-width: 1.5;" width="126" x="1645" y="360"/><rect fill="#EEEEEE" height="23.9688" style="stroke: #A80036; stroke-width: 1.5;" width="126" x="1645" y="360"/><text fill="#000000" font-family="sans-serif" font-size="12" lengthAdjust="spacingAndGlyphs" textLength="120" x="1648" y="376.1387">ContactPersonRole</text></a><!--class CounterpartyRisk--><a target="_top" xlink:actuate="onRequest" xlink:href="../CounterpartyRisk.html" xlink:show="new" xlink:title="Calculation of the exposure amount that one party has vis-a-vis one counterparty or a central system, based on its credit risk." xlink:type="simple"><rect fill="#EEEEEE" filter="url(#fqe04gm40cfe7)" height="23.9688" id="CounterpartyRisk" style="stroke: #A80036; stroke-width: 1.5;" width="113" x="1657.75" y="270"/><rect fill="#EEEEEE" height="23.9688" style="stroke: #A80036; stroke-width: 1.5;" width="113" x="1657.75" y="270"/><text fill="#000000" font-family="sans-serif" font-size="12" lengthAdjust="spacingAndGlyphs" textLength="107" x="1660.75" y="286.1387">CounterpartyRisk</text></a><!--class Entry--><a target="_top" xlink:actuate="onRequest" xlink:href="../Entry.html" xlink:show="new" xlink:title="Posting to an account that results in an increase or decrease to a balance." xlink:type="simple"><rect fill="#EEEEEE" filter="url(#fqe04gm40cfe7)" height="23.9688" id="Entry" style="stroke: #A80036; stroke-width: 1.5;" width="38" x="1645" y="166"/><rect fill="#EEEEEE" height="23.9688" style="stroke: #A80036; stroke-width: 1.5;" width="38" x="1645" y="166"/><text fill="#000000" font-family="sans-serif" font-size="12" lengthAdjust="spacingAndGlyphs" textLength="32" x="1648" y="182.1387">Entry</text></a><!--class Account--><a target="_top" xlink:actuate="onRequest" xlink:href="../Account.html" xlink:show="new" xlink:title="Record of transactions in specific types of assets, maintained by a servicing party on behalf of one or more owning parties. Business relationship between an account servicer and one or more account owners." xlink:type="simple"><rect fill="#EEEEEE" filter="url(#fqe04gm40cfe7)" height="23.9688" id="Account" style="stroke: #A80036; stroke-width: 1.5;" width="57" x="1266.75" y="360"/><rect fill="#EEEEEE" height="23.9688" style="stroke: #A80036; stroke-width: 1.5;" width="57" x="1266.75" y="360"/><text fill="#000000" font-family="sans-serif" font-size="12" lengthAdjust="spacingAndGlyphs" textLength="51" x="1269.75" y="376.1387">Account</text></a><!--class InvestmentFund--><a target="_top" xlink:actuate="onRequest" xlink:href="../InvestmentFund.html" xlink:show="new" xlink:title="Distinct pool of financial instruments managed by a single investment policy. May or not be part of an umbrella fund. The pool is issued in at least one investment fund class." xlink:type="simple"><rect fill="#EEEEEE" filter="url(#fqe04gm40cfe7)" height="23.9688" id="InvestmentFund" style="stroke: #A80036; stroke-width: 1.5;" width="106" x="1266.5" y="270"/><rect fill="#EEEEEE" height="23.9688" style="stroke: #A80036; stroke-width: 1.5;" width="106" x="1266.5" y="270"/><text fill="#000000" font-family="sans-serif" font-size="12" lengthAdjust="spacingAndGlyphs" textLength="100" x="1269.5" y="286.1387">InvestmentFund</text></a><!--link Role to InvestmentFundPartyRole--><path d="M1029.48,91.227 C948.164,115.155 833.966,148.76 775.587,165.939 " fill="none" id="Role-InvestmentFundPartyRole" style="stroke: #A80036; stroke-width: 1.0;"/><polygon fill="none" points="1027.71,84.451,1048.87,85.52,1031.66,97.882,1027.71,84.451" style="stroke: #A80036; stroke-width: 1.0;"/><!--link InvestmentFundPartyRole to Grantor--><path d="M635.25,181.584 C528.183,185.531 355.864,195.415 209,220 C163.708,227.582 150.084,225.483 109,246 C96.7745,252.105 84.7614,262.001 76.3848,269.714 " fill="none" id="InvestmentFundPartyRole-Grantor" style="stroke: #A80036; stroke-width: 1.0;"/><polygon fill="none" points="635.209,174.581,655.44,180.882,635.695,188.573,635.209,174.581" style="stroke: #A80036; stroke-width: 1.0;"/><!--link InvestmentFundPartyRole to Settlor--><path d="M635.602,184.414 C500.237,192.793 269.886,211.638 193,246 C180.522,251.577 168.792,261.954 160.918,269.967 " fill="none" id="InvestmentFundPartyRole-Settlor" style="stroke: #A80036; stroke-width: 1.0;"/><polygon fill="none" points="635.28,177.421,655.664,183.206,636.121,191.396,635.28,177.421" style="stroke: #A80036; stroke-width: 1.0;"/><!--link InvestmentFundPartyRole to FundManagerRole--><path d="M635.566,187.053 C555.277,195.608 441.685,212.708 347,246 C327.744,252.77 306.698,262.507 291.483,269.993 " fill="none" id="InvestmentFundPartyRole-FundManagerRole" style="stroke: #A80036; stroke-width: 1.0;"/><polygon fill="none" points="634.881,180.087,655.485,185.033,636.294,194.015,634.881,180.087" style="stroke: #A80036; stroke-width: 1.0;"/><!--link InvestmentFundPartyRole to Auditor--><path d="M635.586,189.392 C574.457,198.493 496.604,215.298 433,246 C420.691,251.942 408.807,262.061 400.664,269.894 " fill="none" id="InvestmentFundPartyRole-Auditor" style="stroke: #A80036; stroke-width: 1.0;"/><polygon fill="none" points="634.855,182.426,655.631,186.592,636.792,196.292,634.855,182.426" style="stroke: #A80036; stroke-width: 1.0;"/><!--link InvestmentFundPartyRole to FundAccountantRole--><path d="M695.806,198.652 C650.314,219.84 579.502,252.821 542.824,269.904 " fill="none" id="InvestmentFundPartyRole-FundAccountantRole" style="stroke: #A80036; stroke-width: 1.0;"/><polygon fill="none" points="693.061,192.209,714.146,190.11,698.972,204.9,693.061,192.209" style="stroke: #A80036; stroke-width: 1.0;"/><!--link InvestmentFundPartyRole to FundAdministratorRole--><path d="M725.661,208.965 C717.22,229.465 706.516,255.461 700.548,269.954 " fill="none" id="InvestmentFundPartyRole-FundAdministratorRole" style="stroke: #A80036; stroke-width: 1.0;"/><polygon fill="none" points="719.257,206.134,733.345,190.306,732.202,211.464,719.257,206.134" style="stroke: #A80036; stroke-width: 1.0;"/><!--link InvestmentFundPartyRole to FundOrderDesk--><path d="M766.708,203.607 C791.341,224.721 825.692,254.165 844.113,269.954 " fill="none" id="InvestmentFundPartyRole-FundOrderDesk" style="stroke: #A80036; stroke-width: 1.0;"/><polygon fill="none" points="761.819,208.636,751.19,190.306,770.93,198.007,761.819,208.636" style="stroke: #A80036; stroke-width: 1.0;"/><!--link InvestmentFundPartyRole to PlacementAgent--><path d="M791.319,196.469 C829.037,209.223 880.594,227.457 925,246 C942.639,253.365 962.139,262.783 976.545,269.994 " fill="none" id="InvestmentFundPartyRole-PlacementAgent" style="stroke: #A80036; stroke-width: 1.0;"/><polygon fill="none" points="788.93,203.051,772.184,190.068,793.371,189.775,788.93,203.051" style="stroke: #A80036; stroke-width: 1.0;"/><!--link InvestmentFundPartyRole to TransferAgentRole--><path d="M836.322,193.267 C902.907,204.293 992.37,221.785 1069,246 C1089.24,252.395 1111.27,262.263 1127.07,269.893 " fill="none" id="InvestmentFundPartyRole-TransferAgentRole" style="stroke: #A80036; stroke-width: 1.0;"/><polygon fill="none" points="835.059,200.154,816.432,190.052,837.292,186.333,835.059,200.154" style="stroke: #A80036; stroke-width: 1.0;"/><!--link ContactPersonRole to RolePlayer--><!--link CounterpartyRisk to ContactPersonRole--><!--link Entry to CounterpartyRisk--><!--link InvestmentFund to Account--><!--link Role to RolePlayer--><path d="M1209.45,65.394 C1443.22,70.275 2065,91.311 2065,177 C2065,177 2065,177 2065,373 C2065,433.6217 1858.27,453.2654 1768.64,458.9332 " fill="none" id="Role-RolePlayer" style="stroke: #A80036; stroke-width: 1.0;"/><polygon fill="#A80036" points="1763.43,459.2555,1772.6636,462.6819,1768.4201,458.9412,1772.1608,454.6977,1763.43,459.2555" style="stroke: #A80036; stroke-width: 1.0;"/><text fill="#000000" font-family="sans-serif" font-size="13" lengthAdjust="spacingAndGlyphs" textLength="39" x="2066" y="286.0669">Player</text><text fill="#000000" font-family="sans-serif" font-size="13" lengthAdjust="spacingAndGlyphs" textLength="7" x="1771.8913" y="452.8806">*</text><!--link Role to ContactPersonRole--><path d="M1209.31,66.802 C1392.23,73.603 1802.16,94.082 1842,142 C1880.79,188.662 1819.99,279.437 1788,318 C1774.1,334.761 1753.54,348.223 1736.74,357.386 " fill="none" id="Role-ContactPersonRole" style="stroke: #A80036; stroke-width: 1.0;"/><polygon fill="#A80036" points="1732.11,359.855,1741.933,359.1415,1736.5199,357.4986,1738.1628,352.0856,1732.11,359.855" style="stroke: #A80036; stroke-width: 1.0;"/><text fill="#000000" font-family="sans-serif" font-size="13" lengthAdjust="spacingAndGlyphs" textLength="121" x="1847" y="233.0669">ContactPersonRole</text><text fill="#000000" font-family="sans-serif" font-size="13" lengthAdjust="spacingAndGlyphs" textLength="8" x="1729.6791" y="348.8534">1</text><!--link Role to CounterpartyRisk--><path d="M1209.25,63.104 C1353.88,63.607 1633.93,73.661 1700,142 C1732.06,175.159 1724.21,235.755 1718.06,264.728 " fill="none" id="Role-CounterpartyRisk" style="stroke: #A80036; stroke-width: 1.0;"/><polygon fill="#A80036" points="1716.94,269.757,1722.8042,261.8443,1718.029,264.877,1714.9963,260.1018,1716.94,269.757" style="stroke: #A80036; stroke-width: 1.0;"/><text fill="#000000" font-family="sans-serif" font-size="13" lengthAdjust="spacingAndGlyphs" textLength="109" x="1723" y="182.0669">CounterpartyRisk</text><text fill="#000000" font-family="sans-serif" font-size="13" lengthAdjust="spacingAndGlyphs" textLength="24" x="1688.5248" y="258.9799">0..1</text><!--link Role to Entry--><path d="M1209.38,82.218 C1336.29,108.676 1564.61,156.279 1639.49,171.889 " fill="none" id="Role-Entry" style="stroke: #A80036; stroke-width: 1.0;"/><polygon fill="#A80036" points="1644.61,172.957,1636.609,167.2139,1639.714,171.9424,1634.9855,175.0474,1644.61,172.957" style="stroke: #A80036; stroke-width: 1.0;"/><text fill="#000000" font-family="sans-serif" font-size="13" lengthAdjust="spacingAndGlyphs" textLength="33" x="1459" y="129.0669">Entry</text><text fill="#000000" font-family="sans-serif" font-size="13" lengthAdjust="spacingAndGlyphs" textLength="8" x="1629.0552" y="165.4063">1</text><!--link InvestmentFundPartyRole to Account--><path d="M820.355,180.887 C987.733,185.646 1354.7,201.139 1388,246 C1407.07,271.694 1404.08,290.332 1388,318 C1375.15,340.108 1349.25,353.762 1328.04,361.663 " fill="none" id="InvestmentFundPartyRole-Account" style="stroke: #A80036; stroke-width: 1.0;"/><polygon fill="#A80036" points="1323.31,363.358,1333.1317,364.0885,1328.0171,361.6718,1330.4338,356.5572,1323.31,363.358" style="stroke: #A80036; stroke-width: 1.0;"/><text fill="#000000" font-family="sans-serif" font-size="13" lengthAdjust="spacingAndGlyphs" textLength="52" x="1403" y="286.0669">Account</text><text fill="#000000" font-family="sans-serif" font-size="13" lengthAdjust="spacingAndGlyphs" textLength="7" x="1331.7917" y="354.84">*</text><!--link InvestmentFundPartyRole to InvestmentFund--><path d="M820.669,184.689 C918.602,192.723 1086.11,210.55 1226,246 C1247.71,251.501 1271.31,260.421 1289.3,267.879 " fill="none" id="InvestmentFundPartyRole-InvestmentFund" style="stroke: #A80036; stroke-width: 1.0;"/><polygon fill="#A80036" points="1294.23,269.94,1287.4702,262.7772,1289.6172,268.0108,1284.3836,270.1578,1294.23,269.94" style="stroke: #A80036; stroke-width: 1.0;"/><text fill="#000000" font-family="sans-serif" font-size="13" lengthAdjust="spacingAndGlyphs" textLength="103" x="1189" y="233.0669">InvestmentFund</text><text fill="#000000" font-family="sans-serif" font-size="13" lengthAdjust="spacingAndGlyphs" textLength="7" x="1275.9966" y="258.9676">*</text><!--link Entry to Account--><path d="M1650.76,190.026 C1634.98,203.209 1607.89,226.003 1585,246 C1548.98,277.473 1547.02,295.134 1505,318 C1447.71,349.176 1371.65,362.436 1328.56,367.746 " fill="none" id="Entry-Account" style="stroke: #A80036; stroke-width: 1.0;"/><polygon fill="#A80036" points="1323.47,368.355,1332.8848,371.2465,1328.4339,367.7552,1331.9252,363.3043,1323.47,368.355" style="stroke: #A80036; stroke-width: 1.0;"/><text fill="#000000" font-family="sans-serif" font-size="13" lengthAdjust="spacingAndGlyphs" textLength="52" x="1586" y="286.0669">Account</text><text fill="#000000" font-family="sans-serif" font-size="13" lengthAdjust="spacingAndGlyphs" textLength="7" x="1331.5983" y="381.4308">*</text><!--link Account to Account--><path d="M1323.51,364.332 C1341.18,362.483 1358,365.039 1358,372 C1358,378.254 1344.42,380.952 1328.85,380.095 " fill="none" id="Account-Account" style="stroke: #A80036; stroke-width: 1.0;"/><polygon fill="#A80036" points="1323.51,379.668,1332.1612,384.3751,1328.494,380.068,1332.8011,376.4008,1323.51,379.668" style="stroke: #A80036; stroke-width: 1.0;"/><text fill="#000000" font-family="sans-serif" font-size="13" lengthAdjust="spacingAndGlyphs" textLength="94" x="1364" y="376.0669">ParentAccount</text><text fill="#000000" font-family="sans-serif" font-size="13" lengthAdjust="spacingAndGlyphs" textLength="8" x="1331.6643" y="402.9818">1</text></g></svg>