<?xml version="1.0" encoding="UTF-8" standalone="no"?><svg xmlns="http://www.w3.org/2000/svg" xmlns:xlink="http://www.w3.org/1999/xlink" contentScriptType="application/ecmascript" contentStyleType="text/css" height="484px" preserveAspectRatio="none" style="width:1252px;height:484px;" version="1.1" viewBox="0 0 1252 484" width="1252px" zoomAndPan="magnify"><defs><filter height="300%" id="fk7si8ih93stc" width="300%" x="-1" y="-1"><feGaussianBlur result="blurOut" stdDeviation="2.0"/><feColorMatrix in="blurOut" result="blurOut2" type="matrix" values="0 0 0 0 0 0 0 0 0 0 0 0 0 0 0 0 0 0 .4 0"/><feOffset dx="4.0" dy="4.0" in="blurOut2" result="blurOut3"/><feBlend in="SourceGraphic" in2="blurOut3" mode="normal"/></filter></defs><g><!--cluster ##13398--><!--cluster ##13416--><!--cluster ##13425--><!--class Role--><a target="_top" xlink:actuate="onRequest" xlink:href="../Role.html" xlink:show="new" xlink:title="Role of a party in an activity." xlink:type="simple"><rect fill="#FEFEEE" filter="url(#fk7si8ih93stc)" height="44.7734" id="Role" style="stroke: #A80036; stroke-width: 1.5;" width="175" x="651.75" y="40.5"/><rect fill="#FEFEEE" height="23.9688" style="stroke: #A80036; stroke-width: 1.5;" width="175" x="651.75" y="40.5"/><text fill="#000000" font-family="sans-serif" font-size="12" lengthAdjust="spacingAndGlyphs" textLength="27" x="725.75" y="56.6387">Role</text><line style="stroke: #A80036; stroke-width: 1.5;" x1="652.75" x2="825.75" y1="64.4688" y2="64.4688"/><ellipse cx="662.75" cy="76.3711" fill="#84BE84" rx="3" ry="3" style="stroke: #038048; stroke-width: 1.0;"/><text fill="#000000" font-family="sans-serif" font-size="11" lengthAdjust="spacingAndGlyphs" textLength="53" x="671.75" y="78.6792">PartyRole</text><text fill="#000000" font-family="sans-serif" font-size="11" font-style="italic" lengthAdjust="spacingAndGlyphs" textLength="92" x="728.75" y="78.6792">(PartyRoleCode)</text></a><!--class InvestigationPartyRole--><a target="_top" xlink:actuate="onRequest" xlink:href="../InvestigationPartyRole.html" xlink:show="new" xlink:title="Role played by a party in the context of an investigation process." xlink:type="simple"><rect fill="#FEFECE" filter="url(#fk7si8ih93stc)" height="23.9688" id="InvestigationPartyRole" style="stroke: #A80036; stroke-width: 1.5;" width="145" x="506.75" y="166"/><rect fill="#FEFECE" height="23.9688" style="stroke: #A80036; stroke-width: 1.5;" width="145" x="506.75" y="166"/><text fill="#000000" font-family="sans-serif" font-size="12" lengthAdjust="spacingAndGlyphs" textLength="139" x="509.75" y="182.1387">InvestigationPartyRole</text></a><!--class StatusOriginator--><a target="_top" xlink:actuate="onRequest" xlink:href="../StatusOriginator.html" xlink:show="new" xlink:title="Provides the identification of the originator issuing the transaction reason." xlink:type="simple"><rect fill="#FEFEEE" filter="url(#fk7si8ih93stc)" height="23.9688" id="StatusOriginator" style="stroke: #A80036; stroke-width: 1.5;" width="109" x="404.75" y="270"/><rect fill="#FEFEEE" height="23.9688" style="stroke: #A80036; stroke-width: 1.5;" width="109" x="404.75" y="270"/><text fill="#000000" font-family="sans-serif" font-size="12" lengthAdjust="spacingAndGlyphs" textLength="103" x="407.75" y="286.1387">StatusOriginator</text></a><!--class Assigner--><a target="_top" xlink:actuate="onRequest" xlink:href="../Assigner.html" xlink:show="new" xlink:title="Party who assigns the case." xlink:type="simple"><rect fill="#FEFEEE" filter="url(#fk7si8ih93stc)" height="23.9688" id="Assigner" style="stroke: #A80036; stroke-width: 1.5;" width="60" x="549.5" y="270"/><rect fill="#FEFEEE" height="23.9688" style="stroke: #A80036; stroke-width: 1.5;" width="60" x="549.5" y="270"/><text fill="#000000" font-family="sans-serif" font-size="12" lengthAdjust="spacingAndGlyphs" textLength="54" x="552.5" y="286.1387">Assigner</text></a><!--class Assignee--><a target="_top" xlink:actuate="onRequest" xlink:href="../Assignee.html" xlink:show="new" xlink:title="Party to which the case is assigned." xlink:type="simple"><rect fill="#FEFEEE" filter="url(#fk7si8ih93stc)" height="23.9688" id="Assignee" style="stroke: #A80036; stroke-width: 1.5;" width="63" x="644.75" y="270"/><rect fill="#FEFEEE" height="23.9688" style="stroke: #A80036; stroke-width: 1.5;" width="63" x="644.75" y="270"/><text fill="#000000" font-family="sans-serif" font-size="12" lengthAdjust="spacingAndGlyphs" textLength="57" x="647.75" y="286.1387">Assignee</text></a><!--class CaseCreator--><a target="_top" xlink:actuate="onRequest" xlink:href="../CaseCreator.html" xlink:show="new" xlink:title="Party who initiates the case." xlink:type="simple"><rect fill="#FEFEEE" filter="url(#fk7si8ih93stc)" height="23.9688" id="CaseCreator" style="stroke: #A80036; stroke-width: 1.5;" width="84" x="743.5" y="270"/><rect fill="#FEFEEE" height="23.9688" style="stroke: #A80036; stroke-width: 1.5;" width="84" x="743.5" y="270"/><text fill="#000000" font-family="sans-serif" font-size="12" lengthAdjust="spacingAndGlyphs" textLength="78" x="746.5" y="286.1387">CaseCreator</text></a><!--class RolePlayer--><a target="_top" xlink:actuate="onRequest" xlink:href="../RolePlayer.html" xlink:show="new" xlink:title="Type of entity that plays a specific role in a specific context." xlink:type="simple"><rect fill="#EEEEEE" filter="url(#fk7si8ih93stc)" height="23.9688" id="RolePlayer" style="stroke: #A80036; stroke-width: 1.5;" width="71" x="1122.75" y="450"/><rect fill="#EEEEEE" height="23.9688" style="stroke: #A80036; stroke-width: 1.5;" width="71" x="1122.75" y="450"/><text fill="#000000" font-family="sans-serif" font-size="12" lengthAdjust="spacingAndGlyphs" textLength="65" x="1125.75" y="466.1387">RolePlayer</text></a><!--class ContactPersonRole--><a target="_top" xlink:actuate="onRequest" xlink:href="../ContactPersonRole.html" xlink:show="new" xlink:title="Person to be contacted in a given organisation. In the corporate action domain (including meeting notifications), it is the contact person at the party organising the meeting, at the issuer or at an intermediary." xlink:type="simple"><rect fill="#EEEEEE" filter="url(#fk7si8ih93stc)" height="23.9688" id="ContactPersonRole" style="stroke: #A80036; stroke-width: 1.5;" width="126" x="1115" y="360"/><rect fill="#EEEEEE" height="23.9688" style="stroke: #A80036; stroke-width: 1.5;" width="126" x="1115" y="360"/><text fill="#000000" font-family="sans-serif" font-size="12" lengthAdjust="spacingAndGlyphs" textLength="120" x="1118" y="376.1387">ContactPersonRole</text></a><!--class CounterpartyRisk--><a target="_top" xlink:actuate="onRequest" xlink:href="../CounterpartyRisk.html" xlink:show="new" xlink:title="Calculation of the exposure amount that one party has vis-a-vis one counterparty or a central system, based on its credit risk." xlink:type="simple"><rect fill="#EEEEEE" filter="url(#fk7si8ih93stc)" height="23.9688" id="CounterpartyRisk" style="stroke: #A80036; stroke-width: 1.5;" width="113" x="1121.75" y="270"/><rect fill="#EEEEEE" height="23.9688" style="stroke: #A80036; stroke-width: 1.5;" width="113" x="1121.75" y="270"/><text fill="#000000" font-family="sans-serif" font-size="12" lengthAdjust="spacingAndGlyphs" textLength="107" x="1124.75" y="286.1387">CounterpartyRisk</text></a><!--class Entry--><a target="_top" xlink:actuate="onRequest" xlink:href="../Entry.html" xlink:show="new" xlink:title="Posting to an account that results in an increase or decrease to a balance." xlink:type="simple"><rect fill="#EEEEEE" filter="url(#fk7si8ih93stc)" height="23.9688" id="Entry" style="stroke: #A80036; stroke-width: 1.5;" width="38" x="1203" y="166"/><rect fill="#EEEEEE" height="23.9688" style="stroke: #A80036; stroke-width: 1.5;" width="38" x="1203" y="166"/><text fill="#000000" font-family="sans-serif" font-size="12" lengthAdjust="spacingAndGlyphs" textLength="32" x="1206" y="182.1387">Entry</text></a><!--class InvestigationCase--><a target="_top" xlink:actuate="onRequest" xlink:href="../InvestigationCase.html" xlink:show="new" xlink:title="Set of activities performed to handle an exception to a normal transaction flow." xlink:type="simple"><rect fill="#EEEEEE" filter="url(#fk7si8ih93stc)" height="23.9688" id="InvestigationCase" style="stroke: #A80036; stroke-width: 1.5;" width="117" x="38.75" y="360"/><rect fill="#EEEEEE" height="23.9688" style="stroke: #A80036; stroke-width: 1.5;" width="117" x="38.75" y="360"/><text fill="#000000" font-family="sans-serif" font-size="12" lengthAdjust="spacingAndGlyphs" textLength="111" x="41.75" y="376.1387">InvestigationCase</text></a><!--class Status--><a target="_top" xlink:actuate="onRequest" xlink:href="../Status.html" xlink:show="new" xlink:title="The status of an instruction, advice or request." xlink:type="simple"><rect fill="#EEEEEE" filter="url(#fk7si8ih93stc)" height="23.9688" id="Status" style="stroke: #A80036; stroke-width: 1.5;" width="47" x="96.75" y="270"/><rect fill="#EEEEEE" height="23.9688" style="stroke: #A80036; stroke-width: 1.5;" width="47" x="96.75" y="270"/><text fill="#000000" font-family="sans-serif" font-size="12" lengthAdjust="spacingAndGlyphs" textLength="41" x="99.75" y="286.1387">Status</text></a><!--link Role to InvestigationPartyRole--><path d="M691.833,97.312 C658.952,120.534 617.117,150.08 594.767,165.865 " fill="none" id="Role-InvestigationPartyRole" style="stroke: #A80036; stroke-width: 1.0;"/><polygon fill="none" points="688.154,91.34,708.529,85.52,696.23,102.776,688.154,91.34" style="stroke: #A80036; stroke-width: 1.0;"/><!--link InvestigationPartyRole to StatusOriginator--><path d="M550.41,203.302 C525.546,224.436 490.661,254.088 471.995,269.954 " fill="none" id="InvestigationPartyRole-StatusOriginator" style="stroke: #A80036; stroke-width: 1.0;"/><polygon fill="none" points="545.927,197.925,565.699,190.306,554.994,208.592,545.927,197.925" style="stroke: #A80036; stroke-width: 1.0;"/><!--link InvestigationPartyRole to Assigner--><path d="M579,210.595 C579,230.825 579,255.843 579,269.954 " fill="none" id="InvestigationPartyRole-Assigner" style="stroke: #A80036; stroke-width: 1.0;"/><polygon fill="none" points="572,210.306,579,190.306,586,210.305,572,210.306" style="stroke: #A80036; stroke-width: 1.0;"/><!--link InvestigationPartyRole to Assignee--><path d="M603.574,204.84 C623.557,225.853 650.77,254.47 665.495,269.954 " fill="none" id="InvestigationPartyRole-Assignee" style="stroke: #A80036; stroke-width: 1.0;"/><polygon fill="none" points="598.461,209.622,589.751,190.306,608.606,199.975,598.461,209.622" style="stroke: #A80036; stroke-width: 1.0;"/><!--link InvestigationPartyRole to CaseCreator--><path d="M623.086,198.157 C652.075,211.05 690.67,228.78 724,246 C738.536,253.51 754.567,262.747 766.547,269.846 " fill="none" id="InvestigationPartyRole-CaseCreator" style="stroke: #A80036; stroke-width: 1.0;"/><polygon fill="none" points="620.214,204.541,604.735,190.07,625.859,191.73,620.214,204.541" style="stroke: #A80036; stroke-width: 1.0;"/><!--link ContactPersonRole to RolePlayer--><!--link CounterpartyRisk to ContactPersonRole--><!--link Entry to CounterpartyRisk--><!--link Status to InvestigationCase--><!--link Role to RolePlayer--><path d="M811.988,85.548 C853.386,102.753 897,131.641 897,177 C897,177 897,177 897,373 C897,418.9392 1044.02,445.4913 1117.38,455.8799 " fill="none" id="Role-RolePlayer" style="stroke: #A80036; stroke-width: 1.0;"/><polygon fill="#A80036" points="1122.53,456.6,1114.1785,451.3797,1117.5792,455.9002,1113.0587,459.3009,1122.53,456.6" style="stroke: #A80036; stroke-width: 1.0;"/><text fill="#000000" font-family="sans-serif" font-size="13" lengthAdjust="spacingAndGlyphs" textLength="39" x="898" y="286.0669">Player</text><text fill="#000000" font-family="sans-serif" font-size="13" lengthAdjust="spacingAndGlyphs" textLength="7" x="1107.8686" y="450.3783">*</text><!--link Role to ContactPersonRole--><path d="M826.256,72.588 C859.722,79.708 896.254,92.627 923,116 C967.515,154.901 937.952,192.753 976,238 C1024.37,295.518 1103.84,337.619 1147.28,357.746 " fill="none" id="Role-ContactPersonRole" style="stroke: #A80036; stroke-width: 1.0;"/><polygon fill="#A80036" points="1151.88,359.859,1145.369,352.4694,1147.3358,357.7733,1142.0319,359.7401,1151.88,359.859" style="stroke: #A80036; stroke-width: 1.0;"/><text fill="#000000" font-family="sans-serif" font-size="13" lengthAdjust="spacingAndGlyphs" textLength="121" x="977" y="233.0669">ContactPersonRole</text><text fill="#000000" font-family="sans-serif" font-size="13" lengthAdjust="spacingAndGlyphs" textLength="8" x="1132.1825" y="348.8587">1</text><!--link Role to CounterpartyRisk--><path d="M826.417,70.023 C877.542,76.359 942.036,89.354 994,116 C1037.1,138.1 1037.99,157.605 1074,190 C1104.43,217.379 1140.5,248.687 1161.17,266.523 " fill="none" id="Role-CounterpartyRisk" style="stroke: #A80036; stroke-width: 1.0;"/><polygon fill="#A80036" points="1165.09,269.906,1160.894,260.9957,1161.3062,266.6375,1155.6644,267.0497,1165.09,269.906" style="stroke: #A80036; stroke-width: 1.0;"/><text fill="#000000" font-family="sans-serif" font-size="13" lengthAdjust="spacingAndGlyphs" textLength="109" x="1075" y="182.0669">CounterpartyRisk</text><text fill="#000000" font-family="sans-serif" font-size="13" lengthAdjust="spacingAndGlyphs" textLength="24" x="1131.0975" y="258.9219">0..1</text><!--link Role to Entry--><path d="M826.571,74.345 C896.19,83.273 995.853,97.625 1082,116 C1124.39,125.043 1137.16,122.751 1176,142 C1186.82,147.361 1197.63,155.414 1206.05,162.444 " fill="none" id="Role-Entry" style="stroke: #A80036; stroke-width: 1.0;"/><polygon fill="#A80036" points="1209.98,165.797,1205.7256,156.9144,1206.1749,162.5534,1200.5359,163.0027,1209.98,165.797" style="stroke: #A80036; stroke-width: 1.0;"/><text fill="#000000" font-family="sans-serif" font-size="13" lengthAdjust="spacingAndGlyphs" textLength="33" x="1158" y="129.0669">Entry</text><text fill="#000000" font-family="sans-serif" font-size="13" lengthAdjust="spacingAndGlyphs" textLength="8" x="1195.3421" y="155.0332">1</text><!--link InvestigationPartyRole to InvestigationCase--><path d="M506.694,186.283 C442.572,194.683 347.498,211.969 271,246 C237.527,260.891 152.538,326.881 115.137,356.511 " fill="none" id="InvestigationPartyRole-InvestigationCase" style="stroke: #A80036; stroke-width: 1.0;"/><polygon fill="#A80036" points="110.818,359.939,120.3539,357.4759,114.734,356.8302,115.3798,351.2103,110.818,359.939" style="stroke: #A80036; stroke-width: 1.0;"/><text fill="#000000" font-family="sans-serif" font-size="13" lengthAdjust="spacingAndGlyphs" textLength="113" x="272" y="286.0669">InvestigationCase</text><text fill="#000000" font-family="sans-serif" font-size="13" lengthAdjust="spacingAndGlyphs" textLength="7" x="105.9354" y="348.9662">*</text><!--link InvestigationPartyRole to Status--><path d="M506.399,180.068 C405.87,182.603 230.291,191.155 174,220 C154.151,230.171 138.267,250.956 128.993,265.421 " fill="none" id="InvestigationPartyRole-Status" style="stroke: #A80036; stroke-width: 1.0;"/><polygon fill="#A80036" points="126.33,269.688,134.4885,264.1708,128.9773,265.4463,127.7018,259.9351,126.33,269.688" style="stroke: #A80036; stroke-width: 1.0;"/><text fill="#000000" font-family="sans-serif" font-size="13" lengthAdjust="spacingAndGlyphs" textLength="42" x="175" y="233.0669">Status</text><text fill="#000000" font-family="sans-serif" font-size="13" lengthAdjust="spacingAndGlyphs" textLength="7" x="118.8534" y="258.8881">*</text><!--link InvestigationCase to InvestigationCase--><path d="M155.578,363.751 C174.741,363.793 190,366.543 190,372 C190,376.945 177.468,379.667 160.856,380.166 " fill="none" id="InvestigationCase-InvestigationCase" style="stroke: #A80036; stroke-width: 1.0;"/><polygon fill="#A80036" points="155.578,380.249,164.6398,384.1071,160.5774,380.1704,164.514,376.108,155.578,380.249" style="stroke: #A80036; stroke-width: 1.0;"/><text fill="#000000" font-family="sans-serif" font-size="13" lengthAdjust="spacingAndGlyphs" textLength="161" x="196" y="376.0669">OriginalInvestigationCase</text><text fill="#000000" font-family="sans-serif" font-size="13" lengthAdjust="spacingAndGlyphs" textLength="7" x="163.8861" y="376.2932">*</text></g></svg>