<?xml version="1.0" encoding="UTF-8" standalone="no"?><svg xmlns="http://www.w3.org/2000/svg" xmlns:xlink="http://www.w3.org/1999/xlink" contentScriptType="application/ecmascript" contentStyleType="text/css" height="478px" preserveAspectRatio="none" style="width:729px;height:478px;" version="1.1" viewBox="0 0 729 478" width="729px" zoomAndPan="magnify"><defs><filter height="300%" id="f1k6rhl8kkvbh6" width="300%" x="-1" y="-1"><feGaussianBlur result="blurOut" stdDeviation="2.0"/><feColorMatrix in="blurOut" result="blurOut2" type="matrix" values="0 0 0 0 0 0 0 0 0 0 0 0 0 0 0 0 0 0 .4 0"/><feOffset dx="4.0" dy="4.0" in="blurOut2" result="blurOut3"/><feBlend in="SourceGraphic" in2="blurOut3" mode="normal"/></filter></defs><g><!--cluster ##22138--><!--cluster ##22147--><!--cluster ##22156--><!--class Role--><a target="_top" xlink:actuate="onRequest" xlink:href="../Role.html" xlink:show="new" xlink:title="Role of a party in an activity." xlink:type="simple"><rect fill="#FEFEEE" filter="url(#f1k6rhl8kkvbh6)" height="44.7734" id="Role" style="stroke: #A80036; stroke-width: 1.5;" width="175" x="51.75" y="40.5"/><rect fill="#FEFEEE" height="23.9688" style="stroke: #A80036; stroke-width: 1.5;" width="175" x="51.75" y="40.5"/><text fill="#000000" font-family="sans-serif" font-size="12" lengthAdjust="spacingAndGlyphs" textLength="27" x="125.75" y="56.6387">Role</text><line style="stroke: #A80036; stroke-width: 1.5;" x1="52.75" x2="225.75" y1="64.4688" y2="64.4688"/><ellipse cx="62.75" cy="76.3711" fill="#84BE84" rx="3" ry="3" style="stroke: #038048; stroke-width: 1.0;"/><text fill="#000000" font-family="sans-serif" font-size="11" lengthAdjust="spacingAndGlyphs" textLength="53" x="71.75" y="78.6792">PartyRole</text><text fill="#000000" font-family="sans-serif" font-size="11" font-style="italic" lengthAdjust="spacingAndGlyphs" textLength="92" x="128.75" y="78.6792">(PartyRoleCode)</text></a><!--class AssetPartyRole--><a target="_top" xlink:actuate="onRequest" xlink:href="../AssetPartyRole.html" xlink:show="new" xlink:title="Specifies roles played by a party that are linked to the handling of assets but not related to a specific process." xlink:type="simple"><rect fill="#FEFEEE" filter="url(#f1k6rhl8kkvbh6)" height="23.9688" id="AssetPartyRole" style="stroke: #A80036; stroke-width: 1.5;" width="100" x="103" y="166"/><rect fill="#FEFEEE" height="23.9688" style="stroke: #A80036; stroke-width: 1.5;" width="100" x="103" y="166"/><text fill="#000000" font-family="sans-serif" font-size="12" lengthAdjust="spacingAndGlyphs" textLength="94" x="106" y="182.1387">AssetPartyRole</text></a><!--class InvestmentAdvisor--><a target="_top" xlink:actuate="onRequest" xlink:href="../InvestmentAdvisor.html" xlink:show="new" xlink:title="The party that provides investment guidance at a fee." xlink:type="simple"><rect fill="#FEFECE" filter="url(#f1k6rhl8kkvbh6)" height="23.9688" id="InvestmentAdvisor" style="stroke: #A80036; stroke-width: 1.5;" width="120" x="93.5" y="270"/><rect fill="#FEFECE" height="23.9688" style="stroke: #A80036; stroke-width: 1.5;" width="120" x="93.5" y="270"/><text fill="#000000" font-family="sans-serif" font-size="12" lengthAdjust="spacingAndGlyphs" textLength="114" x="96.5" y="286.1387">InvestmentAdvisor</text></a><!--class RolePlayer--><a target="_top" xlink:actuate="onRequest" xlink:href="../RolePlayer.html" xlink:show="new" xlink:title="Type of entity that plays a specific role in a specific context." xlink:type="simple"><rect fill="#EEEEEE" filter="url(#f1k6rhl8kkvbh6)" height="23.9688" id="RolePlayer" style="stroke: #A80036; stroke-width: 1.5;" width="71" x="538.75" y="444"/><rect fill="#EEEEEE" height="23.9688" style="stroke: #A80036; stroke-width: 1.5;" width="71" x="538.75" y="444"/><text fill="#000000" font-family="sans-serif" font-size="12" lengthAdjust="spacingAndGlyphs" textLength="65" x="541.75" y="460.1387">RolePlayer</text></a><!--class ContactPersonRole--><a target="_top" xlink:actuate="onRequest" xlink:href="../ContactPersonRole.html" xlink:show="new" xlink:title="Person to be contacted in a given organisation. In the corporate action domain (including meeting notifications) , it is the contact person at the party organising the meeting, at the issuer or at an intermediary." xlink:type="simple"><rect fill="#EEEEEE" filter="url(#f1k6rhl8kkvbh6)" height="23.9688" id="ContactPersonRole" style="stroke: #A80036; stroke-width: 1.5;" width="126" x="531" y="358"/><rect fill="#EEEEEE" height="23.9688" style="stroke: #A80036; stroke-width: 1.5;" width="126" x="531" y="358"/><text fill="#000000" font-family="sans-serif" font-size="12" lengthAdjust="spacingAndGlyphs" textLength="120" x="534" y="374.1387">ContactPersonRole</text></a><!--class CounterpartyRisk--><a target="_top" xlink:actuate="onRequest" xlink:href="../CounterpartyRisk.html" xlink:show="new" xlink:title="Calculation of the exposure amount that one party has vis-a-vis one counterparty or a central system, based on its credit risk." xlink:type="simple"><rect fill="#EEEEEE" filter="url(#f1k6rhl8kkvbh6)" height="23.9688" id="CounterpartyRisk" style="stroke: #A80036; stroke-width: 1.5;" width="113" x="543.75" y="270"/><rect fill="#EEEEEE" height="23.9688" style="stroke: #A80036; stroke-width: 1.5;" width="113" x="543.75" y="270"/><text fill="#000000" font-family="sans-serif" font-size="12" lengthAdjust="spacingAndGlyphs" textLength="107" x="546.75" y="286.1387">CounterpartyRisk</text></a><!--class Entry--><a target="_top" xlink:actuate="onRequest" xlink:href="../Entry.html" xlink:show="new" xlink:title="Posting to an account that results in an increase or decrease to a balance." xlink:type="simple"><rect fill="#EEEEEE" filter="url(#f1k6rhl8kkvbh6)" height="23.9688" id="Entry" style="stroke: #A80036; stroke-width: 1.5;" width="38" x="531" y="166"/><rect fill="#EEEEEE" height="23.9688" style="stroke: #A80036; stroke-width: 1.5;" width="38" x="531" y="166"/><text fill="#000000" font-family="sans-serif" font-size="12" lengthAdjust="spacingAndGlyphs" textLength="32" x="534" y="182.1387">Entry</text></a><!--class Asset--><a target="_top" xlink:actuate="onRequest" xlink:href="../Asset.html" xlink:show="new" xlink:title="Tangible items of value to a business." xlink:type="simple"><rect fill="#EEEEEE" filter="url(#f1k6rhl8kkvbh6)" height="23.9688" id="Asset" style="stroke: #A80036; stroke-width: 1.5;" width="41" x="283.75" y="270"/><rect fill="#EEEEEE" height="23.9688" style="stroke: #A80036; stroke-width: 1.5;" width="41" x="283.75" y="270"/><text fill="#000000" font-family="sans-serif" font-size="12" lengthAdjust="spacingAndGlyphs" textLength="35" x="286.75" y="286.1387">Asset</text></a><!--entity ##22159--><!--link Role to AssetPartyRole--><path d="M144.149,105.559 C146.825,127.159 149.89,151.898 151.62,165.865 " fill="none" id="Role-AssetPartyRole" style="stroke: #A80036; stroke-width: 1.0;"/><polygon fill="none" points="137.179,106.229,141.666,85.52,151.072,104.508,137.179,106.229" style="stroke: #A80036; stroke-width: 1.0;"/><!--link AssetPartyRole to InvestmentAdvisor--><path d="M153,210.595 C153,230.825 153,255.843 153,269.954 " fill="none" id="AssetPartyRole-InvestmentAdvisor" style="stroke: #A80036; stroke-width: 1.0;"/><polygon fill="none" points="146,210.306,153,190.306,160,210.305,146,210.306" style="stroke: #A80036; stroke-width: 1.0;"/><!--link ContactPersonRole to RolePlayer--><!--link CounterpartyRisk to ContactPersonRole--><!--link Entry to CounterpartyRisk--><!--link Role to RolePlayer--><path d="M226.385,67.644 C300.546,75.993 395,101.456 395,177 C395,177 395,177 395,371 C395,431.8572 480.842,448.7099 533.634,453.3199 " fill="none" id="Role-RolePlayer" style="stroke: #A80036; stroke-width: 1.0;"/><polygon fill="#A80036" points="538.635,453.7288,529.9919,449.0068,533.6517,453.3202,529.3382,456.98,538.635,453.7288" style="stroke: #A80036; stroke-width: 1.0;"/><text fill="#000000" font-family="sans-serif" font-size="13" lengthAdjust="spacingAndGlyphs" textLength="39" x="396" y="286.0669">Player</text><text fill="#000000" font-family="sans-serif" font-size="13" lengthAdjust="spacingAndGlyphs" textLength="7" x="523.7402" y="447.9585">*</text><!--link Role to ContactPersonRole--><path d="M226.267,70.963 C297.721,78.288 391.63,92.148 421,116 C466.488,152.942 443.131,186.452 471,238 C491.52,275.956 496.125,286.868 526,318 C539.704,332.281 557.714,345.597 571.757,355.039 " fill="none" id="Role-ContactPersonRole" style="stroke: #A80036; stroke-width: 1.0;"/><polygon fill="#A80036" points="575.978,357.842,570.6906,349.5328,571.8118,355.0774,566.2672,356.1987,575.978,357.842" style="stroke: #A80036; stroke-width: 1.0;"/><text fill="#000000" font-family="sans-serif" font-size="13" lengthAdjust="spacingAndGlyphs" textLength="121" x="472" y="233.0669">ContactPersonRole</text><text fill="#000000" font-family="sans-serif" font-size="13" lengthAdjust="spacingAndGlyphs" textLength="8" x="559.0642" y="346.8359">1</text><!--link Role to CounterpartyRisk--><path d="M226.451,66.467 C334.76,70.903 511.851,83.089 568,116 C599.069,134.211 613.904,219.427 614,220 C616.586,235.376 611.874,252.681 607.233,264.921 " fill="none" id="Role-CounterpartyRisk" style="stroke: #A80036; stroke-width: 1.0;"/><polygon fill="#A80036" points="605.27,269.837,612.322,262.9618,607.124,265.1934,604.8923,259.9954,605.27,269.837" style="stroke: #A80036; stroke-width: 1.0;"/><text fill="#000000" font-family="sans-serif" font-size="13" lengthAdjust="spacingAndGlyphs" textLength="109" x="608" y="182.0669">CounterpartyRisk</text><text fill="#000000" font-family="sans-serif" font-size="13" lengthAdjust="spacingAndGlyphs" textLength="24" x="577.5269" y="258.8292">0..1</text><!--link Role to Entry--><path d="M226.492,68.809 C319.199,75.235 458.383,89.082 504,116 C521.858,126.538 535.059,146.953 542.632,161.252 " fill="none" id="Role-Entry" style="stroke: #A80036; stroke-width: 1.0;"/><polygon fill="#A80036" points="544.983,165.844,544.4428,156.01,542.7048,161.3932,537.3215,159.6552,544.983,165.844" style="stroke: #A80036; stroke-width: 1.0;"/><text fill="#000000" font-family="sans-serif" font-size="13" lengthAdjust="spacingAndGlyphs" textLength="33" x="525" y="129.0669">Entry</text><text fill="#000000" font-family="sans-serif" font-size="13" lengthAdjust="spacingAndGlyphs" textLength="8" x="532.5397" y="154.8386">1</text><!--link AssetPartyRole to Asset--><path d="M169.447,190.11 C197.132,208.811 252.98,246.536 283.293,267.012 " fill="none" id="AssetPartyRole-Asset" style="stroke: #A80036; stroke-width: 1.0;"/><polygon fill="#A80036" points="287.573,269.904,282.3542,261.5515,283.4298,267.1052,277.8761,268.1807,287.573,269.904" style="stroke: #A80036; stroke-width: 1.0;"/><text fill="#000000" font-family="sans-serif" font-size="13" lengthAdjust="spacingAndGlyphs" textLength="36" x="239" y="233.0669">Asset</text><text fill="#000000" font-family="sans-serif" font-size="13" lengthAdjust="spacingAndGlyphs" textLength="7" x="272.2934" y="258.9192">*</text></g></svg>