<?xml version="1.0" encoding="UTF-8" standalone="no"?><svg xmlns="http://www.w3.org/2000/svg" xmlns:xlink="http://www.w3.org/1999/xlink" contentScriptType="application/ecmascript" contentStyleType="text/css" height="734px" preserveAspectRatio="none" style="width:1956px;height:734px;" version="1.1" viewBox="0 0 1956 734" width="1956px" zoomAndPan="magnify"><defs><filter height="300%" id="f1ti9k8rlgyvky" width="300%" x="-1" y="-1"><feGaussianBlur result="blurOut" stdDeviation="2.0"/><feColorMatrix in="blurOut" result="blurOut2" type="matrix" values="0 0 0 0 0 0 0 0 0 0 0 0 0 0 0 0 0 0 .4 0"/><feOffset dx="4.0" dy="4.0" in="blurOut2" result="blurOut3"/><feBlend in="SourceGraphic" in2="blurOut3" mode="normal"/></filter></defs><g><!--cluster ##21535--><!--cluster ##21550--><!--cluster ##21563--><!--class SecuritiesTradeExecution--><a target="_top" xlink:actuate="onRequest" xlink:href="../SecuritiesTradeExecution.html" xlink:show="new" xlink:title="Transaction between two counterparties in which they agree to buy and sell a financial instrument. A trade transaction occurs with the matching of the two counterparties orders. There could be several trade transactions necessary to execute the trade." xlink:type="simple"><rect fill="#FEFEEE" filter="url(#f1ti9k8rlgyvky)" height="108.7969" id="SecuritiesTradeExecution" style="stroke: #A80036; stroke-width: 1.5;" width="280" x="224.698" y="40.5"/><rect fill="#FEFEEE" height="23.9688" style="stroke: #A80036; stroke-width: 1.5;" width="280" x="224.698" y="40.5"/><text fill="#000000" font-family="sans-serif" font-size="12" lengthAdjust="spacingAndGlyphs" textLength="159" x="285.198" y="56.6387">SecuritiesTradeExecution</text><line style="stroke: #A80036; stroke-width: 1.5;" x1="225.698" x2="503.698" y1="64.4688" y2="64.4688"/><ellipse cx="235.698" cy="76.3711" fill="#84BE84" rx="3" ry="3" style="stroke: #038048; stroke-width: 1.0;"/><text fill="#000000" font-family="sans-serif" font-size="11" lengthAdjust="spacingAndGlyphs" textLength="111" x="244.698" y="78.6792">StampDutyIndicator</text><text fill="#000000" font-family="sans-serif" font-size="11" font-style="italic" lengthAdjust="spacingAndGlyphs" textLength="92" x="359.698" y="78.6792">(YesNoIndicator)</text><ellipse cx="235.698" cy="89.1758" fill="#84BE84" rx="3" ry="3" style="stroke: #038048; stroke-width: 1.0;"/><text fill="#000000" font-family="sans-serif" font-size="11" lengthAdjust="spacingAndGlyphs" textLength="108" x="244.698" y="91.4839">ProcessingPosition</text><text fill="#000000" font-family="sans-serif" font-size="11" font-style="italic" lengthAdjust="spacingAndGlyphs" textLength="142" x="356.698" y="91.4839">(ProcessingPositionCode)</text><ellipse cx="235.698" cy="101.9805" fill="#84BE84" rx="3" ry="3" style="stroke: #038048; stroke-width: 1.0;"/><text fill="#000000" font-family="sans-serif" font-size="11" lengthAdjust="spacingAndGlyphs" textLength="81" x="244.698" y="104.2886">MarginAmount</text><text fill="#000000" font-family="sans-serif" font-size="11" font-style="italic" lengthAdjust="spacingAndGlyphs" textLength="126" x="329.698" y="104.2886">(CurrencyAndAmount)</text><ellipse cx="235.698" cy="114.7852" fill="#84BE84" rx="3" ry="3" style="stroke: #038048; stroke-width: 1.0;"/><text fill="#000000" font-family="sans-serif" font-size="11" lengthAdjust="spacingAndGlyphs" textLength="97" x="244.698" y="117.0933">OffMarketReason</text><text fill="#000000" font-family="sans-serif" font-size="11" font-style="italic" lengthAdjust="spacingAndGlyphs" textLength="92" x="345.698" y="117.0933">(OffMarketCode)</text><ellipse cx="235.698" cy="127.5898" fill="#84BE84" rx="3" ry="3" style="stroke: #038048; stroke-width: 1.0;"/><text fill="#000000" font-family="sans-serif" font-size="11" lengthAdjust="spacingAndGlyphs" textLength="122" x="244.698" y="129.8979">DealExecutionAmount</text><text fill="#000000" font-family="sans-serif" font-size="11" font-style="italic" lengthAdjust="spacingAndGlyphs" textLength="126" x="370.698" y="129.8979">(CurrencyAndAmount)</text><ellipse cx="235.698" cy="140.3945" fill="#84BE84" rx="3" ry="3" style="stroke: #038048; stroke-width: 1.0;"/><text fill="#000000" font-family="sans-serif" font-size="11" lengthAdjust="spacingAndGlyphs" textLength="81" x="244.698" y="142.7026">ReportingType</text><text fill="#000000" font-family="sans-serif" font-size="11" font-style="italic" lengthAdjust="spacingAndGlyphs" textLength="92" x="329.698" y="142.7026">(ReportingCode)</text></a><!--class InvestmentFundOrderExecution--><a target="_top" xlink:actuate="onRequest" xlink:href="../InvestmentFundOrderExecution.html" xlink:show="new" xlink:title="Creation/cancellation of investment units on the books of the fund or its designated agent, as a result of executing an investment fund order." xlink:type="simple"><rect fill="#FEFECE" filter="url(#f1ti9k8rlgyvky)" height="185.625" id="InvestmentFundOrderExecution" style="stroke: #A80036; stroke-width: 1.5;" width="308" x="196.698" y="228"/><rect fill="#FEFECE" height="23.9688" style="stroke: #A80036; stroke-width: 1.5;" width="308" x="196.698" y="228"/><text fill="#000000" font-family="sans-serif" font-size="12" lengthAdjust="spacingAndGlyphs" textLength="196" x="252.698" y="244.1387">InvestmentFundOrderExecution</text><line style="stroke: #A80036; stroke-width: 1.5;" x1="197.698" x2="503.698" y1="251.9688" y2="251.9688"/><ellipse cx="207.698" cy="263.8711" fill="#84BE84" rx="3" ry="3" style="stroke: #038048; stroke-width: 1.0;"/><text fill="#000000" font-family="sans-serif" font-size="11" lengthAdjust="spacingAndGlyphs" textLength="201" x="216.698" y="266.1792">NonStandardSettlementInformation</text><text fill="#000000" font-family="sans-serif" font-size="11" font-style="italic" lengthAdjust="spacingAndGlyphs" textLength="77" x="421.698" y="266.1792">(Max350Text)</text><ellipse cx="207.698" cy="276.6758" fill="#84BE84" rx="3" ry="3" style="stroke: #038048; stroke-width: 1.0;"/><text fill="#000000" font-family="sans-serif" font-size="11" lengthAdjust="spacingAndGlyphs" textLength="97" x="216.698" y="278.9839">DealIdentification</text><text fill="#000000" font-family="sans-serif" font-size="11" font-style="italic" lengthAdjust="spacingAndGlyphs" textLength="70" x="317.698" y="278.9839">(Max35Text)</text><ellipse cx="207.698" cy="289.4805" fill="#84BE84" rx="3" ry="3" style="stroke: #038048; stroke-width: 1.0;"/><text fill="#000000" font-family="sans-serif" font-size="11" lengthAdjust="spacingAndGlyphs" textLength="145" x="216.698" y="291.7886">PartiallyExecutedIndicator</text><text fill="#000000" font-family="sans-serif" font-size="11" font-style="italic" lengthAdjust="spacingAndGlyphs" textLength="92" x="365.698" y="291.7886">(YesNoIndicator)</text><ellipse cx="207.698" cy="302.2852" fill="#84BE84" rx="3" ry="3" style="stroke: #038048; stroke-width: 1.0;"/><text fill="#000000" font-family="sans-serif" font-size="11" lengthAdjust="spacingAndGlyphs" textLength="113" x="216.698" y="304.5933">InterimProfitAmount</text><text fill="#000000" font-family="sans-serif" font-size="11" font-style="italic" lengthAdjust="spacingAndGlyphs" textLength="126" x="333.698" y="304.5933">(CurrencyAndAmount)</text><ellipse cx="207.698" cy="315.0898" fill="#84BE84" rx="3" ry="3" style="stroke: #038048; stroke-width: 1.0;"/><text fill="#000000" font-family="sans-serif" font-size="11" lengthAdjust="spacingAndGlyphs" textLength="80" x="216.698" y="317.3979">BestExecution</text><text fill="#000000" font-family="sans-serif" font-size="11" font-style="italic" lengthAdjust="spacingAndGlyphs" textLength="117" x="300.698" y="317.3979">(BestExecutionCode)</text><ellipse cx="207.698" cy="327.8945" fill="#84BE84" rx="3" ry="3" style="stroke: #038048; stroke-width: 1.0;"/><text fill="#000000" font-family="sans-serif" font-size="11" lengthAdjust="spacingAndGlyphs" textLength="140" x="216.698" y="330.2026">PartialSettlementOfUnits</text><text fill="#000000" font-family="sans-serif" font-size="11" font-style="italic" lengthAdjust="spacingAndGlyphs" textLength="98" x="360.698" y="330.2026">(PercentageRate)</text><ellipse cx="207.698" cy="340.6992" fill="#84BE84" rx="3" ry="3" style="stroke: #038048; stroke-width: 1.0;"/><text fill="#000000" font-family="sans-serif" font-size="11" lengthAdjust="spacingAndGlyphs" textLength="140" x="216.698" y="343.0073">PartialSettlementOfCash</text><text fill="#000000" font-family="sans-serif" font-size="11" font-style="italic" lengthAdjust="spacingAndGlyphs" textLength="98" x="360.698" y="343.0073">(PercentageRate)</text><ellipse cx="207.698" cy="353.5039" fill="#84BE84" rx="3" ry="3" style="stroke: #038048; stroke-width: 1.0;"/><text fill="#000000" font-family="sans-serif" font-size="11" lengthAdjust="spacingAndGlyphs" textLength="61" x="216.698" y="355.812">LateReport</text><text fill="#000000" font-family="sans-serif" font-size="11" font-style="italic" lengthAdjust="spacingAndGlyphs" textLength="99" x="281.698" y="355.812">(LateReportCode)</text><ellipse cx="207.698" cy="366.3086" fill="#84BE84" rx="3" ry="3" style="stroke: #038048; stroke-width: 1.0;"/><text fill="#000000" font-family="sans-serif" font-size="11" lengthAdjust="spacingAndGlyphs" textLength="89" x="216.698" y="368.6167">SettledIndicator</text><text fill="#000000" font-family="sans-serif" font-size="11" font-style="italic" lengthAdjust="spacingAndGlyphs" textLength="92" x="309.698" y="368.6167">(YesNoIndicator)</text><ellipse cx="207.698" cy="379.1133" fill="#84BE84" rx="3" ry="3" style="stroke: #038048; stroke-width: 1.0;"/><text fill="#000000" font-family="sans-serif" font-size="11" lengthAdjust="spacingAndGlyphs" textLength="110" x="216.698" y="381.4214">RegisteredIndicator</text><text fill="#000000" font-family="sans-serif" font-size="11" font-style="italic" lengthAdjust="spacingAndGlyphs" textLength="92" x="330.698" y="381.4214">(YesNoIndicator)</text><ellipse cx="207.698" cy="391.918" fill="#84BE84" rx="3" ry="3" style="stroke: #038048; stroke-width: 1.0;"/><text fill="#000000" font-family="sans-serif" font-size="11" lengthAdjust="spacingAndGlyphs" textLength="94" x="216.698" y="394.2261">ExecutedAmount</text><text fill="#000000" font-family="sans-serif" font-size="11" font-style="italic" lengthAdjust="spacingAndGlyphs" textLength="126" x="314.698" y="394.2261">(CurrencyAndAmount)</text><ellipse cx="207.698" cy="404.7227" fill="#84BE84" rx="3" ry="3" style="stroke: #038048; stroke-width: 1.0;"/><text fill="#000000" font-family="sans-serif" font-size="11" lengthAdjust="spacingAndGlyphs" textLength="82" x="216.698" y="407.0308">SourceOfCash</text><text fill="#000000" font-family="sans-serif" font-size="11" font-style="italic" lengthAdjust="spacingAndGlyphs" textLength="117" x="302.698" y="407.0308">(SourceOfCashCode)</text></a><!--class SubscriptionExecution--><a target="_top" xlink:actuate="onRequest" xlink:href="../SubscriptionExecution.html" xlink:show="new" xlink:title="Execution of a subscription order." xlink:type="simple"><rect fill="#FEFEEE" filter="url(#f1ti9k8rlgyvky)" height="23.9688" id="SubscriptionExecution" style="stroke: #A80036; stroke-width: 1.5;" width="145" x="40.4484" y="492"/><rect fill="#FEFEEE" height="23.9688" style="stroke: #A80036; stroke-width: 1.5;" width="145" x="40.4484" y="492"/><text fill="#000000" font-family="sans-serif" font-size="12" lengthAdjust="spacingAndGlyphs" textLength="139" x="43.4484" y="508.1387">SubscriptionExecution</text></a><!--class RedemptionExecution--><a target="_top" xlink:actuate="onRequest" xlink:href="../RedemptionExecution.html" xlink:show="new" xlink:title="Execution of a redemption order." xlink:type="simple"><rect fill="#FEFEEE" filter="url(#f1ti9k8rlgyvky)" height="23.9688" id="RedemptionExecution" style="stroke: #A80036; stroke-width: 1.5;" width="142" x="220.698" y="492"/><rect fill="#FEFEEE" height="23.9688" style="stroke: #A80036; stroke-width: 1.5;" width="142" x="220.698" y="492"/><text fill="#000000" font-family="sans-serif" font-size="12" lengthAdjust="spacingAndGlyphs" textLength="136" x="223.698" y="508.1387">RedemptionExecution</text></a><!--class SwitchExecution--><a target="_top" xlink:actuate="onRequest" xlink:href="../SwitchExecution.html" xlink:show="new" xlink:title="Execution of a switch order." xlink:type="simple"><rect fill="#FEFEEE" filter="url(#f1ti9k8rlgyvky)" height="23.9688" id="SwitchExecution" style="stroke: #A80036; stroke-width: 1.5;" width="107" x="398.448" y="492"/><rect fill="#FEFEEE" height="23.9688" style="stroke: #A80036; stroke-width: 1.5;" width="107" x="398.448" y="492"/><text fill="#000000" font-family="sans-serif" font-size="12" lengthAdjust="spacingAndGlyphs" textLength="101" x="401.448" y="508.1387">SwitchExecution</text></a><!--class SecuritiesSettlement--><a target="_top" xlink:actuate="onRequest" xlink:href="../SecuritiesSettlement.html" xlink:show="new" xlink:title="Settlement of the securities in a securities transaction, that is, the instruction to deliver or receive securities, involving the payment of an amount of money or not." xlink:type="simple"><rect fill="#EEEEEE" filter="url(#f1ti9k8rlgyvky)" height="23.9688" id="SecuritiesSettlement" style="stroke: #A80036; stroke-width: 1.5;" width="137" x="1200.45" y="309"/><rect fill="#EEEEEE" height="23.9688" style="stroke: #A80036; stroke-width: 1.5;" width="137" x="1200.45" y="309"/><text fill="#000000" font-family="sans-serif" font-size="12" lengthAdjust="spacingAndGlyphs" textLength="131" x="1203.45" y="325.1387">SecuritiesSettlement</text></a><!--class SecuritiesPricing--><a target="_top" xlink:actuate="onRequest" xlink:href="../SecuritiesPricing.html" xlink:show="new" xlink:title="Characteristics related to the price of the security." xlink:type="simple"><rect fill="#EEEEEE" filter="url(#f1ti9k8rlgyvky)" height="23.9688" id="SecuritiesPricing" style="stroke: #A80036; stroke-width: 1.5;" width="110" x="1259.7" y="598"/><rect fill="#EEEEEE" height="23.9688" style="stroke: #A80036; stroke-width: 1.5;" width="110" x="1259.7" y="598"/><text fill="#000000" font-family="sans-serif" font-size="12" lengthAdjust="spacingAndGlyphs" textLength="104" x="1262.7" y="614.1387">SecuritiesPricing</text></a><!--class SecuritiesQuantity--><a target="_top" xlink:actuate="onRequest" xlink:href="../SecuritiesQuantity.html" xlink:show="new" xlink:title="Quantity of a security." xlink:type="simple"><rect fill="#EEEEEE" filter="url(#f1ti9k8rlgyvky)" height="23.9688" id="SecuritiesQuantity" style="stroke: #A80036; stroke-width: 1.5;" width="120" x="1157.2" y="492"/><rect fill="#EEEEEE" height="23.9688" style="stroke: #A80036; stroke-width: 1.5;" width="120" x="1157.2" y="492"/><text fill="#000000" font-family="sans-serif" font-size="12" lengthAdjust="spacingAndGlyphs" textLength="114" x="1160.2" y="508.1387">SecuritiesQuantity</text></a><!--class SecuritiesTrade--><a target="_top" xlink:actuate="onRequest" xlink:href="../SecuritiesTrade.html" xlink:show="new" xlink:title="Specifies trades linked to securities operations such as the exchange of securities, the lending of securities and the transactions related to investment funds." xlink:type="simple"><rect fill="#EEEEEE" filter="url(#f1ti9k8rlgyvky)" height="23.9688" id="SecuritiesTrade" style="stroke: #A80036; stroke-width: 1.5;" width="104" x="1262.7" y="700"/><rect fill="#EEEEEE" height="23.9688" style="stroke: #A80036; stroke-width: 1.5;" width="104" x="1262.7" y="700"/><text fill="#000000" font-family="sans-serif" font-size="12" lengthAdjust="spacingAndGlyphs" textLength="98" x="1265.7" y="716.1387">SecuritiesTrade</text></a><!--class PaymentObligation--><a target="_top" xlink:actuate="onRequest" xlink:href="../PaymentObligation.html" xlink:show="new" xlink:title="Obligation for the debtor to pay the creditor an amount of cash." xlink:type="simple"><rect fill="#EEEEEE" filter="url(#f1ti9k8rlgyvky)" height="23.9688" id="PaymentObligation" style="stroke: #A80036; stroke-width: 1.5;" width="123" x="1405.45" y="598"/><rect fill="#EEEEEE" height="23.9688" style="stroke: #A80036; stroke-width: 1.5;" width="123" x="1405.45" y="598"/><text fill="#000000" font-family="sans-serif" font-size="12" lengthAdjust="spacingAndGlyphs" textLength="117" x="1408.45" y="614.1387">PaymentObligation</text></a><!--class SecuritiesDeliveryObligation--><a target="_top" xlink:actuate="onRequest" xlink:href="../SecuritiesDeliveryObligation.html" xlink:show="new" xlink:title="Obligation for one party to deliver securities to another party." xlink:type="simple"><rect fill="#EEEEEE" filter="url(#f1ti9k8rlgyvky)" height="23.9688" id="SecuritiesDeliveryObligation" style="stroke: #A80036; stroke-width: 1.5;" width="179" x="1349.45" y="492"/><rect fill="#EEEEEE" height="23.9688" style="stroke: #A80036; stroke-width: 1.5;" width="179" x="1349.45" y="492"/><text fill="#000000" font-family="sans-serif" font-size="12" lengthAdjust="spacingAndGlyphs" textLength="173" x="1352.45" y="508.1387">SecuritiesDeliveryObligation</text></a><!--class InvestmentFundOrder--><a target="_top" xlink:actuate="onRequest" xlink:href="../InvestmentFundOrder.html" xlink:show="new" xlink:title="An investor's instruction to either subscribe or redeem an amount of money or its equivalent, for example other assets, into or out of an investment fund." xlink:type="simple"><rect fill="#EEEEEE" filter="url(#f1ti9k8rlgyvky)" height="23.9688" id="InvestmentFundOrder" style="stroke: #A80036; stroke-width: 1.5;" width="141" x="505.448" y="598"/><rect fill="#EEEEEE" height="23.9688" style="stroke: #A80036; stroke-width: 1.5;" width="141" x="505.448" y="598"/><text fill="#000000" font-family="sans-serif" font-size="12" lengthAdjust="spacingAndGlyphs" textLength="135" x="508.448" y="614.1387">InvestmentFundOrder</text></a><!--class InvestmentFundTransaction--><a target="_top" xlink:actuate="onRequest" xlink:href="../InvestmentFundTransaction.html" xlink:show="new" xlink:title="Process of buying, selling, switching or transferring fund units." xlink:type="simple"><rect fill="#EEEEEE" filter="url(#f1ti9k8rlgyvky)" height="23.9688" id="InvestmentFundTransaction" style="stroke: #A80036; stroke-width: 1.5;" width="180" x="549.698" y="700"/><rect fill="#EEEEEE" height="23.9688" style="stroke: #A80036; stroke-width: 1.5;" width="180" x="549.698" y="700"/><text fill="#000000" font-family="sans-serif" font-size="12" lengthAdjust="spacingAndGlyphs" textLength="174" x="552.698" y="716.1387">InvestmentFundTransaction</text></a><!--class FundsCashFlow--><a target="_top" xlink:actuate="onRequest" xlink:href="../FundsCashFlow.html" xlink:show="new" xlink:title="Cash movements from or to a fund as a result of investment funds transactions, for example, subscriptions or redemptions." xlink:type="simple"><rect fill="#EEEEEE" filter="url(#f1ti9k8rlgyvky)" height="23.9688" id="FundsCashFlow" style="stroke: #A80036; stroke-width: 1.5;" width="102" x="682.198" y="598"/><rect fill="#EEEEEE" height="23.9688" style="stroke: #A80036; stroke-width: 1.5;" width="102" x="682.198" y="598"/><text fill="#000000" font-family="sans-serif" font-size="12" lengthAdjust="spacingAndGlyphs" textLength="96" x="685.198" y="614.1387">FundsCashFlow</text></a><!--link SecuritiesTradeExecution to InvestmentFundOrderExecution--><path d="M360.086,169.803 C358.926,188.361 357.667,208.508 356.458,227.841 " fill="none" id="SecuritiesTradeExecution-InvestmentFundOrderExecution" style="stroke: #A80036; stroke-width: 1.0;"/><polygon fill="none" points="353.111,169.178,361.345,149.654,367.084,170.051,353.111,169.178" style="stroke: #A80036; stroke-width: 1.0;"/><!--link InvestmentFundOrderExecution to SubscriptionExecution--><path d="M213.381,426.43 C178.301,453.109 145.397,478.133 127.259,491.927 " fill="none" id="InvestmentFundOrderExecution-SubscriptionExecution" style="stroke: #A80036; stroke-width: 1.0;"/><polygon fill="none" points="209.45,420.626,229.607,414.091,217.925,431.769,209.45,420.626" style="stroke: #A80036; stroke-width: 1.0;"/><!--link InvestmentFundOrderExecution to RedemptionExecution--><path d="M314.438,433.238 C306.592,457.31 299.419,479.313 295.308,491.927 " fill="none" id="InvestmentFundOrderExecution-RedemptionExecution" style="stroke: #A80036; stroke-width: 1.0;"/><polygon fill="none" points="307.826,430.937,320.68,414.091,321.137,435.275,307.826,430.937" style="stroke: #A80036; stroke-width: 1.0;"/><!--link InvestmentFundOrderExecution to SwitchExecution--><path d="M411.975,431.813 C425.717,456.439 438.342,479.065 445.519,491.927 " fill="none" id="InvestmentFundOrderExecution-SwitchExecution" style="stroke: #A80036; stroke-width: 1.0;"/><polygon fill="none" points="405.719,434.967,402.086,414.091,417.944,428.145,405.719,434.967" style="stroke: #A80036; stroke-width: 1.0;"/><!--link SecuritiesPricing to SecuritiesSettlement--><!--link SecuritiesQuantity to SecuritiesPricing--><!--link SecuritiesTrade to SecuritiesQuantity--><!--link SecuritiesQuantity to SecuritiesTrade--><path d="M1211.05,516.381 C1204.85,528.738 1194.46,548.988 1184.7,566 C1182.61,569.637 1180.85,569.97 1179.7,574 C1173.82,594.507 1169.58,603.217 1179.7,622 C1200.19,660.0462 1244.84,684.5166 1277.2,697.9817 " fill="none" id="SecuritiesQuantity-SecuritiesTrade" style="stroke: #A80036; stroke-width: 1.0;"/><polygon fill="#A80036" points="1281.88,699.8888,1275.0534,692.7896,1277.2493,698.0029,1272.036,700.1988,1281.88,699.8888" style="stroke: #A80036; stroke-width: 1.0;"/><text fill="#000000" font-family="sans-serif" font-size="13" lengthAdjust="spacingAndGlyphs" textLength="36" x="1180.7" y="614.0669">Trade</text><text fill="#000000" font-family="sans-serif" font-size="13" lengthAdjust="spacingAndGlyphs" textLength="24" x="1241.1294" y="688.8988">0..1</text><!--link PaymentObligation to SecuritiesTrade--><!--link SecuritiesDeliveryObligation to PaymentObligation--><!--link InvestmentFundTransaction to InvestmentFundOrder--><!--link InvestmentFundOrder to InvestmentFundTransaction--><path d="M563.193,622.308 C551.252,634.517 536.475,654.32 546.698,670 C555.184,683.0142 568.833,691.9262 583.091,698.0184 " fill="none" id="InvestmentFundOrder-InvestmentFundTransaction" style="stroke: #A80036; stroke-width: 1.0;"/><polygon fill="#A80036" points="587.943,699.9782,581.0964,692.8983,583.307,698.1054,578.0999,700.316,587.943,699.9782" style="stroke: #A80036; stroke-width: 1.0;"/><text fill="#000000" font-family="sans-serif" font-size="13" lengthAdjust="spacingAndGlyphs" textLength="122" x="547.698" y="665.0669">RelatedTransaction</text><text fill="#000000" font-family="sans-serif" font-size="13" lengthAdjust="spacingAndGlyphs" textLength="24" x="540.6835" y="689.0189">0..1</text><!--link FundsCashFlow to InvestmentFundTransaction--><!--link SecuritiesTradeExecution to SecuritiesSettlement--><path d="M504.736,104.44 C642.182,114.827 857.033,136.701 1038.7,180 C1100.24,194.667 1118.9,194.716 1172.7,228 C1207.15,249.317 1239.49,284.649 1256.42,304.758 " fill="none" id="SecuritiesTradeExecution-SecuritiesSettlement" style="stroke: #A80036; stroke-width: 1.0;"/><polygon fill="#A80036" points="1259.79,308.808,1257.1047,299.3323,1256.5905,304.9657,1250.957,304.4515,1259.79,308.808" style="stroke: #A80036; stroke-width: 1.0;"/><text fill="#000000" font-family="sans-serif" font-size="13" lengthAdjust="spacingAndGlyphs" textLength="135" x="1112.7" y="193.0669">SecuritiesSettlement</text><text fill="#000000" font-family="sans-serif" font-size="13" lengthAdjust="spacingAndGlyphs" textLength="7" x="1247.2651" y="298.0478">*</text><!--link SecuritiesTradeExecution to SecuritiesPricing--><path d="M504.921,100.139 C816.853,110.825 1546.4,144.566 1617.7,228 C1671.4,290.847 1638.92,334.103 1617.7,414 C1609.42,445.169 1571.72,520.954 1545.7,540 C1487.73,582.423 1455.66,550.757 1387.7,574 C1370.97,579.721 1353.06,588.269 1339.16,595.485 " fill="none" id="SecuritiesTradeExecution-SecuritiesPricing" style="stroke: #A80036; stroke-width: 1.0;"/><polygon fill="#A80036" points="1334.61,597.876,1344.439,597.2514,1339.0411,595.5597,1340.7329,590.1617,1334.61,597.876" style="stroke: #A80036; stroke-width: 1.0;"/><text fill="#000000" font-family="sans-serif" font-size="13" lengthAdjust="spacingAndGlyphs" textLength="60" x="1606.7" y="457.0669">DealPrice</text><text fill="#000000" font-family="sans-serif" font-size="13" lengthAdjust="spacingAndGlyphs" textLength="8" x="1330.7353" y="586.8816">1</text><!--link SecuritiesTradeExecution to SecuritiesQuantity--><path d="M476.959,149.627 C675.761,244.594 1079.12,437.278 1188.69,489.621 " fill="none" id="SecuritiesTradeExecution-SecuritiesQuantity" style="stroke: #A80036; stroke-width: 1.0;"/><polygon fill="#A80036" points="1193.38,491.862,1186.9657,484.3882,1188.8633,489.7173,1183.5342,491.6149,1193.38,491.862" style="stroke: #A80036; stroke-width: 1.0;"/><text fill="#000000" font-family="sans-serif" font-size="13" lengthAdjust="spacingAndGlyphs" textLength="149" x="1021.7" y="325.0669">ExecutedTradeQuantity</text><text fill="#000000" font-family="sans-serif" font-size="13" lengthAdjust="spacingAndGlyphs" textLength="7" x="1175.645" y="480.8628">*</text><!--link SecuritiesTradeExecution to SecuritiesTrade--><path d="M504.829,98.427 C785.393,104.434 1406.75,123.818 1611.7,180 C1733.77,213.462 1859.7,193.428 1859.7,320 C1859.7,320 1859.7,320 1859.7,611 C1859.7,660.1503 1512.35,694.5573 1372.26,706.4361 " fill="none" id="SecuritiesTradeExecution-SecuritiesTrade" style="stroke: #A80036; stroke-width: 1.0;"/><polygon fill="#A80036" points="1366.96,706.8831,1376.2605,710.1236,1371.9428,706.4688,1375.5976,702.1511,1366.96,706.8831" style="stroke: #A80036; stroke-width: 1.0;"/><text fill="#000000" font-family="sans-serif" font-size="13" lengthAdjust="spacingAndGlyphs" textLength="84" x="1860.7" y="508.0669">RelatedTrade</text><text fill="#000000" font-family="sans-serif" font-size="13" lengthAdjust="spacingAndGlyphs" textLength="8" x="1374.8716" y="701.0467">1</text><!--link SecuritiesTradeExecution to PaymentObligation--><path d="M504.867,99.992 C774.011,108.64 1353.69,132.283 1547.7,180 C1599.5,192.74 1626.85,184.483 1657.7,228 C1717.98,313.044 1715.37,366.447 1673.7,462 C1642.46,533.627 1555.22,576.546 1504.52,596.168 " fill="none" id="SecuritiesTradeExecution-PaymentObligation" style="stroke: #A80036; stroke-width: 1.0;"/><polygon fill="#A80036" points="1499.73,597.994,1509.5649,598.5177,1504.4006,596.2092,1506.7092,591.0448,1499.73,597.994" style="stroke: #A80036; stroke-width: 1.0;"/><text fill="#000000" font-family="sans-serif" font-size="13" lengthAdjust="spacingAndGlyphs" textLength="121" x="1681.7" y="457.0669">PaymentObligation</text><text fill="#000000" font-family="sans-serif" font-size="13" lengthAdjust="spacingAndGlyphs" textLength="7" x="1501.4513" y="587.0402">*</text><!--link SecuritiesTradeExecution to SecuritiesDeliveryObligation--><path d="M505.069,102.89 C719.988,114.506 1120.15,140.639 1257.7,180 C1303.56,193.124 1322.84,191.622 1353.7,228 C1421.26,307.649 1435.16,440.543 1437.99,486.652 " fill="none" id="SecuritiesTradeExecution-SecuritiesDeliveryObligation" style="stroke: #A80036; stroke-width: 1.0;"/><polygon fill="#A80036" points="1438.28,491.836,1441.7664,482.6249,1437.9982,486.8439,1433.7791,483.0757,1438.28,491.836" style="stroke: #A80036; stroke-width: 1.0;"/><text fill="#000000" font-family="sans-serif" font-size="13" lengthAdjust="spacingAndGlyphs" textLength="178" x="1429.7" y="325.0669">SecuritiesDeliveryObligation</text><text fill="#000000" font-family="sans-serif" font-size="13" lengthAdjust="spacingAndGlyphs" textLength="7" x="1428.5028" y="480.8278">*</text><!--link InvestmentFundOrderExecution to SecuritiesQuantity--><path d="M504.79,346.665 C614.132,366.618 763.32,398.851 889.698,444 C906.544,450.018 908.618,456.683 925.698,462 C936.379,465.325 1069.03,483.341 1151.5,494.355 " fill="none" id="InvestmentFundOrderExecution-SecuritiesQuantity" style="stroke: #A80036; stroke-width: 1.0;"/><polygon fill="#A80036" points="1156.86,495.07,1148.4639,489.9216,1151.9034,494.4127,1147.4123,497.8522,1156.86,495.07" style="stroke: #A80036; stroke-width: 1.0;"/><text fill="#000000" font-family="sans-serif" font-size="13" lengthAdjust="spacingAndGlyphs" textLength="85" x="926.698" y="457.0669">UnitsNumber</text><text fill="#000000" font-family="sans-serif" font-size="13" lengthAdjust="spacingAndGlyphs" textLength="8" x="1141.1218" y="489.3479">1</text><!--link InvestmentFundOrderExecution to InvestmentFundOrder--><path d="M455.266,414.109 C478.904,438.001 502.623,464.729 521.698,492 C544.825,525.064 562.169,569.613 570.398,593.052 " fill="none" id="InvestmentFundOrderExecution-InvestmentFundOrder" style="stroke: #A80036; stroke-width: 1.0;"/><polygon fill="#A80036" points="572.108,597.994,572.9468,588.1809,570.4738,593.2686,565.3862,590.7956,572.108,597.994" style="stroke: #A80036; stroke-width: 1.0;"/><text fill="#000000" font-family="sans-serif" font-size="13" lengthAdjust="spacingAndGlyphs" textLength="36" x="549.698" y="508.0669">Order</text><text fill="#000000" font-family="sans-serif" font-size="13" lengthAdjust="spacingAndGlyphs" textLength="24" x="541.3192" y="587.0402">0..1</text><!--link InvestmentFundOrderExecution to SecuritiesPricing--><path d="M504.801,392.368 C636.16,451.979 809.07,529.429 843.698,540 C906.736,559.244 924.152,559.093 989.698,566 C1042.1,571.522 1175.12,563.214 1226.7,574 C1248.18,578.491 1271.18,587.811 1288.27,595.705 " fill="none" id="InvestmentFundOrderExecution-SecuritiesPricing" style="stroke: #A80036; stroke-width: 1.0;"/><polygon fill="#A80036" points="1292.93,597.889,1286.4864,590.4405,1288.4049,595.7621,1283.0833,597.6806,1292.93,597.889" style="stroke: #A80036; stroke-width: 1.0;"/><text fill="#000000" font-family="sans-serif" font-size="13" lengthAdjust="spacingAndGlyphs" textLength="126" x="844.698" y="508.0669">ExecutedTradePrice</text><text fill="#000000" font-family="sans-serif" font-size="13" lengthAdjust="spacingAndGlyphs" textLength="8" x="1274.7278" y="586.8991">1</text><!--link InvestmentFundOrderExecution to SecuritiesPricing--><path d="M504.788,372.738 C549.403,386.788 598.316,401.578 643.698,414 C680.352,424.032 944.416,471.951 976.698,492 C1012.91,514.487 999.541,547.007 1037.7,566 C1056.52,575.366 1206.14,569.61 1226.7,574 C1248.16,578.583 1271.16,587.899 1288.26,595.768 " fill="none" id="InvestmentFundOrderExecution-SecuritiesPricing" style="stroke: #A80036; stroke-width: 1.0;"/><polygon fill="#A80036" points="1292.92,597.944,1286.4563,590.513,1288.3892,595.8293,1283.0728,597.7623,1292.92,597.944" style="stroke: #A80036; stroke-width: 1.0;"/><text fill="#000000" font-family="sans-serif" font-size="13" lengthAdjust="spacingAndGlyphs" textLength="103" x="1012.7" y="508.0669">InformativePrice</text><text fill="#000000" font-family="sans-serif" font-size="13" lengthAdjust="spacingAndGlyphs" textLength="8" x="1286.8081" y="586.973">1</text><!--link InvestmentFundOrderExecution to InvestmentFundTransaction--><path d="M196.629,361.187 C83.8926,397.552 -39.3884,458.366 22.6984,540 C86.3941,623.75 393.319,677.1492 548.888,699.2852 " fill="none" id="InvestmentFundOrderExecution-InvestmentFundTransaction" style="stroke: #A80036; stroke-width: 1.0;"/><polygon fill="#A80036" points="553.902,699.9952,545.5506,694.7746,548.9512,699.2952,544.4306,702.6958,553.902,699.9952" style="stroke: #A80036; stroke-width: 1.0;"/><text fill="#000000" font-family="sans-serif" font-size="13" lengthAdjust="spacingAndGlyphs" textLength="177" x="51.6984" y="561.0669">InvestmentFundTransaction</text><text fill="#000000" font-family="sans-serif" font-size="13" lengthAdjust="spacingAndGlyphs" textLength="24" x="517.4787" y="693.7007">0..1</text><!--link InvestmentFundOrderExecution to FundsCashFlow--><path d="M488.511,414.036 C523.947,438.673 561.666,465.766 595.698,492 C641.081,526.983 691.67,571.814 716.772,594.483 " fill="none" id="InvestmentFundOrderExecution-FundsCashFlow" style="stroke: #A80036; stroke-width: 1.0;"/><polygon fill="#A80036" points="720.578,597.926,716.5881,588.9215,716.8704,594.5713,711.2206,594.8536,720.578,597.926" style="stroke: #A80036; stroke-width: 1.0;"/><text fill="#000000" font-family="sans-serif" font-size="13" lengthAdjust="spacingAndGlyphs" textLength="59" x="654.698" y="508.0669">CashFlow</text><text fill="#000000" font-family="sans-serif" font-size="13" lengthAdjust="spacingAndGlyphs" textLength="7" x="706.693" y="586.9488">*</text><!--link SecuritiesSettlement to SecuritiesQuantity--><path d="M1256.8,333.326 C1226.51,362.21 1148.68,436.851 1145.7,444 C1137.28,464.219 1158.08,479.664 1179.31,489.671 " fill="none" id="SecuritiesSettlement-SecuritiesQuantity" style="stroke: #A80036; stroke-width: 1.0;"/><polygon fill="#A80036" points="1184.12,491.848,1177.5636,484.4986,1179.563,489.7903,1174.2713,491.7897,1184.12,491.848" style="stroke: #A80036; stroke-width: 1.0;"/><text fill="#000000" font-family="sans-serif" font-size="13" lengthAdjust="spacingAndGlyphs" textLength="126" x="1146.7" y="457.0669">SettlementQuantity</text><text fill="#000000" font-family="sans-serif" font-size="13" lengthAdjust="spacingAndGlyphs" textLength="8" x="1162.03" y="480.844">1</text><!--link SecuritiesSettlement to SecuritiesQuantity--><path d="M1273.24,333.005 C1282.69,357.771 1301.77,419.075 1278.7,462 C1272.28,473.941 1260.69,482.986 1249.25,489.501 " fill="none" id="SecuritiesSettlement-SecuritiesQuantity" style="stroke: #A80036; stroke-width: 1.0;"/><polygon fill="#A80036" points="1244.72,491.963,1254.538,491.1842,1249.1142,489.5774,1250.721,484.1535,1244.72,491.963" style="stroke: #A80036; stroke-width: 1.0;"/><text fill="#000000" font-family="sans-serif" font-size="13" lengthAdjust="spacingAndGlyphs" textLength="98" x="1286.7" y="457.0669">TurnedQuantity</text><text fill="#000000" font-family="sans-serif" font-size="13" lengthAdjust="spacingAndGlyphs" textLength="8" x="1243.4613" y="480.9985">1</text><!--link SecuritiesPricing to SecuritiesTrade--><path d="M1314.7,622.084 C1314.7,639.729 1314.7,674.2968 1314.7,694.745 " fill="none" id="SecuritiesPricing-SecuritiesTrade" style="stroke: #A80036; stroke-width: 1.0;"/><polygon fill="#A80036" points="1314.7,699.8665,1318.7,690.8665,1314.7,694.8665,1310.7,690.8665,1314.7,699.8665" style="stroke: #A80036; stroke-width: 1.0;"/><text fill="#000000" font-family="sans-serif" font-size="13" lengthAdjust="spacingAndGlyphs" textLength="99" x="1315.7" y="665.0669">SecuritiesTrade</text><text fill="#000000" font-family="sans-serif" font-size="13" lengthAdjust="spacingAndGlyphs" textLength="24" x="1285.2313" y="688.8688">0..1</text><!--link SecuritiesQuantity to InvestmentFundOrder--><path d="M1195.19,516.082 C1177.97,524.349 1152.94,535.034 1129.7,540 C1084.46,549.664 967.843,544.791 921.698,548 C806.729,555.996 775.657,546.662 663.698,574 C642.675,579.134 620.006,588.241 602.942,595.878 " fill="none" id="SecuritiesQuantity-InvestmentFundOrder" style="stroke: #A80036; stroke-width: 1.0;"/><polygon fill="#A80036" points="598.284,597.989,608.1326,597.9167,602.838,595.9248,604.8299,590.6303,598.284,597.989" style="stroke: #A80036; stroke-width: 1.0;"/><text fill="#000000" font-family="sans-serif" font-size="13" lengthAdjust="spacingAndGlyphs" textLength="36" x="922.698" y="561.0669">Order</text><text fill="#000000" font-family="sans-serif" font-size="13" lengthAdjust="spacingAndGlyphs" textLength="8" x="595.2433" y="587.0334">1</text><!--link SecuritiesQuantity to FundsCashFlow--><path d="M1193.6,516.123 C1176.37,523.965 1152.05,534.087 1129.7,540 C1104.12,546.768 1096.84,543.871 1070.7,548 C970.961,563.754 855.279,585.357 788.386,598.178 " fill="none" id="SecuritiesQuantity-FundsCashFlow" style="stroke: #A80036; stroke-width: 1.0;"/><polygon fill="#A80036" points="783.259,599.162,792.8512,601.3957,788.1696,598.2205,791.3448,593.5388,783.259,599.162" style="stroke: #A80036; stroke-width: 1.0;"/><text fill="#000000" font-family="sans-serif" font-size="13" lengthAdjust="spacingAndGlyphs" textLength="107" x="1071.7" y="561.0669">RelatedCashFlow</text><text fill="#000000" font-family="sans-serif" font-size="13" lengthAdjust="spacingAndGlyphs" textLength="8" x="792.2129" y="592.0396">1</text></g></svg>