<?xml version="1.0" encoding="UTF-8" standalone="no"?><svg xmlns="http://www.w3.org/2000/svg" xmlns:xlink="http://www.w3.org/1999/xlink" contentScriptType="application/ecmascript" contentStyleType="text/css" height="482px" preserveAspectRatio="none" style="width:1074px;height:482px;" version="1.1" viewBox="0 0 1074 482" width="1074px" zoomAndPan="magnify"><defs><filter height="300%" id="f1buls7v2lebha" width="300%" x="-1" y="-1"><feGaussianBlur result="blurOut" stdDeviation="2.0"/><feColorMatrix in="blurOut" result="blurOut2" type="matrix" values="0 0 0 0 0 0 0 0 0 0 0 0 0 0 0 0 0 0 .4 0"/><feOffset dx="4.0" dy="4.0" in="blurOut2" result="blurOut3"/><feBlend in="SourceGraphic" in2="blurOut3" mode="normal"/></filter></defs><g><!--cluster ##13095--><!--cluster ##13110--><!--cluster ##13119--><!--class Role--><a target="_top" xlink:actuate="onRequest" xlink:href="../Role.html" xlink:show="new" xlink:title="Role of a party in an activity." xlink:type="simple"><rect fill="#FEFEEE" filter="url(#f1buls7v2lebha)" height="44.7734" id="Role" style="stroke: #A80036; stroke-width: 1.5;" width="175" x="266.75" y="40.5"/><rect fill="#FEFEEE" height="23.9688" style="stroke: #A80036; stroke-width: 1.5;" width="175" x="266.75" y="40.5"/><text fill="#000000" font-family="sans-serif" font-size="12" lengthAdjust="spacingAndGlyphs" textLength="27" x="340.75" y="56.6387">Role</text><line style="stroke: #A80036; stroke-width: 1.5;" x1="267.75" x2="440.75" y1="64.4688" y2="64.4688"/><ellipse cx="277.75" cy="76.3711" fill="#84BE84" rx="3" ry="3" style="stroke: #038048; stroke-width: 1.0;"/><text fill="#000000" font-family="sans-serif" font-size="11" lengthAdjust="spacingAndGlyphs" textLength="53" x="286.75" y="78.6792">PartyRole</text><text fill="#000000" font-family="sans-serif" font-size="11" font-style="italic" lengthAdjust="spacingAndGlyphs" textLength="92" x="343.75" y="78.6792">(PartyRoleCode)</text></a><!--class InvoicePartyRole--><a target="_top" xlink:actuate="onRequest" xlink:href="../InvoicePartyRole.html" xlink:show="new" xlink:title="Role played by a party in the context of an invoice." xlink:type="simple"><rect fill="#FEFECE" filter="url(#f1buls7v2lebha)" height="23.9688" id="InvoicePartyRole" style="stroke: #A80036; stroke-width: 1.5;" width="108" x="300" y="166"/><rect fill="#FEFECE" height="23.9688" style="stroke: #A80036; stroke-width: 1.5;" width="108" x="300" y="166"/><text fill="#000000" font-family="sans-serif" font-size="12" lengthAdjust="spacingAndGlyphs" textLength="102" x="303" y="182.1387">InvoicePartyRole</text></a><!--class InvoiceeRole--><a target="_top" xlink:actuate="onRequest" xlink:href="../InvoiceeRole.html" xlink:show="new" xlink:title="Party identified as the liable party on the face of a commercial invoice." xlink:type="simple"><rect fill="#FEFEEE" filter="url(#f1buls7v2lebha)" height="23.9688" id="InvoiceeRole" style="stroke: #A80036; stroke-width: 1.5;" width="84" x="38.5" y="272"/><rect fill="#FEFEEE" height="23.9688" style="stroke: #A80036; stroke-width: 1.5;" width="84" x="38.5" y="272"/><text fill="#000000" font-family="sans-serif" font-size="12" lengthAdjust="spacingAndGlyphs" textLength="78" x="41.5" y="288.1387">InvoiceeRole</text></a><!--class InvoiceFinancingPartyRole--><a target="_top" xlink:actuate="onRequest" xlink:href="../InvoiceFinancingPartyRole.html" xlink:show="new" xlink:title="Role played by a party in the context of financing an invoice." xlink:type="simple"><rect fill="#FEFEEE" filter="url(#f1buls7v2lebha)" height="23.9688" id="InvoiceFinancingPartyRole" style="stroke: #A80036; stroke-width: 1.5;" width="168" x="157.5" y="272"/><rect fill="#FEFEEE" height="23.9688" style="stroke: #A80036; stroke-width: 1.5;" width="168" x="157.5" y="272"/><text fill="#000000" font-family="sans-serif" font-size="12" lengthAdjust="spacingAndGlyphs" textLength="162" x="160.5" y="288.1387">InvoiceFinancingPartyRole</text></a><!--class InvoicerRole--><a target="_top" xlink:actuate="onRequest" xlink:href="../InvoicerRole.html" xlink:show="new" xlink:title="Party identified as the liable party on the face of a commercial invoice." xlink:type="simple"><rect fill="#FEFEEE" filter="url(#f1buls7v2lebha)" height="23.9688" id="InvoicerRole" style="stroke: #A80036; stroke-width: 1.5;" width="81" x="360.75" y="272"/><rect fill="#FEFEEE" height="23.9688" style="stroke: #A80036; stroke-width: 1.5;" width="81" x="360.75" y="272"/><text fill="#000000" font-family="sans-serif" font-size="12" lengthAdjust="spacingAndGlyphs" textLength="75" x="363.75" y="288.1387">InvoicerRole</text></a><!--class RolePlayer--><a target="_top" xlink:actuate="onRequest" xlink:href="../RolePlayer.html" xlink:show="new" xlink:title="Type of entity that plays a specific role in a specific context." xlink:type="simple"><rect fill="#EEEEEE" filter="url(#f1buls7v2lebha)" height="23.9688" id="RolePlayer" style="stroke: #A80036; stroke-width: 1.5;" width="71" x="884.75" y="448"/><rect fill="#EEEEEE" height="23.9688" style="stroke: #A80036; stroke-width: 1.5;" width="71" x="884.75" y="448"/><text fill="#000000" font-family="sans-serif" font-size="12" lengthAdjust="spacingAndGlyphs" textLength="65" x="887.75" y="464.1387">RolePlayer</text></a><!--class ContactPersonRole--><a target="_top" xlink:actuate="onRequest" xlink:href="../ContactPersonRole.html" xlink:show="new" xlink:title="Person to be contacted in a given organisation. In the corporate action domain (including meeting notifications) , it is the contact person at the party organising the meeting, at the issuer or at an intermediary." xlink:type="simple"><rect fill="#EEEEEE" filter="url(#f1buls7v2lebha)" height="23.9688" id="ContactPersonRole" style="stroke: #A80036; stroke-width: 1.5;" width="126" x="877" y="362"/><rect fill="#EEEEEE" height="23.9688" style="stroke: #A80036; stroke-width: 1.5;" width="126" x="877" y="362"/><text fill="#000000" font-family="sans-serif" font-size="12" lengthAdjust="spacingAndGlyphs" textLength="120" x="880" y="378.1387">ContactPersonRole</text></a><!--class CounterpartyRisk--><a target="_top" xlink:actuate="onRequest" xlink:href="../CounterpartyRisk.html" xlink:show="new" xlink:title="Calculation of the exposure amount that one party has vis-a-vis one counterparty or a central system, based on its credit risk." xlink:type="simple"><rect fill="#EEEEEE" filter="url(#f1buls7v2lebha)" height="23.9688" id="CounterpartyRisk" style="stroke: #A80036; stroke-width: 1.5;" width="113" x="889.75" y="272"/><rect fill="#EEEEEE" height="23.9688" style="stroke: #A80036; stroke-width: 1.5;" width="113" x="889.75" y="272"/><text fill="#000000" font-family="sans-serif" font-size="12" lengthAdjust="spacingAndGlyphs" textLength="107" x="892.75" y="288.1387">CounterpartyRisk</text></a><!--class Entry--><a target="_top" xlink:actuate="onRequest" xlink:href="../Entry.html" xlink:show="new" xlink:title="Posting to an account that results in an increase or decrease to a balance." xlink:type="simple"><rect fill="#EEEEEE" filter="url(#f1buls7v2lebha)" height="23.9688" id="Entry" style="stroke: #A80036; stroke-width: 1.5;" width="38" x="877" y="166"/><rect fill="#EEEEEE" height="23.9688" style="stroke: #A80036; stroke-width: 1.5;" width="38" x="877" y="166"/><text fill="#000000" font-family="sans-serif" font-size="12" lengthAdjust="spacingAndGlyphs" textLength="32" x="880" y="182.1387">Entry</text></a><!--class Invoice--><a target="_top" xlink:actuate="onRequest" xlink:href="../Invoice.html" xlink:show="new" xlink:title="General information about an invoice, such as number, issue date date and monetary amounts." xlink:type="simple"><rect fill="#EEEEEE" filter="url(#f1buls7v2lebha)" height="23.9688" id="Invoice" style="stroke: #A80036; stroke-width: 1.5;" width="49" x="498.75" y="272"/><rect fill="#EEEEEE" height="23.9688" style="stroke: #A80036; stroke-width: 1.5;" width="49" x="498.75" y="272"/><text fill="#000000" font-family="sans-serif" font-size="12" lengthAdjust="spacingAndGlyphs" textLength="43" x="501.75" y="288.1387">Invoice</text></a><!--link Role to InvoicePartyRole--><path d="M354,105.559 C354,127.159 354,151.898 354,165.865 " fill="none" id="Role-InvoicePartyRole" style="stroke: #A80036; stroke-width: 1.0;"/><polygon fill="none" points="347,105.52,354,85.52,361,105.52,347,105.52" style="stroke: #A80036; stroke-width: 1.0;"/><!--link InvoicePartyRole to InvoiceeRole--><path d="M287.131,195.057 C243.841,206.603 186.835,223.998 139,246 C123.402,253.174 106.955,263.774 95.4002,271.791 " fill="none" id="InvoicePartyRole-InvoiceeRole" style="stroke: #A80036; stroke-width: 1.0;"/><polygon fill="none" points="285.459,188.259,306.576,190.016,288.972,201.811,285.459,188.259" style="stroke: #A80036; stroke-width: 1.0;"/><!--link InvoicePartyRole to InvoiceFinancingPartyRole--><path d="M327.145,203.717 C303.624,225.364 270.541,255.812 253.006,271.95 " fill="none" id="InvoicePartyRole-InvoiceFinancingPartyRole" style="stroke: #A80036; stroke-width: 1.0;"/><polygon fill="none" points="322.451,198.523,341.907,190.13,331.931,208.824,322.451,198.523" style="stroke: #A80036; stroke-width: 1.0;"/><!--link InvoicePartyRole to InvoicerRole--><path d="M367.355,208.552 C376.913,229.701 389.241,256.981 396.006,271.95 " fill="none" id="InvoicePartyRole-InvoicerRole" style="stroke: #A80036; stroke-width: 1.0;"/><polygon fill="none" points="360.887,211.238,359.03,190.13,373.645,205.472,360.887,211.238" style="stroke: #A80036; stroke-width: 1.0;"/><!--link ContactPersonRole to RolePlayer--><!--link CounterpartyRisk to ContactPersonRole--><!--link Entry to CounterpartyRisk--><!--link Role to RolePlayer--><path d="M441.333,71.891 C555.475,84.665 741,114.969 741,177 C741,177 741,177 741,375 C741,435.8572 826.842,452.7099 879.634,457.3199 " fill="none" id="Role-RolePlayer" style="stroke: #A80036; stroke-width: 1.0;"/><polygon fill="#A80036" points="884.635,457.7288,875.9919,453.0068,879.6517,457.3202,875.3382,460.98,884.635,457.7288" style="stroke: #A80036; stroke-width: 1.0;"/><text fill="#000000" font-family="sans-serif" font-size="13" lengthAdjust="spacingAndGlyphs" textLength="39" x="742" y="288.0669">Player</text><text fill="#000000" font-family="sans-serif" font-size="13" lengthAdjust="spacingAndGlyphs" textLength="7" x="869.7402" y="451.9585">*</text><!--link Role to ContactPersonRole--><path d="M441.358,64.892 C547.198,67.668 717.514,78.103 767,116 C813.524,151.629 789.715,186.141 817,238 C837.778,277.492 841.468,289.456 872,322 C885.542,336.435 903.56,349.743 917.646,359.144 " fill="none" id="Role-ContactPersonRole" style="stroke: #A80036; stroke-width: 1.0;"/><polygon fill="#A80036" points="921.883,361.932,916.5653,353.6421,917.7068,359.1826,912.1663,360.3241,921.883,361.932" style="stroke: #A80036; stroke-width: 1.0;"/><text fill="#000000" font-family="sans-serif" font-size="13" lengthAdjust="spacingAndGlyphs" textLength="121" x="818" y="233.0669">ContactPersonRole</text><text fill="#000000" font-family="sans-serif" font-size="13" lengthAdjust="spacingAndGlyphs" textLength="8" x="904.9365" y="350.9568">1</text><!--link Role to CounterpartyRisk--><path d="M441.483,63.496 C578.327,64.129 835.502,71.455 914,116 C944.961,133.569 959.627,217.782 960,220 C962.723,236.192 957.741,254.491 952.983,267.178 " fill="none" id="Role-CounterpartyRisk" style="stroke: #A80036; stroke-width: 1.0;"/><polygon fill="#A80036" points="951.118,271.916,958.1346,265.0046,952.9481,267.263,950.6897,262.0765,951.118,271.916" style="stroke: #A80036; stroke-width: 1.0;"/><text fill="#000000" font-family="sans-serif" font-size="13" lengthAdjust="spacingAndGlyphs" textLength="109" x="953" y="182.0669">CounterpartyRisk</text><text fill="#000000" font-family="sans-serif" font-size="13" lengthAdjust="spacingAndGlyphs" textLength="24" x="923.3226" y="260.9353">0..1</text><!--link Role to Entry--><path d="M441.253,64.888 C564.509,67.521 782.166,77.649 850,116 C868.05,126.205 881.209,146.694 888.719,161.101 " fill="none" id="Role-Entry" style="stroke: #A80036; stroke-width: 1.0;"/><polygon fill="#A80036" points="891.049,165.73,890.5766,155.8925,888.8015,161.2636,883.4304,159.4885,891.049,165.73" style="stroke: #A80036; stroke-width: 1.0;"/><text fill="#000000" font-family="sans-serif" font-size="13" lengthAdjust="spacingAndGlyphs" textLength="33" x="871" y="129.0669">Entry</text><text fill="#000000" font-family="sans-serif" font-size="13" lengthAdjust="spacingAndGlyphs" textLength="8" x="878.7527" y="154.944">1</text><!--link InvoicePartyRole to Invoice--><path d="M372.086,190.13 C403.216,209.287 466.833,248.436 500.672,269.26 " fill="none" id="InvoicePartyRole-Invoice" style="stroke: #A80036; stroke-width: 1.0;"/><polygon fill="#A80036" points="505.044,271.95,499.4746,263.8271,500.7854,269.33,495.2825,270.6409,505.044,271.95" style="stroke: #A80036; stroke-width: 1.0;"/><text fill="#000000" font-family="sans-serif" font-size="13" lengthAdjust="spacingAndGlyphs" textLength="44" x="450" y="233.0669">Invoice</text><text fill="#000000" font-family="sans-serif" font-size="13" lengthAdjust="spacingAndGlyphs" textLength="7" x="489.2388" y="260.981">*</text><!--link Invoice to Invoice--><path d="M547.549,276.26 C564.858,273.828 582,276.408 582,284 C582,290.821 568.163,293.596 552.8,292.326 " fill="none" id="Invoice-Invoice" style="stroke: #A80036; stroke-width: 1.0;"/><polygon fill="#A80036" points="547.549,291.74,556.0502,296.7129,552.5182,292.2942,556.9369,288.7622,547.549,291.74" style="stroke: #A80036; stroke-width: 1.0;"/><text fill="#000000" font-family="sans-serif" font-size="13" lengthAdjust="spacingAndGlyphs" textLength="92" x="588" y="288.0669">OriginalInvoice</text><text fill="#000000" font-family="sans-serif" font-size="13" lengthAdjust="spacingAndGlyphs" textLength="8" x="555.8618" y="287.6077">1</text></g></svg>