<?xml version="1.0" encoding="UTF-8" standalone="no"?><svg xmlns="http://www.w3.org/2000/svg" xmlns:xlink="http://www.w3.org/1999/xlink" contentScriptType="application/ecmascript" contentStyleType="text/css" height="502px" preserveAspectRatio="none" style="width:1232px;height:502px;" version="1.1" viewBox="0 0 1232 502" width="1232px" zoomAndPan="magnify"><defs><filter height="300%" id="f1ue64zmfqiok1" width="300%" x="-1" y="-1"><feGaussianBlur result="blurOut" stdDeviation="2.0"/><feColorMatrix in="blurOut" result="blurOut2" type="matrix" values="0 0 0 0 0 0 0 0 0 0 0 0 0 0 0 0 0 0 .4 0"/><feOffset dx="4.0" dy="4.0" in="blurOut2" result="blurOut3"/><feBlend in="SourceGraphic" in2="blurOut3" mode="normal"/></filter></defs><g><!--cluster ##15240--><!--cluster ##15258--><!--cluster ##15267--><!--cluster ##15270--><!--class Role--><a target="_top" xlink:actuate="onRequest" xlink:href="../Role.html" xlink:show="new" xlink:title="Role of a party in an activity." xlink:type="simple"><rect fill="#FEFEEE" filter="url(#f1ue64zmfqiok1)" height="44.7734" id="Role" style="stroke: #A80036; stroke-width: 1.5;" width="175" x="425.603" y="40.5"/><rect fill="#FEFEEE" height="23.9688" style="stroke: #A80036; stroke-width: 1.5;" width="175" x="425.603" y="40.5"/><text fill="#000000" font-family="sans-serif" font-size="12" lengthAdjust="spacingAndGlyphs" textLength="27" x="499.603" y="56.6387">Role</text><line style="stroke: #A80036; stroke-width: 1.5;" x1="426.603" x2="599.603" y1="64.4688" y2="64.4688"/><ellipse cx="436.603" cy="76.3711" fill="#84BE84" rx="3" ry="3" style="stroke: #038048; stroke-width: 1.0;"/><text fill="#000000" font-family="sans-serif" font-size="11" lengthAdjust="spacingAndGlyphs" textLength="53" x="445.603" y="78.6792">PartyRole</text><text fill="#000000" font-family="sans-serif" font-size="11" font-style="italic" lengthAdjust="spacingAndGlyphs" textLength="92" x="502.603" y="78.6792">(PartyRoleCode)</text></a><!--class InvoicePartyRole--><a target="_top" xlink:actuate="onRequest" xlink:href="../InvoicePartyRole.html" xlink:show="new" xlink:title="Role played by a party in the context of an invoice." xlink:type="simple"><rect fill="#FEFEEE" filter="url(#f1ue64zmfqiok1)" height="23.9688" id="InvoicePartyRole" style="stroke: #A80036; stroke-width: 1.5;" width="108" x="458.853" y="166"/><rect fill="#FEFEEE" height="23.9688" style="stroke: #A80036; stroke-width: 1.5;" width="108" x="458.853" y="166"/><text fill="#000000" font-family="sans-serif" font-size="12" lengthAdjust="spacingAndGlyphs" textLength="102" x="461.853" y="182.1387">InvoicePartyRole</text></a><!--class InvoiceFinancingPartyRole--><a target="_top" xlink:actuate="onRequest" xlink:href="../InvoiceFinancingPartyRole.html" xlink:show="new" xlink:title="Role played by a party in the context of financing an invoice." xlink:type="simple"><rect fill="#FEFECE" filter="url(#f1ue64zmfqiok1)" height="23.9688" id="InvoiceFinancingPartyRole" style="stroke: #A80036; stroke-width: 1.5;" width="168" x="286.353" y="272"/><rect fill="#FEFECE" height="23.9688" style="stroke: #A80036; stroke-width: 1.5;" width="168" x="286.353" y="272"/><text fill="#000000" font-family="sans-serif" font-size="12" lengthAdjust="spacingAndGlyphs" textLength="162" x="289.353" y="288.1387">InvoiceFinancingPartyRole</text></a><!--class IntermediateAgentRole--><a target="_top" xlink:actuate="onRequest" xlink:href="../IntermediateAgentRole.html" xlink:show="new" xlink:title="Financial institution that receives a financing request from the financing requestor and forwards it to the first agent for execution." xlink:type="simple"><rect fill="#FEFEEE" filter="url(#f1ue64zmfqiok1)" height="23.9688" id="IntermediateAgentRole" style="stroke: #A80036; stroke-width: 1.5;" width="150" x="127.353" y="380"/><rect fill="#FEFEEE" height="23.9688" style="stroke: #A80036; stroke-width: 1.5;" width="150" x="127.353" y="380"/><text fill="#000000" font-family="sans-serif" font-size="12" lengthAdjust="spacingAndGlyphs" textLength="144" x="130.353" y="396.1387">IntermediateAgentRole</text></a><!--class FirstAgentRole--><a target="_top" xlink:actuate="onRequest" xlink:href="../FirstAgentRole.html" xlink:show="new" xlink:title="Organisation offering invoice financing services. " xlink:type="simple"><rect fill="#FEFEEE" filter="url(#f1ue64zmfqiok1)" height="23.9688" id="FirstAgentRole" style="stroke: #A80036; stroke-width: 1.5;" width="97" x="311.603" y="380"/><rect fill="#FEFEEE" height="23.9688" style="stroke: #A80036; stroke-width: 1.5;" width="97" x="311.603" y="380"/><text fill="#000000" font-family="sans-serif" font-size="12" lengthAdjust="spacingAndGlyphs" textLength="91" x="314.603" y="396.1387">FirstAgentRole</text></a><!--class FinancingRequestorRole--><a target="_top" xlink:actuate="onRequest" xlink:href="../FinancingRequestorRole.html" xlink:show="new" xlink:title="Credit party that requests the invoice financing, on behalf of creditor." xlink:type="simple"><rect fill="#FEFEEE" filter="url(#f1ue64zmfqiok1)" height="23.9688" id="FinancingRequestorRole" style="stroke: #A80036; stroke-width: 1.5;" width="158" x="443.353" y="380"/><rect fill="#FEFEEE" height="23.9688" style="stroke: #A80036; stroke-width: 1.5;" width="158" x="443.353" y="380"/><text fill="#000000" font-family="sans-serif" font-size="12" lengthAdjust="spacingAndGlyphs" textLength="152" x="446.353" y="396.1387">FinancingRequestorRole</text></a><!--class RolePlayer--><a target="_top" xlink:actuate="onRequest" xlink:href="../RolePlayer.html" xlink:show="new" xlink:title="Type of entity that plays a specific role in a specific context." xlink:type="simple"><rect fill="#EEEEEE" filter="url(#f1ue64zmfqiok1)" height="23.9688" id="RolePlayer" style="stroke: #A80036; stroke-width: 1.5;" width="71" x="1043.6" y="468"/><rect fill="#EEEEEE" height="23.9688" style="stroke: #A80036; stroke-width: 1.5;" width="71" x="1043.6" y="468"/><text fill="#000000" font-family="sans-serif" font-size="12" lengthAdjust="spacingAndGlyphs" textLength="65" x="1046.6" y="484.1387">RolePlayer</text></a><!--class ContactPersonRole--><a target="_top" xlink:actuate="onRequest" xlink:href="../ContactPersonRole.html" xlink:show="new" xlink:title="Person to be contacted in a given organisation. In the corporate action domain (including meeting notifications) , it is the contact person at the party organising the meeting, at the issuer or at an intermediary." xlink:type="simple"><rect fill="#EEEEEE" filter="url(#f1ue64zmfqiok1)" height="23.9688" id="ContactPersonRole" style="stroke: #A80036; stroke-width: 1.5;" width="126" x="1035.85" y="380"/><rect fill="#EEEEEE" height="23.9688" style="stroke: #A80036; stroke-width: 1.5;" width="126" x="1035.85" y="380"/><text fill="#000000" font-family="sans-serif" font-size="12" lengthAdjust="spacingAndGlyphs" textLength="120" x="1038.85" y="396.1387">ContactPersonRole</text></a><!--class CounterpartyRisk--><a target="_top" xlink:actuate="onRequest" xlink:href="../CounterpartyRisk.html" xlink:show="new" xlink:title="Calculation of the exposure amount that one party has vis-a-vis one counterparty or a central system, based on its credit risk." xlink:type="simple"><rect fill="#EEEEEE" filter="url(#f1ue64zmfqiok1)" height="23.9688" id="CounterpartyRisk" style="stroke: #A80036; stroke-width: 1.5;" width="113" x="1048.6" y="272"/><rect fill="#EEEEEE" height="23.9688" style="stroke: #A80036; stroke-width: 1.5;" width="113" x="1048.6" y="272"/><text fill="#000000" font-family="sans-serif" font-size="12" lengthAdjust="spacingAndGlyphs" textLength="107" x="1051.6" y="288.1387">CounterpartyRisk</text></a><!--class Entry--><a target="_top" xlink:actuate="onRequest" xlink:href="../Entry.html" xlink:show="new" xlink:title="Posting to an account that results in an increase or decrease to a balance." xlink:type="simple"><rect fill="#EEEEEE" filter="url(#f1ue64zmfqiok1)" height="23.9688" id="Entry" style="stroke: #A80036; stroke-width: 1.5;" width="38" x="1035.85" y="166"/><rect fill="#EEEEEE" height="23.9688" style="stroke: #A80036; stroke-width: 1.5;" width="38" x="1035.85" y="166"/><text fill="#000000" font-family="sans-serif" font-size="12" lengthAdjust="spacingAndGlyphs" textLength="32" x="1038.85" y="182.1387">Entry</text></a><!--class Invoice--><a target="_top" xlink:actuate="onRequest" xlink:href="../Invoice.html" xlink:show="new" xlink:title="General information about an invoice, such as number, issue date date and monetary amounts." xlink:type="simple"><rect fill="#EEEEEE" filter="url(#f1ue64zmfqiok1)" height="23.9688" id="Invoice" style="stroke: #A80036; stroke-width: 1.5;" width="49" x="657.603" y="272"/><rect fill="#EEEEEE" height="23.9688" style="stroke: #A80036; stroke-width: 1.5;" width="49" x="657.603" y="272"/><text fill="#000000" font-family="sans-serif" font-size="12" lengthAdjust="spacingAndGlyphs" textLength="43" x="660.603" y="288.1387">Invoice</text></a><!--class CashAccount--><a target="_top" xlink:actuate="onRequest" xlink:href="../CashAccount.html" xlink:show="new" xlink:title="Account to or from which a cash entry is made." xlink:type="simple"><rect fill="#EEEEEE" filter="url(#f1ue64zmfqiok1)" height="23.9688" id="CashAccount" style="stroke: #A80036; stroke-width: 1.5;" width="88" x="668.353" y="468"/><rect fill="#EEEEEE" height="23.9688" style="stroke: #A80036; stroke-width: 1.5;" width="88" x="668.353" y="468"/><text fill="#000000" font-family="sans-serif" font-size="12" lengthAdjust="spacingAndGlyphs" textLength="82" x="671.353" y="484.1387">CashAccount</text></a><!--class InvoiceFinancingAgreement--><a target="_top" xlink:actuate="onRequest" xlink:href="../InvoiceFinancingAgreement.html" xlink:show="new" xlink:title="Set of characteristics that unambiguously identify an invoice financing agreement. An invoice financing agreement between a factor and its client allows to transfer a payment obligation that exists between the client and a third party from the client to the factor." xlink:type="simple"><rect fill="#EEEEEE" filter="url(#f1ue64zmfqiok1)" height="23.9688" id="InvoiceFinancingAgreement" style="stroke: #A80036; stroke-width: 1.5;" width="178" x="657.353" y="380"/><rect fill="#EEEEEE" height="23.9688" style="stroke: #A80036; stroke-width: 1.5;" width="178" x="657.353" y="380"/><text fill="#000000" font-family="sans-serif" font-size="12" lengthAdjust="spacingAndGlyphs" textLength="172" x="660.353" y="396.1387">InvoiceFinancingAgreement</text></a><!--link Role to InvoicePartyRole--><path d="M512.853,105.559 C512.853,127.159 512.853,151.898 512.853,165.865 " fill="none" id="Role-InvoicePartyRole" style="stroke: #A80036; stroke-width: 1.0;"/><polygon fill="none" points="505.853,105.52,512.853,85.52,519.853,105.52,505.853,105.52" style="stroke: #A80036; stroke-width: 1.0;"/><!--link InvoicePartyRole to InvoiceFinancingPartyRole--><path d="M481.003,202.164 C451.136,223.884 407.773,255.422 385.046,271.95 " fill="none" id="InvoicePartyRole-InvoiceFinancingPartyRole" style="stroke: #A80036; stroke-width: 1.0;"/><polygon fill="none" points="477.257,196.232,497.549,190.13,485.492,207.554,477.257,196.232" style="stroke: #A80036; stroke-width: 1.0;"/><!--link InvoiceFinancingPartyRole to IntermediateAgentRole--><path d="M335.202,306.863 C300.002,329.072 246.889,362.584 219.529,379.847 " fill="none" id="InvoiceFinancingPartyRole-IntermediateAgentRole" style="stroke: #A80036; stroke-width: 1.0;"/><polygon fill="none" points="331.541,300.896,352.191,296.144,339.012,312.736,331.541,300.896" style="stroke: #A80036; stroke-width: 1.0;"/><!--link InvoiceFinancingPartyRole to FirstAgentRole--><path d="M366.883,316.476 C364.869,337.829 362.324,364.799 360.915,379.738 " fill="none" id="InvoiceFinancingPartyRole-FirstAgentRole" style="stroke: #A80036; stroke-width: 1.0;"/><polygon fill="none" points="359.935,315.598,368.782,296.344,373.873,316.913,359.935,315.598" style="stroke: #A80036; stroke-width: 1.0;"/><!--link InvoiceFinancingPartyRole to FinancingRequestorRole--><path d="M386.369,313.639 C394.354,325.52 404.823,338.678 416.853,348 C435.693,362.6 460.181,373.005 480.768,379.918 " fill="none" id="InvoiceFinancingPartyRole-FinancingRequestorRole" style="stroke: #A80036; stroke-width: 1.0;"/><polygon fill="none" points="380.198,316.965,375.72,296.254,392.136,309.652,380.198,316.965" style="stroke: #A80036; stroke-width: 1.0;"/><!--link ContactPersonRole to RolePlayer--><!--link CounterpartyRisk to ContactPersonRole--><!--link Entry to CounterpartyRisk--><!--link InvoiceFinancingAgreement to CashAccount--><!--link Role to RolePlayer--><path d="M600.185,71.891 C714.327,84.665 899.853,114.969 899.853,177 C899.853,177 899.853,177 899.853,393 C899.853,454.1213 985.694,471.8314 1038.49,476.9437 " fill="none" id="Role-RolePlayer" style="stroke: #A80036; stroke-width: 1.0;"/><polygon fill="#A80036" points="1043.49,477.4002,1034.8934,472.5942,1038.5109,476.9431,1034.162,480.5607,1043.49,477.4002" style="stroke: #A80036; stroke-width: 1.0;"/><text fill="#000000" font-family="sans-serif" font-size="13" lengthAdjust="spacingAndGlyphs" textLength="39" x="900.853" y="288.0669">Player</text><text fill="#000000" font-family="sans-serif" font-size="13" lengthAdjust="spacingAndGlyphs" textLength="7" x="1028.5961" y="471.5734">*</text><!--link Role to ContactPersonRole--><path d="M600.21,64.892 C706.05,67.668 876.366,78.103 925.853,116 C972.377,151.629 948.568,186.141 975.853,238 C996.63,277.492 1002.831,287.271 1030.85,322 C1047.07,342.1 1068.3,362.914 1082.69,376.353 " fill="none" id="Role-ContactPersonRole" style="stroke: #A80036; stroke-width: 1.0;"/><polygon fill="#A80036" points="1086.56,379.941,1082.6798,370.8887,1082.8934,376.5415,1077.2406,376.7552,1086.56,379.941" style="stroke: #A80036; stroke-width: 1.0;"/><text fill="#000000" font-family="sans-serif" font-size="13" lengthAdjust="spacingAndGlyphs" textLength="121" x="976.853" y="233.0669">ContactPersonRole</text><text fill="#000000" font-family="sans-serif" font-size="13" lengthAdjust="spacingAndGlyphs" textLength="8" x="1071.6166" y="368.9689">1</text><!--link Role to CounterpartyRisk--><path d="M600.335,63.496 C737.179,64.129 994.354,71.455 1072.85,116 C1103.81,133.569 1118.48,217.782 1118.85,220 C1121.58,236.192 1116.59,254.491 1111.84,267.178 " fill="none" id="Role-CounterpartyRisk" style="stroke: #A80036; stroke-width: 1.0;"/><polygon fill="#A80036" points="1109.97,271.916,1116.9844,265.0024,1111.7986,267.2624,1109.5386,262.0766,1109.97,271.916" style="stroke: #A80036; stroke-width: 1.0;"/><text fill="#000000" font-family="sans-serif" font-size="13" lengthAdjust="spacingAndGlyphs" textLength="109" x="1111.85" y="182.0669">CounterpartyRisk</text><text fill="#000000" font-family="sans-serif" font-size="13" lengthAdjust="spacingAndGlyphs" textLength="24" x="1082.1753" y="260.9353">0..1</text><!--link Role to Entry--><path d="M600.106,64.888 C723.361,67.521 941.019,77.649 1008.85,116 C1026.9,126.205 1040.06,146.694 1047.57,161.101 " fill="none" id="Role-Entry" style="stroke: #A80036; stroke-width: 1.0;"/><polygon fill="#A80036" points="1049.9,165.73,1049.4327,155.8922,1047.6548,161.2624,1042.2846,159.4846,1049.9,165.73" style="stroke: #A80036; stroke-width: 1.0;"/><text fill="#000000" font-family="sans-serif" font-size="13" lengthAdjust="spacingAndGlyphs" textLength="33" x="1029.85" y="129.0669">Entry</text><text fill="#000000" font-family="sans-serif" font-size="13" lengthAdjust="spacingAndGlyphs" textLength="8" x="1037.6041" y="154.944">1</text><!--link InvoicePartyRole to Invoice--><path d="M530.939,190.13 C562.069,209.287 625.686,248.436 659.525,269.26 " fill="none" id="InvoicePartyRole-Invoice" style="stroke: #A80036; stroke-width: 1.0;"/><polygon fill="#A80036" points="663.897,271.95,658.3295,263.8258,659.6391,269.329,654.1359,270.6385,663.897,271.95" style="stroke: #A80036; stroke-width: 1.0;"/><text fill="#000000" font-family="sans-serif" font-size="13" lengthAdjust="spacingAndGlyphs" textLength="44" x="608.853" y="233.0669">Invoice</text><text fill="#000000" font-family="sans-serif" font-size="13" lengthAdjust="spacingAndGlyphs" textLength="7" x="648.0918" y="260.981">*</text><!--link InvoiceFinancingPartyRole to CashAccount--><path d="M285.962,290.213 C193.831,297.895 54.5641,315.941 21.8526,356 C1.6128,380.786 0.0751,404.553 21.8526,428 C65.3268,474.8061 512.999,479.0394 663.1,479.1331 " fill="none" id="InvoiceFinancingPartyRole-CashAccount" style="stroke: #A80036; stroke-width: 1.0;"/><polygon fill="#A80036" points="668.312,479.1348,659.312,475.1348,663.312,479.1348,659.312,483.1348,668.312,479.1348" style="stroke: #A80036; stroke-width: 1.0;"/><text fill="#000000" font-family="sans-serif" font-size="13" lengthAdjust="spacingAndGlyphs" textLength="84" x="22.8526" y="396.0669">CashAccount</text><text fill="#000000" font-family="sans-serif" font-size="13" lengthAdjust="spacingAndGlyphs" textLength="7" x="653.4859" y="473.8962">*</text><!--link InvoiceFinancingPartyRole to InvoiceFinancingAgreement--><path d="M386.655,296.054 C410.182,310.879 454.793,336.652 496.853,348 C548.459,361.924 564.133,347.181 616.853,356 C647.751,361.169 681.935,370.619 707.347,378.398 " fill="none" id="InvoiceFinancingPartyRole-InvoiceFinancingAgreement" style="stroke: #A80036; stroke-width: 1.0;"/><polygon fill="#A80036" points="712.308,379.93,704.8878,373.4539,707.5303,378.4556,702.5287,381.0981,712.308,379.93" style="stroke: #A80036; stroke-width: 1.0;"/><text fill="#000000" font-family="sans-serif" font-size="13" lengthAdjust="spacingAndGlyphs" textLength="178" x="497.853" y="343.0669">InvoiceFinancingTransaction</text><text fill="#000000" font-family="sans-serif" font-size="13" lengthAdjust="spacingAndGlyphs" textLength="7" x="691.0582" y="368.9542">*</text><!--link Invoice to Invoice--><path d="M706.402,274.914 C723.711,272.059 740.853,275.088 740.853,284 C740.853,292.007 727.016,295.265 711.653,293.774 " fill="none" id="Invoice-Invoice" style="stroke: #A80036; stroke-width: 1.0;"/><polygon fill="#A80036" points="706.402,293.086,714.8058,298.2218,711.3596,293.7359,715.8456,290.2897,706.402,293.086" style="stroke: #A80036; stroke-width: 1.0;"/><text fill="#000000" font-family="sans-serif" font-size="13" lengthAdjust="spacingAndGlyphs" textLength="92" x="746.853" y="288.0669">OriginalInvoice</text><text fill="#000000" font-family="sans-serif" font-size="13" lengthAdjust="spacingAndGlyphs" textLength="8" x="714.7148" y="289.3491">1</text><!--link Invoice to InvoiceFinancingAgreement--><path d="M681.507,296.042 C681.58,309.283 683.294,331.724 692.853,348 C699.731,359.711 711.075,369.556 721.507,376.857 " fill="none" id="Invoice-InvoiceFinancingAgreement" style="stroke: #A80036; stroke-width: 1.0;"/><polygon fill="#A80036" points="725.906,379.829,720.6879,371.4761,721.763,377.0298,716.2092,378.1049,725.906,379.829" style="stroke: #A80036; stroke-width: 1.0;"/><text fill="#000000" font-family="sans-serif" font-size="13" lengthAdjust="spacingAndGlyphs" textLength="178" x="693.853" y="343.0669">InvoiceFinancingTransaction</text><text fill="#000000" font-family="sans-serif" font-size="13" lengthAdjust="spacingAndGlyphs" textLength="8" x="708.1586" y="368.8184">1</text></g></svg>