<?xml version="1.0" encoding="UTF-8" standalone="no"?><svg xmlns="http://www.w3.org/2000/svg" xmlns:xlink="http://www.w3.org/1999/xlink" contentScriptType="application/ecmascript" contentStyleType="text/css" height="1630px" preserveAspectRatio="none" style="width:1837px;height:1630px;" version="1.1" viewBox="0 0 1837 1630" width="1837px" zoomAndPan="magnify"><defs><filter height="300%" id="f1bmtl4rxc7jni" width="300%" x="-1" y="-1"><feGaussianBlur result="blurOut" stdDeviation="2.0"/><feColorMatrix in="blurOut" result="blurOut2" type="matrix" values="0 0 0 0 0 0 0 0 0 0 0 0 0 0 0 0 0 0 .4 0"/><feOffset dx="4.0" dy="4.0" in="blurOut2" result="blurOut3"/><feBlend in="SourceGraphic" in2="blurOut3" mode="normal"/></filter></defs><g><!--cluster ##16809--><!--cluster ##16815--><!--class Meeting--><a target="_top" xlink:actuate="onRequest" xlink:href="../Meeting.html" xlink:show="new" xlink:title="Specifies the physical parameters of a general meeting. Several dates and places can be defined for a  meeting." xlink:type="simple"><rect fill="#FEFEEE" filter="url(#f1bmtl4rxc7jni)" height="121.6016" id="Meeting" style="stroke: #A80036; stroke-width: 1.5;" width="364" x="1351.86" y="40"/><rect fill="#FEFEEE" height="23.9688" style="stroke: #A80036; stroke-width: 1.5;" width="364" x="1351.86" y="40"/><text fill="#000000" font-family="sans-serif" font-size="12" lengthAdjust="spacingAndGlyphs" textLength="50" x="1508.86" y="56.1387">Meeting</text><line style="stroke: #A80036; stroke-width: 1.5;" x1="1352.86" x2="1714.86" y1="63.9688" y2="63.9688"/><ellipse cx="1362.86" cy="75.8711" fill="#84BE84" rx="3" ry="3" style="stroke: #038048; stroke-width: 1.0;"/><text fill="#000000" font-family="sans-serif" font-size="11" lengthAdjust="spacingAndGlyphs" textLength="75" x="1371.86" y="78.1792">DateAndTime</text><text fill="#000000" font-family="sans-serif" font-size="11" font-style="italic" lengthAdjust="spacingAndGlyphs" textLength="81" x="1450.86" y="78.1792">(ISODateTime)</text><ellipse cx="1362.86" cy="88.6758" fill="#84BE84" rx="3" ry="3" style="stroke: #038048; stroke-width: 1.0;"/><text fill="#000000" font-family="sans-serif" font-size="11" lengthAdjust="spacingAndGlyphs" textLength="63" x="1371.86" y="90.9839">DateStatus</text><text fill="#000000" font-family="sans-serif" font-size="11" font-style="italic" lengthAdjust="spacingAndGlyphs" textLength="142" x="1438.86" y="90.9839">(MeetingDateStatusCode)</text><ellipse cx="1362.86" cy="101.4805" fill="#84BE84" rx="3" ry="3" style="stroke: #038048; stroke-width: 1.0;"/><text fill="#000000" font-family="sans-serif" font-size="11" lengthAdjust="spacingAndGlyphs" textLength="72" x="1371.86" y="103.7886">Identification</text><text fill="#000000" font-family="sans-serif" font-size="11" font-style="italic" lengthAdjust="spacingAndGlyphs" textLength="70" x="1447.86" y="103.7886">(Max35Text)</text><ellipse cx="1362.86" cy="114.2852" fill="#84BE84" rx="3" ry="3" style="stroke: #038048; stroke-width: 1.0;"/><text fill="#000000" font-family="sans-serif" font-size="11" lengthAdjust="spacingAndGlyphs" textLength="113" x="1371.86" y="116.5933">AttendanceRequired</text><text fill="#000000" font-family="sans-serif" font-size="11" font-style="italic" lengthAdjust="spacingAndGlyphs" textLength="92" x="1488.86" y="116.5933">(YesNoIndicator)</text><ellipse cx="1362.86" cy="127.0898" fill="#84BE84" rx="3" ry="3" style="stroke: #038048; stroke-width: 1.0;"/><text fill="#000000" font-family="sans-serif" font-size="11" lengthAdjust="spacingAndGlyphs" textLength="136" x="1371.86" y="129.3979">AttendanceConfirmation</text><text fill="#000000" font-family="sans-serif" font-size="11" font-style="italic" lengthAdjust="spacingAndGlyphs" textLength="77" x="1511.86" y="129.3979">(Max350Text)</text><ellipse cx="1362.86" cy="139.8945" fill="#84BE84" rx="3" ry="3" style="stroke: #038048; stroke-width: 1.0;"/><text fill="#000000" font-family="sans-serif" font-size="11" lengthAdjust="spacingAndGlyphs" textLength="27" x="1371.86" y="142.2026">Type</text><text fill="#000000" font-family="sans-serif" font-size="11" font-style="italic" lengthAdjust="spacingAndGlyphs" textLength="109" x="1402.86" y="142.2026">(MeetingTypeCode)</text><ellipse cx="1362.86" cy="152.6992" fill="#84BE84" rx="3" ry="3" style="stroke: #038048; stroke-width: 1.0;"/><text fill="#000000" font-family="sans-serif" font-size="11" lengthAdjust="spacingAndGlyphs" textLength="151" x="1371.86" y="155.0073">MeetingEventClassification</text><text fill="#000000" font-family="sans-serif" font-size="11" font-style="italic" lengthAdjust="spacingAndGlyphs" textLength="183" x="1526.86" y="155.0073">(MeetingTypeClassificationCode)</text></a><!--class IssuerMeeting--><a target="_top" xlink:actuate="onRequest" xlink:href="../IssuerMeeting.html" xlink:show="new" xlink:title="Information about the meeting, specifying the participation requirements and the voting procedures." xlink:type="simple"><rect fill="#FEFECE" filter="url(#f1bmtl4rxc7jni)" height="147.2109" id="IssuerMeeting" style="stroke: #A80036; stroke-width: 1.5;" width="316" x="1400.36" y="240.5"/><rect fill="#FEFECE" height="23.9688" style="stroke: #A80036; stroke-width: 1.5;" width="316" x="1400.36" y="240.5"/><text fill="#000000" font-family="sans-serif" font-size="12" lengthAdjust="spacingAndGlyphs" textLength="88" x="1514.36" y="256.6387">IssuerMeeting</text><line style="stroke: #A80036; stroke-width: 1.5;" x1="1401.36" x2="1715.36" y1="264.4688" y2="264.4688"/><ellipse cx="1411.36" cy="276.3711" fill="#84BE84" rx="3" ry="3" style="stroke: #038048; stroke-width: 1.0;"/><text fill="#000000" font-family="sans-serif" font-size="11" lengthAdjust="spacingAndGlyphs" textLength="152" x="1420.36" y="278.6792">IssuerMeetingIdentification</text><text fill="#000000" font-family="sans-serif" font-size="11" font-style="italic" lengthAdjust="spacingAndGlyphs" textLength="70" x="1576.36" y="278.6792">(Max35Text)</text><ellipse cx="1411.36" cy="289.1758" fill="#84BE84" rx="3" ry="3" style="stroke: #038048; stroke-width: 1.0;"/><text fill="#000000" font-family="sans-serif" font-size="11" lengthAdjust="spacingAndGlyphs" textLength="194" x="1420.36" y="291.4839">NomineePowerOfAttorneyIndicator</text><text fill="#000000" font-family="sans-serif" font-size="11" font-style="italic" lengthAdjust="spacingAndGlyphs" textLength="92" x="1618.36" y="291.4839">(YesNoIndicator)</text><ellipse cx="1411.36" cy="301.9805" fill="#84BE84" rx="3" ry="3" style="stroke: #038048; stroke-width: 1.0;"/><text fill="#000000" font-family="sans-serif" font-size="11" lengthAdjust="spacingAndGlyphs" textLength="134" x="1420.36" y="304.2886">NomineeVotingIndicator</text><text fill="#000000" font-family="sans-serif" font-size="11" font-style="italic" lengthAdjust="spacingAndGlyphs" textLength="92" x="1558.36" y="304.2886">(YesNoIndicator)</text><ellipse cx="1411.36" cy="314.7852" fill="#84BE84" rx="3" ry="3" style="stroke: #038048; stroke-width: 1.0;"/><text fill="#000000" font-family="sans-serif" font-size="11" lengthAdjust="spacingAndGlyphs" textLength="191" x="1420.36" y="317.0933">NomineeBeneficialOwnerIndicator</text><text fill="#000000" font-family="sans-serif" font-size="11" font-style="italic" lengthAdjust="spacingAndGlyphs" textLength="92" x="1615.36" y="317.0933">(YesNoIndicator)</text><ellipse cx="1411.36" cy="327.5898" fill="#84BE84" rx="3" ry="3" style="stroke: #038048; stroke-width: 1.0;"/><text fill="#000000" font-family="sans-serif" font-size="11" lengthAdjust="spacingAndGlyphs" textLength="115" x="1420.36" y="329.8979">ProxyVotingIndicator</text><text fill="#000000" font-family="sans-serif" font-size="11" font-style="italic" lengthAdjust="spacingAndGlyphs" textLength="92" x="1539.36" y="329.8979">(YesNoIndicator)</text><ellipse cx="1411.36" cy="340.3945" fill="#84BE84" rx="3" ry="3" style="stroke: #038048; stroke-width: 1.0;"/><text fill="#000000" font-family="sans-serif" font-size="11" lengthAdjust="spacingAndGlyphs" textLength="172" x="1420.36" y="342.7026">ProxyBeneficialOwnerIndicator</text><text fill="#000000" font-family="sans-serif" font-size="11" font-style="italic" lengthAdjust="spacingAndGlyphs" textLength="92" x="1596.36" y="342.7026">(YesNoIndicator)</text><ellipse cx="1411.36" cy="353.1992" fill="#84BE84" rx="3" ry="3" style="stroke: #038048; stroke-width: 1.0;"/><text fill="#000000" font-family="sans-serif" font-size="11" lengthAdjust="spacingAndGlyphs" textLength="175" x="1420.36" y="355.5073">ProxyPowerOfAttorneyIndicator</text><text fill="#000000" font-family="sans-serif" font-size="11" font-style="italic" lengthAdjust="spacingAndGlyphs" textLength="92" x="1599.36" y="355.5073">(YesNoIndicator)</text><ellipse cx="1411.36" cy="366.0039" fill="#84BE84" rx="3" ry="3" style="stroke: #038048; stroke-width: 1.0;"/><text fill="#000000" font-family="sans-serif" font-size="11" lengthAdjust="spacingAndGlyphs" textLength="122" x="1420.36" y="368.312">ValidCreditorIndicator</text><text fill="#000000" font-family="sans-serif" font-size="11" font-style="italic" lengthAdjust="spacingAndGlyphs" textLength="92" x="1546.36" y="368.312">(YesNoIndicator)</text><ellipse cx="1411.36" cy="378.8086" fill="#84BE84" rx="3" ry="3" style="stroke: #038048; stroke-width: 1.0;"/><text fill="#000000" font-family="sans-serif" font-size="11" lengthAdjust="spacingAndGlyphs" textLength="70" x="1420.36" y="381.1167">CapitalStock</text><text fill="#000000" font-family="sans-serif" font-size="11" font-style="italic" lengthAdjust="spacingAndGlyphs" textLength="126" x="1494.36" y="381.1167">(CurrencyAndAmount)</text></a><!--class ContactPoint--><a target="_top" xlink:actuate="onRequest" xlink:href="../ContactPoint.html" xlink:show="new" xlink:title="Number, physical or virtual address, used for communication." xlink:type="simple"><rect fill="#EEEEEE" filter="url(#f1bmtl4rxc7jni)" height="23.9688" id="ContactPoint" style="stroke: #A80036; stroke-width: 1.5;" width="87" x="63.6095" y="302"/><rect fill="#EEEEEE" height="23.9688" style="stroke: #A80036; stroke-width: 1.5;" width="87" x="63.6095" y="302"/><text fill="#000000" font-family="sans-serif" font-size="12" lengthAdjust="spacingAndGlyphs" textLength="81" x="66.6095" y="318.1387">ContactPoint</text></a><!--class Deadline--><a target="_top" xlink:actuate="onRequest" xlink:href="../Deadline.html" xlink:show="new" xlink:title="Specifies the different deadlines available for the different processes related to corporate action processes." xlink:type="simple"><rect fill="#EEEEEE" filter="url(#f1bmtl4rxc7jni)" height="23.9688" id="Deadline" style="stroke: #A80036; stroke-width: 1.5;" width="61" x="319.61" y="1596"/><rect fill="#EEEEEE" height="23.9688" style="stroke: #A80036; stroke-width: 1.5;" width="61" x="319.61" y="1596"/><text fill="#000000" font-family="sans-serif" font-size="12" lengthAdjust="spacingAndGlyphs" textLength="55" x="322.61" y="1612.1387">Deadline</text></a><!--class MeetingServicing--><a target="_top" xlink:actuate="onRequest" xlink:href="../MeetingServicing.html" xlink:show="new" xlink:title="Services which consists in notifying the investor or its agent of a meeting, in validating and relaying its instructions and in calculating its entitlement based on its holdings." xlink:type="simple"><rect fill="#EEEEEE" filter="url(#f1bmtl4rxc7jni)" height="23.9688" id="MeetingServicing" style="stroke: #A80036; stroke-width: 1.5;" width="112" x="415.36" y="1510"/><rect fill="#EEEEEE" height="23.9688" style="stroke: #A80036; stroke-width: 1.5;" width="112" x="415.36" y="1510"/><text fill="#000000" font-family="sans-serif" font-size="12" lengthAdjust="spacingAndGlyphs" textLength="106" x="418.36" y="1526.1387">MeetingServicing</text></a><!--class ContactPersonRole--><a target="_top" xlink:actuate="onRequest" xlink:href="../ContactPersonRole.html" xlink:show="new" xlink:title="Person to be contacted in a given organisation. In the corporate action domain (including meeting notifications) , it is the contact person at the party organising the meeting, at the issuer or at an intermediary." xlink:type="simple"><rect fill="#EEEEEE" filter="url(#f1bmtl4rxc7jni)" height="23.9688" id="ContactPersonRole" style="stroke: #A80036; stroke-width: 1.5;" width="126" x="407.86" y="1424"/><rect fill="#EEEEEE" height="23.9688" style="stroke: #A80036; stroke-width: 1.5;" width="126" x="407.86" y="1424"/><text fill="#000000" font-family="sans-serif" font-size="12" lengthAdjust="spacingAndGlyphs" textLength="120" x="410.86" y="1440.1387">ContactPersonRole</text></a><!--class MeetingPartyRole--><a target="_top" xlink:actuate="onRequest" xlink:href="../MeetingPartyRole.html" xlink:show="new" xlink:title="Role played by a party in the context of a meeting." xlink:type="simple"><rect fill="#EEEEEE" filter="url(#f1bmtl4rxc7jni)" height="23.9688" id="MeetingPartyRole" style="stroke: #A80036; stroke-width: 1.5;" width="115" x="418.61" y="1322"/><rect fill="#EEEEEE" height="23.9688" style="stroke: #A80036; stroke-width: 1.5;" width="115" x="418.61" y="1322"/><text fill="#000000" font-family="sans-serif" font-size="12" lengthAdjust="spacingAndGlyphs" textLength="109" x="421.61" y="1338.1387">MeetingPartyRole</text></a><!--class MeetingStatus--><a target="_top" xlink:actuate="onRequest" xlink:href="../MeetingStatus.html" xlink:show="new" xlink:title="Status of the instructions related to a meeting." xlink:type="simple"><rect fill="#EEEEEE" filter="url(#f1bmtl4rxc7jni)" height="23.9688" id="MeetingStatus" style="stroke: #A80036; stroke-width: 1.5;" width="97" x="427.61" y="1236"/><rect fill="#EEEEEE" height="23.9688" style="stroke: #A80036; stroke-width: 1.5;" width="97" x="427.61" y="1236"/><text fill="#000000" font-family="sans-serif" font-size="12" lengthAdjust="spacingAndGlyphs" textLength="91" x="430.61" y="1252.1387">MeetingStatus</text></a><!--class CorporateActionEvent--><a target="_top" xlink:actuate="onRequest" xlink:href="../CorporateActionEvent.html" xlink:show="new" xlink:title="An event determined by a corporation's board of directors, that changes the existing corporate capital structure or financial condition." xlink:type="simple"><rect fill="#EEEEEE" filter="url(#f1bmtl4rxc7jni)" height="23.9688" id="CorporateActionEvent" style="stroke: #A80036; stroke-width: 1.5;" width="143" x="271.61" y="1150"/><rect fill="#EEEEEE" height="23.9688" style="stroke: #A80036; stroke-width: 1.5;" width="143" x="271.61" y="1150"/><text fill="#000000" font-family="sans-serif" font-size="12" lengthAdjust="spacingAndGlyphs" textLength="137" x="274.61" y="1166.1387">CorporateActionEvent</text></a><!--class Quorum--><a target="_top" xlink:actuate="onRequest" xlink:href="../Quorum.html" xlink:show="new" xlink:title="Specifies whether a quorum is required or not together with the quorum parameters." xlink:type="simple"><rect fill="#EEEEEE" filter="url(#f1bmtl4rxc7jni)" height="23.9688" id="Quorum" style="stroke: #A80036; stroke-width: 1.5;" width="55" x="251.61" y="1064"/><rect fill="#EEEEEE" height="23.9688" style="stroke: #A80036; stroke-width: 1.5;" width="55" x="251.61" y="1064"/><text fill="#000000" font-family="sans-serif" font-size="12" lengthAdjust="spacingAndGlyphs" textLength="49" x="254.61" y="1080.1387">Quorum</text></a><!--class VotingCondition--><a target="_top" xlink:actuate="onRequest" xlink:href="../VotingCondition.html" xlink:show="new" xlink:title="Specifies the different voting types, channels and premium." xlink:type="simple"><rect fill="#EEEEEE" filter="url(#f1bmtl4rxc7jni)" height="23.9688" id="VotingCondition" style="stroke: #A80036; stroke-width: 1.5;" width="105" x="199.61" y="978"/><rect fill="#EEEEEE" height="23.9688" style="stroke: #A80036; stroke-width: 1.5;" width="105" x="199.61" y="978"/><text fill="#000000" font-family="sans-serif" font-size="12" lengthAdjust="spacingAndGlyphs" textLength="99" x="202.61" y="994.1387">VotingCondition</text></a><!--class IncentivePremium--><a target="_top" xlink:actuate="onRequest" xlink:href="../IncentivePremium.html" xlink:show="new" xlink:title="Cash premium made available if the securities holder consents or participates to an event." xlink:type="simple"><rect fill="#EEEEEE" filter="url(#f1bmtl4rxc7jni)" height="23.9688" id="IncentivePremium" style="stroke: #A80036; stroke-width: 1.5;" width="116" x="191.36" y="876"/><rect fill="#EEEEEE" height="23.9688" style="stroke: #A80036; stroke-width: 1.5;" width="116" x="191.36" y="876"/><text fill="#000000" font-family="sans-serif" font-size="12" lengthAdjust="spacingAndGlyphs" textLength="110" x="194.36" y="892.1387">IncentivePremium</text></a><!--class MeetingParticipation--><a target="_top" xlink:actuate="onRequest" xlink:href="../MeetingParticipation.html" xlink:show="new" xlink:title="Specifies the number of voting rights and of outstanding securities." xlink:type="simple"><rect fill="#EEEEEE" filter="url(#f1bmtl4rxc7jni)" height="23.9688" id="MeetingParticipation" style="stroke: #A80036; stroke-width: 1.5;" width="135" x="137.61" y="774"/><rect fill="#EEEEEE" height="23.9688" style="stroke: #A80036; stroke-width: 1.5;" width="135" x="137.61" y="774"/><text fill="#000000" font-family="sans-serif" font-size="12" lengthAdjust="spacingAndGlyphs" textLength="129" x="140.61" y="790.1387">MeetingParticipation</text></a><!--class ResolutionProposal--><a target="_top" xlink:actuate="onRequest" xlink:href="../ResolutionProposal.html" xlink:show="new" xlink:title="Conditions that must be met to propose a resolution." xlink:type="simple"><rect fill="#EEEEEE" filter="url(#f1bmtl4rxc7jni)" height="23.9688" id="ResolutionProposal" style="stroke: #A80036; stroke-width: 1.5;" width="127" x="393.61" y="672"/><rect fill="#EEEEEE" height="23.9688" style="stroke: #A80036; stroke-width: 1.5;" width="127" x="393.61" y="672"/><text fill="#000000" font-family="sans-serif" font-size="12" lengthAdjust="spacingAndGlyphs" textLength="121" x="396.61" y="688.1387">ResolutionProposal</text></a><!--class Resolution--><a target="_top" xlink:actuate="onRequest" xlink:href="../Resolution.html" xlink:show="new" xlink:title="Specifies an item in the agenda of the meeting. Some resolutions are submitted to the vote of the security holders, some are presented for information only." xlink:type="simple"><rect fill="#EEEEEE" filter="url(#f1bmtl4rxc7jni)" height="23.9688" id="Resolution" style="stroke: #A80036; stroke-width: 1.5;" width="72" x="420.86" y="570"/><rect fill="#EEEEEE" height="23.9688" style="stroke: #A80036; stroke-width: 1.5;" width="72" x="420.86" y="570"/><text fill="#000000" font-family="sans-serif" font-size="12" lengthAdjust="spacingAndGlyphs" textLength="66" x="423.86" y="586.1387">Resolution</text></a><!--class ProxyAppointmentCondition--><a target="_top" xlink:actuate="onRequest" xlink:href="../ProxyAppointmentCondition.html" xlink:show="new" xlink:title="Conditions that must be met to appoint a proxy." xlink:type="simple"><rect fill="#EEEEEE" filter="url(#f1bmtl4rxc7jni)" height="23.9688" id="ProxyAppointmentCondition" style="stroke: #A80036; stroke-width: 1.5;" width="178" x="287.36" y="468"/><rect fill="#EEEEEE" height="23.9688" style="stroke: #A80036; stroke-width: 1.5;" width="178" x="287.36" y="468"/><text fill="#000000" font-family="sans-serif" font-size="12" lengthAdjust="spacingAndGlyphs" textLength="172" x="290.36" y="484.1387">ProxyAppointmentCondition</text></a><!--class AdditionalRight--><a target="_top" xlink:actuate="onRequest" xlink:href="../AdditionalRight.html" xlink:show="new" xlink:title="Specifies how the additional rights can be granted to the shareholder. These rights can be exercised at shareholders meetings (for example, the right to ask questions, the right to add items to the agenda or table draft resolutions)." xlink:type="simple"><rect fill="#EEEEEE" filter="url(#f1bmtl4rxc7jni)" height="23.9688" id="AdditionalRight" style="stroke: #A80036; stroke-width: 1.5;" width="100" x="296.86" y="302"/><rect fill="#EEEEEE" height="23.9688" style="stroke: #A80036; stroke-width: 1.5;" width="100" x="296.86" y="302"/><text fill="#000000" font-family="sans-serif" font-size="12" lengthAdjust="spacingAndGlyphs" textLength="94" x="299.86" y="318.1387">AdditionalRight</text></a><!--class PowerOfAttorneyRequirements--><a target="_top" xlink:actuate="onRequest" xlink:href="../PowerOfAttorneyRequirements.html" xlink:show="new" xlink:title="Specifies the conditions to be filled in to obtain a valid power of attorney." xlink:type="simple"><rect fill="#EEEEEE" filter="url(#f1bmtl4rxc7jni)" height="23.9688" id="PowerOfAttorneyRequirements" style="stroke: #A80036; stroke-width: 1.5;" width="197" x="63.6095" y="89"/><rect fill="#EEEEEE" height="23.9688" style="stroke: #A80036; stroke-width: 1.5;" width="197" x="63.6095" y="89"/><text fill="#000000" font-family="sans-serif" font-size="12" lengthAdjust="spacingAndGlyphs" textLength="191" x="66.6095" y="105.1387">PowerOfAttorneyRequirements</text></a><!--entity ##16848--><!--link Meeting to IssuerMeeting--><path d="M1542.99,182.31 C1545.17,201.4 1547.47,221.66 1549.6,240.38 " fill="none" id="Meeting-IssuerMeeting" style="stroke: #A80036; stroke-width: 1.0;"/><polygon fill="none" points="1536.01,182.84,1540.7,162.18,1549.92,181.26,1536.01,182.84" style="stroke: #A80036; stroke-width: 1.0;"/><!--link Deadline to ContactPoint--><!--link MeetingServicing to Deadline--><!--link ContactPersonRole to MeetingServicing--><!--link MeetingPartyRole to ContactPersonRole--><!--link MeetingStatus to MeetingPartyRole--><!--link CorporateActionEvent to MeetingStatus--><!--link Quorum to CorporateActionEvent--><!--link VotingCondition to Quorum--><!--link IncentivePremium to VotingCondition--><!--link MeetingParticipation to IncentivePremium--><!--link ResolutionProposal to MeetingParticipation--><!--link Resolution to ResolutionProposal--><!--link ProxyAppointmentCondition to Resolution--><!--link AdditionalRight to ProxyAppointmentCondition--><!--link PowerOfAttorneyRequirements to AdditionalRight--><!--link Meeting to ContactPoint--><path d="M1351.84,112.68 C996.359,133.78 242.059,179.81 216.86,192 C168.542,215.38 131.596,270.22 115.578,297.3 " fill="none" id="Meeting-ContactPoint" style="stroke: #A80036; stroke-width: 1.0;"/><polygon fill="#A80036" points="113.01,301.71,120.9934,295.9424,115.5245,297.3883,114.0786,291.9193,113.01,301.71" style="stroke: #A80036; stroke-width: 1.0;"/><text fill="#000000" font-family="sans-serif" font-size="13" lengthAdjust="spacingAndGlyphs" textLength="105" x="217.86" y="205.0669">MeetingLocation</text><text fill="#000000" font-family="sans-serif" font-size="13" lengthAdjust="spacingAndGlyphs" textLength="23" x="86.8242" y="290.9174">1..*</text><!--link Meeting to Deadline--><path d="M1663.05,162.11 C1717.65,197.15 1768.86,247.48 1768.86,313 C1768.86,313 1768.86,313 1768.86,1523 C1768.86,1594.5091 605.362,1605.3894 385.476,1606.8072 " fill="none" id="Meeting-Deadline" style="stroke: #A80036; stroke-width: 1.0;"/><polygon fill="#A80036" points="380.154,1606.8408,389.179,1610.7842,385.1539,1606.8094,389.1287,1602.7843,380.154,1606.8408" style="stroke: #A80036; stroke-width: 1.0;"/><text fill="#000000" font-family="sans-serif" font-size="13" lengthAdjust="spacingAndGlyphs" textLength="56" x="1769.86" y="994.0669">Deadline</text><text fill="#000000" font-family="sans-serif" font-size="13" lengthAdjust="spacingAndGlyphs" textLength="7" x="388.7497" y="1600.4535">*</text><!--link Meeting to MeetingServicing--><path d="M1438.44,162.04 C1392.34,199.04 1346.86,251.2 1346.86,313 C1346.86,313 1346.86,313 1346.86,532 C1346.86,712.904 1375.86,757.096 1375.86,938 C1375.86,938 1375.86,938 1375.86,1437 C1375.86,1479.52 734.136,1509.993 531.445,1518.558 " fill="none" id="Meeting-MeetingServicing" style="stroke: #A80036; stroke-width: 1.0;"/><polygon fill="#A80036" points="526.448,1518.768,535.6081,1522.3864,531.4436,1518.5579,535.272,1514.3934,526.448,1518.768" style="stroke: #A80036; stroke-width: 1.0;"/><text fill="#000000" font-family="sans-serif" font-size="13" lengthAdjust="spacingAndGlyphs" textLength="109" x="1376.86" y="943.0669">MeetingServicing</text><text fill="#000000" font-family="sans-serif" font-size="13" lengthAdjust="spacingAndGlyphs" textLength="24" x="535.463" y="1513.2694">0..1</text><!--link Meeting to ContactPersonRole--><path d="M1357.26,162.16 C1344,170.86 1331.62,180.76 1320.86,192 C1281.19,233.45 1275.86,255.62 1275.86,313 C1275.86,313 1275.86,313 1275.86,1335 C1275.86,1408.984 733.459,1428.888 539.114,1433.645 " fill="none" id="Meeting-ContactPersonRole" style="stroke: #A80036; stroke-width: 1.0;"/><polygon fill="#A80036" points="534.027,1433.768,543.1204,1437.5508,539.0256,1433.648,542.9284,1429.5532,534.027,1433.768" style="stroke: #A80036; stroke-width: 1.0;"/><text fill="#000000" font-family="sans-serif" font-size="13" lengthAdjust="spacingAndGlyphs" textLength="44" x="1276.86" y="892.0669">Person</text><text fill="#000000" font-family="sans-serif" font-size="13" lengthAdjust="spacingAndGlyphs" textLength="7" x="541.7354" y="1428.6035">*</text><!--link Meeting to MeetingPartyRole--><path d="M1351.58,132.98 C1314.44,146.2 1278.14,165.07 1249.86,192 C1208.3,231.56 1204.86,255.62 1204.86,313 C1204.86,313 1204.86,313 1204.86,736 C1204.86,777.664 1190.88,786.53 1186.86,828 C1186.09,835.963 1186.82,838 1186.86,846 C1187.08,886.891 1187.86,897.109 1187.86,938 C1187.86,938 1187.86,938 1187.86,1249 C1187.86,1314.131 711.885,1328.912 538.269,1332.136 " fill="none" id="Meeting-MeetingPartyRole" style="stroke: #A80036; stroke-width: 1.0;"/><polygon fill="#A80036" points="533.222,1332.228,542.2936,1336.0628,538.2212,1332.1366,542.1474,1328.0641,533.222,1332.228" style="stroke: #A80036; stroke-width: 1.0;"/><text fill="#000000" font-family="sans-serif" font-size="13" lengthAdjust="spacingAndGlyphs" textLength="60" x="1187.86" y="841.0669">PartyRole</text><text fill="#000000" font-family="sans-serif" font-size="13" lengthAdjust="spacingAndGlyphs" textLength="7" x="541.7456" y="1326.8619">*</text><!--link Meeting to MeetingStatus--><path d="M1351.77,132.11 C1278.86,147.39 1205.77,167.84 1178.86,192 C1136.16,230.33 1133.86,255.62 1133.86,313 C1133.86,313 1133.86,313 1133.86,685 C1133.86,753.176 1106.86,767.824 1106.86,836 C1106.86,836 1106.86,836 1106.86,1163 C1106.86,1221.023 682.212,1240.378 529.637,1245.459 " fill="none" id="Meeting-MeetingStatus" style="stroke: #A80036; stroke-width: 1.0;"/><polygon fill="#A80036" points="524.325,1245.634,533.4516,1249.3361,529.3223,1245.4697,533.1887,1241.3404,524.325,1245.634" style="stroke: #A80036; stroke-width: 1.0;"/><text fill="#000000" font-family="sans-serif" font-size="13" lengthAdjust="spacingAndGlyphs" textLength="42" x="1115.86" y="790.0669">Status</text><text fill="#000000" font-family="sans-serif" font-size="13" lengthAdjust="spacingAndGlyphs" textLength="7" x="532.5671" y="1239.9822">*</text><!--link Meeting to CorporateActionEvent--><path d="M1351.76,122.8 C1253.51,137.39 1144.93,160.04 1107.86,192 C1064.4,229.46 1062.86,255.62 1062.86,313 C1062.86,313 1062.86,313 1062.86,634 C1062.86,663.239 1057.57,672.01 1040.86,696 C1028.95,713.089 1013.69,707.139 1004.86,726 C1001.466,733.245 1004.567,736.005 1004.86,744 C1005.527,762.259 1007.86,766.729 1007.86,785 C1007.86,785 1007.86,785 1007.86,1077 C1007.86,1135.733 594.293,1154.071 419.445,1159.2 " fill="none" id="Meeting-CorporateActionEvent" style="stroke: #A80036; stroke-width: 1.0;"/><polygon fill="#A80036" points="414.342,1159.348,423.4537,1163.0867,419.3399,1159.2037,423.2228,1155.09,414.342,1159.348" style="stroke: #A80036; stroke-width: 1.0;"/><text fill="#000000" font-family="sans-serif" font-size="13" lengthAdjust="spacingAndGlyphs" textLength="100" x="1005.86" y="739.0669">CorporateEvent</text><text fill="#000000" font-family="sans-serif" font-size="13" lengthAdjust="spacingAndGlyphs" textLength="24" x="422.5352" y="1154.3252">0..1</text><!--link Meeting to Quorum--><path d="M1351.78,116.15 C1230.22,129.05 1084.26,152.32 1036.86,192 C992.863,228.83 991.86,255.62 991.86,313 C991.86,313 991.86,313 991.86,583 C991.86,698.071 936.86,720.929 936.86,836 C936.86,836 936.86,836 936.86,991 C936.86,1054.752 444.569,1071.063 311.615,1074.306 " fill="none" id="Meeting-Quorum" style="stroke: #A80036; stroke-width: 1.0;"/><polygon fill="#A80036" points="306.295,1074.433,315.3884,1078.2158,311.2936,1074.313,315.1964,1070.2182,306.295,1074.433" style="stroke: #A80036; stroke-width: 1.0;"/><text fill="#000000" font-family="sans-serif" font-size="13" lengthAdjust="spacingAndGlyphs" textLength="52" x="978.86" y="688.0669">Quorum</text><text fill="#000000" font-family="sans-serif" font-size="13" lengthAdjust="spacingAndGlyphs" textLength="7" x="314.5416" y="1067.8164">*</text><!--link Meeting to VotingCondition--><path d="M1351.8,111.14 C1208.54,121.86 1023.76,144.61 965.86,192 C921.46,228.34 920.86,255.62 920.86,313 C920.86,313 920.86,313 920.86,532 C920.86,561.55 913.926,569.88 896.86,594 C885.026,610.73 870.421,605.39 861.86,624 C858.517,631.27 861.567,634.01 861.86,642 C862.527,660.259 864.86,664.729 864.86,683 C864.86,683 864.86,683 864.86,889 C864.86,944.948 461.975,975.905 309.443,985.621 " fill="none" id="Meeting-VotingCondition" style="stroke: #A80036; stroke-width: 1.0;"/><polygon fill="#A80036" points="304.124,985.958,313.3586,989.3817,309.114,985.6423,312.8535,981.3977,304.124,985.958" style="stroke: #A80036; stroke-width: 1.0;"/><text fill="#000000" font-family="sans-serif" font-size="13" lengthAdjust="spacingAndGlyphs" textLength="101" x="862.86" y="637.0669">VotingCondition</text><text fill="#000000" font-family="sans-serif" font-size="13" lengthAdjust="spacingAndGlyphs" textLength="7" x="312.6246" y="980.117">*</text><!--link Meeting to IncentivePremium--><path d="M1351.65,105.14 C1186.61,111.88 959.683,132.15 894.86,192 C794.479,284.67 880.986,366.13 827.86,492 C800.161,557.62 749.86,560.77 749.86,632 C749.86,632 749.86,632 749.86,787 C749.86,875.335 446.549,886.747 311.928,887.462 " fill="none" id="Meeting-IncentivePremium" style="stroke: #A80036; stroke-width: 1.0;"/><polygon fill="#A80036" points="306.82,887.485,315.8382,891.4438,311.8199,887.4621,315.8016,883.4439,306.82,887.485" style="stroke: #A80036; stroke-width: 1.0;"/><text fill="#000000" font-family="sans-serif" font-size="13" lengthAdjust="spacingAndGlyphs" textLength="115" x="771.86" y="586.0669">IncentivePremium</text><text fill="#000000" font-family="sans-serif" font-size="13" lengthAdjust="spacingAndGlyphs" textLength="24" x="315.2854" y="882.4632">0..1</text><!--link Meeting to MeetingParticipation--><path d="M1351.57,112.84 C995.903,134.16 239.085,180.5 182.86,192 C119.65,204.93 87.9877,191.14 45.8595,240 C-9.6909,304.43 9.8595,342.93 9.8595,428 C9.8595,428 9.8595,428 9.8595,685 C9.8595,742.152 77.0007,766.663 132.488,777.162 " fill="none" id="Meeting-MeetingParticipation" style="stroke: #A80036; stroke-width: 1.0;"/><polygon fill="#A80036" points="137.479,778.075,129.346,772.5204,132.5607,777.175,127.906,780.3897,137.479,778.075" style="stroke: #A80036; stroke-width: 1.0;"/><text fill="#000000" font-family="sans-serif" font-size="13" lengthAdjust="spacingAndGlyphs" textLength="79" x="10.8595" y="535.0669">Participation</text><text fill="#000000" font-family="sans-serif" font-size="13" lengthAdjust="spacingAndGlyphs" textLength="7" x="122.604" y="772.5842">*</text><!--link Meeting to ResolutionProposal--><path d="M1351.58,104.89 C1169.2,111.28 904.499,131.14 823.86,192 C738.991,256.06 800.41,332.45 729.86,412 C696.83,449.24 670.798,435.77 632.86,468 C557.965,531.62 490.815,630.14 466.512,667.722 " fill="none" id="Meeting-ResolutionProposal" style="stroke: #A80036; stroke-width: 1.0;"/><polygon fill="#A80036" points="463.763,671.997,471.9951,666.5903,466.4672,667.7914,465.2661,662.2635,463.763,671.997" style="stroke: #A80036; stroke-width: 1.0;"/><text fill="#000000" font-family="sans-serif" font-size="13" lengthAdjust="spacingAndGlyphs" textLength="188" x="633.86" y="484.0669">ResolutionProposalConditions</text><text fill="#000000" font-family="sans-serif" font-size="13" lengthAdjust="spacingAndGlyphs" textLength="7" x="456.5031" y="661.0442">*</text><!--link Meeting to Resolution--><path d="M1351.81,112.54 C1135.49,126.67 797.971,154.39 752.86,192 C674.352,257.45 765.181,347.54 685.86,412 C670.449,424.52 614.543,410.97 596.86,420 C531.467,453.41 483.396,531.63 465.035,565.22 " fill="none" id="Meeting-Resolution" style="stroke: #A80036; stroke-width: 1.0;"/><polygon fill="#A80036" points="462.543,569.84,470.3333,563.8141,464.9146,565.4382,463.2905,560.0195,462.543,569.84" style="stroke: #A80036; stroke-width: 1.0;"/><text fill="#000000" font-family="sans-serif" font-size="13" lengthAdjust="spacingAndGlyphs" textLength="78" x="597.86" y="433.0669">AgendaItem</text><text fill="#000000" font-family="sans-serif" font-size="13" lengthAdjust="spacingAndGlyphs" textLength="7" x="454.9497" y="558.8332">*</text><!--link Meeting to ProxyAppointmentCondition--><path d="M1351.65,114.18 C1069.55,134.8 553.185,180.23 493.86,240 C429.994,304.34 498.898,365.21 444.86,438 C435.982,449.96 422.491,459.08 409.786,465.64 " fill="none" id="Meeting-ProxyAppointmentCondition" style="stroke: #A80036; stroke-width: 1.0;"/><polygon fill="#A80036" points="405.15,467.95,414.9895,467.5204,409.6261,465.7219,411.4246,460.3586,405.15,467.95" style="stroke: #A80036; stroke-width: 1.0;"/><text fill="#000000" font-family="sans-serif" font-size="13" lengthAdjust="spacingAndGlyphs" textLength="185" x="494.86" y="318.0669">ProxyAppointmentConditions</text><text fill="#000000" font-family="sans-serif" font-size="13" lengthAdjust="spacingAndGlyphs" textLength="7" x="405.4997" y="456.981">*</text><!--link Meeting to AdditionalRight--><path d="M1351.58,112.6 C1022.12,132.2 359.79,173.74 342.86,192 C316.331,220.61 330.377,271.35 340.105,297.08 " fill="none" id="Meeting-AdditionalRight" style="stroke: #A80036; stroke-width: 1.0;"/><polygon fill="#A80036" points="341.979,301.88,342.4392,292.0419,340.164,297.2211,334.9849,294.9459,341.979,301.88" style="stroke: #A80036; stroke-width: 1.0;"/><text fill="#000000" font-family="sans-serif" font-size="13" lengthAdjust="spacingAndGlyphs" textLength="95" x="343.86" y="205.0669">AdditionalRight</text><text fill="#000000" font-family="sans-serif" font-size="13" lengthAdjust="spacingAndGlyphs" textLength="7" x="330.7543" y="290.887">*</text><!--link Meeting to PowerOfAttorneyRequirements--><path d="M1351.78,101 C1060,101 497.015,101 265.329,101 " fill="none" id="Meeting-PowerOfAttorneyRequirements" style="stroke: #A80036; stroke-width: 1.0;"/><polygon fill="#A80036" points="260.255,101,269.255,105,265.255,101,269.255,97,260.255,101" style="stroke: #A80036; stroke-width: 1.0;"/><text fill="#000000" font-family="sans-serif" font-size="13" lengthAdjust="spacingAndGlyphs" textLength="196" x="707.36" y="93.0669">PowerOfAttorneyRequirements</text><text fill="#000000" font-family="sans-serif" font-size="13" lengthAdjust="spacingAndGlyphs" textLength="8" x="268.7139" y="96.3698">1</text><!--link ContactPoint to CorporateActionEvent--><path d="M116.403,326.24 C160.555,379.43 342.86,612.58 342.86,836 C342.86,836 342.86,836 342.86,1077 C342.86,1100.453 342.86,1127.589 342.86,1144.526 " fill="none" id="ContactPoint-CorporateActionEvent" style="stroke: #A80036; stroke-width: 1.0;"/><polygon fill="#A80036" points="342.86,1149.858,346.86,1140.858,342.86,1144.858,338.86,1140.858,342.86,1149.858" style="stroke: #A80036; stroke-width: 1.0;"/><text fill="#000000" font-family="sans-serif" font-size="13" lengthAdjust="spacingAndGlyphs" textLength="188" x="342.86" y="790.0669">RelatedCorporateActionEvent</text><text fill="#000000" font-family="sans-serif" font-size="13" lengthAdjust="spacingAndGlyphs" textLength="24" x="313.3053" y="1138.8574">0..1</text><!--link ContactPoint to ProxyAppointmentCondition--><path d="M117.878,326 C141.916,349.48 201.672,405.03 260.86,438 C282.465,450.03 308.264,459.62 329.947,466.48 " fill="none" id="ContactPoint-ProxyAppointmentCondition" style="stroke: #A80036; stroke-width: 1.0;"/><polygon fill="#A80036" points="334.792,467.99,327.3917,461.4911,330.0189,466.5009,325.0091,469.1281,334.792,467.99" style="stroke: #A80036; stroke-width: 1.0;"/><text fill="#000000" font-family="sans-serif" font-size="13" lengthAdjust="spacingAndGlyphs" textLength="166" x="261.86" y="433.0669">RelatedProxyAppointment</text><text fill="#000000" font-family="sans-serif" font-size="13" lengthAdjust="spacingAndGlyphs" textLength="24" x="291.0342" y="457.0348">0..1</text><!--link ContactPoint to VotingCondition--><path d="M110.071,326.02 C117.426,352.28 134.86,420.65 134.86,479 C134.86,479 134.86,479 134.86,634 C134.86,707.193 102.4894,726.898 119.86,798 C138.352,873.698 204.19,943.988 235.321,973.871 " fill="none" id="ContactPoint-VotingCondition" style="stroke: #A80036; stroke-width: 1.0;"/><polygon fill="#A80036" points="239.297,977.648,235.5249,968.5501,235.6712,974.2051,230.0163,974.3514,239.297,977.648" style="stroke: #A80036; stroke-width: 1.0;"/><text fill="#000000" font-family="sans-serif" font-size="13" lengthAdjust="spacingAndGlyphs" textLength="132" x="132.86" y="688.0669">ContactPointForVote</text><text fill="#000000" font-family="sans-serif" font-size="13" lengthAdjust="spacingAndGlyphs" textLength="24" x="205.7464" y="966.8348">0..1</text><!--link ContactPoint to ContactPoint--><path d="M122.557,301.83 C149.534,286.87 184.86,290.92 184.86,314 C184.86,335.82 153.292,340.63 127.051,328.45 " fill="none" id="ContactPoint-ContactPoint" style="stroke: #A80036; stroke-width: 1.0;"/><polygon fill="#A80036" points="122.557,326.17,128.7673,333.8141,127.0142,328.4357,132.3925,326.6826,122.557,326.17" style="stroke: #A80036; stroke-width: 1.0;"/><text fill="#000000" font-family="sans-serif" font-size="13" lengthAdjust="spacingAndGlyphs" textLength="80" x="190.86" y="318.0669">MainContact</text><text fill="#000000" font-family="sans-serif" font-size="13" lengthAdjust="spacingAndGlyphs" textLength="8" x="117.6707" y="346.0143">1</text><!--link Deadline to CorporateActionEvent--><path d="M340.118,1595.9247 C327.711,1580.6383 307.86,1551.696 307.86,1523 C307.86,1247 307.86,1247 307.86,1247 C307.86,1221.44 321.839,1194.637 332.128,1178.371 " fill="none" id="Deadline-CorporateActionEvent" style="stroke: #A80036; stroke-width: 1.0;"/><polygon fill="#A80036" points="334.917,1174.072,326.6627,1179.4448,332.1955,1178.2664,333.3738,1183.7992,334.917,1174.072" style="stroke: #A80036; stroke-width: 1.0;"/><text fill="#000000" font-family="sans-serif" font-size="13" lengthAdjust="spacingAndGlyphs" textLength="188" x="308.86" y="1389.0669">RelatedCorporateActionEvent</text><text fill="#000000" font-family="sans-serif" font-size="13" lengthAdjust="spacingAndGlyphs" textLength="24" x="301.1749" y="1194.2462">0..1</text></g></svg>