<?xml version="1.0" encoding="UTF-8" standalone="no"?><svg xmlns="http://www.w3.org/2000/svg" xmlns:xlink="http://www.w3.org/1999/xlink" contentScriptType="application/ecmascript" contentStyleType="text/css" height="602px" preserveAspectRatio="none" style="width:1024px;height:602px;" version="1.1" viewBox="0 0 1024 602" width="1024px" zoomAndPan="magnify"><defs><filter height="300%" id="fsp1w2rhrpjaq" width="300%" x="-1" y="-1"><feGaussianBlur result="blurOut" stdDeviation="2.0"/><feColorMatrix in="blurOut" result="blurOut2" type="matrix" values="0 0 0 0 0 0 0 0 0 0 0 0 0 0 0 0 0 0 .4 0"/><feOffset dx="4.0" dy="4.0" in="blurOut2" result="blurOut3"/><feBlend in="SourceGraphic" in2="blurOut3" mode="normal"/></filter></defs><g><!--cluster ##22210--><!--cluster ##22222--><!--cluster ##22231--><!--cluster ##22234--><!--class Role--><a target="_top" xlink:actuate="onRequest" xlink:href="../Role.html" xlink:show="new" xlink:title="Role of a party in an activity." xlink:type="simple"><rect fill="#FEFEEE" filter="url(#fsp1w2rhrpjaq)" height="44.7734" id="Role" style="stroke: #A80036; stroke-width: 1.5;" width="175" x="51.75" y="40.5"/><rect fill="#FEFEEE" height="23.9688" style="stroke: #A80036; stroke-width: 1.5;" width="175" x="51.75" y="40.5"/><text fill="#000000" font-family="sans-serif" font-size="12" lengthAdjust="spacingAndGlyphs" textLength="27" x="125.75" y="56.6387">Role</text><line style="stroke: #A80036; stroke-width: 1.5;" x1="52.75" x2="225.75" y1="64.4688" y2="64.4688"/><ellipse cx="62.75" cy="76.3711" fill="#84BE84" rx="3" ry="3" style="stroke: #038048; stroke-width: 1.0;"/><text fill="#000000" font-family="sans-serif" font-size="11" lengthAdjust="spacingAndGlyphs" textLength="53" x="71.75" y="78.6792">PartyRole</text><text fill="#000000" font-family="sans-serif" font-size="11" font-style="italic" lengthAdjust="spacingAndGlyphs" textLength="92" x="128.75" y="78.6792">(PartyRoleCode)</text></a><!--class AssetPartyRole--><a target="_top" xlink:actuate="onRequest" xlink:href="../AssetPartyRole.html" xlink:show="new" xlink:title="Specifies roles played by a party that are linked to the handling of assets but not related to a specific process." xlink:type="simple"><rect fill="#FEFEEE" filter="url(#fsp1w2rhrpjaq)" height="23.9688" id="AssetPartyRole" style="stroke: #A80036; stroke-width: 1.5;" width="100" x="113" y="166"/><rect fill="#FEFEEE" height="23.9688" style="stroke: #A80036; stroke-width: 1.5;" width="100" x="113" y="166"/><text fill="#000000" font-family="sans-serif" font-size="12" lengthAdjust="spacingAndGlyphs" textLength="94" x="116" y="182.1387">AssetPartyRole</text></a><!--class SecuritiesPartyRole--><a target="_top" xlink:actuate="onRequest" xlink:href="../SecuritiesPartyRole.html" xlink:show="new" xlink:title="Specifies roles played by a party that are linked to the handling of securities but not related to a specific process." xlink:type="simple"><rect fill="#FEFEEE" filter="url(#fsp1w2rhrpjaq)" height="23.9688" id="SecuritiesPartyRole" style="stroke: #A80036; stroke-width: 1.5;" width="127" x="99.75" y="270"/><rect fill="#FEFEEE" height="23.9688" style="stroke: #A80036; stroke-width: 1.5;" width="127" x="99.75" y="270"/><text fill="#000000" font-family="sans-serif" font-size="12" lengthAdjust="spacingAndGlyphs" textLength="121" x="102.75" y="286.1387">SecuritiesPartyRole</text></a><!--class LegalAdvisor--><a target="_top" xlink:actuate="onRequest" xlink:href="../LegalAdvisor.html" xlink:show="new" xlink:title="A party that provides legal advice for a fee." xlink:type="simple"><rect fill="#FEFECE" filter="url(#fsp1w2rhrpjaq)" height="23.9688" id="LegalAdvisor" style="stroke: #A80036; stroke-width: 1.5;" width="84" x="143.5" y="376"/><rect fill="#FEFECE" height="23.9688" style="stroke: #A80036; stroke-width: 1.5;" width="84" x="143.5" y="376"/><text fill="#000000" font-family="sans-serif" font-size="12" lengthAdjust="spacingAndGlyphs" textLength="78" x="146.5" y="392.1387">LegalAdvisor</text></a><!--class RolePlayer--><a target="_top" xlink:actuate="onRequest" xlink:href="../RolePlayer.html" xlink:show="new" xlink:title="Type of entity that plays a specific role in a specific context." xlink:type="simple"><rect fill="#EEEEEE" filter="url(#fsp1w2rhrpjaq)" height="23.9688" id="RolePlayer" style="stroke: #A80036; stroke-width: 1.5;" width="71" x="599.75" y="480"/><rect fill="#EEEEEE" height="23.9688" style="stroke: #A80036; stroke-width: 1.5;" width="71" x="599.75" y="480"/><text fill="#000000" font-family="sans-serif" font-size="12" lengthAdjust="spacingAndGlyphs" textLength="65" x="602.75" y="496.1387">RolePlayer</text></a><!--class ContactPersonRole--><a target="_top" xlink:actuate="onRequest" xlink:href="../ContactPersonRole.html" xlink:show="new" xlink:title="Person to be contacted in a given organisation. In the corporate action domain (including meeting notifications), it is the contact person at the party organising the meeting, at the issuer or at an intermediary." xlink:type="simple"><rect fill="#EEEEEE" filter="url(#fsp1w2rhrpjaq)" height="23.9688" id="ContactPersonRole" style="stroke: #A80036; stroke-width: 1.5;" width="126" x="552" y="376"/><rect fill="#EEEEEE" height="23.9688" style="stroke: #A80036; stroke-width: 1.5;" width="126" x="552" y="376"/><text fill="#000000" font-family="sans-serif" font-size="12" lengthAdjust="spacingAndGlyphs" textLength="120" x="555" y="392.1387">ContactPersonRole</text></a><!--class CounterpartyRisk--><a target="_top" xlink:actuate="onRequest" xlink:href="../CounterpartyRisk.html" xlink:show="new" xlink:title="Calculation of the exposure amount that one party has vis-a-vis one counterparty or a central system, based on its credit risk." xlink:type="simple"><rect fill="#EEEEEE" filter="url(#fsp1w2rhrpjaq)" height="23.9688" id="CounterpartyRisk" style="stroke: #A80036; stroke-width: 1.5;" width="113" x="558.75" y="270"/><rect fill="#EEEEEE" height="23.9688" style="stroke: #A80036; stroke-width: 1.5;" width="113" x="558.75" y="270"/><text fill="#000000" font-family="sans-serif" font-size="12" lengthAdjust="spacingAndGlyphs" textLength="107" x="561.75" y="286.1387">CounterpartyRisk</text></a><!--class Entry--><a target="_top" xlink:actuate="onRequest" xlink:href="../Entry.html" xlink:show="new" xlink:title="Posting to an account that results in an increase or decrease to a balance." xlink:type="simple"><rect fill="#EEEEEE" filter="url(#fsp1w2rhrpjaq)" height="23.9688" id="Entry" style="stroke: #A80036; stroke-width: 1.5;" width="38" x="552" y="166"/><rect fill="#EEEEEE" height="23.9688" style="stroke: #A80036; stroke-width: 1.5;" width="38" x="552" y="166"/><text fill="#000000" font-family="sans-serif" font-size="12" lengthAdjust="spacingAndGlyphs" textLength="32" x="555" y="182.1387">Entry</text></a><!--class Asset--><a target="_top" xlink:actuate="onRequest" xlink:href="../Asset.html" xlink:show="new" xlink:title="Tangible items of value to a business." xlink:type="simple"><rect fill="#EEEEEE" filter="url(#fsp1w2rhrpjaq)" height="23.9688" id="Asset" style="stroke: #A80036; stroke-width: 1.5;" width="41" x="283.75" y="270"/><rect fill="#EEEEEE" height="23.9688" style="stroke: #A80036; stroke-width: 1.5;" width="41" x="283.75" y="270"/><text fill="#000000" font-family="sans-serif" font-size="12" lengthAdjust="spacingAndGlyphs" textLength="35" x="286.75" y="286.1387">Asset</text></a><!--class SecuritiesAccount--><a target="_top" xlink:actuate="onRequest" xlink:href="../SecuritiesAccount.html" xlink:show="new" xlink:title="Account to or from which a securities entry is made." xlink:type="simple"><rect fill="#EEEEEE" filter="url(#fsp1w2rhrpjaq)" height="23.9688" id="SecuritiesAccount" style="stroke: #A80036; stroke-width: 1.5;" width="119" x="283.75" y="376"/><rect fill="#EEEEEE" height="23.9688" style="stroke: #A80036; stroke-width: 1.5;" width="119" x="283.75" y="376"/><text fill="#000000" font-family="sans-serif" font-size="12" lengthAdjust="spacingAndGlyphs" textLength="113" x="286.75" y="392.1387">SecuritiesAccount</text></a><!--class CashAccount--><a target="_top" xlink:actuate="onRequest" xlink:href="../CashAccount.html" xlink:show="new" xlink:title="Account to or from which a cash entry is made." xlink:type="simple"><rect fill="#EEEEEE" filter="url(#fsp1w2rhrpjaq)" height="23.9688" id="CashAccount" style="stroke: #A80036; stroke-width: 1.5;" width="88" x="315.5" y="568"/><rect fill="#EEEEEE" height="23.9688" style="stroke: #A80036; stroke-width: 1.5;" width="88" x="315.5" y="568"/><text fill="#000000" font-family="sans-serif" font-size="12" lengthAdjust="spacingAndGlyphs" textLength="82" x="318.5" y="584.1387">CashAccount</text></a><!--class Security--><a target="_top" xlink:actuate="onRequest" xlink:href="../Security.html" xlink:show="new" xlink:title="Financial instruments representing a sum of rights of the investor vis-a-vis the issuer." xlink:type="simple"><rect fill="#EEEEEE" filter="url(#fsp1w2rhrpjaq)" height="23.9688" id="Security" style="stroke: #A80036; stroke-width: 1.5;" width="56" x="287.5" y="480"/><rect fill="#EEEEEE" height="23.9688" style="stroke: #A80036; stroke-width: 1.5;" width="56" x="287.5" y="480"/><text fill="#000000" font-family="sans-serif" font-size="12" lengthAdjust="spacingAndGlyphs" textLength="50" x="290.5" y="496.1387">Security</text></a><!--entity ##22241--><!--link Role to AssetPartyRole--><path d="M147.755,105.222 C152.36,126.901 157.653,151.825 160.635,165.865 " fill="none" id="Role-AssetPartyRole" style="stroke: #A80036; stroke-width: 1.0;"/><polygon fill="none" points="140.879,106.538,143.571,85.52,154.573,103.63,140.879,106.538" style="stroke: #A80036; stroke-width: 1.0;"/><!--link AssetPartyRole to SecuritiesPartyRole--><path d="M163,210.595 C163,230.825 163,255.843 163,269.954 " fill="none" id="AssetPartyRole-SecuritiesPartyRole" style="stroke: #A80036; stroke-width: 1.0;"/><polygon fill="none" points="156,210.306,163,190.306,170,210.305,156,210.306" style="stroke: #A80036; stroke-width: 1.0;"/><!--link SecuritiesPartyRole to LegalAdvisor--><path d="M169.533,313.882 C173.965,334.833 179.562,361.293 182.663,375.95 " fill="none" id="SecuritiesPartyRole-LegalAdvisor" style="stroke: #A80036; stroke-width: 1.0;"/><polygon fill="none" points="162.645,315.146,165.354,294.13,176.342,312.248,162.645,315.146" style="stroke: #A80036; stroke-width: 1.0;"/><!--link ContactPersonRole to RolePlayer--><!--link CounterpartyRisk to ContactPersonRole--><!--link Entry to CounterpartyRisk--><!--link CashAccount to SecuritiesAccount--><!--link Security to CashAccount--><!--link Role to RolePlayer--><path d="M226.571,66.821 C440.441,74.872 972,102.387 972,177 C972,177 972,177 972,389 C972,450.283 765.27,478.14 675.642,487.338 " fill="none" id="Role-RolePlayer" style="stroke: #A80036; stroke-width: 1.0;"/><polygon fill="#A80036" points="670.428,487.866,679.7856,490.9378,675.4025,487.3617,678.9787,482.9786,670.428,487.866" style="stroke: #A80036; stroke-width: 1.0;"/><text fill="#000000" font-family="sans-serif" font-size="13" lengthAdjust="spacingAndGlyphs" textLength="39" x="973" y="286.0669">Player</text><text fill="#000000" font-family="sans-serif" font-size="13" lengthAdjust="spacingAndGlyphs" textLength="7" x="678.8888" y="481.1872">*</text><!--link Role to ContactPersonRole--><path d="M226.317,68.725 C386.561,78.317 714.263,102.571 747,142 C811.243,219.374 683.752,332.895 633.846,372.63 " fill="none" id="Role-ContactPersonRole" style="stroke: #A80036; stroke-width: 1.0;"/><polygon fill="#A80036" points="629.827,375.804,639.3689,373.3644,633.7506,372.7048,634.4102,367.0865,629.827,375.804" style="stroke: #A80036; stroke-width: 1.0;"/><text fill="#000000" font-family="sans-serif" font-size="13" lengthAdjust="spacingAndGlyphs" textLength="121" x="761" y="233.0669">ContactPersonRole</text><text fill="#000000" font-family="sans-serif" font-size="13" lengthAdjust="spacingAndGlyphs" textLength="8" x="624.0822" y="365.0425">1</text><!--link Role to CounterpartyRisk--><path d="M226.421,66.006 C347.688,70.796 557.648,87.027 607,142 C637.707,176.205 627.208,236.292 619.778,264.936 " fill="none" id="Role-CounterpartyRisk" style="stroke: #A80036; stroke-width: 1.0;"/><polygon fill="#A80036" points="618.436,269.905,624.643,262.2582,619.7389,265.0777,616.9194,260.1736,618.436,269.905" style="stroke: #A80036; stroke-width: 1.0;"/><text fill="#000000" font-family="sans-serif" font-size="13" lengthAdjust="spacingAndGlyphs" textLength="109" x="628" y="182.0669">CounterpartyRisk</text><text fill="#000000" font-family="sans-serif" font-size="13" lengthAdjust="spacingAndGlyphs" textLength="24" x="590.0624" y="258.9206">0..1</text><!--link Role to Entry--><path d="M221.273,85.52 C321.756,111.804 485.896,154.739 547.047,170.735 " fill="none" id="Role-Entry" style="stroke: #A80036; stroke-width: 1.0;"/><polygon fill="#A80036" points="551.957,172.019,544.261,165.8731,547.1195,170.7546,542.238,173.6131,551.957,172.019" style="stroke: #A80036; stroke-width: 1.0;"/><text fill="#000000" font-family="sans-serif" font-size="13" lengthAdjust="spacingAndGlyphs" textLength="33" x="408" y="129.0669">Entry</text><text fill="#000000" font-family="sans-serif" font-size="13" lengthAdjust="spacingAndGlyphs" textLength="8" x="535.8944" y="163.8562">1</text><!--link AssetPartyRole to Asset--><path d="M178.358,190.11 C204.103,208.734 255.932,246.227 284.315,266.76 " fill="none" id="AssetPartyRole-Asset" style="stroke: #A80036; stroke-width: 1.0;"/><polygon fill="#A80036" points="288.661,269.904,283.7143,261.3875,284.6102,266.973,279.0247,267.8689,288.661,269.904" style="stroke: #A80036; stroke-width: 1.0;"/><text fill="#000000" font-family="sans-serif" font-size="13" lengthAdjust="spacingAndGlyphs" textLength="36" x="243" y="233.0669">Asset</text><text fill="#000000" font-family="sans-serif" font-size="13" lengthAdjust="spacingAndGlyphs" textLength="7" x="273.7554" y="258.9192">*</text><!--link SecuritiesPartyRole to SecuritiesAccount--><path d="M182.263,294.13 C215.419,313.287 283.177,352.436 319.219,373.26 " fill="none" id="SecuritiesPartyRole-SecuritiesAccount" style="stroke: #A80036; stroke-width: 1.0;"/><polygon fill="#A80036" points="323.875,375.95,318.084,367.9836,319.5459,373.4483,314.0812,374.9102,323.875,375.95" style="stroke: #A80036; stroke-width: 1.0;"/><text fill="#000000" font-family="sans-serif" font-size="13" lengthAdjust="spacingAndGlyphs" textLength="115" x="265" y="339.0669">SecuritiesAccount</text><text fill="#000000" font-family="sans-serif" font-size="13" lengthAdjust="spacingAndGlyphs" textLength="7" x="307.668" y="364.981">*</text><!--link SecuritiesPartyRole to CashAccount--><path d="M189.416,294.019 C210.134,302.135 239.899,312.653 267,318 C293.873,323.302 364.749,315.386 390,326 C405.958,332.708 411.942,336.194 419,352 C452.697,427.469 395.379,525.7888 370.079,563.421 " fill="none" id="SecuritiesPartyRole-CashAccount" style="stroke: #A80036; stroke-width: 1.0;"/><polygon fill="#A80036" points="367.161,567.7038,375.5348,562.5193,369.9768,563.5721,368.924,558.014,367.161,567.7038" style="stroke: #A80036; stroke-width: 1.0;"/><text fill="#000000" font-family="sans-serif" font-size="13" lengthAdjust="spacingAndGlyphs" textLength="84" x="428" y="445.0669">CashAccount</text><text fill="#000000" font-family="sans-serif" font-size="13" lengthAdjust="spacingAndGlyphs" textLength="7" x="360.2081" y="556.9091">*</text><!--link SecuritiesPartyRole to Security--><path d="M136.665,294.177 C114.346,305.244 83.8274,324.523 70,352 C55.6151,380.584 50.585,398.563 70,424 C95.7756,457.771 221.547,478.662 282.183,486.929 " fill="none" id="SecuritiesPartyRole-Security" style="stroke: #A80036; stroke-width: 1.0;"/><polygon fill="#A80036" points="287.491,487.644,279.1051,482.479,282.5357,486.9769,278.0378,490.4075,287.491,487.644" style="stroke: #A80036; stroke-width: 1.0;"/><text fill="#000000" font-family="sans-serif" font-size="13" lengthAdjust="spacingAndGlyphs" textLength="52" x="71" y="392.0669">Security</text><text fill="#000000" font-family="sans-serif" font-size="13" lengthAdjust="spacingAndGlyphs" textLength="7" x="272.3797" y="480.9166">*</text><!--link SecuritiesAccount to Security--><path d="M333.149,400.121 C326.591,408.305 318.55,420.044 315,432 C310.854,445.965 311.315,462.623 312.543,474.671 " fill="none" id="SecuritiesAccount-Security" style="stroke: #A80036; stroke-width: 1.0;"/><polygon fill="#A80036" points="313.148,479.857,316.0799,470.4546,312.5695,474.8906,308.1336,471.3802,313.148,479.857" style="stroke: #A80036; stroke-width: 1.0;"/><text fill="#000000" font-family="sans-serif" font-size="13" lengthAdjust="spacingAndGlyphs" textLength="52" x="316" y="445.0669">Security</text><text fill="#000000" font-family="sans-serif" font-size="13" lengthAdjust="spacingAndGlyphs" textLength="7" x="302.7926" y="468.8561">*</text></g></svg>