<?xml version="1.0" encoding="UTF-8" standalone="no"?><svg xmlns="http://www.w3.org/2000/svg" xmlns:xlink="http://www.w3.org/1999/xlink" contentScriptType="application/ecmascript" contentStyleType="text/css" height="710px" preserveAspectRatio="none" style="width:2677px;height:710px;" version="1.1" viewBox="0 0 2677 710" width="2677px" zoomAndPan="magnify"><defs><filter height="300%" id="fhpk0ti70n2j2" width="300%" x="-1" y="-1"><feGaussianBlur result="blurOut" stdDeviation="2.0"/><feColorMatrix in="blurOut" result="blurOut2" type="matrix" values="0 0 0 0 0 0 0 0 0 0 0 0 0 0 0 0 0 0 .4 0"/><feOffset dx="4.0" dy="4.0" in="blurOut2" result="blurOut3"/><feBlend in="SourceGraphic" in2="blurOut3" mode="normal"/></filter></defs><g><!--cluster ##1475--><!--cluster ##1484--><!--cluster ##1509--><!--class Product--><a target="_top" xlink:actuate="onRequest" xlink:href="../Product.html" xlink:show="new" xlink:title="Item that is offered for sale. Products can be services or goods." xlink:type="simple"><rect fill="#FEFEEE" filter="url(#fhpk0ti70n2j2)" height="70.3828" id="Product" style="stroke: #A80036; stroke-width: 1.5;" width="171" x="2298.75" y="40"/><rect fill="#FEFEEE" height="23.9688" style="stroke: #A80036; stroke-width: 1.5;" width="171" x="2298.75" y="40"/><text fill="#000000" font-family="sans-serif" font-size="12" lengthAdjust="spacingAndGlyphs" textLength="49" x="2359.75" y="56.1387">Product</text><line style="stroke: #A80036; stroke-width: 1.5;" x1="2299.75" x2="2468.75" y1="63.9688" y2="63.9688"/><ellipse cx="2309.75" cy="75.8711" fill="#84BE84" rx="3" ry="3" style="stroke: #038048; stroke-width: 1.0;"/><text fill="#000000" font-family="sans-serif" font-size="11" lengthAdjust="spacingAndGlyphs" textLength="33" x="2318.75" y="78.1792">Name</text><text fill="#000000" font-family="sans-serif" font-size="11" font-style="italic" lengthAdjust="spacingAndGlyphs" textLength="70" x="2355.75" y="78.1792">(Max35Text)</text><ellipse cx="2309.75" cy="88.6758" fill="#84BE84" rx="3" ry="3" style="stroke: #038048; stroke-width: 1.0;"/><text fill="#000000" font-family="sans-serif" font-size="11" lengthAdjust="spacingAndGlyphs" textLength="64" x="2318.75" y="90.9839">Description</text><text fill="#000000" font-family="sans-serif" font-size="11" font-style="italic" lengthAdjust="spacingAndGlyphs" textLength="77" x="2386.75" y="90.9839">(Max140Text)</text><ellipse cx="2309.75" cy="101.4805" fill="#84BE84" rx="3" ry="3" style="stroke: #038048; stroke-width: 1.0;"/><text fill="#000000" font-family="sans-serif" font-size="11" lengthAdjust="spacingAndGlyphs" textLength="39" x="2318.75" y="103.7886">Quality</text><text fill="#000000" font-family="sans-serif" font-size="11" font-style="italic" lengthAdjust="spacingAndGlyphs" textLength="70" x="2361.75" y="103.7886">(Max70Text)</text></a><!--class FinancialProduct--><a target="_top" xlink:actuate="onRequest" xlink:href="../FinancialProduct.html" xlink:show="new" xlink:title="Product offered by a financial institution to its customers." xlink:type="simple"><rect fill="#FEFEEE" filter="url(#fhpk0ti70n2j2)" height="23.9688" id="FinancialProduct" style="stroke: #A80036; stroke-width: 1.5;" width="110" x="2360" y="188"/><rect fill="#FEFEEE" height="23.9688" style="stroke: #A80036; stroke-width: 1.5;" width="110" x="2360" y="188"/><text fill="#000000" font-family="sans-serif" font-size="12" lengthAdjust="spacingAndGlyphs" textLength="104" x="2363" y="204.1387">FinancialProduct</text></a><!--class ManagedAccountProduct--><a target="_top" xlink:actuate="onRequest" xlink:href="../ManagedAccountProduct.html" xlink:show="new" xlink:title="Product which provides guidance to investors to manage their portfolios." xlink:type="simple"><rect fill="#FEFECE" filter="url(#fhpk0ti70n2j2)" height="23.9688" id="ManagedAccountProduct" style="stroke: #A80036; stroke-width: 1.5;" width="164" x="2306" y="290"/><rect fill="#FEFECE" height="23.9688" style="stroke: #A80036; stroke-width: 1.5;" width="164" x="2306" y="290"/><text fill="#000000" font-family="sans-serif" font-size="12" lengthAdjust="spacingAndGlyphs" textLength="158" x="2309" y="306.1387">ManagedAccountProduct</text></a><!--class CardPayment--><a target="_top" xlink:actuate="onRequest" xlink:href="../CardPayment.html" xlink:show="new" xlink:title="Payment through an electronic money product." xlink:type="simple"><rect fill="#EEEEEE" filter="url(#fhpk0ti70n2j2)" height="23.9688" id="CardPayment" style="stroke: #A80036; stroke-width: 1.5;" width="89" x="1527.75" y="396"/><rect fill="#EEEEEE" height="23.9688" style="stroke: #A80036; stroke-width: 1.5;" width="89" x="1527.75" y="396"/><text fill="#000000" font-family="sans-serif" font-size="12" lengthAdjust="spacingAndGlyphs" textLength="83" x="1530.75" y="412.1387">CardPayment</text></a><!--class Price--><a target="_top" xlink:actuate="onRequest" xlink:href="../Price.html" xlink:show="new" xlink:title="Amount of money for which goods, services or assets are offered, sold, or bought." xlink:type="simple"><rect fill="#EEEEEE" filter="url(#fhpk0ti70n2j2)" height="23.9688" id="Price" style="stroke: #A80036; stroke-width: 1.5;" width="37" x="1578.75" y="290"/><rect fill="#EEEEEE" height="23.9688" style="stroke: #A80036; stroke-width: 1.5;" width="37" x="1578.75" y="290"/><text fill="#000000" font-family="sans-serif" font-size="12" lengthAdjust="spacingAndGlyphs" textLength="31" x="1581.75" y="306.1387">Price</text></a><!--class ProductCategory--><a target="_top" xlink:actuate="onRequest" xlink:href="../ProductCategory.html" xlink:show="new" xlink:title="Specifies the category of the product." xlink:type="simple"><rect fill="#EEEEEE" filter="url(#fhpk0ti70n2j2)" height="23.9688" id="ProductCategory" style="stroke: #A80036; stroke-width: 1.5;" width="111" x="1505.75" y="188"/><rect fill="#EEEEEE" height="23.9688" style="stroke: #A80036; stroke-width: 1.5;" width="111" x="1505.75" y="188"/><text fill="#000000" font-family="sans-serif" font-size="12" lengthAdjust="spacingAndGlyphs" textLength="105" x="1508.75" y="204.1387">ProductCategory</text></a><!--class LineItem--><a target="_top" xlink:actuate="onRequest" xlink:href="../LineItem.html" xlink:show="new" xlink:title="Unit of information  showing the related  provision of products and/or services and monetary summations reported as a discrete line item." xlink:type="simple"><rect fill="#EEEEEE" filter="url(#fhpk0ti70n2j2)" height="23.9688" id="LineItem" style="stroke: #A80036; stroke-width: 1.5;" width="58" x="969.5" y="63"/><rect fill="#EEEEEE" height="23.9688" style="stroke: #A80036; stroke-width: 1.5;" width="58" x="969.5" y="63"/><text fill="#000000" font-family="sans-serif" font-size="12" lengthAdjust="spacingAndGlyphs" textLength="52" x="972.5" y="79.1387">LineItem</text></a><!--class ProductIdentification--><a target="_top" xlink:actuate="onRequest" xlink:href="../ProductIdentification.html" xlink:show="new" xlink:title="Information used to identify a product." xlink:type="simple"><rect fill="#EEEEEE" filter="url(#fhpk0ti70n2j2)" height="23.9688" id="ProductIdentification" style="stroke: #A80036; stroke-width: 1.5;" width="136" x="1074" y="500"/><rect fill="#EEEEEE" height="23.9688" style="stroke: #A80036; stroke-width: 1.5;" width="136" x="1074" y="500"/><text fill="#000000" font-family="sans-serif" font-size="12" lengthAdjust="spacingAndGlyphs" textLength="130" x="1077" y="516.1387">ProductIdentification</text></a><!--class Country--><a target="_top" xlink:actuate="onRequest" xlink:href="../Country.html" xlink:show="new" xlink:title="Nation with its own government." xlink:type="simple"><rect fill="#EEEEEE" filter="url(#fhpk0ti70n2j2)" height="23.9688" id="Country" style="stroke: #A80036; stroke-width: 1.5;" width="54" x="1115" y="396"/><rect fill="#EEEEEE" height="23.9688" style="stroke: #A80036; stroke-width: 1.5;" width="54" x="1115" y="396"/><text fill="#000000" font-family="sans-serif" font-size="12" lengthAdjust="spacingAndGlyphs" textLength="48" x="1118" y="412.1387">Country</text></a><!--class ProductCharacteristics--><a target="_top" xlink:actuate="onRequest" xlink:href="../ProductCharacteristics.html" xlink:show="new" xlink:title="Identifies the characteristic of a product." xlink:type="simple"><rect fill="#EEEEEE" filter="url(#fhpk0ti70n2j2)" height="23.9688" id="ProductCharacteristics" style="stroke: #A80036; stroke-width: 1.5;" width="149" x="1284.75" y="290"/><rect fill="#EEEEEE" height="23.9688" style="stroke: #A80036; stroke-width: 1.5;" width="149" x="1284.75" y="290"/><text fill="#000000" font-family="sans-serif" font-size="12" lengthAdjust="spacingAndGlyphs" textLength="143" x="1287.75" y="306.1387">ProductCharacteristics</text></a><!--class ProductQuantity--><a target="_top" xlink:actuate="onRequest" xlink:href="../ProductQuantity.html" xlink:show="new" xlink:title="Specifies the ordered quantity of a product." xlink:type="simple"><rect fill="#EEEEEE" filter="url(#fhpk0ti70n2j2)" height="23.9688" id="ProductQuantity" style="stroke: #A80036; stroke-width: 1.5;" width="107" x="1195.75" y="188"/><rect fill="#EEEEEE" height="23.9688" style="stroke: #A80036; stroke-width: 1.5;" width="107" x="1195.75" y="188"/><text fill="#000000" font-family="sans-serif" font-size="12" lengthAdjust="spacingAndGlyphs" textLength="101" x="1198.75" y="204.1387">ProductQuantity</text></a><!--class ProductDelivery--><a target="_top" xlink:actuate="onRequest" xlink:href="../ProductDelivery.html" xlink:show="new" xlink:title="Arrangements for delivery of invoiced products and/or services." xlink:type="simple"><rect fill="#EEEEEE" filter="url(#fhpk0ti70n2j2)" height="23.9688" id="ProductDelivery" style="stroke: #A80036; stroke-width: 1.5;" width="103" x="1197.75" y="676"/><rect fill="#EEEEEE" height="23.9688" style="stroke: #A80036; stroke-width: 1.5;" width="103" x="1197.75" y="676"/><text fill="#000000" font-family="sans-serif" font-size="12" lengthAdjust="spacingAndGlyphs" textLength="97" x="1200.75" y="692.1387">ProductDelivery</text></a><!--class PurchaseOrder--><a target="_top" xlink:actuate="onRequest" xlink:href="../PurchaseOrder.html" xlink:show="new" xlink:title="Document issued by a buyer and containing the details of a purchase, including description of goods, transport information, payment terms, etc." xlink:type="simple"><rect fill="#EEEEEE" filter="url(#fhpk0ti70n2j2)" height="23.9688" id="PurchaseOrder" style="stroke: #A80036; stroke-width: 1.5;" width="100" x="583" y="590"/><rect fill="#EEEEEE" height="23.9688" style="stroke: #A80036; stroke-width: 1.5;" width="100" x="583" y="590"/><text fill="#000000" font-family="sans-serif" font-size="12" lengthAdjust="spacingAndGlyphs" textLength="94" x="586" y="606.1387">PurchaseOrder</text></a><!--class Tax--><a target="_top" xlink:actuate="onRequest" xlink:href="../Tax.html" xlink:show="new" xlink:title="Amount of money due to the government or tax authority, according to various pre-defined parameters such as thresholds or income." xlink:type="simple"><rect fill="#EEEEEE" filter="url(#fhpk0ti70n2j2)" height="23.9688" id="Tax" style="stroke: #A80036; stroke-width: 1.5;" width="27" x="619.75" y="500"/><rect fill="#EEEEEE" height="23.9688" style="stroke: #A80036; stroke-width: 1.5;" width="27" x="619.75" y="500"/><text fill="#000000" font-family="sans-serif" font-size="12" lengthAdjust="spacingAndGlyphs" textLength="21" x="622.75" y="516.1387">Tax</text></a><!--entity ##1507--><!--class Account--><a target="_top" xlink:actuate="onRequest" xlink:href="../Account.html" xlink:show="new" xlink:title="Record of transactions in specific types of assets, maintained by a servicing party on behalf of one or more owning parties. Business relationship between an account servicer and one or more account owners." xlink:type="simple"><rect fill="#EEEEEE" filter="url(#fhpk0ti70n2j2)" height="23.9688" id="Account" style="stroke: #A80036; stroke-width: 1.5;" width="57" x="2470.75" y="500"/><rect fill="#EEEEEE" height="23.9688" style="stroke: #A80036; stroke-width: 1.5;" width="57" x="2470.75" y="500"/><text fill="#000000" font-family="sans-serif" font-size="12" lengthAdjust="spacingAndGlyphs" textLength="51" x="2473.75" y="516.1387">Account</text></a><!--class InvestmentAccountContract--><a target="_top" xlink:actuate="onRequest" xlink:href="../InvestmentAccountContract.html" xlink:show="new" xlink:title="Contract defining the related investment account." xlink:type="simple"><rect fill="#EEEEEE" filter="url(#fhpk0ti70n2j2)" height="23.9688" id="InvestmentAccountContract" style="stroke: #A80036; stroke-width: 1.5;" width="180" x="2472" y="396"/><rect fill="#EEEEEE" height="23.9688" style="stroke: #A80036; stroke-width: 1.5;" width="180" x="2472" y="396"/><text fill="#000000" font-family="sans-serif" font-size="12" lengthAdjust="spacingAndGlyphs" textLength="174" x="2475" y="412.1387">InvestmentAccountContract</text></a><!--link Product to FinancialProduct--><path d="M2397.59,129.911 C2403.06,151.608 2408.85,174.584 2412.18,187.815 " fill="none" id="Product-FinancialProduct" style="stroke: #A80036; stroke-width: 1.0;"/><polygon fill="none" points="2390.74,131.367,2392.64,110.262,2404.31,127.945,2390.74,131.367" style="stroke: #A80036; stroke-width: 1.0;"/><!--link FinancialProduct to ManagedAccountProduct--><path d="M2406.76,231.536 C2401.42,251.301 2394.78,275.875 2391.01,289.867 " fill="none" id="FinancialProduct-ManagedAccountProduct" style="stroke: #A80036; stroke-width: 1.0;"/><polygon fill="none" points="2400.04,229.568,2412.01,212.084,2413.55,233.217,2400.04,229.568" style="stroke: #A80036; stroke-width: 1.0;"/><!--link Price to CardPayment--><!--link ProductCategory to Price--><!--link LineItem to ProductCategory--><!--link ProductIdentification to LineItem--><!--link Country to ProductIdentification--><!--link ProductCharacteristics to Country--><!--link ProductQuantity to ProductCharacteristics--><!--link ProductDelivery to ProductQuantity--><!--link PurchaseOrder to ProductDelivery--><!--link Tax to PurchaseOrder--><!--link InvestmentAccountContract to Account--><!--link Product to CardPayment--><path d="M2325.06,110.135 C2310.33,119.336 2294.8,129.63 2281,140 C2242.76,168.735 2242.36,187.973 2201,212 C2003.69,326.613 1731.73,381.039 1621.43,399.462 " fill="none" id="Product-CardPayment" style="stroke: #A80036; stroke-width: 1.0;"/><polygon fill="#A80036" points="1616.31,400.312,1625.8484,402.7654,1621.2409,399.4835,1624.5228,394.876,1616.31,400.312" style="stroke: #A80036; stroke-width: 1.0;"/><text fill="#000000" font-family="sans-serif" font-size="13" lengthAdjust="spacingAndGlyphs" textLength="87" x="2142" y="255.0669">CardPayment</text><text fill="#000000" font-family="sans-serif" font-size="13" lengthAdjust="spacingAndGlyphs" textLength="8" x="1624.8707" y="393.51">1</text><!--link Product to Price--><path d="M2298.64,103.869 C2270,114.143 2238.19,126.582 2210,140 C2115.71,184.88 2107.2,227.376 2008,260 C1935.16,283.956 1697.18,296.5 1620.81,299.981 " fill="none" id="Product-Price" style="stroke: #A80036; stroke-width: 1.0;"/><polygon fill="#A80036" points="1615.6,300.215,1624.7631,303.8256,1620.5954,300.0007,1624.4203,295.833,1615.6,300.215" style="stroke: #A80036; stroke-width: 1.0;"/><text fill="#000000" font-family="sans-serif" font-size="13" lengthAdjust="spacingAndGlyphs" textLength="57" x="2134" y="204.0669">UnitPrice</text><text fill="#000000" font-family="sans-serif" font-size="13" lengthAdjust="spacingAndGlyphs" textLength="7" x="1623.6572" y="314.4195">*</text><!--link Product to Price--><path d="M2298.49,83.716 C2217.76,92.44 2093.91,109.565 1990,140 C1973.91,144.714 1728.61,253.869 1713,260 C1681.26,272.467 1644,285.329 1620.44,293.246 " fill="none" id="Product-Price" style="stroke: #A80036; stroke-width: 1.0;"/><polygon fill="#A80036" points="1615.63,294.858,1625.4365,295.7704,1620.3675,293.2593,1622.8786,288.1903,1615.63,294.858" style="stroke: #A80036; stroke-width: 1.0;"/><text fill="#000000" font-family="sans-serif" font-size="13" lengthAdjust="spacingAndGlyphs" textLength="54" x="1879" y="204.0669">NetPrice</text><text fill="#000000" font-family="sans-serif" font-size="13" lengthAdjust="spacingAndGlyphs" textLength="24" x="1623.7946" y="286.7432">0..1</text><!--link Product to Price--><path d="M2298.62,101.01 C2259.12,112.683 2211.62,126.87 2169,140 C2068.25,171.04 2044.26,182.685 1943,212 C1861.82,235.502 1840.86,238.965 1759,260 C1709.86,272.628 1652.26,287.136 1620.69,295.063 " fill="none" id="Product-Price" style="stroke: #A80036; stroke-width: 1.0;"/><polygon fill="#A80036" points="1615.48,296.371,1625.182,298.0654,1620.3303,295.1566,1623.239,290.3049,1615.48,296.371" style="stroke: #A80036; stroke-width: 1.0;"/><text fill="#000000" font-family="sans-serif" font-size="13" lengthAdjust="spacingAndGlyphs" textLength="68" x="2021" y="204.0669">GrossPrice</text><text fill="#000000" font-family="sans-serif" font-size="13" lengthAdjust="spacingAndGlyphs" textLength="24" x="1623.6043" y="308.9628">0..1</text><!--link Product to ProductCategory--><path d="M2298.69,75.787 C2181.8,77.6 1966.36,88.513 1791,140 C1773.84,145.039 1771.89,152.103 1755,158 C1711.46,173.206 1660.35,183.726 1621.53,190.3 " fill="none" id="Product-ProductCategory" style="stroke: #A80036; stroke-width: 1.0;"/><polygon fill="#A80036" points="1616.37,191.161,1625.9013,193.6418,1621.3032,190.3467,1624.5983,185.7486,1616.37,191.161" style="stroke: #A80036; stroke-width: 1.0;"/><text fill="#000000" font-family="sans-serif" font-size="13" lengthAdjust="spacingAndGlyphs" textLength="107" x="1792" y="153.0669">ProductCategory</text><text fill="#000000" font-family="sans-serif" font-size="13" lengthAdjust="spacingAndGlyphs" textLength="7" x="1624.6134" y="184.8011">*</text><!--link Product to LineItem--><path d="M2298.33,75 C2029.21,75 1208.2,75 1031.66,75 " fill="none" id="Product-LineItem" style="stroke: #A80036; stroke-width: 1.0;"/><polygon fill="#A80036" points="1026.63,75,1035.63,79,1031.63,75,1035.63,71,1026.63,75" style="stroke: #A80036; stroke-width: 1.0;"/><text fill="#000000" font-family="sans-serif" font-size="13" lengthAdjust="spacingAndGlyphs" textLength="55" x="1634.25" y="67.0669">LineItem</text><text fill="#000000" font-family="sans-serif" font-size="13" lengthAdjust="spacingAndGlyphs" textLength="24" x="1035.4084" y="69.2255">0..1</text><!--link Product to ProductIdentification--><path d="M2298.6,80.532 C2159.14,87.781 1873.8,101.982 1632,110 C1592.54,111.308 238.621,111.79 211,140 C-54.2113,410.869 806.358,489.404 1068.56,506.789 " fill="none" id="Product-ProductIdentification" style="stroke: #A80036; stroke-width: 1.0;"/><polygon fill="#A80036" points="1073.89,507.139,1065.1723,502.5561,1068.9008,506.8104,1064.6466,510.5388,1073.89,507.139" style="stroke: #A80036; stroke-width: 1.0;"/><text fill="#000000" font-family="sans-serif" font-size="13" lengthAdjust="spacingAndGlyphs" textLength="130" x="234" y="306.0669">ProductIdentification</text><text fill="#000000" font-family="sans-serif" font-size="13" lengthAdjust="spacingAndGlyphs" textLength="7" x="1058.9694" y="501.9402">*</text><!--link Product to Country--><path d="M2298.74,80.215 C2163.12,87.667 1890.15,105.722 1661,140 C1622.81,145.713 1614.23,152.537 1576,158 C1532.1,164.274 1210.7,158.046 1178,188 C1119.81,241.301 1131.68,349.485 1138.76,390.623 " fill="none" id="Product-Country" style="stroke: #A80036; stroke-width: 1.0;"/><polygon fill="#A80036" points="1139.68,395.747,1142.0283,386.1822,1138.7973,390.8255,1134.1539,387.5945,1139.68,395.747" style="stroke: #A80036; stroke-width: 1.0;"/><text fill="#000000" font-family="sans-serif" font-size="13" lengthAdjust="spacingAndGlyphs" textLength="37" x="1146" y="255.0669">Origin</text><text fill="#000000" font-family="sans-serif" font-size="13" lengthAdjust="spacingAndGlyphs" textLength="8" x="1128.2553" y="384.9666">1</text><!--link Product to ProductCharacteristics--><path d="M2298.54,82.418 C2209.91,90.498 2067.9,107.451 1949,140 C1928.62,145.579 1925.34,152.272 1905,158 C1824.82,180.582 1801.06,168.843 1720,188 C1656.91,202.908 1476.45,262.022 1397.15,288.297 " fill="none" id="Product-ProductCharacteristics" style="stroke: #A80036; stroke-width: 1.0;"/><polygon fill="#A80036" points="1392.08,289.98,1401.8812,290.9482,1396.8266,288.4083,1399.3664,283.3537,1392.08,289.98" style="stroke: #A80036; stroke-width: 1.0;"/><text fill="#000000" font-family="sans-serif" font-size="13" lengthAdjust="spacingAndGlyphs" textLength="95" x="1721" y="204.0669">Characteristics</text><text fill="#000000" font-family="sans-serif" font-size="13" lengthAdjust="spacingAndGlyphs" textLength="7" x="1393.8184" y="279.0213">*</text><!--link Product to ProductQuantity--><path d="M2298.54,79.421 C2138.88,86.546 1801.4,105.274 1690,140 C1674.42,144.856 1673.56,153.082 1658,158 C1594.24,178.153 1404.67,190.771 1307.64,196.087 " fill="none" id="Product-ProductQuantity" style="stroke: #A80036; stroke-width: 1.0;"/><polygon fill="#A80036" points="1302.52,196.365,1311.7239,199.8706,1307.5126,196.0936,1311.2896,191.8823,1302.52,196.365" style="stroke: #A80036; stroke-width: 1.0;"/><text fill="#000000" font-family="sans-serif" font-size="13" lengthAdjust="spacingAndGlyphs" textLength="54" x="1691" y="153.0669">Quantity</text><text fill="#000000" font-family="sans-serif" font-size="13" lengthAdjust="spacingAndGlyphs" textLength="7" x="1310.8581" y="190.6616">*</text><!--link Product to ProductDelivery--><path d="M2355.57,110.401 C2317.05,160.632 2253,258.496 2253,354 C2253,354 2253,354 2253,603 C2253,650.8919 1517.97,678.325 1305.74,685.2478 " fill="none" id="Product-ProductDelivery" style="stroke: #A80036; stroke-width: 1.0;"/><polygon fill="#A80036" points="1300.52,685.4173,1309.6413,689.1325,1305.5175,685.2602,1309.3898,681.1364,1300.52,685.4173" style="stroke: #A80036; stroke-width: 1.0;"/><text fill="#000000" font-family="sans-serif" font-size="13" lengthAdjust="spacingAndGlyphs" textLength="51" x="2254" y="412.0669">Delivery</text><text fill="#000000" font-family="sans-serif" font-size="13" lengthAdjust="spacingAndGlyphs" textLength="8" x="1308.6378" y="679.8685">1</text><!--link Product to PurchaseOrder--><path d="M2298.6,80.559 C2159.14,87.847 1873.81,102.102 1632,110 C1466.39,115.409 302.847,104.475 141,140 C77.0428,154.038 6,133.52 6,199 C6,199 6,199 6,513 C6,570.44 423.993,592.747 577.405,599 " fill="none" id="Product-PurchaseOrder" style="stroke: #A80036; stroke-width: 1.0;"/><polygon fill="#A80036" points="582.75,599.216,573.9197,594.8541,577.7541,599.0131,573.5951,602.8476,582.75,599.216" style="stroke: #A80036; stroke-width: 1.0;"/><text fill="#000000" font-family="sans-serif" font-size="13" lengthAdjust="spacingAndGlyphs" textLength="95" x="7" y="359.0669">PurchaseOrder</text><text fill="#000000" font-family="sans-serif" font-size="13" lengthAdjust="spacingAndGlyphs" textLength="7" x="568.0773" y="593.9177">*</text><!--link Product to Tax--><path d="M2298.6,80.541 C2159.14,87.803 1873.81,102.023 1632,110 C1551.8,112.646 262.068,109.141 188,140 C153.183,154.505 127,161.282 127,199 C127,199 127,199 127,409 C127,510.593 523.919,512.24 614.672,511.289 " fill="none" id="Product-Tax" style="stroke: #A80036; stroke-width: 1.0;"/><polygon fill="#A80036" points="619.726,511.23,610.6798,507.3357,614.7263,511.2886,610.7735,515.3351,619.726,511.23" style="stroke: #A80036; stroke-width: 1.0;"/><text fill="#000000" font-family="sans-serif" font-size="13" lengthAdjust="spacingAndGlyphs" textLength="22" x="128" y="306.0669">Tax</text><text fill="#000000" font-family="sans-serif" font-size="13" lengthAdjust="spacingAndGlyphs" textLength="7" x="604.8544" y="503.794">*</text><!--link ManagedAccountProduct to Account--><path d="M2386.65,314.033 C2384.51,335.658 2382.24,384.59 2400,420 C2417.04,453.987 2452.47,481.56 2475.99,497.125 " fill="none" id="ManagedAccountProduct-Account" style="stroke: #A80036; stroke-width: 1.0;"/><polygon fill="#A80036" points="2480.24,499.891,2474.881,491.6278,2476.0501,497.1625,2470.5154,498.3316,2480.24,499.891" style="stroke: #A80036; stroke-width: 1.0;"/><text fill="#000000" font-family="sans-serif" font-size="13" lengthAdjust="spacingAndGlyphs" textLength="52" x="2401" y="412.0669">Account</text><text fill="#000000" font-family="sans-serif" font-size="13" lengthAdjust="spacingAndGlyphs" textLength="8" x="2462.9866" y="488.9017">1</text><!--link ManagedAccountProduct to InvestmentAccountContract--><path d="M2406.62,314.13 C2438.67,333.287 2504.17,372.436 2539.01,393.26 " fill="none" id="ManagedAccountProduct-InvestmentAccountContract" style="stroke: #A80036; stroke-width: 1.0;"/><polygon fill="#A80036" points="2543.51,395.95,2537.8458,387.8929,2539.221,393.38,2533.7339,394.7553,2543.51,395.95" style="stroke: #A80036; stroke-width: 1.0;"/><text fill="#000000" font-family="sans-serif" font-size="13" lengthAdjust="spacingAndGlyphs" textLength="179" x="2486" y="359.0669">InvestmentAccountContract</text><text fill="#000000" font-family="sans-serif" font-size="13" lengthAdjust="spacingAndGlyphs" textLength="8" x="2526.4353" y="384.981">1</text><!--link LineItem to ProductQuantity--><path d="M980.476,87.182 C956.973,103.52 920.44,134.522 941,158 C972.732,194.236 1110.07,199.868 1190.24,199.961 " fill="none" id="LineItem-ProductQuantity" style="stroke: #A80036; stroke-width: 1.0;"/><polygon fill="#A80036" points="1195.43,199.959,1186.43,195.959,1190.43,199.959,1186.43,203.959,1195.43,199.959" style="stroke: #A80036; stroke-width: 1.0;"/><text fill="#000000" font-family="sans-serif" font-size="13" lengthAdjust="spacingAndGlyphs" textLength="66" x="942" y="153.0669">NetWeight</text><text fill="#000000" font-family="sans-serif" font-size="13" lengthAdjust="spacingAndGlyphs" textLength="8" x="1179.6289" y="195.0478">1</text><!--link LineItem to ProductQuantity--><path d="M1001.751,87.043 C1008.44,104.968 1024.2,140.182 1050,158 C1091.28,186.509 1148.11,195.996 1190.47,198.797 " fill="none" id="LineItem-ProductQuantity" style="stroke: #A80036; stroke-width: 1.0;"/><polygon fill="#A80036" points="1195.57,199.106,1186.8262,194.5733,1190.579,198.806,1186.3462,202.5588,1195.57,199.106" style="stroke: #A80036; stroke-width: 1.0;"/><text fill="#000000" font-family="sans-serif" font-size="13" lengthAdjust="spacingAndGlyphs" textLength="88" x="1051" y="153.0669">BilledQuantity</text><text fill="#000000" font-family="sans-serif" font-size="13" lengthAdjust="spacingAndGlyphs" textLength="7" x="1180.8429" y="211.9462">*</text><!--link LineItem to ProductQuantity--><path d="M1025.76,87.062 C1055.62,99.196 1104.29,119.66 1145,140 C1173.66,154.318 1205.56,172.815 1226.38,185.249 " fill="none" id="LineItem-ProductQuantity" style="stroke: #A80036; stroke-width: 1.0;"/><polygon fill="#A80036" points="1230.91,187.961,1225.2482,179.9022,1226.6218,185.3898,1221.1342,186.7634,1230.91,187.961" style="stroke: #A80036; stroke-width: 1.0;"/><text fill="#000000" font-family="sans-serif" font-size="13" lengthAdjust="spacingAndGlyphs" textLength="128" x="1178" y="153.0669">ChargeFreeQuantity</text><text fill="#000000" font-family="sans-serif" font-size="13" lengthAdjust="spacingAndGlyphs" textLength="7" x="1215.0588" y="176.9958">*</text><!--link LineItem to ProductQuantity--><path d="M1026.74,77.305 C1097.96,81.2 1279.48,95.393 1316,140 C1330.45,157.651 1306.14,174.508 1282.86,185.65 " fill="none" id="LineItem-ProductQuantity" style="stroke: #A80036; stroke-width: 1.0;"/><polygon fill="#A80036" points="1278.23,187.801,1288.0772,187.6228,1282.7616,185.688,1284.6964,180.3723,1278.23,187.801" style="stroke: #A80036; stroke-width: 1.0;"/><text fill="#000000" font-family="sans-serif" font-size="13" lengthAdjust="spacingAndGlyphs" textLength="244" x="1322" y="153.0669">MeasureQuantityStartRelatedLineItem</text><text fill="#000000" font-family="sans-serif" font-size="13" lengthAdjust="spacingAndGlyphs" textLength="8" x="1277.1734" y="177.0385">1</text><!--link LineItem to ProductQuantity--><path d="M969.37,76.128 C835.372,77.016 274.499,84.073 223,140 C217.581,145.885 217.457,152.231 223,158 C256.665,193.037 977.334,198.133 1190.26,198.874 " fill="none" id="LineItem-ProductQuantity" style="stroke: #A80036; stroke-width: 1.0;"/><polygon fill="#A80036" points="1195.5,198.892,1186.5115,194.8663,1190.5,198.8777,1186.4886,202.8663,1195.5,198.892" style="stroke: #A80036; stroke-width: 1.0;"/><text fill="#000000" font-family="sans-serif" font-size="13" lengthAdjust="spacingAndGlyphs" textLength="236" x="224" y="153.0669">MeasureQuantityEndRelatedLineItem</text><text fill="#000000" font-family="sans-serif" font-size="13" lengthAdjust="spacingAndGlyphs" textLength="8" x="1179.6422" y="191.9225">1</text><!--link LineItem to ProductQuantity--><path d="M969.394,76.247 C854.463,77.714 435.624,87.881 502,158 C525.571,182.9 1018.62,194.62 1190.51,197.96 " fill="none" id="LineItem-ProductQuantity" style="stroke: #A80036; stroke-width: 1.0;"/><polygon fill="#A80036" points="1195.75,198.061,1186.8199,193.9073,1190.7507,197.9753,1186.6827,201.9061,1195.75,198.061" style="stroke: #A80036; stroke-width: 1.0;"/><text fill="#000000" font-family="sans-serif" font-size="13" lengthAdjust="spacingAndGlyphs" textLength="122" x="503" y="153.0669">GrossPriceQuantity</text><text fill="#000000" font-family="sans-serif" font-size="13" lengthAdjust="spacingAndGlyphs" textLength="7" x="1181.0625" y="211.7855">*</text><!--link LineItem to ProductQuantity--><path d="M969.483,78.259 C881.702,85.739 624.012,111.877 667,158 C702.158,195.722 1049.63,199.375 1190.31,199.29 " fill="none" id="LineItem-ProductQuantity" style="stroke: #A80036; stroke-width: 1.0;"/><polygon fill="#A80036" points="1195.64,199.285,1186.64,195.285,1190.64,199.285,1186.64,203.285,1195.64,199.285" style="stroke: #A80036; stroke-width: 1.0;"/><text fill="#000000" font-family="sans-serif" font-size="13" lengthAdjust="spacingAndGlyphs" textLength="108" x="668" y="153.0669">NetPriceQuantity</text><text fill="#000000" font-family="sans-serif" font-size="13" lengthAdjust="spacingAndGlyphs" textLength="7" x="1180.921" y="194.2959">*</text><!--link LineItem to ProductQuantity--><path d="M969.189,80.285 C914.478,89.54 804.393,114.181 844,158 C866.777,183.199 1083.76,193.673 1190.41,197.327 " fill="none" id="LineItem-ProductQuantity" style="stroke: #A80036; stroke-width: 1.0;"/><polygon fill="#A80036" points="1195.71,197.506,1186.8524,193.1998,1190.7129,197.3346,1186.5782,201.1951,1195.71,197.506" style="stroke: #A80036; stroke-width: 1.0;"/><text fill="#000000" font-family="sans-serif" font-size="13" lengthAdjust="spacingAndGlyphs" textLength="80" x="845" y="153.0669">GrossWeight</text><text fill="#000000" font-family="sans-serif" font-size="13" lengthAdjust="spacingAndGlyphs" textLength="7" x="1180.6364" y="192.243">*</text><!--link Country to Tax--><path d="M1114.99,414.412 C1023.87,432.672 729.141,491.734 651.753,507.242 " fill="none" id="Country-Tax" style="stroke: #A80036; stroke-width: 1.0;"/><polygon fill="#A80036" points="646.562,508.282,656.1727,510.435,651.4645,507.2992,654.6002,502.591,646.562,508.282" style="stroke: #A80036; stroke-width: 1.0;"/><text fill="#000000" font-family="sans-serif" font-size="13" lengthAdjust="spacingAndGlyphs" textLength="22" x="935" y="463.0669">Tax</text><text fill="#000000" font-family="sans-serif" font-size="13" lengthAdjust="spacingAndGlyphs" textLength="8" x="654.5688" y="498.736">1</text><!--link Account to Account--><path d="M2527.51,503.984 C2545.18,502.051 2562,504.723 2562,512 C2562,518.538 2548.42,521.359 2532.85,520.463 " fill="none" id="Account-Account" style="stroke: #A80036; stroke-width: 1.0;"/><polygon fill="#A80036" points="2527.51,520.016,2536.1341,524.7725,2532.4916,520.4445,2536.8197,516.8019,2527.51,520.016" style="stroke: #A80036; stroke-width: 1.0;"/><text fill="#000000" font-family="sans-serif" font-size="13" lengthAdjust="spacingAndGlyphs" textLength="94" x="2568" y="516.0669">ParentAccount</text><text fill="#000000" font-family="sans-serif" font-size="13" lengthAdjust="spacingAndGlyphs" textLength="8" x="2535.7766" y="515.9799">1</text></g></svg>