<?xml version="1.0" encoding="UTF-8" standalone="no"?><svg xmlns="http://www.w3.org/2000/svg" xmlns:xlink="http://www.w3.org/1999/xlink" contentScriptType="application/ecmascript" contentStyleType="text/css" height="482px" preserveAspectRatio="none" style="width:931px;height:482px;" version="1.1" viewBox="0 0 931 482" width="931px" zoomAndPan="magnify"><defs><filter height="300%" id="fzkx6g51v41m4" width="300%" x="-1" y="-1"><feGaussianBlur result="blurOut" stdDeviation="2.0"/><feColorMatrix in="blurOut" result="blurOut2" type="matrix" values="0 0 0 0 0 0 0 0 0 0 0 0 0 0 0 0 0 0 .4 0"/><feOffset dx="4.0" dy="4.0" in="blurOut2" result="blurOut3"/><feBlend in="SourceGraphic" in2="blurOut3" mode="normal"/></filter></defs><g><!--cluster ##3944--><!--cluster ##3956--><!--cluster ##3965--><!--class Role--><a target="_top" xlink:actuate="onRequest" xlink:href="../Role.html" xlink:show="new" xlink:title="Role of a party in an activity." xlink:type="simple"><rect fill="#FEFEEE" filter="url(#fzkx6g51v41m4)" height="44.7734" id="Role" style="stroke: #A80036; stroke-width: 1.5;" width="175" x="99.75" y="40.5"/><rect fill="#FEFEEE" height="23.9688" style="stroke: #A80036; stroke-width: 1.5;" width="175" x="99.75" y="40.5"/><text fill="#000000" font-family="sans-serif" font-size="12" lengthAdjust="spacingAndGlyphs" textLength="27" x="173.75" y="56.6387">Role</text><line style="stroke: #A80036; stroke-width: 1.5;" x1="100.75" x2="273.75" y1="64.4688" y2="64.4688"/><ellipse cx="110.75" cy="76.3711" fill="#84BE84" rx="3" ry="3" style="stroke: #038048; stroke-width: 1.0;"/><text fill="#000000" font-family="sans-serif" font-size="11" lengthAdjust="spacingAndGlyphs" textLength="53" x="119.75" y="78.6792">PartyRole</text><text fill="#000000" font-family="sans-serif" font-size="11" font-style="italic" lengthAdjust="spacingAndGlyphs" textLength="92" x="176.75" y="78.6792">(PartyRoleCode)</text></a><!--class MandatePartyRole--><a target="_top" xlink:actuate="onRequest" xlink:href="../MandatePartyRole.html" xlink:show="new" xlink:title="Role played by a party in the context of a mandate." xlink:type="simple"><rect fill="#FEFECE" filter="url(#fzkx6g51v41m4)" height="23.9688" id="MandatePartyRole" style="stroke: #A80036; stroke-width: 1.5;" width="120" x="141.5" y="166"/><rect fill="#FEFECE" height="23.9688" style="stroke: #A80036; stroke-width: 1.5;" width="120" x="141.5" y="166"/><text fill="#000000" font-family="sans-serif" font-size="12" lengthAdjust="spacingAndGlyphs" textLength="114" x="144.5" y="182.1387">MandatePartyRole</text></a><!--class MandateHolder--><a target="_top" xlink:actuate="onRequest" xlink:href="../MandateHolder.html" xlink:show="new" xlink:title="Entity that was given by another entity the authority to act on its behalf." xlink:type="simple"><rect fill="#FEFEEE" filter="url(#fzkx6g51v41m4)" height="23.9688" id="MandateHolder" style="stroke: #A80036; stroke-width: 1.5;" width="102" x="38.5" y="272"/><rect fill="#FEFEEE" height="23.9688" style="stroke: #A80036; stroke-width: 1.5;" width="102" x="38.5" y="272"/><text fill="#000000" font-family="sans-serif" font-size="12" lengthAdjust="spacingAndGlyphs" textLength="96" x="41.5" y="288.1387">MandateHolder</text></a><!--class MandateIssuer--><a target="_top" xlink:actuate="onRequest" xlink:href="../MandateIssuer.html" xlink:show="new" xlink:title="Issuer of the mandate." xlink:type="simple"><rect fill="#FEFEEE" filter="url(#fzkx6g51v41m4)" height="23.9688" id="MandateIssuer" style="stroke: #A80036; stroke-width: 1.5;" width="99" x="175.75" y="272"/><rect fill="#FEFEEE" height="23.9688" style="stroke: #A80036; stroke-width: 1.5;" width="99" x="175.75" y="272"/><text fill="#000000" font-family="sans-serif" font-size="12" lengthAdjust="spacingAndGlyphs" textLength="93" x="178.75" y="288.1387">MandateIssuer</text></a><!--class RolePlayer--><a target="_top" xlink:actuate="onRequest" xlink:href="../RolePlayer.html" xlink:show="new" xlink:title="Type of entity that plays a specific role in a specific context." xlink:type="simple"><rect fill="#EEEEEE" filter="url(#fzkx6g51v41m4)" height="23.9688" id="RolePlayer" style="stroke: #A80036; stroke-width: 1.5;" width="71" x="741.75" y="448"/><rect fill="#EEEEEE" height="23.9688" style="stroke: #A80036; stroke-width: 1.5;" width="71" x="741.75" y="448"/><text fill="#000000" font-family="sans-serif" font-size="12" lengthAdjust="spacingAndGlyphs" textLength="65" x="744.75" y="464.1387">RolePlayer</text></a><!--class ContactPersonRole--><a target="_top" xlink:actuate="onRequest" xlink:href="../ContactPersonRole.html" xlink:show="new" xlink:title="Person to be contacted in a given organisation. In the corporate action domain (including meeting notifications) , it is the contact person at the party organising the meeting, at the issuer or at an intermediary." xlink:type="simple"><rect fill="#EEEEEE" filter="url(#fzkx6g51v41m4)" height="23.9688" id="ContactPersonRole" style="stroke: #A80036; stroke-width: 1.5;" width="126" x="734" y="362"/><rect fill="#EEEEEE" height="23.9688" style="stroke: #A80036; stroke-width: 1.5;" width="126" x="734" y="362"/><text fill="#000000" font-family="sans-serif" font-size="12" lengthAdjust="spacingAndGlyphs" textLength="120" x="737" y="378.1387">ContactPersonRole</text></a><!--class CounterpartyRisk--><a target="_top" xlink:actuate="onRequest" xlink:href="../CounterpartyRisk.html" xlink:show="new" xlink:title="Calculation of the exposure amount that one party has vis-a-vis one counterparty or a central system, based on its credit risk." xlink:type="simple"><rect fill="#EEEEEE" filter="url(#fzkx6g51v41m4)" height="23.9688" id="CounterpartyRisk" style="stroke: #A80036; stroke-width: 1.5;" width="113" x="746.75" y="272"/><rect fill="#EEEEEE" height="23.9688" style="stroke: #A80036; stroke-width: 1.5;" width="113" x="746.75" y="272"/><text fill="#000000" font-family="sans-serif" font-size="12" lengthAdjust="spacingAndGlyphs" textLength="107" x="749.75" y="288.1387">CounterpartyRisk</text></a><!--class Entry--><a target="_top" xlink:actuate="onRequest" xlink:href="../Entry.html" xlink:show="new" xlink:title="Posting to an account that results in an increase or decrease to a balance." xlink:type="simple"><rect fill="#EEEEEE" filter="url(#fzkx6g51v41m4)" height="23.9688" id="Entry" style="stroke: #A80036; stroke-width: 1.5;" width="38" x="734" y="166"/><rect fill="#EEEEEE" height="23.9688" style="stroke: #A80036; stroke-width: 1.5;" width="38" x="734" y="166"/><text fill="#000000" font-family="sans-serif" font-size="12" lengthAdjust="spacingAndGlyphs" textLength="32" x="737" y="182.1387">Entry</text></a><!--class Mandate--><a target="_top" xlink:actuate="onRequest" xlink:href="../Mandate.html" xlink:show="new" xlink:title="Authorisation given by an issuing party to a holder party to act on the issuer's behalf." xlink:type="simple"><rect fill="#EEEEEE" filter="url(#fzkx6g51v41m4)" height="23.9688" id="Mandate" style="stroke: #A80036; stroke-width: 1.5;" width="61" x="331.75" y="272"/><rect fill="#EEEEEE" height="23.9688" style="stroke: #A80036; stroke-width: 1.5;" width="61" x="331.75" y="272"/><text fill="#000000" font-family="sans-serif" font-size="12" lengthAdjust="spacingAndGlyphs" textLength="55" x="334.75" y="288.1387">Mandate</text></a><!--link Role to MandatePartyRole--><path d="M192.149,105.559 C194.825,127.159 197.89,151.898 199.62,165.865 " fill="none" id="Role-MandatePartyRole" style="stroke: #A80036; stroke-width: 1.0;"/><polygon fill="none" points="185.179,106.229,189.666,85.52,199.072,104.508,185.179,106.229" style="stroke: #A80036; stroke-width: 1.0;"/><!--link MandatePartyRole to MandateHolder--><path d="M174.044,204.031 C150.753,225.658 118.196,255.89 100.8998,271.95 " fill="none" id="MandatePartyRole-MandateHolder" style="stroke: #A80036; stroke-width: 1.0;"/><polygon fill="none" points="169.595,198.609,189.014,190.13,179.121,208.868,169.595,198.609" style="stroke: #A80036; stroke-width: 1.0;"/><!--link MandatePartyRole to MandateIssuer--><path d="M208.127,209.882 C212.961,230.833 219.068,257.293 222.45,271.95 " fill="none" id="MandatePartyRole-MandateIssuer" style="stroke: #A80036; stroke-width: 1.0;"/><polygon fill="none" points="201.245,211.192,203.568,190.13,214.886,208.044,201.245,211.192" style="stroke: #A80036; stroke-width: 1.0;"/><!--link ContactPersonRole to RolePlayer--><!--link CounterpartyRisk to ContactPersonRole--><!--link Entry to CounterpartyRisk--><!--link Role to RolePlayer--><path d="M274.414,70.378 C395.09,81.63 598,110.445 598,177 C598,177 598,177 598,375 C598,435.8572 683.842,452.7099 736.634,457.3199 " fill="none" id="Role-RolePlayer" style="stroke: #A80036; stroke-width: 1.0;"/><polygon fill="#A80036" points="741.635,457.7288,732.9919,453.0068,736.6517,457.3202,732.3382,460.98,741.635,457.7288" style="stroke: #A80036; stroke-width: 1.0;"/><text fill="#000000" font-family="sans-serif" font-size="13" lengthAdjust="spacingAndGlyphs" textLength="39" x="599" y="288.0669">Player</text><text fill="#000000" font-family="sans-serif" font-size="13" lengthAdjust="spacingAndGlyphs" textLength="7" x="726.7402" y="451.9585">*</text><!--link Role to ContactPersonRole--><path d="M274.58,64.17 C386.115,66.093 570.785,75.534 624,116 C670.645,151.47 646.715,186.141 674,238 C694.778,277.492 698.468,289.456 729,322 C742.542,336.435 760.56,349.743 774.646,359.144 " fill="none" id="Role-ContactPersonRole" style="stroke: #A80036; stroke-width: 1.0;"/><polygon fill="#A80036" points="778.883,361.932,773.5653,353.6421,774.7068,359.1826,769.1663,360.3241,778.883,361.932" style="stroke: #A80036; stroke-width: 1.0;"/><text fill="#000000" font-family="sans-serif" font-size="13" lengthAdjust="spacingAndGlyphs" textLength="121" x="675" y="233.0669">ContactPersonRole</text><text fill="#000000" font-family="sans-serif" font-size="13" lengthAdjust="spacingAndGlyphs" textLength="8" x="761.9365" y="350.9568">1</text><!--link Role to CounterpartyRisk--><path d="M274.485,63.093 C416.179,63.051 688.358,69.31 771,116 C801.947,133.484 816.59,217.563 817,220 C819.723,236.192 814.741,254.491 809.983,267.178 " fill="none" id="Role-CounterpartyRisk" style="stroke: #A80036; stroke-width: 1.0;"/><polygon fill="#A80036" points="808.118,271.916,815.1346,265.0046,809.9481,267.263,807.6897,262.0765,808.118,271.916" style="stroke: #A80036; stroke-width: 1.0;"/><text fill="#000000" font-family="sans-serif" font-size="13" lengthAdjust="spacingAndGlyphs" textLength="109" x="810" y="182.0669">CounterpartyRisk</text><text fill="#000000" font-family="sans-serif" font-size="13" lengthAdjust="spacingAndGlyphs" textLength="24" x="780.3226" y="260.9353">0..1</text><!--link Role to Entry--><path d="M274.454,64.384 C402.888,66.338 635.081,75.566 707,116 C725.075,126.162 738.228,146.66 745.73,161.081 " fill="none" id="Role-Entry" style="stroke: #A80036; stroke-width: 1.0;"/><polygon fill="#A80036" points="748.057,165.715,747.5922,155.8771,745.8129,161.2469,740.4432,159.4676,748.057,165.715" style="stroke: #A80036; stroke-width: 1.0;"/><text fill="#000000" font-family="sans-serif" font-size="13" lengthAdjust="spacingAndGlyphs" textLength="33" x="728" y="129.0669">Entry</text><text fill="#000000" font-family="sans-serif" font-size="13" lengthAdjust="spacingAndGlyphs" textLength="8" x="735.7634" y="154.924">1</text><!--link MandatePartyRole to Mandate--><path d="M218.23,190.13 C247.765,209.209 307.998,248.117 340.333,269.004 " fill="none" id="MandatePartyRole-Mandate" style="stroke: #A80036; stroke-width: 1.0;"/><polygon fill="#A80036" points="344.894,271.95,339.5042,263.7068,340.694,269.2371,335.1636,270.4268,344.894,271.95" style="stroke: #A80036; stroke-width: 1.0;"/><text fill="#000000" font-family="sans-serif" font-size="13" lengthAdjust="spacingAndGlyphs" textLength="56" x="293" y="233.0669">Mandate</text><text fill="#000000" font-family="sans-serif" font-size="13" lengthAdjust="spacingAndGlyphs" textLength="7" x="329.381" y="260.981">*</text><!--link Mandate to Mandate--><path d="M392.425,275.881 C410.284,274.151 427,276.857 427,284 C427,290.417 413.507,293.253 397.815,292.509 " fill="none" id="Mandate-Mandate" style="stroke: #A80036; stroke-width: 1.0;"/><polygon fill="#A80036" points="392.425,292.119,401.1136,296.7566,397.412,292.479,401.6896,288.7774,392.425,292.119" style="stroke: #A80036; stroke-width: 1.0;"/><text fill="#000000" font-family="sans-serif" font-size="13" lengthAdjust="spacingAndGlyphs" textLength="104" x="433" y="288.0669">OriginalMandate</text><text fill="#000000" font-family="sans-serif" font-size="13" lengthAdjust="spacingAndGlyphs" textLength="8" x="400.7552" y="288.113">1</text></g></svg>