<?xml version="1.0" encoding="UTF-8" standalone="no"?><svg xmlns="http://www.w3.org/2000/svg" xmlns:xlink="http://www.w3.org/1999/xlink" contentScriptType="application/ecmascript" contentStyleType="text/css" height="478px" preserveAspectRatio="none" style="width:733px;height:478px;" version="1.1" viewBox="0 0 733 478" width="733px" zoomAndPan="magnify"><defs><filter height="300%" id="fhn7d1dw2srhs" width="300%" x="-1" y="-1"><feGaussianBlur result="blurOut" stdDeviation="2.0"/><feColorMatrix in="blurOut" result="blurOut2" type="matrix" values="0 0 0 0 0 0 0 0 0 0 0 0 0 0 0 0 0 0 .4 0"/><feOffset dx="4.0" dy="4.0" in="blurOut2" result="blurOut3"/><feBlend in="SourceGraphic" in2="blurOut3" mode="normal"/></filter></defs><g><!--cluster ##24643--><!--cluster ##24652--><!--cluster ##24661--><!--class Role--><a target="_top" xlink:actuate="onRequest" xlink:href="../Role.html" xlink:show="new" xlink:title="Role of a party in an activity." xlink:type="simple"><rect fill="#FEFEEE" filter="url(#fhn7d1dw2srhs)" height="44.7734" id="Role" style="stroke: #A80036; stroke-width: 1.5;" width="175" x="51.75" y="40.5"/><rect fill="#FEFEEE" height="23.9688" style="stroke: #A80036; stroke-width: 1.5;" width="175" x="51.75" y="40.5"/><text fill="#000000" font-family="sans-serif" font-size="12" lengthAdjust="spacingAndGlyphs" textLength="27" x="125.75" y="56.6387">Role</text><line style="stroke: #A80036; stroke-width: 1.5;" x1="52.75" x2="225.75" y1="64.4688" y2="64.4688"/><ellipse cx="62.75" cy="76.3711" fill="#84BE84" rx="3" ry="3" style="stroke: #038048; stroke-width: 1.0;"/><text fill="#000000" font-family="sans-serif" font-size="11" lengthAdjust="spacingAndGlyphs" textLength="53" x="71.75" y="78.6792">PartyRole</text><text fill="#000000" font-family="sans-serif" font-size="11" font-style="italic" lengthAdjust="spacingAndGlyphs" textLength="92" x="128.75" y="78.6792">(PartyRoleCode)</text></a><!--class GoodsPartyRole--><a target="_top" xlink:actuate="onRequest" xlink:href="../GoodsPartyRole.html" xlink:show="new" xlink:title="Role played by a party in the context of handling goods." xlink:type="simple"><rect fill="#FEFEEE" filter="url(#fhn7d1dw2srhs)" height="23.9688" id="GoodsPartyRole" style="stroke: #A80036; stroke-width: 1.5;" width="105" x="104.75" y="166"/><rect fill="#FEFEEE" height="23.9688" style="stroke: #A80036; stroke-width: 1.5;" width="105" x="104.75" y="166"/><text fill="#000000" font-family="sans-serif" font-size="12" lengthAdjust="spacingAndGlyphs" textLength="99" x="107.75" y="182.1387">GoodsPartyRole</text></a><!--class Manufacturer--><a target="_top" xlink:actuate="onRequest" xlink:href="../Manufacturer.html" xlink:show="new" xlink:title="Manufacturer of the goods." xlink:type="simple"><rect fill="#FEFECE" filter="url(#fhn7d1dw2srhs)" height="23.9688" id="Manufacturer" style="stroke: #A80036; stroke-width: 1.5;" width="90" x="112" y="270"/><rect fill="#FEFECE" height="23.9688" style="stroke: #A80036; stroke-width: 1.5;" width="90" x="112" y="270"/><text fill="#000000" font-family="sans-serif" font-size="12" lengthAdjust="spacingAndGlyphs" textLength="84" x="115" y="286.1387">Manufacturer</text></a><!--class RolePlayer--><a target="_top" xlink:actuate="onRequest" xlink:href="../RolePlayer.html" xlink:show="new" xlink:title="Type of entity that plays a specific role in a specific context." xlink:type="simple"><rect fill="#EEEEEE" filter="url(#fhn7d1dw2srhs)" height="23.9688" id="RolePlayer" style="stroke: #A80036; stroke-width: 1.5;" width="71" x="542.75" y="444"/><rect fill="#EEEEEE" height="23.9688" style="stroke: #A80036; stroke-width: 1.5;" width="71" x="542.75" y="444"/><text fill="#000000" font-family="sans-serif" font-size="12" lengthAdjust="spacingAndGlyphs" textLength="65" x="545.75" y="460.1387">RolePlayer</text></a><!--class ContactPersonRole--><a target="_top" xlink:actuate="onRequest" xlink:href="../ContactPersonRole.html" xlink:show="new" xlink:title="Person to be contacted in a given organisation. In the corporate action domain (including meeting notifications) , it is the contact person at the party organising the meeting, at the issuer or at an intermediary." xlink:type="simple"><rect fill="#EEEEEE" filter="url(#fhn7d1dw2srhs)" height="23.9688" id="ContactPersonRole" style="stroke: #A80036; stroke-width: 1.5;" width="126" x="535" y="358"/><rect fill="#EEEEEE" height="23.9688" style="stroke: #A80036; stroke-width: 1.5;" width="126" x="535" y="358"/><text fill="#000000" font-family="sans-serif" font-size="12" lengthAdjust="spacingAndGlyphs" textLength="120" x="538" y="374.1387">ContactPersonRole</text></a><!--class CounterpartyRisk--><a target="_top" xlink:actuate="onRequest" xlink:href="../CounterpartyRisk.html" xlink:show="new" xlink:title="Calculation of the exposure amount that one party has vis-a-vis one counterparty or a central system, based on its credit risk." xlink:type="simple"><rect fill="#EEEEEE" filter="url(#fhn7d1dw2srhs)" height="23.9688" id="CounterpartyRisk" style="stroke: #A80036; stroke-width: 1.5;" width="113" x="547.75" y="270"/><rect fill="#EEEEEE" height="23.9688" style="stroke: #A80036; stroke-width: 1.5;" width="113" x="547.75" y="270"/><text fill="#000000" font-family="sans-serif" font-size="12" lengthAdjust="spacingAndGlyphs" textLength="107" x="550.75" y="286.1387">CounterpartyRisk</text></a><!--class Entry--><a target="_top" xlink:actuate="onRequest" xlink:href="../Entry.html" xlink:show="new" xlink:title="Posting to an account that results in an increase or decrease to a balance." xlink:type="simple"><rect fill="#EEEEEE" filter="url(#fhn7d1dw2srhs)" height="23.9688" id="Entry" style="stroke: #A80036; stroke-width: 1.5;" width="38" x="535" y="166"/><rect fill="#EEEEEE" height="23.9688" style="stroke: #A80036; stroke-width: 1.5;" width="38" x="535" y="166"/><text fill="#000000" font-family="sans-serif" font-size="12" lengthAdjust="spacingAndGlyphs" textLength="32" x="538" y="182.1387">Entry</text></a><!--class Goods--><a target="_top" xlink:actuate="onRequest" xlink:href="../Goods.html" xlink:show="new" xlink:title="Good is a physical product that can be delivered to a purchaser and that involves the transfer of ownership from seller to customer." xlink:type="simple"><rect fill="#EEEEEE" filter="url(#fhn7d1dw2srhs)" height="23.9688" id="Goods" style="stroke: #A80036; stroke-width: 1.5;" width="46" x="283" y="270"/><rect fill="#EEEEEE" height="23.9688" style="stroke: #A80036; stroke-width: 1.5;" width="46" x="283" y="270"/><text fill="#000000" font-family="sans-serif" font-size="12" lengthAdjust="spacingAndGlyphs" textLength="40" x="286" y="286.1387">Goods</text></a><!--entity ##24664--><!--link Role to GoodsPartyRole--><path d="M145.62,105.559 C149.061,127.159 153.001,151.898 155.226,165.865 " fill="none" id="Role-GoodsPartyRole" style="stroke: #A80036; stroke-width: 1.0;"/><polygon fill="none" points="138.661,106.373,142.428,85.52,152.487,104.17,138.661,106.373" style="stroke: #A80036; stroke-width: 1.0;"/><!--link GoodsPartyRole to Manufacturer--><path d="M157,210.595 C157,230.825 157,255.843 157,269.954 " fill="none" id="GoodsPartyRole-Manufacturer" style="stroke: #A80036; stroke-width: 1.0;"/><polygon fill="none" points="150,210.306,157,190.306,164,210.305,150,210.306" style="stroke: #A80036; stroke-width: 1.0;"/><!--link ContactPersonRole to RolePlayer--><!--link CounterpartyRisk to ContactPersonRole--><!--link Entry to CounterpartyRisk--><!--link Role to RolePlayer--><path d="M226.3,67.034 C301.832,74.894 399,99.974 399,177 C399,177 399,177 399,371 C399,431.8572 484.842,448.7099 537.634,453.3199 " fill="none" id="Role-RolePlayer" style="stroke: #A80036; stroke-width: 1.0;"/><polygon fill="#A80036" points="542.635,453.7288,533.9919,449.0068,537.6517,453.3202,533.3382,456.98,542.635,453.7288" style="stroke: #A80036; stroke-width: 1.0;"/><text fill="#000000" font-family="sans-serif" font-size="13" lengthAdjust="spacingAndGlyphs" textLength="39" x="400" y="286.0669">Player</text><text fill="#000000" font-family="sans-serif" font-size="13" lengthAdjust="spacingAndGlyphs" textLength="7" x="527.7402" y="447.9585">*</text><!--link Role to ContactPersonRole--><path d="M226.426,70.713 C299.017,77.916 395.05,91.738 425,116 C470.534,152.885 447.131,186.452 475,238 C495.52,275.956 500.125,286.868 530,318 C543.704,332.281 561.714,345.597 575.757,355.039 " fill="none" id="Role-ContactPersonRole" style="stroke: #A80036; stroke-width: 1.0;"/><polygon fill="#A80036" points="579.978,357.842,574.6906,349.5328,575.8118,355.0774,570.2672,356.1987,579.978,357.842" style="stroke: #A80036; stroke-width: 1.0;"/><text fill="#000000" font-family="sans-serif" font-size="13" lengthAdjust="spacingAndGlyphs" textLength="121" x="476" y="233.0669">ContactPersonRole</text><text fill="#000000" font-family="sans-serif" font-size="13" lengthAdjust="spacingAndGlyphs" textLength="8" x="563.0642" y="346.8359">1</text><!--link Role to CounterpartyRisk--><path d="M226.32,66.345 C335.547,70.658 515.153,82.722 572,116 C603.065,134.185 617.893,219.361 618,220 C620.586,235.376 615.874,252.681 611.233,264.921 " fill="none" id="Role-CounterpartyRisk" style="stroke: #A80036; stroke-width: 1.0;"/><polygon fill="#A80036" points="609.27,269.837,616.322,262.9618,611.124,265.1934,608.8923,259.9954,609.27,269.837" style="stroke: #A80036; stroke-width: 1.0;"/><text fill="#000000" font-family="sans-serif" font-size="13" lengthAdjust="spacingAndGlyphs" textLength="109" x="612" y="182.0669">CounterpartyRisk</text><text fill="#000000" font-family="sans-serif" font-size="13" lengthAdjust="spacingAndGlyphs" textLength="24" x="581.5269" y="258.8292">0..1</text><!--link Role to Entry--><path d="M226.598,68.657 C320.315,74.973 461.733,88.746 508,116 C525.866,126.524 539.065,146.942 546.635,161.246 " fill="none" id="Role-Entry" style="stroke: #A80036; stroke-width: 1.0;"/><polygon fill="#A80036" points="548.985,165.839,548.4473,156.0048,546.7079,161.3876,541.3251,159.6482,548.985,165.839" style="stroke: #A80036; stroke-width: 1.0;"/><text fill="#000000" font-family="sans-serif" font-size="13" lengthAdjust="spacingAndGlyphs" textLength="33" x="529" y="129.0669">Entry</text><text fill="#000000" font-family="sans-serif" font-size="13" lengthAdjust="spacingAndGlyphs" textLength="8" x="536.5423" y="154.8319">1</text><!--link GoodsPartyRole to Goods--><path d="M173.229,190.11 C200.547,208.811 255.656,246.536 285.567,267.012 " fill="none" id="GoodsPartyRole-Goods" style="stroke: #A80036; stroke-width: 1.0;"/><polygon fill="#A80036" points="289.791,269.904,284.6239,261.5194,285.6651,267.0796,280.1049,268.1208,289.791,269.904" style="stroke: #A80036; stroke-width: 1.0;"/><text fill="#000000" font-family="sans-serif" font-size="13" lengthAdjust="spacingAndGlyphs" textLength="29" x="242" y="233.0669">Item</text><text fill="#000000" font-family="sans-serif" font-size="13" lengthAdjust="spacingAndGlyphs" textLength="7" x="274.6723" y="258.9192">*</text></g></svg>