<?xml version="1.0" encoding="UTF-8" standalone="no"?><svg xmlns="http://www.w3.org/2000/svg" xmlns:xlink="http://www.w3.org/1999/xlink" contentScriptType="application/ecmascript" contentStyleType="text/css" height="482px" preserveAspectRatio="none" style="width:1113px;height:482px;" version="1.1" viewBox="0 0 1113 482" width="1113px" zoomAndPan="magnify"><defs><filter height="300%" id="f12wymfmmci3ej" width="300%" x="-1" y="-1"><feGaussianBlur result="blurOut" stdDeviation="2.0"/><feColorMatrix in="blurOut" result="blurOut2" type="matrix" values="0 0 0 0 0 0 0 0 0 0 0 0 0 0 0 0 0 0 .4 0"/><feOffset dx="4.0" dy="4.0" in="blurOut2" result="blurOut3"/><feBlend in="SourceGraphic" in2="blurOut3" mode="normal"/></filter></defs><g><!--cluster ##20495--><!--cluster ##20504--><!--cluster ##20513--><!--class Role--><a target="_top" xlink:actuate="onRequest" xlink:href="../Role.html" xlink:show="new" xlink:title="Role of a party in an activity." xlink:type="simple"><rect fill="#FEFEEE" filter="url(#f12wymfmmci3ej)" height="44.7734" id="Role" style="stroke: #A80036; stroke-width: 1.5;" width="175" x="171.548" y="40.5"/><rect fill="#FEFEEE" height="23.9688" style="stroke: #A80036; stroke-width: 1.5;" width="175" x="171.548" y="40.5"/><text fill="#000000" font-family="sans-serif" font-size="12" lengthAdjust="spacingAndGlyphs" textLength="27" x="245.548" y="56.6387">Role</text><line style="stroke: #A80036; stroke-width: 1.5;" x1="172.548" x2="345.548" y1="64.4688" y2="64.4688"/><ellipse cx="182.548" cy="76.3711" fill="#84BE84" rx="3" ry="3" style="stroke: #038048; stroke-width: 1.0;"/><text fill="#000000" font-family="sans-serif" font-size="11" lengthAdjust="spacingAndGlyphs" textLength="53" x="191.548" y="78.6792">PartyRole</text><text fill="#000000" font-family="sans-serif" font-size="11" font-style="italic" lengthAdjust="spacingAndGlyphs" textLength="92" x="248.548" y="78.6792">(PartyRoleCode)</text></a><!--class CorporateActionPartyRole--><a target="_top" xlink:actuate="onRequest" xlink:href="../CorporateActionPartyRole.html" xlink:show="new" xlink:title="Role played by a party in the context of a corporate action." xlink:type="simple"><rect fill="#FEFEEE" filter="url(#f12wymfmmci3ej)" height="23.9688" id="CorporateActionPartyRole" style="stroke: #A80036; stroke-width: 1.5;" width="167" x="177.548" y="166"/><rect fill="#FEFEEE" height="23.9688" style="stroke: #A80036; stroke-width: 1.5;" width="167" x="177.548" y="166"/><text fill="#000000" font-family="sans-serif" font-size="12" lengthAdjust="spacingAndGlyphs" textLength="161" x="180.548" y="182.1387">CorporateActionPartyRole</text></a><!--class MarketClaimCounterparty--><a target="_top" xlink:actuate="onRequest" xlink:href="../MarketClaimCounterparty.html" xlink:show="new" xlink:title="Party that has reimbursed the account owner with funds to which they were legally entitled." xlink:type="simple"><rect fill="#FEFECE" filter="url(#f12wymfmmci3ej)" height="23.9688" id="MarketClaimCounterparty" style="stroke: #A80036; stroke-width: 1.5;" width="164" x="182.798" y="272"/><rect fill="#FEFECE" height="23.9688" style="stroke: #A80036; stroke-width: 1.5;" width="164" x="182.798" y="272"/><text fill="#000000" font-family="sans-serif" font-size="12" lengthAdjust="spacingAndGlyphs" textLength="158" x="185.798" y="288.1387">MarketClaimCounterparty</text></a><!--class RolePlayer--><a target="_top" xlink:actuate="onRequest" xlink:href="../RolePlayer.html" xlink:show="new" xlink:title="Type of entity that plays a specific role in a specific context." xlink:type="simple"><rect fill="#EEEEEE" filter="url(#f12wymfmmci3ej)" height="23.9688" id="RolePlayer" style="stroke: #A80036; stroke-width: 1.5;" width="71" x="689.548" y="448"/><rect fill="#EEEEEE" height="23.9688" style="stroke: #A80036; stroke-width: 1.5;" width="71" x="689.548" y="448"/><text fill="#000000" font-family="sans-serif" font-size="12" lengthAdjust="spacingAndGlyphs" textLength="65" x="692.548" y="464.1387">RolePlayer</text></a><!--class ContactPersonRole--><a target="_top" xlink:actuate="onRequest" xlink:href="../ContactPersonRole.html" xlink:show="new" xlink:title="Person to be contacted in a given organisation. In the corporate action domain (including meeting notifications), it is the contact person at the party organising the meeting, at the issuer or at an intermediary." xlink:type="simple"><rect fill="#EEEEEE" filter="url(#f12wymfmmci3ej)" height="23.9688" id="ContactPersonRole" style="stroke: #A80036; stroke-width: 1.5;" width="126" x="641.798" y="360"/><rect fill="#EEEEEE" height="23.9688" style="stroke: #A80036; stroke-width: 1.5;" width="126" x="641.798" y="360"/><text fill="#000000" font-family="sans-serif" font-size="12" lengthAdjust="spacingAndGlyphs" textLength="120" x="644.798" y="376.1387">ContactPersonRole</text></a><!--class CounterpartyRisk--><a target="_top" xlink:actuate="onRequest" xlink:href="../CounterpartyRisk.html" xlink:show="new" xlink:title="Calculation of the exposure amount that one party has vis-a-vis one counterparty or a central system, based on its credit risk." xlink:type="simple"><rect fill="#EEEEEE" filter="url(#f12wymfmmci3ej)" height="23.9688" id="CounterpartyRisk" style="stroke: #A80036; stroke-width: 1.5;" width="113" x="648.548" y="272"/><rect fill="#EEEEEE" height="23.9688" style="stroke: #A80036; stroke-width: 1.5;" width="113" x="648.548" y="272"/><text fill="#000000" font-family="sans-serif" font-size="12" lengthAdjust="spacingAndGlyphs" textLength="107" x="651.548" y="288.1387">CounterpartyRisk</text></a><!--class Entry--><a target="_top" xlink:actuate="onRequest" xlink:href="../Entry.html" xlink:show="new" xlink:title="Posting to an account that results in an increase or decrease to a balance." xlink:type="simple"><rect fill="#EEEEEE" filter="url(#f12wymfmmci3ej)" height="23.9688" id="Entry" style="stroke: #A80036; stroke-width: 1.5;" width="38" x="641.798" y="166"/><rect fill="#EEEEEE" height="23.9688" style="stroke: #A80036; stroke-width: 1.5;" width="38" x="641.798" y="166"/><text fill="#000000" font-family="sans-serif" font-size="12" lengthAdjust="spacingAndGlyphs" textLength="32" x="644.798" y="182.1387">Entry</text></a><!--class CorporateActionEvent--><a target="_top" xlink:actuate="onRequest" xlink:href="../CorporateActionEvent.html" xlink:show="new" xlink:title="An event determined by a corporation's board of directors, that changes the existing corporate capital structure or financial condition." xlink:type="simple"><rect fill="#EEEEEE" filter="url(#f12wymfmmci3ej)" height="23.9688" id="CorporateActionEvent" style="stroke: #A80036; stroke-width: 1.5;" width="143" x="403.548" y="360"/><rect fill="#EEEEEE" height="23.9688" style="stroke: #A80036; stroke-width: 1.5;" width="143" x="403.548" y="360"/><text fill="#000000" font-family="sans-serif" font-size="12" lengthAdjust="spacingAndGlyphs" textLength="137" x="406.548" y="376.1387">CorporateActionEvent</text></a><!--class Account--><a target="_top" xlink:actuate="onRequest" xlink:href="../Account.html" xlink:show="new" xlink:title="Record of transactions in specific types of assets, maintained by a servicing party on behalf of one or more owning parties. Business relationship between an account servicer and one or more account owners." xlink:type="simple"><rect fill="#EEEEEE" filter="url(#f12wymfmmci3ej)" height="23.9688" id="Account" style="stroke: #A80036; stroke-width: 1.5;" width="57" x="403.548" y="272"/><rect fill="#EEEEEE" height="23.9688" style="stroke: #A80036; stroke-width: 1.5;" width="57" x="403.548" y="272"/><text fill="#000000" font-family="sans-serif" font-size="12" lengthAdjust="spacingAndGlyphs" textLength="51" x="406.548" y="288.1387">Account</text></a><!--entity ##20518--><!--link Role to CorporateActionPartyRole--><path d="M259.534,105.559 C259.916,127.159 260.354,151.898 260.601,165.865 " fill="none" id="Role-CorporateActionPartyRole" style="stroke: #A80036; stroke-width: 1.0;"/><polygon fill="none" points="252.534,105.641,259.179,85.52,266.532,105.393,252.534,105.641" style="stroke: #A80036; stroke-width: 1.0;"/><!--link CorporateActionPartyRole to MarketClaimCounterparty--><path d="M261.999,210.217 C262.802,231.114 263.812,257.371 264.373,271.95 " fill="none" id="CorporateActionPartyRole-MarketClaimCounterparty" style="stroke: #A80036; stroke-width: 1.0;"/><polygon fill="none" points="255,210.384,261.226,190.13,268.99,209.846,255,210.384" style="stroke: #A80036; stroke-width: 1.0;"/><!--link ContactPersonRole to RolePlayer--><!--link CounterpartyRisk to ContactPersonRole--><!--link Entry to CounterpartyRisk--><!--link Account to CorporateActionEvent--><!--link Role to RolePlayer--><path d="M346.262,67.271 C554.382,76.218 1061.8,105.376 1061.8,177 C1061.8,177 1061.8,177 1061.8,373 C1061.8,433.5347 855.068,452.0008 765.44,457.1621 " fill="none" id="Role-RolePlayer" style="stroke: #A80036; stroke-width: 1.0;"/><polygon fill="#A80036" points="760.226,457.455,769.4359,460.9447,765.2182,457.175,768.9879,452.9573,760.226,457.455" style="stroke: #A80036; stroke-width: 1.0;"/><text fill="#000000" font-family="sans-serif" font-size="13" lengthAdjust="spacingAndGlyphs" textLength="39" x="1062.8" y="288.0669">Player</text><text fill="#000000" font-family="sans-serif" font-size="13" lengthAdjust="spacingAndGlyphs" textLength="7" x="768.6868" y="451.1237">*</text><!--link Role to ContactPersonRole--><path d="M346.304,69.37 C500.194,79.736 806.001,104.809 836.798,142 C877.462,191.106 811.257,279.75 777.798,320 C764.991,335.407 746.443,348.285 731.248,357.246 " fill="none" id="Role-ContactPersonRole" style="stroke: #A80036; stroke-width: 1.0;"/><polygon fill="#A80036" points="726.651,359.899,736.4454,358.8644,730.9815,357.3996,732.4463,351.9357,726.651,359.899" style="stroke: #A80036; stroke-width: 1.0;"/><text fill="#000000" font-family="sans-serif" font-size="13" lengthAdjust="spacingAndGlyphs" textLength="121" x="842.798" y="233.0669">ContactPersonRole</text><text fill="#000000" font-family="sans-serif" font-size="13" lengthAdjust="spacingAndGlyphs" textLength="8" x="723.4442" y="348.9125">1</text><!--link Role to CounterpartyRisk--><path d="M346.206,67.134 C460.522,73.236 651.596,90.981 696.798,142 C727.718,176.898 717.116,237.753 709.618,266.745 " fill="none" id="Role-CounterpartyRisk" style="stroke: #A80036; stroke-width: 1.0;"/><polygon fill="#A80036" points="708.265,271.774,714.4651,264.1216,709.5635,266.9456,706.7396,262.044,708.265,271.774" style="stroke: #A80036; stroke-width: 1.0;"/><text fill="#000000" font-family="sans-serif" font-size="13" lengthAdjust="spacingAndGlyphs" textLength="109" x="717.798" y="182.0669">CounterpartyRisk</text><text fill="#000000" font-family="sans-serif" font-size="13" lengthAdjust="spacingAndGlyphs" textLength="24" x="680.0244" y="261.0026">0..1</text><!--link Role to Entry--><path d="M335.357,85.52 C427.791,111.503 578.108,153.756 636.513,170.174 " fill="none" id="Role-Entry" style="stroke: #A80036; stroke-width: 1.0;"/><polygon fill="#A80036" points="641.546,171.588,633.9642,165.3018,636.7325,170.235,631.7994,173.0033,641.546,171.588" style="stroke: #A80036; stroke-width: 1.0;"/><text fill="#000000" font-family="sans-serif" font-size="13" lengthAdjust="spacingAndGlyphs" textLength="33" x="508.798" y="129.0669">Entry</text><text fill="#000000" font-family="sans-serif" font-size="13" lengthAdjust="spacingAndGlyphs" textLength="8" x="625.7251" y="163.484">1</text><!--link CorporateActionPartyRole to CorporateActionEvent--><path d="M185.535,190.053 C123.195,200.93 41.7155,219.731 21.7981,246 C1.9272,272.207 -0.1184,295.478 21.7981,320 C46.3766,347.501 275.366,361.993 398.035,367.84 " fill="none" id="CorporateActionPartyRole-CorporateActionEvent" style="stroke: #A80036; stroke-width: 1.0;"/><polygon fill="#A80036" points="403.073,368.078,394.2728,363.6556,398.0786,367.8409,393.8934,371.6466,403.073,368.078" style="stroke: #A80036; stroke-width: 1.0;"/><text fill="#000000" font-family="sans-serif" font-size="13" lengthAdjust="spacingAndGlyphs" textLength="140" x="22.7981" y="288.0669">CorporateActionEvent</text><text fill="#000000" font-family="sans-serif" font-size="13" lengthAdjust="spacingAndGlyphs" textLength="7" x="388.5009" y="363.0844">*</text><!--link CorporateActionPartyRole to Account--><path d="M279.098,190.13 C310.597,209.287 374.967,248.436 409.206,269.26 " fill="none" id="CorporateActionPartyRole-Account" style="stroke: #A80036; stroke-width: 1.0;"/><polygon fill="#A80036" points="413.63,271.95,408.02,263.8551,409.3584,269.3513,403.8621,270.6897,413.63,271.95" style="stroke: #A80036; stroke-width: 1.0;"/><text fill="#000000" font-family="sans-serif" font-size="13" lengthAdjust="spacingAndGlyphs" textLength="52" x="357.798" y="233.0669">Account</text><text fill="#000000" font-family="sans-serif" font-size="13" lengthAdjust="spacingAndGlyphs" textLength="7" x="397.7519" y="260.981">*</text><!--link Entry to Account--><path d="M641.668,187.688 C601.552,205.907 508.42,248.202 460.868,269.798 " fill="none" id="Entry-Account" style="stroke: #A80036; stroke-width: 1.0;"/><polygon fill="#A80036" points="456.134,271.948,465.9825,271.8694,460.6867,269.8809,462.6752,264.5851,456.134,271.948" style="stroke: #A80036; stroke-width: 1.0;"/><text fill="#000000" font-family="sans-serif" font-size="13" lengthAdjust="spacingAndGlyphs" textLength="52" x="568.798" y="233.0669">Account</text><text fill="#000000" font-family="sans-serif" font-size="13" lengthAdjust="spacingAndGlyphs" textLength="7" x="454.8667" y="260.9783">*</text><!--link Account to Account--><path d="M460.306,276.332 C477.979,274.483 494.798,277.039 494.798,284 C494.798,290.254 481.222,292.952 465.648,292.095 " fill="none" id="Account-Account" style="stroke: #A80036; stroke-width: 1.0;"/><polygon fill="#A80036" points="460.306,291.668,468.9585,296.3727,465.2901,292.0666,469.5962,288.3981,460.306,291.668" style="stroke: #A80036; stroke-width: 1.0;"/><text fill="#000000" font-family="sans-serif" font-size="13" lengthAdjust="spacingAndGlyphs" textLength="94" x="500.798" y="288.0669">ParentAccount</text><text fill="#000000" font-family="sans-serif" font-size="13" lengthAdjust="spacingAndGlyphs" textLength="8" x="468.5721" y="287.5427">1</text></g></svg>