<?xml version="1.0" encoding="UTF-8" standalone="no"?><svg xmlns="http://www.w3.org/2000/svg" xmlns:xlink="http://www.w3.org/1999/xlink" contentScriptType="application/ecmascript" contentStyleType="text/css" height="970px" preserveAspectRatio="none" style="width:1835px;height:970px;" version="1.1" viewBox="0 0 1835 970" width="1835px" zoomAndPan="magnify"><defs><filter height="300%" id="f1wctd27mg60fw" width="300%" x="-1" y="-1"><feGaussianBlur result="blurOut" stdDeviation="2.0"/><feColorMatrix in="blurOut" result="blurOut2" type="matrix" values="0 0 0 0 0 0 0 0 0 0 0 0 0 0 0 0 0 0 .4 0"/><feOffset dx="4.0" dy="4.0" in="blurOut2" result="blurOut3"/><feBlend in="SourceGraphic" in2="blurOut3" mode="normal"/></filter></defs><g><!--cluster ##19448--><!--cluster ##19457--><!--cluster ##19462--><!--class RolePlayer--><a target="_top" xlink:actuate="onRequest" xlink:href="../RolePlayer.html" xlink:show="new" xlink:title="Type of entity that plays a specific role in a specific context." xlink:type="simple"><rect fill="#FEFEEE" filter="url(#f1wctd27mg60fw)" height="23.9688" id="RolePlayer" style="stroke: #A80036; stroke-width: 1.5;" width="71" x="721.75" y="40"/><rect fill="#FEFEEE" height="23.9688" style="stroke: #A80036; stroke-width: 1.5;" width="71" x="721.75" y="40"/><text fill="#000000" font-family="sans-serif" font-size="12" lengthAdjust="spacingAndGlyphs" textLength="65" x="724.75" y="56.1387">RolePlayer</text></a><!--class System--><a target="_top" xlink:actuate="onRequest" xlink:href="../System.html" xlink:show="new" xlink:title="Set of integrated applications that provides centralised services such as clearing, netting, reconciliation, trading and/or settlement." xlink:type="simple"><rect fill="#FEFEEE" filter="url(#f1wctd27mg60fw)" height="57.5781" id="System" style="stroke: #A80036; stroke-width: 1.5;" width="254" x="539" y="126"/><rect fill="#FEFEEE" height="23.9688" style="stroke: #A80036; stroke-width: 1.5;" width="254" x="539" y="126"/><text fill="#000000" font-family="sans-serif" font-size="12" lengthAdjust="spacingAndGlyphs" textLength="45" x="643.5" y="142.1387">System</text><line style="stroke: #A80036; stroke-width: 1.5;" x1="540" x2="792" y1="149.9688" y2="149.9688"/><ellipse cx="550" cy="161.8711" fill="#84BE84" rx="3" ry="3" style="stroke: #038048; stroke-width: 1.0;"/><text fill="#000000" font-family="sans-serif" font-size="11" lengthAdjust="spacingAndGlyphs" textLength="97" x="559" y="164.1792">SystemDateTime</text><text fill="#000000" font-family="sans-serif" font-size="11" font-style="italic" lengthAdjust="spacingAndGlyphs" textLength="81" x="660" y="164.1792">(ISODateTime)</text><ellipse cx="550" cy="174.6758" fill="#84BE84" rx="3" ry="3" style="stroke: #038048; stroke-width: 1.0;"/><text fill="#000000" font-family="sans-serif" font-size="11" lengthAdjust="spacingAndGlyphs" textLength="98" x="559" y="176.9839">SystemLanguage</text><text fill="#000000" font-family="sans-serif" font-size="11" font-style="italic" lengthAdjust="spacingAndGlyphs" textLength="126" x="661" y="176.9839">(ISO2ALanguageCode)</text></a><!--class MatchingSystem--><a target="_top" xlink:actuate="onRequest" xlink:href="../MatchingSystem.html" xlink:show="new" xlink:title="System which compares two sets of data and provides the comparison result to its users." xlink:type="simple"><rect fill="#FEFECE" filter="url(#f1wctd27mg60fw)" height="23.9688" id="MatchingSystem" style="stroke: #A80036; stroke-width: 1.5;" width="108" x="598" y="264"/><rect fill="#FEFECE" height="23.9688" style="stroke: #A80036; stroke-width: 1.5;" width="108" x="598" y="264"/><text fill="#000000" font-family="sans-serif" font-size="12" lengthAdjust="spacingAndGlyphs" textLength="102" x="601" y="280.1387">MatchingSystem</text></a><!--class Role--><a target="_top" xlink:actuate="onRequest" xlink:href="../Role.html" xlink:show="new" xlink:title="Role of a party in an activity." xlink:type="simple"><rect fill="#EEEEEE" filter="url(#f1wctd27mg60fw)" height="23.9688" id="Role" style="stroke: #A80036; stroke-width: 1.5;" width="33" x="1571.75" y="370"/><rect fill="#EEEEEE" height="23.9688" style="stroke: #A80036; stroke-width: 1.5;" width="33" x="1571.75" y="370"/><text fill="#000000" font-family="sans-serif" font-size="12" lengthAdjust="spacingAndGlyphs" textLength="27" x="1574.75" y="386.1387">Role</text></a><!--class DateTimePeriod--><a target="_top" xlink:actuate="onRequest" xlink:href="../DateTimePeriod.html" xlink:show="new" xlink:title="Time span defined by a start date and time, and an end date and time." xlink:type="simple"><rect fill="#EEEEEE" filter="url(#f1wctd27mg60fw)" height="23.9688" id="DateTimePeriod" style="stroke: #A80036; stroke-width: 1.5;" width="105" x="1542.75" y="264"/><rect fill="#EEEEEE" height="23.9688" style="stroke: #A80036; stroke-width: 1.5;" width="105" x="1542.75" y="264"/><text fill="#000000" font-family="sans-serif" font-size="12" lengthAdjust="spacingAndGlyphs" textLength="99" x="1545.75" y="280.1387">DateTimePeriod</text></a><!--class SystemIdentification--><a target="_top" xlink:actuate="onRequest" xlink:href="../SystemIdentification.html" xlink:show="new" xlink:title="Parameters that identify a system." xlink:type="simple"><rect fill="#EEEEEE" filter="url(#f1wctd27mg60fw)" height="23.9688" id="SystemIdentification" style="stroke: #A80036; stroke-width: 1.5;" width="132" x="1192" y="474"/><rect fill="#EEEEEE" height="23.9688" style="stroke: #A80036; stroke-width: 1.5;" width="132" x="1192" y="474"/><text fill="#000000" font-family="sans-serif" font-size="12" lengthAdjust="spacingAndGlyphs" textLength="126" x="1195" y="490.1387">SystemIdentification</text></a><!--class Location--><a target="_top" xlink:actuate="onRequest" xlink:href="../Location.html" xlink:show="new" xlink:title="Specifies a place." xlink:type="simple"><rect fill="#EEEEEE" filter="url(#f1wctd27mg60fw)" height="23.9688" id="Location" style="stroke: #A80036; stroke-width: 1.5;" width="59" x="1264.75" y="370"/><rect fill="#EEEEEE" height="23.9688" style="stroke: #A80036; stroke-width: 1.5;" width="59" x="1264.75" y="370"/><text fill="#000000" font-family="sans-serif" font-size="12" lengthAdjust="spacingAndGlyphs" textLength="53" x="1267.75" y="386.1387">Location</text></a><!--class Reconciliation--><a target="_top" xlink:actuate="onRequest" xlink:href="../Reconciliation.html" xlink:show="new" xlink:title="Process of matching different documents submitted by parties to a trade." xlink:type="simple"><rect fill="#EEEEEE" filter="url(#f1wctd27mg60fw)" height="23.9688" id="Reconciliation" style="stroke: #A80036; stroke-width: 1.5;" width="93" x="1230.75" y="264"/><rect fill="#EEEEEE" height="23.9688" style="stroke: #A80036; stroke-width: 1.5;" width="93" x="1230.75" y="264"/><text fill="#000000" font-family="sans-serif" font-size="12" lengthAdjust="spacingAndGlyphs" textLength="87" x="1233.75" y="280.1387">Reconciliation</text></a><!--class SystemAvailability--><a target="_top" xlink:actuate="onRequest" xlink:href="../SystemAvailability.html" xlink:show="new" xlink:title="information about the periods of activity and non-activity of a system." xlink:type="simple"><rect fill="#EEEEEE" filter="url(#f1wctd27mg60fw)" height="23.9688" id="SystemAvailability" style="stroke: #A80036; stroke-width: 1.5;" width="115" x="1041.75" y="936"/><rect fill="#EEEEEE" height="23.9688" style="stroke: #A80036; stroke-width: 1.5;" width="115" x="1041.75" y="936"/><text fill="#000000" font-family="sans-serif" font-size="12" lengthAdjust="spacingAndGlyphs" textLength="109" x="1044.75" y="952.1387">SystemAvailability</text></a><!--class SystemEventInformation--><a target="_top" xlink:actuate="onRequest" xlink:href="../SystemEventInformation.html" xlink:show="new" xlink:title="Detailed information about an event occurring on a system, whether planned, for example, cut-off time for a specific type of eligible transfer, or unplanned, for example, an unsolicited failure, as stipulated in the specifications of the system." xlink:type="simple"><rect fill="#EEEEEE" filter="url(#f1wctd27mg60fw)" height="23.9688" id="SystemEventInformation" style="stroke: #A80036; stroke-width: 1.5;" width="157" x="849.75" y="850"/><rect fill="#EEEEEE" height="23.9688" style="stroke: #A80036; stroke-width: 1.5;" width="157" x="849.75" y="850"/><text fill="#000000" font-family="sans-serif" font-size="12" lengthAdjust="spacingAndGlyphs" textLength="151" x="852.75" y="866.1387">SystemEventInformation</text></a><!--class SystemPartyRole--><a target="_top" xlink:actuate="onRequest" xlink:href="../SystemPartyRole.html" xlink:show="new" xlink:title="Role played by a party in a system." xlink:type="simple"><rect fill="#EEEEEE" filter="url(#f1wctd27mg60fw)" height="23.9688" id="SystemPartyRole" style="stroke: #A80036; stroke-width: 1.5;" width="110" x="855" y="764"/><rect fill="#EEEEEE" height="23.9688" style="stroke: #A80036; stroke-width: 1.5;" width="110" x="855" y="764"/><text fill="#000000" font-family="sans-serif" font-size="12" lengthAdjust="spacingAndGlyphs" textLength="104" x="858" y="780.1387">SystemPartyRole</text></a><!--class SystemStatus--><a target="_top" xlink:actuate="onRequest" xlink:href="../SystemStatus.html" xlink:show="new" xlink:title="Status of a system and the period of time during which the status is valid." xlink:type="simple"><rect fill="#EEEEEE" filter="url(#f1wctd27mg60fw)" height="23.9688" id="SystemStatus" style="stroke: #A80036; stroke-width: 1.5;" width="92" x="864" y="678"/><rect fill="#EEEEEE" height="23.9688" style="stroke: #A80036; stroke-width: 1.5;" width="92" x="864" y="678"/><text fill="#000000" font-family="sans-serif" font-size="12" lengthAdjust="spacingAndGlyphs" textLength="86" x="867" y="694.1387">SystemStatus</text></a><!--class SystemBusinessInformation--><a target="_top" xlink:actuate="onRequest" xlink:href="../SystemBusinessInformation.html" xlink:show="new" xlink:title="Details about business information related to a system." xlink:type="simple"><rect fill="#EEEEEE" filter="url(#f1wctd27mg60fw)" height="23.9688" id="SystemBusinessInformation" style="stroke: #A80036; stroke-width: 1.5;" width="178" x="849.5" y="576"/><rect fill="#EEEEEE" height="23.9688" style="stroke: #A80036; stroke-width: 1.5;" width="178" x="849.5" y="576"/><text fill="#000000" font-family="sans-serif" font-size="12" lengthAdjust="spacingAndGlyphs" textLength="172" x="852.5" y="592.1387">SystemBusinessInformation</text></a><!--class Negotiation--><a target="_top" xlink:actuate="onRequest" xlink:href="../Negotiation.html" xlink:show="new" xlink:title="Decision making on the transfer of a financial instrument." xlink:type="simple"><rect fill="#EEEEEE" filter="url(#f1wctd27mg60fw)" height="23.9688" id="Negotiation" style="stroke: #A80036; stroke-width: 1.5;" width="79" x="966.75" y="474"/><rect fill="#EEEEEE" height="23.9688" style="stroke: #A80036; stroke-width: 1.5;" width="79" x="966.75" y="474"/><text fill="#000000" font-family="sans-serif" font-size="12" lengthAdjust="spacingAndGlyphs" textLength="73" x="969.75" y="490.1387">Negotiation</text></a><!--class Account--><a target="_top" xlink:actuate="onRequest" xlink:href="../Account.html" xlink:show="new" xlink:title="Record of transactions in specific types of assets, maintained by a servicing party on behalf of one or more owning parties. Business relationship between an account servicer and one or more account owners." xlink:type="simple"><rect fill="#EEEEEE" filter="url(#f1wctd27mg60fw)" height="23.9688" id="Account" style="stroke: #A80036; stroke-width: 1.5;" width="57" x="1009.75" y="370"/><rect fill="#EEEEEE" height="23.9688" style="stroke: #A80036; stroke-width: 1.5;" width="57" x="1009.75" y="370"/><text fill="#000000" font-family="sans-serif" font-size="12" lengthAdjust="spacingAndGlyphs" textLength="51" x="1012.75" y="386.1387">Account</text></a><!--class Trade--><a target="_top" xlink:actuate="onRequest" xlink:href="../Trade.html" xlink:show="new" xlink:title="Result of an order between at least two parties. A trade relates to the delivery of goods and services, cash or securities." xlink:type="simple"><rect fill="#EEEEEE" filter="url(#f1wctd27mg60fw)" height="23.9688" id="Trade" style="stroke: #A80036; stroke-width: 1.5;" width="42" x="1062.5" y="576"/><rect fill="#EEEEEE" height="23.9688" style="stroke: #A80036; stroke-width: 1.5;" width="42" x="1062.5" y="576"/><text fill="#000000" font-family="sans-serif" font-size="12" lengthAdjust="spacingAndGlyphs" textLength="36" x="1065.5" y="592.1387">Trade</text></a><!--class Assessment--><a target="_top" xlink:actuate="onRequest" xlink:href="../Assessment.html" xlink:show="new" xlink:title="Assessment for the components of a system." xlink:type="simple"><rect fill="#EEEEEE" filter="url(#f1wctd27mg60fw)" height="23.9688" id="Assessment" style="stroke: #A80036; stroke-width: 1.5;" width="82" x="849" y="474"/><rect fill="#EEEEEE" height="23.9688" style="stroke: #A80036; stroke-width: 1.5;" width="82" x="849" y="474"/><text fill="#000000" font-family="sans-serif" font-size="12" lengthAdjust="spacingAndGlyphs" textLength="76" x="852" y="490.1387">Assessment</text></a><!--class Position--><a target="_top" xlink:actuate="onRequest" xlink:href="../Position.html" xlink:show="new" xlink:title="Specifies the status of trades and their value inside a system." xlink:type="simple"><rect fill="#EEEEEE" filter="url(#f1wctd27mg60fw)" height="23.9688" id="Position" style="stroke: #A80036; stroke-width: 1.5;" width="56" x="862.5" y="370"/><rect fill="#EEEEEE" height="23.9688" style="stroke: #A80036; stroke-width: 1.5;" width="56" x="862.5" y="370"/><text fill="#000000" font-family="sans-serif" font-size="12" lengthAdjust="spacingAndGlyphs" textLength="50" x="865.5" y="386.1387">Position</text></a><!--entity ##19489--><!--link RolePlayer to System--><path d="M733.511,79.071 C720.561,93.443 704.478,111.294 691.258,125.966 " fill="none" id="RolePlayer-System" style="stroke: #A80036; stroke-width: 1.0;"/><polygon fill="none" points="728.326,74.368,746.914,64.195,738.727,83.739,728.326,74.368" style="stroke: #A80036; stroke-width: 1.0;"/><!--link System to MatchingSystem--><path d="M660.336,204.147 C657.758,226.057 654.929,250.1 653.319,263.79 " fill="none" id="System-MatchingSystem" style="stroke: #A80036; stroke-width: 1.0;"/><polygon fill="none" points="653.393,203.246,662.682,184.201,667.297,204.882,653.393,203.246" style="stroke: #A80036; stroke-width: 1.0;"/><!--link DateTimePeriod to Role--><!--link Location to SystemIdentification--><!--link Reconciliation to Location--><!--link SystemAvailability to Reconciliation--><!--link SystemEventInformation to SystemAvailability--><!--link SystemPartyRole to SystemEventInformation--><!--link SystemStatus to SystemPartyRole--><!--link SystemBusinessInformation to SystemStatus--><!--link Negotiation to SystemBusinessInformation--><!--link Account to Negotiation--><!--link Trade to Account--><!--link Assessment to Trade--><!--link Position to Assessment--><!--link RolePlayer to Role--><path d="M792.502,53.804 C946.723,57.587 1553.78,75.599 1621,126 C1688.97,176.96 1699.64,234.437 1665,312 C1653.59,337.534 1627.55,357.545 1608.91,369.298 " fill="none" id="RolePlayer-Role" style="stroke: #A80036; stroke-width: 1.0;"/><polygon fill="#A80036" points="1604.35,372.106,1614.1127,370.8064,1608.6111,369.4901,1609.9274,363.9885,1604.35,372.106" style="stroke: #A80036; stroke-width: 1.0;"/><text fill="#000000" font-family="sans-serif" font-size="13" lengthAdjust="spacingAndGlyphs" textLength="27" x="1685" y="227.0669">Role</text><text fill="#000000" font-family="sans-serif" font-size="13" lengthAdjust="spacingAndGlyphs" textLength="23" x="1612.8025" y="362.5649">1..*</text><!--link RolePlayer to DateTimePeriod--><path d="M792.277,55.41 C932.954,65.684 1452.11,110.144 1573,214 C1585.97,225.139 1591.29,244.525 1593.48,258.456 " fill="none" id="RolePlayer-DateTimePeriod" style="stroke: #A80036; stroke-width: 1.0;"/><polygon fill="#A80036" points="1594.19,263.683,1596.9351,254.2244,1593.5133,258.729,1589.0087,255.3072,1594.19,263.683" style="stroke: #A80036; stroke-width: 1.0;"/><text fill="#000000" font-family="sans-serif" font-size="13" lengthAdjust="spacingAndGlyphs" textLength="86" x="1525" y="159.0669">ValidityPeriod</text><text fill="#000000" font-family="sans-serif" font-size="13" lengthAdjust="spacingAndGlyphs" textLength="24" x="1564.5326" y="252.8814">0..1</text><!--link System to SystemIdentification--><path d="M793.159,159.413 C952.174,165.082 1214.53,179.458 1305,214 C1390.94,246.812 1379.42,334.883 1340,418 C1328.74,441.735 1304.51,459.847 1285.29,471.22 " fill="none" id="System-SystemIdentification" style="stroke: #A80036; stroke-width: 1.0;"/><polygon fill="#A80036" points="1280.52,473.965,1290.317,472.956,1284.857,471.4769,1286.3361,466.0169,1280.52,473.965" style="stroke: #A80036; stroke-width: 1.0;"/><text fill="#000000" font-family="sans-serif" font-size="13" lengthAdjust="spacingAndGlyphs" textLength="130" x="1371" y="333.0669">SystemIdentification</text><text fill="#000000" font-family="sans-serif" font-size="13" lengthAdjust="spacingAndGlyphs" textLength="8" x="1277.5425" y="463.0012">1</text><!--link System to Location--><path d="M793.223,169.256 C897.191,182.36 1033.79,205.487 1077,240 C1114.75,270.145 1086.61,307.413 1124,338 C1144.55,354.81 1216,368.674 1259.46,375.803 " fill="none" id="System-Location" style="stroke: #A80036; stroke-width: 1.0;"/><polygon fill="#A80036" points="1264.62,376.639,1256.3914,371.227,1259.6867,375.8249,1255.0888,379.1202,1264.62,376.639" style="stroke: #A80036; stroke-width: 1.0;"/><text fill="#000000" font-family="sans-serif" font-size="13" lengthAdjust="spacingAndGlyphs" textLength="54" x="1107" y="280.0669">Location</text><text fill="#000000" font-family="sans-serif" font-size="13" lengthAdjust="spacingAndGlyphs" textLength="8" x="1248.8022" y="369.9932">1</text><!--link System to Reconciliation--><path d="M793.076,157.639 C895.383,162.062 1041.76,175.454 1164,214 C1198.68,224.937 1235.05,246.704 1256.87,261.058 " fill="none" id="System-Reconciliation" style="stroke: #A80036; stroke-width: 1.0;"/><polygon fill="#A80036" points="1261.03,263.824,1255.7524,255.5085,1256.8671,261.0545,1251.3212,262.1691,1261.03,263.824" style="stroke: #A80036; stroke-width: 1.0;"/><text fill="#000000" font-family="sans-serif" font-size="13" lengthAdjust="spacingAndGlyphs" textLength="87" x="1208" y="227.0669">Reconciliation</text><text fill="#000000" font-family="sans-serif" font-size="13" lengthAdjust="spacingAndGlyphs" textLength="8" x="1244.7356" y="252.8117">1</text><!--link System to SystemAvailability--><path d="M538.753,160.095 C433.158,165.91 279.823,179.976 150,214 C82.7652,231.621 6,205.495 6,275 C6,275 6,275 6,863 C6,915.0423 804.141,939.48 1036.34,945.4884 " fill="none" id="System-SystemAvailability" style="stroke: #A80036; stroke-width: 1.0;"/><polygon fill="#A80036" points="1041.39,945.6184,1032.4958,941.3883,1036.3917,945.4898,1032.2901,949.3856,1041.39,945.6184" style="stroke: #A80036; stroke-width: 1.0;"/><text fill="#000000" font-family="sans-serif" font-size="13" lengthAdjust="spacingAndGlyphs" textLength="67" x="7" y="592.0669">Availability</text><text fill="#000000" font-family="sans-serif" font-size="13" lengthAdjust="spacingAndGlyphs" textLength="8" x="1025.9076" y="940.5716">1</text><!--link System to SystemEventInformation--><path d="M538.738,159.107 C379.94,166.517 129,191.446 129,275 C129,275 129,275 129,777 C129,848.365 639.671,859.311 844.49,860.831 " fill="none" id="System-SystemEventInformation" style="stroke: #A80036; stroke-width: 1.0;"/><polygon fill="#A80036" points="849.568,860.867,840.5968,856.8028,844.5681,860.8313,840.5397,864.8026,849.568,860.867" style="stroke: #A80036; stroke-width: 1.0;"/><text fill="#000000" font-family="sans-serif" font-size="13" lengthAdjust="spacingAndGlyphs" textLength="36" x="130" y="541.0669">Event</text><text fill="#000000" font-family="sans-serif" font-size="13" lengthAdjust="spacingAndGlyphs" textLength="8" x="833.6381" y="856.143">1</text><!--link System to SystemPartyRole--><path d="M538.835,164.935 C406.076,177.856 217,208.016 217,275 C217,275 217,275 217,691 C217,754.43 680.454,770.293 849.355,773.967 " fill="none" id="System-SystemPartyRole" style="stroke: #A80036; stroke-width: 1.0;"/><polygon fill="#A80036" points="854.752,774.083,845.8398,769.8911,849.7531,773.9759,845.6683,777.8892,854.752,774.083" style="stroke: #A80036; stroke-width: 1.0;"/><text fill="#000000" font-family="sans-serif" font-size="13" lengthAdjust="spacingAndGlyphs" textLength="60" x="218" y="490.0669">PartyRole</text><text fill="#000000" font-family="sans-serif" font-size="13" lengthAdjust="spacingAndGlyphs" textLength="7" x="839.8436" y="768.9549">*</text><!--link System to SystemStatus--><path d="M538.693,176.554 C470.966,190.568 397.991,211.731 380,240 C331.13,316.787 318.603,363.993 362,444 C461.879,628.139 742.773,674.158 858.835,685.432 " fill="none" id="System-SystemStatus" style="stroke: #A80036; stroke-width: 1.0;"/><polygon fill="#A80036" points="863.901,685.912,855.3195,681.0789,858.9234,685.4392,854.5631,689.0431,863.901,685.912" style="stroke: #A80036; stroke-width: 1.0;"/><text fill="#000000" font-family="sans-serif" font-size="13" lengthAdjust="spacingAndGlyphs" textLength="42" x="363" y="439.0669">Status</text><text fill="#000000" font-family="sans-serif" font-size="13" lengthAdjust="spacingAndGlyphs" textLength="8" x="848.0346" y="680.2984">1</text><!--link System to SystemBusinessInformation--><path d="M538.851,178.382 C499.079,187.766 461.926,199.819 448,214 C383.379,279.802 364.84,337.587 410,418 C463.522,513.304 516.873,509.774 620,546 C692.684,571.532 779.718,581.441 844.344,585.157 " fill="none" id="System-SystemBusinessInformation" style="stroke: #A80036; stroke-width: 1.0;"/><polygon fill="#A80036" points="849.349,585.435,840.5858,580.9398,844.3568,585.1565,840.1401,588.9274,849.349,585.435" style="stroke: #A80036; stroke-width: 1.0;"/><text fill="#000000" font-family="sans-serif" font-size="13" lengthAdjust="spacingAndGlyphs" textLength="190" x="411" y="386.0669">SystemGeneratedInformation</text><text fill="#000000" font-family="sans-serif" font-size="13" lengthAdjust="spacingAndGlyphs" textLength="8" x="833.4348" y="580.6953">1</text><!--link System to DateTimePeriod--><path d="M793.155,160.246 C971.404,167.199 1286.07,183.404 1396,214 C1413.23,218.797 1415.26,225.685 1432,232 C1466.18,244.896 1505.78,255.439 1537.39,262.858 " fill="none" id="System-DateTimePeriod" style="stroke: #A80036; stroke-width: 1.0;"/><polygon fill="#A80036" points="1542.39,264.021,1534.5419,258.0706,1537.5222,262.8787,1532.7142,265.859,1542.39,264.021" style="stroke: #A80036; stroke-width: 1.0;"/><text fill="#000000" font-family="sans-serif" font-size="13" lengthAdjust="spacingAndGlyphs" textLength="134" x="1433" y="227.0669">VersionValidityPeriod</text><text fill="#000000" font-family="sans-serif" font-size="13" lengthAdjust="spacingAndGlyphs" textLength="8" x="1526.6999" y="257.7295">1</text><!--link System to Negotiation--><path d="M685.811,184.025 C697.034,200.187 711.155,221.009 723,240 C773.624,321.165 767.291,360.848 844,418 C879.591,444.517 927.202,462.565 961.589,473.187 " fill="none" id="System-Negotiation" style="stroke: #A80036; stroke-width: 1.0;"/><polygon fill="#A80036" points="966.563,474.701,959.1159,468.2558,961.7793,473.2464,956.7886,475.9098,966.563,474.701" style="stroke: #A80036; stroke-width: 1.0;"/><text fill="#000000" font-family="sans-serif" font-size="13" lengthAdjust="spacingAndGlyphs" textLength="74" x="775" y="333.0669">Negotiation</text><text fill="#000000" font-family="sans-serif" font-size="13" lengthAdjust="spacingAndGlyphs" textLength="24" x="938.9846" y="466.6082">0..1</text><!--link System to Account--><path d="M793.091,169.734 C849.33,181.119 913.367,201.938 961,240 C1002.641,273.274 1025.02,335.445 1033.69,364.826 " fill="none" id="System-Account" style="stroke: #A80036; stroke-width: 1.0;"/><polygon fill="#A80036" points="1035.15,369.917,1036.5152,360.1632,1033.7723,365.1106,1028.8249,362.3676,1035.15,369.917" style="stroke: #A80036; stroke-width: 1.0;"/><text fill="#000000" font-family="sans-serif" font-size="13" lengthAdjust="spacingAndGlyphs" textLength="52" x="1015" y="280.0669">Account</text><text fill="#000000" font-family="sans-serif" font-size="13" lengthAdjust="spacingAndGlyphs" textLength="8" x="1023.3656" y="358.9367">1</text><!--link System to Trade--><path d="M607.324,184.007 C587.081,197.522 567.771,216.078 561,240 C552.285,270.79 551.864,281.332 561,312 C564.942,325.232 569.386,327.211 578,338 C589.571,352.492 594.836,354.002 607,368 C625.486,389.273 623.85,400.575 646,418 C754.496,503.352 798.906,499.828 929,546 C978.374,563.523 992.408,562.387 1043,576 C1047.6,577.237 1052.49,578.568 1057.21,579.863 " fill="none" id="System-Trade" style="stroke: #A80036; stroke-width: 1.0;"/><polygon fill="#A80036" points="1062.25,581.247,1054.6183,575.0214,1057.4259,579.9324,1052.515,582.74,1062.25,581.247" style="stroke: #A80036; stroke-width: 1.0;"/><text fill="#000000" font-family="sans-serif" font-size="13" lengthAdjust="spacingAndGlyphs" textLength="36" x="647" y="386.0669">Trade</text><text fill="#000000" font-family="sans-serif" font-size="13" lengthAdjust="spacingAndGlyphs" textLength="8" x="1046.5234" y="573.4263">1</text><!--link System to Assessment--><path d="M624.949,184.245 C607.616,198.682 589.315,217.88 580,240 C567.58,269.492 563.128,284.809 580,312 C609.552,359.628 646.136,337.251 693,368 C736.773,396.721 737.924,417.371 783,444 C803.059,455.85 827.158,465.438 847.402,472.354 " fill="none" id="System-Assessment" style="stroke: #A80036; stroke-width: 1.0;"/><polygon fill="#A80036" points="852.193,473.966,844.9384,467.3049,847.454,472.3716,842.3873,474.8872,852.193,473.966" style="stroke: #A80036; stroke-width: 1.0;"/><text fill="#000000" font-family="sans-serif" font-size="13" lengthAdjust="spacingAndGlyphs" textLength="79" x="607" y="333.0669">Assessment</text><text fill="#000000" font-family="sans-serif" font-size="13" lengthAdjust="spacingAndGlyphs" textLength="24" x="816.7141" y="465.8147">0..1</text><!--link System to Position--><path d="M739.863,184.076 C755.818,192.221 771.831,202.179 785,214 C834.835,258.734 869.799,332.563 883.535,364.94 " fill="none" id="System-Position" style="stroke: #A80036; stroke-width: 1.0;"/><polygon fill="#A80036" points="885.557,369.77,885.7733,359.9235,883.6271,365.1575,878.3932,363.0113,885.557,369.77" style="stroke: #A80036; stroke-width: 1.0;"/><text fill="#000000" font-family="sans-serif" font-size="13" lengthAdjust="spacingAndGlyphs" textLength="93" x="858" y="280.0669">TradesPosition</text><text fill="#000000" font-family="sans-serif" font-size="13" lengthAdjust="spacingAndGlyphs" textLength="8" x="873.2634" y="358.9973">1</text><!--link DateTimePeriod to Account--><path d="M1581.53,288.162 C1561.94,304.145 1526.27,332.264 1511,338 C1470.1,353.366 1172.68,372.765 1071.55,378.984 " fill="none" id="DateTimePeriod-Account" style="stroke: #A80036; stroke-width: 1.0;"/><polygon fill="#A80036" points="1066.31,379.305,1075.5338,382.7577,1071.301,379.0049,1075.0537,374.7721,1066.31,379.305" style="stroke: #A80036; stroke-width: 1.0;"/><text fill="#000000" font-family="sans-serif" font-size="13" lengthAdjust="spacingAndGlyphs" textLength="52" x="1540" y="333.0669">Account</text><text fill="#000000" font-family="sans-serif" font-size="13" lengthAdjust="spacingAndGlyphs" textLength="24" x="1074.5724" y="373.0798">0..1</text><!--link DateTimePeriod to SystemAvailability--><path d="M1607.45,288.123 C1625.81,305.824 1658,342.369 1658,381 C1658,381 1658,381 1658,863 C1658,912.7367 1307.47,936.3766 1161.56,944.0622 " fill="none" id="DateTimePeriod-SystemAvailability" style="stroke: #A80036; stroke-width: 1.0;"/><polygon fill="#A80036" points="1156.46,944.3289,1165.6538,947.8607,1161.4534,944.0718,1165.2424,939.8713,1156.46,944.3289" style="stroke: #A80036; stroke-width: 1.0;"/><text fill="#000000" font-family="sans-serif" font-size="13" lengthAdjust="spacingAndGlyphs" textLength="164" x="1659" y="643.0669">RelatedSystemAvailability</text><text fill="#000000" font-family="sans-serif" font-size="13" lengthAdjust="spacingAndGlyphs" textLength="8" x="1164.6851" y="938.7713">1</text><!--link Reconciliation to Trade--><path d="M1246.68,288.101 C1225.64,295.535 1196.86,305.172 1171,312 C1090.4,333.281 1048.56,306.763 992,368 C968.641,393.293 957.115,415.894 977,444 C1000.139,476.704 1034.41,444.956 1062,474 C1087.04,500.36 1087.07,546.446 1085.01,570.821 " fill="none" id="Reconciliation-Trade" style="stroke: #A80036; stroke-width: 1.0;"/><polygon fill="#A80036" points="1084.52,575.96,1089.364,567.3847,1084.9991,570.983,1081.4008,566.6181,1084.52,575.96" style="stroke: #A80036; stroke-width: 1.0;"/><text fill="#000000" font-family="sans-serif" font-size="13" lengthAdjust="spacingAndGlyphs" textLength="111" x="978" y="439.0669">ReconciledTrades</text><text fill="#000000" font-family="sans-serif" font-size="13" lengthAdjust="spacingAndGlyphs" textLength="8" x="1074.1519" y="564.9945">1</text><!--link Reconciliation to Account--><path d="M1257.12,288.003 C1242.53,295.684 1222.01,305.657 1203,312 C1186.22,317.601 1180.72,314.216 1164,320 C1147.09,325.847 1144.07,330.144 1128,338 C1107.38,348.08 1083.99,359.248 1066.22,367.676 " fill="none" id="Reconciliation-Account" style="stroke: #A80036; stroke-width: 1.0;"/><polygon fill="#A80036" points="1061.36,369.978,1071.2058,369.7346,1065.8775,367.835,1067.777,362.5066,1061.36,369.978" style="stroke: #A80036; stroke-width: 1.0;"/><text fill="#000000" font-family="sans-serif" font-size="13" lengthAdjust="spacingAndGlyphs" textLength="52" x="1165" y="333.0669">Account</text><text fill="#000000" font-family="sans-serif" font-size="13" lengthAdjust="spacingAndGlyphs" textLength="8" x="1058.5853" y="359.0187">1</text><!--link Negotiation to Trade--><path d="M992.024,498.258 C978.652,510.423 962.021,530.191 973,546 C978.021,553.23 1026.36,569.373 1057.26,579.107 " fill="none" id="Negotiation-Trade" style="stroke: #A80036; stroke-width: 1.0;"/><polygon fill="#A80036" points="1062.07,580.612,1054.6839,574.097,1057.3001,579.1125,1052.2847,581.7288,1062.07,580.612" style="stroke: #A80036; stroke-width: 1.0;"/><text fill="#000000" font-family="sans-serif" font-size="13" lengthAdjust="spacingAndGlyphs" textLength="98" x="974" y="541.0669">TradeExecution</text><text fill="#000000" font-family="sans-serif" font-size="13" lengthAdjust="spacingAndGlyphs" textLength="8" x="1046.6277" y="592.7262">1</text><!--link Account to Account--><path d="M1066.51,372.938 C1084.18,370.753 1101,373.773 1101,382 C1101,389.391 1087.42,392.58 1071.85,391.567 " fill="none" id="Account-Account" style="stroke: #A80036; stroke-width: 1.0;"/><polygon fill="#A80036" points="1066.51,391.062,1075.0928,395.8926,1071.4877,391.5333,1075.847,387.9282,1066.51,391.062" style="stroke: #A80036; stroke-width: 1.0;"/><text fill="#000000" font-family="sans-serif" font-size="13" lengthAdjust="spacingAndGlyphs" textLength="94" x="1107" y="386.0669">ParentAccount</text><text fill="#000000" font-family="sans-serif" font-size="13" lengthAdjust="spacingAndGlyphs" textLength="8" x="1074.7766" y="407.3939">1</text></g></svg>