<?xml version="1.0" encoding="UTF-8" standalone="no"?><svg xmlns="http://www.w3.org/2000/svg" xmlns:xlink="http://www.w3.org/1999/xlink" contentScriptType="application/ecmascript" contentStyleType="text/css" height="1508px" preserveAspectRatio="none" style="width:1612px;height:1508px;" version="1.1" viewBox="0 0 1612 1508" width="1612px" zoomAndPan="magnify"><defs><filter height="300%" id="f1l4lvdet51ho8" width="300%" x="-1" y="-1"><feGaussianBlur result="blurOut" stdDeviation="2.0"/><feColorMatrix in="blurOut" result="blurOut2" type="matrix" values="0 0 0 0 0 0 0 0 0 0 0 0 0 0 0 0 0 0 .4 0"/><feOffset dx="4.0" dy="4.0" in="blurOut2" result="blurOut3"/><feBlend in="SourceGraphic" in2="blurOut3" mode="normal"/></filter></defs><g><!--cluster ##10968--><!--cluster ##10974--><!--class Meeting--><a target="_top" xlink:actuate="onRequest" xlink:href="../Meeting.html" xlink:show="new" xlink:title="Specifies the physical parameters of a general meeting. Several dates and places can be defined for a  meeting." xlink:type="simple"><rect fill="#FEFECE" filter="url(#f1l4lvdet51ho8)" height="121.6016" id="Meeting" style="stroke: #A80036; stroke-width: 1.5;" width="364" x="1126" y="40"/><rect fill="#FEFECE" height="23.9688" style="stroke: #A80036; stroke-width: 1.5;" width="364" x="1126" y="40"/><text fill="#000000" font-family="sans-serif" font-size="12" lengthAdjust="spacingAndGlyphs" textLength="50" x="1283" y="56.1387">Meeting</text><line style="stroke: #A80036; stroke-width: 1.5;" x1="1127" x2="1489" y1="63.9688" y2="63.9688"/><ellipse cx="1137" cy="75.8711" fill="#84BE84" rx="3" ry="3" style="stroke: #038048; stroke-width: 1.0;"/><text fill="#000000" font-family="sans-serif" font-size="11" lengthAdjust="spacingAndGlyphs" textLength="75" x="1146" y="78.1792">DateAndTime</text><text fill="#000000" font-family="sans-serif" font-size="11" font-style="italic" lengthAdjust="spacingAndGlyphs" textLength="81" x="1225" y="78.1792">(ISODateTime)</text><ellipse cx="1137" cy="88.6758" fill="#84BE84" rx="3" ry="3" style="stroke: #038048; stroke-width: 1.0;"/><text fill="#000000" font-family="sans-serif" font-size="11" lengthAdjust="spacingAndGlyphs" textLength="63" x="1146" y="90.9839">DateStatus</text><text fill="#000000" font-family="sans-serif" font-size="11" font-style="italic" lengthAdjust="spacingAndGlyphs" textLength="142" x="1213" y="90.9839">(MeetingDateStatusCode)</text><ellipse cx="1137" cy="101.4805" fill="#84BE84" rx="3" ry="3" style="stroke: #038048; stroke-width: 1.0;"/><text fill="#000000" font-family="sans-serif" font-size="11" lengthAdjust="spacingAndGlyphs" textLength="72" x="1146" y="103.7886">Identification</text><text fill="#000000" font-family="sans-serif" font-size="11" font-style="italic" lengthAdjust="spacingAndGlyphs" textLength="70" x="1222" y="103.7886">(Max35Text)</text><ellipse cx="1137" cy="114.2852" fill="#84BE84" rx="3" ry="3" style="stroke: #038048; stroke-width: 1.0;"/><text fill="#000000" font-family="sans-serif" font-size="11" lengthAdjust="spacingAndGlyphs" textLength="113" x="1146" y="116.5933">AttendanceRequired</text><text fill="#000000" font-family="sans-serif" font-size="11" font-style="italic" lengthAdjust="spacingAndGlyphs" textLength="92" x="1263" y="116.5933">(YesNoIndicator)</text><ellipse cx="1137" cy="127.0898" fill="#84BE84" rx="3" ry="3" style="stroke: #038048; stroke-width: 1.0;"/><text fill="#000000" font-family="sans-serif" font-size="11" lengthAdjust="spacingAndGlyphs" textLength="136" x="1146" y="129.3979">AttendanceConfirmation</text><text fill="#000000" font-family="sans-serif" font-size="11" font-style="italic" lengthAdjust="spacingAndGlyphs" textLength="77" x="1286" y="129.3979">(Max350Text)</text><ellipse cx="1137" cy="139.8945" fill="#84BE84" rx="3" ry="3" style="stroke: #038048; stroke-width: 1.0;"/><text fill="#000000" font-family="sans-serif" font-size="11" lengthAdjust="spacingAndGlyphs" textLength="27" x="1146" y="142.2026">Type</text><text fill="#000000" font-family="sans-serif" font-size="11" font-style="italic" lengthAdjust="spacingAndGlyphs" textLength="109" x="1177" y="142.2026">(MeetingTypeCode)</text><ellipse cx="1137" cy="152.6992" fill="#84BE84" rx="3" ry="3" style="stroke: #038048; stroke-width: 1.0;"/><text fill="#000000" font-family="sans-serif" font-size="11" lengthAdjust="spacingAndGlyphs" textLength="151" x="1146" y="155.0073">MeetingEventClassification</text><text fill="#000000" font-family="sans-serif" font-size="11" font-style="italic" lengthAdjust="spacingAndGlyphs" textLength="183" x="1301" y="155.0073">(MeetingTypeClassificationCode)</text></a><!--class IssuerMeeting--><a target="_top" xlink:actuate="onRequest" xlink:href="../IssuerMeeting.html" xlink:show="new" xlink:title="Information about the meeting, specifying the participation requirements and the voting procedures." xlink:type="simple"><rect fill="#FEFEEE" filter="url(#f1l4lvdet51ho8)" height="23.9688" id="IssuerMeeting" style="stroke: #A80036; stroke-width: 1.5;" width="94" x="1396" y="242"/><rect fill="#FEFEEE" height="23.9688" style="stroke: #A80036; stroke-width: 1.5;" width="94" x="1396" y="242"/><text fill="#000000" font-family="sans-serif" font-size="12" lengthAdjust="spacingAndGlyphs" textLength="88" x="1399" y="258.1387">IssuerMeeting</text></a><!--class ContactPoint--><a target="_top" xlink:actuate="onRequest" xlink:href="../ContactPoint.html" xlink:show="new" xlink:title="Number, physical or virtual address, used for communication." xlink:type="simple"><rect fill="#EEEEEE" filter="url(#f1l4lvdet51ho8)" height="23.9688" id="ContactPoint" style="stroke: #A80036; stroke-width: 1.5;" width="87" x="59.75" y="242"/><rect fill="#EEEEEE" height="23.9688" style="stroke: #A80036; stroke-width: 1.5;" width="87" x="59.75" y="242"/><text fill="#000000" font-family="sans-serif" font-size="12" lengthAdjust="spacingAndGlyphs" textLength="81" x="62.75" y="258.1387">ContactPoint</text></a><!--class Deadline--><a target="_top" xlink:actuate="onRequest" xlink:href="../Deadline.html" xlink:show="new" xlink:title="Specifies the different deadlines available for the different processes related to corporate action processes." xlink:type="simple"><rect fill="#EEEEEE" filter="url(#f1l4lvdet51ho8)" height="23.9688" id="Deadline" style="stroke: #A80036; stroke-width: 1.5;" width="61" x="315.75" y="1474"/><rect fill="#EEEEEE" height="23.9688" style="stroke: #A80036; stroke-width: 1.5;" width="61" x="315.75" y="1474"/><text fill="#000000" font-family="sans-serif" font-size="12" lengthAdjust="spacingAndGlyphs" textLength="55" x="318.75" y="1490.1387">Deadline</text></a><!--class MeetingServicing--><a target="_top" xlink:actuate="onRequest" xlink:href="../MeetingServicing.html" xlink:show="new" xlink:title="Services which consists in notifying the investor or its agent of a meeting, in validating and relaying its instructions and in calculating its entitlement based on its holdings." xlink:type="simple"><rect fill="#EEEEEE" filter="url(#f1l4lvdet51ho8)" height="23.9688" id="MeetingServicing" style="stroke: #A80036; stroke-width: 1.5;" width="112" x="411.5" y="1388"/><rect fill="#EEEEEE" height="23.9688" style="stroke: #A80036; stroke-width: 1.5;" width="112" x="411.5" y="1388"/><text fill="#000000" font-family="sans-serif" font-size="12" lengthAdjust="spacingAndGlyphs" textLength="106" x="414.5" y="1404.1387">MeetingServicing</text></a><!--class ContactPersonRole--><a target="_top" xlink:actuate="onRequest" xlink:href="../ContactPersonRole.html" xlink:show="new" xlink:title="Person to be contacted in a given organisation. In the corporate action domain (including meeting notifications) , it is the contact person at the party organising the meeting, at the issuer or at an intermediary." xlink:type="simple"><rect fill="#EEEEEE" filter="url(#f1l4lvdet51ho8)" height="23.9688" id="ContactPersonRole" style="stroke: #A80036; stroke-width: 1.5;" width="126" x="404" y="1302"/><rect fill="#EEEEEE" height="23.9688" style="stroke: #A80036; stroke-width: 1.5;" width="126" x="404" y="1302"/><text fill="#000000" font-family="sans-serif" font-size="12" lengthAdjust="spacingAndGlyphs" textLength="120" x="407" y="1318.1387">ContactPersonRole</text></a><!--class MeetingPartyRole--><a target="_top" xlink:actuate="onRequest" xlink:href="../MeetingPartyRole.html" xlink:show="new" xlink:title="Role played by a party in the context of a meeting." xlink:type="simple"><rect fill="#EEEEEE" filter="url(#f1l4lvdet51ho8)" height="23.9688" id="MeetingPartyRole" style="stroke: #A80036; stroke-width: 1.5;" width="115" x="414.75" y="1200"/><rect fill="#EEEEEE" height="23.9688" style="stroke: #A80036; stroke-width: 1.5;" width="115" x="414.75" y="1200"/><text fill="#000000" font-family="sans-serif" font-size="12" lengthAdjust="spacingAndGlyphs" textLength="109" x="417.75" y="1216.1387">MeetingPartyRole</text></a><!--class MeetingStatus--><a target="_top" xlink:actuate="onRequest" xlink:href="../MeetingStatus.html" xlink:show="new" xlink:title="Status of the instructions related to a meeting." xlink:type="simple"><rect fill="#EEEEEE" filter="url(#f1l4lvdet51ho8)" height="23.9688" id="MeetingStatus" style="stroke: #A80036; stroke-width: 1.5;" width="97" x="423.75" y="1114"/><rect fill="#EEEEEE" height="23.9688" style="stroke: #A80036; stroke-width: 1.5;" width="97" x="423.75" y="1114"/><text fill="#000000" font-family="sans-serif" font-size="12" lengthAdjust="spacingAndGlyphs" textLength="91" x="426.75" y="1130.1387">MeetingStatus</text></a><!--class CorporateActionEvent--><a target="_top" xlink:actuate="onRequest" xlink:href="../CorporateActionEvent.html" xlink:show="new" xlink:title="An event determined by a corporation's board of directors, that changes the existing corporate capital structure or financial condition." xlink:type="simple"><rect fill="#EEEEEE" filter="url(#f1l4lvdet51ho8)" height="23.9688" id="CorporateActionEvent" style="stroke: #A80036; stroke-width: 1.5;" width="143" x="267.75" y="1028"/><rect fill="#EEEEEE" height="23.9688" style="stroke: #A80036; stroke-width: 1.5;" width="143" x="267.75" y="1028"/><text fill="#000000" font-family="sans-serif" font-size="12" lengthAdjust="spacingAndGlyphs" textLength="137" x="270.75" y="1044.1387">CorporateActionEvent</text></a><!--class Quorum--><a target="_top" xlink:actuate="onRequest" xlink:href="../Quorum.html" xlink:show="new" xlink:title="Specifies whether a quorum is required or not together with the quorum parameters." xlink:type="simple"><rect fill="#EEEEEE" filter="url(#f1l4lvdet51ho8)" height="23.9688" id="Quorum" style="stroke: #A80036; stroke-width: 1.5;" width="55" x="247.75" y="942"/><rect fill="#EEEEEE" height="23.9688" style="stroke: #A80036; stroke-width: 1.5;" width="55" x="247.75" y="942"/><text fill="#000000" font-family="sans-serif" font-size="12" lengthAdjust="spacingAndGlyphs" textLength="49" x="250.75" y="958.1387">Quorum</text></a><!--class VotingCondition--><a target="_top" xlink:actuate="onRequest" xlink:href="../VotingCondition.html" xlink:show="new" xlink:title="Specifies the different voting types, channels and premium." xlink:type="simple"><rect fill="#EEEEEE" filter="url(#f1l4lvdet51ho8)" height="23.9688" id="VotingCondition" style="stroke: #A80036; stroke-width: 1.5;" width="105" x="195.75" y="856"/><rect fill="#EEEEEE" height="23.9688" style="stroke: #A80036; stroke-width: 1.5;" width="105" x="195.75" y="856"/><text fill="#000000" font-family="sans-serif" font-size="12" lengthAdjust="spacingAndGlyphs" textLength="99" x="198.75" y="872.1387">VotingCondition</text></a><!--class IncentivePremium--><a target="_top" xlink:actuate="onRequest" xlink:href="../IncentivePremium.html" xlink:show="new" xlink:title="Cash premium made available if the securities holder consents or participates to an event." xlink:type="simple"><rect fill="#EEEEEE" filter="url(#f1l4lvdet51ho8)" height="23.9688" id="IncentivePremium" style="stroke: #A80036; stroke-width: 1.5;" width="116" x="187.5" y="754"/><rect fill="#EEEEEE" height="23.9688" style="stroke: #A80036; stroke-width: 1.5;" width="116" x="187.5" y="754"/><text fill="#000000" font-family="sans-serif" font-size="12" lengthAdjust="spacingAndGlyphs" textLength="110" x="190.5" y="770.1387">IncentivePremium</text></a><!--class MeetingParticipation--><a target="_top" xlink:actuate="onRequest" xlink:href="../MeetingParticipation.html" xlink:show="new" xlink:title="Specifies the number of voting rights and of outstanding securities." xlink:type="simple"><rect fill="#EEEEEE" filter="url(#f1l4lvdet51ho8)" height="23.9688" id="MeetingParticipation" style="stroke: #A80036; stroke-width: 1.5;" width="135" x="133.75" y="652"/><rect fill="#EEEEEE" height="23.9688" style="stroke: #A80036; stroke-width: 1.5;" width="135" x="133.75" y="652"/><text fill="#000000" font-family="sans-serif" font-size="12" lengthAdjust="spacingAndGlyphs" textLength="129" x="136.75" y="668.1387">MeetingParticipation</text></a><!--class ResolutionProposal--><a target="_top" xlink:actuate="onRequest" xlink:href="../ResolutionProposal.html" xlink:show="new" xlink:title="Conditions that must be met to propose a resolution." xlink:type="simple"><rect fill="#EEEEEE" filter="url(#f1l4lvdet51ho8)" height="23.9688" id="ResolutionProposal" style="stroke: #A80036; stroke-width: 1.5;" width="127" x="389.75" y="550"/><rect fill="#EEEEEE" height="23.9688" style="stroke: #A80036; stroke-width: 1.5;" width="127" x="389.75" y="550"/><text fill="#000000" font-family="sans-serif" font-size="12" lengthAdjust="spacingAndGlyphs" textLength="121" x="392.75" y="566.1387">ResolutionProposal</text></a><!--class Resolution--><a target="_top" xlink:actuate="onRequest" xlink:href="../Resolution.html" xlink:show="new" xlink:title="Specifies an item in the agenda of the meeting. Some resolutions are submitted to the vote of the security holders, some are presented for information only." xlink:type="simple"><rect fill="#EEEEEE" filter="url(#f1l4lvdet51ho8)" height="23.9688" id="Resolution" style="stroke: #A80036; stroke-width: 1.5;" width="72" x="417" y="448"/><rect fill="#EEEEEE" height="23.9688" style="stroke: #A80036; stroke-width: 1.5;" width="72" x="417" y="448"/><text fill="#000000" font-family="sans-serif" font-size="12" lengthAdjust="spacingAndGlyphs" textLength="66" x="420" y="464.1387">Resolution</text></a><!--class ProxyAppointmentCondition--><a target="_top" xlink:actuate="onRequest" xlink:href="../ProxyAppointmentCondition.html" xlink:show="new" xlink:title="Conditions that must be met to appoint a proxy." xlink:type="simple"><rect fill="#EEEEEE" filter="url(#f1l4lvdet51ho8)" height="23.9688" id="ProxyAppointmentCondition" style="stroke: #A80036; stroke-width: 1.5;" width="178" x="283.5" y="346"/><rect fill="#EEEEEE" height="23.9688" style="stroke: #A80036; stroke-width: 1.5;" width="178" x="283.5" y="346"/><text fill="#000000" font-family="sans-serif" font-size="12" lengthAdjust="spacingAndGlyphs" textLength="172" x="286.5" y="362.1387">ProxyAppointmentCondition</text></a><!--class AdditionalRight--><a target="_top" xlink:actuate="onRequest" xlink:href="../AdditionalRight.html" xlink:show="new" xlink:title="Specifies how the additional rights can be granted to the shareholder. These rights can be exercised at shareholders meetings (for example, the right to ask questions, the right to add items to the agenda or table draft resolutions)." xlink:type="simple"><rect fill="#EEEEEE" filter="url(#f1l4lvdet51ho8)" height="23.9688" id="AdditionalRight" style="stroke: #A80036; stroke-width: 1.5;" width="100" x="293" y="242"/><rect fill="#EEEEEE" height="23.9688" style="stroke: #A80036; stroke-width: 1.5;" width="100" x="293" y="242"/><text fill="#000000" font-family="sans-serif" font-size="12" lengthAdjust="spacingAndGlyphs" textLength="94" x="296" y="258.1387">AdditionalRight</text></a><!--class PowerOfAttorneyRequirements--><a target="_top" xlink:actuate="onRequest" xlink:href="../PowerOfAttorneyRequirements.html" xlink:show="new" xlink:title="Specifies the conditions to be filled in to obtain a valid power of attorney." xlink:type="simple"><rect fill="#EEEEEE" filter="url(#f1l4lvdet51ho8)" height="23.9688" id="PowerOfAttorneyRequirements" style="stroke: #A80036; stroke-width: 1.5;" width="197" x="59.75" y="89"/><rect fill="#EEEEEE" height="23.9688" style="stroke: #A80036; stroke-width: 1.5;" width="197" x="59.75" y="89"/><text fill="#000000" font-family="sans-serif" font-size="12" lengthAdjust="spacingAndGlyphs" textLength="191" x="62.75" y="105.1387">PowerOfAttorneyRequirements</text></a><!--link Meeting to IssuerMeeting--><path d="M1375.33,177.3 C1397.89,202.55 1420.49,227.82 1433.02,241.83 " fill="none" id="Meeting-IssuerMeeting" style="stroke: #A80036; stroke-width: 1.0;"/><polygon fill="none" points="1369.86,181.69,1361.74,162.11,1380.29,172.36,1369.86,181.69" style="stroke: #A80036; stroke-width: 1.0;"/><!--link Deadline to ContactPoint--><!--link MeetingServicing to Deadline--><!--link ContactPersonRole to MeetingServicing--><!--link MeetingPartyRole to ContactPersonRole--><!--link MeetingStatus to MeetingPartyRole--><!--link CorporateActionEvent to MeetingStatus--><!--link Quorum to CorporateActionEvent--><!--link VotingCondition to Quorum--><!--link IncentivePremium to VotingCondition--><!--link MeetingParticipation to IncentivePremium--><!--link ResolutionProposal to MeetingParticipation--><!--link Resolution to ResolutionProposal--><!--link ProxyAppointmentCondition to Resolution--><!--link AdditionalRight to ProxyAppointmentCondition--><!--link PowerOfAttorneyRequirements to AdditionalRight--><!--link Meeting to ContactPoint--><path d="M1125.97,116.05 C820.934,139.72 237.513,185.61 216,192 C180.937,202.41 144.405,224.53 122.688,239.08 " fill="none" id="Meeting-ContactPoint" style="stroke: #A80036; stroke-width: 1.0;"/><polygon fill="#A80036" points="118.547,241.88,128.2431,240.1521,122.6889,239.0792,123.7618,233.525,118.547,241.88" style="stroke: #A80036; stroke-width: 1.0;"/><text fill="#000000" font-family="sans-serif" font-size="13" lengthAdjust="spacingAndGlyphs" textLength="105" x="217" y="205.0669">MeetingLocation</text><text fill="#000000" font-family="sans-serif" font-size="13" lengthAdjust="spacingAndGlyphs" textLength="23" x="95.5078" y="230.887">1..*</text><!--link Meeting to Deadline--><path d="M1487.31,162.15 C1519.47,184.18 1543,213.72 1543,253 C1543,253 1543,253 1543,1401 C1543,1460.7861 580.242,1480.8979 381.592,1484.4113 " fill="none" id="Meeting-Deadline" style="stroke: #A80036; stroke-width: 1.0;"/><polygon fill="#A80036" points="376.489,1484.5009,385.5584,1488.3408,381.4882,1484.4123,385.4167,1480.3421,376.489,1484.5009" style="stroke: #A80036; stroke-width: 1.0;"/><text fill="#000000" font-family="sans-serif" font-size="13" lengthAdjust="spacingAndGlyphs" textLength="56" x="1544" y="872.0669">Deadline</text><text fill="#000000" font-family="sans-serif" font-size="13" lengthAdjust="spacingAndGlyphs" textLength="7" x="384.7129" y="1478.1505">*</text><!--link Meeting to MeetingServicing--><path d="M1328.56,162.25 C1336.18,189.61 1343,222.59 1343,253 C1343,253 1343,253 1343,410 C1343,590.904 1372,635.096 1372,816 C1372,816 1372,816 1372,1315 C1372,1357.52 730.277,1387.993 527.586,1396.558 " fill="none" id="Meeting-MeetingServicing" style="stroke: #A80036; stroke-width: 1.0;"/><polygon fill="#A80036" points="522.589,1396.768,531.7491,1400.3864,527.5846,1396.5579,531.413,1392.3934,522.589,1396.768" style="stroke: #A80036; stroke-width: 1.0;"/><text fill="#000000" font-family="sans-serif" font-size="13" lengthAdjust="spacingAndGlyphs" textLength="109" x="1373" y="821.0669">MeetingServicing</text><text fill="#000000" font-family="sans-serif" font-size="13" lengthAdjust="spacingAndGlyphs" textLength="24" x="531.6041" y="1391.2694">0..1</text><!--link Meeting to ContactPersonRole--><path d="M1286.85,162.2 C1279.01,189.56 1272,222.55 1272,253 C1272,253 1272,253 1272,1213 C1272,1286.984 729.6,1306.888 535.254,1311.645 " fill="none" id="Meeting-ContactPersonRole" style="stroke: #A80036; stroke-width: 1.0;"/><polygon fill="#A80036" points="530.167,1311.768,539.2615,1315.5483,535.1655,1311.6466,539.0672,1307.5506,530.167,1311.768" style="stroke: #A80036; stroke-width: 1.0;"/><text fill="#000000" font-family="sans-serif" font-size="13" lengthAdjust="spacingAndGlyphs" textLength="44" x="1273" y="770.0669">Person</text><text fill="#000000" font-family="sans-serif" font-size="13" lengthAdjust="spacingAndGlyphs" textLength="7" x="537.8754" y="1306.6035">*</text><!--link Meeting to MeetingPartyRole--><path d="M1240.54,162.06 C1219.17,187.5 1201,219.1 1201,253 C1201,253 1201,253 1201,614 C1201,655.664 1187.02,664.53 1183,706 C1182.23,713.963 1182.96,716 1183,724 C1183.22,764.891 1184,775.109 1184,816 C1184,816 1184,816 1184,1127 C1184,1192.131 708.026,1206.912 534.41,1210.136 " fill="none" id="Meeting-MeetingPartyRole" style="stroke: #A80036; stroke-width: 1.0;"/><polygon fill="#A80036" points="529.362,1210.228,538.4336,1214.0628,534.3612,1210.1366,538.2874,1206.0641,529.362,1210.228" style="stroke: #A80036; stroke-width: 1.0;"/><text fill="#000000" font-family="sans-serif" font-size="13" lengthAdjust="spacingAndGlyphs" textLength="60" x="1184" y="719.0669">PartyRole</text><text fill="#000000" font-family="sans-serif" font-size="13" lengthAdjust="spacingAndGlyphs" textLength="7" x="537.8856" y="1204.8619">*</text><!--link Meeting to MeetingStatus--><path d="M1182.92,162.23 C1153.24,185.4 1130,215.51 1130,253 C1130,253 1130,253 1130,563 C1130,631.176 1103,645.824 1103,714 C1103,714 1103,714 1103,1041 C1103,1099.023 678.353,1118.378 525.777,1123.459 " fill="none" id="Meeting-MeetingStatus" style="stroke: #A80036; stroke-width: 1.0;"/><polygon fill="#A80036" points="520.466,1123.634,529.5936,1127.3335,525.4633,1123.4683,529.3285,1119.3379,520.466,1123.634" style="stroke: #A80036; stroke-width: 1.0;"/><text fill="#000000" font-family="sans-serif" font-size="13" lengthAdjust="spacingAndGlyphs" textLength="42" x="1112" y="668.0669">Status</text><text fill="#000000" font-family="sans-serif" font-size="13" lengthAdjust="spacingAndGlyphs" textLength="7" x="528.7082" y="1117.9822">*</text><!--link Meeting to CorporateActionEvent--><path d="M1125.73,155.03 C1087.76,177.49 1059,209.02 1059,253 C1059,253 1059,253 1059,512 C1059,541.239 1053.71,550.01 1037,574 C1025.09,591.089 1009.83,585.139 1001,604 C997.607,611.245 1000.708,614.005 1001,622 C1001.667,640.259 1004,644.729 1004,663 C1004,663 1004,663 1004,955 C1004,1013.733 590.433,1032.071 415.585,1037.2 " fill="none" id="Meeting-CorporateActionEvent" style="stroke: #A80036; stroke-width: 1.0;"/><polygon fill="#A80036" points="410.482,1037.348,419.5947,1041.0841,415.4799,1037.2023,419.3616,1033.0874,410.482,1037.348" style="stroke: #A80036; stroke-width: 1.0;"/><text fill="#000000" font-family="sans-serif" font-size="13" lengthAdjust="spacingAndGlyphs" textLength="100" x="1002" y="617.0669">CorporateEvent</text><text fill="#000000" font-family="sans-serif" font-size="13" lengthAdjust="spacingAndGlyphs" textLength="24" x="418.6752" y="1032.3252">0..1</text><!--link Meeting to Quorum--><path d="M1125.57,124.15 C1053.7,144.06 988,181.74 988,253 C988,253 988,253 988,461 C988,576.071 933,598.929 933,714 C933,714 933,714 933,869 C933,932.752 440.709,949.063 307.755,952.306 " fill="none" id="Meeting-Quorum" style="stroke: #A80036; stroke-width: 1.0;"/><polygon fill="#A80036" points="302.436,952.433,311.5294,956.2158,307.4346,952.313,311.3374,948.2182,302.436,952.433" style="stroke: #A80036; stroke-width: 1.0;"/><text fill="#000000" font-family="sans-serif" font-size="13" lengthAdjust="spacingAndGlyphs" textLength="52" x="975" y="566.0669">Quorum</text><text fill="#000000" font-family="sans-serif" font-size="13" lengthAdjust="spacingAndGlyphs" textLength="7" x="310.6829" y="945.8164">*</text><!--link Meeting to VotingCondition--><path d="M1125.74,125.23 C1069.81,138.49 1010.32,159.31 962,192 C934.097,210.88 917,219.31 917,253 C917,253 917,253 917,410 C917,439.88 908.241,447.59 891,472 C879.563,488.19 866.019,483.87 858,502 C854.764,509.32 857.708,512.01 858,520 C858.667,538.259 861,542.729 861,561 C861,561 861,561 861,767 C861,822.948 458.116,853.905 305.583,863.621 " fill="none" id="Meeting-VotingCondition" style="stroke: #A80036; stroke-width: 1.0;"/><polygon fill="#A80036" points="300.264,863.958,309.4996,867.3791,305.2539,863.6409,308.9922,859.3952,300.264,863.958" style="stroke: #A80036; stroke-width: 1.0;"/><text fill="#000000" font-family="sans-serif" font-size="13" lengthAdjust="spacingAndGlyphs" textLength="101" x="859" y="515.0669">VotingCondition</text><text fill="#000000" font-family="sans-serif" font-size="13" lengthAdjust="spacingAndGlyphs" textLength="7" x="308.7646" y="858.117">*</text><!--link Meeting to IncentivePremium--><path d="M1125.86,123.87 C1030.74,138.63 926.824,161.1 891,192 C826.989,247.21 862.248,294.62 824,370 C791.771,433.52 746,438.77 746,510 C746,510 746,510 746,665 C746,753.335 442.69,764.747 308.069,765.462 " fill="none" id="Meeting-IncentivePremium" style="stroke: #A80036; stroke-width: 1.0;"/><polygon fill="#A80036" points="302.96,765.485,311.9771,769.4464,307.96,765.4636,311.9428,761.4465,302.96,765.485" style="stroke: #A80036; stroke-width: 1.0;"/><text fill="#000000" font-family="sans-serif" font-size="13" lengthAdjust="spacingAndGlyphs" textLength="115" x="766" y="464.0669">IncentivePremium</text><text fill="#000000" font-family="sans-serif" font-size="13" lengthAdjust="spacingAndGlyphs" textLength="24" x="311.4254" y="760.4632">0..1</text><!--link Meeting to MeetingParticipation--><path d="M1125.78,116.36 C803.366,141.77 166,192 166,192 C80.8663,211.39 6,218.69 6,306 C6,306 6,306 6,563 C6,620.152 73.1412,644.663 128.629,655.162 " fill="none" id="Meeting-MeetingParticipation" style="stroke: #A80036; stroke-width: 1.0;"/><polygon fill="#A80036" points="133.619,656.075,125.486,650.5204,128.7007,655.175,124.046,658.3897,133.619,656.075" style="stroke: #A80036; stroke-width: 1.0;"/><text fill="#000000" font-family="sans-serif" font-size="13" lengthAdjust="spacingAndGlyphs" textLength="79" x="7" y="413.0669">Participation</text><text fill="#000000" font-family="sans-serif" font-size="13" lengthAdjust="spacingAndGlyphs" textLength="7" x="118.744" y="650.5842">*</text><!--link Meeting to ResolutionProposal--><path d="M1125.83,108.87 C1030.05,118.9 913.471,141.63 820,192 C766.871,220.63 773.496,252.76 726,290 C686.824,320.71 666.939,313.77 629,346 C554.105,409.62 486.956,508.14 462.652,545.722 " fill="none" id="Meeting-ResolutionProposal" style="stroke: #A80036; stroke-width: 1.0;"/><polygon fill="#A80036" points="459.903,549.997,468.1351,544.5903,462.6072,545.7914,461.4061,540.2635,459.903,549.997" style="stroke: #A80036; stroke-width: 1.0;"/><text fill="#000000" font-family="sans-serif" font-size="13" lengthAdjust="spacingAndGlyphs" textLength="188" x="630" y="362.0669">ResolutionProposalConditions</text><text fill="#000000" font-family="sans-serif" font-size="13" lengthAdjust="spacingAndGlyphs" textLength="7" x="452.6431" y="539.0442">*</text><!--link Meeting to Resolution--><path d="M1125.92,115.77 C987.359,129.08 810.37,153.06 749,192 C704.449,220.27 727.513,263.31 682,290 C647.741,310.09 628.366,279.93 593,298 C527.607,331.41 479.536,409.63 461.176,443.22 " fill="none" id="Meeting-Resolution" style="stroke: #A80036; stroke-width: 1.0;"/><polygon fill="#A80036" points="458.684,447.84,466.4751,441.8152,461.0562,443.4386,459.4328,438.0196,458.684,447.84" style="stroke: #A80036; stroke-width: 1.0;"/><text fill="#000000" font-family="sans-serif" font-size="13" lengthAdjust="spacingAndGlyphs" textLength="78" x="594" y="311.0669">AgendaItem</text><text fill="#000000" font-family="sans-serif" font-size="13" lengthAdjust="spacingAndGlyphs" textLength="7" x="451.091" y="436.8332">*</text><!--link Meeting to ProxyAppointmentCondition--><path d="M1125.79,114.12 C916.503,131.19 589.198,168.57 490,240 C457.385,263.48 469.933,288.11 441,316 C429.475,327.11 414.397,336.51 401.277,343.49 " fill="none" id="Meeting-ProxyAppointmentCondition" style="stroke: #A80036; stroke-width: 1.0;"/><polygon fill="#A80036" points="396.541,345.95,406.3717,345.3522,400.9784,343.6457,402.6848,338.2524,396.541,345.95" style="stroke: #A80036; stroke-width: 1.0;"/><text fill="#000000" font-family="sans-serif" font-size="13" lengthAdjust="spacingAndGlyphs" textLength="185" x="491" y="258.0669">ProxyAppointmentConditions</text><text fill="#000000" font-family="sans-serif" font-size="13" lengthAdjust="spacingAndGlyphs" textLength="7" x="395.2582" y="334.981">*</text><!--link Meeting to AdditionalRight--><path d="M1125.97,115.81 C848.968,137.26 352.115,177.61 339,192 C328.048,204.02 331.636,223.49 336.284,237.2 " fill="none" id="Meeting-AdditionalRight" style="stroke: #A80036; stroke-width: 1.0;"/><polygon fill="#A80036" points="338.019,241.96,338.6919,232.1342,336.3052,237.2629,331.1765,234.8762,338.019,241.96" style="stroke: #A80036; stroke-width: 1.0;"/><text fill="#000000" font-family="sans-serif" font-size="13" lengthAdjust="spacingAndGlyphs" textLength="95" x="340" y="205.0669">AdditionalRight</text><text fill="#000000" font-family="sans-serif" font-size="13" lengthAdjust="spacingAndGlyphs" textLength="7" x="326.7599" y="230.9945">*</text><!--link Meeting to PowerOfAttorneyRequirements--><path d="M1125.99,101 C882.022,101 457.078,101 261.689,101 " fill="none" id="Meeting-PowerOfAttorneyRequirements" style="stroke: #A80036; stroke-width: 1.0;"/><polygon fill="#A80036" points="256.545,101,265.545,105,261.545,101,265.545,97,256.545,101" style="stroke: #A80036; stroke-width: 1.0;"/><text fill="#000000" font-family="sans-serif" font-size="13" lengthAdjust="spacingAndGlyphs" textLength="196" x="592.5" y="93.0669">PowerOfAttorneyRequirements</text><text fill="#000000" font-family="sans-serif" font-size="13" lengthAdjust="spacingAndGlyphs" textLength="8" x="264.6966" y="96.3961">1</text><!--link ContactPoint to CorporateActionEvent--><path d="M114.066,266.28 C160.724,315.09 339,514.63 339,714 C339,714 339,714 339,955 C339,978.453 339,1005.589 339,1022.526 " fill="none" id="ContactPoint-CorporateActionEvent" style="stroke: #A80036; stroke-width: 1.0;"/><polygon fill="#A80036" points="339,1027.858,343,1018.858,339,1022.858,335,1018.858,339,1027.858" style="stroke: #A80036; stroke-width: 1.0;"/><text fill="#000000" font-family="sans-serif" font-size="13" lengthAdjust="spacingAndGlyphs" textLength="188" x="338" y="668.0669">RelatedCorporateActionEvent</text><text fill="#000000" font-family="sans-serif" font-size="13" lengthAdjust="spacingAndGlyphs" textLength="24" x="309.4453" y="1016.8574">0..1</text><!--link ContactPoint to ProxyAppointmentCondition--><path d="M139.412,266 C164.008,273.87 196.978,285.3 225,298 C239.862,304.74 242.15,309.24 257,316 C281.03,326.95 308.906,336.95 331.194,344.33 " fill="none" id="ContactPoint-ProxyAppointmentCondition" style="stroke: #A80036; stroke-width: 1.0;"/><polygon fill="#A80036" points="336.151,345.96,328.855,339.3443,331.4022,344.3952,326.3513,346.9424,336.151,345.96" style="stroke: #A80036; stroke-width: 1.0;"/><text fill="#000000" font-family="sans-serif" font-size="13" lengthAdjust="spacingAndGlyphs" textLength="166" x="258" y="311.0669">RelatedProxyAppointment</text><text fill="#000000" font-family="sans-serif" font-size="13" lengthAdjust="spacingAndGlyphs" textLength="24" x="294.1873" y="334.9945">0..1</text><!--link ContactPoint to VotingCondition--><path d="M108.136,266.05 C116.219,284.48 131,322.84 131,357 C131,357 131,357 131,512 C131,585.193 98.6299,604.898 116,676 C134.493,751.698 200.33,821.988 231.461,851.871 " fill="none" id="ContactPoint-VotingCondition" style="stroke: #A80036; stroke-width: 1.0;"/><polygon fill="#A80036" points="235.437,855.648,231.6668,846.5493,231.8119,852.2043,226.1569,852.3494,235.437,855.648" style="stroke: #A80036; stroke-width: 1.0;"/><text fill="#000000" font-family="sans-serif" font-size="13" lengthAdjust="spacingAndGlyphs" textLength="132" x="129" y="566.0669">ContactPointForVote</text><text fill="#000000" font-family="sans-serif" font-size="13" lengthAdjust="spacingAndGlyphs" textLength="24" x="201.8864" y="844.8348">0..1</text><!--link ContactPoint to ContactPoint--><path d="M146.314,244.37 C165.001,243.58 181,246.79 181,254 C181,260.53 167.86,263.78 151.488,263.75 " fill="none" id="ContactPoint-ContactPoint" style="stroke: #A80036; stroke-width: 1.0;"/><polygon fill="#A80036" points="146.314,263.63,155.2214,267.8321,151.3127,263.7428,155.402,259.8341,146.314,263.63" style="stroke: #A80036; stroke-width: 1.0;"/><text fill="#000000" font-family="sans-serif" font-size="13" lengthAdjust="spacingAndGlyphs" textLength="80" x="187" y="258.0669">MainContact</text><text fill="#000000" font-family="sans-serif" font-size="13" lengthAdjust="spacingAndGlyphs" textLength="8" x="154.6973" y="259.9128">1</text><!--link Deadline to CorporateActionEvent--><path d="M336.259,1473.9247 C323.852,1458.6383 304,1429.696 304,1401 C304,1125 304,1125 304,1125 C304,1099.44 317.979,1072.637 328.268,1056.371 " fill="none" id="Deadline-CorporateActionEvent" style="stroke: #A80036; stroke-width: 1.0;"/><polygon fill="#A80036" points="331.058,1052.072,322.8037,1057.4448,328.3365,1056.2664,329.5148,1061.7992,331.058,1052.072" style="stroke: #A80036; stroke-width: 1.0;"/><text fill="#000000" font-family="sans-serif" font-size="13" lengthAdjust="spacingAndGlyphs" textLength="188" x="305" y="1267.0669">RelatedCorporateActionEvent</text><text fill="#000000" font-family="sans-serif" font-size="13" lengthAdjust="spacingAndGlyphs" textLength="24" x="297.3163" y="1072.2462">0..1</text></g></svg>