<?xml version="1.0" encoding="UTF-8" standalone="no"?><svg xmlns="http://www.w3.org/2000/svg" xmlns:xlink="http://www.w3.org/1999/xlink" contentScriptType="application/ecmascript" contentStyleType="text/css" height="1048px" preserveAspectRatio="none" style="width:2406px;height:1048px;" version="1.1" viewBox="0 0 2406 1048" width="2406px" zoomAndPan="magnify"><defs><filter height="300%" id="f4ud3wp42i6rw" width="300%" x="-1" y="-1"><feGaussianBlur result="blurOut" stdDeviation="2.0"/><feColorMatrix in="blurOut" result="blurOut2" type="matrix" values="0 0 0 0 0 0 0 0 0 0 0 0 0 0 0 0 0 0 .4 0"/><feOffset dx="4.0" dy="4.0" in="blurOut2" result="blurOut3"/><feBlend in="SourceGraphic" in2="blurOut3" mode="normal"/></filter></defs><g><!--cluster ##16447--><!--cluster ##16459--><!--cluster ##16464--><!--cluster ##16477--><!--class RolePlayer--><a target="_top" xlink:actuate="onRequest" xlink:href="../RolePlayer.html" xlink:show="new" xlink:title="Type of entity that plays a specific role in a specific context." xlink:type="simple"><rect fill="#FEFEEE" filter="url(#f4ud3wp42i6rw)" height="23.9688" id="RolePlayer" style="stroke: #A80036; stroke-width: 1.5;" width="71" x="1654.75" y="40"/><rect fill="#FEFEEE" height="23.9688" style="stroke: #A80036; stroke-width: 1.5;" width="71" x="1654.75" y="40"/><text fill="#000000" font-family="sans-serif" font-size="12" lengthAdjust="spacingAndGlyphs" textLength="65" x="1657.75" y="56.1387">RolePlayer</text></a><!--class Party--><a target="_top" xlink:actuate="onRequest" xlink:href="../Party.html" xlink:show="new" xlink:title="Entity involved in an activity." xlink:type="simple"><rect fill="#FEFEEE" filter="url(#f4ud3wp42i6rw)" height="44.7734" id="Party" style="stroke: #A80036; stroke-width: 1.5;" width="334" x="1340.5" y="142.5"/><rect fill="#FEFEEE" height="23.9688" style="stroke: #A80036; stroke-width: 1.5;" width="334" x="1340.5" y="142.5"/><text fill="#000000" font-family="sans-serif" font-size="12" lengthAdjust="spacingAndGlyphs" textLength="32" x="1491.5" y="158.6387">Party</text><line style="stroke: #A80036; stroke-width: 1.5;" x1="1341.5" x2="1673.5" y1="166.4688" y2="166.4688"/><ellipse cx="1351.5" cy="178.3711" fill="#84BE84" rx="3" ry="3" style="stroke: #038048; stroke-width: 1.0;"/><text fill="#000000" font-family="sans-serif" font-size="11" lengthAdjust="spacingAndGlyphs" textLength="133" x="1360.5" y="180.6792">MoneyLaunderingCheck</text><text fill="#000000" font-family="sans-serif" font-size="11" font-style="italic" lengthAdjust="spacingAndGlyphs" textLength="171" x="1497.5" y="180.6792">(MoneyLaunderingCheckCode)</text></a><!--class Organisation--><a target="_top" xlink:actuate="onRequest" xlink:href="../Organisation.html" xlink:show="new" xlink:title="Organised structure that is set up for a particular purpose. For example, a business, government body, department, charity, or financial institution." xlink:type="simple"><rect fill="#FEFEEE" filter="url(#f4ud3wp42i6rw)" height="95.9922" id="Organisation" style="stroke: #A80036; stroke-width: 1.5;" width="232" x="1340.5" y="266"/><rect fill="#FEFEEE" height="23.9688" style="stroke: #A80036; stroke-width: 1.5;" width="232" x="1340.5" y="266"/><text fill="#000000" font-family="sans-serif" font-size="12" lengthAdjust="spacingAndGlyphs" textLength="80" x="1416.5" y="282.1387">Organisation</text><line style="stroke: #A80036; stroke-width: 1.5;" x1="1341.5" x2="1571.5" y1="289.9688" y2="289.9688"/><ellipse cx="1351.5" cy="301.8711" fill="#84BE84" rx="3" ry="3" style="stroke: #038048; stroke-width: 1.0;"/><text fill="#000000" font-family="sans-serif" font-size="11" lengthAdjust="spacingAndGlyphs" textLength="47" x="1360.5" y="304.1792">Purpose</text><text fill="#000000" font-family="sans-serif" font-size="11" font-style="italic" lengthAdjust="spacingAndGlyphs" textLength="70" x="1411.5" y="304.1792">(Max35Text)</text><ellipse cx="1351.5" cy="314.6758" fill="#84BE84" rx="3" ry="3" style="stroke: #038048; stroke-width: 1.0;"/><text fill="#000000" font-family="sans-serif" font-size="11" lengthAdjust="spacingAndGlyphs" textLength="94" x="1360.5" y="316.9839">RegistrationDate</text><text fill="#000000" font-family="sans-serif" font-size="11" font-style="italic" lengthAdjust="spacingAndGlyphs" textLength="81" x="1458.5" y="316.9839">(ISODateTime)</text><ellipse cx="1351.5" cy="327.4805" fill="#84BE84" rx="3" ry="3" style="stroke: #038048; stroke-width: 1.0;"/><text fill="#000000" font-family="sans-serif" font-size="11" lengthAdjust="spacingAndGlyphs" textLength="64" x="1360.5" y="329.7886">Description</text><text fill="#000000" font-family="sans-serif" font-size="11" font-style="italic" lengthAdjust="spacingAndGlyphs" textLength="77" x="1428.5" y="329.7886">(Max350Text)</text><ellipse cx="1351.5" cy="340.2852" fill="#84BE84" rx="3" ry="3" style="stroke: #038048; stroke-width: 1.0;"/><text fill="#000000" font-family="sans-serif" font-size="11" lengthAdjust="spacingAndGlyphs" textLength="83" x="1360.5" y="342.5933">LegalStructure</text><text fill="#000000" font-family="sans-serif" font-size="11" font-style="italic" lengthAdjust="spacingAndGlyphs" textLength="119" x="1447.5" y="342.5933">(LegalStructureCode)</text><ellipse cx="1351.5" cy="353.0898" fill="#84BE84" rx="3" ry="3" style="stroke: #038048; stroke-width: 1.0;"/><text fill="#000000" font-family="sans-serif" font-size="11" lengthAdjust="spacingAndGlyphs" textLength="107" x="1360.5" y="355.3979">EstablishmentDate</text><text fill="#000000" font-family="sans-serif" font-size="11" font-style="italic" lengthAdjust="spacingAndGlyphs" textLength="53" x="1471.5" y="355.3979">(ISODate)</text></a><!--class NonFinancialInstitution--><a target="_top" xlink:actuate="onRequest" xlink:href="../NonFinancialInstitution.html" xlink:show="new" xlink:title="An organisation primarily established to offer and perform services other than financial services." xlink:type="simple"><rect fill="#FEFECE" filter="url(#f4ud3wp42i6rw)" height="23.9688" id="NonFinancialInstitution" style="stroke: #A80036; stroke-width: 1.5;" width="149" x="1555.75" y="442"/><rect fill="#FEFECE" height="23.9688" style="stroke: #A80036; stroke-width: 1.5;" width="149" x="1555.75" y="442"/><text fill="#000000" font-family="sans-serif" font-size="12" lengthAdjust="spacingAndGlyphs" textLength="143" x="1558.75" y="458.1387">NonFinancialInstitution</text></a><!--class Role--><a target="_top" xlink:actuate="onRequest" xlink:href="../Role.html" xlink:show="new" xlink:title="Role of a party in an activity." xlink:type="simple"><rect fill="#EEEEEE" filter="url(#f4ud3wp42i6rw)" height="23.9688" id="Role" style="stroke: #A80036; stroke-width: 1.5;" width="33" x="1845.75" y="302"/><rect fill="#EEEEEE" height="23.9688" style="stroke: #A80036; stroke-width: 1.5;" width="33" x="1845.75" y="302"/><text fill="#000000" font-family="sans-serif" font-size="12" lengthAdjust="spacingAndGlyphs" textLength="27" x="1848.75" y="318.1387">Role</text></a><!--class DateTimePeriod--><a target="_top" xlink:actuate="onRequest" xlink:href="../DateTimePeriod.html" xlink:show="new" xlink:title="Time span defined by a start date and time, and an end date and time." xlink:type="simple"><rect fill="#EEEEEE" filter="url(#f4ud3wp42i6rw)" height="23.9688" id="DateTimePeriod" style="stroke: #A80036; stroke-width: 1.5;" width="105" x="1782.75" y="153"/><rect fill="#EEEEEE" height="23.9688" style="stroke: #A80036; stroke-width: 1.5;" width="105" x="1782.75" y="153"/><text fill="#000000" font-family="sans-serif" font-size="12" lengthAdjust="spacingAndGlyphs" textLength="99" x="1785.75" y="169.1387">DateTimePeriod</text></a><!--class ContactPoint--><a target="_top" xlink:actuate="onRequest" xlink:href="../ContactPoint.html" xlink:show="new" xlink:title="Number, physical or virtual address, used for communication." xlink:type="simple"><rect fill="#EEEEEE" filter="url(#f4ud3wp42i6rw)" height="23.9688" id="ContactPoint" style="stroke: #A80036; stroke-width: 1.5;" width="87" x="462.75" y="838"/><rect fill="#EEEEEE" height="23.9688" style="stroke: #A80036; stroke-width: 1.5;" width="87" x="462.75" y="838"/><text fill="#000000" font-family="sans-serif" font-size="12" lengthAdjust="spacingAndGlyphs" textLength="81" x="465.75" y="854.1387">ContactPoint</text></a><!--class PartyIdentificationInformation--><a target="_top" xlink:actuate="onRequest" xlink:href="../PartyIdentificationInformation.html" xlink:show="new" xlink:title="Unique and unambiguous way to identify a party" xlink:type="simple"><rect fill="#EEEEEE" filter="url(#f4ud3wp42i6rw)" height="23.9688" id="PartyIdentificationInformation" style="stroke: #A80036; stroke-width: 1.5;" width="190" x="462" y="750"/><rect fill="#EEEEEE" height="23.9688" style="stroke: #A80036; stroke-width: 1.5;" width="190" x="462" y="750"/><text fill="#000000" font-family="sans-serif" font-size="12" lengthAdjust="spacingAndGlyphs" textLength="184" x="465" y="766.1387">PartyIdentificationInformation</text></a><!--class Tax--><a target="_top" xlink:actuate="onRequest" xlink:href="../Tax.html" xlink:show="new" xlink:title="Amount of money due to the government or tax authority, according to various pre-defined parameters such as thresholds or income." xlink:type="simple"><rect fill="#EEEEEE" filter="url(#f4ud3wp42i6rw)" height="23.9688" id="Tax" style="stroke: #A80036; stroke-width: 1.5;" width="27" x="543.75" y="648"/><rect fill="#EEEEEE" height="23.9688" style="stroke: #A80036; stroke-width: 1.5;" width="27" x="543.75" y="648"/><text fill="#000000" font-family="sans-serif" font-size="12" lengthAdjust="spacingAndGlyphs" textLength="21" x="546.75" y="664.1387">Tax</text></a><!--class Location--><a target="_top" xlink:actuate="onRequest" xlink:href="../Location.html" xlink:show="new" xlink:title="Specifies a place." xlink:type="simple"><rect fill="#EEEEEE" filter="url(#f4ud3wp42i6rw)" height="23.9688" id="Location" style="stroke: #A80036; stroke-width: 1.5;" width="59" x="595.75" y="546"/><rect fill="#EEEEEE" height="23.9688" style="stroke: #A80036; stroke-width: 1.5;" width="59" x="595.75" y="546"/><text fill="#000000" font-family="sans-serif" font-size="12" lengthAdjust="spacingAndGlyphs" textLength="53" x="598.75" y="562.1387">Location</text></a><!--class PowerOfAttorney--><a target="_top" xlink:actuate="onRequest" xlink:href="../PowerOfAttorney.html" xlink:show="new" xlink:title="Document that transfers specific rights from a party to another party." xlink:type="simple"><rect fill="#EEEEEE" filter="url(#f4ud3wp42i6rw)" height="23.9688" id="PowerOfAttorney" style="stroke: #A80036; stroke-width: 1.5;" width="110" x="462" y="442"/><rect fill="#EEEEEE" height="23.9688" style="stroke: #A80036; stroke-width: 1.5;" width="110" x="462" y="442"/><text fill="#000000" font-family="sans-serif" font-size="12" lengthAdjust="spacingAndGlyphs" textLength="104" x="465" y="458.1387">PowerOfAttorney</text></a><!--class Security--><a target="_top" xlink:actuate="onRequest" xlink:href="../Security.html" xlink:show="new" xlink:title="Financial instruments representing a sum of rights of the investor vis-a-vis the issuer." xlink:type="simple"><rect fill="#EEEEEE" filter="url(#f4ud3wp42i6rw)" height="23.9688" id="Security" style="stroke: #A80036; stroke-width: 1.5;" width="56" x="605.5" y="302"/><rect fill="#EEEEEE" height="23.9688" style="stroke: #A80036; stroke-width: 1.5;" width="56" x="605.5" y="302"/><text fill="#000000" font-family="sans-serif" font-size="12" lengthAdjust="spacingAndGlyphs" textLength="50" x="608.5" y="318.1387">Security</text></a><!--class OrganisationIdentification--><a target="_top" xlink:actuate="onRequest" xlink:href="../OrganisationIdentification.html" xlink:show="new" xlink:title="Unique and unambiguous way to identify an organisation." xlink:type="simple"><rect fill="#EEEEEE" filter="url(#f4ud3wp42i6rw)" height="23.9688" id="OrganisationIdentification" style="stroke: #A80036; stroke-width: 1.5;" width="167" x="1920.75" y="1014"/><rect fill="#EEEEEE" height="23.9688" style="stroke: #A80036; stroke-width: 1.5;" width="167" x="1920.75" y="1014"/><text fill="#000000" font-family="sans-serif" font-size="12" lengthAdjust="spacingAndGlyphs" textLength="161" x="1923.75" y="1030.1387">OrganisationIdentification</text></a><!--class SecuritiesModification--><a target="_top" xlink:actuate="onRequest" xlink:href="../SecuritiesModification.html" xlink:show="new" xlink:title="Modification of the reference data of a security or of the organisation that issued it." xlink:type="simple"><rect fill="#EEEEEE" filter="url(#f4ud3wp42i6rw)" height="23.9688" id="SecuritiesModification" style="stroke: #A80036; stroke-width: 1.5;" width="143" x="1911.75" y="928"/><rect fill="#EEEEEE" height="23.9688" style="stroke: #A80036; stroke-width: 1.5;" width="143" x="1911.75" y="928"/><text fill="#000000" font-family="sans-serif" font-size="12" lengthAdjust="spacingAndGlyphs" textLength="137" x="1914.75" y="944.1387">SecuritiesModification</text></a><!--class Sector--><a target="_top" xlink:actuate="onRequest" xlink:href="../Sector.html" xlink:show="new" xlink:title="Type of business of the organisation, for example, pharmaceutical." xlink:type="simple"><rect fill="#EEEEEE" filter="url(#f4ud3wp42i6rw)" height="23.9688" id="Sector" style="stroke: #A80036; stroke-width: 1.5;" width="47" x="1923.75" y="838"/><rect fill="#EEEEEE" height="23.9688" style="stroke: #A80036; stroke-width: 1.5;" width="47" x="1923.75" y="838"/><text fill="#000000" font-family="sans-serif" font-size="12" lengthAdjust="spacingAndGlyphs" textLength="41" x="1926.75" y="854.1387">Sector</text></a><!--class BuyOrSellIndicationOfInterest--><a target="_top" xlink:actuate="onRequest" xlink:href="../BuyOrSellIndicationOfInterest.html" xlink:show="new" xlink:title="Intention to buy or sell a financial Instrument." xlink:type="simple"><rect fill="#EEEEEE" filter="url(#f4ud3wp42i6rw)" height="23.9688" id="BuyOrSellIndicationOfInterest" style="stroke: #A80036; stroke-width: 1.5;" width="187" x="1910.75" y="750"/><rect fill="#EEEEEE" height="23.9688" style="stroke: #A80036; stroke-width: 1.5;" width="187" x="1910.75" y="750"/><text fill="#000000" font-family="sans-serif" font-size="12" lengthAdjust="spacingAndGlyphs" textLength="181" x="1913.75" y="766.1387">BuyOrSellIndicationOfInterest</text></a><!--class OrganisationStrategy--><a target="_top" xlink:actuate="onRequest" xlink:href="../OrganisationStrategy.html" xlink:show="new" xlink:title="Strategy is organisation based." xlink:type="simple"><rect fill="#EEEEEE" filter="url(#f4ud3wp42i6rw)" height="23.9688" id="OrganisationStrategy" style="stroke: #A80036; stroke-width: 1.5;" width="139" x="1944.75" y="648"/><rect fill="#EEEEEE" height="23.9688" style="stroke: #A80036; stroke-width: 1.5;" width="139" x="1944.75" y="648"/><text fill="#000000" font-family="sans-serif" font-size="12" lengthAdjust="spacingAndGlyphs" textLength="133" x="1947.75" y="664.1387">OrganisationStrategy</text></a><!--class OrganisationHierarchy--><a target="_top" xlink:actuate="onRequest" xlink:href="../OrganisationHierarchy.html" xlink:show="new" xlink:title="Description of the structure of a company." xlink:type="simple"><rect fill="#EEEEEE" filter="url(#f4ud3wp42i6rw)" height="23.9688" id="OrganisationHierarchy" style="stroke: #A80036; stroke-width: 1.5;" width="145" x="1941.75" y="546"/><rect fill="#EEEEEE" height="23.9688" style="stroke: #A80036; stroke-width: 1.5;" width="145" x="1941.75" y="546"/><text fill="#000000" font-family="sans-serif" font-size="12" lengthAdjust="spacingAndGlyphs" textLength="139" x="1944.75" y="562.1387">OrganisationHierarchy</text></a><!--class RepresentativeOfficer--><a target="_top" xlink:actuate="onRequest" xlink:href="../RepresentativeOfficer.html" xlink:show="new" xlink:title="Officer who has some rights to represent a given organisation. In account management, it is the person to be contacted by the account servicer." xlink:type="simple"><rect fill="#EEEEEE" filter="url(#f4ud3wp42i6rw)" height="23.9688" id="RepresentativeOfficer" style="stroke: #A80036; stroke-width: 1.5;" width="141" x="1955.75" y="442"/><rect fill="#EEEEEE" height="23.9688" style="stroke: #A80036; stroke-width: 1.5;" width="141" x="1955.75" y="442"/><text fill="#000000" font-family="sans-serif" font-size="12" lengthAdjust="spacingAndGlyphs" textLength="135" x="1958.75" y="458.1387">RepresentativeOfficer</text></a><!--entity ##16492--><!--link RolePlayer to Party--><path d="M1654.34,74.632 C1622.1,94.187 1574.89,122.823 1542.65,142.376 " fill="none" id="RolePlayer-Party" style="stroke: #A80036; stroke-width: 1.0;"/><polygon fill="none" points="1651.05,68.44,1671.78,64.05,1658.31,80.406,1651.05,68.44" style="stroke: #A80036; stroke-width: 1.0;"/><!--link Party to Organisation--><path d="M1492.89,206.657 C1486.51,225.048 1478.93,246.893 1472.31,265.986 " fill="none" id="Party-Organisation" style="stroke: #A80036; stroke-width: 1.0;"/><polygon fill="none" points="1486.31,204.291,1499.47,187.69,1499.53,208.88,1486.31,204.291" style="stroke: #A80036; stroke-width: 1.0;"/><!--link Organisation to NonFinancialInstitution--><path d="M1531.28,374.709 C1563.16,399.992 1597.18,426.971 1615.79,441.731 " fill="none" id="Organisation-NonFinancialInstitution" style="stroke: #A80036; stroke-width: 1.0;"/><polygon fill="none" points="1526.71,380.018,1515.39,362.106,1535.41,369.049,1526.71,380.018" style="stroke: #A80036; stroke-width: 1.0;"/><!--link DateTimePeriod to Role--><!--link PartyIdentificationInformation to ContactPoint--><!--link Tax to PartyIdentificationInformation--><!--link Location to Tax--><!--link PowerOfAttorney to Location--><!--link Security to PowerOfAttorney--><!--link SecuritiesModification to OrganisationIdentification--><!--link Sector to SecuritiesModification--><!--link BuyOrSellIndicationOfInterest to Sector--><!--link OrganisationStrategy to BuyOrSellIndicationOfInterest--><!--link OrganisationHierarchy to OrganisationStrategy--><!--link RepresentativeOfficer to OrganisationHierarchy--><!--link RolePlayer to Role--><path d="M1725.35,56.37 C1761.74,60.96 1819.29,71.344 1864,94 C1885.37,104.83 1894.97,107.243 1905,129 C1931.97,187.491 1892.28,264.497 1872.31,297.21 " fill="none" id="RolePlayer-Role" style="stroke: #A80036; stroke-width: 1.0;"/><polygon fill="#A80036" points="1869.52,301.708,1877.6683,296.1757,1872.1594,297.4614,1870.8738,291.9526,1869.52,301.708" style="stroke: #A80036; stroke-width: 1.0;"/><text fill="#000000" font-family="sans-serif" font-size="13" lengthAdjust="spacingAndGlyphs" textLength="27" x="1915" y="169.0669">Role</text><text fill="#000000" font-family="sans-serif" font-size="13" lengthAdjust="spacingAndGlyphs" textLength="23" x="1843.7876" y="290.9147">1..*</text><!--link RolePlayer to DateTimePeriod--><path d="M1704.43,64.05 C1730.92,84.328 1787.26,127.457 1816.51,149.848 " fill="none" id="RolePlayer-DateTimePeriod" style="stroke: #A80036; stroke-width: 1.0;"/><polygon fill="#A80036" points="1820.63,152.996,1815.9202,144.3463,1816.6616,149.9544,1811.0535,150.6958,1820.63,152.996" style="stroke: #A80036; stroke-width: 1.0;"/><text fill="#000000" font-family="sans-serif" font-size="13" lengthAdjust="spacingAndGlyphs" textLength="86" x="1768" y="107.0669">ValidityPeriod</text><text fill="#000000" font-family="sans-serif" font-size="13" lengthAdjust="spacingAndGlyphs" textLength="24" x="1786.1356" y="142.0428">0..1</text><!--link Party to ContactPoint--><path d="M1340.32,168.383 C1009.56,173.721 292.64,188.544 184,218 C97.4516,241.466 6,223.327 6,313 C6,313 6,313 6,763 C6,808.501 331.762,836.579 457.395,845.716 " fill="none" id="Party-ContactPoint" style="stroke: #A80036; stroke-width: 1.0;"/><polygon fill="#A80036" points="462.503,846.085,453.8144,841.4474,457.516,845.725,453.2384,849.4266,462.503,846.085" style="stroke: #A80036; stroke-width: 1.0;"/><text fill="#000000" font-family="sans-serif" font-size="13" lengthAdjust="spacingAndGlyphs" textLength="82" x="7" y="562.0669">ContactPoint</text><text fill="#000000" font-family="sans-serif" font-size="13" lengthAdjust="spacingAndGlyphs" textLength="23" x="431.6479" y="840.6488">1..*</text><!--link Party to PartyIdentificationInformation--><path d="M1340.29,168.688 C1078.06,173.795 581.155,187.263 407,218 C284.611,239.601 144,188.719 144,313 C144,313 144,313 144,661 C144,725.169 334.716,748.305 456.948,756.543 " fill="none" id="Party-PartyIdentificationInformation" style="stroke: #A80036; stroke-width: 1.0;"/><polygon fill="#A80036" points="461.99,756.877,453.2736,752.2918,457.0009,756.5471,452.7457,760.2744,461.99,756.877" style="stroke: #A80036; stroke-width: 1.0;"/><text fill="#000000" font-family="sans-serif" font-size="13" lengthAdjust="spacingAndGlyphs" textLength="81" x="145" y="511.0669">Identification</text><text fill="#000000" font-family="sans-serif" font-size="13" lengthAdjust="spacingAndGlyphs" textLength="23" x="431.1026" y="752.0764">1..*</text><!--link Party to Tax--><path d="M1340.37,169.535 C1066.22,176.059 542.154,191.776 461,218 C320.44,263.421 196.691,361.758 270,490 C330.342,595.56 485.193,641.73 538.58,654.855 " fill="none" id="Party-Tax" style="stroke: #A80036; stroke-width: 1.0;"/><polygon fill="#A80036" points="543.714,656.091,535.9015,650.094,538.8531,654.9197,534.0274,657.8714,543.714,656.091" style="stroke: #A80036; stroke-width: 1.0;"/><text fill="#000000" font-family="sans-serif" font-size="13" lengthAdjust="spacingAndGlyphs" textLength="121" x="271" y="458.0669">TaxationConditions</text><text fill="#000000" font-family="sans-serif" font-size="13" lengthAdjust="spacingAndGlyphs" textLength="8" x="527.6472" y="647.4582">1</text><!--link Party to Location--><path d="M1340.24,169.322 C1134.8,174.688 806.904,187.881 759,218 C696.65,257.201 729.552,310.401 677,362 C657.132,381.508 636.214,368.057 622,392 C593.658,439.743 609.944,509.754 619.533,540.962 " fill="none" id="Party-Location" style="stroke: #A80036; stroke-width: 1.0;"/><polygon fill="#A80036" points="621.121,545.977,622.2193,536.1896,619.6125,541.21,614.592,538.6032,621.121,545.977" style="stroke: #A80036; stroke-width: 1.0;"/><text fill="#000000" font-family="sans-serif" font-size="13" lengthAdjust="spacingAndGlyphs" textLength="55" x="623" y="405.0669">Domicile</text><text fill="#000000" font-family="sans-serif" font-size="13" lengthAdjust="spacingAndGlyphs" textLength="8" x="608.9829" y="535.0173">1</text><!--link Party to Location--><path d="M1340.27,168.107 C1198.18,172.279 1006.45,184.242 938,218 C781.824,295.026 665.186,485.687 633.555,541.448 " fill="none" id="Party-Location" style="stroke: #A80036; stroke-width: 1.0;"/><polygon fill="#A80036" points="631.09,545.825,638.9907,539.9446,633.5428,541.468,632.0194,536.0201,631.09,545.825" style="stroke: #A80036; stroke-width: 1.0;"/><text fill="#000000" font-family="sans-serif" font-size="13" lengthAdjust="spacingAndGlyphs" textLength="65" x="735" y="405.0669">Residence</text><text fill="#000000" font-family="sans-serif" font-size="13" lengthAdjust="spacingAndGlyphs" textLength="7" x="623.5506" y="534.8131">*</text><!--link Party to Location--><path d="M1340.24,167.22 C1072.67,170.273 569.989,180.928 497,218 C387.19,273.774 359.188,400.692 444,490 C483.086,531.158 549.695,547.183 590.29,553.315 " fill="none" id="Party-Location" style="stroke: #A80036; stroke-width: 1.0;"/><polygon fill="#A80036" points="595.596,554.083,587.2612,548.8359,590.6475,553.3673,586.1161,556.7535,595.596,554.083" style="stroke: #A80036; stroke-width: 1.0;"/><text fill="#000000" font-family="sans-serif" font-size="13" lengthAdjust="spacingAndGlyphs" textLength="54" x="400" y="405.0669">Location</text><text fill="#000000" font-family="sans-serif" font-size="13" lengthAdjust="spacingAndGlyphs" textLength="8" x="579.7735" y="547.7214">1</text><!--link Party to PowerOfAttorney--><path d="M1340.41,165.631 C1108.12,166.738 699.503,175.026 558,218 C517.96,230.16 497.717,229.642 477,266 C444.572,322.911 485.886,403.172 506.539,436.988 " fill="none" id="Party-PowerOfAttorney" style="stroke: #A80036; stroke-width: 1.0;"/><polygon fill="#A80036" points="509.425,441.632,508.0718,431.8765,506.7858,437.3853,501.2771,436.0993,509.425,441.632" style="stroke: #A80036; stroke-width: 1.0;"/><text fill="#000000" font-family="sans-serif" font-size="13" lengthAdjust="spacingAndGlyphs" textLength="107" x="478" y="318.0669">PowerOfAttorney</text><text fill="#000000" font-family="sans-serif" font-size="13" lengthAdjust="spacingAndGlyphs" textLength="24" x="477.6095" y="430.8135">0..1</text><!--link Party to Security--><path d="M1340.46,169.409 C1078.95,175.588 598.912,190.605 573,218 C549.304,243.052 586.942,278.804 612.508,298.534 " fill="none" id="Party-Security" style="stroke: #A80036; stroke-width: 1.0;"/><polygon fill="#A80036" points="616.81,301.792,612.0504,293.1696,612.8241,298.7733,607.2204,299.547,616.81,301.792" style="stroke: #A80036; stroke-width: 1.0;"/><text fill="#000000" font-family="sans-serif" font-size="13" lengthAdjust="spacingAndGlyphs" textLength="112" x="574" y="231.0669">CloseLinkSecurity</text><text fill="#000000" font-family="sans-serif" font-size="13" lengthAdjust="spacingAndGlyphs" textLength="8" x="600.6252" y="291.0265">1</text><!--link Organisation to OrganisationIdentification--><path d="M1571.7,334.238 C1629.88,343.479 1701.56,354.21 1766,362 C1913.09,379.779 1954.83,353.902 2098,392 C2160.84,408.723 2231,387.968 2231,453 C2231,453 2231,453 2231,941 C2231,974.8898 2140.88,999.4207 2074.21,1012.9324 " fill="none" id="Organisation-OrganisationIdentification" style="stroke: #A80036; stroke-width: 1.0;"/><polygon fill="#A80036" points="2069.05,1013.966,2078.6619,1016.1135,2073.9519,1012.9804,2077.085,1008.2704,2069.05,1013.966" style="stroke: #A80036; stroke-width: 1.0;"/><text fill="#000000" font-family="sans-serif" font-size="13" lengthAdjust="spacingAndGlyphs" textLength="162" x="2232" y="715.0669">OrganisationIdentification</text><text fill="#000000" font-family="sans-serif" font-size="13" lengthAdjust="spacingAndGlyphs" textLength="7" x="2081.7781" y="1003.0025">*</text><!--link Organisation to Organisation--><path d="M1571.72,298.883 C1591.94,300.898 1606,305.938 1606,314 C1606,321.37 1594.25,326.213 1576.79,328.531 " fill="none" id="Organisation-Organisation" style="stroke: #A80036; stroke-width: 1.0;"/><polygon fill="#A80036" points="1571.72,329.117,1581.1182,332.0622,1576.6872,328.5456,1580.2039,324.1146,1571.72,329.117" style="stroke: #A80036; stroke-width: 1.0;"/><text fill="#000000" font-family="sans-serif" font-size="13" lengthAdjust="spacingAndGlyphs" textLength="123" x="1612" y="318.0669">ParentOrganisation</text><text fill="#000000" font-family="sans-serif" font-size="13" lengthAdjust="spacingAndGlyphs" textLength="8" x="1580.4752" y="325.675">1</text><!--link Organisation to SecuritiesModification--><path d="M1402.94,362.149 C1381.18,386.677 1361,418.678 1361,453 C1361,453 1361,453 1361,851 C1361,905.484 1739.99,928.529 1906.31,936.019 " fill="none" id="Organisation-SecuritiesModification" style="stroke: #A80036; stroke-width: 1.0;"/><polygon fill="#A80036" points="1911.65,936.257,1902.8297,931.8749,1906.6546,936.0427,1902.4868,939.8675,1911.65,936.257" style="stroke: #A80036; stroke-width: 1.0;"/><text fill="#000000" font-family="sans-serif" font-size="13" lengthAdjust="spacingAndGlyphs" textLength="139" x="1362" y="664.0669">SecuritiesModification</text><text fill="#000000" font-family="sans-serif" font-size="13" lengthAdjust="spacingAndGlyphs" textLength="8" x="1895.8278" y="931.2408">1</text><!--link Organisation to Location--><path d="M1342.96,362.026 C1303.96,378.914 1260.23,398.595 1221,418 C1140.4,457.869 1129.86,489.29 1044,516 C972.407,538.272 746.454,551.179 659.537,555.427 " fill="none" id="Organisation-Location" style="stroke: #A80036; stroke-width: 1.0;"/><polygon fill="#A80036" points="654.511,555.67,663.6947,559.2282,659.5051,555.4272,663.3061,551.2376,654.511,555.67" style="stroke: #A80036; stroke-width: 1.0;"/><text fill="#000000" font-family="sans-serif" font-size="13" lengthAdjust="spacingAndGlyphs" textLength="111" x="1222" y="458.0669">PlaceOfOperation</text><text fill="#000000" font-family="sans-serif" font-size="13" lengthAdjust="spacingAndGlyphs" textLength="7" x="662.906" y="548.9827">*</text><!--link Organisation to Location--><path d="M1340.17,333.887 C1241.23,351.384 1095.7,380.367 972,418 C940.143,427.692 736.324,511.189 656.756,543.918 " fill="none" id="Organisation-Location" style="stroke: #A80036; stroke-width: 1.0;"/><polygon fill="#A80036" points="651.697,545.999,661.542,546.2748,656.3211,544.097,658.4989,538.8762,651.697,545.999" style="stroke: #A80036; stroke-width: 1.0;"/><text fill="#000000" font-family="sans-serif" font-size="13" lengthAdjust="spacingAndGlyphs" textLength="124" x="973" y="458.0669">PlaceOfRegistration</text><text fill="#000000" font-family="sans-serif" font-size="13" lengthAdjust="spacingAndGlyphs" textLength="24" x="631.3194" y="535.0469">0..1</text><!--link Organisation to Sector--><path d="M1455.86,362.125 C1457.57,398.886 1464.06,450.21 1485,490 C1584.94,679.934 1834.63,800.897 1918.79,837.355 " fill="none" id="Organisation-Sector" style="stroke: #A80036; stroke-width: 1.0;"/><polygon fill="#A80036" points="1923.62,839.433,1916.9274,832.2074,1919.0254,837.4608,1913.7719,839.5588,1923.62,839.433" style="stroke: #A80036; stroke-width: 1.0;"/><text fill="#000000" font-family="sans-serif" font-size="13" lengthAdjust="spacingAndGlyphs" textLength="42" x="1581" y="613.0669">Sector</text><text fill="#000000" font-family="sans-serif" font-size="13" lengthAdjust="spacingAndGlyphs" textLength="8" x="1907.6414" y="830.8723">1</text><!--link Organisation to BuyOrSellIndicationOfInterest--><path d="M1469.44,362.215 C1482.16,400.245 1504.36,453.244 1538,490 C1665.28,629.078 1880.79,717.079 1966.87,748.271 " fill="none" id="Organisation-BuyOrSellIndicationOfInterest" style="stroke: #A80036; stroke-width: 1.0;"/><polygon fill="#A80036" points="1971.61,749.979,1964.5052,743.1583,1966.9076,748.2797,1961.7863,750.6821,1971.61,749.979" style="stroke: #A80036; stroke-width: 1.0;"/><text fill="#000000" font-family="sans-serif" font-size="13" lengthAdjust="spacingAndGlyphs" textLength="172" x="1626" y="562.0669">RelatedIndicationOfInterest</text><text fill="#000000" font-family="sans-serif" font-size="13" lengthAdjust="spacingAndGlyphs" textLength="24" x="1930.9212" y="739.02">0..1</text><!--link Organisation to OrganisationStrategy--><path d="M1571.77,333.705 C1629.97,342.814 1701.63,353.588 1766,362 C1887.03,377.819 1919.92,365.174 2039,392 C2073.42,399.753 2093.54,389.257 2114,418 C2153.26,473.158 2133.91,509.266 2104,570 C2088.25,601.972 2056.33,629.156 2035.06,644.785 " fill="none" id="Organisation-OrganisationStrategy" style="stroke: #A80036; stroke-width: 1.0;"/><polygon fill="#A80036" points="2030.95,647.755,2040.5872,645.7243,2035.0022,644.8259,2035.9006,639.2408,2030.95,647.755" style="stroke: #A80036; stroke-width: 1.0;"/><text fill="#000000" font-family="sans-serif" font-size="13" lengthAdjust="spacingAndGlyphs" textLength="55" x="2134" y="511.0669">Strategy</text><text fill="#000000" font-family="sans-serif" font-size="13" lengthAdjust="spacingAndGlyphs" textLength="24" x="2007.1756" y="636.9773">0..1</text><!--link Organisation to OrganisationHierarchy--><path d="M1571.56,348.229 C1619.95,365.039 1675.42,388.266 1721,418 C1758.9,442.727 1754.18,466.738 1793,490 C1839.45,517.838 1898.41,534.952 1943.75,544.909 " fill="none" id="Organisation-OrganisationHierarchy" style="stroke: #A80036; stroke-width: 1.0;"/><polygon fill="#A80036" points="1948.65,545.969,1940.6995,540.1561,1943.7631,544.9116,1939.0076,547.9752,1948.65,545.969" style="stroke: #A80036; stroke-width: 1.0;"/><text fill="#000000" font-family="sans-serif" font-size="13" lengthAdjust="spacingAndGlyphs" textLength="142" x="1794" y="458.0669">OrganisationHierarchy</text><text fill="#000000" font-family="sans-serif" font-size="13" lengthAdjust="spacingAndGlyphs" textLength="8" x="1925.7506" y="538.01">1</text><!--link Organisation to RepresentativeOfficer--><path d="M1571.96,335.999 C1668.15,354.442 1808.06,383.649 1928,418 C1950.1,424.328 1974.43,433.01 1993.33,440.144 " fill="none" id="Organisation-RepresentativeOfficer" style="stroke: #A80036; stroke-width: 1.0;"/><polygon fill="#A80036" points="1998.01,441.922,1991.0116,434.9922,1993.3345,440.1501,1988.1766,442.473,1998.01,441.922" style="stroke: #A80036; stroke-width: 1.0;"/><text fill="#000000" font-family="sans-serif" font-size="13" lengthAdjust="spacingAndGlyphs" textLength="137" x="1892" y="405.0669">RepresentativeOfficer</text><text fill="#000000" font-family="sans-serif" font-size="13" lengthAdjust="spacingAndGlyphs" textLength="8" x="1977.5838" y="430.9434">1</text><!--link DateTimePeriod to PartyIdentificationInformation--><path d="M1790.16,177.065 C1774.91,180.706 1757.75,184.671 1742,188 C1557.1,227.097 1501.04,199.883 1324,266 C1139.62,334.856 1126.09,420.387 942,490 C924.634,496.567 917.932,490.383 901,498 C755.627,563.394 615.073,700.889 571.088,746.182 " fill="none" id="DateTimePeriod-PartyIdentificationInformation" style="stroke: #A80036; stroke-width: 1.0;"/><polygon fill="#A80036" points="567.609,749.78,576.7408,746.0908,571.0848,746.1857,570.9899,740.5296,567.609,749.78" style="stroke: #A80036; stroke-width: 1.0;"/><text fill="#000000" font-family="sans-serif" font-size="13" lengthAdjust="spacingAndGlyphs" textLength="129" x="902" y="511.0669">RelatedIdentification</text><text fill="#000000" font-family="sans-serif" font-size="13" lengthAdjust="spacingAndGlyphs" textLength="7" x="561.6326" y="739.0106">*</text><!--link ContactPoint to ContactPoint--><path d="M549.314,841.849 C568.001,841.181 584,843.898 584,850 C584,855.53 570.86,858.279 554.488,858.25 " fill="none" id="ContactPoint-ContactPoint" style="stroke: #A80036; stroke-width: 1.0;"/><polygon fill="#A80036" points="549.314,858.151,558.2358,862.3226,554.3131,858.2467,558.3889,854.324,549.314,858.151" style="stroke: #A80036; stroke-width: 1.0;"/><text fill="#000000" font-family="sans-serif" font-size="13" lengthAdjust="spacingAndGlyphs" textLength="80" x="590" y="854.0669">MainContact</text><text fill="#000000" font-family="sans-serif" font-size="13" lengthAdjust="spacingAndGlyphs" textLength="8" x="557.6973" y="854.1703">1</text><!--link Security to Sector--><path d="M660.596,315.232 C771.521,316.774 1183,328.528 1268,418 C1329.59,482.832 1266.79,531.639 1290,618 C1302.86,665.851 1296.52,688.785 1335,720 C1427.36,794.922 1809.75,836.077 1918.21,846.396 " fill="none" id="Security-Sector" style="stroke: #A80036; stroke-width: 1.0;"/><polygon fill="#A80036" points="1923.46,846.893,1914.8772,842.0624,1918.4823,846.4217,1914.123,850.0268,1923.46,846.893" style="stroke: #A80036; stroke-width: 1.0;"/><text fill="#000000" font-family="sans-serif" font-size="13" lengthAdjust="spacingAndGlyphs" textLength="42" x="1291" y="613.0669">Sector</text><text fill="#000000" font-family="sans-serif" font-size="13" lengthAdjust="spacingAndGlyphs" textLength="8" x="1907.8023" y="859.9947">1</text><!--link Security to SecuritiesModification--><path d="M660.623,314.162 C729.668,313.612 911.484,321.91 1013,418 C1060.26,462.733 1059,491.927 1059,557 C1059,557 1059,557 1059,851 C1059,935.888 1685.02,940.653 1906.49,939.682 " fill="none" id="Security-SecuritiesModification" style="stroke: #A80036; stroke-width: 1.0;"/><polygon fill="#A80036" points="1911.65,939.658,1902.6273,935.7095,1906.6501,939.6866,1902.673,943.7094,1911.65,939.658" style="stroke: #A80036; stroke-width: 1.0;"/><text fill="#000000" font-family="sans-serif" font-size="13" lengthAdjust="spacingAndGlyphs" textLength="76" x="1060" y="664.0669">Modification</text><text fill="#000000" font-family="sans-serif" font-size="13" lengthAdjust="spacingAndGlyphs" textLength="24" x="1879.6441" y="952.3245">0..1</text></g></svg>