<?xml version="1.0" encoding="UTF-8" standalone="no"?><svg xmlns="http://www.w3.org/2000/svg" xmlns:xlink="http://www.w3.org/1999/xlink" contentScriptType="application/ecmascript" contentStyleType="text/css" height="1048px" preserveAspectRatio="none" style="width:2565px;height:1048px;" version="1.1" viewBox="0 0 2565 1048" width="2565px" zoomAndPan="magnify"><defs><filter height="300%" id="fttgdhjcqvpak" width="300%" x="-1" y="-1"><feGaussianBlur result="blurOut" stdDeviation="2.0"/><feColorMatrix in="blurOut" result="blurOut2" type="matrix" values="0 0 0 0 0 0 0 0 0 0 0 0 0 0 0 0 0 0 .4 0"/><feOffset dx="4.0" dy="4.0" in="blurOut2" result="blurOut3"/><feBlend in="SourceGraphic" in2="blurOut3" mode="normal"/></filter></defs><g><!--cluster ##846--><!--cluster ##861--><!--cluster ##866--><!--cluster ##879--><!--class RolePlayer--><a target="_top" xlink:actuate="onRequest" xlink:href="../RolePlayer.html" xlink:show="new" xlink:title="Type of entity that plays a specific role in a specific context." xlink:type="simple"><rect fill="#FEFEEE" filter="url(#fttgdhjcqvpak)" height="23.9688" id="RolePlayer" style="stroke: #A80036; stroke-width: 1.5;" width="71" x="1791.75" y="40"/><rect fill="#FEFEEE" height="23.9688" style="stroke: #A80036; stroke-width: 1.5;" width="71" x="1791.75" y="40"/><text fill="#000000" font-family="sans-serif" font-size="12" lengthAdjust="spacingAndGlyphs" textLength="65" x="1794.75" y="56.1387">RolePlayer</text></a><!--class Party--><a target="_top" xlink:actuate="onRequest" xlink:href="../Party.html" xlink:show="new" xlink:title="Entity involved in an activity." xlink:type="simple"><rect fill="#FEFEEE" filter="url(#fttgdhjcqvpak)" height="44.7734" id="Party" style="stroke: #A80036; stroke-width: 1.5;" width="334" x="1477.5" y="142.5"/><rect fill="#FEFEEE" height="23.9688" style="stroke: #A80036; stroke-width: 1.5;" width="334" x="1477.5" y="142.5"/><text fill="#000000" font-family="sans-serif" font-size="12" lengthAdjust="spacingAndGlyphs" textLength="32" x="1628.5" y="158.6387">Party</text><line style="stroke: #A80036; stroke-width: 1.5;" x1="1478.5" x2="1810.5" y1="166.4688" y2="166.4688"/><ellipse cx="1488.5" cy="178.3711" fill="#84BE84" rx="3" ry="3" style="stroke: #038048; stroke-width: 1.0;"/><text fill="#000000" font-family="sans-serif" font-size="11" lengthAdjust="spacingAndGlyphs" textLength="133" x="1497.5" y="180.6792">MoneyLaunderingCheck</text><text fill="#000000" font-family="sans-serif" font-size="11" font-style="italic" lengthAdjust="spacingAndGlyphs" textLength="171" x="1634.5" y="180.6792">(MoneyLaunderingCheckCode)</text></a><!--class Organisation--><a target="_top" xlink:actuate="onRequest" xlink:href="../Organisation.html" xlink:show="new" xlink:title="Organised structure that is set up for a particular purpose. For example, a business, government body, department, charity, or financial institution." xlink:type="simple"><rect fill="#FEFECE" filter="url(#fttgdhjcqvpak)" height="95.9922" id="Organisation" style="stroke: #A80036; stroke-width: 1.5;" width="232" x="1477.5" y="266"/><rect fill="#FEFECE" height="23.9688" style="stroke: #A80036; stroke-width: 1.5;" width="232" x="1477.5" y="266"/><text fill="#000000" font-family="sans-serif" font-size="12" lengthAdjust="spacingAndGlyphs" textLength="80" x="1553.5" y="282.1387">Organisation</text><line style="stroke: #A80036; stroke-width: 1.5;" x1="1478.5" x2="1708.5" y1="289.9688" y2="289.9688"/><ellipse cx="1488.5" cy="301.8711" fill="#84BE84" rx="3" ry="3" style="stroke: #038048; stroke-width: 1.0;"/><text fill="#000000" font-family="sans-serif" font-size="11" lengthAdjust="spacingAndGlyphs" textLength="47" x="1497.5" y="304.1792">Purpose</text><text fill="#000000" font-family="sans-serif" font-size="11" font-style="italic" lengthAdjust="spacingAndGlyphs" textLength="70" x="1548.5" y="304.1792">(Max35Text)</text><ellipse cx="1488.5" cy="314.6758" fill="#84BE84" rx="3" ry="3" style="stroke: #038048; stroke-width: 1.0;"/><text fill="#000000" font-family="sans-serif" font-size="11" lengthAdjust="spacingAndGlyphs" textLength="94" x="1497.5" y="316.9839">RegistrationDate</text><text fill="#000000" font-family="sans-serif" font-size="11" font-style="italic" lengthAdjust="spacingAndGlyphs" textLength="81" x="1595.5" y="316.9839">(ISODateTime)</text><ellipse cx="1488.5" cy="327.4805" fill="#84BE84" rx="3" ry="3" style="stroke: #038048; stroke-width: 1.0;"/><text fill="#000000" font-family="sans-serif" font-size="11" lengthAdjust="spacingAndGlyphs" textLength="64" x="1497.5" y="329.7886">Description</text><text fill="#000000" font-family="sans-serif" font-size="11" font-style="italic" lengthAdjust="spacingAndGlyphs" textLength="77" x="1565.5" y="329.7886">(Max350Text)</text><ellipse cx="1488.5" cy="340.2852" fill="#84BE84" rx="3" ry="3" style="stroke: #038048; stroke-width: 1.0;"/><text fill="#000000" font-family="sans-serif" font-size="11" lengthAdjust="spacingAndGlyphs" textLength="83" x="1497.5" y="342.5933">LegalStructure</text><text fill="#000000" font-family="sans-serif" font-size="11" font-style="italic" lengthAdjust="spacingAndGlyphs" textLength="119" x="1584.5" y="342.5933">(LegalStructureCode)</text><ellipse cx="1488.5" cy="353.0898" fill="#84BE84" rx="3" ry="3" style="stroke: #038048; stroke-width: 1.0;"/><text fill="#000000" font-family="sans-serif" font-size="11" lengthAdjust="spacingAndGlyphs" textLength="107" x="1497.5" y="355.3979">EstablishmentDate</text><text fill="#000000" font-family="sans-serif" font-size="11" font-style="italic" lengthAdjust="spacingAndGlyphs" textLength="53" x="1608.5" y="355.3979">(ISODate)</text></a><!--class FinancialInstitution--><a target="_top" xlink:actuate="onRequest" xlink:href="../FinancialInstitution.html" xlink:show="new" xlink:title="Organisation established primarily to provide financial services." xlink:type="simple"><rect fill="#FEFEEE" filter="url(#fttgdhjcqvpak)" height="23.9688" id="FinancialInstitution" style="stroke: #A80036; stroke-width: 1.5;" width="124" x="1556.5" y="442"/><rect fill="#FEFEEE" height="23.9688" style="stroke: #A80036; stroke-width: 1.5;" width="124" x="1556.5" y="442"/><text fill="#000000" font-family="sans-serif" font-size="12" lengthAdjust="spacingAndGlyphs" textLength="118" x="1559.5" y="458.1387">FinancialInstitution</text></a><!--class NonFinancialInstitution--><a target="_top" xlink:actuate="onRequest" xlink:href="../NonFinancialInstitution.html" xlink:show="new" xlink:title="An organisation primarily established to offer and perform services other than financial services." xlink:type="simple"><rect fill="#FEFEEE" filter="url(#fttgdhjcqvpak)" height="23.9688" id="NonFinancialInstitution" style="stroke: #A80036; stroke-width: 1.5;" width="149" x="1714.75" y="442"/><rect fill="#FEFEEE" height="23.9688" style="stroke: #A80036; stroke-width: 1.5;" width="149" x="1714.75" y="442"/><text fill="#000000" font-family="sans-serif" font-size="12" lengthAdjust="spacingAndGlyphs" textLength="143" x="1717.75" y="458.1387">NonFinancialInstitution</text></a><!--class Role--><a target="_top" xlink:actuate="onRequest" xlink:href="../Role.html" xlink:show="new" xlink:title="Role of a party in an activity." xlink:type="simple"><rect fill="#EEEEEE" filter="url(#fttgdhjcqvpak)" height="23.9688" id="Role" style="stroke: #A80036; stroke-width: 1.5;" width="33" x="1982.75" y="302"/><rect fill="#EEEEEE" height="23.9688" style="stroke: #A80036; stroke-width: 1.5;" width="33" x="1982.75" y="302"/><text fill="#000000" font-family="sans-serif" font-size="12" lengthAdjust="spacingAndGlyphs" textLength="27" x="1985.75" y="318.1387">Role</text></a><!--class DateTimePeriod--><a target="_top" xlink:actuate="onRequest" xlink:href="../DateTimePeriod.html" xlink:show="new" xlink:title="Time span defined by a start date and time, and an end date and time." xlink:type="simple"><rect fill="#EEEEEE" filter="url(#fttgdhjcqvpak)" height="23.9688" id="DateTimePeriod" style="stroke: #A80036; stroke-width: 1.5;" width="105" x="1919.75" y="153"/><rect fill="#EEEEEE" height="23.9688" style="stroke: #A80036; stroke-width: 1.5;" width="105" x="1919.75" y="153"/><text fill="#000000" font-family="sans-serif" font-size="12" lengthAdjust="spacingAndGlyphs" textLength="99" x="1922.75" y="169.1387">DateTimePeriod</text></a><!--class ContactPoint--><a target="_top" xlink:actuate="onRequest" xlink:href="../ContactPoint.html" xlink:show="new" xlink:title="Number, physical or virtual address, used for communication." xlink:type="simple"><rect fill="#EEEEEE" filter="url(#fttgdhjcqvpak)" height="23.9688" id="ContactPoint" style="stroke: #A80036; stroke-width: 1.5;" width="87" x="462.75" y="838"/><rect fill="#EEEEEE" height="23.9688" style="stroke: #A80036; stroke-width: 1.5;" width="87" x="462.75" y="838"/><text fill="#000000" font-family="sans-serif" font-size="12" lengthAdjust="spacingAndGlyphs" textLength="81" x="465.75" y="854.1387">ContactPoint</text></a><!--class PartyIdentificationInformation--><a target="_top" xlink:actuate="onRequest" xlink:href="../PartyIdentificationInformation.html" xlink:show="new" xlink:title="Unique and unambiguous way to identify a party." xlink:type="simple"><rect fill="#EEEEEE" filter="url(#fttgdhjcqvpak)" height="23.9688" id="PartyIdentificationInformation" style="stroke: #A80036; stroke-width: 1.5;" width="190" x="462" y="750"/><rect fill="#EEEEEE" height="23.9688" style="stroke: #A80036; stroke-width: 1.5;" width="190" x="462" y="750"/><text fill="#000000" font-family="sans-serif" font-size="12" lengthAdjust="spacingAndGlyphs" textLength="184" x="465" y="766.1387">PartyIdentificationInformation</text></a><!--class Tax--><a target="_top" xlink:actuate="onRequest" xlink:href="../Tax.html" xlink:show="new" xlink:title="Amount of money due to the government or tax authority, according to various pre-defined parameters such as thresholds or income." xlink:type="simple"><rect fill="#EEEEEE" filter="url(#fttgdhjcqvpak)" height="23.9688" id="Tax" style="stroke: #A80036; stroke-width: 1.5;" width="27" x="543.75" y="648"/><rect fill="#EEEEEE" height="23.9688" style="stroke: #A80036; stroke-width: 1.5;" width="27" x="543.75" y="648"/><text fill="#000000" font-family="sans-serif" font-size="12" lengthAdjust="spacingAndGlyphs" textLength="21" x="546.75" y="664.1387">Tax</text></a><!--class Location--><a target="_top" xlink:actuate="onRequest" xlink:href="../Location.html" xlink:show="new" xlink:title="Specifies a place." xlink:type="simple"><rect fill="#EEEEEE" filter="url(#fttgdhjcqvpak)" height="23.9688" id="Location" style="stroke: #A80036; stroke-width: 1.5;" width="59" x="595.75" y="546"/><rect fill="#EEEEEE" height="23.9688" style="stroke: #A80036; stroke-width: 1.5;" width="59" x="595.75" y="546"/><text fill="#000000" font-family="sans-serif" font-size="12" lengthAdjust="spacingAndGlyphs" textLength="53" x="598.75" y="562.1387">Location</text></a><!--class PowerOfAttorney--><a target="_top" xlink:actuate="onRequest" xlink:href="../PowerOfAttorney.html" xlink:show="new" xlink:title="Document that transfers specific rights from a party to another party." xlink:type="simple"><rect fill="#EEEEEE" filter="url(#fttgdhjcqvpak)" height="23.9688" id="PowerOfAttorney" style="stroke: #A80036; stroke-width: 1.5;" width="110" x="462" y="442"/><rect fill="#EEEEEE" height="23.9688" style="stroke: #A80036; stroke-width: 1.5;" width="110" x="462" y="442"/><text fill="#000000" font-family="sans-serif" font-size="12" lengthAdjust="spacingAndGlyphs" textLength="104" x="465" y="458.1387">PowerOfAttorney</text></a><!--class Security--><a target="_top" xlink:actuate="onRequest" xlink:href="../Security.html" xlink:show="new" xlink:title="Financial instruments representing a sum of rights of the investor vis-a-vis the issuer." xlink:type="simple"><rect fill="#EEEEEE" filter="url(#fttgdhjcqvpak)" height="23.9688" id="Security" style="stroke: #A80036; stroke-width: 1.5;" width="56" x="605.5" y="302"/><rect fill="#EEEEEE" height="23.9688" style="stroke: #A80036; stroke-width: 1.5;" width="56" x="605.5" y="302"/><text fill="#000000" font-family="sans-serif" font-size="12" lengthAdjust="spacingAndGlyphs" textLength="50" x="608.5" y="318.1387">Security</text></a><!--class OrganisationIdentification--><a target="_top" xlink:actuate="onRequest" xlink:href="../OrganisationIdentification.html" xlink:show="new" xlink:title="Unique and unambiguous way to identify an organisation." xlink:type="simple"><rect fill="#EEEEEE" filter="url(#fttgdhjcqvpak)" height="23.9688" id="OrganisationIdentification" style="stroke: #A80036; stroke-width: 1.5;" width="167" x="2079.75" y="1014"/><rect fill="#EEEEEE" height="23.9688" style="stroke: #A80036; stroke-width: 1.5;" width="167" x="2079.75" y="1014"/><text fill="#000000" font-family="sans-serif" font-size="12" lengthAdjust="spacingAndGlyphs" textLength="161" x="2082.75" y="1030.1387">OrganisationIdentification</text></a><!--class SecuritiesModification--><a target="_top" xlink:actuate="onRequest" xlink:href="../SecuritiesModification.html" xlink:show="new" xlink:title="Modification of the reference data of a security or of the organisation that issued it." xlink:type="simple"><rect fill="#EEEEEE" filter="url(#fttgdhjcqvpak)" height="23.9688" id="SecuritiesModification" style="stroke: #A80036; stroke-width: 1.5;" width="143" x="2070.75" y="928"/><rect fill="#EEEEEE" height="23.9688" style="stroke: #A80036; stroke-width: 1.5;" width="143" x="2070.75" y="928"/><text fill="#000000" font-family="sans-serif" font-size="12" lengthAdjust="spacingAndGlyphs" textLength="137" x="2073.75" y="944.1387">SecuritiesModification</text></a><!--class Sector--><a target="_top" xlink:actuate="onRequest" xlink:href="../Sector.html" xlink:show="new" xlink:title="Type of business of the organisation, for example, pharmaceutical." xlink:type="simple"><rect fill="#EEEEEE" filter="url(#fttgdhjcqvpak)" height="23.9688" id="Sector" style="stroke: #A80036; stroke-width: 1.5;" width="47" x="2082.75" y="838"/><rect fill="#EEEEEE" height="23.9688" style="stroke: #A80036; stroke-width: 1.5;" width="47" x="2082.75" y="838"/><text fill="#000000" font-family="sans-serif" font-size="12" lengthAdjust="spacingAndGlyphs" textLength="41" x="2085.75" y="854.1387">Sector</text></a><!--class BuyOrSellIndicationOfInterest--><a target="_top" xlink:actuate="onRequest" xlink:href="../BuyOrSellIndicationOfInterest.html" xlink:show="new" xlink:title="Intention to buy or sell a financial Instrument." xlink:type="simple"><rect fill="#EEEEEE" filter="url(#fttgdhjcqvpak)" height="23.9688" id="BuyOrSellIndicationOfInterest" style="stroke: #A80036; stroke-width: 1.5;" width="187" x="2069.75" y="750"/><rect fill="#EEEEEE" height="23.9688" style="stroke: #A80036; stroke-width: 1.5;" width="187" x="2069.75" y="750"/><text fill="#000000" font-family="sans-serif" font-size="12" lengthAdjust="spacingAndGlyphs" textLength="181" x="2072.75" y="766.1387">BuyOrSellIndicationOfInterest</text></a><!--class OrganisationStrategy--><a target="_top" xlink:actuate="onRequest" xlink:href="../OrganisationStrategy.html" xlink:show="new" xlink:title="Strategy is organisation based." xlink:type="simple"><rect fill="#EEEEEE" filter="url(#fttgdhjcqvpak)" height="23.9688" id="OrganisationStrategy" style="stroke: #A80036; stroke-width: 1.5;" width="139" x="2103.75" y="648"/><rect fill="#EEEEEE" height="23.9688" style="stroke: #A80036; stroke-width: 1.5;" width="139" x="2103.75" y="648"/><text fill="#000000" font-family="sans-serif" font-size="12" lengthAdjust="spacingAndGlyphs" textLength="133" x="2106.75" y="664.1387">OrganisationStrategy</text></a><!--class OrganisationHierarchy--><a target="_top" xlink:actuate="onRequest" xlink:href="../OrganisationHierarchy.html" xlink:show="new" xlink:title="Description of the structure of a company." xlink:type="simple"><rect fill="#EEEEEE" filter="url(#fttgdhjcqvpak)" height="23.9688" id="OrganisationHierarchy" style="stroke: #A80036; stroke-width: 1.5;" width="145" x="2100.75" y="546"/><rect fill="#EEEEEE" height="23.9688" style="stroke: #A80036; stroke-width: 1.5;" width="145" x="2100.75" y="546"/><text fill="#000000" font-family="sans-serif" font-size="12" lengthAdjust="spacingAndGlyphs" textLength="139" x="2103.75" y="562.1387">OrganisationHierarchy</text></a><!--class RepresentativeOfficer--><a target="_top" xlink:actuate="onRequest" xlink:href="../RepresentativeOfficer.html" xlink:show="new" xlink:title="Officer who has some rights to represent a given organisation. In account management, it is the person to be contacted by the account servicer." xlink:type="simple"><rect fill="#EEEEEE" filter="url(#fttgdhjcqvpak)" height="23.9688" id="RepresentativeOfficer" style="stroke: #A80036; stroke-width: 1.5;" width="141" x="2114.75" y="442"/><rect fill="#EEEEEE" height="23.9688" style="stroke: #A80036; stroke-width: 1.5;" width="141" x="2114.75" y="442"/><text fill="#000000" font-family="sans-serif" font-size="12" lengthAdjust="spacingAndGlyphs" textLength="135" x="2117.75" y="458.1387">RepresentativeOfficer</text></a><!--link RolePlayer to Party--><path d="M1791.34,74.632 C1759.1,94.187 1711.89,122.823 1679.65,142.376 " fill="none" id="RolePlayer-Party" style="stroke: #A80036; stroke-width: 1.0;"/><polygon fill="none" points="1788.05,68.44,1808.78,64.05,1795.31,80.406,1788.05,68.44" style="stroke: #A80036; stroke-width: 1.0;"/><!--link Party to Organisation--><path d="M1629.89,206.657 C1623.51,225.048 1615.93,246.893 1609.31,265.986 " fill="none" id="Party-Organisation" style="stroke: #A80036; stroke-width: 1.0;"/><polygon fill="none" points="1623.31,204.291,1636.47,187.69,1636.53,208.88,1623.31,204.291" style="stroke: #A80036; stroke-width: 1.0;"/><!--link Organisation to FinancialInstitution--><path d="M1605.14,382.016 C1609.31,405.054 1613.54,428.387 1615.96,441.731 " fill="none" id="Organisation-FinancialInstitution" style="stroke: #A80036; stroke-width: 1.0;"/><polygon fill="none" points="1598.21,383.033,1601.53,362.106,1611.99,380.538,1598.21,383.033" style="stroke: #A80036; stroke-width: 1.0;"/><!--link Organisation to NonFinancialInstitution--><path d="M1676.33,373.671 C1712.66,399.251 1751.74,426.769 1772.99,441.731 " fill="none" id="Organisation-NonFinancialInstitution" style="stroke: #A80036; stroke-width: 1.0;"/><polygon fill="none" points="1672.23,379.343,1659.9,362.106,1680.29,367.896,1672.23,379.343" style="stroke: #A80036; stroke-width: 1.0;"/><!--link DateTimePeriod to Role--><!--link PartyIdentificationInformation to ContactPoint--><!--link Tax to PartyIdentificationInformation--><!--link Location to Tax--><!--link PowerOfAttorney to Location--><!--link Security to PowerOfAttorney--><!--link SecuritiesModification to OrganisationIdentification--><!--link Sector to SecuritiesModification--><!--link BuyOrSellIndicationOfInterest to Sector--><!--link OrganisationStrategy to BuyOrSellIndicationOfInterest--><!--link OrganisationHierarchy to OrganisationStrategy--><!--link RepresentativeOfficer to OrganisationHierarchy--><!--link RolePlayer to Role--><path d="M1862.35,56.37 C1898.74,60.96 1956.29,71.344 2001,94 C2022.37,104.83 2031.97,107.243 2042,129 C2068.97,187.491 2029.28,264.497 2009.31,297.21 " fill="none" id="RolePlayer-Role" style="stroke: #A80036; stroke-width: 1.0;"/><polygon fill="#A80036" points="2006.52,301.708,2014.6683,296.1757,2009.1594,297.4614,2007.8738,291.9526,2006.52,301.708" style="stroke: #A80036; stroke-width: 1.0;"/><text fill="#000000" font-family="sans-serif" font-size="13" lengthAdjust="spacingAndGlyphs" textLength="27" x="2052" y="169.0669">Role</text><text fill="#000000" font-family="sans-serif" font-size="13" lengthAdjust="spacingAndGlyphs" textLength="23" x="1980.7876" y="290.9147">1..*</text><!--link RolePlayer to DateTimePeriod--><path d="M1841.43,64.05 C1867.92,84.328 1924.26,127.457 1953.51,149.848 " fill="none" id="RolePlayer-DateTimePeriod" style="stroke: #A80036; stroke-width: 1.0;"/><polygon fill="#A80036" points="1957.63,152.996,1952.9202,144.3463,1953.6616,149.9544,1948.0535,150.6958,1957.63,152.996" style="stroke: #A80036; stroke-width: 1.0;"/><text fill="#000000" font-family="sans-serif" font-size="13" lengthAdjust="spacingAndGlyphs" textLength="86" x="1905" y="107.0669">ValidityPeriod</text><text fill="#000000" font-family="sans-serif" font-size="13" lengthAdjust="spacingAndGlyphs" textLength="24" x="1923.1356" y="142.0428">0..1</text><!--link Party to ContactPoint--><path d="M1477.46,167.008 C1167.89,169.778 515.031,180.066 292,218 C159.956,240.458 6,179.06 6,313 C6,313 6,313 6,763 C6,808.501 331.762,836.579 457.395,845.716 " fill="none" id="Party-ContactPoint" style="stroke: #A80036; stroke-width: 1.0;"/><polygon fill="#A80036" points="462.503,846.085,453.8144,841.4474,457.516,845.725,453.2384,849.4266,462.503,846.085" style="stroke: #A80036; stroke-width: 1.0;"/><text fill="#000000" font-family="sans-serif" font-size="13" lengthAdjust="spacingAndGlyphs" textLength="82" x="7" y="562.0669">ContactPoint</text><text fill="#000000" font-family="sans-serif" font-size="13" lengthAdjust="spacingAndGlyphs" textLength="23" x="431.6479" y="840.6488">1..*</text><!--link Party to PartyIdentificationInformation--><path d="M1477.38,165.218 C1086.62,165.59 144,180.246 144,313 C144,313 144,313 144,661 C144,725.169 334.716,748.305 456.948,756.543 " fill="none" id="Party-PartyIdentificationInformation" style="stroke: #A80036; stroke-width: 1.0;"/><polygon fill="#A80036" points="461.99,756.877,453.2736,752.2918,457.0009,756.5471,452.7457,760.2744,461.99,756.877" style="stroke: #A80036; stroke-width: 1.0;"/><text fill="#000000" font-family="sans-serif" font-size="13" lengthAdjust="spacingAndGlyphs" textLength="81" x="145" y="511.0669">Identification</text><text fill="#000000" font-family="sans-serif" font-size="13" lengthAdjust="spacingAndGlyphs" textLength="23" x="431.1026" y="752.0764">1..*</text><!--link Party to Tax--><path d="M1477.37,168.476 C1174.24,173.695 555.046,187.908 461,218 C320.31,263.017 196.691,361.758 270,490 C330.342,595.56 485.193,641.73 538.58,654.855 " fill="none" id="Party-Tax" style="stroke: #A80036; stroke-width: 1.0;"/><polygon fill="#A80036" points="543.714,656.091,535.9015,650.094,538.8531,654.9197,534.0274,657.8714,543.714,656.091" style="stroke: #A80036; stroke-width: 1.0;"/><text fill="#000000" font-family="sans-serif" font-size="13" lengthAdjust="spacingAndGlyphs" textLength="121" x="271" y="458.0669">TaxationConditions</text><text fill="#000000" font-family="sans-serif" font-size="13" lengthAdjust="spacingAndGlyphs" textLength="8" x="527.6472" y="647.4582">1</text><!--link Party to Location--><path d="M1477.35,167.291 C1237.8,170.426 818.28,181.171 759,218 C696.441,256.866 729.552,310.401 677,362 C657.132,381.508 636.214,368.057 622,392 C593.658,439.743 609.944,509.754 619.533,540.962 " fill="none" id="Party-Location" style="stroke: #A80036; stroke-width: 1.0;"/><polygon fill="#A80036" points="621.121,545.977,622.2193,536.1896,619.6125,541.21,614.592,538.6032,621.121,545.977" style="stroke: #A80036; stroke-width: 1.0;"/><text fill="#000000" font-family="sans-serif" font-size="13" lengthAdjust="spacingAndGlyphs" textLength="55" x="623" y="405.0669">Domicile</text><text fill="#000000" font-family="sans-serif" font-size="13" lengthAdjust="spacingAndGlyphs" textLength="8" x="608.9829" y="535.0173">1</text><!--link Party to Location--><path d="M1477.41,171.86 C1283.99,179.664 985.289,195.192 938,218 C781.152,293.648 664.983,485.271 633.509,541.354 " fill="none" id="Party-Location" style="stroke: #A80036; stroke-width: 1.0;"/><polygon fill="#A80036" points="631.056,545.757,638.9303,539.8413,633.4893,541.389,631.9416,535.948,631.056,545.757" style="stroke: #A80036; stroke-width: 1.0;"/><text fill="#000000" font-family="sans-serif" font-size="13" lengthAdjust="spacingAndGlyphs" textLength="65" x="735" y="405.0669">Residence</text><text fill="#000000" font-family="sans-serif" font-size="13" lengthAdjust="spacingAndGlyphs" textLength="7" x="623.4886" y="534.9799">*</text><!--link Party to Location--><path d="M1477.32,166.064 C1180.21,167.277 582.107,175.101 497,218 C387.019,273.437 359.188,400.692 444,490 C483.086,531.158 549.695,547.183 590.29,553.315 " fill="none" id="Party-Location" style="stroke: #A80036; stroke-width: 1.0;"/><polygon fill="#A80036" points="595.596,554.083,587.2612,548.8359,590.6475,553.3673,586.1161,556.7535,595.596,554.083" style="stroke: #A80036; stroke-width: 1.0;"/><text fill="#000000" font-family="sans-serif" font-size="13" lengthAdjust="spacingAndGlyphs" textLength="54" x="400" y="405.0669">Location</text><text fill="#000000" font-family="sans-serif" font-size="13" lengthAdjust="spacingAndGlyphs" textLength="8" x="579.7735" y="547.7214">1</text><!--link Party to PowerOfAttorney--><path d="M1477.33,169.556 C1194.65,176.245 643.428,192.377 558,218 C517.918,230.022 497.717,229.642 477,266 C444.572,322.911 485.886,403.172 506.539,436.988 " fill="none" id="Party-PowerOfAttorney" style="stroke: #A80036; stroke-width: 1.0;"/><polygon fill="#A80036" points="509.425,441.632,508.0718,431.8765,506.7858,437.3853,501.2771,436.0993,509.425,441.632" style="stroke: #A80036; stroke-width: 1.0;"/><text fill="#000000" font-family="sans-serif" font-size="13" lengthAdjust="spacingAndGlyphs" textLength="107" x="478" y="318.0669">PowerOfAttorney</text><text fill="#000000" font-family="sans-serif" font-size="13" lengthAdjust="spacingAndGlyphs" textLength="24" x="477.6095" y="430.8135">0..1</text><!--link Party to Security--><path d="M1477.28,168.14 C1183.99,172.73 603.636,185.841 573,218 C549.117,243.071 587.2,279.048 612.8,298.753 " fill="none" id="Party-Security" style="stroke: #A80036; stroke-width: 1.0;"/><polygon fill="#A80036" points="616.79,301.772,612.0269,293.1515,612.8029,298.7549,607.1995,299.5309,616.79,301.772" style="stroke: #A80036; stroke-width: 1.0;"/><text fill="#000000" font-family="sans-serif" font-size="13" lengthAdjust="spacingAndGlyphs" textLength="112" x="574" y="231.0669">CloseLinkSecurity</text><text fill="#000000" font-family="sans-serif" font-size="13" lengthAdjust="spacingAndGlyphs" textLength="8" x="600.5986" y="290.9999">1</text><!--link Organisation to OrganisationIdentification--><path d="M1708.68,334.385 C1766.86,343.663 1838.54,354.382 1903,362 C2059.37,380.478 2103.68,352.133 2256,392 C2319.3,408.568 2390,387.564 2390,453 C2390,453 2390,453 2390,941 C2390,974.8898 2299.88,999.4207 2233.21,1012.9324 " fill="none" id="Organisation-OrganisationIdentification" style="stroke: #A80036; stroke-width: 1.0;"/><polygon fill="#A80036" points="2228.05,1013.966,2237.6619,1016.1135,2232.9519,1012.9804,2236.085,1008.2704,2228.05,1013.966" style="stroke: #A80036; stroke-width: 1.0;"/><text fill="#000000" font-family="sans-serif" font-size="13" lengthAdjust="spacingAndGlyphs" textLength="162" x="2391" y="715.0669">OrganisationIdentification</text><text fill="#000000" font-family="sans-serif" font-size="13" lengthAdjust="spacingAndGlyphs" textLength="7" x="2240.7781" y="1003.0025">*</text><!--link Organisation to Organisation--><path d="M1708.72,298.883 C1728.94,300.898 1743,305.938 1743,314 C1743,321.37 1731.25,326.213 1713.79,328.531 " fill="none" id="Organisation-Organisation" style="stroke: #A80036; stroke-width: 1.0;"/><polygon fill="#A80036" points="1708.72,329.117,1718.1182,332.0622,1713.6872,328.5456,1717.2039,324.1146,1708.72,329.117" style="stroke: #A80036; stroke-width: 1.0;"/><text fill="#000000" font-family="sans-serif" font-size="13" lengthAdjust="spacingAndGlyphs" textLength="123" x="1749" y="318.0669">ParentOrganisation</text><text fill="#000000" font-family="sans-serif" font-size="13" lengthAdjust="spacingAndGlyphs" textLength="8" x="1717.4752" y="325.675">1</text><!--link Organisation to SecuritiesModification--><path d="M1477.34,338.896 C1419.23,358.379 1361,392.896 1361,453 C1361,453 1361,453 1361,851 C1361,921.414 1868.78,935.489 2065.46,938.3 " fill="none" id="Organisation-SecuritiesModification" style="stroke: #A80036; stroke-width: 1.0;"/><polygon fill="#A80036" points="2070.62,938.372,2061.6781,934.2438,2065.6205,938.3006,2061.5638,942.243,2070.62,938.372" style="stroke: #A80036; stroke-width: 1.0;"/><text fill="#000000" font-family="sans-serif" font-size="13" lengthAdjust="spacingAndGlyphs" textLength="139" x="1362" y="664.0669">SecuritiesModification</text><text fill="#000000" font-family="sans-serif" font-size="13" lengthAdjust="spacingAndGlyphs" textLength="8" x="2054.7951" y="950.9692">1</text><!--link Organisation to Location--><path d="M1477.12,339.642 C1402.52,357.308 1304.28,383.972 1221,418 C1137.76,452.011 1129.86,489.29 1044,516 C972.407,538.272 746.454,551.179 659.537,555.427 " fill="none" id="Organisation-Location" style="stroke: #A80036; stroke-width: 1.0;"/><polygon fill="#A80036" points="654.511,555.67,663.6947,559.2282,659.5051,555.4272,663.3061,551.2376,654.511,555.67" style="stroke: #A80036; stroke-width: 1.0;"/><text fill="#000000" font-family="sans-serif" font-size="13" lengthAdjust="spacingAndGlyphs" textLength="111" x="1222" y="458.0669">PlaceOfOperation</text><text fill="#000000" font-family="sans-serif" font-size="13" lengthAdjust="spacingAndGlyphs" textLength="7" x="662.906" y="548.9827">*</text><!--link Organisation to Location--><path d="M1477.39,326.438 C1351.05,340.704 1143.51,369.34 970,418 C938.097,426.947 735.592,510.894 656.546,543.83 " fill="none" id="Organisation-Location" style="stroke: #A80036; stroke-width: 1.0;"/><polygon fill="#A80036" points="651.521,545.924,661.3671,546.1554,656.1365,544.0012,658.2907,538.7706,651.521,545.924" style="stroke: #A80036; stroke-width: 1.0;"/><text fill="#000000" font-family="sans-serif" font-size="13" lengthAdjust="spacingAndGlyphs" textLength="124" x="971" y="458.0669">PlaceOfRegistration</text><text fill="#000000" font-family="sans-serif" font-size="13" lengthAdjust="spacingAndGlyphs" textLength="24" x="631.0829" y="534.9461">0..1</text><!--link Organisation to Sector--><path d="M1546.15,362.228 C1538.62,371.561 1531.5,381.678 1526,392 C1520.37,402.562 1520.57,406.136 1519,418 C1506.59,511.808 1521.96,554.375 1592,618 C1744.5,756.531 1993.93,823.464 2077.62,842.85 " fill="none" id="Organisation-Sector" style="stroke: #A80036; stroke-width: 1.0;"/><polygon fill="#A80036" points="2082.65,844.006,2074.7681,838.1004,2077.7758,842.8914,2072.9848,845.8991,2082.65,844.006" style="stroke: #A80036; stroke-width: 1.0;"/><text fill="#000000" font-family="sans-serif" font-size="13" lengthAdjust="spacingAndGlyphs" textLength="42" x="1593" y="613.0669">Sector</text><text fill="#000000" font-family="sans-serif" font-size="13" lengthAdjust="spacingAndGlyphs" textLength="8" x="2066.6788" y="836.56">1</text><!--link Organisation to BuyOrSellIndicationOfInterest--><path d="M1557.37,362.254 C1534.11,399.322 1512.4,450.995 1538,490 C1655.69,669.306 1920.28,730.567 2064.58,751.048 " fill="none" id="Organisation-BuyOrSellIndicationOfInterest" style="stroke: #A80036; stroke-width: 1.0;"/><polygon fill="#A80036" points="2069.66,751.76,2061.2936,746.5635,2064.7072,751.0743,2060.1965,754.4879,2069.66,751.76" style="stroke: #A80036; stroke-width: 1.0;"/><text fill="#000000" font-family="sans-serif" font-size="13" lengthAdjust="spacingAndGlyphs" textLength="172" x="1609" y="562.0669">RelatedIndicationOfInterest</text><text fill="#000000" font-family="sans-serif" font-size="13" lengthAdjust="spacingAndGlyphs" textLength="24" x="2037.8316" y="746.6316">0..1</text><!--link Organisation to OrganisationStrategy--><path d="M1708.74,333.899 C1766.94,343.057 1838.6,353.815 1903,362 C2032.42,378.449 2067.46,364.541 2195,392 C2230.72,399.691 2251.63,388.356 2273,418 C2312.59,472.922 2292.91,509.266 2263,570 C2247.25,601.972 2215.33,629.156 2194.06,644.785 " fill="none" id="Organisation-OrganisationStrategy" style="stroke: #A80036; stroke-width: 1.0;"/><polygon fill="#A80036" points="2189.95,647.755,2199.5872,645.7243,2194.0022,644.8259,2194.9006,639.2408,2189.95,647.755" style="stroke: #A80036; stroke-width: 1.0;"/><text fill="#000000" font-family="sans-serif" font-size="13" lengthAdjust="spacingAndGlyphs" textLength="55" x="2293" y="511.0669">Strategy</text><text fill="#000000" font-family="sans-serif" font-size="13" lengthAdjust="spacingAndGlyphs" textLength="24" x="2166.1756" y="636.9773">0..1</text><!--link Organisation to OrganisationHierarchy--><path d="M1708.69,343.793 C1763.24,360.474 1827.69,384.839 1880,418 C1918.22,442.23 1913.18,466.738 1952,490 C1998.45,517.838 2057.41,534.952 2102.75,544.909 " fill="none" id="Organisation-OrganisationHierarchy" style="stroke: #A80036; stroke-width: 1.0;"/><polygon fill="#A80036" points="2107.65,545.969,2099.6995,540.1561,2102.7631,544.9116,2098.0076,547.9752,2107.65,545.969" style="stroke: #A80036; stroke-width: 1.0;"/><text fill="#000000" font-family="sans-serif" font-size="13" lengthAdjust="spacingAndGlyphs" textLength="142" x="1953" y="458.0669">OrganisationHierarchy</text><text fill="#000000" font-family="sans-serif" font-size="13" lengthAdjust="spacingAndGlyphs" textLength="8" x="2084.7506" y="538.01">1</text><!--link Organisation to RepresentativeOfficer--><path d="M1708.87,334.505 C1809.68,352.576 1959.24,382.049 2087,418 C2109.12,424.225 2133.46,432.907 2152.35,440.066 " fill="none" id="Organisation-RepresentativeOfficer" style="stroke: #A80036; stroke-width: 1.0;"/><polygon fill="#A80036" points="2157.03,441.851,2150.0515,434.9011,2152.3596,440.0657,2147.195,442.3737,2157.03,441.851" style="stroke: #A80036; stroke-width: 1.0;"/><text fill="#000000" font-family="sans-serif" font-size="13" lengthAdjust="spacingAndGlyphs" textLength="137" x="2048" y="405.0669">RepresentativeOfficer</text><text fill="#000000" font-family="sans-serif" font-size="13" lengthAdjust="spacingAndGlyphs" textLength="8" x="2136.6106" y="430.848">1</text><!--link DateTimePeriod to PartyIdentificationInformation--><path d="M1927.16,177.065 C1911.91,180.706 1894.75,184.671 1879,188 C1694.1,227.097 1642.09,211.955 1461,266 C1293.01,316.136 1257.42,347.28 1097,418 C1027.5,448.641 1014.25,466.555 942,490 C924.341,495.73 917.932,490.383 901,498 C755.627,563.394 615.073,700.889 571.088,746.182 " fill="none" id="DateTimePeriod-PartyIdentificationInformation" style="stroke: #A80036; stroke-width: 1.0;"/><polygon fill="#A80036" points="567.609,749.78,576.7408,746.0908,571.0848,746.1857,570.9899,740.5296,567.609,749.78" style="stroke: #A80036; stroke-width: 1.0;"/><text fill="#000000" font-family="sans-serif" font-size="13" lengthAdjust="spacingAndGlyphs" textLength="129" x="902" y="511.0669">RelatedIdentification</text><text fill="#000000" font-family="sans-serif" font-size="13" lengthAdjust="spacingAndGlyphs" textLength="7" x="561.6326" y="739.0106">*</text><!--link ContactPoint to ContactPoint--><path d="M549.314,841.849 C568.001,841.181 584,843.898 584,850 C584,855.53 570.86,858.279 554.488,858.25 " fill="none" id="ContactPoint-ContactPoint" style="stroke: #A80036; stroke-width: 1.0;"/><polygon fill="#A80036" points="549.314,858.151,558.2358,862.3226,554.3131,858.2467,558.3889,854.324,549.314,858.151" style="stroke: #A80036; stroke-width: 1.0;"/><text fill="#000000" font-family="sans-serif" font-size="13" lengthAdjust="spacingAndGlyphs" textLength="80" x="590" y="854.0669">MainContact</text><text fill="#000000" font-family="sans-serif" font-size="13" lengthAdjust="spacingAndGlyphs" textLength="8" x="557.6973" y="854.1703">1</text><!--link Security to Sector--><path d="M660.596,315.232 C771.521,316.774 1183,328.528 1268,418 C1329.59,482.832 1266.79,531.639 1290,618 C1302.86,665.851 1295.87,689.599 1335,720 C1454.59,812.919 1951.66,841.869 2077.13,847.765 " fill="none" id="Security-Sector" style="stroke: #A80036; stroke-width: 1.0;"/><polygon fill="#A80036" points="2082.48,848.012,2073.6849,843.5796,2077.4859,847.7692,2073.2963,851.5702,2082.48,848.012" style="stroke: #A80036; stroke-width: 1.0;"/><text fill="#000000" font-family="sans-serif" font-size="13" lengthAdjust="spacingAndGlyphs" textLength="42" x="1291" y="613.0669">Sector</text><text fill="#000000" font-family="sans-serif" font-size="13" lengthAdjust="spacingAndGlyphs" textLength="8" x="2066.8269" y="861.3725">1</text><!--link Security to SecuritiesModification--><path d="M660.623,314.162 C729.668,313.612 911.484,321.91 1013,418 C1060.26,462.733 1059,491.927 1059,557 C1059,557 1059,557 1059,851 C1059,901.555 1818.62,929.154 2065.5,936.789 " fill="none" id="Security-SecuritiesModification" style="stroke: #A80036; stroke-width: 1.0;"/><polygon fill="#A80036" points="2070.52,936.944,2061.6501,932.6632,2065.5225,936.7869,2061.3988,940.6592,2070.52,936.944" style="stroke: #A80036; stroke-width: 1.0;"/><text fill="#000000" font-family="sans-serif" font-size="13" lengthAdjust="spacingAndGlyphs" textLength="76" x="1060" y="664.0669">Modification</text><text fill="#000000" font-family="sans-serif" font-size="13" lengthAdjust="spacingAndGlyphs" textLength="24" x="2038.7681" y="932.0966">0..1</text></g></svg>