<?xml version="1.0" encoding="UTF-8" standalone="no"?><svg xmlns="http://www.w3.org/2000/svg" xmlns:xlink="http://www.w3.org/1999/xlink" contentScriptType="application/ecmascript" contentStyleType="text/css" height="1060px" preserveAspectRatio="none" style="width:2565px;height:1060px;" version="1.1" viewBox="0 0 2565 1060" width="2565px" zoomAndPan="magnify"><defs><filter height="300%" id="fc1qx79x45hpp" width="300%" x="-1" y="-1"><feGaussianBlur result="blurOut" stdDeviation="2.0"/><feColorMatrix in="blurOut" result="blurOut2" type="matrix" values="0 0 0 0 0 0 0 0 0 0 0 0 0 0 0 0 0 0 .4 0"/><feOffset dx="4.0" dy="4.0" in="blurOut2" result="blurOut3"/><feBlend in="SourceGraphic" in2="blurOut3" mode="normal"/></filter></defs><g><!--cluster ##846--><!--cluster ##861--><!--cluster ##866--><!--cluster ##879--><!--class RolePlayer--><a target="_top" xlink:actuate="onRequest" xlink:href="../RolePlayer.html" xlink:show="new" xlink:title="Type of entity that plays a specific role in a specific context." xlink:type="simple"><rect fill="#FEFEEE" filter="url(#fc1qx79x45hpp)" height="23.9688" id="RolePlayer" style="stroke: #A80036; stroke-width: 1.5;" width="71" x="1791.75" y="40"/><rect fill="#FEFEEE" height="23.9688" style="stroke: #A80036; stroke-width: 1.5;" width="71" x="1791.75" y="40"/><text fill="#000000" font-family="sans-serif" font-size="12" lengthAdjust="spacingAndGlyphs" textLength="65" x="1794.75" y="56.1387">RolePlayer</text></a><!--class Party--><a target="_top" xlink:actuate="onRequest" xlink:href="../Party.html" xlink:show="new" xlink:title="Entity involved in an activity." xlink:type="simple"><rect fill="#FEFEEE" filter="url(#fc1qx79x45hpp)" height="57.5781" id="Party" style="stroke: #A80036; stroke-width: 1.5;" width="334" x="1477.5" y="142"/><rect fill="#FEFEEE" height="23.9688" style="stroke: #A80036; stroke-width: 1.5;" width="334" x="1477.5" y="142"/><text fill="#000000" font-family="sans-serif" font-size="12" lengthAdjust="spacingAndGlyphs" textLength="32" x="1628.5" y="158.1387">Party</text><line style="stroke: #A80036; stroke-width: 1.5;" x1="1478.5" x2="1810.5" y1="165.9688" y2="165.9688"/><ellipse cx="1488.5" cy="177.8711" fill="#84BE84" rx="3" ry="3" style="stroke: #038048; stroke-width: 1.0;"/><text fill="#000000" font-family="sans-serif" font-size="11" lengthAdjust="spacingAndGlyphs" textLength="133" x="1497.5" y="180.1792">MoneyLaunderingCheck</text><text fill="#000000" font-family="sans-serif" font-size="11" font-style="italic" lengthAdjust="spacingAndGlyphs" textLength="171" x="1634.5" y="180.1792">(MoneyLaunderingCheckCode)</text><ellipse cx="1488.5" cy="190.6758" fill="#84BE84" rx="3" ry="3" style="stroke: #038048; stroke-width: 1.0;"/><text fill="#000000" font-family="sans-serif" font-size="11" lengthAdjust="spacingAndGlyphs" textLength="73" x="1497.5" y="192.9839">CreditQuality</text><text fill="#000000" font-family="sans-serif" font-size="11" font-style="italic" lengthAdjust="spacingAndGlyphs" textLength="111" x="1574.5" y="192.9839">(CreditQualityCode)</text></a><!--class Organisation--><a target="_top" xlink:actuate="onRequest" xlink:href="../Organisation.html" xlink:show="new" xlink:title="Organised structure that is set up for a particular purpose. For example, a business, government body, department, charity, or financial institution." xlink:type="simple"><rect fill="#FEFECE" filter="url(#fc1qx79x45hpp)" height="95.9922" id="Organisation" style="stroke: #A80036; stroke-width: 1.5;" width="232" x="1477.5" y="278"/><rect fill="#FEFECE" height="23.9688" style="stroke: #A80036; stroke-width: 1.5;" width="232" x="1477.5" y="278"/><text fill="#000000" font-family="sans-serif" font-size="12" lengthAdjust="spacingAndGlyphs" textLength="80" x="1553.5" y="294.1387">Organisation</text><line style="stroke: #A80036; stroke-width: 1.5;" x1="1478.5" x2="1708.5" y1="301.9688" y2="301.9688"/><ellipse cx="1488.5" cy="313.8711" fill="#84BE84" rx="3" ry="3" style="stroke: #038048; stroke-width: 1.0;"/><text fill="#000000" font-family="sans-serif" font-size="11" lengthAdjust="spacingAndGlyphs" textLength="47" x="1497.5" y="316.1792">Purpose</text><text fill="#000000" font-family="sans-serif" font-size="11" font-style="italic" lengthAdjust="spacingAndGlyphs" textLength="70" x="1548.5" y="316.1792">(Max35Text)</text><ellipse cx="1488.5" cy="326.6758" fill="#84BE84" rx="3" ry="3" style="stroke: #038048; stroke-width: 1.0;"/><text fill="#000000" font-family="sans-serif" font-size="11" lengthAdjust="spacingAndGlyphs" textLength="94" x="1497.5" y="328.9839">RegistrationDate</text><text fill="#000000" font-family="sans-serif" font-size="11" font-style="italic" lengthAdjust="spacingAndGlyphs" textLength="81" x="1595.5" y="328.9839">(ISODateTime)</text><ellipse cx="1488.5" cy="339.4805" fill="#84BE84" rx="3" ry="3" style="stroke: #038048; stroke-width: 1.0;"/><text fill="#000000" font-family="sans-serif" font-size="11" lengthAdjust="spacingAndGlyphs" textLength="64" x="1497.5" y="341.7886">Description</text><text fill="#000000" font-family="sans-serif" font-size="11" font-style="italic" lengthAdjust="spacingAndGlyphs" textLength="77" x="1565.5" y="341.7886">(Max350Text)</text><ellipse cx="1488.5" cy="352.2852" fill="#84BE84" rx="3" ry="3" style="stroke: #038048; stroke-width: 1.0;"/><text fill="#000000" font-family="sans-serif" font-size="11" lengthAdjust="spacingAndGlyphs" textLength="83" x="1497.5" y="354.5933">LegalStructure</text><text fill="#000000" font-family="sans-serif" font-size="11" font-style="italic" lengthAdjust="spacingAndGlyphs" textLength="119" x="1584.5" y="354.5933">(LegalStructureCode)</text><ellipse cx="1488.5" cy="365.0898" fill="#84BE84" rx="3" ry="3" style="stroke: #038048; stroke-width: 1.0;"/><text fill="#000000" font-family="sans-serif" font-size="11" lengthAdjust="spacingAndGlyphs" textLength="107" x="1497.5" y="367.3979">EstablishmentDate</text><text fill="#000000" font-family="sans-serif" font-size="11" font-style="italic" lengthAdjust="spacingAndGlyphs" textLength="53" x="1608.5" y="367.3979">(ISODate)</text></a><!--class FinancialInstitution--><a target="_top" xlink:actuate="onRequest" xlink:href="../FinancialInstitution.html" xlink:show="new" xlink:title="Organisation established primarily to provide financial services." xlink:type="simple"><rect fill="#FEFEEE" filter="url(#fc1qx79x45hpp)" height="23.9688" id="FinancialInstitution" style="stroke: #A80036; stroke-width: 1.5;" width="124" x="1556.5" y="454"/><rect fill="#FEFEEE" height="23.9688" style="stroke: #A80036; stroke-width: 1.5;" width="124" x="1556.5" y="454"/><text fill="#000000" font-family="sans-serif" font-size="12" lengthAdjust="spacingAndGlyphs" textLength="118" x="1559.5" y="470.1387">FinancialInstitution</text></a><!--class NonFinancialInstitution--><a target="_top" xlink:actuate="onRequest" xlink:href="../NonFinancialInstitution.html" xlink:show="new" xlink:title="An organisation primarily established to offer and perform services other than financial services." xlink:type="simple"><rect fill="#FEFEEE" filter="url(#fc1qx79x45hpp)" height="23.9688" id="NonFinancialInstitution" style="stroke: #A80036; stroke-width: 1.5;" width="149" x="1714.75" y="454"/><rect fill="#FEFEEE" height="23.9688" style="stroke: #A80036; stroke-width: 1.5;" width="149" x="1714.75" y="454"/><text fill="#000000" font-family="sans-serif" font-size="12" lengthAdjust="spacingAndGlyphs" textLength="143" x="1717.75" y="470.1387">NonFinancialInstitution</text></a><!--class Role--><a target="_top" xlink:actuate="onRequest" xlink:href="../Role.html" xlink:show="new" xlink:title="Role of a party in an activity." xlink:type="simple"><rect fill="#EEEEEE" filter="url(#fc1qx79x45hpp)" height="23.9688" id="Role" style="stroke: #A80036; stroke-width: 1.5;" width="33" x="1982.75" y="314"/><rect fill="#EEEEEE" height="23.9688" style="stroke: #A80036; stroke-width: 1.5;" width="33" x="1982.75" y="314"/><text fill="#000000" font-family="sans-serif" font-size="12" lengthAdjust="spacingAndGlyphs" textLength="27" x="1985.75" y="330.1387">Role</text></a><!--class DateTimePeriod--><a target="_top" xlink:actuate="onRequest" xlink:href="../DateTimePeriod.html" xlink:show="new" xlink:title="Time span defined by a start date and time, and an end date and time." xlink:type="simple"><rect fill="#EEEEEE" filter="url(#fc1qx79x45hpp)" height="23.9688" id="DateTimePeriod" style="stroke: #A80036; stroke-width: 1.5;" width="105" x="1919.75" y="159"/><rect fill="#EEEEEE" height="23.9688" style="stroke: #A80036; stroke-width: 1.5;" width="105" x="1919.75" y="159"/><text fill="#000000" font-family="sans-serif" font-size="12" lengthAdjust="spacingAndGlyphs" textLength="99" x="1922.75" y="175.1387">DateTimePeriod</text></a><!--class ContactPoint--><a target="_top" xlink:actuate="onRequest" xlink:href="../ContactPoint.html" xlink:show="new" xlink:title="Number, physical or virtual address, used for communication." xlink:type="simple"><rect fill="#EEEEEE" filter="url(#fc1qx79x45hpp)" height="23.9688" id="ContactPoint" style="stroke: #A80036; stroke-width: 1.5;" width="87" x="462.75" y="850"/><rect fill="#EEEEEE" height="23.9688" style="stroke: #A80036; stroke-width: 1.5;" width="87" x="462.75" y="850"/><text fill="#000000" font-family="sans-serif" font-size="12" lengthAdjust="spacingAndGlyphs" textLength="81" x="465.75" y="866.1387">ContactPoint</text></a><!--class PartyIdentificationInformation--><a target="_top" xlink:actuate="onRequest" xlink:href="../PartyIdentificationInformation.html" xlink:show="new" xlink:title="Unique and unambiguous way to identify a party" xlink:type="simple"><rect fill="#EEEEEE" filter="url(#fc1qx79x45hpp)" height="23.9688" id="PartyIdentificationInformation" style="stroke: #A80036; stroke-width: 1.5;" width="190" x="462" y="762"/><rect fill="#EEEEEE" height="23.9688" style="stroke: #A80036; stroke-width: 1.5;" width="190" x="462" y="762"/><text fill="#000000" font-family="sans-serif" font-size="12" lengthAdjust="spacingAndGlyphs" textLength="184" x="465" y="778.1387">PartyIdentificationInformation</text></a><!--class Tax--><a target="_top" xlink:actuate="onRequest" xlink:href="../Tax.html" xlink:show="new" xlink:title="Amount of money due to the government or tax authority, according to various pre-defined parameters such as thresholds or income." xlink:type="simple"><rect fill="#EEEEEE" filter="url(#fc1qx79x45hpp)" height="23.9688" id="Tax" style="stroke: #A80036; stroke-width: 1.5;" width="27" x="543.75" y="660"/><rect fill="#EEEEEE" height="23.9688" style="stroke: #A80036; stroke-width: 1.5;" width="27" x="543.75" y="660"/><text fill="#000000" font-family="sans-serif" font-size="12" lengthAdjust="spacingAndGlyphs" textLength="21" x="546.75" y="676.1387">Tax</text></a><!--class Location--><a target="_top" xlink:actuate="onRequest" xlink:href="../Location.html" xlink:show="new" xlink:title="Specifies a place." xlink:type="simple"><rect fill="#EEEEEE" filter="url(#fc1qx79x45hpp)" height="23.9688" id="Location" style="stroke: #A80036; stroke-width: 1.5;" width="59" x="595.75" y="558"/><rect fill="#EEEEEE" height="23.9688" style="stroke: #A80036; stroke-width: 1.5;" width="59" x="595.75" y="558"/><text fill="#000000" font-family="sans-serif" font-size="12" lengthAdjust="spacingAndGlyphs" textLength="53" x="598.75" y="574.1387">Location</text></a><!--class PowerOfAttorney--><a target="_top" xlink:actuate="onRequest" xlink:href="../PowerOfAttorney.html" xlink:show="new" xlink:title="Document that transfers specific rights from a party to another party." xlink:type="simple"><rect fill="#EEEEEE" filter="url(#fc1qx79x45hpp)" height="23.9688" id="PowerOfAttorney" style="stroke: #A80036; stroke-width: 1.5;" width="110" x="462" y="454"/><rect fill="#EEEEEE" height="23.9688" style="stroke: #A80036; stroke-width: 1.5;" width="110" x="462" y="454"/><text fill="#000000" font-family="sans-serif" font-size="12" lengthAdjust="spacingAndGlyphs" textLength="104" x="465" y="470.1387">PowerOfAttorney</text></a><!--class Security--><a target="_top" xlink:actuate="onRequest" xlink:href="../Security.html" xlink:show="new" xlink:title="Financial instruments representing a sum of rights of the investor vis-a-vis the issuer." xlink:type="simple"><rect fill="#EEEEEE" filter="url(#fc1qx79x45hpp)" height="23.9688" id="Security" style="stroke: #A80036; stroke-width: 1.5;" width="56" x="605.5" y="314"/><rect fill="#EEEEEE" height="23.9688" style="stroke: #A80036; stroke-width: 1.5;" width="56" x="605.5" y="314"/><text fill="#000000" font-family="sans-serif" font-size="12" lengthAdjust="spacingAndGlyphs" textLength="50" x="608.5" y="330.1387">Security</text></a><!--class OrganisationIdentification--><a target="_top" xlink:actuate="onRequest" xlink:href="../OrganisationIdentification.html" xlink:show="new" xlink:title="Unique and unambiguous way to identify an organisation." xlink:type="simple"><rect fill="#EEEEEE" filter="url(#fc1qx79x45hpp)" height="23.9688" id="OrganisationIdentification" style="stroke: #A80036; stroke-width: 1.5;" width="167" x="2079.75" y="1026"/><rect fill="#EEEEEE" height="23.9688" style="stroke: #A80036; stroke-width: 1.5;" width="167" x="2079.75" y="1026"/><text fill="#000000" font-family="sans-serif" font-size="12" lengthAdjust="spacingAndGlyphs" textLength="161" x="2082.75" y="1042.1387">OrganisationIdentification</text></a><!--class SecuritiesModification--><a target="_top" xlink:actuate="onRequest" xlink:href="../SecuritiesModification.html" xlink:show="new" xlink:title="Modification of the reference data of a security or of the organisation that issued it." xlink:type="simple"><rect fill="#EEEEEE" filter="url(#fc1qx79x45hpp)" height="23.9688" id="SecuritiesModification" style="stroke: #A80036; stroke-width: 1.5;" width="143" x="2070.75" y="940"/><rect fill="#EEEEEE" height="23.9688" style="stroke: #A80036; stroke-width: 1.5;" width="143" x="2070.75" y="940"/><text fill="#000000" font-family="sans-serif" font-size="12" lengthAdjust="spacingAndGlyphs" textLength="137" x="2073.75" y="956.1387">SecuritiesModification</text></a><!--class Sector--><a target="_top" xlink:actuate="onRequest" xlink:href="../Sector.html" xlink:show="new" xlink:title="Type of business of the organisation, for example, pharmaceutical." xlink:type="simple"><rect fill="#EEEEEE" filter="url(#fc1qx79x45hpp)" height="23.9688" id="Sector" style="stroke: #A80036; stroke-width: 1.5;" width="47" x="2082.75" y="850"/><rect fill="#EEEEEE" height="23.9688" style="stroke: #A80036; stroke-width: 1.5;" width="47" x="2082.75" y="850"/><text fill="#000000" font-family="sans-serif" font-size="12" lengthAdjust="spacingAndGlyphs" textLength="41" x="2085.75" y="866.1387">Sector</text></a><!--class BuyOrSellIndicationOfInterest--><a target="_top" xlink:actuate="onRequest" xlink:href="../BuyOrSellIndicationOfInterest.html" xlink:show="new" xlink:title="Intention to buy or sell a financial Instrument." xlink:type="simple"><rect fill="#EEEEEE" filter="url(#fc1qx79x45hpp)" height="23.9688" id="BuyOrSellIndicationOfInterest" style="stroke: #A80036; stroke-width: 1.5;" width="187" x="2069.75" y="762"/><rect fill="#EEEEEE" height="23.9688" style="stroke: #A80036; stroke-width: 1.5;" width="187" x="2069.75" y="762"/><text fill="#000000" font-family="sans-serif" font-size="12" lengthAdjust="spacingAndGlyphs" textLength="181" x="2072.75" y="778.1387">BuyOrSellIndicationOfInterest</text></a><!--class OrganisationStrategy--><a target="_top" xlink:actuate="onRequest" xlink:href="../OrganisationStrategy.html" xlink:show="new" xlink:title="Strategy is organisation based." xlink:type="simple"><rect fill="#EEEEEE" filter="url(#fc1qx79x45hpp)" height="23.9688" id="OrganisationStrategy" style="stroke: #A80036; stroke-width: 1.5;" width="139" x="2103.75" y="660"/><rect fill="#EEEEEE" height="23.9688" style="stroke: #A80036; stroke-width: 1.5;" width="139" x="2103.75" y="660"/><text fill="#000000" font-family="sans-serif" font-size="12" lengthAdjust="spacingAndGlyphs" textLength="133" x="2106.75" y="676.1387">OrganisationStrategy</text></a><!--class OrganisationHierarchy--><a target="_top" xlink:actuate="onRequest" xlink:href="../OrganisationHierarchy.html" xlink:show="new" xlink:title="Description of the structure of a company." xlink:type="simple"><rect fill="#EEEEEE" filter="url(#fc1qx79x45hpp)" height="23.9688" id="OrganisationHierarchy" style="stroke: #A80036; stroke-width: 1.5;" width="145" x="2100.75" y="558"/><rect fill="#EEEEEE" height="23.9688" style="stroke: #A80036; stroke-width: 1.5;" width="145" x="2100.75" y="558"/><text fill="#000000" font-family="sans-serif" font-size="12" lengthAdjust="spacingAndGlyphs" textLength="139" x="2103.75" y="574.1387">OrganisationHierarchy</text></a><!--class RepresentativeOfficer--><a target="_top" xlink:actuate="onRequest" xlink:href="../RepresentativeOfficer.html" xlink:show="new" xlink:title="Officer who has some rights to represent a given organisation. In account management, it is the person to be contacted by the account servicer." xlink:type="simple"><rect fill="#EEEEEE" filter="url(#fc1qx79x45hpp)" height="23.9688" id="RepresentativeOfficer" style="stroke: #A80036; stroke-width: 1.5;" width="141" x="2114.75" y="454"/><rect fill="#EEEEEE" height="23.9688" style="stroke: #A80036; stroke-width: 1.5;" width="141" x="2114.75" y="454"/><text fill="#000000" font-family="sans-serif" font-size="12" lengthAdjust="spacingAndGlyphs" textLength="135" x="2117.75" y="470.1387">RepresentativeOfficer</text></a><!--link RolePlayer to Party--><path d="M1792.87,74.82 C1763.2,93.792 1720.02,121.399 1687.8,141.999 " fill="none" id="RolePlayer-Party" style="stroke: #A80036; stroke-width: 1.0;"/><polygon fill="none" points="1789.16,68.88,1809.78,64.01,1796.7,80.68,1789.16,68.88" style="stroke: #A80036; stroke-width: 1.0;"/><!--link Party to Organisation--><path d="M1628.23,219.299 C1622.02,237.928 1614.91,259.275 1608.7,277.886 " fill="none" id="Party-Organisation" style="stroke: #A80036; stroke-width: 1.0;"/><polygon fill="none" points="1621.68,216.823,1634.65,200.063,1634.96,221.25,1621.68,216.823" style="stroke: #A80036; stroke-width: 1.0;"/><!--link Organisation to FinancialInstitution--><path d="M1605.14,394.016 C1609.31,417.054 1613.54,440.387 1615.96,453.731 " fill="none" id="Organisation-FinancialInstitution" style="stroke: #A80036; stroke-width: 1.0;"/><polygon fill="none" points="1598.21,395.033,1601.53,374.106,1611.99,392.538,1598.21,395.033" style="stroke: #A80036; stroke-width: 1.0;"/><!--link Organisation to NonFinancialInstitution--><path d="M1676.33,385.671 C1712.66,411.251 1751.74,438.769 1772.99,453.731 " fill="none" id="Organisation-NonFinancialInstitution" style="stroke: #A80036; stroke-width: 1.0;"/><polygon fill="none" points="1672.23,391.343,1659.9,374.106,1680.29,379.896,1672.23,391.343" style="stroke: #A80036; stroke-width: 1.0;"/><!--link DateTimePeriod to Role--><!--link PartyIdentificationInformation to ContactPoint--><!--link Tax to PartyIdentificationInformation--><!--link Location to Tax--><!--link PowerOfAttorney to Location--><!--link Security to PowerOfAttorney--><!--link SecuritiesModification to OrganisationIdentification--><!--link Sector to SecuritiesModification--><!--link BuyOrSellIndicationOfInterest to Sector--><!--link OrganisationStrategy to BuyOrSellIndicationOfInterest--><!--link OrganisationHierarchy to OrganisationStrategy--><!--link RepresentativeOfficer to OrganisationHierarchy--><!--link RolePlayer to Role--><path d="M1862.27,52.89 C1915.29,54.96 2012.46,68.13 2042,135 C2068.96,196.037 2028.82,275.846 2009,309.238 " fill="none" id="RolePlayer-Role" style="stroke: #A80036; stroke-width: 1.0;"/><polygon fill="#A80036" points="2006.23,313.82,2014.3112,308.1903,2008.8182,309.542,2007.4665,304.0491,2006.23,313.82" style="stroke: #A80036; stroke-width: 1.0;"/><text fill="#000000" font-family="sans-serif" font-size="13" lengthAdjust="spacingAndGlyphs" textLength="27" x="2052" y="175.0669">Role</text><text fill="#000000" font-family="sans-serif" font-size="13" lengthAdjust="spacingAndGlyphs" textLength="23" x="1980.3325" y="302.8063">1..*</text><!--link RolePlayer to DateTimePeriod--><path d="M1840.64,64.01 C1866.98,85.261 1924.83,131.938 1954.17,155.616 " fill="none" id="RolePlayer-DateTimePeriod" style="stroke: #A80036; stroke-width: 1.0;"/><polygon fill="#A80036" points="1958.29,158.937,1953.8016,150.1704,1954.4002,155.7954,1948.7751,156.3941,1958.29,158.937" style="stroke: #A80036; stroke-width: 1.0;"/><text fill="#000000" font-family="sans-serif" font-size="13" lengthAdjust="spacingAndGlyphs" textLength="86" x="1901" y="107.0669">ValidityPeriod</text><text fill="#000000" font-family="sans-serif" font-size="13" lengthAdjust="spacingAndGlyphs" textLength="24" x="1924.0225" y="147.9636">0..1</text><!--link Party to ContactPoint--><path d="M1477.45,173.837 C1167.86,178.133 514.987,191.565 292,230 C160.006,252.751 6,191.06 6,325 C6,325 6,325 6,775 C6,820.501 331.762,848.579 457.395,857.716 " fill="none" id="Party-ContactPoint" style="stroke: #A80036; stroke-width: 1.0;"/><polygon fill="#A80036" points="462.503,858.085,453.8144,853.4474,457.516,857.725,453.2384,861.4266,462.503,858.085" style="stroke: #A80036; stroke-width: 1.0;"/><text fill="#000000" font-family="sans-serif" font-size="13" lengthAdjust="spacingAndGlyphs" textLength="82" x="7" y="574.0669">ContactPoint</text><text fill="#000000" font-family="sans-serif" font-size="13" lengthAdjust="spacingAndGlyphs" textLength="23" x="431.6479" y="852.6488">1..*</text><!--link Party to PartyIdentificationInformation--><path d="M1477.38,171.878 C1086.62,173.798 144,192.194 144,325 C144,325 144,325 144,673 C144,737.169 334.716,760.305 456.948,768.543 " fill="none" id="Party-PartyIdentificationInformation" style="stroke: #A80036; stroke-width: 1.0;"/><polygon fill="#A80036" points="461.99,768.877,453.2736,764.2918,457.0009,768.5471,452.7457,772.2744,461.99,768.877" style="stroke: #A80036; stroke-width: 1.0;"/><text fill="#000000" font-family="sans-serif" font-size="13" lengthAdjust="spacingAndGlyphs" textLength="81" x="145" y="523.0669">Identification</text><text fill="#000000" font-family="sans-serif" font-size="13" lengthAdjust="spacingAndGlyphs" textLength="23" x="431.1026" y="764.0764">1..*</text><!--link Party to Tax--><path d="M1477.36,175.365 C1174.21,182.194 554.991,199.663 461,230 C320.424,275.373 196.691,373.758 270,502 C330.342,607.56 485.193,653.73 538.58,666.855 " fill="none" id="Party-Tax" style="stroke: #A80036; stroke-width: 1.0;"/><polygon fill="#A80036" points="543.714,668.091,535.9015,662.094,538.8531,666.9197,534.0274,669.8714,543.714,668.091" style="stroke: #A80036; stroke-width: 1.0;"/><text fill="#000000" font-family="sans-serif" font-size="13" lengthAdjust="spacingAndGlyphs" textLength="121" x="271" y="470.0669">TaxationConditions</text><text fill="#000000" font-family="sans-serif" font-size="13" lengthAdjust="spacingAndGlyphs" textLength="8" x="527.6472" y="659.4582">1</text><!--link Party to Location--><path d="M1477.32,174.469 C1237.74,179.289 818.18,192.955 759,230 C696.573,269.077 729.552,322.401 677,374 C657.132,393.508 636.214,380.057 622,404 C593.658,451.743 609.944,521.754 619.533,552.962 " fill="none" id="Party-Location" style="stroke: #A80036; stroke-width: 1.0;"/><polygon fill="#A80036" points="621.121,557.977,622.2193,548.1896,619.6125,553.21,614.592,550.6032,621.121,557.977" style="stroke: #A80036; stroke-width: 1.0;"/><text fill="#000000" font-family="sans-serif" font-size="13" lengthAdjust="spacingAndGlyphs" textLength="55" x="623" y="417.0669">Domicile</text><text fill="#000000" font-family="sans-serif" font-size="13" lengthAdjust="spacingAndGlyphs" textLength="8" x="608.9829" y="547.0173">1</text><!--link Party to Location--><path d="M1477.2,171.885 C1298.96,174.178 1029.68,185.303 938,230 C781.473,306.31 665.08,497.471 633.531,553.399 " fill="none" id="Party-Location" style="stroke: #A80036; stroke-width: 1.0;"/><polygon fill="#A80036" points="631.072,557.79,638.9591,551.8914,633.5148,553.4273,631.9788,547.983,631.072,557.79" style="stroke: #A80036; stroke-width: 1.0;"/><text fill="#000000" font-family="sans-serif" font-size="13" lengthAdjust="spacingAndGlyphs" textLength="65" x="735" y="417.0669">Residence</text><text fill="#000000" font-family="sans-serif" font-size="13" lengthAdjust="spacingAndGlyphs" textLength="7" x="623.5099" y="547.0239">*</text><!--link Party to Location--><path d="M1477.3,172.976 C1180.16,175.811 582.016,186.868 497,230 C387.164,285.724 359.188,412.692 444,502 C483.086,543.158 549.695,559.183 590.29,565.315 " fill="none" id="Party-Location" style="stroke: #A80036; stroke-width: 1.0;"/><polygon fill="#A80036" points="595.596,566.083,587.2612,560.8359,590.6475,565.3673,586.1161,568.7535,595.596,566.083" style="stroke: #A80036; stroke-width: 1.0;"/><text fill="#000000" font-family="sans-serif" font-size="13" lengthAdjust="spacingAndGlyphs" textLength="54" x="400" y="417.0669">Location</text><text fill="#000000" font-family="sans-serif" font-size="13" lengthAdjust="spacingAndGlyphs" textLength="8" x="579.7735" y="559.7214">1</text><!--link Party to PowerOfAttorney--><path d="M1477.25,171.226 C1216.53,171.644 724.922,179.432 558,230 C517.951,242.133 497.717,241.642 477,278 C444.572,334.911 485.886,415.172 506.539,448.988 " fill="none" id="Party-PowerOfAttorney" style="stroke: #A80036; stroke-width: 1.0;"/><polygon fill="#A80036" points="509.425,453.632,508.0718,443.8765,506.7858,449.3853,501.2771,448.0993,509.425,453.632" style="stroke: #A80036; stroke-width: 1.0;"/><text fill="#000000" font-family="sans-serif" font-size="13" lengthAdjust="spacingAndGlyphs" textLength="107" x="478" y="330.0669">PowerOfAttorney</text><text fill="#000000" font-family="sans-serif" font-size="13" lengthAdjust="spacingAndGlyphs" textLength="24" x="477.6095" y="442.8135">0..1</text><!--link Party to Security--><path d="M1477.26,175.089 C1183.94,181.346 603.554,197.746 573,230 C549.285,255.034 586.931,290.793 612.503,310.528 " fill="none" id="Party-Security" style="stroke: #A80036; stroke-width: 1.0;"/><polygon fill="#A80036" points="616.806,313.787,612.0483,305.1635,612.8208,310.7674,607.2169,311.5399,616.806,313.787" style="stroke: #A80036; stroke-width: 1.0;"/><text fill="#000000" font-family="sans-serif" font-size="13" lengthAdjust="spacingAndGlyphs" textLength="112" x="574" y="243.0669">CloseLinkSecurity</text><text fill="#000000" font-family="sans-serif" font-size="13" lengthAdjust="spacingAndGlyphs" textLength="8" x="600.6199" y="303.0199">1</text><!--link Organisation to OrganisationIdentification--><path d="M1708.68,346.385 C1766.86,355.663 1838.54,366.382 1903,374 C2059.37,392.478 2103.68,364.133 2256,404 C2319.3,420.568 2390,399.564 2390,465 C2390,465 2390,465 2390,953 C2390,986.8898 2299.88,1011.4207 2233.21,1024.9324 " fill="none" id="Organisation-OrganisationIdentification" style="stroke: #A80036; stroke-width: 1.0;"/><polygon fill="#A80036" points="2228.05,1025.966,2237.6619,1028.1135,2232.9519,1024.9804,2236.085,1020.2704,2228.05,1025.966" style="stroke: #A80036; stroke-width: 1.0;"/><text fill="#000000" font-family="sans-serif" font-size="13" lengthAdjust="spacingAndGlyphs" textLength="162" x="2391" y="727.0669">OrganisationIdentification</text><text fill="#000000" font-family="sans-serif" font-size="13" lengthAdjust="spacingAndGlyphs" textLength="7" x="2240.7781" y="1015.0025">*</text><!--link Organisation to Organisation--><path d="M1708.72,310.883 C1728.94,312.898 1743,317.938 1743,326 C1743,333.37 1731.25,338.213 1713.79,340.531 " fill="none" id="Organisation-Organisation" style="stroke: #A80036; stroke-width: 1.0;"/><polygon fill="#A80036" points="1708.72,341.117,1718.1182,344.0622,1713.6872,340.5456,1717.2039,336.1146,1708.72,341.117" style="stroke: #A80036; stroke-width: 1.0;"/><text fill="#000000" font-family="sans-serif" font-size="13" lengthAdjust="spacingAndGlyphs" textLength="123" x="1749" y="330.0669">ParentOrganisation</text><text fill="#000000" font-family="sans-serif" font-size="13" lengthAdjust="spacingAndGlyphs" textLength="8" x="1717.4752" y="337.675">1</text><!--link Organisation to SecuritiesModification--><path d="M1477.34,350.896 C1419.23,370.379 1361,404.896 1361,465 C1361,465 1361,465 1361,863 C1361,933.414 1868.78,947.489 2065.46,950.3 " fill="none" id="Organisation-SecuritiesModification" style="stroke: #A80036; stroke-width: 1.0;"/><polygon fill="#A80036" points="2070.62,950.372,2061.6781,946.2438,2065.6205,950.3006,2061.5638,954.243,2070.62,950.372" style="stroke: #A80036; stroke-width: 1.0;"/><text fill="#000000" font-family="sans-serif" font-size="13" lengthAdjust="spacingAndGlyphs" textLength="139" x="1362" y="676.0669">SecuritiesModification</text><text fill="#000000" font-family="sans-serif" font-size="13" lengthAdjust="spacingAndGlyphs" textLength="8" x="2054.7951" y="962.9692">1</text><!--link Organisation to Location--><path d="M1477.12,351.642 C1402.52,369.308 1304.28,395.972 1221,430 C1137.76,464.011 1129.86,501.29 1044,528 C972.407,550.272 746.454,563.179 659.537,567.427 " fill="none" id="Organisation-Location" style="stroke: #A80036; stroke-width: 1.0;"/><polygon fill="#A80036" points="654.511,567.67,663.6947,571.2282,659.5051,567.4272,663.3061,563.2376,654.511,567.67" style="stroke: #A80036; stroke-width: 1.0;"/><text fill="#000000" font-family="sans-serif" font-size="13" lengthAdjust="spacingAndGlyphs" textLength="111" x="1222" y="470.0669">PlaceOfOperation</text><text fill="#000000" font-family="sans-serif" font-size="13" lengthAdjust="spacingAndGlyphs" textLength="7" x="662.906" y="560.9827">*</text><!--link Organisation to Location--><path d="M1477.39,338.438 C1351.05,352.704 1143.51,381.34 970,430 C938.097,438.947 735.592,522.894 656.546,555.83 " fill="none" id="Organisation-Location" style="stroke: #A80036; stroke-width: 1.0;"/><polygon fill="#A80036" points="651.521,557.924,661.3671,558.1554,656.1365,556.0012,658.2907,550.7706,651.521,557.924" style="stroke: #A80036; stroke-width: 1.0;"/><text fill="#000000" font-family="sans-serif" font-size="13" lengthAdjust="spacingAndGlyphs" textLength="124" x="971" y="470.0669">PlaceOfRegistration</text><text fill="#000000" font-family="sans-serif" font-size="13" lengthAdjust="spacingAndGlyphs" textLength="24" x="631.0829" y="546.9461">0..1</text><!--link Organisation to Sector--><path d="M1546.15,374.228 C1538.62,383.561 1531.5,393.678 1526,404 C1520.37,414.562 1520.57,418.136 1519,430 C1506.59,523.808 1521.96,566.375 1592,630 C1744.5,768.531 1993.93,835.464 2077.62,854.85 " fill="none" id="Organisation-Sector" style="stroke: #A80036; stroke-width: 1.0;"/><polygon fill="#A80036" points="2082.65,856.006,2074.7681,850.1004,2077.7758,854.8914,2072.9848,857.8991,2082.65,856.006" style="stroke: #A80036; stroke-width: 1.0;"/><text fill="#000000" font-family="sans-serif" font-size="13" lengthAdjust="spacingAndGlyphs" textLength="42" x="1593" y="625.0669">Sector</text><text fill="#000000" font-family="sans-serif" font-size="13" lengthAdjust="spacingAndGlyphs" textLength="8" x="2066.6788" y="848.56">1</text><!--link Organisation to BuyOrSellIndicationOfInterest--><path d="M1557.37,374.254 C1534.11,411.322 1512.4,462.995 1538,502 C1655.69,681.306 1920.28,742.567 2064.58,763.048 " fill="none" id="Organisation-BuyOrSellIndicationOfInterest" style="stroke: #A80036; stroke-width: 1.0;"/><polygon fill="#A80036" points="2069.66,763.76,2061.2936,758.5635,2064.7072,763.0743,2060.1965,766.4879,2069.66,763.76" style="stroke: #A80036; stroke-width: 1.0;"/><text fill="#000000" font-family="sans-serif" font-size="13" lengthAdjust="spacingAndGlyphs" textLength="172" x="1609" y="574.0669">RelatedIndicationOfInterest</text><text fill="#000000" font-family="sans-serif" font-size="13" lengthAdjust="spacingAndGlyphs" textLength="24" x="2037.8316" y="758.6316">0..1</text><!--link Organisation to OrganisationStrategy--><path d="M1708.74,345.899 C1766.94,355.057 1838.6,365.815 1903,374 C2032.42,390.449 2067.46,376.541 2195,404 C2230.72,411.691 2251.63,400.356 2273,430 C2312.59,484.922 2292.91,521.266 2263,582 C2247.25,613.972 2215.33,641.156 2194.06,656.785 " fill="none" id="Organisation-OrganisationStrategy" style="stroke: #A80036; stroke-width: 1.0;"/><polygon fill="#A80036" points="2189.95,659.755,2199.5872,657.7243,2194.0022,656.8259,2194.9006,651.2408,2189.95,659.755" style="stroke: #A80036; stroke-width: 1.0;"/><text fill="#000000" font-family="sans-serif" font-size="13" lengthAdjust="spacingAndGlyphs" textLength="55" x="2293" y="523.0669">Strategy</text><text fill="#000000" font-family="sans-serif" font-size="13" lengthAdjust="spacingAndGlyphs" textLength="24" x="2166.1756" y="648.9773">0..1</text><!--link Organisation to OrganisationHierarchy--><path d="M1708.69,355.793 C1763.24,372.474 1827.69,396.839 1880,430 C1918.22,454.23 1913.18,478.738 1952,502 C1998.45,529.838 2057.41,546.952 2102.75,556.909 " fill="none" id="Organisation-OrganisationHierarchy" style="stroke: #A80036; stroke-width: 1.0;"/><polygon fill="#A80036" points="2107.65,557.969,2099.6995,552.1561,2102.7631,556.9116,2098.0076,559.9752,2107.65,557.969" style="stroke: #A80036; stroke-width: 1.0;"/><text fill="#000000" font-family="sans-serif" font-size="13" lengthAdjust="spacingAndGlyphs" textLength="142" x="1953" y="470.0669">OrganisationHierarchy</text><text fill="#000000" font-family="sans-serif" font-size="13" lengthAdjust="spacingAndGlyphs" textLength="8" x="2084.7506" y="550.01">1</text><!--link Organisation to RepresentativeOfficer--><path d="M1708.87,346.505 C1809.68,364.576 1959.24,394.049 2087,430 C2109.12,436.225 2133.46,444.907 2152.35,452.066 " fill="none" id="Organisation-RepresentativeOfficer" style="stroke: #A80036; stroke-width: 1.0;"/><polygon fill="#A80036" points="2157.03,453.851,2150.0515,446.9011,2152.3596,452.0657,2147.195,454.3737,2157.03,453.851" style="stroke: #A80036; stroke-width: 1.0;"/><text fill="#000000" font-family="sans-serif" font-size="13" lengthAdjust="spacingAndGlyphs" textLength="137" x="2048" y="417.0669">RepresentativeOfficer</text><text fill="#000000" font-family="sans-serif" font-size="13" lengthAdjust="spacingAndGlyphs" textLength="8" x="2136.6106" y="442.848">1</text><!--link DateTimePeriod to PartyIdentificationInformation--><path d="M1938.23,183.127 C1920.69,188.662 1898.83,195.181 1879,200 C1695.36,244.64 1642.09,223.955 1461,278 C1293.01,328.136 1257.42,359.28 1097,430 C1027.5,460.641 1014.25,478.555 942,502 C924.341,507.73 917.932,502.383 901,510 C755.627,575.394 615.073,712.889 571.088,758.182 " fill="none" id="DateTimePeriod-PartyIdentificationInformation" style="stroke: #A80036; stroke-width: 1.0;"/><polygon fill="#A80036" points="567.609,761.78,576.7408,758.0908,571.0848,758.1857,570.9899,752.5296,567.609,761.78" style="stroke: #A80036; stroke-width: 1.0;"/><text fill="#000000" font-family="sans-serif" font-size="13" lengthAdjust="spacingAndGlyphs" textLength="129" x="902" y="523.0669">RelatedIdentification</text><text fill="#000000" font-family="sans-serif" font-size="13" lengthAdjust="spacingAndGlyphs" textLength="7" x="561.6326" y="751.0106">*</text><!--link ContactPoint to ContactPoint--><path d="M549.314,853.849 C568.001,853.181 584,855.898 584,862 C584,867.53 570.86,870.279 554.488,870.25 " fill="none" id="ContactPoint-ContactPoint" style="stroke: #A80036; stroke-width: 1.0;"/><polygon fill="#A80036" points="549.314,870.151,558.2358,874.3226,554.3131,870.2467,558.3889,866.324,549.314,870.151" style="stroke: #A80036; stroke-width: 1.0;"/><text fill="#000000" font-family="sans-serif" font-size="13" lengthAdjust="spacingAndGlyphs" textLength="80" x="590" y="866.0669">MainContact</text><text fill="#000000" font-family="sans-serif" font-size="13" lengthAdjust="spacingAndGlyphs" textLength="8" x="557.6973" y="866.1703">1</text><!--link Security to Sector--><path d="M660.596,327.232 C771.521,328.774 1183,340.528 1268,430 C1329.59,494.832 1266.79,543.639 1290,630 C1302.86,677.851 1295.87,701.599 1335,732 C1454.59,824.919 1951.66,853.869 2077.13,859.765 " fill="none" id="Security-Sector" style="stroke: #A80036; stroke-width: 1.0;"/><polygon fill="#A80036" points="2082.48,860.012,2073.6849,855.5796,2077.4859,859.7692,2073.2963,863.5702,2082.48,860.012" style="stroke: #A80036; stroke-width: 1.0;"/><text fill="#000000" font-family="sans-serif" font-size="13" lengthAdjust="spacingAndGlyphs" textLength="42" x="1291" y="625.0669">Sector</text><text fill="#000000" font-family="sans-serif" font-size="13" lengthAdjust="spacingAndGlyphs" textLength="8" x="2066.8269" y="873.3725">1</text><!--link Security to SecuritiesModification--><path d="M660.623,326.162 C729.668,325.612 911.484,333.91 1013,430 C1060.26,474.733 1059,503.927 1059,569 C1059,569 1059,569 1059,863 C1059,913.555 1818.62,941.154 2065.5,948.789 " fill="none" id="Security-SecuritiesModification" style="stroke: #A80036; stroke-width: 1.0;"/><polygon fill="#A80036" points="2070.52,948.944,2061.6501,944.6632,2065.5225,948.7869,2061.3988,952.6592,2070.52,948.944" style="stroke: #A80036; stroke-width: 1.0;"/><text fill="#000000" font-family="sans-serif" font-size="13" lengthAdjust="spacingAndGlyphs" textLength="76" x="1060" y="676.0669">Modification</text><text fill="#000000" font-family="sans-serif" font-size="13" lengthAdjust="spacingAndGlyphs" textLength="24" x="2038.7681" y="944.0966">0..1</text></g></svg>