<?xml version="1.0" encoding="UTF-8" standalone="no"?><svg xmlns="http://www.w3.org/2000/svg" xmlns:xlink="http://www.w3.org/1999/xlink" contentScriptType="application/ecmascript" contentStyleType="text/css" height="618px" preserveAspectRatio="none" style="width:1394px;height:618px;" version="1.1" viewBox="0 0 1394 618" width="1394px" zoomAndPan="magnify"><defs><filter height="300%" id="fq09iedhglxdo" width="300%" x="-1" y="-1"><feGaussianBlur result="blurOut" stdDeviation="2.0"/><feColorMatrix in="blurOut" result="blurOut2" type="matrix" values="0 0 0 0 0 0 0 0 0 0 0 0 0 0 0 0 0 0 .4 0"/><feOffset dx="4.0" dy="4.0" in="blurOut2" result="blurOut3"/><feBlend in="SourceGraphic" in2="blurOut3" mode="normal"/></filter></defs><g><!--cluster ##15295--><!--cluster ##15304--><!--class PaymentExecution--><a target="_top" xlink:actuate="onRequest" xlink:href="../PaymentExecution.html" xlink:show="new" xlink:title="Process required for executing an end to end payment. It consists of a payment initiation which may be followed by a series of instructions." xlink:type="simple"><rect fill="#FEFECE" filter="url(#fq09iedhglxdo)" height="83.1875" id="PaymentExecution" style="stroke: #A80036; stroke-width: 1.5;" width="251" x="63.75" y="40.5"/><rect fill="#FEFECE" height="23.9688" style="stroke: #A80036; stroke-width: 1.5;" width="251" x="63.75" y="40.5"/><text fill="#000000" font-family="sans-serif" font-size="12" lengthAdjust="spacingAndGlyphs" textLength="115" x="131.75" y="56.6387">PaymentExecution</text><line style="stroke: #A80036; stroke-width: 1.5;" x1="64.75" x2="313.75" y1="64.4688" y2="64.4688"/><ellipse cx="74.75" cy="76.3711" fill="#84BE84" rx="3" ry="3" style="stroke: #038048; stroke-width: 1.0;"/><text fill="#000000" font-family="sans-serif" font-size="11" lengthAdjust="spacingAndGlyphs" textLength="112" x="83.75" y="78.6792">CreditDebitIndicator</text><text fill="#000000" font-family="sans-serif" font-size="11" font-style="italic" lengthAdjust="spacingAndGlyphs" textLength="100" x="199.75" y="78.6792">(DebitCreditCode)</text><ellipse cx="74.75" cy="89.1758" fill="#84BE84" rx="3" ry="3" style="stroke: #038048; stroke-width: 1.0;"/><text fill="#000000" font-family="sans-serif" font-size="11" lengthAdjust="spacingAndGlyphs" textLength="74" x="83.75" y="91.4839">CreationDate</text><text fill="#000000" font-family="sans-serif" font-size="11" font-style="italic" lengthAdjust="spacingAndGlyphs" textLength="81" x="161.75" y="91.4839">(ISODateTime)</text><ellipse cx="74.75" cy="101.9805" fill="#84BE84" rx="3" ry="3" style="stroke: #038048; stroke-width: 1.0;"/><text fill="#000000" font-family="sans-serif" font-size="11" lengthAdjust="spacingAndGlyphs" textLength="118" x="83.75" y="104.2886">AcceptanceDateTime</text><text fill="#000000" font-family="sans-serif" font-size="11" font-style="italic" lengthAdjust="spacingAndGlyphs" textLength="81" x="205.75" y="104.2886">(ISODateTime)</text><ellipse cx="74.75" cy="114.7852" fill="#84BE84" rx="3" ry="3" style="stroke: #038048; stroke-width: 1.0;"/><text fill="#000000" font-family="sans-serif" font-size="11" lengthAdjust="spacingAndGlyphs" textLength="140" x="83.75" y="117.0933">RequestedExecutionDate</text><text fill="#000000" font-family="sans-serif" font-size="11" font-style="italic" lengthAdjust="spacingAndGlyphs" textLength="81" x="227.75" y="117.0933">(ISODateTime)</text></a><!--class PaymentInstruction--><a target="_top" xlink:actuate="onRequest" xlink:href="../PaymentInstruction.html" xlink:show="new" xlink:title="Instruction to pay an amount of money to an ultimate beneficiary, on behalf of an originator. This instruction may have to be forwarded several times to complete the settlement chain." xlink:type="simple"><rect fill="#FEFEEE" filter="url(#fq09iedhglxdo)" height="23.9688" id="PaymentInstruction" style="stroke: #A80036; stroke-width: 1.5;" width="127" x="38.75" y="206"/><rect fill="#FEFEEE" height="23.9688" style="stroke: #A80036; stroke-width: 1.5;" width="127" x="38.75" y="206"/><text fill="#000000" font-family="sans-serif" font-size="12" lengthAdjust="spacingAndGlyphs" textLength="121" x="41.75" y="222.1387">PaymentInstruction</text></a><!--class PaymentInitiation--><a target="_top" xlink:actuate="onRequest" xlink:href="../PaymentInitiation.html" xlink:show="new" xlink:title="Instruction to pay an amount of money to an ultimate beneficiary, on behalf of an originator. This instruction is the first of the series of instructions which may be used to execute a payment. It is normally sent by the initiating party to the forwarding agent or to the debtor's agent." xlink:type="simple"><rect fill="#FEFEEE" filter="url(#fq09iedhglxdo)" height="23.9688" id="PaymentInitiation" style="stroke: #A80036; stroke-width: 1.5;" width="114" x="201" y="206"/><rect fill="#FEFEEE" height="23.9688" style="stroke: #A80036; stroke-width: 1.5;" width="114" x="201" y="206"/><text fill="#000000" font-family="sans-serif" font-size="12" lengthAdjust="spacingAndGlyphs" textLength="108" x="204" y="222.1387">PaymentInitiation</text></a><!--class Payment--><a target="_top" xlink:actuate="onRequest" xlink:href="../Payment.html" xlink:show="new" xlink:title="Payment information and processes required to transfer cash end to end from the debtor to the creditor." xlink:type="simple"><rect fill="#EEEEEE" filter="url(#fq09iedhglxdo)" height="23.9688" id="Payment" style="stroke: #A80036; stroke-width: 1.5;" width="60" x="652.5" y="206"/><rect fill="#EEEEEE" height="23.9688" style="stroke: #A80036; stroke-width: 1.5;" width="60" x="652.5" y="206"/><text fill="#000000" font-family="sans-serif" font-size="12" lengthAdjust="spacingAndGlyphs" textLength="54" x="655.5" y="222.1387">Payment</text></a><!--class PaymentProcessing--><a target="_top" xlink:actuate="onRequest" xlink:href="../PaymentProcessing.html" xlink:show="new" xlink:title="Specifies how a payment must be processed, for instance through which specific clearing channel." xlink:type="simple"><rect fill="#EEEEEE" filter="url(#fq09iedhglxdo)" height="23.9688" id="PaymentProcessing" style="stroke: #A80036; stroke-width: 1.5;" width="129" x="610.75" y="584"/><rect fill="#EEEEEE" height="23.9688" style="stroke: #A80036; stroke-width: 1.5;" width="129" x="610.75" y="584"/><text fill="#000000" font-family="sans-serif" font-size="12" lengthAdjust="spacingAndGlyphs" textLength="123" x="613.75" y="600.1387">PaymentProcessing</text></a><!--class PaymentInvestigationCase--><a target="_top" xlink:actuate="onRequest" xlink:href="../PaymentInvestigationCase.html" xlink:show="new" xlink:title="Set of activities performed to handle an exception to a normal payment transaction flow, such as: - a payment has not been received. - a payment has been received but is incorrect. - a payment must be corrected or cancelled (requested by the party which ordered the payment)." xlink:type="simple"><rect fill="#EEEEEE" filter="url(#fq09iedhglxdo)" height="23.9688" id="PaymentInvestigationCase" style="stroke: #A80036; stroke-width: 1.5;" width="171" x="808.75" y="498"/><rect fill="#EEEEEE" height="23.9688" style="stroke: #A80036; stroke-width: 1.5;" width="171" x="808.75" y="498"/><text fill="#000000" font-family="sans-serif" font-size="12" lengthAdjust="spacingAndGlyphs" textLength="165" x="811.75" y="514.1387">PaymentInvestigationCase</text></a><!--class PaymentInvestigationCaseResolution--><a target="_top" xlink:actuate="onRequest" xlink:href="../PaymentInvestigationCaseResolution.html" xlink:show="new" xlink:title="Specifies the status of an investigation case and the actions taken as a result of this status." xlink:type="simple"><rect fill="#EEEEEE" filter="url(#fq09iedhglxdo)" height="23.9688" id="PaymentInvestigationCaseResolution" style="stroke: #A80036; stroke-width: 1.5;" width="237" x="654.75" y="412"/><rect fill="#EEEEEE" height="23.9688" style="stroke: #A80036; stroke-width: 1.5;" width="237" x="654.75" y="412"/><text fill="#000000" font-family="sans-serif" font-size="12" lengthAdjust="spacingAndGlyphs" textLength="231" x="657.75" y="428.1387">PaymentInvestigationCaseResolution</text></a><!--class CurrencyExchange--><a target="_top" xlink:actuate="onRequest" xlink:href="../CurrencyExchange.html" xlink:show="new" xlink:title="Information needed to process a currency exchange or conversion." xlink:type="simple"><rect fill="#EEEEEE" filter="url(#fq09iedhglxdo)" height="23.9688" id="CurrencyExchange" style="stroke: #A80036; stroke-width: 1.5;" width="122" x="984" y="310"/><rect fill="#EEEEEE" height="23.9688" style="stroke: #A80036; stroke-width: 1.5;" width="122" x="984" y="310"/><text fill="#000000" font-family="sans-serif" font-size="12" lengthAdjust="spacingAndGlyphs" textLength="116" x="987" y="326.1387">CurrencyExchange</text></a><!--link PaymentExecution to PaymentInstruction--><path d="M174.844,143.177 C170.968,153.307 166.096,163.333 160,172 C150.028,186.177 134.282,197.991 121.712,205.952 " fill="none" id="PaymentExecution-PaymentInstruction" style="stroke: #A80036; stroke-width: 1.0;"/><polygon fill="none" points="168.275,140.743,181.13,123.899,181.585,145.083,168.275,140.743" style="stroke: #A80036; stroke-width: 1.0;"/><!--link PaymentExecution to PaymentInstruction--><path d="M142.11,123.557 C133.454,132.845 125.203,143.19 119,154 C110.638,168.573 106.259,187.406 104.0546,200.671 " fill="none" id="PaymentExecution-PaymentInstruction" style="stroke: #A80036; stroke-width: 1.0;"/><polygon fill="#A80036" points="103.2875,205.637,108.6162,197.3542,104.0518,200.6958,100.7102,196.1314,103.2875,205.637" style="stroke: #A80036; stroke-width: 1.0;"/><text fill="#000000" font-family="sans-serif" font-size="13" lengthAdjust="spacingAndGlyphs" textLength="30" x="120" y="167.0669">Next</text><text fill="#000000" font-family="sans-serif" font-size="13" lengthAdjust="spacingAndGlyphs" textLength="24" x="74.3249" y="194.8202">0..1</text><!--link PaymentExecution to PaymentInitiation--><path d="M219.154,141.559 C231.608,165.746 244.83,191.423 252.188,205.712 " fill="none" id="PaymentExecution-PaymentInitiation" style="stroke: #A80036; stroke-width: 1.0;"/><polygon fill="none" points="212.822,144.554,209.89,123.568,225.269,138.145,212.822,144.554" style="stroke: #A80036; stroke-width: 1.0;"/><!--link PaymentProcessing to Payment--><!--link PaymentInvestigationCase to PaymentProcessing--><!--link PaymentInvestigationCaseResolution to PaymentInvestigationCase--><!--link CurrencyExchange to PaymentInvestigationCaseResolution--><!--link PaymentExecution to Payment--><path d="M314.589,114.439 C361.831,126.493 415.966,140.579 465,154 C529.669,171.701 604.711,193.847 647.451,206.614 " fill="none" id="PaymentExecution-Payment" style="stroke: #A80036; stroke-width: 1.0;"/><polygon fill="#A80036" points="652.246,208.047,644.7693,201.6361,647.4556,206.6145,642.4773,209.3007,652.246,208.047" style="stroke: #A80036; stroke-width: 1.0;"/><text fill="#000000" font-family="sans-serif" font-size="13" lengthAdjust="spacingAndGlyphs" textLength="57" x="526" y="167.0669">Payment</text><text fill="#000000" font-family="sans-serif" font-size="13" lengthAdjust="spacingAndGlyphs" textLength="7" x="637.4038" y="200.4971">*</text><!--link PaymentExecution to PaymentProcessing--><path d="M299.306,123.538 C336.142,144.675 368,175.075 368,217 C368,217 368,217 368,511 C368,559.9448 515.009,581.3745 605.568,589.9321 " fill="none" id="PaymentExecution-PaymentProcessing" style="stroke: #A80036; stroke-width: 1.0;"/><polygon fill="#A80036" points="610.643,590.4038,602.0519,585.5878,605.6645,589.9409,601.3114,593.5535,610.643,590.4038" style="stroke: #A80036; stroke-width: 1.0;"/><text fill="#000000" font-family="sans-serif" font-size="13" lengthAdjust="spacingAndGlyphs" textLength="143" x="369" y="377.0669">ProcessingInstructions</text><text fill="#000000" font-family="sans-serif" font-size="13" lengthAdjust="spacingAndGlyphs" textLength="7" x="595.8403" y="585.0912">*</text><!--link PaymentExecution to PaymentInvestigationCase--><path d="M314.39,86.441 C589.153,95.651 1220,126.638 1220,217 C1220,217 1220,217 1220,425 C1220,473.806 1081.25,494.682 984.789,503.299 " fill="none" id="PaymentExecution-PaymentInvestigationCase" style="stroke: #A80036; stroke-width: 1.0;"/><polygon fill="#A80036" points="979.653,503.749,988.9692,506.944,984.6337,503.3104,988.2674,498.9749,979.653,503.749" style="stroke: #A80036; stroke-width: 1.0;"/><text fill="#000000" font-family="sans-serif" font-size="13" lengthAdjust="spacingAndGlyphs" textLength="161" x="1221" y="326.0669">RelatedInvestigationCase</text><text fill="#000000" font-family="sans-serif" font-size="13" lengthAdjust="spacingAndGlyphs" textLength="24" x="987.7192" y="498.6011">0..1</text><!--link PaymentExecution to PaymentInvestigationCaseResolution--><path d="M314.285,106.37 C343.453,116.856 372.289,132.034 394,154 C435.496,195.983 395.953,236.633 436,280 C507.199,357.101 626.757,394.234 702.667,410.881 " fill="none" id="PaymentExecution-PaymentInvestigationCaseResolution" style="stroke: #A80036; stroke-width: 1.0;"/><polygon fill="#A80036" points="707.603,411.948,699.6505,406.1378,702.7157,410.8923,697.9613,413.9575,707.603,411.948" style="stroke: #A80036; stroke-width: 1.0;"/><text fill="#000000" font-family="sans-serif" font-size="13" lengthAdjust="spacingAndGlyphs" textLength="227" x="437" y="275.0669">RelatedInvestigationCaseResolution</text><text fill="#000000" font-family="sans-serif" font-size="13" lengthAdjust="spacingAndGlyphs" textLength="24" x="655.5681" y="400.9783">0..1</text><!--link PaymentExecution to CurrencyExchange--><path d="M314.446,88.292 C452.539,97.009 679.676,119.942 866,180 C940.926,204.151 970.903,202.982 1023,262 C1033.63,274.048 1039.31,291.713 1042.22,304.572 " fill="none" id="PaymentExecution-CurrencyExchange" style="stroke: #A80036; stroke-width: 1.0;"/><polygon fill="#A80036" points="1043.3,309.759,1045.3792,300.1321,1042.2797,304.8642,1037.5476,301.7647,1043.3,309.759" style="stroke: #A80036; stroke-width: 1.0;"/><text fill="#000000" font-family="sans-serif" font-size="13" lengthAdjust="spacingAndGlyphs" textLength="119" x="1015" y="222.0669">CurrencyExchange</text><text fill="#000000" font-family="sans-serif" font-size="13" lengthAdjust="spacingAndGlyphs" textLength="7" x="1033.2463" y="298.9826">*</text><!--link Payment to CurrencyExchange--><path d="M711.748,223.995 C747.769,230.531 809.956,243.385 861,262 C877.806,268.129 880.302,273.582 897,280 C927.466,291.71 962.638,301.596 991.049,308.725 " fill="none" id="Payment-CurrencyExchange" style="stroke: #A80036; stroke-width: 1.0;"/><polygon fill="#A80036" points="995.909,309.934,988.1411,303.8792,991.0569,308.7267,986.2095,311.6425,995.909,309.934" style="stroke: #A80036; stroke-width: 1.0;"/><text fill="#000000" font-family="sans-serif" font-size="13" lengthAdjust="spacingAndGlyphs" textLength="119" x="898" y="275.0669">CurrencyExchange</text><text fill="#000000" font-family="sans-serif" font-size="13" lengthAdjust="spacingAndGlyphs" textLength="7" x="969.4871" y="298.9595">*</text><!--link Payment to PaymentInvestigationCase--><path d="M711.723,228.863 C779.413,251.391 939.496,305.067 943,310 C984.413,368.296 930.602,457.709 905.557,493.452 " fill="none" id="Payment-PaymentInvestigationCase" style="stroke: #A80036; stroke-width: 1.0;"/><polygon fill="#A80036" points="902.369,497.934,910.8456,492.9193,905.2675,493.8598,904.3269,488.2817,902.369,497.934" style="stroke: #A80036; stroke-width: 1.0;"/><text fill="#000000" font-family="sans-serif" font-size="13" lengthAdjust="spacingAndGlyphs" textLength="161" x="959" y="377.0669">RelatedInvestigationCase</text><text fill="#000000" font-family="sans-serif" font-size="13" lengthAdjust="spacingAndGlyphs" textLength="24" x="875.6912" y="486.9595">0..1</text><!--link Payment to PaymentInvestigationCaseResolution--><path d="M683.161,230.249 C685.659,251.393 692.692,298.16 709,334 C721.934,362.425 744.583,390.977 759.178,407.814 " fill="none" id="Payment-PaymentInvestigationCaseResolution" style="stroke: #A80036; stroke-width: 1.0;"/><polygon fill="#A80036" points="762.704,411.835,759.7777,402.4309,759.4074,408.0757,753.7627,407.7054,762.704,411.835" style="stroke: #A80036; stroke-width: 1.0;"/><text fill="#000000" font-family="sans-serif" font-size="13" lengthAdjust="spacingAndGlyphs" textLength="227" x="710" y="326.0669">RelatedInvestigationCaseResolution</text><text fill="#000000" font-family="sans-serif" font-size="13" lengthAdjust="spacingAndGlyphs" textLength="24" x="729.6101" y="400.8265">0..1</text><!--link Payment to Payment--><path d="M711.625,208.859 C729.333,206.828 746,209.875 746,218 C746,225.3 732.547,228.501 716.972,227.602 " fill="none" id="Payment-Payment" style="stroke: #A80036; stroke-width: 1.0;"/><polygon fill="#A80036" points="711.625,227.141,720.2477,231.9002,716.6065,227.571,720.9357,223.9298,711.625,227.141" style="stroke: #A80036; stroke-width: 1.0;"/><text fill="#000000" font-family="sans-serif" font-size="13" lengthAdjust="spacingAndGlyphs" textLength="105" x="752" y="222.0669">OriginalPayment</text><text fill="#000000" font-family="sans-serif" font-size="13" lengthAdjust="spacingAndGlyphs" textLength="8" x="720.5273" y="223.4022">1</text></g></svg>