<?xml version="1.0" encoding="UTF-8" standalone="no"?><svg xmlns="http://www.w3.org/2000/svg" xmlns:xlink="http://www.w3.org/1999/xlink" contentScriptType="application/ecmascript" contentStyleType="text/css" height="704px" preserveAspectRatio="none" style="width:1211px;height:704px;" version="1.1" viewBox="0 0 1211 704" width="1211px" zoomAndPan="magnify"><defs><filter height="300%" id="f1t11d6bzr59e5" width="300%" x="-1" y="-1"><feGaussianBlur result="blurOut" stdDeviation="2.0"/><feColorMatrix in="blurOut" result="blurOut2" type="matrix" values="0 0 0 0 0 0 0 0 0 0 0 0 0 0 0 0 0 0 .4 0"/><feOffset dx="4.0" dy="4.0" in="blurOut2" result="blurOut3"/><feBlend in="SourceGraphic" in2="blurOut3" mode="normal"/></filter></defs><g><!--cluster ##17412--><!--cluster ##17418--><!--class PaymentExecution--><a target="_top" xlink:actuate="onRequest" xlink:href="../PaymentExecution.html" xlink:show="new" xlink:title="Process required for executing an end to end payment. It consists of a payment initiation which may be followed by a series of instructions." xlink:type="simple"><rect fill="#FEFEEE" filter="url(#f1t11d6bzr59e5)" height="83.1875" id="PaymentExecution" style="stroke: #A80036; stroke-width: 1.5;" width="251" x="51.75" y="40.5"/><rect fill="#FEFEEE" height="23.9688" style="stroke: #A80036; stroke-width: 1.5;" width="251" x="51.75" y="40.5"/><text fill="#000000" font-family="sans-serif" font-size="12" lengthAdjust="spacingAndGlyphs" textLength="115" x="119.75" y="56.6387">PaymentExecution</text><line style="stroke: #A80036; stroke-width: 1.5;" x1="52.75" x2="301.75" y1="64.4688" y2="64.4688"/><ellipse cx="62.75" cy="76.3711" fill="#84BE84" rx="3" ry="3" style="stroke: #038048; stroke-width: 1.0;"/><text fill="#000000" font-family="sans-serif" font-size="11" lengthAdjust="spacingAndGlyphs" textLength="112" x="71.75" y="78.6792">CreditDebitIndicator</text><text fill="#000000" font-family="sans-serif" font-size="11" font-style="italic" lengthAdjust="spacingAndGlyphs" textLength="100" x="187.75" y="78.6792">(DebitCreditCode)</text><ellipse cx="62.75" cy="89.1758" fill="#84BE84" rx="3" ry="3" style="stroke: #038048; stroke-width: 1.0;"/><text fill="#000000" font-family="sans-serif" font-size="11" lengthAdjust="spacingAndGlyphs" textLength="74" x="71.75" y="91.4839">CreationDate</text><text fill="#000000" font-family="sans-serif" font-size="11" font-style="italic" lengthAdjust="spacingAndGlyphs" textLength="81" x="149.75" y="91.4839">(ISODateTime)</text><ellipse cx="62.75" cy="101.9805" fill="#84BE84" rx="3" ry="3" style="stroke: #038048; stroke-width: 1.0;"/><text fill="#000000" font-family="sans-serif" font-size="11" lengthAdjust="spacingAndGlyphs" textLength="118" x="71.75" y="104.2886">AcceptanceDateTime</text><text fill="#000000" font-family="sans-serif" font-size="11" font-style="italic" lengthAdjust="spacingAndGlyphs" textLength="81" x="193.75" y="104.2886">(ISODateTime)</text><ellipse cx="62.75" cy="114.7852" fill="#84BE84" rx="3" ry="3" style="stroke: #038048; stroke-width: 1.0;"/><text fill="#000000" font-family="sans-serif" font-size="11" lengthAdjust="spacingAndGlyphs" textLength="140" x="71.75" y="117.0933">RequestedExecutionDate</text><text fill="#000000" font-family="sans-serif" font-size="11" font-style="italic" lengthAdjust="spacingAndGlyphs" textLength="81" x="215.75" y="117.0933">(ISODateTime)</text></a><!--class PaymentInitiation--><a target="_top" xlink:actuate="onRequest" xlink:href="../PaymentInitiation.html" xlink:show="new" xlink:title="Instruction to pay an amount of money to an ultimate beneficiary, on behalf of an originator. This instruction is the first of the series of instructions which may be used to execute a payment. It is normally sent by the initiating party to the forwarding agent or to the debtor's agent." xlink:type="simple"><rect fill="#FEFECE" filter="url(#f1t11d6bzr59e5)" height="23.9688" id="PaymentInitiation" style="stroke: #A80036; stroke-width: 1.5;" width="114" x="51" y="206"/><rect fill="#FEFECE" height="23.9688" style="stroke: #A80036; stroke-width: 1.5;" width="114" x="51" y="206"/><text fill="#000000" font-family="sans-serif" font-size="12" lengthAdjust="spacingAndGlyphs" textLength="108" x="54" y="222.1387">PaymentInitiation</text></a><!--class Payment--><a target="_top" xlink:actuate="onRequest" xlink:href="../Payment.html" xlink:show="new" xlink:title="Payment information and processes required to transfer cash end to end from the debtor to the creditor." xlink:type="simple"><rect fill="#EEEEEE" filter="url(#f1t11d6bzr59e5)" height="23.9688" id="Payment" style="stroke: #A80036; stroke-width: 1.5;" width="60" x="525.5" y="206"/><rect fill="#EEEEEE" height="23.9688" style="stroke: #A80036; stroke-width: 1.5;" width="60" x="525.5" y="206"/><text fill="#000000" font-family="sans-serif" font-size="12" lengthAdjust="spacingAndGlyphs" textLength="54" x="528.5" y="222.1387">Payment</text></a><!--class PaymentProcessing--><a target="_top" xlink:actuate="onRequest" xlink:href="../PaymentProcessing.html" xlink:show="new" xlink:title="Specifies how a payment must be processed, for instance through which specific clearing channel." xlink:type="simple"><rect fill="#EEEEEE" filter="url(#f1t11d6bzr59e5)" height="23.9688" id="PaymentProcessing" style="stroke: #A80036; stroke-width: 1.5;" width="129" x="600.75" y="670"/><rect fill="#EEEEEE" height="23.9688" style="stroke: #A80036; stroke-width: 1.5;" width="129" x="600.75" y="670"/><text fill="#000000" font-family="sans-serif" font-size="12" lengthAdjust="spacingAndGlyphs" textLength="123" x="603.75" y="686.1387">PaymentProcessing</text></a><!--class PaymentInvestigationCase--><a target="_top" xlink:actuate="onRequest" xlink:href="../PaymentInvestigationCase.html" xlink:show="new" xlink:title="Set of activities performed to handle an exception to a normal payment transaction flow, such as: - a payment has not been received. - a payment has been received but is incorrect. - a payment must be corrected or cancelled (requested by the party which ordered the payment)." xlink:type="simple"><rect fill="#EEEEEE" filter="url(#f1t11d6bzr59e5)" height="23.9688" id="PaymentInvestigationCase" style="stroke: #A80036; stroke-width: 1.5;" width="171" x="579.75" y="584"/><rect fill="#EEEEEE" height="23.9688" style="stroke: #A80036; stroke-width: 1.5;" width="171" x="579.75" y="584"/><text fill="#000000" font-family="sans-serif" font-size="12" lengthAdjust="spacingAndGlyphs" textLength="165" x="582.75" y="600.1387">PaymentInvestigationCase</text></a><!--class PaymentInvestigationCaseResolution--><a target="_top" xlink:actuate="onRequest" xlink:href="../PaymentInvestigationCaseResolution.html" xlink:show="new" xlink:title="Specifies the status of an investigation case and the actions taken as a result of this status." xlink:type="simple"><rect fill="#EEEEEE" filter="url(#f1t11d6bzr59e5)" height="23.9688" id="PaymentInvestigationCaseResolution" style="stroke: #A80036; stroke-width: 1.5;" width="237" x="546.75" y="498"/><rect fill="#EEEEEE" height="23.9688" style="stroke: #A80036; stroke-width: 1.5;" width="237" x="546.75" y="498"/><text fill="#000000" font-family="sans-serif" font-size="12" lengthAdjust="spacingAndGlyphs" textLength="231" x="549.75" y="514.1387">PaymentInvestigationCaseResolution</text></a><!--class PaymentInstruction--><a target="_top" xlink:actuate="onRequest" xlink:href="../PaymentInstruction.html" xlink:show="new" xlink:title="Instruction to pay an amount of money to an ultimate beneficiary, on behalf of an originator. This instruction may have to be forwarded several times to complete the settlement chain." xlink:type="simple"><rect fill="#EEEEEE" filter="url(#f1t11d6bzr59e5)" height="23.9688" id="PaymentInstruction" style="stroke: #A80036; stroke-width: 1.5;" width="127" x="701.75" y="412"/><rect fill="#EEEEEE" height="23.9688" style="stroke: #A80036; stroke-width: 1.5;" width="127" x="701.75" y="412"/><text fill="#000000" font-family="sans-serif" font-size="12" lengthAdjust="spacingAndGlyphs" textLength="121" x="704.75" y="428.1387">PaymentInstruction</text></a><!--class CurrencyExchange--><a target="_top" xlink:actuate="onRequest" xlink:href="../CurrencyExchange.html" xlink:show="new" xlink:title="Information needed to process a currency exchange or conversion." xlink:type="simple"><rect fill="#EEEEEE" filter="url(#f1t11d6bzr59e5)" height="23.9688" id="CurrencyExchange" style="stroke: #A80036; stroke-width: 1.5;" width="122" x="707" y="310"/><rect fill="#EEEEEE" height="23.9688" style="stroke: #A80036; stroke-width: 1.5;" width="122" x="707" y="310"/><text fill="#000000" font-family="sans-serif" font-size="12" lengthAdjust="spacingAndGlyphs" textLength="116" x="710" y="326.1387">CurrencyExchange</text></a><!--entity ##17431--><!--link PaymentExecution to PaymentInitiation--><path d="M146.846,141.559 C134.392,165.746 121.17,191.423 113.812,205.712 " fill="none" id="PaymentExecution-PaymentInitiation" style="stroke: #A80036; stroke-width: 1.0;"/><polygon fill="none" points="140.731,138.145,156.11,123.568,153.178,144.554,140.731,138.145" style="stroke: #A80036; stroke-width: 1.0;"/><!--link PaymentProcessing to Payment--><!--link PaymentInvestigationCase to PaymentProcessing--><!--link PaymentInvestigationCaseResolution to PaymentInvestigationCase--><!--link PaymentInstruction to PaymentInvestigationCaseResolution--><!--link CurrencyExchange to PaymentInstruction--><!--link PaymentExecution to Payment--><path d="M291.438,123.568 C369.957,151.403 468.922,186.486 520.365,204.722 " fill="none" id="PaymentExecution-Payment" style="stroke: #A80036; stroke-width: 1.0;"/><polygon fill="#A80036" points="525.192,206.433,518.0448,199.6567,520.4791,204.763,515.3728,207.1973,525.192,206.433" style="stroke: #A80036; stroke-width: 1.0;"/><text fill="#000000" font-family="sans-serif" font-size="13" lengthAdjust="spacingAndGlyphs" textLength="57" x="423" y="167.0669">Payment</text><text fill="#000000" font-family="sans-serif" font-size="13" lengthAdjust="spacingAndGlyphs" textLength="7" x="510.5567" y="198.6903">*</text><!--link PaymentExecution to PaymentProcessing--><path d="M179.558,123.57 C180.532,140.94 181.522,161.457 182,180 C182.847,212.878 182.557,221.116 182,254 C181.111,306.467 178,319.525 178,372 C178,372 178,372 178,597 C178,638.851 460.901,665.7028 595.465,676.1078 " fill="none" id="PaymentExecution-PaymentProcessing" style="stroke: #A80036; stroke-width: 1.0;"/><polygon fill="#A80036" points="600.582,676.5011,591.9147,671.8237,595.5967,676.1182,591.3021,679.8002,600.582,676.5011" style="stroke: #A80036; stroke-width: 1.0;"/><text fill="#000000" font-family="sans-serif" font-size="13" lengthAdjust="spacingAndGlyphs" textLength="143" x="179" y="428.0669">ProcessingInstructions</text><text fill="#000000" font-family="sans-serif" font-size="13" lengthAdjust="spacingAndGlyphs" textLength="7" x="585.7733" y="671.1981">*</text><!--link PaymentExecution to PaymentInvestigationCase--><path d="M302.512,89.791 C541.208,104.397 1037,143.571 1037,217 C1037,217 1037,217 1037,511 C1037,568.517 865.654,586.654 755.541,592.371 " fill="none" id="PaymentExecution-PaymentInvestigationCase" style="stroke: #A80036; stroke-width: 1.0;"/><polygon fill="#A80036" points="750.344,592.633,759.5348,596.1727,755.3376,592.3801,759.1302,588.1829,750.344,592.633" style="stroke: #A80036; stroke-width: 1.0;"/><text fill="#000000" font-family="sans-serif" font-size="13" lengthAdjust="spacingAndGlyphs" textLength="161" x="1038" y="377.0669">RelatedInvestigationCase</text><text fill="#000000" font-family="sans-serif" font-size="13" lengthAdjust="spacingAndGlyphs" textLength="24" x="758.688" y="587.6871">0..1</text><!--link PaymentExecution to PaymentInvestigationCaseResolution--><path d="M222.003,123.72 C230.28,132.996 238.142,143.295 244,154 C283.585,226.34 240.348,267.419 289,334 C361.68,433.464 505.157,478.145 592.336,496.842 " fill="none" id="PaymentExecution-PaymentInvestigationCaseResolution" style="stroke: #A80036; stroke-width: 1.0;"/><polygon fill="#A80036" points="597.478,497.928,589.4998,492.1531,592.5861,496.8939,587.8453,499.9802,597.478,497.928" style="stroke: #A80036; stroke-width: 1.0;"/><text fill="#000000" font-family="sans-serif" font-size="13" lengthAdjust="spacingAndGlyphs" textLength="227" x="290" y="326.0669">RelatedInvestigationCaseResolution</text><text fill="#000000" font-family="sans-serif" font-size="13" lengthAdjust="spacingAndGlyphs" textLength="24" x="544.7126" y="486.9515">0..1</text><!--link PaymentExecution to PaymentInstruction--><path d="M302.385,90.823 C499.31,104.414 862.741,135.282 901,180 C962.052,251.358 903.558,313.798 839,382 C827.842,393.787 812.528,403.038 798.726,409.746 " fill="none" id="PaymentExecution-PaymentInstruction" style="stroke: #A80036; stroke-width: 1.0;"/><polygon fill="#A80036" points="794.111,411.923,803.9573,411.6984,798.6326,409.7886,800.5423,404.4639,794.111,411.923" style="stroke: #A80036; stroke-width: 1.0;"/><text fill="#000000" font-family="sans-serif" font-size="13" lengthAdjust="spacingAndGlyphs" textLength="30" x="925" y="275.0669">Next</text><text fill="#000000" font-family="sans-serif" font-size="13" lengthAdjust="spacingAndGlyphs" textLength="24" x="774.5632" y="400.9447">0..1</text><!--link PaymentExecution to CurrencyExchange--><path d="M302.44,89.997 C447.341,100.545 674.047,125.421 738,180 C774.381,211.048 773.163,274.316 770.207,304.397 " fill="none" id="PaymentExecution-CurrencyExchange" style="stroke: #A80036; stroke-width: 1.0;"/><polygon fill="#A80036" points="769.644,309.613,774.5876,301.0948,770.1811,304.6419,766.6339,300.2354,769.644,309.613" style="stroke: #A80036; stroke-width: 1.0;"/><text fill="#000000" font-family="sans-serif" font-size="13" lengthAdjust="spacingAndGlyphs" textLength="119" x="772" y="222.0669">CurrencyExchange</text><text fill="#000000" font-family="sans-serif" font-size="13" lengthAdjust="spacingAndGlyphs" textLength="7" x="760.7337" y="299.0483">*</text><!--link Payment to CurrencyExchange--><path d="M566.998,230.171 C582.067,243.67 609.206,266.278 636,280 C660.329,292.46 689.14,301.949 713.629,308.644 " fill="none" id="Payment-CurrencyExchange" style="stroke: #A80036; stroke-width: 1.0;"/><polygon fill="#A80036" points="718.467,309.946,710.8146,303.7459,713.6386,308.6475,708.737,311.4714,718.467,309.946" style="stroke: #A80036; stroke-width: 1.0;"/><text fill="#000000" font-family="sans-serif" font-size="13" lengthAdjust="spacingAndGlyphs" textLength="119" x="637" y="275.0669">CurrencyExchange</text><text fill="#000000" font-family="sans-serif" font-size="13" lengthAdjust="spacingAndGlyphs" textLength="7" x="691.8932" y="298.9757">*</text><!--link Payment to PaymentInvestigationCase--><path d="M553.877,230.325 C551.423,251.595 544.346,298.565 527,334 C503.676,381.649 448.318,385.64 465,436 C490.336,512.485 580.406,560.479 630.593,581.908 " fill="none" id="Payment-PaymentInvestigationCase" style="stroke: #A80036; stroke-width: 1.0;"/><polygon fill="#A80036" points="635.322,583.898,628.5789,576.7195,630.7137,581.9581,625.4751,584.0928,635.322,583.898" style="stroke: #A80036; stroke-width: 1.0;"/><text fill="#000000" font-family="sans-serif" font-size="13" lengthAdjust="spacingAndGlyphs" textLength="161" x="466" y="428.0669">RelatedInvestigationCase</text><text fill="#000000" font-family="sans-serif" font-size="13" lengthAdjust="spacingAndGlyphs" textLength="24" x="595.5655" y="572.9112">0..1</text><!--link Payment to PaymentInvestigationCaseResolution--><path d="M557.357,230.21 C565.009,266.528 588.79,378.805 591,382 C604.885,402.074 622.483,392.378 637,412 C654.991,436.318 661.45,471.931 663.749,492.559 " fill="none" id="Payment-PaymentInvestigationCaseResolution" style="stroke: #A80036; stroke-width: 1.0;"/><polygon fill="#A80036" points="664.271,497.711,667.3428,488.3534,663.7667,492.7365,659.3836,489.1603,664.271,497.711" style="stroke: #A80036; stroke-width: 1.0;"/><text fill="#000000" font-family="sans-serif" font-size="13" lengthAdjust="spacingAndGlyphs" textLength="227" x="592" y="377.0669">RelatedInvestigationCaseResolution</text><text fill="#000000" font-family="sans-serif" font-size="13" lengthAdjust="spacingAndGlyphs" textLength="24" x="634.6405" y="486.9187">0..1</text><!--link Payment to Payment--><path d="M584.625,208.859 C602.333,206.828 619,209.875 619,218 C619,225.3 605.547,228.501 589.972,227.602 " fill="none" id="Payment-Payment" style="stroke: #A80036; stroke-width: 1.0;"/><polygon fill="#A80036" points="584.625,227.141,593.2477,231.9002,589.6065,227.571,593.9357,223.9298,584.625,227.141" style="stroke: #A80036; stroke-width: 1.0;"/><text fill="#000000" font-family="sans-serif" font-size="13" lengthAdjust="spacingAndGlyphs" textLength="105" x="625" y="222.0669">OriginalPayment</text><text fill="#000000" font-family="sans-serif" font-size="13" lengthAdjust="spacingAndGlyphs" textLength="8" x="593.5273" y="223.4022">1</text></g></svg>