<?xml version="1.0" encoding="UTF-8" standalone="no"?><svg xmlns="http://www.w3.org/2000/svg" xmlns:xlink="http://www.w3.org/1999/xlink" contentScriptType="application/ecmascript" contentStyleType="text/css" height="502px" preserveAspectRatio="none" style="width:2244px;height:502px;" version="1.1" viewBox="0 0 2244 502" width="2244px" zoomAndPan="magnify"><defs><filter height="300%" id="f1rhkrbpf964od" width="300%" x="-1" y="-1"><feGaussianBlur result="blurOut" stdDeviation="2.0"/><feColorMatrix in="blurOut" result="blurOut2" type="matrix" values="0 0 0 0 0 0 0 0 0 0 0 0 0 0 0 0 0 0 .4 0"/><feOffset dx="4.0" dy="4.0" in="blurOut2" result="blurOut3"/><feBlend in="SourceGraphic" in2="blurOut3" mode="normal"/></filter></defs><g><!--cluster ##7058--><!--cluster ##7091--><!--cluster ##7100--><!--class Role--><a target="_top" xlink:actuate="onRequest" xlink:href="../Role.html" xlink:show="new" xlink:title="Role of a party in an activity." xlink:type="simple"><rect fill="#FEFEEE" filter="url(#f1rhkrbpf964od)" height="44.7734" id="Role" style="stroke: #A80036; stroke-width: 1.5;" width="175" x="1643.75" y="40.5"/><rect fill="#FEFEEE" height="23.9688" style="stroke: #A80036; stroke-width: 1.5;" width="175" x="1643.75" y="40.5"/><text fill="#000000" font-family="sans-serif" font-size="12" lengthAdjust="spacingAndGlyphs" textLength="27" x="1717.75" y="56.6387">Role</text><line style="stroke: #A80036; stroke-width: 1.5;" x1="1644.75" x2="1817.75" y1="64.4688" y2="64.4688"/><ellipse cx="1654.75" cy="76.3711" fill="#84BE84" rx="3" ry="3" style="stroke: #038048; stroke-width: 1.0;"/><text fill="#000000" font-family="sans-serif" font-size="11" lengthAdjust="spacingAndGlyphs" textLength="53" x="1663.75" y="78.6792">PartyRole</text><text fill="#000000" font-family="sans-serif" font-size="11" font-style="italic" lengthAdjust="spacingAndGlyphs" textLength="92" x="1720.75" y="78.6792">(PartyRoleCode)</text></a><!--class PaymentPartyRole--><a target="_top" xlink:actuate="onRequest" xlink:href="../PaymentPartyRole.html" xlink:show="new" xlink:title="Role played by a party in the context of a payment." xlink:type="simple"><rect fill="#FEFECE" filter="url(#f1rhkrbpf964od)" height="23.9688" id="PaymentPartyRole" style="stroke: #A80036; stroke-width: 1.5;" width="119" x="792.75" y="166"/><rect fill="#FEFECE" height="23.9688" style="stroke: #A80036; stroke-width: 1.5;" width="119" x="792.75" y="166"/><text fill="#000000" font-family="sans-serif" font-size="12" lengthAdjust="spacingAndGlyphs" textLength="113" x="795.75" y="182.1387">PaymentPartyRole</text></a><!--class InstructingAgentRole--><a target="_top" xlink:actuate="onRequest" xlink:href="../InstructingAgentRole.html" xlink:show="new" xlink:title="Agent that instructs the next party in the chain to carry out the (set of) instruction(s)." xlink:type="simple"><rect fill="#FEFEEE" filter="url(#f1rhkrbpf964od)" height="23.9688" id="InstructingAgentRole" style="stroke: #A80036; stroke-width: 1.5;" width="137" x="290.75" y="270"/><rect fill="#FEFEEE" height="23.9688" style="stroke: #A80036; stroke-width: 1.5;" width="137" x="290.75" y="270"/><text fill="#000000" font-family="sans-serif" font-size="12" lengthAdjust="spacingAndGlyphs" textLength="131" x="293.75" y="286.1387">InstructingAgentRole</text></a><!--class InstructedAgentRole--><a target="_top" xlink:actuate="onRequest" xlink:href="../InstructedAgentRole.html" xlink:show="new" xlink:title="Agent that is instructed by the previous party in the chain to carry out the (set of) instruction(s)." xlink:type="simple"><rect fill="#FEFEEE" filter="url(#f1rhkrbpf964od)" height="23.9688" id="InstructedAgentRole" style="stroke: #A80036; stroke-width: 1.5;" width="134" x="463" y="270"/><rect fill="#FEFEEE" height="23.9688" style="stroke: #A80036; stroke-width: 1.5;" width="134" x="463" y="270"/><text fill="#000000" font-family="sans-serif" font-size="12" lengthAdjust="spacingAndGlyphs" textLength="128" x="466" y="286.1387">InstructedAgentRole</text></a><!--class DebtorRole--><a target="_top" xlink:actuate="onRequest" xlink:href="../DebtorRole.html" xlink:show="new" xlink:title="Party that owes an amount of money to the (ultimate) creditor. For example, as a result of receipt of goods, assets, services, gifts, or charity payments." xlink:type="simple"><rect fill="#FEFEEE" filter="url(#f1rhkrbpf964od)" height="23.9688" id="DebtorRole" style="stroke: #A80036; stroke-width: 1.5;" width="76" x="632" y="270"/><rect fill="#FEFEEE" height="23.9688" style="stroke: #A80036; stroke-width: 1.5;" width="76" x="632" y="270"/><text fill="#000000" font-family="sans-serif" font-size="12" lengthAdjust="spacingAndGlyphs" textLength="70" x="635" y="286.1387">DebtorRole</text></a><!--class DebtorAgentRole--><a target="_top" xlink:actuate="onRequest" xlink:href="../DebtorAgentRole.html" xlink:show="new" xlink:title="Financial institution servicing an account for the debtor." xlink:type="simple"><rect fill="#FEFEEE" filter="url(#f1rhkrbpf964od)" height="23.9688" id="DebtorAgentRole" style="stroke: #A80036; stroke-width: 1.5;" width="113" x="743.75" y="270"/><rect fill="#FEFEEE" height="23.9688" style="stroke: #A80036; stroke-width: 1.5;" width="113" x="743.75" y="270"/><text fill="#000000" font-family="sans-serif" font-size="12" lengthAdjust="spacingAndGlyphs" textLength="107" x="746.75" y="286.1387">DebtorAgentRole</text></a><!--class CreditorRole--><a target="_top" xlink:actuate="onRequest" xlink:href="../CreditorRole.html" xlink:show="new" xlink:title="Party to which an amount of money is due." xlink:type="simple"><rect fill="#FEFEEE" filter="url(#f1rhkrbpf964od)" height="23.9688" id="CreditorRole" style="stroke: #A80036; stroke-width: 1.5;" width="83" x="891.75" y="270"/><rect fill="#FEFEEE" height="23.9688" style="stroke: #A80036; stroke-width: 1.5;" width="83" x="891.75" y="270"/><text fill="#000000" font-family="sans-serif" font-size="12" lengthAdjust="spacingAndGlyphs" textLength="77" x="894.75" y="286.1387">CreditorRole</text></a><!--class IntermediaryAgentRole--><a target="_top" xlink:actuate="onRequest" xlink:href="../IntermediaryAgentRole.html" xlink:show="new" xlink:title="Agent between the debtor's agent and the creditor's agent. There can be several intermediary agents specified for the execution of a payment." xlink:type="simple"><rect fill="#FEFEEE" filter="url(#f1rhkrbpf964od)" height="23.9688" id="IntermediaryAgentRole" style="stroke: #A80036; stroke-width: 1.5;" width="148" x="1010" y="270"/><rect fill="#FEFEEE" height="23.9688" style="stroke: #A80036; stroke-width: 1.5;" width="148" x="1010" y="270"/><text fill="#000000" font-family="sans-serif" font-size="12" lengthAdjust="spacingAndGlyphs" textLength="142" x="1013" y="286.1387">IntermediaryAgentRole</text></a><!--class CreditorAgentRole--><a target="_top" xlink:actuate="onRequest" xlink:href="../CreditorAgentRole.html" xlink:show="new" xlink:title="Financial institution servicing an account for the creditor." xlink:type="simple"><rect fill="#FEFEEE" filter="url(#f1rhkrbpf964od)" height="23.9688" id="CreditorAgentRole" style="stroke: #A80036; stroke-width: 1.5;" width="120" x="1370.5" y="270"/><rect fill="#FEFEEE" height="23.9688" style="stroke: #A80036; stroke-width: 1.5;" width="120" x="1370.5" y="270"/><text fill="#000000" font-family="sans-serif" font-size="12" lengthAdjust="spacingAndGlyphs" textLength="114" x="1373.5" y="286.1387">CreditorAgentRole</text></a><!--class ForwardingAgentRole--><a target="_top" xlink:actuate="onRequest" xlink:href="../ForwardingAgentRole.html" xlink:show="new" xlink:title="Financial institution that receives the instruction from the initiating party and forwards it to the next agent in the payment chain for execution." xlink:type="simple"><rect fill="#FEFEEE" filter="url(#f1rhkrbpf964od)" height="23.9688" id="ForwardingAgentRole" style="stroke: #A80036; stroke-width: 1.5;" width="139" x="1525.75" y="270"/><rect fill="#FEFEEE" height="23.9688" style="stroke: #A80036; stroke-width: 1.5;" width="139" x="1525.75" y="270"/><text fill="#000000" font-family="sans-serif" font-size="12" lengthAdjust="spacingAndGlyphs" textLength="133" x="1528.75" y="286.1387">ForwardingAgentRole</text></a><!--class InitiatingPartyRole--><a target="_top" xlink:actuate="onRequest" xlink:href="../InitiatingPartyRole.html" xlink:show="new" xlink:title="Party initiating the payment to an agent. In the payment context, this can either be the debtor (in a credit transfer), the creditor (in a direct debit), or a party that initiates the payment on behalf of the debtor or creditor. In the context of treasury, the party that instructs the trading party to execute a treasury deal on its behalf." xlink:type="simple"><rect fill="#FEFEEE" filter="url(#f1rhkrbpf964od)" height="23.9688" id="InitiatingPartyRole" style="stroke: #A80036; stroke-width: 1.5;" width="119" x="1699.75" y="270"/><rect fill="#FEFEEE" height="23.9688" style="stroke: #A80036; stroke-width: 1.5;" width="119" x="1699.75" y="270"/><text fill="#000000" font-family="sans-serif" font-size="12" lengthAdjust="spacingAndGlyphs" textLength="113" x="1702.75" y="286.1387">InitiatingPartyRole</text></a><!--class RolePlayer--><a target="_top" xlink:actuate="onRequest" xlink:href="../RolePlayer.html" xlink:show="new" xlink:title="Type of entity that plays a specific role in a specific context." xlink:type="simple"><rect fill="#EEEEEE" filter="url(#f1rhkrbpf964od)" height="23.9688" id="RolePlayer" style="stroke: #A80036; stroke-width: 1.5;" width="71" x="2114.75" y="468"/><rect fill="#EEEEEE" height="23.9688" style="stroke: #A80036; stroke-width: 1.5;" width="71" x="2114.75" y="468"/><text fill="#000000" font-family="sans-serif" font-size="12" lengthAdjust="spacingAndGlyphs" textLength="65" x="2117.75" y="484.1387">RolePlayer</text></a><!--class ContactPersonRole--><a target="_top" xlink:actuate="onRequest" xlink:href="../ContactPersonRole.html" xlink:show="new" xlink:title="Person to be contacted in a given organisation. In the corporate action domain (including meeting notifications), it is the contact person at the party organising the meeting, at the issuer or at an intermediary." xlink:type="simple"><rect fill="#EEEEEE" filter="url(#f1rhkrbpf964od)" height="23.9688" id="ContactPersonRole" style="stroke: #A80036; stroke-width: 1.5;" width="126" x="2107" y="378"/><rect fill="#EEEEEE" height="23.9688" style="stroke: #A80036; stroke-width: 1.5;" width="126" x="2107" y="378"/><text fill="#000000" font-family="sans-serif" font-size="12" lengthAdjust="spacingAndGlyphs" textLength="120" x="2110" y="394.1387">ContactPersonRole</text></a><!--class CounterpartyRisk--><a target="_top" xlink:actuate="onRequest" xlink:href="../CounterpartyRisk.html" xlink:show="new" xlink:title="Calculation of the exposure amount that one party has vis-a-vis one counterparty or a central system, based on its credit risk." xlink:type="simple"><rect fill="#EEEEEE" filter="url(#f1rhkrbpf964od)" height="23.9688" id="CounterpartyRisk" style="stroke: #A80036; stroke-width: 1.5;" width="113" x="2113.75" y="270"/><rect fill="#EEEEEE" height="23.9688" style="stroke: #A80036; stroke-width: 1.5;" width="113" x="2113.75" y="270"/><text fill="#000000" font-family="sans-serif" font-size="12" lengthAdjust="spacingAndGlyphs" textLength="107" x="2116.75" y="286.1387">CounterpartyRisk</text></a><!--class Entry--><a target="_top" xlink:actuate="onRequest" xlink:href="../Entry.html" xlink:show="new" xlink:title="Posting to an account that results in an increase or decrease to a balance." xlink:type="simple"><rect fill="#EEEEEE" filter="url(#f1rhkrbpf964od)" height="23.9688" id="Entry" style="stroke: #A80036; stroke-width: 1.5;" width="38" x="2195" y="166"/><rect fill="#EEEEEE" height="23.9688" style="stroke: #A80036; stroke-width: 1.5;" width="38" x="2195" y="166"/><text fill="#000000" font-family="sans-serif" font-size="12" lengthAdjust="spacingAndGlyphs" textLength="32" x="2198" y="182.1387">Entry</text></a><!--class CashAccount--><a target="_top" xlink:actuate="onRequest" xlink:href="../CashAccount.html" xlink:show="new" xlink:title="Account to or from which a cash entry is made." xlink:type="simple"><rect fill="#EEEEEE" filter="url(#f1rhkrbpf964od)" height="23.9688" id="CashAccount" style="stroke: #A80036; stroke-width: 1.5;" width="88" x="146.5" y="270"/><rect fill="#EEEEEE" height="23.9688" style="stroke: #A80036; stroke-width: 1.5;" width="88" x="146.5" y="270"/><text fill="#000000" font-family="sans-serif" font-size="12" lengthAdjust="spacingAndGlyphs" textLength="82" x="149.5" y="286.1387">CashAccount</text></a><!--class Payment--><a target="_top" xlink:actuate="onRequest" xlink:href="../Payment.html" xlink:show="new" xlink:title="Payment information and processes required to transfer cash end to end from the debtor to the creditor." xlink:type="simple"><rect fill="#EEEEEE" filter="url(#f1rhkrbpf964od)" height="23.9688" id="Payment" style="stroke: #A80036; stroke-width: 1.5;" width="60" x="38.5" y="378"/><rect fill="#EEEEEE" height="23.9688" style="stroke: #A80036; stroke-width: 1.5;" width="60" x="38.5" y="378"/><text fill="#000000" font-family="sans-serif" font-size="12" lengthAdjust="spacingAndGlyphs" textLength="54" x="41.5" y="394.1387">Payment</text></a><!--link Role to PaymentPartyRole--><path d="M1623.59,77.808 C1436.69,101.835 1057.65,150.562 911.414,169.362 " fill="none" id="Role-PaymentPartyRole" style="stroke: #A80036; stroke-width: 1.0;"/><polygon fill="none" points="1622.78,70.855,1643.5,75.248,1624.56,84.741,1622.78,70.855" style="stroke: #A80036; stroke-width: 1.0;"/><!--link PaymentPartyRole to InstructingAgentRole--><path d="M772.514,186.768 C689.634,196.097 556.51,214.558 445,246 C423.124,252.168 399.257,262.159 382.228,269.891 " fill="none" id="PaymentPartyRole-InstructingAgentRole" style="stroke: #A80036; stroke-width: 1.0;"/><polygon fill="none" points="771.817,179.803,792.459,184.591,773.336,193.72,771.817,179.803" style="stroke: #A80036; stroke-width: 1.0;"/><!--link PaymentPartyRole to InstructedAgentRole--><path d="M787.332,194.954 C739.093,207.396 671.827,225.895 614,246 C593.556,253.108 570.937,262.632 554.325,269.95 " fill="none" id="PaymentPartyRole-InstructedAgentRole" style="stroke: #A80036; stroke-width: 1.0;"/><polygon fill="none" points="785.649,188.159,806.758,190.005,789.105,201.726,785.649,188.159" style="stroke: #A80036; stroke-width: 1.0;"/><!--link PaymentPartyRole to DebtorRole--><path d="M811.758,199.486 C786.824,212.404 754.272,229.675 726,246 C712.696,253.682 697.976,262.912 686.968,269.964 " fill="none" id="PaymentPartyRole-DebtorRole" style="stroke: #A80036; stroke-width: 1.0;"/><polygon fill="none" points="808.906,193.081,829.894,190.161,815.308,205.532,808.906,193.081" style="stroke: #A80036; stroke-width: 1.0;"/><!--link PaymentPartyRole to DebtorAgentRole--><path d="M837.053,208.32 C826.553,228.916 813.098,255.309 805.631,269.954 " fill="none" id="PaymentPartyRole-DebtorAgentRole" style="stroke: #A80036; stroke-width: 1.0;"/><polygon fill="none" points="830.916,204.944,846.236,190.306,843.389,211.303,830.916,204.944" style="stroke: #A80036; stroke-width: 1.0;"/><!--link PaymentPartyRole to CreditorRole--><path d="M873.514,206.091 C890.099,226.976 912.174,254.775 924.228,269.954 " fill="none" id="PaymentPartyRole-CreditorRole" style="stroke: #A80036; stroke-width: 1.0;"/><polygon fill="none" points="867.934,210.321,860.978,190.306,878.897,201.615,867.934,210.321" style="stroke: #A80036; stroke-width: 1.0;"/><!--link PaymentPartyRole to IntermediaryAgentRole--><path d="M895.729,198.226 C943.88,219.395 1019.64,252.706 1058.76,269.904 " fill="none" id="PaymentPartyRole-IntermediaryAgentRole" style="stroke: #A80036; stroke-width: 1.0;"/><polygon fill="none" points="892.761,204.568,877.27,190.11,898.396,191.751,892.761,204.568" style="stroke: #A80036; stroke-width: 1.0;"/><!--link PaymentPartyRole to CreditorAgentRole--><path d="M931.757,182.601 C1031.66,188.714 1207.31,204.785 1352,246 C1372.41,251.815 1394.36,262.054 1409.76,269.961 " fill="none" id="PaymentPartyRole-CreditorAgentRole" style="stroke: #A80036; stroke-width: 1.0;"/><polygon fill="none" points="931.191,189.58,911.626,181.442,931.996,175.603,931.191,189.58" style="stroke: #A80036; stroke-width: 1.0;"/><!--link PaymentPartyRole to ForwardingAgentRole--><path d="M931.967,179.799 C1056.51,182.685 1303.55,195.017 1506,246 C1529.02,251.798 1554.1,262.039 1571.74,269.951 " fill="none" id="PaymentPartyRole-ForwardingAgentRole" style="stroke: #A80036; stroke-width: 1.0;"/><polygon fill="none" points="931.469,186.79,911.614,179.387,931.752,172.793,931.469,186.79" style="stroke: #A80036; stroke-width: 1.0;"/><!--link PaymentPartyRole to InitiatingPartyRole--><path d="M931.49,181.726 C1110.61,188.467 1541.05,208.175 1681,246 C1701.63,251.577 1723.73,261.954 1739.12,269.966 " fill="none" id="PaymentPartyRole-InitiatingPartyRole" style="stroke: #A80036; stroke-width: 1.0;"/><polygon fill="none" points="931.157,188.719,911.429,180.986,931.673,174.728,931.157,188.719" style="stroke: #A80036; stroke-width: 1.0;"/><!--link ContactPersonRole to RolePlayer--><!--link CounterpartyRisk to ContactPersonRole--><!--link Entry to CounterpartyRisk--><!--link Payment to CashAccount--><!--link CashAccount to Payment--><path d="M165.429,294.116 C149.415,302.105 128.663,313.925 113,328 C98.3538,341.161 85.4558,359.776 77.2658,372.973 " fill="none" id="CashAccount-Payment" style="stroke: #A80036; stroke-width: 1.0;"/><polygon fill="#A80036" points="74.4669,377.57,82.5636,371.9626,77.067,373.2992,75.7304,367.8025,74.4669,377.57" style="stroke: #A80036; stroke-width: 1.0;"/><text fill="#000000" font-family="sans-serif" font-size="13" lengthAdjust="spacingAndGlyphs" textLength="57" x="114" y="341.0669">Payment</text><text fill="#000000" font-family="sans-serif" font-size="13" lengthAdjust="spacingAndGlyphs" textLength="8" x="65.7751" y="366.9916">1</text><!--link Role to RolePlayer--><path d="M1803.99,85.548 C1845.39,102.753 1889,131.641 1889,177 C1889,177 1889,177 1889,391 C1889,436.9392 2036.02,463.4913 2109.38,473.8799 " fill="none" id="Role-RolePlayer" style="stroke: #A80036; stroke-width: 1.0;"/><polygon fill="#A80036" points="2114.53,474.6,2106.1785,469.3797,2109.5792,473.9002,2105.0587,477.3009,2114.53,474.6" style="stroke: #A80036; stroke-width: 1.0;"/><text fill="#000000" font-family="sans-serif" font-size="13" lengthAdjust="spacingAndGlyphs" textLength="39" x="1890" y="286.0669">Player</text><text fill="#000000" font-family="sans-serif" font-size="13" lengthAdjust="spacingAndGlyphs" textLength="7" x="2099.8686" y="468.3783">*</text><!--link Role to ContactPersonRole--><path d="M1818.26,72.588 C1851.72,79.708 1888.25,92.627 1915,116 C1959.52,154.901 1931.32,191.639 1968,238 C2018.46,301.775 2102.03,352.493 2144.1,375.53 " fill="none" id="Role-ContactPersonRole" style="stroke: #A80036; stroke-width: 1.0;"/><polygon fill="#A80036" points="2148.53,377.938,2142.5497,370.1127,2144.1422,375.5407,2138.7141,377.1332,2148.53,377.938" style="stroke: #A80036; stroke-width: 1.0;"/><text fill="#000000" font-family="sans-serif" font-size="13" lengthAdjust="spacingAndGlyphs" textLength="121" x="1969" y="233.0669">ContactPersonRole</text><text fill="#000000" font-family="sans-serif" font-size="13" lengthAdjust="spacingAndGlyphs" textLength="8" x="2130.4309" y="366.9649">1</text><!--link Role to CounterpartyRisk--><path d="M1818.42,70.023 C1869.54,76.359 1934.04,89.354 1986,116 C2029.1,138.1 2029.99,157.605 2066,190 C2096.43,217.379 2132.5,248.687 2153.17,266.523 " fill="none" id="Role-CounterpartyRisk" style="stroke: #A80036; stroke-width: 1.0;"/><polygon fill="#A80036" points="2157.09,269.906,2152.894,260.9957,2153.3062,266.6375,2147.6644,267.0497,2157.09,269.906" style="stroke: #A80036; stroke-width: 1.0;"/><text fill="#000000" font-family="sans-serif" font-size="13" lengthAdjust="spacingAndGlyphs" textLength="109" x="2067" y="182.0669">CounterpartyRisk</text><text fill="#000000" font-family="sans-serif" font-size="13" lengthAdjust="spacingAndGlyphs" textLength="24" x="2123.0975" y="258.9219">0..1</text><!--link Role to Entry--><path d="M1818.57,74.345 C1888.19,83.273 1987.85,97.625 2074,116 C2116.39,125.043 2129.16,122.751 2168,142 C2178.82,147.361 2189.63,155.414 2198.05,162.444 " fill="none" id="Role-Entry" style="stroke: #A80036; stroke-width: 1.0;"/><polygon fill="#A80036" points="2201.98,165.797,2197.7256,156.9144,2198.1749,162.5534,2192.5359,163.0027,2201.98,165.797" style="stroke: #A80036; stroke-width: 1.0;"/><text fill="#000000" font-family="sans-serif" font-size="13" lengthAdjust="spacingAndGlyphs" textLength="33" x="2150" y="129.0669">Entry</text><text fill="#000000" font-family="sans-serif" font-size="13" lengthAdjust="spacingAndGlyphs" textLength="8" x="2187.3421" y="155.0332">1</text><!--link PaymentPartyRole to CashAccount--><path d="M792.425,181.401 C703.016,185.636 529.033,196.332 383,220 C333.838,227.968 321.361,230.595 274,246 C255.211,252.112 234.732,260.605 218.699,267.694 " fill="none" id="PaymentPartyRole-CashAccount" style="stroke: #A80036; stroke-width: 1.0;"/><polygon fill="#A80036" points="213.873,269.845,223.7219,269.8344,218.4399,267.8094,220.4649,262.5274,213.873,269.845" style="stroke: #A80036; stroke-width: 1.0;"/><text fill="#000000" font-family="sans-serif" font-size="13" lengthAdjust="spacingAndGlyphs" textLength="84" x="384" y="233.0669">CashAccount</text><text fill="#000000" font-family="sans-serif" font-size="13" lengthAdjust="spacingAndGlyphs" textLength="7" x="212.3606" y="258.8399">*</text><!--link PaymentPartyRole to Payment--><path d="M792.596,179.492 C618.048,181.558 115.969,192.169 68,246 C36.4358,281.422 51.9973,343.648 61.9151,372.92 " fill="none" id="PaymentPartyRole-Payment" style="stroke: #A80036; stroke-width: 1.0;"/><polygon fill="#A80036" points="63.6887,377.988,64.4916,368.1719,62.0372,373.2686,56.9405,370.8143,63.6887,377.988" style="stroke: #A80036; stroke-width: 1.0;"/><text fill="#000000" font-family="sans-serif" font-size="13" lengthAdjust="spacingAndGlyphs" textLength="57" x="69" y="286.0669">Payment</text><text fill="#000000" font-family="sans-serif" font-size="13" lengthAdjust="spacingAndGlyphs" textLength="23" x="33.7379" y="367.0321">1..*</text><!--link IntermediaryAgentRole to IntermediaryAgentRole--><path d="M1158.13,272.329 C1177.95,272.86 1193,276.084 1193,282 C1193,287.408 1180.43,290.566 1163.12,291.475 " fill="none" id="IntermediaryAgentRole-IntermediaryAgentRole" style="stroke: #A80036; stroke-width: 1.0;"/><polygon fill="#A80036" points="1158.13,291.671,1167.2828,295.3078,1163.126,291.471,1166.9628,287.3142,1158.13,291.671" style="stroke: #A80036; stroke-width: 1.0;"/><text fill="#000000" font-family="sans-serif" font-size="13" lengthAdjust="spacingAndGlyphs" textLength="146" x="1199" y="286.0669">IntermediaryAgentRole</text><text fill="#000000" font-family="sans-serif" font-size="13" lengthAdjust="spacingAndGlyphs" textLength="8" x="1166.1872" y="287.8671">1</text><!--link Payment to Payment--><path d="M97.625,381.914 C115.333,380.117 132,382.812 132,390 C132,396.458 118.547,399.289 102.9719,398.494 " fill="none" id="Payment-Payment" style="stroke: #A80036; stroke-width: 1.0;"/><polygon fill="#A80036" points="97.625,398.086,106.2941,402.7601,102.6105,398.467,106.9036,394.7834,97.625,398.086" style="stroke: #A80036; stroke-width: 1.0;"/><text fill="#000000" font-family="sans-serif" font-size="13" lengthAdjust="spacingAndGlyphs" textLength="105" x="138" y="394.0669">OriginalPayment</text><text fill="#000000" font-family="sans-serif" font-size="13" lengthAdjust="spacingAndGlyphs" textLength="8" x="106.5273" y="394.0637">1</text></g></svg>