<?xml version="1.0" encoding="UTF-8" standalone="no"?><svg xmlns="http://www.w3.org/2000/svg" xmlns:xlink="http://www.w3.org/1999/xlink" contentScriptType="application/ecmascript" contentStyleType="text/css" height="702px" preserveAspectRatio="none" style="width:2610px;height:702px;" version="1.1" viewBox="0 0 2610 702" width="2610px" zoomAndPan="magnify"><defs><filter height="300%" id="fxc935ru83cui" width="300%" x="-1" y="-1"><feGaussianBlur result="blurOut" stdDeviation="2.0"/><feColorMatrix in="blurOut" result="blurOut2" type="matrix" values="0 0 0 0 0 0 0 0 0 0 0 0 0 0 0 0 0 0 .4 0"/><feOffset dx="4.0" dy="4.0" in="blurOut2" result="blurOut3"/><feBlend in="SourceGraphic" in2="blurOut3" mode="normal"/></filter></defs><g><!--cluster ##2149--><!--cluster ##2161--><!--class Product--><a target="_top" xlink:actuate="onRequest" xlink:href="../Product.html" xlink:show="new" xlink:title="Item that is offered for sale. Products can be services or goods." xlink:type="simple"><rect fill="#FEFECE" filter="url(#fxc935ru83cui)" height="70.3828" id="Product" style="stroke: #A80036; stroke-width: 1.5;" width="171" x="2219.75" y="40"/><rect fill="#FEFECE" height="23.9688" style="stroke: #A80036; stroke-width: 1.5;" width="171" x="2219.75" y="40"/><text fill="#000000" font-family="sans-serif" font-size="12" lengthAdjust="spacingAndGlyphs" textLength="49" x="2280.75" y="56.1387">Product</text><line style="stroke: #A80036; stroke-width: 1.5;" x1="2220.75" x2="2389.75" y1="63.9688" y2="63.9688"/><ellipse cx="2230.75" cy="75.8711" fill="#84BE84" rx="3" ry="3" style="stroke: #038048; stroke-width: 1.0;"/><text fill="#000000" font-family="sans-serif" font-size="11" lengthAdjust="spacingAndGlyphs" textLength="33" x="2239.75" y="78.1792">Name</text><text fill="#000000" font-family="sans-serif" font-size="11" font-style="italic" lengthAdjust="spacingAndGlyphs" textLength="70" x="2276.75" y="78.1792">(Max35Text)</text><ellipse cx="2230.75" cy="88.6758" fill="#84BE84" rx="3" ry="3" style="stroke: #038048; stroke-width: 1.0;"/><text fill="#000000" font-family="sans-serif" font-size="11" lengthAdjust="spacingAndGlyphs" textLength="64" x="2239.75" y="90.9839">Description</text><text fill="#000000" font-family="sans-serif" font-size="11" font-style="italic" lengthAdjust="spacingAndGlyphs" textLength="77" x="2307.75" y="90.9839">(Max140Text)</text><ellipse cx="2230.75" cy="101.4805" fill="#84BE84" rx="3" ry="3" style="stroke: #038048; stroke-width: 1.0;"/><text fill="#000000" font-family="sans-serif" font-size="11" lengthAdjust="spacingAndGlyphs" textLength="39" x="2239.75" y="103.7886">Quality</text><text fill="#000000" font-family="sans-serif" font-size="11" font-style="italic" lengthAdjust="spacingAndGlyphs" textLength="70" x="2282.75" y="103.7886">(Max70Text)</text></a><!--class Service--><a target="_top" xlink:actuate="onRequest" xlink:href="../Service.html" xlink:show="new" xlink:title="Service is the intangible equivalent of a good." xlink:type="simple"><rect fill="#FEFEEE" filter="url(#fxc935ru83cui)" height="23.9688" id="Service" style="stroke: #A80036; stroke-width: 1.5;" width="51" x="2219.75" y="188"/><rect fill="#FEFEEE" height="23.9688" style="stroke: #A80036; stroke-width: 1.5;" width="51" x="2219.75" y="188"/><text fill="#000000" font-family="sans-serif" font-size="12" lengthAdjust="spacingAndGlyphs" textLength="45" x="2222.75" y="204.1387">Service</text></a><!--class Goods--><a target="_top" xlink:actuate="onRequest" xlink:href="../Goods.html" xlink:show="new" xlink:title="Good is a physical product that can be delivered to a purchaser and that involves the transfer of ownership from seller to customer." xlink:type="simple"><rect fill="#FEFEEE" filter="url(#fxc935ru83cui)" height="23.9688" id="Goods" style="stroke: #A80036; stroke-width: 1.5;" width="46" x="2306" y="188"/><rect fill="#FEFEEE" height="23.9688" style="stroke: #A80036; stroke-width: 1.5;" width="46" x="2306" y="188"/><text fill="#000000" font-family="sans-serif" font-size="12" lengthAdjust="spacingAndGlyphs" textLength="40" x="2309" y="204.1387">Goods</text></a><!--class FinancialProduct--><a target="_top" xlink:actuate="onRequest" xlink:href="../FinancialProduct.html" xlink:show="new" xlink:title="Product offered by a financial institution to its customers." xlink:type="simple"><rect fill="#FEFEEE" filter="url(#fxc935ru83cui)" height="23.9688" id="FinancialProduct" style="stroke: #A80036; stroke-width: 1.5;" width="110" x="2387" y="188"/><rect fill="#FEFEEE" height="23.9688" style="stroke: #A80036; stroke-width: 1.5;" width="110" x="2387" y="188"/><text fill="#000000" font-family="sans-serif" font-size="12" lengthAdjust="spacingAndGlyphs" textLength="104" x="2390" y="204.1387">FinancialProduct</text></a><!--class CardPayment--><a target="_top" xlink:actuate="onRequest" xlink:href="../CardPayment.html" xlink:show="new" xlink:title="Payment through an electronic money product." xlink:type="simple"><rect fill="#EEEEEE" filter="url(#fxc935ru83cui)" height="23.9688" id="CardPayment" style="stroke: #A80036; stroke-width: 1.5;" width="89" x="1374.75" y="394"/><rect fill="#EEEEEE" height="23.9688" style="stroke: #A80036; stroke-width: 1.5;" width="89" x="1374.75" y="394"/><text fill="#000000" font-family="sans-serif" font-size="12" lengthAdjust="spacingAndGlyphs" textLength="83" x="1377.75" y="410.1387">CardPayment</text></a><!--class Price--><a target="_top" xlink:actuate="onRequest" xlink:href="../Price.html" xlink:show="new" xlink:title="Amount of money for which goods, services or assets are offered, sold, or bought." xlink:type="simple"><rect fill="#EEEEEE" filter="url(#fxc935ru83cui)" height="23.9688" id="Price" style="stroke: #A80036; stroke-width: 1.5;" width="37" x="1425.75" y="292"/><rect fill="#EEEEEE" height="23.9688" style="stroke: #A80036; stroke-width: 1.5;" width="37" x="1425.75" y="292"/><text fill="#000000" font-family="sans-serif" font-size="12" lengthAdjust="spacingAndGlyphs" textLength="31" x="1428.75" y="308.1387">Price</text></a><!--class ProductCategory--><a target="_top" xlink:actuate="onRequest" xlink:href="../ProductCategory.html" xlink:show="new" xlink:title="Specifies the category of the product." xlink:type="simple"><rect fill="#EEEEEE" filter="url(#fxc935ru83cui)" height="23.9688" id="ProductCategory" style="stroke: #A80036; stroke-width: 1.5;" width="111" x="1352.75" y="188"/><rect fill="#EEEEEE" height="23.9688" style="stroke: #A80036; stroke-width: 1.5;" width="111" x="1352.75" y="188"/><text fill="#000000" font-family="sans-serif" font-size="12" lengthAdjust="spacingAndGlyphs" textLength="105" x="1355.75" y="204.1387">ProductCategory</text></a><!--class LineItem--><a target="_top" xlink:actuate="onRequest" xlink:href="../LineItem.html" xlink:show="new" xlink:title="Unit of information  showing the related  provision of products and/or services and monetary summations reported as a discrete line item." xlink:type="simple"><rect fill="#EEEEEE" filter="url(#fxc935ru83cui)" height="23.9688" id="LineItem" style="stroke: #A80036; stroke-width: 1.5;" width="58" x="707.5" y="63"/><rect fill="#EEEEEE" height="23.9688" style="stroke: #A80036; stroke-width: 1.5;" width="58" x="707.5" y="63"/><text fill="#000000" font-family="sans-serif" font-size="12" lengthAdjust="spacingAndGlyphs" textLength="52" x="710.5" y="79.1387">LineItem</text></a><!--class ProductIdentification--><a target="_top" xlink:actuate="onRequest" xlink:href="../ProductIdentification.html" xlink:show="new" xlink:title="Information used to identify a product." xlink:type="simple"><rect fill="#EEEEEE" filter="url(#fxc935ru83cui)" height="23.9688" id="ProductIdentification" style="stroke: #A80036; stroke-width: 1.5;" width="136" x="1237" y="496"/><rect fill="#EEEEEE" height="23.9688" style="stroke: #A80036; stroke-width: 1.5;" width="136" x="1237" y="496"/><text fill="#000000" font-family="sans-serif" font-size="12" lengthAdjust="spacingAndGlyphs" textLength="130" x="1240" y="512.1387">ProductIdentification</text></a><!--class Country--><a target="_top" xlink:actuate="onRequest" xlink:href="../Country.html" xlink:show="new" xlink:title="Nation with its own government." xlink:type="simple"><rect fill="#EEEEEE" filter="url(#fxc935ru83cui)" height="23.9688" id="Country" style="stroke: #A80036; stroke-width: 1.5;" width="54" x="1284" y="394"/><rect fill="#EEEEEE" height="23.9688" style="stroke: #A80036; stroke-width: 1.5;" width="54" x="1284" y="394"/><text fill="#000000" font-family="sans-serif" font-size="12" lengthAdjust="spacingAndGlyphs" textLength="48" x="1287" y="410.1387">Country</text></a><!--class ProductCharacteristics--><a target="_top" xlink:actuate="onRequest" xlink:href="../ProductCharacteristics.html" xlink:show="new" xlink:title="Identifies the characteristic of a product." xlink:type="simple"><rect fill="#EEEEEE" filter="url(#fxc935ru83cui)" height="23.9688" id="ProductCharacteristics" style="stroke: #A80036; stroke-width: 1.5;" width="149" x="918.75" y="292"/><rect fill="#EEEEEE" height="23.9688" style="stroke: #A80036; stroke-width: 1.5;" width="149" x="918.75" y="292"/><text fill="#000000" font-family="sans-serif" font-size="12" lengthAdjust="spacingAndGlyphs" textLength="143" x="921.75" y="308.1387">ProductCharacteristics</text></a><!--class ProductQuantity--><a target="_top" xlink:actuate="onRequest" xlink:href="../ProductQuantity.html" xlink:show="new" xlink:title="Specifies the ordered quantity of a product." xlink:type="simple"><rect fill="#EEEEEE" filter="url(#fxc935ru83cui)" height="23.9688" id="ProductQuantity" style="stroke: #A80036; stroke-width: 1.5;" width="107" x="919.75" y="188"/><rect fill="#EEEEEE" height="23.9688" style="stroke: #A80036; stroke-width: 1.5;" width="107" x="919.75" y="188"/><text fill="#000000" font-family="sans-serif" font-size="12" lengthAdjust="spacingAndGlyphs" textLength="101" x="922.75" y="204.1387">ProductQuantity</text></a><!--class ProductDelivery--><a target="_top" xlink:actuate="onRequest" xlink:href="../ProductDelivery.html" xlink:show="new" xlink:title="Arrangements for delivery of invoiced products and/or services." xlink:type="simple"><rect fill="#EEEEEE" filter="url(#fxc935ru83cui)" height="23.9688" id="ProductDelivery" style="stroke: #A80036; stroke-width: 1.5;" width="103" x="1359.75" y="668"/><rect fill="#EEEEEE" height="23.9688" style="stroke: #A80036; stroke-width: 1.5;" width="103" x="1359.75" y="668"/><text fill="#000000" font-family="sans-serif" font-size="12" lengthAdjust="spacingAndGlyphs" textLength="97" x="1362.75" y="684.1387">ProductDelivery</text></a><!--class PurchaseOrder--><a target="_top" xlink:actuate="onRequest" xlink:href="../PurchaseOrder.html" xlink:show="new" xlink:title="Document issued by a buyer and containing the details of a purchase, including description of goods, transport information, payment terms, etc." xlink:type="simple"><rect fill="#EEEEEE" filter="url(#fxc935ru83cui)" height="23.9688" id="PurchaseOrder" style="stroke: #A80036; stroke-width: 1.5;" width="100" x="1363" y="582"/><rect fill="#EEEEEE" height="23.9688" style="stroke: #A80036; stroke-width: 1.5;" width="100" x="1363" y="582"/><text fill="#000000" font-family="sans-serif" font-size="12" lengthAdjust="spacingAndGlyphs" textLength="94" x="1366" y="598.1387">PurchaseOrder</text></a><!--class Tax--><a target="_top" xlink:actuate="onRequest" xlink:href="../Tax.html" xlink:show="new" xlink:title="Amount of money due to the government or tax authority, according to various pre-defined parameters such as thresholds or income." xlink:type="simple"><rect fill="#EEEEEE" filter="url(#fxc935ru83cui)" height="23.9688" id="Tax" style="stroke: #A80036; stroke-width: 1.5;" width="27" x="1408.75" y="496"/><rect fill="#EEEEEE" height="23.9688" style="stroke: #A80036; stroke-width: 1.5;" width="27" x="1408.75" y="496"/><text fill="#000000" font-family="sans-serif" font-size="12" lengthAdjust="spacingAndGlyphs" textLength="21" x="1411.75" y="512.1387">Tax</text></a><!--link Product to Service--><path d="M2279.51,128.244 C2268.7,150.423 2257.08,174.245 2250.46,187.815 " fill="none" id="Product-Service" style="stroke: #A80036; stroke-width: 1.0;"/><polygon fill="none" points="2273.23,125.169,2288.29,110.262,2285.81,131.307,2273.23,125.169" style="stroke: #A80036; stroke-width: 1.0;"/><!--link Product to Goods--><path d="M2315.52,129.911 C2319.75,151.608 2324.24,174.584 2326.82,187.815 " fill="none" id="Product-Goods" style="stroke: #A80036; stroke-width: 1.0;"/><polygon fill="none" points="2308.65,131.233,2311.69,110.262,2322.39,128.552,2308.65,131.233" style="stroke: #A80036; stroke-width: 1.0;"/><!--link Product to FinancialProduct--><path d="M2358.4,123.944 C2384.4,147.283 2413.44,173.363 2429.54,187.815 " fill="none" id="Product-FinancialProduct" style="stroke: #A80036; stroke-width: 1.0;"/><polygon fill="none" points="2353.37,128.832,2343.16,110.262,2362.72,118.415,2353.37,128.832" style="stroke: #A80036; stroke-width: 1.0;"/><!--link Price to CardPayment--><!--link ProductCategory to Price--><!--link LineItem to ProductCategory--><!--link ProductIdentification to LineItem--><!--link Country to ProductIdentification--><!--link ProductCharacteristics to Country--><!--link ProductQuantity to ProductCharacteristics--><!--link ProductDelivery to ProductQuantity--><!--link PurchaseOrder to ProductDelivery--><!--link Tax to PurchaseOrder--><!--link Product to CardPayment--><path d="M2219.6,84.069 C2124.1,94.199 1976.33,113.516 1927,140 C1875.47,167.663 1878.97,195.269 1837,236 C1806.16,265.934 1730.96,345.843 1692,364 C1619.26,397.902 1524.88,404.995 1468.29,405.846 " fill="none" id="Product-CardPayment" style="stroke: #A80036; stroke-width: 1.0;"/><polygon fill="#A80036" points="1463.27,405.907,1472.3151,409.8039,1468.2697,405.8499,1472.2237,401.8044,1463.27,405.907" style="stroke: #A80036; stroke-width: 1.0;"/><text fill="#000000" font-family="sans-serif" font-size="13" lengthAdjust="spacingAndGlyphs" textLength="87" x="1830" y="257.0669">CardPayment</text><text fill="#000000" font-family="sans-serif" font-size="13" lengthAdjust="spacingAndGlyphs" textLength="8" x="1471.8236" y="400.4579">1</text><!--link Product to Price--><path d="M2219.49,79.883 C2117.3,86.088 1941.8,101.729 1796,140 C1775.56,145.364 1772.24,151.951 1752,158 C1685.19,177.964 1661.76,159.763 1598,188 C1540.95,213.267 1485.07,262.981 1459.1,287.946 " fill="none" id="Product-Price" style="stroke: #A80036; stroke-width: 1.0;"/><polygon fill="#A80036" points="1455.19,291.732,1464.4335,288.3323,1458.7773,288.249,1458.8606,282.5927,1455.19,291.732" style="stroke: #A80036; stroke-width: 1.0;"/><text fill="#000000" font-family="sans-serif" font-size="13" lengthAdjust="spacingAndGlyphs" textLength="57" x="1599" y="204.0669">UnitPrice</text><text fill="#000000" font-family="sans-serif" font-size="13" lengthAdjust="spacingAndGlyphs" textLength="7" x="1449.3233" y="280.9467">*</text><!--link Product to Price--><path d="M2219.43,80.535 C2124.47,87.209 1967.41,103.154 1837,140 C1824.27,143.598 1739.47,181.404 1728,188 C1696.56,206.079 1694.44,219.785 1662,236 C1595.09,269.442 1508.21,290.014 1467.28,298.498 " fill="none" id="Product-Price" style="stroke: #A80036; stroke-width: 1.0;"/><polygon fill="#A80036" points="1462.28,299.521,1471.8982,301.64,1467.179,298.5209,1470.2981,293.8017,1462.28,299.521" style="stroke: #A80036; stroke-width: 1.0;"/><text fill="#000000" font-family="sans-serif" font-size="13" lengthAdjust="spacingAndGlyphs" textLength="54" x="1729" y="204.0669">NetPrice</text><text fill="#000000" font-family="sans-serif" font-size="13" lengthAdjust="spacingAndGlyphs" textLength="24" x="1470.7259" y="291.9606">0..1</text><!--link Product to Price--><path d="M2390.44,103.256 C2468.84,132.491 2565.68,182.049 2515,236 C2496.43,255.773 1624.56,295.051 1467.96,301.952 " fill="none" id="Product-Price" style="stroke: #A80036; stroke-width: 1.0;"/><polygon fill="#A80036" points="1462.69,302.184,1471.8531,305.7946,1467.6854,301.9697,1471.5103,297.802,1462.69,302.184" style="stroke: #A80036; stroke-width: 1.0;"/><text fill="#000000" font-family="sans-serif" font-size="13" lengthAdjust="spacingAndGlyphs" textLength="68" x="2530" y="204.0669">GrossPrice</text><text fill="#000000" font-family="sans-serif" font-size="13" lengthAdjust="spacingAndGlyphs" textLength="24" x="1470.8708" y="315.8005">0..1</text><!--link Product to ProductCategory--><path d="M2219.7,80.286 C2065.18,88.695 1745.06,109.255 1638,140 C1620.81,144.938 1618.89,152.103 1602,158 C1558.46,173.206 1507.35,183.726 1468.53,190.3 " fill="none" id="Product-ProductCategory" style="stroke: #A80036; stroke-width: 1.0;"/><polygon fill="#A80036" points="1463.37,191.161,1472.9013,193.6418,1468.3032,190.3467,1471.5983,185.7486,1463.37,191.161" style="stroke: #A80036; stroke-width: 1.0;"/><text fill="#000000" font-family="sans-serif" font-size="13" lengthAdjust="spacingAndGlyphs" textLength="107" x="1639" y="153.0669">ProductCategory</text><text fill="#000000" font-family="sans-serif" font-size="13" lengthAdjust="spacingAndGlyphs" textLength="7" x="1471.6134" y="184.8011">*</text><!--link Product to LineItem--><path d="M2219.65,75 C1925.69,75 962.612,75 769.785,75 " fill="none" id="Product-LineItem" style="stroke: #A80036; stroke-width: 1.0;"/><polygon fill="#A80036" points="764.572,75,773.572,79,769.572,75,773.572,71,764.572,75" style="stroke: #A80036; stroke-width: 1.0;"/><text fill="#000000" font-family="sans-serif" font-size="13" lengthAdjust="spacingAndGlyphs" textLength="55" x="1463.75" y="67.0669">LineItem</text><text fill="#000000" font-family="sans-serif" font-size="13" lengthAdjust="spacingAndGlyphs" textLength="24" x="773.3378" y="69.2255">0..1</text><!--link Product to ProductIdentification--><path d="M2219.52,84.226 C2165.68,92.349 2096.33,108.399 2042,140 C1977.59,177.465 1990.51,223.021 1927,262 C1886.73,286.718 1867.08,270.497 1825,292 C1778.45,315.787 1778.1,339.354 1732,364 C1606.61,431.041 1443.86,475.001 1360.13,494.838 " fill="none" id="Product-ProductIdentification" style="stroke: #A80036; stroke-width: 1.0;"/><polygon fill="#A80036" points="1355.22,495.995,1364.9013,497.8042,1360.0843,494.8382,1363.0504,490.0213,1355.22,495.995" style="stroke: #A80036; stroke-width: 1.0;"/><text fill="#000000" font-family="sans-serif" font-size="13" lengthAdjust="spacingAndGlyphs" textLength="130" x="1826" y="308.0669">ProductIdentification</text><text fill="#000000" font-family="sans-serif" font-size="13" lengthAdjust="spacingAndGlyphs" textLength="7" x="1362.9363" y="485.0415">*</text><!--link Product to Country--><path d="M2219.36,76.576 C2133.45,80.024 1999.01,93.365 1893,140 C1861.74,153.751 1857.95,164.677 1833,188 C1811.86,207.765 1813.38,220.401 1789,236 C1779.17,242.288 1775.05,240.268 1764,244 C1605.18,297.621 1416.74,366.201 1342.91,393.265 " fill="none" id="Product-Country" style="stroke: #A80036; stroke-width: 1.0;"/><polygon fill="#A80036" points="1338.21,394.987,1348.036,395.657,1342.9066,393.2719,1345.2918,388.1424,1338.21,394.987" style="stroke: #A80036; stroke-width: 1.0;"/><text fill="#000000" font-family="sans-serif" font-size="13" lengthAdjust="spacingAndGlyphs" textLength="37" x="1765" y="257.0669">Origin</text><text fill="#000000" font-family="sans-serif" font-size="13" lengthAdjust="spacingAndGlyphs" textLength="8" x="1345.8174" y="386.3176">1</text><!--link Product to ProductCharacteristics--><path d="M2219.51,80.207 C2073.29,87.996 1765.99,106.952 1508,140 C1462.34,145.849 1451.74,152.844 1406,158 C1372.72,161.75 827.081,163.74 804,188 C789.295,203.456 791.691,218.576 804,236 C828.799,271.103 873.635,287.931 913.414,295.946 " fill="none" id="Product-ProductCharacteristics" style="stroke: #A80036; stroke-width: 1.0;"/><polygon fill="#A80036" points="918.74,296.974,910.6606,291.3417,913.8305,296.027,909.1453,299.1969,918.74,296.974" style="stroke: #A80036; stroke-width: 1.0;"/><text fill="#000000" font-family="sans-serif" font-size="13" lengthAdjust="spacingAndGlyphs" textLength="95" x="805" y="204.0669">Characteristics</text><text fill="#000000" font-family="sans-serif" font-size="13" lengthAdjust="spacingAndGlyphs" textLength="7" x="903.7032" y="291.6654">*</text><!--link Product to ProductQuantity--><path d="M2219.53,78.537 C2046.92,84.409 1662.51,101.482 1537,140 C1521.4,144.787 1520.61,153.261 1505,158 C1417.87,184.442 1150.86,194.45 1031.6,197.672 " fill="none" id="Product-ProductQuantity" style="stroke: #A80036; stroke-width: 1.0;"/><polygon fill="#A80036" points="1026.38,197.812,1035.4906,201.5533,1031.378,197.6692,1035.2621,193.5565,1026.38,197.812" style="stroke: #A80036; stroke-width: 1.0;"/><text fill="#000000" font-family="sans-serif" font-size="13" lengthAdjust="spacingAndGlyphs" textLength="54" x="1538" y="153.0669">Quantity</text><text fill="#000000" font-family="sans-serif" font-size="13" lengthAdjust="spacingAndGlyphs" textLength="7" x="1034.6975" y="192.3211">*</text><!--link Product to ProductDelivery--><path d="M2260.85,110.041 C2238.64,130.03 2213.95,157.358 2202,188 C2194.25,207.876 2200.87,214.697 2202,236 C2206.01,311.43 2220,329.464 2220,405 C2220,405 2220,405 2220,595 C2220,670.7627 1651.42,678.5319 1467.59,679.0639 " fill="none" id="Product-ProductDelivery" style="stroke: #A80036; stroke-width: 1.0;"/><polygon fill="#A80036" points="1462.53,679.077,1471.5414,683.0513,1467.53,679.0627,1471.5185,675.0513,1462.53,679.077" style="stroke: #A80036; stroke-width: 1.0;"/><text fill="#000000" font-family="sans-serif" font-size="13" lengthAdjust="spacingAndGlyphs" textLength="51" x="2221" y="410.0669">Delivery</text><text fill="#000000" font-family="sans-serif" font-size="13" lengthAdjust="spacingAndGlyphs" textLength="8" x="1470.6493" y="673.7719">1</text><!--link Product to PurchaseOrder--><path d="M2219.49,98.531 C2192.31,108.366 2163.28,121.893 2140,140 C1996.08,251.921 2050.35,377.411 1891,466 C1750.87,543.904 1560.87,575.728 1468.29,587.247 " fill="none" id="Product-PurchaseOrder" style="stroke: #A80036; stroke-width: 1.0;"/><polygon fill="#A80036" points="1463.14,587.879,1472.5633,590.7428,1468.1021,587.2646,1471.5803,582.8034,1463.14,587.879" style="stroke: #A80036; stroke-width: 1.0;"/><text fill="#000000" font-family="sans-serif" font-size="13" lengthAdjust="spacingAndGlyphs" textLength="95" x="2007" y="359.0669">PurchaseOrder</text><text fill="#000000" font-family="sans-serif" font-size="13" lengthAdjust="spacingAndGlyphs" textLength="7" x="1471.0184" y="581.8105">*</text><!--link Product to Tax--><path d="M2219.65,83.192 C2171.39,90.92 2112.24,106.918 2069,140 C1997.02,195.071 2016.56,240.78 1966,316 C1919.14,385.719 1924.48,425.285 1851,466 C1779.09,505.848 1514.47,507.495 1441.02,507.163 " fill="none" id="Product-Tax" style="stroke: #A80036; stroke-width: 1.0;"/><polygon fill="#A80036" points="1435.68,507.134,1444.6685,511.1597,1440.68,507.1483,1444.6914,503.1597,1435.68,507.134" style="stroke: #A80036; stroke-width: 1.0;"/><text fill="#000000" font-family="sans-serif" font-size="13" lengthAdjust="spacingAndGlyphs" textLength="22" x="1981" y="308.0669">Tax</text><text fill="#000000" font-family="sans-serif" font-size="13" lengthAdjust="spacingAndGlyphs" textLength="7" x="1443.9334" y="498.675">*</text><!--link LineItem to ProductQuantity--><path d="M740.863,87.278 C749.201,105.213 767.981,140.036 795,158 C814.453,170.933 870.465,182.559 914.517,190.099 " fill="none" id="LineItem-ProductQuantity" style="stroke: #A80036; stroke-width: 1.0;"/><polygon fill="#A80036" points="919.554,190.952,911.3478,185.506,914.6241,190.1175,910.0126,193.3938,919.554,190.952" style="stroke: #A80036; stroke-width: 1.0;"/><text fill="#000000" font-family="sans-serif" font-size="13" lengthAdjust="spacingAndGlyphs" textLength="66" x="796" y="153.0669">NetWeight</text><text fill="#000000" font-family="sans-serif" font-size="13" lengthAdjust="spacingAndGlyphs" textLength="8" x="903.7673" y="184.9994">1</text><!--link LineItem to ProductQuantity--><path d="M760.063,87.132 C786.689,99.572 830.759,120.532 868,140 C896.545,154.922 928.756,173.249 949.885,185.48 " fill="none" id="LineItem-ProductQuantity" style="stroke: #A80036; stroke-width: 1.0;"/><polygon fill="#A80036" points="954.22,187.994,948.4423,180.0179,949.8951,185.485,944.4279,186.9378,954.22,187.994" style="stroke: #A80036; stroke-width: 1.0;"/><text fill="#000000" font-family="sans-serif" font-size="13" lengthAdjust="spacingAndGlyphs" textLength="88" x="902" y="153.0669">BilledQuantity</text><text fill="#000000" font-family="sans-serif" font-size="13" lengthAdjust="spacingAndGlyphs" textLength="7" x="938.1316" y="177.0402">*</text><!--link LineItem to ProductQuantity--><path d="M764.545,78.59 C826.495,84.864 970.037,103.144 999,140 C1009.31,153.126 998.787,170.983 988.2,183.603 " fill="none" id="LineItem-ProductQuantity" style="stroke: #A80036; stroke-width: 1.0;"/><polygon fill="#A80036" points="984.638,187.668,993.5776,183.5348,987.9331,183.9073,987.5606,178.2628,984.638,187.668" style="stroke: #A80036; stroke-width: 1.0;"/><text fill="#000000" font-family="sans-serif" font-size="13" lengthAdjust="spacingAndGlyphs" textLength="128" x="1005" y="153.0669">ChargeFreeQuantity</text><text fill="#000000" font-family="sans-serif" font-size="13" lengthAdjust="spacingAndGlyphs" textLength="7" x="978.9197" y="176.8615">*</text><!--link LineItem to ProductQuantity--><path d="M764.761,75.921 C849.269,76.359 1093.96,82.645 1143,140 C1177.11,179.897 1093.21,192.838 1031.52,197.021 " fill="none" id="LineItem-ProductQuantity" style="stroke: #A80036; stroke-width: 1.0;"/><polygon fill="#A80036" points="1026.37,197.353,1035.6134,200.7528,1031.3592,197.0244,1035.0877,192.7701,1026.37,197.353" style="stroke: #A80036; stroke-width: 1.0;"/><text fill="#000000" font-family="sans-serif" font-size="13" lengthAdjust="spacingAndGlyphs" textLength="244" x="1152" y="153.0669">MeasureQuantityStartRelatedLineItem</text><text fill="#000000" font-family="sans-serif" font-size="13" lengthAdjust="spacingAndGlyphs" textLength="8" x="1034.7595" y="210.1447">1</text><!--link LineItem to ProductQuantity--><path d="M707.307,76.569 C586.059,79.262 119.972,92.653 77,140 C71.6235,145.924 71.4482,152.24 77,158 C108.443,190.622 846.859,184.113 892,188 C899.238,188.623 906.819,189.437 914.318,190.34 " fill="none" id="LineItem-ProductQuantity" style="stroke: #A80036; stroke-width: 1.0;"/><polygon fill="#A80036" points="919.491,190.978,911.0491,185.9051,914.5287,190.3652,910.0686,193.8448,919.491,190.978" style="stroke: #A80036; stroke-width: 1.0;"/><text fill="#000000" font-family="sans-serif" font-size="13" lengthAdjust="spacingAndGlyphs" textLength="236" x="78" y="153.0669">MeasureQuantityEndRelatedLineItem</text><text fill="#000000" font-family="sans-serif" font-size="13" lengthAdjust="spacingAndGlyphs" textLength="8" x="903.697" y="202.8784">1</text><!--link LineItem to ProductQuantity--><path d="M707.399,77.501 C610.877,83.073 305.92,105.038 356,158 C396.983,201.341 832.623,182.316 892,188 C899.231,188.692 906.809,189.548 914.306,190.473 " fill="none" id="LineItem-ProductQuantity" style="stroke: #A80036; stroke-width: 1.0;"/><polygon fill="#A80036" points="919.478,191.124,911.0478,186.0317,914.5171,190.4998,910.049,193.9691,919.478,191.124" style="stroke: #A80036; stroke-width: 1.0;"/><text fill="#000000" font-family="sans-serif" font-size="13" lengthAdjust="spacingAndGlyphs" textLength="122" x="357" y="153.0669">GrossPriceQuantity</text><text fill="#000000" font-family="sans-serif" font-size="13" lengthAdjust="spacingAndGlyphs" textLength="7" x="904.7106" y="182.1108">*</text><!--link LineItem to ProductQuantity--><path d="M707.447,77.284 C637.163,81.393 465.406,97.729 521,158 C549.04,188.399 850.883,183.549 892,188 C899.222,188.782 906.795,189.691 914.288,190.645 " fill="none" id="LineItem-ProductQuantity" style="stroke: #A80036; stroke-width: 1.0;"/><polygon fill="#A80036" points="919.459,191.311,911.0434,186.1945,914.4999,190.6725,910.0219,194.129,919.459,191.311" style="stroke: #A80036; stroke-width: 1.0;"/><text fill="#000000" font-family="sans-serif" font-size="13" lengthAdjust="spacingAndGlyphs" textLength="108" x="522" y="153.0669">NetPriceQuantity</text><text fill="#000000" font-family="sans-serif" font-size="13" lengthAdjust="spacingAndGlyphs" textLength="7" x="904.7191" y="203.2499">*</text><!--link LineItem to ProductQuantity--><path d="M720.548,87.12 C699.408,103.65 666.226,135.201 686,158 C686.935,159.078 830.73,179.226 914.398,190.869 " fill="none" id="LineItem-ProductQuantity" style="stroke: #A80036; stroke-width: 1.0;"/><polygon fill="#A80036" points="919.573,191.588,911.211,186.3844,914.6208,190.8981,910.1072,194.3079,919.573,191.588" style="stroke: #A80036; stroke-width: 1.0;"/><text fill="#000000" font-family="sans-serif" font-size="13" lengthAdjust="spacingAndGlyphs" textLength="80" x="687" y="153.0669">GrossWeight</text><text fill="#000000" font-family="sans-serif" font-size="13" lengthAdjust="spacingAndGlyphs" textLength="7" x="904.8335" y="203.4111">*</text><!--link Country to Tax--><path d="M1323.3,418.084 C1343.39,436.18 1383.23,472.073 1405.66,492.283 " fill="none" id="Country-Tax" style="stroke: #A80036; stroke-width: 1.0;"/><polygon fill="#A80036" points="1409.64,495.867,1405.6262,486.8731,1405.9235,492.5222,1400.2745,492.8195,1409.64,495.867" style="stroke: #A80036; stroke-width: 1.0;"/><text fill="#000000" font-family="sans-serif" font-size="13" lengthAdjust="spacingAndGlyphs" textLength="22" x="1378" y="461.0669">Tax</text><text fill="#000000" font-family="sans-serif" font-size="13" lengthAdjust="spacingAndGlyphs" textLength="8" x="1394.5866" y="484.8695">1</text></g></svg>