<?xml version="1.0" encoding="UTF-8" standalone="no"?><svg xmlns="http://www.w3.org/2000/svg" xmlns:xlink="http://www.w3.org/1999/xlink" contentScriptType="application/ecmascript" contentStyleType="text/css" height="621px" preserveAspectRatio="none" style="width:1916px;height:621px;" version="1.1" viewBox="0 0 1916 621" width="1916px" zoomAndPan="magnify"><defs><filter height="300%" id="f1v9iahe2lrltc" width="300%" x="-1" y="-1"><feGaussianBlur result="blurOut" stdDeviation="2.0"/><feColorMatrix in="blurOut" result="blurOut2" type="matrix" values="0 0 0 0 0 0 0 0 0 0 0 0 0 0 0 0 0 0 .4 0"/><feOffset dx="4.0" dy="4.0" in="blurOut2" result="blurOut3"/><feBlend in="SourceGraphic" in2="blurOut3" mode="normal"/></filter></defs><g><!--cluster ##22836--><!--cluster ##22845--><!--cluster ##22854--><!--class Role--><a target="_top" xlink:actuate="onRequest" xlink:href="../Role.html" xlink:show="new" xlink:title="Role of a party in an activity." xlink:type="simple"><rect fill="#FEFEEE" filter="url(#f1v9iahe2lrltc)" height="44.7734" id="Role" style="stroke: #A80036; stroke-width: 1.5;" width="175" x="328.75" y="40.5"/><rect fill="#FEFEEE" height="23.9688" style="stroke: #A80036; stroke-width: 1.5;" width="175" x="328.75" y="40.5"/><text fill="#000000" font-family="sans-serif" font-size="12" lengthAdjust="spacingAndGlyphs" textLength="27" x="402.75" y="56.6387">Role</text><line style="stroke: #A80036; stroke-width: 1.5;" x1="329.75" x2="502.75" y1="64.4688" y2="64.4688"/><ellipse cx="339.75" cy="76.3711" fill="#84BE84" rx="3" ry="3" style="stroke: #038048; stroke-width: 1.0;"/><text fill="#000000" font-family="sans-serif" font-size="11" lengthAdjust="spacingAndGlyphs" textLength="53" x="348.75" y="78.6792">PartyRole</text><text fill="#000000" font-family="sans-serif" font-size="11" font-style="italic" lengthAdjust="spacingAndGlyphs" textLength="92" x="405.75" y="78.6792">(PartyRoleCode)</text></a><!--class InformationPartyRole--><a target="_top" xlink:actuate="onRequest" xlink:href="../InformationPartyRole.html" xlink:show="new" xlink:title="Role played by a party as source of information." xlink:type="simple"><rect fill="#FEFEEE" filter="url(#f1v9iahe2lrltc)" height="23.9688" id="InformationPartyRole" style="stroke: #A80036; stroke-width: 1.5;" width="136" x="342" y="166"/><rect fill="#FEFEEE" height="23.9688" style="stroke: #A80036; stroke-width: 1.5;" width="136" x="342" y="166"/><text fill="#000000" font-family="sans-serif" font-size="12" lengthAdjust="spacingAndGlyphs" textLength="130" x="345" y="182.1387">InformationPartyRole</text></a><!--class QuoteRequestor--><a target="_top" xlink:actuate="onRequest" xlink:href="../QuoteRequestor.html" xlink:show="new" xlink:title="Requestor of the quote." xlink:type="simple"><rect fill="#FEFECE" filter="url(#f1v9iahe2lrltc)" height="44.7734" id="QuoteRequestor" style="stroke: #A80036; stroke-width: 1.5;" width="224" x="280.5" y="268.5"/><rect fill="#FEFECE" height="23.9688" style="stroke: #A80036; stroke-width: 1.5;" width="224" x="280.5" y="268.5"/><text fill="#000000" font-family="sans-serif" font-size="12" lengthAdjust="spacingAndGlyphs" textLength="103" x="341" y="284.6387">QuoteRequestor</text><line style="stroke: #A80036; stroke-width: 1.5;" x1="281.5" x2="503.5" y1="292.4688" y2="292.4688"/><ellipse cx="291.5" cy="304.3711" fill="#84BE84" rx="3" ry="3" style="stroke: #038048; stroke-width: 1.0;"/><text fill="#000000" font-family="sans-serif" font-size="11" lengthAdjust="spacingAndGlyphs" textLength="107" x="300.5" y="306.6792">RequestorEligibility</text><text fill="#000000" font-family="sans-serif" font-size="11" font-style="italic" lengthAdjust="spacingAndGlyphs" textLength="87" x="411.5" y="306.6792">(EligibilityCode)</text></a><!--class RolePlayer--><a target="_top" xlink:actuate="onRequest" xlink:href="../RolePlayer.html" xlink:show="new" xlink:title="Type of entity that plays a specific role in a specific context." xlink:type="simple"><rect fill="#EEEEEE" filter="url(#f1v9iahe2lrltc)" height="23.9688" id="RolePlayer" style="stroke: #A80036; stroke-width: 1.5;" width="71" x="1597.75" y="480"/><rect fill="#EEEEEE" height="23.9688" style="stroke: #A80036; stroke-width: 1.5;" width="71" x="1597.75" y="480"/><text fill="#000000" font-family="sans-serif" font-size="12" lengthAdjust="spacingAndGlyphs" textLength="65" x="1600.75" y="496.1387">RolePlayer</text></a><!--class ContactPersonRole--><a target="_top" xlink:actuate="onRequest" xlink:href="../ContactPersonRole.html" xlink:show="new" xlink:title="Person to be contacted in a given organisation. In the corporate action domain (including meeting notifications), it is the contact person at the party organising the meeting, at the issuer or at an intermediary." xlink:type="simple"><rect fill="#EEEEEE" filter="url(#f1v9iahe2lrltc)" height="23.9688" id="ContactPersonRole" style="stroke: #A80036; stroke-width: 1.5;" width="126" x="1550" y="394"/><rect fill="#EEEEEE" height="23.9688" style="stroke: #A80036; stroke-width: 1.5;" width="126" x="1550" y="394"/><text fill="#000000" font-family="sans-serif" font-size="12" lengthAdjust="spacingAndGlyphs" textLength="120" x="1553" y="410.1387">ContactPersonRole</text></a><!--class CounterpartyRisk--><a target="_top" xlink:actuate="onRequest" xlink:href="../CounterpartyRisk.html" xlink:show="new" xlink:title="Calculation of the exposure amount that one party has vis-a-vis one counterparty or a central system, based on its credit risk." xlink:type="simple"><rect fill="#EEEEEE" filter="url(#f1v9iahe2lrltc)" height="23.9688" id="CounterpartyRisk" style="stroke: #A80036; stroke-width: 1.5;" width="113" x="1550.75" y="279"/><rect fill="#EEEEEE" height="23.9688" style="stroke: #A80036; stroke-width: 1.5;" width="113" x="1550.75" y="279"/><text fill="#000000" font-family="sans-serif" font-size="12" lengthAdjust="spacingAndGlyphs" textLength="107" x="1553.75" y="295.1387">CounterpartyRisk</text></a><!--class Entry--><a target="_top" xlink:actuate="onRequest" xlink:href="../Entry.html" xlink:show="new" xlink:title="Posting to an account that results in an increase or decrease to a balance." xlink:type="simple"><rect fill="#EEEEEE" filter="url(#f1v9iahe2lrltc)" height="23.9688" id="Entry" style="stroke: #A80036; stroke-width: 1.5;" width="38" x="1594" y="166"/><rect fill="#EEEEEE" height="23.9688" style="stroke: #A80036; stroke-width: 1.5;" width="38" x="1594" y="166"/><text fill="#000000" font-family="sans-serif" font-size="12" lengthAdjust="spacingAndGlyphs" textLength="32" x="1597" y="182.1387">Entry</text></a><!--class GenericIdentification--><a target="_top" xlink:actuate="onRequest" xlink:href="../GenericIdentification.html" xlink:show="new" xlink:title="Information related to a non-standardised identification, such as a proprietary party identification or account identification." xlink:type="simple"><rect fill="#EEEEEE" filter="url(#f1v9iahe2lrltc)" height="23.9688" id="GenericIdentification" style="stroke: #A80036; stroke-width: 1.5;" width="135" x="624.75" y="279"/><rect fill="#EEEEEE" height="23.9688" style="stroke: #A80036; stroke-width: 1.5;" width="135" x="624.75" y="279"/><text fill="#000000" font-family="sans-serif" font-size="12" lengthAdjust="spacingAndGlyphs" textLength="129" x="627.75" y="295.1387">GenericIdentification</text></a><!--class HaircutValuation--><a target="_top" xlink:actuate="onRequest" xlink:href="../HaircutValuation.html" xlink:show="new" xlink:title="Basic valuation details of an asset's market value." xlink:type="simple"><rect fill="#EEEEEE" filter="url(#f1v9iahe2lrltc)" height="23.9688" id="HaircutValuation" style="stroke: #A80036; stroke-width: 1.5;" width="110" x="1329" y="584"/><rect fill="#EEEEEE" height="23.9688" style="stroke: #A80036; stroke-width: 1.5;" width="110" x="1329" y="584"/><text fill="#000000" font-family="sans-serif" font-size="12" lengthAdjust="spacingAndGlyphs" textLength="104" x="1332" y="600.1387">HaircutValuation</text></a><!--class SecuritiesPricing--><a target="_top" xlink:actuate="onRequest" xlink:href="../SecuritiesPricing.html" xlink:show="new" xlink:title="Characteristics related to the price of the security." xlink:type="simple"><rect fill="#EEEEEE" filter="url(#f1v9iahe2lrltc)" height="23.9688" id="SecuritiesPricing" style="stroke: #A80036; stroke-width: 1.5;" width="110" x="920" y="480"/><rect fill="#EEEEEE" height="23.9688" style="stroke: #A80036; stroke-width: 1.5;" width="110" x="920" y="480"/><text fill="#000000" font-family="sans-serif" font-size="12" lengthAdjust="spacingAndGlyphs" textLength="104" x="923" y="496.1387">SecuritiesPricing</text></a><!--class Scheme--><a target="_top" xlink:actuate="onRequest" xlink:href="../Scheme.html" xlink:show="new" xlink:title="Information regarding an enumerated code list and its owner." xlink:type="simple"><rect fill="#EEEEEE" filter="url(#f1v9iahe2lrltc)" height="23.9688" id="Scheme" style="stroke: #A80036; stroke-width: 1.5;" width="56" x="664.5" y="394"/><rect fill="#EEEEEE" height="23.9688" style="stroke: #A80036; stroke-width: 1.5;" width="56" x="664.5" y="394"/><text fill="#000000" font-family="sans-serif" font-size="12" lengthAdjust="spacingAndGlyphs" textLength="50" x="667.5" y="410.1387">Scheme</text></a><!--class Quote--><a target="_top" xlink:actuate="onRequest" xlink:href="../Quote.html" xlink:show="new" xlink:title="Indicates whether the quote details are indicated as an offer, a bid or a mid of a security, commodity, currency (the latter being an average of the offer and the bid)." xlink:type="simple"><rect fill="#EEEEEE" filter="url(#f1v9iahe2lrltc)" height="23.9688" id="Quote" style="stroke: #A80036; stroke-width: 1.5;" width="44" x="587.5" y="584"/><rect fill="#EEEEEE" height="23.9688" style="stroke: #A80036; stroke-width: 1.5;" width="44" x="587.5" y="584"/><text fill="#000000" font-family="sans-serif" font-size="12" lengthAdjust="spacingAndGlyphs" textLength="38" x="590.5" y="600.1387">Quote</text></a><!--class TreasuryTrade--><a target="_top" xlink:actuate="onRequest" xlink:href="../TreasuryTrade.html" xlink:show="new" xlink:title="Specifies trades linked to treasury operations such as the exchange of currencies, the lending of cash amounts and the related derivatives trades (options and non deliverable trades)." xlink:type="simple"><rect fill="#EEEEEE" filter="url(#f1v9iahe2lrltc)" height="23.9688" id="TreasuryTrade" style="stroke: #A80036; stroke-width: 1.5;" width="96" x="560" y="480"/><rect fill="#EEEEEE" height="23.9688" style="stroke: #A80036; stroke-width: 1.5;" width="96" x="560" y="480"/><text fill="#000000" font-family="sans-serif" font-size="12" lengthAdjust="spacingAndGlyphs" textLength="90" x="563" y="496.1387">TreasuryTrade</text></a><!--entity ##22867--><!--link Role to InformationPartyRole--><path d="M413.793,105.559 C412.646,127.159 411.333,151.898 410.591,165.865 " fill="none" id="Role-InformationPartyRole" style="stroke: #A80036; stroke-width: 1.0;"/><polygon fill="none" points="406.807,105.121,414.857,85.52,420.787,105.863,406.807,105.121" style="stroke: #A80036; stroke-width: 1.0;"/><!--link InformationPartyRole to QuoteRequestor--><path d="M404.973,209.999 C401.959,228.586 398.201,251.761 395.507,268.376 " fill="none" id="InformationPartyRole-QuoteRequestor" style="stroke: #A80036; stroke-width: 1.0;"/><polygon fill="none" points="398.097,208.67,408.208,190.049,411.917,210.912,398.097,208.67" style="stroke: #A80036; stroke-width: 1.0;"/><!--link ContactPersonRole to RolePlayer--><!--link CounterpartyRisk to ContactPersonRole--><!--link Entry to CounterpartyRisk--><!--link HaircutValuation to GenericIdentification--><!--link SecuritiesPricing to HaircutValuation--><!--link Scheme to SecuritiesPricing--><!--link Quote to Scheme--><!--link TreasuryTrade to Quote--><!--link Role to RolePlayer--><path d="M503.354,65.161 C745.431,68.785 1421.48,81.762 1641,116 C1742.52,131.834 1864,74.248 1864,177 C1864,177 1864,177 1864,407 C1864,447.082 1739.61,473.571 1673.39,484.833 " fill="none" id="Role-RolePlayer" style="stroke: #A80036; stroke-width: 1.0;"/><polygon fill="#A80036" points="1668.34,485.682,1677.8784,488.1354,1673.2709,484.8535,1676.5528,480.246,1668.34,485.682" style="stroke: #A80036; stroke-width: 1.0;"/><text fill="#000000" font-family="sans-serif" font-size="13" lengthAdjust="spacingAndGlyphs" textLength="39" x="1865" y="295.0669">Player</text><text fill="#000000" font-family="sans-serif" font-size="13" lengthAdjust="spacingAndGlyphs" textLength="7" x="1676.7816" y="478.5254">*</text><!--link Role to ContactPersonRole--><path d="M503.676,63.476 C740.058,62.763 1386.59,65.618 1593,116 C1695.95,141.129 1720.55,240.094 1680,338 C1670.85,360.088 1650.5,378.691 1634.61,390.647 " fill="none" id="Role-ContactPersonRole" style="stroke: #A80036; stroke-width: 1.0;"/><polygon fill="#A80036" points="1630.26,393.84,1639.8828,391.7422,1634.2917,390.8827,1635.1511,385.2915,1630.26,393.84" style="stroke: #A80036; stroke-width: 1.0;"/><text fill="#000000" font-family="sans-serif" font-size="13" lengthAdjust="spacingAndGlyphs" textLength="121" x="1699" y="233.0669">ContactPersonRole</text><text fill="#000000" font-family="sans-serif" font-size="13" lengthAdjust="spacingAndGlyphs" textLength="8" x="1625.4744" y="382.8332">1</text><!--link Role to CounterpartyRisk--><path d="M503.333,71.169 C679.862,87.038 1090.78,130.989 1425,220 C1480.88,234.883 1543.23,261.074 1578.53,276.854 " fill="none" id="Role-CounterpartyRisk" style="stroke: #A80036; stroke-width: 1.0;"/><polygon fill="#A80036" points="1583.11,278.914,1576.5311,271.5848,1578.5467,276.8703,1573.2612,278.886,1583.11,278.914" style="stroke: #A80036; stroke-width: 1.0;"/><text fill="#000000" font-family="sans-serif" font-size="13" lengthAdjust="spacingAndGlyphs" textLength="109" x="1292" y="182.0669">CounterpartyRisk</text><text fill="#000000" font-family="sans-serif" font-size="13" lengthAdjust="spacingAndGlyphs" textLength="24" x="1545.3431" y="267.9327">0..1</text><!--link Role to Entry--><path d="M503.398,65.817 C721.806,70.756 1287.18,86.108 1473,116 C1515.8,122.885 1528.16,122.751 1567,142 C1577.82,147.361 1588.63,155.414 1597.05,162.444 " fill="none" id="Role-Entry" style="stroke: #A80036; stroke-width: 1.0;"/><polygon fill="#A80036" points="1600.98,165.797,1596.7256,156.9144,1597.1749,162.5534,1591.5359,163.0027,1600.98,165.797" style="stroke: #A80036; stroke-width: 1.0;"/><text fill="#000000" font-family="sans-serif" font-size="13" lengthAdjust="spacingAndGlyphs" textLength="33" x="1550" y="129.0669">Entry</text><text fill="#000000" font-family="sans-serif" font-size="13" lengthAdjust="spacingAndGlyphs" textLength="8" x="1586.3421" y="155.0332">1</text><!--link InformationPartyRole to GenericIdentification--><path d="M438.07,190.049 C490.54,210.702 603.223,255.056 659.139,277.065 " fill="none" id="InformationPartyRole-GenericIdentification" style="stroke: #A80036; stroke-width: 1.0;"/><polygon fill="#A80036" points="664.043,278.996,657.1334,271.9776,659.3904,277.1647,654.2033,279.4217,664.043,278.996" style="stroke: #A80036; stroke-width: 1.0;"/><text fill="#000000" font-family="sans-serif" font-size="13" lengthAdjust="spacingAndGlyphs" textLength="130" x="561" y="233.0669">GenericIdentification</text><text fill="#000000" font-family="sans-serif" font-size="13" lengthAdjust="spacingAndGlyphs" textLength="7" x="644.8" y="268.0428">*</text><!--link InformationPartyRole to HaircutValuation--><path d="M478.245,180.327 C645.881,184.41 1073.69,200.063 1204,255 C1348.16,315.774 1381.68,383.366 1416,536 C1417.76,543.8051 1418.6,546.4352 1416,554 C1412.68,563.6535 1406.05,572.7774 1399.68,579.9564 " fill="none" id="InformationPartyRole-HaircutValuation" style="stroke: #A80036; stroke-width: 1.0;"/><polygon fill="#A80036" points="1396.19,583.7357,1405.235,579.8384,1399.5826,580.0627,1399.3582,574.4103,1396.19,583.7357" style="stroke: #A80036; stroke-width: 1.0;"/><text fill="#000000" font-family="sans-serif" font-size="13" lengthAdjust="spacingAndGlyphs" textLength="106" x="1383" y="410.0669">HaircutValuation</text><text fill="#000000" font-family="sans-serif" font-size="13" lengthAdjust="spacingAndGlyphs" textLength="7" x="1390.7373" y="572.9516">*</text><!--link InformationPartyRole to SecuritiesPricing--><path d="M478.149,181.321 C664.17,189.245 1173.4,222.068 1273,346 C1342.03,431.889 1140.99,470.421 1035.34,484.383 " fill="none" id="InformationPartyRole-SecuritiesPricing" style="stroke: #A80036; stroke-width: 1.0;"/><polygon fill="#A80036" points="1030.07,485.07,1039.5096,487.8797,1035.0285,484.4272,1038.481,479.9461,1030.07,485.07" style="stroke: #A80036; stroke-width: 1.0;"/><text fill="#000000" font-family="sans-serif" font-size="13" lengthAdjust="spacingAndGlyphs" textLength="31" x="1285" y="359.0669">Price</text><text fill="#000000" font-family="sans-serif" font-size="13" lengthAdjust="spacingAndGlyphs" textLength="7" x="1037.9403" y="479.0745">*</text><!--link InformationPartyRole to Scheme--><path d="M341.89,184.734 C295.199,192.622 236.401,211.232 206,255 C184.956,285.297 181.762,310.191 206,338 C235.925,372.333 555.106,396.066 659.304,402.945 " fill="none" id="InformationPartyRole-Scheme" style="stroke: #A80036; stroke-width: 1.0;"/><polygon fill="#A80036" points="664.395,403.279,655.676,398.6986,659.4057,402.9518,655.1525,406.6815,664.395,403.279" style="stroke: #A80036; stroke-width: 1.0;"/><text fill="#000000" font-family="sans-serif" font-size="13" lengthAdjust="spacingAndGlyphs" textLength="53" x="207" y="295.0669">Scheme</text><text fill="#000000" font-family="sans-serif" font-size="13" lengthAdjust="spacingAndGlyphs" textLength="24" x="632.587" y="397.501">0..1</text><!--link InformationPartyRole to Quote--><path d="M341.924,183.666 C226.787,193.445 6,221.172 6,290 C6,290 6,290 6,493 C6,552.2473 464.409,585.7207 581.851,593.3242 " fill="none" id="InformationPartyRole-Quote" style="stroke: #A80036; stroke-width: 1.0;"/><polygon fill="#A80036" points="587.183,593.6667,578.4575,589.0989,582.1933,593.3467,577.9454,597.0825,587.183,593.6667" style="stroke: #A80036; stroke-width: 1.0;"/><text fill="#000000" font-family="sans-serif" font-size="13" lengthAdjust="spacingAndGlyphs" textLength="39" x="7" y="410.0669">Quote</text><text fill="#000000" font-family="sans-serif" font-size="13" lengthAdjust="spacingAndGlyphs" textLength="24" x="555.4507" y="587.6841">0..1</text><!--link InformationPartyRole to TreasuryTrade--><path d="M341.568,182.795 C301.877,187.463 252.161,197.699 213,220 C146.16,258.064 69.9103,303.181 117,364 C170.778,433.458 439.011,471.794 554.723,485.327 " fill="none" id="InformationPartyRole-TreasuryTrade" style="stroke: #A80036; stroke-width: 1.0;"/><polygon fill="#A80036" points="559.781,485.914,551.3028,480.902,554.8144,485.3369,550.3795,488.8485,559.781,485.914" style="stroke: #A80036; stroke-width: 1.0;"/><text fill="#000000" font-family="sans-serif" font-size="13" lengthAdjust="spacingAndGlyphs" textLength="91" x="118" y="359.0669">TreasuryTrade</text><text fill="#000000" font-family="sans-serif" font-size="13" lengthAdjust="spacingAndGlyphs" textLength="7" x="545.0264" y="480.1226">*</text><!--link GenericIdentification to Scheme--><path d="M692,303.248 C692,323.3 692,365.299 692,388.58 " fill="none" id="GenericIdentification-Scheme" style="stroke: #A80036; stroke-width: 1.0;"/><polygon fill="#A80036" points="692,393.797,696,384.797,692,388.797,688,384.797,692,393.797" style="stroke: #A80036; stroke-width: 1.0;"/><text fill="#000000" font-family="sans-serif" font-size="13" lengthAdjust="spacingAndGlyphs" textLength="53" x="693" y="359.0669">Scheme</text><text fill="#000000" font-family="sans-serif" font-size="13" lengthAdjust="spacingAndGlyphs" textLength="8" x="681.1781" y="383.0332">1</text><!--link SecuritiesPricing to Quote--><path d="M971.251,504.171 C965.863,518.337 954.492,542.3204 936,554 C886.143,585.4902 704.568,592.8508 635.717,594.5235 " fill="none" id="SecuritiesPricing-Quote" style="stroke: #A80036; stroke-width: 1.0;"/><polygon fill="#A80036" points="630.57,594.643,639.6602,598.4336,635.5687,594.5273,639.475,590.4358,630.57,594.643" style="stroke: #A80036; stroke-width: 1.0;"/><text fill="#000000" font-family="sans-serif" font-size="13" lengthAdjust="spacingAndGlyphs" textLength="218" x="956" y="549.0669">PreviousClosingPriceRelatedQuote</text><text fill="#000000" font-family="sans-serif" font-size="13" lengthAdjust="spacingAndGlyphs" textLength="24" x="639.4576" y="608.3829">0..1</text><!--link SecuritiesPricing to Quote--><path d="M1030.31,492.747 C1106.84,494.17 1230.62,503.932 1184,554 C1146.27,594.5138 744.214,595.6229 635.801,595.178 " fill="none" id="SecuritiesPricing-Quote" style="stroke: #A80036; stroke-width: 1.0;"/><polygon fill="#A80036" points="630.565,595.1543,639.5466,599.1954,635.5649,595.1772,639.5832,591.1955,630.565,595.1543" style="stroke: #A80036; stroke-width: 1.0;"/><text fill="#000000" font-family="sans-serif" font-size="13" lengthAdjust="spacingAndGlyphs" textLength="186" x="1195" y="549.0669">RequestedPriceRelatedQuote</text><text fill="#000000" font-family="sans-serif" font-size="13" lengthAdjust="spacingAndGlyphs" textLength="24" x="639.4512" y="588.7316">0..1</text><!--link SecuritiesPricing to Quote--><path d="M919.976,500.736 C864.709,508.339 777.064,519.943 701,528 C690.466,529.116 613.169,528.202 606,536 C595.583,547.3316 598.41,565.6542 602.534,578.8765 " fill="none" id="SecuritiesPricing-Quote" style="stroke: #A80036; stroke-width: 1.0;"/><polygon fill="#A80036" points="604.217,583.8441,605.1181,574.0366,602.6129,579.1084,597.541,576.6032,604.217,583.8441" style="stroke: #A80036; stroke-width: 1.0;"/><text fill="#000000" font-family="sans-serif" font-size="13" lengthAdjust="spacingAndGlyphs" textLength="118" x="607" y="549.0669">PriceRelatedQuote</text><text fill="#000000" font-family="sans-serif" font-size="13" lengthAdjust="spacingAndGlyphs" textLength="24" x="606.526" y="572.8387">0..1</text><!--link SecuritiesPricing to Quote--><path d="M919.675,499.403 C876.116,505.58 814.388,516.877 763,536 C747.707,541.6911 745.911,547.3716 731,554 C699.033,568.2104 660.536,580.3743 635.452,587.6799 " fill="none" id="SecuritiesPricing-Quote" style="stroke: #A80036; stroke-width: 1.0;"/><polygon fill="#A80036" points="630.62,589.0754,640.3764,590.4214,635.4237,587.6882,638.1569,582.7355,630.62,589.0754" style="stroke: #A80036; stroke-width: 1.0;"/><text fill="#000000" font-family="sans-serif" font-size="13" lengthAdjust="spacingAndGlyphs" textLength="162" x="764" y="549.0669">MarketPriceRelatedQuote</text><text fill="#000000" font-family="sans-serif" font-size="13" lengthAdjust="spacingAndGlyphs" textLength="24" x="639.521" y="581.019">0..1</text></g></svg>