<?xml version="1.0" encoding="UTF-8" standalone="no"?><svg xmlns="http://www.w3.org/2000/svg" xmlns:xlink="http://www.w3.org/1999/xlink" contentScriptType="application/ecmascript" contentStyleType="text/css" height="621px" preserveAspectRatio="none" style="width:1960px;height:621px;" version="1.1" viewBox="0 0 1960 621" width="1960px" zoomAndPan="magnify"><defs><filter height="300%" id="fp3mxcbkbehn8" width="300%" x="-1" y="-1"><feGaussianBlur result="blurOut" stdDeviation="2.0"/><feColorMatrix in="blurOut" result="blurOut2" type="matrix" values="0 0 0 0 0 0 0 0 0 0 0 0 0 0 0 0 0 0 .4 0"/><feOffset dx="4.0" dy="4.0" in="blurOut2" result="blurOut3"/><feBlend in="SourceGraphic" in2="blurOut3" mode="normal"/></filter></defs><g><!--cluster ##22770--><!--cluster ##22779--><!--cluster ##22788--><!--class Role--><a target="_top" xlink:actuate="onRequest" xlink:href="../Role.html" xlink:show="new" xlink:title="Role of a party in an activity." xlink:type="simple"><rect fill="#FEFEEE" filter="url(#fp3mxcbkbehn8)" height="44.7734" id="Role" style="stroke: #A80036; stroke-width: 1.5;" width="175" x="372.75" y="40.5"/><rect fill="#FEFEEE" height="23.9688" style="stroke: #A80036; stroke-width: 1.5;" width="175" x="372.75" y="40.5"/><text fill="#000000" font-family="sans-serif" font-size="12" lengthAdjust="spacingAndGlyphs" textLength="27" x="446.75" y="56.6387">Role</text><line style="stroke: #A80036; stroke-width: 1.5;" x1="373.75" x2="546.75" y1="64.4688" y2="64.4688"/><ellipse cx="383.75" cy="76.3711" fill="#84BE84" rx="3" ry="3" style="stroke: #038048; stroke-width: 1.0;"/><text fill="#000000" font-family="sans-serif" font-size="11" lengthAdjust="spacingAndGlyphs" textLength="53" x="392.75" y="78.6792">PartyRole</text><text fill="#000000" font-family="sans-serif" font-size="11" font-style="italic" lengthAdjust="spacingAndGlyphs" textLength="92" x="449.75" y="78.6792">(PartyRoleCode)</text></a><!--class InformationPartyRole--><a target="_top" xlink:actuate="onRequest" xlink:href="../InformationPartyRole.html" xlink:show="new" xlink:title="Role played by a party as source of information." xlink:type="simple"><rect fill="#FEFEEE" filter="url(#fp3mxcbkbehn8)" height="23.9688" id="InformationPartyRole" style="stroke: #A80036; stroke-width: 1.5;" width="136" x="380" y="166"/><rect fill="#FEFEEE" height="23.9688" style="stroke: #A80036; stroke-width: 1.5;" width="136" x="380" y="166"/><text fill="#000000" font-family="sans-serif" font-size="12" lengthAdjust="spacingAndGlyphs" textLength="130" x="383" y="182.1387">InformationPartyRole</text></a><!--class QuoteOriginator--><a target="_top" xlink:actuate="onRequest" xlink:href="../QuoteOriginator.html" xlink:show="new" xlink:title="Originator of the quote." xlink:type="simple"><rect fill="#FEFECE" filter="url(#fp3mxcbkbehn8)" height="44.7734" id="QuoteOriginator" style="stroke: #A80036; stroke-width: 1.5;" width="267" x="280.75" y="268.5"/><rect fill="#FEFECE" height="23.9688" style="stroke: #A80036; stroke-width: 1.5;" width="267" x="280.75" y="268.5"/><text fill="#000000" font-family="sans-serif" font-size="12" lengthAdjust="spacingAndGlyphs" textLength="100" x="364.25" y="284.6387">QuoteOriginator</text><line style="stroke: #A80036; stroke-width: 1.5;" x1="281.75" x2="546.75" y1="292.4688" y2="292.4688"/><ellipse cx="291.75" cy="304.3711" fill="#84BE84" rx="3" ry="3" style="stroke: #038048; stroke-width: 1.0;"/><text fill="#000000" font-family="sans-serif" font-size="11" lengthAdjust="spacingAndGlyphs" textLength="118" x="300.75" y="306.6792">QuoteOriginatorType</text><text fill="#000000" font-family="sans-serif" font-size="11" font-style="italic" lengthAdjust="spacingAndGlyphs" textLength="119" x="422.75" y="306.6792">(OriginatorRoleCode)</text></a><!--class RolePlayer--><a target="_top" xlink:actuate="onRequest" xlink:href="../RolePlayer.html" xlink:show="new" xlink:title="Type of entity that plays a specific role in a specific context." xlink:type="simple"><rect fill="#EEEEEE" filter="url(#fp3mxcbkbehn8)" height="23.9688" id="RolePlayer" style="stroke: #A80036; stroke-width: 1.5;" width="71" x="1641.75" y="480"/><rect fill="#EEEEEE" height="23.9688" style="stroke: #A80036; stroke-width: 1.5;" width="71" x="1641.75" y="480"/><text fill="#000000" font-family="sans-serif" font-size="12" lengthAdjust="spacingAndGlyphs" textLength="65" x="1644.75" y="496.1387">RolePlayer</text></a><!--class ContactPersonRole--><a target="_top" xlink:actuate="onRequest" xlink:href="../ContactPersonRole.html" xlink:show="new" xlink:title="Person to be contacted in a given organisation. In the corporate action domain (including meeting notifications) , it is the contact person at the party organising the meeting, at the issuer or at an intermediary." xlink:type="simple"><rect fill="#EEEEEE" filter="url(#fp3mxcbkbehn8)" height="23.9688" id="ContactPersonRole" style="stroke: #A80036; stroke-width: 1.5;" width="126" x="1594" y="394"/><rect fill="#EEEEEE" height="23.9688" style="stroke: #A80036; stroke-width: 1.5;" width="126" x="1594" y="394"/><text fill="#000000" font-family="sans-serif" font-size="12" lengthAdjust="spacingAndGlyphs" textLength="120" x="1597" y="410.1387">ContactPersonRole</text></a><!--class CounterpartyRisk--><a target="_top" xlink:actuate="onRequest" xlink:href="../CounterpartyRisk.html" xlink:show="new" xlink:title="Calculation of the exposure amount that one party has vis-a-vis one counterparty or a central system, based on its credit risk." xlink:type="simple"><rect fill="#EEEEEE" filter="url(#fp3mxcbkbehn8)" height="23.9688" id="CounterpartyRisk" style="stroke: #A80036; stroke-width: 1.5;" width="113" x="1594.75" y="279"/><rect fill="#EEEEEE" height="23.9688" style="stroke: #A80036; stroke-width: 1.5;" width="113" x="1594.75" y="279"/><text fill="#000000" font-family="sans-serif" font-size="12" lengthAdjust="spacingAndGlyphs" textLength="107" x="1597.75" y="295.1387">CounterpartyRisk</text></a><!--class Entry--><a target="_top" xlink:actuate="onRequest" xlink:href="../Entry.html" xlink:show="new" xlink:title="Posting to an account that results in an increase or decrease to a balance." xlink:type="simple"><rect fill="#EEEEEE" filter="url(#fp3mxcbkbehn8)" height="23.9688" id="Entry" style="stroke: #A80036; stroke-width: 1.5;" width="38" x="1638" y="166"/><rect fill="#EEEEEE" height="23.9688" style="stroke: #A80036; stroke-width: 1.5;" width="38" x="1638" y="166"/><text fill="#000000" font-family="sans-serif" font-size="12" lengthAdjust="spacingAndGlyphs" textLength="32" x="1641" y="182.1387">Entry</text></a><!--class GenericIdentification--><a target="_top" xlink:actuate="onRequest" xlink:href="../GenericIdentification.html" xlink:show="new" xlink:title="Information related to a non-standardised identification, such as a proprietary party identification or account identification." xlink:type="simple"><rect fill="#EEEEEE" filter="url(#fp3mxcbkbehn8)" height="23.9688" id="GenericIdentification" style="stroke: #A80036; stroke-width: 1.5;" width="135" x="668.75" y="279"/><rect fill="#EEEEEE" height="23.9688" style="stroke: #A80036; stroke-width: 1.5;" width="135" x="668.75" y="279"/><text fill="#000000" font-family="sans-serif" font-size="12" lengthAdjust="spacingAndGlyphs" textLength="129" x="671.75" y="295.1387">GenericIdentification</text></a><!--class HaircutValuation--><a target="_top" xlink:actuate="onRequest" xlink:href="../HaircutValuation.html" xlink:show="new" xlink:title="Basic valuation details of an asset's market value." xlink:type="simple"><rect fill="#EEEEEE" filter="url(#fp3mxcbkbehn8)" height="23.9688" id="HaircutValuation" style="stroke: #A80036; stroke-width: 1.5;" width="110" x="1373" y="584"/><rect fill="#EEEEEE" height="23.9688" style="stroke: #A80036; stroke-width: 1.5;" width="110" x="1373" y="584"/><text fill="#000000" font-family="sans-serif" font-size="12" lengthAdjust="spacingAndGlyphs" textLength="104" x="1376" y="600.1387">HaircutValuation</text></a><!--class SecuritiesPricing--><a target="_top" xlink:actuate="onRequest" xlink:href="../SecuritiesPricing.html" xlink:show="new" xlink:title="Characteristics related to the price of the security." xlink:type="simple"><rect fill="#EEEEEE" filter="url(#fp3mxcbkbehn8)" height="23.9688" id="SecuritiesPricing" style="stroke: #A80036; stroke-width: 1.5;" width="110" x="964" y="480"/><rect fill="#EEEEEE" height="23.9688" style="stroke: #A80036; stroke-width: 1.5;" width="110" x="964" y="480"/><text fill="#000000" font-family="sans-serif" font-size="12" lengthAdjust="spacingAndGlyphs" textLength="104" x="967" y="496.1387">SecuritiesPricing</text></a><!--class Scheme--><a target="_top" xlink:actuate="onRequest" xlink:href="../Scheme.html" xlink:show="new" xlink:title="Information regarding an enumerated code list and its owner." xlink:type="simple"><rect fill="#EEEEEE" filter="url(#fp3mxcbkbehn8)" height="23.9688" id="Scheme" style="stroke: #A80036; stroke-width: 1.5;" width="56" x="708.5" y="394"/><rect fill="#EEEEEE" height="23.9688" style="stroke: #A80036; stroke-width: 1.5;" width="56" x="708.5" y="394"/><text fill="#000000" font-family="sans-serif" font-size="12" lengthAdjust="spacingAndGlyphs" textLength="50" x="711.5" y="410.1387">Scheme</text></a><!--class Quote--><a target="_top" xlink:actuate="onRequest" xlink:href="../Quote.html" xlink:show="new" xlink:title="Indicates whether the quote details are indicated as an offer, a bid or a mid of a security, commodity, currency (the latter being an average of the offer and the bid)." xlink:type="simple"><rect fill="#EEEEEE" filter="url(#fp3mxcbkbehn8)" height="23.9688" id="Quote" style="stroke: #A80036; stroke-width: 1.5;" width="44" x="631.5" y="584"/><rect fill="#EEEEEE" height="23.9688" style="stroke: #A80036; stroke-width: 1.5;" width="44" x="631.5" y="584"/><text fill="#000000" font-family="sans-serif" font-size="12" lengthAdjust="spacingAndGlyphs" textLength="38" x="634.5" y="600.1387">Quote</text></a><!--class TreasuryTrade--><a target="_top" xlink:actuate="onRequest" xlink:href="../TreasuryTrade.html" xlink:show="new" xlink:title="Specifies trades linked to treasury operations such as the exchange of currencies, the lending of cash amounts and the related derivatives trades (options and non deliverable trades)." xlink:type="simple"><rect fill="#EEEEEE" filter="url(#fp3mxcbkbehn8)" height="23.9688" id="TreasuryTrade" style="stroke: #A80036; stroke-width: 1.5;" width="96" x="604" y="480"/><rect fill="#EEEEEE" height="23.9688" style="stroke: #A80036; stroke-width: 1.5;" width="96" x="604" y="480"/><text fill="#000000" font-family="sans-serif" font-size="12" lengthAdjust="spacingAndGlyphs" textLength="90" x="607" y="496.1387">TreasuryTrade</text></a><!--entity ##22801--><!--link Role to InformationPartyRole--><path d="M455.587,105.559 C453.293,127.159 450.666,151.898 449.183,165.865 " fill="none" id="Role-InformationPartyRole" style="stroke: #A80036; stroke-width: 1.0;"/><polygon fill="none" points="448.642,104.669,457.715,85.52,462.563,106.148,448.642,104.669" style="stroke: #A80036; stroke-width: 1.0;"/><!--link InformationPartyRole to QuoteOriginator--><path d="M438.693,209.384 C432.969,228.073 425.769,251.577 420.624,268.376 " fill="none" id="InformationPartyRole-QuoteOriginator" style="stroke: #A80036; stroke-width: 1.0;"/><polygon fill="none" points="432.065,207.122,444.616,190.049,445.451,211.222,432.065,207.122" style="stroke: #A80036; stroke-width: 1.0;"/><!--link ContactPersonRole to RolePlayer--><!--link CounterpartyRisk to ContactPersonRole--><!--link Entry to CounterpartyRisk--><!--link HaircutValuation to GenericIdentification--><!--link SecuritiesPricing to HaircutValuation--><!--link Scheme to SecuritiesPricing--><!--link Quote to Scheme--><!--link TreasuryTrade to Quote--><!--link Role to RolePlayer--><path d="M547.354,65.161 C789.431,68.785 1465.48,81.762 1685,116 C1786.52,131.834 1908,74.248 1908,177 C1908,177 1908,177 1908,407 C1908,447.082 1783.61,473.571 1717.39,484.833 " fill="none" id="Role-RolePlayer" style="stroke: #A80036; stroke-width: 1.0;"/><polygon fill="#A80036" points="1712.34,485.682,1721.8784,488.1354,1717.2709,484.8535,1720.5528,480.246,1712.34,485.682" style="stroke: #A80036; stroke-width: 1.0;"/><text fill="#000000" font-family="sans-serif" font-size="13" lengthAdjust="spacingAndGlyphs" textLength="39" x="1909" y="295.0669">Player</text><text fill="#000000" font-family="sans-serif" font-size="13" lengthAdjust="spacingAndGlyphs" textLength="7" x="1720.7816" y="478.5254">*</text><!--link Role to ContactPersonRole--><path d="M547.676,63.476 C784.058,62.763 1430.59,65.618 1637,116 C1739.95,141.129 1764.55,240.094 1724,338 C1714.85,360.088 1694.5,378.691 1678.61,390.647 " fill="none" id="Role-ContactPersonRole" style="stroke: #A80036; stroke-width: 1.0;"/><polygon fill="#A80036" points="1674.26,393.84,1683.8828,391.7422,1678.2917,390.8827,1679.1511,385.2915,1674.26,393.84" style="stroke: #A80036; stroke-width: 1.0;"/><text fill="#000000" font-family="sans-serif" font-size="13" lengthAdjust="spacingAndGlyphs" textLength="121" x="1743" y="233.0669">ContactPersonRole</text><text fill="#000000" font-family="sans-serif" font-size="13" lengthAdjust="spacingAndGlyphs" textLength="8" x="1669.4744" y="382.8332">1</text><!--link Role to CounterpartyRisk--><path d="M547.333,71.169 C723.862,87.038 1134.78,130.989 1469,220 C1524.88,234.883 1587.23,261.074 1622.53,276.854 " fill="none" id="Role-CounterpartyRisk" style="stroke: #A80036; stroke-width: 1.0;"/><polygon fill="#A80036" points="1627.11,278.914,1620.5311,271.5848,1622.5467,276.8703,1617.2612,278.886,1627.11,278.914" style="stroke: #A80036; stroke-width: 1.0;"/><text fill="#000000" font-family="sans-serif" font-size="13" lengthAdjust="spacingAndGlyphs" textLength="109" x="1336" y="182.0669">CounterpartyRisk</text><text fill="#000000" font-family="sans-serif" font-size="13" lengthAdjust="spacingAndGlyphs" textLength="24" x="1589.3431" y="267.9327">0..1</text><!--link Role to Entry--><path d="M547.398,65.817 C765.806,70.756 1331.18,86.108 1517,116 C1559.8,122.885 1572.16,122.751 1611,142 C1621.82,147.361 1632.63,155.414 1641.05,162.444 " fill="none" id="Role-Entry" style="stroke: #A80036; stroke-width: 1.0;"/><polygon fill="#A80036" points="1644.98,165.797,1640.7256,156.9144,1641.1749,162.5534,1635.5359,163.0027,1644.98,165.797" style="stroke: #A80036; stroke-width: 1.0;"/><text fill="#000000" font-family="sans-serif" font-size="13" lengthAdjust="spacingAndGlyphs" textLength="33" x="1594" y="129.0669">Entry</text><text fill="#000000" font-family="sans-serif" font-size="13" lengthAdjust="spacingAndGlyphs" textLength="8" x="1630.3421" y="155.0332">1</text><!--link InformationPartyRole to GenericIdentification--><path d="M476.667,190.049 C530.254,210.702 645.334,255.056 702.44,277.065 " fill="none" id="InformationPartyRole-GenericIdentification" style="stroke: #A80036; stroke-width: 1.0;"/><polygon fill="#A80036" points="707.448,278.996,700.488,272.0277,702.7823,277.1983,697.6117,279.4927,707.448,278.996" style="stroke: #A80036; stroke-width: 1.0;"/><text fill="#000000" font-family="sans-serif" font-size="13" lengthAdjust="spacingAndGlyphs" textLength="130" x="602" y="233.0669">GenericIdentification</text><text fill="#000000" font-family="sans-serif" font-size="13" lengthAdjust="spacingAndGlyphs" textLength="7" x="688.0004" y="268.0428">*</text><!--link InformationPartyRole to HaircutValuation--><path d="M516.054,180.278 C684.303,184.262 1115.68,199.722 1247,255 C1391.44,315.802 1425.62,383.105 1460,536 C1461.76,543.8051 1462.6,546.4352 1460,554 C1456.68,563.6535 1450.05,572.7774 1443.68,579.9564 " fill="none" id="InformationPartyRole-HaircutValuation" style="stroke: #A80036; stroke-width: 1.0;"/><polygon fill="#A80036" points="1440.19,583.7357,1449.235,579.8384,1443.5826,580.0627,1443.3582,574.4103,1440.19,583.7357" style="stroke: #A80036; stroke-width: 1.0;"/><text fill="#000000" font-family="sans-serif" font-size="13" lengthAdjust="spacingAndGlyphs" textLength="106" x="1427" y="410.0669">HaircutValuation</text><text fill="#000000" font-family="sans-serif" font-size="13" lengthAdjust="spacingAndGlyphs" textLength="7" x="1434.7373" y="572.9516">*</text><!--link InformationPartyRole to SecuritiesPricing--><path d="M516.281,181.227 C703.305,188.917 1216.6,221.218 1317,346 C1386.08,431.851 1185.02,470.402 1079.34,484.376 " fill="none" id="InformationPartyRole-SecuritiesPricing" style="stroke: #A80036; stroke-width: 1.0;"/><polygon fill="#A80036" points="1074.08,485.063,1083.5196,487.8727,1079.0385,484.4202,1082.491,479.9391,1074.08,485.063" style="stroke: #A80036; stroke-width: 1.0;"/><text fill="#000000" font-family="sans-serif" font-size="13" lengthAdjust="spacingAndGlyphs" textLength="31" x="1329" y="359.0669">Price</text><text fill="#000000" font-family="sans-serif" font-size="13" lengthAdjust="spacingAndGlyphs" textLength="7" x="1081.9517" y="479.0666">*</text><!--link InformationPartyRole to Scheme--><path d="M379.957,179.858 C323.489,184.622 246.3,201.399 207,255 C185.188,284.749 182.609,310.325 207,338 C240.026,375.473 593.356,397.382 703.443,403.336 " fill="none" id="InformationPartyRole-Scheme" style="stroke: #A80036; stroke-width: 1.0;"/><polygon fill="#A80036" points="708.499,403.608,699.7256,399.1329,703.5061,403.3409,699.2981,407.1214,708.499,403.608" style="stroke: #A80036; stroke-width: 1.0;"/><text fill="#000000" font-family="sans-serif" font-size="13" lengthAdjust="spacingAndGlyphs" textLength="53" x="208" y="295.0669">Scheme</text><text fill="#000000" font-family="sans-serif" font-size="13" lengthAdjust="spacingAndGlyphs" textLength="24" x="676.452" y="397.8169">0..1</text><!--link InformationPartyRole to Quote--><path d="M379.906,182.044 C255.922,189.458 6,213.848 6,290 C6,290 6,290 6,493 C6,556.8673 504.283,587.1922 626.284,593.6598 " fill="none" id="InformationPartyRole-Quote" style="stroke: #A80036; stroke-width: 1.0;"/><polygon fill="#A80036" points="631.473,593.9325,622.6957,589.4649,626.4799,593.6696,622.2752,597.4538,631.473,593.9325" style="stroke: #A80036; stroke-width: 1.0;"/><text fill="#000000" font-family="sans-serif" font-size="13" lengthAdjust="spacingAndGlyphs" textLength="39" x="7" y="410.0669">Quote</text><text fill="#000000" font-family="sans-serif" font-size="13" lengthAdjust="spacingAndGlyphs" textLength="24" x="599.5771" y="587.9351">0..1</text><!--link InformationPartyRole to TreasuryTrade--><path d="M379.841,180.389 C331.911,183.85 267.565,193.641 217,220 C148.352,255.785 71.0209,303.246 119,364 C178.53,439.381 475.831,474.865 598.716,486.488 " fill="none" id="InformationPartyRole-TreasuryTrade" style="stroke: #A80036; stroke-width: 1.0;"/><polygon fill="#A80036" points="603.725,486.957,595.138,482.1337,598.7469,486.4899,594.3907,490.0987,603.725,486.957" style="stroke: #A80036; stroke-width: 1.0;"/><text fill="#000000" font-family="sans-serif" font-size="13" lengthAdjust="spacingAndGlyphs" textLength="91" x="120" y="359.0669">TreasuryTrade</text><text fill="#000000" font-family="sans-serif" font-size="13" lengthAdjust="spacingAndGlyphs" textLength="7" x="588.9632" y="481.2992">*</text><!--link GenericIdentification to Scheme--><path d="M736,303.248 C736,323.3 736,365.299 736,388.58 " fill="none" id="GenericIdentification-Scheme" style="stroke: #A80036; stroke-width: 1.0;"/><polygon fill="#A80036" points="736,393.797,740,384.797,736,388.797,732,384.797,736,393.797" style="stroke: #A80036; stroke-width: 1.0;"/><text fill="#000000" font-family="sans-serif" font-size="13" lengthAdjust="spacingAndGlyphs" textLength="53" x="737" y="359.0669">Scheme</text><text fill="#000000" font-family="sans-serif" font-size="13" lengthAdjust="spacingAndGlyphs" textLength="8" x="725.1781" y="383.0332">1</text><!--link SecuritiesPricing to Quote--><path d="M1015.25,504.171 C1009.86,518.337 998.492,542.3204 980,554 C930.143,585.4902 748.568,592.8508 679.717,594.5235 " fill="none" id="SecuritiesPricing-Quote" style="stroke: #A80036; stroke-width: 1.0;"/><polygon fill="#A80036" points="674.57,594.643,683.6602,598.4336,679.5687,594.5273,683.475,590.4358,674.57,594.643" style="stroke: #A80036; stroke-width: 1.0;"/><text fill="#000000" font-family="sans-serif" font-size="13" lengthAdjust="spacingAndGlyphs" textLength="218" x="1000" y="549.0669">PreviousClosingPriceRelatedQuote</text><text fill="#000000" font-family="sans-serif" font-size="13" lengthAdjust="spacingAndGlyphs" textLength="24" x="683.4576" y="608.3829">0..1</text><!--link SecuritiesPricing to Quote--><path d="M1074.31,492.747 C1150.84,494.17 1274.62,503.932 1228,554 C1190.27,594.5138 788.214,595.6229 679.801,595.178 " fill="none" id="SecuritiesPricing-Quote" style="stroke: #A80036; stroke-width: 1.0;"/><polygon fill="#A80036" points="674.565,595.1543,683.5466,599.1954,679.5649,595.1772,683.5832,591.1955,674.565,595.1543" style="stroke: #A80036; stroke-width: 1.0;"/><text fill="#000000" font-family="sans-serif" font-size="13" lengthAdjust="spacingAndGlyphs" textLength="186" x="1239" y="549.0669">RequestedPriceRelatedQuote</text><text fill="#000000" font-family="sans-serif" font-size="13" lengthAdjust="spacingAndGlyphs" textLength="24" x="683.4512" y="588.7316">0..1</text><!--link SecuritiesPricing to Quote--><path d="M963.976,500.736 C908.709,508.339 821.064,519.943 745,528 C734.466,529.116 657.169,528.202 650,536 C639.583,547.3316 642.41,565.6542 646.534,578.8765 " fill="none" id="SecuritiesPricing-Quote" style="stroke: #A80036; stroke-width: 1.0;"/><polygon fill="#A80036" points="648.217,583.8441,649.1181,574.0366,646.6129,579.1084,641.541,576.6032,648.217,583.8441" style="stroke: #A80036; stroke-width: 1.0;"/><text fill="#000000" font-family="sans-serif" font-size="13" lengthAdjust="spacingAndGlyphs" textLength="118" x="651" y="549.0669">PriceRelatedQuote</text><text fill="#000000" font-family="sans-serif" font-size="13" lengthAdjust="spacingAndGlyphs" textLength="24" x="650.526" y="572.8387">0..1</text><!--link SecuritiesPricing to Quote--><path d="M963.675,499.403 C920.116,505.58 858.388,516.877 807,536 C791.707,541.6911 789.911,547.3716 775,554 C743.033,568.2104 704.536,580.3743 679.452,587.6799 " fill="none" id="SecuritiesPricing-Quote" style="stroke: #A80036; stroke-width: 1.0;"/><polygon fill="#A80036" points="674.62,589.0754,684.3764,590.4214,679.4237,587.6882,682.1569,582.7355,674.62,589.0754" style="stroke: #A80036; stroke-width: 1.0;"/><text fill="#000000" font-family="sans-serif" font-size="13" lengthAdjust="spacingAndGlyphs" textLength="162" x="808" y="549.0669">MarketPriceRelatedQuote</text><text fill="#000000" font-family="sans-serif" font-size="13" lengthAdjust="spacingAndGlyphs" textLength="24" x="683.521" y="581.019">0..1</text></g></svg>