<?xml version="1.0" encoding="UTF-8" standalone="no"?><svg xmlns="http://www.w3.org/2000/svg" xmlns:xlink="http://www.w3.org/1999/xlink" contentScriptType="application/ecmascript" contentStyleType="text/css" height="601px" preserveAspectRatio="none" style="width:1810px;height:601px;" version="1.1" viewBox="0 0 1810 601" width="1810px" zoomAndPan="magnify"><defs><filter height="300%" id="fe68zj8sitsda" width="300%" x="-1" y="-1"><feGaussianBlur result="blurOut" stdDeviation="2.0"/><feColorMatrix in="blurOut" result="blurOut2" type="matrix" values="0 0 0 0 0 0 0 0 0 0 0 0 0 0 0 0 0 0 .4 0"/><feOffset dx="4.0" dy="4.0" in="blurOut2" result="blurOut3"/><feBlend in="SourceGraphic" in2="blurOut3" mode="normal"/></filter></defs><g><!--cluster ##22885--><!--cluster ##22894--><!--cluster ##22903--><!--class Role--><a target="_top" xlink:actuate="onRequest" xlink:href="../Role.html" xlink:show="new" xlink:title="Role of a party in an activity." xlink:type="simple"><rect fill="#FEFEEE" filter="url(#fe68zj8sitsda)" height="44.7734" id="Role" style="stroke: #A80036; stroke-width: 1.5;" width="175" x="222.75" y="40.5"/><rect fill="#FEFEEE" height="23.9688" style="stroke: #A80036; stroke-width: 1.5;" width="175" x="222.75" y="40.5"/><text fill="#000000" font-family="sans-serif" font-size="12" lengthAdjust="spacingAndGlyphs" textLength="27" x="296.75" y="56.6387">Role</text><line style="stroke: #A80036; stroke-width: 1.5;" x1="223.75" x2="396.75" y1="64.4688" y2="64.4688"/><ellipse cx="233.75" cy="76.3711" fill="#84BE84" rx="3" ry="3" style="stroke: #038048; stroke-width: 1.0;"/><text fill="#000000" font-family="sans-serif" font-size="11" lengthAdjust="spacingAndGlyphs" textLength="53" x="242.75" y="78.6792">PartyRole</text><text fill="#000000" font-family="sans-serif" font-size="11" font-style="italic" lengthAdjust="spacingAndGlyphs" textLength="92" x="299.75" y="78.6792">(PartyRoleCode)</text></a><!--class InformationPartyRole--><a target="_top" xlink:actuate="onRequest" xlink:href="../InformationPartyRole.html" xlink:show="new" xlink:title="Role played by a party as source of information." xlink:type="simple"><rect fill="#FEFEEE" filter="url(#fe68zj8sitsda)" height="23.9688" id="InformationPartyRole" style="stroke: #A80036; stroke-width: 1.5;" width="136" x="253" y="166"/><rect fill="#FEFEEE" height="23.9688" style="stroke: #A80036; stroke-width: 1.5;" width="136" x="253" y="166"/><text fill="#000000" font-family="sans-serif" font-size="12" lengthAdjust="spacingAndGlyphs" textLength="130" x="256" y="182.1387">InformationPartyRole</text></a><!--class QuotingInstitution--><a target="_top" xlink:actuate="onRequest" xlink:href="../QuotingInstitution.html" xlink:show="new" xlink:title="Source of the quote, party that proposes a rate." xlink:type="simple"><rect fill="#FEFECE" filter="url(#fe68zj8sitsda)" height="23.9688" id="QuotingInstitution" style="stroke: #A80036; stroke-width: 1.5;" width="118" x="280" y="270"/><rect fill="#FEFECE" height="23.9688" style="stroke: #A80036; stroke-width: 1.5;" width="118" x="280" y="270"/><text fill="#000000" font-family="sans-serif" font-size="12" lengthAdjust="spacingAndGlyphs" textLength="112" x="283" y="286.1387">QuotingInstitution</text></a><!--class RolePlayer--><a target="_top" xlink:actuate="onRequest" xlink:href="../RolePlayer.html" xlink:show="new" xlink:title="Type of entity that plays a specific role in a specific context." xlink:type="simple"><rect fill="#EEEEEE" filter="url(#fe68zj8sitsda)" height="23.9688" id="RolePlayer" style="stroke: #A80036; stroke-width: 1.5;" width="71" x="1491.75" y="460"/><rect fill="#EEEEEE" height="23.9688" style="stroke: #A80036; stroke-width: 1.5;" width="71" x="1491.75" y="460"/><text fill="#000000" font-family="sans-serif" font-size="12" lengthAdjust="spacingAndGlyphs" textLength="65" x="1494.75" y="476.1387">RolePlayer</text></a><!--class ContactPersonRole--><a target="_top" xlink:actuate="onRequest" xlink:href="../ContactPersonRole.html" xlink:show="new" xlink:title="Person to be contacted in a given organisation. In the corporate action domain (including meeting notifications) , it is the contact person at the party organising the meeting, at the issuer or at an intermediary." xlink:type="simple"><rect fill="#EEEEEE" filter="url(#fe68zj8sitsda)" height="23.9688" id="ContactPersonRole" style="stroke: #A80036; stroke-width: 1.5;" width="126" x="1444" y="374"/><rect fill="#EEEEEE" height="23.9688" style="stroke: #A80036; stroke-width: 1.5;" width="126" x="1444" y="374"/><text fill="#000000" font-family="sans-serif" font-size="12" lengthAdjust="spacingAndGlyphs" textLength="120" x="1447" y="390.1387">ContactPersonRole</text></a><!--class CounterpartyRisk--><a target="_top" xlink:actuate="onRequest" xlink:href="../CounterpartyRisk.html" xlink:show="new" xlink:title="Calculation of the exposure amount that one party has vis-a-vis one counterparty or a central system, based on its credit risk." xlink:type="simple"><rect fill="#EEEEEE" filter="url(#fe68zj8sitsda)" height="23.9688" id="CounterpartyRisk" style="stroke: #A80036; stroke-width: 1.5;" width="113" x="1444.75" y="270"/><rect fill="#EEEEEE" height="23.9688" style="stroke: #A80036; stroke-width: 1.5;" width="113" x="1444.75" y="270"/><text fill="#000000" font-family="sans-serif" font-size="12" lengthAdjust="spacingAndGlyphs" textLength="107" x="1447.75" y="286.1387">CounterpartyRisk</text></a><!--class Entry--><a target="_top" xlink:actuate="onRequest" xlink:href="../Entry.html" xlink:show="new" xlink:title="Posting to an account that results in an increase or decrease to a balance." xlink:type="simple"><rect fill="#EEEEEE" filter="url(#fe68zj8sitsda)" height="23.9688" id="Entry" style="stroke: #A80036; stroke-width: 1.5;" width="38" x="1488" y="166"/><rect fill="#EEEEEE" height="23.9688" style="stroke: #A80036; stroke-width: 1.5;" width="38" x="1488" y="166"/><text fill="#000000" font-family="sans-serif" font-size="12" lengthAdjust="spacingAndGlyphs" textLength="32" x="1491" y="182.1387">Entry</text></a><!--class GenericIdentification--><a target="_top" xlink:actuate="onRequest" xlink:href="../GenericIdentification.html" xlink:show="new" xlink:title="Information related to a non-standardised identification, such as a proprietary party identification or account identification." xlink:type="simple"><rect fill="#EEEEEE" filter="url(#fe68zj8sitsda)" height="23.9688" id="GenericIdentification" style="stroke: #A80036; stroke-width: 1.5;" width="135" x="518.75" y="270"/><rect fill="#EEEEEE" height="23.9688" style="stroke: #A80036; stroke-width: 1.5;" width="135" x="518.75" y="270"/><text fill="#000000" font-family="sans-serif" font-size="12" lengthAdjust="spacingAndGlyphs" textLength="129" x="521.75" y="286.1387">GenericIdentification</text></a><!--class HaircutValuation--><a target="_top" xlink:actuate="onRequest" xlink:href="../HaircutValuation.html" xlink:show="new" xlink:title="Basic valuation details of an asset's market value." xlink:type="simple"><rect fill="#EEEEEE" filter="url(#fe68zj8sitsda)" height="23.9688" id="HaircutValuation" style="stroke: #A80036; stroke-width: 1.5;" width="110" x="1223" y="564"/><rect fill="#EEEEEE" height="23.9688" style="stroke: #A80036; stroke-width: 1.5;" width="110" x="1223" y="564"/><text fill="#000000" font-family="sans-serif" font-size="12" lengthAdjust="spacingAndGlyphs" textLength="104" x="1226" y="580.1387">HaircutValuation</text></a><!--class SecuritiesPricing--><a target="_top" xlink:actuate="onRequest" xlink:href="../SecuritiesPricing.html" xlink:show="new" xlink:title="Characteristics related to the price of the security." xlink:type="simple"><rect fill="#EEEEEE" filter="url(#fe68zj8sitsda)" height="23.9688" id="SecuritiesPricing" style="stroke: #A80036; stroke-width: 1.5;" width="110" x="814" y="460"/><rect fill="#EEEEEE" height="23.9688" style="stroke: #A80036; stroke-width: 1.5;" width="110" x="814" y="460"/><text fill="#000000" font-family="sans-serif" font-size="12" lengthAdjust="spacingAndGlyphs" textLength="104" x="817" y="476.1387">SecuritiesPricing</text></a><!--class Scheme--><a target="_top" xlink:actuate="onRequest" xlink:href="../Scheme.html" xlink:show="new" xlink:title="Information regarding an enumerated code list and its owner." xlink:type="simple"><rect fill="#EEEEEE" filter="url(#fe68zj8sitsda)" height="23.9688" id="Scheme" style="stroke: #A80036; stroke-width: 1.5;" width="56" x="558.5" y="374"/><rect fill="#EEEEEE" height="23.9688" style="stroke: #A80036; stroke-width: 1.5;" width="56" x="558.5" y="374"/><text fill="#000000" font-family="sans-serif" font-size="12" lengthAdjust="spacingAndGlyphs" textLength="50" x="561.5" y="390.1387">Scheme</text></a><!--class Quote--><a target="_top" xlink:actuate="onRequest" xlink:href="../Quote.html" xlink:show="new" xlink:title="Indicates whether the quote details are indicated as an offer, a bid or a mid of a security, commodity, currency (the latter being an average of the offer and the bid)." xlink:type="simple"><rect fill="#EEEEEE" filter="url(#fe68zj8sitsda)" height="23.9688" id="Quote" style="stroke: #A80036; stroke-width: 1.5;" width="44" x="481.5" y="564"/><rect fill="#EEEEEE" height="23.9688" style="stroke: #A80036; stroke-width: 1.5;" width="44" x="481.5" y="564"/><text fill="#000000" font-family="sans-serif" font-size="12" lengthAdjust="spacingAndGlyphs" textLength="38" x="484.5" y="580.1387">Quote</text></a><!--class TreasuryTrade--><a target="_top" xlink:actuate="onRequest" xlink:href="../TreasuryTrade.html" xlink:show="new" xlink:title="Specifies trades linked to treasury operations such as the exchange of currencies, the lending of cash amounts and the related derivatives trades (options and non deliverable trades)." xlink:type="simple"><rect fill="#EEEEEE" filter="url(#fe68zj8sitsda)" height="23.9688" id="TreasuryTrade" style="stroke: #A80036; stroke-width: 1.5;" width="96" x="454" y="460"/><rect fill="#EEEEEE" height="23.9688" style="stroke: #A80036; stroke-width: 1.5;" width="96" x="454" y="460"/><text fill="#000000" font-family="sans-serif" font-size="12" lengthAdjust="spacingAndGlyphs" textLength="90" x="457" y="476.1387">TreasuryTrade</text></a><!--entity ##22916--><!--link Role to InformationPartyRole--><path d="M314.046,105.559 C316.148,127.159 318.556,151.898 319.916,165.865 " fill="none" id="Role-InformationPartyRole" style="stroke: #A80036; stroke-width: 1.0;"/><polygon fill="none" points="307.066,106.105,312.095,85.52,321,104.748,307.066,106.105" style="stroke: #A80036; stroke-width: 1.0;"/><!--link InformationPartyRole to QuotingInstitution--><path d="M326.518,210.267 C330.098,230.554 334.547,255.766 337.051,269.954 " fill="none" id="InformationPartyRole-QuotingInstitution" style="stroke: #A80036; stroke-width: 1.0;"/><polygon fill="none" points="319.577,211.218,322.995,190.306,333.364,208.785,319.577,211.218" style="stroke: #A80036; stroke-width: 1.0;"/><!--link ContactPersonRole to RolePlayer--><!--link CounterpartyRisk to ContactPersonRole--><!--link Entry to CounterpartyRisk--><!--link HaircutValuation to GenericIdentification--><!--link SecuritiesPricing to HaircutValuation--><!--link Scheme to SecuritiesPricing--><!--link Quote to Scheme--><!--link TreasuryTrade to Quote--><!--link Role to RolePlayer--><path d="M397.574,65.115 C640.259,68.618 1318,81.308 1538,116 C1638.23,131.805 1758,75.533 1758,177 C1758,177 1758,177 1758,387 C1758,427.082 1633.61,453.571 1567.39,464.833 " fill="none" id="Role-RolePlayer" style="stroke: #A80036; stroke-width: 1.0;"/><polygon fill="#A80036" points="1562.34,465.682,1571.8784,468.1354,1567.2709,464.8535,1570.5528,460.246,1562.34,465.682" style="stroke: #A80036; stroke-width: 1.0;"/><text fill="#000000" font-family="sans-serif" font-size="13" lengthAdjust="spacingAndGlyphs" textLength="39" x="1759" y="286.0669">Player</text><text fill="#000000" font-family="sans-serif" font-size="13" lengthAdjust="spacingAndGlyphs" textLength="7" x="1570.7816" y="458.5254">*</text><!--link Role to ContactPersonRole--><path d="M397.676,63.476 C634.058,62.763 1280.59,65.618 1487,116 C1513.66,122.507 1525.05,121.242 1543,142 C1594.95,202.083 1604.4,244.62 1574,318 C1564.85,340.088 1544.5,358.691 1528.61,370.647 " fill="none" id="Role-ContactPersonRole" style="stroke: #A80036; stroke-width: 1.0;"/><polygon fill="#A80036" points="1524.26,373.84,1533.8828,371.7422,1528.2917,370.8827,1529.1511,365.2915,1524.26,373.84" style="stroke: #A80036; stroke-width: 1.0;"/><text fill="#000000" font-family="sans-serif" font-size="13" lengthAdjust="spacingAndGlyphs" textLength="121" x="1592" y="233.0669">ContactPersonRole</text><text fill="#000000" font-family="sans-serif" font-size="13" lengthAdjust="spacingAndGlyphs" textLength="8" x="1519.4744" y="362.8332">1</text><!--link Role to CounterpartyRisk--><path d="M397.355,72.448 C573.499,90.588 983.129,138.377 1319,220 C1372.3,232.954 1432.31,254.47 1468.36,268.181 " fill="none" id="Role-CounterpartyRisk" style="stroke: #A80036; stroke-width: 1.0;"/><polygon fill="#A80036" points="1473.06,269.979,1466.0815,263.0291,1468.3896,268.1937,1463.225,270.5017,1473.06,269.979" style="stroke: #A80036; stroke-width: 1.0;"/><text fill="#000000" font-family="sans-serif" font-size="13" lengthAdjust="spacingAndGlyphs" textLength="109" x="1185" y="182.0669">CounterpartyRisk</text><text fill="#000000" font-family="sans-serif" font-size="13" lengthAdjust="spacingAndGlyphs" textLength="24" x="1433.9009" y="259.02">0..1</text><!--link Role to Entry--><path d="M397.398,65.817 C615.806,70.756 1181.18,86.108 1367,116 C1409.8,122.885 1422.16,122.751 1461,142 C1471.82,147.361 1482.63,155.414 1491.05,162.444 " fill="none" id="Role-Entry" style="stroke: #A80036; stroke-width: 1.0;"/><polygon fill="#A80036" points="1494.98,165.797,1490.7256,156.9144,1491.1749,162.5534,1485.5359,163.0027,1494.98,165.797" style="stroke: #A80036; stroke-width: 1.0;"/><text fill="#000000" font-family="sans-serif" font-size="13" lengthAdjust="spacingAndGlyphs" textLength="33" x="1444" y="129.0669">Entry</text><text fill="#000000" font-family="sans-serif" font-size="13" lengthAdjust="spacingAndGlyphs" textLength="8" x="1480.3421" y="155.0332">1</text><!--link InformationPartyRole to GenericIdentification--><path d="M349.611,190.013 C398.879,208.976 499.502,247.706 552.163,267.976 " fill="none" id="InformationPartyRole-GenericIdentification" style="stroke: #A80036; stroke-width: 1.0;"/><polygon fill="#A80036" points="557.106,269.879,550.1445,262.9121,552.44,268.0823,547.2698,270.3777,557.106,269.879" style="stroke: #A80036; stroke-width: 1.0;"/><text fill="#000000" font-family="sans-serif" font-size="13" lengthAdjust="spacingAndGlyphs" textLength="130" x="471" y="233.0669">GenericIdentification</text><text fill="#000000" font-family="sans-serif" font-size="13" lengthAdjust="spacingAndGlyphs" textLength="7" x="537.5409" y="258.8856">*</text><!--link InformationPartyRole to HaircutValuation--><path d="M389.089,179.538 C555.809,181.688 980.325,192.421 1110,246 C1248.02,303.027 1277.55,370.232 1310,516 C1311.74,523.8089 1312.6,526.4352 1310,534 C1306.68,543.6535 1300.05,552.7774 1293.68,559.9564 " fill="none" id="InformationPartyRole-HaircutValuation" style="stroke: #A80036; stroke-width: 1.0;"/><polygon fill="#A80036" points="1290.19,563.7357,1299.235,559.8384,1293.5826,560.0627,1293.3582,554.4103,1290.19,563.7357" style="stroke: #A80036; stroke-width: 1.0;"/><text fill="#000000" font-family="sans-serif" font-size="13" lengthAdjust="spacingAndGlyphs" textLength="106" x="1277" y="390.0669">HaircutValuation</text><text fill="#000000" font-family="sans-serif" font-size="13" lengthAdjust="spacingAndGlyphs" textLength="7" x="1284.7373" y="552.9516">*</text><!--link InformationPartyRole to SecuritiesPricing--><path d="M389.31,179.982 C572.639,184.216 1068.29,206.69 1167,326 C1237.31,410.984 1035.2,450 929.251,464.237 " fill="none" id="InformationPartyRole-SecuritiesPricing" style="stroke: #A80036; stroke-width: 1.0;"/><polygon fill="#A80036" points="924.28,464.897,933.7276,467.6796,929.2366,464.2399,932.6763,459.749,924.28,464.897" style="stroke: #A80036; stroke-width: 1.0;"/><text fill="#000000" font-family="sans-serif" font-size="13" lengthAdjust="spacingAndGlyphs" textLength="31" x="1180" y="339.0669">Price</text><text fill="#000000" font-family="sans-serif" font-size="13" lengthAdjust="spacingAndGlyphs" textLength="7" x="932.1786" y="458.8783">*</text><!--link InformationPartyRole to Scheme--><path d="M282.623,190.102 C255.944,200.049 222.35,217.552 206,246 C190.055,273.744 185.431,293.487 206,318 C250.339,370.841 469.252,382.024 553.175,384.378 " fill="none" id="InformationPartyRole-Scheme" style="stroke: #A80036; stroke-width: 1.0;"/><polygon fill="#A80036" points="558.266,384.514,549.3767,380.2737,553.2678,384.3797,549.1618,388.2708,558.266,384.514" style="stroke: #A80036; stroke-width: 1.0;"/><text fill="#000000" font-family="sans-serif" font-size="13" lengthAdjust="spacingAndGlyphs" textLength="53" x="207" y="286.0669">Scheme</text><text fill="#000000" font-family="sans-serif" font-size="13" lengthAdjust="spacingAndGlyphs" textLength="24" x="526.4366" y="378.9405">0..1</text><!--link InformationPartyRole to Quote--><path d="M252.65,187.169 C160.006,200.183 6,229.553 6,281 C6,281 6,281 6,473 C6,569.8108 372.436,575.5708 476.021,575.265 " fill="none" id="InformationPartyRole-Quote" style="stroke: #A80036; stroke-width: 1.0;"/><polygon fill="#A80036" points="481.325,575.2433,472.3091,571.2793,476.325,575.2633,472.3411,579.2793,481.325,575.2433" style="stroke: #A80036; stroke-width: 1.0;"/><text fill="#000000" font-family="sans-serif" font-size="13" lengthAdjust="spacingAndGlyphs" textLength="39" x="7" y="390.0669">Quote</text><text fill="#000000" font-family="sans-serif" font-size="13" lengthAdjust="spacingAndGlyphs" textLength="24" x="449.3999" y="569.5039">0..1</text><!--link InformationPartyRole to TreasuryTrade--><path d="M282.774,190.069 C209.294,213.297 60.0846,271.06 113,344 C190.817,451.265 361.763,469.641 448.806,471.716 " fill="none" id="InformationPartyRole-TreasuryTrade" style="stroke: #A80036; stroke-width: 1.0;"/><polygon fill="#A80036" points="453.906,471.821,444.9914,467.6341,448.9071,471.7167,444.8245,475.6324,453.906,471.821" style="stroke: #A80036; stroke-width: 1.0;"/><text fill="#000000" font-family="sans-serif" font-size="13" lengthAdjust="spacingAndGlyphs" textLength="91" x="114" y="339.0669">TreasuryTrade</text><text fill="#000000" font-family="sans-serif" font-size="13" lengthAdjust="spacingAndGlyphs" textLength="7" x="438.8387" y="466.7327">*</text><!--link GenericIdentification to Scheme--><path d="M586,294.306 C586,312.399 586,347.936 586,368.75 " fill="none" id="GenericIdentification-Scheme" style="stroke: #A80036; stroke-width: 1.0;"/><polygon fill="#A80036" points="586,373.954,590,364.954,586,368.954,582,364.954,586,373.954" style="stroke: #A80036; stroke-width: 1.0;"/><text fill="#000000" font-family="sans-serif" font-size="13" lengthAdjust="spacingAndGlyphs" textLength="53" x="587" y="339.0669">Scheme</text><text fill="#000000" font-family="sans-serif" font-size="13" lengthAdjust="spacingAndGlyphs" textLength="8" x="575.1094" y="362.9864">1</text><!--link SecuritiesPricing to Quote--><path d="M865.251,484.171 C859.863,498.337 848.492,522.3204 830,534 C780.143,565.4902 598.568,572.8508 529.717,574.5235 " fill="none" id="SecuritiesPricing-Quote" style="stroke: #A80036; stroke-width: 1.0;"/><polygon fill="#A80036" points="524.57,574.643,533.6602,578.4336,529.5687,574.5273,533.475,570.4358,524.57,574.643" style="stroke: #A80036; stroke-width: 1.0;"/><text fill="#000000" font-family="sans-serif" font-size="13" lengthAdjust="spacingAndGlyphs" textLength="218" x="850" y="529.0669">PreviousClosingPriceRelatedQuote</text><text fill="#000000" font-family="sans-serif" font-size="13" lengthAdjust="spacingAndGlyphs" textLength="24" x="533.4576" y="588.3829">0..1</text><!--link SecuritiesPricing to Quote--><path d="M924.31,472.747 C1000.842,474.17 1124.62,483.932 1078,534 C1040.27,574.5138 638.214,575.6229 529.801,575.178 " fill="none" id="SecuritiesPricing-Quote" style="stroke: #A80036; stroke-width: 1.0;"/><polygon fill="#A80036" points="524.565,575.1543,533.5466,579.1954,529.5649,575.1772,533.5832,571.1955,524.565,575.1543" style="stroke: #A80036; stroke-width: 1.0;"/><text fill="#000000" font-family="sans-serif" font-size="13" lengthAdjust="spacingAndGlyphs" textLength="186" x="1089" y="529.0669">RequestedPriceRelatedQuote</text><text fill="#000000" font-family="sans-serif" font-size="13" lengthAdjust="spacingAndGlyphs" textLength="24" x="533.4512" y="568.7316">0..1</text><!--link SecuritiesPricing to Quote--><path d="M813.976,480.736 C758.709,488.339 671.064,499.943 595,508 C584.466,509.116 507.169,508.202 500,516 C489.583,527.3316 492.41,545.6542 496.534,558.8765 " fill="none" id="SecuritiesPricing-Quote" style="stroke: #A80036; stroke-width: 1.0;"/><polygon fill="#A80036" points="498.217,563.8441,499.1181,554.0366,496.6129,559.1084,491.541,556.6032,498.217,563.8441" style="stroke: #A80036; stroke-width: 1.0;"/><text fill="#000000" font-family="sans-serif" font-size="13" lengthAdjust="spacingAndGlyphs" textLength="118" x="501" y="529.0669">PriceRelatedQuote</text><text fill="#000000" font-family="sans-serif" font-size="13" lengthAdjust="spacingAndGlyphs" textLength="24" x="500.526" y="552.8387">0..1</text><!--link SecuritiesPricing to Quote--><path d="M813.675,479.403 C770.116,485.58 708.388,496.877 657,516 C641.707,521.6911 639.911,527.3716 625,534 C593.033,548.2104 554.536,560.3743 529.452,567.6799 " fill="none" id="SecuritiesPricing-Quote" style="stroke: #A80036; stroke-width: 1.0;"/><polygon fill="#A80036" points="524.62,569.0754,534.3764,570.4214,529.4237,567.6882,532.1569,562.7355,524.62,569.0754" style="stroke: #A80036; stroke-width: 1.0;"/><text fill="#000000" font-family="sans-serif" font-size="13" lengthAdjust="spacingAndGlyphs" textLength="162" x="658" y="529.0669">MarketPriceRelatedQuote</text><text fill="#000000" font-family="sans-serif" font-size="13" lengthAdjust="spacingAndGlyphs" textLength="24" x="533.521" y="561.019">0..1</text></g></svg>