<?xml version="1.0" encoding="UTF-8" standalone="no"?><svg xmlns="http://www.w3.org/2000/svg" xmlns:xlink="http://www.w3.org/1999/xlink" contentScriptType="application/ecmascript" contentStyleType="text/css" height="530px" preserveAspectRatio="none" style="width:1828px;height:530px;" version="1.1" viewBox="0 0 1828 530" width="1828px" zoomAndPan="magnify"><defs><filter height="300%" id="fzevowvsio6t3" width="300%" x="-1" y="-1"><feGaussianBlur result="blurOut" stdDeviation="2.0"/><feColorMatrix in="blurOut" result="blurOut2" type="matrix" values="0 0 0 0 0 0 0 0 0 0 0 0 0 0 0 0 0 0 .4 0"/><feOffset dx="4.0" dy="4.0" in="blurOut2" result="blurOut3"/><feBlend in="SourceGraphic" in2="blurOut3" mode="normal"/></filter></defs><g><!--cluster ##23022--><!--cluster ##23037--><!--cluster ##23046--><!--cluster ##23051--><!--class Role--><a target="_top" xlink:actuate="onRequest" xlink:href="../Role.html" xlink:show="new" xlink:title="Role of a party in an activity." xlink:type="simple"><rect fill="#FEFEEE" filter="url(#fzevowvsio6t3)" height="44.7734" id="Role" style="stroke: #A80036; stroke-width: 1.5;" width="175" x="279.75" y="40.5"/><rect fill="#FEFEEE" height="23.9688" style="stroke: #A80036; stroke-width: 1.5;" width="175" x="279.75" y="40.5"/><text fill="#000000" font-family="sans-serif" font-size="12" lengthAdjust="spacingAndGlyphs" textLength="27" x="353.75" y="56.6387">Role</text><line style="stroke: #A80036; stroke-width: 1.5;" x1="280.75" x2="453.75" y1="64.4688" y2="64.4688"/><ellipse cx="290.75" cy="76.3711" fill="#84BE84" rx="3" ry="3" style="stroke: #038048; stroke-width: 1.0;"/><text fill="#000000" font-family="sans-serif" font-size="11" lengthAdjust="spacingAndGlyphs" textLength="53" x="299.75" y="78.6792">PartyRole</text><text fill="#000000" font-family="sans-serif" font-size="11" font-style="italic" lengthAdjust="spacingAndGlyphs" textLength="92" x="356.75" y="78.6792">(PartyRoleCode)</text></a><!--class SettlementPartyRole--><a target="_top" xlink:actuate="onRequest" xlink:href="../SettlementPartyRole.html" xlink:show="new" xlink:title="Role played by a party in a settlement process." xlink:type="simple"><rect fill="#FEFEEE" filter="url(#fzevowvsio6t3)" height="23.9688" id="SettlementPartyRole" style="stroke: #A80036; stroke-width: 1.5;" width="134" x="316" y="166"/><rect fill="#FEFEEE" height="23.9688" style="stroke: #A80036; stroke-width: 1.5;" width="134" x="316" y="166"/><text fill="#000000" font-family="sans-serif" font-size="12" lengthAdjust="spacingAndGlyphs" textLength="128" x="319" y="182.1387">SettlementPartyRole</text></a><!--class SecuritiesSettlementPartyRole--><a target="_top" xlink:actuate="onRequest" xlink:href="../SecuritiesSettlementPartyRole.html" xlink:show="new" xlink:title="Role played by a party in the context of the settlement of securities." xlink:type="simple"><rect fill="#FEFEEE" filter="url(#fzevowvsio6t3)" height="57.5781" id="SecuritiesSettlementPartyRole" style="stroke: #A80036; stroke-width: 1.5;" width="249" x="205.75" y="268"/><rect fill="#FEFEEE" height="23.9688" style="stroke: #A80036; stroke-width: 1.5;" width="249" x="205.75" y="268"/><text fill="#000000" font-family="sans-serif" font-size="12" lengthAdjust="spacingAndGlyphs" textLength="190" x="235.25" y="284.1387">SecuritiesSettlementPartyRole</text><line style="stroke: #A80036; stroke-width: 1.5;" x1="206.75" x2="453.75" y1="291.9688" y2="291.9688"/><ellipse cx="216.75" cy="303.8711" fill="#84BE84" rx="3" ry="3" style="stroke: #038048; stroke-width: 1.0;"/><text fill="#000000" font-family="sans-serif" font-size="11" lengthAdjust="spacingAndGlyphs" textLength="91" x="225.75" y="306.1792">SettlingCapacity</text><text fill="#000000" font-family="sans-serif" font-size="11" font-style="italic" lengthAdjust="spacingAndGlyphs" textLength="128" x="320.75" y="306.1792">(SettlingCapacityCode)</text><ellipse cx="216.75" cy="316.6758" fill="#84BE84" rx="3" ry="3" style="stroke: #038048; stroke-width: 1.0;"/><text fill="#000000" font-family="sans-serif" font-size="11" lengthAdjust="spacingAndGlyphs" textLength="68" x="225.75" y="318.9839">TaxCapacity</text><text fill="#000000" font-family="sans-serif" font-size="11" font-style="italic" lengthAdjust="spacingAndGlyphs" textLength="101" x="297.75" y="318.9839">(TaxLiabilityCode)</text></a><!--class ReceivingSettlementParty--><a target="_top" xlink:actuate="onRequest" xlink:href="../ReceivingSettlementParty.html" xlink:show="new" xlink:title="Party that receives securities as part of a chain of settlement parties or as ultimate party." xlink:type="simple"><rect fill="#FEFEEE" filter="url(#fzevowvsio6t3)" height="23.9688" id="ReceivingSettlementParty" style="stroke: #A80036; stroke-width: 1.5;" width="166" x="93" y="406"/><rect fill="#FEFEEE" height="23.9688" style="stroke: #A80036; stroke-width: 1.5;" width="166" x="93" y="406"/><text fill="#000000" font-family="sans-serif" font-size="12" lengthAdjust="spacingAndGlyphs" textLength="160" x="96" y="422.1387">ReceivingSettlementParty</text></a><!--class ReceivingDepositoryRole--><a target="_top" xlink:actuate="onRequest" xlink:href="../ReceivingDepositoryRole.html" xlink:show="new" xlink:title="Organisation holding securities to enable book entry transfer of securities. These organisations may also carry out centralised comparison and transaction processing such as clearing and settlement of securities. The physical securities may be immobilised by the depository, or securities may be dematerialised (so that they exist only as electronic records). Also responsible for compliance of the portfolio with legal ratios etc. The depository may delegate custody to another entity (custodian)." xlink:type="simple"><rect fill="#FEFECE" filter="url(#fzevowvsio6t3)" height="23.9688" id="ReceivingDepositoryRole" style="stroke: #A80036; stroke-width: 1.5;" width="159" x="96.75" y="496"/><rect fill="#FEFECE" height="23.9688" style="stroke: #A80036; stroke-width: 1.5;" width="159" x="96.75" y="496"/><text fill="#000000" font-family="sans-serif" font-size="12" lengthAdjust="spacingAndGlyphs" textLength="153" x="99.75" y="512.1387">ReceivingDepositoryRole</text></a><!--class RolePlayer--><a target="_top" xlink:actuate="onRequest" xlink:href="../RolePlayer.html" xlink:show="new" xlink:title="Type of entity that plays a specific role in a specific context." xlink:type="simple"><rect fill="#EEEEEE" filter="url(#fzevowvsio6t3)" height="23.9688" id="RolePlayer" style="stroke: #A80036; stroke-width: 1.5;" width="71" x="1403.75" y="496"/><rect fill="#EEEEEE" height="23.9688" style="stroke: #A80036; stroke-width: 1.5;" width="71" x="1403.75" y="496"/><text fill="#000000" font-family="sans-serif" font-size="12" lengthAdjust="spacingAndGlyphs" textLength="65" x="1406.75" y="512.1387">RolePlayer</text></a><!--class ContactPersonRole--><a target="_top" xlink:actuate="onRequest" xlink:href="../ContactPersonRole.html" xlink:show="new" xlink:title="Person to be contacted in a given organisation. In the corporate action domain (including meeting notifications), it is the contact person at the party organising the meeting, at the issuer or at an intermediary." xlink:type="simple"><rect fill="#EEEEEE" filter="url(#fzevowvsio6t3)" height="23.9688" id="ContactPersonRole" style="stroke: #A80036; stroke-width: 1.5;" width="126" x="1356" y="406"/><rect fill="#EEEEEE" height="23.9688" style="stroke: #A80036; stroke-width: 1.5;" width="126" x="1356" y="406"/><text fill="#000000" font-family="sans-serif" font-size="12" lengthAdjust="spacingAndGlyphs" textLength="120" x="1359" y="422.1387">ContactPersonRole</text></a><!--class CounterpartyRisk--><a target="_top" xlink:actuate="onRequest" xlink:href="../CounterpartyRisk.html" xlink:show="new" xlink:title="Calculation of the exposure amount that one party has vis-a-vis one counterparty or a central system, based on its credit risk." xlink:type="simple"><rect fill="#EEEEEE" filter="url(#fzevowvsio6t3)" height="23.9688" id="CounterpartyRisk" style="stroke: #A80036; stroke-width: 1.5;" width="113" x="1368.75" y="285"/><rect fill="#EEEEEE" height="23.9688" style="stroke: #A80036; stroke-width: 1.5;" width="113" x="1368.75" y="285"/><text fill="#000000" font-family="sans-serif" font-size="12" lengthAdjust="spacingAndGlyphs" textLength="107" x="1371.75" y="301.1387">CounterpartyRisk</text></a><!--class Entry--><a target="_top" xlink:actuate="onRequest" xlink:href="../Entry.html" xlink:show="new" xlink:title="Posting to an account that results in an increase or decrease to a balance." xlink:type="simple"><rect fill="#EEEEEE" filter="url(#fzevowvsio6t3)" height="23.9688" id="Entry" style="stroke: #A80036; stroke-width: 1.5;" width="38" x="1356" y="166"/><rect fill="#EEEEEE" height="23.9688" style="stroke: #A80036; stroke-width: 1.5;" width="38" x="1356" y="166"/><text fill="#000000" font-family="sans-serif" font-size="12" lengthAdjust="spacingAndGlyphs" textLength="32" x="1359" y="182.1387">Entry</text></a><!--class Account--><a target="_top" xlink:actuate="onRequest" xlink:href="../Account.html" xlink:show="new" xlink:title="Record of transactions in specific types of assets, maintained by a servicing party on behalf of one or more owning parties. Business relationship between an account servicer and one or more account owners." xlink:type="simple"><rect fill="#EEEEEE" filter="url(#fzevowvsio6t3)" height="23.9688" id="Account" style="stroke: #A80036; stroke-width: 1.5;" width="57" x="936.75" y="406"/><rect fill="#EEEEEE" height="23.9688" style="stroke: #A80036; stroke-width: 1.5;" width="57" x="936.75" y="406"/><text fill="#000000" font-family="sans-serif" font-size="12" lengthAdjust="spacingAndGlyphs" textLength="51" x="939.75" y="422.1387">Account</text></a><!--class Settlement--><a target="_top" xlink:actuate="onRequest" xlink:href="../Settlement.html" xlink:show="new" xlink:title="Process which consists in transferring the proceeds related to a trade from one party to the next one." xlink:type="simple"><rect fill="#EEEEEE" filter="url(#fzevowvsio6t3)" height="23.9688" id="Settlement" style="stroke: #A80036; stroke-width: 1.5;" width="75" x="935.75" y="285"/><rect fill="#EEEEEE" height="23.9688" style="stroke: #A80036; stroke-width: 1.5;" width="75" x="935.75" y="285"/><text fill="#000000" font-family="sans-serif" font-size="12" lengthAdjust="spacingAndGlyphs" textLength="69" x="938.75" y="301.1387">Settlement</text></a><!--class SecuritiesSettlement--><a target="_top" xlink:actuate="onRequest" xlink:href="../SecuritiesSettlement.html" xlink:show="new" xlink:title="Settlement of the securities in a securities transaction, that is, the instruction to deliver or receive securities, involving the payment of an amount of money or not." xlink:type="simple"><rect fill="#EEEEEE" filter="url(#fzevowvsio6t3)" height="23.9688" id="SecuritiesSettlement" style="stroke: #A80036; stroke-width: 1.5;" width="137" x="549.75" y="496"/><rect fill="#EEEEEE" height="23.9688" style="stroke: #A80036; stroke-width: 1.5;" width="137" x="549.75" y="496"/><text fill="#000000" font-family="sans-serif" font-size="12" lengthAdjust="spacingAndGlyphs" textLength="131" x="552.75" y="512.1387">SecuritiesSettlement</text></a><!--class SecuritiesSettlementSystem--><a target="_top" xlink:actuate="onRequest" xlink:href="../SecuritiesSettlementSystem.html" xlink:show="new" xlink:title="Specifies the system used in a settlement process." xlink:type="simple"><rect fill="#EEEEEE" filter="url(#fzevowvsio6t3)" height="23.9688" id="SecuritiesSettlementSystem" style="stroke: #A80036; stroke-width: 1.5;" width="182" x="511" y="406"/><rect fill="#EEEEEE" height="23.9688" style="stroke: #A80036; stroke-width: 1.5;" width="182" x="511" y="406"/><text fill="#000000" font-family="sans-serif" font-size="12" lengthAdjust="spacingAndGlyphs" textLength="176" x="514" y="422.1387">SecuritiesSettlementSystem</text></a><!--entity ##23056--><!--entity ##23058--><!--link Role to SettlementPartyRole--><path d="M372.884,105.559 C375.943,127.159 379.446,151.898 381.423,165.865 " fill="none" id="Role-SettlementPartyRole" style="stroke: #A80036; stroke-width: 1.0;"/><polygon fill="none" points="365.92,106.304,370.047,85.52,379.782,104.342,365.92,106.304" style="stroke: #A80036; stroke-width: 1.0;"/><!--link SettlementPartyRole to SecuritiesSettlementPartyRole--><path d="M354.678,204.413 C350.576,209.234 346.802,214.502 344,220 C336.507,234.703 332.983,252.822 331.343,267.68 " fill="none" id="SettlementPartyRole-SecuritiesSettlementPartyRole" style="stroke: #A80036; stroke-width: 1.0;"/><polygon fill="none" points="349.877,199.314,368.942,190.068,359.804,209.186,349.877,199.314" style="stroke: #A80036; stroke-width: 1.0;"/><!--link SecuritiesSettlementPartyRole to ReceivingSettlementParty--><path d="M277.634,338.465 C246.904,362.21 210.324,390.477 190.507,405.79 " fill="none" id="SecuritiesSettlementPartyRole-ReceivingSettlementParty" style="stroke: #A80036; stroke-width: 1.0;"/><polygon fill="none" points="273.398,332.891,293.504,326.201,281.959,343.969,273.398,332.891" style="stroke: #A80036; stroke-width: 1.0;"/><!--link ReceivingSettlementParty to ReceivingDepositoryRole--><path d="M176,450.334 C176,466.2321 176,484.5426 176,495.9452 " fill="none" id="ReceivingSettlementParty-ReceivingDepositoryRole" style="stroke: #A80036; stroke-width: 1.0;"/><polygon fill="none" points="169,450.145,176,430.145,183,450.145,169,450.145" style="stroke: #A80036; stroke-width: 1.0;"/><!--link ContactPersonRole to RolePlayer--><!--link CounterpartyRisk to ContactPersonRole--><!--link Entry to CounterpartyRisk--><!--link Settlement to Account--><!--link SecuritiesSettlementSystem to SecuritiesSettlement--><!--link Role to RolePlayer--><path d="M454.546,65.956 C685.163,71.434 1305.58,88.358 1509,116 C1629.62,132.39 1776,55.276 1776,177 C1776,177 1776,177 1776,419 C1776,479.6217 1569.27,499.2654 1479.64,504.9332 " fill="none" id="Role-RolePlayer" style="stroke: #A80036; stroke-width: 1.0;"/><polygon fill="#A80036" points="1474.43,505.2555,1483.6636,508.6819,1479.4201,504.9412,1483.1608,500.6977,1474.43,505.2555" style="stroke: #A80036; stroke-width: 1.0;"/><text fill="#000000" font-family="sans-serif" font-size="13" lengthAdjust="spacingAndGlyphs" textLength="39" x="1777" y="301.0669">Player</text><text fill="#000000" font-family="sans-serif" font-size="13" lengthAdjust="spacingAndGlyphs" textLength="7" x="1482.8913" y="498.8806">*</text><!--link Role to ContactPersonRole--><path d="M454.703,66.346 C723.452,73.976 1519.54,100.046 1555,142 C1627.57,227.854 1488.03,359.074 1436.81,402.493 " fill="none" id="Role-ContactPersonRole" style="stroke: #A80036; stroke-width: 1.0;"/><polygon fill="#A80036" points="1432.7,405.943,1442.1584,403.1972,1436.5217,402.719,1436.9999,397.0824,1432.7,405.943" style="stroke: #A80036; stroke-width: 1.0;"/><text fill="#000000" font-family="sans-serif" font-size="13" lengthAdjust="spacingAndGlyphs" textLength="121" x="1573" y="233.0669">ContactPersonRole</text><text fill="#000000" font-family="sans-serif" font-size="13" lengthAdjust="spacingAndGlyphs" textLength="8" x="1426.6906" y="394.9716">1</text><!--link Role to CounterpartyRisk--><path d="M454.515,64.196 C693.42,65.601 1343.47,75.55 1411,142 C1448.08,178.49 1437.05,247.982 1429.49,279.602 " fill="none" id="Role-CounterpartyRisk" style="stroke: #A80036; stroke-width: 1.0;"/><polygon fill="#A80036" points="1428.23,284.695,1434.2805,276.9238,1429.4346,279.8423,1426.5161,274.9964,1428.23,284.695" style="stroke: #A80036; stroke-width: 1.0;"/><text fill="#000000" font-family="sans-serif" font-size="13" lengthAdjust="spacingAndGlyphs" textLength="109" x="1436" y="182.0669">CounterpartyRisk</text><text fill="#000000" font-family="sans-serif" font-size="13" lengthAdjust="spacingAndGlyphs" textLength="24" x="1399.9109" y="273.8974">0..1</text><!--link Role to Entry--><path d="M454.252,73.781 C671.503,98.136 1228.01,160.522 1350.79,174.286 " fill="none" id="Role-Entry" style="stroke: #A80036; stroke-width: 1.0;"/><polygon fill="#A80036" points="1355.98,174.867,1347.4818,169.889,1351.0111,174.3098,1346.5903,177.8392,1355.98,174.867" style="stroke: #A80036; stroke-width: 1.0;"/><text fill="#000000" font-family="sans-serif" font-size="13" lengthAdjust="spacingAndGlyphs" textLength="33" x="992" y="129.0669">Entry</text><text fill="#000000" font-family="sans-serif" font-size="13" lengthAdjust="spacingAndGlyphs" textLength="8" x="1339.9241" y="167.5408">1</text><!--link SettlementPartyRole to Account--><path d="M450.173,182.539 C607.577,191.525 989.808,217.636 1027,261 C1064.04,304.19 1008.53,372.235 980.083,402.105 " fill="none" id="SettlementPartyRole-Account" style="stroke: #A80036; stroke-width: 1.0;"/><polygon fill="#A80036" points="976.426,405.891,985.5548,402.1944,979.8988,402.2939,979.7994,396.6379,976.426,405.891" style="stroke: #A80036; stroke-width: 1.0;"/><text fill="#000000" font-family="sans-serif" font-size="13" lengthAdjust="spacingAndGlyphs" textLength="124" x="1041" y="301.0669">SettlementAccount</text><text fill="#000000" font-family="sans-serif" font-size="13" lengthAdjust="spacingAndGlyphs" textLength="8" x="969.549" y="394.9017">1</text><!--link SettlementPartyRole to Settlement--><path d="M438.506,190.007 C555.576,213.223 825.608,266.771 930.372,287.547 " fill="none" id="SettlementPartyRole-Settlement" style="stroke: #A80036; stroke-width: 1.0;"/><polygon fill="#A80036" points="935.535,288.57,927.4853,282.8953,930.6306,287.5971,925.9287,290.7424,935.535,288.57" style="stroke: #A80036; stroke-width: 1.0;"/><text fill="#000000" font-family="sans-serif" font-size="13" lengthAdjust="spacingAndGlyphs" textLength="72" x="679" y="233.0669">Settlement</text><text fill="#000000" font-family="sans-serif" font-size="13" lengthAdjust="spacingAndGlyphs" textLength="8" x="919.7273" y="281.9517">1</text><!--link SecuritiesSettlementPartyRole to SecuritiesSettlement--><path d="M454.655,306.773 C544.145,315.109 655.479,330.288 694,356 C731.436,380.988 732.844,417.218 710,456 C699.405,473.9875 679.928,486.08 661.614,493.9555 " fill="none" id="SecuritiesSettlementPartyRole-SecuritiesSettlement" style="stroke: #A80036; stroke-width: 1.0;"/><polygon fill="#A80036" points="656.989,495.8679,666.8345,496.1265,661.6098,493.9579,663.7784,488.7332,656.989,495.8679" style="stroke: #A80036; stroke-width: 1.0;"/><text fill="#000000" font-family="sans-serif" font-size="13" lengthAdjust="spacingAndGlyphs" textLength="135" x="727" y="422.0669">SecuritiesSettlement</text><text fill="#000000" font-family="sans-serif" font-size="13" lengthAdjust="spacingAndGlyphs" textLength="7" x="660.7587" y="484.8707">*</text><!--link SecuritiesSettlementPartyRole to SecuritiesSettlementSystem--><path d="M394.116,326.051 C450.223,350.598 529.237,385.166 571.879,403.822 " fill="none" id="SecuritiesSettlementPartyRole-SecuritiesSettlementSystem" style="stroke: #A80036; stroke-width: 1.0;"/><polygon fill="#A80036" points="576.643,405.906,570.0007,398.6341,572.0622,403.902,566.7943,405.9634,576.643,405.906" style="stroke: #A80036; stroke-width: 1.0;"/><text fill="#000000" font-family="sans-serif" font-size="13" lengthAdjust="spacingAndGlyphs" textLength="184" x="500" y="369.0669">SecuritiesSettlementSystem</text><text fill="#000000" font-family="sans-serif" font-size="13" lengthAdjust="spacingAndGlyphs" textLength="7" x="558.3797" y="394.9219">*</text><!--link ReceivingSettlementParty to ReceivingSettlementParty--><path d="M259.25,409.527 C279.21,410.189 294,413.014 294,418 C294,422.558 281.643,425.309 264.276,426.254 " fill="none" id="ReceivingSettlementParty-ReceivingSettlementParty" style="stroke: #A80036; stroke-width: 1.0;"/><polygon fill="#A80036" points="259.25,426.473,268.4162,430.0758,264.2452,426.2545,268.0666,422.0834,259.25,426.473" style="stroke: #A80036; stroke-width: 1.0;"/><text fill="#000000" font-family="sans-serif" font-size="13" lengthAdjust="spacingAndGlyphs" textLength="165" x="300" y="422.0669">ReceivingSettlementParty</text><text fill="#000000" font-family="sans-serif" font-size="13" lengthAdjust="spacingAndGlyphs" textLength="8" x="267.0207" y="422.5448">1</text><!--link Entry to Account--><path d="M1363.77,190.304 C1333.22,220.916 1248.69,304.557 1216,326 C1171.74,355.031 1156.64,355.629 1107,374 C1070.35,387.563 1027.26,400.153 998.244,408.16 " fill="none" id="Entry-Account" style="stroke: #A80036; stroke-width: 1.0;"/><polygon fill="#A80036" points="993.353,409.503,1003.091,410.9764,998.1744,408.1787,1000.9722,403.2621,993.353,409.503" style="stroke: #A80036; stroke-width: 1.0;"/><text fill="#000000" font-family="sans-serif" font-size="13" lengthAdjust="spacingAndGlyphs" textLength="52" x="1291" y="301.0669">Account</text><text fill="#000000" font-family="sans-serif" font-size="13" lengthAdjust="spacingAndGlyphs" textLength="7" x="1001.8463" y="401.024">*</text><!--link Account to Account--><path d="M993.508,409.984 C1011.18,408.051 1028,410.723 1028,418 C1028,424.538 1014.42,427.359 998.85,426.463 " fill="none" id="Account-Account" style="stroke: #A80036; stroke-width: 1.0;"/><polygon fill="#A80036" points="993.508,426.016,1002.1443,430.7504,998.4907,426.4317,1002.8094,422.7781,993.508,426.016" style="stroke: #A80036; stroke-width: 1.0;"/><text fill="#000000" font-family="sans-serif" font-size="13" lengthAdjust="spacingAndGlyphs" textLength="94" x="1034" y="422.0669">ParentAccount</text><text fill="#000000" font-family="sans-serif" font-size="13" lengthAdjust="spacingAndGlyphs" textLength="8" x="1001.7741" y="421.9799">1</text></g></svg>