<?xml version="1.0" encoding="UTF-8" standalone="no"?><svg xmlns="http://www.w3.org/2000/svg" xmlns:xlink="http://www.w3.org/1999/xlink" contentScriptType="application/ecmascript" contentStyleType="text/css" height="782px" preserveAspectRatio="none" style="width:2002px;height:782px;" version="1.1" viewBox="0 0 2002 782" width="2002px" zoomAndPan="magnify"><defs><filter height="300%" id="fd1pf0xz4tzhu" width="300%" x="-1" y="-1"><feGaussianBlur result="blurOut" stdDeviation="2.0"/><feColorMatrix in="blurOut" result="blurOut2" type="matrix" values="0 0 0 0 0 0 0 0 0 0 0 0 0 0 0 0 0 0 .4 0"/><feOffset dx="4.0" dy="4.0" in="blurOut2" result="blurOut3"/><feBlend in="SourceGraphic" in2="blurOut3" mode="normal"/></filter></defs><g><!--cluster ##15844--><!--cluster ##15856--><!--cluster ##15869--><!--class SecuritiesTradeExecution--><a target="_top" xlink:actuate="onRequest" xlink:href="../SecuritiesTradeExecution.html" xlink:show="new" xlink:title="Transaction between two counterparties in which they agree to buy and sell a financial instrument. A trade transaction occurs with the matching of the two counterparties orders. There could be several trade transactions necessary to execute the trade." xlink:type="simple"><rect fill="#FEFEEE" filter="url(#fd1pf0xz4tzhu)" height="108.7969" id="SecuritiesTradeExecution" style="stroke: #A80036; stroke-width: 1.5;" width="280" x="237.664" y="40.5"/><rect fill="#FEFEEE" height="23.9688" style="stroke: #A80036; stroke-width: 1.5;" width="280" x="237.664" y="40.5"/><text fill="#000000" font-family="sans-serif" font-size="12" lengthAdjust="spacingAndGlyphs" textLength="159" x="298.164" y="56.6387">SecuritiesTradeExecution</text><line style="stroke: #A80036; stroke-width: 1.5;" x1="238.664" x2="516.664" y1="64.4688" y2="64.4688"/><ellipse cx="248.664" cy="76.3711" fill="#84BE84" rx="3" ry="3" style="stroke: #038048; stroke-width: 1.0;"/><text fill="#000000" font-family="sans-serif" font-size="11" lengthAdjust="spacingAndGlyphs" textLength="111" x="257.664" y="78.6792">StampDutyIndicator</text><text fill="#000000" font-family="sans-serif" font-size="11" font-style="italic" lengthAdjust="spacingAndGlyphs" textLength="92" x="372.664" y="78.6792">(YesNoIndicator)</text><ellipse cx="248.664" cy="89.1758" fill="#84BE84" rx="3" ry="3" style="stroke: #038048; stroke-width: 1.0;"/><text fill="#000000" font-family="sans-serif" font-size="11" lengthAdjust="spacingAndGlyphs" textLength="108" x="257.664" y="91.4839">ProcessingPosition</text><text fill="#000000" font-family="sans-serif" font-size="11" font-style="italic" lengthAdjust="spacingAndGlyphs" textLength="142" x="369.664" y="91.4839">(ProcessingPositionCode)</text><ellipse cx="248.664" cy="101.9805" fill="#84BE84" rx="3" ry="3" style="stroke: #038048; stroke-width: 1.0;"/><text fill="#000000" font-family="sans-serif" font-size="11" lengthAdjust="spacingAndGlyphs" textLength="81" x="257.664" y="104.2886">MarginAmount</text><text fill="#000000" font-family="sans-serif" font-size="11" font-style="italic" lengthAdjust="spacingAndGlyphs" textLength="126" x="342.664" y="104.2886">(CurrencyAndAmount)</text><ellipse cx="248.664" cy="114.7852" fill="#84BE84" rx="3" ry="3" style="stroke: #038048; stroke-width: 1.0;"/><text fill="#000000" font-family="sans-serif" font-size="11" lengthAdjust="spacingAndGlyphs" textLength="97" x="257.664" y="117.0933">OffMarketReason</text><text fill="#000000" font-family="sans-serif" font-size="11" font-style="italic" lengthAdjust="spacingAndGlyphs" textLength="92" x="358.664" y="117.0933">(OffMarketCode)</text><ellipse cx="248.664" cy="127.5898" fill="#84BE84" rx="3" ry="3" style="stroke: #038048; stroke-width: 1.0;"/><text fill="#000000" font-family="sans-serif" font-size="11" lengthAdjust="spacingAndGlyphs" textLength="122" x="257.664" y="129.8979">DealExecutionAmount</text><text fill="#000000" font-family="sans-serif" font-size="11" font-style="italic" lengthAdjust="spacingAndGlyphs" textLength="126" x="383.664" y="129.8979">(CurrencyAndAmount)</text><ellipse cx="248.664" cy="140.3945" fill="#84BE84" rx="3" ry="3" style="stroke: #038048; stroke-width: 1.0;"/><text fill="#000000" font-family="sans-serif" font-size="11" lengthAdjust="spacingAndGlyphs" textLength="81" x="257.664" y="142.7026">ReportingType</text><text fill="#000000" font-family="sans-serif" font-size="11" font-style="italic" lengthAdjust="spacingAndGlyphs" textLength="92" x="342.664" y="142.7026">(ReportingCode)</text></a><!--class InvestmentFundOrderExecution--><a target="_top" xlink:actuate="onRequest" xlink:href="../InvestmentFundOrderExecution.html" xlink:show="new" xlink:title="Creation/cancellation of investment units on the books of the fund or its designated agent, as a result of executing an investment fund order." xlink:type="simple"><rect fill="#FEFEEE" filter="url(#fd1pf0xz4tzhu)" height="185.625" id="InvestmentFundOrderExecution" style="stroke: #A80036; stroke-width: 1.5;" width="308" x="209.664" y="228"/><rect fill="#FEFEEE" height="23.9688" style="stroke: #A80036; stroke-width: 1.5;" width="308" x="209.664" y="228"/><text fill="#000000" font-family="sans-serif" font-size="12" lengthAdjust="spacingAndGlyphs" textLength="196" x="265.664" y="244.1387">InvestmentFundOrderExecution</text><line style="stroke: #A80036; stroke-width: 1.5;" x1="210.664" x2="516.664" y1="251.9688" y2="251.9688"/><ellipse cx="220.664" cy="263.8711" fill="#84BE84" rx="3" ry="3" style="stroke: #038048; stroke-width: 1.0;"/><text fill="#000000" font-family="sans-serif" font-size="11" lengthAdjust="spacingAndGlyphs" textLength="201" x="229.664" y="266.1792">NonStandardSettlementInformation</text><text fill="#000000" font-family="sans-serif" font-size="11" font-style="italic" lengthAdjust="spacingAndGlyphs" textLength="77" x="434.664" y="266.1792">(Max350Text)</text><ellipse cx="220.664" cy="276.6758" fill="#84BE84" rx="3" ry="3" style="stroke: #038048; stroke-width: 1.0;"/><text fill="#000000" font-family="sans-serif" font-size="11" lengthAdjust="spacingAndGlyphs" textLength="97" x="229.664" y="278.9839">DealIdentification</text><text fill="#000000" font-family="sans-serif" font-size="11" font-style="italic" lengthAdjust="spacingAndGlyphs" textLength="70" x="330.664" y="278.9839">(Max35Text)</text><ellipse cx="220.664" cy="289.4805" fill="#84BE84" rx="3" ry="3" style="stroke: #038048; stroke-width: 1.0;"/><text fill="#000000" font-family="sans-serif" font-size="11" lengthAdjust="spacingAndGlyphs" textLength="145" x="229.664" y="291.7886">PartiallyExecutedIndicator</text><text fill="#000000" font-family="sans-serif" font-size="11" font-style="italic" lengthAdjust="spacingAndGlyphs" textLength="92" x="378.664" y="291.7886">(YesNoIndicator)</text><ellipse cx="220.664" cy="302.2852" fill="#84BE84" rx="3" ry="3" style="stroke: #038048; stroke-width: 1.0;"/><text fill="#000000" font-family="sans-serif" font-size="11" lengthAdjust="spacingAndGlyphs" textLength="113" x="229.664" y="304.5933">InterimProfitAmount</text><text fill="#000000" font-family="sans-serif" font-size="11" font-style="italic" lengthAdjust="spacingAndGlyphs" textLength="126" x="346.664" y="304.5933">(CurrencyAndAmount)</text><ellipse cx="220.664" cy="315.0898" fill="#84BE84" rx="3" ry="3" style="stroke: #038048; stroke-width: 1.0;"/><text fill="#000000" font-family="sans-serif" font-size="11" lengthAdjust="spacingAndGlyphs" textLength="80" x="229.664" y="317.3979">BestExecution</text><text fill="#000000" font-family="sans-serif" font-size="11" font-style="italic" lengthAdjust="spacingAndGlyphs" textLength="117" x="313.664" y="317.3979">(BestExecutionCode)</text><ellipse cx="220.664" cy="327.8945" fill="#84BE84" rx="3" ry="3" style="stroke: #038048; stroke-width: 1.0;"/><text fill="#000000" font-family="sans-serif" font-size="11" lengthAdjust="spacingAndGlyphs" textLength="140" x="229.664" y="330.2026">PartialSettlementOfUnits</text><text fill="#000000" font-family="sans-serif" font-size="11" font-style="italic" lengthAdjust="spacingAndGlyphs" textLength="98" x="373.664" y="330.2026">(PercentageRate)</text><ellipse cx="220.664" cy="340.6992" fill="#84BE84" rx="3" ry="3" style="stroke: #038048; stroke-width: 1.0;"/><text fill="#000000" font-family="sans-serif" font-size="11" lengthAdjust="spacingAndGlyphs" textLength="140" x="229.664" y="343.0073">PartialSettlementOfCash</text><text fill="#000000" font-family="sans-serif" font-size="11" font-style="italic" lengthAdjust="spacingAndGlyphs" textLength="98" x="373.664" y="343.0073">(PercentageRate)</text><ellipse cx="220.664" cy="353.5039" fill="#84BE84" rx="3" ry="3" style="stroke: #038048; stroke-width: 1.0;"/><text fill="#000000" font-family="sans-serif" font-size="11" lengthAdjust="spacingAndGlyphs" textLength="61" x="229.664" y="355.812">LateReport</text><text fill="#000000" font-family="sans-serif" font-size="11" font-style="italic" lengthAdjust="spacingAndGlyphs" textLength="99" x="294.664" y="355.812">(LateReportCode)</text><ellipse cx="220.664" cy="366.3086" fill="#84BE84" rx="3" ry="3" style="stroke: #038048; stroke-width: 1.0;"/><text fill="#000000" font-family="sans-serif" font-size="11" lengthAdjust="spacingAndGlyphs" textLength="89" x="229.664" y="368.6167">SettledIndicator</text><text fill="#000000" font-family="sans-serif" font-size="11" font-style="italic" lengthAdjust="spacingAndGlyphs" textLength="92" x="322.664" y="368.6167">(YesNoIndicator)</text><ellipse cx="220.664" cy="379.1133" fill="#84BE84" rx="3" ry="3" style="stroke: #038048; stroke-width: 1.0;"/><text fill="#000000" font-family="sans-serif" font-size="11" lengthAdjust="spacingAndGlyphs" textLength="110" x="229.664" y="381.4214">RegisteredIndicator</text><text fill="#000000" font-family="sans-serif" font-size="11" font-style="italic" lengthAdjust="spacingAndGlyphs" textLength="92" x="343.664" y="381.4214">(YesNoIndicator)</text><ellipse cx="220.664" cy="391.918" fill="#84BE84" rx="3" ry="3" style="stroke: #038048; stroke-width: 1.0;"/><text fill="#000000" font-family="sans-serif" font-size="11" lengthAdjust="spacingAndGlyphs" textLength="94" x="229.664" y="394.2261">ExecutedAmount</text><text fill="#000000" font-family="sans-serif" font-size="11" font-style="italic" lengthAdjust="spacingAndGlyphs" textLength="126" x="327.664" y="394.2261">(CurrencyAndAmount)</text><ellipse cx="220.664" cy="404.7227" fill="#84BE84" rx="3" ry="3" style="stroke: #038048; stroke-width: 1.0;"/><text fill="#000000" font-family="sans-serif" font-size="11" lengthAdjust="spacingAndGlyphs" textLength="82" x="229.664" y="407.0308">SourceOfCash</text><text fill="#000000" font-family="sans-serif" font-size="11" font-style="italic" lengthAdjust="spacingAndGlyphs" textLength="117" x="315.664" y="407.0308">(SourceOfCashCode)</text></a><!--class RedemptionExecution--><a target="_top" xlink:actuate="onRequest" xlink:href="../RedemptionExecution.html" xlink:show="new" xlink:title="Execution of a redemption order." xlink:type="simple"><rect fill="#FEFECE" filter="url(#fd1pf0xz4tzhu)" height="70.3828" id="RedemptionExecution" style="stroke: #A80036; stroke-width: 1.5;" width="366" x="151.664" y="492"/><rect fill="#FEFECE" height="23.9688" style="stroke: #A80036; stroke-width: 1.5;" width="366" x="151.664" y="492"/><text fill="#000000" font-family="sans-serif" font-size="12" lengthAdjust="spacingAndGlyphs" textLength="136" x="266.664" y="508.1387">RedemptionExecution</text><line style="stroke: #A80036; stroke-width: 1.5;" x1="152.664" x2="516.664" y1="515.9688" y2="515.9688"/><ellipse cx="162.664" cy="527.8711" fill="#84BE84" rx="3" ry="3" style="stroke: #038048; stroke-width: 1.0;"/><text fill="#000000" font-family="sans-serif" font-size="11" lengthAdjust="spacingAndGlyphs" textLength="122" x="171.664" y="530.1792">RedeemedNetAmount</text><text fill="#000000" font-family="sans-serif" font-size="11" font-style="italic" lengthAdjust="spacingAndGlyphs" textLength="126" x="297.664" y="530.1792">(CurrencyAndAmount)</text><ellipse cx="162.664" cy="540.6758" fill="#84BE84" rx="3" ry="3" style="stroke: #038048; stroke-width: 1.0;"/><text fill="#000000" font-family="sans-serif" font-size="11" lengthAdjust="spacingAndGlyphs" textLength="210" x="171.664" y="542.9839">PartialRedemptionWithholdingAmount</text><text fill="#000000" font-family="sans-serif" font-size="11" font-style="italic" lengthAdjust="spacingAndGlyphs" textLength="126" x="385.664" y="542.9839">(CurrencyAndAmount)</text><ellipse cx="162.664" cy="553.4805" fill="#84BE84" rx="3" ry="3" style="stroke: #038048; stroke-width: 1.0;"/><text fill="#000000" font-family="sans-serif" font-size="11" lengthAdjust="spacingAndGlyphs" textLength="88" x="171.664" y="555.7886">SettlementDate</text><text fill="#000000" font-family="sans-serif" font-size="11" font-style="italic" lengthAdjust="spacingAndGlyphs" textLength="53" x="263.664" y="555.7886">(ISODate)</text></a><!--class SwitchExecutionRedemptionLeg--><a target="_top" xlink:actuate="onRequest" xlink:href="../SwitchExecutionRedemptionLeg.html" xlink:show="new" xlink:title="Execution of the redemption part, in a switch between investment funds or investment fund classes." xlink:type="simple"><rect fill="#FEFEEE" filter="url(#fd1pf0xz4tzhu)" height="23.9688" id="SwitchExecutionRedemptionLeg" style="stroke: #A80036; stroke-width: 1.5;" width="204" x="233.164" y="642"/><rect fill="#FEFEEE" height="23.9688" style="stroke: #A80036; stroke-width: 1.5;" width="204" x="233.164" y="642"/><text fill="#000000" font-family="sans-serif" font-size="12" lengthAdjust="spacingAndGlyphs" textLength="198" x="236.164" y="658.1387">SwitchExecutionRedemptionLeg</text></a><!--class SecuritiesSettlement--><a target="_top" xlink:actuate="onRequest" xlink:href="../SecuritiesSettlement.html" xlink:show="new" xlink:title="Settlement of the securities in a securities transaction, that is, the instruction to deliver or receive securities, involving the payment of an amount of money or not." xlink:type="simple"><rect fill="#EEEEEE" filter="url(#fd1pf0xz4tzhu)" height="23.9688" id="SecuritiesSettlement" style="stroke: #A80036; stroke-width: 1.5;" width="137" x="1024.41" y="309"/><rect fill="#EEEEEE" height="23.9688" style="stroke: #A80036; stroke-width: 1.5;" width="137" x="1024.41" y="309"/><text fill="#000000" font-family="sans-serif" font-size="12" lengthAdjust="spacingAndGlyphs" textLength="131" x="1027.41" y="325.1387">SecuritiesSettlement</text></a><!--class SecuritiesPricing--><a target="_top" xlink:actuate="onRequest" xlink:href="../SecuritiesPricing.html" xlink:show="new" xlink:title="Characteristics related to the price of the security." xlink:type="simple"><rect fill="#EEEEEE" filter="url(#fd1pf0xz4tzhu)" height="23.9688" id="SecuritiesPricing" style="stroke: #A80036; stroke-width: 1.5;" width="110" x="1132.66" y="642"/><rect fill="#EEEEEE" height="23.9688" style="stroke: #A80036; stroke-width: 1.5;" width="110" x="1132.66" y="642"/><text fill="#000000" font-family="sans-serif" font-size="12" lengthAdjust="spacingAndGlyphs" textLength="104" x="1135.66" y="658.1387">SecuritiesPricing</text></a><!--class SecuritiesQuantity--><a target="_top" xlink:actuate="onRequest" xlink:href="../SecuritiesQuantity.html" xlink:show="new" xlink:title="Quantity of a security." xlink:type="simple"><rect fill="#EEEEEE" filter="url(#fd1pf0xz4tzhu)" height="23.9688" id="SecuritiesQuantity" style="stroke: #A80036; stroke-width: 1.5;" width="120" x="1067.16" y="515"/><rect fill="#EEEEEE" height="23.9688" style="stroke: #A80036; stroke-width: 1.5;" width="120" x="1067.16" y="515"/><text fill="#000000" font-family="sans-serif" font-size="12" lengthAdjust="spacingAndGlyphs" textLength="114" x="1070.16" y="531.1387">SecuritiesQuantity</text></a><!--class SecuritiesTrade--><a target="_top" xlink:actuate="onRequest" xlink:href="../SecuritiesTrade.html" xlink:show="new" xlink:title="Specifies trades linked to securities operations such as the exchange of securities, the lending of securities and the transactions related to investment funds." xlink:type="simple"><rect fill="#EEEEEE" filter="url(#fd1pf0xz4tzhu)" height="23.9688" id="SecuritiesTrade" style="stroke: #A80036; stroke-width: 1.5;" width="104" x="1226.66" y="746"/><rect fill="#EEEEEE" height="23.9688" style="stroke: #A80036; stroke-width: 1.5;" width="104" x="1226.66" y="746"/><text fill="#000000" font-family="sans-serif" font-size="12" lengthAdjust="spacingAndGlyphs" textLength="98" x="1229.66" y="762.1387">SecuritiesTrade</text></a><!--class PaymentObligation--><a target="_top" xlink:actuate="onRequest" xlink:href="../PaymentObligation.html" xlink:show="new" xlink:title="Obligation for the debtor to pay the creditor an amount of cash." xlink:type="simple"><rect fill="#EEEEEE" filter="url(#fd1pf0xz4tzhu)" height="23.9688" id="PaymentObligation" style="stroke: #A80036; stroke-width: 1.5;" width="123" x="1315.41" y="642"/><rect fill="#EEEEEE" height="23.9688" style="stroke: #A80036; stroke-width: 1.5;" width="123" x="1315.41" y="642"/><text fill="#000000" font-family="sans-serif" font-size="12" lengthAdjust="spacingAndGlyphs" textLength="117" x="1318.41" y="658.1387">PaymentObligation</text></a><!--class SecuritiesDeliveryObligation--><a target="_top" xlink:actuate="onRequest" xlink:href="../SecuritiesDeliveryObligation.html" xlink:show="new" xlink:title="Obligation for one party to deliver securities to another party." xlink:type="simple"><rect fill="#EEEEEE" filter="url(#fd1pf0xz4tzhu)" height="23.9688" id="SecuritiesDeliveryObligation" style="stroke: #A80036; stroke-width: 1.5;" width="179" x="1259.41" y="515"/><rect fill="#EEEEEE" height="23.9688" style="stroke: #A80036; stroke-width: 1.5;" width="179" x="1259.41" y="515"/><text fill="#000000" font-family="sans-serif" font-size="12" lengthAdjust="spacingAndGlyphs" textLength="173" x="1262.41" y="531.1387">SecuritiesDeliveryObligation</text></a><!--class InvestmentFundOrder--><a target="_top" xlink:actuate="onRequest" xlink:href="../InvestmentFundOrder.html" xlink:show="new" xlink:title="An investor's instruction to either subscribe or redeem an amount of money or its equivalent, for example other assets, into or out of an investment fund." xlink:type="simple"><rect fill="#EEEEEE" filter="url(#fd1pf0xz4tzhu)" height="23.9688" id="InvestmentFundOrder" style="stroke: #A80036; stroke-width: 1.5;" width="141" x="574.414" y="642"/><rect fill="#EEEEEE" height="23.9688" style="stroke: #A80036; stroke-width: 1.5;" width="141" x="574.414" y="642"/><text fill="#000000" font-family="sans-serif" font-size="12" lengthAdjust="spacingAndGlyphs" textLength="135" x="577.414" y="658.1387">InvestmentFundOrder</text></a><!--class InvestmentFundTransaction--><a target="_top" xlink:actuate="onRequest" xlink:href="../InvestmentFundTransaction.html" xlink:show="new" xlink:title="Process of buying, selling, switching or transferring fund units." xlink:type="simple"><rect fill="#EEEEEE" filter="url(#fd1pf0xz4tzhu)" height="23.9688" id="InvestmentFundTransaction" style="stroke: #A80036; stroke-width: 1.5;" width="180" x="629.664" y="746"/><rect fill="#EEEEEE" height="23.9688" style="stroke: #A80036; stroke-width: 1.5;" width="180" x="629.664" y="746"/><text fill="#000000" font-family="sans-serif" font-size="12" lengthAdjust="spacingAndGlyphs" textLength="174" x="632.664" y="762.1387">InvestmentFundTransaction</text></a><!--class FundsCashFlow--><a target="_top" xlink:actuate="onRequest" xlink:href="../FundsCashFlow.html" xlink:show="new" xlink:title="Cash movements from or to a fund as a result of investment funds transactions, for example, subscriptions or redemptions." xlink:type="simple"><rect fill="#EEEEEE" filter="url(#fd1pf0xz4tzhu)" height="23.9688" id="FundsCashFlow" style="stroke: #A80036; stroke-width: 1.5;" width="102" x="751.164" y="642"/><rect fill="#EEEEEE" height="23.9688" style="stroke: #A80036; stroke-width: 1.5;" width="102" x="751.164" y="642"/><text fill="#000000" font-family="sans-serif" font-size="12" lengthAdjust="spacingAndGlyphs" textLength="96" x="754.164" y="658.1387">FundsCashFlow</text></a><!--entity ##15876--><!--link SecuritiesTradeExecution to InvestmentFundOrderExecution--><path d="M373.051,169.803 C371.892,188.361 370.632,208.508 369.424,227.841 " fill="none" id="SecuritiesTradeExecution-InvestmentFundOrderExecution" style="stroke: #A80036; stroke-width: 1.0;"/><polygon fill="none" points="366.077,169.178,374.311,149.654,380.05,170.051,366.077,169.178" style="stroke: #A80036; stroke-width: 1.0;"/><!--link InvestmentFundOrderExecution to RedemptionExecution--><path d="M347.745,433.983 C344.75,455.053 341.836,475.549 339.522,491.829 " fill="none" id="InvestmentFundOrderExecution-RedemptionExecution" style="stroke: #A80036; stroke-width: 1.0;"/><polygon fill="none" points="340.819,432.968,350.564,414.152,354.679,434.938,340.819,432.968" style="stroke: #A80036; stroke-width: 1.0;"/><!--link RedemptionExecution to SwitchExecutionRedemptionLeg--><path d="M334.664,582.298 C334.664,604.58 334.664,628.279 334.664,641.797 " fill="none" id="RedemptionExecution-SwitchExecutionRedemptionLeg" style="stroke: #A80036; stroke-width: 1.0;"/><polygon fill="none" points="327.664,582.157,334.664,562.157,341.664,582.157,327.664,582.157" style="stroke: #A80036; stroke-width: 1.0;"/><!--link SecuritiesPricing to SecuritiesSettlement--><!--link SecuritiesQuantity to SecuritiesPricing--><!--link SecuritiesTrade to SecuritiesQuantity--><!--link SecuritiesQuantity to SecuritiesTrade--><path d="M1136.05,539.263 C1149.28,556.554 1169.89,589.758 1151.66,610 C1140.3,622.621 1087.03,605.379 1075.66,618 C1054.25,641.782 1056.92,664.068 1075.66,690 C1108.6,735.5585 1173.64,750.6601 1221.25,755.3973 " fill="none" id="SecuritiesQuantity-SecuritiesTrade" style="stroke: #A80036; stroke-width: 1.0;"/><polygon fill="#A80036" points="1226.38,755.8748,1217.7972,751.0442,1221.4023,755.4034,1217.043,759.0085,1226.38,755.8748" style="stroke: #A80036; stroke-width: 1.0;"/><text fill="#000000" font-family="sans-serif" font-size="13" lengthAdjust="spacingAndGlyphs" textLength="36" x="1076.66" y="658.0669">Trade</text><text fill="#000000" font-family="sans-serif" font-size="13" lengthAdjust="spacingAndGlyphs" textLength="24" x="1194.648" y="768.5044">0..1</text><!--link PaymentObligation to SecuritiesTrade--><!--link SecuritiesDeliveryObligation to PaymentObligation--><!--link InvestmentFundTransaction to InvestmentFundOrder--><!--link InvestmentFundOrder to InvestmentFundTransaction--><path d="M648.639,666.05 C653.555,678.833 662.753,700.15 674.664,716 C682.085,725.8747 692.11,735.2787 700.813,742.5835 " fill="none" id="InvestmentFundOrder-InvestmentFundTransaction" style="stroke: #A80036; stroke-width: 1.0;"/><polygon fill="#A80036" points="704.963,745.9937,700.5491,737.1893,701.1,742.8193,695.47,743.3702,704.963,745.9937" style="stroke: #A80036; stroke-width: 1.0;"/><text fill="#000000" font-family="sans-serif" font-size="13" lengthAdjust="spacingAndGlyphs" textLength="122" x="675.664" y="711.0669">RelatedTransaction</text><text fill="#000000" font-family="sans-serif" font-size="13" lengthAdjust="spacingAndGlyphs" textLength="24" x="670.4408" y="735.0398">0..1</text><!--link FundsCashFlow to InvestmentFundTransaction--><!--link SecuritiesTradeExecution to SecuritiesSettlement--><path d="M518.072,139.988 C684.448,192.111 951.782,275.863 1052.52,307.424 " fill="none" id="SecuritiesTradeExecution-SecuritiesSettlement" style="stroke: #A80036; stroke-width: 1.0;"/><polygon fill="#A80036" points="1057.48,308.978,1050.0761,302.4832,1052.7061,307.4915,1047.6977,310.1215,1057.48,308.978" style="stroke: #A80036; stroke-width: 1.0;"/><text fill="#000000" font-family="sans-serif" font-size="13" lengthAdjust="spacingAndGlyphs" textLength="135" x="693.664" y="193.0669">SecuritiesSettlement</text><text fill="#000000" font-family="sans-serif" font-size="13" lengthAdjust="spacingAndGlyphs" textLength="7" x="1035.7541" y="298.0187">*</text><!--link SecuritiesTradeExecution to SecuritiesPricing--><path d="M517.747,100.085 C829.849,110.669 1560.58,144.229 1631.66,228 C1685.15,291.032 1666.67,339.109 1631.66,414 C1588.25,506.898 1544.04,511.722 1454.66,562 C1434.34,573.431 1296.51,618.209 1227.24,640.398 " fill="none" id="SecuritiesTradeExecution-SecuritiesPricing" style="stroke: #A80036; stroke-width: 1.0;"/><polygon fill="#A80036" points="1222.37,641.956,1232.1619,643.0136,1227.1307,640.4277,1229.7166,635.3964,1222.37,641.956" style="stroke: #A80036; stroke-width: 1.0;"/><text fill="#000000" font-family="sans-serif" font-size="13" lengthAdjust="spacingAndGlyphs" textLength="60" x="1616.66" y="457.0669">DealPrice</text><text fill="#000000" font-family="sans-serif" font-size="13" lengthAdjust="spacingAndGlyphs" textLength="8" x="1223.5828" y="630.9891">1</text><!--link SecuritiesTradeExecution to SecuritiesQuantity--><path d="M517.964,103.219 C719.358,116.188 1077.23,149.765 1177.66,228 C1248.79,283.41 1202.33,343.602 1258.66,414 C1276.19,435.905 1315.7,438.975 1299.66,462 C1291.81,473.275 1216.75,498.192 1168.11,513.396 " fill="none" id="SecuritiesTradeExecution-SecuritiesQuantity" style="stroke: #A80036; stroke-width: 1.0;"/><polygon fill="#A80036" points="1163.2,514.927,1172.9822,516.0713,1167.974,513.4409,1170.6044,508.4328,1163.2,514.927" style="stroke: #A80036; stroke-width: 1.0;"/><text fill="#000000" font-family="sans-serif" font-size="13" lengthAdjust="spacingAndGlyphs" textLength="149" x="1259.66" y="325.0669">ExecutedTradeQuantity</text><text fill="#000000" font-family="sans-serif" font-size="13" lengthAdjust="spacingAndGlyphs" textLength="7" x="1166.0419" y="503.9501">*</text><!--link SecuritiesTradeExecution to SecuritiesTrade--><path d="M517.706,98.387 C798.912,104.329 1422.93,123.613 1628.66,180 C1761.7,216.462 1905.66,182.058 1905.66,320 C1905.66,320 1905.66,320 1905.66,655 C1905.66,712.3915 1491.12,743.889 1336.18,753.6575 " fill="none" id="SecuritiesTradeExecution-SecuritiesTrade" style="stroke: #A80036; stroke-width: 1.0;"/><polygon fill="#A80036" points="1330.78,753.9958,1340.0038,757.4485,1335.771,753.6957,1339.5237,749.4629,1330.78,753.9958" style="stroke: #A80036; stroke-width: 1.0;"/><text fill="#000000" font-family="sans-serif" font-size="13" lengthAdjust="spacingAndGlyphs" textLength="84" x="1906.66" y="531.0669">RelatedTrade</text><text fill="#000000" font-family="sans-serif" font-size="13" lengthAdjust="spacingAndGlyphs" textLength="8" x="1338.6719" y="748.3158">1</text><!--link SecuritiesTradeExecution to PaymentObligation--><path d="M517.795,100.028 C787.256,108.747 1368.19,132.52 1562.66,180 C1614.88,192.748 1642.81,183.988 1673.66,228 C1733.45,313.292 1735.09,369.78 1686.66,462 C1632.78,564.617 1497.06,618.218 1424.37,640.377 " fill="none" id="SecuritiesTradeExecution-PaymentObligation" style="stroke: #A80036; stroke-width: 1.0;"/><polygon fill="#A80036" points="1419.25,641.918,1429.0179,643.1782,1424.0413,640.4886,1426.7309,635.512,1419.25,641.918" style="stroke: #A80036; stroke-width: 1.0;"/><text fill="#000000" font-family="sans-serif" font-size="13" lengthAdjust="spacingAndGlyphs" textLength="121" x="1695.66" y="457.0669">PaymentObligation</text><text fill="#000000" font-family="sans-serif" font-size="13" lengthAdjust="spacingAndGlyphs" textLength="7" x="1424.2575" y="630.938">*</text><!--link SecuritiesTradeExecution to SecuritiesDeliveryObligation--><path d="M517.793,103.492 C787.549,119.38 1357.55,160.616 1414.66,228 C1487.52,313.955 1393.81,462.72 1359.97,510.647 " fill="none" id="SecuritiesTradeExecution-SecuritiesDeliveryObligation" style="stroke: #A80036; stroke-width: 1.0;"/><polygon fill="#A80036" points="1356.89,514.965,1365.3718,509.959,1359.7927,510.8938,1358.8579,505.3147,1356.89,514.965" style="stroke: #A80036; stroke-width: 1.0;"/><text fill="#000000" font-family="sans-serif" font-size="13" lengthAdjust="spacingAndGlyphs" textLength="178" x="1443.66" y="325.0669">SecuritiesDeliveryObligation</text><text fill="#000000" font-family="sans-serif" font-size="13" lengthAdjust="spacingAndGlyphs" textLength="7" x="1350.0863" y="504.0012">*</text><!--link InvestmentFundOrderExecution to SecuritiesQuantity--><path d="M517.95,353.791 C623.736,376.529 766.957,409.17 891.664,444 C965.148,464.524 1049.06,495.744 1094.05,513.143 " fill="none" id="InvestmentFundOrderExecution-SecuritiesQuantity" style="stroke: #A80036; stroke-width: 1.0;"/><polygon fill="#A80036" points="1098.81,514.988,1091.8737,507.996,1094.1505,513.1745,1088.972,515.4512,1098.81,514.988" style="stroke: #A80036; stroke-width: 1.0;"/><text fill="#000000" font-family="sans-serif" font-size="13" lengthAdjust="spacingAndGlyphs" textLength="85" x="951.664" y="457.0669">UnitsNumber</text><text fill="#000000" font-family="sans-serif" font-size="13" lengthAdjust="spacingAndGlyphs" textLength="8" x="1078.3459" y="504.0321">1</text><!--link InvestmentFundOrderExecution to InvestmentFundOrder--><path d="M462.846,414.273 C487.278,438.684 512.712,465.61 534.664,492 C576.38,542.148 617.618,608.019 635.463,637.532 " fill="none" id="InvestmentFundOrderExecution-InvestmentFundOrder" style="stroke: #A80036; stroke-width: 1.0;"/><polygon fill="#A80036" points="638.123,641.948,636.9067,632.1745,635.5436,637.6647,630.0534,636.3016,638.123,641.948" style="stroke: #A80036; stroke-width: 1.0;"/><text fill="#000000" font-family="sans-serif" font-size="13" lengthAdjust="spacingAndGlyphs" textLength="36" x="587.664" y="531.0669">Order</text><text fill="#000000" font-family="sans-serif" font-size="13" lengthAdjust="spacingAndGlyphs" textLength="24" x="606.3198" y="630.9783">0..1</text><!--link InvestmentFundOrderExecution to SecuritiesPricing--><path d="M517.85,334.063 C616.588,348.099 743.401,378.439 837.664,444 C890.094,480.465 869.861,522.022 919.664,562 C919.835,562.137 1036.45,609.948 1036.66,610 C1073.94,619.163 1085.92,606.9 1122.66,618 C1138.51,622.786 1154.91,631.65 1167.27,639.26 " fill="none" id="InvestmentFundOrderExecution-SecuritiesPricing" style="stroke: #A80036; stroke-width: 1.0;"/><polygon fill="#A80036" points="1171.63,641.997,1166.1316,633.8258,1167.3944,639.3399,1161.8803,640.6028,1171.63,641.997" style="stroke: #A80036; stroke-width: 1.0;"/><text fill="#000000" font-family="sans-serif" font-size="13" lengthAdjust="spacingAndGlyphs" textLength="126" x="920.664" y="531.0669">ExecutedTradePrice</text><text fill="#000000" font-family="sans-serif" font-size="13" lengthAdjust="spacingAndGlyphs" textLength="8" x="1155.4009" y="631.0442">1</text><!--link InvestmentFundOrderExecution to SecuritiesPricing--><path d="M209.455,367.759 C88.6754,411.077 -47.3393,481.361 27.6641,562 C77.8913,616.001 615.992,606.651 689.664,610 C737.734,612.185 1076.12,605.806 1122.66,618 C1138.9,622.252 1155.53,631.309 1167.9,639.144 " fill="none" id="InvestmentFundOrderExecution-SecuritiesPricing" style="stroke: #A80036; stroke-width: 1.0;"/><polygon fill="#A80036" points="1172.26,641.965,1166.8748,633.7188,1168.0615,639.2498,1162.5305,640.4365,1172.26,641.965" style="stroke: #A80036; stroke-width: 1.0;"/><text fill="#000000" font-family="sans-serif" font-size="13" lengthAdjust="spacingAndGlyphs" textLength="103" x="28.6641" y="531.0669">InformativePrice</text><text fill="#000000" font-family="sans-serif" font-size="13" lengthAdjust="spacingAndGlyphs" textLength="8" x="1168.3413" y="631.0012">1</text><!--link InvestmentFundOrderExecution to InvestmentFundTransaction--><path d="M517.673,373.513 C588.191,401.692 670.206,441.299 734.664,492 C787.148,533.283 770.668,575.211 827.664,610 C843.511,619.673 856.86,603.67 868.664,618 C889.01,642.699 885.591,662.843 868.664,690 C850.863,718.56 817.555,735.0386 786.939,744.4996 " fill="none" id="InvestmentFundOrderExecution-InvestmentFundTransaction" style="stroke: #A80036; stroke-width: 1.0;"/><polygon fill="#A80036" points="782.051,745.9586,791.8194,747.2148,786.8418,744.5273,789.5293,739.5496,782.051,745.9586" style="stroke: #A80036; stroke-width: 1.0;"/><text fill="#000000" font-family="sans-serif" font-size="13" lengthAdjust="spacingAndGlyphs" textLength="177" x="828.664" y="605.0669">InvestmentFundTransaction</text><text fill="#000000" font-family="sans-serif" font-size="13" lengthAdjust="spacingAndGlyphs" textLength="24" x="774.0278" y="734.9926">0..1</text><!--link InvestmentFundOrderExecution to FundsCashFlow--><path d="M517.676,399.888 C558.647,425.439 600.639,456.524 633.664,492 C674.172,535.514 649.428,573.9 696.664,610 C709.342,619.689 716.643,612.616 731.664,618 C747.612,623.716 764.631,632.167 777.894,639.333 " fill="none" id="InvestmentFundOrderExecution-FundsCashFlow" style="stroke: #A80036; stroke-width: 1.0;"/><polygon fill="#A80036" points="782.601,641.907,776.623,634.0799,778.2139,639.5084,772.7853,641.0993,782.601,641.907" style="stroke: #A80036; stroke-width: 1.0;"/><text fill="#000000" font-family="sans-serif" font-size="13" lengthAdjust="spacingAndGlyphs" textLength="59" x="665.664" y="531.0669">CashFlow</text><text fill="#000000" font-family="sans-serif" font-size="13" lengthAdjust="spacingAndGlyphs" textLength="7" x="766.3293" y="630.9232">*</text><!--link SecuritiesSettlement to SecuritiesQuantity--><path d="M1084.71,333.299 C1068.63,357.643 1035.43,416.521 1055.66,462 C1065.22,483.482 1085.95,500.789 1102.55,511.962 " fill="none" id="SecuritiesSettlement-SecuritiesQuantity" style="stroke: #A80036; stroke-width: 1.0;"/><polygon fill="#A80036" points="1107.11,514.949,1101.7772,506.6688,1102.9288,512.2072,1097.3904,513.3588,1107.11,514.949" style="stroke: #A80036; stroke-width: 1.0;"/><text fill="#000000" font-family="sans-serif" font-size="13" lengthAdjust="spacingAndGlyphs" textLength="126" x="1056.66" y="457.0669">SettlementQuantity</text><text fill="#000000" font-family="sans-serif" font-size="13" lengthAdjust="spacingAndGlyphs" textLength="8" x="1101.5928" y="503.9797">1</text><!--link SecuritiesSettlement to SecuritiesQuantity--><path d="M1105.88,333.116 C1128.08,352.768 1172.08,396.12 1188.66,444 C1198.14,471.353 1170.72,496.96 1149.36,512.055 " fill="none" id="SecuritiesSettlement-SecuritiesQuantity" style="stroke: #A80036; stroke-width: 1.0;"/><polygon fill="#A80036" points="1145.18,514.931,1154.8591,513.1103,1149.2949,512.0907,1150.3146,506.5265,1145.18,514.931" style="stroke: #A80036; stroke-width: 1.0;"/><text fill="#000000" font-family="sans-serif" font-size="13" lengthAdjust="spacingAndGlyphs" textLength="98" x="1191.66" y="457.0669">TurnedQuantity</text><text fill="#000000" font-family="sans-serif" font-size="13" lengthAdjust="spacingAndGlyphs" textLength="8" x="1140.6556" y="503.9555">1</text><!--link SecuritiesPricing to SecuritiesTrade--><path d="M1178.4,666.222 C1168.92,679.167 1156.96,700.637 1167.66,716 C1180.06,733.7898 1201.1,743.8799 1221.55,749.5953 " fill="none" id="SecuritiesPricing-SecuritiesTrade" style="stroke: #A80036; stroke-width: 1.0;"/><polygon fill="#A80036" points="1226.45,750.8872,1218.7632,744.7298,1221.6144,749.6156,1216.7286,752.4668,1226.45,750.8872" style="stroke: #A80036; stroke-width: 1.0;"/><text fill="#000000" font-family="sans-serif" font-size="13" lengthAdjust="spacingAndGlyphs" textLength="99" x="1168.66" y="711.0669">SecuritiesTrade</text><text fill="#000000" font-family="sans-serif" font-size="13" lengthAdjust="spacingAndGlyphs" textLength="24" x="1194.7252" y="745.3525">0..1</text><!--link SecuritiesQuantity to InvestmentFundOrder--><path d="M1103.04,539.023 C1085.41,546.75 1060.53,556.622 1037.66,562 C903.781,593.49 858.395,543.577 729.664,592 C702.237,602.317 675.622,623.856 659.687,638.376 " fill="none" id="SecuritiesQuantity-InvestmentFundOrder" style="stroke: #A80036; stroke-width: 1.0;"/><polygon fill="#A80036" points="655.872,641.905,665.1946,638.7287,659.542,638.5093,659.7614,632.8567,655.872,641.905" style="stroke: #A80036; stroke-width: 1.0;"/><text fill="#000000" font-family="sans-serif" font-size="13" lengthAdjust="spacingAndGlyphs" textLength="36" x="730.664" y="605.0669">Order</text><text fill="#000000" font-family="sans-serif" font-size="13" lengthAdjust="spacingAndGlyphs" textLength="8" x="648.9201" y="630.9206">1</text><!--link SecuritiesQuantity to FundsCashFlow--><path d="M1113.12,539.127 C1090.86,556.848 1044.51,591.38 999.664,610 C953.805,629.043 898.317,640.159 857.763,646.301 " fill="none" id="SecuritiesQuantity-FundsCashFlow" style="stroke: #A80036; stroke-width: 1.0;"/><polygon fill="#A80036" points="852.394,647.098,861.8839,649.7329,857.3398,646.3637,860.709,641.8196,852.394,647.098" style="stroke: #A80036; stroke-width: 1.0;"/><text fill="#000000" font-family="sans-serif" font-size="13" lengthAdjust="spacingAndGlyphs" textLength="107" x="1034.66" y="605.0669">RelatedCashFlow</text><text fill="#000000" font-family="sans-serif" font-size="13" lengthAdjust="spacingAndGlyphs" textLength="8" x="861.0369" y="640.7233">1</text></g></svg>