<?xml version="1.0" encoding="UTF-8" standalone="no"?><svg xmlns="http://www.w3.org/2000/svg" xmlns:xlink="http://www.w3.org/1999/xlink" contentScriptType="application/ecmascript" contentStyleType="text/css" height="500px" preserveAspectRatio="none" style="width:1136px;height:500px;" version="1.1" viewBox="0 0 1136 500" width="1136px" zoomAndPan="magnify"><defs><filter height="300%" id="fscql2wk4p6yc" width="300%" x="-1" y="-1"><feGaussianBlur result="blurOut" stdDeviation="2.0"/><feColorMatrix in="blurOut" result="blurOut2" type="matrix" values="0 0 0 0 0 0 0 0 0 0 0 0 0 0 0 0 0 0 .4 0"/><feOffset dx="4.0" dy="4.0" in="blurOut2" result="blurOut3"/><feBlend in="SourceGraphic" in2="blurOut3" mode="normal"/></filter></defs><g><!--cluster ##16981--><!--cluster ##16993--><!--cluster ##17002--><!--cluster ##17007--><!--class Role--><a target="_top" xlink:actuate="onRequest" xlink:href="../Role.html" xlink:show="new" xlink:title="Role of a party in an activity." xlink:type="simple"><rect fill="#FEFEEE" filter="url(#fscql2wk4p6yc)" height="44.7734" id="Role" style="stroke: #A80036; stroke-width: 1.5;" width="175" x="61.9013" y="40.5"/><rect fill="#FEFEEE" height="23.9688" style="stroke: #A80036; stroke-width: 1.5;" width="175" x="61.9013" y="40.5"/><text fill="#000000" font-family="sans-serif" font-size="12" lengthAdjust="spacingAndGlyphs" textLength="27" x="135.9013" y="56.6387">Role</text><line style="stroke: #A80036; stroke-width: 1.5;" x1="62.9013" x2="235.9013" y1="64.4688" y2="64.4688"/><ellipse cx="72.9013" cy="76.3711" fill="#84BE84" rx="3" ry="3" style="stroke: #038048; stroke-width: 1.0;"/><text fill="#000000" font-family="sans-serif" font-size="11" lengthAdjust="spacingAndGlyphs" textLength="53" x="81.9013" y="78.6792">PartyRole</text><text fill="#000000" font-family="sans-serif" font-size="11" font-style="italic" lengthAdjust="spacingAndGlyphs" textLength="92" x="138.9013" y="78.6792">(PartyRoleCode)</text></a><!--class CorporateActionPartyRole--><a target="_top" xlink:actuate="onRequest" xlink:href="../CorporateActionPartyRole.html" xlink:show="new" xlink:title="Role played by a party in the context of a corporate action." xlink:type="simple"><rect fill="#FEFEEE" filter="url(#fscql2wk4p6yc)" height="23.9688" id="CorporateActionPartyRole" style="stroke: #A80036; stroke-width: 1.5;" width="167" x="69.9013" y="166"/><rect fill="#FEFEEE" height="23.9688" style="stroke: #A80036; stroke-width: 1.5;" width="167" x="69.9013" y="166"/><text fill="#000000" font-family="sans-serif" font-size="12" lengthAdjust="spacingAndGlyphs" textLength="161" x="72.9013" y="182.1387">CorporateActionPartyRole</text></a><!--class MeetingPartyRole--><a target="_top" xlink:actuate="onRequest" xlink:href="../MeetingPartyRole.html" xlink:show="new" xlink:title="Role played by a party in the context of a meeting." xlink:type="simple"><rect fill="#FEFEEE" filter="url(#fscql2wk4p6yc)" height="23.9688" id="MeetingPartyRole" style="stroke: #A80036; stroke-width: 1.5;" width="115" x="61.9013" y="272"/><rect fill="#FEFEEE" height="23.9688" style="stroke: #A80036; stroke-width: 1.5;" width="115" x="61.9013" y="272"/><text fill="#000000" font-family="sans-serif" font-size="12" lengthAdjust="spacingAndGlyphs" textLength="109" x="64.9013" y="288.1387">MeetingPartyRole</text></a><!--class RegistrationBeneficiary--><a target="_top" xlink:actuate="onRequest" xlink:href="../RegistrationBeneficiary.html" xlink:show="new" xlink:title="Party in whose name securities are registered." xlink:type="simple"><rect fill="#FEFECE" filter="url(#fscql2wk4p6yc)" height="23.9688" id="RegistrationBeneficiary" style="stroke: #A80036; stroke-width: 1.5;" width="150" x="87.6513" y="360"/><rect fill="#FEFECE" height="23.9688" style="stroke: #A80036; stroke-width: 1.5;" width="150" x="87.6513" y="360"/><text fill="#000000" font-family="sans-serif" font-size="12" lengthAdjust="spacingAndGlyphs" textLength="144" x="90.6513" y="376.1387">RegistrationBeneficiary</text></a><!--class RolePlayer--><a target="_top" xlink:actuate="onRequest" xlink:href="../RolePlayer.html" xlink:show="new" xlink:title="Type of entity that plays a specific role in a specific context." xlink:type="simple"><rect fill="#EEEEEE" filter="url(#fscql2wk4p6yc)" height="23.9688" id="RolePlayer" style="stroke: #A80036; stroke-width: 1.5;" width="71" x="711.901" y="466"/><rect fill="#EEEEEE" height="23.9688" style="stroke: #A80036; stroke-width: 1.5;" width="71" x="711.901" y="466"/><text fill="#000000" font-family="sans-serif" font-size="12" lengthAdjust="spacingAndGlyphs" textLength="65" x="714.901" y="482.1387">RolePlayer</text></a><!--class ContactPersonRole--><a target="_top" xlink:actuate="onRequest" xlink:href="../ContactPersonRole.html" xlink:show="new" xlink:title="Person to be contacted in a given organisation. In the corporate action domain (including meeting notifications) , it is the contact person at the party organising the meeting, at the issuer or at an intermediary." xlink:type="simple"><rect fill="#EEEEEE" filter="url(#fscql2wk4p6yc)" height="23.9688" id="ContactPersonRole" style="stroke: #A80036; stroke-width: 1.5;" width="126" x="664.151" y="360"/><rect fill="#EEEEEE" height="23.9688" style="stroke: #A80036; stroke-width: 1.5;" width="126" x="664.151" y="360"/><text fill="#000000" font-family="sans-serif" font-size="12" lengthAdjust="spacingAndGlyphs" textLength="120" x="667.151" y="376.1387">ContactPersonRole</text></a><!--class CounterpartyRisk--><a target="_top" xlink:actuate="onRequest" xlink:href="../CounterpartyRisk.html" xlink:show="new" xlink:title="Calculation of the exposure amount that one party has vis-a-vis one counterparty or a central system, based on its credit risk." xlink:type="simple"><rect fill="#EEEEEE" filter="url(#fscql2wk4p6yc)" height="23.9688" id="CounterpartyRisk" style="stroke: #A80036; stroke-width: 1.5;" width="113" x="670.901" y="272"/><rect fill="#EEEEEE" height="23.9688" style="stroke: #A80036; stroke-width: 1.5;" width="113" x="670.901" y="272"/><text fill="#000000" font-family="sans-serif" font-size="12" lengthAdjust="spacingAndGlyphs" textLength="107" x="673.901" y="288.1387">CounterpartyRisk</text></a><!--class Entry--><a target="_top" xlink:actuate="onRequest" xlink:href="../Entry.html" xlink:show="new" xlink:title="Posting to an account that results in an increase or decrease to a balance." xlink:type="simple"><rect fill="#EEEEEE" filter="url(#fscql2wk4p6yc)" height="23.9688" id="Entry" style="stroke: #A80036; stroke-width: 1.5;" width="38" x="664.151" y="166"/><rect fill="#EEEEEE" height="23.9688" style="stroke: #A80036; stroke-width: 1.5;" width="38" x="664.151" y="166"/><text fill="#000000" font-family="sans-serif" font-size="12" lengthAdjust="spacingAndGlyphs" textLength="32" x="667.151" y="182.1387">Entry</text></a><!--class CorporateActionEvent--><a target="_top" xlink:actuate="onRequest" xlink:href="../CorporateActionEvent.html" xlink:show="new" xlink:title="An event determined by a corporation's board of directors, that changes the existing corporate capital structure or financial condition." xlink:type="simple"><rect fill="#EEEEEE" filter="url(#fscql2wk4p6yc)" height="23.9688" id="CorporateActionEvent" style="stroke: #A80036; stroke-width: 1.5;" width="143" x="425.901" y="360"/><rect fill="#EEEEEE" height="23.9688" style="stroke: #A80036; stroke-width: 1.5;" width="143" x="425.901" y="360"/><text fill="#000000" font-family="sans-serif" font-size="12" lengthAdjust="spacingAndGlyphs" textLength="137" x="428.901" y="376.1387">CorporateActionEvent</text></a><!--class Account--><a target="_top" xlink:actuate="onRequest" xlink:href="../Account.html" xlink:show="new" xlink:title="Record of transactions in specific types of assets, maintained by a servicing party on behalf of one or more owning parties. Business relationship between an account servicer and one or more account owners." xlink:type="simple"><rect fill="#EEEEEE" filter="url(#fscql2wk4p6yc)" height="23.9688" id="Account" style="stroke: #A80036; stroke-width: 1.5;" width="57" x="425.901" y="272"/><rect fill="#EEEEEE" height="23.9688" style="stroke: #A80036; stroke-width: 1.5;" width="57" x="425.901" y="272"/><text fill="#000000" font-family="sans-serif" font-size="12" lengthAdjust="spacingAndGlyphs" textLength="51" x="428.901" y="288.1387">Account</text></a><!--class Meeting--><a target="_top" xlink:actuate="onRequest" xlink:href="../Meeting.html" xlink:show="new" xlink:title="Specifies the physical parameters of a general meeting. Several dates and places can be defined for a  meeting." xlink:type="simple"><rect fill="#EEEEEE" filter="url(#fscql2wk4p6yc)" height="23.9688" id="Meeting" style="stroke: #A80036; stroke-width: 1.5;" width="56" x="469.651" y="466"/><rect fill="#EEEEEE" height="23.9688" style="stroke: #A80036; stroke-width: 1.5;" width="56" x="469.651" y="466"/><text fill="#000000" font-family="sans-serif" font-size="12" lengthAdjust="spacingAndGlyphs" textLength="50" x="472.651" y="482.1387">Meeting</text></a><!--entity ##17010--><!--link Role to CorporateActionPartyRole--><path d="M150.622,105.559 C151.387,127.159 152.263,151.898 152.757,165.865 " fill="none" id="Role-CorporateActionPartyRole" style="stroke: #A80036; stroke-width: 1.0;"/><polygon fill="none" points="143.625,105.756,149.913,85.52,157.616,105.26,143.625,105.756" style="stroke: #A80036; stroke-width: 1.0;"/><!--link CorporateActionPartyRole to MeetingPartyRole--><path d="M143.273,209.215 C136.39,230.268 127.606,257.137 122.764,271.95 " fill="none" id="CorporateActionPartyRole-MeetingPartyRole" style="stroke: #A80036; stroke-width: 1.0;"/><polygon fill="none" points="136.644,206.965,149.513,190.13,149.951,211.315,136.644,206.965" style="stroke: #A80036; stroke-width: 1.0;"/><!--link MeetingPartyRole to RegistrationBeneficiary--><path d="M133.735,314.167 C141.565,329.828 150.766,348.229 156.528,359.754 " fill="none" id="MeetingPartyRole-RegistrationBeneficiary" style="stroke: #A80036; stroke-width: 1.0;"/><polygon fill="none" points="127.456,317.262,124.773,296.243,139.978,311.001,127.456,317.262" style="stroke: #A80036; stroke-width: 1.0;"/><!--link ContactPersonRole to RolePlayer--><!--link CounterpartyRisk to ContactPersonRole--><!--link Entry to CounterpartyRisk--><!--link Account to CorporateActionEvent--><!--link Role to RolePlayer--><path d="M236.694,65.488 C469.129,70.596 1084.15,92.129 1084.15,177 C1084.15,177 1084.15,177 1084.15,373 C1084.15,434.3845 877.421,463.4112 787.794,473.1111 " fill="none" id="Role-RolePlayer" style="stroke: #A80036; stroke-width: 1.0;"/><polygon fill="#A80036" points="782.579,473.6679,791.9532,476.6887,787.5507,473.1365,791.1029,468.734,782.579,473.6679" style="stroke: #A80036; stroke-width: 1.0;"/><text fill="#000000" font-family="sans-serif" font-size="13" lengthAdjust="spacingAndGlyphs" textLength="39" x="1085.15" y="288.0669">Player</text><text fill="#000000" font-family="sans-serif" font-size="13" lengthAdjust="spacingAndGlyphs" textLength="7" x="791.0398" y="466.9457">*</text><!--link Role to ContactPersonRole--><path d="M236.666,67.005 C417.831,74.15 820.446,95.178 860.151,142 C921.612,214.476 797.13,319.197 746.895,356.851 " fill="none" id="Role-ContactPersonRole" style="stroke: #A80036; stroke-width: 1.0;"/><polygon fill="#A80036" points="742.84,359.865,752.4493,357.7062,746.8528,356.8822,747.6768,351.2857,742.84,359.865" style="stroke: #A80036; stroke-width: 1.0;"/><text fill="#000000" font-family="sans-serif" font-size="13" lengthAdjust="spacingAndGlyphs" textLength="121" x="871.151" y="233.0669">ContactPersonRole</text><text fill="#000000" font-family="sans-serif" font-size="13" lengthAdjust="spacingAndGlyphs" textLength="8" x="737.5143" y="348.8668">1</text><!--link Role to CounterpartyRisk--><path d="M236.557,69.909 C388.18,81.03 686.939,107.126 719.151,142 C750.787,176.25 739.837,237.419 732.113,266.616 " fill="none" id="Role-CounterpartyRisk" style="stroke: #A80036; stroke-width: 1.0;"/><polygon fill="#A80036" points="730.719,271.682,736.962,264.0646,732.0446,266.8609,729.2483,261.9436,730.719,271.682" style="stroke: #A80036; stroke-width: 1.0;"/><text fill="#000000" font-family="sans-serif" font-size="13" lengthAdjust="spacingAndGlyphs" textLength="109" x="741.151" y="182.0669">CounterpartyRisk</text><text fill="#000000" font-family="sans-serif" font-size="13" lengthAdjust="spacingAndGlyphs" textLength="24" x="702.5118" y="260.8801">0..1</text><!--link Role to Entry--><path d="M236.434,82.47 C361.766,108.991 585.707,156.38 659.121,171.915 " fill="none" id="Role-Entry" style="stroke: #A80036; stroke-width: 1.0;"/><polygon fill="#A80036" points="664.143,172.978,656.1665,167.2009,659.2514,171.9425,654.5097,175.0275,664.143,172.978" style="stroke: #A80036; stroke-width: 1.0;"/><text fill="#000000" font-family="sans-serif" font-size="13" lengthAdjust="spacingAndGlyphs" textLength="33" x="481.151" y="129.0669">Entry</text><text fill="#000000" font-family="sans-serif" font-size="13" lengthAdjust="spacingAndGlyphs" textLength="8" x="648.0907" y="165.0969">1</text><!--link CorporateActionPartyRole to CorporateActionEvent--><path d="M160.712,190.316 C177.004,213.84 217.806,268.299 265.151,298 C315.121,329.347 379.643,348.221 427.953,358.9 " fill="none" id="CorporateActionPartyRole-CorporateActionEvent" style="stroke: #A80036; stroke-width: 1.0;"/><polygon fill="#A80036" points="432.872,359.971,424.9296,354.1471,427.9866,358.9068,423.2268,361.9637,432.872,359.971" style="stroke: #A80036; stroke-width: 1.0;"/><text fill="#000000" font-family="sans-serif" font-size="13" lengthAdjust="spacingAndGlyphs" textLength="140" x="266.151" y="288.0669">CorporateActionEvent</text><text fill="#000000" font-family="sans-serif" font-size="13" lengthAdjust="spacingAndGlyphs" textLength="7" x="410.6348" y="351.8207">*</text><!--link CorporateActionPartyRole to Account--><path d="M213.9,190.013 C264.635,200.514 338.103,218.794 398.151,246 C411.644,252.113 425.546,261.279 436.123,268.958 " fill="none" id="CorporateActionPartyRole-Account" style="stroke: #A80036; stroke-width: 1.0;"/><polygon fill="#A80036" points="440.15,271.927,435.2799,263.3665,436.1256,268.9598,430.5323,269.8055,440.15,271.927" style="stroke: #A80036; stroke-width: 1.0;"/><text fill="#000000" font-family="sans-serif" font-size="13" lengthAdjust="spacingAndGlyphs" textLength="52" x="381.151" y="233.0669">Account</text><text fill="#000000" font-family="sans-serif" font-size="13" lengthAdjust="spacingAndGlyphs" textLength="7" x="425.7043" y="260.9501">*</text><!--link MeetingPartyRole to Meeting--><path d="M91.6642,296.015 C66.5816,307.728 31.0731,328.888 15.1513,360 C5.4326,378.991 1.176,391.882 15.1513,408 C73.8395,475.6879 365.764,478.5908 464.472,477.5862 " fill="none" id="MeetingPartyRole-Meeting" style="stroke: #A80036; stroke-width: 1.0;"/><polygon fill="#A80036" points="469.583,477.5289,460.539,473.6294,464.5833,477.5846,460.6281,481.6289,469.583,477.5289" style="stroke: #A80036; stroke-width: 1.0;"/><text fill="#000000" font-family="sans-serif" font-size="13" lengthAdjust="spacingAndGlyphs" textLength="51" x="16.1513" y="376.0669">Meeting</text><text fill="#000000" font-family="sans-serif" font-size="13" lengthAdjust="spacingAndGlyphs" textLength="7" x="454.4588" y="471.6513">*</text><!--link ContactPersonRole to Meeting--><path d="M706.638,384.202 C682.98,396.939 642.765,418.033 607.151,434 C581.581,445.4639 551.963,456.9425 529.906,465.153 " fill="none" id="ContactPersonRole-Meeting" style="stroke: #A80036; stroke-width: 1.0;"/><polygon fill="#A80036" points="525.037,466.9584,534.8663,467.5795,529.725,465.2199,532.0846,460.0786,525.037,466.9584" style="stroke: #A80036; stroke-width: 1.0;"/><text fill="#000000" font-family="sans-serif" font-size="13" lengthAdjust="spacingAndGlyphs" textLength="51" x="645.151" y="429.0669">Meeting</text><text fill="#000000" font-family="sans-serif" font-size="13" lengthAdjust="spacingAndGlyphs" textLength="7" x="533.7237" y="457.5523">*</text><!--link Entry to Account--><path d="M664.021,187.688 C623.905,205.907 530.773,248.202 483.221,269.798 " fill="none" id="Entry-Account" style="stroke: #A80036; stroke-width: 1.0;"/><polygon fill="#A80036" points="478.487,271.948,488.3355,271.8694,483.0397,269.8809,485.0282,264.5851,478.487,271.948" style="stroke: #A80036; stroke-width: 1.0;"/><text fill="#000000" font-family="sans-serif" font-size="13" lengthAdjust="spacingAndGlyphs" textLength="52" x="591.151" y="233.0669">Account</text><text fill="#000000" font-family="sans-serif" font-size="13" lengthAdjust="spacingAndGlyphs" textLength="7" x="477.2197" y="260.9783">*</text><!--link CorporateActionEvent to Meeting--><path d="M497.151,384.13 C497.151,402.583 497.151,439.5865 497.151,460.8925 " fill="none" id="CorporateActionEvent-Meeting" style="stroke: #A80036; stroke-width: 1.0;"/><polygon fill="#A80036" points="497.151,465.9502,501.151,456.9502,497.151,460.9502,493.151,456.9502,497.151,465.9502" style="stroke: #A80036; stroke-width: 1.0;"/><text fill="#000000" font-family="sans-serif" font-size="13" lengthAdjust="spacingAndGlyphs" textLength="99" x="498.151" y="429.0669">RelatedMeeting</text><text fill="#000000" font-family="sans-serif" font-size="13" lengthAdjust="spacingAndGlyphs" textLength="7" x="487.4323" y="454.9813">*</text><!--link Account to Account--><path d="M482.659,276.332 C500.332,274.483 517.151,277.039 517.151,284 C517.151,290.254 503.575,292.952 488.001,292.095 " fill="none" id="Account-Account" style="stroke: #A80036; stroke-width: 1.0;"/><polygon fill="#A80036" points="482.659,291.668,491.3115,296.3727,487.6431,292.0666,491.9492,288.3981,482.659,291.668" style="stroke: #A80036; stroke-width: 1.0;"/><text fill="#000000" font-family="sans-serif" font-size="13" lengthAdjust="spacingAndGlyphs" textLength="94" x="523.151" y="288.0669">ParentAccount</text><text fill="#000000" font-family="sans-serif" font-size="13" lengthAdjust="spacingAndGlyphs" textLength="8" x="490.9251" y="287.5427">1</text></g></svg>