<?xml version="1.0" encoding="UTF-8" standalone="no"?><svg xmlns="http://www.w3.org/2000/svg" xmlns:xlink="http://www.w3.org/1999/xlink" contentScriptType="application/ecmascript" contentStyleType="text/css" height="920px" preserveAspectRatio="none" style="width:3491px;height:920px;" version="1.1" viewBox="0 0 3491 920" width="3491px" zoomAndPan="magnify"><defs><filter height="300%" id="fkpvj76zbk3mg" width="300%" x="-1" y="-1"><feGaussianBlur result="blurOut" stdDeviation="2.0"/><feColorMatrix in="blurOut" result="blurOut2" type="matrix" values="0 0 0 0 0 0 0 0 0 0 0 0 0 0 0 0 0 0 .4 0"/><feOffset dx="4.0" dy="4.0" in="blurOut2" result="blurOut3"/><feBlend in="SourceGraphic" in2="blurOut3" mode="normal"/></filter></defs><g><!--cluster ##2359--><!--cluster ##2374--><!--cluster ##2401--><!--cluster ##2410--><!--class Product--><a target="_top" xlink:actuate="onRequest" xlink:href="../Product.html" xlink:show="new" xlink:title="Item that is offered for sale. Products can be services or goods." xlink:type="simple"><rect fill="#FEFEEE" filter="url(#fkpvj76zbk3mg)" height="70.3828" id="Product" style="stroke: #A80036; stroke-width: 1.5;" width="171" x="274.75" y="40"/><rect fill="#FEFEEE" height="23.9688" style="stroke: #A80036; stroke-width: 1.5;" width="171" x="274.75" y="40"/><text fill="#000000" font-family="sans-serif" font-size="12" lengthAdjust="spacingAndGlyphs" textLength="49" x="335.75" y="56.1387">Product</text><line style="stroke: #A80036; stroke-width: 1.5;" x1="275.75" x2="444.75" y1="63.9688" y2="63.9688"/><ellipse cx="285.75" cy="75.8711" fill="#84BE84" rx="3" ry="3" style="stroke: #038048; stroke-width: 1.0;"/><text fill="#000000" font-family="sans-serif" font-size="11" lengthAdjust="spacingAndGlyphs" textLength="33" x="294.75" y="78.1792">Name</text><text fill="#000000" font-family="sans-serif" font-size="11" font-style="italic" lengthAdjust="spacingAndGlyphs" textLength="70" x="331.75" y="78.1792">(Max35Text)</text><ellipse cx="285.75" cy="88.6758" fill="#84BE84" rx="3" ry="3" style="stroke: #038048; stroke-width: 1.0;"/><text fill="#000000" font-family="sans-serif" font-size="11" lengthAdjust="spacingAndGlyphs" textLength="64" x="294.75" y="90.9839">Description</text><text fill="#000000" font-family="sans-serif" font-size="11" font-style="italic" lengthAdjust="spacingAndGlyphs" textLength="77" x="362.75" y="90.9839">(Max140Text)</text><ellipse cx="285.75" cy="101.4805" fill="#84BE84" rx="3" ry="3" style="stroke: #038048; stroke-width: 1.0;"/><text fill="#000000" font-family="sans-serif" font-size="11" lengthAdjust="spacingAndGlyphs" textLength="39" x="294.75" y="103.7886">Quality</text><text fill="#000000" font-family="sans-serif" font-size="11" font-style="italic" lengthAdjust="spacingAndGlyphs" textLength="70" x="337.75" y="103.7886">(Max70Text)</text></a><!--class Service--><a target="_top" xlink:actuate="onRequest" xlink:href="../Service.html" xlink:show="new" xlink:title="Service is the intangible equivalent of a good." xlink:type="simple"><rect fill="#FEFEEE" filter="url(#fkpvj76zbk3mg)" height="83.1875" id="Service" style="stroke: #A80036; stroke-width: 1.5;" width="283" x="162.75" y="188.5"/><rect fill="#FEFEEE" height="23.9688" style="stroke: #A80036; stroke-width: 1.5;" width="283" x="162.75" y="188.5"/><text fill="#000000" font-family="sans-serif" font-size="12" lengthAdjust="spacingAndGlyphs" textLength="45" x="281.75" y="204.6387">Service</text><line style="stroke: #A80036; stroke-width: 1.5;" x1="163.75" x2="444.75" y1="212.4688" y2="212.4688"/><ellipse cx="173.75" cy="224.3711" fill="#84BE84" rx="3" ry="3" style="stroke: #038048; stroke-width: 1.0;"/><text fill="#000000" font-family="sans-serif" font-size="11" lengthAdjust="spacingAndGlyphs" textLength="43" x="182.75" y="226.6792">Amount</text><text fill="#000000" font-family="sans-serif" font-size="11" font-style="italic" lengthAdjust="spacingAndGlyphs" textLength="126" x="229.75" y="226.6792">(CurrencyAndAmount)</text><ellipse cx="173.75" cy="237.1758" fill="#84BE84" rx="3" ry="3" style="stroke: #038048; stroke-width: 1.0;"/><text fill="#000000" font-family="sans-serif" font-size="11" lengthAdjust="spacingAndGlyphs" textLength="27" x="182.75" y="239.4839">Type</text><text fill="#000000" font-family="sans-serif" font-size="11" font-style="italic" lengthAdjust="spacingAndGlyphs" textLength="70" x="213.75" y="239.4839">(Max35Text)</text><ellipse cx="173.75" cy="249.9805" fill="#84BE84" rx="3" ry="3" style="stroke: #038048; stroke-width: 1.0;"/><text fill="#000000" font-family="sans-serif" font-size="11" lengthAdjust="spacingAndGlyphs" textLength="87" x="182.75" y="252.2886">TaxDesignation</text><text fill="#000000" font-family="sans-serif" font-size="11" font-style="italic" lengthAdjust="spacingAndGlyphs" textLength="166" x="273.75" y="252.2886">(ServiceTaxDesignationCode)</text><ellipse cx="173.75" cy="262.7852" fill="#84BE84" rx="3" ry="3" style="stroke: #038048; stroke-width: 1.0;"/><text fill="#000000" font-family="sans-serif" font-size="11" lengthAdjust="spacingAndGlyphs" textLength="25" x="182.75" y="265.0933">Rate</text><text fill="#000000" font-family="sans-serif" font-size="11" font-style="italic" lengthAdjust="spacingAndGlyphs" textLength="98" x="211.75" y="265.0933">(PercentageRate)</text></a><!--class FinancialService--><a target="_top" xlink:actuate="onRequest" xlink:href="../FinancialService.html" xlink:show="new" xlink:title="Services provided by a financial institution to its clients." xlink:type="simple"><rect fill="#FEFEEE" filter="url(#fkpvj76zbk3mg)" height="23.9688" id="FinancialService" style="stroke: #A80036; stroke-width: 1.5;" width="106" x="307.5" y="350"/><rect fill="#FEFEEE" height="23.9688" style="stroke: #A80036; stroke-width: 1.5;" width="106" x="307.5" y="350"/><text fill="#000000" font-family="sans-serif" font-size="12" lengthAdjust="spacingAndGlyphs" textLength="100" x="310.5" y="366.1387">FinancialService</text></a><!--class AccountService--><a target="_top" xlink:actuate="onRequest" xlink:href="../AccountService.html" xlink:show="new" xlink:title="Services linked to an account which are available to the account owner or to the holder of a mandate." xlink:type="simple"><rect fill="#FEFEEE" filter="url(#fkpvj76zbk3mg)" height="23.9688" id="AccountService" style="stroke: #A80036; stroke-width: 1.5;" width="102" x="328.5" y="452"/><rect fill="#FEFEEE" height="23.9688" style="stroke: #A80036; stroke-width: 1.5;" width="102" x="328.5" y="452"/><text fill="#000000" font-family="sans-serif" font-size="12" lengthAdjust="spacingAndGlyphs" textLength="96" x="331.5" y="468.1387">AccountService</text></a><!--class ReportingService--><a target="_top" xlink:actuate="onRequest" xlink:href="../ReportingService.html" xlink:show="new" xlink:title="Specifies the reporting parameters that are included in the account contract which specifies the services linked to the account.." xlink:type="simple"><rect fill="#FEFECE" filter="url(#fkpvj76zbk3mg)" height="70.3828" id="ReportingService" style="stroke: #A80036; stroke-width: 1.5;" width="300" x="146.5" y="554"/><rect fill="#FEFECE" height="23.9688" style="stroke: #A80036; stroke-width: 1.5;" width="300" x="146.5" y="554"/><text fill="#000000" font-family="sans-serif" font-size="12" lengthAdjust="spacingAndGlyphs" textLength="106" x="243.5" y="570.1387">ReportingService</text><line style="stroke: #A80036; stroke-width: 1.5;" x1="147.5" x2="445.5" y1="577.9688" y2="577.9688"/><ellipse cx="157.5" cy="589.8711" fill="#84BE84" rx="3" ry="3" style="stroke: #038048; stroke-width: 1.0;"/><text fill="#000000" font-family="sans-serif" font-size="11" lengthAdjust="spacingAndGlyphs" textLength="117" x="166.5" y="592.1792">StatementFrequency</text><text fill="#000000" font-family="sans-serif" font-size="11" font-style="italic" lengthAdjust="spacingAndGlyphs" textLength="96" x="287.5" y="592.1792">(FrequencyCode)</text><ellipse cx="157.5" cy="602.6758" fill="#84BE84" rx="3" ry="3" style="stroke: #038048; stroke-width: 1.0;"/><text fill="#000000" font-family="sans-serif" font-size="11" lengthAdjust="spacingAndGlyphs" textLength="134" x="166.5" y="604.9839">FloorNotificationAmount</text><text fill="#000000" font-family="sans-serif" font-size="11" font-style="italic" lengthAdjust="spacingAndGlyphs" textLength="126" x="304.5" y="604.9839">(CurrencyAndAmount)</text><ellipse cx="157.5" cy="615.4805" fill="#84BE84" rx="3" ry="3" style="stroke: #038048; stroke-width: 1.0;"/><text fill="#000000" font-family="sans-serif" font-size="11" lengthAdjust="spacingAndGlyphs" textLength="144" x="166.5" y="617.7886">CeilingNotificationAmount</text><text fill="#000000" font-family="sans-serif" font-size="11" font-style="italic" lengthAdjust="spacingAndGlyphs" textLength="126" x="314.5" y="617.7886">(CurrencyAndAmount)</text></a><!--class CardPayment--><a target="_top" xlink:actuate="onRequest" xlink:href="../CardPayment.html" xlink:show="new" xlink:title="Payment through an electronic money product." xlink:type="simple"><rect fill="#EEEEEE" filter="url(#fkpvj76zbk3mg)" height="23.9688" id="CardPayment" style="stroke: #A80036; stroke-width: 1.5;" width="89" x="2269.75" y="577"/><rect fill="#EEEEEE" height="23.9688" style="stroke: #A80036; stroke-width: 1.5;" width="89" x="2269.75" y="577"/><text fill="#000000" font-family="sans-serif" font-size="12" lengthAdjust="spacingAndGlyphs" textLength="83" x="2272.75" y="593.1387">CardPayment</text></a><!--class Price--><a target="_top" xlink:actuate="onRequest" xlink:href="../Price.html" xlink:show="new" xlink:title="Amount of money for which goods, services or assets are offered, sold, or bought." xlink:type="simple"><rect fill="#EEEEEE" filter="url(#fkpvj76zbk3mg)" height="23.9688" id="Price" style="stroke: #A80036; stroke-width: 1.5;" width="37" x="2320.75" y="452"/><rect fill="#EEEEEE" height="23.9688" style="stroke: #A80036; stroke-width: 1.5;" width="37" x="2320.75" y="452"/><text fill="#000000" font-family="sans-serif" font-size="12" lengthAdjust="spacingAndGlyphs" textLength="31" x="2323.75" y="468.1387">Price</text></a><!--class ProductCategory--><a target="_top" xlink:actuate="onRequest" xlink:href="../ProductCategory.html" xlink:show="new" xlink:title="Specifies the category of the product." xlink:type="simple"><rect fill="#EEEEEE" filter="url(#fkpvj76zbk3mg)" height="23.9688" id="ProductCategory" style="stroke: #A80036; stroke-width: 1.5;" width="111" x="2247.75" y="350"/><rect fill="#EEEEEE" height="23.9688" style="stroke: #A80036; stroke-width: 1.5;" width="111" x="2247.75" y="350"/><text fill="#000000" font-family="sans-serif" font-size="12" lengthAdjust="spacingAndGlyphs" textLength="105" x="2250.75" y="366.1387">ProductCategory</text></a><!--class LineItem--><a target="_top" xlink:actuate="onRequest" xlink:href="../LineItem.html" xlink:show="new" xlink:title="Unit of information  showing the related  provision of products and/or services and monetary summations reported as a discrete line item." xlink:type="simple"><rect fill="#EEEEEE" filter="url(#fkpvj76zbk3mg)" height="23.9688" id="LineItem" style="stroke: #A80036; stroke-width: 1.5;" width="58" x="1120.5" y="218"/><rect fill="#EEEEEE" height="23.9688" style="stroke: #A80036; stroke-width: 1.5;" width="58" x="1120.5" y="218"/><text fill="#000000" font-family="sans-serif" font-size="12" lengthAdjust="spacingAndGlyphs" textLength="52" x="1123.5" y="234.1387">LineItem</text></a><!--class ProductIdentification--><a target="_top" xlink:actuate="onRequest" xlink:href="../ProductIdentification.html" xlink:show="new" xlink:title="Information used to identify a product." xlink:type="simple"><rect fill="#EEEEEE" filter="url(#fkpvj76zbk3mg)" height="23.9688" id="ProductIdentification" style="stroke: #A80036; stroke-width: 1.5;" width="136" x="2133" y="706"/><rect fill="#EEEEEE" height="23.9688" style="stroke: #A80036; stroke-width: 1.5;" width="136" x="2133" y="706"/><text fill="#000000" font-family="sans-serif" font-size="12" lengthAdjust="spacingAndGlyphs" textLength="130" x="2136" y="722.1387">ProductIdentification</text></a><!--class Country--><a target="_top" xlink:actuate="onRequest" xlink:href="../Country.html" xlink:show="new" xlink:title="Nation with its own government." xlink:type="simple"><rect fill="#EEEEEE" filter="url(#fkpvj76zbk3mg)" height="23.9688" id="Country" style="stroke: #A80036; stroke-width: 1.5;" width="54" x="2180" y="577"/><rect fill="#EEEEEE" height="23.9688" style="stroke: #A80036; stroke-width: 1.5;" width="54" x="2180" y="577"/><text fill="#000000" font-family="sans-serif" font-size="12" lengthAdjust="spacingAndGlyphs" textLength="48" x="2183" y="593.1387">Country</text></a><!--class ProductCharacteristics--><a target="_top" xlink:actuate="onRequest" xlink:href="../ProductCharacteristics.html" xlink:show="new" xlink:title="Identifies the characteristic of a product." xlink:type="simple"><rect fill="#EEEEEE" filter="url(#fkpvj76zbk3mg)" height="23.9688" id="ProductCharacteristics" style="stroke: #A80036; stroke-width: 1.5;" width="149" x="2132.75" y="452"/><rect fill="#EEEEEE" height="23.9688" style="stroke: #A80036; stroke-width: 1.5;" width="149" x="2132.75" y="452"/><text fill="#000000" font-family="sans-serif" font-size="12" lengthAdjust="spacingAndGlyphs" textLength="143" x="2135.75" y="468.1387">ProductCharacteristics</text></a><!--class ProductQuantity--><a target="_top" xlink:actuate="onRequest" xlink:href="../ProductQuantity.html" xlink:show="new" xlink:title="Specifies the ordered quantity of a product." xlink:type="simple"><rect fill="#EEEEEE" filter="url(#fkpvj76zbk3mg)" height="23.9688" id="ProductQuantity" style="stroke: #A80036; stroke-width: 1.5;" width="107" x="1898.75" y="350"/><rect fill="#EEEEEE" height="23.9688" style="stroke: #A80036; stroke-width: 1.5;" width="107" x="1898.75" y="350"/><text fill="#000000" font-family="sans-serif" font-size="12" lengthAdjust="spacingAndGlyphs" textLength="101" x="1901.75" y="366.1387">ProductQuantity</text></a><!--class ProductDelivery--><a target="_top" xlink:actuate="onRequest" xlink:href="../ProductDelivery.html" xlink:show="new" xlink:title="Arrangements for delivery of invoiced products and/or services." xlink:type="simple"><rect fill="#EEEEEE" filter="url(#fkpvj76zbk3mg)" height="23.9688" id="ProductDelivery" style="stroke: #A80036; stroke-width: 1.5;" width="103" x="2254.75" y="886"/><rect fill="#EEEEEE" height="23.9688" style="stroke: #A80036; stroke-width: 1.5;" width="103" x="2254.75" y="886"/><text fill="#000000" font-family="sans-serif" font-size="12" lengthAdjust="spacingAndGlyphs" textLength="97" x="2257.75" y="902.1387">ProductDelivery</text></a><!--class PurchaseOrder--><a target="_top" xlink:actuate="onRequest" xlink:href="../PurchaseOrder.html" xlink:show="new" xlink:title="Document issued by a buyer and containing the details of a purchase, including description of goods, transport information, payment terms, etc." xlink:type="simple"><rect fill="#EEEEEE" filter="url(#fkpvj76zbk3mg)" height="23.9688" id="PurchaseOrder" style="stroke: #A80036; stroke-width: 1.5;" width="100" x="2258" y="796"/><rect fill="#EEEEEE" height="23.9688" style="stroke: #A80036; stroke-width: 1.5;" width="100" x="2258" y="796"/><text fill="#000000" font-family="sans-serif" font-size="12" lengthAdjust="spacingAndGlyphs" textLength="94" x="2261" y="812.1387">PurchaseOrder</text></a><!--class Tax--><a target="_top" xlink:actuate="onRequest" xlink:href="../Tax.html" xlink:show="new" xlink:title="Amount of money due to the government or tax authority, according to various pre-defined parameters such as thresholds or income." xlink:type="simple"><rect fill="#EEEEEE" filter="url(#fkpvj76zbk3mg)" height="23.9688" id="Tax" style="stroke: #A80036; stroke-width: 1.5;" width="27" x="2304.75" y="706"/><rect fill="#EEEEEE" height="23.9688" style="stroke: #A80036; stroke-width: 1.5;" width="27" x="2304.75" y="706"/><text fill="#000000" font-family="sans-serif" font-size="12" lengthAdjust="spacingAndGlyphs" textLength="21" x="2307.75" y="722.1387">Tax</text></a><!--entity ##2397--><!--entity ##2399--><!--class AccountContract--><a target="_top" xlink:actuate="onRequest" xlink:href="../AccountContract.html" xlink:show="new" xlink:title="Agreement between an account servicer and an account owner about the services linked to an account." xlink:type="simple"><rect fill="#EEEEEE" filter="url(#fkpvj76zbk3mg)" height="23.9688" id="AccountContract" style="stroke: #A80036; stroke-width: 1.5;" width="111" x="501.75" y="577"/><rect fill="#EEEEEE" height="23.9688" style="stroke: #A80036; stroke-width: 1.5;" width="111" x="501.75" y="577"/><text fill="#000000" font-family="sans-serif" font-size="12" lengthAdjust="spacingAndGlyphs" textLength="105" x="504.75" y="593.1387">AccountContract</text></a><!--class Reservation--><a target="_top" xlink:actuate="onRequest" xlink:href="../Reservation.html" xlink:show="new" xlink:title="Liquidity set aside by the payer for specific purposes." xlink:type="simple"><rect fill="#EEEEEE" filter="url(#fkpvj76zbk3mg)" height="23.9688" id="Reservation" style="stroke: #A80036; stroke-width: 1.5;" width="80" x="528" y="796"/><rect fill="#EEEEEE" height="23.9688" style="stroke: #A80036; stroke-width: 1.5;" width="80" x="528" y="796"/><text fill="#000000" font-family="sans-serif" font-size="12" lengthAdjust="spacingAndGlyphs" textLength="74" x="531" y="812.1387">Reservation</text></a><!--class Account--><a target="_top" xlink:actuate="onRequest" xlink:href="../Account.html" xlink:show="new" xlink:title="Record of transactions in specific types of assets, maintained by a servicing party on behalf of one or more owning parties. Business relationship between an account servicer and one or more account owners." xlink:type="simple"><rect fill="#EEEEEE" filter="url(#fkpvj76zbk3mg)" height="23.9688" id="Account" style="stroke: #A80036; stroke-width: 1.5;" width="57" x="539.75" y="706"/><rect fill="#EEEEEE" height="23.9688" style="stroke: #A80036; stroke-width: 1.5;" width="57" x="539.75" y="706"/><text fill="#000000" font-family="sans-serif" font-size="12" lengthAdjust="spacingAndGlyphs" textLength="51" x="542.75" y="722.1387">Account</text></a><!--class Charges--><a target="_top" xlink:actuate="onRequest" xlink:href="../Charges.html" xlink:show="new" xlink:title="Amount of money associated with a service." xlink:type="simple"><rect fill="#EEEEEE" filter="url(#fkpvj76zbk3mg)" height="23.9688" id="Charges" style="stroke: #A80036; stroke-width: 1.5;" width="58" x="647.5" y="577"/><rect fill="#EEEEEE" height="23.9688" style="stroke: #A80036; stroke-width: 1.5;" width="58" x="647.5" y="577"/><text fill="#000000" font-family="sans-serif" font-size="12" lengthAdjust="spacingAndGlyphs" textLength="52" x="650.5" y="593.1387">Charges</text></a><!--class ContactPoint--><a target="_top" xlink:actuate="onRequest" xlink:href="../ContactPoint.html" xlink:show="new" xlink:title="Number, physical or virtual address, used for communication." xlink:type="simple"><rect fill="#EEEEEE" filter="url(#fkpvj76zbk3mg)" height="23.9688" id="ContactPoint" style="stroke: #A80036; stroke-width: 1.5;" width="87" x="38.75" y="796"/><rect fill="#EEEEEE" height="23.9688" style="stroke: #A80036; stroke-width: 1.5;" width="87" x="38.75" y="796"/><text fill="#000000" font-family="sans-serif" font-size="12" lengthAdjust="spacingAndGlyphs" textLength="81" x="41.75" y="812.1387">ContactPoint</text></a><!--class InvestmentAccountService--><a target="_top" xlink:actuate="onRequest" xlink:href="../InvestmentAccountService.html" xlink:show="new" xlink:title="Services linked to an account which are available to the account owner or to the holder of a mandate. The exercise of these services may be submitted to a limit." xlink:type="simple"><rect fill="#EEEEEE" filter="url(#fkpvj76zbk3mg)" height="23.9688" id="InvestmentAccountService" style="stroke: #A80036; stroke-width: 1.5;" width="171" x="38.75" y="706"/><rect fill="#EEEEEE" height="23.9688" style="stroke: #A80036; stroke-width: 1.5;" width="171" x="38.75" y="706"/><text fill="#000000" font-family="sans-serif" font-size="12" lengthAdjust="spacingAndGlyphs" textLength="165" x="41.75" y="722.1387">InvestmentAccountService</text></a><!--link Product to Service--><path d="M340.552,129.136 C333.456,148.523 325.549,170.125 318.91,188.264 " fill="none" id="Product-Service" style="stroke: #A80036; stroke-width: 1.0;"/><polygon fill="none" points="333.985,126.712,347.433,110.336,347.132,131.524,333.985,126.712" style="stroke: #A80036; stroke-width: 1.0;"/><!--link Service to FinancialService--><path d="M329.529,290.264 C339.245,312.82 349.362,336.304 355.149,349.738 " fill="none" id="Service-FinancialService" style="stroke: #A80036; stroke-width: 1.0;"/><polygon fill="none" points="323.049,292.914,321.565,271.776,335.907,287.375,323.049,292.914" style="stroke: #A80036; stroke-width: 1.0;"/><!--link FinancialService to AccountService--><path d="M365.862,393.855 C369.607,413.565 374.241,437.951 376.885,451.867 " fill="none" id="FinancialService-AccountService" style="stroke: #A80036; stroke-width: 1.0;"/><polygon fill="none" points="358.962,395.039,362.106,374.084,372.716,392.426,358.962,395.039" style="stroke: #A80036; stroke-width: 1.0;"/><!--link AccountService to ReportingService--><path d="M339.777,487.297 C332.767,492.688 326.087,498.959 321,506 C310.889,519.994 304.808,538.142 301.181,553.807 " fill="none" id="AccountService-ReportingService" style="stroke: #A80036; stroke-width: 1.0;"/><polygon fill="none" points="336.119,481.323,356.647,476.07,343.875,492.978,336.119,481.323" style="stroke: #A80036; stroke-width: 1.0;"/><!--link Price to CardPayment--><!--link ProductCategory to Price--><!--link LineItem to ProductCategory--><!--link ProductIdentification to LineItem--><!--link Country to ProductIdentification--><!--link ProductCharacteristics to Country--><!--link ProductQuantity to ProductCharacteristics--><!--link ProductDelivery to ProductQuantity--><!--link PurchaseOrder to ProductDelivery--><!--link Tax to PurchaseOrder--><!--link Reservation to AccountContract--><!--link Account to Reservation--><!--link Charges to Account--><!--link InvestmentAccountService to ContactPoint--><!--link Product to CardPayment--><path d="M445.363,77.063 C829.503,82.032 2388.51,104.248 2604,140 C2675.14,151.803 2705.38,139.769 2759,188 C2822.01,244.679 2851.8,306.168 2801,374 C2692.39,519.018 2464.23,567.448 2363.54,582.162 " fill="none" id="Product-CardPayment" style="stroke: #A80036; stroke-width: 1.0;"/><polygon fill="#A80036" points="2358.55,582.879,2368.029,585.5526,2363.4987,582.1649,2366.8865,577.6346,2358.55,582.879" style="stroke: #A80036; stroke-width: 1.0;"/><text fill="#000000" font-family="sans-serif" font-size="13" lengthAdjust="spacingAndGlyphs" textLength="87" x="2816" y="366.0669">CardPayment</text><text fill="#000000" font-family="sans-serif" font-size="13" lengthAdjust="spacingAndGlyphs" textLength="8" x="2366.8516" y="576.447">1</text><!--link Product to Price--><path d="M445.311,76.596 C768.093,79.201 1914.56,91.72 2276,140 C2367.89,152.275 2404.05,133.429 2479,188 C2532.52,226.966 2578.88,261.447 2548,320 C2508.02,395.791 2407.78,439.063 2362.2,455.402 " fill="none" id="Product-Price" style="stroke: #A80036; stroke-width: 1.0;"/><polygon fill="#A80036" points="2357.44,457.082,2367.2571,457.872,2362.1572,455.4243,2364.6049,450.3244,2357.44,457.082" style="stroke: #A80036; stroke-width: 1.0;"/><text fill="#000000" font-family="sans-serif" font-size="13" lengthAdjust="spacingAndGlyphs" textLength="57" x="2556" y="315.0669">UnitPrice</text><text fill="#000000" font-family="sans-serif" font-size="13" lengthAdjust="spacingAndGlyphs" textLength="7" x="2365.7093" y="447.3021">*</text><!--link Product to Price--><path d="M445.529,75.895 C779.419,75.921 1995.36,80.209 2376,140 C2452.29,151.984 2480.12,143.167 2543,188 C2598.86,227.825 2654.71,259.168 2623,320 C2570.74,420.263 2420.31,451.627 2362.25,460.161 " fill="none" id="Product-Price" style="stroke: #A80036; stroke-width: 1.0;"/><polygon fill="#A80036" points="2357.25,460.872,2366.729,463.5456,2362.1987,460.1579,2365.5865,455.6276,2357.25,460.872" style="stroke: #A80036; stroke-width: 1.0;"/><text fill="#000000" font-family="sans-serif" font-size="13" lengthAdjust="spacingAndGlyphs" textLength="54" x="2630" y="315.0669">NetPrice</text><text fill="#000000" font-family="sans-serif" font-size="13" lengthAdjust="spacingAndGlyphs" textLength="24" x="2365.6875" y="474.1916">0..1</text><!--link Product to Price--><path d="M445.482,75.542 C787.813,74.182 2060.35,73.785 2457,140 C2528.13,151.875 2553.46,145.877 2612,188 C2668.06,228.341 2725.87,258.727 2694,320 C2629.46,444.095 2431.01,460.796 2362.53,462.814 " fill="none" id="Product-Price" style="stroke: #A80036; stroke-width: 1.0;"/><polygon fill="#A80036" points="2357.44,462.943,2366.5399,466.7103,2362.4383,462.8144,2366.3342,458.7129,2357.44,462.943" style="stroke: #A80036; stroke-width: 1.0;"/><text fill="#000000" font-family="sans-serif" font-size="13" lengthAdjust="spacingAndGlyphs" textLength="68" x="2701" y="315.0669">GrossPrice</text><text fill="#000000" font-family="sans-serif" font-size="13" lengthAdjust="spacingAndGlyphs" textLength="24" x="2365.9309" y="456.3451">0..1</text><!--link Product to ProductCategory--><path d="M445.263,77.884 C810.903,86.348 2230.86,123.292 2299,188 C2342.19,229.014 2320.88,310.256 2309.07,344.822 " fill="none" id="Product-ProductCategory" style="stroke: #A80036; stroke-width: 1.0;"/><polygon fill="#A80036" points="2307.41,349.573,2314.1625,342.4033,2309.0643,344.8546,2306.613,339.7564,2307.41,349.573" style="stroke: #A80036; stroke-width: 1.0;"/><text fill="#000000" font-family="sans-serif" font-size="13" lengthAdjust="spacingAndGlyphs" textLength="107" x="2325" y="234.0669">ProductCategory</text><text fill="#000000" font-family="sans-serif" font-size="13" lengthAdjust="spacingAndGlyphs" textLength="7" x="2299.3016" y="338.9956">*</text><!--link Product to LineItem--><path d="M445.562,92.592 C617.933,126.017 1000.342,200.173 1115.53,222.51 " fill="none" id="Product-LineItem" style="stroke: #A80036; stroke-width: 1.0;"/><polygon fill="#A80036" points="1120.49,223.471,1112.4061,217.8451,1115.5798,222.5278,1110.897,225.7015,1120.49,223.471" style="stroke: #A80036; stroke-width: 1.0;"/><text fill="#000000" font-family="sans-serif" font-size="13" lengthAdjust="spacingAndGlyphs" textLength="55" x="780" y="153.0669">LineItem</text><text fill="#000000" font-family="sans-serif" font-size="13" lengthAdjust="spacingAndGlyphs" textLength="24" x="1088.5321" y="217.0623">0..1</text><!--link Product to ProductIdentification--><path d="M445.479,76.72 C838.374,80.249 2461.27,97.308 2684,140 C2744.9,151.673 2767.14,148.578 2815,188 C2887.12,247.404 2960.52,293.544 2913,374 C2776.75,604.71 2621.11,539.776 2376,648 C2347.54,660.567 2340.22,663.298 2311,674 C2300.44,677.867 2297.55,678.101 2287,682 C2268.5,688.839 2248.04,697.135 2231.72,703.933 " fill="none" id="Product-ProductIdentification" style="stroke: #A80036; stroke-width: 1.0;"/><polygon fill="#A80036" points="2226.8,705.992,2236.6464,706.2109,2231.4131,704.0633,2233.5606,698.83,2226.8,705.992" style="stroke: #A80036; stroke-width: 1.0;"/><text fill="#000000" font-family="sans-serif" font-size="13" lengthAdjust="spacingAndGlyphs" textLength="130" x="2894" y="417.0669">ProductIdentification</text><text fill="#000000" font-family="sans-serif" font-size="13" lengthAdjust="spacingAndGlyphs" textLength="7" x="2226.1219" y="695.0375">*</text><!--link Product to Country--><path d="M445.452,77.104 C822.047,82.161 2324.12,104.406 2532,140 C2600.99,151.813 2623.75,149.188 2682,188 C2742.59,228.369 2814.19,256.264 2779,320 C2713.77,438.156 2286.12,534.235 2252,553 C2241.72,558.656 2231.3,566.583 2223.09,573.463 " fill="none" id="Product-Country" style="stroke: #A80036; stroke-width: 1.0;"/><polygon fill="#A80036" points="2219.24,576.742,2228.6847,573.9494,2223.0457,573.4991,2223.496,567.8602,2219.24,576.742" style="stroke: #A80036; stroke-width: 1.0;"/><text fill="#000000" font-family="sans-serif" font-size="13" lengthAdjust="spacingAndGlyphs" textLength="37" x="2754" y="366.0669">Origin</text><text fill="#000000" font-family="sans-serif" font-size="13" lengthAdjust="spacingAndGlyphs" textLength="8" x="2212.6382" y="565.96">1</text><!--link Product to ProductCharacteristics--><path d="M445.37,77.22 C828.709,83.123 2375.25,111.617 2442,188 C2499.72,254.05 2440.74,314.814 2376,374 C2336.77,409.867 2280.4,435.713 2243.74,450.024 " fill="none" id="Product-ProductCharacteristics" style="stroke: #A80036; stroke-width: 1.0;"/><polygon fill="#A80036" points="2238.93,451.881,2248.7666,452.3725,2243.5947,450.0808,2245.8863,444.909,2238.93,451.881" style="stroke: #A80036; stroke-width: 1.0;"/><text fill="#000000" font-family="sans-serif" font-size="13" lengthAdjust="spacingAndGlyphs" textLength="95" x="2443" y="315.0669">Characteristics</text><text fill="#000000" font-family="sans-serif" font-size="13" lengthAdjust="spacingAndGlyphs" textLength="7" x="2240.2731" y="440.8883">*</text><!--link Product to ProductQuantity--><path d="M445.329,79.481 C801.883,94.883 2159.84,162.407 2284,302 C2321.35,343.996 2115.91,356.185 2010.86,359.656 " fill="none" id="Product-ProductQuantity" style="stroke: #A80036; stroke-width: 1.0;"/><polygon fill="#A80036" points="2005.63,359.824,2014.7618,363.5131,2010.6271,359.6526,2014.4876,355.5178,2005.63,359.824" style="stroke: #A80036; stroke-width: 1.0;"/><text fill="#000000" font-family="sans-serif" font-size="13" lengthAdjust="spacingAndGlyphs" textLength="54" x="2235" y="234.0669">Quantity</text><text fill="#000000" font-family="sans-serif" font-size="13" lengthAdjust="spacingAndGlyphs" textLength="7" x="2013.6288" y="354.4011">*</text><!--link Product to ProductDelivery--><path d="M445.634,75.678 C941.921,74.362 3427,75.434 3427,229 C3427,229 3427,229 3427,809 C3427,862.9613 2590.56,889.3605 2362.72,895.5504 " fill="none" id="Product-ProductDelivery" style="stroke: #A80036; stroke-width: 1.0;"/><polygon fill="#A80036" points="2357.45,895.6929,2366.5499,899.4601,2362.4483,895.5643,2366.3442,891.4628,2357.45,895.6929" style="stroke: #A80036; stroke-width: 1.0;"/><text fill="#000000" font-family="sans-serif" font-size="13" lengthAdjust="spacingAndGlyphs" textLength="51" x="3428" y="519.0669">Delivery</text><text fill="#000000" font-family="sans-serif" font-size="13" lengthAdjust="spacingAndGlyphs" textLength="8" x="2365.9025" y="890.1175">1</text><!--link Product to PurchaseOrder--><path d="M445.298,75.904 C926.07,75.907 3276,83.372 3276,229 C3276,229 3276,229 3276,719 C3276,765.178 2568.12,796.73 2363.05,804.902 " fill="none" id="Product-PurchaseOrder" style="stroke: #A80036; stroke-width: 1.0;"/><polygon fill="#A80036" points="2358.01,805.103,2367.1628,808.7399,2363.006,804.903,2366.8428,800.7463,2358.01,805.103" style="stroke: #A80036; stroke-width: 1.0;"/><text fill="#000000" font-family="sans-serif" font-size="13" lengthAdjust="spacingAndGlyphs" textLength="95" x="3277" y="468.0669">PurchaseOrder</text><text fill="#000000" font-family="sans-serif" font-size="13" lengthAdjust="spacingAndGlyphs" textLength="7" x="2365.8693" y="799.508">*</text><!--link Product to Tax--><path d="M445.253,76.706 C844.665,80.227 2521.07,97.44 2751,140 C2814.03,151.666 2836.22,148.889 2887,188 C2984.31,262.939 3099.46,318.08 3034,422 C2870.84,681.016 2431.5,712.649 2336.34,716.478 " fill="none" id="Product-Tax" style="stroke: #A80036; stroke-width: 1.0;"/><polygon fill="#A80036" points="2331.32,716.666,2340.4624,720.3289,2336.3165,716.4803,2340.1652,712.3344,2331.32,716.666" style="stroke: #A80036; stroke-width: 1.0;"/><text fill="#000000" font-family="sans-serif" font-size="13" lengthAdjust="spacingAndGlyphs" textLength="22" x="3044" y="417.0669">Tax</text><text fill="#000000" font-family="sans-serif" font-size="13" lengthAdjust="spacingAndGlyphs" textLength="7" x="2339.8121" y="707.735">*</text><!--link AccountService to AccountContract--><path d="M370.244,476.028 C361.31,488.711 350.175,509.63 361,524 C389.1,561.303 417.614,538.473 462,553 C482.614,559.747 505.428,568.121 523.531,574.987 " fill="none" id="AccountService-AccountContract" style="stroke: #A80036; stroke-width: 1.0;"/><polygon fill="#A80036" points="528.507,576.881,521.5204,569.9393,523.8345,575.1011,518.6726,577.4152,528.507,576.881" style="stroke: #A80036; stroke-width: 1.0;"/><text fill="#000000" font-family="sans-serif" font-size="13" lengthAdjust="spacingAndGlyphs" textLength="107" x="362" y="519.0669">AccountContract</text><text fill="#000000" font-family="sans-serif" font-size="13" lengthAdjust="spacingAndGlyphs" textLength="7" x="509.0797" y="565.8883">*</text><!--link AccountService to Reservation--><path d="M429.605,466.809 C515.752,470.535 686.833,480.92 741,506 C768.676,518.815 778.894,525.007 791,553 C823.932,629.154 800.828,677.81 738,732 C701.53,763.455 649.779,783.73 612.974,795.167 " fill="none" id="AccountService-Reservation" style="stroke: #A80036; stroke-width: 1.0;"/><polygon fill="#A80036" points="608.11,796.654,617.8861,797.8486,612.8916,795.1925,615.5478,790.198,608.11,796.654" style="stroke: #A80036; stroke-width: 1.0;"/><text fill="#000000" font-family="sans-serif" font-size="13" lengthAdjust="spacingAndGlyphs" textLength="75" x="800" y="669.0669">Reservation</text><text fill="#000000" font-family="sans-serif" font-size="13" lengthAdjust="spacingAndGlyphs" textLength="8" x="615.9671" y="789.2004">1</text><!--link AccountService to Account--><path d="M429.829,464.556 C511.924,464.917 668.605,470.412 709,506 C737.336,530.964 724.704,642.267 721,648 C694.702,688.708 637.995,705.646 601.491,712.517 " fill="none" id="AccountService-Account" style="stroke: #A80036; stroke-width: 1.0;"/><polygon fill="#A80036" points="596.258,713.459,605.8243,715.8011,601.1789,712.5731,604.4069,707.9277,596.258,713.459" style="stroke: #A80036; stroke-width: 1.0;"/><text fill="#000000" font-family="sans-serif" font-size="13" lengthAdjust="spacingAndGlyphs" textLength="52" x="729" y="593.0669">Account</text><text fill="#000000" font-family="sans-serif" font-size="13" lengthAdjust="spacingAndGlyphs" textLength="8" x="604.8602" y="706.0432">1</text><!--link AccountService to Charges--><path d="M406.088,476.059 C425.424,484.077 451.976,495.339 475,506 C491.233,513.516 494.21,517.827 511,524 C561.688,542.636 580.151,529.971 629,553 C640.072,558.22 651.117,566.264 659.716,573.324 " fill="none" id="AccountService-Charges" style="stroke: #A80036; stroke-width: 1.0;"/><polygon fill="#A80036" points="663.731,576.695,659.4104,567.8444,659.9017,573.4799,654.2663,573.9712,663.731,576.695" style="stroke: #A80036; stroke-width: 1.0;"/><text fill="#000000" font-family="sans-serif" font-size="13" lengthAdjust="spacingAndGlyphs" textLength="191" x="512" y="519.0669">AccountAdministrationCharge</text><text fill="#000000" font-family="sans-serif" font-size="13" lengthAdjust="spacingAndGlyphs" textLength="24" x="630.195" y="565.8974">0..1</text><!--link ReportingService to ContactPoint--><path d="M306.169,624.25 C308.994,640.127 309.521,658.799 302,674 C268.762,741.177 184.462,777.452 130.395,794.46 " fill="none" id="ReportingService-ContactPoint" style="stroke: #A80036; stroke-width: 1.0;"/><polygon fill="#A80036" points="125.584,795.948,135.364,797.1108,130.3609,794.4709,133.0007,789.4678,125.584,795.948" style="stroke: #A80036; stroke-width: 1.0;"/><text fill="#000000" font-family="sans-serif" font-size="13" lengthAdjust="spacingAndGlyphs" textLength="113" x="298" y="722.0669">ReportingChannel</text><text fill="#000000" font-family="sans-serif" font-size="13" lengthAdjust="spacingAndGlyphs" textLength="7" x="130.9332" y="784.9783">*</text><!--link ReportingService to InvestmentAccountService--><path d="M146.483,620.717 C113.932,630.49 86.1462,642.363 76,656 C63.8383,672.346 82.7828,690.66 100.3342,702.917 " fill="none" id="ReportingService-InvestmentAccountService" style="stroke: #A80036; stroke-width: 1.0;"/><polygon fill="#A80036" points="104.7466,705.898,99.5282,697.5452,100.6035,703.099,95.0498,704.1742,104.7466,705.898" style="stroke: #A80036; stroke-width: 1.0;"/><text fill="#000000" font-family="sans-serif" font-size="13" lengthAdjust="spacingAndGlyphs" textLength="219" x="77" y="669.0669">RelatedInvestmentAccountService</text><text fill="#000000" font-family="sans-serif" font-size="13" lengthAdjust="spacingAndGlyphs" textLength="8" x="87.3236" y="694.9112">1</text><!--link LineItem to Charges--><path d="M1120.44,230.281 C1066.81,230.524 950.468,238.846 884,302 C849.458,334.819 862.093,357.662 851,404 C838.429,456.514 868.585,484.285 832,524 C795.118,564.038 760.816,526.981 713,553 C703.694,558.064 694.995,566.054 688.372,573.122 " fill="none" id="LineItem-Charges" style="stroke: #A80036; stroke-width: 1.0;"/><polygon fill="#A80036" points="684.916,576.93,693.9278,572.9566,688.2774,573.2286,688.0054,567.5782,684.916,576.93" style="stroke: #A80036; stroke-width: 1.0;"/><text fill="#000000" font-family="sans-serif" font-size="13" lengthAdjust="spacingAndGlyphs" textLength="101" x="852" y="417.0669">LogisticsCharge</text><text fill="#000000" font-family="sans-serif" font-size="13" lengthAdjust="spacingAndGlyphs" textLength="7" x="689.0121" y="565.9542">*</text><!--link LineItem to Charges--><path d="M1120.46,230.596 C1072.27,231.657 975.741,241.666 932,302 C899.913,346.259 978.886,371.078 959,422 C936.575,479.425 918.882,494.047 865,524 C804.889,557.415 774.221,521.665 713,553 C703.569,557.827 694.862,565.802 688.266,572.921 " fill="none" id="LineItem-Charges" style="stroke: #A80036; stroke-width: 1.0;"/><polygon fill="#A80036" points="684.828,576.763,693.8106,572.724,688.1624,573.0372,687.8492,567.389,684.828,576.763" style="stroke: #A80036; stroke-width: 1.0;"/><text fill="#000000" font-family="sans-serif" font-size="13" lengthAdjust="spacingAndGlyphs" textLength="53" x="964" y="417.0669">Charges</text><text fill="#000000" font-family="sans-serif" font-size="13" lengthAdjust="spacingAndGlyphs" textLength="7" x="678.096" y="565.9879">*</text><!--link LineItem to Charges--><path d="M1120.25,233.849 C1066.86,240.04 949.838,257.884 862,302 C798.23,334.028 774.929,342.937 738,404 C709.808,450.617 732.435,473.106 713,524 C706.312,541.513 695.211,559.876 686.91,572.418 " fill="none" id="LineItem-Charges" style="stroke: #A80036; stroke-width: 1.0;"/><polygon fill="#A80036" points="683.992,576.763,692.3317,571.5237,686.7806,572.6129,685.6915,567.0619,683.992,576.763" style="stroke: #A80036; stroke-width: 1.0;"/><text fill="#000000" font-family="sans-serif" font-size="13" lengthAdjust="spacingAndGlyphs" textLength="100" x="739" y="417.0669">NetPriceCharge</text><text fill="#000000" font-family="sans-serif" font-size="13" lengthAdjust="spacingAndGlyphs" textLength="8" x="675.8175" y="565.9879">1</text><!--link LineItem to ProductQuantity--><path d="M1120.46,234.786 C1059.2,243.958 924.385,270.352 972,320 C1003.999,353.365 1687.04,359.627 1893.44,360.759 " fill="none" id="LineItem-ProductQuantity" style="stroke: #A80036; stroke-width: 1.0;"/><polygon fill="#A80036" points="1898.53,360.787,1889.5415,356.7613,1893.53,360.7727,1889.5186,364.7613,1898.53,360.787" style="stroke: #A80036; stroke-width: 1.0;"/><text fill="#000000" font-family="sans-serif" font-size="13" lengthAdjust="spacingAndGlyphs" textLength="66" x="973" y="315.0669">NetWeight</text><text fill="#000000" font-family="sans-serif" font-size="13" lengthAdjust="spacingAndGlyphs" textLength="8" x="1882.7405" y="355.7403">1</text><!--link LineItem to ProductQuantity--><path d="M1130.03,242.017 C1102.24,259.461 1056.3,294.112 1081,320 C1109.03,349.384 1702.22,358.316 1893.27,360.436 " fill="none" id="LineItem-ProductQuantity" style="stroke: #A80036; stroke-width: 1.0;"/><polygon fill="#A80036" points="1898.53,360.493,1889.5763,356.3904,1893.5303,360.4358,1889.4849,364.3899,1898.53,360.493" style="stroke: #A80036; stroke-width: 1.0;"/><text fill="#000000" font-family="sans-serif" font-size="13" lengthAdjust="spacingAndGlyphs" textLength="88" x="1082" y="315.0669">BilledQuantity</text><text fill="#000000" font-family="sans-serif" font-size="13" lengthAdjust="spacingAndGlyphs" textLength="7" x="1883.7983" y="373.2623">*</text><!--link LineItem to ProductQuantity--><path d="M1153.13,242.226 C1161.07,262.001 1180.52,302.596 1212,320 C1270.97,352.605 1728.9,359.303 1893.4,360.66 " fill="none" id="LineItem-ProductQuantity" style="stroke: #A80036; stroke-width: 1.0;"/><polygon fill="#A80036" points="1898.66,360.703,1889.6946,356.626,1893.6602,360.6601,1889.626,364.6257,1898.66,360.703" style="stroke: #A80036; stroke-width: 1.0;"/><text fill="#000000" font-family="sans-serif" font-size="13" lengthAdjust="spacingAndGlyphs" textLength="128" x="1213" y="315.0669">ChargeFreeQuantity</text><text fill="#000000" font-family="sans-serif" font-size="13" lengthAdjust="spacingAndGlyphs" textLength="7" x="1883.9461" y="353.9161">*</text><!--link LineItem to ProductQuantity--><path d="M1177.61,240.066 C1216.48,252.651 1287.9,276.736 1347,302 C1363.45,309.032 1365.75,315.267 1383,320 C1477.91,346.042 1768.4,356.36 1893.59,359.673 " fill="none" id="LineItem-ProductQuantity" style="stroke: #A80036; stroke-width: 1.0;"/><polygon fill="#A80036" points="1898.7,359.806,1889.8179,355.5505,1893.702,359.6632,1889.5894,363.5473,1898.7,359.806" style="stroke: #A80036; stroke-width: 1.0;"/><text fill="#000000" font-family="sans-serif" font-size="13" lengthAdjust="spacingAndGlyphs" textLength="244" x="1384" y="315.0669">MeasureQuantityStartRelatedLineItem</text><text fill="#000000" font-family="sans-serif" font-size="13" lengthAdjust="spacingAndGlyphs" textLength="8" x="1882.9302" y="372.4959">1</text><!--link LineItem to ProductQuantity--><path d="M1177.58,232.027 C1253.59,235.427 1466.36,249.313 1634,302 C1651.07,307.363 1652.93,314.645 1670,320 C1745.03,343.541 1835.61,353.655 1893.5,357.94 " fill="none" id="LineItem-ProductQuantity" style="stroke: #A80036; stroke-width: 1.0;"/><polygon fill="#A80036" points="1898.65,358.312,1889.9719,353.6546,1893.6638,357.9406,1889.3778,361.6325,1898.65,358.312" style="stroke: #A80036; stroke-width: 1.0;"/><text fill="#000000" font-family="sans-serif" font-size="13" lengthAdjust="spacingAndGlyphs" textLength="236" x="1671" y="315.0669">MeasureQuantityEndRelatedLineItem</text><text fill="#000000" font-family="sans-serif" font-size="13" lengthAdjust="spacingAndGlyphs" textLength="8" x="1882.8744" y="352.9791">1</text><!--link LineItem to ProductQuantity--><path d="M1177.5,232.196 C1308.46,237.886 1848.79,263.538 1913,302 C1929.14,311.666 1939.93,330.89 1945.99,344.772 " fill="none" id="LineItem-ProductQuantity" style="stroke: #A80036; stroke-width: 1.0;"/><polygon fill="#A80036" points="1948.01,349.617,1948.2377,339.7708,1946.0855,345.0022,1940.8541,342.85,1948.01,349.617" style="stroke: #A80036; stroke-width: 1.0;"/><text fill="#000000" font-family="sans-serif" font-size="13" lengthAdjust="spacingAndGlyphs" textLength="122" x="1933" y="315.0669">GrossPriceQuantity</text><text fill="#000000" font-family="sans-serif" font-size="13" lengthAdjust="spacingAndGlyphs" textLength="7" x="1937.2241" y="339.0536">*</text><!--link LineItem to ProductQuantity--><path d="M1177.75,230.968 C1326.4,231.095 2003.31,235.347 2065,302 C2086.65,325.395 2048.17,341.141 2010.37,350.439 " fill="none" id="LineItem-ProductQuantity" style="stroke: #A80036; stroke-width: 1.0;"/><polygon fill="#A80036" points="2005.28,351.653,2014.9614,353.4616,2010.1443,350.4959,2013.11,345.6787,2005.28,351.653" style="stroke: #A80036; stroke-width: 1.0;"/><text fill="#000000" font-family="sans-serif" font-size="13" lengthAdjust="spacingAndGlyphs" textLength="108" x="2072" y="315.0669">NetPriceQuantity</text><text fill="#000000" font-family="sans-serif" font-size="13" lengthAdjust="spacingAndGlyphs" textLength="7" x="2013.9622" y="341.2694">*</text><!--link LineItem to ProductQuantity--><path d="M1177.61,230.686 C1337.83,229.217 2119.01,226.007 2190,302 C2195.46,307.846 2195.15,313.882 2190,320 C2167.5,346.705 2073.52,356.016 2010.61,359.262 " fill="none" id="LineItem-ProductQuantity" style="stroke: #A80036; stroke-width: 1.0;"/><polygon fill="#A80036" points="2005.38,359.522,2014.5738,363.0539,2010.3734,359.2649,2014.1624,355.0645,2005.38,359.522" style="stroke: #A80036; stroke-width: 1.0;"/><text fill="#000000" font-family="sans-serif" font-size="13" lengthAdjust="spacingAndGlyphs" textLength="80" x="2194" y="315.0669">GrossWeight</text><text fill="#000000" font-family="sans-serif" font-size="13" lengthAdjust="spacingAndGlyphs" textLength="7" x="2013.6975" y="372.3385">*</text><!--link Country to Tax--><path d="M2214.86,601.053 C2223.52,613.001 2238.06,632.423 2252,648 C2266.46,664.162 2272.02,666.316 2287,682 C2293.01,688.296 2299.43,695.46 2304.85,701.659 " fill="none" id="Country-Tax" style="stroke: #A80036; stroke-width: 1.0;"/><polygon fill="#A80036" points="2308.43,705.774,2305.538,696.3593,2305.1472,702.0026,2299.5039,701.6118,2308.43,705.774" style="stroke: #A80036; stroke-width: 1.0;"/><text fill="#000000" font-family="sans-serif" font-size="13" lengthAdjust="spacingAndGlyphs" textLength="22" x="2279" y="669.0669">Tax</text><text fill="#000000" font-family="sans-serif" font-size="13" lengthAdjust="spacingAndGlyphs" textLength="8" x="2294.5209" y="695.0026">1</text><!--link AccountContract to Account--><path d="M557.976,601.27 C559.93,623.827 564.327,674.596 566.592,700.748 " fill="none" id="AccountContract-Account" style="stroke: #A80036; stroke-width: 1.0;"/><polygon fill="#A80036" points="567.042,705.936,570.2505,696.6244,566.6106,700.9546,562.2804,697.3147,567.042,705.936" style="stroke: #A80036; stroke-width: 1.0;"/><text fill="#000000" font-family="sans-serif" font-size="13" lengthAdjust="spacingAndGlyphs" textLength="52" x="566" y="669.0669">Account</text><text fill="#000000" font-family="sans-serif" font-size="13" lengthAdjust="spacingAndGlyphs" textLength="7" x="557.0799" y="694.9622">*</text><!--link Account to Account--><path d="M596.508,710.332 C614.181,708.483 631,711.039 631,718 C631,724.254 617.424,726.952 601.85,726.095 " fill="none" id="Account-Account" style="stroke: #A80036; stroke-width: 1.0;"/><polygon fill="#A80036" points="596.508,725.668,605.1605,730.3727,601.4921,726.0666,605.7982,722.3981,596.508,725.668" style="stroke: #A80036; stroke-width: 1.0;"/><text fill="#000000" font-family="sans-serif" font-size="13" lengthAdjust="spacingAndGlyphs" textLength="94" x="637" y="722.0669">ParentAccount</text><text fill="#000000" font-family="sans-serif" font-size="13" lengthAdjust="spacingAndGlyphs" textLength="8" x="604.7741" y="741.6427">1</text><!--link ContactPoint to ContactPoint--><path d="M125.314,799.849 C144.001,799.181 160,801.898 160,808 C160,813.53 146.86,816.279 130.488,816.25 " fill="none" id="ContactPoint-ContactPoint" style="stroke: #A80036; stroke-width: 1.0;"/><polygon fill="#A80036" points="125.314,816.151,134.2358,820.3226,130.3131,816.2467,134.3889,812.324,125.314,816.151" style="stroke: #A80036; stroke-width: 1.0;"/><text fill="#000000" font-family="sans-serif" font-size="13" lengthAdjust="spacingAndGlyphs" textLength="80" x="166" y="812.0669">MainContact</text><text fill="#000000" font-family="sans-serif" font-size="13" lengthAdjust="spacingAndGlyphs" textLength="8" x="133.6973" y="812.1703">1</text></g></svg>