<?xml version="1.0" encoding="UTF-8" standalone="no"?><svg xmlns="http://www.w3.org/2000/svg" xmlns:xlink="http://www.w3.org/1999/xlink" contentScriptType="application/ecmascript" contentStyleType="text/css" height="390px" preserveAspectRatio="none" style="width:6211px;height:390px;" version="1.1" viewBox="0 0 6211 390" width="6211px" zoomAndPan="magnify"><defs><filter height="300%" id="f17vvzhtie6957" width="300%" x="-1" y="-1"><feGaussianBlur result="blurOut" stdDeviation="2.0"/><feColorMatrix in="blurOut" result="blurOut2" type="matrix" values="0 0 0 0 0 0 0 0 0 0 0 0 0 0 0 0 0 0 .4 0"/><feOffset dx="4.0" dy="4.0" in="blurOut2" result="blurOut3"/><feBlend in="SourceGraphic" in2="blurOut3" mode="normal"/></filter></defs><g><!--cluster ##130--><!--cluster ##238--><!--class Role--><a target="_top" xlink:actuate="onRequest" xlink:href="../Role.html" xlink:show="new" xlink:title="Role of a party in an activity." xlink:type="simple"><rect fill="#FEFECE" filter="url(#f17vvzhtie6957)" height="44.7734" id="Role" style="stroke: #A80036; stroke-width: 1.5;" width="175" x="2952.75" y="40.5"/><rect fill="#FEFECE" height="23.9688" style="stroke: #A80036; stroke-width: 1.5;" width="175" x="2952.75" y="40.5"/><text fill="#000000" font-family="sans-serif" font-size="12" lengthAdjust="spacingAndGlyphs" textLength="27" x="3026.75" y="56.6387">Role</text><line style="stroke: #A80036; stroke-width: 1.5;" x1="2953.75" x2="3126.75" y1="64.4688" y2="64.4688"/><ellipse cx="2963.75" cy="76.3711" fill="#84BE84" rx="3" ry="3" style="stroke: #038048; stroke-width: 1.0;"/><text fill="#000000" font-family="sans-serif" font-size="11" lengthAdjust="spacingAndGlyphs" textLength="53" x="2972.75" y="78.6792">PartyRole</text><text fill="#000000" font-family="sans-serif" font-size="11" font-style="italic" lengthAdjust="spacingAndGlyphs" textLength="92" x="3029.75" y="78.6792">(PartyRoleCode)</text></a><!--class InformationPartyRole--><a target="_top" xlink:actuate="onRequest" xlink:href="../InformationPartyRole.html" xlink:show="new" xlink:title="Role played by a party as source of information." xlink:type="simple"><rect fill="#FEFEEE" filter="url(#f17vvzhtie6957)" height="23.9688" id="InformationPartyRole" style="stroke: #A80036; stroke-width: 1.5;" width="136" x="38" y="166"/><rect fill="#FEFEEE" height="23.9688" style="stroke: #A80036; stroke-width: 1.5;" width="136" x="38" y="166"/><text fill="#000000" font-family="sans-serif" font-size="12" lengthAdjust="spacingAndGlyphs" textLength="130" x="41" y="182.1387">InformationPartyRole</text></a><!--class AccountPartyRole--><a target="_top" xlink:actuate="onRequest" xlink:href="../AccountPartyRole.html" xlink:show="new" xlink:title="Role played by a party in the context of account operations." xlink:type="simple"><rect fill="#FEFEEE" filter="url(#f17vvzhtie6957)" height="23.9688" id="AccountPartyRole" style="stroke: #A80036; stroke-width: 1.5;" width="116" x="209.5" y="166"/><rect fill="#FEFEEE" height="23.9688" style="stroke: #A80036; stroke-width: 1.5;" width="116" x="209.5" y="166"/><text fill="#000000" font-family="sans-serif" font-size="12" lengthAdjust="spacingAndGlyphs" textLength="110" x="212.5" y="182.1387">AccountPartyRole</text></a><!--class EmployingPartyRole--><a target="_top" xlink:actuate="onRequest" xlink:href="../EmployingPartyRole.html" xlink:show="new" xlink:title="Organisation represented by a person, or for which a person works." xlink:type="simple"><rect fill="#FEFEEE" filter="url(#f17vvzhtie6957)" height="23.9688" id="EmployingPartyRole" style="stroke: #A80036; stroke-width: 1.5;" width="128" x="360" y="166"/><rect fill="#FEFEEE" height="23.9688" style="stroke: #A80036; stroke-width: 1.5;" width="128" x="360" y="166"/><text fill="#000000" font-family="sans-serif" font-size="12" lengthAdjust="spacingAndGlyphs" textLength="122" x="363" y="182.1387">EmployingPartyRole</text></a><!--class DocumentPartyRole--><a target="_top" xlink:actuate="onRequest" xlink:href="../DocumentPartyRole.html" xlink:show="new" xlink:title="Role played by a party in the context of a document." xlink:type="simple"><rect fill="#FEFEEE" filter="url(#f17vvzhtie6957)" height="23.9688" id="DocumentPartyRole" style="stroke: #A80036; stroke-width: 1.5;" width="129" x="523.75" y="166"/><rect fill="#FEFEEE" height="23.9688" style="stroke: #A80036; stroke-width: 1.5;" width="129" x="523.75" y="166"/><text fill="#000000" font-family="sans-serif" font-size="12" lengthAdjust="spacingAndGlyphs" textLength="123" x="526.75" y="182.1387">DocumentPartyRole</text></a><!--class MandatePartyRole--><a target="_top" xlink:actuate="onRequest" xlink:href="../MandatePartyRole.html" xlink:show="new" xlink:title="Role played by a party in the context of a mandate." xlink:type="simple"><rect fill="#FEFEEE" filter="url(#f17vvzhtie6957)" height="23.9688" id="MandatePartyRole" style="stroke: #A80036; stroke-width: 1.5;" width="120" x="688.5" y="166"/><rect fill="#FEFEEE" height="23.9688" style="stroke: #A80036; stroke-width: 1.5;" width="120" x="688.5" y="166"/><text fill="#000000" font-family="sans-serif" font-size="12" lengthAdjust="spacingAndGlyphs" textLength="114" x="691.5" y="182.1387">MandatePartyRole</text></a><!--class CardPaymentPartyRole--><a target="_top" xlink:actuate="onRequest" xlink:href="../CardPaymentPartyRole.html" xlink:show="new" xlink:title="Role played by a party in the context of a payment by card." xlink:type="simple"><rect fill="#FEFEEE" filter="url(#f17vvzhtie6957)" height="23.9688" id="CardPaymentPartyRole" style="stroke: #A80036; stroke-width: 1.5;" width="148" x="843" y="166"/><rect fill="#FEFEEE" height="23.9688" style="stroke: #A80036; stroke-width: 1.5;" width="148" x="843" y="166"/><text fill="#000000" font-family="sans-serif" font-size="12" lengthAdjust="spacingAndGlyphs" textLength="142" x="846" y="182.1387">CardPaymentPartyRole</text></a><!--class InvestmentFundPartyRole--><a target="_top" xlink:actuate="onRequest" xlink:href="../InvestmentFundPartyRole.html" xlink:show="new" xlink:title="Specifies roles played by a party that are linked to the handling of investment funds but not related to a specific process." xlink:type="simple"><rect fill="#FEFEEE" filter="url(#f17vvzhtie6957)" height="23.9688" id="InvestmentFundPartyRole" style="stroke: #A80036; stroke-width: 1.5;" width="165" x="1026.75" y="166"/><rect fill="#FEFEEE" height="23.9688" style="stroke: #A80036; stroke-width: 1.5;" width="165" x="1026.75" y="166"/><text fill="#000000" font-family="sans-serif" font-size="12" lengthAdjust="spacingAndGlyphs" textLength="159" x="1029.75" y="182.1387">InvestmentFundPartyRole</text></a><!--class TradePartyRole--><a target="_top" xlink:actuate="onRequest" xlink:href="../TradePartyRole.html" xlink:show="new" xlink:title="Trading party in a commercial, securities, treasury trade. This role may also represent parties which play different intermediary roles in a trade." xlink:type="simple"><rect fill="#FEFEEE" filter="url(#f17vvzhtie6957)" height="23.9688" id="TradePartyRole" style="stroke: #A80036; stroke-width: 1.5;" width="101" x="1226.75" y="166"/><rect fill="#FEFEEE" height="23.9688" style="stroke: #A80036; stroke-width: 1.5;" width="101" x="1226.75" y="166"/><text fill="#000000" font-family="sans-serif" font-size="12" lengthAdjust="spacingAndGlyphs" textLength="95" x="1229.75" y="182.1387">TradePartyRole</text></a><!--class SystemPartyRole--><a target="_top" xlink:actuate="onRequest" xlink:href="../SystemPartyRole.html" xlink:show="new" xlink:title="Role played by a party in a system." xlink:type="simple"><rect fill="#FEFEEE" filter="url(#f17vvzhtie6957)" height="23.9688" id="SystemPartyRole" style="stroke: #A80036; stroke-width: 1.5;" width="110" x="1363" y="166"/><rect fill="#FEFEEE" height="23.9688" style="stroke: #A80036; stroke-width: 1.5;" width="110" x="1363" y="166"/><text fill="#000000" font-family="sans-serif" font-size="12" lengthAdjust="spacingAndGlyphs" textLength="104" x="1366" y="182.1387">SystemPartyRole</text></a><!--class PaymentPartyRole--><a target="_top" xlink:actuate="onRequest" xlink:href="../PaymentPartyRole.html" xlink:show="new" xlink:title="Role played by a party in the context of a payment." xlink:type="simple"><rect fill="#FEFEEE" filter="url(#f17vvzhtie6957)" height="23.9688" id="PaymentPartyRole" style="stroke: #A80036; stroke-width: 1.5;" width="119" x="1508.75" y="166"/><rect fill="#FEFEEE" height="23.9688" style="stroke: #A80036; stroke-width: 1.5;" width="119" x="1508.75" y="166"/><text fill="#000000" font-family="sans-serif" font-size="12" lengthAdjust="spacingAndGlyphs" textLength="113" x="1511.75" y="182.1387">PaymentPartyRole</text></a><!--class AssetPartyRole--><a target="_top" xlink:actuate="onRequest" xlink:href="../AssetPartyRole.html" xlink:show="new" xlink:title="Specifies roles played by a party that are linked to the handling of assets but not related to a specific process." xlink:type="simple"><rect fill="#FEFEEE" filter="url(#f17vvzhtie6957)" height="23.9688" id="AssetPartyRole" style="stroke: #A80036; stroke-width: 1.5;" width="100" x="1663" y="166"/><rect fill="#FEFEEE" height="23.9688" style="stroke: #A80036; stroke-width: 1.5;" width="100" x="1663" y="166"/><text fill="#000000" font-family="sans-serif" font-size="12" lengthAdjust="spacingAndGlyphs" textLength="94" x="1666" y="182.1387">AssetPartyRole</text></a><!--class SettlementPartyRole--><a target="_top" xlink:actuate="onRequest" xlink:href="../SettlementPartyRole.html" xlink:show="new" xlink:title="Role played by a party in a settlement process." xlink:type="simple"><rect fill="#FEFEEE" filter="url(#f17vvzhtie6957)" height="23.9688" id="SettlementPartyRole" style="stroke: #A80036; stroke-width: 1.5;" width="134" x="1798" y="166"/><rect fill="#FEFEEE" height="23.9688" style="stroke: #A80036; stroke-width: 1.5;" width="134" x="1798" y="166"/><text fill="#000000" font-family="sans-serif" font-size="12" lengthAdjust="spacingAndGlyphs" textLength="128" x="1801" y="182.1387">SettlementPartyRole</text></a><!--class ContactPersonRole--><a target="_top" xlink:actuate="onRequest" xlink:href="../ContactPersonRole.html" xlink:show="new" xlink:title="Person to be contacted in a given organisation. In the corporate action domain (including meeting notifications) , it is the contact person at the party organising the meeting, at the issuer or at an intermediary." xlink:type="simple"><rect fill="#FEFEEE" filter="url(#f17vvzhtie6957)" height="23.9688" id="ContactPersonRole" style="stroke: #A80036; stroke-width: 1.5;" width="126" x="1967" y="166"/><rect fill="#FEFEEE" height="23.9688" style="stroke: #A80036; stroke-width: 1.5;" width="126" x="1967" y="166"/><text fill="#000000" font-family="sans-serif" font-size="12" lengthAdjust="spacingAndGlyphs" textLength="120" x="1970" y="182.1387">ContactPersonRole</text></a><!--class SecuritiesOrderPartyRole--><a target="_top" xlink:actuate="onRequest" xlink:href="../SecuritiesOrderPartyRole.html" xlink:show="new" xlink:title="Role played by a party associated with an order to buy or sell securities." xlink:type="simple"><rect fill="#FEFEEE" filter="url(#f17vvzhtie6957)" height="23.9688" id="SecuritiesOrderPartyRole" style="stroke: #A80036; stroke-width: 1.5;" width="162" x="2128" y="166"/><rect fill="#FEFEEE" height="23.9688" style="stroke: #A80036; stroke-width: 1.5;" width="162" x="2128" y="166"/><text fill="#000000" font-family="sans-serif" font-size="12" lengthAdjust="spacingAndGlyphs" textLength="156" x="2131" y="182.1387">SecuritiesOrderPartyRole</text></a><!--class SecurityCertificatePartyRole--><a target="_top" xlink:actuate="onRequest" xlink:href="../SecurityCertificatePartyRole.html" xlink:show="new" xlink:title="Role played by a party in the context of a security certificate" xlink:type="simple"><rect fill="#FEFEEE" filter="url(#f17vvzhtie6957)" height="23.9688" id="SecurityCertificatePartyRole" style="stroke: #A80036; stroke-width: 1.5;" width="179" x="2325.75" y="166"/><rect fill="#FEFEEE" height="23.9688" style="stroke: #A80036; stroke-width: 1.5;" width="179" x="2325.75" y="166"/><text fill="#000000" font-family="sans-serif" font-size="12" lengthAdjust="spacingAndGlyphs" textLength="173" x="2328.75" y="182.1387">SecurityCertificatePartyRole</text></a><!--class InvoicePartyRole--><a target="_top" xlink:actuate="onRequest" xlink:href="../InvoicePartyRole.html" xlink:show="new" xlink:title="Role played by a party in the context of an invoice." xlink:type="simple"><rect fill="#FEFEEE" filter="url(#f17vvzhtie6957)" height="23.9688" id="InvoicePartyRole" style="stroke: #A80036; stroke-width: 1.5;" width="108" x="2540" y="166"/><rect fill="#FEFEEE" height="23.9688" style="stroke: #A80036; stroke-width: 1.5;" width="108" x="2540" y="166"/><text fill="#000000" font-family="sans-serif" font-size="12" lengthAdjust="spacingAndGlyphs" textLength="102" x="2543" y="182.1387">InvoicePartyRole</text></a><!--class TaxPartyRole--><a target="_top" xlink:actuate="onRequest" xlink:href="../TaxPartyRole.html" xlink:show="new" xlink:title="Role played by a party in the context of a tax due." xlink:type="simple"><rect fill="#FEFEEE" filter="url(#f17vvzhtie6957)" height="23.9688" id="TaxPartyRole" style="stroke: #A80036; stroke-width: 1.5;" width="86" x="2683" y="166"/><rect fill="#FEFEEE" height="23.9688" style="stroke: #A80036; stroke-width: 1.5;" width="86" x="2683" y="166"/><text fill="#000000" font-family="sans-serif" font-size="12" lengthAdjust="spacingAndGlyphs" textLength="80" x="2686" y="182.1387">TaxPartyRole</text></a><!--class InvestigationPartyRole--><a target="_top" xlink:actuate="onRequest" xlink:href="../InvestigationPartyRole.html" xlink:show="new" xlink:title="Role played by a party in the context of an investigation process." xlink:type="simple"><rect fill="#FEFEEE" filter="url(#f17vvzhtie6957)" height="23.9688" id="InvestigationPartyRole" style="stroke: #A80036; stroke-width: 1.5;" width="145" x="2804.75" y="166"/><rect fill="#FEFEEE" height="23.9688" style="stroke: #A80036; stroke-width: 1.5;" width="145" x="2804.75" y="166"/><text fill="#000000" font-family="sans-serif" font-size="12" lengthAdjust="spacingAndGlyphs" textLength="139" x="2807.75" y="182.1387">InvestigationPartyRole</text></a><!--class ChargePartyRole--><a target="_top" xlink:actuate="onRequest" xlink:href="../ChargePartyRole.html" xlink:show="new" xlink:title="Role played by a party in the context of a paymentof charges." xlink:type="simple"><rect fill="#FEFEEE" filter="url(#f17vvzhtie6957)" height="23.9688" id="ChargePartyRole" style="stroke: #A80036; stroke-width: 1.5;" width="110" x="2985" y="166"/><rect fill="#FEFEEE" height="23.9688" style="stroke: #A80036; stroke-width: 1.5;" width="110" x="2985" y="166"/><text fill="#000000" font-family="sans-serif" font-size="12" lengthAdjust="spacingAndGlyphs" textLength="104" x="2988" y="182.1387">ChargePartyRole</text></a><!--class RegulatoryAuthorityRole--><a target="_top" xlink:actuate="onRequest" xlink:href="../RegulatoryAuthorityRole.html" xlink:show="new" xlink:title="Entity requiring the regulatory reporting information." xlink:type="simple"><rect fill="#FEFEEE" filter="url(#f17vvzhtie6957)" height="23.9688" id="RegulatoryAuthorityRole" style="stroke: #A80036; stroke-width: 1.5;" width="156" x="3130" y="166"/><rect fill="#FEFEEE" height="23.9688" style="stroke: #A80036; stroke-width: 1.5;" width="156" x="3130" y="166"/><text fill="#000000" font-family="sans-serif" font-size="12" lengthAdjust="spacingAndGlyphs" textLength="150" x="3133" y="182.1387">RegulatoryAuthorityRole</text></a><!--class UndertakingPartyRole--><a target="_top" xlink:actuate="onRequest" xlink:href="../UndertakingPartyRole.html" xlink:show="new" xlink:title="Role played by a party in the context of an undertaking." xlink:type="simple"><rect fill="#FEFEEE" filter="url(#f17vvzhtie6957)" height="23.9688" id="UndertakingPartyRole" style="stroke: #A80036; stroke-width: 1.5;" width="142" x="3321" y="166"/><rect fill="#FEFEEE" height="23.9688" style="stroke: #A80036; stroke-width: 1.5;" width="142" x="3321" y="166"/><text fill="#000000" font-family="sans-serif" font-size="12" lengthAdjust="spacingAndGlyphs" textLength="136" x="3324" y="182.1387">UndertakingPartyRole</text></a><!--class CorporateActionPartyRole--><a target="_top" xlink:actuate="onRequest" xlink:href="../CorporateActionPartyRole.html" xlink:show="new" xlink:title="Role played by a party in the context of a corporate action." xlink:type="simple"><rect fill="#FEFEEE" filter="url(#f17vvzhtie6957)" height="23.9688" id="CorporateActionPartyRole" style="stroke: #A80036; stroke-width: 1.5;" width="167" x="3498.75" y="166"/><rect fill="#FEFEEE" height="23.9688" style="stroke: #A80036; stroke-width: 1.5;" width="167" x="3498.75" y="166"/><text fill="#000000" font-family="sans-serif" font-size="12" lengthAdjust="spacingAndGlyphs" textLength="161" x="3501.75" y="182.1387">CorporateActionPartyRole</text></a><!--class TransportPartyRole--><a target="_top" xlink:actuate="onRequest" xlink:href="../TransportPartyRole.html" xlink:show="new" xlink:title="Role played by a party in the context of transporting goods." xlink:type="simple"><rect fill="#FEFEEE" filter="url(#f17vvzhtie6957)" height="23.9688" id="TransportPartyRole" style="stroke: #A80036; stroke-width: 1.5;" width="126" x="3701" y="166"/><rect fill="#FEFEEE" height="23.9688" style="stroke: #A80036; stroke-width: 1.5;" width="126" x="3701" y="166"/><text fill="#000000" font-family="sans-serif" font-size="12" lengthAdjust="spacingAndGlyphs" textLength="120" x="3704" y="182.1387">TransportPartyRole</text></a><!--class InsurancePartyRole--><a target="_top" xlink:actuate="onRequest" xlink:href="../InsurancePartyRole.html" xlink:show="new" xlink:title="Role played by a party in the context of insurance." xlink:type="simple"><rect fill="#FEFEEE" filter="url(#f17vvzhtie6957)" height="23.9688" id="InsurancePartyRole" style="stroke: #A80036; stroke-width: 1.5;" width="127" x="3862.75" y="166"/><rect fill="#FEFEEE" height="23.9688" style="stroke: #A80036; stroke-width: 1.5;" width="127" x="3862.75" y="166"/><text fill="#000000" font-family="sans-serif" font-size="12" lengthAdjust="spacingAndGlyphs" textLength="121" x="3865.75" y="182.1387">InsurancePartyRole</text></a><!--class CollateralPartyRole--><a target="_top" xlink:actuate="onRequest" xlink:href="../CollateralPartyRole.html" xlink:show="new" xlink:title="Role played by a party in the context of collateral." xlink:type="simple"><rect fill="#FEFEEE" filter="url(#f17vvzhtie6957)" height="23.9688" id="CollateralPartyRole" style="stroke: #A80036; stroke-width: 1.5;" width="124" x="4025.5" y="166"/><rect fill="#FEFEEE" height="23.9688" style="stroke: #A80036; stroke-width: 1.5;" width="124" x="4025.5" y="166"/><text fill="#000000" font-family="sans-serif" font-size="12" lengthAdjust="spacingAndGlyphs" textLength="118" x="4028.5" y="182.1387">CollateralPartyRole</text></a><!--class ReportingPartyRole--><a target="_top" xlink:actuate="onRequest" xlink:href="../ReportingPartyRole.html" xlink:show="new" xlink:title="Party responsible for providing regulatory reports." xlink:type="simple"><rect fill="#FEFEEE" filter="url(#f17vvzhtie6957)" height="23.9688" id="ReportingPartyRole" style="stroke: #A80036; stroke-width: 1.5;" width="126" x="4184" y="166"/><rect fill="#FEFEEE" height="23.9688" style="stroke: #A80036; stroke-width: 1.5;" width="126" x="4184" y="166"/><text fill="#000000" font-family="sans-serif" font-size="12" lengthAdjust="spacingAndGlyphs" textLength="120" x="4187" y="182.1387">ReportingPartyRole</text></a><!--class LegalRepresentative--><a target="_top" xlink:actuate="onRequest" xlink:href="../LegalRepresentative.html" xlink:show="new" xlink:title="Person that is officially and legally mandated to represent the organisation. Depending on legislation, the legal representative(s) might for instance be assigned by the Board, identified in the by-laws of the organisation, be publicly announced in the official journal of a country." xlink:type="simple"><rect fill="#FEFEEE" filter="url(#f17vvzhtie6957)" height="23.9688" id="LegalRepresentative" style="stroke: #A80036; stroke-width: 1.5;" width="134" x="4345" y="166"/><rect fill="#FEFEEE" height="23.9688" style="stroke: #A80036; stroke-width: 1.5;" width="134" x="4345" y="166"/><text fill="#000000" font-family="sans-serif" font-size="12" lengthAdjust="spacingAndGlyphs" textLength="128" x="4348" y="182.1387">LegalRepresentative</text></a><!--class ChequePartyRole--><a target="_top" xlink:actuate="onRequest" xlink:href="../ChequePartyRole.html" xlink:show="new" xlink:title="Role played by a party in the context of a payment by cheque." xlink:type="simple"><rect fill="#FEFEEE" filter="url(#f17vvzhtie6957)" height="23.9688" id="ChequePartyRole" style="stroke: #A80036; stroke-width: 1.5;" width="113" x="4514.75" y="166"/><rect fill="#FEFEEE" height="23.9688" style="stroke: #A80036; stroke-width: 1.5;" width="113" x="4514.75" y="166"/><text fill="#000000" font-family="sans-serif" font-size="12" lengthAdjust="spacingAndGlyphs" textLength="107" x="4517.75" y="182.1387">ChequePartyRole</text></a><!--class CommissionPartyRole--><a target="_top" xlink:actuate="onRequest" xlink:href="../CommissionPartyRole.html" xlink:show="new" xlink:title="Role played by a party in the context of a payment of commission." xlink:type="simple"><rect fill="#FEFEEE" filter="url(#f17vvzhtie6957)" height="23.9688" id="CommissionPartyRole" style="stroke: #A80036; stroke-width: 1.5;" width="139" x="4662.75" y="166"/><rect fill="#FEFEEE" height="23.9688" style="stroke: #A80036; stroke-width: 1.5;" width="139" x="4662.75" y="166"/><text fill="#000000" font-family="sans-serif" font-size="12" lengthAdjust="spacingAndGlyphs" textLength="133" x="4665.75" y="182.1387">CommissionPartyRole</text></a><!--class GoodsPartyRole--><a target="_top" xlink:actuate="onRequest" xlink:href="../GoodsPartyRole.html" xlink:show="new" xlink:title="Role played by a party in the context of handling goods." xlink:type="simple"><rect fill="#FEFEEE" filter="url(#f17vvzhtie6957)" height="23.9688" id="GoodsPartyRole" style="stroke: #A80036; stroke-width: 1.5;" width="105" x="4836.75" y="166"/><rect fill="#FEFEEE" height="23.9688" style="stroke: #A80036; stroke-width: 1.5;" width="105" x="4836.75" y="166"/><text fill="#000000" font-family="sans-serif" font-size="12" lengthAdjust="spacingAndGlyphs" textLength="99" x="4839.75" y="182.1387">GoodsPartyRole</text></a><!--class TradeCertificatePartyRole--><a target="_top" xlink:actuate="onRequest" xlink:href="../TradeCertificatePartyRole.html" xlink:show="new" xlink:title="Role played by a party in the context of issuing trade certificates." xlink:type="simple"><rect fill="#FEFEEE" filter="url(#f17vvzhtie6957)" height="23.9688" id="TradeCertificatePartyRole" style="stroke: #A80036; stroke-width: 1.5;" width="165" x="4976.75" y="166"/><rect fill="#FEFEEE" height="23.9688" style="stroke: #A80036; stroke-width: 1.5;" width="165" x="4976.75" y="166"/><text fill="#000000" font-family="sans-serif" font-size="12" lengthAdjust="spacingAndGlyphs" textLength="159" x="4979.75" y="182.1387">TradeCertificatePartyRole</text></a><!--class MarketInfrastructure--><a target="_top" xlink:actuate="onRequest" xlink:href="../MarketInfrastructure.html" xlink:show="new" xlink:title="Multilateral system among participating institutions, including the operator of the system, used for the purposes of clearing, settling, or recording payments, securities, derivatives or other financial transactions." xlink:type="simple"><rect fill="#FEFEEE" filter="url(#f17vvzhtie6957)" height="23.9688" id="MarketInfrastructure" style="stroke: #A80036; stroke-width: 1.5;" width="135" x="5176.75" y="166"/><rect fill="#FEFEEE" height="23.9688" style="stroke: #A80036; stroke-width: 1.5;" width="135" x="5176.75" y="166"/><text fill="#000000" font-family="sans-serif" font-size="12" lengthAdjust="spacingAndGlyphs" textLength="129" x="5179.75" y="182.1387">MarketInfrastructure</text></a><!--class GuaranteePartyRole--><a target="_top" xlink:actuate="onRequest" xlink:href="../GuaranteePartyRole.html" xlink:show="new" xlink:title="Role played by a party in the context of guarantees." xlink:type="simple"><rect fill="#FEFEEE" filter="url(#f17vvzhtie6957)" height="23.9688" id="GuaranteePartyRole" style="stroke: #A80036; stroke-width: 1.5;" width="132" x="5347" y="166"/><rect fill="#FEFEEE" height="23.9688" style="stroke: #A80036; stroke-width: 1.5;" width="132" x="5347" y="166"/><text fill="#000000" font-family="sans-serif" font-size="12" lengthAdjust="spacingAndGlyphs" textLength="126" x="5350" y="182.1387">GuaranteePartyRole</text></a><!--class PaymentObligationPartyRole--><a target="_top" xlink:actuate="onRequest" xlink:href="../PaymentObligationPartyRole.html" xlink:show="new" xlink:title="Role played by a party in the context of a payment obligation." xlink:type="simple"><rect fill="#FEFEEE" filter="url(#f17vvzhtie6957)" height="23.9688" id="PaymentObligationPartyRole" style="stroke: #A80036; stroke-width: 1.5;" width="182" x="5514" y="166"/><rect fill="#FEFEEE" height="23.9688" style="stroke: #A80036; stroke-width: 1.5;" width="182" x="5514" y="166"/><text fill="#000000" font-family="sans-serif" font-size="12" lengthAdjust="spacingAndGlyphs" textLength="176" x="5517" y="182.1387">PaymentObligationPartyRole</text></a><!--class RegulatoryReportingRole--><a target="_top" xlink:actuate="onRequest" xlink:href="../RegulatoryReportingRole.html" xlink:show="new" xlink:title="Party which plays a role for regulatory reporting." xlink:type="simple"><rect fill="#FEFEEE" filter="url(#f17vvzhtie6957)" height="23.9688" id="RegulatoryReportingRole" style="stroke: #A80036; stroke-width: 1.5;" width="161" x="5731.75" y="166"/><rect fill="#FEFEEE" height="23.9688" style="stroke: #A80036; stroke-width: 1.5;" width="161" x="5731.75" y="166"/><text fill="#000000" font-family="sans-serif" font-size="12" lengthAdjust="spacingAndGlyphs" textLength="155" x="5734.75" y="182.1387">RegulatoryReportingRole</text></a><!--class RolePlayer--><a target="_top" xlink:actuate="onRequest" xlink:href="../RolePlayer.html" xlink:show="new" xlink:title="Type of entity that plays a specific role in a specific context." xlink:type="simple"><rect fill="#EEEEEE" filter="url(#f17vvzhtie6957)" height="23.9688" id="RolePlayer" style="stroke: #A80036; stroke-width: 1.5;" width="71" x="5985.75" y="356"/><rect fill="#EEEEEE" height="23.9688" style="stroke: #A80036; stroke-width: 1.5;" width="71" x="5985.75" y="356"/><text fill="#000000" font-family="sans-serif" font-size="12" lengthAdjust="spacingAndGlyphs" textLength="65" x="5988.75" y="372.1387">RolePlayer</text></a><!--class CounterpartyRisk--><a target="_top" xlink:actuate="onRequest" xlink:href="../CounterpartyRisk.html" xlink:show="new" xlink:title="Calculation of the exposure amount that one party has vis-a-vis one counterparty or a central system, based on its credit risk." xlink:type="simple"><rect fill="#EEEEEE" filter="url(#f17vvzhtie6957)" height="23.9688" id="CounterpartyRisk" style="stroke: #A80036; stroke-width: 1.5;" width="113" x="5949.75" y="270"/><rect fill="#EEEEEE" height="23.9688" style="stroke: #A80036; stroke-width: 1.5;" width="113" x="5949.75" y="270"/><text fill="#000000" font-family="sans-serif" font-size="12" lengthAdjust="spacingAndGlyphs" textLength="107" x="5952.75" y="286.1387">CounterpartyRisk</text></a><!--class Entry--><a target="_top" xlink:actuate="onRequest" xlink:href="../Entry.html" xlink:show="new" xlink:title="Posting to an account that results in an increase or decrease to a balance." xlink:type="simple"><rect fill="#EEEEEE" filter="url(#f17vvzhtie6957)" height="23.9688" id="Entry" style="stroke: #A80036; stroke-width: 1.5;" width="38" x="5949" y="166"/><rect fill="#EEEEEE" height="23.9688" style="stroke: #A80036; stroke-width: 1.5;" width="38" x="5949" y="166"/><text fill="#000000" font-family="sans-serif" font-size="12" lengthAdjust="spacingAndGlyphs" textLength="32" x="5952" y="182.1387">Entry</text></a><!--link Role to InformationPartyRole--><path d="M2932.71,64.238 C2499.3,65.484 876.605,72.984 365,116 C287.083,122.551 266.37,121.184 191,142 C169.156,148.033 145.393,158.142 128.56,165.949 " fill="none" id="Role-InformationPartyRole" style="stroke: #A80036; stroke-width: 1.0;"/><polygon fill="none" points="2932.71,57.238,2952.73,64.182,2932.75,71.238,2932.71,57.238" style="stroke: #A80036; stroke-width: 1.0;"/><!--link Role to AccountPartyRole--><path d="M2932.56,64.554 C2516.08,66.961 1007.62,78.155 530,116 C445.913,122.663 422.9,118.12 342,142 C322.293,147.817 301.2,158.056 286.419,165.962 " fill="none" id="Role-AccountPartyRole" style="stroke: #A80036; stroke-width: 1.0;"/><polygon fill="none" points="2932.67,57.553,2952.71,64.439,2932.75,71.553,2932.67,57.553" style="stroke: #A80036; stroke-width: 1.0;"/><!--link Role to EmployingPartyRole--><path d="M2932.54,64.769 C2533.93,67.872 1140.17,81.032 697,116 C611.594,122.739 588.583,119.202 506,142 C484.813,147.849 461.901,157.978 445.696,165.839 " fill="none" id="Role-EmployingPartyRole" style="stroke: #A80036; stroke-width: 1.0;"/><polygon fill="none" points="2932.64,57.768,2952.69,64.614,2932.75,71.768,2932.64,57.768" style="stroke: #A80036; stroke-width: 1.0;"/><!--link Role to DocumentPartyRole--><path d="M2932.47,64.884 C2551.08,68.28 1263.92,82.041 853,116 C771.129,122.766 749.124,119.908 670,142 C648.83,147.911 625.916,158.033 609.706,165.876 " fill="none" id="Role-DocumentPartyRole" style="stroke: #A80036; stroke-width: 1.0;"/><polygon fill="none" points="2932.53,57.883,2952.59,64.707,2932.66,71.883,2932.53,57.883" style="stroke: #A80036; stroke-width: 1.0;"/><!--link Role to MandatePartyRole--><path d="M2932.43,65.447 C2572.51,70.499 1412.02,88.555 1039,116 C943.448,123.03 917.243,116.097 825,142 C804.784,147.677 783.127,157.933 767.946,165.88 " fill="none" id="Role-MandatePartyRole" style="stroke: #A80036; stroke-width: 1.0;"/><polygon fill="none" points="2932.38,58.447,2952.48,65.167,2932.58,72.445,2932.38,58.447" style="stroke: #A80036; stroke-width: 1.0;"/><!--link Role to CardPaymentPartyRole--><path d="M2932.38,63.865 C2652.2,64.213 1877.26,69.66 1234,116 C1133.59,123.233 1106.8,118.141 1009,142 C985.259,147.792 959.335,158.034 941.074,165.948 " fill="none" id="Role-CardPaymentPartyRole" style="stroke: #A80036; stroke-width: 1.0;"/><polygon fill="none" points="2932.47,56.865,2952.47,63.847,2932.48,70.865,2932.47,56.865" style="stroke: #A80036; stroke-width: 1.0;"/><!--link Role to InvestmentFundPartyRole--><path d="M2932.6,65.449 C2612.94,70.062 1670.9,85.897 1365,116 C1295.05,122.884 1277.09,124.548 1209,142 C1184.06,148.394 1156.49,158.262 1136.62,165.892 " fill="none" id="Role-InvestmentFundPartyRole" style="stroke: #A80036; stroke-width: 1.0;"/><polygon fill="none" points="2932.65,58.448,2952.74,65.162,2932.84,72.447,2932.65,58.448" style="stroke: #A80036; stroke-width: 1.0;"/><!--link Role to TradePartyRole--><path d="M2932.18,63.217 C2682.04,62.374 2043.08,65.805 1512,116 C1437.22,123.068 1416.42,118.735 1345,142 C1326.95,147.881 1307.84,158.112 1294.5,165.999 " fill="none" id="Role-TradePartyRole" style="stroke: #A80036; stroke-width: 1.0;"/><polygon fill="none" points="2932.37,56.218,2952.34,63.298,2932.31,70.218,2932.37,56.218" style="stroke: #A80036; stroke-width: 1.0;"/><!--link Role to SystemPartyRole--><path d="M2932.5,64.065 C2700.63,65.084 2136.39,72.288 1666,116 C1587.71,123.276 1566.18,118.967 1491,142 C1471.92,147.846 1451.54,157.976 1437.18,165.838 " fill="none" id="Role-SystemPartyRole" style="stroke: #A80036; stroke-width: 1.0;"/><polygon fill="none" points="2932.55,57.065,2952.58,63.989,2932.6,71.065,2932.55,57.065" style="stroke: #A80036; stroke-width: 1.0;"/><!--link Role to PaymentPartyRole--><path d="M2932.26,64.023 C2716.67,65.06 2217.08,72.445 1800,116 C1730.53,123.255 1711.81,121.597 1645,142 C1625.06,148.091 1603.55,158.193 1588.34,165.983 " fill="none" id="Role-PaymentPartyRole" style="stroke: #A80036; stroke-width: 1.0;"/><polygon fill="none" points="2932.5,57.022,2952.53,63.94,2932.56,71.022,2932.5,57.022" style="stroke: #A80036; stroke-width: 1.0;"/><!--link Role to AssetPartyRole--><path d="M2932.27,66.248 C2739.65,70.936 2323.62,84.102 1974,116 C1887.37,123.904 1862.92,115.685 1780,142 C1762.11,147.677 1743.3,157.933 1730.18,165.88 " fill="none" id="Role-AssetPartyRole" style="stroke: #A80036; stroke-width: 1.0;"/><polygon fill="none" points="2932.26,59.246,2952.43,65.768,2932.6,73.242,2932.26,59.246" style="stroke: #A80036; stroke-width: 1.0;"/><!--link Role to SettlementPartyRole--><path d="M2932.53,67.646 C2764.16,73.941 2428.03,88.861 2144,116 C2056.96,124.316 2033.41,119.212 1949,142 C1927.34,147.847 1903.87,157.976 1887.25,165.838 " fill="none" id="Role-SettlementPartyRole" style="stroke: #A80036; stroke-width: 1.0;"/><polygon fill="none" points="2932.47,60.643,2952.71,66.903,2932.98,74.634,2932.47,60.643" style="stroke: #A80036; stroke-width: 1.0;"/><!--link Role to ContactPersonRole--><path d="M2932.47,68.586 C2722.04,78.29 2263.05,103.239 2110,142 C2088.84,147.359 2066.17,157.764 2050.39,165.842 " fill="none" id="Role-ContactPersonRole" style="stroke: #A80036; stroke-width: 1.0;"/><polygon fill="none" points="2932.34,61.585,2952.64,67.668,2932.98,75.57,2932.34,61.585" style="stroke: #A80036; stroke-width: 1.0;"/><!--link Role to ContactPersonRole--><path d="M2952.63,71.727 C2802.34,84.951 2485.2,112.569 2217,134 C2169.46,137.799 2156.28,130.501 2110,142 C2090.67,146.803 2070.1,155.897 2054.67,163.612 " fill="none" id="Role-ContactPersonRole" style="stroke: #A80036; stroke-width: 1.0;"/><polygon fill="#A80036" points="2050.05,165.955,2059.8851,165.435,2054.5055,163.6859,2056.2545,158.3062,2050.05,165.955" style="stroke: #A80036; stroke-width: 1.0;"/><text fill="#000000" font-family="sans-serif" font-size="13" lengthAdjust="spacingAndGlyphs" textLength="121" x="2422" y="129.0669">ContactPersonRole</text><text fill="#000000" font-family="sans-serif" font-size="13" lengthAdjust="spacingAndGlyphs" textLength="8" x="2046.2234" y="154.9877">1</text><!--link Role to SecuritiesOrderPartyRole--><path d="M2933.04,85.638 C2846.77,102.084 2722.11,123.596 2612,134 C2544.72,140.357 2374.45,129.698 2308,142 C2281.83,146.845 2253.31,157.548 2233.63,165.851 " fill="none" id="Role-SecuritiesOrderPartyRole" style="stroke: #A80036; stroke-width: 1.0;"/><polygon fill="none" points="2931.78,78.751,2952.74,81.842,2934.43,92.499,2931.78,78.751" style="stroke: #A80036; stroke-width: 1.0;"/><!--link Role to SecurityCertificatePartyRole--><path d="M2967.99,92.567 C2925.63,107.934 2870.61,125.446 2820,134 C2689.36,156.082 2652.55,119.391 2522,142 C2493.88,146.87 2463.03,157.569 2441.72,165.864 " fill="none" id="Role-SecurityCertificatePartyRole" style="stroke: #A80036; stroke-width: 1.0;"/><polygon fill="none" points="2965.62,85.984,2986.8,85.585,2970.49,99.108,2965.62,85.984" style="stroke: #A80036; stroke-width: 1.0;"/><!--link Role to InvoicePartyRole--><path d="M2997.77,97.543 C2977.56,111.58 2952.29,126.381 2927,134 C2871.23,150.8 2721.52,127.913 2665,142 C2645.53,146.852 2625.18,157.554 2611.28,165.855 " fill="none" id="Role-InvoicePartyRole" style="stroke: #A80036; stroke-width: 1.0;"/><polygon fill="none" points="2993.82,91.758,3014.1,85.604,3002.08,103.059,2993.82,91.758" style="stroke: #A80036; stroke-width: 1.0;"/><!--link Role to TaxPartyRole--><path d="M3018.41,102.507 C3009.45,114.778 2997.88,126.981 2984,134 C2964.45,143.889 2808.05,135.93 2787,142 C2769.87,146.939 2752.44,157.629 2740.62,165.903 " fill="none" id="Role-TaxPartyRole" style="stroke: #A80036; stroke-width: 1.0;"/><polygon fill="none" points="3012.56,98.653,3029.29,85.648,3024.32,106.247,3012.56,98.653" style="stroke: #A80036; stroke-width: 1.0;"/><!--link Role to InvestigationPartyRole--><path d="M3033.82,105.13 C3030.28,115.946 3024.72,126.634 3016,134 C2999.14,148.235 2988.29,136.192 2967,142 C2944.2,148.222 2919.21,158.208 2901.36,165.924 " fill="none" id="Role-InvestigationPartyRole" style="stroke: #A80036; stroke-width: 1.0;"/><polygon fill="none" points="3027.01,103.517,3038.36,85.619,3040.65,106.684,3027.01,103.517" style="stroke: #A80036; stroke-width: 1.0;"/><!--link Role to ChargePartyRole--><path d="M3040,105.559 C3040,127.159 3040,151.898 3040,165.865 " fill="none" id="Role-ChargePartyRole" style="stroke: #A80036; stroke-width: 1.0;"/><polygon fill="none" points="3033,105.52,3040,85.52,3047,105.52,3033,105.52" style="stroke: #A80036; stroke-width: 1.0;"/><!--link Role to RegulatoryAuthorityRole--><path d="M3089.05,96.991 C3123.65,120.261 3167.87,150.007 3191.44,165.865 " fill="none" id="Role-RegulatoryAuthorityRole" style="stroke: #A80036; stroke-width: 1.0;"/><polygon fill="none" points="3084.68,102.491,3071.99,85.52,3092.5,90.874,3084.68,102.491" style="stroke: #A80036; stroke-width: 1.0;"/><!--link Role to UndertakingPartyRole--><path d="M3138.59,91.053 C3188.23,105.228 3249.15,123.465 3303,142 C3324.35,149.349 3348.13,158.768 3365.74,165.983 " fill="none" id="Role-UndertakingPartyRole" style="stroke: #A80036; stroke-width: 1.0;"/><polygon fill="none" points="3136.44,97.722,3119.11,85.534,3140.26,84.252,3136.44,97.722" style="stroke: #A80036; stroke-width: 1.0;"/><!--link Role to CorporateActionPartyRole--><path d="M3147.17,78.248 C3236.88,91.305 3367.87,113.009 3480,142 C3505.38,148.561 3533.5,158.413 3553.78,165.995 " fill="none" id="Role-CorporateActionPartyRole" style="stroke: #A80036; stroke-width: 1.0;"/><polygon fill="none" points="3146.07,85.162,3127.26,75.395,3148.06,71.304,3146.07,85.162" style="stroke: #A80036; stroke-width: 1.0;"/><!--link Role to TransportPartyRole--><path d="M3147.68,67.819 C3276.65,74.5 3498.32,92.712 3682,142 C3703.38,147.737 3726.46,157.985 3742.67,165.915 " fill="none" id="Role-TransportPartyRole" style="stroke: #A80036; stroke-width: 1.0;"/><polygon fill="none" points="3147.04,74.796,3127.41,66.824,3147.73,60.813,3147.04,74.796" style="stroke: #A80036; stroke-width: 1.0;"/><!--link Role to InsurancePartyRole--><path d="M3147.46,63.381 C3303.53,64.944 3600.83,77.242 3844,142 C3865.39,147.696 3888.47,157.949 3904.68,165.892 " fill="none" id="Role-InsurancePartyRole" style="stroke: #A80036; stroke-width: 1.0;"/><polygon fill="none" points="3147.26,70.379,3127.31,63.231,3147.36,56.38,3147.26,70.379" style="stroke: #A80036; stroke-width: 1.0;"/><!--link Role to CollateralPartyRole--><path d="M3147.78,70.101 C3291.78,78.591 3554.85,95.287 3779,116 C3880.12,125.344 3907.89,115.8 4006,142 C4027.16,147.652 4049.96,157.911 4065.96,165.866 " fill="none" id="Role-CollateralPartyRole" style="stroke: #A80036; stroke-width: 1.0;"/><polygon fill="none" points="3146.97,77.065,3127.41,68.908,3147.79,63.089,3146.97,77.065" style="stroke: #A80036; stroke-width: 1.0;"/><!--link Role to ReportingPartyRole--><path d="M3147.64,69.592 C3307.97,78.159 3618.98,95.691 3883,116 C4008.49,125.653 4042.98,111.144 4165,142 C4186.61,147.464 4209.85,157.855 4226.06,165.902 " fill="none" id="Role-ReportingPartyRole" style="stroke: #A80036; stroke-width: 1.0;"/><polygon fill="none" points="3147.04,76.57,3127.44,68.518,3147.78,62.59,3147.04,76.57" style="stroke: #A80036; stroke-width: 1.0;"/><!--link Role to LegalRepresentative--><path d="M3147.4,68.712 C3326.79,76.814 3698.7,94.594 4013,116 C4152.71,125.515 4190.87,109.175 4327,142 C4349.34,147.387 4373.44,157.788 4390.26,165.857 " fill="none" id="Role-LegalRepresentative" style="stroke: #A80036; stroke-width: 1.0;"/><polygon fill="none" points="3146.94,75.699,3127.27,67.808,3147.57,61.713,3146.94,75.699" style="stroke: #A80036; stroke-width: 1.0;"/><!--link Role to ChequePartyRole--><path d="M3147.83,67.9 C3347.59,75.371 3788.7,93.02 4160,116 C4309.49,125.252 4351.14,103.94 4496,142 C4516.15,147.294 4537.54,157.82 4552.29,165.952 " fill="none" id="Role-ChequePartyRole" style="stroke: #A80036; stroke-width: 1.0;"/><polygon fill="none" points="3147.27,74.884,3127.54,67.145,3147.79,60.894,3147.27,74.884" style="stroke: #A80036; stroke-width: 1.0;"/><!--link Role to CommissionPartyRole--><path d="M3147.49,66.92 C3367.76,73.221 3886.29,89.691 4321,116 C4464.76,124.7 4503.75,109.246 4644,142 C4667.06,147.385 4692.02,157.786 4709.45,165.856 " fill="none" id="Role-CommissionPartyRole" style="stroke: #A80036; stroke-width: 1.0;"/><polygon fill="none" points="3147.22,73.915,3127.43,66.35,3147.62,59.921,3147.22,73.915" style="stroke: #A80036; stroke-width: 1.0;"/><!--link Role to GoodsPartyRole--><path d="M3147.95,66.493 C3386.74,72.321 3977.77,88.468 4472,116 C4625.97,124.577 4669.23,101.387 4818,142 C4837.22,147.248 4857.45,157.779 4871.37,165.926 " fill="none" id="Role-GoodsPartyRole" style="stroke: #A80036; stroke-width: 1.0;"/><polygon fill="none" points="3147.46,73.483,3127.64,66.001,3147.8,59.487,3147.46,73.483" style="stroke: #A80036; stroke-width: 1.0;"/><!--link Role to TradeCertificatePartyRole--><path d="M3147.54,65.698 C3405.08,70.157 4077.44,84.126 4638,116 C4780.46,124.101 4818.36,112.628 4958,142 C4984.15,147.501 5012.84,157.887 5032.94,165.923 " fill="none" id="Role-TradeCertificatePartyRole" style="stroke: #A80036; stroke-width: 1.0;"/><polygon fill="none" points="3147.42,72.697,3127.54,65.357,3147.66,58.699,3147.42,72.697" style="stroke: #A80036; stroke-width: 1.0;"/><!--link Role to MarketInfrastructure--><path d="M3147.63,65.727 C3421.1,70.437 4164.86,85.261 4784,116 C4950.42,124.262 4995.69,104.345 5158,142 C5180.77,147.282 5205.34,157.809 5222.36,165.945 " fill="none" id="Role-MarketInfrastructure" style="stroke: #A80036; stroke-width: 1.0;"/><polygon fill="none" points="3147.49,72.726,3127.61,65.386,3147.72,58.728,3147.49,72.726" style="stroke: #A80036; stroke-width: 1.0;"/><!--link Role to GuaranteePartyRole--><path d="M3147.56,65.293 C3439.09,69.15 4268.77,82.456 4958,116 C5122.66,124.013 5167.51,104.357 5328,142 C5350.53,147.284 5374.81,157.811 5391.62,165.946 " fill="none" id="Role-GuaranteePartyRole" style="stroke: #A80036; stroke-width: 1.0;"/><polygon fill="none" points="3147.42,72.292,3127.51,65.032,3147.6,58.293,3147.42,72.292" style="stroke: #A80036; stroke-width: 1.0;"/><!--link Role to PaymentObligationPartyRole--><path d="M3147.72,64.931 C3456.53,67.976 4371.36,79.636 5130,116 C5292.89,123.808 5335.88,111.072 5496,142 C5524.1,147.428 5555.08,157.824 5576.8,165.881 " fill="none" id="Role-PaymentObligationPartyRole" style="stroke: #A80036; stroke-width: 1.0;"/><polygon fill="none" points="3147.34,71.928,3127.41,64.734,3147.47,57.928,3147.34,71.928" style="stroke: #A80036; stroke-width: 1.0;"/><!--link Role to RegulatoryReportingRole--><path d="M3147.72,64.955 C3472.75,68.165 4472.21,80.435 5300,116 C5483.75,123.895 5532.8,105.218 5713,142 C5738.9,147.286 5767.22,157.813 5786.91,165.947 " fill="none" id="Role-RegulatoryReportingRole" style="stroke: #A80036; stroke-width: 1.0;"/><polygon fill="none" points="3147.23,71.951,3127.3,64.757,3147.37,57.951,3147.23,71.951" style="stroke: #A80036; stroke-width: 1.0;"/><!--link CounterpartyRisk to RolePlayer--><!--link Entry to CounterpartyRisk--><!--link Role to RolePlayer--><path d="M3127.47,63.79 C3553.05,63.038 5410.08,62.911 5986,116 C6055.56,122.412 6095.88,88.678 6141,142 C6199.99,211.709 6086.01,315.1616 6039.5,352.7208 " fill="none" id="Role-RolePlayer" style="stroke: #A80036; stroke-width: 1.0;"/><polygon fill="#A80036" points="6035.48,355.9387,6045.0043,353.4313,6039.3815,352.8117,6040.0011,347.1889,6035.48,355.9387" style="stroke: #A80036; stroke-width: 1.0;"/><text fill="#000000" font-family="sans-serif" font-size="13" lengthAdjust="spacingAndGlyphs" textLength="39" x="6150" y="235.0669">Player</text><text fill="#000000" font-family="sans-serif" font-size="13" lengthAdjust="spacingAndGlyphs" textLength="7" x="6030.8247" y="344.9658">*</text><!--link Role to CounterpartyRisk--><path d="M3127.3,64.057 C3579.12,64.553 5641.81,69.375 5923,116 C5960.3,122.185 5981.5,111.612 6004,142 C6031.17,178.704 6019.27,237.09 6011.21,265.053 " fill="none" id="Role-CounterpartyRisk" style="stroke: #A80036; stroke-width: 1.0;"/><polygon fill="#A80036" points="6009.76,269.908,6016.1652,262.4264,6011.1889,265.1165,6008.4988,260.1402,6009.76,269.908" style="stroke: #A80036; stroke-width: 1.0;"/><text fill="#000000" font-family="sans-serif" font-size="13" lengthAdjust="spacingAndGlyphs" textLength="109" x="6022" y="182.0669">CounterpartyRisk</text><text fill="#000000" font-family="sans-serif" font-size="13" lengthAdjust="spacingAndGlyphs" textLength="24" x="5981.4978" y="258.9246">0..1</text><!--link Role to Entry--><path d="M3127.42,64.562 C3444.87,66.878 4566.62,77.462 5491,116 C5676.98,123.753 5731.11,87.212 5909,142 C5923.47,146.456 5938.12,155.118 5949.2,162.709 " fill="none" id="Role-Entry" style="stroke: #A80036; stroke-width: 1.0;"/><polygon fill="#A80036" points="5953.41,165.663,5948.3171,157.2331,5949.3092,162.8023,5943.74,163.7944,5953.41,165.663" style="stroke: #A80036; stroke-width: 1.0;"/><text fill="#000000" font-family="sans-serif" font-size="13" lengthAdjust="spacingAndGlyphs" textLength="33" x="5880" y="129.0669">Entry</text><text fill="#000000" font-family="sans-serif" font-size="13" lengthAdjust="spacingAndGlyphs" textLength="8" x="5937.9208" y="154.8548">1</text></g></svg>