<?xml version="1.0" encoding="UTF-8" standalone="no"?><svg xmlns="http://www.w3.org/2000/svg" xmlns:xlink="http://www.w3.org/1999/xlink" contentScriptType="application/ecmascript" contentStyleType="text/css" height="601px" preserveAspectRatio="none" style="width:1788px;height:601px;" version="1.1" viewBox="0 0 1788 601" width="1788px" zoomAndPan="magnify"><defs><filter height="300%" id="fllep3wdjue6q" width="300%" x="-1" y="-1"><feGaussianBlur result="blurOut" stdDeviation="2.0"/><feColorMatrix in="blurOut" result="blurOut2" type="matrix" values="0 0 0 0 0 0 0 0 0 0 0 0 0 0 0 0 0 0 .4 0"/><feOffset dx="4.0" dy="4.0" in="blurOut2" result="blurOut3"/><feBlend in="SourceGraphic" in2="blurOut3" mode="normal"/></filter></defs><g><!--cluster ##19676--><!--cluster ##19685--><!--cluster ##19694--><!--class Role--><a target="_top" xlink:actuate="onRequest" xlink:href="../Role.html" xlink:show="new" xlink:title="Role of a party in an activity." xlink:type="simple"><rect fill="#FEFEEE" filter="url(#fllep3wdjue6q)" height="44.7734" id="Role" style="stroke: #A80036; stroke-width: 1.5;" width="175" x="200.75" y="40.5"/><rect fill="#FEFEEE" height="23.9688" style="stroke: #A80036; stroke-width: 1.5;" width="175" x="200.75" y="40.5"/><text fill="#000000" font-family="sans-serif" font-size="12" lengthAdjust="spacingAndGlyphs" textLength="27" x="274.75" y="56.6387">Role</text><line style="stroke: #A80036; stroke-width: 1.5;" x1="201.75" x2="374.75" y1="64.4688" y2="64.4688"/><ellipse cx="211.75" cy="76.3711" fill="#84BE84" rx="3" ry="3" style="stroke: #038048; stroke-width: 1.0;"/><text fill="#000000" font-family="sans-serif" font-size="11" lengthAdjust="spacingAndGlyphs" textLength="53" x="220.75" y="78.6792">PartyRole</text><text fill="#000000" font-family="sans-serif" font-size="11" font-style="italic" lengthAdjust="spacingAndGlyphs" textLength="92" x="277.75" y="78.6792">(PartyRoleCode)</text></a><!--class InformationPartyRole--><a target="_top" xlink:actuate="onRequest" xlink:href="../InformationPartyRole.html" xlink:show="new" xlink:title="Role played by a party as source of information." xlink:type="simple"><rect fill="#FEFEEE" filter="url(#fllep3wdjue6q)" height="23.9688" id="InformationPartyRole" style="stroke: #A80036; stroke-width: 1.5;" width="136" x="235" y="166"/><rect fill="#FEFEEE" height="23.9688" style="stroke: #A80036; stroke-width: 1.5;" width="136" x="235" y="166"/><text fill="#000000" font-family="sans-serif" font-size="12" lengthAdjust="spacingAndGlyphs" textLength="130" x="238" y="182.1387">InformationPartyRole</text></a><!--class SchemeOwner--><a target="_top" xlink:actuate="onRequest" xlink:href="../SchemeOwner.html" xlink:show="new" xlink:title="Description of the owner of a code scheme, for example, International Standards Organization." xlink:type="simple"><rect fill="#FEFECE" filter="url(#fllep3wdjue6q)" height="23.9688" id="SchemeOwner" style="stroke: #A80036; stroke-width: 1.5;" width="95" x="280.75" y="270"/><rect fill="#FEFECE" height="23.9688" style="stroke: #A80036; stroke-width: 1.5;" width="95" x="280.75" y="270"/><text fill="#000000" font-family="sans-serif" font-size="12" lengthAdjust="spacingAndGlyphs" textLength="89" x="283.75" y="286.1387">SchemeOwner</text></a><!--class RolePlayer--><a target="_top" xlink:actuate="onRequest" xlink:href="../RolePlayer.html" xlink:show="new" xlink:title="Type of entity that plays a specific role in a specific context." xlink:type="simple"><rect fill="#EEEEEE" filter="url(#fllep3wdjue6q)" height="23.9688" id="RolePlayer" style="stroke: #A80036; stroke-width: 1.5;" width="71" x="1469.75" y="460"/><rect fill="#EEEEEE" height="23.9688" style="stroke: #A80036; stroke-width: 1.5;" width="71" x="1469.75" y="460"/><text fill="#000000" font-family="sans-serif" font-size="12" lengthAdjust="spacingAndGlyphs" textLength="65" x="1472.75" y="476.1387">RolePlayer</text></a><!--class ContactPersonRole--><a target="_top" xlink:actuate="onRequest" xlink:href="../ContactPersonRole.html" xlink:show="new" xlink:title="Person to be contacted in a given organisation. In the corporate action domain (including meeting notifications) , it is the contact person at the party organising the meeting, at the issuer or at an intermediary." xlink:type="simple"><rect fill="#EEEEEE" filter="url(#fllep3wdjue6q)" height="23.9688" id="ContactPersonRole" style="stroke: #A80036; stroke-width: 1.5;" width="126" x="1422" y="374"/><rect fill="#EEEEEE" height="23.9688" style="stroke: #A80036; stroke-width: 1.5;" width="126" x="1422" y="374"/><text fill="#000000" font-family="sans-serif" font-size="12" lengthAdjust="spacingAndGlyphs" textLength="120" x="1425" y="390.1387">ContactPersonRole</text></a><!--class CounterpartyRisk--><a target="_top" xlink:actuate="onRequest" xlink:href="../CounterpartyRisk.html" xlink:show="new" xlink:title="Calculation of the exposure amount that one party has vis-a-vis one counterparty or a central system, based on its credit risk." xlink:type="simple"><rect fill="#EEEEEE" filter="url(#fllep3wdjue6q)" height="23.9688" id="CounterpartyRisk" style="stroke: #A80036; stroke-width: 1.5;" width="113" x="1422.75" y="270"/><rect fill="#EEEEEE" height="23.9688" style="stroke: #A80036; stroke-width: 1.5;" width="113" x="1422.75" y="270"/><text fill="#000000" font-family="sans-serif" font-size="12" lengthAdjust="spacingAndGlyphs" textLength="107" x="1425.75" y="286.1387">CounterpartyRisk</text></a><!--class Entry--><a target="_top" xlink:actuate="onRequest" xlink:href="../Entry.html" xlink:show="new" xlink:title="Posting to an account that results in an increase or decrease to a balance." xlink:type="simple"><rect fill="#EEEEEE" filter="url(#fllep3wdjue6q)" height="23.9688" id="Entry" style="stroke: #A80036; stroke-width: 1.5;" width="38" x="1466" y="166"/><rect fill="#EEEEEE" height="23.9688" style="stroke: #A80036; stroke-width: 1.5;" width="38" x="1466" y="166"/><text fill="#000000" font-family="sans-serif" font-size="12" lengthAdjust="spacingAndGlyphs" textLength="32" x="1469" y="182.1387">Entry</text></a><!--class GenericIdentification--><a target="_top" xlink:actuate="onRequest" xlink:href="../GenericIdentification.html" xlink:show="new" xlink:title="Information related to a non-standardised identification, such as a proprietary party identification or account identification." xlink:type="simple"><rect fill="#EEEEEE" filter="url(#fllep3wdjue6q)" height="23.9688" id="GenericIdentification" style="stroke: #A80036; stroke-width: 1.5;" width="135" x="496.75" y="270"/><rect fill="#EEEEEE" height="23.9688" style="stroke: #A80036; stroke-width: 1.5;" width="135" x="496.75" y="270"/><text fill="#000000" font-family="sans-serif" font-size="12" lengthAdjust="spacingAndGlyphs" textLength="129" x="499.75" y="286.1387">GenericIdentification</text></a><!--class HaircutValuation--><a target="_top" xlink:actuate="onRequest" xlink:href="../HaircutValuation.html" xlink:show="new" xlink:title="Basic valuation details of an asset's market value." xlink:type="simple"><rect fill="#EEEEEE" filter="url(#fllep3wdjue6q)" height="23.9688" id="HaircutValuation" style="stroke: #A80036; stroke-width: 1.5;" width="110" x="1201" y="564"/><rect fill="#EEEEEE" height="23.9688" style="stroke: #A80036; stroke-width: 1.5;" width="110" x="1201" y="564"/><text fill="#000000" font-family="sans-serif" font-size="12" lengthAdjust="spacingAndGlyphs" textLength="104" x="1204" y="580.1387">HaircutValuation</text></a><!--class SecuritiesPricing--><a target="_top" xlink:actuate="onRequest" xlink:href="../SecuritiesPricing.html" xlink:show="new" xlink:title="Characteristics related to the price of the security." xlink:type="simple"><rect fill="#EEEEEE" filter="url(#fllep3wdjue6q)" height="23.9688" id="SecuritiesPricing" style="stroke: #A80036; stroke-width: 1.5;" width="110" x="792" y="460"/><rect fill="#EEEEEE" height="23.9688" style="stroke: #A80036; stroke-width: 1.5;" width="110" x="792" y="460"/><text fill="#000000" font-family="sans-serif" font-size="12" lengthAdjust="spacingAndGlyphs" textLength="104" x="795" y="476.1387">SecuritiesPricing</text></a><!--class Scheme--><a target="_top" xlink:actuate="onRequest" xlink:href="../Scheme.html" xlink:show="new" xlink:title="Information regarding an enumerated code list and its owner." xlink:type="simple"><rect fill="#EEEEEE" filter="url(#fllep3wdjue6q)" height="23.9688" id="Scheme" style="stroke: #A80036; stroke-width: 1.5;" width="56" x="536.5" y="374"/><rect fill="#EEEEEE" height="23.9688" style="stroke: #A80036; stroke-width: 1.5;" width="56" x="536.5" y="374"/><text fill="#000000" font-family="sans-serif" font-size="12" lengthAdjust="spacingAndGlyphs" textLength="50" x="539.5" y="390.1387">Scheme</text></a><!--class Quote--><a target="_top" xlink:actuate="onRequest" xlink:href="../Quote.html" xlink:show="new" xlink:title="Indicates whether the quote details are indicated as an offer, a bid or a mid of a security, commodity, currency (the latter being an average of the offer and the bid)." xlink:type="simple"><rect fill="#EEEEEE" filter="url(#fllep3wdjue6q)" height="23.9688" id="Quote" style="stroke: #A80036; stroke-width: 1.5;" width="44" x="459.5" y="564"/><rect fill="#EEEEEE" height="23.9688" style="stroke: #A80036; stroke-width: 1.5;" width="44" x="459.5" y="564"/><text fill="#000000" font-family="sans-serif" font-size="12" lengthAdjust="spacingAndGlyphs" textLength="38" x="462.5" y="580.1387">Quote</text></a><!--class TreasuryTrade--><a target="_top" xlink:actuate="onRequest" xlink:href="../TreasuryTrade.html" xlink:show="new" xlink:title="Specifies trades linked to treasury operations such as the exchange of currencies, the lending of cash amounts and the related derivatives trades (options and non deliverable trades)." xlink:type="simple"><rect fill="#EEEEEE" filter="url(#fllep3wdjue6q)" height="23.9688" id="TreasuryTrade" style="stroke: #A80036; stroke-width: 1.5;" width="96" x="432" y="460"/><rect fill="#EEEEEE" height="23.9688" style="stroke: #A80036; stroke-width: 1.5;" width="96" x="432" y="460"/><text fill="#000000" font-family="sans-serif" font-size="12" lengthAdjust="spacingAndGlyphs" textLength="90" x="435" y="476.1387">TreasuryTrade</text></a><!--entity ##19707--><!--link Role to InformationPartyRole--><path d="M293.517,105.559 C296.384,127.159 299.668,151.898 301.522,165.865 " fill="none" id="Role-InformationPartyRole" style="stroke: #A80036; stroke-width: 1.0;"/><polygon fill="none" points="286.549,106.268,290.857,85.52,300.428,104.425,286.549,106.268" style="stroke: #A80036; stroke-width: 1.0;"/><!--link InformationPartyRole to SchemeOwner--><path d="M310.583,209.94 C315.569,230.283 321.797,255.69 325.293,269.954 " fill="none" id="InformationPartyRole-SchemeOwner" style="stroke: #A80036; stroke-width: 1.0;"/><polygon fill="none" points="303.733,211.397,305.771,190.306,317.331,208.064,303.733,211.397" style="stroke: #A80036; stroke-width: 1.0;"/><!--link ContactPersonRole to RolePlayer--><!--link CounterpartyRisk to ContactPersonRole--><!--link Entry to CounterpartyRisk--><!--link HaircutValuation to GenericIdentification--><!--link SecuritiesPricing to HaircutValuation--><!--link Scheme to SecuritiesPricing--><!--link Quote to Scheme--><!--link TreasuryTrade to Quote--><!--link Role to RolePlayer--><path d="M375.574,65.115 C618.259,68.618 1296,81.308 1516,116 C1616.23,131.805 1736,75.533 1736,177 C1736,177 1736,177 1736,387 C1736,427.082 1611.61,453.571 1545.39,464.833 " fill="none" id="Role-RolePlayer" style="stroke: #A80036; stroke-width: 1.0;"/><polygon fill="#A80036" points="1540.34,465.682,1549.8784,468.1354,1545.2709,464.8535,1548.5528,460.246,1540.34,465.682" style="stroke: #A80036; stroke-width: 1.0;"/><text fill="#000000" font-family="sans-serif" font-size="13" lengthAdjust="spacingAndGlyphs" textLength="39" x="1737" y="286.0669">Player</text><text fill="#000000" font-family="sans-serif" font-size="13" lengthAdjust="spacingAndGlyphs" textLength="7" x="1548.7816" y="458.5254">*</text><!--link Role to ContactPersonRole--><path d="M375.676,63.476 C612.058,62.763 1258.59,65.618 1465,116 C1491.66,122.507 1503.05,121.242 1521,142 C1572.95,202.083 1582.4,244.62 1552,318 C1542.85,340.088 1522.5,358.691 1506.61,370.647 " fill="none" id="Role-ContactPersonRole" style="stroke: #A80036; stroke-width: 1.0;"/><polygon fill="#A80036" points="1502.26,373.84,1511.8828,371.7422,1506.2917,370.8827,1507.1511,365.2915,1502.26,373.84" style="stroke: #A80036; stroke-width: 1.0;"/><text fill="#000000" font-family="sans-serif" font-size="13" lengthAdjust="spacingAndGlyphs" textLength="121" x="1570" y="233.0669">ContactPersonRole</text><text fill="#000000" font-family="sans-serif" font-size="13" lengthAdjust="spacingAndGlyphs" textLength="8" x="1497.4744" y="362.8332">1</text><!--link Role to CounterpartyRisk--><path d="M375.355,72.448 C551.499,90.588 961.129,138.377 1297,220 C1350.3,232.954 1410.31,254.47 1446.36,268.181 " fill="none" id="Role-CounterpartyRisk" style="stroke: #A80036; stroke-width: 1.0;"/><polygon fill="#A80036" points="1451.06,269.979,1444.0815,263.0291,1446.3896,268.1937,1441.225,270.5017,1451.06,269.979" style="stroke: #A80036; stroke-width: 1.0;"/><text fill="#000000" font-family="sans-serif" font-size="13" lengthAdjust="spacingAndGlyphs" textLength="109" x="1163" y="182.0669">CounterpartyRisk</text><text fill="#000000" font-family="sans-serif" font-size="13" lengthAdjust="spacingAndGlyphs" textLength="24" x="1411.9009" y="259.02">0..1</text><!--link Role to Entry--><path d="M375.398,65.817 C593.806,70.756 1159.18,86.108 1345,116 C1387.8,122.885 1400.16,122.751 1439,142 C1449.82,147.361 1460.63,155.414 1469.05,162.444 " fill="none" id="Role-Entry" style="stroke: #A80036; stroke-width: 1.0;"/><polygon fill="#A80036" points="1472.98,165.797,1468.7256,156.9144,1469.1749,162.5534,1463.5359,163.0027,1472.98,165.797" style="stroke: #A80036; stroke-width: 1.0;"/><text fill="#000000" font-family="sans-serif" font-size="13" lengthAdjust="spacingAndGlyphs" textLength="33" x="1422" y="129.0669">Entry</text><text fill="#000000" font-family="sans-serif" font-size="13" lengthAdjust="spacingAndGlyphs" textLength="8" x="1458.3421" y="155.0332">1</text><!--link InformationPartyRole to GenericIdentification--><path d="M331.18,190.013 C379.704,208.976 478.808,247.706 530.674,267.976 " fill="none" id="InformationPartyRole-GenericIdentification" style="stroke: #A80036; stroke-width: 1.0;"/><polygon fill="#A80036" points="535.542,269.879,528.6153,262.8775,530.885,268.0591,525.7034,270.3287,535.542,269.879" style="stroke: #A80036; stroke-width: 1.0;"/><text fill="#000000" font-family="sans-serif" font-size="13" lengthAdjust="spacingAndGlyphs" textLength="130" x="451" y="233.0669">GenericIdentification</text><text fill="#000000" font-family="sans-serif" font-size="13" lengthAdjust="spacingAndGlyphs" textLength="7" x="516.1268" y="258.8856">*</text><!--link InformationPartyRole to HaircutValuation--><path d="M371.064,179.674 C536.66,182.132 956.397,193.513 1085,246 C1224,302.732 1255.38,369.454 1288,516 C1289.74,523.8089 1290.6,526.4352 1288,534 C1284.68,543.6535 1278.05,552.7774 1271.68,559.9564 " fill="none" id="InformationPartyRole-HaircutValuation" style="stroke: #A80036; stroke-width: 1.0;"/><polygon fill="#A80036" points="1268.19,563.7357,1277.235,559.8384,1271.5826,560.0627,1271.3582,554.4103,1268.19,563.7357" style="stroke: #A80036; stroke-width: 1.0;"/><text fill="#000000" font-family="sans-serif" font-size="13" lengthAdjust="spacingAndGlyphs" textLength="106" x="1255" y="390.0669">HaircutValuation</text><text fill="#000000" font-family="sans-serif" font-size="13" lengthAdjust="spacingAndGlyphs" textLength="7" x="1262.7373" y="552.9516">*</text><!--link InformationPartyRole to SecuritiesPricing--><path d="M371.32,180.045 C554.053,184.437 1046.84,207.276 1145,326 C1215.28,411.007 1013.19,450.012 907.246,464.242 " fill="none" id="InformationPartyRole-SecuritiesPricing" style="stroke: #A80036; stroke-width: 1.0;"/><polygon fill="#A80036" points="902.275,464.901,911.7227,467.6832,907.2316,464.2437,910.6711,459.7526,902.275,464.901" style="stroke: #A80036; stroke-width: 1.0;"/><text fill="#000000" font-family="sans-serif" font-size="13" lengthAdjust="spacingAndGlyphs" textLength="31" x="1158" y="339.0669">Price</text><text fill="#000000" font-family="sans-serif" font-size="13" lengthAdjust="spacingAndGlyphs" textLength="7" x="910.1729" y="458.8828">*</text><!--link InformationPartyRole to Scheme--><path d="M274.504,190.045 C251.634,200.612 221.098,218.969 207,246 C192.202,274.373 186.566,293.374 207,318 C248.128,367.565 450.911,380.689 531.192,383.97 " fill="none" id="InformationPartyRole-Scheme" style="stroke: #A80036; stroke-width: 1.0;"/><polygon fill="#A80036" points="536.3,384.172,527.4647,379.8203,531.3039,383.9749,527.1493,387.8141,536.3,384.172" style="stroke: #A80036; stroke-width: 1.0;"/><text fill="#000000" font-family="sans-serif" font-size="13" lengthAdjust="spacingAndGlyphs" textLength="53" x="208" y="286.0669">Scheme</text><text fill="#000000" font-family="sans-serif" font-size="13" lengthAdjust="spacingAndGlyphs" textLength="24" x="504.4763" y="378.5419">0..1</text><!--link InformationPartyRole to Quote--><path d="M234.862,188.481 C147.178,202.632 6,232.887 6,281 C6,281 6,281 6,473 C6,565.3917 353.872,574.3501 454.211,575.0124 " fill="none" id="InformationPartyRole-Quote" style="stroke: #A80036; stroke-width: 1.0;"/><polygon fill="#A80036" points="459.356,575.0404,450.379,570.989,454.3561,575.0118,450.3333,578.9889,459.356,575.0404" style="stroke: #A80036; stroke-width: 1.0;"/><text fill="#000000" font-family="sans-serif" font-size="13" lengthAdjust="spacingAndGlyphs" textLength="39" x="7" y="390.0669">Quote</text><text fill="#000000" font-family="sans-serif" font-size="13" lengthAdjust="spacingAndGlyphs" textLength="24" x="427.437" y="569.2611">0..1</text><!--link InformationPartyRole to TreasuryTrade--><path d="M270.161,190.08 C204.321,214.084 66.5488,274.372 116,344 C187.2,444.251 343.671,466.02 426.357,470.32 " fill="none" id="InformationPartyRole-TreasuryTrade" style="stroke: #A80036; stroke-width: 1.0;"/><polygon fill="#A80036" points="431.695,470.579,422.8986,466.1491,426.7008,470.3376,422.5124,474.1398,431.695,470.579" style="stroke: #A80036; stroke-width: 1.0;"/><text fill="#000000" font-family="sans-serif" font-size="13" lengthAdjust="spacingAndGlyphs" textLength="91" x="117" y="339.0669">TreasuryTrade</text><text fill="#000000" font-family="sans-serif" font-size="13" lengthAdjust="spacingAndGlyphs" textLength="7" x="416.9294" y="465.3853">*</text><!--link GenericIdentification to Scheme--><path d="M564,294.306 C564,312.399 564,347.936 564,368.75 " fill="none" id="GenericIdentification-Scheme" style="stroke: #A80036; stroke-width: 1.0;"/><polygon fill="#A80036" points="564,373.954,568,364.954,564,368.954,560,364.954,564,373.954" style="stroke: #A80036; stroke-width: 1.0;"/><text fill="#000000" font-family="sans-serif" font-size="13" lengthAdjust="spacingAndGlyphs" textLength="53" x="565" y="339.0669">Scheme</text><text fill="#000000" font-family="sans-serif" font-size="13" lengthAdjust="spacingAndGlyphs" textLength="8" x="553.1094" y="362.9864">1</text><!--link SecuritiesPricing to Quote--><path d="M843.251,484.171 C837.863,498.337 826.492,522.3204 808,534 C758.143,565.4902 576.568,572.8508 507.717,574.5235 " fill="none" id="SecuritiesPricing-Quote" style="stroke: #A80036; stroke-width: 1.0;"/><polygon fill="#A80036" points="502.57,574.643,511.6602,578.4336,507.5687,574.5273,511.475,570.4358,502.57,574.643" style="stroke: #A80036; stroke-width: 1.0;"/><text fill="#000000" font-family="sans-serif" font-size="13" lengthAdjust="spacingAndGlyphs" textLength="218" x="828" y="529.0669">PreviousClosingPriceRelatedQuote</text><text fill="#000000" font-family="sans-serif" font-size="13" lengthAdjust="spacingAndGlyphs" textLength="24" x="511.4576" y="588.3829">0..1</text><!--link SecuritiesPricing to Quote--><path d="M902.31,472.747 C978.842,474.17 1102.62,483.932 1056,534 C1018.27,574.5138 616.214,575.6229 507.801,575.178 " fill="none" id="SecuritiesPricing-Quote" style="stroke: #A80036; stroke-width: 1.0;"/><polygon fill="#A80036" points="502.565,575.1543,511.5466,579.1954,507.5649,575.1772,511.5832,571.1955,502.565,575.1543" style="stroke: #A80036; stroke-width: 1.0;"/><text fill="#000000" font-family="sans-serif" font-size="13" lengthAdjust="spacingAndGlyphs" textLength="186" x="1067" y="529.0669">RequestedPriceRelatedQuote</text><text fill="#000000" font-family="sans-serif" font-size="13" lengthAdjust="spacingAndGlyphs" textLength="24" x="511.4512" y="568.7316">0..1</text><!--link SecuritiesPricing to Quote--><path d="M791.976,480.736 C736.709,488.339 649.064,499.943 573,508 C562.466,509.116 485.169,508.202 478,516 C467.583,527.3316 470.41,545.6542 474.534,558.8765 " fill="none" id="SecuritiesPricing-Quote" style="stroke: #A80036; stroke-width: 1.0;"/><polygon fill="#A80036" points="476.217,563.8441,477.1181,554.0366,474.6129,559.1084,469.541,556.6032,476.217,563.8441" style="stroke: #A80036; stroke-width: 1.0;"/><text fill="#000000" font-family="sans-serif" font-size="13" lengthAdjust="spacingAndGlyphs" textLength="118" x="479" y="529.0669">PriceRelatedQuote</text><text fill="#000000" font-family="sans-serif" font-size="13" lengthAdjust="spacingAndGlyphs" textLength="24" x="478.526" y="552.8387">0..1</text><!--link SecuritiesPricing to Quote--><path d="M791.675,479.403 C748.116,485.58 686.388,496.877 635,516 C619.707,521.6911 617.911,527.3716 603,534 C571.033,548.2104 532.536,560.3743 507.452,567.6799 " fill="none" id="SecuritiesPricing-Quote" style="stroke: #A80036; stroke-width: 1.0;"/><polygon fill="#A80036" points="502.62,569.0754,512.3764,570.4214,507.4237,567.6882,510.1569,562.7355,502.62,569.0754" style="stroke: #A80036; stroke-width: 1.0;"/><text fill="#000000" font-family="sans-serif" font-size="13" lengthAdjust="spacingAndGlyphs" textLength="162" x="636" y="529.0669">MarketPriceRelatedQuote</text><text fill="#000000" font-family="sans-serif" font-size="13" lengthAdjust="spacingAndGlyphs" textLength="24" x="511.521" y="561.019">0..1</text></g></svg>