<?xml version="1.0" encoding="UTF-8" standalone="no"?><svg xmlns="http://www.w3.org/2000/svg" xmlns:xlink="http://www.w3.org/1999/xlink" contentScriptType="application/ecmascript" contentStyleType="text/css" height="478px" preserveAspectRatio="none" style="width:1026px;height:478px;" version="1.1" viewBox="0 0 1026 478" width="1026px" zoomAndPan="magnify"><defs><filter height="300%" id="fmiyjoow4b3c1" width="300%" x="-1" y="-1"><feGaussianBlur result="blurOut" stdDeviation="2.0"/><feColorMatrix in="blurOut" result="blurOut2" type="matrix" values="0 0 0 0 0 0 0 0 0 0 0 0 0 0 0 0 0 0 .4 0"/><feOffset dx="4.0" dy="4.0" in="blurOut2" result="blurOut3"/><feBlend in="SourceGraphic" in2="blurOut3" mode="normal"/></filter></defs><g><!--cluster ##12736--><!--cluster ##12748--><!--cluster ##12757--><!--class Role--><a target="_top" xlink:actuate="onRequest" xlink:href="../Role.html" xlink:show="new" xlink:title="Role of a party in an activity." xlink:type="simple"><rect fill="#FEFEEE" filter="url(#fmiyjoow4b3c1)" height="44.7734" id="Role" style="stroke: #A80036; stroke-width: 1.5;" width="175" x="270.75" y="40.5"/><rect fill="#FEFEEE" height="23.9688" style="stroke: #A80036; stroke-width: 1.5;" width="175" x="270.75" y="40.5"/><text fill="#000000" font-family="sans-serif" font-size="12" lengthAdjust="spacingAndGlyphs" textLength="27" x="344.75" y="56.6387">Role</text><line style="stroke: #A80036; stroke-width: 1.5;" x1="271.75" x2="444.75" y1="64.4688" y2="64.4688"/><ellipse cx="281.75" cy="76.3711" fill="#84BE84" rx="3" ry="3" style="stroke: #038048; stroke-width: 1.0;"/><text fill="#000000" font-family="sans-serif" font-size="11" lengthAdjust="spacingAndGlyphs" textLength="53" x="290.75" y="78.6792">PartyRole</text><text fill="#000000" font-family="sans-serif" font-size="11" font-style="italic" lengthAdjust="spacingAndGlyphs" textLength="92" x="347.75" y="78.6792">(PartyRoleCode)</text></a><!--class SecurityCertificatePartyRole--><a target="_top" xlink:actuate="onRequest" xlink:href="../SecurityCertificatePartyRole.html" xlink:show="new" xlink:title="Role played by a party in the context of a security certificate." xlink:type="simple"><rect fill="#FEFECE" filter="url(#fmiyjoow4b3c1)" height="23.9688" id="SecurityCertificatePartyRole" style="stroke: #A80036; stroke-width: 1.5;" width="179" x="265.75" y="166"/><rect fill="#FEFECE" height="23.9688" style="stroke: #A80036; stroke-width: 1.5;" width="179" x="265.75" y="166"/><text fill="#000000" font-family="sans-serif" font-size="12" lengthAdjust="spacingAndGlyphs" textLength="173" x="268.75" y="182.1387">SecurityCertificatePartyRole</text></a><!--class SecurityCertificateHolderRole--><a target="_top" xlink:actuate="onRequest" xlink:href="../SecurityCertificateHolderRole.html" xlink:show="new" xlink:title="Holder of the security certificate." xlink:type="simple"><rect fill="#FEFEEE" filter="url(#fmiyjoow4b3c1)" height="23.9688" id="SecurityCertificateHolderRole" style="stroke: #A80036; stroke-width: 1.5;" width="188" x="38" y="270"/><rect fill="#FEFEEE" height="23.9688" style="stroke: #A80036; stroke-width: 1.5;" width="188" x="38" y="270"/><text fill="#000000" font-family="sans-serif" font-size="12" lengthAdjust="spacingAndGlyphs" textLength="182" x="41" y="286.1387">SecurityCertificateHolderRole</text></a><!--class SecurityCertificateIssuerRole--><a target="_top" xlink:actuate="onRequest" xlink:href="../SecurityCertificateIssuerRole.html" xlink:show="new" xlink:title="Party that issues security certificates." xlink:type="simple"><rect fill="#FEFEEE" filter="url(#fmiyjoow4b3c1)" height="23.9688" id="SecurityCertificateIssuerRole" style="stroke: #A80036; stroke-width: 1.5;" width="185" x="261.75" y="270"/><rect fill="#FEFEEE" height="23.9688" style="stroke: #A80036; stroke-width: 1.5;" width="185" x="261.75" y="270"/><text fill="#000000" font-family="sans-serif" font-size="12" lengthAdjust="spacingAndGlyphs" textLength="179" x="264.75" y="286.1387">SecurityCertificateIssuerRole</text></a><!--class RolePlayer--><a target="_top" xlink:actuate="onRequest" xlink:href="../RolePlayer.html" xlink:show="new" xlink:title="Type of entity that plays a specific role in a specific context." xlink:type="simple"><rect fill="#EEEEEE" filter="url(#fmiyjoow4b3c1)" height="23.9688" id="RolePlayer" style="stroke: #A80036; stroke-width: 1.5;" width="71" x="835.75" y="444"/><rect fill="#EEEEEE" height="23.9688" style="stroke: #A80036; stroke-width: 1.5;" width="71" x="835.75" y="444"/><text fill="#000000" font-family="sans-serif" font-size="12" lengthAdjust="spacingAndGlyphs" textLength="65" x="838.75" y="460.1387">RolePlayer</text></a><!--class ContactPersonRole--><a target="_top" xlink:actuate="onRequest" xlink:href="../ContactPersonRole.html" xlink:show="new" xlink:title="Person to be contacted in a given organisation. In the corporate action domain (including meeting notifications), it is the contact person at the party organising the meeting, at the issuer or at an intermediary." xlink:type="simple"><rect fill="#EEEEEE" filter="url(#fmiyjoow4b3c1)" height="23.9688" id="ContactPersonRole" style="stroke: #A80036; stroke-width: 1.5;" width="126" x="828" y="358"/><rect fill="#EEEEEE" height="23.9688" style="stroke: #A80036; stroke-width: 1.5;" width="126" x="828" y="358"/><text fill="#000000" font-family="sans-serif" font-size="12" lengthAdjust="spacingAndGlyphs" textLength="120" x="831" y="374.1387">ContactPersonRole</text></a><!--class CounterpartyRisk--><a target="_top" xlink:actuate="onRequest" xlink:href="../CounterpartyRisk.html" xlink:show="new" xlink:title="Calculation of the exposure amount that one party has vis-a-vis one counterparty or a central system, based on its credit risk." xlink:type="simple"><rect fill="#EEEEEE" filter="url(#fmiyjoow4b3c1)" height="23.9688" id="CounterpartyRisk" style="stroke: #A80036; stroke-width: 1.5;" width="113" x="840.75" y="270"/><rect fill="#EEEEEE" height="23.9688" style="stroke: #A80036; stroke-width: 1.5;" width="113" x="840.75" y="270"/><text fill="#000000" font-family="sans-serif" font-size="12" lengthAdjust="spacingAndGlyphs" textLength="107" x="843.75" y="286.1387">CounterpartyRisk</text></a><!--class Entry--><a target="_top" xlink:actuate="onRequest" xlink:href="../Entry.html" xlink:show="new" xlink:title="Posting to an account that results in an increase or decrease to a balance." xlink:type="simple"><rect fill="#EEEEEE" filter="url(#fmiyjoow4b3c1)" height="23.9688" id="Entry" style="stroke: #A80036; stroke-width: 1.5;" width="38" x="828" y="166"/><rect fill="#EEEEEE" height="23.9688" style="stroke: #A80036; stroke-width: 1.5;" width="38" x="828" y="166"/><text fill="#000000" font-family="sans-serif" font-size="12" lengthAdjust="spacingAndGlyphs" textLength="32" x="831" y="182.1387">Entry</text></a><!--class SecurityCertificate--><a target="_top" xlink:actuate="onRequest" xlink:href="../SecurityCertificate.html" xlink:show="new" xlink:title="Certificate linked to a digital signature." xlink:type="simple"><rect fill="#EEEEEE" filter="url(#fmiyjoow4b3c1)" height="23.9688" id="SecurityCertificate" style="stroke: #A80036; stroke-width: 1.5;" width="120" x="502.5" y="270"/><rect fill="#EEEEEE" height="23.9688" style="stroke: #A80036; stroke-width: 1.5;" width="120" x="502.5" y="270"/><text fill="#000000" font-family="sans-serif" font-size="12" lengthAdjust="spacingAndGlyphs" textLength="114" x="505.5" y="286.1387">SecurityCertificate</text></a><!--link Role to SecurityCertificatePartyRole--><path d="M356.897,105.559 C356.323,127.159 355.666,151.898 355.296,165.865 " fill="none" id="Role-SecurityCertificatePartyRole" style="stroke: #A80036; stroke-width: 1.0;"/><polygon fill="none" points="349.9,105.328,357.429,85.52,363.895,105.699,349.9,105.328" style="stroke: #A80036; stroke-width: 1.0;"/><!--link SecurityCertificatePartyRole to SecurityCertificateHolderRole--><path d="M312.347,198.509 C266.036,219.692 193.691,252.783 156.259,269.904 " fill="none" id="SecurityCertificatePartyRole-SecurityCertificateHolderRole" style="stroke: #A80036; stroke-width: 1.0;"/><polygon fill="none" points="309.611,192.063,330.711,190.11,315.435,204.795,309.611,192.063" style="stroke: #A80036; stroke-width: 1.0;"/><!--link SecurityCertificatePartyRole to SecurityCertificateIssuerRole--><path d="M354.69,210.595 C354.492,230.825 354.247,255.843 354.108,269.954 " fill="none" id="SecurityCertificatePartyRole-SecurityCertificateIssuerRole" style="stroke: #A80036; stroke-width: 1.0;"/><polygon fill="none" points="347.693,210.236,354.889,190.306,361.693,210.373,347.693,210.236" style="stroke: #A80036; stroke-width: 1.0;"/><!--link ContactPersonRole to RolePlayer--><!--link CounterpartyRisk to ContactPersonRole--><!--link Entry to CounterpartyRisk--><!--link Role to RolePlayer--><path d="M445.318,76.002 C544.279,92.114 692,124.891 692,177 C692,177 692,177 692,371 C692,431.8572 777.842,448.7099 830.634,453.3199 " fill="none" id="Role-RolePlayer" style="stroke: #A80036; stroke-width: 1.0;"/><polygon fill="#A80036" points="835.635,453.7288,826.9919,449.0068,830.6517,453.3202,826.3382,456.98,835.635,453.7288" style="stroke: #A80036; stroke-width: 1.0;"/><text fill="#000000" font-family="sans-serif" font-size="13" lengthAdjust="spacingAndGlyphs" textLength="39" x="693" y="286.0669">Player</text><text fill="#000000" font-family="sans-serif" font-size="13" lengthAdjust="spacingAndGlyphs" textLength="7" x="820.7402" y="447.9585">*</text><!--link Role to ContactPersonRole--><path d="M445.296,66.827 C537.995,71.5 676.741,83.804 718,116 C764.198,152.051 740.131,186.452 768,238 C788.52,275.956 793.125,286.868 823,318 C836.704,332.281 854.714,345.597 868.757,355.039 " fill="none" id="Role-ContactPersonRole" style="stroke: #A80036; stroke-width: 1.0;"/><polygon fill="#A80036" points="872.978,357.842,867.6906,349.5328,868.8118,355.0774,863.2672,356.1987,872.978,357.842" style="stroke: #A80036; stroke-width: 1.0;"/><text fill="#000000" font-family="sans-serif" font-size="13" lengthAdjust="spacingAndGlyphs" textLength="121" x="769" y="233.0669">ContactPersonRole</text><text fill="#000000" font-family="sans-serif" font-size="13" lengthAdjust="spacingAndGlyphs" textLength="8" x="856.0642" y="346.8359">1</text><!--link Role to CounterpartyRisk--><path d="M445.427,64.516 C571.169,66.666 795.594,76.172 865,116 C895.998,133.788 910.721,218.342 911,220 C913.586,235.376 908.874,252.681 904.233,264.921 " fill="none" id="Role-CounterpartyRisk" style="stroke: #A80036; stroke-width: 1.0;"/><polygon fill="#A80036" points="902.27,269.837,909.322,262.9618,904.124,265.1934,901.8923,259.9954,902.27,269.837" style="stroke: #A80036; stroke-width: 1.0;"/><text fill="#000000" font-family="sans-serif" font-size="13" lengthAdjust="spacingAndGlyphs" textLength="109" x="905" y="182.0669">CounterpartyRisk</text><text fill="#000000" font-family="sans-serif" font-size="13" lengthAdjust="spacingAndGlyphs" textLength="24" x="874.5269" y="258.8292">0..1</text><!--link Role to Entry--><path d="M445.332,66.198 C556.792,70.367 742.224,82.288 801,116 C818.987,126.317 832.159,146.78 839.69,161.151 " fill="none" id="Role-Entry" style="stroke: #A80036; stroke-width: 1.0;"/><polygon fill="#A80036" points="842.027,165.768,841.532,155.9316,839.7692,161.3068,834.3941,159.544,842.027,165.768" style="stroke: #A80036; stroke-width: 1.0;"/><text fill="#000000" font-family="sans-serif" font-size="13" lengthAdjust="spacingAndGlyphs" textLength="33" x="822" y="129.0669">Entry</text><text fill="#000000" font-family="sans-serif" font-size="13" lengthAdjust="spacingAndGlyphs" textLength="8" x="829.7234" y="154.9946">1</text><!--link SecurityCertificatePartyRole to SecurityCertificate--><path d="M377.547,190.11 C415.887,209.002 493.632,247.311 534.879,267.636 " fill="none" id="SecurityCertificatePartyRole-SecurityCertificate" style="stroke: #A80036; stroke-width: 1.0;"/><polygon fill="#A80036" points="539.481,269.904,533.1764,262.3375,534.9961,267.6937,529.6399,269.5134,539.481,269.904" style="stroke: #A80036; stroke-width: 1.0;"/><text fill="#000000" font-family="sans-serif" font-size="13" lengthAdjust="spacingAndGlyphs" textLength="117" x="472" y="233.0669">SecurityCertificate</text><text fill="#000000" font-family="sans-serif" font-size="13" lengthAdjust="spacingAndGlyphs" textLength="7" x="522.0213" y="258.9192">*</text></g></svg>