<?xml version="1.0" encoding="UTF-8" standalone="no"?><svg xmlns="http://www.w3.org/2000/svg" xmlns:xlink="http://www.w3.org/1999/xlink" contentScriptType="application/ecmascript" contentStyleType="text/css" height="530px" preserveAspectRatio="none" style="width:2288px;height:530px;" version="1.1" viewBox="0 0 2288 530" width="2288px" zoomAndPan="magnify"><defs><filter height="300%" id="frle1irfgofzk" width="300%" x="-1" y="-1"><feGaussianBlur result="blurOut" stdDeviation="2.0"/><feColorMatrix in="blurOut" result="blurOut2" type="matrix" values="0 0 0 0 0 0 0 0 0 0 0 0 0 0 0 0 0 0 .4 0"/><feOffset dx="4.0" dy="4.0" in="blurOut2" result="blurOut3"/><feBlend in="SourceGraphic" in2="blurOut3" mode="normal"/></filter></defs><g><!--cluster ##11330--><!--cluster ##11363--><!--cluster ##11372--><!--cluster ##11377--><!--class Role--><a target="_top" xlink:actuate="onRequest" xlink:href="../Role.html" xlink:show="new" xlink:title="Role of a party in an activity." xlink:type="simple"><rect fill="#FEFEEE" filter="url(#frle1irfgofzk)" height="44.7734" id="Role" style="stroke: #A80036; stroke-width: 1.5;" width="175" x="1109.75" y="40.5"/><rect fill="#FEFEEE" height="23.9688" style="stroke: #A80036; stroke-width: 1.5;" width="175" x="1109.75" y="40.5"/><text fill="#000000" font-family="sans-serif" font-size="12" lengthAdjust="spacingAndGlyphs" textLength="27" x="1183.75" y="56.6387">Role</text><line style="stroke: #A80036; stroke-width: 1.5;" x1="1110.75" x2="1283.75" y1="64.4688" y2="64.4688"/><ellipse cx="1120.75" cy="76.3711" fill="#84BE84" rx="3" ry="3" style="stroke: #038048; stroke-width: 1.0;"/><text fill="#000000" font-family="sans-serif" font-size="11" lengthAdjust="spacingAndGlyphs" textLength="53" x="1129.75" y="78.6792">PartyRole</text><text fill="#000000" font-family="sans-serif" font-size="11" font-style="italic" lengthAdjust="spacingAndGlyphs" textLength="92" x="1186.75" y="78.6792">(PartyRoleCode)</text></a><!--class TradePartyRole--><a target="_top" xlink:actuate="onRequest" xlink:href="../TradePartyRole.html" xlink:show="new" xlink:title="Trading party in a commercial, securities, treasury trade. This role may also represent parties which play different intermediary roles in a trade." xlink:type="simple"><rect fill="#FEFEEE" filter="url(#frle1irfgofzk)" height="57.5781" id="TradePartyRole" style="stroke: #A80036; stroke-width: 1.5;" width="279" x="1005.75" y="164"/><rect fill="#FEFEEE" height="23.9688" style="stroke: #A80036; stroke-width: 1.5;" width="279" x="1005.75" y="164"/><text fill="#000000" font-family="sans-serif" font-size="12" lengthAdjust="spacingAndGlyphs" textLength="95" x="1097.75" y="180.1387">TradePartyRole</text><line style="stroke: #A80036; stroke-width: 1.5;" x1="1006.75" x2="1283.75" y1="187.9688" y2="187.9688"/><ellipse cx="1016.75" cy="199.8711" fill="#84BE84" rx="3" ry="3" style="stroke: #038048; stroke-width: 1.0;"/><text fill="#000000" font-family="sans-serif" font-size="11" lengthAdjust="spacingAndGlyphs" textLength="120" x="1025.75" y="202.1792">TradingPartyCapacity</text><text fill="#000000" font-family="sans-serif" font-size="11" font-style="italic" lengthAdjust="spacingAndGlyphs" textLength="129" x="1149.75" y="202.1792">(TradingCapacityCode)</text><ellipse cx="1016.75" cy="212.6758" fill="#84BE84" rx="3" ry="3" style="stroke: #038048; stroke-width: 1.0;"/><text fill="#000000" font-family="sans-serif" font-size="11" lengthAdjust="spacingAndGlyphs" textLength="80" x="1025.75" y="214.9839">BuyerOrSeller</text><text fill="#000000" font-family="sans-serif" font-size="11" font-style="italic" lengthAdjust="spacingAndGlyphs" textLength="104" x="1109.75" y="214.9839">(OptionPartyCode)</text></a><!--class SecuritiesTradePartyRole--><a target="_top" xlink:actuate="onRequest" xlink:href="../SecuritiesTradePartyRole.html" xlink:show="new" xlink:title="Role played by a party in the context of a securities trade." xlink:type="simple"><rect fill="#FEFECE" filter="url(#frle1irfgofzk)" height="23.9688" id="SecuritiesTradePartyRole" style="stroke: #A80036; stroke-width: 1.5;" width="163" x="708.75" y="302"/><rect fill="#FEFECE" height="23.9688" style="stroke: #A80036; stroke-width: 1.5;" width="163" x="708.75" y="302"/><text fill="#000000" font-family="sans-serif" font-size="12" lengthAdjust="spacingAndGlyphs" textLength="157" x="711.75" y="318.1387">SecuritiesTradePartyRole</text></a><!--class AffirmingPartyRole--><a target="_top" xlink:actuate="onRequest" xlink:href="../AffirmingPartyRole.html" xlink:show="new" xlink:title="Party (buyer or seller) that positively affirms the details of a previously agreed security trade confirmation." xlink:type="simple"><rect fill="#FEFEEE" filter="url(#frle1irfgofzk)" height="23.9688" id="AffirmingPartyRole" style="stroke: #A80036; stroke-width: 1.5;" width="119" x="38.75" y="406"/><rect fill="#FEFEEE" height="23.9688" style="stroke: #A80036; stroke-width: 1.5;" width="119" x="38.75" y="406"/><text fill="#000000" font-family="sans-serif" font-size="12" lengthAdjust="spacingAndGlyphs" textLength="113" x="41.75" y="422.1387">AffirmingPartyRole</text></a><!--class ContraFirm--><a target="_top" xlink:actuate="onRequest" xlink:href="../ContraFirm.html" xlink:show="new" xlink:title="Party that is the counterparty in a trade." xlink:type="simple"><rect fill="#FEFEEE" filter="url(#frle1irfgofzk)" height="23.9688" id="ContraFirm" style="stroke: #A80036; stroke-width: 1.5;" width="74" x="193" y="406"/><rect fill="#FEFEEE" height="23.9688" style="stroke: #A80036; stroke-width: 1.5;" width="74" x="193" y="406"/><text fill="#000000" font-family="sans-serif" font-size="12" lengthAdjust="spacingAndGlyphs" textLength="68" x="196" y="422.1387">ContraFirm</text></a><!--class ETCServiceProvider--><a target="_top" xlink:actuate="onRequest" xlink:href="../ETCServiceProvider.html" xlink:show="new" xlink:title="Party that provides electronic trade confirmation services to its clients. For example, trade and allocation matching." xlink:type="simple"><rect fill="#FEFEEE" filter="url(#frle1irfgofzk)" height="23.9688" id="ETCServiceProvider" style="stroke: #A80036; stroke-width: 1.5;" width="125" x="302.75" y="406"/><rect fill="#FEFEEE" height="23.9688" style="stroke: #A80036; stroke-width: 1.5;" width="125" x="302.75" y="406"/><text fill="#000000" font-family="sans-serif" font-size="12" lengthAdjust="spacingAndGlyphs" textLength="119" x="305.75" y="422.1387">ETCServiceProvider</text></a><!--class ExecutingTrader--><a target="_top" xlink:actuate="onRequest" xlink:href="../ExecutingTrader.html" xlink:show="new" xlink:title="Trader that executes a trade for an organisation." xlink:type="simple"><rect fill="#FEFEEE" filter="url(#frle1irfgofzk)" height="23.9688" id="ExecutingTrader" style="stroke: #A80036; stroke-width: 1.5;" width="108" x="463" y="406"/><rect fill="#FEFEEE" height="23.9688" style="stroke: #A80036; stroke-width: 1.5;" width="108" x="463" y="406"/><text fill="#000000" font-family="sans-serif" font-size="12" lengthAdjust="spacingAndGlyphs" textLength="102" x="466" y="422.1387">ExecutingTrader</text></a><!--class SecuritiesTradeSystemRole--><a target="_top" xlink:actuate="onRequest" xlink:href="../SecuritiesTradeSystemRole.html" xlink:show="new" xlink:title="Role played by a system in the context of a securities trade." xlink:type="simple"><rect fill="#FEFEEE" filter="url(#frle1irfgofzk)" height="23.9688" id="SecuritiesTradeSystemRole" style="stroke: #A80036; stroke-width: 1.5;" width="176" x="606.5" y="406"/><rect fill="#FEFEEE" height="23.9688" style="stroke: #A80036; stroke-width: 1.5;" width="176" x="606.5" y="406"/><text fill="#000000" font-family="sans-serif" font-size="12" lengthAdjust="spacingAndGlyphs" textLength="170" x="609.5" y="422.1387">SecuritiesTradeSystemRole</text></a><!--class ExecutionDestination--><a target="_top" xlink:actuate="onRequest" xlink:href="../ExecutionDestination.html" xlink:show="new" xlink:title="Destination for the execution, as defined by an institution when an order is entered." xlink:type="simple"><rect fill="#FEFEEE" filter="url(#frle1irfgofzk)" height="23.9688" id="ExecutionDestination" style="stroke: #A80036; stroke-width: 1.5;" width="139" x="817.75" y="406"/><rect fill="#FEFEEE" height="23.9688" style="stroke: #A80036; stroke-width: 1.5;" width="139" x="817.75" y="406"/><text fill="#000000" font-family="sans-serif" font-size="12" lengthAdjust="spacingAndGlyphs" textLength="133" x="820.75" y="422.1387">ExecutionDestination</text></a><!--class AccountingAgent--><a target="_top" xlink:actuate="onRequest" xlink:href="../AccountingAgent.html" xlink:show="new" xlink:title="Party in charge of the accounting tasks." xlink:type="simple"><rect fill="#FEFEEE" filter="url(#frle1irfgofzk)" height="23.9688" id="AccountingAgent" style="stroke: #A80036; stroke-width: 1.5;" width="113" x="991.75" y="406"/><rect fill="#FEFEEE" height="23.9688" style="stroke: #A80036; stroke-width: 1.5;" width="113" x="991.75" y="406"/><text fill="#000000" font-family="sans-serif" font-size="12" lengthAdjust="spacingAndGlyphs" textLength="107" x="994.75" y="422.1387">AccountingAgent</text></a><!--class SystematicInternaliser--><a target="_top" xlink:actuate="onRequest" xlink:href="../SystematicInternaliser.html" xlink:show="new" xlink:title="Firm which deals on its own account by executing client orders outside a regulated market or a multi-lateral trading facility, against its own books or against orders from other clients." xlink:type="simple"><rect fill="#FEFEEE" filter="url(#frle1irfgofzk)" height="23.9688" id="SystematicInternaliser" style="stroke: #A80036; stroke-width: 1.5;" width="145" x="1139.75" y="406"/><rect fill="#FEFEEE" height="23.9688" style="stroke: #A80036; stroke-width: 1.5;" width="145" x="1139.75" y="406"/><text fill="#000000" font-family="sans-serif" font-size="12" lengthAdjust="spacingAndGlyphs" textLength="139" x="1142.75" y="422.1387">SystematicInternaliser</text></a><!--class RolePlayer--><a target="_top" xlink:actuate="onRequest" xlink:href="../RolePlayer.html" xlink:show="new" xlink:title="Type of entity that plays a specific role in a specific context." xlink:type="simple"><rect fill="#EEEEEE" filter="url(#frle1irfgofzk)" height="23.9688" id="RolePlayer" style="stroke: #A80036; stroke-width: 1.5;" width="71" x="1863.75" y="496"/><rect fill="#EEEEEE" height="23.9688" style="stroke: #A80036; stroke-width: 1.5;" width="71" x="1863.75" y="496"/><text fill="#000000" font-family="sans-serif" font-size="12" lengthAdjust="spacingAndGlyphs" textLength="65" x="1866.75" y="512.1387">RolePlayer</text></a><!--class ContactPersonRole--><a target="_top" xlink:actuate="onRequest" xlink:href="../ContactPersonRole.html" xlink:show="new" xlink:title="Person to be contacted in a given organisation. In the corporate action domain (including meeting notifications) , it is the contact person at the party organising the meeting, at the issuer or at an intermediary." xlink:type="simple"><rect fill="#EEEEEE" filter="url(#frle1irfgofzk)" height="23.9688" id="ContactPersonRole" style="stroke: #A80036; stroke-width: 1.5;" width="126" x="1816" y="406"/><rect fill="#EEEEEE" height="23.9688" style="stroke: #A80036; stroke-width: 1.5;" width="126" x="1816" y="406"/><text fill="#000000" font-family="sans-serif" font-size="12" lengthAdjust="spacingAndGlyphs" textLength="120" x="1819" y="422.1387">ContactPersonRole</text></a><!--class CounterpartyRisk--><a target="_top" xlink:actuate="onRequest" xlink:href="../CounterpartyRisk.html" xlink:show="new" xlink:title="Calculation of the exposure amount that one party has vis-a-vis one counterparty or a central system, based on its credit risk." xlink:type="simple"><rect fill="#EEEEEE" filter="url(#frle1irfgofzk)" height="23.9688" id="CounterpartyRisk" style="stroke: #A80036; stroke-width: 1.5;" width="113" x="1828.75" y="302"/><rect fill="#EEEEEE" height="23.9688" style="stroke: #A80036; stroke-width: 1.5;" width="113" x="1828.75" y="302"/><text fill="#000000" font-family="sans-serif" font-size="12" lengthAdjust="spacingAndGlyphs" textLength="107" x="1831.75" y="318.1387">CounterpartyRisk</text></a><!--class Entry--><a target="_top" xlink:actuate="onRequest" xlink:href="../Entry.html" xlink:show="new" xlink:title="Posting to an account that results in an increase or decrease to a balance." xlink:type="simple"><rect fill="#EEEEEE" filter="url(#frle1irfgofzk)" height="23.9688" id="Entry" style="stroke: #A80036; stroke-width: 1.5;" width="38" x="1816" y="181"/><rect fill="#EEEEEE" height="23.9688" style="stroke: #A80036; stroke-width: 1.5;" width="38" x="1816" y="181"/><text fill="#000000" font-family="sans-serif" font-size="12" lengthAdjust="spacingAndGlyphs" textLength="32" x="1819" y="197.1387">Entry</text></a><!--class Account--><a target="_top" xlink:actuate="onRequest" xlink:href="../Account.html" xlink:show="new" xlink:title="Record of transactions in specific types of assets, maintained by a servicing party on behalf of one or more owning parties. Business relationship between an account servicer and one or more account owners." xlink:type="simple"><rect fill="#EEEEEE" filter="url(#frle1irfgofzk)" height="23.9688" id="Account" style="stroke: #A80036; stroke-width: 1.5;" width="57" x="1501.75" y="406"/><rect fill="#EEEEEE" height="23.9688" style="stroke: #A80036; stroke-width: 1.5;" width="57" x="1501.75" y="406"/><text fill="#000000" font-family="sans-serif" font-size="12" lengthAdjust="spacingAndGlyphs" textLength="51" x="1504.75" y="422.1387">Account</text></a><!--class Trade--><a target="_top" xlink:actuate="onRequest" xlink:href="../Trade.html" xlink:show="new" xlink:title="Result of an order between at least two parties. A trade relates to the delivery of goods and services, cash or securities." xlink:type="simple"><rect fill="#EEEEEE" filter="url(#frle1irfgofzk)" height="23.9688" id="Trade" style="stroke: #A80036; stroke-width: 1.5;" width="42" x="1501.5" y="302"/><rect fill="#EEEEEE" height="23.9688" style="stroke: #A80036; stroke-width: 1.5;" width="42" x="1501.5" y="302"/><text fill="#000000" font-family="sans-serif" font-size="12" lengthAdjust="spacingAndGlyphs" textLength="36" x="1504.5" y="318.1387">Trade</text></a><!--class SecuritiesTrade--><a target="_top" xlink:actuate="onRequest" xlink:href="../SecuritiesTrade.html" xlink:show="new" xlink:title="Specifies trades linked to securities operations such as the exchange of securities, the lending of securities and the transactions related to investment funds." xlink:type="simple"><rect fill="#EEEEEE" filter="url(#frle1irfgofzk)" height="23.9688" id="SecuritiesTrade" style="stroke: #A80036; stroke-width: 1.5;" width="104" x="1341" y="406"/><rect fill="#EEEEEE" height="23.9688" style="stroke: #A80036; stroke-width: 1.5;" width="104" x="1341" y="406"/><text fill="#000000" font-family="sans-serif" font-size="12" lengthAdjust="spacingAndGlyphs" textLength="98" x="1344" y="422.1387">SecuritiesTrade</text></a><!--link Role to TradePartyRole--><path d="M1180.62,104.318 C1172.75,123.689 1163.51,146.43 1156.42,163.897 " fill="none" id="Role-TradePartyRole" style="stroke: #A80036; stroke-width: 1.0;"/><polygon fill="none" points="1174.17,101.608,1188.18,85.713,1187.14,106.877,1174.17,101.608" style="stroke: #A80036; stroke-width: 1.0;"/><!--link TradePartyRole to SecuritiesTradePartyRole--><path d="M1042,228.526 C967.868,253.377 872.554,285.327 823.094,301.906 " fill="none" id="TradePartyRole-SecuritiesTradePartyRole" style="stroke: #A80036; stroke-width: 1.0;"/><polygon fill="none" points="1040.13,221.77,1061.32,222.051,1044.58,235.044,1040.13,221.77" style="stroke: #A80036; stroke-width: 1.0;"/><!--link SecuritiesTradePartyRole to AffirmingPartyRole--><path d="M688.463,320.097 C589.676,325.868 435.519,337.028 303,356 C245.535,364.227 230.221,364.097 175,382 C155.444,388.34 134.249,398.213 119.056,405.859 " fill="none" id="SecuritiesTradePartyRole-AffirmingPartyRole" style="stroke: #A80036; stroke-width: 1.0;"/><polygon fill="none" points="688.309,313.094,708.674,318.946,689.105,327.072,688.309,313.094" style="stroke: #A80036; stroke-width: 1.0;"/><!--link SecuritiesTradePartyRole to ContraFirm--><path d="M688.625,315.364 C584.341,318.715 418.716,332.417 285,382 C269.931,387.588 254.657,397.745 244.042,405.684 " fill="none" id="SecuritiesTradePartyRole-ContraFirm" style="stroke: #A80036; stroke-width: 1.0;"/><polygon fill="none" points="688.455,308.366,708.636,314.824,688.832,322.361,688.455,308.366" style="stroke: #A80036; stroke-width: 1.0;"/><!--link SecuritiesTradePartyRole to ETCServiceProvider--><path d="M688.743,328.64 C619.208,339.463 525.322,356.967 445,382 C424.737,388.315 402.711,398.19 386.91,405.844 " fill="none" id="SecuritiesTradePartyRole-ETCServiceProvider" style="stroke: #A80036; stroke-width: 1.0;"/><polygon fill="none" points="687.763,321.709,708.587,325.629,689.863,335.55,687.763,321.709" style="stroke: #A80036; stroke-width: 1.0;"/><!--link SecuritiesTradePartyRole to ExecutingTrader--><path d="M732.152,331.864 C691.34,344.323 635.669,362.454 588,382 C570.58,389.143 551.471,398.664 537.47,405.973 " fill="none" id="SecuritiesTradePartyRole-ExecutingTrader" style="stroke: #A80036; stroke-width: 1.0;"/><polygon fill="none" points="730.286,325.116,751.455,326.056,734.32,338.522,730.286,325.116" style="stroke: #A80036; stroke-width: 1.0;"/><!--link SecuritiesTradePartyRole to SecuritiesTradeSystemRole--><path d="M765.387,341.151 C745.638,362.135 718.898,390.546 704.396,405.954 " fill="none" id="SecuritiesTradePartyRole-SecuritiesTradeSystemRole" style="stroke: #A80036; stroke-width: 1.0;"/><polygon fill="none" points="760.555,336.072,779.36,326.306,770.75,345.667,760.555,336.072" style="stroke: #A80036; stroke-width: 1.0;"/><!--link SecuritiesTradePartyRole to ExecutionDestination--><path d="M814.574,340.84 C834.557,361.853 861.77,390.47 876.495,405.954 " fill="none" id="SecuritiesTradePartyRole-ExecutionDestination" style="stroke: #A80036; stroke-width: 1.0;"/><polygon fill="none" points="809.461,345.622,800.751,326.306,819.606,335.975,809.461,345.622" style="stroke: #A80036; stroke-width: 1.0;"/><!--link SecuritiesTradePartyRole to AccountingAgent--><path d="M841.678,332.591 C878.584,345.475 929.239,363.818 973,382 C990.913,389.443 1010.79,398.769 1025.58,405.922 " fill="none" id="SecuritiesTradePartyRole-AccountingAgent" style="stroke: #A80036; stroke-width: 1.0;"/><polygon fill="none" points="839.331,339.186,822.72,326.03,843.91,325.956,839.331,339.186" style="stroke: #A80036; stroke-width: 1.0;"/><!--link SecuritiesTradePartyRole to SystematicInternaliser--><path d="M882.112,329.381 C949.084,340.865 1041.55,358.856 1121,382 C1143.59,388.58 1168.48,398.333 1186.51,405.874 " fill="none" id="SecuritiesTradePartyRole-SystematicInternaliser" style="stroke: #A80036; stroke-width: 1.0;"/><polygon fill="none" points="880.749,336.25,862.189,326.028,883.073,322.445,880.749,336.25" style="stroke: #A80036; stroke-width: 1.0;"/><!--link ContactPersonRole to RolePlayer--><!--link CounterpartyRisk to ContactPersonRole--><!--link Entry to CounterpartyRisk--><!--link Trade to Account--><!--link Role to RolePlayer--><path d="M1284.69,65.65 C1535.18,71.517 2236,96.47 2236,192 C2236,192 2236,192 2236,419 C2236,479.6217 2029.27,499.2654 1939.64,504.9332 " fill="none" id="Role-RolePlayer" style="stroke: #A80036; stroke-width: 1.0;"/><polygon fill="#A80036" points="1934.43,505.2555,1943.6636,508.6819,1939.4201,504.9412,1943.1608,500.6977,1934.43,505.2555" style="stroke: #A80036; stroke-width: 1.0;"/><text fill="#000000" font-family="sans-serif" font-size="13" lengthAdjust="spacingAndGlyphs" textLength="39" x="2237" y="318.0669">Player</text><text fill="#000000" font-family="sans-serif" font-size="13" lengthAdjust="spacingAndGlyphs" textLength="7" x="1942.8913" y="498.8806">*</text><!--link Role to ContactPersonRole--><path d="M1284.61,67.075 C1486.61,75.113 1971.26,100.19 2016,157 C2082.01,240.826 1948.76,361.196 1897.74,402.47 " fill="none" id="Role-ContactPersonRole" style="stroke: #A80036; stroke-width: 1.0;"/><polygon fill="#A80036" points="1893.64,405.761,1903.1632,403.2495,1897.5402,402.6323,1898.1573,397.0092,1893.64,405.761" style="stroke: #A80036; stroke-width: 1.0;"/><text fill="#000000" font-family="sans-serif" font-size="13" lengthAdjust="spacingAndGlyphs" textLength="121" x="2025" y="265.0669">ContactPersonRole</text><text fill="#000000" font-family="sans-serif" font-size="13" lengthAdjust="spacingAndGlyphs" textLength="8" x="1887.8333" y="394.9853">1</text><!--link Role to CounterpartyRisk--><path d="M1284.46,63.114 C1448.37,63.453 1792.36,74.283 1871,157 C1907.31,195.19 1896.67,264.954 1889.35,296.606 " fill="none" id="Role-CounterpartyRisk" style="stroke: #A80036; stroke-width: 1.0;"/><polygon fill="#A80036" points="1888.13,301.703,1894.1264,293.89,1889.3009,296.842,1886.3489,292.0165,1888.13,301.703" style="stroke: #A80036; stroke-width: 1.0;"/><text fill="#000000" font-family="sans-serif" font-size="13" lengthAdjust="spacingAndGlyphs" textLength="109" x="1897" y="197.0669">CounterpartyRisk</text><text fill="#000000" font-family="sans-serif" font-size="13" lengthAdjust="spacingAndGlyphs" textLength="24" x="1859.7778" y="290.9081">0..1</text><!--link Role to Entry--><path d="M1284.37,81.529 C1432.46,111.239 1725.02,169.936 1810.82,187.148 " fill="none" id="Role-Entry" style="stroke: #A80036; stroke-width: 1.0;"/><polygon fill="#A80036" points="1815.93,188.174,1807.879,182.5011,1811.0253,187.2022,1806.3242,190.3485,1815.93,188.174" style="stroke: #A80036; stroke-width: 1.0;"/><text fill="#000000" font-family="sans-serif" font-size="13" lengthAdjust="spacingAndGlyphs" textLength="33" x="1537" y="129.0669">Entry</text><text fill="#000000" font-family="sans-serif" font-size="13" lengthAdjust="spacingAndGlyphs" textLength="8" x="1799.8594" y="180.3505">1</text><!--link TradePartyRole to Account--><path d="M1284.46,203.694 C1390.75,214.327 1524.54,235.84 1559,278 C1588.65,314.265 1558.31,373.27 1540.7,401.281 " fill="none" id="TradePartyRole-Account" style="stroke: #A80036; stroke-width: 1.0;"/><polygon fill="#A80036" points="1537.78,405.821,1546.0045,400.4027,1540.4783,401.6116,1539.2694,396.0854,1537.78,405.821" style="stroke: #A80036; stroke-width: 1.0;"/><text fill="#000000" font-family="sans-serif" font-size="13" lengthAdjust="spacingAndGlyphs" textLength="52" x="1573" y="318.0669">Account</text><text fill="#000000" font-family="sans-serif" font-size="13" lengthAdjust="spacingAndGlyphs" textLength="7" x="1530.8216" y="394.8077">*</text><!--link TradePartyRole to Trade--><path d="M1233.87,222.051 C1319.49,249.077 1443.59,288.251 1496.53,304.961 " fill="none" id="TradePartyRole-Trade" style="stroke: #A80036; stroke-width: 1.0;"/><polygon fill="#A80036" points="1501.43,306.507,1494.0633,299.97,1496.6646,304.9933,1491.6414,307.5946,1501.43,306.507" style="stroke: #A80036; stroke-width: 1.0;"/><text fill="#000000" font-family="sans-serif" font-size="13" lengthAdjust="spacingAndGlyphs" textLength="36" x="1380" y="265.0669">Trade</text><text fill="#000000" font-family="sans-serif" font-size="13" lengthAdjust="spacingAndGlyphs" textLength="7" x="1486.5581" y="298.2978">*</text><!--link SecuritiesTradePartyRole to SecuritiesTrade--><path d="M871.635,319.82 C973.439,327.168 1152.21,344.49 1301,382 C1322.51,387.422 1345.86,396.343 1363.65,403.822 " fill="none" id="SecuritiesTradePartyRole-SecuritiesTrade" style="stroke: #A80036; stroke-width: 1.0;"/><polygon fill="#A80036" points="1368.52,405.889,1361.8036,398.6855,1363.9189,403.932,1358.6724,406.0473,1368.52,405.889" style="stroke: #A80036; stroke-width: 1.0;"/><text fill="#000000" font-family="sans-serif" font-size="13" lengthAdjust="spacingAndGlyphs" textLength="99" x="1262" y="369.0669">SecuritiesTrade</text><text fill="#000000" font-family="sans-serif" font-size="13" lengthAdjust="spacingAndGlyphs" textLength="7" x="1350.5581" y="394.8991">*</text><!--link Entry to Account--><path d="M1823.8,205.32 C1788.7,240.62 1680.71,347.893 1639,374 C1615.43,388.752 1585.97,400.008 1563.61,407.296 " fill="none" id="Entry-Account" style="stroke: #A80036; stroke-width: 1.0;"/><polygon fill="#A80036" points="1558.67,408.882,1568.459,409.9662,1563.4348,407.3666,1566.0344,402.3425,1558.67,408.882" style="stroke: #A80036; stroke-width: 1.0;"/><text fill="#000000" font-family="sans-serif" font-size="13" lengthAdjust="spacingAndGlyphs" textLength="52" x="1749" y="318.0669">Account</text><text fill="#000000" font-family="sans-serif" font-size="13" lengthAdjust="spacingAndGlyphs" textLength="7" x="1566.8495" y="400.4553">*</text><!--link Account to Account--><path d="M1558.51,409.984 C1576.18,408.051 1593,410.723 1593,418 C1593,424.538 1579.42,427.359 1563.85,426.463 " fill="none" id="Account-Account" style="stroke: #A80036; stroke-width: 1.0;"/><polygon fill="#A80036" points="1558.51,426.016,1567.1341,430.7725,1563.4916,426.4445,1567.8197,422.8019,1558.51,426.016" style="stroke: #A80036; stroke-width: 1.0;"/><text fill="#000000" font-family="sans-serif" font-size="13" lengthAdjust="spacingAndGlyphs" textLength="94" x="1599" y="422.0669">ParentAccount</text><text fill="#000000" font-family="sans-serif" font-size="13" lengthAdjust="spacingAndGlyphs" textLength="8" x="1566.7766" y="421.9799">1</text></g></svg>