<?xml version="1.0" encoding="UTF-8" standalone="no"?><svg xmlns="http://www.w3.org/2000/svg" xmlns:xlink="http://www.w3.org/1999/xlink" contentScriptType="application/ecmascript" contentStyleType="text/css" height="530px" preserveAspectRatio="none" style="width:3506px;height:530px;" version="1.1" viewBox="0 0 3506 530" width="3506px" zoomAndPan="magnify"><defs><filter height="300%" id="fi1by470tt0te" width="300%" x="-1" y="-1"><feGaussianBlur result="blurOut" stdDeviation="2.0"/><feColorMatrix in="blurOut" result="blurOut2" type="matrix" values="0 0 0 0 0 0 0 0 0 0 0 0 0 0 0 0 0 0 .4 0"/><feOffset dx="4.0" dy="4.0" in="blurOut2" result="blurOut3"/><feBlend in="SourceGraphic" in2="blurOut3" mode="normal"/></filter></defs><g><!--cluster ##7707--><!--cluster ##7746--><!--cluster ##7755--><!--cluster ##7760--><!--class Role--><a target="_top" xlink:actuate="onRequest" xlink:href="../Role.html" xlink:show="new" xlink:title="Role of a party in an activity." xlink:type="simple"><rect fill="#FEFEEE" filter="url(#fi1by470tt0te)" height="44.7734" id="Role" style="stroke: #A80036; stroke-width: 1.5;" width="175" x="1957.75" y="40.5"/><rect fill="#FEFEEE" height="23.9688" style="stroke: #A80036; stroke-width: 1.5;" width="175" x="1957.75" y="40.5"/><text fill="#000000" font-family="sans-serif" font-size="12" lengthAdjust="spacingAndGlyphs" textLength="27" x="2031.75" y="56.6387">Role</text><line style="stroke: #A80036; stroke-width: 1.5;" x1="1958.75" x2="2131.75" y1="64.4688" y2="64.4688"/><ellipse cx="1968.75" cy="76.3711" fill="#84BE84" rx="3" ry="3" style="stroke: #038048; stroke-width: 1.0;"/><text fill="#000000" font-family="sans-serif" font-size="11" lengthAdjust="spacingAndGlyphs" textLength="53" x="1977.75" y="78.6792">PartyRole</text><text fill="#000000" font-family="sans-serif" font-size="11" font-style="italic" lengthAdjust="spacingAndGlyphs" textLength="92" x="2034.75" y="78.6792">(PartyRoleCode)</text></a><!--class SettlementPartyRole--><a target="_top" xlink:actuate="onRequest" xlink:href="../SettlementPartyRole.html" xlink:show="new" xlink:title="Role played by a party in a settlement process." xlink:type="simple"><rect fill="#FEFEEE" filter="url(#fi1by470tt0te)" height="23.9688" id="SettlementPartyRole" style="stroke: #A80036; stroke-width: 1.5;" width="134" x="1989" y="166"/><rect fill="#FEFEEE" height="23.9688" style="stroke: #A80036; stroke-width: 1.5;" width="134" x="1989" y="166"/><text fill="#000000" font-family="sans-serif" font-size="12" lengthAdjust="spacingAndGlyphs" textLength="128" x="1992" y="182.1387">SettlementPartyRole</text></a><!--class SecuritiesSettlementPartyRole--><a target="_top" xlink:actuate="onRequest" xlink:href="../SecuritiesSettlementPartyRole.html" xlink:show="new" xlink:title="Role played by a party in the context of the settlement of securities." xlink:type="simple"><rect fill="#FEFECE" filter="url(#fi1by470tt0te)" height="57.5781" id="SecuritiesSettlementPartyRole" style="stroke: #A80036; stroke-width: 1.5;" width="249" x="1455.75" y="268"/><rect fill="#FEFECE" height="23.9688" style="stroke: #A80036; stroke-width: 1.5;" width="249" x="1455.75" y="268"/><text fill="#000000" font-family="sans-serif" font-size="12" lengthAdjust="spacingAndGlyphs" textLength="190" x="1485.25" y="284.1387">SecuritiesSettlementPartyRole</text><line style="stroke: #A80036; stroke-width: 1.5;" x1="1456.75" x2="1703.75" y1="291.9688" y2="291.9688"/><ellipse cx="1466.75" cy="303.8711" fill="#84BE84" rx="3" ry="3" style="stroke: #038048; stroke-width: 1.0;"/><text fill="#000000" font-family="sans-serif" font-size="11" lengthAdjust="spacingAndGlyphs" textLength="91" x="1475.75" y="306.1792">SettlingCapacity</text><text fill="#000000" font-family="sans-serif" font-size="11" font-style="italic" lengthAdjust="spacingAndGlyphs" textLength="128" x="1570.75" y="306.1792">(SettlingCapacityCode)</text><ellipse cx="1466.75" cy="316.6758" fill="#84BE84" rx="3" ry="3" style="stroke: #038048; stroke-width: 1.0;"/><text fill="#000000" font-family="sans-serif" font-size="11" lengthAdjust="spacingAndGlyphs" textLength="68" x="1475.75" y="318.9839">TaxCapacity</text><text fill="#000000" font-family="sans-serif" font-size="11" font-style="italic" lengthAdjust="spacingAndGlyphs" textLength="101" x="1547.75" y="318.9839">(TaxLiabilityCode)</text></a><!--class ReceivingSettlementParty--><a target="_top" xlink:actuate="onRequest" xlink:href="../ReceivingSettlementParty.html" xlink:show="new" xlink:title="Party that receives securities as part of a chain of settlement parties or as ultimate party." xlink:type="simple"><rect fill="#FEFEEE" filter="url(#fi1by470tt0te)" height="23.9688" id="ReceivingSettlementParty" style="stroke: #A80036; stroke-width: 1.5;" width="166" x="38" y="406"/><rect fill="#FEFEEE" height="23.9688" style="stroke: #A80036; stroke-width: 1.5;" width="166" x="38" y="406"/><text fill="#000000" font-family="sans-serif" font-size="12" lengthAdjust="spacingAndGlyphs" textLength="160" x="41" y="422.1387">ReceivingSettlementParty</text></a><!--class DeliveringSettlementParty--><a target="_top" xlink:actuate="onRequest" xlink:href="../DeliveringSettlementParty.html" xlink:show="new" xlink:title="Party that is responsible for delivering securities as part of a chain of settlement parties or as party that sells them." xlink:type="simple"><rect fill="#FEFEEE" filter="url(#fi1by470tt0te)" height="23.9688" id="DeliveringSettlementParty" style="stroke: #A80036; stroke-width: 1.5;" width="168" x="435.5" y="406"/><rect fill="#FEFEEE" height="23.9688" style="stroke: #A80036; stroke-width: 1.5;" width="168" x="435.5" y="406"/><text fill="#000000" font-family="sans-serif" font-size="12" lengthAdjust="spacingAndGlyphs" textLength="162" x="438.5" y="422.1387">DeliveringSettlementParty</text></a><!--class ReceivingAgent--><a target="_top" xlink:actuate="onRequest" xlink:href="../ReceivingAgent.html" xlink:show="new" xlink:title="Party that receives securities from the delivering agent at the place of settlement. For example, a central securities depository." xlink:type="simple"><rect fill="#FEFEEE" filter="url(#fi1by470tt0te)" height="23.9688" id="ReceivingAgent" style="stroke: #A80036; stroke-width: 1.5;" width="102" x="837.5" y="406"/><rect fill="#FEFEEE" height="23.9688" style="stroke: #A80036; stroke-width: 1.5;" width="102" x="837.5" y="406"/><text fill="#000000" font-family="sans-serif" font-size="12" lengthAdjust="spacingAndGlyphs" textLength="96" x="840.5" y="422.1387">ReceivingAgent</text></a><!--class LocalSettlementAgentRole--><a target="_top" xlink:actuate="onRequest" xlink:href="../LocalSettlementAgentRole.html" xlink:show="new" xlink:title="Party which holds securities and settles trades for non-resident customers. The customers' securities are held in one omnibus account or in sub accounts at the local central securities depository." xlink:type="simple"><rect fill="#FEFEEE" filter="url(#fi1by470tt0te)" height="23.9688" id="LocalSettlementAgentRole" style="stroke: #A80036; stroke-width: 1.5;" width="171" x="974.75" y="406"/><rect fill="#FEFEEE" height="23.9688" style="stroke: #A80036; stroke-width: 1.5;" width="171" x="974.75" y="406"/><text fill="#000000" font-family="sans-serif" font-size="12" lengthAdjust="spacingAndGlyphs" textLength="165" x="977.75" y="422.1387">LocalSettlementAgentRole</text></a><!--class DeliverersCustodian--><a target="_top" xlink:actuate="onRequest" xlink:href="../DeliverersCustodian.html" xlink:show="new" xlink:title="Party that acts on behalf of the seller of securities when the seller does not have a direct relationship with the delivering agent." xlink:type="simple"><rect fill="#FEFEEE" filter="url(#fi1by470tt0te)" height="23.9688" id="DeliverersCustodian" style="stroke: #A80036; stroke-width: 1.5;" width="131" x="1180.75" y="406"/><rect fill="#FEFEEE" height="23.9688" style="stroke: #A80036; stroke-width: 1.5;" width="131" x="1180.75" y="406"/><text fill="#000000" font-family="sans-serif" font-size="12" lengthAdjust="spacingAndGlyphs" textLength="125" x="1183.75" y="422.1387">DeliverersCustodian</text></a><!--class DeliverersIntermediary--><a target="_top" xlink:actuate="onRequest" xlink:href="../DeliverersIntermediary.html" xlink:show="new" xlink:title="Party that the deliverer's custodian uses to effect the delivery of a security, when the deliverer's custodian does not have a direct relationship with the delivering agent." xlink:type="simple"><rect fill="#FEFEEE" filter="url(#fi1by470tt0te)" height="23.9688" id="DeliverersIntermediary" style="stroke: #A80036; stroke-width: 1.5;" width="146" x="1347" y="406"/><rect fill="#FEFEEE" height="23.9688" style="stroke: #A80036; stroke-width: 1.5;" width="146" x="1347" y="406"/><text fill="#000000" font-family="sans-serif" font-size="12" lengthAdjust="spacingAndGlyphs" textLength="140" x="1350" y="422.1387">DeliverersIntermediary</text></a><!--class DeliveringAgent--><a target="_top" xlink:actuate="onRequest" xlink:href="../DeliveringAgent.html" xlink:show="new" xlink:title="Party that delivers securities to the receiving agent at the place of settlement. For example, a central securities depository." xlink:type="simple"><rect fill="#FEFEEE" filter="url(#fi1by470tt0te)" height="23.9688" id="DeliveringAgent" style="stroke: #A80036; stroke-width: 1.5;" width="104" x="1528" y="406"/><rect fill="#FEFEEE" height="23.9688" style="stroke: #A80036; stroke-width: 1.5;" width="104" x="1528" y="406"/><text fill="#000000" font-family="sans-serif" font-size="12" lengthAdjust="spacingAndGlyphs" textLength="98" x="1531" y="422.1387">DeliveringAgent</text></a><!--class PlaceOfSettlement--><a target="_top" xlink:actuate="onRequest" xlink:href="../PlaceOfSettlement.html" xlink:show="new" xlink:title="Place where settlement of securities occurs." xlink:type="simple"><rect fill="#FEFEEE" filter="url(#fi1by470tt0te)" height="23.9688" id="PlaceOfSettlement" style="stroke: #A80036; stroke-width: 1.5;" width="122" x="1667" y="406"/><rect fill="#FEFEEE" height="23.9688" style="stroke: #A80036; stroke-width: 1.5;" width="122" x="1667" y="406"/><text fill="#000000" font-family="sans-serif" font-size="12" lengthAdjust="spacingAndGlyphs" textLength="116" x="1670" y="422.1387">PlaceOfSettlement</text></a><!--class ReceiversCustodian--><a target="_top" xlink:actuate="onRequest" xlink:href="../ReceiversCustodian.html" xlink:show="new" xlink:title="Party that acts on behalf of the buyer of securities when the buyer does not have a direct relationship with the receiving agent." xlink:type="simple"><rect fill="#FEFEEE" filter="url(#fi1by470tt0te)" height="23.9688" id="ReceiversCustodian" style="stroke: #A80036; stroke-width: 1.5;" width="129" x="1824.75" y="406"/><rect fill="#FEFEEE" height="23.9688" style="stroke: #A80036; stroke-width: 1.5;" width="129" x="1824.75" y="406"/><text fill="#000000" font-family="sans-serif" font-size="12" lengthAdjust="spacingAndGlyphs" textLength="123" x="1827.75" y="422.1387">ReceiversCustodian</text></a><!--class ReceiversIntermediary--><a target="_top" xlink:actuate="onRequest" xlink:href="../ReceiversIntermediary.html" xlink:show="new" xlink:title="Party that the receiver's custodian uses to effect the receipt of a security, when the receiver's custodian does not have a direct relationship with the receiver agent." xlink:type="simple"><rect fill="#FEFEEE" filter="url(#fi1by470tt0te)" height="23.9688" id="ReceiversIntermediary" style="stroke: #A80036; stroke-width: 1.5;" width="144" x="1989" y="406"/><rect fill="#FEFEEE" height="23.9688" style="stroke: #A80036; stroke-width: 1.5;" width="144" x="1989" y="406"/><text fill="#000000" font-family="sans-serif" font-size="12" lengthAdjust="spacingAndGlyphs" textLength="138" x="1992" y="422.1387">ReceiversIntermediary</text></a><!--class RolePlayer--><a target="_top" xlink:actuate="onRequest" xlink:href="../RolePlayer.html" xlink:show="new" xlink:title="Type of entity that plays a specific role in a specific context." xlink:type="simple"><rect fill="#EEEEEE" filter="url(#fi1by470tt0te)" height="23.9688" id="RolePlayer" style="stroke: #A80036; stroke-width: 1.5;" width="71" x="3081.75" y="496"/><rect fill="#EEEEEE" height="23.9688" style="stroke: #A80036; stroke-width: 1.5;" width="71" x="3081.75" y="496"/><text fill="#000000" font-family="sans-serif" font-size="12" lengthAdjust="spacingAndGlyphs" textLength="65" x="3084.75" y="512.1387">RolePlayer</text></a><!--class ContactPersonRole--><a target="_top" xlink:actuate="onRequest" xlink:href="../ContactPersonRole.html" xlink:show="new" xlink:title="Person to be contacted in a given organisation. In the corporate action domain (including meeting notifications), it is the contact person at the party organising the meeting, at the issuer or at an intermediary." xlink:type="simple"><rect fill="#EEEEEE" filter="url(#fi1by470tt0te)" height="23.9688" id="ContactPersonRole" style="stroke: #A80036; stroke-width: 1.5;" width="126" x="3034" y="406"/><rect fill="#EEEEEE" height="23.9688" style="stroke: #A80036; stroke-width: 1.5;" width="126" x="3034" y="406"/><text fill="#000000" font-family="sans-serif" font-size="12" lengthAdjust="spacingAndGlyphs" textLength="120" x="3037" y="422.1387">ContactPersonRole</text></a><!--class CounterpartyRisk--><a target="_top" xlink:actuate="onRequest" xlink:href="../CounterpartyRisk.html" xlink:show="new" xlink:title="Calculation of the exposure amount that one party has vis-a-vis one counterparty or a central system, based on its credit risk." xlink:type="simple"><rect fill="#EEEEEE" filter="url(#fi1by470tt0te)" height="23.9688" id="CounterpartyRisk" style="stroke: #A80036; stroke-width: 1.5;" width="113" x="3046.75" y="285"/><rect fill="#EEEEEE" height="23.9688" style="stroke: #A80036; stroke-width: 1.5;" width="113" x="3046.75" y="285"/><text fill="#000000" font-family="sans-serif" font-size="12" lengthAdjust="spacingAndGlyphs" textLength="107" x="3049.75" y="301.1387">CounterpartyRisk</text></a><!--class Entry--><a target="_top" xlink:actuate="onRequest" xlink:href="../Entry.html" xlink:show="new" xlink:title="Posting to an account that results in an increase or decrease to a balance." xlink:type="simple"><rect fill="#EEEEEE" filter="url(#fi1by470tt0te)" height="23.9688" id="Entry" style="stroke: #A80036; stroke-width: 1.5;" width="38" x="3034" y="166"/><rect fill="#EEEEEE" height="23.9688" style="stroke: #A80036; stroke-width: 1.5;" width="38" x="3034" y="166"/><text fill="#000000" font-family="sans-serif" font-size="12" lengthAdjust="spacingAndGlyphs" textLength="32" x="3037" y="182.1387">Entry</text></a><!--class Account--><a target="_top" xlink:actuate="onRequest" xlink:href="../Account.html" xlink:show="new" xlink:title="Record of transactions in specific types of assets, maintained by a servicing party on behalf of one or more owning parties. Business relationship between an account servicer and one or more account owners." xlink:type="simple"><rect fill="#EEEEEE" filter="url(#fi1by470tt0te)" height="23.9688" id="Account" style="stroke: #A80036; stroke-width: 1.5;" width="57" x="2614.75" y="406"/><rect fill="#EEEEEE" height="23.9688" style="stroke: #A80036; stroke-width: 1.5;" width="57" x="2614.75" y="406"/><text fill="#000000" font-family="sans-serif" font-size="12" lengthAdjust="spacingAndGlyphs" textLength="51" x="2617.75" y="422.1387">Account</text></a><!--class Settlement--><a target="_top" xlink:actuate="onRequest" xlink:href="../Settlement.html" xlink:show="new" xlink:title="Process which consists in transferring the proceeds related to a trade from one party to the next one." xlink:type="simple"><rect fill="#EEEEEE" filter="url(#fi1by470tt0te)" height="23.9688" id="Settlement" style="stroke: #A80036; stroke-width: 1.5;" width="75" x="2613.75" y="285"/><rect fill="#EEEEEE" height="23.9688" style="stroke: #A80036; stroke-width: 1.5;" width="75" x="2613.75" y="285"/><text fill="#000000" font-family="sans-serif" font-size="12" lengthAdjust="spacingAndGlyphs" textLength="69" x="2616.75" y="301.1387">Settlement</text></a><!--class SecuritiesSettlement--><a target="_top" xlink:actuate="onRequest" xlink:href="../SecuritiesSettlement.html" xlink:show="new" xlink:title="Settlement of the securities in a securities transaction, that is, the instruction to deliver or receive securities, involving the payment of an amount of money or not." xlink:type="simple"><rect fill="#EEEEEE" filter="url(#fi1by470tt0te)" height="23.9688" id="SecuritiesSettlement" style="stroke: #A80036; stroke-width: 1.5;" width="137" x="2227.75" y="496"/><rect fill="#EEEEEE" height="23.9688" style="stroke: #A80036; stroke-width: 1.5;" width="137" x="2227.75" y="496"/><text fill="#000000" font-family="sans-serif" font-size="12" lengthAdjust="spacingAndGlyphs" textLength="131" x="2230.75" y="512.1387">SecuritiesSettlement</text></a><!--class SecuritiesSettlementSystem--><a target="_top" xlink:actuate="onRequest" xlink:href="../SecuritiesSettlementSystem.html" xlink:show="new" xlink:title="Specifies the system used in a settlement process." xlink:type="simple"><rect fill="#EEEEEE" filter="url(#fi1by470tt0te)" height="23.9688" id="SecuritiesSettlementSystem" style="stroke: #A80036; stroke-width: 1.5;" width="182" x="2189" y="406"/><rect fill="#EEEEEE" height="23.9688" style="stroke: #A80036; stroke-width: 1.5;" width="182" x="2189" y="406"/><text fill="#000000" font-family="sans-serif" font-size="12" lengthAdjust="spacingAndGlyphs" textLength="176" x="2192" y="422.1387">SecuritiesSettlementSystem</text></a><!--link Role to SettlementPartyRole--><path d="M2049.05,105.559 C2051.15,127.159 2053.56,151.898 2054.92,165.865 " fill="none" id="Role-SettlementPartyRole" style="stroke: #A80036; stroke-width: 1.0;"/><polygon fill="none" points="2042.07,106.105,2047.09,85.52,2056,104.748,2042.07,106.105" style="stroke: #A80036; stroke-width: 1.0;"/><!--link SettlementPartyRole to SecuritiesSettlementPartyRole--><path d="M1991.64,194.821 C1915.41,213.556 1787.06,245.104 1693.92,267.999 " fill="none" id="SettlementPartyRole-SecuritiesSettlementPartyRole" style="stroke: #A80036; stroke-width: 1.0;"/><polygon fill="none" points="1990.13,187.983,2011.22,190.007,1993.47,201.579,1990.13,187.983" style="stroke: #A80036; stroke-width: 1.0;"/><!--link SecuritiesSettlementPartyRole to ReceivingSettlementParty--><path d="M1435.51,306.312 C1215.44,319.451 783.176,347.146 417,382 C345.009,388.852 263.408,398.654 204.143,406.142 " fill="none" id="SecuritiesSettlementPartyRole-ReceivingSettlementParty" style="stroke: #A80036; stroke-width: 1.0;"/><polygon fill="none" points="1435.11,299.323,1455.49,305.124,1435.94,313.299,1435.11,299.323" style="stroke: #A80036; stroke-width: 1.0;"/><!--link SecuritiesSettlementPartyRole to DeliveringSettlementParty--><path d="M1435.52,310.614 C1314.32,321.531 1136.7,338.313 982,356 C846.069,371.542 688.162,393.099 596.316,405.989 " fill="none" id="SecuritiesSettlementPartyRole-DeliveringSettlementParty" style="stroke: #A80036; stroke-width: 1.0;"/><polygon fill="none" points="1435.06,303.628,1455.6,308.812,1436.31,317.572,1435.06,303.628" style="stroke: #A80036; stroke-width: 1.0;"/><!--link SecuritiesSettlementPartyRole to ReceivingAgent--><path d="M1435.59,303.782 C1307.39,312.113 1116.26,332.435 957,382 C938.66,387.708 919.279,397.96 905.743,405.899 " fill="none" id="SecuritiesSettlementPartyRole-ReceivingAgent" style="stroke: #A80036; stroke-width: 1.0;"/><polygon fill="none" points="1435.21,296.792,1455.61,302.545,1436.08,310.765,1435.21,296.792" style="stroke: #A80036; stroke-width: 1.0;"/><!--link SecuritiesSettlementPartyRole to LocalSettlementAgentRole--><path d="M1435.62,322.35 C1354.84,337.152 1252.66,357.844 1163,382 C1137.83,388.78 1109.87,398.421 1089.44,405.868 " fill="none" id="SecuritiesSettlementPartyRole-LocalSettlementAgentRole" style="stroke: #A80036; stroke-width: 1.0;"/><polygon fill="none" points="1434.48,315.442,1455.41,318.762,1436.98,329.218,1434.48,315.442" style="stroke: #A80036; stroke-width: 1.0;"/><!--link SecuritiesSettlementPartyRole to DeliverersCustodian--><path d="M1471.63,332.269 C1427.16,346.848 1375.34,364.504 1329,382 C1309.25,389.457 1287.25,398.782 1270.86,405.932 " fill="none" id="SecuritiesSettlementPartyRole-DeliverersCustodian" style="stroke: #A80036; stroke-width: 1.0;"/><polygon fill="none" points="1469.66,325.548,1490.85,326.01,1474,338.86,1469.66,325.548" style="stroke: #A80036; stroke-width: 1.0;"/><!--link SecuritiesSettlementPartyRole to DeliverersIntermediary--><path d="M1525.59,338.465 C1493.67,362.21 1455.66,390.477 1435.07,405.79 " fill="none" id="SecuritiesSettlementPartyRole-DeliverersIntermediary" style="stroke: #A80036; stroke-width: 1.0;"/><polygon fill="none" points="1521.86,332.52,1542.08,326.201,1530.21,343.754,1521.86,332.52" style="stroke: #A80036; stroke-width: 1.0;"/><!--link SecuritiesSettlementPartyRole to DeliveringAgent--><path d="M1580,346.486 C1580,368.304 1580,392.171 1580,405.79 " fill="none" id="SecuritiesSettlementPartyRole-DeliveringAgent" style="stroke: #A80036; stroke-width: 1.0;"/><polygon fill="none" points="1573,346.201,1580,326.201,1587,346.201,1573,346.201" style="stroke: #A80036; stroke-width: 1.0;"/><!--link SecuritiesSettlementPartyRole to PlaceOfSettlement--><path d="M1630.73,338.793 C1660.18,362.471 1695.1,390.548 1714.06,405.79 " fill="none" id="SecuritiesSettlementPartyRole-PlaceOfSettlement" style="stroke: #A80036; stroke-width: 1.0;"/><polygon fill="none" points="1626.27,344.189,1615.07,326.201,1635.05,333.278,1626.27,344.189" style="stroke: #A80036; stroke-width: 1.0;"/><!--link SecuritiesSettlementPartyRole to ReceiversCustodian--><path d="M1676.78,332.93 C1716.92,347.683 1763.85,365.29 1806,382 C1825.48,389.723 1847.31,398.951 1863.69,405.992 " fill="none" id="SecuritiesSettlementPartyRole-ReceiversCustodian" style="stroke: #A80036; stroke-width: 1.0;"/><polygon fill="none" points="1674.35,339.493,1657.98,326.041,1679.17,326.348,1674.35,339.493" style="stroke: #A80036; stroke-width: 1.0;"/><!--link SecuritiesSettlementPartyRole to ReceiversIntermediary--><path d="M1724.56,323.585 C1798.64,338.092 1889.89,358.125 1970,382 C1992.55,388.72 2017.44,398.461 2035.48,405.961 " fill="none" id="SecuritiesSettlementPartyRole-ReceiversIntermediary" style="stroke: #A80036; stroke-width: 1.0;"/><polygon fill="none" points="1722.94,330.403,1704.63,319.736,1725.6,316.657,1722.94,330.403" style="stroke: #A80036; stroke-width: 1.0;"/><!--link ContactPersonRole to RolePlayer--><!--link CounterpartyRisk to ContactPersonRole--><!--link Entry to CounterpartyRisk--><!--link Settlement to Account--><!--link SecuritiesSettlementSystem to SecuritiesSettlement--><!--link Role to RolePlayer--><path d="M2132.55,65.956 C2363.16,71.434 2983.58,88.358 3187,116 C3307.62,132.39 3454,55.276 3454,177 C3454,177 3454,177 3454,419 C3454,479.6217 3247.27,499.2654 3157.64,504.9332 " fill="none" id="Role-RolePlayer" style="stroke: #A80036; stroke-width: 1.0;"/><polygon fill="#A80036" points="3152.43,505.2555,3161.6636,508.6819,3157.4201,504.9412,3161.1608,500.6977,3152.43,505.2555" style="stroke: #A80036; stroke-width: 1.0;"/><text fill="#000000" font-family="sans-serif" font-size="13" lengthAdjust="spacingAndGlyphs" textLength="39" x="3455" y="301.0669">Player</text><text fill="#000000" font-family="sans-serif" font-size="13" lengthAdjust="spacingAndGlyphs" textLength="7" x="3160.8912" y="498.8806">*</text><!--link Role to ContactPersonRole--><path d="M2132.7,66.346 C2401.45,73.976 3197.54,100.046 3233,142 C3305.57,227.854 3166.03,359.074 3114.81,402.493 " fill="none" id="Role-ContactPersonRole" style="stroke: #A80036; stroke-width: 1.0;"/><polygon fill="#A80036" points="3110.7,405.943,3120.1584,403.1972,3114.5217,402.719,3114.9999,397.0824,3110.7,405.943" style="stroke: #A80036; stroke-width: 1.0;"/><text fill="#000000" font-family="sans-serif" font-size="13" lengthAdjust="spacingAndGlyphs" textLength="121" x="3251" y="233.0669">ContactPersonRole</text><text fill="#000000" font-family="sans-serif" font-size="13" lengthAdjust="spacingAndGlyphs" textLength="8" x="3104.6906" y="394.9716">1</text><!--link Role to CounterpartyRisk--><path d="M2132.51,64.196 C2371.42,65.601 3021.47,75.55 3089,142 C3126.08,178.49 3115.05,247.982 3107.49,279.602 " fill="none" id="Role-CounterpartyRisk" style="stroke: #A80036; stroke-width: 1.0;"/><polygon fill="#A80036" points="3106.23,284.695,3112.2805,276.9238,3107.4346,279.8423,3104.5161,274.9964,3106.23,284.695" style="stroke: #A80036; stroke-width: 1.0;"/><text fill="#000000" font-family="sans-serif" font-size="13" lengthAdjust="spacingAndGlyphs" textLength="109" x="3114" y="182.0669">CounterpartyRisk</text><text fill="#000000" font-family="sans-serif" font-size="13" lengthAdjust="spacingAndGlyphs" textLength="24" x="3077.9109" y="273.8974">0..1</text><!--link Role to Entry--><path d="M2132.25,73.781 C2349.5,98.136 2906.01,160.522 3028.79,174.286 " fill="none" id="Role-Entry" style="stroke: #A80036; stroke-width: 1.0;"/><polygon fill="#A80036" points="3033.98,174.867,3025.4818,169.889,3029.0111,174.3098,3024.5903,177.8392,3033.98,174.867" style="stroke: #A80036; stroke-width: 1.0;"/><text fill="#000000" font-family="sans-serif" font-size="13" lengthAdjust="spacingAndGlyphs" textLength="33" x="2670" y="129.0669">Entry</text><text fill="#000000" font-family="sans-serif" font-size="13" lengthAdjust="spacingAndGlyphs" textLength="8" x="3017.9241" y="167.5408">1</text><!--link SettlementPartyRole to Account--><path d="M2123.11,182.466 C2281.36,191.332 2667.45,217.272 2705,261 C2742.07,304.169 2686.54,372.225 2658.09,402.101 " fill="none" id="SettlementPartyRole-Account" style="stroke: #A80036; stroke-width: 1.0;"/><polygon fill="#A80036" points="2654.43,405.889,2663.5574,402.1888,2657.9014,402.2905,2657.7997,396.6346,2654.43,405.889" style="stroke: #A80036; stroke-width: 1.0;"/><text fill="#000000" font-family="sans-serif" font-size="13" lengthAdjust="spacingAndGlyphs" textLength="124" x="2719" y="301.0669">SettlementAccount</text><text fill="#000000" font-family="sans-serif" font-size="13" lengthAdjust="spacingAndGlyphs" textLength="8" x="2647.5544" y="394.8991">1</text><!--link SettlementPartyRole to Settlement--><path d="M2111.98,190.007 C2230.18,213.251 2503.02,266.9 2608.39,287.622 " fill="none" id="SettlementPartyRole-Settlement" style="stroke: #A80036; stroke-width: 1.0;"/><polygon fill="#A80036" points="2613.58,288.643,2605.5284,282.971,2608.6752,287.6718,2603.9744,290.8186,2613.58,288.643" style="stroke: #A80036; stroke-width: 1.0;"/><text fill="#000000" font-family="sans-serif" font-size="13" lengthAdjust="spacingAndGlyphs" textLength="72" x="2355" y="233.0669">Settlement</text><text fill="#000000" font-family="sans-serif" font-size="13" lengthAdjust="spacingAndGlyphs" textLength="8" x="2597.7795" y="282.0364">1</text><!--link SecuritiesSettlementPartyRole to SecuritiesSettlement--><path d="M1704.56,301.155 C1921.08,308.038 2347.76,328.328 2388,382 C2407.73,408.315 2404.69,427.662 2388,456 C2377.4,473.9875 2357.93,486.08 2339.61,493.9555 " fill="none" id="SecuritiesSettlementPartyRole-SecuritiesSettlement" style="stroke: #A80036; stroke-width: 1.0;"/><polygon fill="#A80036" points="2334.99,495.8679,2344.8357,496.1187,2339.6093,493.9542,2341.7738,488.7278,2334.99,495.8679" style="stroke: #A80036; stroke-width: 1.0;"/><text fill="#000000" font-family="sans-serif" font-size="13" lengthAdjust="spacingAndGlyphs" textLength="135" x="2403" y="422.0669">SecuritiesSettlement</text><text fill="#000000" font-family="sans-serif" font-size="13" lengthAdjust="spacingAndGlyphs" textLength="7" x="2338.76" y="484.8707">*</text><!--link SecuritiesSettlementPartyRole to SecuritiesSettlementSystem--><path d="M1704.48,312.21 C1820.24,326.408 1997.18,350.621 2149,382 C2179.15,388.232 2212.68,397.231 2238.27,404.543 " fill="none" id="SecuritiesSettlementPartyRole-SecuritiesSettlementSystem" style="stroke: #A80036; stroke-width: 1.0;"/><polygon fill="#A80036" points="2243.28,405.982,2235.7406,399.6451,2238.4757,404.5967,2233.5241,407.3319,2243.28,405.982" style="stroke: #A80036; stroke-width: 1.0;"/><text fill="#000000" font-family="sans-serif" font-size="13" lengthAdjust="spacingAndGlyphs" textLength="184" x="2105" y="369.0669">SecuritiesSettlementSystem</text><text fill="#000000" font-family="sans-serif" font-size="13" lengthAdjust="spacingAndGlyphs" textLength="7" x="2221.1106" y="395.024">*</text><!--link ReceivingSettlementParty to ReceivingSettlementParty--><path d="M204.25,409.527 C224.21,410.189 239,413.014 239,418 C239,422.558 226.643,425.309 209.276,426.254 " fill="none" id="ReceivingSettlementParty-ReceivingSettlementParty" style="stroke: #A80036; stroke-width: 1.0;"/><polygon fill="#A80036" points="204.25,426.473,213.4162,430.0758,209.2452,426.2545,213.0666,422.0834,204.25,426.473" style="stroke: #A80036; stroke-width: 1.0;"/><text fill="#000000" font-family="sans-serif" font-size="13" lengthAdjust="spacingAndGlyphs" textLength="165" x="245" y="422.0669">ReceivingSettlementParty</text><text fill="#000000" font-family="sans-serif" font-size="13" lengthAdjust="spacingAndGlyphs" textLength="8" x="212.0207" y="422.5448">1</text><!--link DeliveringSettlementParty to DeliveringSettlementParty--><path d="M602.52,409.536 C622.343,410.215 637,413.036 637,418 C637,422.499 624.963,425.237 607.951,426.216 " fill="none" id="DeliveringSettlementParty-DeliveringSettlementParty" style="stroke: #A80036; stroke-width: 1.0;"/><polygon fill="#A80036" points="602.52,426.464,611.6924,430.051,607.5148,426.2368,611.329,422.0592,602.52,426.464" style="stroke: #A80036; stroke-width: 1.0;"/><text fill="#000000" font-family="sans-serif" font-size="13" lengthAdjust="spacingAndGlyphs" textLength="168" x="643" y="422.0669">DeliveringSettlementParty</text><text fill="#000000" font-family="sans-serif" font-size="13" lengthAdjust="spacingAndGlyphs" textLength="8" x="611.4939" y="422.5356">1</text><!--link Entry to Account--><path d="M3041.77,190.304 C3011.22,220.916 2926.69,304.557 2894,326 C2849.74,355.031 2834.64,355.629 2785,374 C2748.35,387.563 2705.26,400.153 2676.24,408.16 " fill="none" id="Entry-Account" style="stroke: #A80036; stroke-width: 1.0;"/><polygon fill="#A80036" points="2671.35,409.503,2681.0892,410.9684,2676.1703,408.1747,2678.964,403.2558,2671.35,409.503" style="stroke: #A80036; stroke-width: 1.0;"/><text fill="#000000" font-family="sans-serif" font-size="13" lengthAdjust="spacingAndGlyphs" textLength="52" x="2969" y="301.0669">Account</text><text fill="#000000" font-family="sans-serif" font-size="13" lengthAdjust="spacingAndGlyphs" textLength="7" x="2679.8425" y="401.024">*</text><!--link Account to Account--><path d="M2671.51,409.984 C2689.18,408.051 2706,410.723 2706,418 C2706,424.538 2692.42,427.359 2676.85,426.463 " fill="none" id="Account-Account" style="stroke: #A80036; stroke-width: 1.0;"/><polygon fill="#A80036" points="2671.51,426.016,2680.1341,430.7725,2676.4916,426.4445,2680.8197,422.8019,2671.51,426.016" style="stroke: #A80036; stroke-width: 1.0;"/><text fill="#000000" font-family="sans-serif" font-size="13" lengthAdjust="spacingAndGlyphs" textLength="94" x="2712" y="422.0669">ParentAccount</text><text fill="#000000" font-family="sans-serif" font-size="13" lengthAdjust="spacingAndGlyphs" textLength="8" x="2679.7766" y="421.9799">1</text></g></svg>