<?xml version="1.0" encoding="UTF-8" standalone="no"?><svg xmlns="http://www.w3.org/2000/svg" xmlns:xlink="http://www.w3.org/1999/xlink" contentScriptType="application/ecmascript" contentStyleType="text/css" height="478px" preserveAspectRatio="none" style="width:812px;height:478px;" version="1.1" viewBox="0 0 812 478" width="812px" zoomAndPan="magnify"><defs><filter height="300%" id="fxxf3qowh1zvf" width="300%" x="-1" y="-1"><feGaussianBlur result="blurOut" stdDeviation="2.0"/><feColorMatrix in="blurOut" result="blurOut2" type="matrix" values="0 0 0 0 0 0 0 0 0 0 0 0 0 0 0 0 0 0 .4 0"/><feOffset dx="4.0" dy="4.0" in="blurOut2" result="blurOut3"/><feBlend in="SourceGraphic" in2="blurOut3" mode="normal"/></filter></defs><g><!--cluster ##2921--><!--cluster ##2930--><!--cluster ##2939--><!--class Role--><a target="_top" xlink:actuate="onRequest" xlink:href="../Role.html" xlink:show="new" xlink:title="Role of a party in an activity." xlink:type="simple"><rect fill="#FEFEEE" filter="url(#fxxf3qowh1zvf)" height="44.7734" id="Role" style="stroke: #A80036; stroke-width: 1.5;" width="175" x="56.75" y="40.5"/><rect fill="#FEFEEE" height="23.9688" style="stroke: #A80036; stroke-width: 1.5;" width="175" x="56.75" y="40.5"/><text fill="#000000" font-family="sans-serif" font-size="12" lengthAdjust="spacingAndGlyphs" textLength="27" x="130.75" y="56.6387">Role</text><line style="stroke: #A80036; stroke-width: 1.5;" x1="57.75" x2="230.75" y1="64.4688" y2="64.4688"/><ellipse cx="67.75" cy="76.3711" fill="#84BE84" rx="3" ry="3" style="stroke: #038048; stroke-width: 1.0;"/><text fill="#000000" font-family="sans-serif" font-size="11" lengthAdjust="spacingAndGlyphs" textLength="53" x="76.75" y="78.6792">PartyRole</text><text fill="#000000" font-family="sans-serif" font-size="11" font-style="italic" lengthAdjust="spacingAndGlyphs" textLength="92" x="133.75" y="78.6792">(PartyRoleCode)</text></a><!--class SecurityCertificatePartyRole--><a target="_top" xlink:actuate="onRequest" xlink:href="../SecurityCertificatePartyRole.html" xlink:show="new" xlink:title="Role played by a party in the context of a security certificate" xlink:type="simple"><rect fill="#FEFEEE" filter="url(#fxxf3qowh1zvf)" height="23.9688" id="SecurityCertificatePartyRole" style="stroke: #A80036; stroke-width: 1.5;" width="179" x="52.75" y="166"/><rect fill="#FEFEEE" height="23.9688" style="stroke: #A80036; stroke-width: 1.5;" width="179" x="52.75" y="166"/><text fill="#000000" font-family="sans-serif" font-size="12" lengthAdjust="spacingAndGlyphs" textLength="173" x="55.75" y="182.1387">SecurityCertificatePartyRole</text></a><!--class SecurityCertificateIssuerRole--><a target="_top" xlink:actuate="onRequest" xlink:href="../SecurityCertificateIssuerRole.html" xlink:show="new" xlink:title="Party that issues security certificates." xlink:type="simple"><rect fill="#FEFECE" filter="url(#fxxf3qowh1zvf)" height="23.9688" id="SecurityCertificateIssuerRole" style="stroke: #A80036; stroke-width: 1.5;" width="185" x="47.75" y="270"/><rect fill="#FEFECE" height="23.9688" style="stroke: #A80036; stroke-width: 1.5;" width="185" x="47.75" y="270"/><text fill="#000000" font-family="sans-serif" font-size="12" lengthAdjust="spacingAndGlyphs" textLength="179" x="50.75" y="286.1387">SecurityCertificateIssuerRole</text></a><!--class RolePlayer--><a target="_top" xlink:actuate="onRequest" xlink:href="../RolePlayer.html" xlink:show="new" xlink:title="Type of entity that plays a specific role in a specific context." xlink:type="simple"><rect fill="#EEEEEE" filter="url(#fxxf3qowh1zvf)" height="23.9688" id="RolePlayer" style="stroke: #A80036; stroke-width: 1.5;" width="71" x="621.75" y="444"/><rect fill="#EEEEEE" height="23.9688" style="stroke: #A80036; stroke-width: 1.5;" width="71" x="621.75" y="444"/><text fill="#000000" font-family="sans-serif" font-size="12" lengthAdjust="spacingAndGlyphs" textLength="65" x="624.75" y="460.1387">RolePlayer</text></a><!--class ContactPersonRole--><a target="_top" xlink:actuate="onRequest" xlink:href="../ContactPersonRole.html" xlink:show="new" xlink:title="Person to be contacted in a given organisation. In the corporate action domain (including meeting notifications) , it is the contact person at the party organising the meeting, at the issuer or at an intermediary." xlink:type="simple"><rect fill="#EEEEEE" filter="url(#fxxf3qowh1zvf)" height="23.9688" id="ContactPersonRole" style="stroke: #A80036; stroke-width: 1.5;" width="126" x="614" y="358"/><rect fill="#EEEEEE" height="23.9688" style="stroke: #A80036; stroke-width: 1.5;" width="126" x="614" y="358"/><text fill="#000000" font-family="sans-serif" font-size="12" lengthAdjust="spacingAndGlyphs" textLength="120" x="617" y="374.1387">ContactPersonRole</text></a><!--class CounterpartyRisk--><a target="_top" xlink:actuate="onRequest" xlink:href="../CounterpartyRisk.html" xlink:show="new" xlink:title="Calculation of the exposure amount that one party has vis-a-vis one counterparty or a central system, based on its credit risk." xlink:type="simple"><rect fill="#EEEEEE" filter="url(#fxxf3qowh1zvf)" height="23.9688" id="CounterpartyRisk" style="stroke: #A80036; stroke-width: 1.5;" width="113" x="626.75" y="270"/><rect fill="#EEEEEE" height="23.9688" style="stroke: #A80036; stroke-width: 1.5;" width="113" x="626.75" y="270"/><text fill="#000000" font-family="sans-serif" font-size="12" lengthAdjust="spacingAndGlyphs" textLength="107" x="629.75" y="286.1387">CounterpartyRisk</text></a><!--class Entry--><a target="_top" xlink:actuate="onRequest" xlink:href="../Entry.html" xlink:show="new" xlink:title="Posting to an account that results in an increase or decrease to a balance." xlink:type="simple"><rect fill="#EEEEEE" filter="url(#fxxf3qowh1zvf)" height="23.9688" id="Entry" style="stroke: #A80036; stroke-width: 1.5;" width="38" x="614" y="166"/><rect fill="#EEEEEE" height="23.9688" style="stroke: #A80036; stroke-width: 1.5;" width="38" x="614" y="166"/><text fill="#000000" font-family="sans-serif" font-size="12" lengthAdjust="spacingAndGlyphs" textLength="32" x="617" y="182.1387">Entry</text></a><!--class SecurityCertificate--><a target="_top" xlink:actuate="onRequest" xlink:href="../SecurityCertificate.html" xlink:show="new" xlink:title="Certificate linked to a digital signature." xlink:type="simple"><rect fill="#EEEEEE" filter="url(#fxxf3qowh1zvf)" height="23.9688" id="SecurityCertificate" style="stroke: #A80036; stroke-width: 1.5;" width="120" x="288.5" y="270"/><rect fill="#EEEEEE" height="23.9688" style="stroke: #A80036; stroke-width: 1.5;" width="120" x="288.5" y="270"/><text fill="#000000" font-family="sans-serif" font-size="12" lengthAdjust="spacingAndGlyphs" textLength="114" x="291.5" y="286.1387">SecurityCertificate</text></a><!--entity ##2942--><!--link Role to SecurityCertificatePartyRole--><path d="M143.264,105.559 C142.882,127.159 142.444,151.898 142.197,165.865 " fill="none" id="Role-SecurityCertificatePartyRole" style="stroke: #A80036; stroke-width: 1.0;"/><polygon fill="none" points="136.266,105.393,143.619,85.52,150.264,105.641,136.266,105.393" style="stroke: #A80036; stroke-width: 1.0;"/><!--link SecurityCertificatePartyRole to SecurityCertificateIssuerRole--><path d="M141.38,210.595 C140.984,230.825 140.493,255.843 140.217,269.954 " fill="none" id="SecurityCertificatePartyRole-SecurityCertificateIssuerRole" style="stroke: #A80036; stroke-width: 1.0;"/><polygon fill="none" points="134.387,210.164,141.778,190.306,148.385,210.439,134.387,210.164" style="stroke: #A80036; stroke-width: 1.0;"/><!--link ContactPersonRole to RolePlayer--><!--link CounterpartyRisk to ContactPersonRole--><!--link Entry to CounterpartyRisk--><!--link Role to RolePlayer--><path d="M231.318,76.002 C330.279,92.114 478,124.891 478,177 C478,177 478,177 478,371 C478,431.8572 563.842,448.7099 616.634,453.3199 " fill="none" id="Role-RolePlayer" style="stroke: #A80036; stroke-width: 1.0;"/><polygon fill="#A80036" points="621.635,453.7288,612.9919,449.0068,616.6517,453.3202,612.3382,456.98,621.635,453.7288" style="stroke: #A80036; stroke-width: 1.0;"/><text fill="#000000" font-family="sans-serif" font-size="13" lengthAdjust="spacingAndGlyphs" textLength="39" x="479" y="286.0669">Player</text><text fill="#000000" font-family="sans-serif" font-size="13" lengthAdjust="spacingAndGlyphs" textLength="7" x="606.7402" y="447.9585">*</text><!--link Role to ContactPersonRole--><path d="M231.296,66.827 C323.995,71.5 462.741,83.804 504,116 C550.198,152.051 526.131,186.452 554,238 C574.52,275.956 579.125,286.868 609,318 C622.704,332.281 640.714,345.597 654.757,355.039 " fill="none" id="Role-ContactPersonRole" style="stroke: #A80036; stroke-width: 1.0;"/><polygon fill="#A80036" points="658.978,357.842,653.6906,349.5328,654.8118,355.0774,649.2672,356.1987,658.978,357.842" style="stroke: #A80036; stroke-width: 1.0;"/><text fill="#000000" font-family="sans-serif" font-size="13" lengthAdjust="spacingAndGlyphs" textLength="121" x="555" y="233.0669">ContactPersonRole</text><text fill="#000000" font-family="sans-serif" font-size="13" lengthAdjust="spacingAndGlyphs" textLength="8" x="642.0642" y="346.8359">1</text><!--link Role to CounterpartyRisk--><path d="M231.427,64.516 C357.169,66.666 581.594,76.172 651,116 C681.998,133.788 696.721,218.342 697,220 C699.586,235.376 694.874,252.681 690.233,264.921 " fill="none" id="Role-CounterpartyRisk" style="stroke: #A80036; stroke-width: 1.0;"/><polygon fill="#A80036" points="688.27,269.837,695.322,262.9618,690.124,265.1934,687.8923,259.9954,688.27,269.837" style="stroke: #A80036; stroke-width: 1.0;"/><text fill="#000000" font-family="sans-serif" font-size="13" lengthAdjust="spacingAndGlyphs" textLength="109" x="691" y="182.0669">CounterpartyRisk</text><text fill="#000000" font-family="sans-serif" font-size="13" lengthAdjust="spacingAndGlyphs" textLength="24" x="660.5269" y="258.8292">0..1</text><!--link Role to Entry--><path d="M231.332,66.198 C342.792,70.367 528.224,82.288 587,116 C604.987,126.317 618.159,146.78 625.69,161.151 " fill="none" id="Role-Entry" style="stroke: #A80036; stroke-width: 1.0;"/><polygon fill="#A80036" points="628.027,165.768,627.532,155.9316,625.7692,161.3068,620.3941,159.544,628.027,165.768" style="stroke: #A80036; stroke-width: 1.0;"/><text fill="#000000" font-family="sans-serif" font-size="13" lengthAdjust="spacingAndGlyphs" textLength="33" x="608" y="129.0669">Entry</text><text fill="#000000" font-family="sans-serif" font-size="13" lengthAdjust="spacingAndGlyphs" textLength="8" x="615.7234" y="154.9946">1</text><!--link SecurityCertificatePartyRole to SecurityCertificate--><path d="M164.438,190.11 C202.516,208.964 279.648,247.156 320.76,267.512 " fill="none" id="SecurityCertificatePartyRole-SecurityCertificate" style="stroke: #A80036; stroke-width: 1.0;"/><polygon fill="#A80036" points="325.59,269.904,319.2999,262.3254,321.1093,267.6851,315.7497,269.4945,325.59,269.904" style="stroke: #A80036; stroke-width: 1.0;"/><text fill="#000000" font-family="sans-serif" font-size="13" lengthAdjust="spacingAndGlyphs" textLength="117" x="259" y="233.0669">SecurityCertificate</text><text fill="#000000" font-family="sans-serif" font-size="13" lengthAdjust="spacingAndGlyphs" textLength="7" x="308.1678" y="258.9192">*</text></g></svg>