<?xml version="1.0" encoding="UTF-8" standalone="no"?><svg xmlns="http://www.w3.org/2000/svg" xmlns:xlink="http://www.w3.org/1999/xlink" contentScriptType="application/ecmascript" contentStyleType="text/css" height="478px" preserveAspectRatio="none" style="width:816px;height:478px;" version="1.1" viewBox="0 0 816 478" width="816px" zoomAndPan="magnify"><defs><filter height="300%" id="f5q19p8rb9fiw" width="300%" x="-1" y="-1"><feGaussianBlur result="blurOut" stdDeviation="2.0"/><feColorMatrix in="blurOut" result="blurOut2" type="matrix" values="0 0 0 0 0 0 0 0 0 0 0 0 0 0 0 0 0 0 .4 0"/><feOffset dx="4.0" dy="4.0" in="blurOut2" result="blurOut3"/><feBlend in="SourceGraphic" in2="blurOut3" mode="normal"/></filter></defs><g><!--cluster ##12748--><!--cluster ##12757--><!--cluster ##12766--><!--class Role--><a target="_top" xlink:actuate="onRequest" xlink:href="../Role.html" xlink:show="new" xlink:title="Role of a party in an activity." xlink:type="simple"><rect fill="#FEFEEE" filter="url(#f5q19p8rb9fiw)" height="44.7734" id="Role" style="stroke: #A80036; stroke-width: 1.5;" width="175" x="60.75" y="40.5"/><rect fill="#FEFEEE" height="23.9688" style="stroke: #A80036; stroke-width: 1.5;" width="175" x="60.75" y="40.5"/><text fill="#000000" font-family="sans-serif" font-size="12" lengthAdjust="spacingAndGlyphs" textLength="27" x="134.75" y="56.6387">Role</text><line style="stroke: #A80036; stroke-width: 1.5;" x1="61.75" x2="234.75" y1="64.4688" y2="64.4688"/><ellipse cx="71.75" cy="76.3711" fill="#84BE84" rx="3" ry="3" style="stroke: #038048; stroke-width: 1.0;"/><text fill="#000000" font-family="sans-serif" font-size="11" lengthAdjust="spacingAndGlyphs" textLength="53" x="80.75" y="78.6792">PartyRole</text><text fill="#000000" font-family="sans-serif" font-size="11" font-style="italic" lengthAdjust="spacingAndGlyphs" textLength="92" x="137.75" y="78.6792">(PartyRoleCode)</text></a><!--class SecurityCertificatePartyRole--><a target="_top" xlink:actuate="onRequest" xlink:href="../SecurityCertificatePartyRole.html" xlink:show="new" xlink:title="Role played by a party in the context of a security certificate" xlink:type="simple"><rect fill="#FEFEEE" filter="url(#f5q19p8rb9fiw)" height="23.9688" id="SecurityCertificatePartyRole" style="stroke: #A80036; stroke-width: 1.5;" width="179" x="56.75" y="166"/><rect fill="#FEFEEE" height="23.9688" style="stroke: #A80036; stroke-width: 1.5;" width="179" x="56.75" y="166"/><text fill="#000000" font-family="sans-serif" font-size="12" lengthAdjust="spacingAndGlyphs" textLength="173" x="59.75" y="182.1387">SecurityCertificatePartyRole</text></a><!--class SecurityCertificateHolderRole--><a target="_top" xlink:actuate="onRequest" xlink:href="../SecurityCertificateHolderRole.html" xlink:show="new" xlink:title="Holder of the security certificate." xlink:type="simple"><rect fill="#FEFECE" filter="url(#f5q19p8rb9fiw)" height="23.9688" id="SecurityCertificateHolderRole" style="stroke: #A80036; stroke-width: 1.5;" width="188" x="48" y="270"/><rect fill="#FEFECE" height="23.9688" style="stroke: #A80036; stroke-width: 1.5;" width="188" x="48" y="270"/><text fill="#000000" font-family="sans-serif" font-size="12" lengthAdjust="spacingAndGlyphs" textLength="182" x="51" y="286.1387">SecurityCertificateHolderRole</text></a><!--class RolePlayer--><a target="_top" xlink:actuate="onRequest" xlink:href="../RolePlayer.html" xlink:show="new" xlink:title="Type of entity that plays a specific role in a specific context." xlink:type="simple"><rect fill="#EEEEEE" filter="url(#f5q19p8rb9fiw)" height="23.9688" id="RolePlayer" style="stroke: #A80036; stroke-width: 1.5;" width="71" x="625.75" y="444"/><rect fill="#EEEEEE" height="23.9688" style="stroke: #A80036; stroke-width: 1.5;" width="71" x="625.75" y="444"/><text fill="#000000" font-family="sans-serif" font-size="12" lengthAdjust="spacingAndGlyphs" textLength="65" x="628.75" y="460.1387">RolePlayer</text></a><!--class ContactPersonRole--><a target="_top" xlink:actuate="onRequest" xlink:href="../ContactPersonRole.html" xlink:show="new" xlink:title="Person to be contacted in a given organisation. In the corporate action domain (including meeting notifications) , it is the contact person at the party organising the meeting, at the issuer or at an intermediary." xlink:type="simple"><rect fill="#EEEEEE" filter="url(#f5q19p8rb9fiw)" height="23.9688" id="ContactPersonRole" style="stroke: #A80036; stroke-width: 1.5;" width="126" x="618" y="358"/><rect fill="#EEEEEE" height="23.9688" style="stroke: #A80036; stroke-width: 1.5;" width="126" x="618" y="358"/><text fill="#000000" font-family="sans-serif" font-size="12" lengthAdjust="spacingAndGlyphs" textLength="120" x="621" y="374.1387">ContactPersonRole</text></a><!--class CounterpartyRisk--><a target="_top" xlink:actuate="onRequest" xlink:href="../CounterpartyRisk.html" xlink:show="new" xlink:title="Calculation of the exposure amount that one party has vis-a-vis one counterparty or a central system, based on its credit risk." xlink:type="simple"><rect fill="#EEEEEE" filter="url(#f5q19p8rb9fiw)" height="23.9688" id="CounterpartyRisk" style="stroke: #A80036; stroke-width: 1.5;" width="113" x="630.75" y="270"/><rect fill="#EEEEEE" height="23.9688" style="stroke: #A80036; stroke-width: 1.5;" width="113" x="630.75" y="270"/><text fill="#000000" font-family="sans-serif" font-size="12" lengthAdjust="spacingAndGlyphs" textLength="107" x="633.75" y="286.1387">CounterpartyRisk</text></a><!--class Entry--><a target="_top" xlink:actuate="onRequest" xlink:href="../Entry.html" xlink:show="new" xlink:title="Posting to an account that results in an increase or decrease to a balance." xlink:type="simple"><rect fill="#EEEEEE" filter="url(#f5q19p8rb9fiw)" height="23.9688" id="Entry" style="stroke: #A80036; stroke-width: 1.5;" width="38" x="618" y="166"/><rect fill="#EEEEEE" height="23.9688" style="stroke: #A80036; stroke-width: 1.5;" width="38" x="618" y="166"/><text fill="#000000" font-family="sans-serif" font-size="12" lengthAdjust="spacingAndGlyphs" textLength="32" x="621" y="182.1387">Entry</text></a><!--class SecurityCertificate--><a target="_top" xlink:actuate="onRequest" xlink:href="../SecurityCertificate.html" xlink:show="new" xlink:title="Certificate linked to a digital signature." xlink:type="simple"><rect fill="#EEEEEE" filter="url(#f5q19p8rb9fiw)" height="23.9688" id="SecurityCertificate" style="stroke: #A80036; stroke-width: 1.5;" width="120" x="292.5" y="270"/><rect fill="#EEEEEE" height="23.9688" style="stroke: #A80036; stroke-width: 1.5;" width="120" x="292.5" y="270"/><text fill="#000000" font-family="sans-serif" font-size="12" lengthAdjust="spacingAndGlyphs" textLength="114" x="295.5" y="286.1387">SecurityCertificate</text></a><!--entity ##12769--><!--link Role to SecurityCertificatePartyRole--><path d="M147.264,105.559 C146.882,127.159 146.444,151.898 146.197,165.865 " fill="none" id="Role-SecurityCertificatePartyRole" style="stroke: #A80036; stroke-width: 1.0;"/><polygon fill="none" points="140.266,105.393,147.619,85.52,154.264,105.641,140.266,105.393" style="stroke: #A80036; stroke-width: 1.0;"/><!--link SecurityCertificatePartyRole to SecurityCertificateHolderRole--><path d="M144.761,210.595 C143.968,230.825 142.987,255.843 142.433,269.954 " fill="none" id="SecurityCertificatePartyRole-SecurityCertificateHolderRole" style="stroke: #A80036; stroke-width: 1.0;"/><polygon fill="none" points="137.778,210.016,145.557,190.306,151.767,210.564,137.778,210.016" style="stroke: #A80036; stroke-width: 1.0;"/><!--link ContactPersonRole to RolePlayer--><!--link CounterpartyRisk to ContactPersonRole--><!--link Entry to CounterpartyRisk--><!--link Role to RolePlayer--><path d="M235.318,76.002 C334.279,92.114 482,124.891 482,177 C482,177 482,177 482,371 C482,431.8572 567.842,448.7099 620.634,453.3199 " fill="none" id="Role-RolePlayer" style="stroke: #A80036; stroke-width: 1.0;"/><polygon fill="#A80036" points="625.635,453.7288,616.9919,449.0068,620.6517,453.3202,616.3382,456.98,625.635,453.7288" style="stroke: #A80036; stroke-width: 1.0;"/><text fill="#000000" font-family="sans-serif" font-size="13" lengthAdjust="spacingAndGlyphs" textLength="39" x="483" y="286.0669">Player</text><text fill="#000000" font-family="sans-serif" font-size="13" lengthAdjust="spacingAndGlyphs" textLength="7" x="610.7402" y="447.9585">*</text><!--link Role to ContactPersonRole--><path d="M235.296,66.827 C327.995,71.5 466.741,83.804 508,116 C554.198,152.051 530.131,186.452 558,238 C578.52,275.956 583.125,286.868 613,318 C626.704,332.281 644.714,345.597 658.757,355.039 " fill="none" id="Role-ContactPersonRole" style="stroke: #A80036; stroke-width: 1.0;"/><polygon fill="#A80036" points="662.978,357.842,657.6906,349.5328,658.8118,355.0774,653.2672,356.1987,662.978,357.842" style="stroke: #A80036; stroke-width: 1.0;"/><text fill="#000000" font-family="sans-serif" font-size="13" lengthAdjust="spacingAndGlyphs" textLength="121" x="559" y="233.0669">ContactPersonRole</text><text fill="#000000" font-family="sans-serif" font-size="13" lengthAdjust="spacingAndGlyphs" textLength="8" x="646.0642" y="346.8359">1</text><!--link Role to CounterpartyRisk--><path d="M235.427,64.516 C361.169,66.666 585.594,76.172 655,116 C685.998,133.788 700.721,218.342 701,220 C703.586,235.376 698.874,252.681 694.233,264.921 " fill="none" id="Role-CounterpartyRisk" style="stroke: #A80036; stroke-width: 1.0;"/><polygon fill="#A80036" points="692.27,269.837,699.322,262.9618,694.124,265.1934,691.8923,259.9954,692.27,269.837" style="stroke: #A80036; stroke-width: 1.0;"/><text fill="#000000" font-family="sans-serif" font-size="13" lengthAdjust="spacingAndGlyphs" textLength="109" x="695" y="182.0669">CounterpartyRisk</text><text fill="#000000" font-family="sans-serif" font-size="13" lengthAdjust="spacingAndGlyphs" textLength="24" x="664.5269" y="258.8292">0..1</text><!--link Role to Entry--><path d="M235.332,66.198 C346.792,70.367 532.224,82.288 591,116 C608.987,126.317 622.159,146.78 629.69,161.151 " fill="none" id="Role-Entry" style="stroke: #A80036; stroke-width: 1.0;"/><polygon fill="#A80036" points="632.027,165.768,631.532,155.9316,629.7692,161.3068,624.3941,159.544,632.027,165.768" style="stroke: #A80036; stroke-width: 1.0;"/><text fill="#000000" font-family="sans-serif" font-size="13" lengthAdjust="spacingAndGlyphs" textLength="33" x="612" y="129.0669">Entry</text><text fill="#000000" font-family="sans-serif" font-size="13" lengthAdjust="spacingAndGlyphs" textLength="8" x="619.7234" y="154.9946">1</text><!--link SecurityCertificatePartyRole to SecurityCertificate--><path d="M168.438,190.11 C206.516,208.964 283.648,247.156 324.76,267.512 " fill="none" id="SecurityCertificatePartyRole-SecurityCertificate" style="stroke: #A80036; stroke-width: 1.0;"/><polygon fill="#A80036" points="329.59,269.904,323.2999,262.3254,325.1093,267.6851,319.7497,269.4945,329.59,269.904" style="stroke: #A80036; stroke-width: 1.0;"/><text fill="#000000" font-family="sans-serif" font-size="13" lengthAdjust="spacingAndGlyphs" textLength="117" x="263" y="233.0669">SecurityCertificate</text><text fill="#000000" font-family="sans-serif" font-size="13" lengthAdjust="spacingAndGlyphs" textLength="7" x="312.1678" y="258.9192">*</text></g></svg>