<?xml version="1.0" encoding="UTF-8" standalone="no"?><svg xmlns="http://www.w3.org/2000/svg" xmlns:xlink="http://www.w3.org/1999/xlink" contentScriptType="application/ecmascript" contentStyleType="text/css" height="478px" preserveAspectRatio="none" style="width:1319px;height:478px;" version="1.1" viewBox="0 0 1319 478" width="1319px" zoomAndPan="magnify"><defs><filter height="300%" id="f1kxe8hg9iy2sj" width="300%" x="-1" y="-1"><feGaussianBlur result="blurOut" stdDeviation="2.0"/><feColorMatrix in="blurOut" result="blurOut2" type="matrix" values="0 0 0 0 0 0 0 0 0 0 0 0 0 0 0 0 0 0 .4 0"/><feOffset dx="4.0" dy="4.0" in="blurOut2" result="blurOut3"/><feBlend in="SourceGraphic" in2="blurOut3" mode="normal"/></filter></defs><g><!--cluster ##11802--><!--cluster ##11823--><!--cluster ##11832--><!--class Role--><a target="_top" xlink:actuate="onRequest" xlink:href="../Role.html" xlink:show="new" xlink:title="Role of a party in an activity." xlink:type="simple"><rect fill="#FEFEEE" filter="url(#f1kxe8hg9iy2sj)" height="44.7734" id="Role" style="stroke: #A80036; stroke-width: 1.5;" width="175" x="579.75" y="40.5"/><rect fill="#FEFEEE" height="23.9688" style="stroke: #A80036; stroke-width: 1.5;" width="175" x="579.75" y="40.5"/><text fill="#000000" font-family="sans-serif" font-size="12" lengthAdjust="spacingAndGlyphs" textLength="27" x="653.75" y="56.6387">Role</text><line style="stroke: #A80036; stroke-width: 1.5;" x1="580.75" x2="753.75" y1="64.4688" y2="64.4688"/><ellipse cx="590.75" cy="76.3711" fill="#84BE84" rx="3" ry="3" style="stroke: #038048; stroke-width: 1.0;"/><text fill="#000000" font-family="sans-serif" font-size="11" lengthAdjust="spacingAndGlyphs" textLength="53" x="599.75" y="78.6792">PartyRole</text><text fill="#000000" font-family="sans-serif" font-size="11" font-style="italic" lengthAdjust="spacingAndGlyphs" textLength="92" x="656.75" y="78.6792">(PartyRoleCode)</text></a><!--class SecuritiesOrderPartyRole--><a target="_top" xlink:actuate="onRequest" xlink:href="../SecuritiesOrderPartyRole.html" xlink:show="new" xlink:title="Role played by a party associated with an order to buy or sell securities." xlink:type="simple"><rect fill="#FEFECE" filter="url(#f1kxe8hg9iy2sj)" height="23.9688" id="SecuritiesOrderPartyRole" style="stroke: #A80036; stroke-width: 1.5;" width="162" x="437" y="166"/><rect fill="#FEFECE" height="23.9688" style="stroke: #A80036; stroke-width: 1.5;" width="162" x="437" y="166"/><text fill="#000000" font-family="sans-serif" font-size="12" lengthAdjust="spacingAndGlyphs" textLength="156" x="440" y="182.1387">SecuritiesOrderPartyRole</text></a><!--class IntroducingFirm--><a target="_top" xlink:actuate="onRequest" xlink:href="../IntroducingFirm.html" xlink:show="new" xlink:title="Party (broker or other intermediary) that owns the relationship with the investor. It can relay an order directly to the trading floor, or give clients direct access to the floor." xlink:type="simple"><rect fill="#FEFEEE" filter="url(#f1kxe8hg9iy2sj)" height="23.9688" id="IntroducingFirm" style="stroke: #A80036; stroke-width: 1.5;" width="103" x="38.75" y="270"/><rect fill="#FEFEEE" height="23.9688" style="stroke: #A80036; stroke-width: 1.5;" width="103" x="38.75" y="270"/><text fill="#000000" font-family="sans-serif" font-size="12" lengthAdjust="spacingAndGlyphs" textLength="97" x="41.75" y="286.1387">IntroducingFirm</text></a><!--class EnteringFirm--><a target="_top" xlink:actuate="onRequest" xlink:href="../EnteringFirm.html" xlink:show="new" xlink:title="Broker that has recorded or reported an execution of a trade. When an entering firm that is not a party to a trade enters the trade into a trade recording system, any inquiries can be directed to the appropriate source." xlink:type="simple"><rect fill="#FEFEEE" filter="url(#f1kxe8hg9iy2sj)" height="23.9688" id="EnteringFirm" style="stroke: #A80036; stroke-width: 1.5;" width="85" x="176.75" y="270"/><rect fill="#FEFEEE" height="23.9688" style="stroke: #A80036; stroke-width: 1.5;" width="85" x="176.75" y="270"/><text fill="#000000" font-family="sans-serif" font-size="12" lengthAdjust="spacingAndGlyphs" textLength="79" x="179.75" y="286.1387">EnteringFirm</text></a><!--class OrderOriginationFirm--><a target="_top" xlink:actuate="onRequest" xlink:href="../OrderOriginationFirm.html" xlink:show="new" xlink:title="Firm that originates or submits the original order for execution." xlink:type="simple"><rect fill="#FEFEEE" filter="url(#f1kxe8hg9iy2sj)" height="23.9688" id="OrderOriginationFirm" style="stroke: #A80036; stroke-width: 1.5;" width="135" x="296.75" y="270"/><rect fill="#FEFEEE" height="23.9688" style="stroke: #A80036; stroke-width: 1.5;" width="135" x="296.75" y="270"/><text fill="#000000" font-family="sans-serif" font-size="12" lengthAdjust="spacingAndGlyphs" textLength="129" x="299.75" y="286.1387">OrderOriginationFirm</text></a><!--class SponsoringFirm--><a target="_top" xlink:actuate="onRequest" xlink:href="../SponsoringFirm.html" xlink:show="new" xlink:title="Member of an exchange that is sponsoring an entering entity to send orders to the exchange. The sponsoring member firm permits sponsorees to enter orders directly to the exchange via automated means." xlink:type="simple"><rect fill="#FEFEEE" filter="url(#f1kxe8hg9iy2sj)" height="23.9688" id="SponsoringFirm" style="stroke: #A80036; stroke-width: 1.5;" width="103" x="466.75" y="270"/><rect fill="#FEFEEE" height="23.9688" style="stroke: #A80036; stroke-width: 1.5;" width="103" x="466.75" y="270"/><text fill="#000000" font-family="sans-serif" font-size="12" lengthAdjust="spacingAndGlyphs" textLength="97" x="469.75" y="286.1387">SponsoringFirm</text></a><!--class OrderOriginationTrader--><a target="_top" xlink:actuate="onRequest" xlink:href="../OrderOriginationTrader.html" xlink:show="new" xlink:title="Identifies the trader at the order origination firm that submitted the order." xlink:type="simple"><rect fill="#FEFEEE" filter="url(#f1kxe8hg9iy2sj)" height="23.9688" id="OrderOriginationTrader" style="stroke: #A80036; stroke-width: 1.5;" width="150" x="605.5" y="270"/><rect fill="#FEFEEE" height="23.9688" style="stroke: #A80036; stroke-width: 1.5;" width="150" x="605.5" y="270"/><text fill="#000000" font-family="sans-serif" font-size="12" lengthAdjust="spacingAndGlyphs" textLength="144" x="608.5" y="286.1387">OrderOriginationTrader</text></a><!--class RolePlayer--><a target="_top" xlink:actuate="onRequest" xlink:href="../RolePlayer.html" xlink:show="new" xlink:title="Type of entity that plays a specific role in a specific context." xlink:type="simple"><rect fill="#EEEEEE" filter="url(#f1kxe8hg9iy2sj)" height="23.9688" id="RolePlayer" style="stroke: #A80036; stroke-width: 1.5;" width="71" x="1128.75" y="444"/><rect fill="#EEEEEE" height="23.9688" style="stroke: #A80036; stroke-width: 1.5;" width="71" x="1128.75" y="444"/><text fill="#000000" font-family="sans-serif" font-size="12" lengthAdjust="spacingAndGlyphs" textLength="65" x="1131.75" y="460.1387">RolePlayer</text></a><!--class ContactPersonRole--><a target="_top" xlink:actuate="onRequest" xlink:href="../ContactPersonRole.html" xlink:show="new" xlink:title="Person to be contacted in a given organisation. In the corporate action domain (including meeting notifications) , it is the contact person at the party organising the meeting, at the issuer or at an intermediary." xlink:type="simple"><rect fill="#EEEEEE" filter="url(#f1kxe8hg9iy2sj)" height="23.9688" id="ContactPersonRole" style="stroke: #A80036; stroke-width: 1.5;" width="126" x="1121" y="358"/><rect fill="#EEEEEE" height="23.9688" style="stroke: #A80036; stroke-width: 1.5;" width="126" x="1121" y="358"/><text fill="#000000" font-family="sans-serif" font-size="12" lengthAdjust="spacingAndGlyphs" textLength="120" x="1124" y="374.1387">ContactPersonRole</text></a><!--class CounterpartyRisk--><a target="_top" xlink:actuate="onRequest" xlink:href="../CounterpartyRisk.html" xlink:show="new" xlink:title="Calculation of the exposure amount that one party has vis-a-vis one counterparty or a central system, based on its credit risk." xlink:type="simple"><rect fill="#EEEEEE" filter="url(#f1kxe8hg9iy2sj)" height="23.9688" id="CounterpartyRisk" style="stroke: #A80036; stroke-width: 1.5;" width="113" x="1133.75" y="270"/><rect fill="#EEEEEE" height="23.9688" style="stroke: #A80036; stroke-width: 1.5;" width="113" x="1133.75" y="270"/><text fill="#000000" font-family="sans-serif" font-size="12" lengthAdjust="spacingAndGlyphs" textLength="107" x="1136.75" y="286.1387">CounterpartyRisk</text></a><!--class Entry--><a target="_top" xlink:actuate="onRequest" xlink:href="../Entry.html" xlink:show="new" xlink:title="Posting to an account that results in an increase or decrease to a balance." xlink:type="simple"><rect fill="#EEEEEE" filter="url(#f1kxe8hg9iy2sj)" height="23.9688" id="Entry" style="stroke: #A80036; stroke-width: 1.5;" width="38" x="1121" y="166"/><rect fill="#EEEEEE" height="23.9688" style="stroke: #A80036; stroke-width: 1.5;" width="38" x="1121" y="166"/><text fill="#000000" font-family="sans-serif" font-size="12" lengthAdjust="spacingAndGlyphs" textLength="32" x="1124" y="182.1387">Entry</text></a><!--class SecuritiesOrder--><a target="_top" xlink:actuate="onRequest" xlink:href="../SecuritiesOrder.html" xlink:show="new" xlink:title="Intention to transfer an ownership of a financial instrument." xlink:type="simple"><rect fill="#EEEEEE" filter="url(#f1kxe8hg9iy2sj)" height="23.9688" id="SecuritiesOrder" style="stroke: #A80036; stroke-width: 1.5;" width="103" x="811.75" y="270"/><rect fill="#EEEEEE" height="23.9688" style="stroke: #A80036; stroke-width: 1.5;" width="103" x="811.75" y="270"/><text fill="#000000" font-family="sans-serif" font-size="12" lengthAdjust="spacingAndGlyphs" textLength="97" x="814.75" y="286.1387">SecuritiesOrder</text></a><!--link Role to SecuritiesOrderPartyRole--><path d="M622.652,97.633 C592.096,120.806 553.401,150.152 532.683,165.865 " fill="none" id="Role-SecuritiesOrderPartyRole" style="stroke: #A80036; stroke-width: 1.0;"/><polygon fill="none" points="618.458,92.028,638.624,85.52,626.918,103.183,618.458,92.028" style="stroke: #A80036; stroke-width: 1.0;"/><!--link SecuritiesOrderPartyRole to IntroducingFirm--><path d="M416.969,189.955 C343.921,199.765 243.614,217.16 159,246 C141.073,252.11 121.962,262.107 108.41,269.856 " fill="none" id="SecuritiesOrderPartyRole-IntroducingFirm" style="stroke: #A80036; stroke-width: 1.0;"/><polygon fill="none" points="416.081,183.012,436.814,187.386,417.878,196.896,416.081,183.012" style="stroke: #A80036; stroke-width: 1.0;"/><!--link SecuritiesOrderPartyRole to EnteringFirm--><path d="M443.927,194.61 C395.866,205.981 332.468,223.35 279,246 C263.565,252.538 247.203,262.295 235.47,269.847 " fill="none" id="SecuritiesOrderPartyRole-EnteringFirm" style="stroke: #A80036; stroke-width: 1.0;"/><polygon fill="none" points="442.451,187.766,463.512,190.105,445.59,201.41,442.451,187.766" style="stroke: #A80036; stroke-width: 1.0;"/><!--link SecuritiesOrderPartyRole to OrderOriginationFirm--><path d="M484.372,201.273 C452.36,222.476 405.504,253.51 380.753,269.904 " fill="none" id="SecuritiesOrderPartyRole-OrderOriginationFirm" style="stroke: #A80036; stroke-width: 1.0;"/><polygon fill="none" points="480.686,195.318,501.226,190.11,488.417,206.99,480.686,195.318" style="stroke: #A80036; stroke-width: 1.0;"/><!--link SecuritiesOrderPartyRole to SponsoringFirm--><path d="M518,210.595 C518,230.825 518,255.843 518,269.954 " fill="none" id="SecuritiesOrderPartyRole-SponsoringFirm" style="stroke: #A80036; stroke-width: 1.0;"/><polygon fill="none" points="511,210.306,518,190.306,525,210.305,511,210.306" style="stroke: #A80036; stroke-width: 1.0;"/><!--link SecuritiesOrderPartyRole to OrderOriginationTrader--><path d="M552.904,200.976 C586.589,222.186 636.218,253.434 662.377,269.904 " fill="none" id="SecuritiesOrderPartyRole-OrderOriginationTrader" style="stroke: #A80036; stroke-width: 1.0;"/><polygon fill="none" points="548.84,206.69,535.645,190.11,556.3,194.843,548.84,206.69" style="stroke: #A80036; stroke-width: 1.0;"/><!--link ContactPersonRole to RolePlayer--><!--link CounterpartyRisk to ContactPersonRole--><!--link Entry to CounterpartyRisk--><!--link Role to RolePlayer--><path d="M754.316,77.507 C848.456,94.598 985,127.857 985,177 C985,177 985,177 985,371 C985,431.8572 1070.84,448.7099 1123.63,453.3199 " fill="none" id="Role-RolePlayer" style="stroke: #A80036; stroke-width: 1.0;"/><polygon fill="#A80036" points="1128.64,453.7288,1119.9889,449.0215,1123.656,453.3288,1119.3488,456.9959,1128.64,453.7288" style="stroke: #A80036; stroke-width: 1.0;"/><text fill="#000000" font-family="sans-serif" font-size="13" lengthAdjust="spacingAndGlyphs" textLength="39" x="986" y="286.0669">Player</text><text fill="#000000" font-family="sans-serif" font-size="13" lengthAdjust="spacingAndGlyphs" textLength="7" x="1113.7461" y="447.9585">*</text><!--link Role to ContactPersonRole--><path d="M754.479,67.537 C843.019,72.783 972.232,85.542 1011,116 C1057.08,152.202 1033.13,186.452 1061,238 C1081.52,275.956 1086.13,286.868 1116,318 C1129.7,332.281 1147.71,345.597 1161.76,355.039 " fill="none" id="Role-ContactPersonRole" style="stroke: #A80036; stroke-width: 1.0;"/><polygon fill="#A80036" points="1165.98,357.842,1160.7024,349.5265,1161.8171,355.0725,1156.2712,356.1871,1165.98,357.842" style="stroke: #A80036; stroke-width: 1.0;"/><text fill="#000000" font-family="sans-serif" font-size="13" lengthAdjust="spacingAndGlyphs" textLength="121" x="1062" y="233.0669">ContactPersonRole</text><text fill="#000000" font-family="sans-serif" font-size="13" lengthAdjust="spacingAndGlyphs" textLength="8" x="1149.0669" y="346.8359">1</text><!--link Role to CounterpartyRisk--><path d="M754.473,64.868 C876.762,67.484 1091.34,77.599 1158,116 C1189.01,133.863 1203.75,218.535 1204,220 C1206.59,235.376 1201.87,252.681 1197.23,264.921 " fill="none" id="Role-CounterpartyRisk" style="stroke: #A80036; stroke-width: 1.0;"/><polygon fill="#A80036" points="1195.27,269.837,1202.3228,262.9625,1197.1245,265.1936,1194.8934,259.9953,1195.27,269.837" style="stroke: #A80036; stroke-width: 1.0;"/><text fill="#000000" font-family="sans-serif" font-size="13" lengthAdjust="spacingAndGlyphs" textLength="109" x="1198" y="182.0669">CounterpartyRisk</text><text fill="#000000" font-family="sans-serif" font-size="13" lengthAdjust="spacingAndGlyphs" textLength="24" x="1167.5269" y="258.8292">0..1</text><!--link Role to Entry--><path d="M754.435,66.66 C862.201,71.297 1037.95,83.692 1094,116 C1111.96,126.356 1125.14,146.811 1132.68,161.169 " fill="none" id="Role-Entry" style="stroke: #A80036; stroke-width: 1.0;"/><polygon fill="#A80036" points="1135.02,165.781,1134.5124,155.9452,1132.7565,161.3227,1127.3791,159.5668,1135.02,165.781" style="stroke: #A80036; stroke-width: 1.0;"/><text fill="#000000" font-family="sans-serif" font-size="13" lengthAdjust="spacingAndGlyphs" textLength="33" x="1115" y="129.0669">Entry</text><text fill="#000000" font-family="sans-serif" font-size="13" lengthAdjust="spacingAndGlyphs" textLength="8" x="1122.7141" y="155.0119">1</text><!--link SecuritiesOrderPartyRole to SecuritiesOrder--><path d="M565.523,190.011 C616.693,202.232 700.278,223.252 771,246 C791.372,252.553 813.828,261.07 831.454,268.061 " fill="none" id="SecuritiesOrderPartyRole-SecuritiesOrder" style="stroke: #A80036; stroke-width: 1.0;"/><polygon fill="#A80036" points="836.291,269.99,829.412,262.9416,831.6465,268.1385,826.4496,270.3729,836.291,269.99" style="stroke: #A80036; stroke-width: 1.0;"/><text fill="#000000" font-family="sans-serif" font-size="13" lengthAdjust="spacingAndGlyphs" textLength="99" x="745" y="233.0669">SecuritiesOrder</text><text fill="#000000" font-family="sans-serif" font-size="13" lengthAdjust="spacingAndGlyphs" textLength="7" x="817.477" y="259.0348">*</text></g></svg>