<?xml version="1.0" encoding="UTF-8" standalone="no"?><svg xmlns="http://www.w3.org/2000/svg" xmlns:xlink="http://www.w3.org/1999/xlink" contentScriptType="application/ecmascript" contentStyleType="text/css" height="478px" preserveAspectRatio="none" style="width:753px;height:478px;" version="1.1" viewBox="0 0 753 478" width="753px" zoomAndPan="magnify"><defs><filter height="300%" id="f1gk6y9lciykuv" width="300%" x="-1" y="-1"><feGaussianBlur result="blurOut" stdDeviation="2.0"/><feColorMatrix in="blurOut" result="blurOut2" type="matrix" values="0 0 0 0 0 0 0 0 0 0 0 0 0 0 0 0 0 0 .4 0"/><feOffset dx="4.0" dy="4.0" in="blurOut2" result="blurOut3"/><feBlend in="SourceGraphic" in2="blurOut3" mode="normal"/></filter></defs><g><!--cluster ##18861--><!--cluster ##18870--><!--cluster ##18879--><!--class Role--><a target="_top" xlink:actuate="onRequest" xlink:href="../Role.html" xlink:show="new" xlink:title="Role of a party in an activity." xlink:type="simple"><rect fill="#FEFEEE" filter="url(#f1gk6y9lciykuv)" height="44.7734" id="Role" style="stroke: #A80036; stroke-width: 1.5;" width="175" x="51.75" y="40.5"/><rect fill="#FEFEEE" height="23.9688" style="stroke: #A80036; stroke-width: 1.5;" width="175" x="51.75" y="40.5"/><text fill="#000000" font-family="sans-serif" font-size="12" lengthAdjust="spacingAndGlyphs" textLength="27" x="125.75" y="56.6387">Role</text><line style="stroke: #A80036; stroke-width: 1.5;" x1="52.75" x2="225.75" y1="64.4688" y2="64.4688"/><ellipse cx="62.75" cy="76.3711" fill="#84BE84" rx="3" ry="3" style="stroke: #038048; stroke-width: 1.0;"/><text fill="#000000" font-family="sans-serif" font-size="11" lengthAdjust="spacingAndGlyphs" textLength="53" x="71.75" y="78.6792">PartyRole</text><text fill="#000000" font-family="sans-serif" font-size="11" font-style="italic" lengthAdjust="spacingAndGlyphs" textLength="92" x="128.75" y="78.6792">(PartyRoleCode)</text></a><!--class CollateralPartyRole--><a target="_top" xlink:actuate="onRequest" xlink:href="../CollateralPartyRole.html" xlink:show="new" xlink:title="Role played by a party in the context of collateral." xlink:type="simple"><rect fill="#FEFEEE" filter="url(#f1gk6y9lciykuv)" height="23.9688" id="CollateralPartyRole" style="stroke: #A80036; stroke-width: 1.5;" width="124" x="90.5" y="166"/><rect fill="#FEFEEE" height="23.9688" style="stroke: #A80036; stroke-width: 1.5;" width="124" x="90.5" y="166"/><text fill="#000000" font-family="sans-serif" font-size="12" lengthAdjust="spacingAndGlyphs" textLength="118" x="93.5" y="182.1387">CollateralPartyRole</text></a><!--class ServicingPartyRole--><a target="_top" xlink:actuate="onRequest" xlink:href="../ServicingPartyRole.html" xlink:show="new" xlink:title="Party that is acting on behalf of another party and that offers collateral management services." xlink:type="simple"><rect fill="#FEFECE" filter="url(#f1gk6y9lciykuv)" height="23.9688" id="ServicingPartyRole" style="stroke: #A80036; stroke-width: 1.5;" width="121" x="91.75" y="270"/><rect fill="#FEFECE" height="23.9688" style="stroke: #A80036; stroke-width: 1.5;" width="121" x="91.75" y="270"/><text fill="#000000" font-family="sans-serif" font-size="12" lengthAdjust="spacingAndGlyphs" textLength="115" x="94.75" y="286.1387">ServicingPartyRole</text></a><!--class RolePlayer--><a target="_top" xlink:actuate="onRequest" xlink:href="../RolePlayer.html" xlink:show="new" xlink:title="Type of entity that plays a specific role in a specific context." xlink:type="simple"><rect fill="#EEEEEE" filter="url(#f1gk6y9lciykuv)" height="23.9688" id="RolePlayer" style="stroke: #A80036; stroke-width: 1.5;" width="71" x="562.75" y="444"/><rect fill="#EEEEEE" height="23.9688" style="stroke: #A80036; stroke-width: 1.5;" width="71" x="562.75" y="444"/><text fill="#000000" font-family="sans-serif" font-size="12" lengthAdjust="spacingAndGlyphs" textLength="65" x="565.75" y="460.1387">RolePlayer</text></a><!--class ContactPersonRole--><a target="_top" xlink:actuate="onRequest" xlink:href="../ContactPersonRole.html" xlink:show="new" xlink:title="Person to be contacted in a given organisation. In the corporate action domain (including meeting notifications) , it is the contact person at the party organising the meeting, at the issuer or at an intermediary." xlink:type="simple"><rect fill="#EEEEEE" filter="url(#f1gk6y9lciykuv)" height="23.9688" id="ContactPersonRole" style="stroke: #A80036; stroke-width: 1.5;" width="126" x="555" y="358"/><rect fill="#EEEEEE" height="23.9688" style="stroke: #A80036; stroke-width: 1.5;" width="126" x="555" y="358"/><text fill="#000000" font-family="sans-serif" font-size="12" lengthAdjust="spacingAndGlyphs" textLength="120" x="558" y="374.1387">ContactPersonRole</text></a><!--class CounterpartyRisk--><a target="_top" xlink:actuate="onRequest" xlink:href="../CounterpartyRisk.html" xlink:show="new" xlink:title="Calculation of the exposure amount that one party has vis-a-vis one counterparty or a central system, based on its credit risk." xlink:type="simple"><rect fill="#EEEEEE" filter="url(#f1gk6y9lciykuv)" height="23.9688" id="CounterpartyRisk" style="stroke: #A80036; stroke-width: 1.5;" width="113" x="567.75" y="270"/><rect fill="#EEEEEE" height="23.9688" style="stroke: #A80036; stroke-width: 1.5;" width="113" x="567.75" y="270"/><text fill="#000000" font-family="sans-serif" font-size="12" lengthAdjust="spacingAndGlyphs" textLength="107" x="570.75" y="286.1387">CounterpartyRisk</text></a><!--class Entry--><a target="_top" xlink:actuate="onRequest" xlink:href="../Entry.html" xlink:show="new" xlink:title="Posting to an account that results in an increase or decrease to a balance." xlink:type="simple"><rect fill="#EEEEEE" filter="url(#f1gk6y9lciykuv)" height="23.9688" id="Entry" style="stroke: #A80036; stroke-width: 1.5;" width="38" x="555" y="166"/><rect fill="#EEEEEE" height="23.9688" style="stroke: #A80036; stroke-width: 1.5;" width="38" x="555" y="166"/><text fill="#000000" font-family="sans-serif" font-size="12" lengthAdjust="spacingAndGlyphs" textLength="32" x="558" y="182.1387">Entry</text></a><!--class Collateral--><a target="_top" xlink:actuate="onRequest" xlink:href="../Collateral.html" xlink:show="new" xlink:title="Assets pledged by a debtor to secure a loan or an exposure and subject to seizure in the event of default." xlink:type="simple"><rect fill="#EEEEEE" filter="url(#f1gk6y9lciykuv)" height="23.9688" id="Collateral" style="stroke: #A80036; stroke-width: 1.5;" width="65" x="283.75" y="270"/><rect fill="#EEEEEE" height="23.9688" style="stroke: #A80036; stroke-width: 1.5;" width="65" x="283.75" y="270"/><text fill="#000000" font-family="sans-serif" font-size="12" lengthAdjust="spacingAndGlyphs" textLength="59" x="286.75" y="286.1387">Collateral</text></a><!--entity ##18882--><!--link Role to CollateralPartyRole--><path d="M143.781,105.559 C146.266,127.159 149.112,151.898 150.719,165.865 " fill="none" id="Role-CollateralPartyRole" style="stroke: #A80036; stroke-width: 1.0;"/><polygon fill="none" points="136.808,106.189,141.476,85.52,150.716,104.589,136.808,106.189" style="stroke: #A80036; stroke-width: 1.0;"/><!--link CollateralPartyRole to ServicingPartyRole--><path d="M152,210.595 C152,230.825 152,255.843 152,269.954 " fill="none" id="CollateralPartyRole-ServicingPartyRole" style="stroke: #A80036; stroke-width: 1.0;"/><polygon fill="none" points="145,210.306,152,190.306,159,210.305,145,210.306" style="stroke: #A80036; stroke-width: 1.0;"/><!--link ContactPersonRole to RolePlayer--><!--link CounterpartyRisk to ContactPersonRole--><!--link Entry to CounterpartyRisk--><!--link Role to RolePlayer--><path d="M226.442,81.791 C308.597,101.092 419,134.867 419,177 C419,177 419,177 419,371 C419,431.8572 504.842,448.7099 557.634,453.3199 " fill="none" id="Role-RolePlayer" style="stroke: #A80036; stroke-width: 1.0;"/><polygon fill="#A80036" points="562.635,453.7288,553.9919,449.0068,557.6517,453.3202,553.3382,456.98,562.635,453.7288" style="stroke: #A80036; stroke-width: 1.0;"/><text fill="#000000" font-family="sans-serif" font-size="13" lengthAdjust="spacingAndGlyphs" textLength="39" x="420" y="286.0669">Player</text><text fill="#000000" font-family="sans-serif" font-size="13" lengthAdjust="spacingAndGlyphs" textLength="7" x="547.7402" y="447.9585">*</text><!--link Role to ContactPersonRole--><path d="M226.452,69.486 C304.711,76.038 412.03,89.606 445,116 C490.746,152.622 467.131,186.452 495,238 C515.52,275.956 520.125,286.868 550,318 C563.704,332.281 581.714,345.597 595.757,355.039 " fill="none" id="Role-ContactPersonRole" style="stroke: #A80036; stroke-width: 1.0;"/><polygon fill="#A80036" points="599.978,357.842,594.6906,349.5328,595.8118,355.0774,590.2672,356.1987,599.978,357.842" style="stroke: #A80036; stroke-width: 1.0;"/><text fill="#000000" font-family="sans-serif" font-size="13" lengthAdjust="spacingAndGlyphs" textLength="121" x="496" y="233.0669">ContactPersonRole</text><text fill="#000000" font-family="sans-serif" font-size="13" lengthAdjust="spacingAndGlyphs" textLength="8" x="583.0642" y="346.8359">1</text><!--link Role to CounterpartyRisk--><path d="M226.426,65.796 C340.255,69.524 531.789,80.963 592,116 C623.044,134.065 637.841,219.052 638,220 C640.586,235.376 635.874,252.681 631.233,264.921 " fill="none" id="Role-CounterpartyRisk" style="stroke: #A80036; stroke-width: 1.0;"/><polygon fill="#A80036" points="629.27,269.837,636.322,262.9618,631.124,265.1934,628.8923,259.9954,629.27,269.837" style="stroke: #A80036; stroke-width: 1.0;"/><text fill="#000000" font-family="sans-serif" font-size="13" lengthAdjust="spacingAndGlyphs" textLength="109" x="632" y="182.0669">CounterpartyRisk</text><text fill="#000000" font-family="sans-serif" font-size="13" lengthAdjust="spacingAndGlyphs" textLength="24" x="601.5269" y="258.8292">0..1</text><!--link Role to Entry--><path d="M226.459,67.897 C325.138,73.636 478.363,86.998 528,116 C545.903,126.461 559.095,146.893 566.652,161.217 " fill="none" id="Role-Entry" style="stroke: #A80036; stroke-width: 1.0;"/><polygon fill="#A80036" points="568.998,165.817,568.4729,155.9822,566.7266,161.3627,561.346,159.6164,568.998,165.817" style="stroke: #A80036; stroke-width: 1.0;"/><text fill="#000000" font-family="sans-serif" font-size="13" lengthAdjust="spacingAndGlyphs" textLength="33" x="549" y="129.0669">Entry</text><text fill="#000000" font-family="sans-serif" font-size="13" lengthAdjust="spacingAndGlyphs" textLength="8" x="556.6848" y="155.0598">1</text><!--link CollateralPartyRole to Collateral--><path d="M169.863,190.11 C200.054,208.887 261.085,246.846 293.913,267.263 " fill="none" id="CollateralPartyRole-Collateral" style="stroke: #A80036; stroke-width: 1.0;"/><polygon fill="#A80036" points="298.159,269.904,292.6282,261.7547,293.9129,267.2638,288.4039,268.5485,298.159,269.904" style="stroke: #A80036; stroke-width: 1.0;"/><text fill="#000000" font-family="sans-serif" font-size="13" lengthAdjust="spacingAndGlyphs" textLength="60" x="245" y="233.0669">Collateral</text><text fill="#000000" font-family="sans-serif" font-size="13" lengthAdjust="spacingAndGlyphs" textLength="7" x="282.3933" y="258.9192">*</text></g></svg>