<?xml version="1.0" encoding="UTF-8" standalone="no"?><svg xmlns="http://www.w3.org/2000/svg" xmlns:xlink="http://www.w3.org/1999/xlink" contentScriptType="application/ecmascript" contentStyleType="text/css" height="762px" preserveAspectRatio="none" style="width:2523px;height:762px;" version="1.1" viewBox="0 0 2523 762" width="2523px" zoomAndPan="magnify"><defs><filter height="300%" id="fk5p2qj9d2lgk" width="300%" x="-1" y="-1"><feGaussianBlur result="blurOut" stdDeviation="2.0"/><feColorMatrix in="blurOut" result="blurOut2" type="matrix" values="0 0 0 0 0 0 0 0 0 0 0 0 0 0 0 0 0 0 .4 0"/><feOffset dx="4.0" dy="4.0" in="blurOut2" result="blurOut3"/><feBlend in="SourceGraphic" in2="blurOut3" mode="normal"/></filter></defs><g><!--cluster ##2211--><!--cluster ##2220--><!--class Product--><a target="_top" xlink:actuate="onRequest" xlink:href="../Product.html" xlink:show="new" xlink:title="Item that is offered for sale. Products can be services or goods." xlink:type="simple"><rect fill="#FEFEEE" filter="url(#fk5p2qj9d2lgk)" height="70.3828" id="Product" style="stroke: #A80036; stroke-width: 1.5;" width="171" x="2229.75" y="40"/><rect fill="#FEFEEE" height="23.9688" style="stroke: #A80036; stroke-width: 1.5;" width="171" x="2229.75" y="40"/><text fill="#000000" font-family="sans-serif" font-size="12" lengthAdjust="spacingAndGlyphs" textLength="49" x="2290.75" y="56.1387">Product</text><line style="stroke: #A80036; stroke-width: 1.5;" x1="2230.75" x2="2399.75" y1="63.9688" y2="63.9688"/><ellipse cx="2240.75" cy="75.8711" fill="#84BE84" rx="3" ry="3" style="stroke: #038048; stroke-width: 1.0;"/><text fill="#000000" font-family="sans-serif" font-size="11" lengthAdjust="spacingAndGlyphs" textLength="33" x="2249.75" y="78.1792">Name</text><text fill="#000000" font-family="sans-serif" font-size="11" font-style="italic" lengthAdjust="spacingAndGlyphs" textLength="70" x="2286.75" y="78.1792">(Max35Text)</text><ellipse cx="2240.75" cy="88.6758" fill="#84BE84" rx="3" ry="3" style="stroke: #038048; stroke-width: 1.0;"/><text fill="#000000" font-family="sans-serif" font-size="11" lengthAdjust="spacingAndGlyphs" textLength="64" x="2249.75" y="90.9839">Description</text><text fill="#000000" font-family="sans-serif" font-size="11" font-style="italic" lengthAdjust="spacingAndGlyphs" textLength="77" x="2317.75" y="90.9839">(Max140Text)</text><ellipse cx="2240.75" cy="101.4805" fill="#84BE84" rx="3" ry="3" style="stroke: #038048; stroke-width: 1.0;"/><text fill="#000000" font-family="sans-serif" font-size="11" lengthAdjust="spacingAndGlyphs" textLength="39" x="2249.75" y="103.7886">Quality</text><text fill="#000000" font-family="sans-serif" font-size="11" font-style="italic" lengthAdjust="spacingAndGlyphs" textLength="70" x="2292.75" y="103.7886">(Max70Text)</text></a><!--class Service--><a target="_top" xlink:actuate="onRequest" xlink:href="../Service.html" xlink:show="new" xlink:title="Service is the intangible equivalent of a good." xlink:type="simple"><rect fill="#FEFECE" filter="url(#fk5p2qj9d2lgk)" height="83.1875" id="Service" style="stroke: #A80036; stroke-width: 1.5;" width="283" x="2229.75" y="188.5"/><rect fill="#FEFECE" height="23.9688" style="stroke: #A80036; stroke-width: 1.5;" width="283" x="2229.75" y="188.5"/><text fill="#000000" font-family="sans-serif" font-size="12" lengthAdjust="spacingAndGlyphs" textLength="45" x="2348.75" y="204.6387">Service</text><line style="stroke: #A80036; stroke-width: 1.5;" x1="2230.75" x2="2511.75" y1="212.4688" y2="212.4688"/><ellipse cx="2240.75" cy="224.3711" fill="#84BE84" rx="3" ry="3" style="stroke: #038048; stroke-width: 1.0;"/><text fill="#000000" font-family="sans-serif" font-size="11" lengthAdjust="spacingAndGlyphs" textLength="43" x="2249.75" y="226.6792">Amount</text><text fill="#000000" font-family="sans-serif" font-size="11" font-style="italic" lengthAdjust="spacingAndGlyphs" textLength="126" x="2296.75" y="226.6792">(CurrencyAndAmount)</text><ellipse cx="2240.75" cy="237.1758" fill="#84BE84" rx="3" ry="3" style="stroke: #038048; stroke-width: 1.0;"/><text fill="#000000" font-family="sans-serif" font-size="11" lengthAdjust="spacingAndGlyphs" textLength="27" x="2249.75" y="239.4839">Type</text><text fill="#000000" font-family="sans-serif" font-size="11" font-style="italic" lengthAdjust="spacingAndGlyphs" textLength="70" x="2280.75" y="239.4839">(Max35Text)</text><ellipse cx="2240.75" cy="249.9805" fill="#84BE84" rx="3" ry="3" style="stroke: #038048; stroke-width: 1.0;"/><text fill="#000000" font-family="sans-serif" font-size="11" lengthAdjust="spacingAndGlyphs" textLength="87" x="2249.75" y="252.2886">TaxDesignation</text><text fill="#000000" font-family="sans-serif" font-size="11" font-style="italic" lengthAdjust="spacingAndGlyphs" textLength="166" x="2340.75" y="252.2886">(ServiceTaxDesignationCode)</text><ellipse cx="2240.75" cy="262.7852" fill="#84BE84" rx="3" ry="3" style="stroke: #038048; stroke-width: 1.0;"/><text fill="#000000" font-family="sans-serif" font-size="11" lengthAdjust="spacingAndGlyphs" textLength="25" x="2249.75" y="265.0933">Rate</text><text fill="#000000" font-family="sans-serif" font-size="11" font-style="italic" lengthAdjust="spacingAndGlyphs" textLength="98" x="2278.75" y="265.0933">(PercentageRate)</text></a><!--class FinancialService--><a target="_top" xlink:actuate="onRequest" xlink:href="../FinancialService.html" xlink:show="new" xlink:title="Services provided by a financial institution to its clients." xlink:type="simple"><rect fill="#FEFEEE" filter="url(#fk5p2qj9d2lgk)" height="23.9688" id="FinancialService" style="stroke: #A80036; stroke-width: 1.5;" width="106" x="2318.5" y="350"/><rect fill="#FEFEEE" height="23.9688" style="stroke: #A80036; stroke-width: 1.5;" width="106" x="2318.5" y="350"/><text fill="#000000" font-family="sans-serif" font-size="12" lengthAdjust="spacingAndGlyphs" textLength="100" x="2321.5" y="366.1387">FinancialService</text></a><!--class CardPayment--><a target="_top" xlink:actuate="onRequest" xlink:href="../CardPayment.html" xlink:show="new" xlink:title="Payment through an electronic money product." xlink:type="simple"><rect fill="#EEEEEE" filter="url(#fk5p2qj9d2lgk)" height="23.9688" id="CardPayment" style="stroke: #A80036; stroke-width: 1.5;" width="89" x="1384.75" y="454"/><rect fill="#EEEEEE" height="23.9688" style="stroke: #A80036; stroke-width: 1.5;" width="89" x="1384.75" y="454"/><text fill="#000000" font-family="sans-serif" font-size="12" lengthAdjust="spacingAndGlyphs" textLength="83" x="1387.75" y="470.1387">CardPayment</text></a><!--class Price--><a target="_top" xlink:actuate="onRequest" xlink:href="../Price.html" xlink:show="new" xlink:title="Amount of money for which goods, services or assets are offered, sold, or bought." xlink:type="simple"><rect fill="#EEEEEE" filter="url(#fk5p2qj9d2lgk)" height="23.9688" id="Price" style="stroke: #A80036; stroke-width: 1.5;" width="37" x="1410.75" y="350"/><rect fill="#EEEEEE" height="23.9688" style="stroke: #A80036; stroke-width: 1.5;" width="37" x="1410.75" y="350"/><text fill="#000000" font-family="sans-serif" font-size="12" lengthAdjust="spacingAndGlyphs" textLength="31" x="1413.75" y="366.1387">Price</text></a><!--class ProductCategory--><a target="_top" xlink:actuate="onRequest" xlink:href="../ProductCategory.html" xlink:show="new" xlink:title="Specifies the category of the product." xlink:type="simple"><rect fill="#EEEEEE" filter="url(#fk5p2qj9d2lgk)" height="23.9688" id="ProductCategory" style="stroke: #A80036; stroke-width: 1.5;" width="111" x="1362.75" y="218"/><rect fill="#EEEEEE" height="23.9688" style="stroke: #A80036; stroke-width: 1.5;" width="111" x="1362.75" y="218"/><text fill="#000000" font-family="sans-serif" font-size="12" lengthAdjust="spacingAndGlyphs" textLength="105" x="1365.75" y="234.1387">ProductCategory</text></a><!--class LineItem--><a target="_top" xlink:actuate="onRequest" xlink:href="../LineItem.html" xlink:show="new" xlink:title="Unit of information  showing the related  provision of products and/or services and monetary summations reported as a discrete line item." xlink:type="simple"><rect fill="#EEEEEE" filter="url(#fk5p2qj9d2lgk)" height="23.9688" id="LineItem" style="stroke: #A80036; stroke-width: 1.5;" width="58" x="997.5" y="63"/><rect fill="#EEEEEE" height="23.9688" style="stroke: #A80036; stroke-width: 1.5;" width="58" x="997.5" y="63"/><text fill="#000000" font-family="sans-serif" font-size="12" lengthAdjust="spacingAndGlyphs" textLength="52" x="1000.5" y="79.1387">LineItem</text></a><!--class ProductIdentification--><a target="_top" xlink:actuate="onRequest" xlink:href="../ProductIdentification.html" xlink:show="new" xlink:title="Information used to identify a product." xlink:type="simple"><rect fill="#EEEEEE" filter="url(#fk5p2qj9d2lgk)" height="23.9688" id="ProductIdentification" style="stroke: #A80036; stroke-width: 1.5;" width="136" x="1254" y="556"/><rect fill="#EEEEEE" height="23.9688" style="stroke: #A80036; stroke-width: 1.5;" width="136" x="1254" y="556"/><text fill="#000000" font-family="sans-serif" font-size="12" lengthAdjust="spacingAndGlyphs" textLength="130" x="1257" y="572.1387">ProductIdentification</text></a><!--class Country--><a target="_top" xlink:actuate="onRequest" xlink:href="../Country.html" xlink:show="new" xlink:title="Nation with its own government." xlink:type="simple"><rect fill="#EEEEEE" filter="url(#fk5p2qj9d2lgk)" height="23.9688" id="Country" style="stroke: #A80036; stroke-width: 1.5;" width="54" x="1295" y="454"/><rect fill="#EEEEEE" height="23.9688" style="stroke: #A80036; stroke-width: 1.5;" width="54" x="1295" y="454"/><text fill="#000000" font-family="sans-serif" font-size="12" lengthAdjust="spacingAndGlyphs" textLength="48" x="1298" y="470.1387">Country</text></a><!--class ProductCharacteristics--><a target="_top" xlink:actuate="onRequest" xlink:href="../ProductCharacteristics.html" xlink:show="new" xlink:title="Identifies the characteristic of a product." xlink:type="simple"><rect fill="#EEEEEE" filter="url(#fk5p2qj9d2lgk)" height="23.9688" id="ProductCharacteristics" style="stroke: #A80036; stroke-width: 1.5;" width="149" x="1033.75" y="350"/><rect fill="#EEEEEE" height="23.9688" style="stroke: #A80036; stroke-width: 1.5;" width="149" x="1033.75" y="350"/><text fill="#000000" font-family="sans-serif" font-size="12" lengthAdjust="spacingAndGlyphs" textLength="143" x="1036.75" y="366.1387">ProductCharacteristics</text></a><!--class ProductQuantity--><a target="_top" xlink:actuate="onRequest" xlink:href="../ProductQuantity.html" xlink:show="new" xlink:title="Specifies the ordered quantity of a product." xlink:type="simple"><rect fill="#EEEEEE" filter="url(#fk5p2qj9d2lgk)" height="23.9688" id="ProductQuantity" style="stroke: #A80036; stroke-width: 1.5;" width="107" x="1150.75" y="218"/><rect fill="#EEEEEE" height="23.9688" style="stroke: #A80036; stroke-width: 1.5;" width="107" x="1150.75" y="218"/><text fill="#000000" font-family="sans-serif" font-size="12" lengthAdjust="spacingAndGlyphs" textLength="101" x="1153.75" y="234.1387">ProductQuantity</text></a><!--class ProductDelivery--><a target="_top" xlink:actuate="onRequest" xlink:href="../ProductDelivery.html" xlink:show="new" xlink:title="Arrangements for delivery of invoiced products and/or services." xlink:type="simple"><rect fill="#EEEEEE" filter="url(#fk5p2qj9d2lgk)" height="23.9688" id="ProductDelivery" style="stroke: #A80036; stroke-width: 1.5;" width="103" x="1369.75" y="728"/><rect fill="#EEEEEE" height="23.9688" style="stroke: #A80036; stroke-width: 1.5;" width="103" x="1369.75" y="728"/><text fill="#000000" font-family="sans-serif" font-size="12" lengthAdjust="spacingAndGlyphs" textLength="97" x="1372.75" y="744.1387">ProductDelivery</text></a><!--class PurchaseOrder--><a target="_top" xlink:actuate="onRequest" xlink:href="../PurchaseOrder.html" xlink:show="new" xlink:title="Document issued by a buyer and containing the details of a purchase, including description of goods, transport information, payment terms, etc." xlink:type="simple"><rect fill="#EEEEEE" filter="url(#fk5p2qj9d2lgk)" height="23.9688" id="PurchaseOrder" style="stroke: #A80036; stroke-width: 1.5;" width="100" x="1373" y="642"/><rect fill="#EEEEEE" height="23.9688" style="stroke: #A80036; stroke-width: 1.5;" width="100" x="1373" y="642"/><text fill="#000000" font-family="sans-serif" font-size="12" lengthAdjust="spacingAndGlyphs" textLength="94" x="1376" y="658.1387">PurchaseOrder</text></a><!--class Tax--><a target="_top" xlink:actuate="onRequest" xlink:href="../Tax.html" xlink:show="new" xlink:title="Amount of money due to the government or tax authority, according to various pre-defined parameters such as thresholds or income." xlink:type="simple"><rect fill="#EEEEEE" filter="url(#fk5p2qj9d2lgk)" height="23.9688" id="Tax" style="stroke: #A80036; stroke-width: 1.5;" width="27" x="1425.75" y="556"/><rect fill="#EEEEEE" height="23.9688" style="stroke: #A80036; stroke-width: 1.5;" width="27" x="1425.75" y="556"/><text fill="#000000" font-family="sans-serif" font-size="12" lengthAdjust="spacingAndGlyphs" textLength="21" x="1428.75" y="572.1387">Tax</text></a><!--entity ##2243--><!--link Product to Service--><path d="M2334.45,129.136 C2341.54,148.523 2349.45,170.125 2356.09,188.264 " fill="none" id="Product-Service" style="stroke: #A80036; stroke-width: 1.0;"/><polygon fill="none" points="2327.87,131.524,2327.57,110.336,2341.02,126.712,2327.87,131.524" style="stroke: #A80036; stroke-width: 1.0;"/><!--link Service to FinancialService--><path d="M2371,291.957 C2371,313.988 2371,336.64 2371,349.738 " fill="none" id="Service-FinancialService" style="stroke: #A80036; stroke-width: 1.0;"/><polygon fill="none" points="2364,291.776,2371,271.776,2378,291.776,2364,291.776" style="stroke: #A80036; stroke-width: 1.0;"/><!--link Price to CardPayment--><!--link ProductCategory to Price--><!--link LineItem to ProductCategory--><!--link ProductIdentification to LineItem--><!--link Country to ProductIdentification--><!--link ProductCharacteristics to Country--><!--link ProductQuantity to ProductCharacteristics--><!--link ProductDelivery to ProductQuantity--><!--link PurchaseOrder to ProductDelivery--><!--link Tax to PurchaseOrder--><!--link Product to CardPayment--><path d="M2229.68,82.674 C2133.47,91.532 1984.28,109.692 1937,140 C1877.22,178.32 1888.69,214.524 1847,272 C1831.18,293.803 1828.15,300.101 1810,320 C1764.22,370.183 1759.17,394.465 1698,424 C1660.22,442.242 1545.37,454.908 1478.58,460.954 " fill="none" id="Product-CardPayment" style="stroke: #A80036; stroke-width: 1.0;"/><polygon fill="#A80036" points="1473.46,461.413,1482.788,464.5736,1478.4391,460.9559,1482.0567,456.607,1473.46,461.413" style="stroke: #A80036; stroke-width: 1.0;"/><text fill="#000000" font-family="sans-serif" font-size="13" lengthAdjust="spacingAndGlyphs" textLength="87" x="1827" y="315.0669">CardPayment</text><text fill="#000000" font-family="sans-serif" font-size="13" lengthAdjust="spacingAndGlyphs" textLength="8" x="1481.7461" y="455.2447">1</text><!--link Product to Price--><path d="M2229.49,80.779 C2134.59,87.668 1977.59,103.802 1847,140 C1840.48,141.808 1740.58,184.162 1735,188 C1667.68,234.334 1678.18,279.851 1607,320 C1556.72,348.363 1487.94,357.12 1452.39,359.813 " fill="none" id="Product-Price" style="stroke: #A80036; stroke-width: 1.0;"/><polygon fill="#A80036" points="1447.4,360.168,1456.6627,363.5149,1452.3872,359.8109,1456.0913,355.5353,1447.4,360.168" style="stroke: #A80036; stroke-width: 1.0;"/><text fill="#000000" font-family="sans-serif" font-size="13" lengthAdjust="spacingAndGlyphs" textLength="57" x="1736" y="234.0669">UnitPrice</text><text fill="#000000" font-family="sans-serif" font-size="13" lengthAdjust="spacingAndGlyphs" textLength="7" x="1455.6541" y="352.3271">*</text><!--link Product to Price--><path d="M2229.49,79.883 C2127.3,86.088 1951.8,101.729 1806,140 C1785.56,145.364 1782.28,152.067 1762,158 C1690.88,178.806 1663.41,153.192 1598,188 C1523.86,227.451 1462.41,310.865 1439.07,345.46 " fill="none" id="Product-Price" style="stroke: #A80036; stroke-width: 1.0;"/><polygon fill="#A80036" points="1436.16,349.816,1444.4855,344.5543,1438.9375,345.6584,1437.8333,340.1103,1436.16,349.816" style="stroke: #A80036; stroke-width: 1.0;"/><text fill="#000000" font-family="sans-serif" font-size="13" lengthAdjust="spacingAndGlyphs" textLength="54" x="1599" y="234.0669">NetPrice</text><text fill="#000000" font-family="sans-serif" font-size="13" lengthAdjust="spacingAndGlyphs" textLength="24" x="1409.1427" y="339.0585">0..1</text><!--link Product to Price--><path d="M2229.51,80.207 C2083.29,87.996 1775.99,106.952 1518,140 C1472.34,145.849 1461.65,152.05 1416,158 C1376.86,163.102 1088.71,158.933 1062,188 C1036.74,215.491 1038.92,242.655 1062,272 C1105.24,326.981 1331.37,352.139 1405.46,358.993 " fill="none" id="Product-Price" style="stroke: #A80036; stroke-width: 1.0;"/><polygon fill="#A80036" points="1410.53,359.455,1401.9335,354.6488,1405.5509,358.9978,1401.202,362.6153,1410.53,359.455" style="stroke: #A80036; stroke-width: 1.0;"/><text fill="#000000" font-family="sans-serif" font-size="13" lengthAdjust="spacingAndGlyphs" textLength="68" x="1063" y="234.0669">GrossPrice</text><text fill="#000000" font-family="sans-serif" font-size="13" lengthAdjust="spacingAndGlyphs" textLength="24" x="1378.5913" y="353.1237">0..1</text><!--link Product to ProductCategory--><path d="M2229.7,80.286 C2075.18,88.695 1755.06,109.255 1648,140 C1630.81,144.938 1628.43,150.915 1612,158 C1559.21,180.772 1496.46,202.864 1456.93,216.2 " fill="none" id="Product-ProductCategory" style="stroke: #A80036; stroke-width: 1.0;"/><polygon fill="#A80036" points="1451.75,217.942,1461.5541,218.8801,1456.4917,216.3557,1459.016,211.2933,1451.75,217.942" style="stroke: #A80036; stroke-width: 1.0;"/><text fill="#000000" font-family="sans-serif" font-size="13" lengthAdjust="spacingAndGlyphs" textLength="107" x="1649" y="153.0669">ProductCategory</text><text fill="#000000" font-family="sans-serif" font-size="13" lengthAdjust="spacingAndGlyphs" textLength="7" x="1453.7188" y="206.9703">*</text><!--link Product to LineItem--><path d="M2229.61,75 C1975.02,75 1228.41,75 1060.01,75 " fill="none" id="Product-LineItem" style="stroke: #A80036; stroke-width: 1.0;"/><polygon fill="#A80036" points="1054.73,75,1063.73,79,1059.73,75,1063.73,71,1054.73,75" style="stroke: #A80036; stroke-width: 1.0;"/><text fill="#000000" font-family="sans-serif" font-size="13" lengthAdjust="spacingAndGlyphs" textLength="55" x="1613.75" y="67.0669">LineItem</text><text fill="#000000" font-family="sans-serif" font-size="13" lengthAdjust="spacingAndGlyphs" textLength="24" x="1063.5303" y="69.2255">0..1</text><!--link Product to ProductIdentification--><path d="M2229.47,81.522 C2174.78,88.555 2104.51,104.406 2052,140 C1970.74,195.077 1999.73,257.542 1924,320 C1899.14,340.501 1886.01,334.068 1858,350 C1825.53,368.472 1820.89,378.543 1789,398 C1767.95,410.84 1762.62,414.202 1740,424 C1607.08,481.569 1442.79,532.022 1365.75,554.529 " fill="none" id="Product-ProductIdentification" style="stroke: #A80036; stroke-width: 1.0;"/><polygon fill="#A80036" points="1360.81,555.971,1370.5699,557.2918,1365.6101,554.5714,1368.3305,549.6116,1360.81,555.971" style="stroke: #A80036; stroke-width: 1.0;"/><text fill="#000000" font-family="sans-serif" font-size="13" lengthAdjust="spacingAndGlyphs" textLength="130" x="1859" y="366.0669">ProductIdentification</text><text fill="#000000" font-family="sans-serif" font-size="13" lengthAdjust="spacingAndGlyphs" textLength="7" x="1364.6041" y="545.0092">*</text><!--link Product to Country--><path d="M2229.69,77.462 C2144.81,81.617 2012.35,95.513 1907,140 C1874.24,153.831 1866.04,160.918 1843,188 C1815.69,220.101 1830.23,243.695 1799,272 C1729.1,335.364 1449.82,425.554 1354.26,455.167 " fill="none" id="Product-Country" style="stroke: #A80036; stroke-width: 1.0;"/><polygon fill="#A80036" points="1349.31,456.697,1359.0887,457.8705,1354.0885,455.2252,1356.7338,450.2249,1349.31,456.697" style="stroke: #A80036; stroke-width: 1.0;"/><text fill="#000000" font-family="sans-serif" font-size="13" lengthAdjust="spacingAndGlyphs" textLength="37" x="1753" y="315.0669">Origin</text><text fill="#000000" font-family="sans-serif" font-size="13" lengthAdjust="spacingAndGlyphs" textLength="8" x="1356.9418" y="448.4444">1</text><!--link Product to ProductCharacteristics--><path d="M2229.7,80.075 C2079.86,87.107 1759.59,101.575 1489,110 C1449.54,111.229 95.6211,111.79 68,140 C-71.3055,282.278 762.847,341.708 1028.61,356.879 " fill="none" id="Product-ProductCharacteristics" style="stroke: #A80036; stroke-width: 1.0;"/><polygon fill="#A80036" points="1033.64,357.165,1024.8705,352.6822,1028.6474,356.8935,1024.4361,360.6704,1033.64,357.165" style="stroke: #A80036; stroke-width: 1.0;"/><text fill="#000000" font-family="sans-serif" font-size="13" lengthAdjust="spacingAndGlyphs" textLength="95" x="250" y="234.0669">Characteristics</text><text fill="#000000" font-family="sans-serif" font-size="13" lengthAdjust="spacingAndGlyphs" textLength="7" x="1018.8415" y="352.093">*</text><!--link Product to ProductQuantity--><path d="M2229.53,78.537 C2056.92,84.409 1672.51,101.482 1547,140 C1531.4,144.787 1530.36,152.504 1515,158 C1442.76,183.841 1419.72,170.597 1345,188 C1310.15,196.118 1271.12,207.661 1242.98,216.432 " fill="none" id="Product-ProductQuantity" style="stroke: #A80036; stroke-width: 1.0;"/><polygon fill="#A80036" points="1238.2,217.925,1247.9853,219.0418,1242.9699,216.4255,1245.5861,211.41,1238.2,217.925" style="stroke: #A80036; stroke-width: 1.0;"/><text fill="#000000" font-family="sans-serif" font-size="13" lengthAdjust="spacingAndGlyphs" textLength="54" x="1548" y="153.0669">Quantity</text><text fill="#000000" font-family="sans-serif" font-size="13" lengthAdjust="spacingAndGlyphs" textLength="7" x="1240.3234" y="206.9474">*</text><!--link Product to ProductDelivery--><path d="M2270.85,110.041 C2248.64,130.03 2223.95,157.358 2212,188 C2198.44,222.783 2210.65,234.691 2212,272 C2215.11,357.947 2226,378.997 2226,465 C2226,465 2226,465 2226,655 C2226,730.3921 1660.23,738.4121 1477.31,739.0349 " fill="none" id="Product-ProductDelivery" style="stroke: #A80036; stroke-width: 1.0;"/><polygon fill="#A80036" points="1472.27,739.0505,1481.2814,743.0248,1477.27,739.0362,1481.2585,735.0248,1472.27,739.0505" style="stroke: #A80036; stroke-width: 1.0;"/><text fill="#000000" font-family="sans-serif" font-size="13" lengthAdjust="spacingAndGlyphs" textLength="51" x="2227" y="470.0669">Delivery</text><text fill="#000000" font-family="sans-serif" font-size="13" lengthAdjust="spacingAndGlyphs" textLength="8" x="1480.6949" y="733.683">1</text><!--link Product to PurchaseOrder--><path d="M2229.56,92.554 C2200.76,102.048 2170.71,116.886 2150,140 C2046.27,255.789 2163.45,361.961 2060,478 C1981.64,565.902 1619.09,625.389 1478.72,645.485 " fill="none" id="Product-PurchaseOrder" style="stroke: #A80036; stroke-width: 1.0;"/><polygon fill="#A80036" points="1473.41,646.24,1482.8814,648.9404,1478.3607,645.5399,1481.7613,641.0192,1473.41,646.24" style="stroke: #A80036; stroke-width: 1.0;"/><text fill="#000000" font-family="sans-serif" font-size="13" lengthAdjust="spacingAndGlyphs" textLength="95" x="2101" y="419.0669">PurchaseOrder</text><text fill="#000000" font-family="sans-serif" font-size="13" lengthAdjust="spacingAndGlyphs" textLength="7" x="1480.9911" y="640.0319">*</text><!--link Product to Tax--><path d="M2229.73,82.083 C2181.05,89.426 2121.45,105.406 2079,140 C2044.64,168 2034,184.676 2034,229 C2034,229 2034,229 2034,467 C2034,527.007 1557.27,559.711 1457.26,565.911 " fill="none" id="Product-Tax" style="stroke: #A80036; stroke-width: 1.0;"/><polygon fill="#A80036" points="1452.26,566.218,1461.4936,569.6444,1457.2501,565.9037,1460.9908,561.6602,1452.26,566.218" style="stroke: #A80036; stroke-width: 1.0;"/><text fill="#000000" font-family="sans-serif" font-size="13" lengthAdjust="spacingAndGlyphs" textLength="22" x="2035" y="366.0669">Tax</text><text fill="#000000" font-family="sans-serif" font-size="13" lengthAdjust="spacingAndGlyphs" textLength="7" x="1460.7214" y="557.0574">*</text><!--link LineItem to ProductQuantity--><path d="M1032.04,87.184 C1041.58,104.077 1061.48,136.418 1085,158 C1112.03,182.808 1149.09,203.255 1174.63,215.734 " fill="none" id="LineItem-ProductQuantity" style="stroke: #A80036; stroke-width: 1.0;"/><polygon fill="#A80036" points="1179.26,217.971,1172.8908,210.4588,1174.7563,215.7992,1169.4159,217.6647,1179.26,217.971" style="stroke: #A80036; stroke-width: 1.0;"/><text fill="#000000" font-family="sans-serif" font-size="13" lengthAdjust="spacingAndGlyphs" textLength="66" x="1086" y="153.0669">NetWeight</text><text fill="#000000" font-family="sans-serif" font-size="13" lengthAdjust="spacingAndGlyphs" textLength="8" x="1159.9509" y="207.0092">1</text><!--link LineItem to ProductQuantity--><path d="M1054.64,83.988 C1083.72,93.333 1128.55,111.29 1158,140 C1179.18,160.641 1192.51,193.12 1199.08,212.609 " fill="none" id="LineItem-ProductQuantity" style="stroke: #A80036; stroke-width: 1.0;"/><polygon fill="#A80036" points="1200.76,217.741,1201.7724,207.9443,1199.2097,212.9874,1194.1666,210.4247,1200.76,217.741" style="stroke: #A80036; stroke-width: 1.0;"/><text fill="#000000" font-family="sans-serif" font-size="13" lengthAdjust="spacingAndGlyphs" textLength="88" x="1173" y="153.0669">BilledQuantity</text><text fill="#000000" font-family="sans-serif" font-size="13" lengthAdjust="spacingAndGlyphs" textLength="7" x="1190.1133" y="206.9586">*</text><!--link LineItem to ProductQuantity--><path d="M1054.82,79.17 C1113.72,86.304 1244.53,105.729 1271,140 C1291.34,166.335 1254.08,197.47 1227.45,215.06 " fill="none" id="LineItem-ProductQuantity" style="stroke: #A80036; stroke-width: 1.0;"/><polygon fill="#A80036" points="1222.95,217.973,1232.6795,216.4445,1227.1485,215.2578,1228.3352,209.7268,1222.95,217.973" style="stroke: #A80036; stroke-width: 1.0;"/><text fill="#000000" font-family="sans-serif" font-size="13" lengthAdjust="spacingAndGlyphs" textLength="128" x="1278" y="153.0669">ChargeFreeQuantity</text><text fill="#000000" font-family="sans-serif" font-size="13" lengthAdjust="spacingAndGlyphs" textLength="7" x="1219.8313" y="207.0119">*</text><!--link LineItem to ProductQuantity--><path d="M997.324,75.674 C845.931,74.245 144.139,71.375 80,140 C74.5374,145.845 74.4251,152.262 80,158 C120.396,199.575 1066.81,173.733 1123,188 C1144.78,193.531 1167.43,205.621 1183.22,215.247 " fill="none" id="LineItem-ProductQuantity" style="stroke: #A80036; stroke-width: 1.0;"/><polygon fill="#A80036" points="1187.49,217.889,1181.9595,209.7395,1183.244,215.2486,1177.7349,216.5331,1187.49,217.889" style="stroke: #A80036; stroke-width: 1.0;"/><text fill="#000000" font-family="sans-serif" font-size="13" lengthAdjust="spacingAndGlyphs" textLength="244" x="81" y="153.0669">MeasureQuantityStartRelatedLineItem</text><text fill="#000000" font-family="sans-serif" font-size="13" lengthAdjust="spacingAndGlyphs" textLength="8" x="1171.01" y="206.8991">1</text><!--link LineItem to ProductQuantity--><path d="M997.307,76.569 C876.059,79.262 409.972,92.653 367,140 C361.623,145.924 361.456,152.232 367,158 C396.127,188.305 1082.32,177.433 1123,188 C1144.75,193.65 1167.4,205.726 1183.2,215.317 " fill="none" id="LineItem-ProductQuantity" style="stroke: #A80036; stroke-width: 1.0;"/><polygon fill="#A80036" points="1187.47,217.949,1181.8951,209.8299,1183.2096,215.3319,1177.7077,216.6464,1187.47,217.949" style="stroke: #A80036; stroke-width: 1.0;"/><text fill="#000000" font-family="sans-serif" font-size="13" lengthAdjust="spacingAndGlyphs" textLength="236" x="368" y="153.0669">MeasureQuantityEndRelatedLineItem</text><text fill="#000000" font-family="sans-serif" font-size="13" lengthAdjust="spacingAndGlyphs" textLength="8" x="1183.0769" y="206.9797">1</text><!--link LineItem to ProductQuantity--><path d="M997.413,77.489 C900.934,83.019 596.103,104.866 646,158 C682.353,196.711 1071.76,174.056 1123,188 C1144.55,193.864 1167.05,205.795 1182.86,215.282 " fill="none" id="LineItem-ProductQuantity" style="stroke: #A80036; stroke-width: 1.0;"/><polygon fill="#A80036" points="1187.13,217.886,1181.5232,209.7889,1182.8594,215.2856,1177.3626,216.6218,1187.13,217.886" style="stroke: #A80036; stroke-width: 1.0;"/><text fill="#000000" font-family="sans-serif" font-size="13" lengthAdjust="spacingAndGlyphs" textLength="122" x="647" y="153.0669">GrossPriceQuantity</text><text fill="#000000" font-family="sans-serif" font-size="13" lengthAdjust="spacingAndGlyphs" textLength="7" x="1171.6981" y="206.895">*</text><!--link LineItem to ProductQuantity--><path d="M997.244,77.249 C926.928,81.265 755.932,97.383 811,158 C857.836,209.555 1056.1,168.603 1123,188 C1144.13,194.126 1166.29,205.758 1182.08,215.072 " fill="none" id="LineItem-ProductQuantity" style="stroke: #A80036; stroke-width: 1.0;"/><polygon fill="#A80036" points="1186.77,217.879,1181.107,209.8211,1182.4814,215.3084,1176.9941,216.6828,1186.77,217.879" style="stroke: #A80036; stroke-width: 1.0;"/><text fill="#000000" font-family="sans-serif" font-size="13" lengthAdjust="spacingAndGlyphs" textLength="108" x="812" y="153.0669">NetPriceQuantity</text><text fill="#000000" font-family="sans-serif" font-size="13" lengthAdjust="spacingAndGlyphs" textLength="7" x="1135.909" y="221.0949">*</text><!--link LineItem to ProductQuantity--><path d="M1011.44,87.057 C991.516,103.507 960.263,134.957 979,158 C1020.24,208.722 1061.3,166.385 1123,188 C1143.36,195.131 1165.09,206.354 1180.92,215.256 " fill="none" id="LineItem-ProductQuantity" style="stroke: #A80036; stroke-width: 1.0;"/><polygon fill="#A80036" points="1185.63,217.937,1179.7841,210.0108,1181.2837,215.4652,1175.8292,216.9649,1185.63,217.937" style="stroke: #A80036; stroke-width: 1.0;"/><text fill="#000000" font-family="sans-serif" font-size="13" lengthAdjust="spacingAndGlyphs" textLength="80" x="980" y="153.0669">GrossWeight</text><text fill="#000000" font-family="sans-serif" font-size="13" lengthAdjust="spacingAndGlyphs" textLength="7" x="1180.4325" y="206.9636">*</text><!--link Country to Tax--><path d="M1334.97,478.084 C1356.23,496.255 1398.48,532.371 1422.07,552.534 " fill="none" id="Country-Tax" style="stroke: #A80036; stroke-width: 1.0;"/><polygon fill="#A80036" points="1425.97,555.867,1421.7206,546.9821,1422.1667,552.6213,1416.5274,553.0674,1425.97,555.867" style="stroke: #A80036; stroke-width: 1.0;"/><text fill="#000000" font-family="sans-serif" font-size="13" lengthAdjust="spacingAndGlyphs" textLength="22" x="1392" y="521.0669">Tax</text><text fill="#000000" font-family="sans-serif" font-size="13" lengthAdjust="spacingAndGlyphs" textLength="8" x="1410.6863" y="544.8695">1</text></g></svg>