<?xml version="1.0" encoding="UTF-8" standalone="no"?><svg xmlns="http://www.w3.org/2000/svg" xmlns:xlink="http://www.w3.org/1999/xlink" contentScriptType="application/ecmascript" contentStyleType="text/css" height="484px" preserveAspectRatio="none" style="width:2750px;height:484px;" version="1.1" viewBox="0 0 2750 484" width="2750px" zoomAndPan="magnify"><defs><filter height="300%" id="f1839cmkoedon4" width="300%" x="-1" y="-1"><feGaussianBlur result="blurOut" stdDeviation="2.0"/><feColorMatrix in="blurOut" result="blurOut2" type="matrix" values="0 0 0 0 0 0 0 0 0 0 0 0 0 0 0 0 0 0 .4 0"/><feOffset dx="4.0" dy="4.0" in="blurOut2" result="blurOut3"/><feBlend in="SourceGraphic" in2="blurOut3" mode="normal"/></filter></defs><g><!--cluster ##9963--><!--cluster ##9996--><!--cluster ##10005--><!--class Role--><a target="_top" xlink:actuate="onRequest" xlink:href="../Role.html" xlink:show="new" xlink:title="Role of a party in an activity." xlink:type="simple"><rect fill="#FEFEEE" filter="url(#f1839cmkoedon4)" height="44.7734" id="Role" style="stroke: #A80036; stroke-width: 1.5;" width="175" x="1626.75" y="40.5"/><rect fill="#FEFEEE" height="23.9688" style="stroke: #A80036; stroke-width: 1.5;" width="175" x="1626.75" y="40.5"/><text fill="#000000" font-family="sans-serif" font-size="12" lengthAdjust="spacingAndGlyphs" textLength="27" x="1700.75" y="56.6387">Role</text><line style="stroke: #A80036; stroke-width: 1.5;" x1="1627.75" x2="1800.75" y1="64.4688" y2="64.4688"/><ellipse cx="1637.75" cy="76.3711" fill="#84BE84" rx="3" ry="3" style="stroke: #038048; stroke-width: 1.0;"/><text fill="#000000" font-family="sans-serif" font-size="11" lengthAdjust="spacingAndGlyphs" textLength="53" x="1646.75" y="78.6792">PartyRole</text><text fill="#000000" font-family="sans-serif" font-size="11" font-style="italic" lengthAdjust="spacingAndGlyphs" textLength="92" x="1703.75" y="78.6792">(PartyRoleCode)</text></a><!--class SettlementPartyRole--><a target="_top" xlink:actuate="onRequest" xlink:href="../SettlementPartyRole.html" xlink:show="new" xlink:title="Role played by a party in a settlement process." xlink:type="simple"><rect fill="#FEFECE" filter="url(#f1839cmkoedon4)" height="23.9688" id="SettlementPartyRole" style="stroke: #A80036; stroke-width: 1.5;" width="134" x="1227" y="166"/><rect fill="#FEFECE" height="23.9688" style="stroke: #A80036; stroke-width: 1.5;" width="134" x="1227" y="166"/><text fill="#000000" font-family="sans-serif" font-size="12" lengthAdjust="spacingAndGlyphs" textLength="128" x="1230" y="182.1387">SettlementPartyRole</text></a><!--class SecuritiesSettlementPartyRole--><a target="_top" xlink:actuate="onRequest" xlink:href="../SecuritiesSettlementPartyRole.html" xlink:show="new" xlink:title="Role played by a party in the context of the settlement of securities." xlink:type="simple"><rect fill="#FEFEEE" filter="url(#f1839cmkoedon4)" height="23.9688" id="SecuritiesSettlementPartyRole" style="stroke: #A80036; stroke-width: 1.5;" width="196" x="38.5" y="270"/><rect fill="#FEFEEE" height="23.9688" style="stroke: #A80036; stroke-width: 1.5;" width="196" x="38.5" y="270"/><text fill="#000000" font-family="sans-serif" font-size="12" lengthAdjust="spacingAndGlyphs" textLength="190" x="41.5" y="286.1387">SecuritiesSettlementPartyRole</text></a><!--class CashSettlementInstructionPartyRole--><a target="_top" xlink:actuate="onRequest" xlink:href="../CashSettlementInstructionPartyRole.html" xlink:show="new" xlink:title="Role played by a party in cash settlement." xlink:type="simple"><rect fill="#FEFEEE" filter="url(#f1839cmkoedon4)" height="23.9688" id="CashSettlementInstructionPartyRole" style="stroke: #A80036; stroke-width: 1.5;" width="232" x="269.5" y="270"/><rect fill="#FEFEEE" height="23.9688" style="stroke: #A80036; stroke-width: 1.5;" width="232" x="269.5" y="270"/><text fill="#000000" font-family="sans-serif" font-size="12" lengthAdjust="spacingAndGlyphs" textLength="226" x="272.5" y="286.1387">CashSettlementInstructionPartyRole</text></a><!--class TreasurySettlementPartyRole--><a target="_top" xlink:actuate="onRequest" xlink:href="../TreasurySettlementPartyRole.html" xlink:show="new" xlink:title="Role played by a party in the context of the settlement of a treasury trade." xlink:type="simple"><rect fill="#FEFEEE" filter="url(#f1839cmkoedon4)" height="23.9688" id="TreasurySettlementPartyRole" style="stroke: #A80036; stroke-width: 1.5;" width="188" x="536" y="270"/><rect fill="#FEFEEE" height="23.9688" style="stroke: #A80036; stroke-width: 1.5;" width="188" x="536" y="270"/><text fill="#000000" font-family="sans-serif" font-size="12" lengthAdjust="spacingAndGlyphs" textLength="182" x="539" y="286.1387">TreasurySettlementPartyRole</text></a><!--class SSIDatabaseProvider--><a target="_top" xlink:actuate="onRequest" xlink:href="../SSIDatabaseProvider.html" xlink:show="new" xlink:title="Provider of a standing settlement instruction (SSI) database." xlink:type="simple"><rect fill="#FEFEEE" filter="url(#f1839cmkoedon4)" height="23.9688" id="SSIDatabaseProvider" style="stroke: #A80036; stroke-width: 1.5;" width="137" x="759.75" y="270"/><rect fill="#FEFEEE" height="23.9688" style="stroke: #A80036; stroke-width: 1.5;" width="137" x="759.75" y="270"/><text fill="#000000" font-family="sans-serif" font-size="12" lengthAdjust="spacingAndGlyphs" textLength="131" x="762.75" y="286.1387">SSIDatabaseProvider</text></a><!--class CentralClearingCounterpartyRole--><a target="_top" xlink:actuate="onRequest" xlink:href="../CentralClearingCounterpartyRole.html" xlink:show="new" xlink:title="Infrastructure that may be a component of a clearing house and which facilitates clearing and settlement for its members by standing between the buyer and the seller. It may net transactions and it substitutes itself as settlement counterparty for each position." xlink:type="simple"><rect fill="#FEFEEE" filter="url(#f1839cmkoedon4)" height="23.9688" id="CentralClearingCounterpartyRole" style="stroke: #A80036; stroke-width: 1.5;" width="211" x="931.75" y="270"/><rect fill="#FEFEEE" height="23.9688" style="stroke: #A80036; stroke-width: 1.5;" width="211" x="931.75" y="270"/><text fill="#000000" font-family="sans-serif" font-size="12" lengthAdjust="spacingAndGlyphs" textLength="205" x="934.75" y="286.1387">CentralClearingCounterpartyRole</text></a><!--class ClearingPlace--><a target="_top" xlink:actuate="onRequest" xlink:href="../ClearingPlace.html" xlink:show="new" xlink:title="Infrastructure that may be a component of a clearing house and which facilitates clearing and settlement for its members by standing between the buyer and the seller. It may net transactions and it substitutes itself as settlement counterparty for each position." xlink:type="simple"><rect fill="#FEFEEE" filter="url(#f1839cmkoedon4)" height="23.9688" id="ClearingPlace" style="stroke: #A80036; stroke-width: 1.5;" width="91" x="1177.75" y="270"/><rect fill="#FEFEEE" height="23.9688" style="stroke: #A80036; stroke-width: 1.5;" width="91" x="1177.75" y="270"/><text fill="#000000" font-family="sans-serif" font-size="12" lengthAdjust="spacingAndGlyphs" textLength="85" x="1180.75" y="286.1387">ClearingPlace</text></a><!--class ContraClearingFirm--><a target="_top" xlink:actuate="onRequest" xlink:href="../ContraClearingFirm.html" xlink:show="new" xlink:title="Party that is the clearing firm of the counterparty in a trade." xlink:type="simple"><rect fill="#FEFEEE" filter="url(#f1839cmkoedon4)" height="23.9688" id="ContraClearingFirm" style="stroke: #A80036; stroke-width: 1.5;" width="125" x="1303.75" y="270"/><rect fill="#FEFEEE" height="23.9688" style="stroke: #A80036; stroke-width: 1.5;" width="125" x="1303.75" y="270"/><text fill="#000000" font-family="sans-serif" font-size="12" lengthAdjust="spacingAndGlyphs" textLength="119" x="1306.75" y="286.1387">ContraClearingFirm</text></a><!--class CorrespondentClearingFirm--><a target="_top" xlink:actuate="onRequest" xlink:href="../CorrespondentClearingFirm.html" xlink:show="new" xlink:title="Firm that is going to carry the position on their books at another clearinghouse (exchanges)." xlink:type="simple"><rect fill="#FEFEEE" filter="url(#f1839cmkoedon4)" height="23.9688" id="CorrespondentClearingFirm" style="stroke: #A80036; stroke-width: 1.5;" width="177" x="1463.75" y="270"/><rect fill="#FEFEEE" height="23.9688" style="stroke: #A80036; stroke-width: 1.5;" width="177" x="1463.75" y="270"/><text fill="#000000" font-family="sans-serif" font-size="12" lengthAdjust="spacingAndGlyphs" textLength="171" x="1466.75" y="286.1387">CorrespondentClearingFirm</text></a><!--class GiveUpClearingFirm--><a target="_top" xlink:actuate="onRequest" xlink:href="../GiveUpClearingFirm.html" xlink:show="new" xlink:title="Firm to which the trade is given up (carries the position that results from a trade)." xlink:type="simple"><rect fill="#FEFEEE" filter="url(#f1839cmkoedon4)" height="23.9688" id="GiveUpClearingFirm" style="stroke: #A80036; stroke-width: 1.5;" width="126" x="1676" y="270"/><rect fill="#FEFEEE" height="23.9688" style="stroke: #A80036; stroke-width: 1.5;" width="126" x="1676" y="270"/><text fill="#000000" font-family="sans-serif" font-size="12" lengthAdjust="spacingAndGlyphs" textLength="120" x="1679" y="286.1387">GiveUpClearingFirm</text></a><!--class RolePlayer--><a target="_top" xlink:actuate="onRequest" xlink:href="../RolePlayer.html" xlink:show="new" xlink:title="Type of entity that plays a specific role in a specific context." xlink:type="simple"><rect fill="#EEEEEE" filter="url(#f1839cmkoedon4)" height="23.9688" id="RolePlayer" style="stroke: #A80036; stroke-width: 1.5;" width="71" x="2325.75" y="450"/><rect fill="#EEEEEE" height="23.9688" style="stroke: #A80036; stroke-width: 1.5;" width="71" x="2325.75" y="450"/><text fill="#000000" font-family="sans-serif" font-size="12" lengthAdjust="spacingAndGlyphs" textLength="65" x="2328.75" y="466.1387">RolePlayer</text></a><!--class ContactPersonRole--><a target="_top" xlink:actuate="onRequest" xlink:href="../ContactPersonRole.html" xlink:show="new" xlink:title="Person to be contacted in a given organisation. In the corporate action domain (including meeting notifications) , it is the contact person at the party organising the meeting, at the issuer or at an intermediary." xlink:type="simple"><rect fill="#EEEEEE" filter="url(#f1839cmkoedon4)" height="23.9688" id="ContactPersonRole" style="stroke: #A80036; stroke-width: 1.5;" width="126" x="2278" y="360"/><rect fill="#EEEEEE" height="23.9688" style="stroke: #A80036; stroke-width: 1.5;" width="126" x="2278" y="360"/><text fill="#000000" font-family="sans-serif" font-size="12" lengthAdjust="spacingAndGlyphs" textLength="120" x="2281" y="376.1387">ContactPersonRole</text></a><!--class CounterpartyRisk--><a target="_top" xlink:actuate="onRequest" xlink:href="../CounterpartyRisk.html" xlink:show="new" xlink:title="Calculation of the exposure amount that one party has vis-a-vis one counterparty or a central system, based on its credit risk." xlink:type="simple"><rect fill="#EEEEEE" filter="url(#f1839cmkoedon4)" height="23.9688" id="CounterpartyRisk" style="stroke: #A80036; stroke-width: 1.5;" width="113" x="2290.75" y="270"/><rect fill="#EEEEEE" height="23.9688" style="stroke: #A80036; stroke-width: 1.5;" width="113" x="2290.75" y="270"/><text fill="#000000" font-family="sans-serif" font-size="12" lengthAdjust="spacingAndGlyphs" textLength="107" x="2293.75" y="286.1387">CounterpartyRisk</text></a><!--class Entry--><a target="_top" xlink:actuate="onRequest" xlink:href="../Entry.html" xlink:show="new" xlink:title="Posting to an account that results in an increase or decrease to a balance." xlink:type="simple"><rect fill="#EEEEEE" filter="url(#f1839cmkoedon4)" height="23.9688" id="Entry" style="stroke: #A80036; stroke-width: 1.5;" width="38" x="2278" y="166"/><rect fill="#EEEEEE" height="23.9688" style="stroke: #A80036; stroke-width: 1.5;" width="38" x="2278" y="166"/><text fill="#000000" font-family="sans-serif" font-size="12" lengthAdjust="spacingAndGlyphs" textLength="32" x="2281" y="182.1387">Entry</text></a><!--class Account--><a target="_top" xlink:actuate="onRequest" xlink:href="../Account.html" xlink:show="new" xlink:title="Record of transactions in specific types of assets, maintained by a servicing party on behalf of one or more owning parties. Business relationship between an account servicer and one or more account owners." xlink:type="simple"><rect fill="#EEEEEE" filter="url(#f1839cmkoedon4)" height="23.9688" id="Account" style="stroke: #A80036; stroke-width: 1.5;" width="57" x="1858.75" y="360"/><rect fill="#EEEEEE" height="23.9688" style="stroke: #A80036; stroke-width: 1.5;" width="57" x="1858.75" y="360"/><text fill="#000000" font-family="sans-serif" font-size="12" lengthAdjust="spacingAndGlyphs" textLength="51" x="1861.75" y="376.1387">Account</text></a><!--class Settlement--><a target="_top" xlink:actuate="onRequest" xlink:href="../Settlement.html" xlink:show="new" xlink:title="Process which consists in transferring the proceeds related to a trade from one party to the next one." xlink:type="simple"><rect fill="#EEEEEE" filter="url(#f1839cmkoedon4)" height="23.9688" id="Settlement" style="stroke: #A80036; stroke-width: 1.5;" width="75" x="1857.75" y="270"/><rect fill="#EEEEEE" height="23.9688" style="stroke: #A80036; stroke-width: 1.5;" width="75" x="1857.75" y="270"/><text fill="#000000" font-family="sans-serif" font-size="12" lengthAdjust="spacingAndGlyphs" textLength="69" x="1860.75" y="286.1387">Settlement</text></a><!--link Role to SettlementPartyRole--><path d="M1614.49,90.773 C1525.45,114.728 1399.37,148.651 1335.11,165.939 " fill="none" id="Role-SettlementPartyRole" style="stroke: #A80036; stroke-width: 1.0;"/><polygon fill="none" points="1612.88,83.957,1634.01,85.52,1616.52,97.476,1612.88,83.957" style="stroke: #A80036; stroke-width: 1.0;"/><!--link SettlementPartyRole to SecuritiesSettlementPartyRole--><path d="M1206.62,181.829 C990.145,189.284 433.303,211.316 251,246 C221.478,251.617 188.781,261.989 165.823,269.989 " fill="none" id="SettlementPartyRole-SecuritiesSettlementPartyRole" style="stroke: #A80036; stroke-width: 1.0;"/><polygon fill="none" points="1206.56,174.827,1226.79,181.142,1207.04,188.819,1206.56,174.827" style="stroke: #A80036; stroke-width: 1.0;"/><!--link SettlementPartyRole to CashSettlementInstructionPartyRole--><path d="M1206.59,181.304 C1062.18,186.278 765.182,201.453 518,246 C484.633,252.013 447.361,262.124 420.783,269.937 " fill="none" id="SettlementPartyRole-CashSettlementInstructionPartyRole" style="stroke: #A80036; stroke-width: 1.0;"/><polygon fill="none" points="1206.54,174.301,1226.76,180.641,1207,188.294,1206.54,174.301" style="stroke: #A80036; stroke-width: 1.0;"/><!--link SettlementPartyRole to TreasurySettlementPartyRole--><path d="M1206.47,184.366 C1096.87,192.284 903.826,210.2 742,246 C713.954,252.204 682.826,262.192 660.519,269.913 " fill="none" id="SettlementPartyRole-TreasurySettlementPartyRole" style="stroke: #A80036; stroke-width: 1.0;"/><polygon fill="none" points="1206.15,177.371,1226.59,182.957,1207.13,191.337,1206.15,177.371" style="stroke: #A80036; stroke-width: 1.0;"/><!--link SettlementPartyRole to SSIDatabaseProvider--><path d="M1206.89,189.016 C1129.09,199.217 1012.53,217.611 914,246 C892.16,252.292 868.289,262.271 851.25,269.966 " fill="none" id="SettlementPartyRole-SSIDatabaseProvider" style="stroke: #A80036; stroke-width: 1.0;"/><polygon fill="none" points="1206.06,182.066,1226.78,186.476,1207.83,195.953,1206.06,182.066" style="stroke: #A80036; stroke-width: 1.0;"/><!--link SettlementPartyRole to CentralClearingCounterpartyRole--><path d="M1247.33,197.523 C1194.09,218.652 1108.77,252.514 1064.96,269.904 " fill="none" id="SettlementPartyRole-CentralClearingCounterpartyRole" style="stroke: #A80036; stroke-width: 1.0;"/><polygon fill="none" points="1244.84,190.982,1266.01,190.11,1250,203.994,1244.84,190.982" style="stroke: #A80036; stroke-width: 1.0;"/><!--link SettlementPartyRole to ClearingPlace--><path d="M1274.7,206.723 C1260.22,227.534 1241.15,254.927 1230.69,269.954 " fill="none" id="SettlementPartyRole-ClearingPlace" style="stroke: #A80036; stroke-width: 1.0;"/><polygon fill="none" points="1268.96,202.721,1286.13,190.306,1280.45,210.719,1268.96,202.721" style="stroke: #A80036; stroke-width: 1.0;"/><!--link SettlementPartyRole to ContraClearingFirm--><path d="M1313.57,206.723 C1328.26,227.534 1347.6,254.927 1358.2,269.954 " fill="none" id="SettlementPartyRole-ContraClearingFirm" style="stroke: #A80036; stroke-width: 1.0;"/><polygon fill="none" points="1307.8,210.682,1301.98,190.306,1319.23,202.608,1307.8,210.682" style="stroke: #A80036; stroke-width: 1.0;"/><!--link SettlementPartyRole to CorrespondentClearingFirm--><path d="M1340.85,197.523 C1394.3,218.652 1479.95,252.514 1523.93,269.904 " fill="none" id="SettlementPartyRole-CorrespondentClearingFirm" style="stroke: #A80036; stroke-width: 1.0;"/><polygon fill="none" points="1338.13,203.973,1322.1,190.11,1343.27,190.953,1338.13,203.973" style="stroke: #A80036; stroke-width: 1.0;"/><!--link SettlementPartyRole to GiveUpClearingFirm--><path d="M1381.29,189.594 C1455.63,199.919 1564.75,218.171 1657,246 C1677.89,252.303 1700.65,262.28 1716.87,269.973 " fill="none" id="SettlementPartyRole-GiveUpClearingFirm" style="stroke: #A80036; stroke-width: 1.0;"/><polygon fill="none" points="1380.17,196.507,1361.29,186.891,1382.05,182.633,1380.17,196.507" style="stroke: #A80036; stroke-width: 1.0;"/><!--link ContactPersonRole to RolePlayer--><!--link CounterpartyRisk to ContactPersonRole--><!--link Entry to CounterpartyRisk--><!--link Settlement to Account--><!--link Role to RolePlayer--><path d="M1801.32,64.943 C2042.15,68.693 2698,87.153 2698,177 C2698,177 2698,177 2698,373 C2698,433.6217 2491.27,453.2654 2401.64,458.9332 " fill="none" id="Role-RolePlayer" style="stroke: #A80036; stroke-width: 1.0;"/><polygon fill="#A80036" points="2396.43,459.2555,2405.6636,462.6819,2401.4201,458.9412,2405.1608,454.6977,2396.43,459.2555" style="stroke: #A80036; stroke-width: 1.0;"/><text fill="#000000" font-family="sans-serif" font-size="13" lengthAdjust="spacingAndGlyphs" textLength="39" x="2699" y="286.0669">Player</text><text fill="#000000" font-family="sans-serif" font-size="13" lengthAdjust="spacingAndGlyphs" textLength="7" x="2404.8912" y="452.8806">*</text><!--link Role to ContactPersonRole--><path d="M1801.49,66.314 C1992.25,72.287 2432,91.45 2475,142 C2514.24,188.127 2454.27,277.891 2421,318 C2407.1,334.761 2386.54,348.223 2369.74,357.386 " fill="none" id="Role-ContactPersonRole" style="stroke: #A80036; stroke-width: 1.0;"/><polygon fill="#A80036" points="2365.11,359.855,2374.933,359.1415,2369.5199,357.4986,2371.1628,352.0856,2365.11,359.855" style="stroke: #A80036; stroke-width: 1.0;"/><text fill="#000000" font-family="sans-serif" font-size="13" lengthAdjust="spacingAndGlyphs" textLength="121" x="2480" y="233.0669">ContactPersonRole</text><text fill="#000000" font-family="sans-serif" font-size="13" lengthAdjust="spacingAndGlyphs" textLength="8" x="2362.6791" y="348.8534">1</text><!--link Role to CounterpartyRisk--><path d="M1801.38,69.049 C1963.22,79.252 2296.51,104.587 2333,142 C2365.2,175.018 2357.29,235.682 2351.09,264.7 " fill="none" id="Role-CounterpartyRisk" style="stroke: #A80036; stroke-width: 1.0;"/><polygon fill="#A80036" points="2349.96,269.737,2355.8331,261.8309,2351.0545,264.8583,2348.0271,260.0797,2349.96,269.737" style="stroke: #A80036; stroke-width: 1.0;"/><text fill="#000000" font-family="sans-serif" font-size="13" lengthAdjust="spacingAndGlyphs" textLength="109" x="2356" y="182.0669">CounterpartyRisk</text><text fill="#000000" font-family="sans-serif" font-size="13" lengthAdjust="spacingAndGlyphs" textLength="24" x="2321.5514" y="258.9533">0..1</text><!--link Role to Entry--><path d="M1801.28,80.917 C1937.42,107.305 2193,156.842 2272.66,172.282 " fill="none" id="Role-Entry" style="stroke: #A80036; stroke-width: 1.0;"/><polygon fill="#A80036" points="2277.65,173.249,2269.5661,167.6231,2272.7398,172.3058,2268.057,175.4795,2277.65,173.249" style="stroke: #A80036; stroke-width: 1.0;"/><text fill="#000000" font-family="sans-serif" font-size="13" lengthAdjust="spacingAndGlyphs" textLength="33" x="2076" y="129.0669">Entry</text><text fill="#000000" font-family="sans-serif" font-size="13" lengthAdjust="spacingAndGlyphs" textLength="8" x="2262.1059" y="165.7767">1</text><!--link SettlementPartyRole to Account--><path d="M1361.24,180.434 C1521.28,184.596 1914.14,199.497 1949,246 C1968.19,271.604 1962.39,288.936 1949,318 C1941.39,334.524 1925.8,347.811 1912.16,356.949 " fill="none" id="SettlementPartyRole-Account" style="stroke: #A80036; stroke-width: 1.0;"/><polygon fill="#A80036" points="1907.62,359.887,1917.3495,358.3585,1911.8185,357.1718,1913.0052,351.6408,1907.62,359.887" style="stroke: #A80036; stroke-width: 1.0;"/><text fill="#000000" font-family="sans-serif" font-size="13" lengthAdjust="spacingAndGlyphs" textLength="124" x="1963" y="286.0669">SettlementAccount</text><text fill="#000000" font-family="sans-serif" font-size="13" lengthAdjust="spacingAndGlyphs" textLength="8" x="1903.9034" y="348.8964">1</text><!--link SettlementPartyRole to Settlement--><path d="M1361.04,181.178 C1461.95,185.877 1658.1,200.557 1818,246 C1836.15,251.157 1855.47,259.954 1870.22,267.437 " fill="none" id="SettlementPartyRole-Settlement" style="stroke: #A80036; stroke-width: 1.0;"/><polygon fill="#A80036" points="1875.04,269.917,1868.8649,262.2444,1870.5933,267.6308,1865.207,269.3592,1875.04,269.917" style="stroke: #A80036; stroke-width: 1.0;"/><text fill="#000000" font-family="sans-serif" font-size="13" lengthAdjust="spacingAndGlyphs" textLength="72" x="1778" y="233.0669">Settlement</text><text fill="#000000" font-family="sans-serif" font-size="13" lengthAdjust="spacingAndGlyphs" textLength="8" x="1857.3741" y="258.9367">1</text><!--link Entry to Account--><path d="M2283.76,190.026 C2267.98,203.209 2240.89,226.003 2218,246 C2181.98,277.473 2180.64,296.317 2138,318 C2066.18,354.523 1970.52,365.894 1920.58,369.422 " fill="none" id="Entry-Account" style="stroke: #A80036; stroke-width: 1.0;"/><polygon fill="#A80036" points="1915.31,369.777,1924.5534,373.1768,1920.2992,369.4484,1924.0277,365.1941,1915.31,369.777" style="stroke: #A80036; stroke-width: 1.0;"/><text fill="#000000" font-family="sans-serif" font-size="13" lengthAdjust="spacingAndGlyphs" textLength="52" x="2219" y="286.0669">Account</text><text fill="#000000" font-family="sans-serif" font-size="13" lengthAdjust="spacingAndGlyphs" textLength="7" x="1923.7917" y="362.9841">*</text><!--link Account to Account--><path d="M1915.51,364.332 C1933.18,362.483 1950,365.039 1950,372 C1950,378.254 1936.42,380.952 1920.85,380.095 " fill="none" id="Account-Account" style="stroke: #A80036; stroke-width: 1.0;"/><polygon fill="#A80036" points="1915.51,379.668,1924.1612,384.3751,1920.494,380.068,1924.8011,376.4008,1915.51,379.668" style="stroke: #A80036; stroke-width: 1.0;"/><text fill="#000000" font-family="sans-serif" font-size="13" lengthAdjust="spacingAndGlyphs" textLength="94" x="1956" y="376.0669">ParentAccount</text><text fill="#000000" font-family="sans-serif" font-size="13" lengthAdjust="spacingAndGlyphs" textLength="8" x="1923.7766" y="395.6427">1</text></g></svg>