<?xml version="1.0" encoding="UTF-8" standalone="no"?><svg xmlns="http://www.w3.org/2000/svg" xmlns:xlink="http://www.w3.org/1999/xlink" contentScriptType="application/ecmascript" contentStyleType="text/css" height="550px" preserveAspectRatio="none" style="width:1341px;height:550px;" version="1.1" viewBox="0 0 1341 550" width="1341px" zoomAndPan="magnify"><defs><filter height="300%" id="f1a747rem27raj" width="300%" x="-1" y="-1"><feGaussianBlur result="blurOut" stdDeviation="2.0"/><feColorMatrix in="blurOut" result="blurOut2" type="matrix" values="0 0 0 0 0 0 0 0 0 0 0 0 0 0 0 0 0 0 .4 0"/><feOffset dx="4.0" dy="4.0" in="blurOut2" result="blurOut3"/><feBlend in="SourceGraphic" in2="blurOut3" mode="normal"/></filter></defs><g><!--cluster ##11928--><!--cluster ##11940--><!--cluster ##11949--><!--cluster ##11954--><!--class Role--><a target="_top" xlink:actuate="onRequest" xlink:href="../Role.html" xlink:show="new" xlink:title="Role of a party in an activity." xlink:type="simple"><rect fill="#FEFEEE" filter="url(#f1a747rem27raj)" height="44.7734" id="Role" style="stroke: #A80036; stroke-width: 1.5;" width="175" x="186.75" y="40.5"/><rect fill="#FEFEEE" height="23.9688" style="stroke: #A80036; stroke-width: 1.5;" width="175" x="186.75" y="40.5"/><text fill="#000000" font-family="sans-serif" font-size="12" lengthAdjust="spacingAndGlyphs" textLength="27" x="260.75" y="56.6387">Role</text><line style="stroke: #A80036; stroke-width: 1.5;" x1="187.75" x2="360.75" y1="64.4688" y2="64.4688"/><ellipse cx="197.75" cy="76.3711" fill="#84BE84" rx="3" ry="3" style="stroke: #038048; stroke-width: 1.0;"/><text fill="#000000" font-family="sans-serif" font-size="11" lengthAdjust="spacingAndGlyphs" textLength="53" x="206.75" y="78.6792">PartyRole</text><text fill="#000000" font-family="sans-serif" font-size="11" font-style="italic" lengthAdjust="spacingAndGlyphs" textLength="92" x="263.75" y="78.6792">(PartyRoleCode)</text></a><!--class TradePartyRole--><a target="_top" xlink:actuate="onRequest" xlink:href="../TradePartyRole.html" xlink:show="new" xlink:title="Trading party in a commercial, securities, treasury trade. This role may also represent parties which play different intermediary roles in a trade." xlink:type="simple"><rect fill="#FEFEEE" filter="url(#f1a747rem27raj)" height="57.5781" id="TradePartyRole" style="stroke: #A80036; stroke-width: 1.5;" width="279" x="82.75" y="164"/><rect fill="#FEFEEE" height="23.9688" style="stroke: #A80036; stroke-width: 1.5;" width="279" x="82.75" y="164"/><text fill="#000000" font-family="sans-serif" font-size="12" lengthAdjust="spacingAndGlyphs" textLength="95" x="174.75" y="180.1387">TradePartyRole</text><line style="stroke: #A80036; stroke-width: 1.5;" x1="83.75" x2="360.75" y1="187.9688" y2="187.9688"/><ellipse cx="93.75" cy="199.8711" fill="#84BE84" rx="3" ry="3" style="stroke: #038048; stroke-width: 1.0;"/><text fill="#000000" font-family="sans-serif" font-size="11" lengthAdjust="spacingAndGlyphs" textLength="120" x="102.75" y="202.1792">TradingPartyCapacity</text><text fill="#000000" font-family="sans-serif" font-size="11" font-style="italic" lengthAdjust="spacingAndGlyphs" textLength="129" x="226.75" y="202.1792">(TradingCapacityCode)</text><ellipse cx="93.75" cy="212.6758" fill="#84BE84" rx="3" ry="3" style="stroke: #038048; stroke-width: 1.0;"/><text fill="#000000" font-family="sans-serif" font-size="11" lengthAdjust="spacingAndGlyphs" textLength="80" x="102.75" y="214.9839">BuyerOrSeller</text><text fill="#000000" font-family="sans-serif" font-size="11" font-style="italic" lengthAdjust="spacingAndGlyphs" textLength="104" x="186.75" y="214.9839">(OptionPartyCode)</text></a><!--class Broker--><a target="_top" xlink:actuate="onRequest" xlink:href="../Broker.html" xlink:show="new" xlink:title="Party that identifies a broker when required (for example, authorised broker, prime broker, etc)." xlink:type="simple"><rect fill="#FEFEEE" filter="url(#f1a747rem27raj)" height="44.7734" id="Broker" style="stroke: #A80036; stroke-width: 1.5;" width="313" x="48.75" y="300.5"/><rect fill="#FEFEEE" height="23.9688" style="stroke: #A80036; stroke-width: 1.5;" width="313" x="48.75" y="300.5"/><text fill="#000000" font-family="sans-serif" font-size="12" lengthAdjust="spacingAndGlyphs" textLength="41" x="184.75" y="316.6387">Broker</text><line style="stroke: #A80036; stroke-width: 1.5;" x1="49.75" x2="360.75" y1="324.4688" y2="324.4688"/><ellipse cx="59.75" cy="336.3711" fill="#84BE84" rx="3" ry="3" style="stroke: #038048; stroke-width: 1.0;"/><text fill="#000000" font-family="sans-serif" font-size="11" lengthAdjust="spacingAndGlyphs" textLength="122" x="68.75" y="338.6792">RemunerationAmount</text><text fill="#000000" font-family="sans-serif" font-size="11" font-style="italic" lengthAdjust="spacingAndGlyphs" textLength="161" x="194.75" y="338.6792">(ActiveCurrencyAndAmount)</text></a><!--class StepOutBroker--><a target="_top" xlink:actuate="onRequest" xlink:href="../StepOutBroker.html" xlink:show="new" xlink:title="Brokerage firm that executes an order, but gives other firms credit and some of the commission for the trade." xlink:type="simple"><rect fill="#FEFECE" filter="url(#f1a747rem27raj)" height="23.9688" id="StepOutBroker" style="stroke: #A80036; stroke-width: 1.5;" width="98" x="156.5" y="426"/><rect fill="#FEFECE" height="23.9688" style="stroke: #A80036; stroke-width: 1.5;" width="98" x="156.5" y="426"/><text fill="#000000" font-family="sans-serif" font-size="12" lengthAdjust="spacingAndGlyphs" textLength="92" x="159.5" y="442.1387">StepOutBroker</text></a><!--class RolePlayer--><a target="_top" xlink:actuate="onRequest" xlink:href="../RolePlayer.html" xlink:show="new" xlink:title="Type of entity that plays a specific role in a specific context." xlink:type="simple"><rect fill="#EEEEEE" filter="url(#f1a747rem27raj)" height="23.9688" id="RolePlayer" style="stroke: #A80036; stroke-width: 1.5;" width="71" x="916.75" y="516"/><rect fill="#EEEEEE" height="23.9688" style="stroke: #A80036; stroke-width: 1.5;" width="71" x="916.75" y="516"/><text fill="#000000" font-family="sans-serif" font-size="12" lengthAdjust="spacingAndGlyphs" textLength="65" x="919.75" y="532.1387">RolePlayer</text></a><!--class ContactPersonRole--><a target="_top" xlink:actuate="onRequest" xlink:href="../ContactPersonRole.html" xlink:show="new" xlink:title="Person to be contacted in a given organisation. In the corporate action domain (including meeting notifications) , it is the contact person at the party organising the meeting, at the issuer or at an intermediary." xlink:type="simple"><rect fill="#EEEEEE" filter="url(#f1a747rem27raj)" height="23.9688" id="ContactPersonRole" style="stroke: #A80036; stroke-width: 1.5;" width="126" x="869" y="426"/><rect fill="#EEEEEE" height="23.9688" style="stroke: #A80036; stroke-width: 1.5;" width="126" x="869" y="426"/><text fill="#000000" font-family="sans-serif" font-size="12" lengthAdjust="spacingAndGlyphs" textLength="120" x="872" y="442.1387">ContactPersonRole</text></a><!--class CounterpartyRisk--><a target="_top" xlink:actuate="onRequest" xlink:href="../CounterpartyRisk.html" xlink:show="new" xlink:title="Calculation of the exposure amount that one party has vis-a-vis one counterparty or a central system, based on its credit risk." xlink:type="simple"><rect fill="#EEEEEE" filter="url(#f1a747rem27raj)" height="23.9688" id="CounterpartyRisk" style="stroke: #A80036; stroke-width: 1.5;" width="113" x="881.75" y="311"/><rect fill="#EEEEEE" height="23.9688" style="stroke: #A80036; stroke-width: 1.5;" width="113" x="881.75" y="311"/><text fill="#000000" font-family="sans-serif" font-size="12" lengthAdjust="spacingAndGlyphs" textLength="107" x="884.75" y="327.1387">CounterpartyRisk</text></a><!--class Entry--><a target="_top" xlink:actuate="onRequest" xlink:href="../Entry.html" xlink:show="new" xlink:title="Posting to an account that results in an increase or decrease to a balance." xlink:type="simple"><rect fill="#EEEEEE" filter="url(#f1a747rem27raj)" height="23.9688" id="Entry" style="stroke: #A80036; stroke-width: 1.5;" width="38" x="869" y="181"/><rect fill="#EEEEEE" height="23.9688" style="stroke: #A80036; stroke-width: 1.5;" width="38" x="869" y="181"/><text fill="#000000" font-family="sans-serif" font-size="12" lengthAdjust="spacingAndGlyphs" textLength="32" x="872" y="197.1387">Entry</text></a><!--class Account--><a target="_top" xlink:actuate="onRequest" xlink:href="../Account.html" xlink:show="new" xlink:title="Record of transactions in specific types of assets, maintained by a servicing party on behalf of one or more owning parties. Business relationship between an account servicer and one or more account owners." xlink:type="simple"><rect fill="#EEEEEE" filter="url(#f1a747rem27raj)" height="23.9688" id="Account" style="stroke: #A80036; stroke-width: 1.5;" width="57" x="554.75" y="426"/><rect fill="#EEEEEE" height="23.9688" style="stroke: #A80036; stroke-width: 1.5;" width="57" x="554.75" y="426"/><text fill="#000000" font-family="sans-serif" font-size="12" lengthAdjust="spacingAndGlyphs" textLength="51" x="557.75" y="442.1387">Account</text></a><!--class Trade--><a target="_top" xlink:actuate="onRequest" xlink:href="../Trade.html" xlink:show="new" xlink:title="Result of an order between at least two parties. A trade relates to the delivery of goods and services, cash or securities." xlink:type="simple"><rect fill="#EEEEEE" filter="url(#f1a747rem27raj)" height="23.9688" id="Trade" style="stroke: #A80036; stroke-width: 1.5;" width="42" x="554.5" y="311"/><rect fill="#EEEEEE" height="23.9688" style="stroke: #A80036; stroke-width: 1.5;" width="42" x="554.5" y="311"/><text fill="#000000" font-family="sans-serif" font-size="12" lengthAdjust="spacingAndGlyphs" textLength="36" x="557.5" y="327.1387">Trade</text></a><!--class Commission--><a target="_top" xlink:actuate="onRequest" xlink:href="../Commission.html" xlink:show="new" xlink:title="Amount of money due to a party as compensation for a service." xlink:type="simple"><rect fill="#EEEEEE" filter="url(#f1a747rem27raj)" height="23.9688" id="Commission" style="stroke: #A80036; stroke-width: 1.5;" width="80" x="418" y="426"/><rect fill="#EEEEEE" height="23.9688" style="stroke: #A80036; stroke-width: 1.5;" width="80" x="418" y="426"/><text fill="#000000" font-family="sans-serif" font-size="12" lengthAdjust="spacingAndGlyphs" textLength="74" x="421" y="442.1387">Commission</text></a><!--entity ##11957--><!--link Role to TradePartyRole--><path d="M257.621,104.318 C249.751,123.689 240.513,146.43 233.417,163.897 " fill="none" id="Role-TradePartyRole" style="stroke: #A80036; stroke-width: 1.0;"/><polygon fill="none" points="251.166,101.608,265.179,85.713,264.137,106.877,251.166,101.608" style="stroke: #A80036; stroke-width: 1.0;"/><!--link TradePartyRole to Broker--><path d="M215.602,242.171 C212.943,262.192 209.991,284.418 207.879,300.323 " fill="none" id="TradePartyRole-Broker" style="stroke: #A80036; stroke-width: 1.0;"/><polygon fill="none" points="208.697,240.994,218.269,222.09,222.575,242.838,208.697,240.994" style="stroke: #A80036; stroke-width: 1.0;"/><!--link Broker to StepOutBroker--><path d="M205,365.559 C205,387.159 205,411.898 205,425.865 " fill="none" id="Broker-StepOutBroker" style="stroke: #A80036; stroke-width: 1.0;"/><polygon fill="none" points="198,365.52,205,345.52,212,365.52,198,365.52" style="stroke: #A80036; stroke-width: 1.0;"/><!--link ContactPersonRole to RolePlayer--><!--link CounterpartyRisk to ContactPersonRole--><!--link Entry to CounterpartyRisk--><!--link Trade to Account--><!--link Role to RolePlayer--><path d="M361.417,65.904 C607.619,72.42 1289,98.865 1289,192 C1289,192 1289,192 1289,439 C1289,499.6217 1082.27,519.2654 992.642,524.9332 " fill="none" id="Role-RolePlayer" style="stroke: #A80036; stroke-width: 1.0;"/><polygon fill="#A80036" points="987.428,525.2555,996.6577,528.6924,992.4185,524.9469,996.164,520.7077,987.428,525.2555" style="stroke: #A80036; stroke-width: 1.0;"/><text fill="#000000" font-family="sans-serif" font-size="13" lengthAdjust="spacingAndGlyphs" textLength="39" x="1290" y="327.0669">Player</text><text fill="#000000" font-family="sans-serif" font-size="13" lengthAdjust="spacingAndGlyphs" textLength="7" x="995.8888" y="518.8806">*</text><!--link Role to ContactPersonRole--><path d="M361.331,67.387 C558.932,75.994 1026.59,102.027 1070,157 C1140.89,246.772 1001.077,378.848 949.814,422.447 " fill="none" id="Role-ContactPersonRole" style="stroke: #A80036; stroke-width: 1.0;"/><polygon fill="#A80036" points="945.707,425.911,955.1656,423.1661,949.5291,422.6874,950.0078,417.0508,945.707,425.911" style="stroke: #A80036; stroke-width: 1.0;"/><text fill="#000000" font-family="sans-serif" font-size="13" lengthAdjust="spacingAndGlyphs" textLength="121" x="1083" y="265.0669">ContactPersonRole</text><text fill="#000000" font-family="sans-serif" font-size="13" lengthAdjust="spacingAndGlyphs" textLength="8" x="939.7" y="414.9286">1</text><!--link Role to CounterpartyRisk--><path d="M361.5,63.588 C520.876,64.839 849.002,77.302 924,157 C962.712,198.138 950.246,273.329 942.358,306.065 " fill="none" id="Role-CounterpartyRisk" style="stroke: #A80036; stroke-width: 1.0;"/><polygon fill="#A80036" points="941.14,310.942,947.2018,303.1796,942.3517,306.091,939.4402,301.2409,941.14,310.942" style="stroke: #A80036; stroke-width: 1.0;"/><text fill="#000000" font-family="sans-serif" font-size="13" lengthAdjust="spacingAndGlyphs" textLength="109" x="951" y="197.0669">CounterpartyRisk</text><text fill="#000000" font-family="sans-serif" font-size="13" lengthAdjust="spacingAndGlyphs" textLength="24" x="912.6647" y="299.9703">0..1</text><!--link Role to Entry--><path d="M361.319,82.203 C504.19,111.987 780.359,169.56 863.645,186.923 " fill="none" id="Role-Entry" style="stroke: #A80036; stroke-width: 1.0;"/><polygon fill="#A80036" points="868.848,188.007,860.8534,182.2549,863.9532,186.9869,859.2212,190.0867,868.848,188.007" style="stroke: #A80036; stroke-width: 1.0;"/><text fill="#000000" font-family="sans-serif" font-size="13" lengthAdjust="spacingAndGlyphs" textLength="33" x="601" y="129.0669">Entry</text><text fill="#000000" font-family="sans-serif" font-size="13" lengthAdjust="spacingAndGlyphs" textLength="8" x="853.0552" y="180.3021">1</text><!--link TradePartyRole to Account--><path d="M361.496,208.836 C460.548,222.614 581.206,247.13 612,287 C643.241,327.449 611.022,391.99 593.175,421.438 " fill="none" id="TradePartyRole-Account" style="stroke: #A80036; stroke-width: 1.0;"/><polygon fill="#A80036" points="590.446,425.854,598.5795,420.3001,593.0741,421.6004,591.7738,416.0951,590.446,425.854" style="stroke: #A80036; stroke-width: 1.0;"/><text fill="#000000" font-family="sans-serif" font-size="13" lengthAdjust="spacingAndGlyphs" textLength="52" x="627" y="327.0669">Account</text><text fill="#000000" font-family="sans-serif" font-size="13" lengthAdjust="spacingAndGlyphs" textLength="7" x="583.3728" y="414.852">*</text><!--link TradePartyRole to Trade--><path d="M299.467,222.09 C378.898,250.892 497.892,294.04 549.552,312.772 " fill="none" id="TradePartyRole-Trade" style="stroke: #A80036; stroke-width: 1.0;"/><polygon fill="#A80036" points="554.338,314.508,547.2425,307.6776,549.6379,312.8023,544.5133,315.1977,554.338,314.508" style="stroke: #A80036; stroke-width: 1.0;"/><text fill="#000000" font-family="sans-serif" font-size="13" lengthAdjust="spacingAndGlyphs" textLength="36" x="432" y="265.0669">Trade</text><text fill="#000000" font-family="sans-serif" font-size="13" lengthAdjust="spacingAndGlyphs" textLength="7" x="539.4413" y="306.0303">*</text><!--link Broker to Commission--><path d="M250.602,345.566 C280.886,359.715 321.618,378.412 358,394 C366.8,397.77 369.169,398.303 378,402 C394.71,408.995 413.25,417.086 428.272,423.725 " fill="none" id="Broker-Commission" style="stroke: #A80036; stroke-width: 1.0;"/><polygon fill="#A80036" points="433.223,425.917,426.6133,418.6155,428.6512,423.8925,423.3742,425.9304,433.223,425.917" style="stroke: #A80036; stroke-width: 1.0;"/><text fill="#000000" font-family="sans-serif" font-size="13" lengthAdjust="spacingAndGlyphs" textLength="79" x="359" y="389.0669">Commission</text><text fill="#000000" font-family="sans-serif" font-size="13" lengthAdjust="spacingAndGlyphs" textLength="7" x="415.159" y="414.9367">*</text><!--link Entry to Account--><path d="M878.113,205.259 C844.703,243.114 735.655,365.046 692,394 C668.674,409.471 638.934,420.733 616.414,427.842 " fill="none" id="Entry-Account" style="stroke: #A80036; stroke-width: 1.0;"/><polygon fill="#A80036" points="611.434,429.383,621.2144,430.5423,616.2103,427.9042,618.8484,422.9002,611.434,429.383" style="stroke: #A80036; stroke-width: 1.0;"/><text fill="#000000" font-family="sans-serif" font-size="13" lengthAdjust="spacingAndGlyphs" textLength="52" x="805" y="327.0669">Account</text><text fill="#000000" font-family="sans-serif" font-size="13" lengthAdjust="spacingAndGlyphs" textLength="7" x="619.553" y="421.0847">*</text><!--link Account to Account--><path d="M611.508,429.984 C629.181,428.051 646,430.723 646,438 C646,444.538 632.424,447.359 616.85,446.463 " fill="none" id="Account-Account" style="stroke: #A80036; stroke-width: 1.0;"/><polygon fill="#A80036" points="611.508,446.016,620.1443,450.7504,616.4907,446.4317,620.8094,442.7781,611.508,446.016" style="stroke: #A80036; stroke-width: 1.0;"/><text fill="#000000" font-family="sans-serif" font-size="13" lengthAdjust="spacingAndGlyphs" textLength="94" x="652" y="442.0669">ParentAccount</text><text fill="#000000" font-family="sans-serif" font-size="13" lengthAdjust="spacingAndGlyphs" textLength="8" x="619.7741" y="441.9799">1</text><!--link Trade to Commission--><path d="M554.217,326.018 C525.751,330.024 475.595,341.808 453,376 C444.312,389.148 447.369,407.536 451.478,420.679 " fill="none" id="Trade-Commission" style="stroke: #A80036; stroke-width: 1.0;"/><polygon fill="#A80036" points="453.145,425.611,454.0521,415.804,451.5437,420.8743,446.4734,418.366,453.145,425.611" style="stroke: #A80036; stroke-width: 1.0;"/><text fill="#000000" font-family="sans-serif" font-size="13" lengthAdjust="spacingAndGlyphs" textLength="115" x="454" y="389.0669">TradeCommission</text><text fill="#000000" font-family="sans-serif" font-size="13" lengthAdjust="spacingAndGlyphs" textLength="7" x="442.1631" y="415.0457">*</text></g></svg>