<?xml version="1.0" encoding="UTF-8" standalone="no"?><svg xmlns="http://www.w3.org/2000/svg" xmlns:xlink="http://www.w3.org/1999/xlink" contentScriptType="application/ecmascript" contentStyleType="text/css" height="808px" preserveAspectRatio="none" style="width:1907px;height:808px;" version="1.1" viewBox="0 0 1907 808" width="1907px" zoomAndPan="magnify"><defs><filter height="300%" id="f1dxsq413xmrtr" width="300%" x="-1" y="-1"><feGaussianBlur result="blurOut" stdDeviation="2.0"/><feColorMatrix in="blurOut" result="blurOut2" type="matrix" values="0 0 0 0 0 0 0 0 0 0 0 0 0 0 0 0 0 0 .4 0"/><feOffset dx="4.0" dy="4.0" in="blurOut2" result="blurOut3"/><feBlend in="SourceGraphic" in2="blurOut3" mode="normal"/></filter></defs><g><!--cluster ##4786--><!--cluster ##4798--><!--cluster ##4811--><!--class SecuritiesTradeExecution--><a target="_top" xlink:actuate="onRequest" xlink:href="../SecuritiesTradeExecution.html" xlink:show="new" xlink:title="Transaction between two counterparties in which they agree to buy and sell a financial instrument. A trade transaction occurs with the matching of the two counterparties orders. There could be several trade transactions necessary to execute the trade." xlink:type="simple"><rect fill="#FEFEEE" filter="url(#f1dxsq413xmrtr)" height="108.7969" id="SecuritiesTradeExecution" style="stroke: #A80036; stroke-width: 1.5;" width="280" x="178.451" y="40.5"/><rect fill="#FEFEEE" height="23.9688" style="stroke: #A80036; stroke-width: 1.5;" width="280" x="178.451" y="40.5"/><text fill="#000000" font-family="sans-serif" font-size="12" lengthAdjust="spacingAndGlyphs" textLength="159" x="238.951" y="56.6387">SecuritiesTradeExecution</text><line style="stroke: #A80036; stroke-width: 1.5;" x1="179.451" x2="457.451" y1="64.4688" y2="64.4688"/><ellipse cx="189.451" cy="76.3711" fill="#84BE84" rx="3" ry="3" style="stroke: #038048; stroke-width: 1.0;"/><text fill="#000000" font-family="sans-serif" font-size="11" lengthAdjust="spacingAndGlyphs" textLength="111" x="198.451" y="78.6792">StampDutyIndicator</text><text fill="#000000" font-family="sans-serif" font-size="11" font-style="italic" lengthAdjust="spacingAndGlyphs" textLength="92" x="313.451" y="78.6792">(YesNoIndicator)</text><ellipse cx="189.451" cy="89.1758" fill="#84BE84" rx="3" ry="3" style="stroke: #038048; stroke-width: 1.0;"/><text fill="#000000" font-family="sans-serif" font-size="11" lengthAdjust="spacingAndGlyphs" textLength="108" x="198.451" y="91.4839">ProcessingPosition</text><text fill="#000000" font-family="sans-serif" font-size="11" font-style="italic" lengthAdjust="spacingAndGlyphs" textLength="142" x="310.451" y="91.4839">(ProcessingPositionCode)</text><ellipse cx="189.451" cy="101.9805" fill="#84BE84" rx="3" ry="3" style="stroke: #038048; stroke-width: 1.0;"/><text fill="#000000" font-family="sans-serif" font-size="11" lengthAdjust="spacingAndGlyphs" textLength="81" x="198.451" y="104.2886">MarginAmount</text><text fill="#000000" font-family="sans-serif" font-size="11" font-style="italic" lengthAdjust="spacingAndGlyphs" textLength="126" x="283.451" y="104.2886">(CurrencyAndAmount)</text><ellipse cx="189.451" cy="114.7852" fill="#84BE84" rx="3" ry="3" style="stroke: #038048; stroke-width: 1.0;"/><text fill="#000000" font-family="sans-serif" font-size="11" lengthAdjust="spacingAndGlyphs" textLength="97" x="198.451" y="117.0933">OffMarketReason</text><text fill="#000000" font-family="sans-serif" font-size="11" font-style="italic" lengthAdjust="spacingAndGlyphs" textLength="92" x="299.451" y="117.0933">(OffMarketCode)</text><ellipse cx="189.451" cy="127.5898" fill="#84BE84" rx="3" ry="3" style="stroke: #038048; stroke-width: 1.0;"/><text fill="#000000" font-family="sans-serif" font-size="11" lengthAdjust="spacingAndGlyphs" textLength="122" x="198.451" y="129.8979">DealExecutionAmount</text><text fill="#000000" font-family="sans-serif" font-size="11" font-style="italic" lengthAdjust="spacingAndGlyphs" textLength="126" x="324.451" y="129.8979">(CurrencyAndAmount)</text><ellipse cx="189.451" cy="140.3945" fill="#84BE84" rx="3" ry="3" style="stroke: #038048; stroke-width: 1.0;"/><text fill="#000000" font-family="sans-serif" font-size="11" lengthAdjust="spacingAndGlyphs" textLength="81" x="198.451" y="142.7026">ReportingType</text><text fill="#000000" font-family="sans-serif" font-size="11" font-style="italic" lengthAdjust="spacingAndGlyphs" textLength="92" x="283.451" y="142.7026">(ReportingCode)</text></a><!--class InvestmentFundOrderExecution--><a target="_top" xlink:actuate="onRequest" xlink:href="../InvestmentFundOrderExecution.html" xlink:show="new" xlink:title="Creation/cancellation of investment units on the books of the fund or its designated agent, as a result of executing an investment fund order." xlink:type="simple"><rect fill="#FEFEEE" filter="url(#f1dxsq413xmrtr)" height="185.625" id="InvestmentFundOrderExecution" style="stroke: #A80036; stroke-width: 1.5;" width="308" x="150.451" y="228"/><rect fill="#FEFEEE" height="23.9688" style="stroke: #A80036; stroke-width: 1.5;" width="308" x="150.451" y="228"/><text fill="#000000" font-family="sans-serif" font-size="12" lengthAdjust="spacingAndGlyphs" textLength="196" x="206.451" y="244.1387">InvestmentFundOrderExecution</text><line style="stroke: #A80036; stroke-width: 1.5;" x1="151.451" x2="457.451" y1="251.9688" y2="251.9688"/><ellipse cx="161.451" cy="263.8711" fill="#84BE84" rx="3" ry="3" style="stroke: #038048; stroke-width: 1.0;"/><text fill="#000000" font-family="sans-serif" font-size="11" lengthAdjust="spacingAndGlyphs" textLength="201" x="170.451" y="266.1792">NonStandardSettlementInformation</text><text fill="#000000" font-family="sans-serif" font-size="11" font-style="italic" lengthAdjust="spacingAndGlyphs" textLength="77" x="375.451" y="266.1792">(Max350Text)</text><ellipse cx="161.451" cy="276.6758" fill="#84BE84" rx="3" ry="3" style="stroke: #038048; stroke-width: 1.0;"/><text fill="#000000" font-family="sans-serif" font-size="11" lengthAdjust="spacingAndGlyphs" textLength="97" x="170.451" y="278.9839">DealIdentification</text><text fill="#000000" font-family="sans-serif" font-size="11" font-style="italic" lengthAdjust="spacingAndGlyphs" textLength="70" x="271.451" y="278.9839">(Max35Text)</text><ellipse cx="161.451" cy="289.4805" fill="#84BE84" rx="3" ry="3" style="stroke: #038048; stroke-width: 1.0;"/><text fill="#000000" font-family="sans-serif" font-size="11" lengthAdjust="spacingAndGlyphs" textLength="145" x="170.451" y="291.7886">PartiallyExecutedIndicator</text><text fill="#000000" font-family="sans-serif" font-size="11" font-style="italic" lengthAdjust="spacingAndGlyphs" textLength="92" x="319.451" y="291.7886">(YesNoIndicator)</text><ellipse cx="161.451" cy="302.2852" fill="#84BE84" rx="3" ry="3" style="stroke: #038048; stroke-width: 1.0;"/><text fill="#000000" font-family="sans-serif" font-size="11" lengthAdjust="spacingAndGlyphs" textLength="113" x="170.451" y="304.5933">InterimProfitAmount</text><text fill="#000000" font-family="sans-serif" font-size="11" font-style="italic" lengthAdjust="spacingAndGlyphs" textLength="126" x="287.451" y="304.5933">(CurrencyAndAmount)</text><ellipse cx="161.451" cy="315.0898" fill="#84BE84" rx="3" ry="3" style="stroke: #038048; stroke-width: 1.0;"/><text fill="#000000" font-family="sans-serif" font-size="11" lengthAdjust="spacingAndGlyphs" textLength="80" x="170.451" y="317.3979">BestExecution</text><text fill="#000000" font-family="sans-serif" font-size="11" font-style="italic" lengthAdjust="spacingAndGlyphs" textLength="117" x="254.451" y="317.3979">(BestExecutionCode)</text><ellipse cx="161.451" cy="327.8945" fill="#84BE84" rx="3" ry="3" style="stroke: #038048; stroke-width: 1.0;"/><text fill="#000000" font-family="sans-serif" font-size="11" lengthAdjust="spacingAndGlyphs" textLength="140" x="170.451" y="330.2026">PartialSettlementOfUnits</text><text fill="#000000" font-family="sans-serif" font-size="11" font-style="italic" lengthAdjust="spacingAndGlyphs" textLength="98" x="314.451" y="330.2026">(PercentageRate)</text><ellipse cx="161.451" cy="340.6992" fill="#84BE84" rx="3" ry="3" style="stroke: #038048; stroke-width: 1.0;"/><text fill="#000000" font-family="sans-serif" font-size="11" lengthAdjust="spacingAndGlyphs" textLength="140" x="170.451" y="343.0073">PartialSettlementOfCash</text><text fill="#000000" font-family="sans-serif" font-size="11" font-style="italic" lengthAdjust="spacingAndGlyphs" textLength="98" x="314.451" y="343.0073">(PercentageRate)</text><ellipse cx="161.451" cy="353.5039" fill="#84BE84" rx="3" ry="3" style="stroke: #038048; stroke-width: 1.0;"/><text fill="#000000" font-family="sans-serif" font-size="11" lengthAdjust="spacingAndGlyphs" textLength="61" x="170.451" y="355.812">LateReport</text><text fill="#000000" font-family="sans-serif" font-size="11" font-style="italic" lengthAdjust="spacingAndGlyphs" textLength="99" x="235.451" y="355.812">(LateReportCode)</text><ellipse cx="161.451" cy="366.3086" fill="#84BE84" rx="3" ry="3" style="stroke: #038048; stroke-width: 1.0;"/><text fill="#000000" font-family="sans-serif" font-size="11" lengthAdjust="spacingAndGlyphs" textLength="89" x="170.451" y="368.6167">SettledIndicator</text><text fill="#000000" font-family="sans-serif" font-size="11" font-style="italic" lengthAdjust="spacingAndGlyphs" textLength="92" x="263.451" y="368.6167">(YesNoIndicator)</text><ellipse cx="161.451" cy="379.1133" fill="#84BE84" rx="3" ry="3" style="stroke: #038048; stroke-width: 1.0;"/><text fill="#000000" font-family="sans-serif" font-size="11" lengthAdjust="spacingAndGlyphs" textLength="110" x="170.451" y="381.4214">RegisteredIndicator</text><text fill="#000000" font-family="sans-serif" font-size="11" font-style="italic" lengthAdjust="spacingAndGlyphs" textLength="92" x="284.451" y="381.4214">(YesNoIndicator)</text><ellipse cx="161.451" cy="391.918" fill="#84BE84" rx="3" ry="3" style="stroke: #038048; stroke-width: 1.0;"/><text fill="#000000" font-family="sans-serif" font-size="11" lengthAdjust="spacingAndGlyphs" textLength="94" x="170.451" y="394.2261">ExecutedAmount</text><text fill="#000000" font-family="sans-serif" font-size="11" font-style="italic" lengthAdjust="spacingAndGlyphs" textLength="126" x="268.451" y="394.2261">(CurrencyAndAmount)</text><ellipse cx="161.451" cy="404.7227" fill="#84BE84" rx="3" ry="3" style="stroke: #038048; stroke-width: 1.0;"/><text fill="#000000" font-family="sans-serif" font-size="11" lengthAdjust="spacingAndGlyphs" textLength="82" x="170.451" y="407.0308">SourceOfCash</text><text fill="#000000" font-family="sans-serif" font-size="11" font-style="italic" lengthAdjust="spacingAndGlyphs" textLength="117" x="256.451" y="407.0308">(SourceOfCashCode)</text></a><!--class SubscriptionExecution--><a target="_top" xlink:actuate="onRequest" xlink:href="../SubscriptionExecution.html" xlink:show="new" xlink:title="Execution of a subscription order." xlink:type="simple"><rect fill="#FEFECE" filter="url(#f1dxsq413xmrtr)" height="95.9922" id="SubscriptionExecution" style="stroke: #A80036; stroke-width: 1.5;" width="271" x="151.201" y="492"/><rect fill="#FEFECE" height="23.9688" style="stroke: #A80036; stroke-width: 1.5;" width="271" x="151.201" y="492"/><text fill="#000000" font-family="sans-serif" font-size="12" lengthAdjust="spacingAndGlyphs" textLength="139" x="217.201" y="508.1387">SubscriptionExecution</text><line style="stroke: #A80036; stroke-width: 1.5;" x1="152.201" x2="421.201" y1="515.9688" y2="515.9688"/><ellipse cx="162.201" cy="527.8711" fill="#84BE84" rx="3" ry="3" style="stroke: #038048; stroke-width: 1.0;"/><text fill="#000000" font-family="sans-serif" font-size="11" lengthAdjust="spacingAndGlyphs" textLength="99" x="171.201" y="530.1792">EquityComponent</text><text fill="#000000" font-family="sans-serif" font-size="11" font-style="italic" lengthAdjust="spacingAndGlyphs" textLength="126" x="274.201" y="530.1792">(CurrencyAndAmount)</text><ellipse cx="162.201" cy="540.6758" fill="#84BE84" rx="3" ry="3" style="stroke: #038048; stroke-width: 1.0;"/><text fill="#000000" font-family="sans-serif" font-size="11" lengthAdjust="spacingAndGlyphs" textLength="94" x="171.201" y="542.9839">CashComponent</text><text fill="#000000" font-family="sans-serif" font-size="11" font-style="italic" lengthAdjust="spacingAndGlyphs" textLength="126" x="269.201" y="542.9839">(CurrencyAndAmount)</text><ellipse cx="162.201" cy="553.4805" fill="#84BE84" rx="3" ry="3" style="stroke: #038048; stroke-width: 1.0;"/><text fill="#000000" font-family="sans-serif" font-size="11" lengthAdjust="spacingAndGlyphs" textLength="110" x="171.201" y="555.7886">InvestedNetAmount</text><text fill="#000000" font-family="sans-serif" font-size="11" font-style="italic" lengthAdjust="spacingAndGlyphs" textLength="126" x="285.201" y="555.7886">(CurrencyAndAmount)</text><ellipse cx="162.201" cy="566.2852" fill="#84BE84" rx="3" ry="3" style="stroke: #038048; stroke-width: 1.0;"/><text fill="#000000" font-family="sans-serif" font-size="11" lengthAdjust="spacingAndGlyphs" textLength="39" x="171.201" y="568.5933">Refund</text><text fill="#000000" font-family="sans-serif" font-size="11" font-style="italic" lengthAdjust="spacingAndGlyphs" textLength="126" x="214.201" y="568.5933">(CurrencyAndAmount)</text><ellipse cx="162.201" cy="579.0898" fill="#84BE84" rx="3" ry="3" style="stroke: #038048; stroke-width: 1.0;"/><text fill="#000000" font-family="sans-serif" font-size="11" lengthAdjust="spacingAndGlyphs" textLength="115" x="171.201" y="581.3979">SubscriptionInterest</text><text fill="#000000" font-family="sans-serif" font-size="11" font-style="italic" lengthAdjust="spacingAndGlyphs" textLength="126" x="290.201" y="581.3979">(CurrencyAndAmount)</text></a><!--class SwitchExecutionSubscriptionLeg--><a target="_top" xlink:actuate="onRequest" xlink:href="../SwitchExecutionSubscriptionLeg.html" xlink:show="new" xlink:title="Execution of the subscription part, in a switch between investment funds or investment fund classes." xlink:type="simple"><rect fill="#FEFEEE" filter="url(#f1dxsq413xmrtr)" height="23.9688" id="SwitchExecutionSubscriptionLeg" style="stroke: #A80036; stroke-width: 1.5;" width="207" x="183.201" y="668"/><rect fill="#FEFEEE" height="23.9688" style="stroke: #A80036; stroke-width: 1.5;" width="207" x="183.201" y="668"/><text fill="#000000" font-family="sans-serif" font-size="12" lengthAdjust="spacingAndGlyphs" textLength="201" x="186.201" y="684.1387">SwitchExecutionSubscriptionLeg</text></a><!--class SecuritiesSettlement--><a target="_top" xlink:actuate="onRequest" xlink:href="../SecuritiesSettlement.html" xlink:show="new" xlink:title="Settlement of the securities in a securities transaction, that is, the instruction to deliver or receive securities, involving the payment of an amount of money or not." xlink:type="simple"><rect fill="#EEEEEE" filter="url(#f1dxsq413xmrtr)" height="23.9688" id="SecuritiesSettlement" style="stroke: #A80036; stroke-width: 1.5;" width="137" x="929.201" y="309"/><rect fill="#EEEEEE" height="23.9688" style="stroke: #A80036; stroke-width: 1.5;" width="137" x="929.201" y="309"/><text fill="#000000" font-family="sans-serif" font-size="12" lengthAdjust="spacingAndGlyphs" textLength="131" x="932.201" y="325.1387">SecuritiesSettlement</text></a><!--class SecuritiesPricing--><a target="_top" xlink:actuate="onRequest" xlink:href="../SecuritiesPricing.html" xlink:show="new" xlink:title="Characteristics related to the price of the security." xlink:type="simple"><rect fill="#EEEEEE" filter="url(#f1dxsq413xmrtr)" height="23.9688" id="SecuritiesPricing" style="stroke: #A80036; stroke-width: 1.5;" width="110" x="1037.45" y="668"/><rect fill="#EEEEEE" height="23.9688" style="stroke: #A80036; stroke-width: 1.5;" width="110" x="1037.45" y="668"/><text fill="#000000" font-family="sans-serif" font-size="12" lengthAdjust="spacingAndGlyphs" textLength="104" x="1040.45" y="684.1387">SecuritiesPricing</text></a><!--class SecuritiesQuantity--><a target="_top" xlink:actuate="onRequest" xlink:href="../SecuritiesQuantity.html" xlink:show="new" xlink:title="Quantity of a security." xlink:type="simple"><rect fill="#EEEEEE" filter="url(#f1dxsq413xmrtr)" height="23.9688" id="SecuritiesQuantity" style="stroke: #A80036; stroke-width: 1.5;" width="120" x="971.951" y="528"/><rect fill="#EEEEEE" height="23.9688" style="stroke: #A80036; stroke-width: 1.5;" width="120" x="971.951" y="528"/><text fill="#000000" font-family="sans-serif" font-size="12" lengthAdjust="spacingAndGlyphs" textLength="114" x="974.951" y="544.1387">SecuritiesQuantity</text></a><!--class SecuritiesTrade--><a target="_top" xlink:actuate="onRequest" xlink:href="../SecuritiesTrade.html" xlink:show="new" xlink:title="Specifies trades linked to securities operations such as the exchange of securities, the lending of securities and the transactions related to investment funds." xlink:type="simple"><rect fill="#EEEEEE" filter="url(#f1dxsq413xmrtr)" height="23.9688" id="SecuritiesTrade" style="stroke: #A80036; stroke-width: 1.5;" width="104" x="1131.45" y="772"/><rect fill="#EEEEEE" height="23.9688" style="stroke: #A80036; stroke-width: 1.5;" width="104" x="1131.45" y="772"/><text fill="#000000" font-family="sans-serif" font-size="12" lengthAdjust="spacingAndGlyphs" textLength="98" x="1134.45" y="788.1387">SecuritiesTrade</text></a><!--class PaymentObligation--><a target="_top" xlink:actuate="onRequest" xlink:href="../PaymentObligation.html" xlink:show="new" xlink:title="Obligation for the debtor to pay the creditor an amount of cash." xlink:type="simple"><rect fill="#EEEEEE" filter="url(#f1dxsq413xmrtr)" height="23.9688" id="PaymentObligation" style="stroke: #A80036; stroke-width: 1.5;" width="123" x="1220.2" y="668"/><rect fill="#EEEEEE" height="23.9688" style="stroke: #A80036; stroke-width: 1.5;" width="123" x="1220.2" y="668"/><text fill="#000000" font-family="sans-serif" font-size="12" lengthAdjust="spacingAndGlyphs" textLength="117" x="1223.2" y="684.1387">PaymentObligation</text></a><!--class SecuritiesDeliveryObligation--><a target="_top" xlink:actuate="onRequest" xlink:href="../SecuritiesDeliveryObligation.html" xlink:show="new" xlink:title="Obligation for one party to deliver securities to another party." xlink:type="simple"><rect fill="#EEEEEE" filter="url(#f1dxsq413xmrtr)" height="23.9688" id="SecuritiesDeliveryObligation" style="stroke: #A80036; stroke-width: 1.5;" width="179" x="1164.2" y="528"/><rect fill="#EEEEEE" height="23.9688" style="stroke: #A80036; stroke-width: 1.5;" width="179" x="1164.2" y="528"/><text fill="#000000" font-family="sans-serif" font-size="12" lengthAdjust="spacingAndGlyphs" textLength="173" x="1167.2" y="544.1387">SecuritiesDeliveryObligation</text></a><!--class InvestmentFundOrder--><a target="_top" xlink:actuate="onRequest" xlink:href="../InvestmentFundOrder.html" xlink:show="new" xlink:title="An investor's instruction to either subscribe or redeem an amount of money or its equivalent, for example other assets, into or out of an investment fund." xlink:type="simple"><rect fill="#EEEEEE" filter="url(#f1dxsq413xmrtr)" height="23.9688" id="InvestmentFundOrder" style="stroke: #A80036; stroke-width: 1.5;" width="141" x="515.201" y="668"/><rect fill="#EEEEEE" height="23.9688" style="stroke: #A80036; stroke-width: 1.5;" width="141" x="515.201" y="668"/><text fill="#000000" font-family="sans-serif" font-size="12" lengthAdjust="spacingAndGlyphs" textLength="135" x="518.201" y="684.1387">InvestmentFundOrder</text></a><!--class InvestmentFundTransaction--><a target="_top" xlink:actuate="onRequest" xlink:href="../InvestmentFundTransaction.html" xlink:show="new" xlink:title="Process of buying, selling, switching or transferring fund units." xlink:type="simple"><rect fill="#EEEEEE" filter="url(#f1dxsq413xmrtr)" height="23.9688" id="InvestmentFundTransaction" style="stroke: #A80036; stroke-width: 1.5;" width="180" x="570.451" y="772"/><rect fill="#EEEEEE" height="23.9688" style="stroke: #A80036; stroke-width: 1.5;" width="180" x="570.451" y="772"/><text fill="#000000" font-family="sans-serif" font-size="12" lengthAdjust="spacingAndGlyphs" textLength="174" x="573.451" y="788.1387">InvestmentFundTransaction</text></a><!--class FundsCashFlow--><a target="_top" xlink:actuate="onRequest" xlink:href="../FundsCashFlow.html" xlink:show="new" xlink:title="Cash movements from or to a fund as a result of investment funds transactions, for example, subscriptions or redemptions." xlink:type="simple"><rect fill="#EEEEEE" filter="url(#f1dxsq413xmrtr)" height="23.9688" id="FundsCashFlow" style="stroke: #A80036; stroke-width: 1.5;" width="102" x="691.951" y="668"/><rect fill="#EEEEEE" height="23.9688" style="stroke: #A80036; stroke-width: 1.5;" width="102" x="691.951" y="668"/><text fill="#000000" font-family="sans-serif" font-size="12" lengthAdjust="spacingAndGlyphs" textLength="96" x="694.951" y="684.1387">FundsCashFlow</text></a><!--entity ##4818--><!--link SecuritiesTradeExecution to InvestmentFundOrderExecution--><path d="M313.838,169.803 C312.678,188.361 311.419,208.508 310.211,227.841 " fill="none" id="SecuritiesTradeExecution-InvestmentFundOrderExecution" style="stroke: #A80036; stroke-width: 1.0;"/><polygon fill="none" points="306.863,169.178,315.097,149.654,320.836,170.051,306.863,169.178" style="stroke: #A80036; stroke-width: 1.0;"/><!--link InvestmentFundOrderExecution to SubscriptionExecution--><path d="M295.164,433.962 C293.471,454.367 291.792,474.609 290.366,491.797 " fill="none" id="InvestmentFundOrderExecution-SubscriptionExecution" style="stroke: #A80036; stroke-width: 1.0;"/><polygon fill="none" points="288.188,433.38,296.817,414.028,302.14,434.538,288.188,433.38" style="stroke: #A80036; stroke-width: 1.0;"/><!--link SubscriptionExecution to SwitchExecutionSubscriptionLeg--><path d="M286.451,608.366 C286.451,631.289 286.451,654.454 286.451,667.731 " fill="none" id="SubscriptionExecution-SwitchExecutionSubscriptionLeg" style="stroke: #A80036; stroke-width: 1.0;"/><polygon fill="none" points="279.451,608.106,286.451,588.106,293.451,608.106,279.451,608.106" style="stroke: #A80036; stroke-width: 1.0;"/><!--link SecuritiesPricing to SecuritiesSettlement--><!--link SecuritiesQuantity to SecuritiesPricing--><!--link SecuritiesTrade to SecuritiesQuantity--><!--link SecuritiesQuantity to SecuritiesTrade--><path d="M1039.57,552.22 C1052.64,571.748 1074.81,612.174 1053.45,636 C1042.56,648.152 991.344,631.848 980.451,644 C959.091,667.828 961.702,690.068 980.451,716 C1013.39,761.5585 1078.42,776.6601 1126.04,781.3973 " fill="none" id="SecuritiesQuantity-SecuritiesTrade" style="stroke: #A80036; stroke-width: 1.0;"/><polygon fill="#A80036" points="1131.17,781.8748,1122.5872,777.0442,1126.1923,781.4034,1121.833,785.0085,1131.17,781.8748" style="stroke: #A80036; stroke-width: 1.0;"/><text fill="#000000" font-family="sans-serif" font-size="13" lengthAdjust="spacingAndGlyphs" textLength="36" x="981.451" y="684.0669">Trade</text><text fill="#000000" font-family="sans-serif" font-size="13" lengthAdjust="spacingAndGlyphs" textLength="24" x="1099.438" y="794.5044">0..1</text><!--link PaymentObligation to SecuritiesTrade--><!--link SecuritiesDeliveryObligation to PaymentObligation--><!--link InvestmentFundTransaction to InvestmentFundOrder--><!--link InvestmentFundOrder to InvestmentFundTransaction--><path d="M589.426,692.05 C594.342,704.833 603.539,726.15 615.451,742 C622.872,751.8747 632.896,761.2787 641.6,768.5835 " fill="none" id="InvestmentFundOrder-InvestmentFundTransaction" style="stroke: #A80036; stroke-width: 1.0;"/><polygon fill="#A80036" points="645.75,771.9937,641.3361,763.1893,641.887,768.8193,636.257,769.3702,645.75,771.9937" style="stroke: #A80036; stroke-width: 1.0;"/><text fill="#000000" font-family="sans-serif" font-size="13" lengthAdjust="spacingAndGlyphs" textLength="122" x="616.451" y="737.0669">RelatedTransaction</text><text fill="#000000" font-family="sans-serif" font-size="13" lengthAdjust="spacingAndGlyphs" textLength="24" x="611.2278" y="761.0398">0..1</text><!--link FundsCashFlow to InvestmentFundTransaction--><!--link SecuritiesTradeExecution to SecuritiesSettlement--><path d="M458.728,142.277 C616.862,194.445 864.233,276.052 958.863,307.27 " fill="none" id="SecuritiesTradeExecution-SecuritiesSettlement" style="stroke: #A80036; stroke-width: 1.0;"/><polygon fill="#A80036" points="963.795,308.897,956.5026,302.2773,959.047,307.3296,953.9947,309.874,963.795,308.897" style="stroke: #A80036; stroke-width: 1.0;"/><text fill="#000000" font-family="sans-serif" font-size="13" lengthAdjust="spacingAndGlyphs" textLength="135" x="618.451" y="193.0669">SecuritiesSettlement</text><text fill="#000000" font-family="sans-serif" font-size="13" lengthAdjust="spacingAndGlyphs" textLength="7" x="942.5929" y="297.9098">*</text><!--link SecuritiesTradeExecution to SecuritiesPricing--><path d="M458.605,100.563 C764.166,111.989 1468.58,146.934 1537.45,228 C1653.01,364.031 1511.5,494.515 1359.45,588 C1349.38,594.192 1202.57,642.826 1131.05,666.345 " fill="none" id="SecuritiesTradeExecution-SecuritiesPricing" style="stroke: #A80036; stroke-width: 1.0;"/><polygon fill="#A80036" points="1126.03,667.995,1135.831,668.9649,1130.7768,666.4241,1133.3176,661.37,1126.03,667.995" style="stroke: #A80036; stroke-width: 1.0;"/><text fill="#000000" font-family="sans-serif" font-size="13" lengthAdjust="spacingAndGlyphs" textLength="60" x="1534.45" y="457.0669">DealPrice</text><text fill="#000000" font-family="sans-serif" font-size="13" lengthAdjust="spacingAndGlyphs" textLength="8" x="1126.8544" y="657.0415">1</text><!--link SecuritiesTradeExecution to SecuritiesQuantity--><path d="M458.51,104.451 C651.924,118.712 987.694,153.607 1082.45,228 C1153.37,283.679 1106.71,343.926 1163.45,414 C1181.29,436.031 1220.92,438.244 1205.45,462 C1201.29,468.39 1112.6,505.625 1063.49,525.882 " fill="none" id="SecuritiesTradeExecution-SecuritiesQuantity" style="stroke: #A80036; stroke-width: 1.0;"/><polygon fill="#A80036" points="1058.57,527.907,1068.4149,528.1854,1063.1946,526.0063,1065.3738,520.786,1058.57,527.907" style="stroke: #A80036; stroke-width: 1.0;"/><text fill="#000000" font-family="sans-serif" font-size="13" lengthAdjust="spacingAndGlyphs" textLength="149" x="1164.45" y="325.0669">ExecutedTradeQuantity</text><text fill="#000000" font-family="sans-serif" font-size="13" lengthAdjust="spacingAndGlyphs" textLength="7" x="1058.1734" y="516.9232">*</text><!--link SecuritiesTradeExecution to SecuritiesTrade--><path d="M458.547,98.893 C734.194,105.693 1337.56,126.369 1537.45,180 C1594.55,195.32 1810.45,307.008 1810.45,320 C1810.45,320 1810.45,320 1810.45,681 C1810.45,738.3915 1395.91,769.889 1240.96,779.6575 " fill="none" id="SecuritiesTradeExecution-SecuritiesTrade" style="stroke: #A80036; stroke-width: 1.0;"/><polygon fill="#A80036" points="1235.56,779.9958,1244.7936,783.4222,1240.5501,779.6815,1244.2908,775.438,1235.56,779.9958" style="stroke: #A80036; stroke-width: 1.0;"/><text fill="#000000" font-family="sans-serif" font-size="13" lengthAdjust="spacingAndGlyphs" textLength="84" x="1811.45" y="544.0669">RelatedTrade</text><text fill="#000000" font-family="sans-serif" font-size="13" lengthAdjust="spacingAndGlyphs" textLength="8" x="1243.4505" y="774.3158">1</text><!--link SecuritiesTradeExecution to PaymentObligation--><path d="M458.594,100.462 C722.369,109.808 1283.01,134.444 1471.45,180 C1524.49,192.822 1552.27,183.933 1584.45,228 C1646.01,312.297 1649,367.604 1604.45,462 C1549.65,578.127 1398.16,641.438 1323.77,666.344 " fill="none" id="SecuritiesTradeExecution-PaymentObligation" style="stroke: #A80036; stroke-width: 1.0;"/><polygon fill="#A80036" points="1318.99,667.929,1328.7911,668.8981,1323.7367,666.3577,1326.277,661.3033,1318.99,667.929" style="stroke: #A80036; stroke-width: 1.0;"/><text fill="#000000" font-family="sans-serif" font-size="13" lengthAdjust="spacingAndGlyphs" textLength="121" x="1612.45" y="457.0669">PaymentObligation</text><text fill="#000000" font-family="sans-serif" font-size="13" lengthAdjust="spacingAndGlyphs" textLength="7" x="1322.2616" y="656.9528">*</text><!--link SecuritiesTradeExecution to SecuritiesDeliveryObligation--><path d="M458.494,104.206 C720.75,121.03 1264.55,163.375 1319.45,228 C1395.77,317.834 1298.83,474.21 1264.59,523.595 " fill="none" id="SecuritiesTradeExecution-SecuritiesDeliveryObligation" style="stroke: #A80036; stroke-width: 1.0;"/><polygon fill="#A80036" points="1261.66,527.77,1270.104,522.7007,1264.5321,523.6772,1263.5556,518.1053,1261.66,527.77" style="stroke: #A80036; stroke-width: 1.0;"/><text fill="#000000" font-family="sans-serif" font-size="13" lengthAdjust="spacingAndGlyphs" textLength="178" x="1349.45" y="325.0669">SecuritiesDeliveryObligation</text><text fill="#000000" font-family="sans-serif" font-size="13" lengthAdjust="spacingAndGlyphs" textLength="7" x="1254.8061" y="516.9973">*</text><!--link InvestmentFundOrderExecution to SecuritiesQuantity--><path d="M458.699,357.129 C556.055,380.069 684.187,411.676 796.451,444 C862.09,462.9 879.584,465.29 942.451,492 C965.383,501.743 990.381,515.214 1008.03,525.238 " fill="none" id="InvestmentFundOrderExecution-SecuritiesQuantity" style="stroke: #A80036; stroke-width: 1.0;"/><polygon fill="#A80036" points="1012.8,527.967,1006.9771,520.0238,1008.4609,525.4826,1003.0021,526.9664,1012.8,527.967" style="stroke: #A80036; stroke-width: 1.0;"/><text fill="#000000" font-family="sans-serif" font-size="13" lengthAdjust="spacingAndGlyphs" textLength="85" x="859.451" y="457.0669">UnitsNumber</text><text fill="#000000" font-family="sans-serif" font-size="13" lengthAdjust="spacingAndGlyphs" textLength="8" x="995.5035" y="517.0039">1</text><!--link InvestmentFundOrderExecution to InvestmentFundOrder--><path d="M377.147,414.181 C397.031,439.407 418.577,466.752 438.451,492 C488.562,555.661 548.203,631.576 573.335,663.573 " fill="none" id="InvestmentFundOrderExecution-InvestmentFundOrder" style="stroke: #A80036; stroke-width: 1.0;"/><polygon fill="#A80036" points="576.507,667.612,574.0942,658.0633,573.4188,663.6797,567.8024,663.0043,576.507,667.612" style="stroke: #A80036; stroke-width: 1.0;"/><text fill="#000000" font-family="sans-serif" font-size="13" lengthAdjust="spacingAndGlyphs" textLength="36" x="513.451" y="544.0669">Order</text><text fill="#000000" font-family="sans-serif" font-size="13" lengthAdjust="spacingAndGlyphs" textLength="24" x="544.4327" y="657.047">0..1</text><!--link InvestmentFundOrderExecution to SecuritiesPricing--><path d="M458.472,335.536 C548.991,350.181 661.224,380.646 742.451,444 C800.524,489.295 769.141,539.369 824.451,588 C824.616,588.145 941.237,635.948 941.451,636 C978.728,645.163 990.703,632.9 1027.45,644 C1043.3,648.786 1059.69,657.65 1072.06,665.26 " fill="none" id="InvestmentFundOrderExecution-SecuritiesPricing" style="stroke: #A80036; stroke-width: 1.0;"/><polygon fill="#A80036" points="1076.42,667.997,1070.9216,659.8258,1072.1844,665.3399,1066.6703,666.6028,1076.42,667.997" style="stroke: #A80036; stroke-width: 1.0;"/><text fill="#000000" font-family="sans-serif" font-size="13" lengthAdjust="spacingAndGlyphs" textLength="126" x="825.451" y="544.0669">ExecutedTradePrice</text><text fill="#000000" font-family="sans-serif" font-size="13" lengthAdjust="spacingAndGlyphs" textLength="8" x="1060.1909" y="657.0442">1</text><!--link InvestmentFundOrderExecution to SecuritiesPricing--><path d="M150.44,391.825 C55.5743,444.116 -36.6653,518.339 27.4507,588 C71.0927,635.416 541.091,632.721 605.451,636 C652.287,638.386 982.087,632.105 1027.45,644 C1043.68,648.256 1060.31,657.313 1072.69,665.147 " fill="none" id="InvestmentFundOrderExecution-SecuritiesPricing" style="stroke: #A80036; stroke-width: 1.0;"/><polygon fill="#A80036" points="1077.05,667.967,1071.6648,659.7208,1072.8515,665.2518,1067.3205,666.4385,1077.05,667.967" style="stroke: #A80036; stroke-width: 1.0;"/><text fill="#000000" font-family="sans-serif" font-size="13" lengthAdjust="spacingAndGlyphs" textLength="103" x="28.4507" y="544.0669">InformativePrice</text><text fill="#000000" font-family="sans-serif" font-size="13" lengthAdjust="spacingAndGlyphs" textLength="8" x="1073.1313" y="657.0039">1</text><!--link InvestmentFundOrderExecution to InvestmentFundTransaction--><path d="M458.625,374.874 C522.996,402.457 595.243,441.209 649.451,492 C703.356,542.508 670.489,595.782 732.451,636 C746.881,645.366 797.932,631.222 809.451,644 C830.877,667.768 826.377,688.843 809.451,716 C791.65,744.56 758.342,761.0386 727.725,770.4996 " fill="none" id="InvestmentFundOrderExecution-InvestmentFundTransaction" style="stroke: #A80036; stroke-width: 1.0;"/><polygon fill="#A80036" points="722.837,771.9586,732.6051,773.2175,727.6281,770.5286,730.3171,765.5517,722.837,771.9586" style="stroke: #A80036; stroke-width: 1.0;"/><text fill="#000000" font-family="sans-serif" font-size="13" lengthAdjust="spacingAndGlyphs" textLength="177" x="733.451" y="631.0669">InvestmentFundTransaction</text><text fill="#000000" font-family="sans-serif" font-size="13" lengthAdjust="spacingAndGlyphs" textLength="24" x="714.8134" y="760.9926">0..1</text><!--link InvestmentFundOrderExecution to FundsCashFlow--><path d="M458.667,400.771 C495.842,425.741 532.545,456.312 559.451,492 C599.896,545.648 553.643,593.222 605.451,636 C617.013,645.547 658.088,639.694 672.451,644 C689.289,649.048 706.986,657.932 720.373,665.487 " fill="none" id="InvestmentFundOrderExecution-FundsCashFlow" style="stroke: #A80036; stroke-width: 1.0;"/><polygon fill="#A80036" points="724.741,667.99,718.9204,660.0452,720.4026,665.5044,714.9434,666.9866,724.741,667.99" style="stroke: #A80036; stroke-width: 1.0;"/><text fill="#000000" font-family="sans-serif" font-size="13" lengthAdjust="spacingAndGlyphs" textLength="59" x="580.451" y="544.0669">CashFlow</text><text fill="#000000" font-family="sans-serif" font-size="13" lengthAdjust="spacingAndGlyphs" textLength="7" x="708.9344" y="657.0348">*</text><!--link SecuritiesSettlement to SecuritiesQuantity--><path d="M989.824,333.163 C974.377,357.242 942.337,415.635 960.451,462 C970.638,488.075 994.25,510.636 1011.46,524.479 " fill="none" id="SecuritiesSettlement-SecuritiesQuantity" style="stroke: #A80036; stroke-width: 1.0;"/><polygon fill="#A80036" points="1015.68,527.807,1011.0941,519.0909,1011.7554,524.709,1006.1373,525.3703,1015.68,527.807" style="stroke: #A80036; stroke-width: 1.0;"/><text fill="#000000" font-family="sans-serif" font-size="13" lengthAdjust="spacingAndGlyphs" textLength="126" x="961.451" y="457.0669">SettlementQuantity</text><text fill="#000000" font-family="sans-serif" font-size="13" lengthAdjust="spacingAndGlyphs" textLength="8" x="1011.6152" y="517.0465">1</text><!--link SecuritiesSettlement to SecuritiesQuantity--><path d="M1010.66,333.116 C1032.87,352.768 1076.87,396.12 1093.45,444 C1104.43,475.711 1073.33,507.296 1051.3,524.874 " fill="none" id="SecuritiesSettlement-SecuritiesQuantity" style="stroke: #A80036; stroke-width: 1.0;"/><polygon fill="#A80036" points="1047.3,527.99,1056.8581,525.6148,1051.2445,524.9173,1051.9419,519.3036,1047.3,527.99" style="stroke: #A80036; stroke-width: 1.0;"/><text fill="#000000" font-family="sans-serif" font-size="13" lengthAdjust="spacingAndGlyphs" textLength="98" x="1097.45" y="457.0669">TurnedQuantity</text><text fill="#000000" font-family="sans-serif" font-size="13" lengthAdjust="spacingAndGlyphs" textLength="8" x="1041.8575" y="517.0348">1</text><!--link SecuritiesPricing to SecuritiesTrade--><path d="M1083.19,692.222 C1073.71,705.167 1061.75,726.637 1072.45,742 C1084.84,759.7898 1105.88,769.8799 1126.34,775.5953 " fill="none" id="SecuritiesPricing-SecuritiesTrade" style="stroke: #A80036; stroke-width: 1.0;"/><polygon fill="#A80036" points="1131.24,776.8872,1123.5532,770.7298,1126.4044,775.6156,1121.5186,778.4668,1131.24,776.8872" style="stroke: #A80036; stroke-width: 1.0;"/><text fill="#000000" font-family="sans-serif" font-size="13" lengthAdjust="spacingAndGlyphs" textLength="99" x="1073.45" y="737.0669">SecuritiesTrade</text><text fill="#000000" font-family="sans-serif" font-size="13" lengthAdjust="spacingAndGlyphs" textLength="24" x="1099.5152" y="771.3525">0..1</text><!--link SecuritiesQuantity to InvestmentFundOrder--><path d="M1015.23,552.067 C998.002,563.205 969.564,579.865 942.451,588 C810.715,627.524 755.441,552.596 634.451,618 C615.77,628.098 601.632,648.61 593.455,663.052 " fill="none" id="SecuritiesQuantity-InvestmentFundOrder" style="stroke: #A80036; stroke-width: 1.0;"/><polygon fill="#A80036" points="590.912,667.693,598.7452,661.7231,593.3151,663.3083,591.7298,657.8782,590.912,667.693" style="stroke: #A80036; stroke-width: 1.0;"/><text fill="#000000" font-family="sans-serif" font-size="13" lengthAdjust="spacingAndGlyphs" textLength="36" x="635.451" y="631.0669">Order</text><text fill="#000000" font-family="sans-serif" font-size="13" lengthAdjust="spacingAndGlyphs" textLength="8" x="581.9819" y="656.8947">1</text><!--link SecuritiesQuantity to FundsCashFlow--><path d="M1019.87,552.142 C998.688,571.916 951.539,613.205 904.451,636 C870.888,652.248 830.334,663.004 798.198,669.695 " fill="none" id="SecuritiesQuantity-FundsCashFlow" style="stroke: #A80036; stroke-width: 1.0;"/><polygon fill="#A80036" points="793.115,670.734,802.7338,672.8503,798.0137,669.7325,801.1315,665.0124,793.115,670.734" style="stroke: #A80036; stroke-width: 1.0;"/><text fill="#000000" font-family="sans-serif" font-size="13" lengthAdjust="spacingAndGlyphs" textLength="107" x="936.451" y="631.0669">RelatedCashFlow</text><text fill="#000000" font-family="sans-serif" font-size="13" lengthAdjust="spacingAndGlyphs" textLength="8" x="802.0859" y="663.872">1</text></g></svg>