<?xml version="1.0" encoding="UTF-8" standalone="no"?><svg xmlns="http://www.w3.org/2000/svg" xmlns:xlink="http://www.w3.org/1999/xlink" contentScriptType="application/ecmascript" contentStyleType="text/css" height="803px" preserveAspectRatio="none" style="width:2027px;height:803px;" version="1.1" viewBox="0 0 2027 803" width="2027px" zoomAndPan="magnify"><defs><filter height="300%" id="fooa3jl6k532l" width="300%" x="-1" y="-1"><feGaussianBlur result="blurOut" stdDeviation="2.0"/><feColorMatrix in="blurOut" result="blurOut2" type="matrix" values="0 0 0 0 0 0 0 0 0 0 0 0 0 0 0 0 0 0 .4 0"/><feOffset dx="4.0" dy="4.0" in="blurOut2" result="blurOut3"/><feBlend in="SourceGraphic" in2="blurOut3" mode="normal"/></filter></defs><g><!--cluster ##24544--><!--cluster ##24556--><!--cluster ##24569--><!--cluster ##24578--><!--class SecuritiesTradeExecution--><a target="_top" xlink:actuate="onRequest" xlink:href="../SecuritiesTradeExecution.html" xlink:show="new" xlink:title="Transaction between two counterparties in which they agree to buy and sell a financial instrument. A trade transaction occurs with the matching of the two counterparties orders. There could be several trade transactions necessary to execute the trade." xlink:type="simple"><rect fill="#FEFEEE" filter="url(#fooa3jl6k532l)" height="108.7969" id="SecuritiesTradeExecution" style="stroke: #A80036; stroke-width: 1.5;" width="280" x="237.581" y="40.5"/><rect fill="#FEFEEE" height="23.9688" style="stroke: #A80036; stroke-width: 1.5;" width="280" x="237.581" y="40.5"/><text fill="#000000" font-family="sans-serif" font-size="12" lengthAdjust="spacingAndGlyphs" textLength="159" x="298.081" y="56.6387">SecuritiesTradeExecution</text><line style="stroke: #A80036; stroke-width: 1.5;" x1="238.581" x2="516.581" y1="64.4688" y2="64.4688"/><ellipse cx="248.581" cy="76.3711" fill="#84BE84" rx="3" ry="3" style="stroke: #038048; stroke-width: 1.0;"/><text fill="#000000" font-family="sans-serif" font-size="11" lengthAdjust="spacingAndGlyphs" textLength="111" x="257.581" y="78.6792">StampDutyIndicator</text><text fill="#000000" font-family="sans-serif" font-size="11" font-style="italic" lengthAdjust="spacingAndGlyphs" textLength="92" x="372.581" y="78.6792">(YesNoIndicator)</text><ellipse cx="248.581" cy="89.1758" fill="#84BE84" rx="3" ry="3" style="stroke: #038048; stroke-width: 1.0;"/><text fill="#000000" font-family="sans-serif" font-size="11" lengthAdjust="spacingAndGlyphs" textLength="108" x="257.581" y="91.4839">ProcessingPosition</text><text fill="#000000" font-family="sans-serif" font-size="11" font-style="italic" lengthAdjust="spacingAndGlyphs" textLength="142" x="369.581" y="91.4839">(ProcessingPositionCode)</text><ellipse cx="248.581" cy="101.9805" fill="#84BE84" rx="3" ry="3" style="stroke: #038048; stroke-width: 1.0;"/><text fill="#000000" font-family="sans-serif" font-size="11" lengthAdjust="spacingAndGlyphs" textLength="81" x="257.581" y="104.2886">MarginAmount</text><text fill="#000000" font-family="sans-serif" font-size="11" font-style="italic" lengthAdjust="spacingAndGlyphs" textLength="126" x="342.581" y="104.2886">(CurrencyAndAmount)</text><ellipse cx="248.581" cy="114.7852" fill="#84BE84" rx="3" ry="3" style="stroke: #038048; stroke-width: 1.0;"/><text fill="#000000" font-family="sans-serif" font-size="11" lengthAdjust="spacingAndGlyphs" textLength="97" x="257.581" y="117.0933">OffMarketReason</text><text fill="#000000" font-family="sans-serif" font-size="11" font-style="italic" lengthAdjust="spacingAndGlyphs" textLength="92" x="358.581" y="117.0933">(OffMarketCode)</text><ellipse cx="248.581" cy="127.5898" fill="#84BE84" rx="3" ry="3" style="stroke: #038048; stroke-width: 1.0;"/><text fill="#000000" font-family="sans-serif" font-size="11" lengthAdjust="spacingAndGlyphs" textLength="122" x="257.581" y="129.8979">DealExecutionAmount</text><text fill="#000000" font-family="sans-serif" font-size="11" font-style="italic" lengthAdjust="spacingAndGlyphs" textLength="126" x="383.581" y="129.8979">(CurrencyAndAmount)</text><ellipse cx="248.581" cy="140.3945" fill="#84BE84" rx="3" ry="3" style="stroke: #038048; stroke-width: 1.0;"/><text fill="#000000" font-family="sans-serif" font-size="11" lengthAdjust="spacingAndGlyphs" textLength="81" x="257.581" y="142.7026">ReportingType</text><text fill="#000000" font-family="sans-serif" font-size="11" font-style="italic" lengthAdjust="spacingAndGlyphs" textLength="92" x="342.581" y="142.7026">(ReportingCode)</text></a><!--class InvestmentFundOrderExecution--><a target="_top" xlink:actuate="onRequest" xlink:href="../InvestmentFundOrderExecution.html" xlink:show="new" xlink:title="Creation/cancellation of investment units on the books of the fund or its designated agent, as a result of executing an investment fund order." xlink:type="simple"><rect fill="#FEFEEE" filter="url(#fooa3jl6k532l)" height="185.625" id="InvestmentFundOrderExecution" style="stroke: #A80036; stroke-width: 1.5;" width="308" x="209.581" y="228"/><rect fill="#FEFEEE" height="23.9688" style="stroke: #A80036; stroke-width: 1.5;" width="308" x="209.581" y="228"/><text fill="#000000" font-family="sans-serif" font-size="12" lengthAdjust="spacingAndGlyphs" textLength="196" x="265.581" y="244.1387">InvestmentFundOrderExecution</text><line style="stroke: #A80036; stroke-width: 1.5;" x1="210.581" x2="516.581" y1="251.9688" y2="251.9688"/><ellipse cx="220.581" cy="263.8711" fill="#84BE84" rx="3" ry="3" style="stroke: #038048; stroke-width: 1.0;"/><text fill="#000000" font-family="sans-serif" font-size="11" lengthAdjust="spacingAndGlyphs" textLength="201" x="229.581" y="266.1792">NonStandardSettlementInformation</text><text fill="#000000" font-family="sans-serif" font-size="11" font-style="italic" lengthAdjust="spacingAndGlyphs" textLength="77" x="434.581" y="266.1792">(Max350Text)</text><ellipse cx="220.581" cy="276.6758" fill="#84BE84" rx="3" ry="3" style="stroke: #038048; stroke-width: 1.0;"/><text fill="#000000" font-family="sans-serif" font-size="11" lengthAdjust="spacingAndGlyphs" textLength="97" x="229.581" y="278.9839">DealIdentification</text><text fill="#000000" font-family="sans-serif" font-size="11" font-style="italic" lengthAdjust="spacingAndGlyphs" textLength="70" x="330.581" y="278.9839">(Max35Text)</text><ellipse cx="220.581" cy="289.4805" fill="#84BE84" rx="3" ry="3" style="stroke: #038048; stroke-width: 1.0;"/><text fill="#000000" font-family="sans-serif" font-size="11" lengthAdjust="spacingAndGlyphs" textLength="145" x="229.581" y="291.7886">PartiallyExecutedIndicator</text><text fill="#000000" font-family="sans-serif" font-size="11" font-style="italic" lengthAdjust="spacingAndGlyphs" textLength="92" x="378.581" y="291.7886">(YesNoIndicator)</text><ellipse cx="220.581" cy="302.2852" fill="#84BE84" rx="3" ry="3" style="stroke: #038048; stroke-width: 1.0;"/><text fill="#000000" font-family="sans-serif" font-size="11" lengthAdjust="spacingAndGlyphs" textLength="113" x="229.581" y="304.5933">InterimProfitAmount</text><text fill="#000000" font-family="sans-serif" font-size="11" font-style="italic" lengthAdjust="spacingAndGlyphs" textLength="126" x="346.581" y="304.5933">(CurrencyAndAmount)</text><ellipse cx="220.581" cy="315.0898" fill="#84BE84" rx="3" ry="3" style="stroke: #038048; stroke-width: 1.0;"/><text fill="#000000" font-family="sans-serif" font-size="11" lengthAdjust="spacingAndGlyphs" textLength="80" x="229.581" y="317.3979">BestExecution</text><text fill="#000000" font-family="sans-serif" font-size="11" font-style="italic" lengthAdjust="spacingAndGlyphs" textLength="117" x="313.581" y="317.3979">(BestExecutionCode)</text><ellipse cx="220.581" cy="327.8945" fill="#84BE84" rx="3" ry="3" style="stroke: #038048; stroke-width: 1.0;"/><text fill="#000000" font-family="sans-serif" font-size="11" lengthAdjust="spacingAndGlyphs" textLength="140" x="229.581" y="330.2026">PartialSettlementOfUnits</text><text fill="#000000" font-family="sans-serif" font-size="11" font-style="italic" lengthAdjust="spacingAndGlyphs" textLength="98" x="373.581" y="330.2026">(PercentageRate)</text><ellipse cx="220.581" cy="340.6992" fill="#84BE84" rx="3" ry="3" style="stroke: #038048; stroke-width: 1.0;"/><text fill="#000000" font-family="sans-serif" font-size="11" lengthAdjust="spacingAndGlyphs" textLength="140" x="229.581" y="343.0073">PartialSettlementOfCash</text><text fill="#000000" font-family="sans-serif" font-size="11" font-style="italic" lengthAdjust="spacingAndGlyphs" textLength="98" x="373.581" y="343.0073">(PercentageRate)</text><ellipse cx="220.581" cy="353.5039" fill="#84BE84" rx="3" ry="3" style="stroke: #038048; stroke-width: 1.0;"/><text fill="#000000" font-family="sans-serif" font-size="11" lengthAdjust="spacingAndGlyphs" textLength="61" x="229.581" y="355.812">LateReport</text><text fill="#000000" font-family="sans-serif" font-size="11" font-style="italic" lengthAdjust="spacingAndGlyphs" textLength="99" x="294.581" y="355.812">(LateReportCode)</text><ellipse cx="220.581" cy="366.3086" fill="#84BE84" rx="3" ry="3" style="stroke: #038048; stroke-width: 1.0;"/><text fill="#000000" font-family="sans-serif" font-size="11" lengthAdjust="spacingAndGlyphs" textLength="89" x="229.581" y="368.6167">SettledIndicator</text><text fill="#000000" font-family="sans-serif" font-size="11" font-style="italic" lengthAdjust="spacingAndGlyphs" textLength="92" x="322.581" y="368.6167">(YesNoIndicator)</text><ellipse cx="220.581" cy="379.1133" fill="#84BE84" rx="3" ry="3" style="stroke: #038048; stroke-width: 1.0;"/><text fill="#000000" font-family="sans-serif" font-size="11" lengthAdjust="spacingAndGlyphs" textLength="110" x="229.581" y="381.4214">RegisteredIndicator</text><text fill="#000000" font-family="sans-serif" font-size="11" font-style="italic" lengthAdjust="spacingAndGlyphs" textLength="92" x="343.581" y="381.4214">(YesNoIndicator)</text><ellipse cx="220.581" cy="391.918" fill="#84BE84" rx="3" ry="3" style="stroke: #038048; stroke-width: 1.0;"/><text fill="#000000" font-family="sans-serif" font-size="11" lengthAdjust="spacingAndGlyphs" textLength="94" x="229.581" y="394.2261">ExecutedAmount</text><text fill="#000000" font-family="sans-serif" font-size="11" font-style="italic" lengthAdjust="spacingAndGlyphs" textLength="126" x="327.581" y="394.2261">(CurrencyAndAmount)</text><ellipse cx="220.581" cy="404.7227" fill="#84BE84" rx="3" ry="3" style="stroke: #038048; stroke-width: 1.0;"/><text fill="#000000" font-family="sans-serif" font-size="11" lengthAdjust="spacingAndGlyphs" textLength="82" x="229.581" y="407.0308">SourceOfCash</text><text fill="#000000" font-family="sans-serif" font-size="11" font-style="italic" lengthAdjust="spacingAndGlyphs" textLength="117" x="315.581" y="407.0308">(SourceOfCashCode)</text></a><!--class RedemptionExecution--><a target="_top" xlink:actuate="onRequest" xlink:href="../RedemptionExecution.html" xlink:show="new" xlink:title="Execution of a redemption order." xlink:type="simple"><rect fill="#FEFEEE" filter="url(#fooa3jl6k532l)" height="70.3828" id="RedemptionExecution" style="stroke: #A80036; stroke-width: 1.5;" width="366" x="151.581" y="492"/><rect fill="#FEFEEE" height="23.9688" style="stroke: #A80036; stroke-width: 1.5;" width="366" x="151.581" y="492"/><text fill="#000000" font-family="sans-serif" font-size="12" lengthAdjust="spacingAndGlyphs" textLength="136" x="266.581" y="508.1387">RedemptionExecution</text><line style="stroke: #A80036; stroke-width: 1.5;" x1="152.581" x2="516.581" y1="515.9688" y2="515.9688"/><ellipse cx="162.581" cy="527.8711" fill="#84BE84" rx="3" ry="3" style="stroke: #038048; stroke-width: 1.0;"/><text fill="#000000" font-family="sans-serif" font-size="11" lengthAdjust="spacingAndGlyphs" textLength="122" x="171.581" y="530.1792">RedeemedNetAmount</text><text fill="#000000" font-family="sans-serif" font-size="11" font-style="italic" lengthAdjust="spacingAndGlyphs" textLength="126" x="297.581" y="530.1792">(CurrencyAndAmount)</text><ellipse cx="162.581" cy="540.6758" fill="#84BE84" rx="3" ry="3" style="stroke: #038048; stroke-width: 1.0;"/><text fill="#000000" font-family="sans-serif" font-size="11" lengthAdjust="spacingAndGlyphs" textLength="210" x="171.581" y="542.9839">PartialRedemptionWithholdingAmount</text><text fill="#000000" font-family="sans-serif" font-size="11" font-style="italic" lengthAdjust="spacingAndGlyphs" textLength="126" x="385.581" y="542.9839">(CurrencyAndAmount)</text><ellipse cx="162.581" cy="553.4805" fill="#84BE84" rx="3" ry="3" style="stroke: #038048; stroke-width: 1.0;"/><text fill="#000000" font-family="sans-serif" font-size="11" lengthAdjust="spacingAndGlyphs" textLength="88" x="171.581" y="555.7886">SettlementDate</text><text fill="#000000" font-family="sans-serif" font-size="11" font-style="italic" lengthAdjust="spacingAndGlyphs" textLength="53" x="263.581" y="555.7886">(ISODate)</text></a><!--class SwitchExecutionRedemptionLeg--><a target="_top" xlink:actuate="onRequest" xlink:href="../SwitchExecutionRedemptionLeg.html" xlink:show="new" xlink:title="Execution of the redemption part, in a switch between investment funds or investment fund classes." xlink:type="simple"><rect fill="#FEFECE" filter="url(#fooa3jl6k532l)" height="44.7734" id="SwitchExecutionRedemptionLeg" style="stroke: #A80036; stroke-width: 1.5;" width="347" x="161.331" y="640.5"/><rect fill="#FEFECE" height="23.9688" style="stroke: #A80036; stroke-width: 1.5;" width="347" x="161.331" y="640.5"/><text fill="#000000" font-family="sans-serif" font-size="12" lengthAdjust="spacingAndGlyphs" textLength="198" x="235.831" y="656.6387">SwitchExecutionRedemptionLeg</text><line style="stroke: #A80036; stroke-width: 1.5;" x1="162.331" x2="507.331" y1="664.4688" y2="664.4688"/><ellipse cx="172.331" cy="676.3711" fill="#84BE84" rx="3" ry="3" style="stroke: #038048; stroke-width: 1.0;"/><text fill="#000000" font-family="sans-serif" font-size="11" lengthAdjust="spacingAndGlyphs" textLength="219" x="181.331" y="678.6792">PercentageOfTotalSubscriptionAmount</text><text fill="#000000" font-family="sans-serif" font-size="11" font-style="italic" lengthAdjust="spacingAndGlyphs" textLength="98" x="404.331" y="678.6792">(PercentageRate)</text></a><!--class SecuritiesSettlement--><a target="_top" xlink:actuate="onRequest" xlink:href="../SecuritiesSettlement.html" xlink:show="new" xlink:title="Settlement of the securities in a securities transaction, that is, the instruction to deliver or receive securities, involving the payment of an amount of money or not." xlink:type="simple"><rect fill="#EEEEEE" filter="url(#fooa3jl6k532l)" height="23.9688" id="SecuritiesSettlement" style="stroke: #A80036; stroke-width: 1.5;" width="137" x="1049.33" y="309"/><rect fill="#EEEEEE" height="23.9688" style="stroke: #A80036; stroke-width: 1.5;" width="137" x="1049.33" y="309"/><text fill="#000000" font-family="sans-serif" font-size="12" lengthAdjust="spacingAndGlyphs" textLength="131" x="1052.33" y="325.1387">SecuritiesSettlement</text></a><!--class SecuritiesPricing--><a target="_top" xlink:actuate="onRequest" xlink:href="../SecuritiesPricing.html" xlink:show="new" xlink:title="Characteristics related to the price of the security." xlink:type="simple"><rect fill="#EEEEEE" filter="url(#fooa3jl6k532l)" height="23.9688" id="SecuritiesPricing" style="stroke: #A80036; stroke-width: 1.5;" width="110" x="1157.58" y="651"/><rect fill="#EEEEEE" height="23.9688" style="stroke: #A80036; stroke-width: 1.5;" width="110" x="1157.58" y="651"/><text fill="#000000" font-family="sans-serif" font-size="12" lengthAdjust="spacingAndGlyphs" textLength="104" x="1160.58" y="667.1387">SecuritiesPricing</text></a><!--class SecuritiesQuantity--><a target="_top" xlink:actuate="onRequest" xlink:href="../SecuritiesQuantity.html" xlink:show="new" xlink:title="Quantity of a security." xlink:type="simple"><rect fill="#EEEEEE" filter="url(#fooa3jl6k532l)" height="23.9688" id="SecuritiesQuantity" style="stroke: #A80036; stroke-width: 1.5;" width="120" x="1089.08" y="515"/><rect fill="#EEEEEE" height="23.9688" style="stroke: #A80036; stroke-width: 1.5;" width="120" x="1089.08" y="515"/><text fill="#000000" font-family="sans-serif" font-size="12" lengthAdjust="spacingAndGlyphs" textLength="114" x="1092.08" y="531.1387">SecuritiesQuantity</text></a><!--class SecuritiesTrade--><a target="_top" xlink:actuate="onRequest" xlink:href="../SecuritiesTrade.html" xlink:show="new" xlink:title="Specifies trades linked to securities operations such as the exchange of securities, the lending of securities and the transactions related to investment funds." xlink:type="simple"><rect fill="#EEEEEE" filter="url(#fooa3jl6k532l)" height="23.9688" id="SecuritiesTrade" style="stroke: #A80036; stroke-width: 1.5;" width="104" x="1251.58" y="768"/><rect fill="#EEEEEE" height="23.9688" style="stroke: #A80036; stroke-width: 1.5;" width="104" x="1251.58" y="768"/><text fill="#000000" font-family="sans-serif" font-size="12" lengthAdjust="spacingAndGlyphs" textLength="98" x="1254.58" y="784.1387">SecuritiesTrade</text></a><!--class PaymentObligation--><a target="_top" xlink:actuate="onRequest" xlink:href="../PaymentObligation.html" xlink:show="new" xlink:title="Obligation for the debtor to pay the creditor an amount of cash." xlink:type="simple"><rect fill="#EEEEEE" filter="url(#fooa3jl6k532l)" height="23.9688" id="PaymentObligation" style="stroke: #A80036; stroke-width: 1.5;" width="123" x="1340.33" y="651"/><rect fill="#EEEEEE" height="23.9688" style="stroke: #A80036; stroke-width: 1.5;" width="123" x="1340.33" y="651"/><text fill="#000000" font-family="sans-serif" font-size="12" lengthAdjust="spacingAndGlyphs" textLength="117" x="1343.33" y="667.1387">PaymentObligation</text></a><!--class SecuritiesDeliveryObligation--><a target="_top" xlink:actuate="onRequest" xlink:href="../SecuritiesDeliveryObligation.html" xlink:show="new" xlink:title="Obligation for one party to deliver securities to another party." xlink:type="simple"><rect fill="#EEEEEE" filter="url(#fooa3jl6k532l)" height="23.9688" id="SecuritiesDeliveryObligation" style="stroke: #A80036; stroke-width: 1.5;" width="179" x="1284.33" y="515"/><rect fill="#EEEEEE" height="23.9688" style="stroke: #A80036; stroke-width: 1.5;" width="179" x="1284.33" y="515"/><text fill="#000000" font-family="sans-serif" font-size="12" lengthAdjust="spacingAndGlyphs" textLength="173" x="1287.33" y="531.1387">SecuritiesDeliveryObligation</text></a><!--class InvestmentFundOrder--><a target="_top" xlink:actuate="onRequest" xlink:href="../InvestmentFundOrder.html" xlink:show="new" xlink:title="An investor's instruction to either subscribe or redeem an amount of money or its equivalent, for example other assets, into or out of an investment fund." xlink:type="simple"><rect fill="#EEEEEE" filter="url(#fooa3jl6k532l)" height="23.9688" id="InvestmentFundOrder" style="stroke: #A80036; stroke-width: 1.5;" width="141" x="711.331" y="651"/><rect fill="#EEEEEE" height="23.9688" style="stroke: #A80036; stroke-width: 1.5;" width="141" x="711.331" y="651"/><text fill="#000000" font-family="sans-serif" font-size="12" lengthAdjust="spacingAndGlyphs" textLength="135" x="714.331" y="667.1387">InvestmentFundOrder</text></a><!--class InvestmentFundTransaction--><a target="_top" xlink:actuate="onRequest" xlink:href="../InvestmentFundTransaction.html" xlink:show="new" xlink:title="Process of buying, selling, switching or transferring fund units." xlink:type="simple"><rect fill="#EEEEEE" filter="url(#fooa3jl6k532l)" height="23.9688" id="InvestmentFundTransaction" style="stroke: #A80036; stroke-width: 1.5;" width="180" x="637.581" y="768"/><rect fill="#EEEEEE" height="23.9688" style="stroke: #A80036; stroke-width: 1.5;" width="180" x="637.581" y="768"/><text fill="#000000" font-family="sans-serif" font-size="12" lengthAdjust="spacingAndGlyphs" textLength="174" x="640.581" y="784.1387">InvestmentFundTransaction</text></a><!--class FundsCashFlow--><a target="_top" xlink:actuate="onRequest" xlink:href="../FundsCashFlow.html" xlink:show="new" xlink:title="Cash movements from or to a fund as a result of investment funds transactions, for example, subscriptions or redemptions." xlink:type="simple"><rect fill="#EEEEEE" filter="url(#fooa3jl6k532l)" height="23.9688" id="FundsCashFlow" style="stroke: #A80036; stroke-width: 1.5;" width="102" x="574.081" y="651"/><rect fill="#EEEEEE" height="23.9688" style="stroke: #A80036; stroke-width: 1.5;" width="102" x="574.081" y="651"/><text fill="#000000" font-family="sans-serif" font-size="12" lengthAdjust="spacingAndGlyphs" textLength="96" x="577.081" y="667.1387">FundsCashFlow</text></a><!--entity ##24576--><!--class SwitchExecution--><a target="_top" xlink:actuate="onRequest" xlink:href="../SwitchExecution.html" xlink:show="new" xlink:title="Execution of a switch order." xlink:type="simple"><rect fill="#EEEEEE" filter="url(#fooa3jl6k532l)" height="23.9688" id="SwitchExecution" style="stroke: #A80036; stroke-width: 1.5;" width="107" x="281.331" y="768"/><rect fill="#EEEEEE" height="23.9688" style="stroke: #A80036; stroke-width: 1.5;" width="107" x="281.331" y="768"/><text fill="#000000" font-family="sans-serif" font-size="12" lengthAdjust="spacingAndGlyphs" textLength="101" x="284.331" y="784.1387">SwitchExecution</text></a><!--link SecuritiesTradeExecution to InvestmentFundOrderExecution--><path d="M372.969,169.803 C371.809,188.361 370.55,208.508 369.341,227.841 " fill="none" id="SecuritiesTradeExecution-InvestmentFundOrderExecution" style="stroke: #A80036; stroke-width: 1.0;"/><polygon fill="none" points="365.994,169.178,374.228,149.654,379.967,170.051,365.994,169.178" style="stroke: #A80036; stroke-width: 1.0;"/><!--link InvestmentFundOrderExecution to RedemptionExecution--><path d="M347.662,433.983 C344.667,455.053 341.753,475.549 339.439,491.829 " fill="none" id="InvestmentFundOrderExecution-RedemptionExecution" style="stroke: #A80036; stroke-width: 1.0;"/><polygon fill="none" points="340.736,432.968,350.481,414.152,354.597,434.938,340.736,432.968" style="stroke: #A80036; stroke-width: 1.0;"/><!--link RedemptionExecution to SwitchExecutionRedemptionLeg--><path d="M334.581,582.473 C334.581,602.839 334.581,624.806 334.581,640.481 " fill="none" id="RedemptionExecution-SwitchExecutionRedemptionLeg" style="stroke: #A80036; stroke-width: 1.0;"/><polygon fill="none" points="327.582,582.161,334.581,562.161,341.582,582.161,327.582,582.161" style="stroke: #A80036; stroke-width: 1.0;"/><!--link SecuritiesPricing to SecuritiesSettlement--><!--link SecuritiesQuantity to SecuritiesPricing--><!--link SecuritiesTrade to SecuritiesQuantity--><!--link SecuritiesQuantity to SecuritiesTrade--><path d="M1141.01,539.248 C1129.57,556.981 1108.4,592.932 1100.58,627 C1092.33,662.953 1079.1,680.011 1100.58,710 C1133.42,755.8398 1198.47,771.5901 1246.12,776.81 " fill="none" id="SecuritiesQuantity-SecuritiesTrade" style="stroke: #A80036; stroke-width: 1.0;"/><polygon fill="#A80036" points="1251.25,777.3396,1242.7091,772.4351,1246.2765,776.8253,1241.8863,780.3927,1251.25,777.3396" style="stroke: #A80036; stroke-width: 1.0;"/><text fill="#000000" font-family="sans-serif" font-size="13" lengthAdjust="spacingAndGlyphs" textLength="36" x="1101.58" y="667.0669">Trade</text><text fill="#000000" font-family="sans-serif" font-size="13" lengthAdjust="spacingAndGlyphs" textLength="24" x="1219.5128" y="789.914">0..1</text><!--link PaymentObligation to SecuritiesTrade--><!--link SecuritiesDeliveryObligation to PaymentObligation--><!--link InvestmentFundTransaction to InvestmentFundOrder--><!--link InvestmentFundOrder to InvestmentFundTransaction--><path d="M743.725,675.066 C722.916,683.3 698.889,696.847 686.581,718 C677.02,734.4325 692.476,752.3997 707.068,764.5492 " fill="none" id="InvestmentFundOrder-InvestmentFundTransaction" style="stroke: #A80036; stroke-width: 1.0;"/><polygon fill="#A80036" points="711.139,767.8156,706.6218,759.0637,707.2389,764.6868,701.6158,765.3039,711.139,767.8156" style="stroke: #A80036; stroke-width: 1.0;"/><text fill="#000000" font-family="sans-serif" font-size="13" lengthAdjust="spacingAndGlyphs" textLength="122" x="687.581" y="731.0669">RelatedTransaction</text><text fill="#000000" font-family="sans-serif" font-size="13" lengthAdjust="spacingAndGlyphs" textLength="24" x="676.3863" y="757.058">0..1</text><!--link FundsCashFlow to InvestmentFundTransaction--><!--link SecuritiesTradeExecution to SecuritiesSettlement--><path d="M517.64,138.396 C689.431,190.398 970.791,275.566 1076.09,307.439 " fill="none" id="SecuritiesTradeExecution-SecuritiesSettlement" style="stroke: #A80036; stroke-width: 1.0;"/><polygon fill="#A80036" points="1080.97,308.916,1073.5259,302.4673,1076.1869,307.4592,1071.195,310.1203,1080.97,308.916" style="stroke: #A80036; stroke-width: 1.0;"/><text fill="#000000" font-family="sans-serif" font-size="13" lengthAdjust="spacingAndGlyphs" textLength="135" x="704.581" y="193.0669">SecuritiesSettlement</text><text fill="#000000" font-family="sans-serif" font-size="13" lengthAdjust="spacingAndGlyphs" textLength="7" x="1058.7525" y="297.9353">*</text><!--link SecuritiesTradeExecution to SecuritiesPricing--><path d="M517.807,99.759 C834.647,109.739 1583.99,142.257 1656.58,228 C1710,291.091 1691.58,339.109 1656.58,414 C1613.16,506.898 1568.19,510.393 1479.58,562 C1439.56,585.308 1315.39,627.971 1251.47,649.241 " fill="none" id="SecuritiesTradeExecution-SecuritiesPricing" style="stroke: #A80036; stroke-width: 1.0;"/><polygon fill="#A80036" points="1246.6,650.859,1256.4038,651.7997,1251.3421,649.274,1253.8678,644.2123,1246.6,650.859" style="stroke: #A80036; stroke-width: 1.0;"/><text fill="#000000" font-family="sans-serif" font-size="13" lengthAdjust="spacingAndGlyphs" textLength="60" x="1641.58" y="457.0669">DealPrice</text><text fill="#000000" font-family="sans-serif" font-size="13" lengthAdjust="spacingAndGlyphs" textLength="8" x="1247.5756" y="639.8587">1</text><!--link SecuritiesTradeExecution to SecuritiesQuantity--><path d="M517.955,102.417 C724.773,114.489 1098.18,147.081 1202.58,228 C1273.85,283.237 1227.24,343.602 1283.58,414 C1301.11,435.905 1340.68,439.02 1324.58,462 C1316.58,473.425 1240.22,498.291 1190.74,513.445 " fill="none" id="SecuritiesTradeExecution-SecuritiesQuantity" style="stroke: #A80036; stroke-width: 1.0;"/><polygon fill="#A80036" points="1185.74,514.971,1195.5152,516.1736,1190.5228,513.5134,1193.183,508.5211,1185.74,514.971" style="stroke: #A80036; stroke-width: 1.0;"/><text fill="#000000" font-family="sans-serif" font-size="13" lengthAdjust="spacingAndGlyphs" textLength="149" x="1284.58" y="325.0669">ExecutedTradeQuantity</text><text fill="#000000" font-family="sans-serif" font-size="13" lengthAdjust="spacingAndGlyphs" textLength="7" x="1188.795" y="504.0092">*</text><!--link SecuritiesTradeExecution to SecuritiesTrade--><path d="M517.763,98.073 C803.826,103.467 1445.61,121.844 1656.58,180 C1788.42,216.341 1930.58,183.247 1930.58,320 C1930.58,320 1930.58,320 1930.58,664 C1930.58,721.592 1516.04,761.5588 1361.09,774.486 " fill="none" id="SecuritiesTradeExecution-SecuritiesTrade" style="stroke: #A80036; stroke-width: 1.0;"/><polygon fill="#A80036" points="1355.69,774.9345,1364.9905,778.175,1360.6728,774.5202,1364.3276,770.2025,1355.69,774.9345" style="stroke: #A80036; stroke-width: 1.0;"/><text fill="#000000" font-family="sans-serif" font-size="13" lengthAdjust="spacingAndGlyphs" textLength="84" x="1931.58" y="531.0669">RelatedTrade</text><text fill="#000000" font-family="sans-serif" font-size="13" lengthAdjust="spacingAndGlyphs" textLength="8" x="1363.5805" y="769.1053">1</text><!--link SecuritiesTradeExecution to PaymentObligation--><path d="M517.743,99.379 C792.743,107.043 1393.61,129.18 1593.58,180 C1643.31,192.639 1669.56,185.682 1698.58,228 C1757.49,313.905 1760.01,369.78 1711.58,462 C1655.9,568.047 1516.14,625.886 1444.85,649.359 " fill="none" id="SecuritiesTradeExecution-PaymentObligation" style="stroke: #A80036; stroke-width: 1.0;"/><polygon fill="#A80036" points="1439.84,650.99,1449.6351,652.0175,1444.596,649.4471,1447.1664,644.4079,1439.84,650.99" style="stroke: #A80036; stroke-width: 1.0;"/><text fill="#000000" font-family="sans-serif" font-size="13" lengthAdjust="spacingAndGlyphs" textLength="121" x="1720.58" y="457.0669">PaymentObligation</text><text fill="#000000" font-family="sans-serif" font-size="13" lengthAdjust="spacingAndGlyphs" textLength="7" x="1443.3591" y="640.0348">*</text><!--link SecuritiesTradeExecution to SecuritiesDeliveryObligation--><path d="M517.643,103.031 C792.459,118.292 1380.83,158.762 1439.58,228 C1512.49,313.915 1418.74,462.706 1384.89,510.644 " fill="none" id="SecuritiesTradeExecution-SecuritiesDeliveryObligation" style="stroke: #A80036; stroke-width: 1.0;"/><polygon fill="#A80036" points="1381.81,514.962,1390.2918,509.956,1384.7127,510.8908,1383.7779,505.3117,1381.81,514.962" style="stroke: #A80036; stroke-width: 1.0;"/><text fill="#000000" font-family="sans-serif" font-size="13" lengthAdjust="spacingAndGlyphs" textLength="178" x="1468.58" y="325.0669">SecuritiesDeliveryObligation</text><text fill="#000000" font-family="sans-serif" font-size="13" lengthAdjust="spacingAndGlyphs" textLength="7" x="1375.0063" y="503.9972">*</text><!--link InvestmentFundOrderExecution to SecuritiesQuantity--><path d="M517.779,351.603 C629.284,374.079 783.157,407.302 916.581,444 C989.508,464.058 1072.53,495.593 1116.8,513.136 " fill="none" id="InvestmentFundOrderExecution-SecuritiesQuantity" style="stroke: #A80036; stroke-width: 1.0;"/><polygon fill="#A80036" points="1121.49,514.997,1114.5983,507.961,1116.8421,513.1539,1111.6493,515.3976,1121.49,514.997" style="stroke: #A80036; stroke-width: 1.0;"/><text fill="#000000" font-family="sans-serif" font-size="13" lengthAdjust="spacingAndGlyphs" textLength="85" x="976.581" y="457.0669">UnitsNumber</text><text fill="#000000" font-family="sans-serif" font-size="13" lengthAdjust="spacingAndGlyphs" textLength="8" x="1101.2872" y="504.0442">1</text><!--link InvestmentFundOrderExecution to InvestmentFundOrder--><path d="M517.586,378.195 C568.14,404.681 618.92,441.771 648.581,492 C661.923,514.592 637.535,588.506 652.581,610 C654.052,612.1 710.372,634.31 748.102,649.016 " fill="none" id="InvestmentFundOrderExecution-InvestmentFundOrder" style="stroke: #A80036; stroke-width: 1.0;"/><polygon fill="#A80036" points="753.065,650.949,746.132,643.9537,748.4063,649.1333,743.2268,651.4076,753.065,650.949" style="stroke: #A80036; stroke-width: 1.0;"/><text fill="#000000" font-family="sans-serif" font-size="13" lengthAdjust="spacingAndGlyphs" textLength="36" x="654.581" y="531.0669">Order</text><text fill="#000000" font-family="sans-serif" font-size="13" lengthAdjust="spacingAndGlyphs" textLength="24" x="713.7079" y="639.9797">0..1</text><!--link InvestmentFundOrderExecution to SecuritiesPricing--><path d="M517.626,330.669 C622.862,343.145 761.087,373.016 862.581,444 C914.3,480.171 892.443,522.394 941.581,562 C969.855,584.789 983.887,578.458 1017.58,592 C1037.19,599.879 1041.35,603.923 1061.58,610 C1098.9,621.206 1110.91,613.84 1147.58,627 C1162.73,632.436 1178.66,640.961 1190.95,648.236 " fill="none" id="InvestmentFundOrderExecution-SecuritiesPricing" style="stroke: #A80036; stroke-width: 1.0;"/><polygon fill="#A80036" points="1195.31,650.852,1189.6505,642.7916,1191.0225,648.2795,1185.5346,649.6515,1195.31,650.852" style="stroke: #A80036; stroke-width: 1.0;"/><text fill="#000000" font-family="sans-serif" font-size="13" lengthAdjust="spacingAndGlyphs" textLength="126" x="942.581" y="531.0669">ExecutedTradePrice</text><text fill="#000000" font-family="sans-serif" font-size="13" lengthAdjust="spacingAndGlyphs" textLength="8" x="1178.6547" y="639.8493">1</text><!--link InvestmentFundOrderExecution to SecuritiesPricing--><path d="M209.455,367.682 C88.7306,410.949 -47.2497,481.201 27.5815,562 C112.283,653.456 1027.25,594.456 1147.58,627 C1163.67,631.351 1180.18,640.312 1192.54,648.077 " fill="none" id="InvestmentFundOrderExecution-SecuritiesPricing" style="stroke: #A80036; stroke-width: 1.0;"/><polygon fill="#A80036" points="1196.9,650.873,1191.4848,642.6465,1192.6916,648.1731,1187.165,649.3799,1196.9,650.873" style="stroke: #A80036; stroke-width: 1.0;"/><text fill="#000000" font-family="sans-serif" font-size="13" lengthAdjust="spacingAndGlyphs" textLength="103" x="28.5815" y="531.0669">InformativePrice</text><text fill="#000000" font-family="sans-serif" font-size="13" lengthAdjust="spacingAndGlyphs" textLength="8" x="1192.885" y="639.8776">1</text><!--link InvestmentFundOrderExecution to InvestmentFundTransaction--><path d="M517.599,378.454 C560.414,396.83 605.995,419.02 645.581,444 C738.726,502.778 737.212,550.012 829.581,610 C845.439,620.299 858.221,611.182 868.581,627 C888.793,657.859 885.588,677.265 868.581,710 C853.197,739.6135 820.271,756.684 790.104,766.4354 " fill="none" id="InvestmentFundOrderExecution-InvestmentFundTransaction" style="stroke: #A80036; stroke-width: 1.0;"/><polygon fill="#A80036" points="785.289,767.9384,795.0721,769.0748,790.0618,766.4484,792.6882,761.4382,785.289,767.9384" style="stroke: #A80036; stroke-width: 1.0;"/><text fill="#000000" font-family="sans-serif" font-size="13" lengthAdjust="spacingAndGlyphs" textLength="177" x="830.581" y="605.0669">InvestmentFundTransaction</text><text fill="#000000" font-family="sans-serif" font-size="13" lengthAdjust="spacingAndGlyphs" textLength="24" x="775.6574" y="756.9654">0..1</text><!--link InvestmentFundOrderExecution to FundsCashFlow--><path d="M466.653,414.415 C490.471,438.398 514.646,465.091 534.581,492 C573.265,544.215 605.14,615.273 618.207,646.36 " fill="none" id="InvestmentFundOrderExecution-FundsCashFlow" style="stroke: #A80036; stroke-width: 1.0;"/><polygon fill="#A80036" points="620.141,650.997,620.3672,641.1507,618.2158,646.3825,612.984,644.2311,620.141,650.997" style="stroke: #A80036; stroke-width: 1.0;"/><text fill="#000000" font-family="sans-serif" font-size="13" lengthAdjust="spacingAndGlyphs" textLength="59" x="579.581" y="531.0669">CashFlow</text><text fill="#000000" font-family="sans-serif" font-size="13" lengthAdjust="spacingAndGlyphs" textLength="7" x="608.896" y="640.0442">*</text><!--link SwitchExecutionRedemptionLeg to SwitchExecution--><path d="M334.581,685.631 C334.581,708.088 334.581,742.699 334.581,762.8715 " fill="none" id="SwitchExecutionRedemptionLeg-SwitchExecution" style="stroke: #A80036; stroke-width: 1.0;"/><polygon fill="#A80036" points="334.581,767.9146,338.581,758.9146,334.581,762.9146,330.581,758.9146,334.581,767.9146" style="stroke: #A80036; stroke-width: 1.0;"/><text fill="#000000" font-family="sans-serif" font-size="13" lengthAdjust="spacingAndGlyphs" textLength="151" x="335.581" y="731.0669">RelatedSwitchExecution</text><text fill="#000000" font-family="sans-serif" font-size="13" lengthAdjust="spacingAndGlyphs" textLength="24" x="305.0263" y="756.9335">0..1</text><!--link SecuritiesSettlement to SecuritiesQuantity--><path d="M1109.7,333.266 C1093.77,357.546 1060.84,416.306 1080.58,462 C1089.75,483.221 1109.8,500.658 1125.77,511.942 " fill="none" id="SecuritiesSettlement-SecuritiesQuantity" style="stroke: #A80036; stroke-width: 1.0;"/><polygon fill="#A80036" points="1130.15,514.96,1125.0154,506.5555,1126.0351,512.1197,1120.4709,513.1393,1130.15,514.96" style="stroke: #A80036; stroke-width: 1.0;"/><text fill="#000000" font-family="sans-serif" font-size="13" lengthAdjust="spacingAndGlyphs" textLength="126" x="1081.58" y="457.0669">SettlementQuantity</text><text fill="#000000" font-family="sans-serif" font-size="13" lengthAdjust="spacingAndGlyphs" textLength="8" x="1112.9241" y="503.9945">1</text><!--link SecuritiesSettlement to SecuritiesQuantity--><path d="M1130.79,333.116 C1153,352.768 1197,396.12 1213.58,444 C1223.17,471.681 1194.89,497.024 1172.64,511.992 " fill="none" id="SecuritiesSettlement-SecuritiesQuantity" style="stroke: #A80036; stroke-width: 1.0;"/><polygon fill="#A80036" points="1168.29,514.845,1178.0096,513.2548,1172.4712,512.1032,1173.6228,506.5648,1168.29,514.845" style="stroke: #A80036; stroke-width: 1.0;"/><text fill="#000000" font-family="sans-serif" font-size="13" lengthAdjust="spacingAndGlyphs" textLength="98" x="1216.58" y="457.0669">TurnedQuantity</text><text fill="#000000" font-family="sans-serif" font-size="13" lengthAdjust="spacingAndGlyphs" textLength="8" x="1164.1747" y="503.8399">1</text><!--link SecuritiesPricing to SecuritiesTrade--><path d="M1204.16,675.181 C1193.97,690.196 1179.68,717.163 1192.58,736 C1204.91,753.9939 1225.94,764.4597 1246.4,770.5463 " fill="none" id="SecuritiesPricing-SecuritiesTrade" style="stroke: #A80036; stroke-width: 1.0;"/><polygon fill="#A80036" points="1251.3,771.9273,1243.7234,765.6348,1246.4877,770.5703,1241.5522,773.3346,1251.3,771.9273" style="stroke: #A80036; stroke-width: 1.0;"/><text fill="#000000" font-family="sans-serif" font-size="13" lengthAdjust="spacingAndGlyphs" textLength="99" x="1193.58" y="731.0669">SecuritiesTrade</text><text fill="#000000" font-family="sans-serif" font-size="13" lengthAdjust="spacingAndGlyphs" textLength="24" x="1219.568" y="766.2936">0..1</text><!--link SecuritiesQuantity to InvestmentFundOrder--><path d="M1135.42,539.158 C1113.76,556.923 1068.6,591.515 1024.58,610 C970.837,632.567 906.136,645.798 857.014,653.261 " fill="none" id="SecuritiesQuantity-InvestmentFundOrder" style="stroke: #A80036; stroke-width: 1.0;"/><polygon fill="#A80036" points="852.009,654.01,861.5018,656.6342,856.954,653.2701,860.318,648.7222,852.009,654.01" style="stroke: #A80036; stroke-width: 1.0;"/><text fill="#000000" font-family="sans-serif" font-size="13" lengthAdjust="spacingAndGlyphs" textLength="36" x="1058.58" y="605.0669">Order</text><text fill="#000000" font-family="sans-serif" font-size="13" lengthAdjust="spacingAndGlyphs" textLength="8" x="860.1222" y="648.1729">1</text><!--link SecuritiesQuantity to FundsCashFlow--><path d="M1125.54,539.154 C1108.34,546.946 1084.02,556.843 1061.58,562 C979.458,580.872 758.523,553.475 683.581,592 C660.195,604.022 642.394,629.742 632.727,646.433 " fill="none" id="SecuritiesQuantity-FundsCashFlow" style="stroke: #A80036; stroke-width: 1.0;"/><polygon fill="#A80036" points="630.218,650.883,638.1224,645.0076,632.6736,646.5275,631.1537,641.0787,630.218,650.883" style="stroke: #A80036; stroke-width: 1.0;"/><text fill="#000000" font-family="sans-serif" font-size="13" lengthAdjust="spacingAndGlyphs" textLength="107" x="684.581" y="605.0669">RelatedCashFlow</text><text fill="#000000" font-family="sans-serif" font-size="13" lengthAdjust="spacingAndGlyphs" textLength="8" x="621.2651" y="639.891">1</text></g></svg>