<?xml version="1.0" encoding="UTF-8" standalone="no"?><svg xmlns="http://www.w3.org/2000/svg" xmlns:xlink="http://www.w3.org/1999/xlink" contentScriptType="application/ecmascript" contentStyleType="text/css" height="734px" preserveAspectRatio="none" style="width:1993px;height:734px;" version="1.1" viewBox="0 0 1993 734" width="1993px" zoomAndPan="magnify"><defs><filter height="300%" id="f1sdl0o6ezy01b" width="300%" x="-1" y="-1"><feGaussianBlur result="blurOut" stdDeviation="2.0"/><feColorMatrix in="blurOut" result="blurOut2" type="matrix" values="0 0 0 0 0 0 0 0 0 0 0 0 0 0 0 0 0 0 .4 0"/><feOffset dx="4.0" dy="4.0" in="blurOut2" result="blurOut3"/><feBlend in="SourceGraphic" in2="blurOut3" mode="normal"/></filter></defs><g><!--cluster ##16027--><!--cluster ##16036--><!--cluster ##16049--><!--cluster ##16056--><!--class SecuritiesTradeExecution--><a target="_top" xlink:actuate="onRequest" xlink:href="../SecuritiesTradeExecution.html" xlink:show="new" xlink:title="Transaction between two counterparties in which they agree to buy and sell a financial instrument. A trade transaction occurs with the matching of the two counterparties orders. There could be several trade transactions necessary to execute the trade." xlink:type="simple"><rect fill="#FEFEEE" filter="url(#f1sdl0o6ezy01b)" height="108.7969" id="SecuritiesTradeExecution" style="stroke: #A80036; stroke-width: 1.5;" width="280" x="397" y="40.5"/><rect fill="#FEFEEE" height="23.9688" style="stroke: #A80036; stroke-width: 1.5;" width="280" x="397" y="40.5"/><text fill="#000000" font-family="sans-serif" font-size="12" lengthAdjust="spacingAndGlyphs" textLength="159" x="457.5" y="56.6387">SecuritiesTradeExecution</text><line style="stroke: #A80036; stroke-width: 1.5;" x1="398" x2="676" y1="64.4688" y2="64.4688"/><ellipse cx="408" cy="76.3711" fill="#84BE84" rx="3" ry="3" style="stroke: #038048; stroke-width: 1.0;"/><text fill="#000000" font-family="sans-serif" font-size="11" lengthAdjust="spacingAndGlyphs" textLength="111" x="417" y="78.6792">StampDutyIndicator</text><text fill="#000000" font-family="sans-serif" font-size="11" font-style="italic" lengthAdjust="spacingAndGlyphs" textLength="92" x="532" y="78.6792">(YesNoIndicator)</text><ellipse cx="408" cy="89.1758" fill="#84BE84" rx="3" ry="3" style="stroke: #038048; stroke-width: 1.0;"/><text fill="#000000" font-family="sans-serif" font-size="11" lengthAdjust="spacingAndGlyphs" textLength="108" x="417" y="91.4839">ProcessingPosition</text><text fill="#000000" font-family="sans-serif" font-size="11" font-style="italic" lengthAdjust="spacingAndGlyphs" textLength="142" x="529" y="91.4839">(ProcessingPositionCode)</text><ellipse cx="408" cy="101.9805" fill="#84BE84" rx="3" ry="3" style="stroke: #038048; stroke-width: 1.0;"/><text fill="#000000" font-family="sans-serif" font-size="11" lengthAdjust="spacingAndGlyphs" textLength="81" x="417" y="104.2886">MarginAmount</text><text fill="#000000" font-family="sans-serif" font-size="11" font-style="italic" lengthAdjust="spacingAndGlyphs" textLength="126" x="502" y="104.2886">(CurrencyAndAmount)</text><ellipse cx="408" cy="114.7852" fill="#84BE84" rx="3" ry="3" style="stroke: #038048; stroke-width: 1.0;"/><text fill="#000000" font-family="sans-serif" font-size="11" lengthAdjust="spacingAndGlyphs" textLength="97" x="417" y="117.0933">OffMarketReason</text><text fill="#000000" font-family="sans-serif" font-size="11" font-style="italic" lengthAdjust="spacingAndGlyphs" textLength="92" x="518" y="117.0933">(OffMarketCode)</text><ellipse cx="408" cy="127.5898" fill="#84BE84" rx="3" ry="3" style="stroke: #038048; stroke-width: 1.0;"/><text fill="#000000" font-family="sans-serif" font-size="11" lengthAdjust="spacingAndGlyphs" textLength="122" x="417" y="129.8979">DealExecutionAmount</text><text fill="#000000" font-family="sans-serif" font-size="11" font-style="italic" lengthAdjust="spacingAndGlyphs" textLength="126" x="543" y="129.8979">(CurrencyAndAmount)</text><ellipse cx="408" cy="140.3945" fill="#84BE84" rx="3" ry="3" style="stroke: #038048; stroke-width: 1.0;"/><text fill="#000000" font-family="sans-serif" font-size="11" lengthAdjust="spacingAndGlyphs" textLength="81" x="417" y="142.7026">ReportingType</text><text fill="#000000" font-family="sans-serif" font-size="11" font-style="italic" lengthAdjust="spacingAndGlyphs" textLength="92" x="502" y="142.7026">(ReportingCode)</text></a><!--class InvestmentFundOrderExecution--><a target="_top" xlink:actuate="onRequest" xlink:href="../InvestmentFundOrderExecution.html" xlink:show="new" xlink:title="Creation/cancellation of investment units on the books of the fund or its designated agent, as a result of executing an investment fund order." xlink:type="simple"><rect fill="#FEFEEE" filter="url(#f1sdl0o6ezy01b)" height="185.625" id="InvestmentFundOrderExecution" style="stroke: #A80036; stroke-width: 1.5;" width="308" x="369" y="228"/><rect fill="#FEFEEE" height="23.9688" style="stroke: #A80036; stroke-width: 1.5;" width="308" x="369" y="228"/><text fill="#000000" font-family="sans-serif" font-size="12" lengthAdjust="spacingAndGlyphs" textLength="196" x="425" y="244.1387">InvestmentFundOrderExecution</text><line style="stroke: #A80036; stroke-width: 1.5;" x1="370" x2="676" y1="251.9688" y2="251.9688"/><ellipse cx="380" cy="263.8711" fill="#84BE84" rx="3" ry="3" style="stroke: #038048; stroke-width: 1.0;"/><text fill="#000000" font-family="sans-serif" font-size="11" lengthAdjust="spacingAndGlyphs" textLength="201" x="389" y="266.1792">NonStandardSettlementInformation</text><text fill="#000000" font-family="sans-serif" font-size="11" font-style="italic" lengthAdjust="spacingAndGlyphs" textLength="77" x="594" y="266.1792">(Max350Text)</text><ellipse cx="380" cy="276.6758" fill="#84BE84" rx="3" ry="3" style="stroke: #038048; stroke-width: 1.0;"/><text fill="#000000" font-family="sans-serif" font-size="11" lengthAdjust="spacingAndGlyphs" textLength="97" x="389" y="278.9839">DealIdentification</text><text fill="#000000" font-family="sans-serif" font-size="11" font-style="italic" lengthAdjust="spacingAndGlyphs" textLength="70" x="490" y="278.9839">(Max35Text)</text><ellipse cx="380" cy="289.4805" fill="#84BE84" rx="3" ry="3" style="stroke: #038048; stroke-width: 1.0;"/><text fill="#000000" font-family="sans-serif" font-size="11" lengthAdjust="spacingAndGlyphs" textLength="145" x="389" y="291.7886">PartiallyExecutedIndicator</text><text fill="#000000" font-family="sans-serif" font-size="11" font-style="italic" lengthAdjust="spacingAndGlyphs" textLength="92" x="538" y="291.7886">(YesNoIndicator)</text><ellipse cx="380" cy="302.2852" fill="#84BE84" rx="3" ry="3" style="stroke: #038048; stroke-width: 1.0;"/><text fill="#000000" font-family="sans-serif" font-size="11" lengthAdjust="spacingAndGlyphs" textLength="113" x="389" y="304.5933">InterimProfitAmount</text><text fill="#000000" font-family="sans-serif" font-size="11" font-style="italic" lengthAdjust="spacingAndGlyphs" textLength="126" x="506" y="304.5933">(CurrencyAndAmount)</text><ellipse cx="380" cy="315.0898" fill="#84BE84" rx="3" ry="3" style="stroke: #038048; stroke-width: 1.0;"/><text fill="#000000" font-family="sans-serif" font-size="11" lengthAdjust="spacingAndGlyphs" textLength="80" x="389" y="317.3979">BestExecution</text><text fill="#000000" font-family="sans-serif" font-size="11" font-style="italic" lengthAdjust="spacingAndGlyphs" textLength="117" x="473" y="317.3979">(BestExecutionCode)</text><ellipse cx="380" cy="327.8945" fill="#84BE84" rx="3" ry="3" style="stroke: #038048; stroke-width: 1.0;"/><text fill="#000000" font-family="sans-serif" font-size="11" lengthAdjust="spacingAndGlyphs" textLength="140" x="389" y="330.2026">PartialSettlementOfUnits</text><text fill="#000000" font-family="sans-serif" font-size="11" font-style="italic" lengthAdjust="spacingAndGlyphs" textLength="98" x="533" y="330.2026">(PercentageRate)</text><ellipse cx="380" cy="340.6992" fill="#84BE84" rx="3" ry="3" style="stroke: #038048; stroke-width: 1.0;"/><text fill="#000000" font-family="sans-serif" font-size="11" lengthAdjust="spacingAndGlyphs" textLength="140" x="389" y="343.0073">PartialSettlementOfCash</text><text fill="#000000" font-family="sans-serif" font-size="11" font-style="italic" lengthAdjust="spacingAndGlyphs" textLength="98" x="533" y="343.0073">(PercentageRate)</text><ellipse cx="380" cy="353.5039" fill="#84BE84" rx="3" ry="3" style="stroke: #038048; stroke-width: 1.0;"/><text fill="#000000" font-family="sans-serif" font-size="11" lengthAdjust="spacingAndGlyphs" textLength="61" x="389" y="355.812">LateReport</text><text fill="#000000" font-family="sans-serif" font-size="11" font-style="italic" lengthAdjust="spacingAndGlyphs" textLength="99" x="454" y="355.812">(LateReportCode)</text><ellipse cx="380" cy="366.3086" fill="#84BE84" rx="3" ry="3" style="stroke: #038048; stroke-width: 1.0;"/><text fill="#000000" font-family="sans-serif" font-size="11" lengthAdjust="spacingAndGlyphs" textLength="89" x="389" y="368.6167">SettledIndicator</text><text fill="#000000" font-family="sans-serif" font-size="11" font-style="italic" lengthAdjust="spacingAndGlyphs" textLength="92" x="482" y="368.6167">(YesNoIndicator)</text><ellipse cx="380" cy="379.1133" fill="#84BE84" rx="3" ry="3" style="stroke: #038048; stroke-width: 1.0;"/><text fill="#000000" font-family="sans-serif" font-size="11" lengthAdjust="spacingAndGlyphs" textLength="110" x="389" y="381.4214">RegisteredIndicator</text><text fill="#000000" font-family="sans-serif" font-size="11" font-style="italic" lengthAdjust="spacingAndGlyphs" textLength="92" x="503" y="381.4214">(YesNoIndicator)</text><ellipse cx="380" cy="391.918" fill="#84BE84" rx="3" ry="3" style="stroke: #038048; stroke-width: 1.0;"/><text fill="#000000" font-family="sans-serif" font-size="11" lengthAdjust="spacingAndGlyphs" textLength="94" x="389" y="394.2261">ExecutedAmount</text><text fill="#000000" font-family="sans-serif" font-size="11" font-style="italic" lengthAdjust="spacingAndGlyphs" textLength="126" x="487" y="394.2261">(CurrencyAndAmount)</text><ellipse cx="380" cy="404.7227" fill="#84BE84" rx="3" ry="3" style="stroke: #038048; stroke-width: 1.0;"/><text fill="#000000" font-family="sans-serif" font-size="11" lengthAdjust="spacingAndGlyphs" textLength="82" x="389" y="407.0308">SourceOfCash</text><text fill="#000000" font-family="sans-serif" font-size="11" font-style="italic" lengthAdjust="spacingAndGlyphs" textLength="117" x="475" y="407.0308">(SourceOfCashCode)</text></a><!--class SwitchExecution--><a target="_top" xlink:actuate="onRequest" xlink:href="../SwitchExecution.html" xlink:show="new" xlink:title="Execution of a switch order." xlink:type="simple"><rect fill="#FEFECE" filter="url(#f1sdl0o6ezy01b)" height="23.9688" id="SwitchExecution" style="stroke: #A80036; stroke-width: 1.5;" width="107" x="368.75" y="492"/><rect fill="#FEFECE" height="23.9688" style="stroke: #A80036; stroke-width: 1.5;" width="107" x="368.75" y="492"/><text fill="#000000" font-family="sans-serif" font-size="12" lengthAdjust="spacingAndGlyphs" textLength="101" x="371.75" y="508.1387">SwitchExecution</text></a><!--class SecuritiesSettlement--><a target="_top" xlink:actuate="onRequest" xlink:href="../SecuritiesSettlement.html" xlink:show="new" xlink:title="Settlement of the securities in a securities transaction, that is, the instruction to deliver or receive securities, involving the payment of an amount of money or not." xlink:type="simple"><rect fill="#EEEEEE" filter="url(#f1sdl0o6ezy01b)" height="23.9688" id="SecuritiesSettlement" style="stroke: #A80036; stroke-width: 1.5;" width="137" x="1014.75" y="309"/><rect fill="#EEEEEE" height="23.9688" style="stroke: #A80036; stroke-width: 1.5;" width="137" x="1014.75" y="309"/><text fill="#000000" font-family="sans-serif" font-size="12" lengthAdjust="spacingAndGlyphs" textLength="131" x="1017.75" y="325.1387">SecuritiesSettlement</text></a><!--class SecuritiesPricing--><a target="_top" xlink:actuate="onRequest" xlink:href="../SecuritiesPricing.html" xlink:show="new" xlink:title="Characteristics related to the price of the security." xlink:type="simple"><rect fill="#EEEEEE" filter="url(#f1sdl0o6ezy01b)" height="23.9688" id="SecuritiesPricing" style="stroke: #A80036; stroke-width: 1.5;" width="110" x="1160" y="598"/><rect fill="#EEEEEE" height="23.9688" style="stroke: #A80036; stroke-width: 1.5;" width="110" x="1160" y="598"/><text fill="#000000" font-family="sans-serif" font-size="12" lengthAdjust="spacingAndGlyphs" textLength="104" x="1163" y="614.1387">SecuritiesPricing</text></a><!--class SecuritiesQuantity--><a target="_top" xlink:actuate="onRequest" xlink:href="../SecuritiesQuantity.html" xlink:show="new" xlink:title="Quantity of a security." xlink:type="simple"><rect fill="#EEEEEE" filter="url(#f1sdl0o6ezy01b)" height="23.9688" id="SecuritiesQuantity" style="stroke: #A80036; stroke-width: 1.5;" width="120" x="1057.5" y="492"/><rect fill="#EEEEEE" height="23.9688" style="stroke: #A80036; stroke-width: 1.5;" width="120" x="1057.5" y="492"/><text fill="#000000" font-family="sans-serif" font-size="12" lengthAdjust="spacingAndGlyphs" textLength="114" x="1060.5" y="508.1387">SecuritiesQuantity</text></a><!--class SecuritiesTrade--><a target="_top" xlink:actuate="onRequest" xlink:href="../SecuritiesTrade.html" xlink:show="new" xlink:title="Specifies trades linked to securities operations such as the exchange of securities, the lending of securities and the transactions related to investment funds." xlink:type="simple"><rect fill="#EEEEEE" filter="url(#f1sdl0o6ezy01b)" height="23.9688" id="SecuritiesTrade" style="stroke: #A80036; stroke-width: 1.5;" width="104" x="1163" y="700"/><rect fill="#EEEEEE" height="23.9688" style="stroke: #A80036; stroke-width: 1.5;" width="104" x="1163" y="700"/><text fill="#000000" font-family="sans-serif" font-size="12" lengthAdjust="spacingAndGlyphs" textLength="98" x="1166" y="716.1387">SecuritiesTrade</text></a><!--class PaymentObligation--><a target="_top" xlink:actuate="onRequest" xlink:href="../PaymentObligation.html" xlink:show="new" xlink:title="Obligation for the debtor to pay the creditor an amount of cash." xlink:type="simple"><rect fill="#EEEEEE" filter="url(#f1sdl0o6ezy01b)" height="23.9688" id="PaymentObligation" style="stroke: #A80036; stroke-width: 1.5;" width="123" x="1305.75" y="598"/><rect fill="#EEEEEE" height="23.9688" style="stroke: #A80036; stroke-width: 1.5;" width="123" x="1305.75" y="598"/><text fill="#000000" font-family="sans-serif" font-size="12" lengthAdjust="spacingAndGlyphs" textLength="117" x="1308.75" y="614.1387">PaymentObligation</text></a><!--class SecuritiesDeliveryObligation--><a target="_top" xlink:actuate="onRequest" xlink:href="../SecuritiesDeliveryObligation.html" xlink:show="new" xlink:title="Obligation for one party to deliver securities to another party." xlink:type="simple"><rect fill="#EEEEEE" filter="url(#f1sdl0o6ezy01b)" height="23.9688" id="SecuritiesDeliveryObligation" style="stroke: #A80036; stroke-width: 1.5;" width="179" x="1249.75" y="492"/><rect fill="#EEEEEE" height="23.9688" style="stroke: #A80036; stroke-width: 1.5;" width="179" x="1249.75" y="492"/><text fill="#000000" font-family="sans-serif" font-size="12" lengthAdjust="spacingAndGlyphs" textLength="173" x="1252.75" y="508.1387">SecuritiesDeliveryObligation</text></a><!--class InvestmentFundOrder--><a target="_top" xlink:actuate="onRequest" xlink:href="../InvestmentFundOrder.html" xlink:show="new" xlink:title="An investor's instruction to either subscribe or redeem an amount of money or its equivalent, for example other assets, into or out of an investment fund." xlink:type="simple"><rect fill="#EEEEEE" filter="url(#f1sdl0o6ezy01b)" height="23.9688" id="InvestmentFundOrder" style="stroke: #A80036; stroke-width: 1.5;" width="141" x="591.75" y="598"/><rect fill="#EEEEEE" height="23.9688" style="stroke: #A80036; stroke-width: 1.5;" width="141" x="591.75" y="598"/><text fill="#000000" font-family="sans-serif" font-size="12" lengthAdjust="spacingAndGlyphs" textLength="135" x="594.75" y="614.1387">InvestmentFundOrder</text></a><!--class InvestmentFundTransaction--><a target="_top" xlink:actuate="onRequest" xlink:href="../InvestmentFundTransaction.html" xlink:show="new" xlink:title="Process of buying, selling, switching or transferring fund units." xlink:type="simple"><rect fill="#EEEEEE" filter="url(#f1sdl0o6ezy01b)" height="23.9688" id="InvestmentFundTransaction" style="stroke: #A80036; stroke-width: 1.5;" width="180" x="518" y="700"/><rect fill="#EEEEEE" height="23.9688" style="stroke: #A80036; stroke-width: 1.5;" width="180" x="518" y="700"/><text fill="#000000" font-family="sans-serif" font-size="12" lengthAdjust="spacingAndGlyphs" textLength="174" x="521" y="716.1387">InvestmentFundTransaction</text></a><!--class FundsCashFlow--><a target="_top" xlink:actuate="onRequest" xlink:href="../FundsCashFlow.html" xlink:show="new" xlink:title="Cash movements from or to a fund as a result of investment funds transactions, for example, subscriptions or redemptions." xlink:type="simple"><rect fill="#EEEEEE" filter="url(#f1sdl0o6ezy01b)" height="23.9688" id="FundsCashFlow" style="stroke: #A80036; stroke-width: 1.5;" width="102" x="454.5" y="598"/><rect fill="#EEEEEE" height="23.9688" style="stroke: #A80036; stroke-width: 1.5;" width="102" x="454.5" y="598"/><text fill="#000000" font-family="sans-serif" font-size="12" lengthAdjust="spacingAndGlyphs" textLength="96" x="457.5" y="614.1387">FundsCashFlow</text></a><!--class SwitchExecutionRedemptionLeg--><a target="_top" xlink:actuate="onRequest" xlink:href="../SwitchExecutionRedemptionLeg.html" xlink:show="new" xlink:title="Execution of the redemption part, in a switch between investment funds or investment fund classes." xlink:type="simple"><rect fill="#EEEEEE" filter="url(#f1sdl0o6ezy01b)" height="23.9688" id="SwitchExecutionRedemptionLeg" style="stroke: #A80036; stroke-width: 1.5;" width="204" x="41.5" y="700"/><rect fill="#EEEEEE" height="23.9688" style="stroke: #A80036; stroke-width: 1.5;" width="204" x="41.5" y="700"/><text fill="#000000" font-family="sans-serif" font-size="12" lengthAdjust="spacingAndGlyphs" textLength="198" x="44.5" y="716.1387">SwitchExecutionRedemptionLeg</text></a><!--class SwitchExecutionSubscriptionLeg--><a target="_top" xlink:actuate="onRequest" xlink:href="../SwitchExecutionSubscriptionLeg.html" xlink:show="new" xlink:title="Execution of the subscription part, in a switch between investment funds or investment fund classes." xlink:type="simple"><rect fill="#EEEEEE" filter="url(#f1sdl0o6ezy01b)" height="23.9688" id="SwitchExecutionSubscriptionLeg" style="stroke: #A80036; stroke-width: 1.5;" width="207" x="38.75" y="598"/><rect fill="#EEEEEE" height="23.9688" style="stroke: #A80036; stroke-width: 1.5;" width="207" x="38.75" y="598"/><text fill="#000000" font-family="sans-serif" font-size="12" lengthAdjust="spacingAndGlyphs" textLength="201" x="41.75" y="614.1387">SwitchExecutionSubscriptionLeg</text></a><!--link SecuritiesTradeExecution to InvestmentFundOrderExecution--><path d="M532.387,169.803 C531.227,188.361 529.968,208.508 528.76,227.841 " fill="none" id="SecuritiesTradeExecution-InvestmentFundOrderExecution" style="stroke: #A80036; stroke-width: 1.0;"/><polygon fill="none" points="525.413,169.178,533.647,149.654,539.385,170.051,525.413,169.178" style="stroke: #A80036; stroke-width: 1.0;"/><!--link InvestmentFundOrderExecution to SwitchExecution--><path d="M461.723,431.813 C447.981,456.439 435.356,479.065 428.179,491.927 " fill="none" id="InvestmentFundOrderExecution-SwitchExecution" style="stroke: #A80036; stroke-width: 1.0;"/><polygon fill="none" points="455.754,428.145,471.612,414.091,467.979,434.967,455.754,428.145" style="stroke: #A80036; stroke-width: 1.0;"/><!--link SecuritiesPricing to SecuritiesSettlement--><!--link SecuritiesQuantity to SecuritiesPricing--><!--link SecuritiesTrade to SecuritiesQuantity--><!--link SecuritiesQuantity to SecuritiesTrade--><path d="M1107.84,516.192 C1091.43,537.682 1060.51,585.798 1080,622 C1100.49,660.0462 1145.15,684.5166 1177.5,697.9817 " fill="none" id="SecuritiesQuantity-SecuritiesTrade" style="stroke: #A80036; stroke-width: 1.0;"/><polygon fill="#A80036" points="1182.18,699.8888,1175.3534,692.7896,1177.5493,698.0029,1172.336,700.1988,1182.18,699.8888" style="stroke: #A80036; stroke-width: 1.0;"/><text fill="#000000" font-family="sans-serif" font-size="13" lengthAdjust="spacingAndGlyphs" textLength="36" x="1081" y="614.0669">Trade</text><text fill="#000000" font-family="sans-serif" font-size="13" lengthAdjust="spacingAndGlyphs" textLength="24" x="1141.4294" y="688.8988">0..1</text><!--link PaymentObligation to SecuritiesTrade--><!--link SecuritiesDeliveryObligation to PaymentObligation--><!--link InvestmentFundTransaction to InvestmentFundOrder--><!--link InvestmentFundOrder to InvestmentFundTransaction--><path d="M608.162,622.142 C592.203,628.223 576.475,637.591 567,652 C556.852,667.4328 572.161,684.7523 586.873,696.6123 " fill="none" id="InvestmentFundOrder-InvestmentFundTransaction" style="stroke: #A80036; stroke-width: 1.0;"/><polygon fill="#A80036" points="590.985,699.8066,586.3312,691.1266,587.0363,696.7394,581.4236,697.4445,590.985,699.8066" style="stroke: #A80036; stroke-width: 1.0;"/><text fill="#000000" font-family="sans-serif" font-size="13" lengthAdjust="spacingAndGlyphs" textLength="122" x="568" y="665.0669">RelatedTransaction</text><text fill="#000000" font-family="sans-serif" font-size="13" lengthAdjust="spacingAndGlyphs" textLength="24" x="556.0425" y="689.046">0..1</text><!--link FundsCashFlow to InvestmentFundTransaction--><!--link SwitchExecutionSubscriptionLeg to SwitchExecutionRedemptionLeg--><!--link SecuritiesTradeExecution to SecuritiesSettlement--><path d="M667.434,149.511 C794.3,201.559 978.263,277.031 1051.35,307.015 " fill="none" id="SecuritiesTradeExecution-SecuritiesSettlement" style="stroke: #A80036; stroke-width: 1.0;"/><polygon fill="#A80036" points="1056,308.924,1049.1947,301.8045,1051.375,307.0243,1046.1551,309.2045,1056,308.924" style="stroke: #A80036; stroke-width: 1.0;"/><text fill="#000000" font-family="sans-serif" font-size="13" lengthAdjust="spacingAndGlyphs" textLength="135" x="779" y="193.0669">SecuritiesSettlement</text><text fill="#000000" font-family="sans-serif" font-size="13" lengthAdjust="spacingAndGlyphs" textLength="7" x="1037.0859" y="297.9461">*</text><!--link SecuritiesTradeExecution to SecuritiesPricing--><path d="M677.158,102.437 C957.475,116.798 1565.55,155.99 1625,228 C1677.63,291.747 1663.18,340.676 1625,414 C1579.9,500.616 1534.48,500.896 1445,540 C1379.58,568.589 1355.54,550.853 1288,574 C1271.28,579.731 1253.36,588.28 1239.47,595.494 " fill="none" id="SecuritiesTradeExecution-SecuritiesPricing" style="stroke: #A80036; stroke-width: 1.0;"/><polygon fill="#A80036" points="1234.92,597.883,1244.7473,597.2323,1239.3449,595.5549,1241.0223,590.1524,1234.92,597.883" style="stroke: #A80036; stroke-width: 1.0;"/><text fill="#000000" font-family="sans-serif" font-size="13" lengthAdjust="spacingAndGlyphs" textLength="60" x="1608" y="457.0669">DealPrice</text><text fill="#000000" font-family="sans-serif" font-size="13" lengthAdjust="spacingAndGlyphs" textLength="8" x="1231.0488" y="586.891">1</text><!--link SecuritiesTradeExecution to SecuritiesQuantity--><path d="M677.092,110.266 C839.422,129.331 1094.11,167.861 1168,228 C1237.93,284.916 1192.26,343.926 1249,414 C1266.84,436.031 1308.6,439.776 1291,462 C1277.32,479.279 1225.26,490.005 1181.62,496.131 " fill="none" id="SecuritiesTradeExecution-SecuritiesQuantity" style="stroke: #A80036; stroke-width: 1.0;"/><polygon fill="#A80036" points="1176.62,496.819,1186.0834,499.5473,1181.5728,496.1335,1184.9866,491.6229,1176.62,496.819" style="stroke: #A80036; stroke-width: 1.0;"/><text fill="#000000" font-family="sans-serif" font-size="13" lengthAdjust="spacingAndGlyphs" textLength="149" x="1250" y="325.0669">ExecutedTradeQuantity</text><text fill="#000000" font-family="sans-serif" font-size="13" lengthAdjust="spacingAndGlyphs" textLength="7" x="1185.4259" y="490.6923">*</text><!--link SecuritiesTradeExecution to SecuritiesTrade--><path d="M677.48,100.071 C929.829,108.507 1449.79,131.321 1624,180 C1681.48,196.062 1896,299.707 1896,320 C1896,320 1896,320 1896,611 C1896,673.8378 1436.26,700.9249 1272.26,708.5883 " fill="none" id="SecuritiesTradeExecution-SecuritiesTrade" style="stroke: #A80036; stroke-width: 1.0;"/><polygon fill="#A80036" points="1267.03,708.831,1276.2035,712.4154,1272.0248,708.6024,1275.8377,704.4237,1267.03,708.831" style="stroke: #A80036; stroke-width: 1.0;"/><text fill="#000000" font-family="sans-serif" font-size="13" lengthAdjust="spacingAndGlyphs" textLength="84" x="1897" y="508.0669">RelatedTrade</text><text fill="#000000" font-family="sans-serif" font-size="13" lengthAdjust="spacingAndGlyphs" textLength="8" x="1274.9092" y="703.2685">1</text><!--link SecuritiesTradeExecution to PaymentObligation--><path d="M677.169,101.89 C916.781,112.901 1395.06,139.24 1558,180 C1610.14,193.043 1638.56,183.705 1669,228 C1727.95,313.772 1732.13,373.109 1678,462 C1625.9,547.551 1508.57,584.101 1433.85,599.135 " fill="none" id="SecuritiesTradeExecution-PaymentObligation" style="stroke: #A80036; stroke-width: 1.0;"/><polygon fill="#A80036" points="1428.55,600.18,1438.1556,602.3556,1433.4548,599.2088,1436.6016,594.508,1428.55,600.18" style="stroke: #A80036; stroke-width: 1.0;"/><text fill="#000000" font-family="sans-serif" font-size="13" lengthAdjust="spacingAndGlyphs" textLength="121" x="1689" y="457.0669">PaymentObligation</text><text fill="#000000" font-family="sans-serif" font-size="13" lengthAdjust="spacingAndGlyphs" textLength="7" x="1436.8525" y="593.9102">*</text><!--link SecuritiesTradeExecution to SecuritiesDeliveryObligation--><path d="M677.432,95.981 C898.901,99.292 1313.59,120.153 1405,228 C1458.45,291.061 1430.93,335.505 1405,414 C1395.21,443.636 1371.32,471.456 1355.13,487.858 " fill="none" id="SecuritiesTradeExecution-SecuritiesDeliveryObligation" style="stroke: #A80036; stroke-width: 1.0;"/><polygon fill="#A80036" points="1351.2,491.776,1360.4073,488.2796,1354.7505,488.2555,1354.7746,482.5987,1351.2,491.776" style="stroke: #A80036; stroke-width: 1.0;"/><text fill="#000000" font-family="sans-serif" font-size="13" lengthAdjust="spacingAndGlyphs" textLength="178" x="1437" y="325.0669">SecuritiesDeliveryObligation</text><text fill="#000000" font-family="sans-serif" font-size="13" lengthAdjust="spacingAndGlyphs" textLength="7" x="1345.6678" y="481.0052">*</text><!--link InvestmentFundOrderExecution to SecuritiesQuantity--><path d="M677.436,376.992 C756.619,404.259 854.904,436.682 944,462 C982.487,472.937 1026.35,483.31 1060.28,490.886 " fill="none" id="InvestmentFundOrderExecution-SecuritiesQuantity" style="stroke: #A80036; stroke-width: 1.0;"/><polygon fill="#A80036" points="1065.22,491.983,1057.3031,486.1244,1060.3393,490.8974,1055.5662,493.9336,1065.22,491.983" style="stroke: #A80036; stroke-width: 1.0;"/><text fill="#000000" font-family="sans-serif" font-size="13" lengthAdjust="spacingAndGlyphs" textLength="85" x="945" y="457.0669">UnitsNumber</text><text fill="#000000" font-family="sans-serif" font-size="13" lengthAdjust="spacingAndGlyphs" textLength="8" x="1041.542" y="482.8134">1</text><!--link InvestmentFundOrderExecution to InvestmentFundOrder--><path d="M561.611,414.051 C570.34,438.917 578.386,466.118 583,492 C583.361,494.024 582.943,564.237 584,566 C592.146,579.582 606.259,589.179 620.261,595.806 " fill="none" id="InvestmentFundOrderExecution-InvestmentFundOrder" style="stroke: #A80036; stroke-width: 1.0;"/><polygon fill="#A80036" points="624.996,597.941,618.4341,590.5965,620.4375,595.8867,615.1473,597.8901,624.996,597.941" style="stroke: #A80036; stroke-width: 1.0;"/><text fill="#000000" font-family="sans-serif" font-size="13" lengthAdjust="spacingAndGlyphs" textLength="36" x="585" y="508.0669">Order</text><text fill="#000000" font-family="sans-serif" font-size="13" lengthAdjust="spacingAndGlyphs" textLength="24" x="582.7212" y="586.9689">0..1</text><!--link InvestmentFundOrderExecution to SecuritiesPricing--><path d="M677.078,381.841 C716.963,399.735 759.055,420.834 796,444 C852.118,479.189 848.953,514.293 910,540 C943.747,554.211 956.456,539.197 992,548 C1012.51,553.079 1015.47,561.019 1036,566 C1075.46,575.572 1087.5,564.621 1127,574 C1148.06,578.999 1170.72,588.11 1187.78,595.783 " fill="none" id="InvestmentFundOrderExecution-SecuritiesPricing" style="stroke: #A80036; stroke-width: 1.0;"/><polygon fill="#A80036" points="1192.43,597.905,1185.8963,590.5354,1187.8794,595.8333,1182.5815,597.8164,1192.43,597.905" style="stroke: #A80036; stroke-width: 1.0;"/><text fill="#000000" font-family="sans-serif" font-size="13" lengthAdjust="spacingAndGlyphs" textLength="126" x="911" y="508.0669">ExecutedTradePrice</text><text fill="#000000" font-family="sans-serif" font-size="13" lengthAdjust="spacingAndGlyphs" textLength="8" x="1173.9528" y="586.9206">1</text><!--link InvestmentFundOrderExecution to SecuritiesPricing--><path d="M368.791,377.002 C275.027,418.405 184.089,478.395 245,540 C258.789,553.946 931.778,544.107 951,548 C971.708,552.194 974.401,561.298 995,566 C1052.3,579.08 1069.64,561.2 1127,574 C1148.27,578.746 1171.1,587.959 1188.18,595.742 " fill="none" id="InvestmentFundOrderExecution-SecuritiesPricing" style="stroke: #A80036; stroke-width: 1.0;"/><polygon fill="#A80036" points="1192.84,597.894,1186.3517,590.4844,1188.3022,595.7944,1182.9923,597.7449,1192.84,597.894" style="stroke: #A80036; stroke-width: 1.0;"/><text fill="#000000" font-family="sans-serif" font-size="13" lengthAdjust="spacingAndGlyphs" textLength="103" x="246" y="508.0669">InformativePrice</text><text fill="#000000" font-family="sans-serif" font-size="13" lengthAdjust="spacingAndGlyphs" textLength="8" x="1186.5975" y="586.9058">1</text><!--link InvestmentFundOrderExecution to InvestmentFundTransaction--><path d="M640.871,414.195 C685.288,457.093 729.725,512.297 749,574 C762.682,617.8 747.806,642.596 711,670 C694.349,682.3972 673.445,691.626 654.827,698.1556 " fill="none" id="InvestmentFundOrderExecution-InvestmentFundTransaction" style="stroke: #A80036; stroke-width: 1.0;"/><polygon fill="#A80036" points="649.642,699.9261,659.4517,700.8032,654.3737,698.3104,656.8666,693.2324,649.642,699.9261" style="stroke: #A80036; stroke-width: 1.0;"/><text fill="#000000" font-family="sans-serif" font-size="13" lengthAdjust="spacingAndGlyphs" textLength="177" x="747" y="561.0669">InvestmentFundTransaction</text><text fill="#000000" font-family="sans-serif" font-size="13" lengthAdjust="spacingAndGlyphs" textLength="24" x="634.4877" y="688.9489">0..1</text><!--link InvestmentFundOrderExecution to FundsCashFlow--><path d="M517.206,414.388 C513.167,478.784 508.137,558.975 506.017,592.779 " fill="none" id="InvestmentFundOrderExecution-FundsCashFlow" style="stroke: #A80036; stroke-width: 1.0;"/><polygon fill="#A80036" points="505.703,597.796,510.2583,589.0639,506.0159,592.8058,502.274,588.5633,505.703,597.796" style="stroke: #A80036; stroke-width: 1.0;"/><text fill="#000000" font-family="sans-serif" font-size="13" lengthAdjust="spacingAndGlyphs" textLength="59" x="514" y="508.0669">CashFlow</text><text fill="#000000" font-family="sans-serif" font-size="13" lengthAdjust="spacingAndGlyphs" textLength="7" x="496.2796" y="587.0319">*</text><!--link SwitchExecution to SwitchExecutionRedemptionLeg--><path d="M407,516.075 C359.881,550.866 214.855,657.9459 162.285,696.7612 " fill="none" id="SwitchExecution-SwitchExecutionRedemptionLeg" style="stroke: #A80036; stroke-width: 1.0;"/><polygon fill="#A80036" points="158.074,699.8698,167.6902,697.7418,162.0964,696.8998,162.9383,691.306,158.074,699.8698" style="stroke: #A80036; stroke-width: 1.0;"/><text fill="#000000" font-family="sans-serif" font-size="13" lengthAdjust="spacingAndGlyphs" textLength="100" x="330" y="614.0669">RedemptionLeg</text><text fill="#000000" font-family="sans-serif" font-size="13" lengthAdjust="spacingAndGlyphs" textLength="23" x="134.7869" y="688.8733">1..*</text><!--link SwitchExecution to SwitchExecutionSubscriptionLeg--><path d="M402.05,516.014 C386.062,524.243 362.779,534.911 341,540 C307.198,547.898 215.396,531.236 185,548 C167.161,557.838 155.015,578.601 148.297,593.159 " fill="none" id="SwitchExecution-SwitchExecutionSubscriptionLeg" style="stroke: #A80036; stroke-width: 1.0;"/><polygon fill="#A80036" points="146.227,597.833,153.5302,591.2252,148.2527,593.2617,146.2161,587.9841,146.227,597.833" style="stroke: #A80036; stroke-width: 1.0;"/><text fill="#000000" font-family="sans-serif" font-size="13" lengthAdjust="spacingAndGlyphs" textLength="102" x="186" y="561.0669">SubscriptionLeg</text><text fill="#000000" font-family="sans-serif" font-size="13" lengthAdjust="spacingAndGlyphs" textLength="23" x="119.2972" y="586.8238">1..*</text><!--link SecuritiesSettlement to SecuritiesQuantity--><path d="M1074.59,333.287 C1057.22,358.109 1020.99,418.673 1046,462 C1053.16,474.406 1065.67,483.395 1078.2,489.735 " fill="none" id="SecuritiesSettlement-SecuritiesQuantity" style="stroke: #A80036; stroke-width: 1.0;"/><polygon fill="#A80036" points="1082.82,491.952,1076.448,484.4421,1078.3155,489.7818,1072.9758,491.6493,1082.82,491.952" style="stroke: #A80036; stroke-width: 1.0;"/><text fill="#000000" font-family="sans-serif" font-size="13" lengthAdjust="spacingAndGlyphs" textLength="126" x="1047" y="457.0669">SettlementQuantity</text><text fill="#000000" font-family="sans-serif" font-size="13" lengthAdjust="spacingAndGlyphs" textLength="8" x="1060.18" y="480.9837">1</text><!--link SecuritiesSettlement to SecuritiesQuantity--><path d="M1096.21,333.116 C1118.42,352.768 1162.42,396.12 1179,444 C1181.62,451.56 1182.79,454.954 1179,462 C1172.58,473.941 1160.99,482.986 1149.55,489.501 " fill="none" id="SecuritiesSettlement-SecuritiesQuantity" style="stroke: #A80036; stroke-width: 1.0;"/><polygon fill="#A80036" points="1145.02,491.963,1154.838,491.1842,1149.4142,489.5774,1151.021,484.1535,1145.02,491.963" style="stroke: #A80036; stroke-width: 1.0;"/><text fill="#000000" font-family="sans-serif" font-size="13" lengthAdjust="spacingAndGlyphs" textLength="98" x="1183" y="457.0669">TurnedQuantity</text><text fill="#000000" font-family="sans-serif" font-size="13" lengthAdjust="spacingAndGlyphs" textLength="8" x="1143.7613" y="480.9985">1</text><!--link SecuritiesPricing to SecuritiesTrade--><path d="M1215,622.084 C1215,639.729 1215,674.2968 1215,694.745 " fill="none" id="SecuritiesPricing-SecuritiesTrade" style="stroke: #A80036; stroke-width: 1.0;"/><polygon fill="#A80036" points="1215,699.8665,1219,690.8665,1215,694.8665,1211,690.8665,1215,699.8665" style="stroke: #A80036; stroke-width: 1.0;"/><text fill="#000000" font-family="sans-serif" font-size="13" lengthAdjust="spacingAndGlyphs" textLength="99" x="1216" y="665.0669">SecuritiesTrade</text><text fill="#000000" font-family="sans-serif" font-size="13" lengthAdjust="spacingAndGlyphs" textLength="24" x="1185.5313" y="688.8688">0..1</text><!--link SecuritiesQuantity to InvestmentFundOrder--><path d="M1093.3,516.005 C1062.7,529.767 1007.49,553.083 958,566 C884.326,585.228 797.942,596.536 737.577,602.689 " fill="none" id="SecuritiesQuantity-InvestmentFundOrder" style="stroke: #A80036; stroke-width: 1.0;"/><polygon fill="#A80036" points="732.549,603.196,741.9047,606.2734,737.5238,602.6947,741.1026,598.3138,732.549,603.196" style="stroke: #A80036; stroke-width: 1.0;"/><text fill="#000000" font-family="sans-serif" font-size="13" lengthAdjust="spacingAndGlyphs" textLength="36" x="1013" y="561.0669">Order</text><text fill="#000000" font-family="sans-serif" font-size="13" lengthAdjust="spacingAndGlyphs" textLength="8" x="740.6755" y="597.598">1</text><!--link SecuritiesQuantity to FundsCashFlow--><path d="M1092.01,516.021 C1071.71,524.372 1042.1,535.2 1015,540 C971.447,547.715 659.751,536.654 617,548 C581.836,557.332 545.672,579.815 524.277,594.722 " fill="none" id="SecuritiesQuantity-FundsCashFlow" style="stroke: #A80036; stroke-width: 1.0;"/><polygon fill="#A80036" points="519.942,597.781,529.6023,595.8628,524.0281,594.8993,524.9916,589.3251,519.942,597.781" style="stroke: #A80036; stroke-width: 1.0;"/><text fill="#000000" font-family="sans-serif" font-size="13" lengthAdjust="spacingAndGlyphs" textLength="107" x="618" y="561.0669">RelatedCashFlow</text><text fill="#000000" font-family="sans-serif" font-size="13" lengthAdjust="spacingAndGlyphs" textLength="8" x="514.0697" y="587.0119">1</text></g></svg>