<?xml version="1.0" encoding="UTF-8" standalone="no"?><svg xmlns="http://www.w3.org/2000/svg" xmlns:xlink="http://www.w3.org/1999/xlink" contentScriptType="application/ecmascript" contentStyleType="text/css" height="829px" preserveAspectRatio="none" style="width:1933px;height:829px;" version="1.1" viewBox="0 0 1933 829" width="1933px" zoomAndPan="magnify"><defs><filter height="300%" id="fnhsm3ef33zei" width="300%" x="-1" y="-1"><feGaussianBlur result="blurOut" stdDeviation="2.0"/><feColorMatrix in="blurOut" result="blurOut2" type="matrix" values="0 0 0 0 0 0 0 0 0 0 0 0 0 0 0 0 0 0 .4 0"/><feOffset dx="4.0" dy="4.0" in="blurOut2" result="blurOut3"/><feBlend in="SourceGraphic" in2="blurOut3" mode="normal"/></filter></defs><g><!--cluster ##14179--><!--cluster ##14191--><!--cluster ##14204--><!--cluster ##14213--><!--class SecuritiesTradeExecution--><a target="_top" xlink:actuate="onRequest" xlink:href="../SecuritiesTradeExecution.html" xlink:show="new" xlink:title="Transaction between two counterparties in which they agree to buy and sell a financial instrument. A trade transaction occurs with the matching of the two counterparties orders. There could be several trade transactions necessary to execute the trade." xlink:type="simple"><rect fill="#FEFEEE" filter="url(#fnhsm3ef33zei)" height="108.7969" id="SecuritiesTradeExecution" style="stroke: #A80036; stroke-width: 1.5;" width="280" x="213.099" y="40.5"/><rect fill="#FEFEEE" height="23.9688" style="stroke: #A80036; stroke-width: 1.5;" width="280" x="213.099" y="40.5"/><text fill="#000000" font-family="sans-serif" font-size="12" lengthAdjust="spacingAndGlyphs" textLength="159" x="273.599" y="56.6387">SecuritiesTradeExecution</text><line style="stroke: #A80036; stroke-width: 1.5;" x1="214.099" x2="492.099" y1="64.4688" y2="64.4688"/><ellipse cx="224.099" cy="76.3711" fill="#84BE84" rx="3" ry="3" style="stroke: #038048; stroke-width: 1.0;"/><text fill="#000000" font-family="sans-serif" font-size="11" lengthAdjust="spacingAndGlyphs" textLength="111" x="233.099" y="78.6792">StampDutyIndicator</text><text fill="#000000" font-family="sans-serif" font-size="11" font-style="italic" lengthAdjust="spacingAndGlyphs" textLength="92" x="348.099" y="78.6792">(YesNoIndicator)</text><ellipse cx="224.099" cy="89.1758" fill="#84BE84" rx="3" ry="3" style="stroke: #038048; stroke-width: 1.0;"/><text fill="#000000" font-family="sans-serif" font-size="11" lengthAdjust="spacingAndGlyphs" textLength="108" x="233.099" y="91.4839">ProcessingPosition</text><text fill="#000000" font-family="sans-serif" font-size="11" font-style="italic" lengthAdjust="spacingAndGlyphs" textLength="142" x="345.099" y="91.4839">(ProcessingPositionCode)</text><ellipse cx="224.099" cy="101.9805" fill="#84BE84" rx="3" ry="3" style="stroke: #038048; stroke-width: 1.0;"/><text fill="#000000" font-family="sans-serif" font-size="11" lengthAdjust="spacingAndGlyphs" textLength="81" x="233.099" y="104.2886">MarginAmount</text><text fill="#000000" font-family="sans-serif" font-size="11" font-style="italic" lengthAdjust="spacingAndGlyphs" textLength="126" x="318.099" y="104.2886">(CurrencyAndAmount)</text><ellipse cx="224.099" cy="114.7852" fill="#84BE84" rx="3" ry="3" style="stroke: #038048; stroke-width: 1.0;"/><text fill="#000000" font-family="sans-serif" font-size="11" lengthAdjust="spacingAndGlyphs" textLength="97" x="233.099" y="117.0933">OffMarketReason</text><text fill="#000000" font-family="sans-serif" font-size="11" font-style="italic" lengthAdjust="spacingAndGlyphs" textLength="92" x="334.099" y="117.0933">(OffMarketCode)</text><ellipse cx="224.099" cy="127.5898" fill="#84BE84" rx="3" ry="3" style="stroke: #038048; stroke-width: 1.0;"/><text fill="#000000" font-family="sans-serif" font-size="11" lengthAdjust="spacingAndGlyphs" textLength="122" x="233.099" y="129.8979">DealExecutionAmount</text><text fill="#000000" font-family="sans-serif" font-size="11" font-style="italic" lengthAdjust="spacingAndGlyphs" textLength="126" x="359.099" y="129.8979">(CurrencyAndAmount)</text><ellipse cx="224.099" cy="140.3945" fill="#84BE84" rx="3" ry="3" style="stroke: #038048; stroke-width: 1.0;"/><text fill="#000000" font-family="sans-serif" font-size="11" lengthAdjust="spacingAndGlyphs" textLength="81" x="233.099" y="142.7026">ReportingType</text><text fill="#000000" font-family="sans-serif" font-size="11" font-style="italic" lengthAdjust="spacingAndGlyphs" textLength="92" x="318.099" y="142.7026">(ReportingCode)</text></a><!--class InvestmentFundOrderExecution--><a target="_top" xlink:actuate="onRequest" xlink:href="../InvestmentFundOrderExecution.html" xlink:show="new" xlink:title="Creation/cancellation of investment units on the books of the fund or its designated agent, as a result of executing an investment fund order." xlink:type="simple"><rect fill="#FEFEEE" filter="url(#fnhsm3ef33zei)" height="185.625" id="InvestmentFundOrderExecution" style="stroke: #A80036; stroke-width: 1.5;" width="308" x="185.099" y="228"/><rect fill="#FEFEEE" height="23.9688" style="stroke: #A80036; stroke-width: 1.5;" width="308" x="185.099" y="228"/><text fill="#000000" font-family="sans-serif" font-size="12" lengthAdjust="spacingAndGlyphs" textLength="196" x="241.099" y="244.1387">InvestmentFundOrderExecution</text><line style="stroke: #A80036; stroke-width: 1.5;" x1="186.099" x2="492.099" y1="251.9688" y2="251.9688"/><ellipse cx="196.099" cy="263.8711" fill="#84BE84" rx="3" ry="3" style="stroke: #038048; stroke-width: 1.0;"/><text fill="#000000" font-family="sans-serif" font-size="11" lengthAdjust="spacingAndGlyphs" textLength="201" x="205.099" y="266.1792">NonStandardSettlementInformation</text><text fill="#000000" font-family="sans-serif" font-size="11" font-style="italic" lengthAdjust="spacingAndGlyphs" textLength="77" x="410.099" y="266.1792">(Max350Text)</text><ellipse cx="196.099" cy="276.6758" fill="#84BE84" rx="3" ry="3" style="stroke: #038048; stroke-width: 1.0;"/><text fill="#000000" font-family="sans-serif" font-size="11" lengthAdjust="spacingAndGlyphs" textLength="97" x="205.099" y="278.9839">DealIdentification</text><text fill="#000000" font-family="sans-serif" font-size="11" font-style="italic" lengthAdjust="spacingAndGlyphs" textLength="70" x="306.099" y="278.9839">(Max35Text)</text><ellipse cx="196.099" cy="289.4805" fill="#84BE84" rx="3" ry="3" style="stroke: #038048; stroke-width: 1.0;"/><text fill="#000000" font-family="sans-serif" font-size="11" lengthAdjust="spacingAndGlyphs" textLength="145" x="205.099" y="291.7886">PartiallyExecutedIndicator</text><text fill="#000000" font-family="sans-serif" font-size="11" font-style="italic" lengthAdjust="spacingAndGlyphs" textLength="92" x="354.099" y="291.7886">(YesNoIndicator)</text><ellipse cx="196.099" cy="302.2852" fill="#84BE84" rx="3" ry="3" style="stroke: #038048; stroke-width: 1.0;"/><text fill="#000000" font-family="sans-serif" font-size="11" lengthAdjust="spacingAndGlyphs" textLength="113" x="205.099" y="304.5933">InterimProfitAmount</text><text fill="#000000" font-family="sans-serif" font-size="11" font-style="italic" lengthAdjust="spacingAndGlyphs" textLength="126" x="322.099" y="304.5933">(CurrencyAndAmount)</text><ellipse cx="196.099" cy="315.0898" fill="#84BE84" rx="3" ry="3" style="stroke: #038048; stroke-width: 1.0;"/><text fill="#000000" font-family="sans-serif" font-size="11" lengthAdjust="spacingAndGlyphs" textLength="80" x="205.099" y="317.3979">BestExecution</text><text fill="#000000" font-family="sans-serif" font-size="11" font-style="italic" lengthAdjust="spacingAndGlyphs" textLength="117" x="289.099" y="317.3979">(BestExecutionCode)</text><ellipse cx="196.099" cy="327.8945" fill="#84BE84" rx="3" ry="3" style="stroke: #038048; stroke-width: 1.0;"/><text fill="#000000" font-family="sans-serif" font-size="11" lengthAdjust="spacingAndGlyphs" textLength="140" x="205.099" y="330.2026">PartialSettlementOfUnits</text><text fill="#000000" font-family="sans-serif" font-size="11" font-style="italic" lengthAdjust="spacingAndGlyphs" textLength="98" x="349.099" y="330.2026">(PercentageRate)</text><ellipse cx="196.099" cy="340.6992" fill="#84BE84" rx="3" ry="3" style="stroke: #038048; stroke-width: 1.0;"/><text fill="#000000" font-family="sans-serif" font-size="11" lengthAdjust="spacingAndGlyphs" textLength="140" x="205.099" y="343.0073">PartialSettlementOfCash</text><text fill="#000000" font-family="sans-serif" font-size="11" font-style="italic" lengthAdjust="spacingAndGlyphs" textLength="98" x="349.099" y="343.0073">(PercentageRate)</text><ellipse cx="196.099" cy="353.5039" fill="#84BE84" rx="3" ry="3" style="stroke: #038048; stroke-width: 1.0;"/><text fill="#000000" font-family="sans-serif" font-size="11" lengthAdjust="spacingAndGlyphs" textLength="61" x="205.099" y="355.812">LateReport</text><text fill="#000000" font-family="sans-serif" font-size="11" font-style="italic" lengthAdjust="spacingAndGlyphs" textLength="99" x="270.099" y="355.812">(LateReportCode)</text><ellipse cx="196.099" cy="366.3086" fill="#84BE84" rx="3" ry="3" style="stroke: #038048; stroke-width: 1.0;"/><text fill="#000000" font-family="sans-serif" font-size="11" lengthAdjust="spacingAndGlyphs" textLength="89" x="205.099" y="368.6167">SettledIndicator</text><text fill="#000000" font-family="sans-serif" font-size="11" font-style="italic" lengthAdjust="spacingAndGlyphs" textLength="92" x="298.099" y="368.6167">(YesNoIndicator)</text><ellipse cx="196.099" cy="379.1133" fill="#84BE84" rx="3" ry="3" style="stroke: #038048; stroke-width: 1.0;"/><text fill="#000000" font-family="sans-serif" font-size="11" lengthAdjust="spacingAndGlyphs" textLength="110" x="205.099" y="381.4214">RegisteredIndicator</text><text fill="#000000" font-family="sans-serif" font-size="11" font-style="italic" lengthAdjust="spacingAndGlyphs" textLength="92" x="319.099" y="381.4214">(YesNoIndicator)</text><ellipse cx="196.099" cy="391.918" fill="#84BE84" rx="3" ry="3" style="stroke: #038048; stroke-width: 1.0;"/><text fill="#000000" font-family="sans-serif" font-size="11" lengthAdjust="spacingAndGlyphs" textLength="94" x="205.099" y="394.2261">ExecutedAmount</text><text fill="#000000" font-family="sans-serif" font-size="11" font-style="italic" lengthAdjust="spacingAndGlyphs" textLength="126" x="303.099" y="394.2261">(CurrencyAndAmount)</text><ellipse cx="196.099" cy="404.7227" fill="#84BE84" rx="3" ry="3" style="stroke: #038048; stroke-width: 1.0;"/><text fill="#000000" font-family="sans-serif" font-size="11" lengthAdjust="spacingAndGlyphs" textLength="82" x="205.099" y="407.0308">SourceOfCash</text><text fill="#000000" font-family="sans-serif" font-size="11" font-style="italic" lengthAdjust="spacingAndGlyphs" textLength="117" x="291.099" y="407.0308">(SourceOfCashCode)</text></a><!--class SubscriptionExecution--><a target="_top" xlink:actuate="onRequest" xlink:href="../SubscriptionExecution.html" xlink:show="new" xlink:title="Execution of a subscription order." xlink:type="simple"><rect fill="#FEFEEE" filter="url(#fnhsm3ef33zei)" height="95.9922" id="SubscriptionExecution" style="stroke: #A80036; stroke-width: 1.5;" width="271" x="151.849" y="492"/><rect fill="#FEFEEE" height="23.9688" style="stroke: #A80036; stroke-width: 1.5;" width="271" x="151.849" y="492"/><text fill="#000000" font-family="sans-serif" font-size="12" lengthAdjust="spacingAndGlyphs" textLength="139" x="217.849" y="508.1387">SubscriptionExecution</text><line style="stroke: #A80036; stroke-width: 1.5;" x1="152.849" x2="421.849" y1="515.9688" y2="515.9688"/><ellipse cx="162.849" cy="527.8711" fill="#84BE84" rx="3" ry="3" style="stroke: #038048; stroke-width: 1.0;"/><text fill="#000000" font-family="sans-serif" font-size="11" lengthAdjust="spacingAndGlyphs" textLength="99" x="171.849" y="530.1792">EquityComponent</text><text fill="#000000" font-family="sans-serif" font-size="11" font-style="italic" lengthAdjust="spacingAndGlyphs" textLength="126" x="274.849" y="530.1792">(CurrencyAndAmount)</text><ellipse cx="162.849" cy="540.6758" fill="#84BE84" rx="3" ry="3" style="stroke: #038048; stroke-width: 1.0;"/><text fill="#000000" font-family="sans-serif" font-size="11" lengthAdjust="spacingAndGlyphs" textLength="94" x="171.849" y="542.9839">CashComponent</text><text fill="#000000" font-family="sans-serif" font-size="11" font-style="italic" lengthAdjust="spacingAndGlyphs" textLength="126" x="269.849" y="542.9839">(CurrencyAndAmount)</text><ellipse cx="162.849" cy="553.4805" fill="#84BE84" rx="3" ry="3" style="stroke: #038048; stroke-width: 1.0;"/><text fill="#000000" font-family="sans-serif" font-size="11" lengthAdjust="spacingAndGlyphs" textLength="110" x="171.849" y="555.7886">InvestedNetAmount</text><text fill="#000000" font-family="sans-serif" font-size="11" font-style="italic" lengthAdjust="spacingAndGlyphs" textLength="126" x="285.849" y="555.7886">(CurrencyAndAmount)</text><ellipse cx="162.849" cy="566.2852" fill="#84BE84" rx="3" ry="3" style="stroke: #038048; stroke-width: 1.0;"/><text fill="#000000" font-family="sans-serif" font-size="11" lengthAdjust="spacingAndGlyphs" textLength="39" x="171.849" y="568.5933">Refund</text><text fill="#000000" font-family="sans-serif" font-size="11" font-style="italic" lengthAdjust="spacingAndGlyphs" textLength="126" x="214.849" y="568.5933">(CurrencyAndAmount)</text><ellipse cx="162.849" cy="579.0898" fill="#84BE84" rx="3" ry="3" style="stroke: #038048; stroke-width: 1.0;"/><text fill="#000000" font-family="sans-serif" font-size="11" lengthAdjust="spacingAndGlyphs" textLength="115" x="171.849" y="581.3979">SubscriptionInterest</text><text fill="#000000" font-family="sans-serif" font-size="11" font-style="italic" lengthAdjust="spacingAndGlyphs" textLength="126" x="290.849" y="581.3979">(CurrencyAndAmount)</text></a><!--class SwitchExecutionSubscriptionLeg--><a target="_top" xlink:actuate="onRequest" xlink:href="../SwitchExecutionSubscriptionLeg.html" xlink:show="new" xlink:title="Execution of the subscription part, in a switch between investment funds or investment fund classes." xlink:type="simple"><rect fill="#FEFECE" filter="url(#fnhsm3ef33zei)" height="44.7734" id="SwitchExecutionSubscriptionLeg" style="stroke: #A80036; stroke-width: 1.5;" width="343" x="150.849" y="666.5"/><rect fill="#FEFECE" height="23.9688" style="stroke: #A80036; stroke-width: 1.5;" width="343" x="150.849" y="666.5"/><text fill="#000000" font-family="sans-serif" font-size="12" lengthAdjust="spacingAndGlyphs" textLength="201" x="221.849" y="682.6387">SwitchExecutionSubscriptionLeg</text><line style="stroke: #A80036; stroke-width: 1.5;" x1="151.849" x2="492.849" y1="690.4688" y2="690.4688"/><ellipse cx="161.849" cy="702.3711" fill="#84BE84" rx="3" ry="3" style="stroke: #038048; stroke-width: 1.0;"/><text fill="#000000" font-family="sans-serif" font-size="11" lengthAdjust="spacingAndGlyphs" textLength="215" x="170.849" y="704.6792">PercentageOfTotalRedemptionAmount</text><text fill="#000000" font-family="sans-serif" font-size="11" font-style="italic" lengthAdjust="spacingAndGlyphs" textLength="98" x="389.849" y="704.6792">(PercentageRate)</text></a><!--class SecuritiesSettlement--><a target="_top" xlink:actuate="onRequest" xlink:href="../SecuritiesSettlement.html" xlink:show="new" xlink:title="Settlement of the securities in a securities transaction, that is, the instruction to deliver or receive securities, involving the payment of an amount of money or not." xlink:type="simple"><rect fill="#EEEEEE" filter="url(#fnhsm3ef33zei)" height="23.9688" id="SecuritiesSettlement" style="stroke: #A80036; stroke-width: 1.5;" width="137" x="954.849" y="309"/><rect fill="#EEEEEE" height="23.9688" style="stroke: #A80036; stroke-width: 1.5;" width="137" x="954.849" y="309"/><text fill="#000000" font-family="sans-serif" font-size="12" lengthAdjust="spacingAndGlyphs" textLength="131" x="957.849" y="325.1387">SecuritiesSettlement</text></a><!--class SecuritiesPricing--><a target="_top" xlink:actuate="onRequest" xlink:href="../SecuritiesPricing.html" xlink:show="new" xlink:title="Characteristics related to the price of the security." xlink:type="simple"><rect fill="#EEEEEE" filter="url(#fnhsm3ef33zei)" height="23.9688" id="SecuritiesPricing" style="stroke: #A80036; stroke-width: 1.5;" width="110" x="1063.1" y="677"/><rect fill="#EEEEEE" height="23.9688" style="stroke: #A80036; stroke-width: 1.5;" width="110" x="1063.1" y="677"/><text fill="#000000" font-family="sans-serif" font-size="12" lengthAdjust="spacingAndGlyphs" textLength="104" x="1066.1" y="693.1387">SecuritiesPricing</text></a><!--class SecuritiesQuantity--><a target="_top" xlink:actuate="onRequest" xlink:href="../SecuritiesQuantity.html" xlink:show="new" xlink:title="Quantity of a security." xlink:type="simple"><rect fill="#EEEEEE" filter="url(#fnhsm3ef33zei)" height="23.9688" id="SecuritiesQuantity" style="stroke: #A80036; stroke-width: 1.5;" width="120" x="994.599" y="528"/><rect fill="#EEEEEE" height="23.9688" style="stroke: #A80036; stroke-width: 1.5;" width="120" x="994.599" y="528"/><text fill="#000000" font-family="sans-serif" font-size="12" lengthAdjust="spacingAndGlyphs" textLength="114" x="997.599" y="544.1387">SecuritiesQuantity</text></a><!--class SecuritiesTrade--><a target="_top" xlink:actuate="onRequest" xlink:href="../SecuritiesTrade.html" xlink:show="new" xlink:title="Specifies trades linked to securities operations such as the exchange of securities, the lending of securities and the transactions related to investment funds." xlink:type="simple"><rect fill="#EEEEEE" filter="url(#fnhsm3ef33zei)" height="23.9688" id="SecuritiesTrade" style="stroke: #A80036; stroke-width: 1.5;" width="104" x="1157.1" y="794"/><rect fill="#EEEEEE" height="23.9688" style="stroke: #A80036; stroke-width: 1.5;" width="104" x="1157.1" y="794"/><text fill="#000000" font-family="sans-serif" font-size="12" lengthAdjust="spacingAndGlyphs" textLength="98" x="1160.1" y="810.1387">SecuritiesTrade</text></a><!--class PaymentObligation--><a target="_top" xlink:actuate="onRequest" xlink:href="../PaymentObligation.html" xlink:show="new" xlink:title="Obligation for the debtor to pay the creditor an amount of cash." xlink:type="simple"><rect fill="#EEEEEE" filter="url(#fnhsm3ef33zei)" height="23.9688" id="PaymentObligation" style="stroke: #A80036; stroke-width: 1.5;" width="123" x="1245.85" y="677"/><rect fill="#EEEEEE" height="23.9688" style="stroke: #A80036; stroke-width: 1.5;" width="123" x="1245.85" y="677"/><text fill="#000000" font-family="sans-serif" font-size="12" lengthAdjust="spacingAndGlyphs" textLength="117" x="1248.85" y="693.1387">PaymentObligation</text></a><!--class SecuritiesDeliveryObligation--><a target="_top" xlink:actuate="onRequest" xlink:href="../SecuritiesDeliveryObligation.html" xlink:show="new" xlink:title="Obligation for one party to deliver securities to another party." xlink:type="simple"><rect fill="#EEEEEE" filter="url(#fnhsm3ef33zei)" height="23.9688" id="SecuritiesDeliveryObligation" style="stroke: #A80036; stroke-width: 1.5;" width="179" x="1189.85" y="528"/><rect fill="#EEEEEE" height="23.9688" style="stroke: #A80036; stroke-width: 1.5;" width="179" x="1189.85" y="528"/><text fill="#000000" font-family="sans-serif" font-size="12" lengthAdjust="spacingAndGlyphs" textLength="173" x="1192.85" y="544.1387">SecuritiesDeliveryObligation</text></a><!--class InvestmentFundOrder--><a target="_top" xlink:actuate="onRequest" xlink:href="../InvestmentFundOrder.html" xlink:show="new" xlink:title="An investor's instruction to either subscribe or redeem an amount of money or its equivalent, for example other assets, into or out of an investment fund." xlink:type="simple"><rect fill="#EEEEEE" filter="url(#fnhsm3ef33zei)" height="23.9688" id="InvestmentFundOrder" style="stroke: #A80036; stroke-width: 1.5;" width="141" x="686.849" y="677"/><rect fill="#EEEEEE" height="23.9688" style="stroke: #A80036; stroke-width: 1.5;" width="141" x="686.849" y="677"/><text fill="#000000" font-family="sans-serif" font-size="12" lengthAdjust="spacingAndGlyphs" textLength="135" x="689.849" y="693.1387">InvestmentFundOrder</text></a><!--class InvestmentFundTransaction--><a target="_top" xlink:actuate="onRequest" xlink:href="../InvestmentFundTransaction.html" xlink:show="new" xlink:title="Process of buying, selling, switching or transferring fund units." xlink:type="simple"><rect fill="#EEEEEE" filter="url(#fnhsm3ef33zei)" height="23.9688" id="InvestmentFundTransaction" style="stroke: #A80036; stroke-width: 1.5;" width="180" x="613.099" y="794"/><rect fill="#EEEEEE" height="23.9688" style="stroke: #A80036; stroke-width: 1.5;" width="180" x="613.099" y="794"/><text fill="#000000" font-family="sans-serif" font-size="12" lengthAdjust="spacingAndGlyphs" textLength="174" x="616.099" y="810.1387">InvestmentFundTransaction</text></a><!--class FundsCashFlow--><a target="_top" xlink:actuate="onRequest" xlink:href="../FundsCashFlow.html" xlink:show="new" xlink:title="Cash movements from or to a fund as a result of investment funds transactions, for example, subscriptions or redemptions." xlink:type="simple"><rect fill="#EEEEEE" filter="url(#fnhsm3ef33zei)" height="23.9688" id="FundsCashFlow" style="stroke: #A80036; stroke-width: 1.5;" width="102" x="549.599" y="677"/><rect fill="#EEEEEE" height="23.9688" style="stroke: #A80036; stroke-width: 1.5;" width="102" x="549.599" y="677"/><text fill="#000000" font-family="sans-serif" font-size="12" lengthAdjust="spacingAndGlyphs" textLength="96" x="552.599" y="693.1387">FundsCashFlow</text></a><!--entity ##14211--><!--class SwitchExecution--><a target="_top" xlink:actuate="onRequest" xlink:href="../SwitchExecution.html" xlink:show="new" xlink:title="Execution of a switch order." xlink:type="simple"><rect fill="#EEEEEE" filter="url(#fnhsm3ef33zei)" height="23.9688" id="SwitchExecution" style="stroke: #A80036; stroke-width: 1.5;" width="107" x="268.849" y="794"/><rect fill="#EEEEEE" height="23.9688" style="stroke: #A80036; stroke-width: 1.5;" width="107" x="268.849" y="794"/><text fill="#000000" font-family="sans-serif" font-size="12" lengthAdjust="spacingAndGlyphs" textLength="101" x="271.849" y="810.1387">SwitchExecution</text></a><!--link SecuritiesTradeExecution to InvestmentFundOrderExecution--><path d="M348.486,169.803 C347.326,188.361 346.067,208.508 344.859,227.841 " fill="none" id="SecuritiesTradeExecution-InvestmentFundOrderExecution" style="stroke: #A80036; stroke-width: 1.0;"/><polygon fill="none" points="341.511,169.178,349.745,149.654,355.484,170.051,341.511,169.178" style="stroke: #A80036; stroke-width: 1.0;"/><!--link InvestmentFundOrderExecution to SubscriptionExecution--><path d="M312.345,433.645 C307.43,454.158 302.55,474.52 298.41,491.797 " fill="none" id="InvestmentFundOrderExecution-SubscriptionExecution" style="stroke: #A80036; stroke-width: 1.0;"/><polygon fill="none" points="305.578,431.846,317.046,414.028,319.193,435.108,305.578,431.846" style="stroke: #A80036; stroke-width: 1.0;"/><!--link SubscriptionExecution to SwitchExecutionSubscriptionLeg--><path d="M303.055,608.018 C308.057,629.026 313.229,650.746 316.918,666.24 " fill="none" id="SubscriptionExecution-SwitchExecutionSubscriptionLeg" style="stroke: #A80036; stroke-width: 1.0;"/><polygon fill="none" points="296.188,609.398,298.366,588.321,309.808,606.156,296.188,609.398" style="stroke: #A80036; stroke-width: 1.0;"/><!--link SecuritiesPricing to SecuritiesSettlement--><!--link SecuritiesQuantity to SecuritiesPricing--><!--link SecuritiesTrade to SecuritiesQuantity--><!--link SecuritiesQuantity to SecuritiesTrade--><path d="M1047.43,552.262 C1036.23,571.901 1014.1,614.041 1006.1,653 C998.682,689.136 984.618,706.011 1006.1,736 C1038.93,781.8398 1103.99,797.5901 1151.63,802.81 " fill="none" id="SecuritiesQuantity-SecuritiesTrade" style="stroke: #A80036; stroke-width: 1.0;"/><polygon fill="#A80036" points="1156.77,803.3396,1148.2291,798.4351,1151.7965,802.8253,1147.4063,806.3927,1156.77,803.3396" style="stroke: #A80036; stroke-width: 1.0;"/><text fill="#000000" font-family="sans-serif" font-size="13" lengthAdjust="spacingAndGlyphs" textLength="36" x="1007.1" y="693.0669">Trade</text><text fill="#000000" font-family="sans-serif" font-size="13" lengthAdjust="spacingAndGlyphs" textLength="24" x="1125.0328" y="815.914">0..1</text><!--link PaymentObligation to SecuritiesTrade--><!--link SecuritiesDeliveryObligation to PaymentObligation--><!--link InvestmentFundTransaction to InvestmentFundOrder--><!--link InvestmentFundOrder to InvestmentFundTransaction--><path d="M719.242,701.066 C698.433,709.3 674.406,722.847 662.099,744 C652.538,760.4325 667.993,778.3997 682.585,790.5492 " fill="none" id="InvestmentFundOrder-InvestmentFundTransaction" style="stroke: #A80036; stroke-width: 1.0;"/><polygon fill="#A80036" points="686.656,793.8156,682.1388,785.0637,682.7559,790.6868,677.1328,791.3039,686.656,793.8156" style="stroke: #A80036; stroke-width: 1.0;"/><text fill="#000000" font-family="sans-serif" font-size="13" lengthAdjust="spacingAndGlyphs" textLength="122" x="663.099" y="757.0669">RelatedTransaction</text><text fill="#000000" font-family="sans-serif" font-size="13" lengthAdjust="spacingAndGlyphs" textLength="24" x="651.903" y="783.058">0..1</text><!--link FundsCashFlow to InvestmentFundTransaction--><!--link SecuritiesTradeExecution to SecuritiesSettlement--><path d="M493.145,142.821 C649.359,195.048 892.317,276.276 985.221,307.337 " fill="none" id="SecuritiesTradeExecution-SecuritiesSettlement" style="stroke: #A80036; stroke-width: 1.0;"/><polygon fill="#A80036" points="990.063,308.955,982.7964,302.307,985.3212,307.3691,980.259,309.8939,990.063,308.955" style="stroke: #A80036; stroke-width: 1.0;"/><text fill="#000000" font-family="sans-serif" font-size="13" lengthAdjust="spacingAndGlyphs" textLength="135" x="649.099" y="193.0669">SecuritiesSettlement</text><text fill="#000000" font-family="sans-serif" font-size="13" lengthAdjust="spacingAndGlyphs" textLength="7" x="969.0741" y="297.9877">*</text><!--link SecuritiesTradeExecution to SecuritiesPricing--><path d="M493.36,100.689 C797.278,112.328 1494.84,147.608 1563.1,228 C1678.62,364.063 1535.73,492.253 1385.1,588 C1346.12,612.778 1222.06,654.579 1157.69,675.412 " fill="none" id="SecuritiesTradeExecution-SecuritiesPricing" style="stroke: #A80036; stroke-width: 1.0;"/><polygon fill="#A80036" points="1152.79,676.996,1162.5821,678.0518,1157.5504,675.4668,1160.1354,670.4352,1152.79,676.996" style="stroke: #A80036; stroke-width: 1.0;"/><text fill="#000000" font-family="sans-serif" font-size="13" lengthAdjust="spacingAndGlyphs" textLength="60" x="1559.1" y="457.0669">DealPrice</text><text fill="#000000" font-family="sans-serif" font-size="13" lengthAdjust="spacingAndGlyphs" textLength="8" x="1153.9959" y="666.0428">1</text><!--link SecuritiesTradeExecution to SecuritiesQuantity--><path d="M493.124,104.779 C684.52,119.365 1014.76,154.57 1108.1,228 C1178.96,283.75 1132.36,343.926 1189.1,414 C1206.94,436.031 1246.64,438.292 1231.1,462 C1226.85,468.482 1136.28,505.819 1086.39,526.023 " fill="none" id="SecuritiesTradeExecution-SecuritiesQuantity" style="stroke: #A80036; stroke-width: 1.0;"/><polygon fill="#A80036" points="1081.69,527.923,1091.533,528.2631,1086.3264,526.0513,1088.5382,520.8447,1081.69,527.923" style="stroke: #A80036; stroke-width: 1.0;"/><text fill="#000000" font-family="sans-serif" font-size="13" lengthAdjust="spacingAndGlyphs" textLength="149" x="1190.1" y="325.0669">ExecutedTradeQuantity</text><text fill="#000000" font-family="sans-serif" font-size="13" lengthAdjust="spacingAndGlyphs" textLength="7" x="1081.4557" y="516.9447">*</text><!--link SecuritiesTradeExecution to SecuritiesTrade--><path d="M493.233,98.909 C767.362,105.718 1365.05,126.378 1563.1,180 C1620.43,195.521 1836.1,304.158 1836.1,320 C1836.1,320 1836.1,320 1836.1,690 C1836.1,747.592 1421.56,787.5588 1266.61,800.486 " fill="none" id="SecuritiesTradeExecution-SecuritiesTrade" style="stroke: #A80036; stroke-width: 1.0;"/><polygon fill="#A80036" points="1261.21,800.9345,1270.5105,804.175,1266.1928,800.5202,1269.8476,796.2025,1261.21,800.9345" style="stroke: #A80036; stroke-width: 1.0;"/><text fill="#000000" font-family="sans-serif" font-size="13" lengthAdjust="spacingAndGlyphs" textLength="84" x="1837.1" y="544.0669">RelatedTrade</text><text fill="#000000" font-family="sans-serif" font-size="13" lengthAdjust="spacingAndGlyphs" textLength="8" x="1269.1005" y="795.1053">1</text><!--link SecuritiesTradeExecution to PaymentObligation--><path d="M493.167,100.553 C755.306,110.02 1310.38,134.803 1497.1,180 C1550.13,192.837 1578.02,183.859 1610.1,228 C1671.44,312.408 1673.78,367.709 1629.1,462 C1572.76,580.887 1418.9,648.818 1346.17,675.165 " fill="none" id="SecuritiesTradeExecution-PaymentObligation" style="stroke: #A80036; stroke-width: 1.0;"/><polygon fill="#A80036" points="1341.08,676.99,1350.9017,677.7214,1345.7873,675.3042,1348.2045,670.1898,1341.08,676.99" style="stroke: #A80036; stroke-width: 1.0;"/><text fill="#000000" font-family="sans-serif" font-size="13" lengthAdjust="spacingAndGlyphs" textLength="121" x="1637.1" y="457.0669">PaymentObligation</text><text fill="#000000" font-family="sans-serif" font-size="13" lengthAdjust="spacingAndGlyphs" textLength="7" x="1343.1278" y="666.0348">*</text><!--link SecuritiesTradeExecution to SecuritiesDeliveryObligation--><path d="M493.146,104.388 C753.524,121.439 1290.79,164.034 1345.1,228 C1421.39,317.854 1324.47,474.217 1290.23,523.597 " fill="none" id="SecuritiesTradeExecution-SecuritiesDeliveryObligation" style="stroke: #A80036; stroke-width: 1.0;"/><polygon fill="#A80036" points="1287.31,527.771,1295.7469,522.6898,1290.1764,523.6742,1289.192,518.1036,1287.31,527.771" style="stroke: #A80036; stroke-width: 1.0;"/><text fill="#000000" font-family="sans-serif" font-size="13" lengthAdjust="spacingAndGlyphs" textLength="178" x="1375.1" y="325.0669">SecuritiesDeliveryObligation</text><text fill="#000000" font-family="sans-serif" font-size="13" lengthAdjust="spacingAndGlyphs" textLength="7" x="1280.4561" y="516.9986">*</text><!--link InvestmentFundOrderExecution to SecuritiesQuantity--><path d="M493.335,358.387 C650.383,396.392 882.451,455.461 967.099,492 C989.574,501.702 1014,515.177 1031.24,525.213 " fill="none" id="InvestmentFundOrderExecution-SecuritiesQuantity" style="stroke: #A80036; stroke-width: 1.0;"/><polygon fill="#A80036" points="1035.9,527.946,1030.1591,519.9434,1031.5867,525.4171,1026.1129,526.8447,1035.9,527.946" style="stroke: #A80036; stroke-width: 1.0;"/><text fill="#000000" font-family="sans-serif" font-size="13" lengthAdjust="spacingAndGlyphs" textLength="85" x="880.099" y="457.0669">UnitsNumber</text><text fill="#000000" font-family="sans-serif" font-size="13" lengthAdjust="spacingAndGlyphs" textLength="8" x="1018.7535" y="516.9757">1</text><!--link InvestmentFundOrderExecution to InvestmentFundOrder--><path d="M484.304,414.184 C510.122,436.706 534.144,462.839 551.099,492 C583.675,548.029 528.787,589.661 574.099,636 C603.475,666.042 626.669,641.556 667.099,653 C687.742,658.843 710.236,667.59 727.572,674.878 " fill="none" id="InvestmentFundOrderExecution-InvestmentFundOrder" style="stroke: #A80036; stroke-width: 1.0;"/><polygon fill="#A80036" points="732.319,676.891,725.5942,669.6953,727.7156,674.9394,722.4716,677.0607,732.319,676.891" style="stroke: #A80036; stroke-width: 1.0;"/><text fill="#000000" font-family="sans-serif" font-size="13" lengthAdjust="spacingAndGlyphs" textLength="36" x="563.099" y="544.0669">Order</text><text fill="#000000" font-family="sans-serif" font-size="13" lengthAdjust="spacingAndGlyphs" textLength="24" x="694.2462" y="665.9017">0..1</text><!--link InvestmentFundOrderExecution to SecuritiesPricing--><path d="M493.162,336.268 C581.462,351.182 689.918,381.673 768.099,444 C825.178,489.505 792.338,539.729 847.099,588 C874.34,612.013 889.404,604.458 923.099,618 C942.703,625.879 946.863,629.923 967.099,636 C1004.414,647.206 1016.43,639.84 1053.1,653 C1068.25,658.436 1084.18,666.961 1096.47,674.236 " fill="none" id="InvestmentFundOrderExecution-SecuritiesPricing" style="stroke: #A80036; stroke-width: 1.0;"/><polygon fill="#A80036" points="1100.83,676.852,1095.1705,668.7916,1096.5425,674.2795,1091.0546,675.6515,1100.83,676.852" style="stroke: #A80036; stroke-width: 1.0;"/><text fill="#000000" font-family="sans-serif" font-size="13" lengthAdjust="spacingAndGlyphs" textLength="126" x="848.099" y="544.0669">ExecutedTradePrice</text><text fill="#000000" font-family="sans-serif" font-size="13" lengthAdjust="spacingAndGlyphs" textLength="8" x="1084.1747" y="665.8493">1</text><!--link InvestmentFundOrderExecution to SecuritiesPricing--><path d="M184.882,381.265 C74.2716,432.243 -43.5844,509.739 28.0987,588 C105.1778,672.153 942.956,623.144 1053.1,653 C1069.18,657.36 1085.7,666.321 1098.06,674.084 " fill="none" id="InvestmentFundOrderExecution-SecuritiesPricing" style="stroke: #A80036; stroke-width: 1.0;"/><polygon fill="#A80036" points="1102.41,676.879,1096.9948,668.6525,1098.2016,674.1791,1092.675,675.3859,1102.41,676.879" style="stroke: #A80036; stroke-width: 1.0;"/><text fill="#000000" font-family="sans-serif" font-size="13" lengthAdjust="spacingAndGlyphs" textLength="103" x="29.0987" y="544.0669">InformativePrice</text><text fill="#000000" font-family="sans-serif" font-size="13" lengthAdjust="spacingAndGlyphs" textLength="8" x="1098.3916" y="665.8856">1</text><!--link InvestmentFundOrderExecution to InvestmentFundTransaction--><path d="M493.289,407.323 C512.708,419.181 532.07,431.571 550.099,444 C577.93,463.187 584.771,468.529 609.099,492 C670.301,551.045 660.605,594.98 735.099,636 C778.048,659.65 812.212,615.755 844.099,653 C868.089,681.022 861.105,703.265 844.099,736 C828.714,765.6135 795.788,782.684 765.621,792.4354 " fill="none" id="InvestmentFundOrderExecution-InvestmentFundTransaction" style="stroke: #A80036; stroke-width: 1.0;"/><polygon fill="#A80036" points="760.806,793.9384,770.5891,795.0748,765.5788,792.4484,768.2052,787.4382,760.806,793.9384" style="stroke: #A80036; stroke-width: 1.0;"/><text fill="#000000" font-family="sans-serif" font-size="13" lengthAdjust="spacingAndGlyphs" textLength="177" x="736.099" y="631.0669">InvestmentFundTransaction</text><text fill="#000000" font-family="sans-serif" font-size="13" lengthAdjust="spacingAndGlyphs" textLength="24" x="751.174" y="782.9654">0..1</text><!--link InvestmentFundOrderExecution to FundsCashFlow--><path d="M394.373,414.195 C409.138,439.298 424.924,466.58 439.099,492 C474.343,555.204 465.575,583.233 515.099,636 C530.465,652.373 552.1,665.51 569.697,674.485 " fill="none" id="InvestmentFundOrderExecution-FundsCashFlow" style="stroke: #A80036; stroke-width: 1.0;"/><polygon fill="#A80036" points="574.545,676.905,568.2811,669.3048,570.072,674.6706,564.7061,676.4616,574.545,676.905" style="stroke: #A80036; stroke-width: 1.0;"/><text fill="#000000" font-family="sans-serif" font-size="13" lengthAdjust="spacingAndGlyphs" textLength="59" x="482.099" y="544.0669">CashFlow</text><text fill="#000000" font-family="sans-serif" font-size="13" lengthAdjust="spacingAndGlyphs" textLength="7" x="556.0421" y="665.9206">*</text><!--link SwitchExecutionSubscriptionLeg to SwitchExecution--><path d="M322.099,711.631 C322.099,734.088 322.099,768.699 322.099,788.8715 " fill="none" id="SwitchExecutionSubscriptionLeg-SwitchExecution" style="stroke: #A80036; stroke-width: 1.0;"/><polygon fill="#A80036" points="322.099,793.9146,326.099,784.9146,322.099,788.9146,318.099,784.9146,322.099,793.9146" style="stroke: #A80036; stroke-width: 1.0;"/><text fill="#000000" font-family="sans-serif" font-size="13" lengthAdjust="spacingAndGlyphs" textLength="151" x="323.099" y="757.0669">RelatedSwitchExecution</text><text fill="#000000" font-family="sans-serif" font-size="13" lengthAdjust="spacingAndGlyphs" textLength="24" x="292.5443" y="782.9335">0..1</text><!--link SecuritiesSettlement to SecuritiesQuantity--><path d="M1015.55,333.133 C1000.251,357.155 968.484,415.444 986.099,462 C995.873,487.834 1018.71,510.592 1035.22,524.541 " fill="none" id="SecuritiesSettlement-SecuritiesQuantity" style="stroke: #A80036; stroke-width: 1.0;"/><polygon fill="#A80036" points="1039.28,527.894,1034.8928,519.0762,1035.4266,524.7079,1029.795,525.2416,1039.28,527.894" style="stroke: #A80036; stroke-width: 1.0;"/><text fill="#000000" font-family="sans-serif" font-size="13" lengthAdjust="spacingAndGlyphs" textLength="126" x="987.099" y="457.0669">SettlementQuantity</text><text fill="#000000" font-family="sans-serif" font-size="13" lengthAdjust="spacingAndGlyphs" textLength="8" x="1035.3891" y="516.9058">1</text><!--link SecuritiesSettlement to SecuritiesQuantity--><path d="M1036.31,333.116 C1058.52,352.768 1102.52,396.12 1119.1,444 C1130.18,476 1098.11,507.26 1075.16,524.74 " fill="none" id="SecuritiesSettlement-SecuritiesQuantity" style="stroke: #A80036; stroke-width: 1.0;"/><polygon fill="#A80036" points="1071,527.84,1080.608,525.6751,1075.0109,524.8546,1075.8314,519.2576,1071,527.84" style="stroke: #A80036; stroke-width: 1.0;"/><text fill="#000000" font-family="sans-serif" font-size="13" lengthAdjust="spacingAndGlyphs" textLength="98" x="1123.1" y="457.0669">TurnedQuantity</text><text fill="#000000" font-family="sans-serif" font-size="13" lengthAdjust="spacingAndGlyphs" textLength="8" x="1065.9191" y="516.8332">1</text><!--link SecuritiesPricing to SecuritiesTrade--><path d="M1109.68,701.181 C1099.49,716.196 1085.19,743.163 1098.1,762 C1110.43,779.9939 1131.45,790.4597 1151.91,796.5463 " fill="none" id="SecuritiesPricing-SecuritiesTrade" style="stroke: #A80036; stroke-width: 1.0;"/><polygon fill="#A80036" points="1156.82,797.9273,1149.2434,791.6348,1152.0077,796.5703,1147.0722,799.3346,1156.82,797.9273" style="stroke: #A80036; stroke-width: 1.0;"/><text fill="#000000" font-family="sans-serif" font-size="13" lengthAdjust="spacingAndGlyphs" textLength="99" x="1099.1" y="757.0669">SecuritiesTrade</text><text fill="#000000" font-family="sans-serif" font-size="13" lengthAdjust="spacingAndGlyphs" textLength="24" x="1125.088" y="792.2936">0..1</text><!--link SecuritiesQuantity to InvestmentFundOrder--><path d="M1042.77,552.008 C1022.06,571.57 975.972,612.533 930.099,636 C894.306,654.311 850.978,667.323 816.638,675.751 " fill="none" id="SecuritiesQuantity-InvestmentFundOrder" style="stroke: #A80036; stroke-width: 1.0;"/><polygon fill="#A80036" points="811.638,676.961,821.3268,678.7293,816.4974,675.7837,819.4431,670.9543,811.638,676.961" style="stroke: #A80036; stroke-width: 1.0;"/><text fill="#000000" font-family="sans-serif" font-size="13" lengthAdjust="spacingAndGlyphs" textLength="36" x="961.099" y="631.0669">Order</text><text fill="#000000" font-family="sans-serif" font-size="13" lengthAdjust="spacingAndGlyphs" textLength="8" x="819.5811" y="665.9958">1</text><!--link SecuritiesQuantity to FundsCashFlow--><path d="M1038.31,552.17 C1021.52,563.392 993.77,580.121 967.099,588 C926.693,599.937 617.688,587.052 589.099,618 C575.633,632.577 583.505,656.577 591.171,672.337 " fill="none" id="SecuritiesQuantity-FundsCashFlow" style="stroke: #A80036; stroke-width: 1.0;"/><polygon fill="#A80036" points="593.519,676.944,592.9951,667.1091,591.2482,672.4894,585.8678,670.7424,593.519,676.944" style="stroke: #A80036; stroke-width: 1.0;"/><text fill="#000000" font-family="sans-serif" font-size="13" lengthAdjust="spacingAndGlyphs" textLength="107" x="590.099" y="631.0669">RelatedCashFlow</text><text fill="#000000" font-family="sans-serif" font-size="13" lengthAdjust="spacingAndGlyphs" textLength="8" x="580.3665" y="665.973">1</text></g></svg>