<?xml version="1.0" encoding="UTF-8" standalone="no"?><svg xmlns="http://www.w3.org/2000/svg" xmlns:xlink="http://www.w3.org/1999/xlink" contentScriptType="application/ecmascript" contentStyleType="text/css" height="480px" preserveAspectRatio="none" style="width:2117px;height:480px;" version="1.1" viewBox="0 0 2117 480" width="2117px" zoomAndPan="magnify"><defs><filter height="300%" id="fu3l8zuuowrlj" width="300%" x="-1" y="-1"><feGaussianBlur result="blurOut" stdDeviation="2.0"/><feColorMatrix in="blurOut" result="blurOut2" type="matrix" values="0 0 0 0 0 0 0 0 0 0 0 0 0 0 0 0 0 0 .4 0"/><feOffset dx="4.0" dy="4.0" in="blurOut2" result="blurOut3"/><feBlend in="SourceGraphic" in2="blurOut3" mode="normal"/></filter></defs><g><!--cluster ##6843--><!--cluster ##6873--><!--cluster ##6882--><!--class Role--><a target="_top" xlink:actuate="onRequest" xlink:href="../Role.html" xlink:show="new" xlink:title="Role of a party in an activity." xlink:type="simple"><rect fill="#FEFEEE" filter="url(#fu3l8zuuowrlj)" height="44.7734" id="Role" style="stroke: #A80036; stroke-width: 1.5;" width="175" x="1429.75" y="40.5"/><rect fill="#FEFEEE" height="23.9688" style="stroke: #A80036; stroke-width: 1.5;" width="175" x="1429.75" y="40.5"/><text fill="#000000" font-family="sans-serif" font-size="12" lengthAdjust="spacingAndGlyphs" textLength="27" x="1503.75" y="56.6387">Role</text><line style="stroke: #A80036; stroke-width: 1.5;" x1="1430.75" x2="1603.75" y1="64.4688" y2="64.4688"/><ellipse cx="1440.75" cy="76.3711" fill="#84BE84" rx="3" ry="3" style="stroke: #038048; stroke-width: 1.0;"/><text fill="#000000" font-family="sans-serif" font-size="11" lengthAdjust="spacingAndGlyphs" textLength="53" x="1449.75" y="78.6792">PartyRole</text><text fill="#000000" font-family="sans-serif" font-size="11" font-style="italic" lengthAdjust="spacingAndGlyphs" textLength="92" x="1506.75" y="78.6792">(PartyRoleCode)</text></a><!--class SystemPartyRole--><a target="_top" xlink:actuate="onRequest" xlink:href="../SystemPartyRole.html" xlink:show="new" xlink:title="Role played by a party in a system." xlink:type="simple"><rect fill="#FEFECE" filter="url(#fu3l8zuuowrlj)" height="23.9688" id="SystemPartyRole" style="stroke: #A80036; stroke-width: 1.5;" width="110" x="763" y="166"/><rect fill="#FEFECE" height="23.9688" style="stroke: #A80036; stroke-width: 1.5;" width="110" x="763" y="166"/><text fill="#000000" font-family="sans-serif" font-size="12" lengthAdjust="spacingAndGlyphs" textLength="104" x="766" y="182.1387">SystemPartyRole</text></a><!--class SystemMemberRole--><a target="_top" xlink:actuate="onRequest" xlink:href="../SystemMemberRole.html" xlink:show="new" xlink:title="Information about the members of a system." xlink:type="simple"><rect fill="#FEFEEE" filter="url(#fu3l8zuuowrlj)" height="23.9688" id="SystemMemberRole" style="stroke: #A80036; stroke-width: 1.5;" width="128" x="38" y="270"/><rect fill="#FEFEEE" height="23.9688" style="stroke: #A80036; stroke-width: 1.5;" width="128" x="38" y="270"/><text fill="#000000" font-family="sans-serif" font-size="12" lengthAdjust="spacingAndGlyphs" textLength="122" x="41" y="286.1387">SystemMemberRole</text></a><!--class TransactionAdministrator--><a target="_top" xlink:actuate="onRequest" xlink:href="../TransactionAdministrator.html" xlink:show="new" xlink:title="Set of integrated applications that provides centralised services such as clearing and settlement." xlink:type="simple"><rect fill="#FEFEEE" filter="url(#fu3l8zuuowrlj)" height="23.9688" id="TransactionAdministrator" style="stroke: #A80036; stroke-width: 1.5;" width="164" x="201" y="270"/><rect fill="#FEFEEE" height="23.9688" style="stroke: #A80036; stroke-width: 1.5;" width="164" x="201" y="270"/><text fill="#000000" font-family="sans-serif" font-size="12" lengthAdjust="spacingAndGlyphs" textLength="158" x="204" y="286.1387">TransactionAdministrator</text></a><!--class SubmittingPartyRole--><a target="_top" xlink:actuate="onRequest" xlink:href="../SubmittingPartyRole.html" xlink:show="new" xlink:title="Specifies the party which submits trade data sets to a system or to a counterparty." xlink:type="simple"><rect fill="#FEFEEE" filter="url(#fu3l8zuuowrlj)" height="23.9688" id="SubmittingPartyRole" style="stroke: #A80036; stroke-width: 1.5;" width="132" x="400" y="270"/><rect fill="#FEFEEE" height="23.9688" style="stroke: #A80036; stroke-width: 1.5;" width="132" x="400" y="270"/><text fill="#000000" font-family="sans-serif" font-size="12" lengthAdjust="spacingAndGlyphs" textLength="126" x="403" y="286.1387">SubmittingPartyRole</text></a><!--class ThirdPartyRole--><a target="_top" xlink:actuate="onRequest" xlink:href="../ThirdPartyRole.html" xlink:show="new" xlink:title="Party that can use the facilities of a system through one of its members." xlink:type="simple"><rect fill="#FEFEEE" filter="url(#fu3l8zuuowrlj)" height="23.9688" id="ThirdPartyRole" style="stroke: #A80036; stroke-width: 1.5;" width="96" x="567" y="270"/><rect fill="#FEFEEE" height="23.9688" style="stroke: #A80036; stroke-width: 1.5;" width="96" x="567" y="270"/><text fill="#000000" font-family="sans-serif" font-size="12" lengthAdjust="spacingAndGlyphs" textLength="90" x="570" y="286.1387">ThirdPartyRole</text></a><!--class TerminalManagerRole--><a target="_top" xlink:actuate="onRequest" xlink:href="../TerminalManagerRole.html" xlink:show="new" xlink:title="Identifies the party which is the terminal manager (TM) to contact for the maintenance." xlink:type="simple"><rect fill="#FEFEEE" filter="url(#fu3l8zuuowrlj)" height="23.9688" id="TerminalManagerRole" style="stroke: #A80036; stroke-width: 1.5;" width="141" x="698.75" y="270"/><rect fill="#FEFEEE" height="23.9688" style="stroke: #A80036; stroke-width: 1.5;" width="141" x="698.75" y="270"/><text fill="#000000" font-family="sans-serif" font-size="12" lengthAdjust="spacingAndGlyphs" textLength="135" x="701.75" y="286.1387">TerminalManagerRole</text></a><!--class SystemAdministratorRole--><a target="_top" xlink:actuate="onRequest" xlink:href="../SystemAdministratorRole.html" xlink:show="new" xlink:title="Party that administers a system." xlink:type="simple"><rect fill="#FEFEEE" filter="url(#fu3l8zuuowrlj)" height="23.9688" id="SystemAdministratorRole" style="stroke: #A80036; stroke-width: 1.5;" width="162" x="875" y="270"/><rect fill="#FEFEEE" height="23.9688" style="stroke: #A80036; stroke-width: 1.5;" width="162" x="875" y="270"/><text fill="#000000" font-family="sans-serif" font-size="12" lengthAdjust="spacingAndGlyphs" textLength="156" x="878" y="286.1387">SystemAdministratorRole</text></a><!--class SystemReferenceDataResponsible--><a target="_top" xlink:actuate="onRequest" xlink:href="../SystemReferenceDataResponsible.html" xlink:show="new" xlink:title="Party responsible for the maintenance of other parties reference data." xlink:type="simple"><rect fill="#FEFEEE" filter="url(#fu3l8zuuowrlj)" height="23.9688" id="SystemReferenceDataResponsible" style="stroke: #A80036; stroke-width: 1.5;" width="221" x="1072.75" y="270"/><rect fill="#FEFEEE" height="23.9688" style="stroke: #A80036; stroke-width: 1.5;" width="221" x="1072.75" y="270"/><text fill="#000000" font-family="sans-serif" font-size="12" lengthAdjust="spacingAndGlyphs" textLength="215" x="1075.75" y="286.1387">SystemReferenceDataResponsible</text></a><!--class ClearingMemberRole--><a target="_top" xlink:actuate="onRequest" xlink:href="../ClearingMemberRole.html" xlink:show="new" xlink:title="Member of an exchange's clearing corporation, responsible for executing client trades and involved in the clearing of trades." xlink:type="simple"><rect fill="#FEFEEE" filter="url(#fu3l8zuuowrlj)" height="23.9688" id="ClearingMemberRole" style="stroke: #A80036; stroke-width: 1.5;" width="134" x="1329" y="270"/><rect fill="#FEFEEE" height="23.9688" style="stroke: #A80036; stroke-width: 1.5;" width="134" x="1329" y="270"/><text fill="#000000" font-family="sans-serif" font-size="12" lengthAdjust="spacingAndGlyphs" textLength="128" x="1332" y="286.1387">ClearingMemberRole</text></a><!--class RolePlayer--><a target="_top" xlink:actuate="onRequest" xlink:href="../RolePlayer.html" xlink:show="new" xlink:title="Type of entity that plays a specific role in a specific context." xlink:type="simple"><rect fill="#EEEEEE" filter="url(#fu3l8zuuowrlj)" height="23.9688" id="RolePlayer" style="stroke: #A80036; stroke-width: 1.5;" width="71" x="1926.75" y="446"/><rect fill="#EEEEEE" height="23.9688" style="stroke: #A80036; stroke-width: 1.5;" width="71" x="1926.75" y="446"/><text fill="#000000" font-family="sans-serif" font-size="12" lengthAdjust="spacingAndGlyphs" textLength="65" x="1929.75" y="462.1387">RolePlayer</text></a><!--class ContactPersonRole--><a target="_top" xlink:actuate="onRequest" xlink:href="../ContactPersonRole.html" xlink:show="new" xlink:title="Person to be contacted in a given organisation. In the corporate action domain (including meeting notifications), it is the contact person at the party organising the meeting, at the issuer or at an intermediary." xlink:type="simple"><rect fill="#EEEEEE" filter="url(#fu3l8zuuowrlj)" height="23.9688" id="ContactPersonRole" style="stroke: #A80036; stroke-width: 1.5;" width="126" x="1919" y="360"/><rect fill="#EEEEEE" height="23.9688" style="stroke: #A80036; stroke-width: 1.5;" width="126" x="1919" y="360"/><text fill="#000000" font-family="sans-serif" font-size="12" lengthAdjust="spacingAndGlyphs" textLength="120" x="1922" y="376.1387">ContactPersonRole</text></a><!--class CounterpartyRisk--><a target="_top" xlink:actuate="onRequest" xlink:href="../CounterpartyRisk.html" xlink:show="new" xlink:title="Calculation of the exposure amount that one party has vis-a-vis one counterparty or a central system, based on its credit risk." xlink:type="simple"><rect fill="#EEEEEE" filter="url(#fu3l8zuuowrlj)" height="23.9688" id="CounterpartyRisk" style="stroke: #A80036; stroke-width: 1.5;" width="113" x="1931.75" y="270"/><rect fill="#EEEEEE" height="23.9688" style="stroke: #A80036; stroke-width: 1.5;" width="113" x="1931.75" y="270"/><text fill="#000000" font-family="sans-serif" font-size="12" lengthAdjust="spacingAndGlyphs" textLength="107" x="1934.75" y="286.1387">CounterpartyRisk</text></a><!--class Entry--><a target="_top" xlink:actuate="onRequest" xlink:href="../Entry.html" xlink:show="new" xlink:title="Posting to an account that results in an increase or decrease to a balance." xlink:type="simple"><rect fill="#EEEEEE" filter="url(#fu3l8zuuowrlj)" height="23.9688" id="Entry" style="stroke: #A80036; stroke-width: 1.5;" width="38" x="1919" y="166"/><rect fill="#EEEEEE" height="23.9688" style="stroke: #A80036; stroke-width: 1.5;" width="38" x="1919" y="166"/><text fill="#000000" font-family="sans-serif" font-size="12" lengthAdjust="spacingAndGlyphs" textLength="32" x="1922" y="182.1387">Entry</text></a><!--class System--><a target="_top" xlink:actuate="onRequest" xlink:href="../System.html" xlink:show="new" xlink:title="Set of integrated applications that provides centralised services such as clearing, netting, reconciliation, trading and/or settlement." xlink:type="simple"><rect fill="#EEEEEE" filter="url(#fu3l8zuuowrlj)" height="23.9688" id="System" style="stroke: #A80036; stroke-width: 1.5;" width="51" x="1661.75" y="270"/><rect fill="#EEEEEE" height="23.9688" style="stroke: #A80036; stroke-width: 1.5;" width="51" x="1661.75" y="270"/><text fill="#000000" font-family="sans-serif" font-size="12" lengthAdjust="spacingAndGlyphs" textLength="45" x="1664.75" y="286.1387">System</text></a><!--link Role to SystemPartyRole--><path d="M1409.48,81.381 C1258.46,105.796 989.035,149.351 873.31,168.059 " fill="none" id="Role-SystemPartyRole" style="stroke: #A80036; stroke-width: 1.0;"/><polygon fill="none" points="1408.67,74.422,1429.53,78.14,1410.91,88.242,1408.67,74.422" style="stroke: #A80036; stroke-width: 1.0;"/><!--link SystemPartyRole to SystemMemberRole--><path d="M742.239,179.42 C621.767,181.764 380.006,193.338 183,246 C161.837,251.657 139.043,261.915 123.043,269.869 " fill="none" id="SystemPartyRole-SystemMemberRole" style="stroke: #A80036; stroke-width: 1.0;"/><polygon fill="none" points="742.481,172.415,762.592,179.091,742.707,186.413,742.481,172.415" style="stroke: #A80036; stroke-width: 1.0;"/><!--link SystemPartyRole to TransactionAdministrator--><path d="M742.864,186.219 C655.295,195.626 506.671,214.677 382,246 C357.07,252.263 329.57,262.245 309.893,269.949 " fill="none" id="SystemPartyRole-TransactionAdministrator" style="stroke: #A80036; stroke-width: 1.0;"/><polygon fill="none" points="742.347,179.235,762.968,184.115,743.805,193.159,742.347,179.235" style="stroke: #A80036; stroke-width: 1.0;"/><!--link SystemPartyRole to SubmittingPartyRole--><path d="M743.396,194.319 C688.907,206.294 613.579,224.486 549,246 C528.525,252.821 506.006,262.459 489.596,269.894 " fill="none" id="SystemPartyRole-SubmittingPartyRole" style="stroke: #A80036; stroke-width: 1.0;"/><polygon fill="none" points="742.165,187.424,763.193,190.041,745.123,201.108,742.165,187.424" style="stroke: #A80036; stroke-width: 1.0;"/><!--link SystemPartyRole to ThirdPartyRole--><path d="M776.572,198.825 C749.306,211.979 712.892,229.751 681,246 C665.63,253.831 648.416,262.972 635.423,269.948 " fill="none" id="SystemPartyRole-ThirdPartyRole" style="stroke: #A80036; stroke-width: 1.0;"/><polygon fill="none" points="773.556,192.508,794.614,190.15,779.622,205.125,773.556,192.508" style="stroke: #A80036; stroke-width: 1.0;"/><!--link SystemPartyRole to TerminalManagerRole--><path d="M803.76,208.642 C793.889,229.191 781.305,255.385 774.306,269.954 " fill="none" id="SystemPartyRole-TerminalManagerRole" style="stroke: #A80036; stroke-width: 1.0;"/><polygon fill="none" points="797.599,205.302,812.569,190.306,810.218,211.364,797.599,205.302" style="stroke: #A80036; stroke-width: 1.0;"/><!--link SystemPartyRole to SystemAdministratorRole--><path d="M849.348,202.17 C877.994,223.343 919.119,253.74 940.987,269.904 " fill="none" id="SystemPartyRole-SystemAdministratorRole" style="stroke: #A80036; stroke-width: 1.0;"/><polygon fill="none" points="844.954,207.627,833.031,190.11,853.275,196.369,844.954,207.627" style="stroke: #A80036; stroke-width: 1.0;"/><!--link SystemPartyRole to SystemReferenceDataResponsible--><path d="M877.07,195.507 C952.035,216.456 1079.29,252.019 1143.48,269.956 " fill="none" id="SystemPartyRole-SystemReferenceDataResponsible" style="stroke: #A80036; stroke-width: 1.0;"/><polygon fill="none" points="874.786,202.137,857.408,190.013,878.554,188.654,874.786,202.137" style="stroke: #A80036; stroke-width: 1.0;"/><!--link SystemPartyRole to ClearingMemberRole--><path d="M893.304,183.366 C990.839,190.353 1165.48,207.412 1310,246 C1332.12,251.905 1356.16,262.028 1373.18,269.873 " fill="none" id="SystemPartyRole-ClearingMemberRole" style="stroke: #A80036; stroke-width: 1.0;"/><polygon fill="none" points="892.598,190.334,873.122,181.987,893.553,176.367,892.598,190.334" style="stroke: #A80036; stroke-width: 1.0;"/><!--link ContactPersonRole to RolePlayer--><!--link CounterpartyRisk to ContactPersonRole--><!--link Entry to CounterpartyRisk--><!--link Role to RolePlayer--><path d="M1604.47,66.182 C1682,73.338 1783,97.849 1783,177 C1783,177 1783,177 1783,373 C1783,433.8572 1868.84,450.7099 1921.63,455.3199 " fill="none" id="Role-RolePlayer" style="stroke: #A80036; stroke-width: 1.0;"/><polygon fill="#A80036" points="1926.64,455.7288,1917.9889,451.0215,1921.656,455.3288,1917.3488,458.9959,1926.64,455.7288" style="stroke: #A80036; stroke-width: 1.0;"/><text fill="#000000" font-family="sans-serif" font-size="13" lengthAdjust="spacingAndGlyphs" textLength="39" x="1784" y="286.0669">Player</text><text fill="#000000" font-family="sans-serif" font-size="13" lengthAdjust="spacingAndGlyphs" textLength="7" x="1911.7461" y="449.9585">*</text><!--link Role to ContactPersonRole--><path d="M1604.43,70.328 C1678.75,77.339 1778.15,91.099 1809,116 C1854.6,152.803 1831.43,186.293 1859,238 C1879.65,276.722 1883.8,288.163 1914,320 C1927.62,334.359 1945.64,347.672 1959.7,357.092 " fill="none" id="Role-ContactPersonRole" style="stroke: #A80036; stroke-width: 1.0;"/><polygon fill="#A80036" points="1963.93,359.888,1958.6274,351.5884,1959.7588,357.131,1954.2162,358.2624,1963.93,359.888" style="stroke: #A80036; stroke-width: 1.0;"/><text fill="#000000" font-family="sans-serif" font-size="13" lengthAdjust="spacingAndGlyphs" textLength="121" x="1860" y="233.0669">ContactPersonRole</text><text fill="#000000" font-family="sans-serif" font-size="13" lengthAdjust="spacingAndGlyphs" textLength="8" x="1946.9997" y="348.8977">1</text><!--link Role to CounterpartyRisk--><path d="M1604.57,66.183 C1715.21,70.329 1898.18,82.217 1956,116 C1987.06,134.148 2001.88,219.265 2002,220 C2004.59,235.376 1999.87,252.681 1995.23,264.921 " fill="none" id="Role-CounterpartyRisk" style="stroke: #A80036; stroke-width: 1.0;"/><polygon fill="#A80036" points="1993.27,269.837,2000.3228,262.9625,1995.1245,265.1936,1992.8934,259.9953,1993.27,269.837" style="stroke: #A80036; stroke-width: 1.0;"/><text fill="#000000" font-family="sans-serif" font-size="13" lengthAdjust="spacingAndGlyphs" textLength="109" x="1996" y="182.0669">CounterpartyRisk</text><text fill="#000000" font-family="sans-serif" font-size="13" lengthAdjust="spacingAndGlyphs" textLength="24" x="1965.5269" y="258.8292">0..1</text><!--link Role to Entry--><path d="M1604.3,68.404 C1699.52,74.539 1844.68,88.197 1892,116 C1909.88,126.504 1923.07,146.927 1930.64,161.237 " fill="none" id="Role-Entry" style="stroke: #A80036; stroke-width: 1.0;"/><polygon fill="#A80036" points="1932.99,165.832,1932.4471,155.9981,1930.7105,161.3818,1925.3268,159.6453,1932.99,165.832" style="stroke: #A80036; stroke-width: 1.0;"/><text fill="#000000" font-family="sans-serif" font-size="13" lengthAdjust="spacingAndGlyphs" textLength="33" x="1913" y="129.0669">Entry</text><text fill="#000000" font-family="sans-serif" font-size="13" lengthAdjust="spacingAndGlyphs" textLength="8" x="1920.5491" y="154.8225">1</text><!--link SystemPartyRole to System--><path d="M873.092,180.716 C1030.53,186.074 1480.14,204.667 1621,246 C1637.07,250.716 1653.72,259.581 1666.28,267.208 " fill="none" id="SystemPartyRole-System" style="stroke: #A80036; stroke-width: 1.0;"/><polygon fill="#A80036" points="1670.71,269.952,1665.1585,261.8168,1666.4572,267.3226,1660.9515,268.6213,1670.71,269.952" style="stroke: #A80036; stroke-width: 1.0;"/><text fill="#000000" font-family="sans-serif" font-size="13" lengthAdjust="spacingAndGlyphs" textLength="97" x="1587" y="233.0669">RelatedSystem</text><text fill="#000000" font-family="sans-serif" font-size="13" lengthAdjust="spacingAndGlyphs" textLength="23" x="1636.7275" y="258.9837">1..*</text><!--link ClearingMemberRole to ClearingMemberRole--><path d="M1463.2,273.401 C1482.81,273.698 1498,276.564 1498,282 C1498,286.926 1485.52,289.742 1468.59,290.448 " fill="none" id="ClearingMemberRole-ClearingMemberRole" style="stroke: #A80036; stroke-width: 1.0;"/><polygon fill="#A80036" points="1463.2,290.599,1472.3106,294.3403,1468.198,290.4562,1472.0821,286.3435,1463.2,290.599" style="stroke: #A80036; stroke-width: 1.0;"/><text fill="#000000" font-family="sans-serif" font-size="13" lengthAdjust="spacingAndGlyphs" textLength="111" x="1504" y="286.0669">ClearingSegment</text><text fill="#000000" font-family="sans-serif" font-size="13" lengthAdjust="spacingAndGlyphs" textLength="8" x="1470.9875" y="286.6857">1</text></g></svg>