<?xml version="1.0" encoding="UTF-8" standalone="no"?><svg xmlns="http://www.w3.org/2000/svg" xmlns:xlink="http://www.w3.org/1999/xlink" contentScriptType="application/ecmascript" contentStyleType="text/css" height="968px" preserveAspectRatio="none" style="width:2808px;height:968px;" version="1.1" viewBox="0 0 2808 968" width="2808px" zoomAndPan="magnify"><defs><filter height="300%" id="fmdctrhhizvbg" width="300%" x="-1" y="-1"><feGaussianBlur result="blurOut" stdDeviation="2.0"/><feColorMatrix in="blurOut" result="blurOut2" type="matrix" values="0 0 0 0 0 0 0 0 0 0 0 0 0 0 0 0 0 0 .4 0"/><feOffset dx="4.0" dy="4.0" in="blurOut2" result="blurOut3"/><feBlend in="SourceGraphic" in2="blurOut3" mode="normal"/></filter></defs><g><!--cluster ##6586--><!--cluster ##6610--><!--cluster ##6615--><!--class RolePlayer--><a target="_top" xlink:actuate="onRequest" xlink:href="../RolePlayer.html" xlink:show="new" xlink:title="Type of entity that plays a specific role in a specific context." xlink:type="simple"><rect fill="#FEFEEE" filter="url(#fmdctrhhizvbg)" height="23.9688" id="RolePlayer" style="stroke: #A80036; stroke-width: 1.5;" width="71" x="2091.75" y="40"/><rect fill="#FEFEEE" height="23.9688" style="stroke: #A80036; stroke-width: 1.5;" width="71" x="2091.75" y="40"/><text fill="#000000" font-family="sans-serif" font-size="12" lengthAdjust="spacingAndGlyphs" textLength="65" x="2094.75" y="56.1387">RolePlayer</text></a><!--class System--><a target="_top" xlink:actuate="onRequest" xlink:href="../System.html" xlink:show="new" xlink:title="Set of integrated applications that provides centralised services such as clearing, netting, reconciliation, trading and/or settlement." xlink:type="simple"><rect fill="#FEFECE" filter="url(#fmdctrhhizvbg)" height="57.5781" id="System" style="stroke: #A80036; stroke-width: 1.5;" width="254" x="1300" y="126"/><rect fill="#FEFECE" height="23.9688" style="stroke: #A80036; stroke-width: 1.5;" width="254" x="1300" y="126"/><text fill="#000000" font-family="sans-serif" font-size="12" lengthAdjust="spacingAndGlyphs" textLength="45" x="1404.5" y="142.1387">System</text><line style="stroke: #A80036; stroke-width: 1.5;" x1="1301" x2="1553" y1="149.9688" y2="149.9688"/><ellipse cx="1311" cy="161.8711" fill="#84BE84" rx="3" ry="3" style="stroke: #038048; stroke-width: 1.0;"/><text fill="#000000" font-family="sans-serif" font-size="11" lengthAdjust="spacingAndGlyphs" textLength="97" x="1320" y="164.1792">SystemDateTime</text><text fill="#000000" font-family="sans-serif" font-size="11" font-style="italic" lengthAdjust="spacingAndGlyphs" textLength="81" x="1421" y="164.1792">(ISODateTime)</text><ellipse cx="1311" cy="174.6758" fill="#84BE84" rx="3" ry="3" style="stroke: #038048; stroke-width: 1.0;"/><text fill="#000000" font-family="sans-serif" font-size="11" lengthAdjust="spacingAndGlyphs" textLength="98" x="1320" y="176.9839">SystemLanguage</text><text fill="#000000" font-family="sans-serif" font-size="11" font-style="italic" lengthAdjust="spacingAndGlyphs" textLength="126" x="1422" y="176.9839">(ISO2ALanguageCode)</text></a><!--class ClearingSystem--><a target="_top" xlink:actuate="onRequest" xlink:href="../ClearingSystem.html" xlink:show="new" xlink:title="Specifies the system which plays a role in the clearing process." xlink:type="simple"><rect fill="#FEFEEE" filter="url(#fmdctrhhizvbg)" height="23.9688" id="ClearingSystem" style="stroke: #A80036; stroke-width: 1.5;" width="102" x="1300.5" y="264"/><rect fill="#FEFEEE" height="23.9688" style="stroke: #A80036; stroke-width: 1.5;" width="102" x="1300.5" y="264"/><text fill="#000000" font-family="sans-serif" font-size="12" lengthAdjust="spacingAndGlyphs" textLength="96" x="1303.5" y="280.1387">ClearingSystem</text></a><!--class SecuritiesSettlementSystem--><a target="_top" xlink:actuate="onRequest" xlink:href="../SecuritiesSettlementSystem.html" xlink:show="new" xlink:title="Specifies the system used in a settlement process." xlink:type="simple"><rect fill="#FEFEEE" filter="url(#fmdctrhhizvbg)" height="23.9688" id="SecuritiesSettlementSystem" style="stroke: #A80036; stroke-width: 1.5;" width="182" x="1437" y="264"/><rect fill="#FEFEEE" height="23.9688" style="stroke: #A80036; stroke-width: 1.5;" width="182" x="1437" y="264"/><text fill="#000000" font-family="sans-serif" font-size="12" lengthAdjust="spacingAndGlyphs" textLength="176" x="1440" y="280.1387">SecuritiesSettlementSystem</text></a><!--class PointOfInteraction--><a target="_top" xlink:actuate="onRequest" xlink:href="../PointOfInteraction.html" xlink:show="new" xlink:title="Point of interaction (POI) is the entry point to a card payment system. It could be a physical or logical card payment terminal containing software and hardware components, it could be a payment system including a set of card payment terminals linked to a local or remote server, or it could be just an interface to make payments as telephone or Internet browser." xlink:type="simple"><rect fill="#FEFEEE" filter="url(#fmdctrhhizvbg)" height="23.9688" id="PointOfInteraction" style="stroke: #A80036; stroke-width: 1.5;" width="119" x="1654.75" y="264"/><rect fill="#FEFEEE" height="23.9688" style="stroke: #A80036; stroke-width: 1.5;" width="119" x="1654.75" y="264"/><text fill="#000000" font-family="sans-serif" font-size="12" lengthAdjust="spacingAndGlyphs" textLength="113" x="1657.75" y="280.1387">PointOfInteraction</text></a><!--class TerminalManagementSystem--><a target="_top" xlink:actuate="onRequest" xlink:href="../TerminalManagementSystem.html" xlink:show="new" xlink:title="Terminal management system (TMS), has in charge the maintenance of the terminal, including monitoring, software update, configuration parameters management." xlink:type="simple"><rect fill="#FEFEEE" filter="url(#fmdctrhhizvbg)" height="23.9688" id="TerminalManagementSystem" style="stroke: #A80036; stroke-width: 1.5;" width="186" x="1584.5" y="368"/><rect fill="#FEFEEE" height="23.9688" style="stroke: #A80036; stroke-width: 1.5;" width="186" x="1584.5" y="368"/><text fill="#000000" font-family="sans-serif" font-size="12" lengthAdjust="spacingAndGlyphs" textLength="180" x="1587.5" y="384.1387">TerminalManagementSystem</text></a><!--class MatchingSystem--><a target="_top" xlink:actuate="onRequest" xlink:href="../MatchingSystem.html" xlink:show="new" xlink:title="System which compares two sets of data and provides the comparison result to its users." xlink:type="simple"><rect fill="#FEFEEE" filter="url(#fmdctrhhizvbg)" height="23.9688" id="MatchingSystem" style="stroke: #A80036; stroke-width: 1.5;" width="108" x="1846" y="264"/><rect fill="#FEFEEE" height="23.9688" style="stroke: #A80036; stroke-width: 1.5;" width="108" x="1846" y="264"/><text fill="#000000" font-family="sans-serif" font-size="12" lengthAdjust="spacingAndGlyphs" textLength="102" x="1849" y="280.1387">MatchingSystem</text></a><!--class TreasurySettlementSystem--><a target="_top" xlink:actuate="onRequest" xlink:href="../TreasurySettlementSystem.html" xlink:show="new" xlink:title="Centralised system in which a central party settles treasury trades between members." xlink:type="simple"><rect fill="#FEFEEE" filter="url(#fmdctrhhizvbg)" height="23.9688" id="TreasurySettlementSystem" style="stroke: #A80036; stroke-width: 1.5;" width="174" x="1989" y="264"/><rect fill="#FEFEEE" height="23.9688" style="stroke: #A80036; stroke-width: 1.5;" width="174" x="1989" y="264"/><text fill="#000000" font-family="sans-serif" font-size="12" lengthAdjust="spacingAndGlyphs" textLength="168" x="1992" y="280.1387">TreasurySettlementSystem</text></a><!--class Role--><a target="_top" xlink:actuate="onRequest" xlink:href="../Role.html" xlink:show="new" xlink:title="Role of a party in an activity." xlink:type="simple"><rect fill="#EEEEEE" filter="url(#fmdctrhhizvbg)" height="23.9688" id="Role" style="stroke: #A80036; stroke-width: 1.5;" width="33" x="2543.75" y="368"/><rect fill="#EEEEEE" height="23.9688" style="stroke: #A80036; stroke-width: 1.5;" width="33" x="2543.75" y="368"/><text fill="#000000" font-family="sans-serif" font-size="12" lengthAdjust="spacingAndGlyphs" textLength="27" x="2546.75" y="384.1387">Role</text></a><!--class DateTimePeriod--><a target="_top" xlink:actuate="onRequest" xlink:href="../DateTimePeriod.html" xlink:show="new" xlink:title="Time span defined by a start date and time, and an end date and time." xlink:type="simple"><rect fill="#EEEEEE" filter="url(#fmdctrhhizvbg)" height="23.9688" id="DateTimePeriod" style="stroke: #A80036; stroke-width: 1.5;" width="105" x="2541.75" y="264"/><rect fill="#EEEEEE" height="23.9688" style="stroke: #A80036; stroke-width: 1.5;" width="105" x="2541.75" y="264"/><text fill="#000000" font-family="sans-serif" font-size="12" lengthAdjust="spacingAndGlyphs" textLength="99" x="2544.75" y="280.1387">DateTimePeriod</text></a><!--class SystemIdentification--><a target="_top" xlink:actuate="onRequest" xlink:href="../SystemIdentification.html" xlink:show="new" xlink:title="Parameters that identify a system." xlink:type="simple"><rect fill="#EEEEEE" filter="url(#fmdctrhhizvbg)" height="23.9688" id="SystemIdentification" style="stroke: #A80036; stroke-width: 1.5;" width="132" x="1112" y="472"/><rect fill="#EEEEEE" height="23.9688" style="stroke: #A80036; stroke-width: 1.5;" width="132" x="1112" y="472"/><text fill="#000000" font-family="sans-serif" font-size="12" lengthAdjust="spacingAndGlyphs" textLength="126" x="1115" y="488.1387">SystemIdentification</text></a><!--class Location--><a target="_top" xlink:actuate="onRequest" xlink:href="../Location.html" xlink:show="new" xlink:title="Specifies a place." xlink:type="simple"><rect fill="#EEEEEE" filter="url(#fmdctrhhizvbg)" height="23.9688" id="Location" style="stroke: #A80036; stroke-width: 1.5;" width="59" x="1184.75" y="368"/><rect fill="#EEEEEE" height="23.9688" style="stroke: #A80036; stroke-width: 1.5;" width="59" x="1184.75" y="368"/><text fill="#000000" font-family="sans-serif" font-size="12" lengthAdjust="spacingAndGlyphs" textLength="53" x="1187.75" y="384.1387">Location</text></a><!--class Reconciliation--><a target="_top" xlink:actuate="onRequest" xlink:href="../Reconciliation.html" xlink:show="new" xlink:title="Process of matching different documents submitted by parties to a trade." xlink:type="simple"><rect fill="#EEEEEE" filter="url(#fmdctrhhizvbg)" height="23.9688" id="Reconciliation" style="stroke: #A80036; stroke-width: 1.5;" width="93" x="1151.75" y="264"/><rect fill="#EEEEEE" height="23.9688" style="stroke: #A80036; stroke-width: 1.5;" width="93" x="1151.75" y="264"/><text fill="#000000" font-family="sans-serif" font-size="12" lengthAdjust="spacingAndGlyphs" textLength="87" x="1154.75" y="280.1387">Reconciliation</text></a><!--class SystemAvailability--><a target="_top" xlink:actuate="onRequest" xlink:href="../SystemAvailability.html" xlink:show="new" xlink:title="information about the periods of activity and non-activity of a system." xlink:type="simple"><rect fill="#EEEEEE" filter="url(#fmdctrhhizvbg)" height="23.9688" id="SystemAvailability" style="stroke: #A80036; stroke-width: 1.5;" width="115" x="961.75" y="934"/><rect fill="#EEEEEE" height="23.9688" style="stroke: #A80036; stroke-width: 1.5;" width="115" x="961.75" y="934"/><text fill="#000000" font-family="sans-serif" font-size="12" lengthAdjust="spacingAndGlyphs" textLength="109" x="964.75" y="950.1387">SystemAvailability</text></a><!--class SystemEventInformation--><a target="_top" xlink:actuate="onRequest" xlink:href="../SystemEventInformation.html" xlink:show="new" xlink:title="Detailed information about an event occurring on a system, whether planned, for example, cut-off time for a specific type of eligible transfer, or unplanned, for example, an unsolicited failure, as stipulated in the specifications of the system." xlink:type="simple"><rect fill="#EEEEEE" filter="url(#fmdctrhhizvbg)" height="23.9688" id="SystemEventInformation" style="stroke: #A80036; stroke-width: 1.5;" width="157" x="772.75" y="848"/><rect fill="#EEEEEE" height="23.9688" style="stroke: #A80036; stroke-width: 1.5;" width="157" x="772.75" y="848"/><text fill="#000000" font-family="sans-serif" font-size="12" lengthAdjust="spacingAndGlyphs" textLength="151" x="775.75" y="864.1387">SystemEventInformation</text></a><!--class SystemPartyRole--><a target="_top" xlink:actuate="onRequest" xlink:href="../SystemPartyRole.html" xlink:show="new" xlink:title="Role played by a party in a system." xlink:type="simple"><rect fill="#EEEEEE" filter="url(#fmdctrhhizvbg)" height="23.9688" id="SystemPartyRole" style="stroke: #A80036; stroke-width: 1.5;" width="110" x="796" y="762"/><rect fill="#EEEEEE" height="23.9688" style="stroke: #A80036; stroke-width: 1.5;" width="110" x="796" y="762"/><text fill="#000000" font-family="sans-serif" font-size="12" lengthAdjust="spacingAndGlyphs" textLength="104" x="799" y="778.1387">SystemPartyRole</text></a><!--class SystemStatus--><a target="_top" xlink:actuate="onRequest" xlink:href="../SystemStatus.html" xlink:show="new" xlink:title="Status of a system and the period of time during which the status is valid." xlink:type="simple"><rect fill="#EEEEEE" filter="url(#fmdctrhhizvbg)" height="23.9688" id="SystemStatus" style="stroke: #A80036; stroke-width: 1.5;" width="92" x="812" y="676"/><rect fill="#EEEEEE" height="23.9688" style="stroke: #A80036; stroke-width: 1.5;" width="92" x="812" y="676"/><text fill="#000000" font-family="sans-serif" font-size="12" lengthAdjust="spacingAndGlyphs" textLength="86" x="815" y="692.1387">SystemStatus</text></a><!--class SystemBusinessInformation--><a target="_top" xlink:actuate="onRequest" xlink:href="../SystemBusinessInformation.html" xlink:show="new" xlink:title="Details about business information related to a system." xlink:type="simple"><rect fill="#EEEEEE" filter="url(#fmdctrhhizvbg)" height="23.9688" id="SystemBusinessInformation" style="stroke: #A80036; stroke-width: 1.5;" width="178" x="769.5" y="574"/><rect fill="#EEEEEE" height="23.9688" style="stroke: #A80036; stroke-width: 1.5;" width="178" x="769.5" y="574"/><text fill="#000000" font-family="sans-serif" font-size="12" lengthAdjust="spacingAndGlyphs" textLength="172" x="772.5" y="590.1387">SystemBusinessInformation</text></a><!--class Negotiation--><a target="_top" xlink:actuate="onRequest" xlink:href="../Negotiation.html" xlink:show="new" xlink:title="Decision making on the transfer of a financial instrument." xlink:type="simple"><rect fill="#EEEEEE" filter="url(#fmdctrhhizvbg)" height="23.9688" id="Negotiation" style="stroke: #A80036; stroke-width: 1.5;" width="79" x="886.75" y="472"/><rect fill="#EEEEEE" height="23.9688" style="stroke: #A80036; stroke-width: 1.5;" width="79" x="886.75" y="472"/><text fill="#000000" font-family="sans-serif" font-size="12" lengthAdjust="spacingAndGlyphs" textLength="73" x="889.75" y="488.1387">Negotiation</text></a><!--class Account--><a target="_top" xlink:actuate="onRequest" xlink:href="../Account.html" xlink:show="new" xlink:title="Record of transactions in specific types of assets, maintained by a servicing party on behalf of one or more owning parties. Business relationship between an account servicer and one or more account owners." xlink:type="simple"><rect fill="#EEEEEE" filter="url(#fmdctrhhizvbg)" height="23.9688" id="Account" style="stroke: #A80036; stroke-width: 1.5;" width="57" x="892.75" y="368"/><rect fill="#EEEEEE" height="23.9688" style="stroke: #A80036; stroke-width: 1.5;" width="57" x="892.75" y="368"/><text fill="#000000" font-family="sans-serif" font-size="12" lengthAdjust="spacingAndGlyphs" textLength="51" x="895.75" y="384.1387">Account</text></a><!--class Trade--><a target="_top" xlink:actuate="onRequest" xlink:href="../Trade.html" xlink:show="new" xlink:title="Result of an order between at least two parties. A trade relates to the delivery of goods and services, cash or securities." xlink:type="simple"><rect fill="#EEEEEE" filter="url(#fmdctrhhizvbg)" height="23.9688" id="Trade" style="stroke: #A80036; stroke-width: 1.5;" width="42" x="982.5" y="574"/><rect fill="#EEEEEE" height="23.9688" style="stroke: #A80036; stroke-width: 1.5;" width="42" x="982.5" y="574"/><text fill="#000000" font-family="sans-serif" font-size="12" lengthAdjust="spacingAndGlyphs" textLength="36" x="985.5" y="590.1387">Trade</text></a><!--class Assessment--><a target="_top" xlink:actuate="onRequest" xlink:href="../Assessment.html" xlink:show="new" xlink:title="Assessment for the components of a system." xlink:type="simple"><rect fill="#EEEEEE" filter="url(#fmdctrhhizvbg)" height="23.9688" id="Assessment" style="stroke: #A80036; stroke-width: 1.5;" width="82" x="769" y="472"/><rect fill="#EEEEEE" height="23.9688" style="stroke: #A80036; stroke-width: 1.5;" width="82" x="769" y="472"/><text fill="#000000" font-family="sans-serif" font-size="12" lengthAdjust="spacingAndGlyphs" textLength="76" x="772" y="488.1387">Assessment</text></a><!--class Position--><a target="_top" xlink:actuate="onRequest" xlink:href="../Position.html" xlink:show="new" xlink:title="Specifies the status of trades and their value inside a system." xlink:type="simple"><rect fill="#EEEEEE" filter="url(#fmdctrhhizvbg)" height="23.9688" id="Position" style="stroke: #A80036; stroke-width: 1.5;" width="56" x="792.5" y="368"/><rect fill="#EEEEEE" height="23.9688" style="stroke: #A80036; stroke-width: 1.5;" width="56" x="792.5" y="368"/><text fill="#000000" font-family="sans-serif" font-size="12" lengthAdjust="spacingAndGlyphs" textLength="50" x="795.5" y="384.1387">Position</text></a><!--link RolePlayer to System--><path d="M2071.34,61.032 C1960.11,77.079 1707.92,113.468 1554.1,135.662 " fill="none" id="RolePlayer-System" style="stroke: #A80036; stroke-width: 1.0;"/><polygon fill="none" points="2070.53,54.075,2091.32,58.147,2072.53,67.932,2070.53,54.075" style="stroke: #A80036; stroke-width: 1.0;"/><!--link System to ClearingSystem--><path d="M1398.19,201.112 C1383.7,223.804 1367.31,249.465 1358.16,263.79 " fill="none" id="System-ClearingSystem" style="stroke: #A80036; stroke-width: 1.0;"/><polygon fill="none" points="1392.32,197.289,1408.99,184.201,1404.12,204.825,1392.32,197.289" style="stroke: #A80036; stroke-width: 1.0;"/><!--link System to SecuritiesSettlementSystem--><path d="M1464.15,199.775 C1483.69,222.788 1506.09,249.183 1518.49,263.79 " fill="none" id="System-SecuritiesSettlementSystem" style="stroke: #A80036; stroke-width: 1.0;"/><polygon fill="none" points="1458.54,203.979,1450.94,184.201,1469.21,194.92,1458.54,203.979" style="stroke: #A80036; stroke-width: 1.0;"/><!--link System to PointOfInteraction--><path d="M1517.55,191.484 C1554.42,206.173 1597.39,223.584 1636,240 C1654.17,247.723 1674.51,256.868 1689.87,263.874 " fill="none" id="System-PointOfInteraction" style="stroke: #A80036; stroke-width: 1.0;"/><polygon fill="none" points="1514.88,197.956,1498.87,184.071,1520.04,184.944,1514.88,197.956" style="stroke: #A80036; stroke-width: 1.0;"/><!--link System to TerminalManagementSystem--><path d="M1574.25,173.625 C1661.12,187.067 1759.82,208.665 1790,240 C1819.96,271.102 1830.21,300.937 1805,336 C1793.85,351.512 1776.82,361.506 1758.79,367.922 " fill="none" id="System-TerminalManagementSystem" style="stroke: #A80036; stroke-width: 1.0;"/><polygon fill="none" points="1572.95,180.509,1554.2,170.632,1575.02,166.662,1572.95,180.509" style="stroke: #A80036; stroke-width: 1.0;"/><!--link System to MatchingSystem--><path d="M1574.73,160.553 C1650.21,167.127 1742.11,181.838 1819,214 C1847.26,225.821 1874.52,249.753 1889.09,263.872 " fill="none" id="System-MatchingSystem" style="stroke: #A80036; stroke-width: 1.0;"/><polygon fill="none" points="1573.79,167.501,1554.4,158.943,1574.89,153.544,1573.79,167.501" style="stroke: #A80036; stroke-width: 1.0;"/><!--link System to TreasurySettlementSystem--><path d="M1574.31,169.98 C1684.78,182.568 1839.02,204.631 1971,240 C1996.61,246.864 2025.12,256.499 2045.97,263.922 " fill="none" id="System-TreasurySettlementSystem" style="stroke: #A80036; stroke-width: 1.0;"/><polygon fill="none" points="1573.3,176.912,1554.2,167.739,1574.86,162.998,1573.3,176.912" style="stroke: #A80036; stroke-width: 1.0;"/><!--link DateTimePeriod to Role--><!--link Location to SystemIdentification--><!--link Reconciliation to Location--><!--link SystemAvailability to Reconciliation--><!--link SystemEventInformation to SystemAvailability--><!--link SystemPartyRole to SystemEventInformation--><!--link SystemStatus to SystemPartyRole--><!--link SystemBusinessInformation to SystemStatus--><!--link Negotiation to SystemBusinessInformation--><!--link Account to Negotiation--><!--link Trade to Account--><!--link Assessment to Trade--><!--link Position to Assessment--><!--link RolePlayer to Role--><path d="M2162.3,61.986 C2227.61,80.25 2368.34,127.491 2453,214 C2494.86,256.775 2473.84,288.312 2510,336 C2518.23,346.856 2529.62,356.911 2539.44,364.563 " fill="none" id="RolePlayer-Role" style="stroke: #A80036; stroke-width: 1.0;"/><polygon fill="#A80036" points="2543.54,367.691,2538.8045,359.0553,2539.5626,364.6611,2533.9567,365.4192,2543.54,367.691" style="stroke: #A80036; stroke-width: 1.0;"/><text fill="#000000" font-family="sans-serif" font-size="13" lengthAdjust="spacingAndGlyphs" textLength="27" x="2469" y="227.0669">Role</text><text fill="#000000" font-family="sans-serif" font-size="13" lengthAdjust="spacingAndGlyphs" textLength="23" x="2512.7852" y="358.9648">1..*</text><!--link RolePlayer to DateTimePeriod--><path d="M2162.55,52.241 C2248.06,51.107 2462.25,52.589 2518,94 C2572.76,134.676 2588.35,222.393 2592.55,258.726 " fill="none" id="RolePlayer-DateTimePeriod" style="stroke: #A80036; stroke-width: 1.0;"/><polygon fill="#A80036" points="2593.09,263.702,2596.0947,254.3227,2592.5501,258.7312,2588.1415,255.1866,2593.09,263.702" style="stroke: #A80036; stroke-width: 1.0;"/><text fill="#000000" font-family="sans-serif" font-size="13" lengthAdjust="spacingAndGlyphs" textLength="86" x="2576" y="159.0669">ValidityPeriod</text><text fill="#000000" font-family="sans-serif" font-size="13" lengthAdjust="spacingAndGlyphs" textLength="24" x="2563.3995" y="252.9067">0..1</text><!--link System to SystemIdentification--><path d="M1554.32,161.105 C1758.15,170.6 2139.11,194.292 2180,240 C2194.22,255.899 2192.54,270.741 2180,288 C2152.94,325.239 1831,406.317 1786,416 C1594.7,457.161 1363.8,473.78 1249.41,479.861 " fill="none" id="System-SystemIdentification" style="stroke: #A80036; stroke-width: 1.0;"/><polygon fill="#A80036" points="1244.39,480.126,1253.5838,483.6579,1249.3834,479.8689,1253.1724,475.6685,1244.39,480.126" style="stroke: #A80036; stroke-width: 1.0;"/><text fill="#000000" font-family="sans-serif" font-size="13" lengthAdjust="spacingAndGlyphs" textLength="130" x="2126" y="331.0669">SystemIdentification</text><text fill="#000000" font-family="sans-serif" font-size="13" lengthAdjust="spacingAndGlyphs" textLength="8" x="1252.0889" y="474.8485">1</text><!--link System to Location--><path d="M1299.82,174.225 C1214.1,188.767 1110.73,211.415 1077,240 C1042.58,269.17 1016.28,300.4 1044,336 C1060.48,357.164 1134.81,369.565 1179.55,375.24 " fill="none" id="System-Location" style="stroke: #A80036; stroke-width: 1.0;"/><polygon fill="#A80036" points="1184.59,375.866,1176.1497,370.7904,1179.6279,375.2516,1175.1667,378.7298,1184.59,375.866" style="stroke: #A80036; stroke-width: 1.0;"/><text fill="#000000" font-family="sans-serif" font-size="13" lengthAdjust="spacingAndGlyphs" textLength="54" x="1078" y="280.0669">Location</text><text fill="#000000" font-family="sans-serif" font-size="13" lengthAdjust="spacingAndGlyphs" textLength="8" x="1168.7663" y="369.4617">1</text><!--link System to Reconciliation--><path d="M1346.73,184.007 C1325.21,192.61 1302.3,202.799 1282,214 C1257.27,227.648 1231.34,247.447 1214.94,260.751 " fill="none" id="System-Reconciliation" style="stroke: #A80036; stroke-width: 1.0;"/><polygon fill="#A80036" points="1210.99,263.985,1220.487,261.376,1214.8579,260.8165,1215.4174,255.1874,1210.99,263.985" style="stroke: #A80036; stroke-width: 1.0;"/><text fill="#000000" font-family="sans-serif" font-size="13" lengthAdjust="spacingAndGlyphs" textLength="87" x="1283" y="227.0669">Reconciliation</text><text fill="#000000" font-family="sans-serif" font-size="13" lengthAdjust="spacingAndGlyphs" textLength="8" x="1204.6506" y="253.0281">1</text><!--link System to SystemAvailability--><path d="M1299.9,155.842 C1020.74,156.454 361.69,163.406 145,214 C79.3022,229.34 6,207.535 6,275 C6,275 6,275 6,861 C6,908.9317 735.802,936.0126 956.516,943.1067 " fill="none" id="System-SystemAvailability" style="stroke: #A80036; stroke-width: 1.0;"/><polygon fill="#A80036" points="961.634,943.2705,952.7666,938.9845,956.6366,943.1105,952.5106,946.9805,961.634,943.2705" style="stroke: #A80036; stroke-width: 1.0;"/><text fill="#000000" font-family="sans-serif" font-size="13" lengthAdjust="spacingAndGlyphs" textLength="67" x="7" y="590.0669">Availability</text><text fill="#000000" font-family="sans-serif" font-size="13" lengthAdjust="spacingAndGlyphs" textLength="8" x="945.7854" y="938.1181">1</text><!--link System to SystemEventInformation--><path d="M1299.78,157.129 C1042.01,160.279 466.247,171.941 274,214 C205.7,228.942 129,205.085 129,275 C129,275 129,275 129,775 C129,838.644 577.357,854.145 767.432,857.856 " fill="none" id="System-SystemEventInformation" style="stroke: #A80036; stroke-width: 1.0;"/><polygon fill="#A80036" points="772.703,857.957,763.7812,853.7854,767.7039,857.8613,763.6281,861.784,772.703,857.957" style="stroke: #A80036; stroke-width: 1.0;"/><text fill="#000000" font-family="sans-serif" font-size="13" lengthAdjust="spacingAndGlyphs" textLength="36" x="130" y="539.0669">Event</text><text fill="#000000" font-family="sans-serif" font-size="13" lengthAdjust="spacingAndGlyphs" textLength="8" x="756.7843" y="853.1576">1</text><!--link System to SystemPartyRole--><path d="M1299.8,155.408 C989.133,155.644 217,167.084 217,275 C217,275 217,275 217,689 C217,746.528 632.524,765.964 790.782,771.28 " fill="none" id="System-SystemPartyRole" style="stroke: #A80036; stroke-width: 1.0;"/><polygon fill="#A80036" points="795.846,771.448,786.9847,767.1494,790.8488,771.2809,786.7173,775.1449,795.846,771.448" style="stroke: #A80036; stroke-width: 1.0;"/><text fill="#000000" font-family="sans-serif" font-size="13" lengthAdjust="spacingAndGlyphs" textLength="60" x="218" y="488.0669">PartyRole</text><text fill="#000000" font-family="sans-serif" font-size="13" lengthAdjust="spacingAndGlyphs" textLength="7" x="780.9485" y="766.2465">*</text><!--link System to SystemStatus--><path d="M1554.17,158.697 C1735.61,163.774 2059.09,177.725 2170,214 C2238.42,236.378 2287,254.015 2287,326 C2287,326 2287,326 2287,587 C2287,657.51 1165.26,681.576 909.487,686.146 " fill="none" id="System-SystemStatus" style="stroke: #A80036; stroke-width: 1.0;"/><polygon fill="#A80036" points="904.329,686.238,913.3984,690.078,909.3282,686.1494,913.2567,682.0792,904.329,686.238" style="stroke: #A80036; stroke-width: 1.0;"/><text fill="#000000" font-family="sans-serif" font-size="13" lengthAdjust="spacingAndGlyphs" textLength="42" x="2288" y="437.0669">Status</text><text fill="#000000" font-family="sans-serif" font-size="13" lengthAdjust="spacingAndGlyphs" textLength="8" x="912.0356" y="680.7461">1</text><!--link System to SystemBusinessInformation--><path d="M1299.92,158.874 C1109.41,164.279 759.29,178.765 639,214 C559.601,237.258 438.621,271.891 386,366 C302.098,516.052 603.783,564.035 764.137,578.781 " fill="none" id="System-SystemBusinessInformation" style="stroke: #A80036; stroke-width: 1.0;"/><polygon fill="#A80036" points="769.31,579.249,760.7079,574.4528,764.3304,578.7976,759.9856,582.4202,769.31,579.249" style="stroke: #A80036; stroke-width: 1.0;"/><text fill="#000000" font-family="sans-serif" font-size="13" lengthAdjust="spacingAndGlyphs" textLength="190" x="387" y="384.0669">SystemGeneratedInformation</text><text fill="#000000" font-family="sans-serif" font-size="13" lengthAdjust="spacingAndGlyphs" textLength="8" x="753.3929" y="574.2019">1</text><!--link System to DateTimePeriod--><path d="M1554.21,158.57 C1756.88,163.693 2143.7,177.964 2276,214 C2293.26,218.701 2294.95,226.586 2312,232 C2387.49,255.971 2478.71,266.773 2536.55,271.505 " fill="none" id="System-DateTimePeriod" style="stroke: #A80036; stroke-width: 1.0;"/><polygon fill="#A80036" points="2541.7,271.917,2533.0489,267.2097,2536.716,271.5169,2532.4088,275.184,2541.7,271.917" style="stroke: #A80036; stroke-width: 1.0;"/><text fill="#000000" font-family="sans-serif" font-size="13" lengthAdjust="spacingAndGlyphs" textLength="134" x="2313" y="227.0669">VersionValidityPeriod</text><text fill="#000000" font-family="sans-serif" font-size="13" lengthAdjust="spacingAndGlyphs" textLength="8" x="2525.6861" y="266.4603">1</text><!--link System to Negotiation--><path d="M1299.68,160.273 C1152.89,166.65 921.484,181.575 841,214 C772.447,241.618 708.934,264.594 728,336 C738.58,375.626 743.494,388.586 774,416 C804.745,443.629 848.711,461.322 881.455,471.545 " fill="none" id="System-Negotiation" style="stroke: #A80036; stroke-width: 1.0;"/><polygon fill="#A80036" points="886.611,473.122,879.175,466.664,881.8298,471.6592,876.8345,474.314,886.611,473.122" style="stroke: #A80036; stroke-width: 1.0;"/><text fill="#000000" font-family="sans-serif" font-size="13" lengthAdjust="spacingAndGlyphs" textLength="74" x="729" y="331.0669">Negotiation</text><text fill="#000000" font-family="sans-serif" font-size="13" lengthAdjust="spacingAndGlyphs" textLength="24" x="859.0428" y="465.118">0..1</text><!--link System to Account--><path d="M1299.81,165.132 C1183.14,176.017 1021.49,198.235 974,240 C937.121,272.435 925.787,333.382 922.396,362.585 " fill="none" id="System-Account" style="stroke: #A80036; stroke-width: 1.0;"/><polygon fill="#A80036" points="921.851,367.654,926.7898,359.133,922.3853,362.6826,918.8356,358.2781,921.851,367.654" style="stroke: #A80036; stroke-width: 1.0;"/><text fill="#000000" font-family="sans-serif" font-size="13" lengthAdjust="spacingAndGlyphs" textLength="52" x="975" y="280.0669">Account</text><text fill="#000000" font-family="sans-serif" font-size="13" lengthAdjust="spacingAndGlyphs" textLength="8" x="911.3938" y="356.8428">1</text><!--link System to Trade--><path d="M1299.64,160.607 C1087.14,169.58 678.977,192.799 634,240 C579.407,297.292 566.867,347.794 607,416 C668.704,520.867 734.972,501.549 849,544 C898.1,562.279 912.408,560.387 963,574 C967.597,575.237 972.486,576.568 977.211,577.863 " fill="none" id="System-Trade" style="stroke: #A80036; stroke-width: 1.0;"/><polygon fill="#A80036" points="982.251,579.247,974.6314,573.0067,977.4295,577.9231,972.5131,580.7212,982.251,579.247" style="stroke: #A80036; stroke-width: 1.0;"/><text fill="#000000" font-family="sans-serif" font-size="13" lengthAdjust="spacingAndGlyphs" textLength="36" x="608" y="384.0669">Trade</text><text fill="#000000" font-family="sans-serif" font-size="13" lengthAdjust="spacingAndGlyphs" textLength="8" x="966.5247" y="571.4263">1</text><!--link System to Assessment--><path d="M1299.99,158.676 C1123.84,164.466 816.367,182.709 722,240 C672.78,269.882 610.711,283.793 635,336 C665.379,401.297 740.65,447.897 781.885,469.489 " fill="none" id="System-Assessment" style="stroke: #A80036; stroke-width: 1.0;"/><polygon fill="#A80036" points="786.497,471.874,780.3405,464.1865,782.0559,469.577,776.6653,471.2923,786.497,471.874" style="stroke: #A80036; stroke-width: 1.0;"/><text fill="#000000" font-family="sans-serif" font-size="13" lengthAdjust="spacingAndGlyphs" textLength="79" x="636" y="331.0669">Assessment</text><text fill="#000000" font-family="sans-serif" font-size="13" lengthAdjust="spacingAndGlyphs" textLength="24" x="748.9491" y="460.8789">0..1</text><!--link System to Position--><path d="M1299.77,156.323 C1145.74,159.632 899.289,175.254 838,240 C806.189,273.605 811.706,333.984 816.647,362.817 " fill="none" id="System-Position" style="stroke: #A80036; stroke-width: 1.0;"/><polygon fill="#A80036" points="817.554,367.82,819.8849,358.2509,816.6623,362.9001,812.0131,359.6776,817.554,367.82" style="stroke: #A80036; stroke-width: 1.0;"/><text fill="#000000" font-family="sans-serif" font-size="13" lengthAdjust="spacingAndGlyphs" textLength="93" x="839" y="280.0669">TradesPosition</text><text fill="#000000" font-family="sans-serif" font-size="13" lengthAdjust="spacingAndGlyphs" textLength="8" x="805.8226" y="356.8063">1</text><!--link PointOfInteraction to TerminalManagementSystem--><path d="M1654.68,287.334 C1607.51,296.154 1548.25,308.83 1541,318 C1521.34,342.866 1551.63,357.902 1588.58,366.822 " fill="none" id="PointOfInteraction-TerminalManagementSystem" style="stroke: #A80036; stroke-width: 1.0;"/><polygon fill="#A80036" points="1593.59,367.987,1585.7254,362.0585,1588.7191,366.8582,1583.9193,369.8519,1593.59,367.987" style="stroke: #A80036; stroke-width: 1.0;"/><text fill="#000000" font-family="sans-serif" font-size="13" lengthAdjust="spacingAndGlyphs" textLength="257" x="1542" y="331.0669">ControllingTerminalManagementSystem</text><text fill="#000000" font-family="sans-serif" font-size="13" lengthAdjust="spacingAndGlyphs" textLength="24" x="1552.5393" y="360.67">0..1</text><!--link DateTimePeriod to Account--><path d="M2541.48,286.387 C2462.93,299.99 2310.06,324.777 2179,336 C1730.67,374.394 1616.59,347.459 1167,366 C1090.93,369.137 1001.705,374.197 954.401,376.989 " fill="none" id="DateTimePeriod-Account" style="stroke: #A80036; stroke-width: 1.0;"/><polygon fill="#A80036" points="949.4,377.285,958.6198,380.7484,954.3913,376.9907,958.149,372.7622,949.4,377.285" style="stroke: #A80036; stroke-width: 1.0;"/><text fill="#000000" font-family="sans-serif" font-size="13" lengthAdjust="spacingAndGlyphs" textLength="52" x="2329" y="331.0669">Account</text><text fill="#000000" font-family="sans-serif" font-size="13" lengthAdjust="spacingAndGlyphs" textLength="24" x="957.6809" y="371.0557">0..1</text><!--link DateTimePeriod to SystemAvailability--><path d="M2600.96,288.144 C2611.68,306.402 2631,344.151 2631,379 C2631,379 2631,379 2631,861 C2631,940.0524 1378.34,945.0067 1081.52,945.071 " fill="none" id="DateTimePeriod-SystemAvailability" style="stroke: #A80036; stroke-width: 1.0;"/><polygon fill="#A80036" points="1076.37,945.0717,1085.37,949.0717,1081.37,945.0717,1085.37,941.0717,1076.37,945.0717" style="stroke: #A80036; stroke-width: 1.0;"/><text fill="#000000" font-family="sans-serif" font-size="13" lengthAdjust="spacingAndGlyphs" textLength="164" x="2632" y="641.0669">RelatedSystemAvailability</text><text fill="#000000" font-family="sans-serif" font-size="13" lengthAdjust="spacingAndGlyphs" textLength="8" x="1084.583" y="939.8827">1</text><!--link Reconciliation to Trade--><path d="M1180.63,288.066 C1169.76,295.585 1155.98,306.268 1146,318 C1140.07,324.969 1140.47,328.012 1136,336 C1116.09,371.608 1124.64,392.918 1091,416 C1070.63,429.977 1053.96,407.045 1036,424 C1030.69,429.014 1012.75,529.05 1005.794,568.86 " fill="none" id="Reconciliation-Trade" style="stroke: #A80036; stroke-width: 1.0;"/><polygon fill="#A80036" points="1004.925,573.844,1010.4102,565.664,1005.7831,568.9182,1002.5289,564.2911,1004.925,573.844" style="stroke: #A80036; stroke-width: 1.0;"/><text fill="#000000" font-family="sans-serif" font-size="13" lengthAdjust="spacingAndGlyphs" textLength="111" x="1037" y="437.0669">ReconciledTrades</text><text fill="#000000" font-family="sans-serif" font-size="13" lengthAdjust="spacingAndGlyphs" textLength="8" x="994.6961" y="562.8386">1</text><!--link Reconciliation to Account--><path d="M1163.95,288.072 C1139.63,296.096 1106.17,307.36 1077,318 C1033.82,333.748 984.5,353.301 953.076,365.958 " fill="none" id="Reconciliation-Account" style="stroke: #A80036; stroke-width: 1.0;"/><polygon fill="#A80036" points="948.19,367.929,958.0329,368.2727,952.8271,366.059,955.0409,360.8533,948.19,367.929" style="stroke: #A80036; stroke-width: 1.0;"/><text fill="#000000" font-family="sans-serif" font-size="13" lengthAdjust="spacingAndGlyphs" textLength="52" x="1078" y="331.0669">Account</text><text fill="#000000" font-family="sans-serif" font-size="13" lengthAdjust="spacingAndGlyphs" textLength="8" x="946.7319" y="356.9528">1</text><!--link Negotiation to Trade--><path d="M912.024,496.258 C898.652,508.423 882.021,528.191 893,544 C898.021,551.23 946.36,567.373 977.265,577.107 " fill="none" id="Negotiation-Trade" style="stroke: #A80036; stroke-width: 1.0;"/><polygon fill="#A80036" points="982.066,578.612,974.6745,572.1031,977.2949,577.1164,972.2816,579.7368,982.066,578.612" style="stroke: #A80036; stroke-width: 1.0;"/><text fill="#000000" font-family="sans-serif" font-size="13" lengthAdjust="spacingAndGlyphs" textLength="98" x="894" y="539.0669">TradeExecution</text><text fill="#000000" font-family="sans-serif" font-size="13" lengthAdjust="spacingAndGlyphs" textLength="8" x="966.6227" y="590.7262">1</text><!--link Account to Account--><path d="M949.508,370.938 C967.181,368.753 984,371.773 984,380 C984,387.391 970.424,390.58 954.85,389.567 " fill="none" id="Account-Account" style="stroke: #A80036; stroke-width: 1.0;"/><polygon fill="#A80036" points="949.508,389.062,958.0922,393.8902,954.4859,389.5319,958.8441,385.9256,949.508,389.062" style="stroke: #A80036; stroke-width: 1.0;"/><text fill="#000000" font-family="sans-serif" font-size="13" lengthAdjust="spacingAndGlyphs" textLength="94" x="990" y="384.0669">ParentAccount</text><text fill="#000000" font-family="sans-serif" font-size="13" lengthAdjust="spacingAndGlyphs" textLength="8" x="957.7741" y="405.3939">1</text></g></svg>