<?xml version="1.0" encoding="UTF-8" standalone="no"?><svg xmlns="http://www.w3.org/2000/svg" xmlns:xlink="http://www.w3.org/1999/xlink" contentScriptType="application/ecmascript" contentStyleType="text/css" height="498px" preserveAspectRatio="none" style="width:1043px;height:498px;" version="1.1" viewBox="0 0 1043 498" width="1043px" zoomAndPan="magnify"><defs><filter height="300%" id="fdn4q7stk0en6" width="300%" x="-1" y="-1"><feGaussianBlur result="blurOut" stdDeviation="2.0"/><feColorMatrix in="blurOut" result="blurOut2" type="matrix" values="0 0 0 0 0 0 0 0 0 0 0 0 0 0 0 0 0 0 .4 0"/><feOffset dx="4.0" dy="4.0" in="blurOut2" result="blurOut3"/><feBlend in="SourceGraphic" in2="blurOut3" mode="normal"/></filter></defs><g><!--cluster ##13141--><!--cluster ##13159--><!--cluster ##13168--><!--class Role--><a target="_top" xlink:actuate="onRequest" xlink:href="../Role.html" xlink:show="new" xlink:title="Role of a party in an activity." xlink:type="simple"><rect fill="#FEFEEE" filter="url(#fdn4q7stk0en6)" height="44.7734" id="Role" style="stroke: #A80036; stroke-width: 1.5;" width="175" x="379.75" y="40.5"/><rect fill="#FEFEEE" height="23.9688" style="stroke: #A80036; stroke-width: 1.5;" width="175" x="379.75" y="40.5"/><text fill="#000000" font-family="sans-serif" font-size="12" lengthAdjust="spacingAndGlyphs" textLength="27" x="453.75" y="56.6387">Role</text><line style="stroke: #A80036; stroke-width: 1.5;" x1="380.75" x2="553.75" y1="64.4688" y2="64.4688"/><ellipse cx="390.75" cy="76.3711" fill="#84BE84" rx="3" ry="3" style="stroke: #038048; stroke-width: 1.0;"/><text fill="#000000" font-family="sans-serif" font-size="11" lengthAdjust="spacingAndGlyphs" textLength="53" x="399.75" y="78.6792">PartyRole</text><text fill="#000000" font-family="sans-serif" font-size="11" font-style="italic" lengthAdjust="spacingAndGlyphs" textLength="92" x="456.75" y="78.6792">(PartyRoleCode)</text></a><!--class TaxPartyRole--><a target="_top" xlink:actuate="onRequest" xlink:href="../TaxPartyRole.html" xlink:show="new" xlink:title="Role played by a party in the context of a tax due." xlink:type="simple"><rect fill="#FEFECE" filter="url(#fdn4q7stk0en6)" height="44.7734" id="TaxPartyRole" style="stroke: #A80036; stroke-width: 1.5;" width="234" x="288" y="164.5"/><rect fill="#FEFECE" height="23.9688" style="stroke: #A80036; stroke-width: 1.5;" width="234" x="288" y="164.5"/><text fill="#000000" font-family="sans-serif" font-size="12" lengthAdjust="spacingAndGlyphs" textLength="80" x="365" y="180.6387">TaxPartyRole</text><line style="stroke: #A80036; stroke-width: 1.5;" x1="289" x2="521" y1="188.4688" y2="188.4688"/><ellipse cx="299" cy="200.3711" fill="#84BE84" rx="3" ry="3" style="stroke: #038048; stroke-width: 1.0;"/><text fill="#000000" font-family="sans-serif" font-size="11" lengthAdjust="spacingAndGlyphs" textLength="134" x="308" y="202.6792">VATRegistrationNumber</text><text fill="#000000" font-family="sans-serif" font-size="11" font-style="italic" lengthAdjust="spacingAndGlyphs" textLength="70" x="446" y="202.6792">(Max35Text)</text></a><!--class CreditSideTaxDebtor--><a target="_top" xlink:actuate="onRequest" xlink:href="../CreditSideTaxDebtor.html" xlink:show="new" xlink:title="Party on the credit side of the transaction to which the tax applies." xlink:type="simple"><rect fill="#FEFEEE" filter="url(#fdn4q7stk0en6)" height="23.9688" id="CreditSideTaxDebtor" style="stroke: #A80036; stroke-width: 1.5;" width="134" x="38" y="290"/><rect fill="#FEFEEE" height="23.9688" style="stroke: #A80036; stroke-width: 1.5;" width="134" x="38" y="290"/><text fill="#000000" font-family="sans-serif" font-size="12" lengthAdjust="spacingAndGlyphs" textLength="128" x="41" y="306.1387">CreditSideTaxDebtor</text></a><!--class TaxPayer--><a target="_top" xlink:actuate="onRequest" xlink:href="../TaxPayer.html" xlink:show="new" xlink:title="Party that settles tax amounts. May be different from the tax debtor and tax creditor." xlink:type="simple"><rect fill="#FEFEEE" filter="url(#fdn4q7stk0en6)" height="23.9688" id="TaxPayer" style="stroke: #A80036; stroke-width: 1.5;" width="62" x="207.5" y="290"/><rect fill="#FEFEEE" height="23.9688" style="stroke: #A80036; stroke-width: 1.5;" width="62" x="207.5" y="290"/><text fill="#000000" font-family="sans-serif" font-size="12" lengthAdjust="spacingAndGlyphs" textLength="56" x="210.5" y="306.1387">TaxPayer</text></a><!--class DebitSideTaxDebtor--><a target="_top" xlink:actuate="onRequest" xlink:href="../DebitSideTaxDebtor.html" xlink:show="new" xlink:title="Party on the debit side of the transaction to which the tax applies." xlink:type="simple"><rect fill="#FEFEEE" filter="url(#fdn4q7stk0en6)" height="23.9688" id="DebitSideTaxDebtor" style="stroke: #A80036; stroke-width: 1.5;" width="130" x="304" y="290"/><rect fill="#FEFEEE" height="23.9688" style="stroke: #A80036; stroke-width: 1.5;" width="130" x="304" y="290"/><text fill="#000000" font-family="sans-serif" font-size="12" lengthAdjust="spacingAndGlyphs" textLength="124" x="307" y="306.1387">DebitSideTaxDebtor</text></a><!--class TaxRecipient--><a target="_top" xlink:actuate="onRequest" xlink:href="../TaxRecipient.html" xlink:show="new" xlink:title="Party that receives the tax. The recipient of, and the party entitled to, the tax may be two different parties." xlink:type="simple"><rect fill="#FEFEEE" filter="url(#fdn4q7stk0en6)" height="23.9688" id="TaxRecipient" style="stroke: #A80036; stroke-width: 1.5;" width="85" x="469.75" y="290"/><rect fill="#FEFEEE" height="23.9688" style="stroke: #A80036; stroke-width: 1.5;" width="85" x="469.75" y="290"/><text fill="#000000" font-family="sans-serif" font-size="12" lengthAdjust="spacingAndGlyphs" textLength="79" x="472.75" y="306.1387">TaxRecipient</text></a><!--class RolePlayer--><a target="_top" xlink:actuate="onRequest" xlink:href="../RolePlayer.html" xlink:show="new" xlink:title="Type of entity that plays a specific role in a specific context." xlink:type="simple"><rect fill="#EEEEEE" filter="url(#fdn4q7stk0en6)" height="23.9688" id="RolePlayer" style="stroke: #A80036; stroke-width: 1.5;" width="71" x="852.75" y="464"/><rect fill="#EEEEEE" height="23.9688" style="stroke: #A80036; stroke-width: 1.5;" width="71" x="852.75" y="464"/><text fill="#000000" font-family="sans-serif" font-size="12" lengthAdjust="spacingAndGlyphs" textLength="65" x="855.75" y="480.1387">RolePlayer</text></a><!--class ContactPersonRole--><a target="_top" xlink:actuate="onRequest" xlink:href="../ContactPersonRole.html" xlink:show="new" xlink:title="Person to be contacted in a given organisation. In the corporate action domain (including meeting notifications) , it is the contact person at the party organising the meeting, at the issuer or at an intermediary." xlink:type="simple"><rect fill="#EEEEEE" filter="url(#fdn4q7stk0en6)" height="23.9688" id="ContactPersonRole" style="stroke: #A80036; stroke-width: 1.5;" width="126" x="845" y="378"/><rect fill="#EEEEEE" height="23.9688" style="stroke: #A80036; stroke-width: 1.5;" width="126" x="845" y="378"/><text fill="#000000" font-family="sans-serif" font-size="12" lengthAdjust="spacingAndGlyphs" textLength="120" x="848" y="394.1387">ContactPersonRole</text></a><!--class CounterpartyRisk--><a target="_top" xlink:actuate="onRequest" xlink:href="../CounterpartyRisk.html" xlink:show="new" xlink:title="Calculation of the exposure amount that one party has vis-a-vis one counterparty or a central system, based on its credit risk." xlink:type="simple"><rect fill="#EEEEEE" filter="url(#fdn4q7stk0en6)" height="23.9688" id="CounterpartyRisk" style="stroke: #A80036; stroke-width: 1.5;" width="113" x="857.75" y="290"/><rect fill="#EEEEEE" height="23.9688" style="stroke: #A80036; stroke-width: 1.5;" width="113" x="857.75" y="290"/><text fill="#000000" font-family="sans-serif" font-size="12" lengthAdjust="spacingAndGlyphs" textLength="107" x="860.75" y="306.1387">CounterpartyRisk</text></a><!--class Entry--><a target="_top" xlink:actuate="onRequest" xlink:href="../Entry.html" xlink:show="new" xlink:title="Posting to an account that results in an increase or decrease to a balance." xlink:type="simple"><rect fill="#EEEEEE" filter="url(#fdn4q7stk0en6)" height="23.9688" id="Entry" style="stroke: #A80036; stroke-width: 1.5;" width="38" x="845" y="175"/><rect fill="#EEEEEE" height="23.9688" style="stroke: #A80036; stroke-width: 1.5;" width="38" x="845" y="175"/><text fill="#000000" font-family="sans-serif" font-size="12" lengthAdjust="spacingAndGlyphs" textLength="32" x="848" y="191.1387">Entry</text></a><!--class Tax--><a target="_top" xlink:actuate="onRequest" xlink:href="../Tax.html" xlink:show="new" xlink:title="Amount of money due to the government or tax authority, according to various pre-defined parameters such as thresholds or income." xlink:type="simple"><rect fill="#EEEEEE" filter="url(#fdn4q7stk0en6)" height="23.9688" id="Tax" style="stroke: #A80036; stroke-width: 1.5;" width="27" x="611.75" y="290"/><rect fill="#EEEEEE" height="23.9688" style="stroke: #A80036; stroke-width: 1.5;" width="27" x="611.75" y="290"/><text fill="#000000" font-family="sans-serif" font-size="12" lengthAdjust="spacingAndGlyphs" textLength="21" x="614.75" y="306.1387">Tax</text></a><!--link Role to TaxPartyRole--><path d="M446.961,103.432 C436.701,123.62 424.604,147.425 416.041,164.275 " fill="none" id="Role-TaxPartyRole" style="stroke: #A80036; stroke-width: 1.0;"/><polygon fill="none" points="440.757,100.189,456.058,85.53,453.238,106.531,440.757,100.189" style="stroke: #A80036; stroke-width: 1.0;"/><!--link TaxPartyRole to CreditSideTaxDebtor--><path d="M323.925,216.234 C283.252,230.662 233.333,248.771 189,266 C169.268,273.669 147.178,282.899 130.605,289.954 " fill="none" id="TaxPartyRole-CreditSideTaxDebtor" style="stroke: #A80036; stroke-width: 1.0;"/><polygon fill="none" points="321.599,209.631,342.788,209.57,326.262,222.832,321.599,209.631" style="stroke: #A80036; stroke-width: 1.0;"/><!--link TaxPartyRole to TaxPayer--><path d="M354.245,220.475 C332.998,234.274 308.141,250.685 286,266 C274.804,273.744 262.392,282.808 252.995,289.771 " fill="none" id="TaxPartyRole-TaxPayer" style="stroke: #A80036; stroke-width: 1.0;"/><polygon fill="none" points="350.508,214.555,371.105,209.579,358.106,226.314,350.508,214.555" style="stroke: #A80036; stroke-width: 1.0;"/><!--link TaxPartyRole to DebitSideTaxDebtor--><path d="M391.975,228.885 C385.043,250.643 377.043,275.753 372.548,289.865 " fill="none" id="TaxPartyRole-DebitSideTaxDebtor" style="stroke: #A80036; stroke-width: 1.0;"/><polygon fill="none" points="385.403,226.452,398.144,209.52,398.743,230.702,385.403,226.452" style="stroke: #A80036; stroke-width: 1.0;"/><!--link TaxPartyRole to TaxRecipient--><path d="M439.309,224.232 C460.83,246.961 487.129,274.734 501.456,289.865 " fill="none" id="TaxPartyRole-TaxRecipient" style="stroke: #A80036; stroke-width: 1.0;"/><polygon fill="none" points="434.046,228.856,425.378,209.52,444.212,219.23,434.046,228.856" style="stroke: #A80036; stroke-width: 1.0;"/><!--link ContactPersonRole to RolePlayer--><!--link CounterpartyRisk to ContactPersonRole--><!--link Entry to CounterpartyRisk--><!--link Role to RolePlayer--><path d="M554.368,72.635 C623.686,84.882 709,114.483 709,186 C709,186 709,186 709,391 C709,451.8572 794.842,468.7099 847.634,473.3199 " fill="none" id="Role-RolePlayer" style="stroke: #A80036; stroke-width: 1.0;"/><polygon fill="#A80036" points="852.635,473.7288,843.9919,469.0068,847.6517,473.3202,843.3382,476.98,852.635,473.7288" style="stroke: #A80036; stroke-width: 1.0;"/><text fill="#000000" font-family="sans-serif" font-size="13" lengthAdjust="spacingAndGlyphs" textLength="39" x="710" y="306.0669">Player</text><text fill="#000000" font-family="sans-serif" font-size="13" lengthAdjust="spacingAndGlyphs" textLength="7" x="837.7402" y="467.9585">*</text><!--link Role to ContactPersonRole--><path d="M554.309,71.569 C621.865,79.101 708.267,92.932 735,116 C785.656,159.712 754.673,198.359 785,258 C804.557,296.461 810.125,306.868 840,338 C853.704,352.281 871.714,365.597 885.757,375.039 " fill="none" id="Role-ContactPersonRole" style="stroke: #A80036; stroke-width: 1.0;"/><polygon fill="#A80036" points="889.978,377.842,884.6906,369.5328,885.8118,375.0774,880.2672,376.1987,889.978,377.842" style="stroke: #A80036; stroke-width: 1.0;"/><text fill="#000000" font-family="sans-serif" font-size="13" lengthAdjust="spacingAndGlyphs" textLength="121" x="786" y="253.0669">ContactPersonRole</text><text fill="#000000" font-family="sans-serif" font-size="13" lengthAdjust="spacingAndGlyphs" textLength="8" x="873.0642" y="366.8359">1</text><!--link Role to CounterpartyRisk--><path d="M554.402,66.157 C659.4,70.249 827.939,82.054 880,116 C911.476,136.524 926.488,236.423 927,240 C929.201,255.382 924.85,272.686 920.6,284.924 " fill="none" id="Role-CounterpartyRisk" style="stroke: #A80036; stroke-width: 1.0;"/><polygon fill="#A80036" points="918.805,289.839,925.6508,282.7584,920.5209,285.1427,918.1366,280.0128,918.805,289.839" style="stroke: #A80036; stroke-width: 1.0;"/><text fill="#000000" font-family="sans-serif" font-size="13" lengthAdjust="spacingAndGlyphs" textLength="109" x="922" y="191.0669">CounterpartyRisk</text><text fill="#000000" font-family="sans-serif" font-size="13" lengthAdjust="spacingAndGlyphs" textLength="24" x="890.902" y="278.8319">0..1</text><!--link Role to Entry--><path d="M554.326,68.817 C643.751,75.162 775.489,88.857 818,116 C837.994,128.766 851.185,153.685 858.124,170.086 " fill="none" id="Role-Entry" style="stroke: #A80036; stroke-width: 1.0;"/><polygon fill="#A80036" points="860.078,174.879,860.3852,165.0349,858.1908,170.2488,852.9769,168.0545,860.078,174.879" style="stroke: #A80036; stroke-width: 1.0;"/><text fill="#000000" font-family="sans-serif" font-size="13" lengthAdjust="spacingAndGlyphs" textLength="33" x="837" y="129.0669">Entry</text><text fill="#000000" font-family="sans-serif" font-size="13" lengthAdjust="spacingAndGlyphs" textLength="8" x="848.0111" y="163.8856">1</text><!--link TaxPartyRole to Tax--><path d="M455.645,209.647 C488.989,224.419 533.285,245.044 571,266 C583.476,272.932 596.947,281.661 607.314,288.668 " fill="none" id="TaxPartyRole-Tax" style="stroke: #A80036; stroke-width: 1.0;"/><polygon fill="#A80036" points="611.555,291.555,606.3674,283.1831,607.4222,288.7408,601.8646,289.7956,611.555,291.555" style="stroke: #A80036; stroke-width: 1.0;"/><text fill="#000000" font-family="sans-serif" font-size="13" lengthAdjust="spacingAndGlyphs" textLength="22" x="555" y="253.0669">Tax</text><text fill="#000000" font-family="sans-serif" font-size="13" lengthAdjust="spacingAndGlyphs" textLength="7" x="596.8456" y="280.6662">*</text></g></svg>