<?xml version="1.0" encoding="UTF-8" standalone="no"?><svg xmlns="http://www.w3.org/2000/svg" xmlns:xlink="http://www.w3.org/1999/xlink" contentScriptType="application/ecmascript" contentStyleType="text/css" height="480px" preserveAspectRatio="none" style="width:885px;height:480px;" version="1.1" viewBox="0 0 885 480" width="885px" zoomAndPan="magnify"><defs><filter height="300%" id="fj0m0ea2eod7m" width="300%" x="-1" y="-1"><feGaussianBlur result="blurOut" stdDeviation="2.0"/><feColorMatrix in="blurOut" result="blurOut2" type="matrix" values="0 0 0 0 0 0 0 0 0 0 0 0 0 0 0 0 0 0 .4 0"/><feOffset dx="4.0" dy="4.0" in="blurOut2" result="blurOut3"/><feBlend in="SourceGraphic" in2="blurOut3" mode="normal"/></filter></defs><g><!--cluster ##19273--><!--cluster ##19288--><!--cluster ##19297--><!--class Role--><a target="_top" xlink:actuate="onRequest" xlink:href="../Role.html" xlink:show="new" xlink:title="Role of a party in an activity." xlink:type="simple"><rect fill="#FEFEEE" filter="url(#fj0m0ea2eod7m)" height="44.7734" id="Role" style="stroke: #A80036; stroke-width: 1.5;" width="175" x="169.75" y="40.5"/><rect fill="#FEFEEE" height="23.9688" style="stroke: #A80036; stroke-width: 1.5;" width="175" x="169.75" y="40.5"/><text fill="#000000" font-family="sans-serif" font-size="12" lengthAdjust="spacingAndGlyphs" textLength="27" x="243.75" y="56.6387">Role</text><line style="stroke: #A80036; stroke-width: 1.5;" x1="170.75" x2="343.75" y1="64.4688" y2="64.4688"/><ellipse cx="180.75" cy="76.3711" fill="#84BE84" rx="3" ry="3" style="stroke: #038048; stroke-width: 1.0;"/><text fill="#000000" font-family="sans-serif" font-size="11" lengthAdjust="spacingAndGlyphs" textLength="53" x="189.75" y="78.6792">PartyRole</text><text fill="#000000" font-family="sans-serif" font-size="11" font-style="italic" lengthAdjust="spacingAndGlyphs" textLength="92" x="246.75" y="78.6792">(PartyRoleCode)</text></a><!--class SystemPartyRole--><a target="_top" xlink:actuate="onRequest" xlink:href="../SystemPartyRole.html" xlink:show="new" xlink:title="Role played by a party in a system." xlink:type="simple"><rect fill="#FEFEEE" filter="url(#fj0m0ea2eod7m)" height="23.9688" id="SystemPartyRole" style="stroke: #A80036; stroke-width: 1.5;" width="110" x="217" y="166"/><rect fill="#FEFEEE" height="23.9688" style="stroke: #A80036; stroke-width: 1.5;" width="110" x="217" y="166"/><text fill="#000000" font-family="sans-serif" font-size="12" lengthAdjust="spacingAndGlyphs" textLength="104" x="220" y="182.1387">SystemPartyRole</text></a><!--class ThirdPartyRole--><a target="_top" xlink:actuate="onRequest" xlink:href="../ThirdPartyRole.html" xlink:show="new" xlink:title="Party that can use the facilities of a system through one of its members." xlink:type="simple"><rect fill="#FEFECE" filter="url(#fj0m0ea2eod7m)" height="23.9688" id="ThirdPartyRole" style="stroke: #A80036; stroke-width: 1.5;" width="96" x="224" y="270"/><rect fill="#FEFECE" height="23.9688" style="stroke: #A80036; stroke-width: 1.5;" width="96" x="224" y="270"/><text fill="#000000" font-family="sans-serif" font-size="12" lengthAdjust="spacingAndGlyphs" textLength="90" x="227" y="286.1387">ThirdPartyRole</text></a><!--class NonClearingMemberRole--><a target="_top" xlink:actuate="onRequest" xlink:href="../NonClearingMemberRole.html" xlink:show="new" xlink:title="Party that is involved in a trade but which must clear the trade through a member of an exchange's clearing corporation." xlink:type="simple"><rect fill="#FEFEEE" filter="url(#fj0m0ea2eod7m)" height="23.9688" id="NonClearingMemberRole" style="stroke: #A80036; stroke-width: 1.5;" width="159" x="47.75" y="358"/><rect fill="#FEFEEE" height="23.9688" style="stroke: #A80036; stroke-width: 1.5;" width="159" x="47.75" y="358"/><text fill="#000000" font-family="sans-serif" font-size="12" lengthAdjust="spacingAndGlyphs" textLength="153" x="50.75" y="374.1387">NonClearingMemberRole</text></a><!--class IndirectMember--><a target="_top" xlink:actuate="onRequest" xlink:href="../IndirectMember.html" xlink:show="new" xlink:title="Financial institution or member of a system having limited rights to the system specifications." xlink:type="simple"><rect fill="#FEFEEE" filter="url(#fj0m0ea2eod7m)" height="23.9688" id="IndirectMember" style="stroke: #A80036; stroke-width: 1.5;" width="103" x="241.75" y="358"/><rect fill="#FEFEEE" height="23.9688" style="stroke: #A80036; stroke-width: 1.5;" width="103" x="241.75" y="358"/><text fill="#000000" font-family="sans-serif" font-size="12" lengthAdjust="spacingAndGlyphs" textLength="97" x="244.75" y="374.1387">IndirectMember</text></a><!--class RolePlayer--><a target="_top" xlink:actuate="onRequest" xlink:href="../RolePlayer.html" xlink:show="new" xlink:title="Type of entity that plays a specific role in a specific context." xlink:type="simple"><rect fill="#EEEEEE" filter="url(#fj0m0ea2eod7m)" height="23.9688" id="RolePlayer" style="stroke: #A80036; stroke-width: 1.5;" width="71" x="601.75" y="446"/><rect fill="#EEEEEE" height="23.9688" style="stroke: #A80036; stroke-width: 1.5;" width="71" x="601.75" y="446"/><text fill="#000000" font-family="sans-serif" font-size="12" lengthAdjust="spacingAndGlyphs" textLength="65" x="604.75" y="462.1387">RolePlayer</text></a><!--class ContactPersonRole--><a target="_top" xlink:actuate="onRequest" xlink:href="../ContactPersonRole.html" xlink:show="new" xlink:title="Person to be contacted in a given organisation. In the corporate action domain (including meeting notifications), it is the contact person at the party organising the meeting, at the issuer or at an intermediary." xlink:type="simple"><rect fill="#EEEEEE" filter="url(#fj0m0ea2eod7m)" height="23.9688" id="ContactPersonRole" style="stroke: #A80036; stroke-width: 1.5;" width="126" x="594" y="358"/><rect fill="#EEEEEE" height="23.9688" style="stroke: #A80036; stroke-width: 1.5;" width="126" x="594" y="358"/><text fill="#000000" font-family="sans-serif" font-size="12" lengthAdjust="spacingAndGlyphs" textLength="120" x="597" y="374.1387">ContactPersonRole</text></a><!--class CounterpartyRisk--><a target="_top" xlink:actuate="onRequest" xlink:href="../CounterpartyRisk.html" xlink:show="new" xlink:title="Calculation of the exposure amount that one party has vis-a-vis one counterparty or a central system, based on its credit risk." xlink:type="simple"><rect fill="#EEEEEE" filter="url(#fj0m0ea2eod7m)" height="23.9688" id="CounterpartyRisk" style="stroke: #A80036; stroke-width: 1.5;" width="113" x="600.75" y="270"/><rect fill="#EEEEEE" height="23.9688" style="stroke: #A80036; stroke-width: 1.5;" width="113" x="600.75" y="270"/><text fill="#000000" font-family="sans-serif" font-size="12" lengthAdjust="spacingAndGlyphs" textLength="107" x="603.75" y="286.1387">CounterpartyRisk</text></a><!--class Entry--><a target="_top" xlink:actuate="onRequest" xlink:href="../Entry.html" xlink:show="new" xlink:title="Posting to an account that results in an increase or decrease to a balance." xlink:type="simple"><rect fill="#EEEEEE" filter="url(#fj0m0ea2eod7m)" height="23.9688" id="Entry" style="stroke: #A80036; stroke-width: 1.5;" width="38" x="676" y="166"/><rect fill="#EEEEEE" height="23.9688" style="stroke: #A80036; stroke-width: 1.5;" width="38" x="676" y="166"/><text fill="#000000" font-family="sans-serif" font-size="12" lengthAdjust="spacingAndGlyphs" textLength="32" x="679" y="182.1387">Entry</text></a><!--class System--><a target="_top" xlink:actuate="onRequest" xlink:href="../System.html" xlink:show="new" xlink:title="Set of integrated applications that provides centralised services such as clearing, netting, reconciliation, trading and/or settlement." xlink:type="simple"><rect fill="#EEEEEE" filter="url(#fj0m0ea2eod7m)" height="23.9688" id="System" style="stroke: #A80036; stroke-width: 1.5;" width="51" x="401.75" y="270"/><rect fill="#EEEEEE" height="23.9688" style="stroke: #A80036; stroke-width: 1.5;" width="51" x="401.75" y="270"/><text fill="#000000" font-family="sans-serif" font-size="12" lengthAdjust="spacingAndGlyphs" textLength="45" x="404.75" y="286.1387">System</text></a><!--entity ##19300--><!--link Role to SystemPartyRole--><path d="M262.517,105.559 C265.384,127.159 268.668,151.898 270.522,165.865 " fill="none" id="Role-SystemPartyRole" style="stroke: #A80036; stroke-width: 1.0;"/><polygon fill="none" points="255.549,106.268,259.857,85.52,269.428,104.425,255.549,106.268" style="stroke: #A80036; stroke-width: 1.0;"/><!--link SystemPartyRole to ThirdPartyRole--><path d="M272,210.595 C272,230.825 272,255.843 272,269.954 " fill="none" id="SystemPartyRole-ThirdPartyRole" style="stroke: #A80036; stroke-width: 1.0;"/><polygon fill="none" points="265,210.306,272,190.306,279,210.305,265,210.306" style="stroke: #A80036; stroke-width: 1.0;"/><!--link ThirdPartyRole to NonClearingMemberRole--><path d="M235.852,304.439 C207.184,321.443 168.284,344.514 145.588,357.976 " fill="none" id="ThirdPartyRole-NonClearingMemberRole" style="stroke: #A80036; stroke-width: 1.0;"/><polygon fill="none" points="232.568,298.249,253.341,294.067,239.71,310.29,232.568,298.249" style="stroke: #A80036; stroke-width: 1.0;"/><!--link ThirdPartyRole to IndirectMember--><path d="M279.509,313.751 C283.246,329.054 287.534,346.615 290.254,357.754 " fill="none" id="ThirdPartyRole-IndirectMember" style="stroke: #A80036; stroke-width: 1.0;"/><polygon fill="none" points="272.69,315.333,274.745,294.243,286.29,312.012,272.69,315.333" style="stroke: #A80036; stroke-width: 1.0;"/><!--link ContactPersonRole to RolePlayer--><!--link CounterpartyRisk to ContactPersonRole--><!--link Entry to CounterpartyRisk--><!--link Role to RolePlayer--><path d="M290.109,85.577 C331.303,113.437 402.38,164.926 453,220 C520.232,293.149 510.956,331.776 577,406 C589.247,419.7641 605.228,433.1701 617.616,442.7805 " fill="none" id="Role-RolePlayer" style="stroke: #A80036; stroke-width: 1.0;"/><polygon fill="#A80036" points="621.67,445.8893,616.9629,437.2381,617.7025,442.8464,612.0942,443.5861,621.67,445.8893" style="stroke: #A80036; stroke-width: 1.0;"/><text fill="#000000" font-family="sans-serif" font-size="13" lengthAdjust="spacingAndGlyphs" textLength="39" x="519" y="286.0669">Player</text><text fill="#000000" font-family="sans-serif" font-size="13" lengthAdjust="spacingAndGlyphs" textLength="7" x="606.7675" y="434.8995">*</text><!--link Role to ContactPersonRole--><path d="M344.263,63.841 C469.735,65.854 690.631,78.562 732,142 C746.61,164.404 768.46,247.359 731,318 C722.123,334.74 705.016,347.074 689.485,355.416 " fill="none" id="Role-ContactPersonRole" style="stroke: #A80036; stroke-width: 1.0;"/><polygon fill="#A80036" points="684.727,357.877,694.5587,357.2953,689.1681,355.58,690.8835,350.1895,684.727,357.877" style="stroke: #A80036; stroke-width: 1.0;"/><text fill="#000000" font-family="sans-serif" font-size="13" lengthAdjust="spacingAndGlyphs" textLength="121" x="752" y="233.0669">ContactPersonRole</text><text fill="#000000" font-family="sans-serif" font-size="13" lengthAdjust="spacingAndGlyphs" textLength="8" x="683.5394" y="346.8829">1</text><!--link Role to CounterpartyRisk--><path d="M344.372,75.488 C383.548,83.141 429.314,95.675 467,116 C509.63,138.991 510.549,158.107 547,190 C578.784,217.809 616.99,248.914 638.988,266.607 " fill="none" id="Role-CounterpartyRisk" style="stroke: #A80036; stroke-width: 1.0;"/><polygon fill="#A80036" points="642.901,269.751,638.3891,260.9964,639.0028,266.6199,633.3793,267.2335,642.901,269.751" style="stroke: #A80036; stroke-width: 1.0;"/><text fill="#000000" font-family="sans-serif" font-size="13" lengthAdjust="spacingAndGlyphs" textLength="109" x="548" y="182.0669">CounterpartyRisk</text><text fill="#000000" font-family="sans-serif" font-size="13" lengthAdjust="spacingAndGlyphs" textLength="24" x="608.8416" y="258.972">0..1</text><!--link Role to Entry--><path d="M344.525,68.335 C426.865,75.363 551.7,93.776 649,142 C659.818,147.361 670.627,155.414 679.047,162.444 " fill="none" id="Role-Entry" style="stroke: #A80036; stroke-width: 1.0;"/><polygon fill="#A80036" points="682.979,165.797,678.7265,156.9135,679.1746,162.5526,673.5355,163.0006,682.979,165.797" style="stroke: #A80036; stroke-width: 1.0;"/><text fill="#000000" font-family="sans-serif" font-size="13" lengthAdjust="spacingAndGlyphs" textLength="33" x="630" y="129.0669">Entry</text><text fill="#000000" font-family="sans-serif" font-size="13" lengthAdjust="spacingAndGlyphs" textLength="8" x="668.3408" y="155.0332">1</text><!--link SystemPartyRole to System--><path d="M285.182,190.079 C300.169,202.439 325.597,222.707 349,238 C365.54,248.809 385.002,259.541 400.348,267.579 " fill="none" id="SystemPartyRole-System" style="stroke: #A80036; stroke-width: 1.0;"/><polygon fill="#A80036" points="404.97,269.985,398.8332,262.2818,400.5347,267.6767,395.1399,269.3782,404.97,269.985" style="stroke: #A80036; stroke-width: 1.0;"/><text fill="#000000" font-family="sans-serif" font-size="13" lengthAdjust="spacingAndGlyphs" textLength="97" x="350" y="233.0669">RelatedSystem</text><text fill="#000000" font-family="sans-serif" font-size="13" lengthAdjust="spacingAndGlyphs" textLength="23" x="370.7534" y="260.0497">1..*</text></g></svg>