<?xml version="1.0" encoding="UTF-8" standalone="no"?><svg xmlns="http://www.w3.org/2000/svg" xmlns:xlink="http://www.w3.org/1999/xlink" contentScriptType="application/ecmascript" contentStyleType="text/css" height="516px" preserveAspectRatio="none" style="width:3278px;height:516px;" version="1.1" viewBox="0 0 3278 516" width="3278px" zoomAndPan="magnify"><defs><filter height="300%" id="f1qnu3e2ylffd6" width="300%" x="-1" y="-1"><feGaussianBlur result="blurOut" stdDeviation="2.0"/><feColorMatrix in="blurOut" result="blurOut2" type="matrix" values="0 0 0 0 0 0 0 0 0 0 0 0 0 0 0 0 0 0 .4 0"/><feOffset dx="4.0" dy="4.0" in="blurOut2" result="blurOut3"/><feBlend in="SourceGraphic" in2="blurOut3" mode="normal"/></filter></defs><g><!--cluster ##18879--><!--cluster ##18936--><!--cluster ##18945--><!--class Role--><a target="_top" xlink:actuate="onRequest" xlink:href="../Role.html" xlink:show="new" xlink:title="Role of a party in an activity." xlink:type="simple"><rect fill="#FEFEEE" filter="url(#f1qnu3e2ylffd6)" height="44.7734" id="Role" style="stroke: #A80036; stroke-width: 1.5;" width="175" x="2259.75" y="40.5"/><rect fill="#FEFEEE" height="23.9688" style="stroke: #A80036; stroke-width: 1.5;" width="175" x="2259.75" y="40.5"/><text fill="#000000" font-family="sans-serif" font-size="12" lengthAdjust="spacingAndGlyphs" textLength="27" x="2333.75" y="56.6387">Role</text><line style="stroke: #A80036; stroke-width: 1.5;" x1="2260.75" x2="2433.75" y1="64.4688" y2="64.4688"/><ellipse cx="2270.75" cy="76.3711" fill="#84BE84" rx="3" ry="3" style="stroke: #038048; stroke-width: 1.0;"/><text fill="#000000" font-family="sans-serif" font-size="11" lengthAdjust="spacingAndGlyphs" textLength="53" x="2279.75" y="78.6792">PartyRole</text><text fill="#000000" font-family="sans-serif" font-size="11" font-style="italic" lengthAdjust="spacingAndGlyphs" textLength="92" x="2336.75" y="78.6792">(PartyRoleCode)</text></a><!--class TradePartyRole--><a target="_top" xlink:actuate="onRequest" xlink:href="../TradePartyRole.html" xlink:show="new" xlink:title="Trading party in a commercial, securities, treasury trade. This role may also represent parties which play different intermediary roles in a trade." xlink:type="simple"><rect fill="#FEFECE" filter="url(#f1qnu3e2ylffd6)" height="57.5781" id="TradePartyRole" style="stroke: #A80036; stroke-width: 1.5;" width="279" x="1165.75" y="164"/><rect fill="#FEFECE" height="23.9688" style="stroke: #A80036; stroke-width: 1.5;" width="279" x="1165.75" y="164"/><text fill="#000000" font-family="sans-serif" font-size="12" lengthAdjust="spacingAndGlyphs" textLength="95" x="1257.75" y="180.1387">TradePartyRole</text><line style="stroke: #A80036; stroke-width: 1.5;" x1="1166.75" x2="1443.75" y1="187.9688" y2="187.9688"/><ellipse cx="1176.75" cy="199.8711" fill="#84BE84" rx="3" ry="3" style="stroke: #038048; stroke-width: 1.0;"/><text fill="#000000" font-family="sans-serif" font-size="11" lengthAdjust="spacingAndGlyphs" textLength="120" x="1185.75" y="202.1792">TradingPartyCapacity</text><text fill="#000000" font-family="sans-serif" font-size="11" font-style="italic" lengthAdjust="spacingAndGlyphs" textLength="129" x="1309.75" y="202.1792">(TradingCapacityCode)</text><ellipse cx="1176.75" cy="212.6758" fill="#84BE84" rx="3" ry="3" style="stroke: #038048; stroke-width: 1.0;"/><text fill="#000000" font-family="sans-serif" font-size="11" lengthAdjust="spacingAndGlyphs" textLength="80" x="1185.75" y="214.9839">BuyerOrSeller</text><text fill="#000000" font-family="sans-serif" font-size="11" font-style="italic" lengthAdjust="spacingAndGlyphs" textLength="104" x="1269.75" y="214.9839">(OptionPartyCode)</text></a><!--class InvestorRole--><a target="_top" xlink:actuate="onRequest" xlink:href="../InvestorRole.html" xlink:show="new" xlink:title="Party that makes investment decisions. Identifies the beneficiary or its broker." xlink:type="simple"><rect fill="#FEFEEE" filter="url(#f1qnu3e2ylffd6)" height="23.9688" id="InvestorRole" style="stroke: #A80036; stroke-width: 1.5;" width="83" x="38.75" y="302"/><rect fill="#FEFEEE" height="23.9688" style="stroke: #A80036; stroke-width: 1.5;" width="83" x="38.75" y="302"/><text fill="#000000" font-family="sans-serif" font-size="12" lengthAdjust="spacingAndGlyphs" textLength="77" x="41.75" y="318.1387">InvestorRole</text></a><!--class TradeOriginatorRole--><a target="_top" xlink:actuate="onRequest" xlink:href="../TradeOriginatorRole.html" xlink:show="new" xlink:title="Specifies the trading party at the source of the transaction." xlink:type="simple"><rect fill="#FEFEEE" filter="url(#f1qnu3e2ylffd6)" height="23.9688" id="TradeOriginatorRole" style="stroke: #A80036; stroke-width: 1.5;" width="131" x="156.75" y="302"/><rect fill="#FEFEEE" height="23.9688" style="stroke: #A80036; stroke-width: 1.5;" width="131" x="156.75" y="302"/><text fill="#000000" font-family="sans-serif" font-size="12" lengthAdjust="spacingAndGlyphs" textLength="125" x="159.75" y="318.1387">TradeOriginatorRole</text></a><!--class SecuritiesTradePartyRole--><a target="_top" xlink:actuate="onRequest" xlink:href="../SecuritiesTradePartyRole.html" xlink:show="new" xlink:title="Role played by a party in the context of a securities trade." xlink:type="simple"><rect fill="#FEFEEE" filter="url(#f1qnu3e2ylffd6)" height="23.9688" id="SecuritiesTradePartyRole" style="stroke: #A80036; stroke-width: 1.5;" width="163" x="322.75" y="302"/><rect fill="#FEFEEE" height="23.9688" style="stroke: #A80036; stroke-width: 1.5;" width="163" x="322.75" y="302"/><text fill="#000000" font-family="sans-serif" font-size="12" lengthAdjust="spacingAndGlyphs" textLength="157" x="325.75" y="318.1387">SecuritiesTradePartyRole</text></a><!--class BuyerRole--><a target="_top" xlink:actuate="onRequest" xlink:href="../BuyerRole.html" xlink:show="new" xlink:title="Party that buys assets, good or services." xlink:type="simple"><rect fill="#FEFEEE" filter="url(#f1qnu3e2ylffd6)" height="23.9688" id="BuyerRole" style="stroke: #A80036; stroke-width: 1.5;" width="68" x="521" y="302"/><rect fill="#FEFEEE" height="23.9688" style="stroke: #A80036; stroke-width: 1.5;" width="68" x="521" y="302"/><text fill="#000000" font-family="sans-serif" font-size="12" lengthAdjust="spacingAndGlyphs" textLength="62" x="524" y="318.1387">BuyerRole</text></a><!--class Borrower--><a target="_top" xlink:actuate="onRequest" xlink:href="../Borrower.html" xlink:show="new" xlink:title="Party that has applied, met specific requirements, and received a monetary or securities loan from a lender." xlink:type="simple"><rect fill="#FEFEEE" filter="url(#f1qnu3e2ylffd6)" height="23.9688" id="Borrower" style="stroke: #A80036; stroke-width: 1.5;" width="62" x="624.5" y="302"/><rect fill="#FEFEEE" height="23.9688" style="stroke: #A80036; stroke-width: 1.5;" width="62" x="624.5" y="302"/><text fill="#000000" font-family="sans-serif" font-size="12" lengthAdjust="spacingAndGlyphs" textLength="56" x="627.5" y="318.1387">Borrower</text></a><!--class SellerRole--><a target="_top" xlink:actuate="onRequest" xlink:href="../SellerRole.html" xlink:show="new" xlink:title="Party that sells assets, goods or services." xlink:type="simple"><rect fill="#FEFEEE" filter="url(#f1qnu3e2ylffd6)" height="23.9688" id="SellerRole" style="stroke: #A80036; stroke-width: 1.5;" width="68" x="721" y="302"/><rect fill="#FEFEEE" height="23.9688" style="stroke: #A80036; stroke-width: 1.5;" width="68" x="721" y="302"/><text fill="#000000" font-family="sans-serif" font-size="12" lengthAdjust="spacingAndGlyphs" textLength="62" x="724" y="318.1387">SellerRole</text></a><!--class Lender--><a target="_top" xlink:actuate="onRequest" xlink:href="../Lender.html" xlink:show="new" xlink:title="Party that has accepted under specific requirements to provide a monetary or securities loan to a borrower." xlink:type="simple"><rect fill="#FEFEEE" filter="url(#f1qnu3e2ylffd6)" height="23.9688" id="Lender" style="stroke: #A80036; stroke-width: 1.5;" width="49" x="824.75" y="302"/><rect fill="#FEFEEE" height="23.9688" style="stroke: #A80036; stroke-width: 1.5;" width="49" x="824.75" y="302"/><text fill="#000000" font-family="sans-serif" font-size="12" lengthAdjust="spacingAndGlyphs" textLength="43" x="827.75" y="318.1387">Lender</text></a><!--class TradeRegulator--><a target="_top" xlink:actuate="onRequest" xlink:href="../TradeRegulator.html" xlink:show="new" xlink:title="Institution to which a trade must be reported." xlink:type="simple"><rect fill="#FEFEEE" filter="url(#f1qnu3e2ylffd6)" height="23.9688" id="TradeRegulator" style="stroke: #A80036; stroke-width: 1.5;" width="103" x="908.75" y="302"/><rect fill="#FEFEEE" height="23.9688" style="stroke: #A80036; stroke-width: 1.5;" width="103" x="908.75" y="302"/><text fill="#000000" font-family="sans-serif" font-size="12" lengthAdjust="spacingAndGlyphs" textLength="97" x="911.75" y="318.1387">TradeRegulator</text></a><!--class Broker--><a target="_top" xlink:actuate="onRequest" xlink:href="../Broker.html" xlink:show="new" xlink:title="Party that identifies a broker when required (for example, authorised broker, prime broker, etc)." xlink:type="simple"><rect fill="#FEFEEE" filter="url(#f1qnu3e2ylffd6)" height="23.9688" id="Broker" style="stroke: #A80036; stroke-width: 1.5;" width="47" x="1046.75" y="302"/><rect fill="#FEFEEE" height="23.9688" style="stroke: #A80036; stroke-width: 1.5;" width="47" x="1046.75" y="302"/><text fill="#000000" font-family="sans-serif" font-size="12" lengthAdjust="spacingAndGlyphs" textLength="41" x="1049.75" y="318.1387">Broker</text></a><!--class TreasuryTradePartyRole--><a target="_top" xlink:actuate="onRequest" xlink:href="../TreasuryTradePartyRole.html" xlink:show="new" xlink:title="Role played by a party in the context of a treasury trade." xlink:type="simple"><rect fill="#FEFEEE" filter="url(#f1qnu3e2ylffd6)" height="23.9688" id="TreasuryTradePartyRole" style="stroke: #A80036; stroke-width: 1.5;" width="155" x="1128.75" y="302"/><rect fill="#FEFEEE" height="23.9688" style="stroke: #A80036; stroke-width: 1.5;" width="155" x="1128.75" y="302"/><text fill="#000000" font-family="sans-serif" font-size="12" lengthAdjust="spacingAndGlyphs" textLength="149" x="1131.75" y="318.1387">TreasuryTradePartyRole</text></a><!--class CommercialTradePartyRole--><a target="_top" xlink:actuate="onRequest" xlink:href="../CommercialTradePartyRole.html" xlink:show="new" xlink:title="Role played by a party in the context of a trade." xlink:type="simple"><rect fill="#FEFEEE" filter="url(#f1qnu3e2ylffd6)" height="23.9688" id="CommercialTradePartyRole" style="stroke: #A80036; stroke-width: 1.5;" width="173" x="1318.75" y="302"/><rect fill="#FEFEEE" height="23.9688" style="stroke: #A80036; stroke-width: 1.5;" width="173" x="1318.75" y="302"/><text fill="#000000" font-family="sans-serif" font-size="12" lengthAdjust="spacingAndGlyphs" textLength="167" x="1321.75" y="318.1387">CommercialTradePartyRole</text></a><!--class ClearingExceptionPartyRole--><a target="_top" xlink:actuate="onRequest" xlink:href="../ClearingExceptionPartyRole.html" xlink:show="new" xlink:title="Identifies the party that is exempt from a clearing obligation." xlink:type="simple"><rect fill="#FEFEEE" filter="url(#f1qnu3e2ylffd6)" height="23.9688" id="ClearingExceptionPartyRole" style="stroke: #A80036; stroke-width: 1.5;" width="177" x="1526.75" y="302"/><rect fill="#FEFEEE" height="23.9688" style="stroke: #A80036; stroke-width: 1.5;" width="177" x="1526.75" y="302"/><text fill="#000000" font-family="sans-serif" font-size="12" lengthAdjust="spacingAndGlyphs" textLength="171" x="1529.75" y="318.1387">ClearingExceptionPartyRole</text></a><!--class QualifiedForeignIntermediary--><a target="_top" xlink:actuate="onRequest" xlink:href="../QualifiedForeignIntermediary.html" xlink:show="new" xlink:title="Foreign financial institution that has been authorised by local authorities to act as account management institution in the country." xlink:type="simple"><rect fill="#FEFEEE" filter="url(#f1qnu3e2ylffd6)" height="23.9688" id="QualifiedForeignIntermediary" style="stroke: #A80036; stroke-width: 1.5;" width="185" x="1738.75" y="302"/><rect fill="#FEFEEE" height="23.9688" style="stroke: #A80036; stroke-width: 1.5;" width="185" x="1738.75" y="302"/><text fill="#000000" font-family="sans-serif" font-size="12" lengthAdjust="spacingAndGlyphs" textLength="179" x="1741.75" y="318.1387">QualifiedForeignIntermediary</text></a><!--class StockExchange--><a target="_top" xlink:actuate="onRequest" xlink:href="../StockExchange.html" xlink:show="new" xlink:title="Party that identifies the stock exchange." xlink:type="simple"><rect fill="#FEFEEE" filter="url(#f1qnu3e2ylffd6)" height="23.9688" id="StockExchange" style="stroke: #A80036; stroke-width: 1.5;" width="102" x="1958.5" y="302"/><rect fill="#FEFEEE" height="23.9688" style="stroke: #A80036; stroke-width: 1.5;" width="102" x="1958.5" y="302"/><text fill="#000000" font-family="sans-serif" font-size="12" lengthAdjust="spacingAndGlyphs" textLength="96" x="1961.5" y="318.1387">StockExchange</text></a><!--class SellerBank--><a target="_top" xlink:actuate="onRequest" xlink:href="../SellerBank.html" xlink:show="new" xlink:title="Financial institution of the seller." xlink:type="simple"><rect fill="#FEFEEE" filter="url(#f1qnu3e2ylffd6)" height="23.9688" id="SellerBank" style="stroke: #A80036; stroke-width: 1.5;" width="72" x="2095" y="302"/><rect fill="#FEFEEE" height="23.9688" style="stroke: #A80036; stroke-width: 1.5;" width="72" x="2095" y="302"/><text fill="#000000" font-family="sans-serif" font-size="12" lengthAdjust="spacingAndGlyphs" textLength="66" x="2098" y="318.1387">SellerBank</text></a><!--class BuyerBank--><a target="_top" xlink:actuate="onRequest" xlink:href="../BuyerBank.html" xlink:show="new" xlink:title="Financial institution of the buyer." xlink:type="simple"><rect fill="#FEFEEE" filter="url(#f1qnu3e2ylffd6)" height="23.9688" id="BuyerBank" style="stroke: #A80036; stroke-width: 1.5;" width="72" x="2202" y="302"/><rect fill="#FEFEEE" height="23.9688" style="stroke: #A80036; stroke-width: 1.5;" width="72" x="2202" y="302"/><text fill="#000000" font-family="sans-serif" font-size="12" lengthAdjust="spacingAndGlyphs" textLength="66" x="2205" y="318.1387">BuyerBank</text></a><!--class AllocationPartyRole--><a target="_top" xlink:actuate="onRequest" xlink:href="../AllocationPartyRole.html" xlink:show="new" xlink:title="Party which instructs the trade allocation to the executing party." xlink:type="simple"><rect fill="#FEFEEE" filter="url(#f1qnu3e2ylffd6)" height="23.9688" id="AllocationPartyRole" style="stroke: #A80036; stroke-width: 1.5;" width="126" x="2309" y="302"/><rect fill="#FEFEEE" height="23.9688" style="stroke: #A80036; stroke-width: 1.5;" width="126" x="2309" y="302"/><text fill="#000000" font-family="sans-serif" font-size="12" lengthAdjust="spacingAndGlyphs" textLength="120" x="2312" y="318.1387">AllocationPartyRole</text></a><!--class RolePlayer--><a target="_top" xlink:actuate="onRequest" xlink:href="../RolePlayer.html" xlink:show="new" xlink:title="Type of entity that plays a specific role in a specific context." xlink:type="simple"><rect fill="#EEEEEE" filter="url(#f1qnu3e2ylffd6)" height="23.9688" id="RolePlayer" style="stroke: #A80036; stroke-width: 1.5;" width="71" x="2853.75" y="482"/><rect fill="#EEEEEE" height="23.9688" style="stroke: #A80036; stroke-width: 1.5;" width="71" x="2853.75" y="482"/><text fill="#000000" font-family="sans-serif" font-size="12" lengthAdjust="spacingAndGlyphs" textLength="65" x="2856.75" y="498.1387">RolePlayer</text></a><!--class ContactPersonRole--><a target="_top" xlink:actuate="onRequest" xlink:href="../ContactPersonRole.html" xlink:show="new" xlink:title="Person to be contacted in a given organisation. In the corporate action domain (including meeting notifications) , it is the contact person at the party organising the meeting, at the issuer or at an intermediary." xlink:type="simple"><rect fill="#EEEEEE" filter="url(#f1qnu3e2ylffd6)" height="23.9688" id="ContactPersonRole" style="stroke: #A80036; stroke-width: 1.5;" width="126" x="2806" y="392"/><rect fill="#EEEEEE" height="23.9688" style="stroke: #A80036; stroke-width: 1.5;" width="126" x="2806" y="392"/><text fill="#000000" font-family="sans-serif" font-size="12" lengthAdjust="spacingAndGlyphs" textLength="120" x="2809" y="408.1387">ContactPersonRole</text></a><!--class CounterpartyRisk--><a target="_top" xlink:actuate="onRequest" xlink:href="../CounterpartyRisk.html" xlink:show="new" xlink:title="Calculation of the exposure amount that one party has vis-a-vis one counterparty or a central system, based on its credit risk." xlink:type="simple"><rect fill="#EEEEEE" filter="url(#f1qnu3e2ylffd6)" height="23.9688" id="CounterpartyRisk" style="stroke: #A80036; stroke-width: 1.5;" width="113" x="2818.75" y="302"/><rect fill="#EEEEEE" height="23.9688" style="stroke: #A80036; stroke-width: 1.5;" width="113" x="2818.75" y="302"/><text fill="#000000" font-family="sans-serif" font-size="12" lengthAdjust="spacingAndGlyphs" textLength="107" x="2821.75" y="318.1387">CounterpartyRisk</text></a><!--class Entry--><a target="_top" xlink:actuate="onRequest" xlink:href="../Entry.html" xlink:show="new" xlink:title="Posting to an account that results in an increase or decrease to a balance." xlink:type="simple"><rect fill="#EEEEEE" filter="url(#f1qnu3e2ylffd6)" height="23.9688" id="Entry" style="stroke: #A80036; stroke-width: 1.5;" width="38" x="2806" y="181"/><rect fill="#EEEEEE" height="23.9688" style="stroke: #A80036; stroke-width: 1.5;" width="38" x="2806" y="181"/><text fill="#000000" font-family="sans-serif" font-size="12" lengthAdjust="spacingAndGlyphs" textLength="32" x="2809" y="197.1387">Entry</text></a><!--class Account--><a target="_top" xlink:actuate="onRequest" xlink:href="../Account.html" xlink:show="new" xlink:title="Record of transactions in specific types of assets, maintained by a servicing party on behalf of one or more owning parties. Business relationship between an account servicer and one or more account owners." xlink:type="simple"><rect fill="#EEEEEE" filter="url(#f1qnu3e2ylffd6)" height="23.9688" id="Account" style="stroke: #A80036; stroke-width: 1.5;" width="57" x="2491.75" y="392"/><rect fill="#EEEEEE" height="23.9688" style="stroke: #A80036; stroke-width: 1.5;" width="57" x="2491.75" y="392"/><text fill="#000000" font-family="sans-serif" font-size="12" lengthAdjust="spacingAndGlyphs" textLength="51" x="2494.75" y="408.1387">Account</text></a><!--class Trade--><a target="_top" xlink:actuate="onRequest" xlink:href="../Trade.html" xlink:show="new" xlink:title="Result of an order between at least two parties. A trade relates to the delivery of goods and services, cash or securities." xlink:type="simple"><rect fill="#EEEEEE" filter="url(#f1qnu3e2ylffd6)" height="23.9688" id="Trade" style="stroke: #A80036; stroke-width: 1.5;" width="42" x="2491.5" y="302"/><rect fill="#EEEEEE" height="23.9688" style="stroke: #A80036; stroke-width: 1.5;" width="42" x="2491.5" y="302"/><text fill="#000000" font-family="sans-serif" font-size="12" lengthAdjust="spacingAndGlyphs" textLength="36" x="2494.5" y="318.1387">Trade</text></a><!--link Role to TradePartyRole--><path d="M2239.59,77.195 C2049.73,100.517 1655.07,148.997 1444.48,174.866 " fill="none" id="Role-TradePartyRole" style="stroke: #A80036; stroke-width: 1.0;"/><polygon fill="none" points="2238.8,70.239,2259.51,74.748,2240.51,84.134,2238.8,70.239" style="stroke: #A80036; stroke-width: 1.0;"/><!--link TradePartyRole to InvestorRole--><path d="M1145.46,199.96 C952.841,207.981 619.189,224.507 334,252 C246.97,260.39 221.602,249.338 139,278 C122.798,283.622 106.155,293.993 94.6938,301.992 " fill="none" id="TradePartyRole-InvestorRole" style="stroke: #A80036; stroke-width: 1.0;"/><polygon fill="none" points="1145.39,192.958,1165.66,199.129,1145.97,206.946,1145.39,192.958" style="stroke: #A80036; stroke-width: 1.0;"/><!--link TradePartyRole to TradeOriginatorRole--><path d="M1145.29,203.795 C987.312,213.971 738.737,231.29 524,252 C426.436,261.41 399.757,252.933 305,278 C283.381,283.719 260.016,293.97 243.602,301.905 " fill="none" id="TradePartyRole-TradeOriginatorRole" style="stroke: #A80036; stroke-width: 1.0;"/><polygon fill="none" points="1145.12,196.792,1165.53,202.499,1146.01,210.763,1145.12,196.792" style="stroke: #A80036; stroke-width: 1.0;"/><!--link TradePartyRole to SecuritiesTradePartyRole--><path d="M1145.41,201.218 C1005.695,209.025 797.549,224.26 618,252 C566.213,260.001 553.345,263.464 503,278 C478.83,284.979 451.95,294.604 432.305,301.995 " fill="none" id="TradePartyRole-SecuritiesTradePartyRole" style="stroke: #A80036; stroke-width: 1.0;"/><polygon fill="none" points="1145.16,194.221,1165.51,200.12,1145.93,208.201,1145.16,194.221" style="stroke: #A80036; stroke-width: 1.0;"/><!--link TradePartyRole to BuyerRole--><path d="M1145.51,203.899 C1026.58,212.685 860.435,227.93 716,252 C666.447,260.258 651.936,257.664 606,278 C592.253,284.086 578.289,293.983 568.457,301.703 " fill="none" id="TradePartyRole-BuyerRole" style="stroke: #A80036; stroke-width: 1.0;"/><polygon fill="none" points="1145.21,196.902,1165.67,202.438,1146.22,210.866,1145.21,196.902" style="stroke: #A80036; stroke-width: 1.0;"/><!--link TradePartyRole to Borrower--><path d="M1145.5,208.905 C1050.37,218.821 927.378,233.437 819,252 C766.924,260.92 751.129,256.202 703,278 C689.659,284.042 676.35,294.15 667.142,301.954 " fill="none" id="TradePartyRole-Borrower" style="stroke: #A80036; stroke-width: 1.0;"/><polygon fill="none" points="1145.06,201.913,1165.67,206.829,1146.49,215.84,1145.06,201.913" style="stroke: #A80036; stroke-width: 1.0;"/><!--link TradePartyRole to SellerRole--><path d="M1145.65,212.646 C1071.79,222.414 983.051,235.748 904,252 C860.281,260.988 847.623,259.509 807,278 C793.134,284.312 778.882,294.187 768.813,301.842 " fill="none" id="TradePartyRole-SellerRole" style="stroke: #A80036; stroke-width: 1.0;"/><polygon fill="none" points="1144.84,205.693,1165.57,210.05,1146.65,219.576,1144.84,205.693" style="stroke: #A80036; stroke-width: 1.0;"/><!--link TradePartyRole to Lender--><path d="M1145.49,207.736 C1066.02,219.139 970.24,239.971 891,278 C878.849,283.832 867.255,293.963 859.34,301.829 " fill="none" id="TradePartyRole-Lender" style="stroke: #A80036; stroke-width: 1.0;"/><polygon fill="none" points="1144.56,200.798,1165.32,205.036,1146.45,214.67,1144.56,200.798" style="stroke: #A80036; stroke-width: 1.0;"/><!--link TradePartyRole to TradeRegulator--><path d="M1177.82,227.678 C1130.47,241.523 1076.68,258.822 1029,278 C1011.8,284.917 993.096,294.548 979.504,301.956 " fill="none" id="TradePartyRole-TradeRegulator" style="stroke: #A80036; stroke-width: 1.0;"/><polygon fill="none" points="1176.18,220.866,1197.34,222.059,1180.06,234.32,1176.18,220.866" style="stroke: #A80036; stroke-width: 1.0;"/><!--link TradePartyRole to Broker--><path d="M1207.1,229.704 C1175.42,242.99 1140.8,259.417 1111,278 C1100.04,284.834 1088.98,294.471 1081.12,301.903 " fill="none" id="TradePartyRole-Broker" style="stroke: #A80036; stroke-width: 1.0;"/><polygon fill="none" points="1204.7,223.123,1225.87,222.05,1209.99,236.086,1204.7,223.123" style="stroke: #A80036; stroke-width: 1.0;"/><!--link TradePartyRole to TreasuryTradePartyRole--><path d="M1268.58,237.775 C1249.44,260.788 1227.48,287.183 1215.33,301.79 " fill="none" id="TradePartyRole-TreasuryTradePartyRole" style="stroke: #A80036; stroke-width: 1.0;"/><polygon fill="none" points="1263.37,233.1,1281.54,222.201,1274.13,242.053,1263.37,233.1" style="stroke: #A80036; stroke-width: 1.0;"/><!--link TradePartyRole to CommercialTradePartyRole--><path d="M1341.79,237.775 C1361.12,260.788 1383.3,287.183 1395.58,301.79 " fill="none" id="TradePartyRole-CommercialTradePartyRole" style="stroke: #A80036; stroke-width: 1.0;"/><polygon fill="none" points="1336.21,242.016,1328.7,222.201,1346.92,233.01,1336.21,242.016" style="stroke: #A80036; stroke-width: 1.0;"/><!--link TradePartyRole to ClearingExceptionPartyRole--><path d="M1397.02,229.322 C1461.44,254.055 1543.37,285.503 1586.1,301.906 " fill="none" id="TradePartyRole-ClearingExceptionPartyRole" style="stroke: #A80036; stroke-width: 1.0;"/><polygon fill="none" points="1394.24,235.753,1378.07,222.051,1399.25,222.683,1394.24,235.753" style="stroke: #A80036; stroke-width: 1.0;"/><!--link TradePartyRole to QualifiedForeignIntermediary--><path d="M1464.5,222.195 C1542.05,236.942 1636.35,256.411 1720,278 C1747,284.968 1777.15,294.595 1799.2,301.988 " fill="none" id="TradePartyRole-QualifiedForeignIntermediary" style="stroke: #A80036; stroke-width: 1.0;"/><polygon fill="none" points="1463,229.037,1444.64,218.453,1465.6,215.279,1463,229.037" style="stroke: #A80036; stroke-width: 1.0;"/><!--link TradePartyRole to StockExchange--><path d="M1464.46,200.208 C1594.84,208.794 1782.67,229.252 1940,278 C1958.35,283.685 1977.73,293.94 1991.26,301.885 " fill="none" id="TradePartyRole-StockExchange" style="stroke: #A80036; stroke-width: 1.0;"/><polygon fill="none" points="1463.97,207.191,1444.44,198.954,1464.84,193.218,1463.97,207.191" style="stroke: #A80036; stroke-width: 1.0;"/><!--link TradePartyRole to SellerBank--><path d="M1464.29,207.989 C1582.25,218.78 1746.82,234.741 1891,252 C1973.44,261.869 1998.09,249.281 2076,278 C2091.08,283.559 2106.35,293.72 2116.96,301.667 " fill="none" id="TradePartyRole-SellerBank" style="stroke: #A80036; stroke-width: 1.0;"/><polygon fill="none" points="1463.58,214.953,1444.3,206.168,1464.85,201.011,1463.58,214.953" style="stroke: #A80036; stroke-width: 1.0;"/><!--link TradePartyRole to BuyerBank--><path d="M1464.59,205.856 C1601.47,216.47 1803.91,233.222 1980,252 C2070.88,261.692 2098.17,246.58 2184,278 C2199.11,283.53 2214.3,293.913 2224.71,301.94 " fill="none" id="TradePartyRole-BuyerBank" style="stroke: #A80036; stroke-width: 1.0;"/><polygon fill="none" points="1463.86,212.821,1444.46,204.303,1464.93,198.862,1463.86,212.821" style="stroke: #A80036; stroke-width: 1.0;"/><!--link TradePartyRole to AllocationPartyRole--><path d="M1464.36,203.735 C1620.98,213.823 1866.71,231.04 2079,252 C2173.47,261.327 2199.38,253.142 2291,278 C2312.14,283.736 2334.94,293.985 2350.94,301.915 " fill="none" id="TradePartyRole-AllocationPartyRole" style="stroke: #A80036; stroke-width: 1.0;"/><polygon fill="none" points="1463.8,210.714,1444.29,202.45,1464.7,196.742,1463.8,210.714" style="stroke: #A80036; stroke-width: 1.0;"/><!--link ContactPersonRole to RolePlayer--><!--link CounterpartyRisk to ContactPersonRole--><!--link Entry to CounterpartyRisk--><!--link Trade to Account--><!--link Role to RolePlayer--><path d="M2434.5,67.652 C2656.83,78.094 3226,112.58 3226,192 C3226,192 3226,192 3226,405 C3226,465.6217 3019.27,485.2654 2929.64,490.9332 " fill="none" id="Role-RolePlayer" style="stroke: #A80036; stroke-width: 1.0;"/><polygon fill="#A80036" points="2924.43,491.2555,2933.6636,494.6819,2929.4201,490.9412,2933.1608,486.6977,2924.43,491.2555" style="stroke: #A80036; stroke-width: 1.0;"/><text fill="#000000" font-family="sans-serif" font-size="13" lengthAdjust="spacingAndGlyphs" textLength="39" x="3227" y="318.0669">Player</text><text fill="#000000" font-family="sans-serif" font-size="13" lengthAdjust="spacingAndGlyphs" textLength="7" x="2932.8912" y="484.8806">*</text><!--link Role to ContactPersonRole--><path d="M2434.48,69.732 C2605.57,81.876 2970.97,112.754 3006,157 C3049.69,212.176 2953.19,343.87 2948,350 C2933.95,366.59 2913.46,380.131 2896.87,389.373 " fill="none" id="Role-ContactPersonRole" style="stroke: #A80036; stroke-width: 1.0;"/><polygon fill="#A80036" points="2892.31,391.865,2902.1276,391.0808,2896.7029,389.477,2898.3067,384.0522,2892.31,391.865" style="stroke: #A80036; stroke-width: 1.0;"/><text fill="#000000" font-family="sans-serif" font-size="13" lengthAdjust="spacingAndGlyphs" textLength="121" x="3004" y="265.0669">ContactPersonRole</text><text fill="#000000" font-family="sans-serif" font-size="13" lengthAdjust="spacingAndGlyphs" textLength="8" x="2889.6041" y="380.8668">1</text><!--link Role to CounterpartyRisk--><path d="M2434.42,67.348 C2565.91,74.357 2805.2,95.437 2861,157 C2896.39,196.043 2886.22,265.369 2879.19,296.757 " fill="none" id="Role-CounterpartyRisk" style="stroke: #A80036; stroke-width: 1.0;"/><polygon fill="#A80036" points="2878.01,301.81,2883.9512,293.9549,2879.1466,296.9409,2876.1606,292.1363,2878.01,301.81" style="stroke: #A80036; stroke-width: 1.0;"/><text fill="#000000" font-family="sans-serif" font-size="13" lengthAdjust="spacingAndGlyphs" textLength="109" x="2887" y="197.0669">CounterpartyRisk</text><text fill="#000000" font-family="sans-serif" font-size="13" lengthAdjust="spacingAndGlyphs" textLength="24" x="2849.618" y="291.0505">0..1</text><!--link Role to Entry--><path d="M2427.55,85.569 C2538.53,115.289 2732.49,167.227 2800.55,185.453 " fill="none" id="Role-Entry" style="stroke: #A80036; stroke-width: 1.0;"/><polygon fill="#A80036" points="2805.61,186.808,2797.9418,180.6275,2800.7783,185.5218,2795.8839,188.3583,2805.61,186.808" style="stroke: #A80036; stroke-width: 1.0;"/><text fill="#000000" font-family="sans-serif" font-size="13" lengthAdjust="spacingAndGlyphs" textLength="33" x="2602" y="129.0669">Entry</text><text fill="#000000" font-family="sans-serif" font-size="13" lengthAdjust="spacingAndGlyphs" textLength="8" x="2790.0552" y="178.9485">1</text><!--link TradePartyRole to Account--><path d="M1444.44,196.544 C1708.84,202.1 2273.79,217.669 2466,252 C2504.05,258.797 2526.11,246.847 2549,278 C2573.46,311.296 2547.26,361.952 2530.96,387.341 " fill="none" id="TradePartyRole-Account" style="stroke: #A80036; stroke-width: 1.0;"/><polygon fill="#A80036" points="2528.05,391.778,2536.3298,386.4446,2530.7915,387.5966,2529.6395,382.0583,2528.05,391.778" style="stroke: #A80036; stroke-width: 1.0;"/><text fill="#000000" font-family="sans-serif" font-size="13" lengthAdjust="spacingAndGlyphs" textLength="52" x="2560" y="318.0669">Account</text><text fill="#000000" font-family="sans-serif" font-size="13" lengthAdjust="spacingAndGlyphs" textLength="7" x="2521.1431" y="381.0079">*</text><!--link TradePartyRole to Trade--><path d="M1444.41,202.058 C1616.64,212.293 1918.58,231.149 2177,252 C2298.93,261.838 2334.42,240.945 2451,278 C2465.79,282.702 2480.94,291.365 2492.43,298.895 " fill="none" id="TradePartyRole-Trade" style="stroke: #A80036; stroke-width: 1.0;"/><polygon fill="#A80036" points="2496.81,301.822,2491.5601,293.489,2492.6563,299.0386,2487.1067,300.1348,2496.81,301.822" style="stroke: #A80036; stroke-width: 1.0;"/><text fill="#000000" font-family="sans-serif" font-size="13" lengthAdjust="spacingAndGlyphs" textLength="36" x="2420" y="265.0669">Trade</text><text fill="#000000" font-family="sans-serif" font-size="13" lengthAdjust="spacingAndGlyphs" textLength="7" x="2481.8697" y="290.809">*</text><!--link Entry to Account--><path d="M2814.77,205.204 C2785.34,237.249 2700.36,328.361 2666,350 C2630.63,372.279 2584.55,387.011 2553.71,395.167 " fill="none" id="Entry-Account" style="stroke: #A80036; stroke-width: 1.0;"/><polygon fill="#A80036" points="2548.52,396.516,2558.2365,398.1249,2553.3594,395.259,2556.2254,390.3819,2548.52,396.516" style="stroke: #A80036; stroke-width: 1.0;"/><text fill="#000000" font-family="sans-serif" font-size="13" lengthAdjust="spacingAndGlyphs" textLength="52" x="2746" y="318.0669">Account</text><text fill="#000000" font-family="sans-serif" font-size="13" lengthAdjust="spacingAndGlyphs" textLength="7" x="2556.6611" y="388.508">*</text><!--link Account to Account--><path d="M2548.51,396.332 C2566.18,394.483 2583,397.039 2583,404 C2583,410.254 2569.42,412.952 2553.85,412.095 " fill="none" id="Account-Account" style="stroke: #A80036; stroke-width: 1.0;"/><polygon fill="#A80036" points="2548.51,411.668,2557.1612,416.3751,2553.494,412.068,2557.8011,408.4008,2548.51,411.668" style="stroke: #A80036; stroke-width: 1.0;"/><text fill="#000000" font-family="sans-serif" font-size="13" lengthAdjust="spacingAndGlyphs" textLength="94" x="2589" y="408.0669">ParentAccount</text><text fill="#000000" font-family="sans-serif" font-size="13" lengthAdjust="spacingAndGlyphs" textLength="8" x="2556.7766" y="427.6427">1</text></g></svg>