<?xml version="1.0" encoding="UTF-8" standalone="no"?><svg xmlns="http://www.w3.org/2000/svg" xmlns:xlink="http://www.w3.org/1999/xlink" contentScriptType="application/ecmascript" contentStyleType="text/css" height="712px" preserveAspectRatio="none" style="width:1830px;height:712px;" version="1.1" viewBox="0 0 1830 712" width="1830px" zoomAndPan="magnify"><defs><filter height="300%" id="f12mac6zgqn5h2" width="300%" x="-1" y="-1"><feGaussianBlur result="blurOut" stdDeviation="2.0"/><feColorMatrix in="blurOut" result="blurOut2" type="matrix" values="0 0 0 0 0 0 0 0 0 0 0 0 0 0 0 0 0 0 .4 0"/><feOffset dx="4.0" dy="4.0" in="blurOut2" result="blurOut3"/><feBlend in="SourceGraphic" in2="blurOut3" mode="normal"/></filter></defs><g><!--cluster ##17906--><!--cluster ##17921--><!--class Transport--><a target="_top" xlink:actuate="onRequest" xlink:href="../Transport.html" xlink:show="new" xlink:title="Moving of goods or people from one place to another by vehicle." xlink:type="simple"><rect fill="#FEFECE" filter="url(#f12mac6zgqn5h2)" height="95.9922" id="Transport" style="stroke: #A80036; stroke-width: 1.5;" width="335" x="764.75" y="40"/><rect fill="#FEFECE" height="23.9688" style="stroke: #A80036; stroke-width: 1.5;" width="335" x="764.75" y="40"/><text fill="#000000" font-family="sans-serif" font-size="12" lengthAdjust="spacingAndGlyphs" textLength="61" x="901.75" y="56.1387">Transport</text><line style="stroke: #A80036; stroke-width: 1.5;" x1="765.75" x2="1098.75" y1="63.9688" y2="63.9688"/><ellipse cx="775.75" cy="75.8711" fill="#84BE84" rx="3" ry="3" style="stroke: #038048; stroke-width: 1.0;"/><text fill="#000000" font-family="sans-serif" font-size="11" lengthAdjust="spacingAndGlyphs" textLength="72" x="784.75" y="78.1792">Identification</text><text fill="#000000" font-family="sans-serif" font-size="11" font-style="italic" lengthAdjust="spacingAndGlyphs" textLength="70" x="860.75" y="78.1792">(Max35Text)</text><ellipse cx="775.75" cy="88.6758" fill="#84BE84" rx="3" ry="3" style="stroke: #038048; stroke-width: 1.0;"/><text fill="#000000" font-family="sans-serif" font-size="11" lengthAdjust="spacingAndGlyphs" textLength="90" x="784.75" y="90.9839">ArrivalDateTime</text><text fill="#000000" font-family="sans-serif" font-size="11" font-style="italic" lengthAdjust="spacingAndGlyphs" textLength="81" x="878.75" y="90.9839">(ISODateTime)</text><ellipse cx="775.75" cy="101.4805" fill="#84BE84" rx="3" ry="3" style="stroke: #038048; stroke-width: 1.0;"/><text fill="#000000" font-family="sans-serif" font-size="11" lengthAdjust="spacingAndGlyphs" textLength="90" x="784.75" y="103.7886">PartialShipment</text><text fill="#000000" font-family="sans-serif" font-size="11" font-style="italic" lengthAdjust="spacingAndGlyphs" textLength="92" x="878.75" y="103.7886">(YesNoIndicator)</text><ellipse cx="775.75" cy="114.2852" fill="#84BE84" rx="3" ry="3" style="stroke: #038048; stroke-width: 1.0;"/><text fill="#000000" font-family="sans-serif" font-size="11" lengthAdjust="spacingAndGlyphs" textLength="87" x="784.75" y="116.5933">TransShipment</text><text fill="#000000" font-family="sans-serif" font-size="11" font-style="italic" lengthAdjust="spacingAndGlyphs" textLength="92" x="875.75" y="116.5933">(YesNoIndicator)</text><ellipse cx="775.75" cy="127.0898" fill="#84BE84" rx="3" ry="3" style="stroke: #038048; stroke-width: 1.0;"/><text fill="#000000" font-family="sans-serif" font-size="11" lengthAdjust="spacingAndGlyphs" textLength="182" x="784.75" y="129.3979">FreightChargesPrepaidOrCollect</text><text fill="#000000" font-family="sans-serif" font-size="11" font-style="italic" lengthAdjust="spacingAndGlyphs" textLength="123" x="970.75" y="129.3979">(FreightChargesCode)</text></a><!--class TransportByAir--><a target="_top" xlink:actuate="onRequest" xlink:href="../TransportByAir.html" xlink:show="new" xlink:title="Information related to the transportation of goods by air." xlink:type="simple"><rect fill="#FEFEEE" filter="url(#f12mac6zgqn5h2)" height="23.9688" id="TransportByAir" style="stroke: #A80036; stroke-width: 1.5;" width="97" x="755.75" y="214"/><rect fill="#FEFEEE" height="23.9688" style="stroke: #A80036; stroke-width: 1.5;" width="97" x="755.75" y="214"/><text fill="#000000" font-family="sans-serif" font-size="12" lengthAdjust="spacingAndGlyphs" textLength="91" x="758.75" y="230.1387">TransportByAir</text></a><!--class TransportBySea--><a target="_top" xlink:actuate="onRequest" xlink:href="../TransportBySea.html" xlink:show="new" xlink:title="Information related for the transportation of goods by sea." xlink:type="simple"><rect fill="#FEFEEE" filter="url(#f12mac6zgqn5h2)" height="23.9688" id="TransportBySea" style="stroke: #A80036; stroke-width: 1.5;" width="105" x="887.75" y="214"/><rect fill="#FEFEEE" height="23.9688" style="stroke: #A80036; stroke-width: 1.5;" width="105" x="887.75" y="214"/><text fill="#000000" font-family="sans-serif" font-size="12" lengthAdjust="spacingAndGlyphs" textLength="99" x="890.75" y="230.1387">TransportBySea</text></a><!--class TransportByRoad--><a target="_top" xlink:actuate="onRequest" xlink:href="../TransportByRoad.html" xlink:show="new" xlink:title="Information related to the transportation of goods by road." xlink:type="simple"><rect fill="#FEFEEE" filter="url(#f12mac6zgqn5h2)" height="23.9688" id="TransportByRoad" style="stroke: #A80036; stroke-width: 1.5;" width="113" x="1027.75" y="214"/><rect fill="#FEFEEE" height="23.9688" style="stroke: #A80036; stroke-width: 1.5;" width="113" x="1027.75" y="214"/><text fill="#000000" font-family="sans-serif" font-size="12" lengthAdjust="spacingAndGlyphs" textLength="107" x="1030.75" y="230.1387">TransportByRoad</text></a><!--class TransportByRail--><a target="_top" xlink:actuate="onRequest" xlink:href="../TransportByRail.html" xlink:show="new" xlink:title="Information related to the transportation of goods by rail." xlink:type="simple"><rect fill="#FEFEEE" filter="url(#f12mac6zgqn5h2)" height="23.9688" id="TransportByRail" style="stroke: #A80036; stroke-width: 1.5;" width="103" x="1175.75" y="214"/><rect fill="#FEFEEE" height="23.9688" style="stroke: #A80036; stroke-width: 1.5;" width="103" x="1175.75" y="214"/><text fill="#000000" font-family="sans-serif" font-size="12" lengthAdjust="spacingAndGlyphs" textLength="97" x="1178.75" y="230.1387">TransportByRail</text></a><!--class Incoterms--><a target="_top" xlink:actuate="onRequest" xlink:href="../Incoterms.html" xlink:show="new" xlink:title="International commerce terms are a series of international sales terms, published by International Chamber of Commerce (ICC) and widely used in international commercial transactions. These are accepted by governments, legal authorities and practitioners worldwide for the interpretation of most commonly used terms in international trade. Scope of this is limited to matters relating to rights and obligations of the parties to the contract of sale with respect to the delivery of goods sold. They are used to divide transaction costs and responsibilities between buyer and seller and reflect state-of-the-art transportation practices." xlink:type="simple"><rect fill="#EEEEEE" filter="url(#f12mac6zgqn5h2)" height="23.9688" id="Incoterms" style="stroke: #A80036; stroke-width: 1.5;" width="68" x="42" y="76"/><rect fill="#EEEEEE" height="23.9688" style="stroke: #A80036; stroke-width: 1.5;" width="68" x="42" y="76"/><text fill="#000000" font-family="sans-serif" font-size="12" lengthAdjust="spacingAndGlyphs" textLength="62" x="45" y="92.1387">Incoterms</text></a><!--class Packaging--><a target="_top" xlink:actuate="onRequest" xlink:href="../Packaging.html" xlink:show="new" xlink:title="Physical packaging of goods for transport." xlink:type="simple"><rect fill="#EEEEEE" filter="url(#f12mac6zgqn5h2)" height="23.9688" id="Packaging" style="stroke: #A80036; stroke-width: 1.5;" width="71" x="88.75" y="420"/><rect fill="#EEEEEE" height="23.9688" style="stroke: #A80036; stroke-width: 1.5;" width="71" x="88.75" y="420"/><text fill="#000000" font-family="sans-serif" font-size="12" lengthAdjust="spacingAndGlyphs" textLength="65" x="91.75" y="436.1387">Packaging</text></a><!--class ProductDelivery--><a target="_top" xlink:actuate="onRequest" xlink:href="../ProductDelivery.html" xlink:show="new" xlink:title="Arrangements for delivery of invoiced products and/or services." xlink:type="simple"><rect fill="#EEEEEE" filter="url(#f12mac6zgqn5h2)" height="23.9688" id="ProductDelivery" style="stroke: #A80036; stroke-width: 1.5;" width="103" x="112.75" y="318"/><rect fill="#EEEEEE" height="23.9688" style="stroke: #A80036; stroke-width: 1.5;" width="103" x="112.75" y="318"/><text fill="#000000" font-family="sans-serif" font-size="12" lengthAdjust="spacingAndGlyphs" textLength="97" x="115.75" y="334.1387">ProductDelivery</text></a><!--class Location--><a target="_top" xlink:actuate="onRequest" xlink:href="../Location.html" xlink:show="new" xlink:title="Specifies a place." xlink:type="simple"><rect fill="#EEEEEE" filter="url(#f12mac6zgqn5h2)" height="23.9688" id="Location" style="stroke: #A80036; stroke-width: 1.5;" width="59" x="147.75" y="214"/><rect fill="#EEEEEE" height="23.9688" style="stroke: #A80036; stroke-width: 1.5;" width="59" x="147.75" y="214"/><text fill="#000000" font-family="sans-serif" font-size="12" lengthAdjust="spacingAndGlyphs" textLength="53" x="150.75" y="230.1387">Location</text></a><!--class Charges--><a target="_top" xlink:actuate="onRequest" xlink:href="../Charges.html" xlink:show="new" xlink:title="Amount of money associated with a service." xlink:type="simple"><rect fill="#EEEEEE" filter="url(#f12mac6zgqn5h2)" height="23.9688" id="Charges" style="stroke: #A80036; stroke-width: 1.5;" width="58" x="224.5" y="678"/><rect fill="#EEEEEE" height="23.9688" style="stroke: #A80036; stroke-width: 1.5;" width="58" x="224.5" y="678"/><text fill="#000000" font-family="sans-serif" font-size="12" lengthAdjust="spacingAndGlyphs" textLength="52" x="227.5" y="694.1387">Charges</text></a><!--class ShipmentDateRange--><a target="_top" xlink:actuate="onRequest" xlink:href="../ShipmentDateRange.html" xlink:show="new" xlink:title="Specifies a shipment period or a shipment date." xlink:type="simple"><rect fill="#EEEEEE" filter="url(#f12mac6zgqn5h2)" height="23.9688" id="ShipmentDateRange" style="stroke: #A80036; stroke-width: 1.5;" width="135" x="185.75" y="592"/><rect fill="#EEEEEE" height="23.9688" style="stroke: #A80036; stroke-width: 1.5;" width="135" x="185.75" y="592"/><text fill="#000000" font-family="sans-serif" font-size="12" lengthAdjust="spacingAndGlyphs" textLength="129" x="188.75" y="608.1387">ShipmentDateRange</text></a><!--class Goods--><a target="_top" xlink:actuate="onRequest" xlink:href="../Goods.html" xlink:show="new" xlink:title="Good is a physical product that can be delivered to a purchaser and that involves the transfer of ownership from seller to customer." xlink:type="simple"><rect fill="#EEEEEE" filter="url(#f12mac6zgqn5h2)" height="23.9688" id="Goods" style="stroke: #A80036; stroke-width: 1.5;" width="46" x="235" y="506"/><rect fill="#EEEEEE" height="23.9688" style="stroke: #A80036; stroke-width: 1.5;" width="46" x="235" y="506"/><text fill="#000000" font-family="sans-serif" font-size="12" lengthAdjust="spacingAndGlyphs" textLength="40" x="238" y="522.1387">Goods</text></a><!--class TransportPartyRole--><a target="_top" xlink:actuate="onRequest" xlink:href="../TransportPartyRole.html" xlink:show="new" xlink:title="Role played by a party in the context of transporting goods." xlink:type="simple"><rect fill="#EEEEEE" filter="url(#f12mac6zgqn5h2)" height="23.9688" id="TransportPartyRole" style="stroke: #A80036; stroke-width: 1.5;" width="126" x="195" y="420"/><rect fill="#EEEEEE" height="23.9688" style="stroke: #A80036; stroke-width: 1.5;" width="126" x="195" y="420"/><text fill="#000000" font-family="sans-serif" font-size="12" lengthAdjust="spacingAndGlyphs" textLength="120" x="198" y="436.1387">TransportPartyRole</text></a><!--class Document--><a target="_top" xlink:actuate="onRequest" xlink:href="../Document.html" xlink:show="new" xlink:title="General information that unambiguously identifies a document, such as identification number and issue date time." xlink:type="simple"><rect fill="#EEEEEE" filter="url(#f12mac6zgqn5h2)" height="23.9688" id="Document" style="stroke: #A80036; stroke-width: 1.5;" width="70" x="251" y="318"/><rect fill="#EEEEEE" height="23.9688" style="stroke: #A80036; stroke-width: 1.5;" width="70" x="251" y="318"/><text fill="#000000" font-family="sans-serif" font-size="12" lengthAdjust="spacingAndGlyphs" textLength="64" x="254" y="334.1387">Document</text></a><!--link Transport to TransportByAir--><path d="M873.787,150.852 C851.254,174.793 827.756,199.759 814.59,213.749 " fill="none" id="Transport-TransportByAir" style="stroke: #A80036; stroke-width: 1.0;"/><polygon fill="none" points="868.786,145.951,887.591,136.185,878.981,155.546,868.786,145.951" style="stroke: #A80036; stroke-width: 1.0;"/><!--link Transport to TransportBySea--><path d="M935.958,156.285 C937.265,178.499 938.577,200.815 939.338,213.749 " fill="none" id="Transport-TransportBySea" style="stroke: #A80036; stroke-width: 1.0;"/><polygon fill="none" points="928.962,156.561,934.776,136.185,942.938,155.739,928.962,156.561" style="stroke: #A80036; stroke-width: 1.0;"/><!--link Transport to TransportByRoad--><path d="M999.993,149.836 C1027.09,174.084 1055.57,199.561 1071.42,213.749 " fill="none" id="Transport-TransportByRoad" style="stroke: #A80036; stroke-width: 1.0;"/><polygon fill="none" points="994.973,154.737,984.736,136.185,1004.308,144.304,994.973,154.737" style="stroke: #A80036; stroke-width: 1.0;"/><!--link Transport to TransportByRail--><path d="M1052.69,144.639 C1108.67,170.448 1169.99,198.716 1202.9,213.888 " fill="none" id="Transport-TransportByRail" style="stroke: #A80036; stroke-width: 1.0;"/><polygon fill="none" points="1049.58,150.915,1034.35,136.185,1055.44,138.201,1049.58,150.915" style="stroke: #A80036; stroke-width: 1.0;"/><!--link Packaging to Incoterms--><!--link ProductDelivery to Packaging--><!--link Location to ProductDelivery--><!--link Charges to Location--><!--link ShipmentDateRange to Charges--><!--link Goods to ShipmentDateRange--><!--link TransportPartyRole to Goods--><!--link Document to TransportPartyRole--><!--link Transport to Incoterms--><path d="M764.554,88 C560.395,88 228.551,88 115.31,88 " fill="none" id="Transport-Incoterms" style="stroke: #A80036; stroke-width: 1.0;"/><polygon fill="#A80036" points="110.084,88,119.084,92,115.084,88,119.084,84,110.084,88" style="stroke: #A80036; stroke-width: 1.0;"/><text fill="#000000" font-family="sans-serif" font-size="13" lengthAdjust="spacingAndGlyphs" textLength="64" x="404.75" y="80.0669">Incoterms</text><text fill="#000000" font-family="sans-serif" font-size="13" lengthAdjust="spacingAndGlyphs" textLength="8" x="117.9388" y="82.3307">1</text><!--link Transport to Packaging--><path d="M854.111,136.221 C818.105,158.796 775.181,186.785 738,214 C711,233.763 709.473,246.158 680,262 C587.276,311.841 276.249,392.728 164.452,420.924 " fill="none" id="Transport-Packaging" style="stroke: #A80036; stroke-width: 1.0;"/><polygon fill="#A80036" points="159.28,422.226,168.984,423.909,164.1289,421.0059,167.0319,416.1508,159.28,422.226" style="stroke: #A80036; stroke-width: 1.0;"/><text fill="#000000" font-family="sans-serif" font-size="13" lengthAdjust="spacingAndGlyphs" textLength="65" x="664" y="283.0669">Packaging</text><text fill="#000000" font-family="sans-serif" font-size="13" lengthAdjust="spacingAndGlyphs" textLength="8" x="167.8178" y="414.3134">1</text><!--link Transport to ProductDelivery--><path d="M764.517,129.538 C724.102,140.398 681.259,152.819 642,166 C621.97,172.725 618.463,178.74 598,184 C541.67,198.479 382.546,176.605 338,214 C311.721,236.061 340.569,264.049 316,288 C302.233,301.42 257.693,312.472 220.36,319.706 " fill="none" id="Transport-ProductDelivery" style="stroke: #A80036; stroke-width: 1.0;"/><polygon fill="#A80036" points="215.379,320.657,224.9692,322.8993,220.2904,319.7199,223.4698,315.041,215.379,320.657" style="stroke: #A80036; stroke-width: 1.0;"/><text fill="#000000" font-family="sans-serif" font-size="13" lengthAdjust="spacingAndGlyphs" textLength="100" x="339" y="230.0669">ProductDelivery</text><text fill="#000000" font-family="sans-serif" font-size="13" lengthAdjust="spacingAndGlyphs" textLength="24" x="218.9265" y="312.354">0..1</text><!--link Transport to Location--><path d="M764.561,94.53 C638.399,102.348 462.376,121.108 314,166 C296.878,171.18 294.3,176.63 278,184 C255.904,193.991 230.623,204.252 210.881,212.01 " fill="none" id="Transport-Location" style="stroke: #A80036; stroke-width: 1.0;"/><polygon fill="#A80036" points="205.987,213.927,215.826,214.3678,210.6424,212.1028,212.9073,206.9192,205.987,213.927" style="stroke: #A80036; stroke-width: 1.0;"/><text fill="#000000" font-family="sans-serif" font-size="13" lengthAdjust="spacingAndGlyphs" textLength="113" x="315" y="179.0669">PlaceOfDeparture</text><text fill="#000000" font-family="sans-serif" font-size="13" lengthAdjust="spacingAndGlyphs" textLength="8" x="205.1466" y="202.9501">1</text><!--link Transport to Location--><path d="M764.49,104.71 C675.483,116.087 565.115,135.07 470,166 C452.988,171.532 451.031,178.527 434,184 C356.855,208.79 261.67,218.968 211.581,222.841 " fill="none" id="Transport-Location" style="stroke: #A80036; stroke-width: 1.0;"/><polygon fill="#A80036" points="206.583,223.218,215.8581,226.5304,211.5689,222.8423,215.257,218.553,206.583,223.218" style="stroke: #A80036; stroke-width: 1.0;"/><text fill="#000000" font-family="sans-serif" font-size="13" lengthAdjust="spacingAndGlyphs" textLength="121" x="471" y="179.0669">PlaceOfDestination</text><text fill="#000000" font-family="sans-serif" font-size="13" lengthAdjust="spacingAndGlyphs" textLength="8" x="214.7079" y="216.5549">1</text><!--link Transport to Location--><path d="M764.727,100.238 C546.445,115.722 189.729,144.177 170,166 C159.527,177.585 163.89,196.104 169.204,209.303 " fill="none" id="Transport-Location" style="stroke: #A80036; stroke-width: 1.0;"/><polygon fill="#A80036" points="171.179,213.902,171.3033,204.0539,169.2061,209.3077,163.9524,207.2105,171.179,213.902" style="stroke: #A80036; stroke-width: 1.0;"/><text fill="#000000" font-family="sans-serif" font-size="13" lengthAdjust="spacingAndGlyphs" textLength="97" x="171" y="179.0669">TransitLocation</text><text fill="#000000" font-family="sans-serif" font-size="13" lengthAdjust="spacingAndGlyphs" textLength="7" x="159.5452" y="202.9165">*</text><!--link Transport to Charges--><path d="M1099.3,102.002 C1326.05,121.919 1703,164.176 1703,225 C1703,225 1703,225 1703,605 C1703,678.3394 505.166,687.7547 286.912,688.8616 " fill="none" id="Transport-Charges" style="stroke: #A80036; stroke-width: 1.0;"/><polygon fill="#A80036" points="281.638,688.8877,290.6573,692.8439,286.6379,688.8634,290.6185,684.844,281.638,688.8877" style="stroke: #A80036; stroke-width: 1.0;"/><text fill="#000000" font-family="sans-serif" font-size="13" lengthAdjust="spacingAndGlyphs" textLength="114" x="1704" y="436.0669">TransportCharges</text><text fill="#000000" font-family="sans-serif" font-size="13" lengthAdjust="spacingAndGlyphs" textLength="7" x="290.5362" y="682.2742">*</text><!--link Transport to ShipmentDateRange--><path d="M1099.36,91.713 C1290.47,99.465 1577,127.367 1577,225 C1577,225 1577,225 1577,519 C1577,582.223 602.77,598.79 325.702,602.223 " fill="none" id="Transport-ShipmentDateRange" style="stroke: #A80036; stroke-width: 1.0;"/><polygon fill="#A80036" points="320.478,602.287,329.5265,606.1761,325.4776,602.2256,329.4282,598.1767,320.478,602.287" style="stroke: #A80036; stroke-width: 1.0;"/><text fill="#000000" font-family="sans-serif" font-size="13" lengthAdjust="spacingAndGlyphs" textLength="100" x="1578" y="385.0669">ShipmentDates</text><text fill="#000000" font-family="sans-serif" font-size="13" lengthAdjust="spacingAndGlyphs" textLength="8" x="328.7137" y="597.1825">1</text><!--link Transport to Goods--><path d="M1099.38,105.711 C1234.76,124.028 1403,159.89 1403,225 C1403,225 1403,225 1403,433 C1403,490.795 462.853,512.821 286.368,516.446 " fill="none" id="Transport-Goods" style="stroke: #A80036; stroke-width: 1.0;"/><polygon fill="#A80036" points="281.131,516.553,290.2103,520.3696,286.13,516.4516,290.048,512.3713,281.131,516.553" style="stroke: #A80036; stroke-width: 1.0;"/><text fill="#000000" font-family="sans-serif" font-size="13" lengthAdjust="spacingAndGlyphs" textLength="118" x="1404" y="334.0669">TransportedGoods</text><text fill="#000000" font-family="sans-serif" font-size="13" lengthAdjust="spacingAndGlyphs" textLength="23" x="289.1394" y="510.3386">1..*</text><!--link Transport to TransportPartyRole--><path d="M1099.4,110.91 C1223.95,134.275 1361.88,179.625 1296,262 C1174.71,413.659 538.299,429.967 326.575,431.146 " fill="none" id="Transport-TransportPartyRole" style="stroke: #A80036; stroke-width: 1.0;"/><polygon fill="#A80036" points="321.348,431.173,330.3685,435.1267,326.3479,431.1473,330.3273,427.1268,321.348,431.173" style="stroke: #A80036; stroke-width: 1.0;"/><text fill="#000000" font-family="sans-serif" font-size="13" lengthAdjust="spacingAndGlyphs" textLength="60" x="1289" y="283.0669">PartyRole</text><text fill="#000000" font-family="sans-serif" font-size="13" lengthAdjust="spacingAndGlyphs" textLength="24" x="329.1183" y="426.2865">0..1</text><!--link Transport to Document--><path d="M772.572,136.003 C742.654,145.472 711.752,155.696 683,166 C663.11,173.128 658.93,176.983 639,184 C594.83,199.551 581.281,196.125 538,214 C496.462,231.156 489.617,242.764 449,262 C405.382,282.657 353.629,303.296 320.328,316.096 " fill="none" id="Transport-Document" style="stroke: #A80036; stroke-width: 1.0;"/><polygon fill="#A80036" points="315.552,317.926,325.3875,318.4389,320.2206,316.136,322.5235,310.9691,315.552,317.926" style="stroke: #A80036; stroke-width: 1.0;"/><text fill="#000000" font-family="sans-serif" font-size="13" lengthAdjust="spacingAndGlyphs" textLength="135" x="539" y="230.0669">TransportDocuments</text><text fill="#000000" font-family="sans-serif" font-size="13" lengthAdjust="spacingAndGlyphs" textLength="8" x="314.9918" y="306.9488">1</text><!--link Incoterms to Location--><path d="M72.4892,100.116 C67.2121,119.134 59.5908,158.34 77,184 C91.5927,205.509 119.673,215.745 142.371,220.611 " fill="none" id="Incoterms-Location" style="stroke: #A80036; stroke-width: 1.0;"/><polygon fill="#A80036" points="147.421,221.625,139.3847,215.9313,142.5189,220.6406,137.8096,223.7747,147.421,221.625" style="stroke: #A80036; stroke-width: 1.0;"/><text fill="#000000" font-family="sans-serif" font-size="13" lengthAdjust="spacingAndGlyphs" textLength="54" x="78" y="179.0669">Location</text><text fill="#000000" font-family="sans-serif" font-size="13" lengthAdjust="spacingAndGlyphs" textLength="8" x="131.7817" y="215.2532">1</text><!--link Location to Document--><path d="M189.081,238.306 C208.91,256.861 248.344,293.762 270.307,314.315 " fill="none" id="Location-Document" style="stroke: #A80036; stroke-width: 1.0;"/><polygon fill="#A80036" points="274.196,317.954,270.3597,308.883,270.546,314.5368,264.8922,314.7231,274.196,317.954" style="stroke: #A80036; stroke-width: 1.0;"/><text fill="#000000" font-family="sans-serif" font-size="13" lengthAdjust="spacingAndGlyphs" textLength="108" x="243" y="283.0669">IssuedDocument</text><text fill="#000000" font-family="sans-serif" font-size="13" lengthAdjust="spacingAndGlyphs" textLength="7" x="260.5915" y="306.9864">*</text></g></svg>