<?xml version="1.0" encoding="UTF-8" standalone="no"?><svg xmlns="http://www.w3.org/2000/svg" xmlns:xlink="http://www.w3.org/1999/xlink" contentScriptType="application/ecmascript" contentStyleType="text/css" height="478px" preserveAspectRatio="none" style="width:947px;height:478px;" version="1.1" viewBox="0 0 947 478" width="947px" zoomAndPan="magnify"><defs><filter height="300%" id="fclw2fq6e5fw4" width="300%" x="-1" y="-1"><feGaussianBlur result="blurOut" stdDeviation="2.0"/><feColorMatrix in="blurOut" result="blurOut2" type="matrix" values="0 0 0 0 0 0 0 0 0 0 0 0 0 0 0 0 0 0 .4 0"/><feOffset dx="4.0" dy="4.0" in="blurOut2" result="blurOut3"/><feBlend in="SourceGraphic" in2="blurOut3" mode="normal"/></filter></defs><g><!--cluster ##18217--><!--cluster ##18235--><!--cluster ##18244--><!--class Role--><a target="_top" xlink:actuate="onRequest" xlink:href="../Role.html" xlink:show="new" xlink:title="Role of a party in an activity." xlink:type="simple"><rect fill="#FEFEEE" filter="url(#fclw2fq6e5fw4)" height="44.7734" id="Role" style="stroke: #A80036; stroke-width: 1.5;" width="175" x="243.75" y="40.5"/><rect fill="#FEFEEE" height="23.9688" style="stroke: #A80036; stroke-width: 1.5;" width="175" x="243.75" y="40.5"/><text fill="#000000" font-family="sans-serif" font-size="12" lengthAdjust="spacingAndGlyphs" textLength="27" x="317.75" y="56.6387">Role</text><line style="stroke: #A80036; stroke-width: 1.5;" x1="244.75" x2="417.75" y1="64.4688" y2="64.4688"/><ellipse cx="254.75" cy="76.3711" fill="#84BE84" rx="3" ry="3" style="stroke: #038048; stroke-width: 1.0;"/><text fill="#000000" font-family="sans-serif" font-size="11" lengthAdjust="spacingAndGlyphs" textLength="53" x="263.75" y="78.6792">PartyRole</text><text fill="#000000" font-family="sans-serif" font-size="11" font-style="italic" lengthAdjust="spacingAndGlyphs" textLength="92" x="320.75" y="78.6792">(PartyRoleCode)</text></a><!--class TransportPartyRole--><a target="_top" xlink:actuate="onRequest" xlink:href="../TransportPartyRole.html" xlink:show="new" xlink:title="Role played by a party in the context of transporting goods." xlink:type="simple"><rect fill="#FEFECE" filter="url(#fclw2fq6e5fw4)" height="23.9688" id="TransportPartyRole" style="stroke: #A80036; stroke-width: 1.5;" width="126" x="231" y="166"/><rect fill="#FEFECE" height="23.9688" style="stroke: #A80036; stroke-width: 1.5;" width="126" x="231" y="166"/><text fill="#000000" font-family="sans-serif" font-size="12" lengthAdjust="spacingAndGlyphs" textLength="120" x="234" y="182.1387">TransportPartyRole</text></a><!--class Consignor--><a target="_top" xlink:actuate="onRequest" xlink:href="../Consignor.html" xlink:show="new" xlink:title="Party responsible for dispatching the goods." xlink:type="simple"><rect fill="#FEFEEE" filter="url(#fclw2fq6e5fw4)" height="23.9688" id="Consignor" style="stroke: #A80036; stroke-width: 1.5;" width="69" x="38.75" y="270"/><rect fill="#FEFEEE" height="23.9688" style="stroke: #A80036; stroke-width: 1.5;" width="69" x="38.75" y="270"/><text fill="#000000" font-family="sans-serif" font-size="12" lengthAdjust="spacingAndGlyphs" textLength="63" x="41.75" y="286.1387">Consignor</text></a><!--class Consignee--><a target="_top" xlink:actuate="onRequest" xlink:href="../Consignee.html" xlink:show="new" xlink:title="Party to whom the goods must be delivered." xlink:type="simple"><rect fill="#FEFEEE" filter="url(#fclw2fq6e5fw4)" height="23.9688" id="Consignee" style="stroke: #A80036; stroke-width: 1.5;" width="72" x="143" y="270"/><rect fill="#FEFEEE" height="23.9688" style="stroke: #A80036; stroke-width: 1.5;" width="72" x="143" y="270"/><text fill="#000000" font-family="sans-serif" font-size="12" lengthAdjust="spacingAndGlyphs" textLength="66" x="146" y="286.1387">Consignee</text></a><!--class Carrier--><a target="_top" xlink:actuate="onRequest" xlink:href="../Carrier.html" xlink:show="new" xlink:title="Identifies the party that is responsible for the conveyance of the goods from one place to another." xlink:type="simple"><rect fill="#FEFEEE" filter="url(#fclw2fq6e5fw4)" height="23.9688" id="Carrier" style="stroke: #A80036; stroke-width: 1.5;" width="48" x="250" y="270"/><rect fill="#FEFEEE" height="23.9688" style="stroke: #A80036; stroke-width: 1.5;" width="48" x="250" y="270"/><text fill="#000000" font-family="sans-serif" font-size="12" lengthAdjust="spacingAndGlyphs" textLength="42" x="253" y="286.1387">Carrier</text></a><!--class CarrierAgent--><a target="_top" xlink:actuate="onRequest" xlink:href="../CarrierAgent.html" xlink:show="new" xlink:title="Carrier's agent (for example, shipping company) that acts on behalf of the carrier and may be the issuer of transport documents." xlink:type="simple"><rect fill="#FEFEEE" filter="url(#fclw2fq6e5fw4)" height="23.9688" id="CarrierAgent" style="stroke: #A80036; stroke-width: 1.5;" width="85" x="333.75" y="270"/><rect fill="#FEFEEE" height="23.9688" style="stroke: #A80036; stroke-width: 1.5;" width="85" x="333.75" y="270"/><text fill="#000000" font-family="sans-serif" font-size="12" lengthAdjust="spacingAndGlyphs" textLength="79" x="336.75" y="286.1387">CarrierAgent</text></a><!--class RolePlayer--><a target="_top" xlink:actuate="onRequest" xlink:href="../RolePlayer.html" xlink:show="new" xlink:title="Type of entity that plays a specific role in a specific context." xlink:type="simple"><rect fill="#EEEEEE" filter="url(#fclw2fq6e5fw4)" height="23.9688" id="RolePlayer" style="stroke: #A80036; stroke-width: 1.5;" width="71" x="756.75" y="444"/><rect fill="#EEEEEE" height="23.9688" style="stroke: #A80036; stroke-width: 1.5;" width="71" x="756.75" y="444"/><text fill="#000000" font-family="sans-serif" font-size="12" lengthAdjust="spacingAndGlyphs" textLength="65" x="759.75" y="460.1387">RolePlayer</text></a><!--class ContactPersonRole--><a target="_top" xlink:actuate="onRequest" xlink:href="../ContactPersonRole.html" xlink:show="new" xlink:title="Person to be contacted in a given organisation. In the corporate action domain (including meeting notifications) , it is the contact person at the party organising the meeting, at the issuer or at an intermediary." xlink:type="simple"><rect fill="#EEEEEE" filter="url(#fclw2fq6e5fw4)" height="23.9688" id="ContactPersonRole" style="stroke: #A80036; stroke-width: 1.5;" width="126" x="749" y="358"/><rect fill="#EEEEEE" height="23.9688" style="stroke: #A80036; stroke-width: 1.5;" width="126" x="749" y="358"/><text fill="#000000" font-family="sans-serif" font-size="12" lengthAdjust="spacingAndGlyphs" textLength="120" x="752" y="374.1387">ContactPersonRole</text></a><!--class CounterpartyRisk--><a target="_top" xlink:actuate="onRequest" xlink:href="../CounterpartyRisk.html" xlink:show="new" xlink:title="Calculation of the exposure amount that one party has vis-a-vis one counterparty or a central system, based on its credit risk." xlink:type="simple"><rect fill="#EEEEEE" filter="url(#fclw2fq6e5fw4)" height="23.9688" id="CounterpartyRisk" style="stroke: #A80036; stroke-width: 1.5;" width="113" x="761.75" y="270"/><rect fill="#EEEEEE" height="23.9688" style="stroke: #A80036; stroke-width: 1.5;" width="113" x="761.75" y="270"/><text fill="#000000" font-family="sans-serif" font-size="12" lengthAdjust="spacingAndGlyphs" textLength="107" x="764.75" y="286.1387">CounterpartyRisk</text></a><!--class Entry--><a target="_top" xlink:actuate="onRequest" xlink:href="../Entry.html" xlink:show="new" xlink:title="Posting to an account that results in an increase or decrease to a balance." xlink:type="simple"><rect fill="#EEEEEE" filter="url(#fclw2fq6e5fw4)" height="23.9688" id="Entry" style="stroke: #A80036; stroke-width: 1.5;" width="38" x="749" y="166"/><rect fill="#EEEEEE" height="23.9688" style="stroke: #A80036; stroke-width: 1.5;" width="38" x="749" y="166"/><text fill="#000000" font-family="sans-serif" font-size="12" lengthAdjust="spacingAndGlyphs" textLength="32" x="752" y="182.1387">Entry</text></a><!--class Transport--><a target="_top" xlink:actuate="onRequest" xlink:href="../Transport.html" xlink:show="new" xlink:title="Moving of goods or people from one place to another by vehicle." xlink:type="simple"><rect fill="#EEEEEE" filter="url(#fclw2fq6e5fw4)" height="23.9688" id="Transport" style="stroke: #A80036; stroke-width: 1.5;" width="67" x="475.75" y="270"/><rect fill="#EEEEEE" height="23.9688" style="stroke: #A80036; stroke-width: 1.5;" width="67" x="475.75" y="270"/><text fill="#000000" font-family="sans-serif" font-size="12" lengthAdjust="spacingAndGlyphs" textLength="61" x="478.75" y="286.1387">Transport</text></a><!--link Role to TransportPartyRole--><path d="M317.723,104.549 C310.574,126.383 302.291,151.68 297.646,165.865 " fill="none" id="Role-TransportPartyRole" style="stroke: #A80036; stroke-width: 1.0;"/><polygon fill="none" points="311.077,102.349,323.953,85.52,324.382,106.706,311.077,102.349" style="stroke: #A80036; stroke-width: 1.0;"/><!--link TransportPartyRole to Consignor--><path d="M240.898,196.725 C206.938,208.863 162.405,226.291 125,246 C111.906,252.899 98.0491,262.346 87.9347,269.686 " fill="none" id="TransportPartyRole-Consignor" style="stroke: #A80036; stroke-width: 1.0;"/><polygon fill="none" points="238.837,190.031,260.026,190.046,243.452,203.248,238.837,190.031" style="stroke: #A80036; stroke-width: 1.0;"/><!--link TransportPartyRole to Consignee--><path d="M266.257,203.607 C242.452,224.721 209.256,254.165 191.454,269.954 " fill="none" id="TransportPartyRole-Consignee" style="stroke: #A80036; stroke-width: 1.0;"/><polygon fill="none" points="261.646,198.34,281.254,190.306,270.936,208.814,261.646,198.34" style="stroke: #A80036; stroke-width: 1.0;"/><!--link TransportPartyRole to Carrier--><path d="M287.933,209.94 C283.945,230.283 278.963,255.69 276.166,269.954 " fill="none" id="TransportPartyRole-Carrier" style="stroke: #A80036; stroke-width: 1.0;"/><polygon fill="none" points="281.066,208.585,291.783,190.306,294.804,211.279,281.066,208.585" style="stroke: #A80036; stroke-width: 1.0;"/><!--link TransportPartyRole to CarrierAgent--><path d="M315.779,206.091 C332.569,226.976 354.917,254.775 367.12,269.954 " fill="none" id="TransportPartyRole-CarrierAgent" style="stroke: #A80036; stroke-width: 1.0;"/><polygon fill="none" points="310.164,210.279,303.089,190.306,321.076,201.507,310.164,210.279" style="stroke: #A80036; stroke-width: 1.0;"/><!--link ContactPersonRole to RolePlayer--><!--link CounterpartyRisk to ContactPersonRole--><!--link Entry to CounterpartyRisk--><!--link Role to RolePlayer--><path d="M418.295,81.504 C501.116,100.689 613,134.476 613,177 C613,177 613,177 613,371 C613,431.8572 698.842,448.7099 751.634,453.3199 " fill="none" id="Role-RolePlayer" style="stroke: #A80036; stroke-width: 1.0;"/><polygon fill="#A80036" points="756.635,453.7288,747.9919,449.0068,751.6517,453.3202,747.3382,456.98,756.635,453.7288" style="stroke: #A80036; stroke-width: 1.0;"/><text fill="#000000" font-family="sans-serif" font-size="13" lengthAdjust="spacingAndGlyphs" textLength="39" x="614" y="286.0669">Player</text><text fill="#000000" font-family="sans-serif" font-size="13" lengthAdjust="spacingAndGlyphs" textLength="7" x="741.7402" y="447.9585">*</text><!--link Role to ContactPersonRole--><path d="M418.267,69.356 C497.098,75.836 605.701,89.371 639,116 C684.765,152.598 661.131,186.452 689,238 C709.52,275.956 714.125,286.868 744,318 C757.704,332.281 775.714,345.597 789.757,355.039 " fill="none" id="Role-ContactPersonRole" style="stroke: #A80036; stroke-width: 1.0;"/><polygon fill="#A80036" points="793.978,357.842,788.6906,349.5328,789.8118,355.0774,784.2672,356.1987,793.978,357.842" style="stroke: #A80036; stroke-width: 1.0;"/><text fill="#000000" font-family="sans-serif" font-size="13" lengthAdjust="spacingAndGlyphs" textLength="121" x="690" y="233.0669">ContactPersonRole</text><text fill="#000000" font-family="sans-serif" font-size="13" lengthAdjust="spacingAndGlyphs" textLength="8" x="777.0642" y="346.8359">1</text><!--link Role to CounterpartyRisk--><path d="M418.324,65.74 C532.593,69.406 725.432,80.776 786,116 C817.042,134.053 831.836,219.022 832,220 C834.586,235.376 829.874,252.681 825.233,264.921 " fill="none" id="Role-CounterpartyRisk" style="stroke: #A80036; stroke-width: 1.0;"/><polygon fill="#A80036" points="823.27,269.837,830.322,262.9618,825.124,265.1934,822.8923,259.9954,823.27,269.837" style="stroke: #A80036; stroke-width: 1.0;"/><text fill="#000000" font-family="sans-serif" font-size="13" lengthAdjust="spacingAndGlyphs" textLength="109" x="826" y="182.0669">CounterpartyRisk</text><text fill="#000000" font-family="sans-serif" font-size="13" lengthAdjust="spacingAndGlyphs" textLength="24" x="795.5269" y="258.8292">0..1</text><!--link Role to Entry--><path d="M418.466,67.826 C517.634,73.508 672.028,86.825 722,116 C739.907,126.455 753.097,146.888 760.654,161.214 " fill="none" id="Role-Entry" style="stroke: #A80036; stroke-width: 1.0;"/><polygon fill="#A80036" points="762.999,165.815,762.4764,155.98,760.7287,161.3601,755.3486,159.6125,762.999,165.815" style="stroke: #A80036; stroke-width: 1.0;"/><text fill="#000000" font-family="sans-serif" font-size="13" lengthAdjust="spacingAndGlyphs" textLength="33" x="743" y="129.0669">Entry</text><text fill="#000000" font-family="sans-serif" font-size="13" lengthAdjust="spacingAndGlyphs" textLength="8" x="750.6862" y="155.0572">1</text><!--link TransportPartyRole to Transport--><path d="M317.418,190.11 C357.321,209.041 438.317,247.467 481.091,267.76 " fill="none" id="TransportPartyRole-Transport" style="stroke: #A80036; stroke-width: 1.0;"/><polygon fill="#A80036" points="485.611,269.904,479.195,262.4317,481.0938,267.7604,475.7652,269.6592,485.611,269.904" style="stroke: #A80036; stroke-width: 1.0;"/><text fill="#000000" font-family="sans-serif" font-size="13" lengthAdjust="spacingAndGlyphs" textLength="61" x="416" y="233.0669">Transport</text><text fill="#000000" font-family="sans-serif" font-size="13" lengthAdjust="spacingAndGlyphs" textLength="24" x="448.0163" y="258.9192">0..1</text></g></svg>