<?xml version="1.0" encoding="UTF-8" standalone="no"?><svg xmlns="http://www.w3.org/2000/svg" xmlns:xlink="http://www.w3.org/1999/xlink" contentScriptType="application/ecmascript" contentStyleType="text/css" height="798px" preserveAspectRatio="none" style="width:1531px;height:798px;" version="1.1" viewBox="0 0 1531 798" width="1531px" zoomAndPan="magnify"><defs><filter height="300%" id="f1nx29fzd18lk2" width="300%" x="-1" y="-1"><feGaussianBlur result="blurOut" stdDeviation="2.0"/><feColorMatrix in="blurOut" result="blurOut2" type="matrix" values="0 0 0 0 0 0 0 0 0 0 0 0 0 0 0 0 0 0 .4 0"/><feOffset dx="4.0" dy="4.0" in="blurOut2" result="blurOut3"/><feBlend in="SourceGraphic" in2="blurOut3" mode="normal"/></filter></defs><g><!--cluster ##10276--><!--cluster ##10282--><!--class Transport--><a target="_top" xlink:actuate="onRequest" xlink:href="../Transport.html" xlink:show="new" xlink:title="Moving of goods or people from one place to another by vehicle." xlink:type="simple"><rect fill="#FEFEEE" filter="url(#f1nx29fzd18lk2)" height="95.9922" id="Transport" style="stroke: #A80036; stroke-width: 1.5;" width="335" x="644.75" y="40"/><rect fill="#FEFEEE" height="23.9688" style="stroke: #A80036; stroke-width: 1.5;" width="335" x="644.75" y="40"/><text fill="#000000" font-family="sans-serif" font-size="12" lengthAdjust="spacingAndGlyphs" textLength="61" x="781.75" y="56.1387">Transport</text><line style="stroke: #A80036; stroke-width: 1.5;" x1="645.75" x2="978.75" y1="63.9688" y2="63.9688"/><ellipse cx="655.75" cy="75.8711" fill="#84BE84" rx="3" ry="3" style="stroke: #038048; stroke-width: 1.0;"/><text fill="#000000" font-family="sans-serif" font-size="11" lengthAdjust="spacingAndGlyphs" textLength="72" x="664.75" y="78.1792">Identification</text><text fill="#000000" font-family="sans-serif" font-size="11" font-style="italic" lengthAdjust="spacingAndGlyphs" textLength="70" x="740.75" y="78.1792">(Max35Text)</text><ellipse cx="655.75" cy="88.6758" fill="#84BE84" rx="3" ry="3" style="stroke: #038048; stroke-width: 1.0;"/><text fill="#000000" font-family="sans-serif" font-size="11" lengthAdjust="spacingAndGlyphs" textLength="90" x="664.75" y="90.9839">ArrivalDateTime</text><text fill="#000000" font-family="sans-serif" font-size="11" font-style="italic" lengthAdjust="spacingAndGlyphs" textLength="81" x="758.75" y="90.9839">(ISODateTime)</text><ellipse cx="655.75" cy="101.4805" fill="#84BE84" rx="3" ry="3" style="stroke: #038048; stroke-width: 1.0;"/><text fill="#000000" font-family="sans-serif" font-size="11" lengthAdjust="spacingAndGlyphs" textLength="90" x="664.75" y="103.7886">PartialShipment</text><text fill="#000000" font-family="sans-serif" font-size="11" font-style="italic" lengthAdjust="spacingAndGlyphs" textLength="92" x="758.75" y="103.7886">(YesNoIndicator)</text><ellipse cx="655.75" cy="114.2852" fill="#84BE84" rx="3" ry="3" style="stroke: #038048; stroke-width: 1.0;"/><text fill="#000000" font-family="sans-serif" font-size="11" lengthAdjust="spacingAndGlyphs" textLength="87" x="664.75" y="116.5933">TransShipment</text><text fill="#000000" font-family="sans-serif" font-size="11" font-style="italic" lengthAdjust="spacingAndGlyphs" textLength="92" x="755.75" y="116.5933">(YesNoIndicator)</text><ellipse cx="655.75" cy="127.0898" fill="#84BE84" rx="3" ry="3" style="stroke: #038048; stroke-width: 1.0;"/><text fill="#000000" font-family="sans-serif" font-size="11" lengthAdjust="spacingAndGlyphs" textLength="182" x="664.75" y="129.3979">FreightChargesPrepaidOrCollect</text><text fill="#000000" font-family="sans-serif" font-size="11" font-style="italic" lengthAdjust="spacingAndGlyphs" textLength="123" x="850.75" y="129.3979">(FreightChargesCode)</text></a><!--class TransportBySea--><a target="_top" xlink:actuate="onRequest" xlink:href="../TransportBySea.html" xlink:show="new" xlink:title="Information related for the transportation of goods by sea." xlink:type="simple"><rect fill="#FEFECE" filter="url(#f1nx29fzd18lk2)" height="108.7969" id="TransportBySea" style="stroke: #A80036; stroke-width: 1.5;" width="214" x="766.5" y="214.5"/><rect fill="#FEFECE" height="23.9688" style="stroke: #A80036; stroke-width: 1.5;" width="214" x="766.5" y="214.5"/><text fill="#000000" font-family="sans-serif" font-size="12" lengthAdjust="spacingAndGlyphs" textLength="99" x="824" y="230.6387">TransportBySea</text><line style="stroke: #A80036; stroke-width: 1.5;" x1="767.5" x2="979.5" y1="238.4688" y2="238.4688"/><ellipse cx="777.5" cy="250.3711" fill="#84BE84" rx="3" ry="3" style="stroke: #038048; stroke-width: 1.0;"/><text fill="#000000" font-family="sans-serif" font-size="11" lengthAdjust="spacingAndGlyphs" textLength="71" x="786.5" y="252.6792">VesselName</text><text fill="#000000" font-family="sans-serif" font-size="11" font-style="italic" lengthAdjust="spacingAndGlyphs" textLength="70" x="861.5" y="252.6792">(Max35Text)</text><ellipse cx="777.5" cy="263.1758" fill="#84BE84" rx="3" ry="3" style="stroke: #038048; stroke-width: 1.0;"/><text fill="#000000" font-family="sans-serif" font-size="11" lengthAdjust="spacingAndGlyphs" textLength="86" x="786.5" y="265.4839">VoyageNumber</text><text fill="#000000" font-family="sans-serif" font-size="11" font-style="italic" lengthAdjust="spacingAndGlyphs" textLength="70" x="876.5" y="265.4839">(Max35Text)</text><ellipse cx="777.5" cy="275.9805" fill="#84BE84" rx="3" ry="3" style="stroke: #038048; stroke-width: 1.0;"/><text fill="#000000" font-family="sans-serif" font-size="11" lengthAdjust="spacingAndGlyphs" textLength="88" x="786.5" y="278.2886">ChartererName</text><text fill="#000000" font-family="sans-serif" font-size="11" font-style="italic" lengthAdjust="spacingAndGlyphs" textLength="70" x="878.5" y="278.2886">(Max70Text)</text><ellipse cx="777.5" cy="288.7852" fill="#84BE84" rx="3" ry="3" style="stroke: #038048; stroke-width: 1.0;"/><text fill="#000000" font-family="sans-serif" font-size="11" lengthAdjust="spacingAndGlyphs" textLength="72" x="786.5" y="291.0933">MasterName</text><text fill="#000000" font-family="sans-serif" font-size="11" font-style="italic" lengthAdjust="spacingAndGlyphs" textLength="70" x="862.5" y="291.0933">(Max70Text)</text><ellipse cx="777.5" cy="301.5898" fill="#84BE84" rx="3" ry="3" style="stroke: #038048; stroke-width: 1.0;"/><text fill="#000000" font-family="sans-serif" font-size="11" lengthAdjust="spacingAndGlyphs" textLength="70" x="786.5" y="303.8979">OwnerName</text><text fill="#000000" font-family="sans-serif" font-size="11" font-style="italic" lengthAdjust="spacingAndGlyphs" textLength="70" x="860.5" y="303.8979">(Max70Text)</text><ellipse cx="777.5" cy="314.3945" fill="#84BE84" rx="3" ry="3" style="stroke: #038048; stroke-width: 1.0;"/><text fill="#000000" font-family="sans-serif" font-size="11" lengthAdjust="spacingAndGlyphs" textLength="66" x="786.5" y="316.7026">IMONumber</text><text fill="#000000" font-family="sans-serif" font-size="11" font-style="italic" lengthAdjust="spacingAndGlyphs" textLength="118" x="856.5" y="316.7026">(Exact7NumericText)</text></a><!--class Incoterms--><a target="_top" xlink:actuate="onRequest" xlink:href="../Incoterms.html" xlink:show="new" xlink:title="International commerce terms are a series of international sales terms, published by International Chamber of Commerce (ICC) and widely used in international commercial transactions. These are accepted by governments, legal authorities and practitioners worldwide for the interpretation of most commonly used terms in international trade. Scope of this is limited to matters relating to rights and obligations of the parties to the contract of sale with respect to the delivery of goods sold. They are used to divide transaction costs and responsibilities between buyer and seller and reflect state-of-the-art transportation practices." xlink:type="simple"><rect fill="#EEEEEE" filter="url(#f1nx29fzd18lk2)" height="23.9688" id="Incoterms" style="stroke: #A80036; stroke-width: 1.5;" width="68" x="54" y="76"/><rect fill="#EEEEEE" height="23.9688" style="stroke: #A80036; stroke-width: 1.5;" width="68" x="54" y="76"/><text fill="#000000" font-family="sans-serif" font-size="12" lengthAdjust="spacingAndGlyphs" textLength="62" x="57" y="92.1387">Incoterms</text></a><!--class Packaging--><a target="_top" xlink:actuate="onRequest" xlink:href="../Packaging.html" xlink:show="new" xlink:title="Physical packaging of goods for transport." xlink:type="simple"><rect fill="#EEEEEE" filter="url(#f1nx29fzd18lk2)" height="23.9688" id="Packaging" style="stroke: #A80036; stroke-width: 1.5;" width="71" x="99.75" y="506"/><rect fill="#EEEEEE" height="23.9688" style="stroke: #A80036; stroke-width: 1.5;" width="71" x="99.75" y="506"/><text fill="#000000" font-family="sans-serif" font-size="12" lengthAdjust="spacingAndGlyphs" textLength="65" x="102.75" y="522.1387">Packaging</text></a><!--class ProductDelivery--><a target="_top" xlink:actuate="onRequest" xlink:href="../ProductDelivery.html" xlink:show="new" xlink:title="Arrangements for delivery of invoiced products and/or services." xlink:type="simple"><rect fill="#EEEEEE" filter="url(#f1nx29fzd18lk2)" height="23.9688" id="ProductDelivery" style="stroke: #A80036; stroke-width: 1.5;" width="103" x="123.75" y="404"/><rect fill="#EEEEEE" height="23.9688" style="stroke: #A80036; stroke-width: 1.5;" width="103" x="123.75" y="404"/><text fill="#000000" font-family="sans-serif" font-size="12" lengthAdjust="spacingAndGlyphs" textLength="97" x="126.75" y="420.1387">ProductDelivery</text></a><!--class Location--><a target="_top" xlink:actuate="onRequest" xlink:href="../Location.html" xlink:show="new" xlink:title="Specifies a place." xlink:type="simple"><rect fill="#EEEEEE" filter="url(#f1nx29fzd18lk2)" height="23.9688" id="Location" style="stroke: #A80036; stroke-width: 1.5;" width="59" x="158.75" y="257"/><rect fill="#EEEEEE" height="23.9688" style="stroke: #A80036; stroke-width: 1.5;" width="59" x="158.75" y="257"/><text fill="#000000" font-family="sans-serif" font-size="12" lengthAdjust="spacingAndGlyphs" textLength="53" x="161.75" y="273.1387">Location</text></a><!--class Charges--><a target="_top" xlink:actuate="onRequest" xlink:href="../Charges.html" xlink:show="new" xlink:title="Amount of money associated with a service." xlink:type="simple"><rect fill="#EEEEEE" filter="url(#f1nx29fzd18lk2)" height="23.9688" id="Charges" style="stroke: #A80036; stroke-width: 1.5;" width="58" x="235.5" y="764"/><rect fill="#EEEEEE" height="23.9688" style="stroke: #A80036; stroke-width: 1.5;" width="58" x="235.5" y="764"/><text fill="#000000" font-family="sans-serif" font-size="12" lengthAdjust="spacingAndGlyphs" textLength="52" x="238.5" y="780.1387">Charges</text></a><!--class ShipmentDateRange--><a target="_top" xlink:actuate="onRequest" xlink:href="../ShipmentDateRange.html" xlink:show="new" xlink:title="Specifies a shipment period or a shipment date." xlink:type="simple"><rect fill="#EEEEEE" filter="url(#f1nx29fzd18lk2)" height="23.9688" id="ShipmentDateRange" style="stroke: #A80036; stroke-width: 1.5;" width="135" x="196.75" y="678"/><rect fill="#EEEEEE" height="23.9688" style="stroke: #A80036; stroke-width: 1.5;" width="135" x="196.75" y="678"/><text fill="#000000" font-family="sans-serif" font-size="12" lengthAdjust="spacingAndGlyphs" textLength="129" x="199.75" y="694.1387">ShipmentDateRange</text></a><!--class Goods--><a target="_top" xlink:actuate="onRequest" xlink:href="../Goods.html" xlink:show="new" xlink:title="Good is a physical product that can be delivered to a purchaser and that involves the transfer of ownership from seller to customer." xlink:type="simple"><rect fill="#EEEEEE" filter="url(#f1nx29fzd18lk2)" height="23.9688" id="Goods" style="stroke: #A80036; stroke-width: 1.5;" width="46" x="246" y="592"/><rect fill="#EEEEEE" height="23.9688" style="stroke: #A80036; stroke-width: 1.5;" width="46" x="246" y="592"/><text fill="#000000" font-family="sans-serif" font-size="12" lengthAdjust="spacingAndGlyphs" textLength="40" x="249" y="608.1387">Goods</text></a><!--class TransportPartyRole--><a target="_top" xlink:actuate="onRequest" xlink:href="../TransportPartyRole.html" xlink:show="new" xlink:title="Role played by a party in the context of transporting goods." xlink:type="simple"><rect fill="#EEEEEE" filter="url(#f1nx29fzd18lk2)" height="23.9688" id="TransportPartyRole" style="stroke: #A80036; stroke-width: 1.5;" width="126" x="206" y="506"/><rect fill="#EEEEEE" height="23.9688" style="stroke: #A80036; stroke-width: 1.5;" width="126" x="206" y="506"/><text fill="#000000" font-family="sans-serif" font-size="12" lengthAdjust="spacingAndGlyphs" textLength="120" x="209" y="522.1387">TransportPartyRole</text></a><!--class Document--><a target="_top" xlink:actuate="onRequest" xlink:href="../Document.html" xlink:show="new" xlink:title="General information that unambiguously identifies a document, such as identification number and issue date time." xlink:type="simple"><rect fill="#EEEEEE" filter="url(#f1nx29fzd18lk2)" height="23.9688" id="Document" style="stroke: #A80036; stroke-width: 1.5;" width="70" x="262" y="404"/><rect fill="#EEEEEE" height="23.9688" style="stroke: #A80036; stroke-width: 1.5;" width="70" x="262" y="404"/><text fill="#000000" font-family="sans-serif" font-size="12" lengthAdjust="spacingAndGlyphs" textLength="64" x="265" y="420.1387">Document</text></a><!--entity ##10301--><!--link Transport to TransportBySea--><path d="M834.561,155.204 C841.198,174.679 848.374,195.736 854.708,214.324 " fill="none" id="Transport-TransportBySea" style="stroke: #A80036; stroke-width: 1.0;"/><polygon fill="none" points="827.853,157.219,828.027,136.03,841.104,152.703,827.853,157.219" style="stroke: #A80036; stroke-width: 1.0;"/><!--link Packaging to Incoterms--><!--link ProductDelivery to Packaging--><!--link Location to ProductDelivery--><!--link Charges to Location--><!--link ShipmentDateRange to Charges--><!--link Goods to ShipmentDateRange--><!--link TransportPartyRole to Goods--><!--link Document to TransportPartyRole--><!--link Transport to Incoterms--><path d="M644.55,88 C474.721,88 223.619,88 127.445,88 " fill="none" id="Transport-Incoterms" style="stroke: #A80036; stroke-width: 1.0;"/><polygon fill="#A80036" points="122.433,88,131.433,92,127.433,88,131.433,84,122.433,88" style="stroke: #A80036; stroke-width: 1.0;"/><text fill="#000000" font-family="sans-serif" font-size="13" lengthAdjust="spacingAndGlyphs" textLength="64" x="350.75" y="80.0669">Incoterms</text><text fill="#000000" font-family="sans-serif" font-size="13" lengthAdjust="spacingAndGlyphs" textLength="8" x="129.9995" y="82.4096">1</text><!--link Transport to Packaging--><path d="M786.888,136.094 C774.744,159.349 760.194,187.943 748,214 C720.568,272.619 739.148,304.751 691,348 C651.256,383.7 296.649,476.019 175.422,506.824 " fill="none" id="Transport-Packaging" style="stroke: #A80036; stroke-width: 1.0;"/><polygon fill="#A80036" points="170.517,508.07,180.2248,509.7308,175.3631,506.8388,178.255,501.9771,170.517,508.07" style="stroke: #A80036; stroke-width: 1.0;"/><text fill="#000000" font-family="sans-serif" font-size="13" lengthAdjust="spacingAndGlyphs" textLength="65" x="679" y="369.0669">Packaging</text><text fill="#000000" font-family="sans-serif" font-size="13" lengthAdjust="spacingAndGlyphs" textLength="8" x="178.6158" y="500.3526">1</text><!--link Transport to ProductDelivery--><path d="M715,136.101 C668.595,158.318 620.605,180.709 609,184 C553.045,199.866 390.571,173.324 349,214 C297.694,264.201 374.438,320.129 327,374 C320.404,381.49 271.854,393.78 231.371,402.955 " fill="none" id="Transport-ProductDelivery" style="stroke: #A80036; stroke-width: 1.0;"/><polygon fill="#A80036" points="226.477,404.057,236.136,405.9815,231.3548,402.9583,234.378,398.1771,226.477,404.057" style="stroke: #A80036; stroke-width: 1.0;"/><text fill="#000000" font-family="sans-serif" font-size="13" lengthAdjust="spacingAndGlyphs" textLength="100" x="350" y="273.0669">ProductDelivery</text><text fill="#000000" font-family="sans-serif" font-size="13" lengthAdjust="spacingAndGlyphs" textLength="24" x="229.9297" y="395.3976">0..1</text><!--link Transport to Location--><path d="M644.698,121.188 C593.97,132.993 538.571,147.971 489,166 C472.189,172.114 469.909,178.161 453,184 C389.972,205.764 369.394,193.326 306,214 C272.667,224.871 236.253,242.481 212.823,254.619 " fill="none" id="Transport-Location" style="stroke: #A80036; stroke-width: 1.0;"/><polygon fill="#A80036" points="208.315,256.97,218.1447,256.3556,212.7485,254.6582,214.4459,249.2621,208.315,256.97" style="stroke: #A80036; stroke-width: 1.0;"/><text fill="#000000" font-family="sans-serif" font-size="13" lengthAdjust="spacingAndGlyphs" textLength="113" x="490" y="179.0669">PlaceOfDeparture</text><text fill="#000000" font-family="sans-serif" font-size="13" lengthAdjust="spacingAndGlyphs" textLength="8" x="216.5873" y="246.0079">1</text><!--link Transport to Location--><path d="M644.599,106.85 C461.468,126.773 192.647,157.356 185,166 C164.046,189.684 173.772,229.931 181.581,252.128 " fill="none" id="Transport-Location" style="stroke: #A80036; stroke-width: 1.0;"/><polygon fill="#A80036" points="183.305,256.839,183.9655,247.0123,181.5853,252.144,176.4535,249.7639,183.305,256.839" style="stroke: #A80036; stroke-width: 1.0;"/><text fill="#000000" font-family="sans-serif" font-size="13" lengthAdjust="spacingAndGlyphs" textLength="121" x="186" y="179.0669">PlaceOfDestination</text><text fill="#000000" font-family="sans-serif" font-size="13" lengthAdjust="spacingAndGlyphs" textLength="8" x="170.8864" y="245.8319">1</text><!--link Transport to Location--><path d="M644.706,99.781 C553.676,109.765 440.484,128.989 345,166 C330.329,171.687 248.034,227.124 208.804,253.799 " fill="none" id="Transport-Location" style="stroke: #A80036; stroke-width: 1.0;"/><polygon fill="#A80036" points="204.241,256.904,213.9317,255.1462,208.3743,254.0904,209.43,248.533,204.241,256.904" style="stroke: #A80036; stroke-width: 1.0;"/><text fill="#000000" font-family="sans-serif" font-size="13" lengthAdjust="spacingAndGlyphs" textLength="97" x="346" y="179.0669">TransitLocation</text><text fill="#000000" font-family="sans-serif" font-size="13" lengthAdjust="spacingAndGlyphs" textLength="7" x="200.191" y="245.9192">*</text><!--link Transport to Charges--><path d="M979.27,106.666 C1154.33,129.926 1404,178.746 1404,268 C1404,268 1404,268 1404,691 C1404,747.9561 487.002,770.3155 297.87,774.3214 " fill="none" id="Transport-Charges" style="stroke: #A80036; stroke-width: 1.0;"/><polygon fill="#A80036" points="292.75,774.4292,301.8326,778.238,297.7489,774.3235,301.6634,770.2398,292.75,774.4292" style="stroke: #A80036; stroke-width: 1.0;"/><text fill="#000000" font-family="sans-serif" font-size="13" lengthAdjust="spacingAndGlyphs" textLength="114" x="1405" y="522.0669">TransportCharges</text><text fill="#000000" font-family="sans-serif" font-size="13" lengthAdjust="spacingAndGlyphs" textLength="7" x="301.6797" y="767.6868">*</text><!--link Transport to ShipmentDateRange--><path d="M979.578,120.862 C1113.18,151.212 1278,202.025 1278,268 C1278,268 1278,268 1278,605 C1278,652.29 568.301,679.246 336.372,686.793 " fill="none" id="Transport-ShipmentDateRange" style="stroke: #A80036; stroke-width: 1.0;"/><polygon fill="#A80036" points="331.317,686.956,340.4425,690.6607,336.3143,686.7931,340.1819,682.665,331.317,686.956" style="stroke: #A80036; stroke-width: 1.0;"/><text fill="#000000" font-family="sans-serif" font-size="13" lengthAdjust="spacingAndGlyphs" textLength="100" x="1279" y="471.0669">ShipmentDates</text><text fill="#000000" font-family="sans-serif" font-size="13" lengthAdjust="spacingAndGlyphs" textLength="8" x="339.5341" y="681.6976">1</text><!--link Transport to Goods--><path d="M979.319,129.509 C1044.56,156.179 1104,199.322 1104,268 C1104,268 1104,268 1104,519 C1104,601.892 444.142,603.79 297.6,603.189 " fill="none" id="Transport-Goods" style="stroke: #A80036; stroke-width: 1.0;"/><polygon fill="#A80036" points="292.204,603.165,301.1856,607.2061,297.2039,603.1879,301.2222,599.2062,292.204,603.165" style="stroke: #A80036; stroke-width: 1.0;"/><text fill="#000000" font-family="sans-serif" font-size="13" lengthAdjust="spacingAndGlyphs" textLength="118" x="1105" y="420.0669">TransportedGoods</text><text fill="#000000" font-family="sans-serif" font-size="13" lengthAdjust="spacingAndGlyphs" textLength="23" x="299.7955" y="597.2078">1..*</text><!--link Transport to TransportPartyRole--><path d="M917.448,136.055 C948.437,155.468 978.649,181.237 996,214 C1023.87,266.631 1027.35,297.363 996,348 C928.83,456.495 861.826,441.404 739,476 C665.37,496.739 448.976,509.041 337.346,514.177 " fill="none" id="Transport-TransportPartyRole" style="stroke: #A80036; stroke-width: 1.0;"/><polygon fill="#A80036" points="332.11,514.417,341.2834,518.0015,337.1048,514.1885,340.9178,510.0098,332.11,514.417" style="stroke: #A80036; stroke-width: 1.0;"/><text fill="#000000" font-family="sans-serif" font-size="13" lengthAdjust="spacingAndGlyphs" textLength="60" x="991" y="369.0669">PartyRole</text><text fill="#000000" font-family="sans-serif" font-size="13" lengthAdjust="spacingAndGlyphs" textLength="24" x="339.8557" y="509.2463">0..1</text><!--link Transport to Document--><path d="M740.18,136.153 C712.733,152.812 680.656,170.692 650,184 C607.045,202.647 586.654,186.162 549,214 C491.51,256.503 515.265,302.642 460,348 C423.82,377.694 372.675,395.824 337.37,405.608 " fill="none" id="Transport-Document" style="stroke: #A80036; stroke-width: 1.0;"/><polygon fill="#A80036" points="332.279,406.991,342.0126,408.4935,337.1044,405.6811,339.9167,400.7729,332.279,406.991" style="stroke: #A80036; stroke-width: 1.0;"/><text fill="#000000" font-family="sans-serif" font-size="13" lengthAdjust="spacingAndGlyphs" textLength="135" x="550" y="273.0669">TransportDocuments</text><text fill="#000000" font-family="sans-serif" font-size="13" lengthAdjust="spacingAndGlyphs" textLength="8" x="340.0121" y="399.627">1</text><!--link Incoterms to Location--><path d="M85.0936,100.187 C80.9139,118.644 75.0426,156.194 88,184 C102.9659,216.117 136.924,240.324 161.11,254.311 " fill="none" id="Incoterms-Location" style="stroke: #A80036; stroke-width: 1.0;"/><polygon fill="#A80036" points="165.506,256.803,159.6519,248.8828,161.1572,254.3357,155.7042,255.8409,165.506,256.803" style="stroke: #A80036; stroke-width: 1.0;"/><text fill="#000000" font-family="sans-serif" font-size="13" lengthAdjust="spacingAndGlyphs" textLength="54" x="89" y="179.0669">Location</text><text fill="#000000" font-family="sans-serif" font-size="13" lengthAdjust="spacingAndGlyphs" textLength="8" x="147.3158" y="246.0412">1</text><!--link Location to Document--><path d="M196.553,281.378 C215.974,307.213 263.417,370.325 285.43,399.608 " fill="none" id="Location-Document" style="stroke: #A80036; stroke-width: 1.0;"/><polygon fill="#A80036" points="288.487,403.675,286.2771,394.0773,285.4829,399.6781,279.8821,398.8838,288.487,403.675" style="stroke: #A80036; stroke-width: 1.0;"/><text fill="#000000" font-family="sans-serif" font-size="13" lengthAdjust="spacingAndGlyphs" textLength="108" x="266" y="369.0669">IssuedDocument</text><text fill="#000000" font-family="sans-serif" font-size="13" lengthAdjust="spacingAndGlyphs" textLength="7" x="276.1764" y="392.8708">*</text></g></svg>