<?xml version="1.0" encoding="UTF-8" standalone="no"?><svg xmlns="http://www.w3.org/2000/svg" xmlns:xlink="http://www.w3.org/1999/xlink" contentScriptType="application/ecmascript" contentStyleType="text/css" height="712px" preserveAspectRatio="none" style="width:1431px;height:712px;" version="1.1" viewBox="0 0 1431 712" width="1431px" zoomAndPan="magnify"><defs><filter height="300%" id="f11vud1lr4zgj1" width="300%" x="-1" y="-1"><feGaussianBlur result="blurOut" stdDeviation="2.0"/><feColorMatrix in="blurOut" result="blurOut2" type="matrix" values="0 0 0 0 0 0 0 0 0 0 0 0 0 0 0 0 0 0 .4 0"/><feOffset dx="4.0" dy="4.0" in="blurOut2" result="blurOut3"/><feBlend in="SourceGraphic" in2="blurOut3" mode="normal"/></filter></defs><g><!--cluster ##18552--><!--cluster ##18558--><!--class Transport--><a target="_top" xlink:actuate="onRequest" xlink:href="../Transport.html" xlink:show="new" xlink:title="Moving of goods or people from one place to another by vehicle." xlink:type="simple"><rect fill="#FEFEEE" filter="url(#f11vud1lr4zgj1)" height="95.9922" id="Transport" style="stroke: #A80036; stroke-width: 1.5;" width="335" x="545.75" y="40"/><rect fill="#FEFEEE" height="23.9688" style="stroke: #A80036; stroke-width: 1.5;" width="335" x="545.75" y="40"/><text fill="#000000" font-family="sans-serif" font-size="12" lengthAdjust="spacingAndGlyphs" textLength="61" x="682.75" y="56.1387">Transport</text><line style="stroke: #A80036; stroke-width: 1.5;" x1="546.75" x2="879.75" y1="63.9688" y2="63.9688"/><ellipse cx="556.75" cy="75.8711" fill="#84BE84" rx="3" ry="3" style="stroke: #038048; stroke-width: 1.0;"/><text fill="#000000" font-family="sans-serif" font-size="11" lengthAdjust="spacingAndGlyphs" textLength="72" x="565.75" y="78.1792">Identification</text><text fill="#000000" font-family="sans-serif" font-size="11" font-style="italic" lengthAdjust="spacingAndGlyphs" textLength="70" x="641.75" y="78.1792">(Max35Text)</text><ellipse cx="556.75" cy="88.6758" fill="#84BE84" rx="3" ry="3" style="stroke: #038048; stroke-width: 1.0;"/><text fill="#000000" font-family="sans-serif" font-size="11" lengthAdjust="spacingAndGlyphs" textLength="90" x="565.75" y="90.9839">ArrivalDateTime</text><text fill="#000000" font-family="sans-serif" font-size="11" font-style="italic" lengthAdjust="spacingAndGlyphs" textLength="81" x="659.75" y="90.9839">(ISODateTime)</text><ellipse cx="556.75" cy="101.4805" fill="#84BE84" rx="3" ry="3" style="stroke: #038048; stroke-width: 1.0;"/><text fill="#000000" font-family="sans-serif" font-size="11" lengthAdjust="spacingAndGlyphs" textLength="90" x="565.75" y="103.7886">PartialShipment</text><text fill="#000000" font-family="sans-serif" font-size="11" font-style="italic" lengthAdjust="spacingAndGlyphs" textLength="92" x="659.75" y="103.7886">(YesNoIndicator)</text><ellipse cx="556.75" cy="114.2852" fill="#84BE84" rx="3" ry="3" style="stroke: #038048; stroke-width: 1.0;"/><text fill="#000000" font-family="sans-serif" font-size="11" lengthAdjust="spacingAndGlyphs" textLength="87" x="565.75" y="116.5933">TransShipment</text><text fill="#000000" font-family="sans-serif" font-size="11" font-style="italic" lengthAdjust="spacingAndGlyphs" textLength="92" x="656.75" y="116.5933">(YesNoIndicator)</text><ellipse cx="556.75" cy="127.0898" fill="#84BE84" rx="3" ry="3" style="stroke: #038048; stroke-width: 1.0;"/><text fill="#000000" font-family="sans-serif" font-size="11" lengthAdjust="spacingAndGlyphs" textLength="182" x="565.75" y="129.3979">FreightChargesPrepaidOrCollect</text><text fill="#000000" font-family="sans-serif" font-size="11" font-style="italic" lengthAdjust="spacingAndGlyphs" textLength="123" x="751.75" y="129.3979">(FreightChargesCode)</text></a><!--class TransportByRoad--><a target="_top" xlink:actuate="onRequest" xlink:href="../TransportByRoad.html" xlink:show="new" xlink:title="Information related to the transportation of goods by road." xlink:type="simple"><rect fill="#FEFECE" filter="url(#f11vud1lr4zgj1)" height="23.9688" id="TransportByRoad" style="stroke: #A80036; stroke-width: 1.5;" width="113" x="766.75" y="214"/><rect fill="#FEFECE" height="23.9688" style="stroke: #A80036; stroke-width: 1.5;" width="113" x="766.75" y="214"/><text fill="#000000" font-family="sans-serif" font-size="12" lengthAdjust="spacingAndGlyphs" textLength="107" x="769.75" y="230.1387">TransportByRoad</text></a><!--class Incoterms--><a target="_top" xlink:actuate="onRequest" xlink:href="../Incoterms.html" xlink:show="new" xlink:title="International commerce terms are a series of international sales terms, published by International Chamber of Commerce (ICC) and widely used in international commercial transactions. These are accepted by governments, legal authorities and practitioners worldwide for the interpretation of most commonly used terms in international trade. Scope of this is limited to matters relating to rights and obligations of the parties to the contract of sale with respect to the delivery of goods sold. They are used to divide transaction costs and responsibilities between buyer and seller and reflect state-of-the-art transportation practices." xlink:type="simple"><rect fill="#EEEEEE" filter="url(#f11vud1lr4zgj1)" height="23.9688" id="Incoterms" style="stroke: #A80036; stroke-width: 1.5;" width="68" x="54" y="76"/><rect fill="#EEEEEE" height="23.9688" style="stroke: #A80036; stroke-width: 1.5;" width="68" x="54" y="76"/><text fill="#000000" font-family="sans-serif" font-size="12" lengthAdjust="spacingAndGlyphs" textLength="62" x="57" y="92.1387">Incoterms</text></a><!--class Packaging--><a target="_top" xlink:actuate="onRequest" xlink:href="../Packaging.html" xlink:show="new" xlink:title="Physical packaging of goods for transport." xlink:type="simple"><rect fill="#EEEEEE" filter="url(#f11vud1lr4zgj1)" height="23.9688" id="Packaging" style="stroke: #A80036; stroke-width: 1.5;" width="71" x="99.75" y="420"/><rect fill="#EEEEEE" height="23.9688" style="stroke: #A80036; stroke-width: 1.5;" width="71" x="99.75" y="420"/><text fill="#000000" font-family="sans-serif" font-size="12" lengthAdjust="spacingAndGlyphs" textLength="65" x="102.75" y="436.1387">Packaging</text></a><!--class ProductDelivery--><a target="_top" xlink:actuate="onRequest" xlink:href="../ProductDelivery.html" xlink:show="new" xlink:title="Arrangements for delivery of invoiced products and/or services." xlink:type="simple"><rect fill="#EEEEEE" filter="url(#f11vud1lr4zgj1)" height="23.9688" id="ProductDelivery" style="stroke: #A80036; stroke-width: 1.5;" width="103" x="123.75" y="318"/><rect fill="#EEEEEE" height="23.9688" style="stroke: #A80036; stroke-width: 1.5;" width="103" x="123.75" y="318"/><text fill="#000000" font-family="sans-serif" font-size="12" lengthAdjust="spacingAndGlyphs" textLength="97" x="126.75" y="334.1387">ProductDelivery</text></a><!--class Location--><a target="_top" xlink:actuate="onRequest" xlink:href="../Location.html" xlink:show="new" xlink:title="Specifies a place." xlink:type="simple"><rect fill="#EEEEEE" filter="url(#f11vud1lr4zgj1)" height="23.9688" id="Location" style="stroke: #A80036; stroke-width: 1.5;" width="59" x="158.75" y="214"/><rect fill="#EEEEEE" height="23.9688" style="stroke: #A80036; stroke-width: 1.5;" width="59" x="158.75" y="214"/><text fill="#000000" font-family="sans-serif" font-size="12" lengthAdjust="spacingAndGlyphs" textLength="53" x="161.75" y="230.1387">Location</text></a><!--class Charges--><a target="_top" xlink:actuate="onRequest" xlink:href="../Charges.html" xlink:show="new" xlink:title="Amount of money associated with a service." xlink:type="simple"><rect fill="#EEEEEE" filter="url(#f11vud1lr4zgj1)" height="23.9688" id="Charges" style="stroke: #A80036; stroke-width: 1.5;" width="58" x="235.5" y="678"/><rect fill="#EEEEEE" height="23.9688" style="stroke: #A80036; stroke-width: 1.5;" width="58" x="235.5" y="678"/><text fill="#000000" font-family="sans-serif" font-size="12" lengthAdjust="spacingAndGlyphs" textLength="52" x="238.5" y="694.1387">Charges</text></a><!--class ShipmentDateRange--><a target="_top" xlink:actuate="onRequest" xlink:href="../ShipmentDateRange.html" xlink:show="new" xlink:title="Specifies a shipment period or a shipment date." xlink:type="simple"><rect fill="#EEEEEE" filter="url(#f11vud1lr4zgj1)" height="23.9688" id="ShipmentDateRange" style="stroke: #A80036; stroke-width: 1.5;" width="135" x="196.75" y="592"/><rect fill="#EEEEEE" height="23.9688" style="stroke: #A80036; stroke-width: 1.5;" width="135" x="196.75" y="592"/><text fill="#000000" font-family="sans-serif" font-size="12" lengthAdjust="spacingAndGlyphs" textLength="129" x="199.75" y="608.1387">ShipmentDateRange</text></a><!--class Goods--><a target="_top" xlink:actuate="onRequest" xlink:href="../Goods.html" xlink:show="new" xlink:title="Good is a physical product that can be delivered to a purchaser and that involves the transfer of ownership from seller to customer." xlink:type="simple"><rect fill="#EEEEEE" filter="url(#f11vud1lr4zgj1)" height="23.9688" id="Goods" style="stroke: #A80036; stroke-width: 1.5;" width="46" x="246" y="506"/><rect fill="#EEEEEE" height="23.9688" style="stroke: #A80036; stroke-width: 1.5;" width="46" x="246" y="506"/><text fill="#000000" font-family="sans-serif" font-size="12" lengthAdjust="spacingAndGlyphs" textLength="40" x="249" y="522.1387">Goods</text></a><!--class TransportPartyRole--><a target="_top" xlink:actuate="onRequest" xlink:href="../TransportPartyRole.html" xlink:show="new" xlink:title="Role played by a party in the context of transporting goods." xlink:type="simple"><rect fill="#EEEEEE" filter="url(#f11vud1lr4zgj1)" height="23.9688" id="TransportPartyRole" style="stroke: #A80036; stroke-width: 1.5;" width="126" x="206" y="420"/><rect fill="#EEEEEE" height="23.9688" style="stroke: #A80036; stroke-width: 1.5;" width="126" x="206" y="420"/><text fill="#000000" font-family="sans-serif" font-size="12" lengthAdjust="spacingAndGlyphs" textLength="120" x="209" y="436.1387">TransportPartyRole</text></a><!--class Document--><a target="_top" xlink:actuate="onRequest" xlink:href="../Document.html" xlink:show="new" xlink:title="General information that unambiguously identifies a document, such as identification number and issue date time." xlink:type="simple"><rect fill="#EEEEEE" filter="url(#f11vud1lr4zgj1)" height="23.9688" id="Document" style="stroke: #A80036; stroke-width: 1.5;" width="70" x="262" y="318"/><rect fill="#EEEEEE" height="23.9688" style="stroke: #A80036; stroke-width: 1.5;" width="70" x="262" y="318"/><text fill="#000000" font-family="sans-serif" font-size="12" lengthAdjust="spacingAndGlyphs" textLength="64" x="265" y="334.1387">Document</text></a><!--entity ##18577--><!--link Transport to TransportByRoad--><path d="M763.85,151.869 C782.961,175.497 802.745,199.957 813.9,213.749 " fill="none" id="Transport-TransportByRoad" style="stroke: #A80036; stroke-width: 1.0;"/><polygon fill="none" points="758.299,156.137,751.164,136.185,769.184,147.333,758.299,156.137" style="stroke: #A80036; stroke-width: 1.0;"/><!--link Packaging to Incoterms--><!--link ProductDelivery to Packaging--><!--link Location to ProductDelivery--><!--link Charges to Location--><!--link ShipmentDateRange to Charges--><!--link Goods to ShipmentDateRange--><!--link TransportPartyRole to Goods--><!--link Document to TransportPartyRole--><!--link Transport to Incoterms--><path d="M545.445,88 C403.153,88 209.358,88 127.289,88 " fill="none" id="Transport-Incoterms" style="stroke: #A80036; stroke-width: 1.0;"/><polygon fill="#A80036" points="122.047,88,131.047,92,127.047,88,131.047,84,122.047,88" style="stroke: #A80036; stroke-width: 1.0;"/><text fill="#000000" font-family="sans-serif" font-size="13" lengthAdjust="spacingAndGlyphs" textLength="64" x="301.25" y="80.0669">Incoterms</text><text fill="#000000" font-family="sans-serif" font-size="13" lengthAdjust="spacingAndGlyphs" textLength="8" x="129.8942" y="82.3307">1</text><!--link Transport to Packaging--><path d="M719.934,136.338 C722.779,174.578 720.1,227.528 691,262 C656.498,302.87 297.639,391.995 175.467,421.385 " fill="none" id="Transport-Packaging" style="stroke: #A80036; stroke-width: 1.0;"/><polygon fill="#A80036" points="170.524,422.573,180.2096,424.3587,175.3855,421.4044,178.3399,416.5803,170.524,422.573" style="stroke: #A80036; stroke-width: 1.0;"/><text fill="#000000" font-family="sans-serif" font-size="13" lengthAdjust="spacingAndGlyphs" textLength="65" x="682" y="283.0669">Packaging</text><text fill="#000000" font-family="sans-serif" font-size="13" lengthAdjust="spacingAndGlyphs" textLength="8" x="178.6243" y="414.9594">1</text><!--link Transport to ProductDelivery--><path d="M673.501,136.066 C655.711,154.085 633.256,172.948 609,184 C556.074,208.116 393.546,176.605 349,214 C322.721,236.061 351.569,264.049 327,288 C313.233,301.42 268.693,312.472 231.36,319.706 " fill="none" id="Transport-ProductDelivery" style="stroke: #A80036; stroke-width: 1.0;"/><polygon fill="#A80036" points="226.379,320.657,235.9692,322.8993,231.2904,319.7199,234.4698,315.041,226.379,320.657" style="stroke: #A80036; stroke-width: 1.0;"/><text fill="#000000" font-family="sans-serif" font-size="13" lengthAdjust="spacingAndGlyphs" textLength="100" x="350" y="230.0669">ProductDelivery</text><text fill="#000000" font-family="sans-serif" font-size="13" lengthAdjust="spacingAndGlyphs" textLength="24" x="229.9265" y="312.354">0..1</text><!--link Transport to Location--><path d="M567.046,136.034 C540.832,145.368 513.931,155.536 489,166 C472.505,172.923 470.044,178.567 453,184 C410.72,197.477 284.452,213.619 222.733,220.983 " fill="none" id="Transport-Location" style="stroke: #A80036; stroke-width: 1.0;"/><polygon fill="#A80036" points="217.684,221.582,227.0932,224.4919,222.6491,220.9919,226.149,216.5478,217.684,221.582" style="stroke: #A80036; stroke-width: 1.0;"/><text fill="#000000" font-family="sans-serif" font-size="13" lengthAdjust="spacingAndGlyphs" textLength="113" x="490" y="179.0669">PlaceOfDeparture</text><text fill="#000000" font-family="sans-serif" font-size="13" lengthAdjust="spacingAndGlyphs" textLength="8" x="225.8335" y="214.5201">1</text><!--link Transport to Location--><path d="M545.625,110.788 C393.243,131.02 191.021,159.037 185,166 C174.932,177.643 177.699,195.912 181.713,209.036 " fill="none" id="Transport-Location" style="stroke: #A80036; stroke-width: 1.0;"/><polygon fill="#A80036" points="183.351,213.964,184.3085,204.1618,181.7741,209.2192,176.7168,206.6848,183.351,213.964" style="stroke: #A80036; stroke-width: 1.0;"/><text fill="#000000" font-family="sans-serif" font-size="13" lengthAdjust="spacingAndGlyphs" textLength="121" x="186" y="179.0669">PlaceOfDestination</text><text fill="#000000" font-family="sans-serif" font-size="13" lengthAdjust="spacingAndGlyphs" textLength="8" x="170.9482" y="202.9998">1</text><!--link Transport to Location--><path d="M545.526,112.869 C481.547,124.863 408.701,142.072 345,166 C329.724,171.738 327.935,177.426 313,184 C283.213,197.112 247.856,208.331 222.36,215.701 " fill="none" id="Transport-Location" style="stroke: #A80036; stroke-width: 1.0;"/><polygon fill="#A80036" points="217.396,217.123,227.1496,218.4897,222.2026,215.746,224.9464,210.7991,217.396,217.123" style="stroke: #A80036; stroke-width: 1.0;"/><text fill="#000000" font-family="sans-serif" font-size="13" lengthAdjust="spacingAndGlyphs" textLength="97" x="346" y="179.0669">TransitLocation</text><text fill="#000000" font-family="sans-serif" font-size="13" lengthAdjust="spacingAndGlyphs" textLength="7" x="223.8755" y="203.0291">*</text><!--link Transport to Charges--><path d="M880.381,95.181 C1055.13,106.325 1304,137.547 1304,225 C1304,225 1304,225 1304,605 C1304,656.7103 476.359,683.009 297.723,688.083 " fill="none" id="Transport-Charges" style="stroke: #A80036; stroke-width: 1.0;"/><polygon fill="#A80036" points="292.628,688.2269,301.7375,691.9707,297.626,688.0855,301.5113,683.9739,292.628,688.2269" style="stroke: #A80036; stroke-width: 1.0;"/><text fill="#000000" font-family="sans-serif" font-size="13" lengthAdjust="spacingAndGlyphs" textLength="114" x="1305" y="436.0669">TransportCharges</text><text fill="#000000" font-family="sans-serif" font-size="13" lengthAdjust="spacingAndGlyphs" textLength="7" x="301.5234" y="681.4276">*</text><!--link Transport to ShipmentDateRange--><path d="M880.547,106.403 C1013.8,125.057 1178,161.023 1178,225 C1178,225 1178,225 1178,519 C1178,561.169 552.912,591.04 336.613,600.114 " fill="none" id="Transport-ShipmentDateRange" style="stroke: #A80036; stroke-width: 1.0;"/><polygon fill="#A80036" points="331.58,600.324,340.7401,603.9425,336.5756,600.114,340.4041,595.9495,331.58,600.324" style="stroke: #A80036; stroke-width: 1.0;"/><text fill="#000000" font-family="sans-serif" font-size="13" lengthAdjust="spacingAndGlyphs" textLength="100" x="1179" y="385.0669">ShipmentDates</text><text fill="#000000" font-family="sans-serif" font-size="13" lengthAdjust="spacingAndGlyphs" textLength="8" x="339.8275" y="594.9925">1</text><!--link Transport to Goods--><path d="M880.59,108.96 C945.277,126.911 1004,160.869 1004,225 C1004,225 1004,225 1004,433 C1004,505.444 433.084,515.44 297.592,516.793 " fill="none" id="Transport-Goods" style="stroke: #A80036; stroke-width: 1.0;"/><polygon fill="#A80036" points="292.211,516.844,301.2494,520.7564,297.2108,516.7954,301.1717,512.7568,292.211,516.844" style="stroke: #A80036; stroke-width: 1.0;"/><text fill="#000000" font-family="sans-serif" font-size="13" lengthAdjust="spacingAndGlyphs" textLength="118" x="1005" y="334.0669">TransportedGoods</text><text fill="#000000" font-family="sans-serif" font-size="13" lengthAdjust="spacingAndGlyphs" textLength="23" x="299.804" y="510.8166">1..*</text><!--link Transport to TransportPartyRole--><path d="M820.076,136.162 C872.812,166.85 920.384,210.66 896,262 C857.376,343.323 822.422,356.147 739,390 C668.025,418.802 449.889,427.403 337.505,429.947 " fill="none" id="Transport-TransportPartyRole" style="stroke: #A80036; stroke-width: 1.0;"/><polygon fill="#A80036" points="332.234,430.064,341.3198,433.865,337.2328,429.954,341.1438,425.867,332.234,430.064" style="stroke: #A80036; stroke-width: 1.0;"/><text fill="#000000" font-family="sans-serif" font-size="13" lengthAdjust="spacingAndGlyphs" textLength="60" x="893" y="283.0669">PartyRole</text><text fill="#000000" font-family="sans-serif" font-size="13" lengthAdjust="spacingAndGlyphs" textLength="24" x="339.9925" y="425.0631">0..1</text><!--link Transport to Document--><path d="M690.537,136.265 C680.305,153.438 666.705,171.641 650,184 C612.356,211.851 592.281,196.125 549,214 C507.462,231.156 500.617,242.764 460,262 C416.382,282.657 364.629,303.296 331.328,316.096 " fill="none" id="Transport-Document" style="stroke: #A80036; stroke-width: 1.0;"/><polygon fill="#A80036" points="326.552,317.926,336.3875,318.4389,331.2206,316.136,333.5235,310.9691,326.552,317.926" style="stroke: #A80036; stroke-width: 1.0;"/><text fill="#000000" font-family="sans-serif" font-size="13" lengthAdjust="spacingAndGlyphs" textLength="135" x="550" y="230.0669">TransportDocuments</text><text fill="#000000" font-family="sans-serif" font-size="13" lengthAdjust="spacingAndGlyphs" textLength="8" x="325.9918" y="306.9488">1</text><!--link Incoterms to Location--><path d="M84.3438,100.097 C78.8238,119.086 70.7271,158.25 88,184 C102.4793,205.586 130.569,215.816 153.299,220.659 " fill="none" id="Incoterms-Location" style="stroke: #A80036; stroke-width: 1.0;"/><polygon fill="#A80036" points="158.357,221.668,150.3137,215.9842,153.4537,220.6896,148.7483,223.8296,158.357,221.668" style="stroke: #A80036; stroke-width: 1.0;"/><text fill="#000000" font-family="sans-serif" font-size="13" lengthAdjust="spacingAndGlyphs" textLength="54" x="89" y="179.0669">Location</text><text fill="#000000" font-family="sans-serif" font-size="13" lengthAdjust="spacingAndGlyphs" textLength="8" x="142.7055" y="215.3044">1</text><!--link Location to Document--><path d="M200.081,238.306 C219.91,256.861 259.344,293.762 281.307,314.315 " fill="none" id="Location-Document" style="stroke: #A80036; stroke-width: 1.0;"/><polygon fill="#A80036" points="285.196,317.954,281.3597,308.883,281.546,314.5368,275.8922,314.7231,285.196,317.954" style="stroke: #A80036; stroke-width: 1.0;"/><text fill="#000000" font-family="sans-serif" font-size="13" lengthAdjust="spacingAndGlyphs" textLength="108" x="254" y="283.0669">IssuedDocument</text><text fill="#000000" font-family="sans-serif" font-size="13" lengthAdjust="spacingAndGlyphs" textLength="7" x="271.5915" y="306.9864">*</text></g></svg>