<?xml version="1.0" encoding="UTF-8" standalone="no"?><svg xmlns="http://www.w3.org/2000/svg" xmlns:xlink="http://www.w3.org/1999/xlink" contentScriptType="application/ecmascript" contentStyleType="text/css" height="734px" preserveAspectRatio="none" style="width:1539px;height:734px;" version="1.1" viewBox="0 0 1539 734" width="1539px" zoomAndPan="magnify"><defs><filter height="300%" id="flhhvzkwgcyw8" width="300%" x="-1" y="-1"><feGaussianBlur result="blurOut" stdDeviation="2.0"/><feColorMatrix in="blurOut" result="blurOut2" type="matrix" values="0 0 0 0 0 0 0 0 0 0 0 0 0 0 0 0 0 0 .4 0"/><feOffset dx="4.0" dy="4.0" in="blurOut2" result="blurOut3"/><feBlend in="SourceGraphic" in2="blurOut3" mode="normal"/></filter></defs><g><!--cluster ##18576--><!--cluster ##18582--><!--class Transport--><a target="_top" xlink:actuate="onRequest" xlink:href="../Transport.html" xlink:show="new" xlink:title="Moving of goods or people from one place to another by vehicle." xlink:type="simple"><rect fill="#FEFEEE" filter="url(#flhhvzkwgcyw8)" height="95.9922" id="Transport" style="stroke: #A80036; stroke-width: 1.5;" width="335" x="651.75" y="40"/><rect fill="#FEFEEE" height="23.9688" style="stroke: #A80036; stroke-width: 1.5;" width="335" x="651.75" y="40"/><text fill="#000000" font-family="sans-serif" font-size="12" lengthAdjust="spacingAndGlyphs" textLength="61" x="788.75" y="56.1387">Transport</text><line style="stroke: #A80036; stroke-width: 1.5;" x1="652.75" x2="985.75" y1="63.9688" y2="63.9688"/><ellipse cx="662.75" cy="75.8711" fill="#84BE84" rx="3" ry="3" style="stroke: #038048; stroke-width: 1.0;"/><text fill="#000000" font-family="sans-serif" font-size="11" lengthAdjust="spacingAndGlyphs" textLength="72" x="671.75" y="78.1792">Identification</text><text fill="#000000" font-family="sans-serif" font-size="11" font-style="italic" lengthAdjust="spacingAndGlyphs" textLength="70" x="747.75" y="78.1792">(Max35Text)</text><ellipse cx="662.75" cy="88.6758" fill="#84BE84" rx="3" ry="3" style="stroke: #038048; stroke-width: 1.0;"/><text fill="#000000" font-family="sans-serif" font-size="11" lengthAdjust="spacingAndGlyphs" textLength="90" x="671.75" y="90.9839">ArrivalDateTime</text><text fill="#000000" font-family="sans-serif" font-size="11" font-style="italic" lengthAdjust="spacingAndGlyphs" textLength="81" x="765.75" y="90.9839">(ISODateTime)</text><ellipse cx="662.75" cy="101.4805" fill="#84BE84" rx="3" ry="3" style="stroke: #038048; stroke-width: 1.0;"/><text fill="#000000" font-family="sans-serif" font-size="11" lengthAdjust="spacingAndGlyphs" textLength="90" x="671.75" y="103.7886">PartialShipment</text><text fill="#000000" font-family="sans-serif" font-size="11" font-style="italic" lengthAdjust="spacingAndGlyphs" textLength="92" x="765.75" y="103.7886">(YesNoIndicator)</text><ellipse cx="662.75" cy="114.2852" fill="#84BE84" rx="3" ry="3" style="stroke: #038048; stroke-width: 1.0;"/><text fill="#000000" font-family="sans-serif" font-size="11" lengthAdjust="spacingAndGlyphs" textLength="87" x="671.75" y="116.5933">TransShipment</text><text fill="#000000" font-family="sans-serif" font-size="11" font-style="italic" lengthAdjust="spacingAndGlyphs" textLength="92" x="762.75" y="116.5933">(YesNoIndicator)</text><ellipse cx="662.75" cy="127.0898" fill="#84BE84" rx="3" ry="3" style="stroke: #038048; stroke-width: 1.0;"/><text fill="#000000" font-family="sans-serif" font-size="11" lengthAdjust="spacingAndGlyphs" textLength="182" x="671.75" y="129.3979">FreightChargesPrepaidOrCollect</text><text fill="#000000" font-family="sans-serif" font-size="11" font-style="italic" lengthAdjust="spacingAndGlyphs" textLength="123" x="857.75" y="129.3979">(FreightChargesCode)</text></a><!--class TransportByRail--><a target="_top" xlink:actuate="onRequest" xlink:href="../TransportByRail.html" xlink:show="new" xlink:title="Information related to the transportation of goods by rail." xlink:type="simple"><rect fill="#FEFECE" filter="url(#flhhvzkwgcyw8)" height="44.7734" id="TransportByRail" style="stroke: #A80036; stroke-width: 1.5;" width="221" x="766.75" y="214.5"/><rect fill="#FEFECE" height="23.9688" style="stroke: #A80036; stroke-width: 1.5;" width="221" x="766.75" y="214.5"/><text fill="#000000" font-family="sans-serif" font-size="12" lengthAdjust="spacingAndGlyphs" textLength="97" x="828.75" y="230.6387">TransportByRail</text><line style="stroke: #A80036; stroke-width: 1.5;" x1="767.75" x2="986.75" y1="238.4688" y2="238.4688"/><ellipse cx="777.75" cy="250.3711" fill="#84BE84" rx="3" ry="3" style="stroke: #038048; stroke-width: 1.0;"/><text fill="#000000" font-family="sans-serif" font-size="11" lengthAdjust="spacingAndGlyphs" textLength="121" x="786.75" y="252.6792">CarriageIdentification</text><text fill="#000000" font-family="sans-serif" font-size="11" font-style="italic" lengthAdjust="spacingAndGlyphs" textLength="70" x="911.75" y="252.6792">(Max35Text)</text></a><!--class Incoterms--><a target="_top" xlink:actuate="onRequest" xlink:href="../Incoterms.html" xlink:show="new" xlink:title="International commerce terms are a series of international sales terms, published by International Chamber of Commerce (ICC) and widely used in international commercial transactions. These are accepted by governments, legal authorities and practitioners worldwide for the interpretation of most commonly used terms in international trade. Scope of this is limited to matters relating to rights and obligations of the parties to the contract of sale with respect to the delivery of goods sold. They are used to divide transaction costs and responsibilities between buyer and seller and reflect state-of-the-art transportation practices." xlink:type="simple"><rect fill="#EEEEEE" filter="url(#flhhvzkwgcyw8)" height="23.9688" id="Incoterms" style="stroke: #A80036; stroke-width: 1.5;" width="68" x="54" y="76"/><rect fill="#EEEEEE" height="23.9688" style="stroke: #A80036; stroke-width: 1.5;" width="68" x="54" y="76"/><text fill="#000000" font-family="sans-serif" font-size="12" lengthAdjust="spacingAndGlyphs" textLength="62" x="57" y="92.1387">Incoterms</text></a><!--class Packaging--><a target="_top" xlink:actuate="onRequest" xlink:href="../Packaging.html" xlink:show="new" xlink:title="Physical packaging of goods for transport." xlink:type="simple"><rect fill="#EEEEEE" filter="url(#flhhvzkwgcyw8)" height="23.9688" id="Packaging" style="stroke: #A80036; stroke-width: 1.5;" width="71" x="99.75" y="442"/><rect fill="#EEEEEE" height="23.9688" style="stroke: #A80036; stroke-width: 1.5;" width="71" x="99.75" y="442"/><text fill="#000000" font-family="sans-serif" font-size="12" lengthAdjust="spacingAndGlyphs" textLength="65" x="102.75" y="458.1387">Packaging</text></a><!--class ProductDelivery--><a target="_top" xlink:actuate="onRequest" xlink:href="../ProductDelivery.html" xlink:show="new" xlink:title="Arrangements for delivery of invoiced products and/or services." xlink:type="simple"><rect fill="#EEEEEE" filter="url(#flhhvzkwgcyw8)" height="23.9688" id="ProductDelivery" style="stroke: #A80036; stroke-width: 1.5;" width="103" x="123.75" y="340"/><rect fill="#EEEEEE" height="23.9688" style="stroke: #A80036; stroke-width: 1.5;" width="103" x="123.75" y="340"/><text fill="#000000" font-family="sans-serif" font-size="12" lengthAdjust="spacingAndGlyphs" textLength="97" x="126.75" y="356.1387">ProductDelivery</text></a><!--class Location--><a target="_top" xlink:actuate="onRequest" xlink:href="../Location.html" xlink:show="new" xlink:title="Specifies a place." xlink:type="simple"><rect fill="#EEEEEE" filter="url(#flhhvzkwgcyw8)" height="23.9688" id="Location" style="stroke: #A80036; stroke-width: 1.5;" width="59" x="158.75" y="225"/><rect fill="#EEEEEE" height="23.9688" style="stroke: #A80036; stroke-width: 1.5;" width="59" x="158.75" y="225"/><text fill="#000000" font-family="sans-serif" font-size="12" lengthAdjust="spacingAndGlyphs" textLength="53" x="161.75" y="241.1387">Location</text></a><!--class Charges--><a target="_top" xlink:actuate="onRequest" xlink:href="../Charges.html" xlink:show="new" xlink:title="Amount of money associated with a service." xlink:type="simple"><rect fill="#EEEEEE" filter="url(#flhhvzkwgcyw8)" height="23.9688" id="Charges" style="stroke: #A80036; stroke-width: 1.5;" width="58" x="235.5" y="700"/><rect fill="#EEEEEE" height="23.9688" style="stroke: #A80036; stroke-width: 1.5;" width="58" x="235.5" y="700"/><text fill="#000000" font-family="sans-serif" font-size="12" lengthAdjust="spacingAndGlyphs" textLength="52" x="238.5" y="716.1387">Charges</text></a><!--class ShipmentDateRange--><a target="_top" xlink:actuate="onRequest" xlink:href="../ShipmentDateRange.html" xlink:show="new" xlink:title="Specifies a shipment period or a shipment date." xlink:type="simple"><rect fill="#EEEEEE" filter="url(#flhhvzkwgcyw8)" height="23.9688" id="ShipmentDateRange" style="stroke: #A80036; stroke-width: 1.5;" width="135" x="196.75" y="614"/><rect fill="#EEEEEE" height="23.9688" style="stroke: #A80036; stroke-width: 1.5;" width="135" x="196.75" y="614"/><text fill="#000000" font-family="sans-serif" font-size="12" lengthAdjust="spacingAndGlyphs" textLength="129" x="199.75" y="630.1387">ShipmentDateRange</text></a><!--class Goods--><a target="_top" xlink:actuate="onRequest" xlink:href="../Goods.html" xlink:show="new" xlink:title="Good is a physical product that can be delivered to a purchaser and that involves the transfer of ownership from seller to customer." xlink:type="simple"><rect fill="#EEEEEE" filter="url(#flhhvzkwgcyw8)" height="23.9688" id="Goods" style="stroke: #A80036; stroke-width: 1.5;" width="46" x="246" y="528"/><rect fill="#EEEEEE" height="23.9688" style="stroke: #A80036; stroke-width: 1.5;" width="46" x="246" y="528"/><text fill="#000000" font-family="sans-serif" font-size="12" lengthAdjust="spacingAndGlyphs" textLength="40" x="249" y="544.1387">Goods</text></a><!--class TransportPartyRole--><a target="_top" xlink:actuate="onRequest" xlink:href="../TransportPartyRole.html" xlink:show="new" xlink:title="Role played by a party in the context of transporting goods." xlink:type="simple"><rect fill="#EEEEEE" filter="url(#flhhvzkwgcyw8)" height="23.9688" id="TransportPartyRole" style="stroke: #A80036; stroke-width: 1.5;" width="126" x="206" y="442"/><rect fill="#EEEEEE" height="23.9688" style="stroke: #A80036; stroke-width: 1.5;" width="126" x="206" y="442"/><text fill="#000000" font-family="sans-serif" font-size="12" lengthAdjust="spacingAndGlyphs" textLength="120" x="209" y="458.1387">TransportPartyRole</text></a><!--class Document--><a target="_top" xlink:actuate="onRequest" xlink:href="../Document.html" xlink:show="new" xlink:title="General information that unambiguously identifies a document, such as identification number and issue date time." xlink:type="simple"><rect fill="#EEEEEE" filter="url(#flhhvzkwgcyw8)" height="23.9688" id="Document" style="stroke: #A80036; stroke-width: 1.5;" width="70" x="262" y="340"/><rect fill="#EEEEEE" height="23.9688" style="stroke: #A80036; stroke-width: 1.5;" width="70" x="262" y="340"/><text fill="#000000" font-family="sans-serif" font-size="12" lengthAdjust="spacingAndGlyphs" textLength="64" x="265" y="356.1387">Document</text></a><!--entity ##18601--><!--link Transport to TransportByRail--><path d="M845.058,155.044 C853.466,176.353 862.206,198.506 868.415,214.24 " fill="none" id="Transport-TransportByRail" style="stroke: #A80036; stroke-width: 1.0;"/><polygon fill="none" points="838.5,157.494,837.671,136.321,851.523,152.356,838.5,157.494" style="stroke: #A80036; stroke-width: 1.0;"/><!--link Packaging to Incoterms--><!--link ProductDelivery to Packaging--><!--link Location to ProductDelivery--><!--link Charges to Location--><!--link ShipmentDateRange to Charges--><!--link Goods to ShipmentDateRange--><!--link TransportPartyRole to Goods--><!--link Document to TransportPartyRole--><!--link Transport to Incoterms--><path d="M651.596,88 C479.814,88 224.382,88 127.333,88 " fill="none" id="Transport-Incoterms" style="stroke: #A80036; stroke-width: 1.0;"/><polygon fill="#A80036" points="122.277,88,131.277,92,127.277,88,131.277,84,122.277,88" style="stroke: #A80036; stroke-width: 1.0;"/><text fill="#000000" font-family="sans-serif" font-size="13" lengthAdjust="spacingAndGlyphs" textLength="64" x="354.25" y="80.0669">Incoterms</text><text fill="#000000" font-family="sans-serif" font-size="13" lengthAdjust="spacingAndGlyphs" textLength="8" x="130.1716" y="82.3307">1</text><!--link Transport to Packaging--><path d="M792.901,136.43 C764.017,187.389 717.991,263.799 691,284 C606.438,347.29 288.247,420.107 175.177,444.526 " fill="none" id="Transport-Packaging" style="stroke: #A80036; stroke-width: 1.0;"/><polygon fill="#A80036" points="170.271,445.583,179.9114,447.5984,175.1589,444.5303,178.2271,439.7778,170.271,445.583" style="stroke: #A80036; stroke-width: 1.0;"/><text fill="#000000" font-family="sans-serif" font-size="13" lengthAdjust="spacingAndGlyphs" textLength="65" x="679" y="305.0669">Packaging</text><text fill="#000000" font-family="sans-serif" font-size="13" lengthAdjust="spacingAndGlyphs" textLength="8" x="178.8068" y="437.9672">1</text><!--link Transport to ProductDelivery--><path d="M718.616,136.088 C670.599,158.301 620.956,180.693 609,184 C552.944,199.505 392.332,175.206 349,214 C316.387,243.197 357.355,278.463 327,310 C313.667,323.852 269.084,334.861 231.625,341.969 " fill="none" id="Transport-ProductDelivery" style="stroke: #A80036; stroke-width: 1.0;"/><polygon fill="#A80036" points="226.626,342.903,236.2076,345.1818,231.5409,341.9846,234.7381,337.3179,226.626,342.903" style="stroke: #A80036; stroke-width: 1.0;"/><text fill="#000000" font-family="sans-serif" font-size="13" lengthAdjust="spacingAndGlyphs" textLength="100" x="350" y="241.0669">ProductDelivery</text><text fill="#000000" font-family="sans-serif" font-size="13" lengthAdjust="spacingAndGlyphs" textLength="24" x="229.9562" y="334.8425">0..1</text><!--link Transport to Location--><path d="M651.447,120.111 C598.704,132.017 540.739,147.322 489,166 C472.174,172.074 469.931,178.225 453,184 C442.107,187.715 291.98,216.331 222.648,229.458 " fill="none" id="Transport-Location" style="stroke: #A80036; stroke-width: 1.0;"/><polygon fill="#A80036" points="217.398,230.451,226.9849,232.7072,222.3108,229.521,225.497,224.8468,217.398,230.451" style="stroke: #A80036; stroke-width: 1.0;"/><text fill="#000000" font-family="sans-serif" font-size="13" lengthAdjust="spacingAndGlyphs" textLength="113" x="490" y="179.0669">PlaceOfDeparture</text><text fill="#000000" font-family="sans-serif" font-size="13" lengthAdjust="spacingAndGlyphs" textLength="8" x="225.8922" y="222.6826">1</text><!--link Transport to Location--><path d="M651.379,106.641 C466.175,126.53 192.76,157.24 185,166 C172.101,180.561 176.488,204.247 181.599,219.974 " fill="none" id="Transport-Location" style="stroke: #A80036; stroke-width: 1.0;"/><polygon fill="#A80036" points="183.336,224.978,184.1624,215.1639,181.6958,220.2547,176.605,217.7881,183.336,224.978" style="stroke: #A80036; stroke-width: 1.0;"/><text fill="#000000" font-family="sans-serif" font-size="13" lengthAdjust="spacingAndGlyphs" textLength="121" x="186" y="179.0669">PlaceOfDestination</text><text fill="#000000" font-family="sans-serif" font-size="13" lengthAdjust="spacingAndGlyphs" textLength="8" x="170.9281" y="214.0187">1</text><!--link Transport to Location--><path d="M651.492,101.742 C559.138,112.327 443.558,131.5 345,166 C329.598,171.391 327.67,176.854 313,184 C282.889,198.668 247.569,213.119 222.169,223.049 " fill="none" id="Transport-Location" style="stroke: #A80036; stroke-width: 1.0;"/><polygon fill="#A80036" points="217.226,224.973,227.0641,225.4342,221.8851,223.1585,224.1608,217.9796,217.226,224.973" style="stroke: #A80036; stroke-width: 1.0;"/><text fill="#000000" font-family="sans-serif" font-size="13" lengthAdjust="spacingAndGlyphs" textLength="97" x="346" y="179.0669">TransitLocation</text><text fill="#000000" font-family="sans-serif" font-size="13" lengthAdjust="spacingAndGlyphs" textLength="7" x="217.6396" y="214.0119">*</text><!--link Transport to Charges--><path d="M986.552,98.024 C1161.91,112.183 1412,147.831 1412,236 C1412,236 1412,236 1412,627 C1412,684.3845 487.57,706.4213 297.801,710.3405 " fill="none" id="Transport-Charges" style="stroke: #A80036; stroke-width: 1.0;"/><polygon fill="#A80036" points="292.664,710.4458,301.7444,714.2598,297.6629,710.3429,301.5798,706.2615,292.664,710.4458" style="stroke: #A80036; stroke-width: 1.0;"/><text fill="#000000" font-family="sans-serif" font-size="13" lengthAdjust="spacingAndGlyphs" textLength="114" x="1413" y="458.0669">TransportCharges</text><text fill="#000000" font-family="sans-serif" font-size="13" lengthAdjust="spacingAndGlyphs" textLength="7" x="301.5695" y="703.708">*</text><!--link Transport to ShipmentDateRange--><path d="M986.279,109.874 C1120.28,131.429 1286,171.189 1286,236 C1286,236 1286,236 1286,541 C1286,588.688 569.872,615.398 336.537,622.835 " fill="none" id="Transport-ShipmentDateRange" style="stroke: #A80036; stroke-width: 1.0;"/><polygon fill="#A80036" points="331.452,622.997,340.5754,626.7069,336.4494,622.837,340.3194,618.711,331.452,622.997" style="stroke: #A80036; stroke-width: 1.0;"/><text fill="#000000" font-family="sans-serif" font-size="13" lengthAdjust="spacingAndGlyphs" textLength="100" x="1287" y="407.0669">ShipmentDates</text><text fill="#000000" font-family="sans-serif" font-size="13" lengthAdjust="spacingAndGlyphs" textLength="8" x="339.6847" y="617.7433">1</text><!--link Transport to Goods--><path d="M986.467,113.704 C1052.1,133.769 1112,170.125 1112,236 C1112,236 1112,236 1112,455 C1112,538.761 444.501,539.967 297.437,539.216 " fill="none" id="Transport-Goods" style="stroke: #A80036; stroke-width: 1.0;"/><polygon fill="#A80036" points="292.426,539.188,301.4042,543.2368,297.4259,539.2151,301.4476,535.2369,292.426,539.188" style="stroke: #A80036; stroke-width: 1.0;"/><text fill="#000000" font-family="sans-serif" font-size="13" lengthAdjust="spacingAndGlyphs" textLength="118" x="1113" y="356.0669">TransportedGoods</text><text fill="#000000" font-family="sans-serif" font-size="13" lengthAdjust="spacingAndGlyphs" textLength="23" x="300.0661" y="533.2358">1..*</text><!--link Transport to TransportPartyRole--><path d="M925.494,136.241 C956.48,155.612 986.634,181.308 1004,214 C1018.59,241.475 1020.54,257.648 1004,284 C934.477,394.79 865.111,377.302 739,412 C665.246,432.292 448.909,444.8 337.319,450.079 " fill="none" id="Transport-TransportPartyRole" style="stroke: #A80036; stroke-width: 1.0;"/><polygon fill="#A80036" points="332.085,450.325,341.2636,453.8963,337.0794,450.0893,340.8864,445.9051,332.085,450.325" style="stroke: #A80036; stroke-width: 1.0;"/><text fill="#000000" font-family="sans-serif" font-size="13" lengthAdjust="spacingAndGlyphs" textLength="60" x="999" y="305.0669">PartyRole</text><text fill="#000000" font-family="sans-serif" font-size="13" lengthAdjust="spacingAndGlyphs" textLength="24" x="339.8281" y="445.1448">0..1</text><!--link Transport to Document--><path d="M743.851,136.002 C715.193,152.643 681.771,170.552 650,184 C606.877,202.253 590.587,192.476 549,214 C504.307,237.131 503.465,258.636 460,284 C419.953,307.369 370.198,326.55 336.263,338.311 " fill="none" id="Transport-Document" style="stroke: #A80036; stroke-width: 1.0;"/><polygon fill="#A80036" points="331.374,339.992,341.1856,340.8476,336.1022,338.3659,338.5839,333.2825,331.374,339.992" style="stroke: #A80036; stroke-width: 1.0;"/><text fill="#000000" font-family="sans-serif" font-size="13" lengthAdjust="spacingAndGlyphs" textLength="135" x="550" y="241.0669">TransportDocuments</text><text fill="#000000" font-family="sans-serif" font-size="13" lengthAdjust="spacingAndGlyphs" textLength="8" x="332.4713" y="329.0375">1</text><!--link Incoterms to Location--><path d="M84.5117,100.238 C79.3718,119.098 71.9941,157.636 88,184 C102.2211,207.424 130.807,220.781 153.787,228.076 " fill="none" id="Incoterms-Location" style="stroke: #A80036; stroke-width: 1.0;"/><polygon fill="#A80036" points="158.599,229.542,151.1554,223.0927,153.816,228.0848,148.8239,230.7455,158.599,229.542" style="stroke: #A80036; stroke-width: 1.0;"/><text fill="#000000" font-family="sans-serif" font-size="13" lengthAdjust="spacingAndGlyphs" textLength="54" x="89" y="179.0669">Location</text><text fill="#000000" font-family="sans-serif" font-size="13" lengthAdjust="spacingAndGlyphs" textLength="8" x="142.7771" y="222.4833">1</text><!--link Location to Document--><path d="M198.85,249.248 C218.6,269.723 260.423,313.08 282.558,336.028 " fill="none" id="Location-Document" style="stroke: #A80036; stroke-width: 1.0;"/><polygon fill="#A80036" points="286.194,339.797,282.8243,330.5425,282.7226,336.1985,277.0667,336.0968,286.194,339.797" style="stroke: #A80036; stroke-width: 1.0;"/><text fill="#000000" font-family="sans-serif" font-size="13" lengthAdjust="spacingAndGlyphs" textLength="108" x="257" y="305.0669">IssuedDocument</text><text fill="#000000" font-family="sans-serif" font-size="13" lengthAdjust="spacingAndGlyphs" textLength="7" x="273.1239" y="329.0332">*</text></g></svg>