<?xml version="1.0" encoding="UTF-8" standalone="no"?><svg xmlns="http://www.w3.org/2000/svg" xmlns:xlink="http://www.w3.org/1999/xlink" contentScriptType="application/ecmascript" contentStyleType="text/css" height="746px" preserveAspectRatio="none" style="width:1493px;height:746px;" version="1.1" viewBox="0 0 1493 746" width="1493px" zoomAndPan="magnify"><defs><filter height="300%" id="f1f4h90rrxeyeg" width="300%" x="-1" y="-1"><feGaussianBlur result="blurOut" stdDeviation="2.0"/><feColorMatrix in="blurOut" result="blurOut2" type="matrix" values="0 0 0 0 0 0 0 0 0 0 0 0 0 0 0 0 0 0 .4 0"/><feOffset dx="4.0" dy="4.0" in="blurOut2" result="blurOut3"/><feBlend in="SourceGraphic" in2="blurOut3" mode="normal"/></filter></defs><g><!--cluster ##18470--><!--cluster ##18476--><!--class Transport--><a target="_top" xlink:actuate="onRequest" xlink:href="../Transport.html" xlink:show="new" xlink:title="Moving of goods or people from one place to another by vehicle." xlink:type="simple"><rect fill="#FEFEEE" filter="url(#f1f4h90rrxeyeg)" height="95.9922" id="Transport" style="stroke: #A80036; stroke-width: 1.5;" width="335" x="606.75" y="40"/><rect fill="#FEFEEE" height="23.9688" style="stroke: #A80036; stroke-width: 1.5;" width="335" x="606.75" y="40"/><text fill="#000000" font-family="sans-serif" font-size="12" lengthAdjust="spacingAndGlyphs" textLength="61" x="743.75" y="56.1387">Transport</text><line style="stroke: #A80036; stroke-width: 1.5;" x1="607.75" x2="940.75" y1="63.9688" y2="63.9688"/><ellipse cx="617.75" cy="75.8711" fill="#84BE84" rx="3" ry="3" style="stroke: #038048; stroke-width: 1.0;"/><text fill="#000000" font-family="sans-serif" font-size="11" lengthAdjust="spacingAndGlyphs" textLength="72" x="626.75" y="78.1792">Identification</text><text fill="#000000" font-family="sans-serif" font-size="11" font-style="italic" lengthAdjust="spacingAndGlyphs" textLength="70" x="702.75" y="78.1792">(Max35Text)</text><ellipse cx="617.75" cy="88.6758" fill="#84BE84" rx="3" ry="3" style="stroke: #038048; stroke-width: 1.0;"/><text fill="#000000" font-family="sans-serif" font-size="11" lengthAdjust="spacingAndGlyphs" textLength="90" x="626.75" y="90.9839">ArrivalDateTime</text><text fill="#000000" font-family="sans-serif" font-size="11" font-style="italic" lengthAdjust="spacingAndGlyphs" textLength="81" x="720.75" y="90.9839">(ISODateTime)</text><ellipse cx="617.75" cy="101.4805" fill="#84BE84" rx="3" ry="3" style="stroke: #038048; stroke-width: 1.0;"/><text fill="#000000" font-family="sans-serif" font-size="11" lengthAdjust="spacingAndGlyphs" textLength="90" x="626.75" y="103.7886">PartialShipment</text><text fill="#000000" font-family="sans-serif" font-size="11" font-style="italic" lengthAdjust="spacingAndGlyphs" textLength="92" x="720.75" y="103.7886">(YesNoIndicator)</text><ellipse cx="617.75" cy="114.2852" fill="#84BE84" rx="3" ry="3" style="stroke: #038048; stroke-width: 1.0;"/><text fill="#000000" font-family="sans-serif" font-size="11" lengthAdjust="spacingAndGlyphs" textLength="87" x="626.75" y="116.5933">TransShipment</text><text fill="#000000" font-family="sans-serif" font-size="11" font-style="italic" lengthAdjust="spacingAndGlyphs" textLength="92" x="717.75" y="116.5933">(YesNoIndicator)</text><ellipse cx="617.75" cy="127.0898" fill="#84BE84" rx="3" ry="3" style="stroke: #038048; stroke-width: 1.0;"/><text fill="#000000" font-family="sans-serif" font-size="11" lengthAdjust="spacingAndGlyphs" textLength="182" x="626.75" y="129.3979">FreightChargesPrepaidOrCollect</text><text fill="#000000" font-family="sans-serif" font-size="11" font-style="italic" lengthAdjust="spacingAndGlyphs" textLength="123" x="812.75" y="129.3979">(FreightChargesCode)</text></a><!--class TransportByAir--><a target="_top" xlink:actuate="onRequest" xlink:href="../TransportByAir.html" xlink:show="new" xlink:title="Information related to the transportation of goods by air." xlink:type="simple"><rect fill="#FEFECE" filter="url(#f1f4h90rrxeyeg)" height="57.5781" id="TransportByAir" style="stroke: #A80036; stroke-width: 1.5;" width="175" x="766.75" y="214"/><rect fill="#FEFECE" height="23.9688" style="stroke: #A80036; stroke-width: 1.5;" width="175" x="766.75" y="214"/><text fill="#000000" font-family="sans-serif" font-size="12" lengthAdjust="spacingAndGlyphs" textLength="91" x="808.75" y="230.1387">TransportByAir</text><line style="stroke: #A80036; stroke-width: 1.5;" x1="767.75" x2="940.75" y1="237.9688" y2="237.9688"/><ellipse cx="777.75" cy="249.8711" fill="#84BE84" rx="3" ry="3" style="stroke: #038048; stroke-width: 1.0;"/><text fill="#000000" font-family="sans-serif" font-size="11" lengthAdjust="spacingAndGlyphs" textLength="71" x="786.75" y="252.1792">AirportName</text><text fill="#000000" font-family="sans-serif" font-size="11" font-style="italic" lengthAdjust="spacingAndGlyphs" textLength="63" x="861.75" y="252.1792">(Max6Text)</text><ellipse cx="777.75" cy="262.6758" fill="#84BE84" rx="3" ry="3" style="stroke: #038048; stroke-width: 1.0;"/><text fill="#000000" font-family="sans-serif" font-size="11" lengthAdjust="spacingAndGlyphs" textLength="75" x="786.75" y="264.9839">FlightNumber</text><text fill="#000000" font-family="sans-serif" font-size="11" font-style="italic" lengthAdjust="spacingAndGlyphs" textLength="70" x="865.75" y="264.9839">(Max35Text)</text></a><!--class Incoterms--><a target="_top" xlink:actuate="onRequest" xlink:href="../Incoterms.html" xlink:show="new" xlink:title="International commerce terms are a series of international sales terms, published by International Chamber of Commerce (ICC) and widely used in international commercial transactions. These are accepted by governments, legal authorities and practitioners worldwide for the interpretation of most commonly used terms in international trade. Scope of this is limited to matters relating to rights and obligations of the parties to the contract of sale with respect to the delivery of goods sold. They are used to divide transaction costs and responsibilities between buyer and seller and reflect state-of-the-art transportation practices." xlink:type="simple"><rect fill="#EEEEEE" filter="url(#f1f4h90rrxeyeg)" height="23.9688" id="Incoterms" style="stroke: #A80036; stroke-width: 1.5;" width="68" x="54" y="76"/><rect fill="#EEEEEE" height="23.9688" style="stroke: #A80036; stroke-width: 1.5;" width="68" x="54" y="76"/><text fill="#000000" font-family="sans-serif" font-size="12" lengthAdjust="spacingAndGlyphs" textLength="62" x="57" y="92.1387">Incoterms</text></a><!--class Packaging--><a target="_top" xlink:actuate="onRequest" xlink:href="../Packaging.html" xlink:show="new" xlink:title="Physical packaging of goods for transport." xlink:type="simple"><rect fill="#EEEEEE" filter="url(#f1f4h90rrxeyeg)" height="23.9688" id="Packaging" style="stroke: #A80036; stroke-width: 1.5;" width="71" x="99.75" y="454"/><rect fill="#EEEEEE" height="23.9688" style="stroke: #A80036; stroke-width: 1.5;" width="71" x="99.75" y="454"/><text fill="#000000" font-family="sans-serif" font-size="12" lengthAdjust="spacingAndGlyphs" textLength="65" x="102.75" y="470.1387">Packaging</text></a><!--class ProductDelivery--><a target="_top" xlink:actuate="onRequest" xlink:href="../ProductDelivery.html" xlink:show="new" xlink:title="Arrangements for delivery of invoiced products and/or services." xlink:type="simple"><rect fill="#EEEEEE" filter="url(#f1f4h90rrxeyeg)" height="23.9688" id="ProductDelivery" style="stroke: #A80036; stroke-width: 1.5;" width="103" x="123.75" y="352"/><rect fill="#EEEEEE" height="23.9688" style="stroke: #A80036; stroke-width: 1.5;" width="103" x="123.75" y="352"/><text fill="#000000" font-family="sans-serif" font-size="12" lengthAdjust="spacingAndGlyphs" textLength="97" x="126.75" y="368.1387">ProductDelivery</text></a><!--class Location--><a target="_top" xlink:actuate="onRequest" xlink:href="../Location.html" xlink:show="new" xlink:title="Specifies a place." xlink:type="simple"><rect fill="#EEEEEE" filter="url(#f1f4h90rrxeyeg)" height="23.9688" id="Location" style="stroke: #A80036; stroke-width: 1.5;" width="59" x="158.75" y="231"/><rect fill="#EEEEEE" height="23.9688" style="stroke: #A80036; stroke-width: 1.5;" width="59" x="158.75" y="231"/><text fill="#000000" font-family="sans-serif" font-size="12" lengthAdjust="spacingAndGlyphs" textLength="53" x="161.75" y="247.1387">Location</text></a><!--class Charges--><a target="_top" xlink:actuate="onRequest" xlink:href="../Charges.html" xlink:show="new" xlink:title="Amount of money associated with a service." xlink:type="simple"><rect fill="#EEEEEE" filter="url(#f1f4h90rrxeyeg)" height="23.9688" id="Charges" style="stroke: #A80036; stroke-width: 1.5;" width="58" x="235.5" y="712"/><rect fill="#EEEEEE" height="23.9688" style="stroke: #A80036; stroke-width: 1.5;" width="58" x="235.5" y="712"/><text fill="#000000" font-family="sans-serif" font-size="12" lengthAdjust="spacingAndGlyphs" textLength="52" x="238.5" y="728.1387">Charges</text></a><!--class ShipmentDateRange--><a target="_top" xlink:actuate="onRequest" xlink:href="../ShipmentDateRange.html" xlink:show="new" xlink:title="Specifies a shipment period or a shipment date." xlink:type="simple"><rect fill="#EEEEEE" filter="url(#f1f4h90rrxeyeg)" height="23.9688" id="ShipmentDateRange" style="stroke: #A80036; stroke-width: 1.5;" width="135" x="196.75" y="626"/><rect fill="#EEEEEE" height="23.9688" style="stroke: #A80036; stroke-width: 1.5;" width="135" x="196.75" y="626"/><text fill="#000000" font-family="sans-serif" font-size="12" lengthAdjust="spacingAndGlyphs" textLength="129" x="199.75" y="642.1387">ShipmentDateRange</text></a><!--class Goods--><a target="_top" xlink:actuate="onRequest" xlink:href="../Goods.html" xlink:show="new" xlink:title="Good is a physical product that can be delivered to a purchaser and that involves the transfer of ownership from seller to customer." xlink:type="simple"><rect fill="#EEEEEE" filter="url(#f1f4h90rrxeyeg)" height="23.9688" id="Goods" style="stroke: #A80036; stroke-width: 1.5;" width="46" x="246" y="540"/><rect fill="#EEEEEE" height="23.9688" style="stroke: #A80036; stroke-width: 1.5;" width="46" x="246" y="540"/><text fill="#000000" font-family="sans-serif" font-size="12" lengthAdjust="spacingAndGlyphs" textLength="40" x="249" y="556.1387">Goods</text></a><!--class TransportPartyRole--><a target="_top" xlink:actuate="onRequest" xlink:href="../TransportPartyRole.html" xlink:show="new" xlink:title="Role played by a party in the context of transporting goods." xlink:type="simple"><rect fill="#EEEEEE" filter="url(#f1f4h90rrxeyeg)" height="23.9688" id="TransportPartyRole" style="stroke: #A80036; stroke-width: 1.5;" width="126" x="206" y="454"/><rect fill="#EEEEEE" height="23.9688" style="stroke: #A80036; stroke-width: 1.5;" width="126" x="206" y="454"/><text fill="#000000" font-family="sans-serif" font-size="12" lengthAdjust="spacingAndGlyphs" textLength="120" x="209" y="470.1387">TransportPartyRole</text></a><!--class Document--><a target="_top" xlink:actuate="onRequest" xlink:href="../Document.html" xlink:show="new" xlink:title="General information that unambiguously identifies a document, such as identification number and issue date time." xlink:type="simple"><rect fill="#EEEEEE" filter="url(#f1f4h90rrxeyeg)" height="23.9688" id="Document" style="stroke: #A80036; stroke-width: 1.5;" width="70" x="262" y="352"/><rect fill="#EEEEEE" height="23.9688" style="stroke: #A80036; stroke-width: 1.5;" width="70" x="262" y="352"/><text fill="#000000" font-family="sans-serif" font-size="12" lengthAdjust="spacingAndGlyphs" textLength="64" x="265" y="368.1387">Document</text></a><!--entity ##18495--><!--link Transport to TransportByAir--><path d="M808.031,154.085 C818.976,175.017 830.53,197.114 839.317,213.919 " fill="none" id="Transport-TransportByAir" style="stroke: #A80036; stroke-width: 1.0;"/><polygon fill="none" points="801.719,157.12,798.655,136.153,814.126,150.633,801.719,157.12" style="stroke: #A80036; stroke-width: 1.0;"/><!--link Packaging to Incoterms--><!--link ProductDelivery to Packaging--><!--link Location to ProductDelivery--><!--link Charges to Location--><!--link ShipmentDateRange to Charges--><!--link Goods to ShipmentDateRange--><!--link TransportPartyRole to Goods--><!--link Document to TransportPartyRole--><!--link Transport to Incoterms--><path d="M606.489,88 C446.95,88 218.083,88 127.279,88 " fill="none" id="Transport-Incoterms" style="stroke: #A80036; stroke-width: 1.0;"/><polygon fill="#A80036" points="122.019,88,131.019,92,127.019,88,131.019,84,122.019,88" style="stroke: #A80036; stroke-width: 1.0;"/><text fill="#000000" font-family="sans-serif" font-size="13" lengthAdjust="spacingAndGlyphs" textLength="64" x="331.75" y="80.0669">Incoterms</text><text fill="#000000" font-family="sans-serif" font-size="13" lengthAdjust="spacingAndGlyphs" textLength="8" x="129.8604" y="82.3307">1</text><!--link Transport to Packaging--><path d="M767.085,136.391 C757.793,183.293 736.796,253.993 691,296 C651.63,332.113 296.778,424.162 175.455,454.861 " fill="none" id="Transport-Packaging" style="stroke: #A80036; stroke-width: 1.0;"/><polygon fill="#A80036" points="170.546,456.102,180.252,457.7735,175.3934,454.8762,178.2907,450.0177,170.546,456.102" style="stroke: #A80036; stroke-width: 1.0;"/><text fill="#000000" font-family="sans-serif" font-size="13" lengthAdjust="spacingAndGlyphs" textLength="65" x="679" y="317.0669">Packaging</text><text fill="#000000" font-family="sans-serif" font-size="13" lengthAdjust="spacingAndGlyphs" textLength="8" x="178.6508" y="448.3912">1</text><!--link Transport to ProductDelivery--><path d="M706.713,136.081 C677.887,153.988 643.059,172.765 609,184 C553.767,202.22 391.858,174.681 349,214 C312.904,247.116 360.539,286.296 327,322 C313.792,336.061 268.933,347.081 231.345,354.139 " fill="none" id="Transport-ProductDelivery" style="stroke: #A80036; stroke-width: 1.0;"/><polygon fill="#A80036" points="226.33,355.066,235.907,357.3641,231.2468,354.1575,234.4534,349.4973,226.33,355.066" style="stroke: #A80036; stroke-width: 1.0;"/><text fill="#000000" font-family="sans-serif" font-size="13" lengthAdjust="spacingAndGlyphs" textLength="100" x="350" y="247.0669">ProductDelivery</text><text fill="#000000" font-family="sans-serif" font-size="13" lengthAdjust="spacingAndGlyphs" textLength="24" x="230.0223" y="346.9251">0..1</text><!--link Transport to Location--><path d="M606.439,128.281 C567.414,139.072 526.362,151.776 489,166 C472.282,172.365 469.909,178.161 453,184 C389.972,205.764 371.114,199.634 306,214 C277.783,220.225 245.908,227.823 222.406,233.532 " fill="none" id="Transport-Location" style="stroke: #A80036; stroke-width: 1.0;"/><polygon fill="#A80036" points="217.522,234.721,227.2128,236.4785,222.3801,233.5383,225.3204,228.7056,217.522,234.721" style="stroke: #A80036; stroke-width: 1.0;"/><text fill="#000000" font-family="sans-serif" font-size="13" lengthAdjust="spacingAndGlyphs" textLength="113" x="490" y="179.0669">PlaceOfDeparture</text><text fill="#000000" font-family="sans-serif" font-size="13" lengthAdjust="spacingAndGlyphs" textLength="8" x="225.6321" y="226.718">1</text><!--link Transport to Location--><path d="M606.686,108.196 C435.038,128.285 192.021,158.001 185,166 C170.711,182.278 175.965,208.898 181.584,225.924 " fill="none" id="Transport-Location" style="stroke: #A80036; stroke-width: 1.0;"/><polygon fill="#A80036" points="183.319,230.878,184.1188,221.0617,181.666,226.1591,176.5686,223.7064,183.319,230.878" style="stroke: #A80036; stroke-width: 1.0;"/><text fill="#000000" font-family="sans-serif" font-size="13" lengthAdjust="spacingAndGlyphs" textLength="121" x="186" y="179.0669">PlaceOfDestination</text><text fill="#000000" font-family="sans-serif" font-size="13" lengthAdjust="spacingAndGlyphs" textLength="8" x="170.9052" y="219.8843">1</text><!--link Transport to Location--><path d="M606.638,105.823 C525.912,117.243 428.673,135.931 345,166 C329.644,171.519 327.523,176.56 313,184 C281.129,200.327 243.793,217.39 218.28,228.746 " fill="none" id="Transport-Location" style="stroke: #A80036; stroke-width: 1.0;"/><polygon fill="#A80036" points="213.657,230.799,223.5059,230.8036,218.227,228.7704,220.2601,223.4916,213.657,230.799" style="stroke: #A80036; stroke-width: 1.0;"/><text fill="#000000" font-family="sans-serif" font-size="13" lengthAdjust="spacingAndGlyphs" textLength="97" x="346" y="179.0669">TransitLocation</text><text fill="#000000" font-family="sans-serif" font-size="13" lengthAdjust="spacingAndGlyphs" textLength="7" x="212.5824" y="220.0359">*</text><!--link Transport to Charges--><path d="M941.27,99.693 C1116.33,115.602 1366,153.759 1366,242 C1366,242 1366,242 1366,639 C1366,693.9789 482.435,717.8488 297.634,722.24 " fill="none" id="Transport-Charges" style="stroke: #A80036; stroke-width: 1.0;"/><polygon fill="#A80036" points="292.628,722.3582,301.7203,726.1436,297.6266,722.2396,301.5306,718.1459,292.628,722.3582" style="stroke: #A80036; stroke-width: 1.0;"/><text fill="#000000" font-family="sans-serif" font-size="13" lengthAdjust="spacingAndGlyphs" textLength="114" x="1367" y="470.0669">TransportCharges</text><text fill="#000000" font-family="sans-serif" font-size="13" lengthAdjust="spacingAndGlyphs" textLength="7" x="301.5234" y="715.5958">*</text><!--link Transport to ShipmentDateRange--><path d="M941.578,112.08 C1075.18,135.343 1240,177.178 1240,242 C1240,242 1240,242 1240,553 C1240,598.323 563.093,626.415 336.732,634.541 " fill="none" id="Transport-ShipmentDateRange" style="stroke: #A80036; stroke-width: 1.0;"/><polygon fill="#A80036" points="331.47,634.73,340.6071,638.406,336.4668,634.5514,340.3214,630.4111,331.47,634.73" style="stroke: #A80036; stroke-width: 1.0;"/><text fill="#000000" font-family="sans-serif" font-size="13" lengthAdjust="spacingAndGlyphs" textLength="100" x="1241" y="419.0669">ShipmentDates</text><text fill="#000000" font-family="sans-serif" font-size="13" lengthAdjust="spacingAndGlyphs" textLength="8" x="339.7048" y="629.4455">1</text><!--link Transport to Goods--><path d="M941.319,116.937 C1006.56,138.298 1066,175.897 1066,242 C1066,242 1066,242 1066,467 C1066,545.901 440.263,550.928 297.679,551.05 " fill="none" id="Transport-Goods" style="stroke: #A80036; stroke-width: 1.0;"/><polygon fill="#A80036" points="292.421,551.052,301.421,555.052,297.421,551.052,301.421,547.052,292.421,551.052" style="stroke: #A80036; stroke-width: 1.0;"/><text fill="#000000" font-family="sans-serif" font-size="13" lengthAdjust="spacingAndGlyphs" textLength="118" x="1067" y="368.0669">TransportedGoods</text><text fill="#000000" font-family="sans-serif" font-size="13" lengthAdjust="spacingAndGlyphs" textLength="23" x="300.06" y="545.0701">1..*</text><!--link Transport to TransportPartyRole--><path d="M879.448,136.055 C910.437,155.468 940.649,181.237 958,214 C975.056,246.207 976.138,264.39 958,296 C901.891,393.785 846.435,389.826 739,424 C666.104,447.188 449.373,458.365 337.507,462.714 " fill="none" id="Transport-TransportPartyRole" style="stroke: #A80036; stroke-width: 1.0;"/><polygon fill="#A80036" points="332.26,462.916,341.4076,466.5659,337.2563,462.7232,341.099,458.5719,332.26,462.916" style="stroke: #A80036; stroke-width: 1.0;"/><text fill="#000000" font-family="sans-serif" font-size="13" lengthAdjust="spacingAndGlyphs" textLength="60" x="954" y="317.0669">PartyRole</text><text fill="#000000" font-family="sans-serif" font-size="13" lengthAdjust="spacingAndGlyphs" textLength="24" x="340.0212" y="457.7968">0..1</text><!--link Transport to Document--><path d="M721.345,136.161 C700.307,153.116 675.13,171.196 650,184 C608.277,205.259 589.716,190.87 549,214 C502.234,240.566 505.362,267.101 460,296 C421.017,320.835 371.28,339.691 337.057,350.976 " fill="none" id="Transport-Document" style="stroke: #A80036; stroke-width: 1.0;"/><polygon fill="#A80036" points="332.123,352.586,341.92,353.5958,336.8762,351.0345,339.4375,345.9907,332.123,352.586" style="stroke: #A80036; stroke-width: 1.0;"/><text fill="#000000" font-family="sans-serif" font-size="13" lengthAdjust="spacingAndGlyphs" textLength="135" x="550" y="247.0669">TransportDocuments</text><text fill="#000000" font-family="sans-serif" font-size="13" lengthAdjust="spacingAndGlyphs" textLength="8" x="340.1921" y="344.5626">1</text><!--link Incoterms to Location--><path d="M84.6449,100.16 C79.7014,118.903 72.6055,157.275 88,184 C102.0287,208.354 130.633,223.419 153.669,232.071 " fill="none" id="Incoterms-Location" style="stroke: #A80036; stroke-width: 1.0;"/><polygon fill="#A80036" points="158.493,233.82,151.3975,226.9896,153.7929,232.1143,148.6683,234.5097,158.493,233.82" style="stroke: #A80036; stroke-width: 1.0;"/><text fill="#000000" font-family="sans-serif" font-size="13" lengthAdjust="spacingAndGlyphs" textLength="54" x="89" y="179.0669">Location</text><text fill="#000000" font-family="sans-serif" font-size="13" lengthAdjust="spacingAndGlyphs" textLength="8" x="142.6502" y="226.4223">1</text><!--link Location to Document--><path d="M198.451,255.41 C218.197,276.967 260.982,323.678 283.114,347.84 " fill="none" id="Location-Document" style="stroke: #A80036; stroke-width: 1.0;"/><polygon fill="#A80036" points="286.739,351.798,283.6099,342.4595,283.3619,348.1109,277.7104,347.8629,286.739,351.798" style="stroke: #A80036; stroke-width: 1.0;"/><text fill="#000000" font-family="sans-serif" font-size="13" lengthAdjust="spacingAndGlyphs" textLength="108" x="260" y="317.0669">IssuedDocument</text><text fill="#000000" font-family="sans-serif" font-size="13" lengthAdjust="spacingAndGlyphs" textLength="7" x="273.8494" y="341.0345">*</text></g></svg>