<?xml version="1.0" encoding="UTF-8" standalone="no"?><svg xmlns="http://www.w3.org/2000/svg" xmlns:xlink="http://www.w3.org/1999/xlink" contentScriptType="application/ecmascript" contentStyleType="text/css" height="970px" preserveAspectRatio="none" style="width:2069px;height:970px;" version="1.1" viewBox="0 0 2069 970" width="2069px" zoomAndPan="magnify"><defs><filter height="300%" id="f1qou9h1g8amos" width="300%" x="-1" y="-1"><feGaussianBlur result="blurOut" stdDeviation="2.0"/><feColorMatrix in="blurOut" result="blurOut2" type="matrix" values="0 0 0 0 0 0 0 0 0 0 0 0 0 0 0 0 0 0 .4 0"/><feOffset dx="4.0" dy="4.0" in="blurOut2" result="blurOut3"/><feBlend in="SourceGraphic" in2="blurOut3" mode="normal"/></filter></defs><g><!--cluster ##20268--><!--cluster ##20277--><!--cluster ##20282--><!--cluster ##20309--><!--class RolePlayer--><a target="_top" xlink:actuate="onRequest" xlink:href="../RolePlayer.html" xlink:show="new" xlink:title="Type of entity that plays a specific role in a specific context." xlink:type="simple"><rect fill="#FEFEEE" filter="url(#f1qou9h1g8amos)" height="23.9688" id="RolePlayer" style="stroke: #A80036; stroke-width: 1.5;" width="71" x="711.75" y="40"/><rect fill="#FEFEEE" height="23.9688" style="stroke: #A80036; stroke-width: 1.5;" width="71" x="711.75" y="40"/><text fill="#000000" font-family="sans-serif" font-size="12" lengthAdjust="spacingAndGlyphs" textLength="65" x="714.75" y="56.1387">RolePlayer</text></a><!--class System--><a target="_top" xlink:actuate="onRequest" xlink:href="../System.html" xlink:show="new" xlink:title="Set of integrated applications that provides centralised services such as clearing, netting, reconciliation, trading and/or settlement." xlink:type="simple"><rect fill="#FEFEEE" filter="url(#f1qou9h1g8amos)" height="57.5781" id="System" style="stroke: #A80036; stroke-width: 1.5;" width="254" x="529" y="126"/><rect fill="#FEFEEE" height="23.9688" style="stroke: #A80036; stroke-width: 1.5;" width="254" x="529" y="126"/><text fill="#000000" font-family="sans-serif" font-size="12" lengthAdjust="spacingAndGlyphs" textLength="45" x="633.5" y="142.1387">System</text><line style="stroke: #A80036; stroke-width: 1.5;" x1="530" x2="782" y1="149.9688" y2="149.9688"/><ellipse cx="540" cy="161.8711" fill="#84BE84" rx="3" ry="3" style="stroke: #038048; stroke-width: 1.0;"/><text fill="#000000" font-family="sans-serif" font-size="11" lengthAdjust="spacingAndGlyphs" textLength="97" x="549" y="164.1792">SystemDateTime</text><text fill="#000000" font-family="sans-serif" font-size="11" font-style="italic" lengthAdjust="spacingAndGlyphs" textLength="81" x="650" y="164.1792">(ISODateTime)</text><ellipse cx="540" cy="174.6758" fill="#84BE84" rx="3" ry="3" style="stroke: #038048; stroke-width: 1.0;"/><text fill="#000000" font-family="sans-serif" font-size="11" lengthAdjust="spacingAndGlyphs" textLength="98" x="549" y="176.9839">SystemLanguage</text><text fill="#000000" font-family="sans-serif" font-size="11" font-style="italic" lengthAdjust="spacingAndGlyphs" textLength="126" x="651" y="176.9839">(ISO2ALanguageCode)</text></a><!--class TreasurySettlementSystem--><a target="_top" xlink:actuate="onRequest" xlink:href="../TreasurySettlementSystem.html" xlink:show="new" xlink:title="Centralised system in which a central party settles treasury trades between members." xlink:type="simple"><rect fill="#FEFECE" filter="url(#f1qou9h1g8amos)" height="23.9688" id="TreasurySettlementSystem" style="stroke: #A80036; stroke-width: 1.5;" width="174" x="529" y="264"/><rect fill="#FEFECE" height="23.9688" style="stroke: #A80036; stroke-width: 1.5;" width="174" x="529" y="264"/><text fill="#000000" font-family="sans-serif" font-size="12" lengthAdjust="spacingAndGlyphs" textLength="168" x="532" y="280.1387">TreasurySettlementSystem</text></a><!--class Role--><a target="_top" xlink:actuate="onRequest" xlink:href="../Role.html" xlink:show="new" xlink:title="Role of a party in an activity." xlink:type="simple"><rect fill="#EEEEEE" filter="url(#f1qou9h1g8amos)" height="23.9688" id="Role" style="stroke: #A80036; stroke-width: 1.5;" width="33" x="1804.75" y="370"/><rect fill="#EEEEEE" height="23.9688" style="stroke: #A80036; stroke-width: 1.5;" width="33" x="1804.75" y="370"/><text fill="#000000" font-family="sans-serif" font-size="12" lengthAdjust="spacingAndGlyphs" textLength="27" x="1807.75" y="386.1387">Role</text></a><!--class DateTimePeriod--><a target="_top" xlink:actuate="onRequest" xlink:href="../DateTimePeriod.html" xlink:show="new" xlink:title="Time span defined by a start date and time, and an end date and time." xlink:type="simple"><rect fill="#EEEEEE" filter="url(#f1qou9h1g8amos)" height="23.9688" id="DateTimePeriod" style="stroke: #A80036; stroke-width: 1.5;" width="105" x="1802.75" y="264"/><rect fill="#EEEEEE" height="23.9688" style="stroke: #A80036; stroke-width: 1.5;" width="105" x="1802.75" y="264"/><text fill="#000000" font-family="sans-serif" font-size="12" lengthAdjust="spacingAndGlyphs" textLength="99" x="1805.75" y="280.1387">DateTimePeriod</text></a><!--class SystemIdentification--><a target="_top" xlink:actuate="onRequest" xlink:href="../SystemIdentification.html" xlink:show="new" xlink:title="Parameters that identify a system." xlink:type="simple"><rect fill="#EEEEEE" filter="url(#f1qou9h1g8amos)" height="23.9688" id="SystemIdentification" style="stroke: #A80036; stroke-width: 1.5;" width="132" x="1422" y="474"/><rect fill="#EEEEEE" height="23.9688" style="stroke: #A80036; stroke-width: 1.5;" width="132" x="1422" y="474"/><text fill="#000000" font-family="sans-serif" font-size="12" lengthAdjust="spacingAndGlyphs" textLength="126" x="1425" y="490.1387">SystemIdentification</text></a><!--class Location--><a target="_top" xlink:actuate="onRequest" xlink:href="../Location.html" xlink:show="new" xlink:title="Specifies a place." xlink:type="simple"><rect fill="#EEEEEE" filter="url(#f1qou9h1g8amos)" height="23.9688" id="Location" style="stroke: #A80036; stroke-width: 1.5;" width="59" x="1438.75" y="370"/><rect fill="#EEEEEE" height="23.9688" style="stroke: #A80036; stroke-width: 1.5;" width="59" x="1438.75" y="370"/><text fill="#000000" font-family="sans-serif" font-size="12" lengthAdjust="spacingAndGlyphs" textLength="53" x="1441.75" y="386.1387">Location</text></a><!--class Reconciliation--><a target="_top" xlink:actuate="onRequest" xlink:href="../Reconciliation.html" xlink:show="new" xlink:title="Process of matching different documents submitted by parties to a trade." xlink:type="simple"><rect fill="#EEEEEE" filter="url(#f1qou9h1g8amos)" height="23.9688" id="Reconciliation" style="stroke: #A80036; stroke-width: 1.5;" width="93" x="1440.75" y="264"/><rect fill="#EEEEEE" height="23.9688" style="stroke: #A80036; stroke-width: 1.5;" width="93" x="1440.75" y="264"/><text fill="#000000" font-family="sans-serif" font-size="12" lengthAdjust="spacingAndGlyphs" textLength="87" x="1443.75" y="280.1387">Reconciliation</text></a><!--class SystemAvailability--><a target="_top" xlink:actuate="onRequest" xlink:href="../SystemAvailability.html" xlink:show="new" xlink:title="information about the periods of activity and non-activity of a system." xlink:type="simple"><rect fill="#EEEEEE" filter="url(#f1qou9h1g8amos)" height="23.9688" id="SystemAvailability" style="stroke: #A80036; stroke-width: 1.5;" width="115" x="1271.75" y="936"/><rect fill="#EEEEEE" height="23.9688" style="stroke: #A80036; stroke-width: 1.5;" width="115" x="1271.75" y="936"/><text fill="#000000" font-family="sans-serif" font-size="12" lengthAdjust="spacingAndGlyphs" textLength="109" x="1274.75" y="952.1387">SystemAvailability</text></a><!--class SystemEventInformation--><a target="_top" xlink:actuate="onRequest" xlink:href="../SystemEventInformation.html" xlink:show="new" xlink:title="Detailed information about an event occurring on a system, whether planned, for example, cut-off time for a specific type of eligible transfer, or unplanned, for example, an unsolicited failure, as stipulated in the specifications of the system." xlink:type="simple"><rect fill="#EEEEEE" filter="url(#f1qou9h1g8amos)" height="23.9688" id="SystemEventInformation" style="stroke: #A80036; stroke-width: 1.5;" width="157" x="1080.75" y="850"/><rect fill="#EEEEEE" height="23.9688" style="stroke: #A80036; stroke-width: 1.5;" width="157" x="1080.75" y="850"/><text fill="#000000" font-family="sans-serif" font-size="12" lengthAdjust="spacingAndGlyphs" textLength="151" x="1083.75" y="866.1387">SystemEventInformation</text></a><!--class SystemPartyRole--><a target="_top" xlink:actuate="onRequest" xlink:href="../SystemPartyRole.html" xlink:show="new" xlink:title="Role played by a party in a system." xlink:type="simple"><rect fill="#EEEEEE" filter="url(#f1qou9h1g8amos)" height="23.9688" id="SystemPartyRole" style="stroke: #A80036; stroke-width: 1.5;" width="110" x="1086" y="764"/><rect fill="#EEEEEE" height="23.9688" style="stroke: #A80036; stroke-width: 1.5;" width="110" x="1086" y="764"/><text fill="#000000" font-family="sans-serif" font-size="12" lengthAdjust="spacingAndGlyphs" textLength="104" x="1089" y="780.1387">SystemPartyRole</text></a><!--class SystemStatus--><a target="_top" xlink:actuate="onRequest" xlink:href="../SystemStatus.html" xlink:show="new" xlink:title="Status of a system and the period of time during which the status is valid." xlink:type="simple"><rect fill="#EEEEEE" filter="url(#f1qou9h1g8amos)" height="23.9688" id="SystemStatus" style="stroke: #A80036; stroke-width: 1.5;" width="92" x="1095" y="678"/><rect fill="#EEEEEE" height="23.9688" style="stroke: #A80036; stroke-width: 1.5;" width="92" x="1095" y="678"/><text fill="#000000" font-family="sans-serif" font-size="12" lengthAdjust="spacingAndGlyphs" textLength="86" x="1098" y="694.1387">SystemStatus</text></a><!--class SystemBusinessInformation--><a target="_top" xlink:actuate="onRequest" xlink:href="../SystemBusinessInformation.html" xlink:show="new" xlink:title="Details about business information related to a system." xlink:type="simple"><rect fill="#EEEEEE" filter="url(#f1qou9h1g8amos)" height="23.9688" id="SystemBusinessInformation" style="stroke: #A80036; stroke-width: 1.5;" width="178" x="1080.5" y="576"/><rect fill="#EEEEEE" height="23.9688" style="stroke: #A80036; stroke-width: 1.5;" width="178" x="1080.5" y="576"/><text fill="#000000" font-family="sans-serif" font-size="12" lengthAdjust="spacingAndGlyphs" textLength="172" x="1083.5" y="592.1387">SystemBusinessInformation</text></a><!--class Negotiation--><a target="_top" xlink:actuate="onRequest" xlink:href="../Negotiation.html" xlink:show="new" xlink:title="Decision making on the transfer of a financial instrument." xlink:type="simple"><rect fill="#EEEEEE" filter="url(#f1qou9h1g8amos)" height="23.9688" id="Negotiation" style="stroke: #A80036; stroke-width: 1.5;" width="79" x="1079.75" y="474"/><rect fill="#EEEEEE" height="23.9688" style="stroke: #A80036; stroke-width: 1.5;" width="79" x="1079.75" y="474"/><text fill="#000000" font-family="sans-serif" font-size="12" lengthAdjust="spacingAndGlyphs" textLength="73" x="1082.75" y="490.1387">Negotiation</text></a><!--class Account--><a target="_top" xlink:actuate="onRequest" xlink:href="../Account.html" xlink:show="new" xlink:title="Record of transactions in specific types of assets, maintained by a servicing party on behalf of one or more owning parties. Business relationship between an account servicer and one or more account owners." xlink:type="simple"><rect fill="#EEEEEE" filter="url(#f1qou9h1g8amos)" height="23.9688" id="Account" style="stroke: #A80036; stroke-width: 1.5;" width="57" x="1183.75" y="370"/><rect fill="#EEEEEE" height="23.9688" style="stroke: #A80036; stroke-width: 1.5;" width="57" x="1183.75" y="370"/><text fill="#000000" font-family="sans-serif" font-size="12" lengthAdjust="spacingAndGlyphs" textLength="51" x="1186.75" y="386.1387">Account</text></a><!--class Trade--><a target="_top" xlink:actuate="onRequest" xlink:href="../Trade.html" xlink:show="new" xlink:title="Result of an order between at least two parties. A trade relates to the delivery of goods and services, cash or securities." xlink:type="simple"><rect fill="#EEEEEE" filter="url(#f1qou9h1g8amos)" height="23.9688" id="Trade" style="stroke: #A80036; stroke-width: 1.5;" width="42" x="1293.5" y="576"/><rect fill="#EEEEEE" height="23.9688" style="stroke: #A80036; stroke-width: 1.5;" width="42" x="1293.5" y="576"/><text fill="#000000" font-family="sans-serif" font-size="12" lengthAdjust="spacingAndGlyphs" textLength="36" x="1296.5" y="592.1387">Trade</text></a><!--class Assessment--><a target="_top" xlink:actuate="onRequest" xlink:href="../Assessment.html" xlink:show="new" xlink:title="Assessment for the components of a system." xlink:type="simple"><rect fill="#EEEEEE" filter="url(#f1qou9h1g8amos)" height="23.9688" id="Assessment" style="stroke: #A80036; stroke-width: 1.5;" width="82" x="1194" y="474"/><rect fill="#EEEEEE" height="23.9688" style="stroke: #A80036; stroke-width: 1.5;" width="82" x="1194" y="474"/><text fill="#000000" font-family="sans-serif" font-size="12" lengthAdjust="spacingAndGlyphs" textLength="76" x="1197" y="490.1387">Assessment</text></a><!--class Position--><a target="_top" xlink:actuate="onRequest" xlink:href="../Position.html" xlink:show="new" xlink:title="Specifies the status of trades and their value inside a system." xlink:type="simple"><rect fill="#EEEEEE" filter="url(#f1qou9h1g8amos)" height="23.9688" id="Position" style="stroke: #A80036; stroke-width: 1.5;" width="56" x="1092.5" y="370"/><rect fill="#EEEEEE" height="23.9688" style="stroke: #A80036; stroke-width: 1.5;" width="56" x="1092.5" y="370"/><text fill="#000000" font-family="sans-serif" font-size="12" lengthAdjust="spacingAndGlyphs" textLength="50" x="1095.5" y="386.1387">Position</text></a><!--class TreasurySettlementSystemRole--><a target="_top" xlink:actuate="onRequest" xlink:href="../TreasurySettlementSystemRole.html" xlink:show="new" xlink:title="System involved in the settlement chain of one leg of a treasury trade." xlink:type="simple"><rect fill="#EEEEEE" filter="url(#f1qou9h1g8amos)" height="23.9688" id="TreasurySettlementSystemRole" style="stroke: #A80036; stroke-width: 1.5;" width="201" x="341.75" y="370"/><rect fill="#EEEEEE" height="23.9688" style="stroke: #A80036; stroke-width: 1.5;" width="201" x="341.75" y="370"/><text fill="#000000" font-family="sans-serif" font-size="12" lengthAdjust="spacingAndGlyphs" textLength="195" x="344.75" y="386.1387">TreasurySettlementSystemRole</text></a><!--link RolePlayer to System--><path d="M723.511,79.071 C710.561,93.443 694.478,111.294 681.258,125.966 " fill="none" id="RolePlayer-System" style="stroke: #A80036; stroke-width: 1.0;"/><polygon fill="none" points="718.326,74.368,736.914,64.195,728.727,83.739,718.326,74.368" style="stroke: #A80036; stroke-width: 1.0;"/><!--link System to TreasurySettlementSystem--><path d="M640.044,203.47 C632.618,225.56 624.417,249.959 619.768,263.79 " fill="none" id="System-TreasurySettlementSystem" style="stroke: #A80036; stroke-width: 1.0;"/><polygon fill="none" points="633.513,200.929,646.521,184.201,646.783,205.389,633.513,200.929" style="stroke: #A80036; stroke-width: 1.0;"/><!--link DateTimePeriod to Role--><!--link Location to SystemIdentification--><!--link Reconciliation to Location--><!--link SystemAvailability to Reconciliation--><!--link SystemEventInformation to SystemAvailability--><!--link SystemPartyRole to SystemEventInformation--><!--link SystemStatus to SystemPartyRole--><!--link SystemBusinessInformation to SystemStatus--><!--link Negotiation to SystemBusinessInformation--><!--link Account to Negotiation--><!--link Trade to Account--><!--link Assessment to Trade--><!--link Position to Assessment--><!--link RolePlayer to Role--><path d="M782.285,54.501 C938.166,61.77 1564.02,97.855 1715,214 C1762.93,250.87 1734.77,289.582 1771,338 C1779.16,348.909 1790.54,358.967 1800.38,366.609 " fill="none" id="RolePlayer-Role" style="stroke: #A80036; stroke-width: 1.0;"/><polygon fill="#A80036" points="1804.49,369.731,1799.7486,361.0986,1800.5105,366.7039,1794.9052,367.4658,1804.49,369.731" style="stroke: #A80036; stroke-width: 1.0;"/><text fill="#000000" font-family="sans-serif" font-size="13" lengthAdjust="spacingAndGlyphs" textLength="27" x="1734" y="227.0669">Role</text><text fill="#000000" font-family="sans-serif" font-size="13" lengthAdjust="spacingAndGlyphs" textLength="23" x="1773.7236" y="361.014">1..*</text><!--link RolePlayer to DateTimePeriod--><path d="M782.448,53.341 C959.176,55.175 1738.25,64.89 1780,94 C1836.12,133.122 1850.35,222.479 1853.87,259 " fill="none" id="RolePlayer-DateTimePeriod" style="stroke: #A80036; stroke-width: 1.0;"/><polygon fill="#A80036" points="1854.32,263.993,1857.5054,254.6735,1853.8762,259.0127,1849.5369,255.3836,1854.32,263.993" style="stroke: #A80036; stroke-width: 1.0;"/><text fill="#000000" font-family="sans-serif" font-size="13" lengthAdjust="spacingAndGlyphs" textLength="86" x="1840" y="159.0669">ValidityPeriod</text><text fill="#000000" font-family="sans-serif" font-size="13" lengthAdjust="spacingAndGlyphs" textLength="24" x="1824.5316" y="253.0388">0..1</text><!--link System to SystemIdentification--><path d="M783.201,158.782 C984.252,164.188 1366.08,178.827 1497,214 C1509.67,217.404 1543.06,228.867 1550,240 C1560.66,257.098 1547.28,405.189 1543,418 C1536,438.955 1518.94,457.911 1505.66,470.268 " fill="none" id="System-SystemIdentification" style="stroke: #A80036; stroke-width: 1.0;"/><polygon fill="#A80036" points="1501.68,473.886,1511.0337,470.8025,1505.3836,470.5269,1505.6592,464.8768,1501.68,473.886" style="stroke: #A80036; stroke-width: 1.0;"/><text fill="#000000" font-family="sans-serif" font-size="13" lengthAdjust="spacingAndGlyphs" textLength="130" x="1554" y="333.0669">SystemIdentification</text><text fill="#000000" font-family="sans-serif" font-size="13" lengthAdjust="spacingAndGlyphs" textLength="8" x="1495.6638" y="462.895">1</text><!--link System to Location--><path d="M783.085,161.361 C940.064,169.99 1196.28,191.229 1277,240 C1328.39,271.052 1320.87,303.477 1370,338 C1389.48,351.688 1414.01,362.447 1433.66,369.779 " fill="none" id="System-Location" style="stroke: #A80036; stroke-width: 1.0;"/><polygon fill="#A80036" points="1438.54,371.569,1431.4582,364.7244,1433.8434,369.8539,1428.714,372.239,1438.54,371.569" style="stroke: #A80036; stroke-width: 1.0;"/><text fill="#000000" font-family="sans-serif" font-size="13" lengthAdjust="spacingAndGlyphs" textLength="54" x="1343" y="280.0669">Location</text><text fill="#000000" font-family="sans-serif" font-size="13" lengthAdjust="spacingAndGlyphs" textLength="8" x="1422.7065" y="363.925">1</text><!--link System to Reconciliation--><path d="M783.156,160.466 C957.357,167.597 1260.72,183.916 1367,214 C1368.25,214.354 1425.78,243.709 1460.72,261.563 " fill="none" id="System-Reconciliation" style="stroke: #A80036; stroke-width: 1.0;"/><polygon fill="#A80036" points="1465.28,263.895,1459.0999,256.2265,1460.8318,261.6117,1455.4466,263.3436,1465.28,263.895" style="stroke: #A80036; stroke-width: 1.0;"/><text fill="#000000" font-family="sans-serif" font-size="13" lengthAdjust="spacingAndGlyphs" textLength="87" x="1401" y="227.0669">Reconciliation</text><text fill="#000000" font-family="sans-serif" font-size="13" lengthAdjust="spacingAndGlyphs" textLength="8" x="1447.0091" y="252.9071">1</text><!--link System to SystemAvailability--><path d="M528.861,160.501 C425.395,166.553 276.34,180.741 150,214 C82.7845,231.694 6,205.495 6,275 C6,275 6,275 6,863 C6,926.9658 1004.006,943.1841 1266.41,946.3429 " fill="none" id="System-SystemAvailability" style="stroke: #A80036; stroke-width: 1.0;"/><polygon fill="#A80036" points="1271.73,946.4063,1262.7763,942.3037,1266.7303,946.3492,1262.6849,950.3032,1271.73,946.4063" style="stroke: #A80036; stroke-width: 1.0;"/><text fill="#000000" font-family="sans-serif" font-size="13" lengthAdjust="spacingAndGlyphs" textLength="67" x="7" y="592.0669">Availability</text><text fill="#000000" font-family="sans-serif" font-size="13" lengthAdjust="spacingAndGlyphs" textLength="8" x="1255.8919" y="941.3782">1</text><!--link System to SystemEventInformation--><path d="M528.764,159.672 C372.811,167.711 129,193.338 129,275 C129,275 129,275 129,777 C129,824.363 829.989,850.748 1075.38,858.534 " fill="none" id="System-SystemEventInformation" style="stroke: #A80036; stroke-width: 1.0;"/><polygon fill="#A80036" points="1080.74,858.703,1071.8702,854.4221,1075.7425,858.5458,1071.6187,862.4181,1080.74,858.703" style="stroke: #A80036; stroke-width: 1.0;"/><text fill="#000000" font-family="sans-serif" font-size="13" lengthAdjust="spacingAndGlyphs" textLength="36" x="130" y="541.0669">Event</text><text fill="#000000" font-family="sans-serif" font-size="13" lengthAdjust="spacingAndGlyphs" textLength="8" x="1064.8243" y="853.7997">1</text><!--link System to SystemPartyRole--><path d="M528.728,165.755 C399.093,179.296 217,209.903 217,275 C217,275 217,275 217,691 C217,734.529 875.969,764.444 1080.92,772.696 " fill="none" id="System-SystemPartyRole" style="stroke: #A80036; stroke-width: 1.0;"/><polygon fill="#A80036" points="1085.97,772.898,1077.1372,768.5412,1080.974,772.698,1076.8172,776.5348,1085.97,772.898" style="stroke: #A80036; stroke-width: 1.0;"/><text fill="#000000" font-family="sans-serif" font-size="13" lengthAdjust="spacingAndGlyphs" textLength="60" x="218" y="490.0669">PartyRole</text><text fill="#000000" font-family="sans-serif" font-size="13" lengthAdjust="spacingAndGlyphs" textLength="7" x="1071.0868" y="767.6329">*</text><!--link System to SystemStatus--><path d="M563.086,184.065 C440.381,226.031 248.289,311.692 325,418 C418.432,547.479 925.536,649.803 1089.69,679.938 " fill="none" id="System-SystemStatus" style="stroke: #A80036; stroke-width: 1.0;"/><polygon fill="#A80036" points="1094.92,680.895,1086.787,675.3404,1090.0017,679.995,1085.347,683.2097,1094.92,680.895" style="stroke: #A80036; stroke-width: 1.0;"/><text fill="#000000" font-family="sans-serif" font-size="13" lengthAdjust="spacingAndGlyphs" textLength="42" x="349" y="439.0669">Status</text><text fill="#000000" font-family="sans-serif" font-size="13" lengthAdjust="spacingAndGlyphs" textLength="8" x="1079.0561" y="674.6072">1</text><!--link System to SystemBusinessInformation--><path d="M683.108,184.088 C711.093,216.617 747.135,270.983 720,312 C698.684,344.221 661.316,313.779 640,346 C622.344,372.688 624.331,390.099 640,418 C693.522,513.304 746.866,509.795 850,546 C923.042,571.641 1010.53,581.535 1075.39,585.217 " fill="none" id="System-SystemBusinessInformation" style="stroke: #A80036; stroke-width: 1.0;"/><polygon fill="#A80036" points="1080.42,585.492,1071.6504,581.0093,1075.4274,585.2206,1071.2161,588.9976,1080.42,585.492" style="stroke: #A80036; stroke-width: 1.0;"/><text fill="#000000" font-family="sans-serif" font-size="13" lengthAdjust="spacingAndGlyphs" textLength="190" x="641" y="386.0669">SystemGeneratedInformation</text><text fill="#000000" font-family="sans-serif" font-size="13" lengthAdjust="spacingAndGlyphs" textLength="8" x="1064.511" y="580.7565">1</text><!--link System to DateTimePeriod--><path d="M783.083,158.18 C992.182,162.802 1399.42,176.443 1538,214 C1555.27,218.679 1556.95,226.581 1574,232 C1594.81,238.615 1721.18,256.639 1797.19,267.133 " fill="none" id="System-DateTimePeriod" style="stroke: #A80036; stroke-width: 1.0;"/><polygon fill="#A80036" points="1802.57,267.875,1794.1889,262.7022,1797.6153,267.2033,1793.1142,270.6297,1802.57,267.875" style="stroke: #A80036; stroke-width: 1.0;"/><text fill="#000000" font-family="sans-serif" font-size="13" lengthAdjust="spacingAndGlyphs" textLength="134" x="1575" y="227.0669">VersionValidityPeriod</text><text fill="#000000" font-family="sans-serif" font-size="13" lengthAdjust="spacingAndGlyphs" textLength="8" x="1786.9008" y="262.0291">1</text><!--link System to Negotiation--><path d="M783.005,174.117 C808.656,182.744 833.651,195.415 853,214 C894.964,254.308 852.875,297.861 895,338 C904.37,346.928 911.987,339.201 923,346 C973.319,377.066 964.143,410.683 1013,444 C1031.63,456.708 1054.76,466.242 1074.66,472.902 " fill="none" id="System-Negotiation" style="stroke: #A80036; stroke-width: 1.0;"/><polygon fill="#A80036" points="1079.64,474.534,1072.3333,467.9301,1074.8886,472.9769,1069.8419,475.5323,1079.64,474.534" style="stroke: #A80036; stroke-width: 1.0;"/><text fill="#000000" font-family="sans-serif" font-size="13" lengthAdjust="spacingAndGlyphs" textLength="74" x="896" y="333.0669">Negotiation</text><text fill="#000000" font-family="sans-serif" font-size="13" lengthAdjust="spacingAndGlyphs" textLength="24" x="1047.8993" y="468.0533">0..1</text><!--link System to Account--><path d="M783.274,159.786 C921.051,166.644 1128.57,185.909 1184,240 C1218.13,273.311 1216.91,335.464 1214.09,364.834 " fill="none" id="System-Account" style="stroke: #A80036; stroke-width: 1.0;"/><polygon fill="#A80036" points="1213.56,369.922,1218.4818,361.3911,1214.0844,364.9496,1210.526,360.5521,1213.56,369.922" style="stroke: #A80036; stroke-width: 1.0;"/><text fill="#000000" font-family="sans-serif" font-size="13" lengthAdjust="spacingAndGlyphs" textLength="52" x="1215" y="280.0669">Account</text><text fill="#000000" font-family="sans-serif" font-size="13" lengthAdjust="spacingAndGlyphs" textLength="8" x="1203.2916" y="358.9434">1</text><!--link System to Trade--><path d="M700.955,184.031 C713.574,192.874 726.874,203.18 738,214 C790.572,265.127 797.429,284.259 837,346 C856.638,376.64 849.676,392.871 876,418 C970.611,508.315 1017.51,502.885 1141,546 C1198.21,565.974 1215.21,561.296 1274,576 C1278.62,577.155 1283.52,578.447 1288.25,579.728 " fill="none" id="System-Trade" style="stroke: #A80036; stroke-width: 1.0;"/><polygon fill="#A80036" points="1293.29,581.107,1285.6755,574.8604,1288.4696,579.7791,1283.5509,582.5731,1293.29,581.107" style="stroke: #A80036; stroke-width: 1.0;"/><text fill="#000000" font-family="sans-serif" font-size="13" lengthAdjust="spacingAndGlyphs" textLength="36" x="877" y="386.0669">Trade</text><text fill="#000000" font-family="sans-serif" font-size="13" lengthAdjust="spacingAndGlyphs" textLength="8" x="1277.5737" y="573.2505">1</text><!--link System to Assessment--><path d="M783.21,174.289 C818.153,182.903 854.943,195.526 886,214 C991.967,277.032 972.96,347.34 1074,418 C1110.06,443.219 1157.08,461.399 1190.98,472.404 " fill="none" id="System-Assessment" style="stroke: #A80036; stroke-width: 1.0;"/><polygon fill="#A80036" points="1195.88,473.975,1188.5334,467.4154,1191.1193,472.4467,1186.0881,475.0326,1195.88,473.975" style="stroke: #A80036; stroke-width: 1.0;"/><text fill="#000000" font-family="sans-serif" font-size="13" lengthAdjust="spacingAndGlyphs" textLength="79" x="998" y="333.0669">Assessment</text><text fill="#000000" font-family="sans-serif" font-size="13" lengthAdjust="spacingAndGlyphs" textLength="24" x="1161.9219" y="466.5283">0..1</text><!--link System to Position--><path d="M783.088,169.039 C863.533,178.943 958.939,194.231 995,214 C1046.59,242.284 1038.11,275.173 1084,312 C1089.59,316.486 1093.39,314.514 1098,320 C1108.87,332.935 1114.56,351.668 1117.4,364.956 " fill="none" id="System-Position" style="stroke: #A80036; stroke-width: 1.0;"/><polygon fill="#A80036" points="1118.39,369.933,1120.5581,360.3257,1117.4149,365.029,1112.7117,361.8859,1118.39,369.933" style="stroke: #A80036; stroke-width: 1.0;"/><text fill="#000000" font-family="sans-serif" font-size="13" lengthAdjust="spacingAndGlyphs" textLength="93" x="1085" y="280.0669">TradesPosition</text><text fill="#000000" font-family="sans-serif" font-size="13" lengthAdjust="spacingAndGlyphs" textLength="8" x="1106.9459" y="358.9582">1</text><!--link TreasurySettlementSystem to TreasurySettlementSystemRole--><path d="M597.379,288.13 C565.328,307.287 499.829,346.436 464.989,367.26 " fill="none" id="TreasurySettlementSystem-TreasurySettlementSystemRole" style="stroke: #A80036; stroke-width: 1.0;"/><polygon fill="#A80036" points="460.487,369.95,470.2643,368.7648,464.7785,367.3842,466.1591,361.8985,460.487,369.95" style="stroke: #A80036; stroke-width: 1.0;"/><text fill="#000000" font-family="sans-serif" font-size="13" lengthAdjust="spacingAndGlyphs" textLength="76" x="541" y="333.0669">SystemRole</text><text fill="#000000" font-family="sans-serif" font-size="13" lengthAdjust="spacingAndGlyphs" textLength="24" x="437.2872" y="358.981">0..1</text><!--link DateTimePeriod to Account--><path d="M1837.95,288.188 C1814.53,302.854 1770.56,327.898 1729,338 C1662.47,354.17 1489.15,339.441 1421,346 C1358.66,351.999 1286.82,365.495 1245.68,373.865 " fill="none" id="DateTimePeriod-Account" style="stroke: #A80036; stroke-width: 1.0;"/><polygon fill="#A80036" points="1240.57,374.91,1250.1882,377.029,1245.469,373.9099,1248.5881,369.1907,1240.57,374.91" style="stroke: #A80036; stroke-width: 1.0;"/><text fill="#000000" font-family="sans-serif" font-size="13" lengthAdjust="spacingAndGlyphs" textLength="52" x="1777" y="333.0669">Account</text><text fill="#000000" font-family="sans-serif" font-size="13" lengthAdjust="spacingAndGlyphs" textLength="24" x="1248.886" y="367.7784">0..1</text><!--link DateTimePeriod to SystemAvailability--><path d="M1861.79,288.08 C1872.47,306.606 1892,345.355 1892,381 C1892,381 1892,381 1892,863 C1892,913.1458 1538.1,936.5786 1391.47,944.1351 " fill="none" id="DateTimePeriod-SystemAvailability" style="stroke: #A80036; stroke-width: 1.0;"/><polygon fill="#A80036" points="1386.34,944.3972,1395.5338,947.9291,1391.3334,944.1401,1395.1224,939.9397,1386.34,944.3972" style="stroke: #A80036; stroke-width: 1.0;"/><text fill="#000000" font-family="sans-serif" font-size="13" lengthAdjust="spacingAndGlyphs" textLength="164" x="1893" y="643.0669">RelatedSystemAvailability</text><text fill="#000000" font-family="sans-serif" font-size="13" lengthAdjust="spacingAndGlyphs" textLength="8" x="1394.9308" y="938.7737">1</text><!--link Reconciliation to Trade--><path d="M1484.18,288.323 C1480.11,302.194 1471.26,325.399 1455,338 C1442.73,347.51 1433.33,336.571 1421,346 C1392.09,368.104 1410.27,395.082 1382,418 C1372.28,425.882 1363.68,416.981 1355,426 C1344.85,436.55 1325.01,531.619 1317.24,570.52 " fill="none" id="Reconciliation-Trade" style="stroke: #A80036; stroke-width: 1.0;"/><polygon fill="#A80036" points="1316.18,575.836,1321.8606,567.7905,1317.1565,570.9323,1314.0146,566.2281,1316.18,575.836" style="stroke: #A80036; stroke-width: 1.0;"/><text fill="#000000" font-family="sans-serif" font-size="13" lengthAdjust="spacingAndGlyphs" textLength="111" x="1356" y="439.0669">ReconciledTrades</text><text fill="#000000" font-family="sans-serif" font-size="13" lengthAdjust="spacingAndGlyphs" textLength="8" x="1306.0388" y="564.8278">1</text><!--link Reconciliation to Account--><path d="M1465.27,288.062 C1450.67,295.296 1430.9,304.719 1413,312 C1355.11,335.543 1285.82,358.141 1245.57,370.736 " fill="none" id="Reconciliation-Account" style="stroke: #A80036; stroke-width: 1.0;"/><polygon fill="#A80036" points="1240.33,372.371,1250.1121,373.5161,1245.1042,370.8853,1247.735,365.8774,1240.33,372.371" style="stroke: #A80036; stroke-width: 1.0;"/><text fill="#000000" font-family="sans-serif" font-size="13" lengthAdjust="spacingAndGlyphs" textLength="52" x="1393" y="333.0669">Account</text><text fill="#000000" font-family="sans-serif" font-size="13" lengthAdjust="spacingAndGlyphs" textLength="8" x="1248.5505" y="383.9134">1</text><!--link Negotiation to Trade--><path d="M1125.83,498.312 C1134.47,511.667 1150.59,533.624 1170,546 C1172.54,547.622 1247.14,568.457 1287.94,579.783 " fill="none" id="Negotiation-Trade" style="stroke: #A80036; stroke-width: 1.0;"/><polygon fill="#A80036" points="1293.22,581.249,1285.6242,574.9797,1288.4035,579.9067,1283.4766,582.6861,1293.22,581.249" style="stroke: #A80036; stroke-width: 1.0;"/><text fill="#000000" font-family="sans-serif" font-size="13" lengthAdjust="spacingAndGlyphs" textLength="98" x="1171" y="541.0669">TradeExecution</text><text fill="#000000" font-family="sans-serif" font-size="13" lengthAdjust="spacingAndGlyphs" textLength="8" x="1277.4858" y="593.5288">1</text><!--link Account to Account--><path d="M1240.51,372.938 C1258.18,370.753 1275,373.773 1275,382 C1275,389.391 1261.42,392.58 1245.85,391.567 " fill="none" id="Account-Account" style="stroke: #A80036; stroke-width: 1.0;"/><polygon fill="#A80036" points="1240.51,391.062,1249.0928,395.8926,1245.4877,391.5333,1249.847,387.9282,1240.51,391.062" style="stroke: #A80036; stroke-width: 1.0;"/><text fill="#000000" font-family="sans-serif" font-size="13" lengthAdjust="spacingAndGlyphs" textLength="94" x="1281" y="386.0669">ParentAccount</text><text fill="#000000" font-family="sans-serif" font-size="13" lengthAdjust="spacingAndGlyphs" textLength="8" x="1248.7766" y="407.3939">1</text></g></svg>