<?xml version="1.0" encoding="UTF-8" standalone="no"?><svg xmlns="http://www.w3.org/2000/svg" xmlns:xlink="http://www.w3.org/1999/xlink" contentScriptType="application/ecmascript" contentStyleType="text/css" height="498px" preserveAspectRatio="none" style="width:1340px;height:498px;" version="1.1" viewBox="0 0 1340 498" width="1340px" zoomAndPan="magnify"><defs><filter height="300%" id="f1nvxneqtg04qu" width="300%" x="-1" y="-1"><feGaussianBlur result="blurOut" stdDeviation="2.0"/><feColorMatrix in="blurOut" result="blurOut2" type="matrix" values="0 0 0 0 0 0 0 0 0 0 0 0 0 0 0 0 0 0 .4 0"/><feOffset dx="4.0" dy="4.0" in="blurOut2" result="blurOut3"/><feBlend in="SourceGraphic" in2="blurOut3" mode="normal"/></filter></defs><g><!--cluster ##17546--><!--cluster ##17558--><!--cluster ##17567--><!--cluster ##17572--><!--class Role--><a target="_top" xlink:actuate="onRequest" xlink:href="../Role.html" xlink:show="new" xlink:title="Role of a party in an activity." xlink:type="simple"><rect fill="#FEFEEE" filter="url(#f1nvxneqtg04qu)" height="44.7734" id="Role" style="stroke: #A80036; stroke-width: 1.5;" width="175" x="64.75" y="40.5"/><rect fill="#FEFEEE" height="23.9688" style="stroke: #A80036; stroke-width: 1.5;" width="175" x="64.75" y="40.5"/><text fill="#000000" font-family="sans-serif" font-size="12" lengthAdjust="spacingAndGlyphs" textLength="27" x="138.75" y="56.6387">Role</text><line style="stroke: #A80036; stroke-width: 1.5;" x1="65.75" x2="238.75" y1="64.4688" y2="64.4688"/><ellipse cx="75.75" cy="76.3711" fill="#84BE84" rx="3" ry="3" style="stroke: #038048; stroke-width: 1.0;"/><text fill="#000000" font-family="sans-serif" font-size="11" lengthAdjust="spacingAndGlyphs" textLength="53" x="84.75" y="78.6792">PartyRole</text><text fill="#000000" font-family="sans-serif" font-size="11" font-style="italic" lengthAdjust="spacingAndGlyphs" textLength="92" x="141.75" y="78.6792">(PartyRoleCode)</text></a><!--class SettlementPartyRole--><a target="_top" xlink:actuate="onRequest" xlink:href="../SettlementPartyRole.html" xlink:show="new" xlink:title="Role played by a party in a settlement process." xlink:type="simple"><rect fill="#FEFEEE" filter="url(#f1nvxneqtg04qu)" height="23.9688" id="SettlementPartyRole" style="stroke: #A80036; stroke-width: 1.5;" width="134" x="96" y="166"/><rect fill="#FEFEEE" height="23.9688" style="stroke: #A80036; stroke-width: 1.5;" width="134" x="96" y="166"/><text fill="#000000" font-family="sans-serif" font-size="12" lengthAdjust="spacingAndGlyphs" textLength="128" x="99" y="182.1387">SettlementPartyRole</text></a><!--class TreasurySettlementPartyRole--><a target="_top" xlink:actuate="onRequest" xlink:href="../TreasurySettlementPartyRole.html" xlink:show="new" xlink:title="Role played by a party in the context of the settlement of a treasury trade." xlink:type="simple"><rect fill="#FEFECE" filter="url(#f1nvxneqtg04qu)" height="23.9688" id="TreasurySettlementPartyRole" style="stroke: #A80036; stroke-width: 1.5;" width="188" x="52" y="270"/><rect fill="#FEFECE" height="23.9688" style="stroke: #A80036; stroke-width: 1.5;" width="188" x="52" y="270"/><text fill="#000000" font-family="sans-serif" font-size="12" lengthAdjust="spacingAndGlyphs" textLength="182" x="55" y="286.1387">TreasurySettlementPartyRole</text></a><!--class TreasurySettlementSystemRole--><a target="_top" xlink:actuate="onRequest" xlink:href="../TreasurySettlementSystemRole.html" xlink:show="new" xlink:title="System involved in the settlement chain of one leg of a treasury trade." xlink:type="simple"><rect fill="#FEFEEE" filter="url(#f1nvxneqtg04qu)" height="23.9688" id="TreasurySettlementSystemRole" style="stroke: #A80036; stroke-width: 1.5;" width="201" x="38.75" y="374"/><rect fill="#FEFEEE" height="23.9688" style="stroke: #A80036; stroke-width: 1.5;" width="201" x="38.75" y="374"/><text fill="#000000" font-family="sans-serif" font-size="12" lengthAdjust="spacingAndGlyphs" textLength="195" x="41.75" y="390.1387">TreasurySettlementSystemRole</text></a><!--class RolePlayer--><a target="_top" xlink:actuate="onRequest" xlink:href="../RolePlayer.html" xlink:show="new" xlink:title="Type of entity that plays a specific role in a specific context." xlink:type="simple"><rect fill="#EEEEEE" filter="url(#f1nvxneqtg04qu)" height="23.9688" id="RolePlayer" style="stroke: #A80036; stroke-width: 1.5;" width="71" x="915.75" y="464"/><rect fill="#EEEEEE" height="23.9688" style="stroke: #A80036; stroke-width: 1.5;" width="71" x="915.75" y="464"/><text fill="#000000" font-family="sans-serif" font-size="12" lengthAdjust="spacingAndGlyphs" textLength="65" x="918.75" y="480.1387">RolePlayer</text></a><!--class ContactPersonRole--><a target="_top" xlink:actuate="onRequest" xlink:href="../ContactPersonRole.html" xlink:show="new" xlink:title="Person to be contacted in a given organisation. In the corporate action domain (including meeting notifications) , it is the contact person at the party organising the meeting, at the issuer or at an intermediary." xlink:type="simple"><rect fill="#EEEEEE" filter="url(#f1nvxneqtg04qu)" height="23.9688" id="ContactPersonRole" style="stroke: #A80036; stroke-width: 1.5;" width="126" x="868" y="374"/><rect fill="#EEEEEE" height="23.9688" style="stroke: #A80036; stroke-width: 1.5;" width="126" x="868" y="374"/><text fill="#000000" font-family="sans-serif" font-size="12" lengthAdjust="spacingAndGlyphs" textLength="120" x="871" y="390.1387">ContactPersonRole</text></a><!--class CounterpartyRisk--><a target="_top" xlink:actuate="onRequest" xlink:href="../CounterpartyRisk.html" xlink:show="new" xlink:title="Calculation of the exposure amount that one party has vis-a-vis one counterparty or a central system, based on its credit risk." xlink:type="simple"><rect fill="#EEEEEE" filter="url(#f1nvxneqtg04qu)" height="23.9688" id="CounterpartyRisk" style="stroke: #A80036; stroke-width: 1.5;" width="113" x="880.75" y="270"/><rect fill="#EEEEEE" height="23.9688" style="stroke: #A80036; stroke-width: 1.5;" width="113" x="880.75" y="270"/><text fill="#000000" font-family="sans-serif" font-size="12" lengthAdjust="spacingAndGlyphs" textLength="107" x="883.75" y="286.1387">CounterpartyRisk</text></a><!--class Entry--><a target="_top" xlink:actuate="onRequest" xlink:href="../Entry.html" xlink:show="new" xlink:title="Posting to an account that results in an increase or decrease to a balance." xlink:type="simple"><rect fill="#EEEEEE" filter="url(#f1nvxneqtg04qu)" height="23.9688" id="Entry" style="stroke: #A80036; stroke-width: 1.5;" width="38" x="868" y="166"/><rect fill="#EEEEEE" height="23.9688" style="stroke: #A80036; stroke-width: 1.5;" width="38" x="868" y="166"/><text fill="#000000" font-family="sans-serif" font-size="12" lengthAdjust="spacingAndGlyphs" textLength="32" x="871" y="182.1387">Entry</text></a><!--class Account--><a target="_top" xlink:actuate="onRequest" xlink:href="../Account.html" xlink:show="new" xlink:title="Record of transactions in specific types of assets, maintained by a servicing party on behalf of one or more owning parties. Business relationship between an account servicer and one or more account owners." xlink:type="simple"><rect fill="#EEEEEE" filter="url(#f1nvxneqtg04qu)" height="23.9688" id="Account" style="stroke: #A80036; stroke-width: 1.5;" width="57" x="448.75" y="374"/><rect fill="#EEEEEE" height="23.9688" style="stroke: #A80036; stroke-width: 1.5;" width="57" x="448.75" y="374"/><text fill="#000000" font-family="sans-serif" font-size="12" lengthAdjust="spacingAndGlyphs" textLength="51" x="451.75" y="390.1387">Account</text></a><!--class Settlement--><a target="_top" xlink:actuate="onRequest" xlink:href="../Settlement.html" xlink:show="new" xlink:title="Process which consists in transferring the proceeds related to a trade from one party to the next one." xlink:type="simple"><rect fill="#EEEEEE" filter="url(#f1nvxneqtg04qu)" height="23.9688" id="Settlement" style="stroke: #A80036; stroke-width: 1.5;" width="75" x="447.75" y="270"/><rect fill="#EEEEEE" height="23.9688" style="stroke: #A80036; stroke-width: 1.5;" width="75" x="447.75" y="270"/><text fill="#000000" font-family="sans-serif" font-size="12" lengthAdjust="spacingAndGlyphs" textLength="69" x="450.75" y="286.1387">Settlement</text></a><!--class TreasuryTrade--><a target="_top" xlink:actuate="onRequest" xlink:href="../TreasuryTrade.html" xlink:show="new" xlink:title="Specifies trades linked to treasury operations such as the exchange of currencies, the lending of cash amounts and the related derivatives trades (options and non deliverable trades)." xlink:type="simple"><rect fill="#EEEEEE" filter="url(#f1nvxneqtg04qu)" height="23.9688" id="TreasuryTrade" style="stroke: #A80036; stroke-width: 1.5;" width="96" x="296" y="374"/><rect fill="#EEEEEE" height="23.9688" style="stroke: #A80036; stroke-width: 1.5;" width="96" x="296" y="374"/><text fill="#000000" font-family="sans-serif" font-size="12" lengthAdjust="spacingAndGlyphs" textLength="90" x="299" y="390.1387">TreasuryTrade</text></a><!--link Role to SettlementPartyRole--><path d="M156.046,105.559 C158.148,127.159 160.556,151.898 161.916,165.865 " fill="none" id="Role-SettlementPartyRole" style="stroke: #A80036; stroke-width: 1.0;"/><polygon fill="none" points="149.066,106.105,154.095,85.52,163,104.748,149.066,106.105" style="stroke: #A80036; stroke-width: 1.0;"/><!--link SettlementPartyRole to TreasurySettlementPartyRole--><path d="M157.789,210.267 C154.408,230.554 150.206,255.766 147.841,269.954 " fill="none" id="SettlementPartyRole-TreasurySettlementPartyRole" style="stroke: #A80036; stroke-width: 1.0;"/><polygon fill="none" points="150.923,208.883,161.116,190.306,164.732,211.184,150.923,208.883" style="stroke: #A80036; stroke-width: 1.0;"/><!--link TreasurySettlementPartyRole to TreasurySettlementSystemRole--><path d="M143.854,314.267 C142.462,334.554 140.732,359.766 139.758,373.954 " fill="none" id="TreasurySettlementPartyRole-TreasurySettlementSystemRole" style="stroke: #A80036; stroke-width: 1.0;"/><polygon fill="none" points="136.871,313.779,145.224,294.306,150.838,314.738,136.871,313.779" style="stroke: #A80036; stroke-width: 1.0;"/><!--link ContactPersonRole to RolePlayer--><!--link CounterpartyRisk to ContactPersonRole--><!--link Entry to CounterpartyRisk--><!--link Settlement to Account--><!--link Role to RolePlayer--><path d="M239.254,63.559 C505.262,63.357 1288,71.709 1288,177 C1288,177 1288,177 1288,387 C1288,447.6217 1081.27,467.2654 991.642,472.9332 " fill="none" id="Role-RolePlayer" style="stroke: #A80036; stroke-width: 1.0;"/><polygon fill="#A80036" points="986.428,473.2555,995.6577,476.6924,991.4185,472.9469,995.164,468.7077,986.428,473.2555" style="stroke: #A80036; stroke-width: 1.0;"/><text fill="#000000" font-family="sans-serif" font-size="13" lengthAdjust="spacingAndGlyphs" textLength="39" x="1289" y="286.0669">Player</text><text fill="#000000" font-family="sans-serif" font-size="13" lengthAdjust="spacingAndGlyphs" textLength="7" x="994.8888" y="466.8806">*</text><!--link Role to ContactPersonRole--><path d="M239.276,64.642 C457.474,67.181 1013.05,79.754 1066,142 C1131.09,218.517 1001.084,331.252 950.209,370.724 " fill="none" id="Role-ContactPersonRole" style="stroke: #A80036; stroke-width: 1.0;"/><polygon fill="#A80036" points="946.112,373.876,955.6844,371.5588,950.075,370.8273,950.8065,365.2179,946.112,373.876" style="stroke: #A80036; stroke-width: 1.0;"/><text fill="#000000" font-family="sans-serif" font-size="13" lengthAdjust="spacingAndGlyphs" textLength="121" x="1079" y="233.0669">ContactPersonRole</text><text fill="#000000" font-family="sans-serif" font-size="13" lengthAdjust="spacingAndGlyphs" textLength="8" x="940.588" y="362.8816">1</text><!--link Role to CounterpartyRisk--><path d="M239.353,66.722 C431.058,73.552 875.415,94.394 923,142 C955.606,174.621 947.496,235.478 941.168,264.622 " fill="none" id="Role-CounterpartyRisk" style="stroke: #A80036; stroke-width: 1.0;"/><polygon fill="#A80036" points="940.017,269.68,945.9128,261.7908,941.1255,264.8044,938.1119,260.0172,940.017,269.68" style="stroke: #A80036; stroke-width: 1.0;"/><text fill="#000000" font-family="sans-serif" font-size="13" lengthAdjust="spacingAndGlyphs" textLength="109" x="947" y="182.0669">CounterpartyRisk</text><text fill="#000000" font-family="sans-serif" font-size="13" lengthAdjust="spacingAndGlyphs" textLength="24" x="911.6273" y="258.8774">0..1</text><!--link Role to Entry--><path d="M239.564,77.462 C407.305,103.251 765.906,158.383 862.569,173.244 " fill="none" id="Role-Entry" style="stroke: #A80036; stroke-width: 1.0;"/><polygon fill="#A80036" points="867.768,174.043,859.4807,168.7214,862.8261,173.2829,858.2645,176.6284,867.768,174.043" style="stroke: #A80036; stroke-width: 1.0;"/><text fill="#000000" font-family="sans-serif" font-size="13" lengthAdjust="spacingAndGlyphs" textLength="33" x="608" y="129.0669">Entry</text><text fill="#000000" font-family="sans-serif" font-size="13" lengthAdjust="spacingAndGlyphs" textLength="8" x="851.9528" y="166.6294">1</text><!--link SettlementPartyRole to Account--><path d="M230.083,180.733 C327.737,184.861 501.519,198.821 539,246 C570.332,285.439 520.625,343.215 493.195,370.151 " fill="none" id="SettlementPartyRole-Account" style="stroke: #A80036; stroke-width: 1.0;"/><polygon fill="#A80036" points="489.322,373.896,498.5731,370.5169,492.917,370.421,493.013,364.7649,489.322,373.896" style="stroke: #A80036; stroke-width: 1.0;"/><text fill="#000000" font-family="sans-serif" font-size="13" lengthAdjust="spacingAndGlyphs" textLength="124" x="551" y="286.0669">SettlementAccount</text><text fill="#000000" font-family="sans-serif" font-size="13" lengthAdjust="spacingAndGlyphs" textLength="8" x="482.753" y="362.9085">1</text><!--link SettlementPartyRole to Settlement--><path d="M197.766,190.013 C257.993,209.091 381.378,248.176 445.04,268.342 " fill="none" id="SettlementPartyRole-Settlement" style="stroke: #A80036; stroke-width: 1.0;"/><polygon fill="#A80036" points="449.891,269.879,442.519,263.348,445.1244,268.3692,440.1033,270.9746,449.891,269.879" style="stroke: #A80036; stroke-width: 1.0;"/><text fill="#000000" font-family="sans-serif" font-size="13" lengthAdjust="spacingAndGlyphs" textLength="72" x="345" y="233.0669">Settlement</text><text fill="#000000" font-family="sans-serif" font-size="13" lengthAdjust="spacingAndGlyphs" textLength="8" x="431.558" y="261.1963">1</text><!--link TreasurySettlementPartyRole to TreasuryTrade--><path d="M167.566,294.11 C204.166,312.964 278.303,351.156 317.818,371.512 " fill="none" id="TreasurySettlementPartyRole-TreasuryTrade" style="stroke: #A80036; stroke-width: 1.0;"/><polygon fill="#A80036" points="322.46,373.904,316.2908,366.2267,318.015,371.6144,312.6274,373.3387,322.46,373.904" style="stroke: #A80036; stroke-width: 1.0;"/><text fill="#000000" font-family="sans-serif" font-size="13" lengthAdjust="spacingAndGlyphs" textLength="91" x="258" y="337.0669">TreasuryTrade</text><text fill="#000000" font-family="sans-serif" font-size="13" lengthAdjust="spacingAndGlyphs" textLength="8" x="304.3369" y="362.9192">1</text><!--link Entry to Account--><path d="M868.969,190.121 C834.075,211.448 754.615,259.077 685,294 C624.23,324.486 550.923,355.202 509.562,371.999 " fill="none" id="Entry-Account" style="stroke: #A80036; stroke-width: 1.0;"/><polygon fill="#A80036" points="504.68,373.977,514.5235,374.3019,509.3136,372.0981,511.5173,366.8882,504.68,373.977" style="stroke: #A80036; stroke-width: 1.0;"/><text fill="#000000" font-family="sans-serif" font-size="13" lengthAdjust="spacingAndGlyphs" textLength="52" x="774" y="286.0669">Account</text><text fill="#000000" font-family="sans-serif" font-size="13" lengthAdjust="spacingAndGlyphs" textLength="7" x="504.5622" y="363.0173">*</text><!--link Account to Account--><path d="M505.508,377.984 C523.181,376.051 540,378.723 540,386 C540,392.538 526.424,395.359 510.85,394.463 " fill="none" id="Account-Account" style="stroke: #A80036; stroke-width: 1.0;"/><polygon fill="#A80036" points="505.508,394.016,514.1443,398.7504,510.4907,394.4317,514.8094,390.7781,505.508,394.016" style="stroke: #A80036; stroke-width: 1.0;"/><text fill="#000000" font-family="sans-serif" font-size="13" lengthAdjust="spacingAndGlyphs" textLength="94" x="546" y="390.0669">ParentAccount</text><text fill="#000000" font-family="sans-serif" font-size="13" lengthAdjust="spacingAndGlyphs" textLength="8" x="513.7741" y="389.9799">1</text></g></svg>