<?xml version="1.0" encoding="UTF-8" standalone="no"?><svg xmlns="http://www.w3.org/2000/svg" xmlns:xlink="http://www.w3.org/1999/xlink" contentScriptType="application/ecmascript" contentStyleType="text/css" height="478px" preserveAspectRatio="none" style="width:771px;height:478px;" version="1.1" viewBox="0 0 771 478" width="771px" zoomAndPan="magnify"><defs><filter height="300%" id="f1czve3mcefqf3" width="300%" x="-1" y="-1"><feGaussianBlur result="blurOut" stdDeviation="2.0"/><feColorMatrix in="blurOut" result="blurOut2" type="matrix" values="0 0 0 0 0 0 0 0 0 0 0 0 0 0 0 0 0 0 .4 0"/><feOffset dx="4.0" dy="4.0" in="blurOut2" result="blurOut3"/><feBlend in="SourceGraphic" in2="blurOut3" mode="normal"/></filter></defs><g><!--cluster ##14616--><!--cluster ##14625--><!--cluster ##14634--><!--class Role--><a target="_top" xlink:actuate="onRequest" xlink:href="../Role.html" xlink:show="new" xlink:title="Role of a party in an activity." xlink:type="simple"><rect fill="#FEFEEE" filter="url(#f1czve3mcefqf3)" height="44.7734" id="Role" style="stroke: #A80036; stroke-width: 1.5;" width="175" x="51.75" y="40.5"/><rect fill="#FEFEEE" height="23.9688" style="stroke: #A80036; stroke-width: 1.5;" width="175" x="51.75" y="40.5"/><text fill="#000000" font-family="sans-serif" font-size="12" lengthAdjust="spacingAndGlyphs" textLength="27" x="125.75" y="56.6387">Role</text><line style="stroke: #A80036; stroke-width: 1.5;" x1="52.75" x2="225.75" y1="64.4688" y2="64.4688"/><ellipse cx="62.75" cy="76.3711" fill="#84BE84" rx="3" ry="3" style="stroke: #038048; stroke-width: 1.0;"/><text fill="#000000" font-family="sans-serif" font-size="11" lengthAdjust="spacingAndGlyphs" textLength="53" x="71.75" y="78.6792">PartyRole</text><text fill="#000000" font-family="sans-serif" font-size="11" font-style="italic" lengthAdjust="spacingAndGlyphs" textLength="92" x="128.75" y="78.6792">(PartyRoleCode)</text></a><!--class UndertakingPartyRole--><a target="_top" xlink:actuate="onRequest" xlink:href="../UndertakingPartyRole.html" xlink:show="new" xlink:title="Role played by a party in the context of an undertaking." xlink:type="simple"><rect fill="#FEFEEE" filter="url(#f1czve3mcefqf3)" height="23.9688" id="UndertakingPartyRole" style="stroke: #A80036; stroke-width: 1.5;" width="142" x="81" y="166"/><rect fill="#FEFEEE" height="23.9688" style="stroke: #A80036; stroke-width: 1.5;" width="142" x="81" y="166"/><text fill="#000000" font-family="sans-serif" font-size="12" lengthAdjust="spacingAndGlyphs" textLength="136" x="84" y="182.1387">UndertakingPartyRole</text></a><!--class UndertakingApplicant--><a target="_top" xlink:actuate="onRequest" xlink:href="../UndertakingApplicant.html" xlink:show="new" xlink:title="Party named in an undertaking as the party on whose behalf the undertaking is issued." xlink:type="simple"><rect fill="#FEFECE" filter="url(#f1czve3mcefqf3)" height="23.9688" id="UndertakingApplicant" style="stroke: #A80036; stroke-width: 1.5;" width="141" x="81.75" y="270"/><rect fill="#FEFECE" height="23.9688" style="stroke: #A80036; stroke-width: 1.5;" width="141" x="81.75" y="270"/><text fill="#000000" font-family="sans-serif" font-size="12" lengthAdjust="spacingAndGlyphs" textLength="135" x="84.75" y="286.1387">UndertakingApplicant</text></a><!--class RolePlayer--><a target="_top" xlink:actuate="onRequest" xlink:href="../RolePlayer.html" xlink:show="new" xlink:title="Type of entity that plays a specific role in a specific context." xlink:type="simple"><rect fill="#EEEEEE" filter="url(#f1czve3mcefqf3)" height="23.9688" id="RolePlayer" style="stroke: #A80036; stroke-width: 1.5;" width="71" x="580.75" y="444"/><rect fill="#EEEEEE" height="23.9688" style="stroke: #A80036; stroke-width: 1.5;" width="71" x="580.75" y="444"/><text fill="#000000" font-family="sans-serif" font-size="12" lengthAdjust="spacingAndGlyphs" textLength="65" x="583.75" y="460.1387">RolePlayer</text></a><!--class ContactPersonRole--><a target="_top" xlink:actuate="onRequest" xlink:href="../ContactPersonRole.html" xlink:show="new" xlink:title="Person to be contacted in a given organisation. In the corporate action domain (including meeting notifications) , it is the contact person at the party organising the meeting, at the issuer or at an intermediary." xlink:type="simple"><rect fill="#EEEEEE" filter="url(#f1czve3mcefqf3)" height="23.9688" id="ContactPersonRole" style="stroke: #A80036; stroke-width: 1.5;" width="126" x="573" y="358"/><rect fill="#EEEEEE" height="23.9688" style="stroke: #A80036; stroke-width: 1.5;" width="126" x="573" y="358"/><text fill="#000000" font-family="sans-serif" font-size="12" lengthAdjust="spacingAndGlyphs" textLength="120" x="576" y="374.1387">ContactPersonRole</text></a><!--class CounterpartyRisk--><a target="_top" xlink:actuate="onRequest" xlink:href="../CounterpartyRisk.html" xlink:show="new" xlink:title="Calculation of the exposure amount that one party has vis-a-vis one counterparty or a central system, based on its credit risk." xlink:type="simple"><rect fill="#EEEEEE" filter="url(#f1czve3mcefqf3)" height="23.9688" id="CounterpartyRisk" style="stroke: #A80036; stroke-width: 1.5;" width="113" x="585.75" y="270"/><rect fill="#EEEEEE" height="23.9688" style="stroke: #A80036; stroke-width: 1.5;" width="113" x="585.75" y="270"/><text fill="#000000" font-family="sans-serif" font-size="12" lengthAdjust="spacingAndGlyphs" textLength="107" x="588.75" y="286.1387">CounterpartyRisk</text></a><!--class Entry--><a target="_top" xlink:actuate="onRequest" xlink:href="../Entry.html" xlink:show="new" xlink:title="Posting to an account that results in an increase or decrease to a balance." xlink:type="simple"><rect fill="#EEEEEE" filter="url(#f1czve3mcefqf3)" height="23.9688" id="Entry" style="stroke: #A80036; stroke-width: 1.5;" width="38" x="573" y="166"/><rect fill="#EEEEEE" height="23.9688" style="stroke: #A80036; stroke-width: 1.5;" width="38" x="573" y="166"/><text fill="#000000" font-family="sans-serif" font-size="12" lengthAdjust="spacingAndGlyphs" textLength="32" x="576" y="182.1387">Entry</text></a><!--class Undertaking--><a target="_top" xlink:actuate="onRequest" xlink:href="../Undertaking.html" xlink:show="new" xlink:title="Independent undertaking, such as a demand guarantee or standby letter of credit, that provides financial assurance, to be collected on the presentation of documents that comply with its terms and conditions." xlink:type="simple"><rect fill="#EEEEEE" filter="url(#f1czve3mcefqf3)" height="23.9688" id="Undertaking" style="stroke: #A80036; stroke-width: 1.5;" width="83" x="283.75" y="270"/><rect fill="#EEEEEE" height="23.9688" style="stroke: #A80036; stroke-width: 1.5;" width="83" x="283.75" y="270"/><text fill="#000000" font-family="sans-serif" font-size="12" lengthAdjust="spacingAndGlyphs" textLength="77" x="286.75" y="286.1387">Undertaking</text></a><!--entity ##14637--><!--link Role to UndertakingPartyRole--><path d="M143.781,105.559 C146.266,127.159 149.112,151.898 150.719,165.865 " fill="none" id="Role-UndertakingPartyRole" style="stroke: #A80036; stroke-width: 1.0;"/><polygon fill="none" points="136.808,106.189,141.476,85.52,150.716,104.589,136.808,106.189" style="stroke: #A80036; stroke-width: 1.0;"/><!--link UndertakingPartyRole to UndertakingApplicant--><path d="M152,210.595 C152,230.825 152,255.843 152,269.954 " fill="none" id="UndertakingPartyRole-UndertakingApplicant" style="stroke: #A80036; stroke-width: 1.0;"/><polygon fill="none" points="145,210.306,152,190.306,159,210.305,145,210.306" style="stroke: #A80036; stroke-width: 1.0;"/><!--link ContactPersonRole to RolePlayer--><!--link CounterpartyRisk to ContactPersonRole--><!--link Entry to CounterpartyRisk--><!--link Role to RolePlayer--><path d="M226.396,79.63 C314.328,97.912 437,131.56 437,177 C437,177 437,177 437,371 C437,431.8572 522.842,448.7099 575.634,453.3199 " fill="none" id="Role-RolePlayer" style="stroke: #A80036; stroke-width: 1.0;"/><polygon fill="#A80036" points="580.635,453.7288,571.9919,449.0068,575.6517,453.3202,571.3382,456.98,580.635,453.7288" style="stroke: #A80036; stroke-width: 1.0;"/><text fill="#000000" font-family="sans-serif" font-size="13" lengthAdjust="spacingAndGlyphs" textLength="39" x="438" y="286.0669">Player</text><text fill="#000000" font-family="sans-serif" font-size="13" lengthAdjust="spacingAndGlyphs" textLength="7" x="565.7402" y="447.9585">*</text><!--link Role to ContactPersonRole--><path d="M226.451,68.506 C309.655,74.448 427.29,87.681 463,116 C508.914,152.412 485.131,186.452 513,238 C533.52,275.956 538.125,286.868 568,318 C581.704,332.281 599.714,345.597 613.757,355.039 " fill="none" id="Role-ContactPersonRole" style="stroke: #A80036; stroke-width: 1.0;"/><polygon fill="#A80036" points="617.978,357.842,612.6906,349.5328,613.8118,355.0774,608.2672,356.1987,617.978,357.842" style="stroke: #A80036; stroke-width: 1.0;"/><text fill="#000000" font-family="sans-serif" font-size="13" lengthAdjust="spacingAndGlyphs" textLength="121" x="514" y="233.0669">ContactPersonRole</text><text fill="#000000" font-family="sans-serif" font-size="13" lengthAdjust="spacingAndGlyphs" textLength="8" x="601.0642" y="346.8359">1</text><!--link Role to CounterpartyRisk--><path d="M226.38,65.336 C344.248,68.534 546.726,79.364 610,116 C641.027,133.965 655.798,218.796 656,220 C658.586,235.376 653.874,252.681 649.233,264.921 " fill="none" id="Role-CounterpartyRisk" style="stroke: #A80036; stroke-width: 1.0;"/><polygon fill="#A80036" points="647.27,269.837,654.322,262.9618,649.124,265.1934,646.8923,259.9954,647.27,269.837" style="stroke: #A80036; stroke-width: 1.0;"/><text fill="#000000" font-family="sans-serif" font-size="13" lengthAdjust="spacingAndGlyphs" textLength="109" x="650" y="182.0669">CounterpartyRisk</text><text fill="#000000" font-family="sans-serif" font-size="13" lengthAdjust="spacingAndGlyphs" textLength="24" x="619.5269" y="258.8292">0..1</text><!--link Role to Entry--><path d="M226.391,67.28 C329.424,72.496 493.324,85.427 546,116 C563.934,126.409 577.118,146.852 584.666,161.193 " fill="none" id="Role-Entry" style="stroke: #A80036; stroke-width: 1.0;"/><polygon fill="#A80036" points="587.009,165.8,586.4939,155.9646,584.7421,161.3434,579.3634,159.5916,587.009,165.8" style="stroke: #A80036; stroke-width: 1.0;"/><text fill="#000000" font-family="sans-serif" font-size="13" lengthAdjust="spacingAndGlyphs" textLength="33" x="567" y="129.0669">Entry</text><text fill="#000000" font-family="sans-serif" font-size="13" lengthAdjust="spacingAndGlyphs" textLength="8" x="574.6995" y="155.0372">1</text><!--link UndertakingPartyRole to Undertaking--><path d="M170.843,190.11 C202.692,208.887 267.072,246.846 301.701,267.263 " fill="none" id="UndertakingPartyRole-Undertaking" style="stroke: #A80036; stroke-width: 1.0;"/><polygon fill="#A80036" points="306.18,269.904,300.4595,261.8868,301.8731,267.3642,296.3957,268.7778,306.18,269.904" style="stroke: #A80036; stroke-width: 1.0;"/><text fill="#000000" font-family="sans-serif" font-size="13" lengthAdjust="spacingAndGlyphs" textLength="78" x="250" y="233.0669">Undertaking</text><text fill="#000000" font-family="sans-serif" font-size="13" lengthAdjust="spacingAndGlyphs" textLength="8" x="288.9059" y="258.9192">1</text></g></svg>