<?xml version="1.0" encoding="UTF-8" standalone="no"?><svg xmlns="http://www.w3.org/2000/svg" xmlns:xlink="http://www.w3.org/1999/xlink" contentScriptType="application/ecmascript" contentStyleType="text/css" height="1350px" preserveAspectRatio="none" style="width:2696px;height:1350px;" version="1.1" viewBox="0 0 2696 1350" width="2696px" zoomAndPan="magnify"><defs><filter height="300%" id="f1bllskzbwxqcq" width="300%" x="-1" y="-1"><feGaussianBlur result="blurOut" stdDeviation="2.0"/><feColorMatrix in="blurOut" result="blurOut2" type="matrix" values="0 0 0 0 0 0 0 0 0 0 0 0 0 0 0 0 0 0 .4 0"/><feOffset dx="4.0" dy="4.0" in="blurOut2" result="blurOut3"/><feBlend in="SourceGraphic" in2="blurOut3" mode="normal"/></filter></defs><g><!--cluster ##14250--><!--cluster ##14259--><!--cluster ##14290--><!--class Document--><a target="_top" xlink:actuate="onRequest" xlink:href="../Document.html" xlink:show="new" xlink:title="General information that unambiguously identifies a document, such as identification number and issue date time." xlink:type="simple"><rect fill="#FEFEEE" filter="url(#f1bllskzbwxqcq)" height="172.8203" id="Document" style="stroke: #A80036; stroke-width: 1.5;" width="249" x="1311.75" y="40.5"/><rect fill="#FEFEEE" height="23.9688" style="stroke: #A80036; stroke-width: 1.5;" width="249" x="1311.75" y="40.5"/><text fill="#000000" font-family="sans-serif" font-size="12" lengthAdjust="spacingAndGlyphs" textLength="64" x="1404.25" y="56.6387">Document</text><line style="stroke: #A80036; stroke-width: 1.5;" x1="1312.75" x2="1559.75" y1="64.4688" y2="64.4688"/><ellipse cx="1322.75" cy="76.3711" fill="#84BE84" rx="3" ry="3" style="stroke: #038048; stroke-width: 1.0;"/><text fill="#000000" font-family="sans-serif" font-size="11" lengthAdjust="spacingAndGlyphs" textLength="57" x="1331.75" y="78.6792">IssueDate</text><text fill="#000000" font-family="sans-serif" font-size="11" font-style="italic" lengthAdjust="spacingAndGlyphs" textLength="81" x="1392.75" y="78.6792">(ISODateTime)</text><ellipse cx="1322.75" cy="89.1758" fill="#84BE84" rx="3" ry="3" style="stroke: #038048; stroke-width: 1.0;"/><text fill="#000000" font-family="sans-serif" font-size="11" lengthAdjust="spacingAndGlyphs" textLength="80" x="1331.75" y="91.4839">CopyDuplicate</text><text fill="#000000" font-family="sans-serif" font-size="11" font-style="italic" lengthAdjust="spacingAndGlyphs" textLength="118" x="1415.75" y="91.4839">(CopyDuplicateCode)</text><ellipse cx="1322.75" cy="101.9805" fill="#84BE84" rx="3" ry="3" style="stroke: #038048; stroke-width: 1.0;"/><text fill="#000000" font-family="sans-serif" font-size="11" lengthAdjust="spacingAndGlyphs" textLength="27" x="1331.75" y="104.2886">Type</text><text fill="#000000" font-family="sans-serif" font-size="11" font-style="italic" lengthAdjust="spacingAndGlyphs" textLength="122" x="1362.75" y="104.2886">(DocumentTypeCode)</text><ellipse cx="1322.75" cy="114.7852" fill="#84BE84" rx="3" ry="3" style="stroke: #038048; stroke-width: 1.0;"/><text fill="#000000" font-family="sans-serif" font-size="11" lengthAdjust="spacingAndGlyphs" textLength="43" x="1331.75" y="117.0933">Amount</text><text fill="#000000" font-family="sans-serif" font-size="11" font-style="italic" lengthAdjust="spacingAndGlyphs" textLength="161" x="1378.75" y="117.0933">(ActiveCurrencyAndAmount)</text><ellipse cx="1322.75" cy="127.5898" fill="#84BE84" rx="3" ry="3" style="stroke: #038048; stroke-width: 1.0;"/><text fill="#000000" font-family="sans-serif" font-size="11" lengthAdjust="spacingAndGlyphs" textLength="100" x="1331.75" y="129.8979">DocumentVersion</text><text fill="#000000" font-family="sans-serif" font-size="11" font-style="italic" lengthAdjust="spacingAndGlyphs" textLength="53" x="1435.75" y="129.8979">(Number)</text><ellipse cx="1322.75" cy="140.3945" fill="#84BE84" rx="3" ry="3" style="stroke: #038048; stroke-width: 1.0;"/><text fill="#000000" font-family="sans-serif" font-size="11" lengthAdjust="spacingAndGlyphs" textLength="37" x="1331.75" y="142.7026">Status</text><text fill="#000000" font-family="sans-serif" font-size="11" font-style="italic" lengthAdjust="spacingAndGlyphs" textLength="77" x="1372.75" y="142.7026">(Max140Text)</text><ellipse cx="1322.75" cy="153.1992" fill="#84BE84" rx="3" ry="3" style="stroke: #038048; stroke-width: 1.0;"/><text fill="#000000" font-family="sans-serif" font-size="11" lengthAdjust="spacingAndGlyphs" textLength="72" x="1331.75" y="155.5073">DataSetType</text><text fill="#000000" font-family="sans-serif" font-size="11" font-style="italic" lengthAdjust="spacingAndGlyphs" textLength="109" x="1407.75" y="155.5073">(DataSetTypeCode)</text><ellipse cx="1322.75" cy="166.0039" fill="#84BE84" rx="3" ry="3" style="stroke: #038048; stroke-width: 1.0;"/><text fill="#000000" font-family="sans-serif" font-size="11" lengthAdjust="spacingAndGlyphs" textLength="88" x="1331.75" y="168.312">SignedIndicator</text><text fill="#000000" font-family="sans-serif" font-size="11" font-style="italic" lengthAdjust="spacingAndGlyphs" textLength="92" x="1423.75" y="168.312">(YesNoIndicator)</text><ellipse cx="1322.75" cy="178.8086" fill="#84BE84" rx="3" ry="3" style="stroke: #038048; stroke-width: 1.0;"/><text fill="#000000" font-family="sans-serif" font-size="11" lengthAdjust="spacingAndGlyphs" textLength="93" x="1331.75" y="181.1167">RemittedAmount</text><text fill="#000000" font-family="sans-serif" font-size="11" font-style="italic" lengthAdjust="spacingAndGlyphs" textLength="126" x="1428.75" y="181.1167">(CurrencyAndAmount)</text><ellipse cx="1322.75" cy="191.6133" fill="#84BE84" rx="3" ry="3" style="stroke: #038048; stroke-width: 1.0;"/><text fill="#000000" font-family="sans-serif" font-size="11" lengthAdjust="spacingAndGlyphs" textLength="55" x="1331.75" y="193.9214">Language</text><text fill="#000000" font-family="sans-serif" font-size="11" font-style="italic" lengthAdjust="spacingAndGlyphs" textLength="92" x="1390.75" y="193.9214">(LanguageCode)</text><ellipse cx="1322.75" cy="204.418" fill="#84BE84" rx="3" ry="3" style="stroke: #038048; stroke-width: 1.0;"/><text fill="#000000" font-family="sans-serif" font-size="11" lengthAdjust="spacingAndGlyphs" textLength="47" x="1331.75" y="206.7261">Purpose</text><text fill="#000000" font-family="sans-serif" font-size="11" font-style="italic" lengthAdjust="spacingAndGlyphs" textLength="70" x="1382.75" y="206.7261">(Max35Text)</text></a><!--class FinancialDocument--><a target="_top" xlink:actuate="onRequest" xlink:href="../FinancialDocument.html" xlink:show="new" xlink:title="Type of document used in relation with financial transactions." xlink:type="simple"><rect fill="#FEFEEE" filter="url(#f1bllskzbwxqcq)" height="23.9688" id="FinancialDocument" style="stroke: #A80036; stroke-width: 1.5;" width="125" x="1224.75" y="292"/><rect fill="#FEFEEE" height="23.9688" style="stroke: #A80036; stroke-width: 1.5;" width="125" x="1224.75" y="292"/><text fill="#000000" font-family="sans-serif" font-size="12" lengthAdjust="spacingAndGlyphs" textLength="119" x="1227.75" y="308.1387">FinancialDocument</text></a><!--class UndertakingDocument--><a target="_top" xlink:actuate="onRequest" xlink:href="../UndertakingDocument.html" xlink:show="new" xlink:title="Document presented." xlink:type="simple"><rect fill="#FEFECE" filter="url(#f1bllskzbwxqcq)" height="70.3828" id="UndertakingDocument" style="stroke: #A80036; stroke-width: 1.5;" width="351" x="1209.75" y="394"/><rect fill="#FEFECE" height="23.9688" style="stroke: #A80036; stroke-width: 1.5;" width="351" x="1209.75" y="394"/><text fill="#000000" font-family="sans-serif" font-size="12" lengthAdjust="spacingAndGlyphs" textLength="141" x="1314.75" y="410.1387">UndertakingDocument</text><line style="stroke: #A80036; stroke-width: 1.5;" x1="1210.75" x2="1559.75" y1="417.9688" y2="417.9688"/><ellipse cx="1220.75" cy="429.8711" fill="#84BE84" rx="3" ry="3" style="stroke: #038048; stroke-width: 1.0;"/><text fill="#000000" font-family="sans-serif" font-size="11" lengthAdjust="spacingAndGlyphs" textLength="84" x="1229.75" y="432.1792">DocumentType</text><text fill="#000000" font-family="sans-serif" font-size="11" font-style="italic" lengthAdjust="spacingAndGlyphs" textLength="237" x="1317.75" y="432.1792">(ExternalUndertakingDocumentTypeCode)</text><ellipse cx="1220.75" cy="442.6758" fill="#84BE84" rx="3" ry="3" style="stroke: #038048; stroke-width: 1.0;"/><text fill="#000000" font-family="sans-serif" font-size="11" lengthAdjust="spacingAndGlyphs" textLength="40" x="1229.75" y="444.9839">Format</text><text fill="#000000" font-family="sans-serif" font-size="11" font-style="italic" lengthAdjust="spacingAndGlyphs" textLength="181" x="1273.75" y="444.9839">(ExternalDocumentFormatCode)</text><ellipse cx="1220.75" cy="455.4805" fill="#84BE84" rx="3" ry="3" style="stroke: #038048; stroke-width: 1.0;"/><text fill="#000000" font-family="sans-serif" font-size="11" lengthAdjust="spacingAndGlyphs" textLength="77" x="1229.75" y="457.7886">CopyIndicator</text><text fill="#000000" font-family="sans-serif" font-size="11" font-style="italic" lengthAdjust="spacingAndGlyphs" textLength="92" x="1310.75" y="457.7886">(YesNoIndicator)</text></a><!--class ContactPoint--><a target="_top" xlink:actuate="onRequest" xlink:href="../ContactPoint.html" xlink:show="new" xlink:title="Number, physical or virtual address, used for communication." xlink:type="simple"><rect fill="#EEEEEE" filter="url(#f1bllskzbwxqcq)" height="23.9688" id="ContactPoint" style="stroke: #A80036; stroke-width: 1.5;" width="87" x="542.75" y="115"/><rect fill="#EEEEEE" height="23.9688" style="stroke: #A80036; stroke-width: 1.5;" width="87" x="542.75" y="115"/><text fill="#000000" font-family="sans-serif" font-size="12" lengthAdjust="spacingAndGlyphs" textLength="81" x="545.75" y="131.1387">ContactPoint</text></a><!--class PaymentObligation--><a target="_top" xlink:actuate="onRequest" xlink:href="../PaymentObligation.html" xlink:show="new" xlink:title="Obligation for the debtor to pay the creditor an amount of cash." xlink:type="simple"><rect fill="#EEEEEE" filter="url(#f1bllskzbwxqcq)" height="23.9688" id="PaymentObligation" style="stroke: #A80036; stroke-width: 1.5;" width="123" x="565.75" y="292"/><rect fill="#EEEEEE" height="23.9688" style="stroke: #A80036; stroke-width: 1.5;" width="123" x="565.75" y="292"/><text fill="#000000" font-family="sans-serif" font-size="12" lengthAdjust="spacingAndGlyphs" textLength="117" x="568.75" y="308.1387">PaymentObligation</text></a><!--class Agreement--><a target="_top" xlink:actuate="onRequest" xlink:href="../Agreement.html" xlink:show="new" xlink:title="Contractual details related to an agreement between parties." xlink:type="simple"><rect fill="#EEEEEE" filter="url(#f1bllskzbwxqcq)" height="23.9688" id="Agreement" style="stroke: #A80036; stroke-width: 1.5;" width="75" x="310.75" y="1316"/><rect fill="#EEEEEE" height="23.9688" style="stroke: #A80036; stroke-width: 1.5;" width="75" x="310.75" y="1316"/><text fill="#000000" font-family="sans-serif" font-size="12" lengthAdjust="spacingAndGlyphs" textLength="69" x="313.75" y="1332.1387">Agreement</text></a><!--class Location--><a target="_top" xlink:actuate="onRequest" xlink:href="../Location.html" xlink:show="new" xlink:title="Specifies a place." xlink:type="simple"><rect fill="#EEEEEE" filter="url(#f1bllskzbwxqcq)" height="23.9688" id="Location" style="stroke: #A80036; stroke-width: 1.5;" width="59" x="609.75" y="1230"/><rect fill="#EEEEEE" height="23.9688" style="stroke: #A80036; stroke-width: 1.5;" width="59" x="609.75" y="1230"/><text fill="#000000" font-family="sans-serif" font-size="12" lengthAdjust="spacingAndGlyphs" textLength="53" x="612.75" y="1246.1387">Location</text></a><!--class Reconciliation--><a target="_top" xlink:actuate="onRequest" xlink:href="../Reconciliation.html" xlink:show="new" xlink:title="Process of matching different documents submitted by parties to a trade." xlink:type="simple"><rect fill="#EEEEEE" filter="url(#f1bllskzbwxqcq)" height="23.9688" id="Reconciliation" style="stroke: #A80036; stroke-width: 1.5;" width="93" x="1060.75" y="1144"/><rect fill="#EEEEEE" height="23.9688" style="stroke: #A80036; stroke-width: 1.5;" width="93" x="1060.75" y="1144"/><text fill="#000000" font-family="sans-serif" font-size="12" lengthAdjust="spacingAndGlyphs" textLength="87" x="1063.75" y="1160.1387">Reconciliation</text></a><!--class LetterOfCredit--><a target="_top" xlink:actuate="onRequest" xlink:href="../LetterOfCredit.html" xlink:show="new" xlink:title="Instrument issued by a bank substituting its name and credit standing for that of its customer. A letter of credit is a written undertaking of the bank, issued for the account of a customer (the applicant), to honour a demand for payment, upon the beneficiary's compliance with the terms and conditions set forth in the undertaking." xlink:type="simple"><rect fill="#EEEEEE" filter="url(#f1bllskzbwxqcq)" height="23.9688" id="LetterOfCredit" style="stroke: #A80036; stroke-width: 1.5;" width="93" x="1060.75" y="1056"/><rect fill="#EEEEEE" height="23.9688" style="stroke: #A80036; stroke-width: 1.5;" width="93" x="1060.75" y="1056"/><text fill="#000000" font-family="sans-serif" font-size="12" lengthAdjust="spacingAndGlyphs" textLength="87" x="1063.75" y="1072.1387">LetterOfCredit</text></a><!--class DocumentPartyRole--><a target="_top" xlink:actuate="onRequest" xlink:href="../DocumentPartyRole.html" xlink:show="new" xlink:title="Role played by a party in the context of a document." xlink:type="simple"><rect fill="#EEEEEE" filter="url(#f1bllskzbwxqcq)" height="23.9688" id="DocumentPartyRole" style="stroke: #A80036; stroke-width: 1.5;" width="129" x="1023.75" y="954"/><rect fill="#EEEEEE" height="23.9688" style="stroke: #A80036; stroke-width: 1.5;" width="129" x="1023.75" y="954"/><text fill="#000000" font-family="sans-serif" font-size="12" lengthAdjust="spacingAndGlyphs" textLength="123" x="1026.75" y="970.1387">DocumentPartyRole</text></a><!--class Transport--><a target="_top" xlink:actuate="onRequest" xlink:href="../Transport.html" xlink:show="new" xlink:title="Moving of goods or people from one place to another by vehicle." xlink:type="simple"><rect fill="#EEEEEE" filter="url(#f1bllskzbwxqcq)" height="23.9688" id="Transport" style="stroke: #A80036; stroke-width: 1.5;" width="67" x="787.75" y="850"/><rect fill="#EEEEEE" height="23.9688" style="stroke: #A80036; stroke-width: 1.5;" width="67" x="787.75" y="850"/><text fill="#000000" font-family="sans-serif" font-size="12" lengthAdjust="spacingAndGlyphs" textLength="61" x="790.75" y="866.1387">Transport</text></a><!--class Guarantee--><a target="_top" xlink:actuate="onRequest" xlink:href="../Guarantee.html" xlink:show="new" xlink:title="Partial or full coverage of amounts by a party other than the debtor." xlink:type="simple"><rect fill="#EEEEEE" filter="url(#f1bllskzbwxqcq)" height="23.9688" id="Guarantee" style="stroke: #A80036; stroke-width: 1.5;" width="73" x="784.75" y="748"/><rect fill="#EEEEEE" height="23.9688" style="stroke: #A80036; stroke-width: 1.5;" width="73" x="784.75" y="748"/><text fill="#000000" font-family="sans-serif" font-size="12" lengthAdjust="spacingAndGlyphs" textLength="67" x="787.75" y="764.1387">Guarantee</text></a><!--class GenericIdentification--><a target="_top" xlink:actuate="onRequest" xlink:href="../GenericIdentification.html" xlink:show="new" xlink:title="Information related to a non-standardised identification, such as a proprietary party identification or account identification." xlink:type="simple"><rect fill="#EEEEEE" filter="url(#f1bllskzbwxqcq)" height="23.9688" id="GenericIdentification" style="stroke: #A80036; stroke-width: 1.5;" width="135" x="570.75" y="646"/><rect fill="#EEEEEE" height="23.9688" style="stroke: #A80036; stroke-width: 1.5;" width="135" x="570.75" y="646"/><text fill="#000000" font-family="sans-serif" font-size="12" lengthAdjust="spacingAndGlyphs" textLength="129" x="573.75" y="662.1387">GenericIdentification</text></a><!--class Evidence--><a target="_top" xlink:actuate="onRequest" xlink:href="../Evidence.html" xlink:show="new" xlink:title="Element such as signature that can be used to prove a fact." xlink:type="simple"><rect fill="#EEEEEE" filter="url(#f1bllskzbwxqcq)" height="23.9688" id="Evidence" style="stroke: #A80036; stroke-width: 1.5;" width="62" x="607.5" y="544"/><rect fill="#EEEEEE" height="23.9688" style="stroke: #A80036; stroke-width: 1.5;" width="62" x="607.5" y="544"/><text fill="#000000" font-family="sans-serif" font-size="12" lengthAdjust="spacingAndGlyphs" textLength="56" x="610.5" y="560.1387">Evidence</text></a><!--class CommercialTrade--><a target="_top" xlink:actuate="onRequest" xlink:href="../CommercialTrade.html" xlink:show="new" xlink:title="Commercial details of a trade transaction between a buyer and a seller." xlink:type="simple"><rect fill="#EEEEEE" filter="url(#f1bllskzbwxqcq)" height="23.9688" id="CommercialTrade" style="stroke: #A80036; stroke-width: 1.5;" width="114" x="477" y="417"/><rect fill="#EEEEEE" height="23.9688" style="stroke: #A80036; stroke-width: 1.5;" width="114" x="477" y="417"/><text fill="#000000" font-family="sans-serif" font-size="12" lengthAdjust="spacingAndGlyphs" textLength="108" x="480" y="433.1387">CommercialTrade</text></a><!--class Presentation--><a target="_top" xlink:actuate="onRequest" xlink:href="../Presentation.html" xlink:show="new" xlink:title="Presentation of documents." xlink:type="simple"><rect fill="#EEEEEE" filter="url(#f1bllskzbwxqcq)" height="23.9688" id="Presentation" style="stroke: #A80036; stroke-width: 1.5;" width="87" x="456.75" y="850"/><rect fill="#EEEEEE" height="23.9688" style="stroke: #A80036; stroke-width: 1.5;" width="87" x="456.75" y="850"/><text fill="#000000" font-family="sans-serif" font-size="12" lengthAdjust="spacingAndGlyphs" textLength="81" x="459.75" y="866.1387">Presentation</text></a><!--class RegisteredContract--><a target="_top" xlink:actuate="onRequest" xlink:href="../RegisteredContract.html" xlink:show="new" xlink:title="Contract registered for regulatory purpose by a registration agent for the journaling of payments made against the contract." xlink:type="simple"><rect fill="#EEEEEE" filter="url(#f1bllskzbwxqcq)" height="23.9688" id="RegisteredContract" style="stroke: #A80036; stroke-width: 1.5;" width="128" x="574" y="748"/><rect fill="#EEEEEE" height="23.9688" style="stroke: #A80036; stroke-width: 1.5;" width="128" x="574" y="748"/><text fill="#000000" font-family="sans-serif" font-size="12" lengthAdjust="spacingAndGlyphs" textLength="122" x="577" y="764.1387">RegisteredContract</text></a><!--entity ##14288--><!--class Undertaking--><a target="_top" xlink:actuate="onRequest" xlink:href="../Undertaking.html" xlink:show="new" xlink:title="Independent undertaking, such as a demand guarantee or standby letter of credit, that provides financial assurance, to be collected on the presentation of documents that comply with its terms and conditions." xlink:type="simple"><rect fill="#EEEEEE" filter="url(#f1bllskzbwxqcq)" height="23.9688" id="Undertaking" style="stroke: #A80036; stroke-width: 1.5;" width="83" x="46.75" y="954"/><rect fill="#EEEEEE" height="23.9688" style="stroke: #A80036; stroke-width: 1.5;" width="83" x="46.75" y="954"/><text fill="#000000" font-family="sans-serif" font-size="12" lengthAdjust="spacingAndGlyphs" textLength="77" x="49.75" y="970.1387">Undertaking</text></a><!--class Demand--><a target="_top" xlink:actuate="onRequest" xlink:href="../Demand.html" xlink:show="new" xlink:title="Document signed by the beneficiary demanding payment under a demand guarantee or standby letter of credit." xlink:type="simple"><rect fill="#EEEEEE" filter="url(#f1bllskzbwxqcq)" height="23.9688" id="Demand" style="stroke: #A80036; stroke-width: 1.5;" width="58" x="80.5" y="1056"/><rect fill="#EEEEEE" height="23.9688" style="stroke: #A80036; stroke-width: 1.5;" width="58" x="80.5" y="1056"/><text fill="#000000" font-family="sans-serif" font-size="12" lengthAdjust="spacingAndGlyphs" textLength="52" x="83.5" y="1072.1387">Demand</text></a><!--link Document to FinancialDocument--><path d="M1349.84,229.19 C1328.24,254.57 1307.97,278.37 1296.56,291.77 " fill="none" id="Document-FinancialDocument" style="stroke: #A80036; stroke-width: 1.0;"/><polygon fill="none" points="1344.73,224.4,1363.03,213.71,1355.39,233.47,1344.73,224.4" style="stroke: #A80036; stroke-width: 1.0;"/><!--link FinancialDocument to UndertakingDocument--><path d="M1308.63,332.15 C1323.09,350.29 1342.22,374.306 1357.72,393.758 " fill="none" id="FinancialDocument-UndertakingDocument" style="stroke: #A80036; stroke-width: 1.0;"/><polygon fill="none" points="1303.03,336.36,1296.04,316.35,1313.98,327.63,1303.03,336.36" style="stroke: #A80036; stroke-width: 1.0;"/><!--link PaymentObligation to ContactPoint--><!--link ContactPoint to PaymentObligation--><path d="M588.627,139.21 C595.64,169.15 614.828,251.05 623.11,286.4 " fill="none" id="ContactPoint-PaymentObligation" style="stroke: #A80036; stroke-width: 1.0;"/><polygon fill="#A80036" points="624.342,291.65,626.2063,281.9792,623.2129,286.7792,618.4129,283.7858,624.342,291.65" style="stroke: #A80036; stroke-width: 1.0;"/><text fill="#000000" font-family="sans-serif" font-size="13" lengthAdjust="spacingAndGlyphs" textLength="178" x="619" y="257.0669">RemittanceRelatedPayment</text><text fill="#000000" font-family="sans-serif" font-size="13" lengthAdjust="spacingAndGlyphs" textLength="24" x="594.0725" y="280.8375">0..1</text><!--link Agreement to PaymentObligation--><!--link Location to Agreement--><!--link Reconciliation to Location--><!--link LetterOfCredit to Reconciliation--><!--link DocumentPartyRole to LetterOfCredit--><!--link Transport to DocumentPartyRole--><!--link Guarantee to Transport--><!--link GenericIdentification to Guarantee--><!--link Evidence to GenericIdentification--><!--link CommercialTrade to Evidence--><!--link Presentation to CommercialTrade--><!--link RegisteredContract to Presentation--><!--link Demand to Undertaking--><!--link Undertaking to Demand--><path d="M78.4599,978.438 C69.6902,990.418 59.0285,1009.72 66,1026 C70.5363,1036.593 79.3025,1045.749 87.7428,1052.704 " fill="none" id="Undertaking-Demand" style="stroke: #A80036; stroke-width: 1.0;"/><polygon fill="#A80036" points="91.8401,1055.939,87.2546,1047.2228,87.9156,1052.8409,82.2975,1053.5019,91.8401,1055.939" style="stroke: #A80036; stroke-width: 1.0;"/><text fill="#000000" font-family="sans-serif" font-size="13" lengthAdjust="spacingAndGlyphs" textLength="55" x="67" y="1021.0669">Demand</text><text fill="#000000" font-family="sans-serif" font-size="13" lengthAdjust="spacingAndGlyphs" textLength="24" x="56.3008" y="1044.9662">0..1</text><!--link Document to ContactPoint--><path d="M1311.58,127 C1120.7,127 764.074,127 634.573,127 " fill="none" id="Document-ContactPoint" style="stroke: #A80036; stroke-width: 1.0;"/><polygon fill="#A80036" points="629.32,127,638.32,131,634.32,127,638.32,123,629.32,127" style="stroke: #A80036; stroke-width: 1.0;"/><text fill="#000000" font-family="sans-serif" font-size="13" lengthAdjust="spacingAndGlyphs" textLength="99" x="920.25" y="119.0669">PlaceOfStorage</text><text fill="#000000" font-family="sans-serif" font-size="13" lengthAdjust="spacingAndGlyphs" textLength="7" x="637.6153" y="121.5674">*</text><!--link Document to PaymentObligation--><path d="M1311.46,172.36 C1266.92,187.09 1216.1,202.61 1169,214 C999.918,254.87 796.594,282.69 693.682,295.3 " fill="none" id="Document-PaymentObligation" style="stroke: #A80036; stroke-width: 1.0;"/><polygon fill="#A80036" points="688.557,295.92,697.9747,298.8021,693.5203,295.3153,697.0072,290.8609,688.557,295.92" style="stroke: #A80036; stroke-width: 1.0;"/><text fill="#000000" font-family="sans-serif" font-size="13" lengthAdjust="spacingAndGlyphs" textLength="121" x="1023" y="257.0669">PaymentObligation</text><text fill="#000000" font-family="sans-serif" font-size="13" lengthAdjust="spacingAndGlyphs" textLength="24" x="696.575" y="290.1824">0..1</text><!--link Document to Agreement--><path d="M1560.36,133.64 C1862.58,148.99 2611,197.65 2611,303 C2611,303 2611,303 2611,1243 C2611,1300.7724 702.191,1323.2796 390.73,1326.5675 " fill="none" id="Document-Agreement" style="stroke: #A80036; stroke-width: 1.0;"/><polygon fill="#A80036" points="385.391,1326.6236,394.4328,1330.5282,390.3907,1326.5707,394.3482,1322.5287,385.391,1326.6236" style="stroke: #A80036; stroke-width: 1.0;"/><text fill="#000000" font-family="sans-serif" font-size="13" lengthAdjust="spacingAndGlyphs" textLength="72" x="2612" y="815.0669">Agreement</text><text fill="#000000" font-family="sans-serif" font-size="13" lengthAdjust="spacingAndGlyphs" textLength="7" x="393.7732" y="1320.6704">*</text><!--link Document to Location--><path d="M1560.43,136.14 C1836.09,155.83 2474,211.31 2474,303 C2474,303 2474,303 2474,1157 C2474,1203.866 925.975,1235.504 673.593,1240.351 " fill="none" id="Document-Location" style="stroke: #A80036; stroke-width: 1.0;"/><polygon fill="#A80036" points="668.567,1240.447,677.6419,1244.274,673.5661,1240.3513,677.4888,1236.2755,668.567,1240.447" style="stroke: #A80036; stroke-width: 1.0;"/><text fill="#000000" font-family="sans-serif" font-size="13" lengthAdjust="spacingAndGlyphs" textLength="81" x="2475" y="764.0669">PlaceOfIssue</text><text fill="#000000" font-family="sans-serif" font-size="13" lengthAdjust="spacingAndGlyphs" textLength="24" x="676.7013" y="1234.5509">0..1</text><!--link Document to Reconciliation--><path d="M1560.36,137.68 C1768.24,154.98 2176.8,194.12 2312,244 C2357.22,260.68 2403,254.8 2403,303 C2403,303 2403,303 2403,608 C2403,653.518 2368.26,655.654 2358,700 C2356.2,707.794 2357.71,710.005 2358,718 C2358.67,736.259 2361,740.729 2361,759 C2361,759 2361,759 2361,1069 C2361,1130.297 1394.75,1150.247 1158.6,1154.207 " fill="none" id="Document-Reconciliation" style="stroke: #A80036; stroke-width: 1.0;"/><polygon fill="#A80036" points="1153.49,1154.292,1162.5572,1158.1371,1158.4893,1154.2063,1162.4201,1150.1383,1153.49,1154.292" style="stroke: #A80036; stroke-width: 1.0;"/><text fill="#000000" font-family="sans-serif" font-size="13" lengthAdjust="spacingAndGlyphs" textLength="87" x="2359" y="713.0669">Reconciliation</text><text fill="#000000" font-family="sans-serif" font-size="13" lengthAdjust="spacingAndGlyphs" textLength="7" x="1161.7282" y="1148.6818">*</text><!--link Document to LetterOfCredit--><path d="M1560.49,136.36 C1760.71,151.3 2144.23,186.52 2267,244 C2302.33,260.54 2332,263.98 2332,303 C2332,303 2332,303 2332,506 C2332,601.766 2257,612.234 2257,708 C2257,708 2257,708 2257,967 C2257,1022.924 1382.48,1057.357 1158.67,1065.254 " fill="none" id="Document-LetterOfCredit" style="stroke: #A80036; stroke-width: 1.0;"/><polygon fill="#A80036" points="1153.51,1065.436,1162.6418,1069.1251,1158.5071,1065.2646,1162.3676,1061.1298,1153.51,1065.436" style="stroke: #A80036; stroke-width: 1.0;"/><text fill="#000000" font-family="sans-serif" font-size="13" lengthAdjust="spacingAndGlyphs" textLength="90" x="2271" y="662.0669">LetterOfCredit</text><text fill="#000000" font-family="sans-serif" font-size="13" lengthAdjust="spacingAndGlyphs" textLength="8" x="1161.8343" y="1059.684">1</text><!--link Document to DocumentPartyRole--><path d="M1560.4,128.89 C1790.88,133.92 2261,161.53 2261,303 C2261,303 2261,303 2261,506 C2261,570.767 2117.75,686.779 2061,718 C1752.09,887.96 1323.78,943.548 1157.69,959.39 " fill="none" id="Document-DocumentPartyRole" style="stroke: #A80036; stroke-width: 1.0;"/><polygon fill="#A80036" points="1152.38,959.892,1161.717,963.0258,1157.3577,959.4207,1160.9628,955.0614,1152.38,959.892" style="stroke: #A80036; stroke-width: 1.0;"/><text fill="#000000" font-family="sans-serif" font-size="13" lengthAdjust="spacingAndGlyphs" textLength="60" x="2209" y="611.0669">PartyRole</text><text fill="#000000" font-family="sans-serif" font-size="13" lengthAdjust="spacingAndGlyphs" textLength="7" x="1160.6224" y="954.1885">*</text><!--link Document to Transport--><path d="M1560.3,129.77 C1743.26,135.3 2071.41,157.39 2145,244 C2215.22,326.64 2169.92,382.457 2145,488 C2128.52,557.822 2244.14,549.538 2023,718 C1982.05,749.2 1621.99,812.903 1571,820 C1300.51,857.643 970.651,861.136 859.581,861.16 " fill="none" id="Document-Transport" style="stroke: #A80036; stroke-width: 1.0;"/><polygon fill="#A80036" points="854.458,861.159,863.458,865.159,859.458,861.159,863.458,857.159,854.458,861.159" style="stroke: #A80036; stroke-width: 1.0;"/><text fill="#000000" font-family="sans-serif" font-size="13" lengthAdjust="spacingAndGlyphs" textLength="61" x="2161" y="560.0669">Transport</text><text fill="#000000" font-family="sans-serif" font-size="13" lengthAdjust="spacingAndGlyphs" textLength="8" x="862.5972" y="855.2005">1</text><!--link Document to Guarantee--><path d="M1560.45,135.57 C1710.16,147.58 1948.25,176.91 2003,244 C2071.57,328.02 2053.22,391.885 2003,488 C1979.93,532.146 1864.02,594.68 1819,616 C1669.09,686.998 1623.47,689.864 1460,718 C1236.99,756.385 964.604,759.649 862.376,759.376 " fill="none" id="Document-Guarantee" style="stroke: #A80036; stroke-width: 1.0;"/><polygon fill="#A80036" points="857.345,759.359,866.3312,763.3898,862.345,759.3761,866.3587,755.3899,857.345,759.359" style="stroke: #A80036; stroke-width: 1.0;"/><text fill="#000000" font-family="sans-serif" font-size="13" lengthAdjust="spacingAndGlyphs" textLength="68" x="1999" y="509.0669">Guarantee</text><text fill="#000000" font-family="sans-serif" font-size="13" lengthAdjust="spacingAndGlyphs" textLength="7" x="865.5115" y="753.5575">*</text><!--link Document to GenericIdentification--><path d="M1560.42,209.17 C1603.93,245.17 1647.31,291.73 1669,346 C1688.66,395.192 1695.34,406.492 1619,488 C1495.1,620.281 915.706,649.248 710.373,655.397 " fill="none" id="Document-GenericIdentification" style="stroke: #A80036; stroke-width: 1.0;"/><polygon fill="#A80036" points="705.296,655.547,714.4098,659.2804,710.2938,655.3999,714.1744,651.2839,705.296,655.547" style="stroke: #A80036; stroke-width: 1.0;"/><text fill="#000000" font-family="sans-serif" font-size="13" lengthAdjust="spacingAndGlyphs" textLength="148" x="1683" y="433.0669">DocumentIdentification</text><text fill="#000000" font-family="sans-serif" font-size="13" lengthAdjust="spacingAndGlyphs" textLength="8" x="713.9547" y="650.289">1</text><!--link Document to Evidence--><path d="M1515.48,213.65 C1579.73,293.32 1648.7,411 1577,488 C1514.44,555.185 838.368,556.048 673.905,555.254 " fill="none" id="Document-Evidence" style="stroke: #A80036; stroke-width: 1.0;"/><polygon fill="#A80036" points="668.73,555.227,677.7093,559.2732,673.7299,555.2527,677.7505,551.2733,668.73,555.227" style="stroke: #A80036; stroke-width: 1.0;"/><text fill="#000000" font-family="sans-serif" font-size="13" lengthAdjust="spacingAndGlyphs" textLength="57" x="1602" y="359.0669">Evidence</text><text fill="#000000" font-family="sans-serif" font-size="13" lengthAdjust="spacingAndGlyphs" textLength="7" x="677.3733" y="548.9387">*</text><!--link Document to CommercialTrade--><path d="M1424.16,213.52 C1414.6,250.52 1397.29,291 1366,316 C1247.11,410.983 768.608,425.532 596.258,427.668 " fill="none" id="Document-CommercialTrade" style="stroke: #A80036; stroke-width: 1.0;"/><polygon fill="#A80036" points="591.248,427.728,600.2953,431.6197,596.2476,427.668,600.1994,423.6203,591.248,427.728" style="stroke: #A80036; stroke-width: 1.0;"/><text fill="#000000" font-family="sans-serif" font-size="13" lengthAdjust="spacingAndGlyphs" textLength="113" x="1390" y="308.0669">CommercialTrade</text><text fill="#000000" font-family="sans-serif" font-size="13" lengthAdjust="spacingAndGlyphs" textLength="7" x="599.0313" y="422.5534">*</text><!--link Document to Presentation--><path d="M1560.58,140.12 C1713.19,156.98 1960.73,191.49 2036,244 C2135.54,313.45 2104.89,395.871 2077,514 C2075.54,520.166 1980.15,714.303 1975,718 C1957.42,730.635 1610.51,769.5 1589,772 C1359.34,798.691 1301.43,801.053 1071,820 C877.593,835.903 647.042,851.398 548.521,857.856 " fill="none" id="Document-Presentation" style="stroke: #A80036; stroke-width: 1.0;"/><polygon fill="#A80036" points="543.361,858.194,552.6034,861.5967,548.3503,857.8669,552.08,853.6138,543.361,858.194" style="stroke: #A80036; stroke-width: 1.0;"/><text fill="#000000" font-family="sans-serif" font-size="13" lengthAdjust="spacingAndGlyphs" textLength="81" x="2064" y="560.0669">Presentation</text><text fill="#000000" font-family="sans-serif" font-size="13" lengthAdjust="spacingAndGlyphs" textLength="24" x="551.7999" y="852.3891">0..1</text><!--link Document to RegisteredContract--><path d="M1560.42,172.51 C1710.22,233.38 1931.15,350.81 1841,488 C1699.54,703.276 1559.71,658.853 1309,718 C1074.19,773.396 1007.66,731.082 767,748 C747.735,749.354 726.87,751.039 707.649,752.679 " fill="none" id="Document-RegisteredContract" style="stroke: #A80036; stroke-width: 1.0;"/><polygon fill="#A80036" points="702.274,753.14,711.5828,756.3565,707.2557,752.7128,710.8994,748.3857,702.274,753.14" style="stroke: #A80036; stroke-width: 1.0;"/><text fill="#000000" font-family="sans-serif" font-size="13" lengthAdjust="spacingAndGlyphs" textLength="103" x="1836" y="509.0669">RelatedContract</text><text fill="#000000" font-family="sans-serif" font-size="13" lengthAdjust="spacingAndGlyphs" textLength="8" x="710.1682" y="747.4404">1</text><!--link UndertakingDocument to Undertaking--><path d="M1374.91,464.175 C1351.81,535.655 1287.7,700.252 1169,772 C983.173,884.326 403.476,789.283 195,850 C145.752,864.343 121.232,861.174 93,904 C84.4028,917.041 84.0303,935.219 85.2717,948.334 " fill="none" id="UndertakingDocument-Undertaking" style="stroke: #A80036; stroke-width: 1.0;"/><polygon fill="#A80036" points="85.8833,953.615,88.8231,944.2151,85.309,948.6481,80.876,945.134,85.8833,953.615" style="stroke: #A80036; stroke-width: 1.0;"/><text fill="#000000" font-family="sans-serif" font-size="13" lengthAdjust="spacingAndGlyphs" textLength="78" x="1252" y="713.0669">Undertaking</text><text fill="#000000" font-family="sans-serif" font-size="13" lengthAdjust="spacingAndGlyphs" textLength="8" x="74.5352" y="943.0509">1</text><!--link UndertakingDocument to Demand--><path d="M1387.92,464.018 C1388.69,479.336 1388.86,497.622 1387,514 C1361.26,740.39 1367.86,866.787 1169,978 C1074.5,1030.848 297.911,974.347 195,1008 C167.236,1017.079 140.311,1038.146 124.194,1052.486 " fill="none" id="UndertakingDocument-Demand" style="stroke: #A80036; stroke-width: 1.0;"/><polygon fill="#A80036" points="120.336,1055.976,129.694,1052.9054,124.0442,1052.622,124.3276,1046.9723,120.336,1055.976" style="stroke: #A80036; stroke-width: 1.0;"/><text fill="#000000" font-family="sans-serif" font-size="13" lengthAdjust="spacingAndGlyphs" textLength="55" x="1357" y="764.0669">Demand</text><text fill="#000000" font-family="sans-serif" font-size="13" lengthAdjust="spacingAndGlyphs" textLength="8" x="113.3421" y="1045.016">1</text><!--link ContactPoint to GenericIdentification--><path d="M570.124,139.06 C509.346,182.79 298.615,348.12 375,488 C422.059,574.177 533.953,622.954 595.542,644.153 " fill="none" id="ContactPoint-GenericIdentification" style="stroke: #A80036; stroke-width: 1.0;"/><polygon fill="#A80036" points="600.614,645.876,593.3775,639.1952,595.8794,644.2687,590.8059,646.7706,600.614,645.876" style="stroke: #A80036; stroke-width: 1.0;"/><text fill="#000000" font-family="sans-serif" font-size="13" lengthAdjust="spacingAndGlyphs" textLength="81" x="376" y="433.0669">Identification</text><text fill="#000000" font-family="sans-serif" font-size="13" lengthAdjust="spacingAndGlyphs" textLength="8" x="576.9579" y="634.8816">1</text><!--link ContactPoint to ContactPoint--><path d="M599.417,114.8 C626.637,96.23 664,100.3 664,127 C664,152.24 630.612,157.26 603.966,142.05 " fill="none" id="ContactPoint-ContactPoint" style="stroke: #A80036; stroke-width: 1.0;"/><polygon fill="#A80036" points="599.417,139.2,604.9315,147.3603,603.6578,141.8487,609.1694,140.575,599.417,139.2" style="stroke: #A80036; stroke-width: 1.0;"/><text fill="#000000" font-family="sans-serif" font-size="13" lengthAdjust="spacingAndGlyphs" textLength="80" x="670" y="131.0669">MainContact</text><text fill="#000000" font-family="sans-serif" font-size="13" lengthAdjust="spacingAndGlyphs" textLength="8" x="593.6328" y="159.0561">1</text><!--link PaymentObligation to CommercialTrade--><path d="M565.459,310.02 C541.662,315.32 516.672,325.75 502,346 C487.041,366.65 505.177,395.217 519.621,412.608 " fill="none" id="PaymentObligation-CommercialTrade" style="stroke: #A80036; stroke-width: 1.0;"/><polygon fill="#A80036" points="523.191,416.777,520.3735,407.3397,519.9381,412.9798,514.298,412.5444,523.191,416.777" style="stroke: #A80036; stroke-width: 1.0;"/><text fill="#000000" font-family="sans-serif" font-size="13" lengthAdjust="spacingAndGlyphs" textLength="113" x="503" y="359.0669">CommercialTrade</text><text fill="#000000" font-family="sans-serif" font-size="13" lengthAdjust="spacingAndGlyphs" textLength="8" x="508.9543" y="406.0066">1</text><!--link PaymentObligation to Demand--><path d="M688.384,306.07 C889.189,310.18 1517.12,328.25 1577,394 C1605.13,424.888 1587.33,447.519 1577,488 C1511.16,746.076 1473.57,865.823 1232,978 C1022.4,1075.332 424.914,1032.665 195,1056 C177.778,1057.748 158.675,1060.145 142.855,1062.256 " fill="none" id="PaymentObligation-Demand" style="stroke: #A80036; stroke-width: 1.0;"/><polygon fill="#A80036" points="137.624,1062.959,147.0764,1065.7252,142.5795,1062.2933,146.0113,1057.7964,137.624,1062.959" style="stroke: #A80036; stroke-width: 1.0;"/><text fill="#000000" font-family="sans-serif" font-size="13" lengthAdjust="spacingAndGlyphs" textLength="235" x="1515" y="713.0669">PaymentSourceUndertakingDemand</text><text fill="#000000" font-family="sans-serif" font-size="13" lengthAdjust="spacingAndGlyphs" textLength="8" x="146.6589" y="1055.2406">1</text><!--link Agreement to CommercialTrade--><path d="M310.477,1320.4903 C270.222,1311.1002 212,1289.4841 212,1243 C212,1112 212,1112 212,1112 C212,1044.4 393.094,600.636 430,544 C455.748,504.487 495.264,465.408 517.437,444.852 " fill="none" id="Agreement-CommercialTrade" style="stroke: #A80036; stroke-width: 1.0;"/><polygon fill="#A80036" points="521.368,441.233,512.0371,444.3847,517.6891,444.6191,517.4547,450.2711,521.368,441.233" style="stroke: #A80036; stroke-width: 1.0;"/><text fill="#000000" font-family="sans-serif" font-size="13" lengthAdjust="spacingAndGlyphs" textLength="36" x="278" y="917.0669">Trade</text><text fill="#000000" font-family="sans-serif" font-size="13" lengthAdjust="spacingAndGlyphs" textLength="8" x="505.4254" y="461.1021">1</text><!--link Location to Transport--><path d="M668.647,1240.337 C720.218,1237.439 821,1223.294 821,1157 C821,965 821,965 821,965 C821,934.602 821,899.108 821,879.02 " fill="none" id="Location-Transport" style="stroke: #A80036; stroke-width: 1.0;"/><polygon fill="#A80036" points="821,874.019,817,883.019,821,879.019,825,883.019,821,874.019" style="stroke: #A80036; stroke-width: 1.0;"/><text fill="#000000" font-family="sans-serif" font-size="13" lengthAdjust="spacingAndGlyphs" textLength="201" x="822" y="1072.0669">DepartureTransportParameters</text><text fill="#000000" font-family="sans-serif" font-size="13" lengthAdjust="spacingAndGlyphs" textLength="24" x="790.5344" y="894.1713">0..1</text><!--link Location to Transport--><path d="M609.624,1234.407 C531.563,1215.389 328.595,1155.361 384,1056 C415.295,999.875 570.383,927.982 630,904 C680.589,883.65 742.973,872.689 782.381,867.351 " fill="none" id="Location-Transport" style="stroke: #A80036; stroke-width: 1.0;"/><polygon fill="#A80036" points="787.547,866.665,778.0986,863.8851,782.5905,867.3235,779.1522,871.8154,787.547,866.665" style="stroke: #A80036; stroke-width: 1.0;"/><text fill="#000000" font-family="sans-serif" font-size="13" lengthAdjust="spacingAndGlyphs" textLength="209" x="385" y="1072.0669">DestinationTransportParameters</text><text fill="#000000" font-family="sans-serif" font-size="13" lengthAdjust="spacingAndGlyphs" textLength="24" x="755.6875" y="862.1807">0..1</text><!--link Location to Transport--><path d="M639,1229.858 C639,1213.771 639,1183.104 639,1157 C639,965 639,965 639,965 C639,899.734 729.166,875.812 782.569,867.367 " fill="none" id="Location-Transport" style="stroke: #A80036; stroke-width: 1.0;"/><polygon fill="#A80036" points="787.618,866.597,778.1183,863.9978,782.675,867.3499,779.3229,871.9066,787.618,866.597" style="stroke: #A80036; stroke-width: 1.0;"/><text fill="#000000" font-family="sans-serif" font-size="13" lengthAdjust="spacingAndGlyphs" textLength="109" x="640" y="1072.0669">RelatedTransport</text><text fill="#000000" font-family="sans-serif" font-size="13" lengthAdjust="spacingAndGlyphs" textLength="8" x="771.7367" y="880.8333">1</text><!--link Location to GenericIdentification--><path d="M609.637,1240.083 C559.589,1236.982 457.246,1223.741 396,1168 C372.905,1146.981 373.593,1134.524 367,1104 C342.227,989.308 364.208,940.41 439,850 C498.837,777.669 583.721,704.116 620.207,673.625 " fill="none" id="Location-GenericIdentification" style="stroke: #A80036; stroke-width: 1.0;"/><polygon fill="#A80036" points="624.411,670.123,614.9358,672.81,620.5693,673.3232,620.0561,678.9567,624.411,670.123" style="stroke: #A80036; stroke-width: 1.0;"/><text fill="#000000" font-family="sans-serif" font-size="13" lengthAdjust="spacingAndGlyphs" textLength="81" x="383" y="970.0669">Identification</text><text fill="#000000" font-family="sans-serif" font-size="13" lengthAdjust="spacingAndGlyphs" textLength="7" x="609.19" y="689.9488">*</text><!--link GenericIdentification to RegisteredContract--><path d="M638,670.084 C638,687.729 638,722.297 638,742.745 " fill="none" id="GenericIdentification-RegisteredContract" style="stroke: #A80036; stroke-width: 1.0;"/><polygon fill="#A80036" points="638,747.867,642,738.867,638,742.867,634,738.867,638,747.867" style="stroke: #A80036; stroke-width: 1.0;"/><text fill="#000000" font-family="sans-serif" font-size="13" lengthAdjust="spacingAndGlyphs" textLength="113" x="639" y="713.0669">RelatedCertificate</text><text fill="#000000" font-family="sans-serif" font-size="13" lengthAdjust="spacingAndGlyphs" textLength="8" x="627.2813" y="736.8695">1</text><!--link Presentation to Undertaking--><path d="M456.602,862.313 C367.647,861.738 168.496,864.988 115,904 C100.499,914.575 93.6603,934.7 90.5209,948.938 " fill="none" id="Presentation-Undertaking" style="stroke: #A80036; stroke-width: 1.0;"/><polygon fill="#A80036" points="89.5244,953.888,95.2225,945.8548,90.5115,948.9864,87.3799,944.2754,89.5244,953.888" style="stroke: #A80036; stroke-width: 1.0;"/><text fill="#000000" font-family="sans-serif" font-size="13" lengthAdjust="spacingAndGlyphs" textLength="143" x="116" y="917.0669">PresentedUndertaking</text><text fill="#000000" font-family="sans-serif" font-size="13" lengthAdjust="spacingAndGlyphs" textLength="8" x="91.3375" y="942.8977">1</text></g></svg>