<?xml version="1.0" encoding="UTF-8" standalone="no"?><svg xmlns="http://www.w3.org/2000/svg" xmlns:xlink="http://www.w3.org/1999/xlink" contentScriptType="application/ecmascript" contentStyleType="text/css" height="498px" preserveAspectRatio="none" style="width:947px;height:498px;" version="1.1" viewBox="0 0 947 498" width="947px" zoomAndPan="magnify"><defs><filter height="300%" id="f82zgdi0p8nfy" width="300%" x="-1" y="-1"><feGaussianBlur result="blurOut" stdDeviation="2.0"/><feColorMatrix in="blurOut" result="blurOut2" type="matrix" values="0 0 0 0 0 0 0 0 0 0 0 0 0 0 0 0 0 0 .4 0"/><feOffset dx="4.0" dy="4.0" in="blurOut2" result="blurOut3"/><feBlend in="SourceGraphic" in2="blurOut3" mode="normal"/></filter></defs><g><!--cluster ##14776--><!--cluster ##14785--><!--cluster ##14794--><!--class Role--><a target="_top" xlink:actuate="onRequest" xlink:href="../Role.html" xlink:show="new" xlink:title="Role of a party in an activity." xlink:type="simple"><rect fill="#FEFEEE" filter="url(#f82zgdi0p8nfy)" height="44.7734" id="Role" style="stroke: #A80036; stroke-width: 1.5;" width="175" x="218.75" y="40.5"/><rect fill="#FEFEEE" height="23.9688" style="stroke: #A80036; stroke-width: 1.5;" width="175" x="218.75" y="40.5"/><text fill="#000000" font-family="sans-serif" font-size="12" lengthAdjust="spacingAndGlyphs" textLength="27" x="292.75" y="56.6387">Role</text><line style="stroke: #A80036; stroke-width: 1.5;" x1="219.75" x2="392.75" y1="64.4688" y2="64.4688"/><ellipse cx="229.75" cy="76.3711" fill="#84BE84" rx="3" ry="3" style="stroke: #038048; stroke-width: 1.0;"/><text fill="#000000" font-family="sans-serif" font-size="11" lengthAdjust="spacingAndGlyphs" textLength="53" x="238.75" y="78.6792">PartyRole</text><text fill="#000000" font-family="sans-serif" font-size="11" font-style="italic" lengthAdjust="spacingAndGlyphs" textLength="92" x="295.75" y="78.6792">(PartyRoleCode)</text></a><!--class UndertakingPartyRole--><a target="_top" xlink:actuate="onRequest" xlink:href="../UndertakingPartyRole.html" xlink:show="new" xlink:title="Role played by a party in the context of an undertaking." xlink:type="simple"><rect fill="#FEFEEE" filter="url(#f82zgdi0p8nfy)" height="23.9688" id="UndertakingPartyRole" style="stroke: #A80036; stroke-width: 1.5;" width="142" x="235" y="166"/><rect fill="#FEFEEE" height="23.9688" style="stroke: #A80036; stroke-width: 1.5;" width="142" x="235" y="166"/><text fill="#000000" font-family="sans-serif" font-size="12" lengthAdjust="spacingAndGlyphs" textLength="136" x="238" y="182.1387">UndertakingPartyRole</text></a><!--class UndertakingPlaceOfPresentation--><a target="_top" xlink:actuate="onRequest" xlink:href="../UndertakingPlaceOfPresentation.html" xlink:show="new" xlink:title="Place at which the documents must be presented." xlink:type="simple"><rect fill="#FEFECE" filter="url(#f82zgdi0p8nfy)" height="44.7734" id="UndertakingPlaceOfPresentation" style="stroke: #A80036; stroke-width: 1.5;" width="347" x="47.75" y="268.5"/><rect fill="#FEFECE" height="23.9688" style="stroke: #A80036; stroke-width: 1.5;" width="347" x="47.75" y="268.5"/><text fill="#000000" font-family="sans-serif" font-size="12" lengthAdjust="spacingAndGlyphs" textLength="205" x="118.75" y="284.6387">UndertakingPlaceOfPresentation</text><line style="stroke: #A80036; stroke-width: 1.5;" x1="48.75" x2="393.75" y1="292.4688" y2="292.4688"/><ellipse cx="58.75" cy="304.3711" fill="#84BE84" rx="3" ry="3" style="stroke: #038048; stroke-width: 1.0;"/><text fill="#000000" font-family="sans-serif" font-size="11" lengthAdjust="spacingAndGlyphs" textLength="179" x="67.75" y="306.6792">PresentationUnderConfirmation</text><text fill="#000000" font-family="sans-serif" font-size="11" font-style="italic" lengthAdjust="spacingAndGlyphs" textLength="138" x="250.75" y="306.6792">(PresentationPartyCode)</text></a><!--class RolePlayer--><a target="_top" xlink:actuate="onRequest" xlink:href="../RolePlayer.html" xlink:show="new" xlink:title="Type of entity that plays a specific role in a specific context." xlink:type="simple"><rect fill="#EEEEEE" filter="url(#f82zgdi0p8nfy)" height="23.9688" id="RolePlayer" style="stroke: #A80036; stroke-width: 1.5;" width="71" x="747.75" y="464"/><rect fill="#EEEEEE" height="23.9688" style="stroke: #A80036; stroke-width: 1.5;" width="71" x="747.75" y="464"/><text fill="#000000" font-family="sans-serif" font-size="12" lengthAdjust="spacingAndGlyphs" textLength="65" x="750.75" y="480.1387">RolePlayer</text></a><!--class ContactPersonRole--><a target="_top" xlink:actuate="onRequest" xlink:href="../ContactPersonRole.html" xlink:show="new" xlink:title="Person to be contacted in a given organisation. In the corporate action domain (including meeting notifications) , it is the contact person at the party organising the meeting, at the issuer or at an intermediary." xlink:type="simple"><rect fill="#EEEEEE" filter="url(#f82zgdi0p8nfy)" height="23.9688" id="ContactPersonRole" style="stroke: #A80036; stroke-width: 1.5;" width="126" x="740" y="378"/><rect fill="#EEEEEE" height="23.9688" style="stroke: #A80036; stroke-width: 1.5;" width="126" x="740" y="378"/><text fill="#000000" font-family="sans-serif" font-size="12" lengthAdjust="spacingAndGlyphs" textLength="120" x="743" y="394.1387">ContactPersonRole</text></a><!--class CounterpartyRisk--><a target="_top" xlink:actuate="onRequest" xlink:href="../CounterpartyRisk.html" xlink:show="new" xlink:title="Calculation of the exposure amount that one party has vis-a-vis one counterparty or a central system, based on its credit risk." xlink:type="simple"><rect fill="#EEEEEE" filter="url(#f82zgdi0p8nfy)" height="23.9688" id="CounterpartyRisk" style="stroke: #A80036; stroke-width: 1.5;" width="113" x="752.75" y="279"/><rect fill="#EEEEEE" height="23.9688" style="stroke: #A80036; stroke-width: 1.5;" width="113" x="752.75" y="279"/><text fill="#000000" font-family="sans-serif" font-size="12" lengthAdjust="spacingAndGlyphs" textLength="107" x="755.75" y="295.1387">CounterpartyRisk</text></a><!--class Entry--><a target="_top" xlink:actuate="onRequest" xlink:href="../Entry.html" xlink:show="new" xlink:title="Posting to an account that results in an increase or decrease to a balance." xlink:type="simple"><rect fill="#EEEEEE" filter="url(#f82zgdi0p8nfy)" height="23.9688" id="Entry" style="stroke: #A80036; stroke-width: 1.5;" width="38" x="740" y="166"/><rect fill="#EEEEEE" height="23.9688" style="stroke: #A80036; stroke-width: 1.5;" width="38" x="740" y="166"/><text fill="#000000" font-family="sans-serif" font-size="12" lengthAdjust="spacingAndGlyphs" textLength="32" x="743" y="182.1387">Entry</text></a><!--class Undertaking--><a target="_top" xlink:actuate="onRequest" xlink:href="../Undertaking.html" xlink:show="new" xlink:title="Independent undertaking, such as a demand guarantee or standby letter of credit, that provides financial assurance, to be collected on the presentation of documents that comply with its terms and conditions." xlink:type="simple"><rect fill="#EEEEEE" filter="url(#f82zgdi0p8nfy)" height="23.9688" id="Undertaking" style="stroke: #A80036; stroke-width: 1.5;" width="83" x="450.75" y="279"/><rect fill="#EEEEEE" height="23.9688" style="stroke: #A80036; stroke-width: 1.5;" width="83" x="450.75" y="279"/><text fill="#000000" font-family="sans-serif" font-size="12" lengthAdjust="spacingAndGlyphs" textLength="77" x="453.75" y="295.1387">Undertaking</text></a><!--entity ##14797--><!--link Role to UndertakingPartyRole--><path d="M306,105.559 C306,127.159 306,151.898 306,165.865 " fill="none" id="Role-UndertakingPartyRole" style="stroke: #A80036; stroke-width: 1.0;"/><polygon fill="none" points="299,105.52,306,85.52,313,105.52,299,105.52" style="stroke: #A80036; stroke-width: 1.0;"/><!--link UndertakingPartyRole to UndertakingPlaceOfPresentation--><path d="M285.271,206.069 C270.604,225.224 251.196,250.568 237.559,268.376 " fill="none" id="UndertakingPartyRole-UndertakingPlaceOfPresentation" style="stroke: #A80036; stroke-width: 1.0;"/><polygon fill="none" points="279.822,201.672,297.539,190.049,290.937,210.184,279.822,201.672" style="stroke: #A80036; stroke-width: 1.0;"/><!--link ContactPersonRole to RolePlayer--><!--link CounterpartyRisk to ContactPersonRole--><!--link Entry to CounterpartyRisk--><!--link Role to RolePlayer--><path d="M393.396,79.63 C481.328,97.912 604,131.56 604,177 C604,177 604,177 604,391 C604,451.8572 689.842,468.7099 742.634,473.3199 " fill="none" id="Role-RolePlayer" style="stroke: #A80036; stroke-width: 1.0;"/><polygon fill="#A80036" points="747.635,473.7288,738.9919,469.0068,742.6517,473.3202,738.3382,476.98,747.635,473.7288" style="stroke: #A80036; stroke-width: 1.0;"/><text fill="#000000" font-family="sans-serif" font-size="13" lengthAdjust="spacingAndGlyphs" textLength="39" x="605" y="295.0669">Player</text><text fill="#000000" font-family="sans-serif" font-size="13" lengthAdjust="spacingAndGlyphs" textLength="7" x="732.7402" y="467.9585">*</text><!--link Role to ContactPersonRole--><path d="M393.451,68.506 C476.655,74.448 594.29,87.681 630,116 C675.914,152.412 654.728,185.13 680,238 C701.875,283.764 701.742,299.702 735,338 C747.802,352.743 765.536,365.869 779.683,375.113 " fill="none" id="Role-ContactPersonRole" style="stroke: #A80036; stroke-width: 1.0;"/><polygon fill="#A80036" points="783.949,377.854,778.5403,369.6232,779.7427,375.1508,774.2152,376.3532,783.949,377.854" style="stroke: #A80036; stroke-width: 1.0;"/><text fill="#000000" font-family="sans-serif" font-size="13" lengthAdjust="spacingAndGlyphs" textLength="121" x="681" y="233.0669">ContactPersonRole</text><text fill="#000000" font-family="sans-serif" font-size="13" lengthAdjust="spacingAndGlyphs" textLength="8" x="766.6815" y="366.852">1</text><!--link Role to CounterpartyRisk--><path d="M393.38,65.336 C511.248,68.534 713.726,79.364 777,116 C827.149,145.036 830.598,180.552 823,238 C821.392,250.155 817.758,263.502 814.595,273.631 " fill="none" id="Role-CounterpartyRisk" style="stroke: #A80036; stroke-width: 1.0;"/><polygon fill="#A80036" points="812.997,278.611,819.5552,271.2632,814.5245,273.85,811.9376,268.8193,812.997,278.611" style="stroke: #A80036; stroke-width: 1.0;"/><text fill="#000000" font-family="sans-serif" font-size="13" lengthAdjust="spacingAndGlyphs" textLength="109" x="826" y="182.0669">CounterpartyRisk</text><text fill="#000000" font-family="sans-serif" font-size="13" lengthAdjust="spacingAndGlyphs" textLength="24" x="785.0476" y="268.0457">0..1</text><!--link Role to Entry--><path d="M393.391,67.28 C496.424,72.496 660.324,85.427 713,116 C730.934,126.409 744.118,146.852 751.666,161.193 " fill="none" id="Role-Entry" style="stroke: #A80036; stroke-width: 1.0;"/><polygon fill="#A80036" points="754.009,165.8,753.4939,155.9646,751.7421,161.3434,746.3634,159.5916,754.009,165.8" style="stroke: #A80036; stroke-width: 1.0;"/><text fill="#000000" font-family="sans-serif" font-size="13" lengthAdjust="spacingAndGlyphs" textLength="33" x="734" y="129.0669">Entry</text><text fill="#000000" font-family="sans-serif" font-size="13" lengthAdjust="spacingAndGlyphs" textLength="8" x="741.6995" y="155.0372">1</text><!--link UndertakingPartyRole to Undertaking--><path d="M324.514,190.049 C358.774,210.494 431.953,254.166 469.201,276.394 " fill="none" id="UndertakingPartyRole-Undertaking" style="stroke: #A80036; stroke-width: 1.0;"/><polygon fill="#A80036" points="473.56,278.996,467.8828,270.9481,469.2669,276.433,463.782,277.8171,473.56,278.996" style="stroke: #A80036; stroke-width: 1.0;"/><text fill="#000000" font-family="sans-serif" font-size="13" lengthAdjust="spacingAndGlyphs" textLength="78" x="406" y="233.0669">Undertaking</text><text fill="#000000" font-family="sans-serif" font-size="13" lengthAdjust="spacingAndGlyphs" textLength="8" x="456.4166" y="268.0428">1</text></g></svg>