<?xml version="1.0" encoding="UTF-8" standalone="no"?><svg xmlns="http://www.w3.org/2000/svg" xmlns:xlink="http://www.w3.org/1999/xlink" contentScriptType="application/ecmascript" contentStyleType="text/css" height="478px" preserveAspectRatio="none" style="width:774px;height:478px;" version="1.1" viewBox="0 0 774 478" width="774px" zoomAndPan="magnify"><defs><filter height="300%" id="fwmsu2fh24ulm" width="300%" x="-1" y="-1"><feGaussianBlur result="blurOut" stdDeviation="2.0"/><feColorMatrix in="blurOut" result="blurOut2" type="matrix" values="0 0 0 0 0 0 0 0 0 0 0 0 0 0 0 0 0 0 .4 0"/><feOffset dx="4.0" dy="4.0" in="blurOut2" result="blurOut3"/><feBlend in="SourceGraphic" in2="blurOut3" mode="normal"/></filter></defs><g><!--cluster ##14822--><!--cluster ##14831--><!--cluster ##14840--><!--class Role--><a target="_top" xlink:actuate="onRequest" xlink:href="../Role.html" xlink:show="new" xlink:title="Role of a party in an activity." xlink:type="simple"><rect fill="#FEFEEE" filter="url(#fwmsu2fh24ulm)" height="44.7734" id="Role" style="stroke: #A80036; stroke-width: 1.5;" width="175" x="54.75" y="40.5"/><rect fill="#FEFEEE" height="23.9688" style="stroke: #A80036; stroke-width: 1.5;" width="175" x="54.75" y="40.5"/><text fill="#000000" font-family="sans-serif" font-size="12" lengthAdjust="spacingAndGlyphs" textLength="27" x="128.75" y="56.6387">Role</text><line style="stroke: #A80036; stroke-width: 1.5;" x1="55.75" x2="228.75" y1="64.4688" y2="64.4688"/><ellipse cx="65.75" cy="76.3711" fill="#84BE84" rx="3" ry="3" style="stroke: #038048; stroke-width: 1.0;"/><text fill="#000000" font-family="sans-serif" font-size="11" lengthAdjust="spacingAndGlyphs" textLength="53" x="74.75" y="78.6792">PartyRole</text><text fill="#000000" font-family="sans-serif" font-size="11" font-style="italic" lengthAdjust="spacingAndGlyphs" textLength="92" x="131.75" y="78.6792">(PartyRoleCode)</text></a><!--class UndertakingPartyRole--><a target="_top" xlink:actuate="onRequest" xlink:href="../UndertakingPartyRole.html" xlink:show="new" xlink:title="Role played by a party in the context of an undertaking." xlink:type="simple"><rect fill="#FEFEEE" filter="url(#fwmsu2fh24ulm)" height="23.9688" id="UndertakingPartyRole" style="stroke: #A80036; stroke-width: 1.5;" width="142" x="71" y="166"/><rect fill="#FEFEEE" height="23.9688" style="stroke: #A80036; stroke-width: 1.5;" width="142" x="71" y="166"/><text fill="#000000" font-family="sans-serif" font-size="12" lengthAdjust="spacingAndGlyphs" textLength="136" x="74" y="182.1387">UndertakingPartyRole</text></a><!--class UndertakingInstructingParty--><a target="_top" xlink:actuate="onRequest" xlink:href="../UndertakingInstructingParty.html" xlink:show="new" xlink:title="Party that instructs the issuance of the undertaking." xlink:type="simple"><rect fill="#FEFECE" filter="url(#fwmsu2fh24ulm)" height="23.9688" id="UndertakingInstructingParty" style="stroke: #A80036; stroke-width: 1.5;" width="182" x="48" y="270"/><rect fill="#FEFECE" height="23.9688" style="stroke: #A80036; stroke-width: 1.5;" width="182" x="48" y="270"/><text fill="#000000" font-family="sans-serif" font-size="12" lengthAdjust="spacingAndGlyphs" textLength="176" x="51" y="286.1387">UndertakingInstructingParty</text></a><!--class RolePlayer--><a target="_top" xlink:actuate="onRequest" xlink:href="../RolePlayer.html" xlink:show="new" xlink:title="Type of entity that plays a specific role in a specific context." xlink:type="simple"><rect fill="#EEEEEE" filter="url(#fwmsu2fh24ulm)" height="23.9688" id="RolePlayer" style="stroke: #A80036; stroke-width: 1.5;" width="71" x="583.75" y="444"/><rect fill="#EEEEEE" height="23.9688" style="stroke: #A80036; stroke-width: 1.5;" width="71" x="583.75" y="444"/><text fill="#000000" font-family="sans-serif" font-size="12" lengthAdjust="spacingAndGlyphs" textLength="65" x="586.75" y="460.1387">RolePlayer</text></a><!--class ContactPersonRole--><a target="_top" xlink:actuate="onRequest" xlink:href="../ContactPersonRole.html" xlink:show="new" xlink:title="Person to be contacted in a given organisation. In the corporate action domain (including meeting notifications) , it is the contact person at the party organising the meeting, at the issuer or at an intermediary." xlink:type="simple"><rect fill="#EEEEEE" filter="url(#fwmsu2fh24ulm)" height="23.9688" id="ContactPersonRole" style="stroke: #A80036; stroke-width: 1.5;" width="126" x="576" y="358"/><rect fill="#EEEEEE" height="23.9688" style="stroke: #A80036; stroke-width: 1.5;" width="126" x="576" y="358"/><text fill="#000000" font-family="sans-serif" font-size="12" lengthAdjust="spacingAndGlyphs" textLength="120" x="579" y="374.1387">ContactPersonRole</text></a><!--class CounterpartyRisk--><a target="_top" xlink:actuate="onRequest" xlink:href="../CounterpartyRisk.html" xlink:show="new" xlink:title="Calculation of the exposure amount that one party has vis-a-vis one counterparty or a central system, based on its credit risk." xlink:type="simple"><rect fill="#EEEEEE" filter="url(#fwmsu2fh24ulm)" height="23.9688" id="CounterpartyRisk" style="stroke: #A80036; stroke-width: 1.5;" width="113" x="588.75" y="270"/><rect fill="#EEEEEE" height="23.9688" style="stroke: #A80036; stroke-width: 1.5;" width="113" x="588.75" y="270"/><text fill="#000000" font-family="sans-serif" font-size="12" lengthAdjust="spacingAndGlyphs" textLength="107" x="591.75" y="286.1387">CounterpartyRisk</text></a><!--class Entry--><a target="_top" xlink:actuate="onRequest" xlink:href="../Entry.html" xlink:show="new" xlink:title="Posting to an account that results in an increase or decrease to a balance." xlink:type="simple"><rect fill="#EEEEEE" filter="url(#fwmsu2fh24ulm)" height="23.9688" id="Entry" style="stroke: #A80036; stroke-width: 1.5;" width="38" x="576" y="166"/><rect fill="#EEEEEE" height="23.9688" style="stroke: #A80036; stroke-width: 1.5;" width="38" x="576" y="166"/><text fill="#000000" font-family="sans-serif" font-size="12" lengthAdjust="spacingAndGlyphs" textLength="32" x="579" y="182.1387">Entry</text></a><!--class Undertaking--><a target="_top" xlink:actuate="onRequest" xlink:href="../Undertaking.html" xlink:show="new" xlink:title="Independent undertaking, such as a demand guarantee or standby letter of credit, that provides financial assurance, to be collected on the presentation of documents that comply with its terms and conditions." xlink:type="simple"><rect fill="#EEEEEE" filter="url(#fwmsu2fh24ulm)" height="23.9688" id="Undertaking" style="stroke: #A80036; stroke-width: 1.5;" width="83" x="286.75" y="270"/><rect fill="#EEEEEE" height="23.9688" style="stroke: #A80036; stroke-width: 1.5;" width="83" x="286.75" y="270"/><text fill="#000000" font-family="sans-serif" font-size="12" lengthAdjust="spacingAndGlyphs" textLength="77" x="289.75" y="286.1387">Undertaking</text></a><!--entity ##14843--><!--link Role to UndertakingPartyRole--><path d="M142,105.559 C142,127.159 142,151.898 142,165.865 " fill="none" id="Role-UndertakingPartyRole" style="stroke: #A80036; stroke-width: 1.0;"/><polygon fill="none" points="135,105.52,142,85.52,149,105.52,135,105.52" style="stroke: #A80036; stroke-width: 1.0;"/><!--link UndertakingPartyRole to UndertakingInstructingParty--><path d="M141.071,210.595 C140.476,230.825 139.74,255.843 139.325,269.954 " fill="none" id="UndertakingPartyRole-UndertakingInstructingParty" style="stroke: #A80036; stroke-width: 1.0;"/><polygon fill="none" points="134.082,210.091,141.667,190.306,148.076,210.503,134.082,210.091" style="stroke: #A80036; stroke-width: 1.0;"/><!--link ContactPersonRole to RolePlayer--><!--link CounterpartyRisk to ContactPersonRole--><!--link Entry to CounterpartyRisk--><!--link Role to RolePlayer--><path d="M229.396,79.63 C317.328,97.912 440,131.56 440,177 C440,177 440,177 440,371 C440,431.8572 525.842,448.7099 578.634,453.3199 " fill="none" id="Role-RolePlayer" style="stroke: #A80036; stroke-width: 1.0;"/><polygon fill="#A80036" points="583.635,453.7288,574.9919,449.0068,578.6517,453.3202,574.3382,456.98,583.635,453.7288" style="stroke: #A80036; stroke-width: 1.0;"/><text fill="#000000" font-family="sans-serif" font-size="13" lengthAdjust="spacingAndGlyphs" textLength="39" x="441" y="286.0669">Player</text><text fill="#000000" font-family="sans-serif" font-size="13" lengthAdjust="spacingAndGlyphs" textLength="7" x="568.7402" y="447.9585">*</text><!--link Role to ContactPersonRole--><path d="M229.451,68.506 C312.655,74.448 430.29,87.681 466,116 C511.914,152.412 488.131,186.452 516,238 C536.52,275.956 541.125,286.868 571,318 C584.704,332.281 602.714,345.597 616.757,355.039 " fill="none" id="Role-ContactPersonRole" style="stroke: #A80036; stroke-width: 1.0;"/><polygon fill="#A80036" points="620.978,357.842,615.6906,349.5328,616.8118,355.0774,611.2672,356.1987,620.978,357.842" style="stroke: #A80036; stroke-width: 1.0;"/><text fill="#000000" font-family="sans-serif" font-size="13" lengthAdjust="spacingAndGlyphs" textLength="121" x="517" y="233.0669">ContactPersonRole</text><text fill="#000000" font-family="sans-serif" font-size="13" lengthAdjust="spacingAndGlyphs" textLength="8" x="604.0642" y="346.8359">1</text><!--link Role to CounterpartyRisk--><path d="M229.38,65.336 C347.248,68.534 549.726,79.364 613,116 C644.027,133.965 658.798,218.796 659,220 C661.586,235.376 656.874,252.681 652.233,264.921 " fill="none" id="Role-CounterpartyRisk" style="stroke: #A80036; stroke-width: 1.0;"/><polygon fill="#A80036" points="650.27,269.837,657.322,262.9618,652.124,265.1934,649.8923,259.9954,650.27,269.837" style="stroke: #A80036; stroke-width: 1.0;"/><text fill="#000000" font-family="sans-serif" font-size="13" lengthAdjust="spacingAndGlyphs" textLength="109" x="653" y="182.0669">CounterpartyRisk</text><text fill="#000000" font-family="sans-serif" font-size="13" lengthAdjust="spacingAndGlyphs" textLength="24" x="622.5269" y="258.8292">0..1</text><!--link Role to Entry--><path d="M229.391,67.28 C332.424,72.496 496.324,85.427 549,116 C566.934,126.409 580.118,146.852 587.666,161.193 " fill="none" id="Role-Entry" style="stroke: #A80036; stroke-width: 1.0;"/><polygon fill="#A80036" points="590.009,165.8,589.4939,155.9646,587.7421,161.3434,582.3634,159.5916,590.009,165.8" style="stroke: #A80036; stroke-width: 1.0;"/><text fill="#000000" font-family="sans-serif" font-size="13" lengthAdjust="spacingAndGlyphs" textLength="33" x="570" y="129.0669">Entry</text><text fill="#000000" font-family="sans-serif" font-size="13" lengthAdjust="spacingAndGlyphs" textLength="8" x="577.6995" y="155.0372">1</text><!--link UndertakingPartyRole to Undertaking--><path d="M162.259,190.11 C196.501,208.887 265.719,246.846 302.95,267.263 " fill="none" id="UndertakingPartyRole-Undertaking" style="stroke: #A80036; stroke-width: 1.0;"/><polygon fill="#A80036" points="307.766,269.904,301.798,262.0693,303.3819,267.4998,297.9514,269.0838,307.766,269.904" style="stroke: #A80036; stroke-width: 1.0;"/><text fill="#000000" font-family="sans-serif" font-size="13" lengthAdjust="spacingAndGlyphs" textLength="78" x="248" y="233.0669">Undertaking</text><text fill="#000000" font-family="sans-serif" font-size="13" lengthAdjust="spacingAndGlyphs" textLength="8" x="290.0059" y="258.9192">1</text></g></svg>