<?xml version="1.0" encoding="UTF-8" standalone="no"?><svg xmlns="http://www.w3.org/2000/svg" xmlns:xlink="http://www.w3.org/1999/xlink" contentScriptType="application/ecmascript" contentStyleType="text/css" height="478px" preserveAspectRatio="none" style="width:2515px;height:478px;" version="1.1" viewBox="0 0 2515 478" width="2515px" zoomAndPan="magnify"><defs><filter height="300%" id="fo0wdxarhri16" width="300%" x="-1" y="-1"><feGaussianBlur result="blurOut" stdDeviation="2.0"/><feColorMatrix in="blurOut" result="blurOut2" type="matrix" values="0 0 0 0 0 0 0 0 0 0 0 0 0 0 0 0 0 0 .4 0"/><feOffset dx="4.0" dy="4.0" in="blurOut2" result="blurOut3"/><feBlend in="SourceGraphic" in2="blurOut3" mode="normal"/></filter></defs><g><!--cluster ##17615--><!--cluster ##17651--><!--cluster ##17660--><!--class Role--><a target="_top" xlink:actuate="onRequest" xlink:href="../Role.html" xlink:show="new" xlink:title="Role of a party in an activity." xlink:type="simple"><rect fill="#FEFEEE" filter="url(#fo0wdxarhri16)" height="44.7734" id="Role" style="stroke: #A80036; stroke-width: 1.5;" width="175" x="1795.75" y="40.5"/><rect fill="#FEFEEE" height="23.9688" style="stroke: #A80036; stroke-width: 1.5;" width="175" x="1795.75" y="40.5"/><text fill="#000000" font-family="sans-serif" font-size="12" lengthAdjust="spacingAndGlyphs" textLength="27" x="1869.75" y="56.6387">Role</text><line style="stroke: #A80036; stroke-width: 1.5;" x1="1796.75" x2="1969.75" y1="64.4688" y2="64.4688"/><ellipse cx="1806.75" cy="76.3711" fill="#84BE84" rx="3" ry="3" style="stroke: #038048; stroke-width: 1.0;"/><text fill="#000000" font-family="sans-serif" font-size="11" lengthAdjust="spacingAndGlyphs" textLength="53" x="1815.75" y="78.6792">PartyRole</text><text fill="#000000" font-family="sans-serif" font-size="11" font-style="italic" lengthAdjust="spacingAndGlyphs" textLength="92" x="1872.75" y="78.6792">(PartyRoleCode)</text></a><!--class UndertakingPartyRole--><a target="_top" xlink:actuate="onRequest" xlink:href="../UndertakingPartyRole.html" xlink:show="new" xlink:title="Role played by a party in the context of an undertaking." xlink:type="simple"><rect fill="#FEFECE" filter="url(#fo0wdxarhri16)" height="23.9688" id="UndertakingPartyRole" style="stroke: #A80036; stroke-width: 1.5;" width="142" x="1054" y="166"/><rect fill="#FEFECE" height="23.9688" style="stroke: #A80036; stroke-width: 1.5;" width="142" x="1054" y="166"/><text fill="#000000" font-family="sans-serif" font-size="12" lengthAdjust="spacingAndGlyphs" textLength="136" x="1057" y="182.1387">UndertakingPartyRole</text></a><!--class UndertakingIssuer--><a target="_top" xlink:actuate="onRequest" xlink:href="../UndertakingIssuer.html" xlink:show="new" xlink:title="Party that issues the undertaking (or counter-undertaking)." xlink:type="simple"><rect fill="#FEFEEE" filter="url(#fo0wdxarhri16)" height="23.9688" id="UndertakingIssuer" style="stroke: #A80036; stroke-width: 1.5;" width="121" x="38.75" y="270"/><rect fill="#FEFEEE" height="23.9688" style="stroke: #A80036; stroke-width: 1.5;" width="121" x="38.75" y="270"/><text fill="#000000" font-family="sans-serif" font-size="12" lengthAdjust="spacingAndGlyphs" textLength="115" x="41.75" y="286.1387">UndertakingIssuer</text></a><!--class UndertakingDeliveryToParty--><a target="_top" xlink:actuate="onRequest" xlink:href="../UndertakingDeliveryToParty.html" xlink:show="new" xlink:title="Party to which the original undertaking or amendment is intended to be delivered." xlink:type="simple"><rect fill="#FEFEEE" filter="url(#fo0wdxarhri16)" height="23.9688" id="UndertakingDeliveryToParty" style="stroke: #A80036; stroke-width: 1.5;" width="178" x="194.5" y="270"/><rect fill="#FEFEEE" height="23.9688" style="stroke: #A80036; stroke-width: 1.5;" width="178" x="194.5" y="270"/><text fill="#000000" font-family="sans-serif" font-size="12" lengthAdjust="spacingAndGlyphs" textLength="172" x="197.5" y="286.1387">UndertakingDeliveryToParty</text></a><!--class UndertakingAdvisingParty--><a target="_top" xlink:actuate="onRequest" xlink:href="../UndertakingAdvisingParty.html" xlink:show="new" xlink:title="Party that advises the undertaking at the request of the issuer. For further clarification, reference the applicable rules to which the undertaking is subject." xlink:type="simple"><rect fill="#FEFEEE" filter="url(#fo0wdxarhri16)" height="23.9688" id="UndertakingAdvisingParty" style="stroke: #A80036; stroke-width: 1.5;" width="166" x="407" y="270"/><rect fill="#FEFEEE" height="23.9688" style="stroke: #A80036; stroke-width: 1.5;" width="166" x="407" y="270"/><text fill="#000000" font-family="sans-serif" font-size="12" lengthAdjust="spacingAndGlyphs" textLength="160" x="410" y="286.1387">UndertakingAdvisingParty</text></a><!--class UndertakingBeneficiary--><a target="_top" xlink:actuate="onRequest" xlink:href="../UndertakingBeneficiary.html" xlink:show="new" xlink:title="Party in whose favour the undertaking (or counter-undertaking) is issued." xlink:type="simple"><rect fill="#FEFEEE" filter="url(#fo0wdxarhri16)" height="23.9688" id="UndertakingBeneficiary" style="stroke: #A80036; stroke-width: 1.5;" width="151" x="608.75" y="270"/><rect fill="#FEFEEE" height="23.9688" style="stroke: #A80036; stroke-width: 1.5;" width="151" x="608.75" y="270"/><text fill="#000000" font-family="sans-serif" font-size="12" lengthAdjust="spacingAndGlyphs" textLength="145" x="611.75" y="286.1387">UndertakingBeneficiary</text></a><!--class UndertakingUltimateObligor--><a target="_top" xlink:actuate="onRequest" xlink:href="../UndertakingUltimateObligor.html" xlink:show="new" xlink:title="Party that takes responsibility for indemnifying the issuer." xlink:type="simple"><rect fill="#FEFEEE" filter="url(#fo0wdxarhri16)" height="23.9688" id="UndertakingUltimateObligor" style="stroke: #A80036; stroke-width: 1.5;" width="179" x="794.75" y="270"/><rect fill="#FEFEEE" height="23.9688" style="stroke: #A80036; stroke-width: 1.5;" width="179" x="794.75" y="270"/><text fill="#000000" font-family="sans-serif" font-size="12" lengthAdjust="spacingAndGlyphs" textLength="173" x="797.75" y="286.1387">UndertakingUltimateObligor</text></a><!--class UndertakingApplicant--><a target="_top" xlink:actuate="onRequest" xlink:href="../UndertakingApplicant.html" xlink:show="new" xlink:title="Party named in an undertaking as the party on whose behalf the undertaking is issued." xlink:type="simple"><rect fill="#FEFEEE" filter="url(#fo0wdxarhri16)" height="23.9688" id="UndertakingApplicant" style="stroke: #A80036; stroke-width: 1.5;" width="141" x="1008.75" y="270"/><rect fill="#FEFEEE" height="23.9688" style="stroke: #A80036; stroke-width: 1.5;" width="141" x="1008.75" y="270"/><text fill="#000000" font-family="sans-serif" font-size="12" lengthAdjust="spacingAndGlyphs" textLength="135" x="1011.75" y="286.1387">UndertakingApplicant</text></a><!--class UndertakingConfirmer--><a target="_top" xlink:actuate="onRequest" xlink:href="../UndertakingConfirmer.html" xlink:show="new" xlink:title="Party that adds its confirmation to the undertaking." xlink:type="simple"><rect fill="#FEFEEE" filter="url(#fo0wdxarhri16)" height="23.9688" id="UndertakingConfirmer" style="stroke: #A80036; stroke-width: 1.5;" width="143" x="1184.75" y="270"/><rect fill="#FEFEEE" height="23.9688" style="stroke: #A80036; stroke-width: 1.5;" width="143" x="1184.75" y="270"/><text fill="#000000" font-family="sans-serif" font-size="12" lengthAdjust="spacingAndGlyphs" textLength="137" x="1187.75" y="286.1387">UndertakingConfirmer</text></a><!--class UndertakingPresenter--><a target="_top" xlink:actuate="onRequest" xlink:href="../UndertakingPresenter.html" xlink:show="new" xlink:title="Party that makes the presentation." xlink:type="simple"><rect fill="#FEFEEE" filter="url(#fo0wdxarhri16)" height="23.9688" id="UndertakingPresenter" style="stroke: #A80036; stroke-width: 1.5;" width="145" x="1362.75" y="270"/><rect fill="#FEFEEE" height="23.9688" style="stroke: #A80036; stroke-width: 1.5;" width="145" x="1362.75" y="270"/><text fill="#000000" font-family="sans-serif" font-size="12" lengthAdjust="spacingAndGlyphs" textLength="139" x="1365.75" y="286.1387">UndertakingPresenter</text></a><!--class UndertakingPlaceOfPresentation--><a target="_top" xlink:actuate="onRequest" xlink:href="../UndertakingPlaceOfPresentation.html" xlink:show="new" xlink:title="Place at which the documents must be presented." xlink:type="simple"><rect fill="#FEFEEE" filter="url(#fo0wdxarhri16)" height="23.9688" id="UndertakingPlaceOfPresentation" style="stroke: #A80036; stroke-width: 1.5;" width="211" x="1542.75" y="270"/><rect fill="#FEFEEE" height="23.9688" style="stroke: #A80036; stroke-width: 1.5;" width="211" x="1542.75" y="270"/><text fill="#000000" font-family="sans-serif" font-size="12" lengthAdjust="spacingAndGlyphs" textLength="205" x="1545.75" y="286.1387">UndertakingPlaceOfPresentation</text></a><!--class UndertakingInstructingParty--><a target="_top" xlink:actuate="onRequest" xlink:href="../UndertakingInstructingParty.html" xlink:show="new" xlink:title="Party that instructs the issuance of the undertaking." xlink:type="simple"><rect fill="#FEFEEE" filter="url(#fo0wdxarhri16)" height="23.9688" id="UndertakingInstructingParty" style="stroke: #A80036; stroke-width: 1.5;" width="182" x="1789" y="270"/><rect fill="#FEFEEE" height="23.9688" style="stroke: #A80036; stroke-width: 1.5;" width="182" x="1789" y="270"/><text fill="#000000" font-family="sans-serif" font-size="12" lengthAdjust="spacingAndGlyphs" textLength="176" x="1792" y="286.1387">UndertakingInstructingParty</text></a><!--class RolePlayer--><a target="_top" xlink:actuate="onRequest" xlink:href="../RolePlayer.html" xlink:show="new" xlink:title="Type of entity that plays a specific role in a specific context." xlink:type="simple"><rect fill="#EEEEEE" filter="url(#fo0wdxarhri16)" height="23.9688" id="RolePlayer" style="stroke: #A80036; stroke-width: 1.5;" width="71" x="2324.75" y="444"/><rect fill="#EEEEEE" height="23.9688" style="stroke: #A80036; stroke-width: 1.5;" width="71" x="2324.75" y="444"/><text fill="#000000" font-family="sans-serif" font-size="12" lengthAdjust="spacingAndGlyphs" textLength="65" x="2327.75" y="460.1387">RolePlayer</text></a><!--class ContactPersonRole--><a target="_top" xlink:actuate="onRequest" xlink:href="../ContactPersonRole.html" xlink:show="new" xlink:title="Person to be contacted in a given organisation. In the corporate action domain (including meeting notifications) , it is the contact person at the party organising the meeting, at the issuer or at an intermediary." xlink:type="simple"><rect fill="#EEEEEE" filter="url(#fo0wdxarhri16)" height="23.9688" id="ContactPersonRole" style="stroke: #A80036; stroke-width: 1.5;" width="126" x="2317" y="358"/><rect fill="#EEEEEE" height="23.9688" style="stroke: #A80036; stroke-width: 1.5;" width="126" x="2317" y="358"/><text fill="#000000" font-family="sans-serif" font-size="12" lengthAdjust="spacingAndGlyphs" textLength="120" x="2320" y="374.1387">ContactPersonRole</text></a><!--class CounterpartyRisk--><a target="_top" xlink:actuate="onRequest" xlink:href="../CounterpartyRisk.html" xlink:show="new" xlink:title="Calculation of the exposure amount that one party has vis-a-vis one counterparty or a central system, based on its credit risk." xlink:type="simple"><rect fill="#EEEEEE" filter="url(#fo0wdxarhri16)" height="23.9688" id="CounterpartyRisk" style="stroke: #A80036; stroke-width: 1.5;" width="113" x="2329.75" y="270"/><rect fill="#EEEEEE" height="23.9688" style="stroke: #A80036; stroke-width: 1.5;" width="113" x="2329.75" y="270"/><text fill="#000000" font-family="sans-serif" font-size="12" lengthAdjust="spacingAndGlyphs" textLength="107" x="2332.75" y="286.1387">CounterpartyRisk</text></a><!--class Entry--><a target="_top" xlink:actuate="onRequest" xlink:href="../Entry.html" xlink:show="new" xlink:title="Posting to an account that results in an increase or decrease to a balance." xlink:type="simple"><rect fill="#EEEEEE" filter="url(#fo0wdxarhri16)" height="23.9688" id="Entry" style="stroke: #A80036; stroke-width: 1.5;" width="38" x="2317" y="166"/><rect fill="#EEEEEE" height="23.9688" style="stroke: #A80036; stroke-width: 1.5;" width="38" x="2317" y="166"/><text fill="#000000" font-family="sans-serif" font-size="12" lengthAdjust="spacingAndGlyphs" textLength="32" x="2320" y="182.1387">Entry</text></a><!--class Undertaking--><a target="_top" xlink:actuate="onRequest" xlink:href="../Undertaking.html" xlink:show="new" xlink:title="Independent undertaking, such as a demand guarantee or standby letter of credit, that provides financial assurance, to be collected on the presentation of documents that comply with its terms and conditions." xlink:type="simple"><rect fill="#EEEEEE" filter="url(#fo0wdxarhri16)" height="23.9688" id="Undertaking" style="stroke: #A80036; stroke-width: 1.5;" width="83" x="2027.75" y="270"/><rect fill="#EEEEEE" height="23.9688" style="stroke: #A80036; stroke-width: 1.5;" width="83" x="2027.75" y="270"/><text fill="#000000" font-family="sans-serif" font-size="12" lengthAdjust="spacingAndGlyphs" textLength="77" x="2030.75" y="286.1387">Undertaking</text></a><!--link Role to UndertakingPartyRole--><path d="M1775.78,79.984 C1618.51,103.429 1329.53,146.51 1196.03,166.41 " fill="none" id="Role-UndertakingPartyRole" style="stroke: #A80036; stroke-width: 1.0;"/><polygon fill="none" points="1774.86,73.043,1795.68,77.018,1776.93,86.89,1774.86,73.043" style="stroke: #A80036; stroke-width: 1.0;"/><!--link UndertakingPartyRole to UndertakingIssuer--><path d="M1033.78,182.902 C899.31,188.973 640.017,201.891 420,220 C311.309,228.946 281.212,217.29 176,246 C155.601,251.567 133.787,261.945 118.605,269.961 " fill="none" id="UndertakingPartyRole-UndertakingIssuer" style="stroke: #A80036; stroke-width: 1.0;"/><polygon fill="none" points="1033.58,175.904,1053.87,182.004,1034.2,189.89,1033.58,175.904" style="stroke: #A80036; stroke-width: 1.0;"/><!--link UndertakingPartyRole to UndertakingDeliveryToParty--><path d="M1033.76,180.11 C893.577,183.423 617.458,196.327 389,246 C362.109,251.847 332.436,261.976 311.341,269.838 " fill="none" id="UndertakingPartyRole-UndertakingDeliveryToParty" style="stroke: #A80036; stroke-width: 1.0;"/><polygon fill="none" points="1033.7,173.11,1053.84,179.68,1034,187.107,1033.7,173.11" style="stroke: #A80036; stroke-width: 1.0;"/><!--link UndertakingPartyRole to UndertakingAdvisingParty--><path d="M1033.7,184.634 C926.551,192.58 744.068,210.289 591,246 C565.337,251.987 537.069,262.101 516.981,269.921 " fill="none" id="UndertakingPartyRole-UndertakingAdvisingParty" style="stroke: #A80036; stroke-width: 1.0;"/><polygon fill="none" points="1033.32,177.643,1053.77,183.195,1034.32,191.607,1033.32,177.643" style="stroke: #A80036; stroke-width: 1.0;"/><!--link UndertakingPartyRole to UndertakingBeneficiary--><path d="M1033.8,192.212 C963.02,203.506 862.825,221.778 777,246 C753.756,252.56 728.121,262.413 709.663,269.995 " fill="none" id="UndertakingPartyRole-UndertakingBeneficiary" style="stroke: #A80036; stroke-width: 1.0;"/><polygon fill="none" points="1033.02,185.249,1053.86,189.072,1035.18,199.081,1033.02,185.249" style="stroke: #A80036; stroke-width: 1.0;"/><!--link UndertakingPartyRole to UndertakingUltimateObligor--><path d="M1080.24,197.944 C1030.26,219.098 951.033,252.629 910.218,269.904 " fill="none" id="UndertakingPartyRole-UndertakingUltimateObligor" style="stroke: #A80036; stroke-width: 1.0;"/><polygon fill="none" points="1077.6,191.459,1098.75,190.11,1083.06,204.352,1077.6,191.459" style="stroke: #A80036; stroke-width: 1.0;"/><!--link UndertakingPartyRole to UndertakingApplicant--><path d="M1111.63,208.642 C1102.36,229.191 1090.55,255.385 1083.98,269.954 " fill="none" id="UndertakingPartyRole-UndertakingApplicant" style="stroke: #A80036; stroke-width: 1.0;"/><polygon fill="none" points="1105.3,205.659,1119.9,190.306,1118.06,211.415,1105.3,205.659" style="stroke: #A80036; stroke-width: 1.0;"/><!--link UndertakingPartyRole to UndertakingConfirmer--><path d="M1155.15,202.472 C1182.32,223.631 1221.09,253.817 1241.75,269.904 " fill="none" id="UndertakingPartyRole-UndertakingConfirmer" style="stroke: #A80036; stroke-width: 1.0;"/><polygon fill="none" points="1150.75,207.92,1139.27,190.11,1159.35,196.874,1150.75,207.92" style="stroke: #A80036; stroke-width: 1.0;"/><!--link UndertakingPartyRole to UndertakingPresenter--><path d="M1183.34,195.635 C1227.67,208.568 1290.01,227.385 1344,246 C1365.6,253.449 1389.73,262.775 1407.71,269.926 " fill="none" id="UndertakingPartyRole-UndertakingPresenter" style="stroke: #A80036; stroke-width: 1.0;"/><polygon fill="none" points="1181.3,202.332,1164.03,190.043,1185.19,188.884,1181.3,202.332" style="stroke: #A80036; stroke-width: 1.0;"/><!--link UndertakingPartyRole to UndertakingPlaceOfPresentation--><path d="M1216.08,191.413 C1297.31,203.167 1419.23,222.49 1524,246 C1554.23,252.783 1588.04,262.471 1612.72,269.935 " fill="none" id="UndertakingPartyRole-UndertakingPlaceOfPresentation" style="stroke: #A80036; stroke-width: 1.0;"/><polygon fill="none" points="1214.89,198.315,1196.09,188.554,1216.87,184.456,1214.89,198.315" style="stroke: #A80036; stroke-width: 1.0;"/><!--link UndertakingPartyRole to UndertakingInstructingParty--><path d="M1216.35,182.607 C1342.15,188.904 1575.3,205.36 1770,246 C1798.05,251.856 1829.09,262.09 1851.02,269.985 " fill="none" id="UndertakingPartyRole-UndertakingInstructingParty" style="stroke: #A80036; stroke-width: 1.0;"/><polygon fill="none" points="1216,189.598,1196.36,181.647,1216.67,175.614,1216,189.598" style="stroke: #A80036; stroke-width: 1.0;"/><!--link ContactPersonRole to RolePlayer--><!--link CounterpartyRisk to ContactPersonRole--><!--link Entry to CounterpartyRisk--><!--link Role to RolePlayer--><path d="M1970.4,79.63 C2058.33,97.912 2181,131.56 2181,177 C2181,177 2181,177 2181,371 C2181,431.8572 2266.84,448.7099 2319.63,453.3199 " fill="none" id="Role-RolePlayer" style="stroke: #A80036; stroke-width: 1.0;"/><polygon fill="#A80036" points="2324.64,453.7288,2315.9889,449.0215,2319.656,453.3288,2315.3488,456.9959,2324.64,453.7288" style="stroke: #A80036; stroke-width: 1.0;"/><text fill="#000000" font-family="sans-serif" font-size="13" lengthAdjust="spacingAndGlyphs" textLength="39" x="2182" y="286.0669">Player</text><text fill="#000000" font-family="sans-serif" font-size="13" lengthAdjust="spacingAndGlyphs" textLength="7" x="2309.7461" y="447.9585">*</text><!--link Role to ContactPersonRole--><path d="M1970.45,68.506 C2053.66,74.448 2171.29,87.681 2207,116 C2252.91,152.412 2229.13,186.452 2257,238 C2277.52,275.956 2282.13,286.868 2312,318 C2325.7,332.281 2343.71,345.597 2357.76,355.039 " fill="none" id="Role-ContactPersonRole" style="stroke: #A80036; stroke-width: 1.0;"/><polygon fill="#A80036" points="2361.98,357.842,2356.7024,349.5265,2357.8171,355.0725,2352.2712,356.1871,2361.98,357.842" style="stroke: #A80036; stroke-width: 1.0;"/><text fill="#000000" font-family="sans-serif" font-size="13" lengthAdjust="spacingAndGlyphs" textLength="121" x="2258" y="233.0669">ContactPersonRole</text><text fill="#000000" font-family="sans-serif" font-size="13" lengthAdjust="spacingAndGlyphs" textLength="8" x="2345.0669" y="346.8359">1</text><!--link Role to CounterpartyRisk--><path d="M1970.38,65.336 C2088.25,68.534 2290.73,79.364 2354,116 C2385.03,133.965 2399.8,218.796 2400,220 C2402.59,235.376 2397.87,252.681 2393.23,264.921 " fill="none" id="Role-CounterpartyRisk" style="stroke: #A80036; stroke-width: 1.0;"/><polygon fill="#A80036" points="2391.27,269.837,2398.3228,262.9625,2393.1245,265.1936,2390.8934,259.9953,2391.27,269.837" style="stroke: #A80036; stroke-width: 1.0;"/><text fill="#000000" font-family="sans-serif" font-size="13" lengthAdjust="spacingAndGlyphs" textLength="109" x="2394" y="182.0669">CounterpartyRisk</text><text fill="#000000" font-family="sans-serif" font-size="13" lengthAdjust="spacingAndGlyphs" textLength="24" x="2363.5269" y="258.8292">0..1</text><!--link Role to Entry--><path d="M1970.39,67.28 C2073.42,72.496 2237.32,85.427 2290,116 C2307.93,126.409 2321.12,146.852 2328.67,161.193 " fill="none" id="Role-Entry" style="stroke: #A80036; stroke-width: 1.0;"/><polygon fill="#A80036" points="2331.01,165.8,2330.4949,155.9646,2328.7431,161.3434,2323.3644,159.5916,2331.01,165.8" style="stroke: #A80036; stroke-width: 1.0;"/><text fill="#000000" font-family="sans-serif" font-size="13" lengthAdjust="spacingAndGlyphs" textLength="33" x="2311" y="129.0669">Entry</text><text fill="#000000" font-family="sans-serif" font-size="13" lengthAdjust="spacingAndGlyphs" textLength="8" x="2318.7008" y="155.0372">1</text><!--link UndertakingPartyRole to Undertaking--><path d="M1196.23,181.483 C1374.76,188.196 1837.72,208.754 1987,246 C2006.6,250.89 2027.52,259.89 2043.33,267.538 " fill="none" id="UndertakingPartyRole-Undertaking" style="stroke: #A80036; stroke-width: 1.0;"/><polygon fill="#A80036" points="2048.07,269.863,2041.749,262.3102,2043.5803,267.6624,2038.2281,269.4938,2048.07,269.863" style="stroke: #A80036; stroke-width: 1.0;"/><text fill="#000000" font-family="sans-serif" font-size="13" lengthAdjust="spacingAndGlyphs" textLength="78" x="1950" y="233.0669">Undertaking</text><text fill="#000000" font-family="sans-serif" font-size="13" lengthAdjust="spacingAndGlyphs" textLength="8" x="2030.0706" y="258.8641">1</text></g></svg>