<?xml version="1.0" encoding="UTF-8" standalone="no"?><svg xmlns="http://www.w3.org/2000/svg" xmlns:xlink="http://www.w3.org/1999/xlink" contentScriptType="application/ecmascript" contentStyleType="text/css" height="500px" preserveAspectRatio="none" style="width:1126px;height:500px;" version="1.1" viewBox="0 0 1126 500" width="1126px" zoomAndPan="magnify"><defs><filter height="300%" id="f1vipawkbye7cz" width="300%" x="-1" y="-1"><feGaussianBlur result="blurOut" stdDeviation="2.0"/><feColorMatrix in="blurOut" result="blurOut2" type="matrix" values="0 0 0 0 0 0 0 0 0 0 0 0 0 0 0 0 0 0 .4 0"/><feOffset dx="4.0" dy="4.0" in="blurOut2" result="blurOut3"/><feBlend in="SourceGraphic" in2="blurOut3" mode="normal"/></filter></defs><g><!--cluster ##18712--><!--cluster ##18724--><!--cluster ##18733--><!--cluster ##18738--><!--class Role--><a target="_top" xlink:actuate="onRequest" xlink:href="../Role.html" xlink:show="new" xlink:title="Role of a party in an activity." xlink:type="simple"><rect fill="#FEFEEE" filter="url(#f1vipawkbye7cz)" height="44.7734" id="Role" style="stroke: #A80036; stroke-width: 1.5;" width="175" x="51.75" y="40.5"/><rect fill="#FEFEEE" height="23.9688" style="stroke: #A80036; stroke-width: 1.5;" width="175" x="51.75" y="40.5"/><text fill="#000000" font-family="sans-serif" font-size="12" lengthAdjust="spacingAndGlyphs" textLength="27" x="125.75" y="56.6387">Role</text><line style="stroke: #A80036; stroke-width: 1.5;" x1="52.75" x2="225.75" y1="64.4688" y2="64.4688"/><ellipse cx="62.75" cy="76.3711" fill="#84BE84" rx="3" ry="3" style="stroke: #038048; stroke-width: 1.0;"/><text fill="#000000" font-family="sans-serif" font-size="11" lengthAdjust="spacingAndGlyphs" textLength="53" x="71.75" y="78.6792">PartyRole</text><text fill="#000000" font-family="sans-serif" font-size="11" font-style="italic" lengthAdjust="spacingAndGlyphs" textLength="92" x="128.75" y="78.6792">(PartyRoleCode)</text></a><!--class CorporateActionPartyRole--><a target="_top" xlink:actuate="onRequest" xlink:href="../CorporateActionPartyRole.html" xlink:show="new" xlink:title="Role played by a party in the context of a corporate action." xlink:type="simple"><rect fill="#FEFEEE" filter="url(#f1vipawkbye7cz)" height="23.9688" id="CorporateActionPartyRole" style="stroke: #A80036; stroke-width: 1.5;" width="167" x="59.75" y="166"/><rect fill="#FEFEEE" height="23.9688" style="stroke: #A80036; stroke-width: 1.5;" width="167" x="59.75" y="166"/><text fill="#000000" font-family="sans-serif" font-size="12" lengthAdjust="spacingAndGlyphs" textLength="161" x="62.75" y="182.1387">CorporateActionPartyRole</text></a><!--class MeetingPartyRole--><a target="_top" xlink:actuate="onRequest" xlink:href="../MeetingPartyRole.html" xlink:show="new" xlink:title="Role played by a party in the context of a meeting." xlink:type="simple"><rect fill="#FEFEEE" filter="url(#f1vipawkbye7cz)" height="23.9688" id="MeetingPartyRole" style="stroke: #A80036; stroke-width: 1.5;" width="115" x="51.75" y="272"/><rect fill="#FEFEEE" height="23.9688" style="stroke: #A80036; stroke-width: 1.5;" width="115" x="51.75" y="272"/><text fill="#000000" font-family="sans-serif" font-size="12" lengthAdjust="spacingAndGlyphs" textLength="109" x="54.75" y="288.1387">MeetingPartyRole</text></a><!--class VotingPartyRole--><a target="_top" xlink:actuate="onRequest" xlink:href="../VotingPartyRole.html" xlink:show="new" xlink:title="Party that has indicated its voting decision on one agenda item or on the entirety of the agenda." xlink:type="simple"><rect fill="#FEFECE" filter="url(#f1vipawkbye7cz)" height="23.9688" id="VotingPartyRole" style="stroke: #A80036; stroke-width: 1.5;" width="105" x="121.75" y="360"/><rect fill="#FEFECE" height="23.9688" style="stroke: #A80036; stroke-width: 1.5;" width="105" x="121.75" y="360"/><text fill="#000000" font-family="sans-serif" font-size="12" lengthAdjust="spacingAndGlyphs" textLength="99" x="124.75" y="376.1387">VotingPartyRole</text></a><!--class RolePlayer--><a target="_top" xlink:actuate="onRequest" xlink:href="../RolePlayer.html" xlink:show="new" xlink:title="Type of entity that plays a specific role in a specific context." xlink:type="simple"><rect fill="#EEEEEE" filter="url(#f1vipawkbye7cz)" height="23.9688" id="RolePlayer" style="stroke: #A80036; stroke-width: 1.5;" width="71" x="701.75" y="466"/><rect fill="#EEEEEE" height="23.9688" style="stroke: #A80036; stroke-width: 1.5;" width="71" x="701.75" y="466"/><text fill="#000000" font-family="sans-serif" font-size="12" lengthAdjust="spacingAndGlyphs" textLength="65" x="704.75" y="482.1387">RolePlayer</text></a><!--class ContactPersonRole--><a target="_top" xlink:actuate="onRequest" xlink:href="../ContactPersonRole.html" xlink:show="new" xlink:title="Person to be contacted in a given organisation. In the corporate action domain (including meeting notifications) , it is the contact person at the party organising the meeting, at the issuer or at an intermediary." xlink:type="simple"><rect fill="#EEEEEE" filter="url(#f1vipawkbye7cz)" height="23.9688" id="ContactPersonRole" style="stroke: #A80036; stroke-width: 1.5;" width="126" x="654" y="360"/><rect fill="#EEEEEE" height="23.9688" style="stroke: #A80036; stroke-width: 1.5;" width="126" x="654" y="360"/><text fill="#000000" font-family="sans-serif" font-size="12" lengthAdjust="spacingAndGlyphs" textLength="120" x="657" y="376.1387">ContactPersonRole</text></a><!--class CounterpartyRisk--><a target="_top" xlink:actuate="onRequest" xlink:href="../CounterpartyRisk.html" xlink:show="new" xlink:title="Calculation of the exposure amount that one party has vis-a-vis one counterparty or a central system, based on its credit risk." xlink:type="simple"><rect fill="#EEEEEE" filter="url(#f1vipawkbye7cz)" height="23.9688" id="CounterpartyRisk" style="stroke: #A80036; stroke-width: 1.5;" width="113" x="660.75" y="272"/><rect fill="#EEEEEE" height="23.9688" style="stroke: #A80036; stroke-width: 1.5;" width="113" x="660.75" y="272"/><text fill="#000000" font-family="sans-serif" font-size="12" lengthAdjust="spacingAndGlyphs" textLength="107" x="663.75" y="288.1387">CounterpartyRisk</text></a><!--class Entry--><a target="_top" xlink:actuate="onRequest" xlink:href="../Entry.html" xlink:show="new" xlink:title="Posting to an account that results in an increase or decrease to a balance." xlink:type="simple"><rect fill="#EEEEEE" filter="url(#f1vipawkbye7cz)" height="23.9688" id="Entry" style="stroke: #A80036; stroke-width: 1.5;" width="38" x="654" y="166"/><rect fill="#EEEEEE" height="23.9688" style="stroke: #A80036; stroke-width: 1.5;" width="38" x="654" y="166"/><text fill="#000000" font-family="sans-serif" font-size="12" lengthAdjust="spacingAndGlyphs" textLength="32" x="657" y="182.1387">Entry</text></a><!--class CorporateActionEvent--><a target="_top" xlink:actuate="onRequest" xlink:href="../CorporateActionEvent.html" xlink:show="new" xlink:title="An event determined by a corporation's board of directors, that changes the existing corporate capital structure or financial condition." xlink:type="simple"><rect fill="#EEEEEE" filter="url(#f1vipawkbye7cz)" height="23.9688" id="CorporateActionEvent" style="stroke: #A80036; stroke-width: 1.5;" width="143" x="415.75" y="360"/><rect fill="#EEEEEE" height="23.9688" style="stroke: #A80036; stroke-width: 1.5;" width="143" x="415.75" y="360"/><text fill="#000000" font-family="sans-serif" font-size="12" lengthAdjust="spacingAndGlyphs" textLength="137" x="418.75" y="376.1387">CorporateActionEvent</text></a><!--class Account--><a target="_top" xlink:actuate="onRequest" xlink:href="../Account.html" xlink:show="new" xlink:title="Record of transactions in specific types of assets, maintained by a servicing party on behalf of one or more owning parties. Business relationship between an account servicer and one or more account owners." xlink:type="simple"><rect fill="#EEEEEE" filter="url(#f1vipawkbye7cz)" height="23.9688" id="Account" style="stroke: #A80036; stroke-width: 1.5;" width="57" x="415.75" y="272"/><rect fill="#EEEEEE" height="23.9688" style="stroke: #A80036; stroke-width: 1.5;" width="57" x="415.75" y="272"/><text fill="#000000" font-family="sans-serif" font-size="12" lengthAdjust="spacingAndGlyphs" textLength="51" x="418.75" y="288.1387">Account</text></a><!--class Meeting--><a target="_top" xlink:actuate="onRequest" xlink:href="../Meeting.html" xlink:show="new" xlink:title="Specifies the physical parameters of a general meeting. Several dates and places can be defined for a  meeting." xlink:type="simple"><rect fill="#EEEEEE" filter="url(#f1vipawkbye7cz)" height="23.9688" id="Meeting" style="stroke: #A80036; stroke-width: 1.5;" width="56" x="459.5" y="466"/><rect fill="#EEEEEE" height="23.9688" style="stroke: #A80036; stroke-width: 1.5;" width="56" x="459.5" y="466"/><text fill="#000000" font-family="sans-serif" font-size="12" lengthAdjust="spacingAndGlyphs" textLength="50" x="462.5" y="482.1387">Meeting</text></a><!--entity ##18741--><!--link Role to CorporateActionPartyRole--><path d="M140.471,105.559 C141.236,127.159 142.111,151.898 142.606,165.865 " fill="none" id="Role-CorporateActionPartyRole" style="stroke: #A80036; stroke-width: 1.0;"/><polygon fill="none" points="133.474,105.756,139.762,85.52,147.465,105.26,133.474,105.756" style="stroke: #A80036; stroke-width: 1.0;"/><!--link CorporateActionPartyRole to MeetingPartyRole--><path d="M133.122,209.215 C126.239,230.268 117.455,257.137 112.612,271.95 " fill="none" id="CorporateActionPartyRole-MeetingPartyRole" style="stroke: #A80036; stroke-width: 1.0;"/><polygon fill="none" points="126.493,206.965,139.361,190.13,139.8,211.315,126.493,206.965" style="stroke: #A80036; stroke-width: 1.0;"/><!--link MeetingPartyRole to VotingPartyRole--><path d="M129.666,312.343 C141.786,328.378 156.449,347.778 165.5,359.754 " fill="none" id="MeetingPartyRole-VotingPartyRole" style="stroke: #A80036; stroke-width: 1.0;"/><polygon fill="none" points="123.973,316.419,117.498,296.243,135.141,307.978,123.973,316.419" style="stroke: #A80036; stroke-width: 1.0;"/><!--link ContactPersonRole to RolePlayer--><!--link CounterpartyRisk to ContactPersonRole--><!--link Entry to CounterpartyRisk--><!--link Account to CorporateActionEvent--><!--link Role to RolePlayer--><path d="M226.542,65.488 C458.978,70.596 1074,92.129 1074,177 C1074,177 1074,177 1074,373 C1074,434.3845 867.27,463.4112 777.642,473.1111 " fill="none" id="Role-RolePlayer" style="stroke: #A80036; stroke-width: 1.0;"/><polygon fill="#A80036" points="772.428,473.6679,781.8022,476.6887,777.3997,473.1365,780.9519,468.734,772.428,473.6679" style="stroke: #A80036; stroke-width: 1.0;"/><text fill="#000000" font-family="sans-serif" font-size="13" lengthAdjust="spacingAndGlyphs" textLength="39" x="1075" y="288.0669">Player</text><text fill="#000000" font-family="sans-serif" font-size="13" lengthAdjust="spacingAndGlyphs" textLength="7" x="780.8888" y="466.9457">*</text><!--link Role to ContactPersonRole--><path d="M226.515,67.005 C407.68,74.15 810.295,95.178 850,142 C911.461,214.476 786.979,319.197 736.744,356.851 " fill="none" id="Role-ContactPersonRole" style="stroke: #A80036; stroke-width: 1.0;"/><polygon fill="#A80036" points="732.689,359.865,742.2978,357.704,736.7011,356.8813,737.5238,351.2845,732.689,359.865" style="stroke: #A80036; stroke-width: 1.0;"/><text fill="#000000" font-family="sans-serif" font-size="13" lengthAdjust="spacingAndGlyphs" textLength="121" x="861" y="233.0669">ContactPersonRole</text><text fill="#000000" font-family="sans-serif" font-size="13" lengthAdjust="spacingAndGlyphs" textLength="8" x="727.3633" y="348.8668">1</text><!--link Role to CounterpartyRisk--><path d="M226.406,69.909 C378.029,81.03 676.788,107.126 709,142 C740.636,176.25 729.686,237.419 721.962,266.616 " fill="none" id="Role-CounterpartyRisk" style="stroke: #A80036; stroke-width: 1.0;"/><polygon fill="#A80036" points="720.568,271.682,726.811,264.0646,721.8936,266.8609,719.0973,261.9436,720.568,271.682" style="stroke: #A80036; stroke-width: 1.0;"/><text fill="#000000" font-family="sans-serif" font-size="13" lengthAdjust="spacingAndGlyphs" textLength="109" x="731" y="182.0669">CounterpartyRisk</text><text fill="#000000" font-family="sans-serif" font-size="13" lengthAdjust="spacingAndGlyphs" textLength="24" x="692.3608" y="260.8801">0..1</text><!--link Role to Entry--><path d="M226.283,82.47 C351.614,108.991 575.556,156.38 648.969,171.915 " fill="none" id="Role-Entry" style="stroke: #A80036; stroke-width: 1.0;"/><polygon fill="#A80036" points="653.992,172.978,646.0138,167.2031,649.1001,171.9439,644.3593,175.0302,653.992,172.978" style="stroke: #A80036; stroke-width: 1.0;"/><text fill="#000000" font-family="sans-serif" font-size="13" lengthAdjust="spacingAndGlyphs" textLength="33" x="471" y="129.0669">Entry</text><text fill="#000000" font-family="sans-serif" font-size="13" lengthAdjust="spacingAndGlyphs" textLength="8" x="637.9396" y="165.0969">1</text><!--link CorporateActionPartyRole to CorporateActionEvent--><path d="M150.56,190.316 C166.853,213.84 207.654,268.299 255,298 C304.97,329.347 369.491,348.221 417.801,358.9 " fill="none" id="CorporateActionPartyRole-CorporateActionEvent" style="stroke: #A80036; stroke-width: 1.0;"/><polygon fill="#A80036" points="422.72,359.971,414.7776,354.1471,417.8346,358.9068,413.0748,361.9637,422.72,359.971" style="stroke: #A80036; stroke-width: 1.0;"/><text fill="#000000" font-family="sans-serif" font-size="13" lengthAdjust="spacingAndGlyphs" textLength="140" x="256" y="288.0669">CorporateActionEvent</text><text fill="#000000" font-family="sans-serif" font-size="13" lengthAdjust="spacingAndGlyphs" textLength="7" x="400.4826" y="351.8207">*</text><!--link CorporateActionPartyRole to Account--><path d="M203.748,190.013 C254.483,200.514 327.951,218.794 388,246 C401.493,252.113 415.395,261.279 425.972,268.958 " fill="none" id="CorporateActionPartyRole-Account" style="stroke: #A80036; stroke-width: 1.0;"/><polygon fill="#A80036" points="429.999,271.927,425.1289,263.3665,425.9746,268.9598,420.3813,269.8055,429.999,271.927" style="stroke: #A80036; stroke-width: 1.0;"/><text fill="#000000" font-family="sans-serif" font-size="13" lengthAdjust="spacingAndGlyphs" textLength="52" x="371" y="233.0669">Account</text><text fill="#000000" font-family="sans-serif" font-size="13" lengthAdjust="spacingAndGlyphs" textLength="7" x="415.5533" y="260.9501">*</text><!--link MeetingPartyRole to Meeting--><path d="M95.8268,296.287 C70.4491,319.357 19.8441,372.709 50,408 C102.2764,469.1783 361.747,476.4336 454.208,477.0521 " fill="none" id="MeetingPartyRole-Meeting" style="stroke: #A80036; stroke-width: 1.0;"/><polygon fill="#A80036" points="459.27,477.0803,450.2918,473.0315,454.2701,477.0532,450.2484,481.0314,459.27,477.0803" style="stroke: #A80036; stroke-width: 1.0;"/><text fill="#000000" font-family="sans-serif" font-size="13" lengthAdjust="spacingAndGlyphs" textLength="51" x="51" y="376.0669">Meeting</text><text fill="#000000" font-family="sans-serif" font-size="13" lengthAdjust="spacingAndGlyphs" textLength="7" x="444.5194" y="471.2213">*</text><!--link ContactPersonRole to Meeting--><path d="M696.487,384.202 C672.829,396.939 632.613,418.033 597,434 C571.43,445.4639 541.812,456.9425 519.755,465.153 " fill="none" id="ContactPersonRole-Meeting" style="stroke: #A80036; stroke-width: 1.0;"/><polygon fill="#A80036" points="514.885,466.9584,524.7143,467.5795,519.573,465.2199,521.9326,460.0786,514.885,466.9584" style="stroke: #A80036; stroke-width: 1.0;"/><text fill="#000000" font-family="sans-serif" font-size="13" lengthAdjust="spacingAndGlyphs" textLength="51" x="635" y="429.0669">Meeting</text><text fill="#000000" font-family="sans-serif" font-size="13" lengthAdjust="spacingAndGlyphs" textLength="7" x="523.5714" y="457.5523">*</text><!--link Entry to Account--><path d="M653.869,187.688 C613.754,205.907 520.622,248.202 473.07,269.798 " fill="none" id="Entry-Account" style="stroke: #A80036; stroke-width: 1.0;"/><polygon fill="#A80036" points="468.336,271.948,478.1845,271.8694,472.8887,269.8809,474.8772,264.5851,468.336,271.948" style="stroke: #A80036; stroke-width: 1.0;"/><text fill="#000000" font-family="sans-serif" font-size="13" lengthAdjust="spacingAndGlyphs" textLength="52" x="581" y="233.0669">Account</text><text fill="#000000" font-family="sans-serif" font-size="13" lengthAdjust="spacingAndGlyphs" textLength="7" x="467.0687" y="260.9783">*</text><!--link CorporateActionEvent to Meeting--><path d="M487,384.13 C487,402.583 487,439.5865 487,460.8925 " fill="none" id="CorporateActionEvent-Meeting" style="stroke: #A80036; stroke-width: 1.0;"/><polygon fill="#A80036" points="487,465.9502,491,456.9502,487,460.9502,483,456.9502,487,465.9502" style="stroke: #A80036; stroke-width: 1.0;"/><text fill="#000000" font-family="sans-serif" font-size="13" lengthAdjust="spacingAndGlyphs" textLength="99" x="488" y="429.0669">RelatedMeeting</text><text fill="#000000" font-family="sans-serif" font-size="13" lengthAdjust="spacingAndGlyphs" textLength="7" x="477.2813" y="454.9813">*</text><!--link Account to Account--><path d="M472.508,276.332 C490.181,274.483 507,277.039 507,284 C507,290.254 493.424,292.952 477.85,292.095 " fill="none" id="Account-Account" style="stroke: #A80036; stroke-width: 1.0;"/><polygon fill="#A80036" points="472.508,291.668,481.1605,296.3727,477.4921,292.0666,481.7982,288.3981,472.508,291.668" style="stroke: #A80036; stroke-width: 1.0;"/><text fill="#000000" font-family="sans-serif" font-size="13" lengthAdjust="spacingAndGlyphs" textLength="94" x="513" y="288.0669">ParentAccount</text><text fill="#000000" font-family="sans-serif" font-size="13" lengthAdjust="spacingAndGlyphs" textLength="8" x="480.7741" y="287.5427">1</text></g></svg>